<?xml version="1.0" encoding="UTF-8" standalone="no"?>
<!DOCTYPE svg PUBLIC "-//W3C//DTD SVG 1.1//EN" "http://www.w3.org/Graphics/SVG/1.1/DTD/svg11.dtd">
<svg width="100%" height="100%" viewBox="0 0 1831 756" version="1.1" xmlns="http://www.w3.org/2000/svg" xmlns:xlink="http://www.w3.org/1999/xlink" xml:space="preserve" xmlns:serif="http://www.serif.com/" style="fill-rule:evenodd;clip-rule:evenodd;stroke-linejoin:round;stroke-miterlimit:1.58537;">
    <g transform="matrix(1,0,0,1,-140.487,-344.425)">
        <g id="Calque2">
            <g>
                <path d="M2255.14,1661.15L-145.521,1661.15L-145.521,-135.299L2255.14,-135.299L2255.14,1661.15ZM-121.521,-111.299L-121.521,1637.15L2231.14,1637.15L2231.14,-111.299L-121.521,-111.299Z" style="fill:rgb(153,202,59);"/>
                <rect x="-145.521" y="-135.299" width="2400.66" height="1796.45" style="fill:white;"/>
            </g>
        </g>
        <g id="virgule">
            <path d="M1439.32,513.796L1444.23,517.08L1444.24,517.095L1447.48,522.038L1448.54,527.671L1447.43,533.295L1444.14,538.207L1444.13,538.214L1443.89,538.457L1443.57,538.77L1443.14,539.189L1442.6,539.711L1442.29,540.019L1441.94,540.348L1441.57,540.705L1441.17,541.087L1440.74,541.496L1440.28,541.931L1439.8,542.391L1439.51,542.658L1439.28,542.877L1438.74,543.389L1438.16,543.926L1437.56,544.489L1436.92,545.076L1436.26,545.689L1435.57,546.327L1434.85,546.99L1434.1,547.677L1433.32,548.389L1432.52,549.125L1431.68,549.886L1430.81,550.671L1429.91,551.48L1428.99,552.313L1428.03,553.17L1427.04,554.05L1426.03,554.954L1424.98,555.881L1423.9,556.832L1422.8,557.806L1421.66,558.803L1420.5,559.823L1419.3,560.865L1418.07,561.93L1416.82,563.018L1415.53,564.128L1414.21,565.259L1413.54,565.835L1412.86,566.415L1412.18,567.001L1411.49,567.592L1410.78,568.188L1410.08,568.79L1409.36,569.398L1408.64,570.011L1407.9,570.629L1407.17,571.253L1406.42,571.882L1405.66,572.516L1404.9,573.156L1404.13,573.801L1403.36,574.451L1402.57,575.107L1401.78,575.767L1400.98,576.434L1400.17,577.105L1399.35,577.782L1398.53,578.464L1397.7,579.151L1396.86,579.843L1396.01,580.54L1395.16,581.243L1394.29,581.951L1393.42,582.663L1392.55,583.381L1391.66,584.104L1390.77,584.832L1389.87,585.566L1388.95,586.304L1388.04,587.047L1387.11,587.795L1386.18,588.548L1385.24,589.306L1384.29,590.07L1383.34,590.838L1382.37,591.611L1381.4,592.388L1380.42,593.171L1379.43,593.959L1378.44,594.751L1377.43,595.549L1376.42,596.351L1375.4,597.158L1374.37,597.97L1373.34,598.786L1372.3,599.608L1371.25,600.434L1370.19,601.265L1369.12,602.1L1368.04,602.94L1366.96,603.785L1365.87,604.635L1364.77,605.489L1363.66,606.348L1362.55,607.212L1361.43,608.08L1360.3,608.952L1359.16,609.83L1358.01,610.712L1356.86,611.598L1355.69,612.489L1354.52,613.384L1353.34,614.284L1352.16,615.189L1350.96,616.097L1349.76,617.011L1348.55,617.928L1347.33,618.85L1346.1,619.777L1344.87,620.708L1343.62,621.643L1342.37,622.583L1341.11,623.527L1339.85,624.475L1338.57,625.427L1337.29,626.384L1335.99,627.345L1334.69,628.311L1333.38,629.28L1332.07,630.254L1331.24,630.864L1330.74,631.231L1329.41,632.212L1328.07,633.196L1326.71,634.184L1325.36,635.177L1323.99,636.174L1322.62,637.174L1321.23,638.179L1319.84,639.188L1318.44,640.201L1317.03,641.218L1315.62,642.239L1314.19,643.264L1312.76,644.293L1311.32,645.326L1309.87,646.363L1308.41,647.404L1306.94,648.449L1305.47,649.497L1303.99,650.55L1302.5,651.606L1301,652.666L1299.49,653.731L1297.98,654.798L1296.45,655.87L1294.92,656.946L1293.38,658.025L1291.83,659.108L1290.27,660.195L1288.71,661.285L1287.13,662.379L1285.55,663.477L1283.96,664.579L1282.36,665.684L1280.75,666.793L1279.14,667.905L1277.51,669.022L1275.88,670.141L1274.24,671.264L1272.59,672.391L1270.93,673.522L1269.27,674.656L1267.59,675.793L1265.91,676.934L1264.22,678.078L1262.52,679.226L1260.81,680.378L1260.26,680.747L1259.09,681.528L1257.36,682.68L1255.62,683.835L1253.87,684.993L1252.12,686.155L1250.36,687.32L1248.58,688.489L1246.8,689.66L1245.01,690.835L1243.21,692.013L1241.41,693.195L1239.59,694.38L1237.77,695.568L1235.94,696.759L1234.1,697.953L1232.25,699.15L1230.39,700.351L1228.52,701.554L1226.65,702.761L1224.77,703.971L1222.87,705.184L1220.97,706.4L1219.06,707.619L1217.14,708.841L1215.22,710.066L1213.28,711.294L1211.34,712.525L1209.88,713.448L1209.38,713.755L1207.41,714.976L1205.43,716.2L1203.44,717.427L1201.45,718.657L1199.44,719.889L1197.42,721.124L1195.4,722.362L1193.37,723.603L1191.33,724.846L1189.28,726.093L1187.22,727.341L1185.15,728.593L1183.08,729.847L1180.99,731.104L1178.9,732.364L1176.8,733.626L1174.69,734.891L1172.57,736.158L1170.44,737.428L1168.3,738.7L1166.15,739.975L1164,741.253L1161.84,742.533L1159.66,743.816L1157.48,745.101L1155.29,746.388L1153.09,747.678L1150.89,748.971L1148.67,750.265L1146.44,751.563L1144.21,752.862L1141.97,754.164L1139.71,755.468L1137.45,756.775L1135.18,758.084L1132.91,759.395L1130.62,760.709L1128.32,762.025L1126.02,763.343L1123.7,764.663L1121.38,765.986L1119.05,767.31L1116.71,768.637L1114.36,769.966L1112,771.298L1109.63,772.631L1107.25,773.966L1104.87,775.304L1102.47,776.644L1100.07,777.986L1097.66,779.329L1095.24,780.675L1092.81,782.023L1090.37,783.373L1087.92,784.725L1085.46,786.079L1082.99,787.435L1080.52,788.793L1078.03,790.152L1075.54,791.514L1073.04,792.878L1070.52,794.243L1068,795.61L1065.47,796.98L1062.93,798.351L1060.39,799.723L1057.83,801.098L1055.26,802.474L1052.69,803.853L1050.1,805.233L1047.51,806.614L1044.91,807.998L1042.3,809.383L1039.67,810.769L1037.05,812.158L1034.41,813.548L1031.76,814.94L1029.1,816.333L1026.43,817.728L1023.76,819.125L1021.07,820.523L1018.38,821.922L1015.68,823.324L1012.96,824.726L1010.24,826.131L1009.77,826.372L1007.51,827.534L1004.77,828.938L1002.02,830.343L999.257,831.75L996.488,833.158L993.709,834.567L990.921,835.978L988.124,837.39L985.318,838.804L982.502,840.219L979.677,841.635L976.843,843.053L974,844.472L971.148,845.891L969.717,846.602L968.285,847.313L966.851,848.025L965.414,848.736L963.975,849.448L962.533,850.16L961.09,850.872L959.644,851.585L958.195,852.298L956.745,853.011L955.292,853.725L953.836,854.439L952.378,855.153L950.918,855.867L949.456,856.582L947.991,857.297L946.524,858.012L945.055,858.728L943.583,859.444L942.109,860.16L940.633,860.876L939.154,861.593L937.673,862.31L936.19,863.027L934.704,863.745L933.216,864.462L931.725,865.18L930.233,865.899L928.738,866.617L927.24,867.336L925.74,868.055L924.238,868.774L922.734,869.494L921.227,870.214L919.718,870.934L918.206,871.654L916.693,872.374L915.176,873.095L913.658,873.816L912.137,874.537L910.614,875.259L909.088,875.981L907.56,876.703L906.03,877.425L904.497,878.147L902.962,878.87L901.425,879.592L899.885,880.315L898.343,881.039L896.798,881.762L895.252,882.486L893.703,883.21L892.151,883.934L890.597,884.658L889.041,885.383L887.482,886.107L885.921,886.832L884.358,887.557L882.792,888.283L881.224,889.008L879.654,889.734L878.081,890.46L876.506,891.186L874.928,891.912L873.348,892.639L871.766,893.365L870.181,894.092L868.594,894.819L867.005,895.546L865.413,896.274L863.819,897.001L862.223,897.729L860.624,898.457L859.022,899.185L857.419,899.913L855.813,900.641L854.204,901.37L852.593,902.099L850.98,902.827L849.365,903.556L847.747,904.286L846.127,905.015L844.504,905.744L842.879,906.474L841.251,907.204L839.621,907.933L837.989,908.663L836.355,909.394L834.718,910.124L833.078,910.854L831.436,911.585L829.792,912.316L828.146,913.046L826.497,913.777L824.845,914.508L823.191,915.24L821.535,915.971L819.877,916.702L818.216,917.434L816.552,918.166L814.887,918.897L813.219,919.629L811.548,920.361L809.875,921.093L808.2,921.826L806.522,922.558L804.842,923.29L803.159,924.023L801.474,924.755L799.787,925.488L798.097,926.221L796.405,926.954L794.711,927.687L793.014,928.42L791.314,929.153L789.612,929.886L787.908,930.62L786.202,931.353L784.493,932.086L782.781,932.82L781.067,933.553L779.351,934.287L777.632,935.021L775.911,935.755L774.188,936.489L772.462,937.223L770.733,937.957L769.003,938.691L767.269,939.425L765.534,940.159L763.796,940.893L762.055,941.627L760.313,942.362L758.567,943.096L756.82,943.83L755.069,944.565L753.317,945.299L751.562,946.034L749.804,946.768L748.045,947.503L746.282,948.238L744.518,948.972L742.75,949.707L740.981,950.442L739.209,951.177L737.434,951.911L735.658,952.646L733.878,953.381L732.096,954.116L730.436,954.799L730.312,954.85L728.525,955.584L726.736,956.318L724.944,957.052L723.15,957.786L721.353,958.52L719.554,959.254L717.752,959.988L715.948,960.722L714.141,961.456L712.332,962.19L710.521,962.924L708.707,963.658L706.891,964.392L705.072,965.125L703.251,965.859L701.427,966.593L699.601,967.327L697.773,968.061L695.942,968.795L694.108,969.528L692.272,970.262L690.434,970.996L688.593,971.729L686.75,972.463L684.904,973.197L683.056,973.93L681.206,974.664L679.353,975.397L677.497,976.13L675.639,976.864L673.779,977.597L671.916,978.33L670.05,979.064L668.183,979.797L666.312,980.53L664.439,981.263L662.564,981.996L660.687,982.729L658.806,983.462L656.924,984.194L655.039,984.927L653.151,985.66L651.261,986.392L649.369,987.125L647.474,987.857L645.576,988.589L643.676,989.322L641.774,990.054L639.869,990.786L637.962,991.518L636.052,992.25L634.14,992.982L632.225,993.713L630.308,994.445L628.388,995.176L626.466,995.908L624.541,996.639L622.614,997.37L620.685,998.101L618.753,998.832L616.818,999.563L614.881,1000.29L612.941,1001.02L610.999,1001.75L609.055,1002.49L607.108,1003.22L605.158,1003.95L603.206,1004.68L601.252,1005.41L599.295,1006.14L597.335,1006.87L595.374,1007.6L593.409,1008.33L591.442,1009.05L589.473,1009.78L587.501,1010.51L585.526,1011.24L583.55,1011.97L581.57,1012.7L579.588,1013.43L577.604,1014.15L575.617,1014.88L573.628,1015.61L571.636,1016.34L569.641,1017.07L567.644,1017.79L565.645,1018.52L563.643,1019.25L561.639,1019.98L559.632,1020.7L557.622,1021.43L555.611,1022.15L553.596,1022.88L551.579,1023.61L549.56,1024.33L547.538,1025.06L545.513,1025.79L543.486,1026.51L541.457,1027.24L539.425,1027.96L537.39,1028.68L535.353,1029.41L533.314,1030.13L531.272,1030.86L529.227,1031.58L527.18,1032.31L525.13,1033.03L523.078,1033.75L521.024,1034.48L518.967,1035.2L516.907,1035.92L514.845,1036.64L512.78,1037.37L510.713,1038.09L508.643,1038.81L506.571,1039.53L504.496,1040.26L502.418,1040.98L500.339,1041.7L498.256,1042.42L496.171,1043.14L494.084,1043.86L491.994,1044.58L489.901,1045.3L487.806,1046.02L485.708,1046.74L483.608,1047.46L481.506,1048.18L479.4,1048.89L477.293,1049.61L475.182,1050.33L473.07,1051.05L470.954,1051.77L468.836,1052.49L466.716,1053.2L464.593,1053.92L462.468,1054.64L460.339,1055.35L458.209,1056.07L456.076,1056.78L453.94,1057.5L451.802,1058.21L449.661,1058.93L447.518,1059.64L445.372,1060.36L443.223,1061.07L441.073,1061.79L438.919,1062.5L436.763,1063.21L434.604,1063.93L432.443,1064.64L430.279,1065.35L428.113,1066.07L425.944,1066.78L423.773,1067.49L421.599,1068.2L419.423,1068.91L417.243,1069.62L415.062,1070.33L412.878,1071.04L410.691,1071.75L408.502,1072.46L406.31,1073.17L404.115,1073.88L401.918,1074.59L399.719,1075.3L397.517,1076L395.312,1076.71L393.105,1077.42L390.895,1078.12L388.683,1078.83L386.468,1079.54L384.25,1080.24L382.03,1080.95L379.807,1081.65L377.582,1082.36L375.354,1083.06L373.124,1083.77L372.131,1084.08L370.891,1084.47L368.655,1085.17L370.867,1084.4L372.093,1083.97L373.076,1083.62L375.282,1082.85L377.486,1082.07L379.687,1081.3L381.886,1080.52L384.082,1079.74L386.275,1078.97L388.466,1078.19L390.654,1077.41L392.84,1076.63L395.023,1075.86L397.203,1075.08L399.381,1074.3L401.556,1073.52L403.728,1072.74L405.898,1071.96L408.066,1071.18L410.23,1070.41L412.392,1069.63L414.552,1068.85L416.709,1068.07L418.863,1067.29L421.015,1066.51L423.164,1065.72L425.31,1064.94L427.454,1064.16L429.596,1063.38L431.734,1062.6L433.871,1061.82L436.004,1061.04L438.135,1060.26L440.263,1059.47L442.389,1058.69L444.512,1057.91L446.633,1057.12L448.751,1056.34L450.866,1055.56L452.979,1054.78L455.089,1053.99L457.197,1053.21L459.302,1052.42L461.405,1051.64L463.504,1050.86L465.602,1050.07L467.697,1049.29L469.789,1048.5L471.878,1047.72L473.965,1046.93L476.05,1046.15L478.132,1045.36L480.211,1044.58L482.288,1043.79L484.362,1043.01L486.433,1042.22L488.502,1041.43L490.569,1040.65L492.633,1039.86L494.694,1039.08L496.753,1038.29L498.809,1037.5L500.863,1036.71L502.914,1035.93L504.962,1035.14L507.008,1034.35L509.051,1033.57L511.092,1032.78L513.13,1031.99L515.166,1031.2L517.199,1030.41L519.23,1029.63L521.258,1028.84L523.283,1028.05L525.306,1027.26L527.326,1026.47L529.344,1025.68L531.359,1024.9L533.372,1024.11L535.382,1023.32L537.39,1022.53L539.395,1021.74L541.397,1020.95L543.397,1020.16L545.395,1019.37L547.389,1018.58L549.382,1017.79L551.371,1017L553.359,1016.22L555.343,1015.43L557.325,1014.64L559.305,1013.85L561.282,1013.06L563.257,1012.27L565.229,1011.48L567.198,1010.69L569.165,1009.89L571.129,1009.11L573.091,1008.31L575.05,1007.52L577.007,1006.73L578.961,1005.94L580.913,1005.15L582.862,1004.36L584.809,1003.57L586.753,1002.78L588.695,1001.99L590.634,1001.2L592.57,1000.41L594.504,999.617L596.436,998.826L598.365,998.035L600.291,997.244L602.215,996.453L604.137,995.661L606.056,994.87L607.972,994.079L609.886,993.288L611.797,992.497L613.706,991.706L615.612,990.914L617.516,990.123L619.418,989.332L621.316,988.541L623.213,987.749L625.106,986.958L626.998,986.167L628.886,985.375L630.773,984.584L632.656,983.793L634.538,983.001L636.416,982.21L638.293,981.419L640.166,980.627L642.038,979.836L643.906,979.045L645.773,978.254L647.636,977.462L649.498,976.671L651.356,975.88L653.213,975.089L655.066,974.298L656.917,973.506L658.766,972.715L660.612,971.924L662.456,971.133L664.298,970.342L666.136,969.551L667.973,968.76L669.806,967.969L671.638,967.179L673.467,966.388L675.293,965.597L677.117,964.806L678.938,964.016L680.757,963.225L682.573,962.434L684.387,961.644L686.199,960.853L688.008,960.063L689.814,959.273L691.618,958.482L693.42,957.692L695.219,956.902L697.016,956.112L698.81,955.322L700.601,954.532L702.39,953.742L704.177,952.953L705.961,952.163L707.743,951.373L709.522,950.584L711.299,949.794L713.074,949.005L714.846,948.216L716.615,947.427L718.382,946.637L720.146,945.848L721.908,945.06L723.668,944.271L725.425,943.482L725.547,943.427L727.18,942.694L728.933,941.907L730.683,941.119L732.43,940.332L734.176,939.545L735.918,938.758L737.659,937.971L739.397,937.184L741.132,936.397L742.865,935.61L744.595,934.824L746.323,934.038L748.049,933.251L749.772,932.465L751.493,931.679L753.211,930.893L754.927,930.107L756.64,929.322L758.351,928.536L760.06,927.751L761.766,926.966L763.469,926.181L765.171,925.396L766.869,924.611L768.566,923.827L770.259,923.042L771.951,922.258L773.64,921.474L775.326,920.69L777.01,919.906L778.692,919.122L780.371,918.339L782.048,917.555L783.722,916.772L785.394,915.989L787.064,915.206L788.731,914.424L790.396,913.641L792.058,912.859L793.718,912.077L795.375,911.295L797.03,910.513L798.683,909.731L800.333,908.95L801.98,908.169L803.626,907.388L805.268,906.607L806.909,905.827L808.547,905.046L810.183,904.266L811.816,903.486L813.446,902.706L815.075,901.926L816.701,901.147L818.324,900.368L819.945,899.589L821.564,898.81L823.18,898.032L824.794,897.253L826.406,896.475L828.015,895.697L829.622,894.92L831.226,894.142L832.828,893.365L834.427,892.588L836.024,891.811L837.619,891.035L839.211,890.259L840.801,889.482L842.389,888.707L843.974,887.931L845.556,887.156L847.137,886.381L848.714,885.606L850.29,884.831L851.863,884.057L853.434,883.283L855.002,882.509L856.568,881.736L858.131,880.962L859.693,880.189L861.251,879.417L862.808,878.644L864.362,877.872L865.913,877.1L867.462,876.328L869.009,875.557L870.554,874.786L872.096,874.015L873.635,873.244L875.173,872.474L876.708,871.704L878.24,870.934L879.77,870.165L881.298,869.395L882.823,868.627L884.347,867.858L885.867,867.09L887.385,866.322L888.901,865.554L890.415,864.787L891.926,864.02L893.435,863.253L894.941,862.486L896.445,861.72L897.947,860.954L899.446,860.189L900.943,859.424L902.438,858.659L903.93,857.894L905.42,857.13L906.908,856.366L908.393,855.602L909.876,854.839L911.356,854.076L912.834,853.314L914.31,852.551L915.783,851.789L917.254,851.028L918.723,850.266L920.189,849.505L921.653,848.745L923.115,847.985L924.574,847.225L926.031,846.465L927.485,845.706L928.938,844.947L930.387,844.189L931.835,843.431L933.28,842.673L934.723,841.915L936.163,841.158L937.601,840.402L939.037,839.645L940.471,838.889L941.902,838.134L943.331,837.379L944.757,836.624L946.181,835.869L947.603,835.115L949.022,834.361L950.439,833.608L951.854,832.855L953.266,832.103L954.677,831.351L956.084,830.599L957.49,829.847L958.893,829.096L960.294,828.346L961.691,827.596L964.482,826.097L967.262,824.599L970.034,823.103L972.796,821.609L975.549,820.116L978.292,818.625L981.026,817.136L983.751,815.649L986.467,814.163L989.173,812.679L991.87,811.197L994.558,809.716L997.237,808.238L999.448,807.014L999.907,806.761L1002.57,805.29L1005.22,803.82L1007.87,802.352L1010.5,800.886L1013.13,799.422L1015.74,797.959L1018.35,796.499L1020.95,795.04L1023.53,793.584L1026.12,792.129L1028.68,790.677L1031.25,789.226L1033.8,787.777L1036.34,786.331L1038.88,784.886L1041.4,783.444L1043.92,782.003L1046.42,780.565L1048.92,779.128L1051.41,777.694L1053.89,776.262L1056.36,774.832L1058.82,773.405L1061.27,771.979L1063.72,770.556L1066.15,769.134L1068.58,767.716L1070.99,766.299L1073.4,764.884L1075.8,763.472L1078.19,762.062L1080.57,760.655L1082.94,759.25L1085.3,757.847L1087.65,756.446L1090,755.048L1092.33,753.652L1094.66,752.259L1096.98,750.868L1099.29,749.479L1101.58,748.093L1103.88,746.71L1106.16,745.329L1108.43,743.95L1110.69,742.574L1112.95,741.2L1115.19,739.829L1117.43,738.461L1119.66,737.095L1121.88,735.731L1124.09,734.371L1126.29,733.012L1128.49,731.657L1130.67,730.304L1132.85,728.954L1135.01,727.607L1137.17,726.262L1139.32,724.92L1141.46,723.581L1143.59,722.244L1145.71,720.91L1147.83,719.579L1149.93,718.251L1152.03,716.926L1154.11,715.603L1156.19,714.283L1158.26,712.967L1160.32,711.653L1162.38,710.341L1164.42,709.033L1166.46,707.728L1168.48,706.426L1170.5,705.126L1172.51,703.83L1174.51,702.537L1176.5,701.246L1178.48,699.959L1180.46,698.675L1182.42,697.393L1184.38,696.115L1186.33,694.84L1188.27,693.568L1190.2,692.299L1192.12,691.033L1194.04,689.771L1194.52,689.453L1195.95,688.523L1197.85,687.282L1199.75,686.045L1201.64,684.811L1203.52,683.58L1205.39,682.352L1207.26,681.127L1209.11,679.905L1210.96,678.687L1212.8,677.472L1214.63,676.26L1216.45,675.051L1218.26,673.846L1220.07,672.643L1221.86,671.445L1223.65,670.249L1225.43,669.057L1227.19,667.868L1228.96,666.683L1230.71,665.501L1232.45,664.322L1234.19,663.147L1235.92,661.975L1237.64,660.807L1239.35,659.642L1241.05,658.48L1242.74,657.323L1243.89,656.538L1244.43,656.17L1246.11,655.026L1247.78,653.885L1249.45,652.747L1251.1,651.613L1252.75,650.483L1254.39,649.356L1256.02,648.233L1257.64,647.113L1259.25,645.997L1260.86,644.885L1262.46,643.776L1264.05,642.671L1265.63,641.57L1267.2,640.472L1268.76,639.379L1270.32,638.288L1271.86,637.202L1273.4,636.119L1274.93,635.04L1276.45,633.965L1277.97,632.894L1279.47,631.827L1280.97,630.763L1282.46,629.703L1283.94,628.647L1285.41,627.596L1286.88,626.547L1288.33,625.503L1289.78,624.463L1291.22,623.427L1292.65,622.395L1294.07,621.366L1295.49,620.342L1296.89,619.322L1298.29,618.306L1299.68,617.294L1301.06,616.285L1302.44,615.281L1303.8,614.282L1305.16,613.286L1306.51,612.294L1307.85,611.307L1309.18,610.323L1310.51,609.344L1311.82,608.369L1313.13,607.398L1313.62,607.034L1314.43,606.433L1315.73,605.473L1317.01,604.517L1318.29,603.565L1319.56,602.618L1320.82,601.674L1322.07,600.735L1323.32,599.801L1324.55,598.871L1325.78,597.945L1327,597.023L1328.22,596.106L1329.42,595.193L1330.62,594.285L1331.81,593.381L1332.99,592.482L1334.16,591.587L1335.32,590.697L1336.48,589.811L1337.63,588.929L1338.77,588.052L1339.9,587.18L1341.02,586.312L1342.14,585.449L1343.25,584.591L1344.35,583.737L1345.44,582.887L1346.53,582.043L1347.6,581.203L1348.67,580.367L1349.73,579.537L1350.79,578.711L1351.83,577.889L1352.87,577.073L1353.9,576.261L1354.92,575.454L1355.93,574.652L1356.94,573.855L1357.93,573.062L1358.92,572.275L1359.91,571.492L1360.88,570.714L1361.85,569.941L1362.8,569.172L1363.75,568.409L1364.7,567.651L1365.63,566.898L1366.56,566.149L1367.48,565.406L1368.39,564.667L1369.29,563.934L1370.19,563.205L1371.08,562.482L1371.96,561.764L1372.83,561.051L1373.69,560.342L1374.55,559.639L1375.4,558.942L1376.24,558.249L1377.07,557.561L1377.9,556.879L1378.72,556.202L1379.53,555.53L1380.33,554.863L1381.13,554.201L1381.91,553.545L1382.69,552.894L1383.46,552.248L1384.23,551.608L1384.99,550.972L1385.74,550.343L1386.48,549.718L1387.21,549.099L1387.94,548.485L1388.65,547.877L1389.37,547.274L1390.07,546.677L1390.76,546.085L1391.45,545.498L1392.13,544.917L1392.8,544.341L1393.47,543.771L1394.13,543.207L1394.77,542.65L1396.05,541.546L1397.3,540.467L1398.52,539.411L1399.7,538.377L1400.86,537.366L1401.99,536.377L1403.08,535.412L1404.15,534.47L1405.18,533.551L1406.19,532.655L1407.17,531.783L1408.12,530.935L1409.03,530.11L1409.92,529.309L1410.78,528.533L1411.61,527.78L1412.41,527.052L1413.18,526.348L1413.92,525.668L1414.63,525.013L1415.31,524.383L1415.97,523.778L1416.59,523.198L1417.19,522.643L1417.75,522.114L1418.29,521.61L1418.8,521.131L1419.01,520.927L1419.28,520.678L1419.73,520.251L1420.15,519.85L1420.54,519.476L1420.91,519.127L1421.24,518.804L1421.55,518.508L1421.83,518.243L1422.3,517.78L1422.66,517.428L1422.9,517.189L1423.11,516.988L1423.12,516.981L1428.06,513.743L1433.69,512.68L1439.32,513.796Z" style="fill:rgb(153,202,59);"/>
            <g transform="matrix(1.45987,0,0,1.31845,-723.38,-182.125)">
                <circle cx="1522.28" cy="496.903" r="26.039" style="fill:rgb(153,202,59);"/>
            </g>
        </g>
        <g id="H">
            <path d="M1869.79,679.66C1880.99,670.951 1895.18,666.277 1909.39,666.085C1909.75,666.082 1910.11,666.081 1910.47,666.082C1929.2,666.228 1947.98,674.546 1959.26,689.448C1967.51,700.344 1971.33,714.28 1971.41,727.93L1971.21,821.956L1947.24,821.904L1947.44,727.972C1947.37,715.799 1942.65,703.59 1932.47,696.651C1914.77,684.592 1886.66,689.732 1875.43,708.993C1871.99,714.884 1870.28,721.667 1869.82,728.517M1869.88,820.985L1845.88,821L1845.74,603.023L1869.74,603.007C1869.79,675.666 1869.84,748.326 1869.88,820.985Z" style="fill:rgb(168,169,173);"/>
        </g>
        <g transform="matrix(1,0,0,0.958521,-1.59566,30.3716)">
            <g id="C">
                <path d="M1822.69,819.939C1788.29,820.638 1766.21,817.776 1745.41,797.891C1735.38,788.311 1728,776.008 1724.26,762.664C1716.82,736.1 1724.6,705.829 1744.09,686.287C1757.86,672.481 1777.03,664.245 1796.57,663.899C1797.06,663.892 1806.72,663.738 1823.52,663.907L1823.22,688.336C1822.69,688.014 1820.61,687.938 1797.63,687.889C1774.97,687.841 1753.6,704.477 1747.37,726.697C1742.11,745.503 1747.86,767.035 1761.99,780.543C1776.32,794.237 1799.71,794.025 1822.65,793.978C1822.62,808.791 1822.69,819.939 1822.69,819.939Z" style="fill:rgb(168,169,173);"/>
            </g>
        </g>
        <g id="E">
            <path d="M1695.03,753.912C1692.23,776.023 1680.27,797.093 1661.34,809.736C1633.2,828.536 1592.55,825.797 1566.99,801.365C1556.97,791.786 1549.58,779.482 1545.84,766.138C1538.4,739.574 1546.17,709.303 1565.67,689.761C1579.44,675.955 1598.61,667.719 1618.15,667.373C1618.64,667.366 1619.14,667.363 1619.63,667.364C1649.49,667.508 1678.05,687.153 1689.85,714.944L1589.14,770.141L1578.52,747.515L1655.38,705.996C1645.9,696.856 1632.92,691.471 1619.72,691.364C1619.55,691.364 1619.38,691.363 1619.21,691.364C1596.55,691.475 1575.18,707.951 1568.95,730.171C1563.68,748.977 1569.44,770.509 1583.57,784.017C1597.9,797.712 1620.37,802.325 1639.07,794.567C1654.39,788.209 1666.25,774.186 1670.23,758.064C1670.6,756.603 1670.89,755.127 1671.12,753.642L1695.03,753.912Z" style="fill:rgb(168,169,173);"/>
        </g>
        <g id="Calque1">
            <path d="M1469.92,694.467C1469.69,720.406 1469.51,746.344 1469.48,772.335C1469.48,779.071 1468.84,787.347 1474.18,790.457C1478.92,793.216 1484.74,793.89 1490.4,794.57C1502.07,795.969 1513.85,796.108 1525.6,796.235L1525.35,820.233C1508.34,820.05 1491.03,820.28 1474.61,816.095C1465.57,813.788 1456.62,809.249 1451.42,801.085C1443.81,789.169 1445.45,773.536 1445.53,758.071C1445.71,718.279 1446.08,678.501 1446.45,638.723L1446.5,634.125C1454.49,634.201 1462.49,634.276 1470.49,634.352C1470.38,646.399 1470.26,658.435 1470.14,670.468L1526.51,670.865L1526.35,694.865L1469.92,694.467Z" style="fill:rgb(168,169,173);"/>
        </g>
        <g id="B">
            <path d="M1386.95,825.007L1386.89,807.571L1386.89,807.025L1386.87,807.045L1386.87,751.123L1386.83,751.123C1387.82,728.204 1383.28,706.958 1361.59,697.956C1340.39,689.159 1306.08,693.238 1293.12,713.096C1282.11,729.971 1282.17,768.207 1298.91,783.624C1308.7,792.643 1315.69,798.577 1337.18,798.671C1337.38,798.672 1360.82,801.366 1373.71,778.994L1373.03,811.522C1351.14,828.322 1298.73,825.225 1276.62,794.979C1254.33,764.481 1256.03,717.127 1281.51,690.075C1309.13,660.744 1368.04,660.133 1396.49,692.107C1409.56,706.79 1410.42,727.097 1410.66,746.927C1410.82,771.383 1410.9,800.593 1410.98,825.007L1386.95,825.007Z" style="fill:rgb(0,101,179);"/>
        </g>
        <g id="B1" serif:id="B">
            <path d="M1127.19,676.495C1158.18,660.406 1201.25,668.113 1223.36,698.358C1245.65,728.856 1243.96,776.21 1218.48,803.263C1190.85,832.594 1137.32,832.903 1108.87,800.929C1095.8,786.246 1089.56,766.24 1089.32,746.41C1089.06,705.836 1089.01,665.362 1088.84,624.847L1088.79,613.017L1088.74,603.315L1112.74,603.208C1112.76,606.442 1112.77,609.677 1112.79,612.912C1112.89,637.197 1112.99,661.482 1113.09,685.767L1113.09,686.313L1113.12,686.292L1113.12,742.214L1113.15,742.214C1112.16,765.133 1122.98,788.617 1144.67,797.619C1165.88,806.416 1193.2,800.239 1206.08,780.327C1220.59,757.88 1216.98,724.28 1198.65,706.363C1189.13,697.056 1175.86,691.891 1162.45,691.759C1162.25,691.758 1162.05,691.758 1161.85,691.758C1148.92,691.846 1136.18,697.105 1127.19,706.363L1127.19,676.495Z" style="fill:rgb(0,101,179);"/>
        </g>
        <g id="U">
            <g>
                <path d="M945.758,670.88L946.324,764.198C946.324,764.198 946.474,810.794 996.207,810.411" style="fill:none;fill-rule:nonzero;stroke:rgb(0,101,179);stroke-width:24px;"/>
                <g transform="matrix(-1,0,0,1,1991.64,0)">
                    <path d="M945.758,670.88L946.324,764.198C946.324,764.198 946.474,810.794 996.207,810.411" style="fill:none;fill-rule:nonzero;stroke:rgb(0,101,179);stroke-width:24px;"/>
                </g>
            </g>
        </g>
        <g id="Grand-S" serif:id="Grand S">
            <path d="M835.452,344.425C553.149,363.582 369.031,440.917 310.22,511.852C270.429,559.847 287.94,598.163 409.416,607.944C686.824,630.279 836.154,621.45 824.878,718.084C813.385,816.58 633.323,896.086 140.487,961.098C517.602,904.405 898.326,856.283 904.421,715.745C908.824,614.21 746.259,625.041 561.949,612.612C407.015,602.164 347.463,587.492 350.615,538.98C354.41,480.568 519.499,380.601 835.452,344.425Z" style="fill:rgb(0,101,179);"/>
        </g>
    </g>
</svg>
