<?xml version="1.0" standalone="no"?>
<!DOCTYPE svg PUBLIC "-//W3C//DTD SVG 20010904//EN"
 "http://www.w3.org/TR/2001/REC-SVG-20010904/DTD/svg10.dtd">
<svg version="1.0" xmlns="http://www.w3.org/2000/svg"
 width="1014.000000pt" height="1434.000000pt" viewBox="0 0 1014.000000 1434.000000"
 preserveAspectRatio="xMidYMid meet">
<metadata>
Created by potrace 1.16, written by Peter Selinger 2001-2019
</metadata>
<g transform="translate(0.000000,1434.000000) scale(0.100000,-0.100000)"
fill="current" stroke="none">
<path d="M4113 14334 c9 -9 -33 -40 -65 -48 -16 -3 -28 -11 -28 -16 0 -6 -6
-10 -14 -10 -8 0 -28 -16 -45 -35 -28 -33 -31 -42 -31 -105 0 -58 4 -74 21
-91 19 -19 29 -21 83 -16 34 3 75 13 91 21 17 9 36 16 43 16 6 0 12 5 12 10 0
6 7 10 15 10 12 0 9 -9 -11 -40 -15 -22 -31 -40 -35 -40 -5 0 -9 -5 -9 -10 0
-13 -8 -23 -89 -111 -35 -38 -68 -69 -72 -69 -5 0 -18 -8 -29 -17 -15 -13 -20
-30 -20 -67 0 -42 4 -54 28 -74 27 -24 28 -24 187 -17 233 10 304 34 305 106
0 30 -38 79 -62 79 -9 0 -20 5 -23 10 -3 6 -26 10 -50 10 -45 0 -69 15 -41 26
9 3 16 11 16 18 0 7 16 27 35 46 19 19 35 41 35 48 0 6 4 12 10 12 5 0 13 12
16 28 4 15 11 32 16 39 11 13 5 126 -8 184 -5 20 -23 52 -41 73 l-32 36 -107
0 c-59 0 -104 -3 -101 -6z"/>
<path d="M3441 14256 c-12 -18 -21 -36 -21 -39 0 -10 -70 -77 -80 -77 -6 0
-10 -4 -10 -10 0 -13 -37 -50 -50 -50 -5 0 -10 -7 -10 -15 0 -8 -7 -15 -15
-15 -8 0 -15 -7 -15 -15 0 -8 -7 -15 -15 -15 -8 0 -15 -7 -15 -15 0 -8 -7 -15
-15 -15 -8 0 -15 -7 -15 -15 0 -8 -7 -15 -15 -15 -8 0 -15 -7 -15 -15 0 -8 -7
-15 -15 -15 -8 0 -15 -7 -15 -15 0 -8 -7 -15 -15 -15 -8 0 -15 -4 -15 -9 0 -5
-18 -28 -40 -51 -32 -34 -40 -49 -40 -80 0 -43 10 -50 71 -50 26 0 42 5 45 15
4 8 12 15 20 15 8 0 14 5 14 12 0 14 95 108 110 108 5 0 10 7 10 15 0 8 7 15
15 15 8 0 15 7 15 15 0 8 7 15 15 15 8 0 15 7 15 15 0 8 7 15 15 15 8 0 15 7
15 15 0 8 7 15 15 15 8 0 15 7 15 15 0 8 8 15 18 15 15 0 17 -11 14 -117 -3
-142 4 -156 72 -156 78 0 76 -7 76 277 0 183 -3 255 -12 264 -7 7 -33 12 -59
12 -43 0 -49 -3 -68 -34z"/>
<path d="M5130 14151 c-8 -5 -36 -12 -62 -15 -26 -4 -49 -13 -52 -21 -3 -8
-17 -15 -31 -15 -17 0 -29 -8 -37 -25 -11 -24 -48 -36 -48 -16 0 5 -10 13 -22
17 -13 4 -26 12 -30 18 -4 6 -41 12 -82 14 -63 4 -77 1 -82 -12 -7 -17 -34
-22 -34 -6 0 6 -16 10 -35 10 -50 0 -56 -23 -53 -203 l3 -151 35 -9 c22 -5 47
-4 63 2 l27 11 0 113 c0 100 2 114 20 130 29 25 77 22 91 -5 7 -13 23 -33 36
-45 20 -19 23 -31 23 -95 0 -40 4 -78 8 -85 13 -21 65 -34 104 -28 31 6 39 12
44 33 3 15 9 36 12 47 3 11 4 25 3 30 -2 6 -9 44 -16 85 -14 84 -8 106 31 116
36 9 144 -5 160 -21 20 -19 17 -76 -6 -145 -20 -60 -19 -140 2 -140 5 0 16 -7
24 -15 33 -33 124 -9 124 32 0 6 7 13 15 17 8 3 15 12 15 20 0 7 7 27 15 42
19 37 19 75 0 121 -8 19 -15 46 -15 58 0 12 -7 28 -15 35 -8 7 -15 20 -15 29
0 53 -160 106 -220 72z"/>
<path d="M3800 13963 c-23 -9 -50 -40 -50 -58 0 -9 -20 -35 -45 -58 -35 -33
-45 -50 -45 -74 0 -56 49 -76 88 -36 7 7 35 13 61 13 54 0 71 12 71 51 0 15 5
31 10 34 18 11 12 106 -7 121 -18 14 -56 17 -83 7z"/>
<path d="M1470 13918 c-16 -27 -20 -51 -20 -135 0 -56 4 -104 9 -107 5 -4 12
-25 16 -49 9 -61 25 -100 49 -119 20 -16 20 -17 2 -24 -40 -15 -56 -42 -56
-92 1 -26 0 -160 0 -299 -1 -214 1 -256 15 -283 15 -28 20 -31 58 -28 38 3 44
7 65 48 15 29 21 55 18 75 -3 17 -8 79 -11 139 -3 60 -8 113 -11 118 -3 4 0 8
5 8 6 0 11 -4 11 -8 0 -4 12 -13 28 -19 30 -14 59 -32 80 -50 7 -7 27 -13 43
-13 16 0 29 -4 29 -10 0 -5 17 -12 38 -16 20 -4 45 -11 54 -15 10 -6 19 -5 23
1 3 5 13 10 22 10 38 0 56 67 28 104 -22 29 -67 56 -95 56 -14 0 -34 7 -44 15
-11 8 -27 15 -36 15 -30 0 -74 28 -119 76 -40 43 -43 49 -27 58 29 18 166 158
166 171 0 9 40 45 50 45 6 0 10 4 10 10 0 5 12 13 28 16 38 10 100 43 128 69
26 24 31 64 12 83 -17 17 -113 15 -132 -3 -8 -8 -26 -15 -41 -15 -14 0 -28 -6
-31 -14 -3 -8 -16 -17 -30 -20 -13 -4 -24 -11 -24 -16 0 -6 -5 -10 -11 -10 -6
0 -36 -27 -67 -60 -32 -33 -63 -60 -70 -60 -6 0 -12 -4 -12 -10 0 -5 -4 -10
-9 -10 -4 0 -11 28 -15 62 -3 34 -11 67 -16 72 -6 6 -10 62 -10 126 0 126 -5
140 -52 140 -21 0 -33 -8 -48 -32z"/>
<path d="M6510 13798 c-15 -39 -22 -266 -9 -274 5 -3 9 -13 9 -23 0 -46 90
-69 135 -35 18 14 20 27 20 153 0 118 -3 143 -20 174 -19 35 -22 37 -71 37
-50 0 -53 -2 -64 -32z"/>
<path d="M5892 13750 c-13 -21 -16 -89 -4 -105 9 -12 69 -55 77 -55 4 0 20
-13 37 -30 21 -22 39 -30 64 -30 19 0 34 -5 34 -11 0 -13 25 -39 38 -39 5 0
29 -15 53 -34 25 -18 53 -35 64 -37 10 -2 17 -8 14 -14 -5 -12 -49 -8 -65 6
-6 5 -446 13 -1025 19 -558 6 -1041 15 -1074 19 -33 5 -226 10 -430 10 -203 1
-401 6 -440 11 -38 4 -137 12 -220 16 -82 3 -160 11 -173 15 -13 5 -229 9
-481 9 -545 0 -531 2 -531 -85 0 -35 5 -57 12 -60 7 -3 209 -6 448 -8 429 -3
722 -18 790 -40 22 -7 197 -13 485 -17 295 -4 464 -10 490 -18 29 -8 302 -12
1009 -12 l969 0 -27 -26 c-17 -18 -26 -37 -26 -59 0 -35 40 -84 69 -86 34 -2
66 3 69 12 2 5 12 9 23 9 11 0 22 7 25 15 3 8 21 17 40 21 19 3 34 10 34 15 0
5 7 9 15 9 17 0 55 35 55 50 0 6 7 10 15 10 8 0 15 4 15 10 0 5 13 16 29 25
64 33 84 61 89 126 l4 59 -46 45 c-25 25 -51 45 -57 45 -6 0 -17 7 -25 15 -9
8 -29 15 -45 15 -17 0 -32 6 -35 15 -4 8 -13 15 -20 15 -8 0 -33 18 -55 40
-22 22 -49 40 -58 40 -10 0 -29 8 -42 18 -13 10 -31 22 -39 25 -8 4 -28 16
-45 26 -40 26 -87 27 -103 1z"/>
<path d="M6477 13123 c-24 -74 -29 -133 -17 -188 6 -27 15 -68 19 -90 4 -23
11 -46 15 -53 10 -17 81 -15 96 3 32 38 51 241 29 310 -18 58 -26 65 -79 65
l-48 0 -15 -47z"/>
<path d="M1516 12698 c-13 -19 -16 -58 -16 -230 0 -221 -1 -216 53 -227 l29
-6 -26 -28 c-14 -15 -26 -34 -26 -42 0 -8 -4 -16 -9 -19 -5 -4 -12 -24 -16
-46 -4 -22 -11 -40 -16 -40 -5 0 -11 -11 -15 -25 -3 -14 -10 -25 -15 -25 -5 0
-9 -7 -9 -15 0 -8 -9 -23 -20 -32 -11 -10 -20 -30 -20 -45 0 -15 -4 -29 -9
-32 -5 -4 -12 -45 -16 -94 -4 -48 -13 -90 -19 -94 -7 -5 -12 -62 -15 -161 l-3
-153 31 -27 32 -26 -4 -198 c-2 -109 -8 -216 -15 -238 -8 -29 -11 -277 -12
-879 0 -558 -4 -843 -10 -852 -11 -12 -8 -415 4 -524 5 -45 4 -50 -5 -30 -6
14 -17 38 -25 53 -8 16 -14 40 -14 53 0 14 -7 27 -15 30 -8 4 -15 16 -15 28 0
12 -8 29 -17 38 -10 9 -23 22 -30 28 -6 7 -20 21 -32 31 -12 11 -21 31 -21 48
0 33 -15 49 -57 57 -22 4 -32 2 -36 -10 -9 -23 -24 -20 -31 7 -8 33 -43 67
-69 67 -31 0 -77 -55 -77 -91 0 -16 -4 -29 -9 -29 -5 0 -12 -39 -16 -87 -4
-49 -10 -92 -15 -98 -4 -5 -10 -37 -14 -69 -4 -33 -11 -65 -16 -71 -6 -7 -13
-40 -16 -74 -4 -34 -11 -64 -15 -67 -14 -8 -10 -84 5 -129 13 -38 17 -40 58
-43 39 -3 44 0 54 25 7 15 15 58 18 95 4 36 13 79 21 95 8 15 15 40 15 56 0
15 4 27 10 27 5 0 13 12 16 28 4 15 14 37 23 48 16 20 17 16 13 -71 -3 -52 0
-100 6 -111 6 -11 13 -107 17 -214 3 -107 10 -219 16 -249 13 -79 12 -1034 -2
-1048 -6 -6 -13 -48 -15 -94 -3 -46 -9 -102 -14 -124 -5 -22 -12 -436 -15
-920 -3 -484 -10 -896 -14 -915 -5 -19 -12 -95 -16 -167 -3 -73 -10 -146 -15
-163 -5 -16 -12 -134 -16 -262 -4 -145 -12 -244 -19 -263 -8 -18 -13 -85 -14
-165 -1 -79 -6 -139 -13 -147 -25 -31 -31 -226 -30 -1093 1 -492 4 -1073 7
-1290 3 -218 2 -413 -2 -434 l-9 -39 -24 51 c-14 29 -28 52 -32 52 -5 0 -8 9
-8 20 0 11 -7 20 -15 20 -8 0 -15 7 -15 15 0 8 -7 15 -15 15 -8 0 -15 5 -15
11 0 21 -35 38 -77 39 -42 0 -43 -1 -43 -33 0 -40 20 -87 38 -87 6 0 12 -6 12
-13 0 -7 9 -20 20 -30 11 -9 20 -26 20 -36 0 -11 4 -22 9 -25 5 -4 12 -24 16
-46 4 -22 11 -40 16 -40 5 0 9 -10 9 -23 0 -12 6 -31 14 -42 7 -11 17 -44 21
-72 4 -29 11 -53 16 -53 5 0 9 -9 9 -20 0 -11 8 -36 19 -57 10 -21 25 -53 32
-71 8 -17 20 -32 27 -32 8 0 16 -9 19 -20 3 -11 9 -20 14 -20 5 0 9 -6 9 -14
0 -8 18 -28 39 -45 39 -31 99 -42 127 -23 17 11 41 72 48 121 4 24 13 53 21
64 8 12 15 29 15 38 0 9 7 22 15 29 8 7 15 26 15 42 0 16 7 36 15 44 8 9 15
28 15 44 0 16 5 30 10 32 6 2 13 21 17 43 3 22 10 43 15 46 5 3 12 25 15 48 3
22 10 41 14 41 5 0 9 26 9 58 0 53 -2 58 -31 75 -34 19 -69 23 -69 7 0 -5 -7
-10 -15 -10 -9 0 -21 -12 -28 -27 -6 -16 -17 -34 -24 -41 -7 -7 -13 -24 -13
-37 0 -12 -7 -36 -15 -51 -8 -16 -15 -39 -15 -52 0 -13 -7 -30 -15 -38 -8 -9
-15 -24 -15 -34 0 -10 -7 -20 -15 -24 -10 -3 -15 -19 -15 -43 0 -52 -16 -77
-26 -39 -11 45 1 317 15 325 15 9 9 587 -8 771 -16 172 -11 1831 5 1851 7 8
15 48 19 89 4 41 11 80 15 85 4 6 11 51 15 100 4 50 11 95 16 100 10 14 27
266 39 598 6 175 14 264 22 280 10 17 14 226 19 962 4 670 9 952 17 980 6 22
12 69 12 105 0 39 5 71 13 78 17 18 22 658 5 802 -6 58 -13 195 -15 305 -4
199 -4 200 19 210 12 6 25 21 28 35 5 19 11 24 30 22 16 -3 30 4 42 20 16 22
18 22 18 3 0 -11 7 -33 15 -49 8 -15 15 -49 15 -75 0 -26 5 -52 11 -58 16 -16
48 -112 49 -145 0 -15 6 -42 14 -60 31 -75 45 -150 50 -267 4 -68 10 -129 15
-135 5 -6 14 -72 21 -146 20 -233 27 -284 39 -288 6 -2 11 -16 11 -32 0 -15 7
-33 15 -40 8 -7 15 -18 15 -25 0 -7 6 -18 14 -24 8 -6 17 -35 20 -64 10 -76
26 -92 89 -90 30 1 59 -5 71 -13 29 -20 221 -19 260 1 15 8 39 15 52 15 12 0
27 7 32 15 6 11 30 17 91 20 45 2 88 8 94 13 7 5 41 12 76 15 35 3 68 10 74
16 6 6 43 11 82 11 47 0 78 5 91 15 10 8 37 15 60 15 22 0 49 7 60 15 10 8 30
15 44 15 14 0 38 7 54 15 15 8 36 15 45 15 9 0 29 7 45 15 15 8 35 15 42 15 8
0 17 7 20 15 4 8 12 15 20 15 7 0 33 14 57 30 25 17 51 30 59 30 8 0 23 7 34
15 10 8 27 15 37 15 10 0 20 7 23 15 4 8 13 15 20 15 8 0 17 7 20 15 4 8 11
15 18 15 22 0 84 39 129 82 55 52 74 68 82 68 3 0 13 8 24 18 10 9 39 36 65
60 25 23 46 47 46 52 0 13 37 50 50 50 5 0 10 7 10 15 0 8 7 15 15 15 8 0 15
7 15 15 0 8 7 15 15 15 8 0 15 6 15 14 0 7 8 16 18 20 9 3 36 17 60 30 23 14
56 27 72 31 17 4 30 11 30 16 0 5 14 9 30 9 18 0 33 6 36 15 4 8 16 15 28 15
12 0 29 9 39 20 9 11 24 20 32 20 8 0 15 5 15 10 0 6 7 10 15 10 8 0 15 6 15
13 0 6 21 21 46 32 25 11 50 26 56 33 6 6 18 12 28 12 10 0 23 7 30 15 7 8 21
15 31 15 9 0 24 6 31 13 7 8 26 17 41 21 15 3 27 11 27 16 0 6 9 10 19 10 11
0 26 7 35 15 8 8 22 15 31 15 8 0 18 7 21 15 4 8 16 15 29 15 12 0 28 7 35 15
7 8 19 15 26 15 8 0 31 9 51 20 21 11 43 20 50 20 7 0 13 5 13 10 0 6 9 10 19
10 11 0 26 7 35 15 8 8 26 15 39 15 14 0 30 7 37 15 7 8 23 15 36 15 12 0 25
4 28 9 9 14 151 81 172 81 10 0 32 7 48 15 15 8 37 15 47 15 11 0 22 7 25 15
4 8 15 15 25 15 11 0 22 7 25 15 4 8 11 15 16 15 10 0 50 16 113 45 17 8 47
17 68 21 20 3 40 10 43 15 3 5 16 9 28 9 13 0 29 6 35 14 7 8 27 17 46 20 19
4 35 11 35 16 0 6 9 10 19 10 11 0 26 7 35 15 8 8 19 15 24 15 5 0 15 7 22 15
7 8 22 15 34 15 12 0 30 6 41 14 11 7 32 16 48 20 15 3 27 11 27 16 0 6 9 10
19 10 11 0 26 6 33 13 7 6 48 29 90 50 43 21 80 43 83 48 4 5 15 9 26 9 10 0
19 6 19 14 0 8 11 17 25 20 14 4 25 11 25 16 0 6 7 10 15 10 8 0 25 9 38 20
12 12 29 27 38 35 9 8 21 15 27 15 7 0 12 4 12 8 0 4 15 14 33 22 17 7 35 15
40 18 4 2 7 -3 7 -11 0 -26 30 -47 65 -47 55 0 65 8 65 51 0 35 14 53 22 29 3
-11 209 -17 226 -6 18 11 20 -19 17 -245 -2 -123 -9 -548 -15 -944 -14 -949
-19 -1147 -31 -1161 -5 -6 -12 -43 -16 -80 -3 -38 -11 -75 -17 -83 -8 -10 -13
-326 -17 -1100 -4 -597 -10 -1108 -14 -1136 -10 -70 -65 -129 -65 -70 0 30
-36 51 -72 42 -38 -10 -49 -51 -55 -207 -2 -80 -9 -149 -14 -154 -5 -6 -9 -24
-9 -40 0 -17 -5 -48 -11 -69 l-10 -38 -147 4 c-300 10 -557 26 -560 37 -4 12
-149 14 -156 1 -3 -5 -34 -12 -68 -16 -35 -4 -68 -11 -74 -16 -5 -4 -164 -10
-352 -11 -235 -2 -345 -6 -350 -14 -4 -6 -47 -14 -95 -18 -49 -3 -97 -11 -107
-16 -28 -15 -117 -12 -325 12 -155 18 -259 23 -562 25 -250 2 -373 0 -373 -7
0 -6 -30 -10 -74 -10 -53 0 -79 -4 -90 -15 -8 -8 -18 -15 -23 -15 -17 0 -45
-43 -50 -76 -3 -19 -10 -34 -14 -34 -5 0 -9 -40 -9 -90 0 -53 4 -90 10 -90 6
0 10 -9 10 -20 0 -11 7 -23 15 -26 8 -4 15 -12 15 -20 0 -8 7 -14 15 -14 8 0
15 -7 15 -15 0 -8 7 -15 15 -15 8 0 15 -4 15 -10 0 -5 12 -13 28 -16 15 -4 30
-12 34 -18 7 -11 111 -20 373 -34 l140 -7 -3 -145 c-2 -79 -7 -151 -12 -160
-7 -14 -15 -96 -39 -385 -4 -55 -9 -154 -10 -219 -1 -71 -7 -128 -14 -140 -9
-15 -13 -161 -15 -554 -2 -401 -5 -539 -14 -555 -9 -16 -14 -115 -16 -354 -3
-270 -6 -334 -18 -344 -18 -15 -18 -64 1 -83 8 -8 15 -19 15 -25 0 -6 6 -11
14 -11 8 0 17 -13 21 -30 4 -16 11 -30 16 -30 5 0 9 -6 9 -13 0 -31 37 -49 94
-45 52 3 55 2 60 -24 10 -50 35 -68 93 -68 42 0 51 3 47 15 -4 8 -2 15 3 15 5
0 24 15 43 32 19 18 45 34 57 35 40 3 82 32 89 61 3 15 12 41 20 59 8 17 14
36 14 41 0 6 5 12 10 14 6 2 13 21 17 43 3 22 10 42 14 45 4 3 12 34 18 70 5
36 14 85 20 110 6 25 10 157 11 294 0 232 1 248 18 241 9 -5 53 -12 96 -17 44
-5 88 -16 100 -24 12 -8 44 -14 81 -14 33 0 112 -7 175 -14 140 -18 649 -21
730 -5 30 5 109 14 175 18 66 4 130 13 143 20 47 25 988 46 1347 29 370 -17
501 -26 545 -36 25 -6 61 -11 81 -12 20 0 50 -7 65 -15 22 -11 67 -15 189 -15
88 -1 180 -6 205 -11 25 -6 96 -13 159 -15 97 -3 119 -1 157 17 24 11 44 23
44 28 0 4 25 11 56 15 31 3 64 11 74 16 10 5 142 10 301 11 156 0 304 5 329
10 25 6 70 15 100 20 30 6 59 14 65 20 15 15 131 11 145 -6 14 -17 135 -22
145 -5 3 6 11 10 16 10 13 0 1 -179 -13 -197 -5 -6 -11 -44 -14 -85 -3 -40
-11 -84 -17 -97 -12 -25 -14 -126 -7 -341 5 -115 3 -127 -15 -146 -59 -60 -61
-144 -4 -144 9 0 19 -7 23 -15 8 -21 138 -21 156 0 7 8 22 15 35 15 12 0 32 8
43 19 18 15 22 29 22 84 l0 67 -27 -6 -28 -6 5 319 c3 175 9 324 13 331 24 37
30 288 33 1510 l4 1292 -282 1 c-156 1 -289 1 -295 0 -17 -2 -17 36 0 46 8 4
17 17 22 28 8 19 9 19 12 -2 6 -31 43 -32 43 -1 0 14 18 39 47 65 30 28 41 43
30 43 -9 0 -32 -16 -51 -35 -41 -41 -47 -42 -71 -16 -17 20 -18 20 -61 -12
-24 -18 -43 -38 -44 -44 0 -16 -52 -17 -68 -1 -8 8 -15 8 -27 -2 -10 -9 -47
-14 -102 -14 l-86 -1 -1 39 c-1 34 -5 40 -29 47 -17 5 -32 3 -40 -5 -6 -7 -20
-15 -29 -19 -10 -3 -18 -11 -18 -17 0 -5 -8 -10 -18 -10 -10 0 -28 -7 -40 -16
-18 -12 -41 -14 -115 -10 -100 5 -293 29 -317 38 -8 4 -42 9 -74 12 -33 4 -65
11 -72 17 -7 6 -86 13 -176 15 -104 4 -165 9 -170 17 -4 7 -53 13 -127 15
l-121 4 6 27 c4 14 11 31 16 38 5 6 12 36 15 67 5 51 3 58 -27 95 -17 23 -40
41 -51 41 -10 0 -19 4 -19 9 0 4 -26 11 -57 15 l-58 6 0 245 c0 182 -3 247
-12 257 -18 17 -19 1818 -1 1851 7 13 13 86 16 177 2 85 9 164 15 175 17 31
22 558 8 775 -7 102 -16 437 -20 745 -4 308 -11 567 -15 576 -6 15 19 17 256
21 276 6 300 10 333 54 16 22 21 144 5 144 -5 0 -12 11 -16 25 -3 14 -10 25
-15 25 -5 0 -9 7 -9 15 0 25 17 17 46 -20 14 -19 35 -35 45 -35 11 0 19 -7 19
-15 0 -8 7 -15 15 -15 8 0 15 -6 15 -13 0 -7 20 -21 45 -32 25 -11 45 -23 45
-27 0 -3 13 -9 29 -13 16 -3 32 -13 35 -21 3 -8 12 -14 21 -14 8 0 15 -5 15
-10 0 -6 10 -15 23 -20 12 -6 40 -21 62 -35 22 -13 50 -24 63 -25 12 0 22 -4
22 -9 0 -5 15 -12 34 -15 19 -4 36 -10 38 -14 4 -11 73 -52 87 -52 7 0 19 -7
27 -15 9 -8 24 -15 34 -15 10 0 20 -7 24 -15 3 -8 13 -15 23 -15 10 0 27 -7
37 -15 11 -8 28 -15 38 -15 10 0 18 -4 18 -9 0 -5 10 -13 23 -16 12 -4 34 -20
49 -36 15 -16 32 -29 37 -29 6 0 11 -7 11 -15 0 -9 9 -15 24 -15 13 0 26 -5
28 -12 3 -7 25 -12 56 -12 44 0 57 5 82 29 41 39 43 106 4 153 -15 18 -33 32
-41 32 -7 0 -33 20 -56 45 -24 25 -47 45 -51 45 -4 0 -14 7 -22 15 -9 8 -29
15 -45 15 -16 0 -29 4 -29 10 0 5 -12 13 -27 16 -15 4 -34 13 -41 21 -7 7 -22
13 -33 13 -10 0 -19 5 -19 10 0 6 -5 10 -11 10 -16 0 -101 42 -117 58 -7 6
-20 12 -28 12 -8 0 -17 7 -20 15 -4 8 -13 15 -20 15 -15 0 -27 8 -65 43 -10 9
-23 17 -29 17 -5 0 -10 4 -10 9 0 5 -20 22 -45 38 -25 15 -45 31 -45 36 0 4
-7 7 -15 7 -8 0 -15 7 -15 15 0 8 -7 15 -15 15 -8 0 -15 4 -15 8 0 8 -95 82
-106 82 -3 0 -23 13 -43 28 -20 15 -54 36 -76 46 -22 11 -47 22 -55 26 -9 4
-30 11 -48 15 -31 6 -32 9 -32 54 0 26 4 51 9 56 5 6 11 24 13 40 2 24 8 30
28 31 13 1 26 7 28 13 2 6 12 11 22 11 11 0 23 6 27 13 4 8 15 17 23 20 8 4
29 16 45 27 17 11 40 25 53 31 12 7 22 16 22 21 0 4 9 8 20 8 11 0 23 7 26 15
4 8 12 15 20 15 7 0 17 6 21 14 4 7 26 21 48 32 44 20 98 55 103 67 2 4 9 7
17 7 7 0 18 7 25 15 7 8 20 15 30 15 10 0 20 7 24 15 3 8 17 15 31 15 14 0 25
6 25 13 0 6 22 22 48 35 70 34 94 49 102 62 4 7 19 13 32 13 16 1 24 7 21 15
-3 6 2 12 11 12 9 0 19 6 22 14 3 8 19 18 35 21 16 4 29 11 29 16 0 5 5 9 11
9 43 0 169 86 169 116 0 6 7 14 15 18 8 3 15 14 15 25 0 35 19 33 41 -3 12
-20 25 -36 30 -36 5 0 9 -4 9 -10 0 -5 9 -19 20 -30 11 -11 20 -29 20 -39 0
-11 5 -23 10 -26 6 -3 10 -39 10 -80 0 -55 -4 -74 -15 -79 -8 -3 -15 -12 -15
-20 0 -7 -7 -16 -15 -20 -11 -4 -15 -21 -15 -68 0 -35 3 -74 7 -87 5 -21 10
-22 46 -17 29 5 52 18 80 46 21 22 42 40 47 40 4 0 10 7 14 15 4 11 20 15 56
15 36 0 52 4 56 15 4 8 10 15 15 15 14 0 49 39 49 54 0 8 4 17 9 21 6 3 13 26
17 51 3 25 13 48 20 51 8 3 14 12 14 20 0 8 7 21 15 29 11 12 15 39 15 112 -1
85 -4 102 -25 137 -14 22 -29 50 -34 62 -5 11 -15 24 -20 28 -6 3 -11 15 -11
25 0 11 -6 34 -14 52 -27 64 -46 133 -46 166 0 19 -6 35 -14 38 -8 3 -17 16
-20 30 -4 13 -11 24 -16 24 -6 0 -10 5 -10 12 0 6 -6 19 -13 27 -7 9 -19 39
-26 68 -11 45 -10 55 4 77 10 14 20 26 24 26 16 0 68 56 74 78 10 41 -1 52
-53 52 -47 0 -50 -2 -139 -90 -51 -51 -91 -99 -91 -110 0 -10 -5 -22 -12 -26
-8 -5 -9 2 -3 27 15 66 13 74 -22 77 -24 2 -38 -4 -62 -27 -18 -17 -35 -31
-39 -31 -14 0 -72 -61 -72 -76 0 -7 -6 -14 -14 -14 -8 0 -14 -6 -13 -12 1 -36
-4 -58 -14 -58 -6 0 -9 19 -7 48 2 31 7 46 16 44 9 -1 11 19 10 80 l-2 83 -3
-73 c-3 -50 -8 -75 -18 -78 -11 -5 -14 -46 -14 -210 -1 -113 2 -216 5 -229 3
-13 15 -27 27 -31 19 -6 17 -8 -15 -24 -38 -18 -78 -54 -78 -70 0 -5 -6 -10
-14 -10 -8 0 -21 -6 -28 -14 -8 -7 -29 -17 -46 -21 -18 -3 -32 -10 -32 -15 0
-5 -13 -11 -30 -15 -16 -4 -30 -11 -30 -16 0 -5 -6 -9 -14 -9 -7 0 -19 -7 -26
-15 -7 -8 -21 -15 -31 -15 -11 0 -19 -6 -19 -14 0 -8 -11 -17 -25 -20 -14 -4
-25 -11 -25 -16 0 -6 -9 -10 -20 -10 -11 0 -20 -6 -20 -14 0 -7 -8 -17 -17
-20 -35 -13 -73 -37 -73 -47 0 -5 -7 -9 -15 -9 -9 0 -31 -16 -49 -35 -19 -19
-39 -35 -45 -35 -6 0 -11 -4 -11 -10 0 -5 -5 -10 -11 -10 -6 0 -28 -13 -49
-30 -21 -16 -42 -30 -47 -30 -5 0 -16 -9 -26 -20 -9 -11 -24 -20 -32 -20 -8 0
-15 -4 -15 -10 0 -5 -8 -10 -19 -10 -10 0 -24 -7 -31 -15 -7 -8 -19 -15 -26
-15 -8 0 -14 -7 -14 -15 0 -8 -4 -15 -9 -15 -5 0 -16 -3 -25 -6 -11 -4 -16 0
-16 14 0 33 -11 52 -30 52 -24 0 -45 28 -42 55 2 13 -2 26 -7 30 -6 3 -11 27
-11 53 0 26 -4 52 -8 57 -11 17 -88 38 -114 32 -12 -3 -99 -7 -193 -8 l-170
-2 2 32 c1 30 18 76 49 133 7 14 14 33 14 42 0 9 4 16 9 16 5 0 13 14 16 32 4
17 14 38 21 46 8 7 14 22 14 31 0 10 7 24 15 31 8 7 15 19 15 27 0 8 7 21 15
29 8 9 15 25 15 37 0 12 7 31 15 41 8 11 15 28 15 38 0 10 4 18 9 18 5 0 13
15 16 33 4 17 11 34 14 37 4 3 17 24 29 48 16 31 22 60 22 107 0 59 -2 65 -29
84 -36 26 -98 27 -127 3 -26 -22 -64 -84 -64 -106 0 -10 -7 -24 -15 -32 -8 -9
-15 -24 -15 -33 0 -10 -7 -24 -15 -31 -8 -7 -15 -25 -15 -41 0 -16 -4 -29 -9
-29 -5 0 -13 -14 -16 -32 -4 -17 -14 -38 -21 -46 -8 -7 -14 -24 -14 -38 0 -13
-4 -24 -9 -24 -5 0 -12 -13 -16 -29 -3 -16 -13 -32 -21 -35 -8 -3 -14 -14 -14
-25 0 -11 -6 -32 -14 -48 -20 -39 -46 -100 -46 -108 0 -3 -7 -13 -15 -21 -8
-9 -15 -25 -15 -37 0 -12 -7 -31 -15 -41 -8 -11 -15 -28 -15 -37 0 -10 -4 -19
-10 -21 -8 -2 -14 -20 -19 -58 -1 -8 -551 -2 -591 6 -19 4 -41 6 -47 5 -9 -1
-13 17 -13 66 -1 108 -12 248 -21 253 -4 3 -11 18 -14 33 -4 15 -10 27 -14 27
-12 0 -30 68 -24 90 6 23 -33 90 -53 90 -20 0 -30 -29 -16 -49 26 -35 29 -57
18 -116 -6 -33 -15 -66 -20 -74 -8 -13 -14 -97 -16 -236 -1 -42 -3 -47 -13
-33 -12 16 -29 22 -54 19 -20 -2 -42 -91 -49 -199 -6 -87 -5 -107 8 -116 17
-13 32 -116 17 -116 -5 0 -12 7 -16 15 -9 24 -122 134 -154 151 -16 8 -29 19
-29 24 0 6 -7 10 -15 10 -8 0 -15 5 -15 10 0 6 -8 14 -17 17 -10 4 -31 20 -48
35 -16 15 -36 28 -42 28 -7 0 -13 7 -13 15 0 8 -9 15 -20 15 -11 0 -20 4 -20
8 0 5 -25 19 -55 33 -30 13 -55 30 -55 37 0 7 -13 12 -34 12 -18 0 -39 7 -46
15 -7 8 -17 15 -22 15 -5 0 -16 7 -24 15 -9 8 -29 15 -45 15 -17 0 -32 6 -35
15 -4 9 -19 15 -35 15 -16 0 -29 4 -29 9 0 5 -13 12 -30 16 -16 4 -30 13 -30
21 0 8 -9 14 -19 14 -11 0 -22 4 -26 9 -3 6 -26 13 -50 17 -25 3 -45 10 -45
14 0 4 -17 11 -37 15 -20 4 -46 13 -57 21 -11 8 -37 14 -58 14 -20 0 -39 4
-43 9 -3 5 -30 13 -60 16 -30 4 -55 11 -55 15 0 4 -15 11 -34 14 -19 4 -39 13
-46 21 -7 8 -18 15 -25 15 -7 0 -15 7 -19 15 -3 8 -12 15 -20 15 -8 0 -27 6
-43 14 -15 8 -46 23 -68 33 -22 10 -44 24 -48 31 -4 6 -19 12 -32 12 -14 0
-25 4 -25 10 0 5 -12 13 -27 16 -16 4 -37 13 -48 20 -11 8 -37 14 -58 14 -24
0 -40 5 -43 15 -4 8 -18 15 -34 15 -15 0 -33 7 -40 15 -8 10 -30 15 -61 15
-27 0 -49 4 -49 10 0 5 -16 12 -36 16 -24 4 -34 11 -30 20 3 8 2 13 -2 13 -22
-4 -33 3 -28 16 3 9 0 15 -8 15 -8 0 -16 7 -20 15 -3 8 -10 15 -16 15 -13 0
-31 14 -72 58 -17 17 -37 32 -45 32 -7 0 -13 7 -13 15 0 8 -6 15 -14 15 -8 0
-16 4 -18 9 -4 12 -96 81 -108 81 -6 0 -10 7 -10 15 0 8 -7 15 -15 15 -17 0
-25 6 -78 55 -18 17 -49 39 -69 50 -21 10 -47 32 -58 47 -11 15 -27 28 -35 28
-8 0 -15 5 -15 10 0 6 -7 10 -15 10 -8 0 -24 9 -35 20 -11 11 -22 20 -25 20
-2 0 -20 15 -39 33 -19 17 -49 43 -66 57 -18 14 -40 33 -49 43 -8 9 -21 17
-28 17 -7 0 -13 6 -13 13 -1 13 -61 47 -84 47 -8 0 -27 7 -42 15 -16 8 -37 15
-48 15 -12 0 -16 5 -12 15 4 12 -3 15 -34 15 -38 0 -54 14 -27 23 6 2 -3 4
-22 5 -18 0 -40 7 -50 15 -9 8 -24 17 -34 20 -10 4 -16 11 -13 16 3 5 0 9 -7
8 -33 -1 -47 4 -47 18 0 9 -9 15 -21 15 -14 0 -19 5 -16 14 4 10 1 13 -7 10
-7 -3 -30 11 -50 30 -20 20 -40 36 -45 36 -12 0 -71 57 -91 88 -8 12 -21 24
-30 27 -8 3 -37 25 -63 50 -26 25 -52 45 -57 45 -6 0 -10 7 -10 15 0 8 -6 15
-13 15 -7 0 -28 13 -47 30 -19 16 -40 29 -46 30 -6 0 -31 11 -55 25 -24 14
-52 28 -61 31 -10 4 -18 13 -18 20 0 8 -7 14 -15 14 -8 0 -15 5 -15 10 0 6 -7
10 -15 10 -10 0 -15 10 -15 34 0 49 -41 96 -84 96 -18 0 -37 5 -43 11 -15 15
-585 18 -604 3 -13 -10 -69 -25 -112 -30 -21 -2 -24 12 -31 135 -5 102 -10
111 -63 111 -22 0 -37 -7 -47 -22z m699 -429 c25 -9 41 -21 44 -34 4 -25 30
-44 59 -45 15 0 26 -7 29 -20 3 -11 9 -20 14 -20 5 0 9 -4 9 -9 0 -22 205
-230 228 -231 6 0 12 -4 12 -9 0 -5 12 -12 28 -16 15 -3 44 -19 64 -36 20 -16
41 -29 46 -29 6 0 12 -7 16 -15 3 -8 12 -15 20 -15 7 0 27 -7 42 -15 16 -8 37
-15 47 -15 10 0 25 -7 33 -15 9 -8 26 -15 40 -15 13 0 24 -4 24 -9 0 -5 14
-12 30 -16 17 -4 30 -11 30 -16 0 -5 18 -12 40 -15 22 -4 40 -10 40 -14 0 -5
18 -11 40 -15 22 -4 40 -11 40 -16 0 -5 11 -11 25 -15 14 -3 25 -12 25 -20 0
-8 6 -14 13 -14 6 0 26 -14 42 -31 17 -17 48 -45 69 -62 22 -18 59 -51 83 -74
24 -24 46 -43 48 -43 2 0 26 -21 53 -47 27 -27 64 -59 82 -73 18 -14 41 -33
51 -42 11 -10 23 -18 28 -18 5 0 11 -7 15 -15 3 -8 12 -15 21 -15 8 0 15 -4
15 -9 0 -5 18 -19 41 -30 22 -12 55 -35 72 -51 18 -17 37 -30 44 -30 6 0 13
-3 15 -7 5 -12 66 -53 78 -53 5 0 10 -7 10 -15 0 -8 8 -15 19 -15 10 0 24 -7
31 -15 7 -8 21 -15 31 -15 11 0 19 -4 19 -9 0 -5 20 -12 45 -15 25 -4 45 -11
45 -16 0 -5 9 -12 21 -15 11 -4 44 -30 72 -58 57 -57 91 -82 152 -112 22 -11
45 -25 50 -31 21 -22 93 -74 104 -74 6 0 11 -7 11 -15 0 -8 7 -15 15 -15 9 0
18 -7 21 -15 4 -8 12 -15 19 -15 7 0 18 -7 25 -15 7 -8 26 -15 42 -15 16 0 36
-7 44 -15 9 -8 28 -15 44 -15 15 0 41 -7 56 -15 16 -8 37 -15 47 -15 9 0 17
-4 17 -10 0 -5 16 -12 37 -16 20 -4 48 -13 62 -20 14 -8 43 -14 63 -14 20 0
39 -4 42 -9 3 -4 28 -11 56 -15 27 -4 50 -11 50 -16 0 -5 11 -12 25 -16 14 -3
25 -10 25 -15 0 -5 10 -14 23 -19 43 -20 112 -63 120 -76 4 -8 15 -14 22 -14
8 0 15 -7 15 -15 0 -8 9 -15 20 -15 11 0 20 -4 20 -10 0 -5 11 -12 25 -16 14
-3 25 -12 25 -20 0 -8 6 -14 14 -14 7 0 19 -7 26 -15 7 -8 21 -15 31 -15 11 0
19 -4 19 -9 0 -5 14 -14 30 -20 17 -5 30 -15 30 -20 0 -6 11 -11 24 -11 14 0
27 -4 30 -9 3 -5 18 -12 32 -15 15 -4 33 -14 41 -21 8 -8 23 -15 34 -15 10 0
19 -4 19 -10 0 -5 7 -10 15 -10 8 0 23 -9 32 -20 10 -11 23 -20 30 -20 7 0 13
-7 13 -15 0 -8 7 -15 15 -15 8 0 15 -4 15 -9 0 -5 14 -14 30 -20 17 -5 30 -15
30 -20 0 -6 7 -11 15 -11 8 0 15 -4 15 -9 0 -5 16 -19 35 -31 19 -12 35 -28
35 -36 0 -8 5 -14 10 -14 6 0 10 -4 10 -10 0 -13 37 -50 50 -50 6 0 10 -7 10
-15 0 -9 6 -12 15 -9 9 4 18 -1 22 -12 3 -11 9 -21 12 -24 3 -3 11 -14 17 -24
6 -11 19 -24 29 -30 59 -35 113 -146 70 -146 -8 0 -15 -7 -15 -15 0 -8 -5 -15
-12 -15 -11 0 -29 -14 -66 -52 -9 -10 -22 -18 -29 -18 -7 0 -13 -4 -13 -10 0
-5 -7 -10 -15 -10 -8 0 -15 -7 -15 -15 0 -8 -7 -15 -15 -15 -8 0 -15 -7 -15
-15 0 -8 -7 -15 -15 -15 -8 0 -15 -4 -15 -10 0 -10 -36 -50 -45 -50 -2 0 -20
-16 -39 -35 -20 -19 -42 -35 -51 -35 -8 0 -15 -4 -15 -10 0 -5 -7 -10 -15 -10
-9 0 -18 -6 -21 -14 -3 -8 -16 -17 -30 -20 -13 -4 -24 -11 -24 -16 0 -6 -6
-10 -14 -10 -7 0 -19 -7 -26 -15 -7 -8 -21 -15 -31 -15 -11 0 -19 -5 -19 -10
0 -6 -10 -15 -22 -21 -25 -11 -41 -20 -105 -62 -24 -15 -51 -27 -62 -27 -10 0
-24 -7 -31 -15 -7 -8 -19 -15 -26 -15 -8 0 -23 -8 -33 -17 -38 -35 -48 -41
-79 -48 -18 -3 -32 -10 -32 -13 0 -10 -92 -42 -119 -42 -12 0 -38 -9 -58 -20
-21 -11 -43 -20 -50 -20 -7 0 -13 -4 -13 -10 0 -5 -5 -10 -11 -10 -16 0 -103
-43 -107 -52 -2 -5 -16 -8 -32 -8 -16 0 -30 -7 -34 -15 -3 -8 -16 -15 -29 -15
-14 0 -30 -7 -37 -15 -7 -8 -27 -15 -44 -15 -18 0 -41 -7 -52 -15 -10 -8 -31
-15 -46 -15 -15 0 -33 -6 -40 -14 -8 -7 -33 -17 -56 -21 -23 -4 -44 -11 -48
-16 -3 -5 -16 -9 -30 -9 -14 0 -27 -7 -30 -15 -4 -8 -18 -15 -33 -15 -15 0
-36 -7 -47 -15 -10 -8 -27 -15 -36 -15 -9 0 -23 -7 -31 -15 -8 -7 -26 -17 -41
-21 -14 -3 -29 -10 -32 -15 -3 -5 -13 -9 -23 -9 -10 0 -24 -7 -31 -15 -7 -8
-21 -15 -32 -15 -10 0 -21 -7 -24 -15 -3 -8 -26 -17 -50 -21 -24 -3 -44 -10
-44 -15 0 -5 -11 -9 -25 -9 -21 0 -63 -17 -127 -51 -10 -5 -26 -9 -36 -9 -10
0 -27 -7 -38 -15 -10 -8 -29 -15 -41 -15 -24 0 -106 -39 -111 -52 -2 -4 -12
-8 -23 -8 -10 0 -19 -7 -19 -15 0 -8 -6 -15 -14 -15 -7 0 -29 -13 -47 -30 -19
-16 -40 -30 -46 -30 -7 0 -13 -6 -13 -14 0 -8 -11 -17 -25 -20 -14 -4 -25 -11
-25 -16 0 -6 -7 -10 -15 -10 -15 0 -96 -39 -105 -50 -3 -4 -17 -10 -32 -14
-16 -3 -28 -11 -28 -16 0 -6 -7 -10 -15 -10 -9 0 -18 -6 -21 -14 -3 -8 -19
-18 -35 -21 -16 -4 -29 -11 -29 -16 0 -5 -7 -9 -15 -9 -8 0 -15 -4 -15 -9 0
-4 -27 -28 -60 -52 -33 -24 -60 -47 -60 -51 0 -5 -6 -8 -14 -8 -8 0 -16 -6
-19 -12 -7 -18 -64 -45 -109 -53 -21 -3 -38 -10 -38 -15 0 -6 -8 -10 -18 -10
-10 0 -27 -7 -38 -15 -10 -8 -29 -15 -41 -15 -13 0 -23 -4 -23 -9 0 -5 -26
-22 -57 -37 -32 -15 -60 -30 -63 -34 -3 -4 -15 -10 -27 -14 -13 -4 -23 -12
-23 -17 0 -5 -8 -9 -19 -9 -10 0 -24 -6 -30 -14 -7 -8 -27 -17 -46 -20 -19 -4
-35 -11 -35 -16 0 -6 -10 -10 -23 -10 -13 0 -32 -7 -43 -15 -10 -8 -25 -15
-32 -15 -12 0 -70 -37 -82 -51 -3 -4 -15 -9 -27 -13 -13 -4 -23 -12 -23 -17 0
-5 -7 -9 -15 -9 -9 0 -18 -7 -21 -15 -4 -8 -12 -15 -19 -15 -7 0 -18 -7 -25
-15 -7 -8 -20 -15 -29 -15 -9 0 -29 -7 -45 -15 -15 -8 -43 -15 -60 -15 -18 0
-41 -7 -52 -15 -10 -8 -31 -15 -45 -15 -15 0 -32 -7 -39 -15 -15 -18 -56 -20
-67 -2 -4 6 -14 12 -20 13 -7 1 -20 2 -28 3 -8 0 -15 8 -15 16 0 8 -7 15 -15
15 -10 0 -17 14 -21 40 -4 22 -10 40 -14 40 -4 0 -10 59 -14 132 -3 73 -11
137 -16 142 -6 6 -10 134 -10 331 -1 187 -5 339 -11 365 -6 25 -14 86 -18 135
-4 50 -12 100 -19 112 -7 12 -12 34 -12 48 0 15 -7 41 -15 59 -13 28 -15 79
-11 347 6 364 7 399 21 400 6 1 42 0 80 -1 39 -1 82 3 98 9 24 10 27 15 27 60
0 29 -5 53 -12 58 -7 4 -53 7 -102 6 l-89 -3 9 38 c23 101 3 926 -25 1016 -15
47 -23 361 -28 966 -2 300 -4 561 -5 580 -3 56 4 144 13 161 6 11 28 19 64 24
30 3 55 10 55 15 0 4 16 11 35 14 19 4 35 11 35 15 0 31 233 38 315 10z m7265
-1269 c0 -57 4 -80 13 -80 6 0 21 -20 31 -43 11 -23 25 -46 32 -52 24 -19 58
-195 35 -181 -6 4 -11 14 -11 22 0 8 -3 14 -7 14 -5 0 -28 18 -53 40 -24 22
-48 40 -52 40 -4 0 -8 72 -8 160 0 100 4 160 10 160 6 0 10 -33 10 -80z
m-7856 -1075 c1 -319 -2 -491 -9 -493 -7 -1 -11 188 -11 550 -2 401 1 537 8
493 6 -34 11 -273 12 -550z m5578 -133 c3 -30 9 -57 15 -60 5 -4 13 -20 17
-37 4 -16 13 -33 19 -37 8 -5 13 -67 14 -204 2 -186 4 -198 23 -211 11 -8 18
-19 15 -24 -4 -5 -62 -9 -130 -9 -72 0 -126 -4 -130 -10 -3 -5 -34 -10 -68
-10 -60 0 -63 1 -74 30 -9 24 -17 30 -42 30 -17 0 -34 -7 -39 -16 -8 -15 -12
-14 -33 7 -24 24 -24 25 -29 312 -3 159 -4 289 -3 290 1 1 100 2 221 2 l220 0
4 -53z m812 21 c-1 -15 -2 -36 -3 -45 -1 -10 -6 -18 -12 -18 -20 0 -39 -28
-39 -57 1 -32 20 -62 37 -56 22 8 24 -17 4 -43 -26 -32 -29 -99 -5 -112 13 -7
16 -33 17 -149 l2 -141 -165 -7 c-189 -9 -449 0 -464 15 -7 7 -2 10 16 10 31
0 65 37 93 103 11 26 26 47 33 47 6 0 12 7 12 15 0 15 8 28 41 63 9 9 24 36
35 59 10 23 25 43 32 43 6 0 12 8 12 19 0 10 7 24 15 31 19 16 19 63 -1 105
-14 31 -64 65 -95 65 -10 0 -10 3 -1 12 7 7 12 24 12 38 0 15 2 29 4 31 2 2
98 3 213 2 l208 -2 -1 -28z m-634 -792 c0 -5 27 -12 59 -16 53 -6 59 -9 59
-28 -1 -12 -5 -26 -9 -32 -12 -17 -21 -174 -20 -338 1 -136 -1 -158 -15 -164
-10 -4 -12 -8 -5 -13 8 -4 13 -176 17 -556 10 -864 10 -1070 -4 -1086 -6 -8
-15 -62 -18 -119 -4 -57 -10 -109 -15 -114 -13 -17 -19 -176 -25 -650 -3 -247
-7 -470 -9 -495 -2 -25 -6 -139 -10 -255 -3 -115 -11 -223 -17 -240 -7 -17
-14 -145 -18 -300 -3 -148 -9 -277 -13 -285 -4 -9 -9 -40 -10 -70 -2 -32 -8
-54 -14 -53 -6 1 -61 3 -122 4 l-111 2 6 51 c4 28 10 58 14 66 14 28 21 443
10 650 -9 199 -29 379 -43 410 -11 23 0 934 13 1110 6 85 17 192 24 237 8 45
14 126 15 179 1 65 7 103 17 119 20 30 18 351 -2 428 -11 42 -14 198 -15 787
0 404 -1 741 -2 748 0 6 -6 12 -14 12 -7 0 -13 5 -13 10 0 6 55 10 145 10 80
0 145 -4 145 -9z m-3685 -1321 c-3 -5 -13 -10 -21 -10 -8 0 -14 -7 -14 -15 0
-8 -7 -15 -15 -15 -8 0 -15 -4 -15 -10 0 -13 -37 -50 -50 -50 -5 0 -10 -7 -10
-15 0 -8 -4 -15 -10 -15 -5 0 -18 -8 -29 -17 -10 -10 -33 -29 -50 -42 -17 -13
-53 -45 -79 -71 -26 -26 -59 -51 -72 -55 -14 -4 -27 -10 -30 -14 -8 -10 -44
-31 -62 -37 -10 -4 -18 -11 -18 -16 0 -5 -13 -14 -30 -19 -16 -6 -30 -15 -30
-20 0 -4 -16 -11 -35 -15 -19 -3 -35 -10 -35 -15 0 -5 -9 -9 -19 -9 -11 0 -26
-7 -35 -15 -8 -8 -26 -15 -39 -15 -14 0 -30 -7 -37 -15 -7 -8 -26 -15 -42 -15
-16 0 -45 -7 -65 -15 -19 -8 -56 -15 -81 -15 -27 0 -52 -6 -63 -16 -11 -10
-31 -14 -60 -12 l-44 4 30 12 c17 7 38 17 47 22 10 6 24 10 32 10 20 0 156 70
156 81 0 4 16 11 35 15 19 3 35 10 35 15 0 5 8 9 18 9 10 0 27 7 38 15 10 8
31 15 47 15 15 0 27 6 27 13 0 7 33 23 75 36 41 13 78 27 81 32 3 5 14 9 25 9
11 0 22 7 25 15 4 8 14 15 23 15 9 0 24 8 33 18 26 27 46 42 58 42 5 0 10 7
10 15 0 8 7 15 15 15 8 0 15 7 15 15 0 8 5 15 10 15 12 0 73 41 78 53 2 4 10
7 17 7 7 0 15 7 19 15 3 8 12 15 20 15 8 0 19 6 23 13 11 16 64 45 86 46 10 1
15 -3 12 -9z m3385 -3721 c3 -4 46 -11 95 -15 81 -6 127 -21 146 -46 3 -4 20
-10 38 -12 22 -2 41 -14 56 -32 21 -26 29 -29 84 -29 39 0 62 -4 66 -12 3 -9
-6 -13 -28 -13 -18 0 -38 -5 -45 -12 -15 -15 -16 -50 -2 -64 14 -14 -331 -26
-408 -15 -30 4 -74 5 -98 1 -25 -4 -46 -4 -48 -1 -1 3 -3 33 -4 66 -2 33 -7
64 -12 69 -14 14 -13 46 1 46 17 0 38 31 39 56 0 11 3 23 6 26 8 9 108 -3 114
-13z m2596 -723 c28 -7 98 -14 155 -15 57 -1 104 -3 105 -4 1 -1 4 -220 6
-487 1 -267 2 -466 0 -443 -2 23 -10 47 -18 53 -7 7 -14 23 -14 35 0 12 -7 28
-15 35 -8 7 -15 18 -15 24 0 6 -6 23 -14 37 -7 14 -16 42 -20 61 -13 70 -73
113 -113 82 -10 -7 -30 -14 -45 -14 -16 0 -28 -6 -28 -12 -1 -15 -67 -48 -96
-48 -11 0 -29 -7 -40 -15 -10 -8 -29 -15 -42 -15 -12 0 -25 -7 -28 -15 -4 -8
-12 -15 -20 -15 -8 0 -14 -7 -14 -15 0 -8 -4 -15 -10 -15 -27 0 -50 -36 -50
-77 0 -40 2 -42 33 -48 41 -8 58 -4 74 15 10 13 12 11 13 -12 0 -14 -4 -28 -9
-30 -5 -1 -11 -36 -14 -76 -3 -40 -11 -80 -19 -89 -9 -12 -14 -67 -16 -205 -3
-152 -6 -190 -18 -195 -8 -3 -14 -11 -14 -19 0 -8 -7 -14 -15 -14 -8 0 -15 -8
-15 -19 0 -10 -7 -31 -15 -47 -13 -25 -13 -31 0 -51 8 -12 15 -37 15 -55 1
-48 22 -71 59 -66 34 5 40 -4 34 -48 -3 -20 1 -36 11 -47 9 -8 16 -27 16 -41
0 -27 26 -59 41 -50 6 3 42 3 80 -1 121 -12 63 -26 -102 -26 -85 1 -198 -4
-252 -10 -73 -8 -102 -8 -110 0 -15 15 -44 14 -50 -3 -4 -10 -35 -15 -116 -18
-66 -3 -116 -9 -123 -16 -17 -17 -103 -15 -117 2 -10 12 -71 14 -344 15 -183
1 -354 4 -381 7 l-49 7 49 18 c43 17 80 19 296 19 136 0 249 -4 252 -9 3 -4
40 -11 82 -14 42 -3 81 -10 87 -16 27 -27 97 12 97 53 0 49 -56 73 -188 82
-56 3 -105 10 -108 15 -7 12 -441 12 -448 0 -3 -4 -43 -12 -88 -16 -46 -4 -88
-11 -95 -17 -7 -6 -152 -12 -360 -15 -191 -3 -356 -10 -365 -14 -9 -5 -50 -9
-90 -9 -40 0 -89 -5 -108 -12 -36 -11 -105 -13 -625 -17 -193 -1 -314 -6 -340
-13 -28 -8 -229 -14 -648 -18 l-607 -5 0 133 0 133 23 -8 c33 -12 856 -8 1057
5 96 7 193 18 214 24 57 18 738 18 743 1 6 -16 55 -17 69 -3 6 6 83 12 181 14
94 2 179 9 190 14 12 7 249 13 633 17 338 4 642 9 675 11 33 1 111 6 173 10
77 5 112 3 112 -4 0 -6 13 -13 30 -17 37 -8 100 20 100 45 0 10 5 20 11 22 21
7 28 77 12 125 -14 39 -14 58 -4 122 6 42 11 120 11 174 0 59 5 107 12 120 8
15 14 108 19 287 3 150 11 284 18 308 7 26 8 55 3 75 -7 28 -13 32 -48 35 -48
3 -63 -16 -70 -91 -3 -29 -10 -61 -15 -72 -5 -11 -13 -74 -19 -140 -19 -240
-30 -337 -40 -356 -6 -11 -14 -65 -17 -122 -3 -56 -10 -108 -16 -115 -6 -7
-12 -60 -15 -116 -4 -95 -6 -103 -23 -99 -11 3 -25 0 -32 -6 -9 -7 -107 -11
-293 -11 l-279 -1 3 223 c1 123 -3 261 -8 308 -6 47 -14 121 -18 165 -4 44
-12 87 -17 95 -5 8 -12 42 -16 75 -4 33 -12 61 -18 63 -6 2 -11 14 -11 27 0
41 -11 54 -52 66 -30 8 -48 7 -70 -2 -29 -12 -29 -13 -25 -73 8 -91 29 -210
39 -217 4 -3 9 -168 11 -367 l2 -362 -105 -1 c-58 0 -144 -1 -192 -2 l-88 -2
-3 470 c-4 532 -7 566 -63 593 -27 13 -38 13 -63 2 -17 -7 -31 -18 -31 -25 0
-8 -5 -15 -10 -17 -21 -7 -60 -908 -42 -977 10 -43 2 -55 -43 -59 -28 -2 -253
-17 -378 -25 l-58 -3 6 115 c8 165 8 444 -3 751 -4 146 -7 268 -5 273 6 11
1127 9 1139 -3 9 -9 309 -32 419 -32 33 0 138 3 234 7 191 7 220 16 221 66 0
53 -17 61 -141 70 -63 5 -130 11 -149 13 -19 3 -141 8 -270 11 -129 4 -246 11
-260 16 -38 14 -1883 6 -2045 -10 -71 -6 -134 -16 -140 -20 -5 -5 -39 -12 -75
-16 -36 -4 -69 -11 -75 -15 -5 -4 -35 -10 -65 -14 -30 -4 -59 -11 -65 -16 -19
-15 -140 -33 -262 -37 l-123 -4 0 34 c0 44 -19 60 -71 59 -49 -1 -72 -24 -64
-64 l5 -28 -151 0 c-126 0 -150 2 -146 14 4 9 -3 16 -20 20 -32 9 -63 -1 -63
-20 0 -8 -3 -14 -7 -15 -76 -7 -109 -12 -113 -17 -3 -4 -14 -12 -25 -18 -24
-13 -33 -73 -13 -85 7 -5 41 -9 74 -9 l62 0 -4 -47 c-3 -27 -9 -77 -14 -113
-5 -36 -11 -109 -14 -163 -2 -54 -9 -104 -15 -111 -6 -7 -14 -62 -17 -122 -4
-60 -12 -115 -18 -123 -7 -8 -12 -90 -14 -220 -1 -113 -8 -226 -13 -251 -6
-25 -13 -112 -14 -195 -2 -102 -6 -150 -14 -149 -6 1 -52 2 -102 2 l-92 2 7
63 c3 34 11 105 16 157 13 128 12 743 -1 800 -6 25 -14 73 -18 108 -5 35 -14
69 -20 75 -6 6 -11 23 -11 37 0 14 -8 37 -17 50 -16 22 -19 60 -23 320 -3 162
-3 303 -1 313 3 17 16 17 190 12 383 -11 1246 -16 1266 -6 11 5 64 12 117 14
54 2 104 9 112 16 10 9 163 12 580 12 479 -1 574 -3 612 -16 38 -13 161 -15
891 -14 573 0 863 4 893 11 25 6 89 13 143 15 96 4 97 4 97 -19 0 -36 28 -106
50 -128 47 -47 101 -46 126 1 8 16 19 29 24 29 6 0 10 8 10 19 0 10 7 24 15
31 10 8 15 25 13 44 -2 25 1 31 17 33 11 1 34 6 50 11 43 15 92 14 151 -2z
m-5544 -91 c-25 -170 -29 -536 -6 -580 8 -15 14 -39 14 -53 0 -14 8 -34 18
-45 16 -18 17 -61 17 -603 0 -571 0 -583 -20 -598 -11 -9 -30 -16 -42 -16 -45
0 -53 -10 -53 -63 0 -32 6 -57 16 -68 11 -12 13 -27 9 -53 -4 -20 -11 -36 -15
-36 -4 0 -10 -26 -14 -57 -4 -31 -12 -63 -19 -71 -9 -11 -13 -88 -15 -271 -2
-160 -7 -250 -12 -241 -6 9 -10 197 -10 436 0 355 2 426 15 450 8 16 15 41 15
55 0 15 7 40 15 55 8 16 15 47 15 70 0 22 6 46 13 52 9 10 13 169 15 710 2
383 -1 752 -5 820 -5 68 -6 125 -4 128 3 3 17 4 31 2 19 -2 24 -8 22 -23z
m2079 -388 c-1 -45 -6 -86 -9 -92 -4 -5 -12 -62 -19 -125 -7 -63 -17 -155 -23
-205 -7 -53 -10 -203 -8 -363 l3 -272 -135 -1 c-146 -1 -163 -2 -197 -13 -22
-7 -23 -5 -23 41 l0 48 25 -28 c34 -36 82 -37 121 0 25 23 29 35 32 92 4 60 1
69 -22 94 -37 40 -97 39 -128 -4 l-23 -31 -5 74 c-6 78 3 141 15 103 6 -19 46
-45 70 -45 21 0 63 25 76 45 17 27 13 90 -8 115 -24 27 -120 29 -130 3 -3 -10
-12 -25 -19 -33 -7 -8 -14 -26 -16 -40 -1 -14 -2 104 0 261 l4 286 -27 22
c-26 20 -29 20 -56 4 -24 -14 -29 -24 -30 -58 -1 -22 -5 -86 -10 -142 -5 -57
-13 -149 -18 -205 -5 -57 -9 -219 -10 -360 -1 -238 -2 -258 -18 -259 -207 -8
-362 -18 -375 -24 -17 -7 -18 22 -18 530 0 500 1 539 17 551 12 8 22 9 29 3 8
-6 35 -6 75 1 35 5 102 10 149 10 55 1 94 6 110 15 16 9 55 14 106 15 55 0 86
5 100 15 10 8 35 15 55 15 20 0 50 5 67 11 31 10 263 38 272 31 2 -1 3 -40 1
-85z m571 -34 c-2 -65 -7 -131 -12 -148 -5 -16 -12 -163 -16 -325 -3 -162 -9
-299 -13 -305 -3 -5 -8 -59 -11 -118 l-5 -109 -180 1 -180 0 3 54 c3 44 0 57
-15 68 -17 13 -18 35 -18 319 0 168 1 391 3 495 l2 190 222 -2 223 -3 -3 -117z
m-1684 -530 c-2 -298 -5 -544 -8 -546 -3 -3 -81 -7 -173 -9 l-168 -3 5 170 c5
195 28 387 40 343 16 -55 116 -47 148 12 24 45 23 74 -4 110 -18 25 -29 30
-63 30 -22 0 -46 -5 -53 -12 -6 -6 -14 -10 -16 -7 -3 3 7 218 19 379 2 30 4
61 4 68 1 9 32 12 136 10 l136 -3 -3 -542z"/>
<path d="M5980 9492 c-39 -2 -69 -8 -75 -16 -5 -7 -31 -15 -57 -18 -25 -3 -60
-15 -77 -27 -26 -19 -31 -29 -31 -65 0 -48 8 -57 62 -77 28 -10 43 -10 60 -2
13 6 45 14 73 17 27 4 54 11 59 16 6 6 26 10 47 10 22 0 47 8 63 21 21 17 26
29 26 67 0 26 -4 52 -8 58 -9 14 -60 20 -142 16z"/>
<path d="M4162 9463 c-29 -36 -28 -82 2 -110 20 -19 35 -23 91 -23 36 0 75 -5
86 -11 11 -6 60 -13 108 -16 106 -7 121 2 121 77 0 56 -18 80 -58 80 -15 0
-36 7 -46 15 -15 11 -51 15 -151 15 -131 0 -131 0 -153 -27z"/>
<path d="M5013 9478 c-17 -8 -23 -20 -23 -45 0 -18 4 -33 9 -33 5 0 11 -14 15
-32 13 -66 20 -68 215 -68 97 0 181 4 187 8 6 4 19 24 29 46 15 30 16 42 7 57
-7 10 -12 23 -12 29 0 5 -8 19 -17 30 -16 19 -29 20 -203 19 -111 0 -194 -5
-207 -11z"/>
<path d="M3340 9433 c-72 -4 -100 -24 -100 -72 0 -36 9 -46 54 -65 31 -13 77
-16 232 -16 118 0 195 4 199 10 3 6 16 10 29 10 47 0 72 63 42 103 -25 32
-193 43 -456 30z"/>
<path d="M2460 9417 c-20 -10 -26 -21 -28 -59 -5 -72 14 -78 238 -78 168 0
184 2 211 21 36 25 40 74 9 107 -20 21 -28 22 -213 22 -134 0 -200 -4 -217
-13z"/>
<path d="M9450 3066 c0 -21 6 -36 15 -40 8 -3 15 -16 15 -30 0 -13 7 -26 15
-30 12 -4 15 -28 15 -123 0 -118 0 -119 -29 -144 -16 -14 -31 -36 -33 -50 -3
-20 -9 -24 -45 -27 -40 -3 -43 -5 -43 -33 0 -19 -5 -29 -15 -29 -8 0 -15 -7
-15 -15 0 -8 -4 -15 -10 -15 -12 0 -80 -68 -80 -80 0 -6 -7 -10 -15 -10 -8 0
-15 -7 -15 -15 0 -8 -7 -15 -15 -15 -8 0 -15 -7 -15 -15 0 -8 -7 -15 -15 -15
-10 0 -15 -10 -15 -30 0 -27 -3 -30 -30 -30 l-30 0 0 -80 c0 -64 3 -80 15 -80
8 0 15 -6 15 -14 0 -8 7 -16 15 -20 11 -4 15 -22 15 -76 0 -56 3 -70 15 -70
13 0 15 -33 15 -235 0 -202 -2 -235 -15 -235 -11 0 -15 -12 -15 -45 0 -33 -4
-45 -15 -45 -10 0 -15 -10 -15 -30 0 -20 -5 -30 -15 -30 -10 0 -15 -11 -15
-35 0 -28 4 -35 20 -35 16 0 20 7 20 30 0 20 5 30 15 30 8 0 15 7 15 15 0 8 7
15 15 15 11 0 15 12 15 45 0 33 4 45 15 45 8 0 15 7 15 15 0 8 7 15 15 15 8 0
15 7 15 15 0 8 7 15 15 15 13 0 15 29 15 200 0 171 -2 200 -15 200 -11 0 -15
12 -15 45 0 33 -4 45 -15 45 -8 0 -15 7 -15 15 0 8 -7 15 -15 15 -10 0 -15 10
-15 29 0 16 -6 31 -15 35 -12 4 -15 26 -15 111 0 85 3 107 15 111 8 4 15 12
15 20 0 8 7 14 15 14 8 0 15 7 15 15 0 10 10 15 29 15 28 0 30 3 33 43 3 38 6
42 31 45 15 2 27 9 27 18 0 8 7 14 15 14 8 0 15 7 15 15 0 8 6 15 14 15 9 0
16 12 18 28 3 24 7 27 46 30 42 3 42 3 42 43 0 26 5 42 15 45 10 4 15 20 15
45 0 26 5 42 15 45 8 4 15 14 15 24 0 10 -7 20 -15 24 -12 4 -15 24 -15 90 0
65 -3 85 -15 90 -10 3 -15 19 -15 46 0 33 -3 40 -20 40 -16 0 -20 -7 -20 -34z"/>
<path d="M8527 2802 c-15 -10 -30 -25 -33 -34 -3 -10 -9 -18 -14 -18 -5 0 -19
-20 -31 -45 -12 -25 -25 -45 -29 -45 -3 0 -16 -9 -28 -20 -18 -17 -22 -32 -22
-84 0 -81 15 -96 92 -96 53 0 58 2 77 34 12 18 21 43 21 55 0 12 7 24 15 27 8
4 15 16 16 28 0 11 9 35 20 51 46 73 47 131 1 153 -33 15 -50 14 -85 -6z"/>
<path d="M7067 2444 c-40 -21 -47 -50 -47 -180 0 -112 0 -115 25 -126 14 -6
25 -15 25 -20 0 -11 58 -10 65 2 3 6 35 10 70 10 81 0 109 11 129 51 33 66 9
155 -45 166 -16 3 -32 10 -35 14 -3 5 -21 9 -40 9 -31 0 -34 3 -34 29 0 23 -7
33 -32 45 -38 19 -45 19 -81 0z"/>
<path d="M8428 2140 c-23 -23 -28 -38 -28 -79 0 -62 17 -81 73 -81 32 0 46 6
63 25 26 31 39 101 25 138 -9 24 -16 27 -58 27 -40 -1 -53 -6 -75 -30z"/>
<path d="M5890 2792 c0 -5 -9 -19 -20 -32 -11 -13 -20 -29 -20 -37 0 -7 -4
-13 -10 -13 -17 0 -11 -43 9 -67 35 -42 105 -30 145 24 19 26 27 98 12 121 -8
14 -116 17 -116 4z"/>
<path d="M5860 2521 c0 -5 -7 -17 -16 -25 -19 -20 -28 -74 -20 -120 l7 -36 59
0 c45 0 60 4 60 14 0 8 5 16 12 18 6 2 13 31 16 64 5 75 -9 94 -74 94 -24 0
-44 -4 -44 -9z"/>
<path d="M5410 2373 c-106 -11 -150 -90 -99 -177 17 -30 27 -36 54 -36 19 0
37 -4 40 -10 3 -5 21 -10 40 -10 19 0 37 5 40 10 3 6 19 10 34 10 28 0 71 35
71 58 0 7 5 12 10 12 6 0 10 21 10 48 0 37 -6 53 -25 75 -23 24 -32 27 -83 25
-31 0 -73 -3 -92 -5z"/>
<path d="M4820 1910 c-26 -26 -29 -130 -4 -154 35 -36 144 -13 144 30 0 8 5
14 10 14 6 0 10 17 10 39 0 57 -35 91 -95 91 -32 0 -51 -6 -65 -20z"/>
<path d="M6571 12501 c-22 -19 -23 -25 -18 -103 14 -203 28 -237 97 -238 69 0
83 72 51 262 -11 66 -27 87 -73 94 -24 4 -39 0 -57 -15z"/>
<path d="M7604 12089 c-41 -15 -47 -35 -41 -122 4 -45 11 -83 17 -85 6 -2 10
-94 10 -253 0 -250 5 -289 35 -289 8 0 15 -4 15 -10 0 -6 63 -10 170 -10 145
0 175 3 198 17 38 24 42 32 42 81 0 23 4 42 9 42 5 0 13 14 16 32 7 28 9 30
20 15 7 -9 16 -17 20 -17 4 0 18 -11 31 -25 13 -14 26 -25 29 -25 4 0 23 -16
43 -36 60 -58 68 -64 80 -64 7 0 12 -4 12 -10 0 -14 96 -12 121 3 17 10 22 9
30 -5 6 -10 17 -18 24 -18 8 0 15 -4 15 -10 0 -16 45 -12 80 8 19 10 33 28 37
45 3 15 9 27 13 27 5 0 12 15 15 33 4 17 9 35 12 39 5 9 43 -28 43 -41 0 -6
15 -22 34 -36 48 -36 122 -37 159 -2 23 20 27 33 27 77 0 47 -4 56 -36 86 -39
37 -37 40 40 47 27 3 51 9 55 14 3 6 23 13 44 17 20 4 37 11 37 16 0 6 7 10
15 10 30 0 55 38 55 84 0 42 -4 50 -44 84 -17 14 -72 16 -80 3 -3 -4 -29 -11
-58 -15 -29 -4 -55 -11 -58 -15 -3 -5 -31 -10 -62 -13 l-57 -5 -7 44 c-3 24
-10 46 -15 49 -5 3 -9 31 -9 62 0 39 -7 70 -21 97 -27 51 -34 55 -91 55 -48 0
-63 -11 -110 -80 -15 -24 -16 -24 -23 -5 -14 40 -30 70 -45 86 -38 38 -98 35
-143 -7 l-27 -25 0 -216 0 -216 -23 21 c-13 12 -29 22 -35 22 -7 0 -15 7 -18
15 -4 8 -12 15 -20 15 -8 0 -14 7 -14 15 0 8 -7 15 -15 15 -8 0 -15 7 -15 15
0 8 -4 15 -10 15 -5 0 -19 9 -30 20 -11 11 -20 25 -20 30 0 6 -6 10 -14 10
-13 0 -46 56 -46 78 0 18 -69 44 -100 37 -17 -4 -30 -11 -30 -16 0 -5 -7 -9
-15 -9 -8 0 -15 -6 -15 -14 0 -8 -6 -16 -12 -19 -16 -5 -15 -111 0 -130 6 -7
14 -54 18 -104 l7 -91 -45 -3 -45 -4 -5 179 c-3 98 -10 181 -15 185 -6 3 -13
24 -16 46 -4 22 -11 41 -16 43 -6 2 -13 19 -17 39 -11 58 -61 91 -110 72z"/>
<path d="M6557 11892 c-14 -15 -17 -44 -18 -163 -1 -177 5 -203 50 -207 39 -4
81 29 81 63 0 11 5 26 11 32 11 11 7 163 -5 218 -15 61 -27 75 -66 75 -23 0
-43 -7 -53 -18z"/>
<path d="M5038 11368 l-3 -43 -180 -5 -180 -6 243 -2 c207 -2 242 -4 242 -17
0 -11 12 -15 45 -15 33 0 45 -4 45 -15 0 -13 25 -15 165 -15 140 0 165 -2 165
-15 0 -8 7 -15 15 -15 8 0 15 -7 15 -15 0 -11 11 -15 37 -15 32 0 35 2 19 13
-13 10 -17 24 -14 57 l3 45 60 6 c37 3 -4 6 -107 7 -142 2 -168 4 -168 17 0
13 -20 15 -120 15 -100 0 -120 3 -120 15 0 12 -13 15 -60 15 -47 0 -60 3 -60
15 0 8 -9 15 -19 15 -16 0 -20 -8 -23 -42z"/>
<path d="M6604 11273 c-8 -58 3 -302 15 -317 5 -6 12 -30 16 -54 4 -26 15 -48
28 -57 28 -20 39 -19 68 6 24 20 24 24 23 181 -1 88 -6 176 -12 197 -6 20 -14
48 -17 64 -5 25 -8 27 -60 27 l-54 0 -7 -47z"/>
<path d="M723 9508 c-19 -9 -23 -19 -23 -54 0 -47 17 -64 63 -64 14 0 38 -7
53 -15 16 -8 43 -15 60 -15 16 0 35 -5 41 -11 7 -7 47 -14 90 -17 43 -3 81 -9
84 -14 3 -5 27 -10 52 -10 52 0 97 31 97 67 0 49 -92 115 -161 115 -24 0 -76
7 -114 15 -81 17 -210 19 -242 3z"/>
<path d="M9895 9080 c-3 -5 -19 -10 -35 -10 -16 0 -35 -7 -44 -15 -8 -8 -26
-15 -40 -15 -14 0 -26 -5 -26 -11 0 -5 -13 -15 -30 -20 -16 -6 -30 -15 -30
-20 0 -5 -6 -9 -14 -9 -8 0 -34 -21 -59 -46 -66 -70 -77 -83 -77 -94 0 -5 -4
-10 -10 -10 -5 0 -10 -7 -10 -15 0 -8 -9 -24 -20 -35 -11 -11 -20 -24 -20 -29
0 -5 -7 -11 -15 -15 -8 -3 -15 -13 -15 -23 0 -10 -7 -27 -15 -37 -8 -11 -15
-30 -15 -42 0 -13 -4 -25 -9 -29 -5 -3 -12 -18 -16 -34 -3 -16 -13 -32 -21
-35 -8 -3 -14 -14 -14 -25 0 -11 -4 -22 -9 -25 -14 -9 -51 -85 -51 -106 0 -10
-4 -21 -9 -25 -5 -3 -12 -19 -16 -36 -4 -17 -13 -42 -21 -57 -8 -15 -14 -37
-14 -50 0 -12 -7 -34 -16 -47 -15 -23 -22 -25 -105 -25 -70 0 -91 -3 -95 -15
-4 -8 -13 -15 -20 -15 -8 0 -17 -7 -20 -15 -3 -8 -14 -17 -25 -20 -10 -4 -19
-11 -19 -16 0 -6 -7 -17 -15 -25 -8 -9 -15 -29 -15 -45 0 -23 5 -30 28 -35 15
-3 38 -11 51 -17 14 -7 68 -12 125 -12 112 0 150 12 201 64 17 17 34 31 38 31
19 0 46 47 47 78 0 18 7 49 15 69 8 19 15 50 15 67 0 17 7 40 15 50 8 11 15
34 15 50 0 17 7 40 15 50 8 11 15 32 15 48 0 15 4 28 10 28 5 0 13 18 16 40 4
22 13 45 20 51 8 6 14 18 14 25 0 8 4 14 10 14 5 0 13 12 16 27 4 15 13 34 21
41 7 7 13 22 13 32 0 10 4 21 9 24 4 3 11 19 15 36 3 17 11 37 18 44 7 8 22
26 32 40 10 14 25 26 32 26 7 0 14 5 16 11 2 6 46 13 101 16 54 3 100 10 103
14 3 5 14 9 24 9 11 0 44 24 75 53 47 46 55 59 55 90 l0 37 -94 0 c-53 0 -98
-4 -101 -10z"/>
<path d="M10120 8960 c0 -5 -6 -10 -14 -10 -8 0 -16 -7 -20 -15 -3 -8 -12 -15
-21 -15 -8 0 -15 -7 -15 -15 0 -8 -6 -15 -13 -15 -7 0 -28 -16 -47 -37 -19
-20 -61 -61 -92 -91 -32 -30 -58 -59 -58 -63 0 -12 -69 -79 -80 -79 -6 0 -10
-7 -10 -15 0 -8 -7 -15 -15 -15 -8 0 -15 -7 -15 -15 0 -8 -7 -15 -15 -15 -8 0
-15 -7 -15 -15 0 -8 -7 -15 -15 -15 -8 0 -15 -7 -15 -15 0 -8 -3 -15 -8 -15
-7 0 -20 -26 -71 -142 -9 -21 -21 -38 -27 -38 -6 0 -17 -12 -25 -27 -7 -16
-20 -36 -29 -45 -8 -9 -21 -24 -27 -32 -25 -29 -47 -102 -49 -161 -1 -33 -3
-68 -3 -77 -1 -10 -8 -18 -16 -18 -8 0 -23 -9 -32 -20 -10 -11 -21 -20 -26
-20 -20 0 -46 -39 -48 -71 -4 -59 2 -62 112 -55 98 7 99 7 144 48 74 67 79 82
81 255 2 137 4 153 22 173 11 12 25 19 31 15 6 -3 11 0 11 7 1 7 14 24 30 38
17 13 30 29 30 36 0 6 7 17 15 24 8 7 15 23 15 35 0 24 29 87 43 93 4 2 7 8 7
14 0 6 13 25 30 42 57 60 70 76 70 86 0 6 7 10 15 10 8 0 15 7 15 15 0 8 7 15
15 15 8 0 15 7 15 15 0 8 7 15 15 15 8 0 15 6 15 14 0 7 8 17 18 20 73 27 92
54 92 135 0 41 -4 71 -10 71 -5 0 -10 -4 -10 -10z"/>
<path d="M1640 5154 c-11 -26 -20 -55 -20 -65 0 -11 -4 -19 -9 -19 -5 0 -11
-18 -15 -40 -3 -22 -10 -40 -15 -40 -5 0 -14 -13 -20 -30 -5 -16 -14 -30 -19
-30 -5 0 -12 -8 -16 -17 -3 -10 -10 -25 -15 -33 -5 -8 -17 -33 -27 -55 -11
-22 -25 -44 -31 -48 -7 -4 -13 -17 -13 -28 0 -11 -7 -22 -15 -25 -8 -4 -15
-12 -15 -19 0 -7 -7 -26 -15 -41 -8 -16 -15 -37 -15 -46 0 -10 -4 -18 -9 -18
-5 0 -12 -13 -16 -30 -4 -16 -11 -30 -16 -30 -5 0 -9 -27 -9 -59 0 -56 2 -60
28 -68 15 -5 39 -7 54 -5 21 2 28 10 33 35 7 33 35 98 47 107 4 3 12 17 18 30
22 50 59 104 66 97 6 -6 -18 -80 -30 -93 -7 -7 -11 -26 -8 -43 3 -24 11 -33
31 -37 14 -4 32 -11 39 -17 8 -6 16 -6 25 0 6 6 21 13 31 17 17 6 18 2 13 -36
-7 -53 6 -127 24 -139 23 -14 95 -10 109 6 7 8 21 15 31 15 18 0 40 38 54 90
3 14 11 35 17 46 22 45 -52 99 -87 65 -14 -13 -113 -23 -120 -12 -3 6 -1 12 5
16 6 4 10 79 10 198 1 153 4 196 15 211 8 11 15 27 15 37 0 9 7 22 15 29 10 9
15 32 15 75 0 91 -3 95 -66 95 l-53 0 -21 -46z"/>
<path d="M2288 5043 c-21 -2 -38 -8 -38 -14 0 -5 -37 -9 -82 -9 -106 0 -158
-9 -158 -26 0 -8 -5 -14 -11 -14 -6 0 -9 -14 -7 -32 2 -23 10 -36 26 -43 22
-10 31 -48 13 -59 -4 -3 -11 -24 -15 -46 -3 -22 -13 -43 -21 -46 -8 -4 -15
-14 -15 -24 0 -11 -13 -24 -30 -32 -33 -14 -62 -62 -52 -87 15 -39 36 -51 93
-51 38 0 61 5 69 15 9 11 32 15 80 15 65 0 68 -1 74 -27 11 -42 -11 -54 -104
-58 -45 -2 -94 -8 -108 -13 -15 -6 -39 -13 -54 -16 -21 -5 -27 -13 -33 -46 -9
-53 -1 -72 37 -90 38 -17 234 -21 246 -5 4 6 28 20 53 32 44 22 90 64 102 94
3 9 6 6 6 -8 1 -12 -3 -24 -7 -27 -14 -8 -1 -74 19 -95 42 -45 119 -11 119 53
0 37 14 61 29 52 11 -7 51 10 63 28 4 6 8 69 8 139 0 104 3 129 15 133 8 4 15
12 15 19 0 7 12 15 26 18 28 5 54 -15 54 -42 0 -9 7 -26 15 -37 19 -25 19
-114 0 -150 -8 -16 -15 -54 -15 -85 0 -70 21 -98 79 -106 36 -5 44 -2 69 25
21 22 31 46 36 81 4 28 11 53 15 56 5 3 12 23 16 45 4 22 11 40 16 40 5 0 11
11 15 25 3 14 10 25 15 25 5 0 9 6 9 13 0 26 21 36 41 19 10 -9 19 -21 19 -27
0 -6 9 -16 20 -23 18 -11 20 -23 20 -101 0 -82 2 -90 26 -115 31 -31 60 -33
92 -7 21 18 22 27 21 138 0 99 -4 123 -20 148 -11 17 -25 42 -31 58 -7 15 -16
27 -20 27 -4 0 -8 7 -8 15 0 8 -7 15 -15 15 -8 0 -15 6 -15 13 0 15 -45 36
-94 44 -42 7 -107 -23 -147 -68 -25 -28 -25 -28 -42 -9 -9 11 -17 24 -17 30 0
5 -6 13 -13 17 -7 4 -18 20 -24 34 -9 22 -19 27 -65 32 -63 7 -243 -5 -255
-16 -4 -5 -9 -58 -11 -118 -3 -60 -8 -109 -13 -109 -4 0 -11 -16 -15 -35 -12
-64 -34 -56 -55 18 -10 38 -36 77 -52 77 -5 0 -15 7 -23 15 -10 10 -35 15 -76
15 -47 0 -58 3 -50 13 5 6 13 35 17 64 5 39 11 52 23 52 10 0 62 5 117 11 92
12 102 15 128 43 31 35 32 42 15 79 -18 37 -46 43 -160 31z"/>
<path d="M9000 970 c0 -20 -5 -30 -15 -30 -11 0 -15 -12 -15 -45 0 -33 -4 -45
-15 -45 -10 0 -15 -10 -15 -30 0 -20 -5 -30 -15 -30 -10 0 -15 -11 -15 -35 0
-24 5 -35 15 -35 10 0 15 -10 15 -30 0 -20 5 -30 15 -30 8 0 15 -7 15 -15 0
-8 7 -15 15 -15 12 0 15 -16 15 -80 0 -62 -3 -82 -15 -86 -8 -4 -15 -12 -15
-20 0 -11 -20 -14 -90 -14 l-90 0 0 -45 c0 -33 -4 -45 -15 -45 -8 0 -15 -7
-15 -15 0 -8 -7 -15 -15 -15 -8 0 -15 -9 -15 -20 0 -17 7 -20 50 -20 38 0 50
4 50 15 0 8 7 15 15 15 10 0 15 10 15 30 0 29 2 30 45 30 33 0 45 4 45 15 0 8
7 15 15 15 8 0 15 7 15 15 0 8 7 15 15 15 10 0 15 10 15 30 0 27 3 30 30 30
l30 0 0 65 c0 51 -3 65 -15 65 -8 0 -15 7 -15 15 0 8 -7 15 -15 15 -13 0 -15
23 -15 145 0 122 2 145 15 145 8 0 15 7 15 15 0 8 7 15 15 15 8 0 15 9 15 20
0 16 -7 20 -35 20 -32 0 -35 -2 -35 -30z"/>
</g>
</svg>
