<svg viewBox="0 0 324.48 458.88" xmlns="http://www.w3.org/2000/svg"><path d="M120.56 459.09c-.276-.308-.603-1.246-.727-2.084-.272-1.845-.613-2.115-1.555-1.23-1.23 1.157-2.705.74-3.589-1.015-.285-.567-.952-1.488-1.483-2.047-.828-.873-.93-1.167-.73-2.08.13-.585.33-5.456.448-10.824s.316-9.924.442-10.124c.674-1.07 1.196-11.107 1.196-22.996 0-8.444.151-14.147.462-17.47.255-2.711.545-7.163.647-9.89.1-2.729.397-6.76.658-8.96.678-5.714 1.04-11.569.764-12.35-.224-.635-.536-.681-5.944-.879-9.633-.353-11.758-.879-14.747-3.652l-1.36-1.262.001-3.169c.002-4.834.88-5.868 5.439-6.401 3.899-.456 27.146-.364 28.487.113 1.871.665 14.826.589 18.393-.109 2.224-.435 5.32-.608 13.6-.763 8.807-.164 11.005-.296 12.32-.737 2.62-.88 4.82-.966 11.048-.428 9.06.783 14.627 1.153 17.345 1.155 3.002.003 3 .004 4.25-4.799.74-2.843.844-3.754.68-5.922-.228-3.012.196-5.052 1.018-4.892.297.058.54.391.54.74 0 .738.391 1.434.807 1.434.433 0 2.523-1.907 2.941-2.684.624-1.156.97-16.298 1.012-44.196l.04-26.56.888-4.32c.656-3.19.968-5.95 1.195-10.56.169-3.432.452-8.103.629-10.379s.314-11.925.305-21.44c-.01-10.563.123-18.672.342-20.82.196-1.937.313-6.4.259-9.92l-.099-6.4h-8.531l-.93-1.04c-.511-.573-1.004-1.04-1.094-1.04-.09 0-.165.494-.165 1.098s-.144 1.479-.32 1.942c-.464 1.22-1.633.984-1.99-.4-.147-.573-.407-1.04-.577-1.04s-2.074 1.133-4.231 2.518c-3.85 2.473-8.819 5.481-9.054 5.481-.066 0-.882.451-1.814 1.003-2.773 1.641-14.922 7.303-16.364 7.626-1.623.364-3.138.979-6.29 2.554-1.32.66-3.618 1.603-5.107 2.097-1.488.493-5.16 2.08-8.16 3.525-2.999 1.445-6.533 3.097-7.853 3.673-2.221.968-9.668 4.578-12.64 6.127-.704.367-2.474 1.46-3.934 2.43-1.46.97-4.087 2.386-5.837 3.145-4.354 1.89-6.275 3.245-9.355 6.597-1.449 1.576-3.714 3.705-5.034 4.732s-2.832 2.326-3.36 2.888c-.528.563-1.68 1.386-2.56 1.83s-1.816.99-2.08 1.215-2.568 1.479-5.12 2.786c-4.857 2.489-8.962 3.844-14.88 4.912-1.584.286-4.608.854-6.72 1.263-2.112.408-4.648.825-5.636.927-.988.102-2.644.581-3.68 1.065-1.734.81-2.188.88-5.724.866-2.112-.008-4.77-.151-5.905-.318l-2.066-.303-.83-2.45c-.458-1.349-.996-2.65-1.197-2.892-.509-.613-1.603-4.83-1.852-7.138a731.45 731.45 0 00-.978-8.053c-.424-3.373-.771-6.915-.771-7.872 0-1.84-1.053-6.49-2.553-11.275-.856-2.728-2.343-9.739-3.26-15.36-.273-1.68-.387-4.87-.329-9.28.048-3.696.122-16.944.164-29.44.072-21.665.441-33.378 1.155-36.64.173-.792.321-3.658.329-6.37l.014-4.929-2.6-2.4.147-3.63c.094-2.326.486-5.192 1.09-7.974.851-3.911 1.125-4.644 2.754-7.374.995-1.667 1.809-3.223 1.809-3.457 0-.234.454-1.252 1.01-2.263 1.113-2.025 1.057-2.883-.189-2.883-.462 0-.938-.261-1.13-.62-.36-.672-.452-9.006-.121-11.008.228-1.38.878-1.821 1.607-1.092.367.367.525 1.499.64 4.603.187 5.032.266 5.344 1.037 4.076.42-.691 1.164-1.185 2.626-1.742 2.014-.767 2.156-.776 11.32-.684 5.104.052 9.803.233 10.443.403 1.444.383 1.89.904 2.098 2.451.141 1.057.416 1.387 2.13 2.566 1.083.744 2.784 1.752 3.78 2.24 1.682.824 6.354 4.617 9.384 7.618 3.65 3.616 10.758 8.168 15.96 10.222 3.58 1.413 4.754 2.136 8.366 5.15 1.408 1.175 3.208 2.571 4 3.103.792.532 1.888 1.387 2.436 1.901.549.514 1.644 1.393 2.435 1.954 3.211 2.277 7.916 5.915 10.329 7.988 1.408 1.21 3.308 2.838 4.222 3.619 1.853 1.584 4.289 2.911 5.908 3.22.589.113 1.574.453 2.19.757.616.304 2.272.942 3.68 1.418 3.03 1.023 9.637 4.032 11.694 5.325 1.856 1.167 3.594 1.78 7.186 2.536 3.542.745 9.137 2.618 10.322 3.456.483.341 1.886 1.082 3.118 1.646 10.954 5.014 17.538 9.235 21.628 13.865 1.434 1.622 2.841 2.95 3.13 2.95.445 0 .509-.362.433-2.467-.05-1.357-.275-3.013-.501-3.68a5.024 5.024 0 01-.17-2.494c.134-.704.251-2.018.261-2.92.02-1.826.614-2.705 1.282-1.9.214.257.34.941.283 1.52-.084.831.023 1.075.513 1.17 1.248.242 1.46-.711 1.46-6.55 0-5.78.253-7.282 1.194-7.1.984.19 1.299 1.53 1.533 6.522.26 5.545.321 5.682 2.714 6.05.792.123 5.112.293 9.6.379 8.836.17 10.358-.01 10.739-1.258 1.765-5.79 11.125-26.483 12.252-27.087 1.896-1.014 3.491.251 3.134 2.486-.108.672-.86 2.65-1.67 4.395-1.854 3.99-1.748 3.747-5.261 11.973-1.616 3.784-2.96 7.312-2.986 7.84l-.048.96 7.495.086c4.34.05 7.655.22 7.876.403.21.174.478 1.138.596 2.14.331 2.82.48 3.157 1.64 3.71.829.395 1.163.817 1.43 1.808.191.711.473 1.293.626 1.293s3.115-1.908 6.584-4.24c3.469-2.332 6.974-4.664 7.79-5.183.816-.518 2.923-1.947 4.683-3.175 1.76-1.228 4.784-3.074 6.72-4.102 1.936-1.028 3.698-2.107 3.915-2.399 1.2-1.61 3.69-2.205 4.676-1.116.75.828.658 1.853-.314 3.547-1.263 2.198-1.964 2.835-3.93 3.568-1.91.714-8.636 4.601-14.907 8.617-5.008 3.208-13.373 8.336-15.198 9.32-1.658.892-2.22 1.864-2.468 4.27-.284 2.751-.053 3.182 2.295 4.28 2.303 1.078 7.824 4.807 13.023 8.796 3.452 2.648 3.988 2.963 12.588 7.408 2.64 1.364 5.58 3.119 6.535 3.9.954.78 1.903 1.52 2.11 1.644s.625.614.931 1.09c.985 1.528-.111 3.455-1.966 3.455-1.347 0-2.049-.356-4.09-2.074-1.56-1.314-11.884-6.809-14.199-7.558-3.122-1.01-9.552-5.158-14.956-9.648-1.61-1.337-1.89-1.427-2.17-.694-.33.86-.204 1.514.612 3.174.433.88.788 1.917.79 2.305.004.977-.622 2.254-1.24 2.531-1.034.463-5.152.777-12.355.943-6.906.16-8.86.415-7.205.94 1.54.489 1.628 1.367 1.776 17.712.076 8.387.309 21.335.517 28.774.403 14.38.351 15.597-1.234 29.035-.393 3.333-.518 9.726-.632 32.16-.137 27.167-.122 28.086.503 30.891.89 4 1.16 8.926.684 12.561-.465 3.562-.354 3.779 2.1 4.085.961.12 2.21.53 2.774.91 1.454.98 1.735 2.02 1.2 4.437-.244 1.097-.453 2.5-.464 3.116l-.02 1.12 3.68.201c2.023.111 4.183.375 4.8.587s3.351.504 6.08.649c2.727.145 6.327.497 8 .782 5.024.858 7.96 1.136 12 1.135 3.434 0 4.023-.086 5.577-.81 1.951-.908 2.582-.84 2.582.281 0 .731.126.777 2.711.987 1.71.138 2.943.095 3.34-.116 1.17-.627 2.51-.392 3.55.624l.981.96h20.458v6.68c0 5.548-.081 6.749-.48 7.08-.42.349-.48 4.463-.48 33.466 0 26.876-.085 33.655-.454 36.2-.25 1.724-.622 4.354-.828 5.845-.205 1.492-.42 6.946-.48 12.12l-.106 9.408 2.828-.387v1.24c0 1.227-.02 1.248-2.083 2.073-2.718 1.089-4.348 1.087-5.778-.004-.604-.46-1.099-1.032-1.099-1.269s.432-.922.96-1.524c.959-1.092.96-1.099.96-5.15 0-2.23-.162-4.702-.361-5.492-.3-1.187-.247-2.086.302-5.181.365-2.06.979-5.951 1.364-8.647.748-5.227.664-5.89-.656-5.183-.683.365-3.01.304-6.471-.171-1.106-.152-2.46.026-5.12.673-3.355.815-4.313.897-13.217 1.127-10.454.27-14.825.773-16.68 1.92-1.332.823-2.949.887-12.44.493-4.58-.19-7.538-.49-10.4-1.05-2.2-.432-6.232-.919-8.96-1.083-2.728-.164-6.014-.465-7.301-.669-1.698-.268-7.326-.31-20.48-.151-20.32.245-23.24.35-27.58.996-7.427 1.104-14.966 1.52-23.68 1.307-11-.269-16.236-.654-19.2-1.413-3.441-.882-6.52-1.162-6.955-.634-.221.268-.398 3.643-.492 9.38-.167 10.23-.628 13.304-2.702 18.02-1.222 2.779-1.695 3.261-3.19 3.257-.625-.003-1.156.307-1.735 1.011-.954 1.162-1.713 1.086-2.21-.22-.173-.455-.459-.738-.635-.629-.472.292-.39 1.547.15 2.26.258.34.474.8.48 1.02.014.592-1.095.486-1.672-.16zm2.028-17.684c.185-9.35.196-9.47 1.2-13.069 1.152-4.128 1.202-4.612.534-5.167-.583-.484-.629-1.721-.08-2.164.22-.177.836-.415 1.37-.529.532-.113 1.173-.526 1.422-.917.99-1.547 1.638-23.62.957-32.549-.252-3.3-.562-5.035-1.315-7.36l-.985-3.04.231-19.2-2.64-.094c-1.961-.069-2.66.013-2.718.32-.043.227-.08 3.293-.084 6.813-.007 6.761-.538 18.846-1.147 26.095-.217 2.58-.306 8.023-.219 13.44.173 10.803.419 12.026 1.688 8.382.612-1.756.647-2.89.8-25.57.088-13.054.257-23.832.376-23.95.527-.526.617 3.97.512 25.443l-.112 22.88-.85 2.72c-1.844 5.91-1.897 6.44-1.954 19.608-.047 11.072.003 12.4.532 13.992 1.06 3.196 1.245 3.554 1.78 3.451.455-.087.538-1.21.702-9.535zm2.692 8.084c.632-1.564 1.511-6.072 1.793-9.2.392-4.343.258-14.547-.191-14.597-.176-.02-.744 1.168-1.262 2.64-.932 2.647-.945 2.778-1.127 11.478-.1 4.84-.128 9.124-.06 9.52.148.86.534.933.847.16zm-6.575-1.552c-.226-.422-.54-.768-.699-.768-.336 0-.003 1.245.503 1.875.54.672.691-.182.196-1.107zm154.29-24.786c1.579-.844 6.537-1.326 16.128-1.565 8.986-.224 10.146-.316 12.32-.976 2.532-.77 6.38-.992 8.813-.51.994.196 1.386.144 1.692-.225.314-.378.38-7.24.307-32.167-.05-17.428-.169-31.763-.263-31.857-.428-.429-10.899-1.219-13.665-1.03-4.007.27-4.503.491-4.763 2.115-.257 1.61-1.364 3.32-2.23 3.446-.972.142-1.69-.888-1.973-2.832l-.254-1.742-5.329.048c-3.335.03-6.553.253-8.602.597-2.807.471-4.621.52-12.743.346-5.208-.112-16.166-.329-24.35-.483-10.731-.2-15.281-.397-16.32-.705-1.112-.328-5.08-.427-17.44-.434l-16-.01-9.92 1.92h-23.84c-13.58 0-24.032.125-24.287.289-.374.241-.411 1.802-.226 9.6.212 8.954.257 9.44 1.152 12.672 1.72 6.2 2.241 10.662 2.238 19.127-.002 4.474-.2 9.433-.48 12.073-.595 5.604-.619 8.924-.066 9.383.469.388 3.973 1.01 5.714 1.014.659 0 1.481-.254 1.895-.589.712-.577.737-.79.987-8.72.318-10.094.75-16.174 1.586-22.276 1.354-9.893 2.225-17.77 1.99-18.012-.085-.088-1.115-.232-2.289-.32-1.911-.143-2.145-.235-2.236-.88-.117-.823.906-1.358 2.603-1.362.56 0 1.44-.221 1.954-.49.64-.333 1.038-.383 1.264-.157.2.2 2.442.33 5.693.33h5.363l.35-1.3c.29-1.075.472-1.283 1.053-1.2.48.068.816.453 1.063 1.22l.362 1.12 3.714.09c3.29.08 4.251-.036 8.438-1.01 5.791-1.346 11.535-2.307 16.405-2.743 5.635-.505 59.89-.592 65.44-.105 2.464.216 8.288.55 12.941.741 4.654.192 8.722.488 9.04.659.764.408.736 1.14-.058 1.566-1.028.55-14.76.552-20.643.004-3.845-.359-9.743-.478-23.68-.48-10.208 0-18.818.103-19.134.233-.433.177-.5.374-.273.8.59 1.103 1.095 12.583 1.089 24.725-.004 8.82.097 12.387.356 12.555.59.383 5.417.24 11.328-.337l5.526-.538.144-13.44c.2-18.76.42-20.96 2.083-20.96 1.356 0 1.417.485 1.693 13.403.145 6.796.215 14.262.156 16.59-.084 3.348-.016 4.267.328 4.4.714.273 6.361.128 10.303-.266l3.68-.367.196-5.28c.405-10.923.327-14.802-.368-18.31-.358-1.81-.739-4.535-.845-6.055-.184-2.644-.162-2.774.508-2.986 1.428-.454 1.899.606 3.408 7.67.731 3.423.852 4.967 1.11 14.213.16 5.706.423 10.506.585 10.668.461.462 20.21.168 21.05-.313.61-.35.7-.747.841-3.68.142-2.938.444-5.414 1.515-12.408.175-1.144.605-4.96.954-8.48.735-7.398 1.228-10.274 1.852-10.79.631-.525 1.102.29.872 1.51-.1.528-.319 4.056-.488 7.84s-.686 10.264-1.147 14.4c-.564 5.055-.789 8.479-.687 10.446.158 3.052-.134 4.353-1.168 5.211-.478.397-.665.389-1.44-.07-.791-.467-1.594-.493-7.259-.238-3.503.158-13.425.379-22.049.49s-17.192.35-19.04.53c-4.044.393-14.312.955-16.32.893-8.562-.263-22.953-.006-28.16.504-4.646.455-9.466.6-22.4.677l-16.48.097v10.1l6.08.082c12.271.164 31.098.015 33.12-.263 1.144-.157 4.6-.293 7.68-.303 3.08-.009 6.608-.163 7.84-.341 1.232-.179 6.056-.45 10.72-.602 4.664-.152 9.272-.428 10.24-.613s6.296-.41 11.84-.503c10.135-.168 10.37-.189 19.36-1.758 3.179-.554 12.921-.4 17.12.271 4.285.685 4.8.86 4.8 1.63 0 .768-.84 1.044-2.049.675-4.14-1.267-18.437-1.295-23.484-.045-1.752.433-2.924.88-2.855 1.087.064.193 1.186.61 2.493.928 2.586.627 18.044 1.393 21.479 1.064 1.395-.134 1.94-.059 2.32.321.273.273.496.63.496.793 0 .398.853.377 1.632-.04zm28.032-5.274c-.669-.245-1.638-.361-2.155-.258-.872.174-.984.082-1.584-1.318-.384-.897-.645-2.212-.645-3.253v-1.747l-1.187.094c-1.02.08-1.248-.03-1.612-.775-.234-.478-.45-1.558-.48-2.4-.047-1.283.123-1.78 1.047-3.07l1.102-1.539.17-5.981c.109-3.863.309-6.229.564-6.68.218-.385.395-1.537.395-2.56-.001-1.024.242-2.542.54-3.374s.465-1.59.37-1.684c-.093-.095-.674.039-1.29.296-1.268.53-2.499.343-2.499-.379 0-.806 2.179-2.6 3.613-2.975.741-.193 2.678-1.013 4.306-1.82 3.443-1.71 4.213-1.639 4.897.453.22.672 1.09 2.672 1.934 4.444l1.535 3.223.404 22.355-.824 1.536c-.554 1.033-.825 2.035-.825 3.054 0 1.362-.138 1.651-1.36 2.844-2.088 2.04-3.851 2.455-6.416 1.514zm-37.92-22.613c-.623-.622-.442-1.827.402-2.67 1.92-1.922 3.77.052 2.07 2.211-.7.891-1.83 1.1-2.472.46zm-44.088-4.567c-.408-.623-.496-1.414-.408-3.673.096-2.455.216-2.983.818-3.585.605-.604.823-.653 1.512-.34.442.203.896.734 1.009 1.181.136.544.484.87 1.048.986 2.752.56 3.275.824 3.799 1.922.388.815.448 1.329.227 1.95-.51 1.433-1.631 1.949-4.693 2.16-2.716.188-2.806.171-3.312-.601zm43.44-10.83c-.986-1.05-.865-2.188.411-3.86a45.905 45.905 0 001.92-2.736c1.081-1.714 2.162-2.42 3.01-1.966 1.227.657 1.105 1.437-.787 5.04-2.374 4.522-3.093 5.078-4.554 3.523zm-106.41 28.096c.983-.215 1.025-.879 1.268-19.628.179-13.836.142-16.478-.231-16.715-.729-.462-10.388-.364-10.761.109-.174.22-.411 3.044-.527 6.275s-.498 8.704-.848 12.16c-.8 7.89-1.186 17.62-.711 17.914.37.23 10.693.129 11.811-.115zm-8.395-5.112c-.95-1.449.077-3.363 1.803-3.363 1.756 0 2.437 2.302 1.081 3.658-.788.789-2.274.636-2.884-.295zm-.116-12.306c-.783-.783-.842-1.849-.158-2.825.604-.863 1.772-.922 2.492-.126 1.55 1.712-.713 4.572-2.334 2.95zm22.51 16.99c2.905-.158 3.865-.32 4.056-.687.137-.264.406-5.376.597-11.36.45-14.099.894-18.2 1.814-16.761.156.243.4 6.561.542 14.041.233 12.22.315 13.642.802 14.014.299.228.83.344 1.183.258.352-.085 3.088-.323 6.08-.527 2.992-.204 5.552-.476 5.689-.604s.294-5.476.349-11.887c.086-10.137.196-12.342.846-16.935.411-2.904.758-6.216.772-7.36l.024-2.08-2.56.091c-1.408.05-3.352.22-4.32.377-2.89.468-13.158 2.277-14.88 2.62-.88.176-3.713.417-6.295.536-2.582.119-4.814.336-4.96.483-.373.374-.675 35.84-.307 36.1.28.199 2.09.144 10.568-.319zm9.94-4.672c-1.623-1.622-.517-4.975 1.64-4.975 1.731 0 2.402 3.52.948 4.975-.432.432-1.014.785-1.294.785s-.863-.353-1.295-.785zm.063-10.04c-1.033-1.142-.248-2.935 1.286-2.935.804 0 1.705.959 1.705 1.815 0 1.466-2 2.215-2.99 1.12zm-15.442-2.752c-1.077-.47-1.408-1.032-1.408-2.4 0-1.625.867-2.044 5.76-2.785 3.074-.466 3.583 4.248.571 5.298-1.339.467-3.716.412-4.923-.113zm15.872-5.943c-.784-.784-.805-1.383-.09-2.591.733-1.241 1.599-1.483 2.409-.673.816.817.551 2.69-.483 3.415-.901.631-1.067.617-1.836-.151zm.503-8.823c-.617-.618-.625-.893-.056-1.994.732-1.415 1.662-2.085 2.575-1.856 1.657.415 1.322 2.95-.515 3.9-1.112.575-1.386.568-2.004-.05zm27.845 30.338c.388-.262 1.424-15.176 1.417-20.394-.007-5.307.678-15.288 1.124-16.375.23-.558.333-1.098.23-1.2-.31-.31-16.027-.21-16.22.104-.59.953-1.439 30.973-.932 32.913.095.362.465.734.822.827.59.155.63.333.428 1.944-.122.976-.131 1.92-.02 2.1.232.377 12.6.452 13.15.08zm-107.85-53.923c.086-.225-.032-1.629-.262-3.12-.396-2.56-.466-2.717-1.256-2.81-2.231-.262-2.6 4.42-.452 5.73 1.161.708 1.752.768 1.97.2zm106.51-2.157c-.443-.443-5.562-.825-5.562-.416 0 .63.476.741 3.157.741 1.851 0 2.626-.105 2.405-.325zm-103-2.383c.89-.32 2.06-.41 3.84-.297 1.495.095 2.759.027 3.037-.163.988-.674-.258-1.05-4.06-1.225-4.257-.196-5.217.055-5.217 1.364 0 .927.516.996 2.4.32zm176.1-4.092c-.097-.684-.286-.73-3.782-.939-4.337-.258-7.886-.696-11.2-1.384-1.32-.274-4.776-.626-7.68-.782-4.009-.215-5.721-.444-7.112-.95-2.555-.928-6.691-.942-7.608-.025-.716.716-.853 2.314-.24 2.798.238.188 6.015.41 14.32.547 10.607.177 14.872.368 17.92.8 5.58.795 5.504.795 5.382-.065zm-42.7-1.539c.506-.462-.085-1.27-1.075-1.467-1.01-.202-1.228-.685-.594-1.32.284-.284.234-.68-.21-1.668l-.585-1.294-1.539.204c-1.364.18-1.717.09-3.097-.796-.857-.55-1.745-1-1.973-1-.228 0-.891-.295-1.474-.655-.965-.596-8.662-2.206-10.611-2.22-.492-.004-.972.4-1.531 1.286-.449.71-1.11 1.585-1.47 1.945-.387.387-.572.865-.454 1.171.109.285.36 1.606.558 2.936.473 3.176.615 3.334 2.803 3.12.973-.095 2.345-.059 3.05.08 1.601.315 17.817.029 18.201-.322zm-28.418-.7c-.62-3.09-.78-4.5-.8-7.04-.019-2.17-.125-2.8-.47-2.8-.587 0-.834.706-.834 2.39 0 .758-.29 2.783-.642 4.499-.753 3.658-.627 3.99 1.517 3.99h1.437zm29.957-5.364c.75-2.803.723-3.158-.263-3.533-1.218-.463-2.141-.093-1.916.767.1.38.024 1.123-.167 1.652-.274.758-.239 1.224.163 2.185.77 1.841 1.5 1.483 2.183-1.07zm-9.198-4.184c-.103-.167-.323-.219-.49-.116s-.219.324-.116.49.324.22.49.116.22-.323.116-.49zm-7.663-.613c-.109-.176-.333-.32-.499-.32s-.3.144-.3.32.224.32.498.32.41-.144.301-.32zm5.448-4.286c.784-.573 1.059-3.418 1.09-11.292.014-3.81.241-7.509.656-10.72.896-6.924 1.28-16.79 1.283-32.995.003-14.453.094-16.03 1.513-26.307.954-6.906.93-5.227.572-40.48-.206-20.327-.173-23.046.33-27.473.47-4.138.489-4.956.12-5.184-1.504-.93-9.657-1.845-12.861-1.445-2.887.36-2.828.208-2.318 5.943.243 2.728.61 5.392.817 5.92.262.669.468 7.312.68 21.92.167 11.528.381 22.59.476 24.583.12 2.54.024 4.453-.323 6.4-.271 1.527-.647 4.72-.834 7.096s-.553 7.063-.814 10.415c-.321 4.116-.475 10.69-.475 20.243 0 12.054.083 14.61.558 17.265.478 2.67.559 5.252.56 17.997.002 13.53-.05 14.993-.562 16.13-.31.686-.494 1.32-.407 1.406.087.087 1.547.275 3.245.419 1.698.143 3.165.338 3.26.433.354.354 2.846.156 3.433-.274zm4.224-6.914c.142-3.654-.229-5.89-.87-5.25-.232.232-.494 10.151-.304 11.49.025.176.267-.328.538-1.12.28-.82.554-3.024.636-5.12zm-153.95-85.936c3.142-.625 6.29-1.277 6.993-1.45 2.77-.682 10.748-4.503 13.38-6.408.702-.51 1.466-.926 1.697-.926s1.326-.834 2.432-1.853c1.106-1.02 2.79-2.463 3.742-3.207.952-.744 2.896-2.6 4.32-4.124 2.594-2.774 5.82-5.163 8.512-6.305 3.837-1.625 4.862-2.176 7.778-4.179 1.728-1.186 3.08-2.219 3.003-2.294-.075-.076-1.057.206-2.18.626-1.124.42-3.123 1.166-4.443 1.656-1.43.531-4.212 2.087-6.88 3.848-2.464 1.627-4.984 3.209-5.6 3.516-2.904 1.45-7.211 4.234-9.947 6.43-3.15 2.529-5.39 3.823-8.216 4.748-.925.304-3.95 1.697-6.72 3.096-2.77 1.4-6.358 3.126-7.972 3.837-3.6 1.586-5.865 2.991-5.865 3.638 0 .268.057.487.126.487.07 0 2.698-.51 5.84-1.136zm-16.542-.493c3.392-1.106 4.57-1.68 7.59-3.703 1.98-1.324 4.922-2.945 6.59-3.63 1.659-.68 4.442-2.009 6.185-2.954 3.929-2.13 4.764-2.518 8.5-3.955 3.106-1.194 3.777-1.615 7.41-4.655 2.393-2.002 5.019-3.637 9.18-5.714 1.496-.747 4.483-2.57 6.638-4.053 3.456-2.376 4.684-2.998 10.4-5.263 3.565-1.413 8.282-3.344 10.482-4.29 5.08-2.186 11.717-4.727 15.876-6.077 3.193-1.036 4.377-1.54 10.364-4.411 1.672-.802 3.966-1.696 5.098-1.986 2.066-.529 4.59-1.66 6.129-2.744.454-.32 1.579-.88 2.5-1.242 4.18-1.648 13.602-7.978 18.12-12.173 1.8-1.672 4.3-3.832 5.556-4.8 1.255-.968 2.367-2.078 2.47-2.467.234-.87-.607-2.15-3.044-4.64-2.242-2.292-5.378-5.61-6.428-6.801-1.33-1.51-7.3-5.554-10.961-7.428-1.896-.97-6-3.447-9.123-5.506-8.01-5.282-9.302-5.945-14.044-7.21-2.262-.604-5.192-1.523-6.512-2.043s-3.437-1.333-4.705-1.807c-1.403-.525-3.408-1.678-5.12-2.945a148.854 148.854 0 00-5.535-3.872c-1.496-.985-3.42-2.413-4.275-3.176-.855-.762-2.511-1.826-3.68-2.364-3.258-1.5-3.735-1.787-8.365-5.053-10.405-7.339-10.61-7.503-17.031-13.688-2.781-2.679-3.963-3.57-6.24-4.708-1.545-.771-3.385-1.586-4.089-1.809-.704-.223-1.432-.526-1.618-.672-.186-.147-1.98-.926-3.987-1.733C80 81.046 74.084 76.741 70.403 72.084c-.792-1.002-2.054-2.158-2.804-2.568-.75-.41-1.444-1-1.543-1.312-.099-.31-.781-.88-1.517-1.267-1.095-.575-2.008-.724-5.064-.827-3.71-.125-3.738-.12-6.28 1.027-1.404.634-2.823 1.156-3.153 1.16-1.048.012-3.253 1.19-3.677 1.966-.323.59-.393 5.354-.333 22.667.076 21.85.267 27.122 1.244 34.4.386 2.88.542 7.274.625 17.572.074 9.188.224 13.87.455 14.148.222.267 1.334.448 3.112.507 2.414.08 2.782.17 2.883.694.176.923-.508 1.148-3.51 1.153-1.817.003-2.874.142-3.093.407-.383.46-.913 4.21-1.188 8.398-.104 1.584-.054 5.616.112 8.96.24 4.819.475 6.744 1.136 9.28 1.21 4.636 1.454 7.159 1.786 18.4.164 5.544.52 11.736.79 13.76s.5 4.328.507 5.12c.047 4.79 2.6 8.636 5.736 8.64.608 0 2.912-.589 5.12-1.309zm38.579-70.913c-.702-.08-1.458-.296-1.68-.48-.602-.5-.489-1.47.215-1.846.917-.492 12.773-.428 13.756.073 1.11.567 1.151 1.071.14 1.735-.755.494-1.647.587-6.02.622-2.825.023-5.71-.024-6.411-.104zm-28.026-.605c-.305-.367-.329-.653-.084-1.04.293-.465 1.074-.533 6.186-.533s5.893.068 6.187.533c.244.387.22.673-.085 1.04-.627.756-11.577.756-12.205 0zm106.02.026c-1.614-1.155-.498-2.188 3.494-3.235 1.768-.463 3.639-.746 4.586-.693 1.542.086 1.603.126 1.699 1.108.12 1.25-.343 1.541-3.741 2.347-4.056.962-5.226 1.054-6.038.473zm-23.047-.042c-.532-.228-1.353-1.831-1.353-2.64 0-.956.952-1.111 6.383-1.043 4.06.052 5.047.156 5.52.584.692.626.743 1.672.123 2.521-.41.563-.916.627-5.36.687-2.699.036-5.09-.013-5.313-.109zm-22.953-.451a27.618 27.618 0 00-3.07-.278c-2.103-.04-3.3-1.55-2.052-2.586 1.022-.849 9.669-.155 10.796.866.656.593.73 1.4.181 1.948-.423.424-3.297.448-5.856.05zM43.1 193.448c-.107-1.387-.56-4.143-1.008-6.123-.447-1.981-.816-4.555-.82-5.719-.01-2.39-.401-4.42-.958-4.956-.493-.475-.211 5.888.431 9.72.391 2.33 1.477 7.205 2.014 9.04.372 1.272.523.403.34-1.962zm202.34-26.01c2.376-.198 4.5-.5 4.72-.673.285-.224.4-1.565.398-4.675-.002-3.814-.082-4.481-.638-5.32-.808-1.22-.808-2.102 0-3.128.84-1.069.807-1.62-.16-2.663-.44-.475-.8-.886-.8-.914 0-.028.36-.54.8-1.136.972-1.318 1.16-4.273.294-4.606-.75-.287-14.308-.226-14.77.068-.35.222-1.044 2.942-1.044 4.09 0 .233.56.574 1.243.758 3.17.854 2.87 3.035-1.204 8.793-.99 1.398-2.231 3.333-2.76 4.3-1.022 1.873-2.07 2.51-3.527 2.144-1.448-.364-1.751-1.592-1.759-7.13-.006-4.668-.071-5.23-.847-7.297-.462-1.232-.905-2.996-.983-3.92l-.142-1.68-7.01-.062c-3.856-.034-7.475-.07-8.042-.08l-1.03-.018.12 5.44c.066 2.992.134 7.49.15 9.994l.03 4.554 1.198 1.198c1.106 1.106 1.268 1.17 2.14.841.737-.279 1.08-.259 1.579.09.784.55.815.55 7.884.266 4.696-.189 6.262-.136 8.48.285 1.496.285 3.08.561 3.52.615 2.106.256 8.275.188 12.16-.134zm-46.742-.417c.498-.258 1.438-1.21 2.09-2.117.651-.907 1.46-1.72 1.798-1.809.64-.167.874-1.366.266-1.366-.191 0-1.487 1.183-2.88 2.629-2.977 3.091-3.265 3.692-1.274 2.663zm-152.91-2.383c.482-1.608.175-2.909-.685-2.909-.355 0-.727.214-.827.476-.23.6.491 3.684.862 3.684.151 0 .444-.563.65-1.25zm.28-5.448c.42-.784.441-27.216.025-31.06-1.004-9.279-1.303-12.342-1.48-15.153-.234-3.703-.652-3.712-1.103-.023-.76 6.214-.646 45.217.136 46.482.381.616 2.051.446 2.421-.246zm153.11-9.965c-.307-.339-.68-.616-.829-.616-.498 0-.277.752.45 1.528.609.65.737.686.828.236.06-.292-.143-.809-.45-1.148zm30.45-3.335c.27-1.081-.038-1.76-.8-1.76-.888 0-.996.332-.496 1.522.522 1.24 1.02 1.332 1.295.238zm23.811-.98c0-.86-.553-1.058-.844-.3-.246.64.117 1.53.522 1.28.177-.109.322-.55.322-.98zm-57.948-.374c-.349-.92-.825-1.354-1.492-1.362-.61-.007-.481.454.385 1.388 1.043 1.126 1.54 1.114 1.107-.026zm-5.452-1.579c-2.45-2.966-7.662-6.888-12.28-9.241-1.935-.987-3.951-2.057-4.48-2.38-.967-.59-4.055-1.607-4.882-1.607-1.196 0 6.76 5.31 12.295 8.207 2.259 1.182 5.241 2.915 6.628 3.85 2.55 1.724 3.519 2.14 2.718 1.171zm63.174-4.428c-.231-2.215-.606-3.2-1.22-3.2-.412 0-.585.168-.495.48.077.264.2 1.172.272 2.018.118 1.358.214 1.527.821 1.44.471-.067.667-.3.622-.738zm-140.6-40.067c-.588-.491-1.866-1.59-2.84-2.442-2.401-2.099-3.205-2.527-2.206-1.176.807 1.092 5.698 4.926 5.956 4.668.086-.086-.323-.559-.91-1.05zM44.528 80.677l-.285-1.028-.364.907c-.37.923-.264 9.402.2 15.892.18 2.543.258 1.585.475-5.851.148-5.106.137-9.33-.027-9.92zm42.488-1.054c-.427-.454-2.288-1.625-4.136-2.602-1.849-.978-4.26-2.27-5.36-2.87-1.1-.602-2-.95-2-.774 0 .413 1.975 2.268 2.417 2.27.186.001 1.395.746 2.687 1.656 2.363 1.665 5.409 3.124 6.551 3.138.566.007.552-.06-.16-.818zm-6.69-6.842c-.368-.688-2.716-2.401-3.913-2.857-.415-.158-1.454-.82-2.308-1.472-2.565-1.958-3.47-2.401-4.906-2.402-2.52-.002-2.26.205 6 4.765 4.935 2.725 5.687 3.014 5.127 1.966zM27.339 449.42c-.804-.326-3.69-3.62-4.421-5.048-.292-.57-1.408-3.666-2.48-6.88-2.07-6.209-2.403-6.995-3.844-9.102-.955-1.397-1.138-2.167-.593-2.504.919-.568 3.626 2.664 5.766 6.881l1.055 2.08.326-.96c.209-.615.291-6.421.23-16.16-.054-8.36-.111-27.872-.128-43.36-.03-27.71-.018-28.23.688-32.64 1.087-6.783 1.585-11.9 2.132-21.92.274-5.016.78-12 1.126-15.52.553-5.64.629-8.983.638-28.16.012-23.607.285-31.589 1.28-37.413.567-3.314.643-5.17.633-15.339-.012-11.808-.672-29.552-1.23-33.008-.17-1.056-.404-3.576-.52-5.6-.135-2.358-.373-3.903-.662-4.297-.537-.736-.49-.786-1.34 1.417-.374.968-1.058 2.671-1.52 3.784s-1.108 3.402-1.434 5.086c-.675 3.486-1.25 4.237-2.38 3.108-.77-.77-.618-3.36.43-7.345.51-1.94 1.178-5.108 1.485-7.04.756-4.762 1.008-5.727 1.727-6.602.499-.608.726-.684 1.196-.401.319.192.759.714.978 1.159.648 1.32 1.166 1.607 2.116 1.174.905-.412 1.806.024 1.806.873 0 .24.692 1.202 1.538 2.136 1.915 2.115 3.715 5.758 4.744 9.602.861 3.219.803 4.227-.263 4.566-1.047.332-1.669-.675-2.316-3.75-.64-3.042-2.307-6.99-2.95-6.99-.532 0-.599-.563.514 4.373.522 2.312 1.35 5.024 1.84 6.028l.893 1.826-1.056.883-1.056.884.118 4.923c.065 2.708.317 11.155.56 18.771.465 14.586.49 13.954-.888 22.312-.46 2.788-.533 6.845-.568 31.52-.028 19.352-.156 29.03-.403 30.56-.353 2.182-.694 7.254-1.345 20-.176 3.432-.756 9.552-1.29 13.6-1.703 12.916-1.666 11.791-1.434 43.021.407 54.793.347 59.21-.83 60.886-.335.477-.608 1.142-.608 1.477 0 .64 1.142 2.296 1.583 2.296.141 0 .718-1.332 1.283-2.96s1.509-4.04 2.099-5.36c.59-1.32 1.315-3.369 1.61-4.553.828-3.308 2.668-4.777 3.807-3.038.631.962.275 2.287-2.468 9.191-2.33 5.866-3.434 9.005-3.434 9.765 0 .529-1.387 2.09-1.826 2.055-.14-.011-.551-.14-.914-.288zm-1.1-270.41c0-.176-.153-.32-.34-.32s-.249.144-.14.32c.109.176.261.32.339.32.077 0 .14-.144.14-.32zm22.208 141.84c-1.045-.722-1.425-3.021-.67-4.054.417-.57 2.388-1.157 4.222-1.257.803-.044.975.078 1.052.748.156 1.346-.714 3.312-1.724 3.897-1.189.69-2.43.976-2.88.666zm21.305-.253c-.72-.868-.18-5.136.953-7.53.794-1.68.975-2.475.979-4.3.007-2.993.445-3.817 2.086-3.92.698-.043 2.317-.167 3.597-.276l2.328-.198 1.123 1.192c.618.655 1.41 1.751 1.76 2.436.349.685.765 1.246.925 1.246.16 0 .596-.396.97-.88 1.305-1.688 2.892-2.64 4.399-2.64 1.25 0 1.566.168 2.997 1.599 2.297 2.296 3.163 4.339 3.167 7.462.003 2.736-.335 3.739-1.265 3.739-1.217 0-1.611-.855-1.611-3.491 0-2.394-.048-2.552-1.298-4.297-.739-1.032-1.542-1.812-1.864-1.812-1.202 0-3.204 3.333-4.472 7.443-.938 3.04-1.198 3.437-2.248 3.437-1.847 0-2.465-2.005-1.478-4.8.647-1.836.604-3.508-.143-5.473-.823-2.165-1.482-2.847-2.749-2.847-1.311 0-2.936 1.58-3.228 3.141-.115.61-.123 2.208-.02 3.553.226 2.924-.134 3.87-1.616 4.254-.77.199-1.084.492-1.222 1.14-.478 2.238-1.199 2.872-2.07 1.823zm-13.64-.148c-.884-.357-1.16-.822-.927-1.557.285-.899 1.58-1.326 4.023-1.326 2.438 0 4.624-.69 5.12-1.617.505-.943.357-2.402-.304-3-.498-.451-1.031-.529-2.8-.409-1.202.081-2.863.332-3.69.558-1.225.333-1.6.333-2 0-.742-.615-.597-1.53.338-2.142 1.165-.764 2.194-2.512 2.985-5.073l.676-2.187-.817-.853c-.923-.964-.805-1.842.278-2.06.377-.076 1.822-.226 3.212-.335 1.389-.108 3.117-.402 3.84-.654 1.608-.56 3.453-.6 3.97-.083.548.549.473 1.702-.145 2.216-.598.498-4.032 1.174-6.192 1.22-.792.016-1.6.135-1.795.265-.292.192-.937 2.828-1.188 4.85-.04.322.554.556 2.047.806 3.333.557 4.563 1.737 4.98 4.773.369 2.692-1.108 4.924-4.183 6.32-1.404.638-6.109.82-7.428.288zm-19.454-2.633c-.275-.391-.5-.941-.5-1.222 0-.575 1.625-3.746 5.56-10.85 1.48-2.67 3.227-6.14 3.885-7.708 1.237-2.949 1.95-3.638 2.928-2.827.703.584.386 2.816-.744 5.237-.86 1.841-.903 2.174-1.062 8.108-.162 6.023-.186 6.205-.922 6.8-.936.758-1.072.759-2.002.005l-.75-.606.73-1.459c.584-1.17.709-1.883.633-3.608-.104-2.35-.53-2.865-1.23-1.487a39.228 39.228 0 01-1.125 2.007c-1.46 2.424-3.264 5.964-3.46 6.79-.115.48-.485 1.02-.825 1.202-.497.266-.715.191-1.116-.382zm255.34-108.41c-.38-.614.179-1.5 1.58-2.507.773-.555 1.563-1.01 1.754-1.01.444 0 .38.378.63-3.736.205-3.404.269-3.652 1.314-5.12.605-.85 1.512-1.962 2.016-2.473.504-.51 1.422-1.966 2.041-3.234.619-1.269 1.505-2.723 1.969-3.232 5.354-5.87 10.042-10.583 11.717-11.779 1.13-.806 2.137-1.466 2.237-1.466.1 0 .183.434.183.964 0 .816-.264 1.133-1.714 2.06-1.61 1.03-8.015 7.55-9.245 9.41-.307.465-.933 1.821-1.39 3.013-.652 1.696-1.168 2.45-2.38 3.471-2.216 1.87-2.55 2.938-2.55 8.14 0 4.866-.153 5.313-2.356 6.909-1.092.79-1.552.913-3.434.913-1.195 0-2.263-.145-2.373-.323zm-10.715-4.263c-2.456-.639-1.979-2.393 1.055-3.877 1.562-.765 1.944-.823 4.12-.634l2.399.21.398-1.557c.88-3.438 2.423-7.493 4.181-10.99 1.02-2.027 1.959-4.046 2.087-4.486 1.77-6.074 9.327-12.646 15.274-13.283 3.945-.422 4.798.433 2.502 2.508-1.331 1.203-1.982 1.387-5.62 1.593-3.95.223-5.808 1.72-7.592 6.115-.506 1.247-1.69 3.78-2.63 5.627-1.905 3.747-3.37 7.938-4.35 12.443-.358 1.652-.836 3.267-1.062 3.59-.721 1.03-2.804 2.508-4.004 2.84-1.52.423-4.948.373-6.758-.099zm-253.06-44.07c-.405-.162-2.133-.512-3.84-.777-1.708-.266-4.113-.736-5.345-1.045-1.872-.47-2.256-.68-2.342-1.281-.186-1.31 1.044-1.442 6.722-.723 2.811.356 5.424.809 5.806 1.006 1.827.943 2.36 2.202 1.195 2.825-.735.393-1.207.392-2.196-.004zm269.37-20.645c-.52-1.369-.355-2.547.542-3.854 1.034-1.508 1.313-3.842.742-6.221-.558-2.326-2.764-5.456-5.965-8.464l-2.725-2.56.033-5.047c.039-6.06.297-6.903 2.816-9.205 2.4-2.195 2.935-1.964 1.88.812-.348.914-.491 2.55-.501 5.712l-.014 4.432 2.645 2.608c2.952 2.91 5.067 5.836 5.816 8.043.312.918.499 2.595.499 4.478 0 1.655.138 3.095.307 3.2.169.104.744-.572 1.277-1.502 1.394-2.43 1.337-4.109-.234-6.9-1.43-2.538-3.031-6.563-3.595-9.03-.436-1.907-1.071-3.312-2.56-5.659-.824-1.3-.955-1.812-.955-3.727 0-1.663.16-2.48.642-3.258.71-1.15 4.974-4.709 5.705-4.762.959-.071.678.75-.73 2.14-1.406 1.385-1.457 1.502-1.457 3.345 0 1.502.168 2.16.787 3.07 1.567 2.31 2.309 3.936 2.87 6.29.683 2.87 2.026 6.144 3.55 8.651.976 1.607 1.113 2.096 1.113 3.962 0 1.806-.17 2.456-1.114 4.278-.612 1.182-1.19 2.543-1.284 3.024-.268 1.365-1.985 3.125-3.049 3.125-.495 0-.978-.18-1.074-.4-.117-.266-.36-.133-.73.4-1.068 1.537-3.632 3.84-4.276 3.84-.402 0-.768-.312-.961-.82zm-91.363-29.395c-1.111-2.66-1.788-9.44-1.118-11.204.352-.924 1.308-1.088 1.936-.331.634.765 1.409 9.94.964 11.43-.449 1.508-1.178 1.55-1.782.105zm58.137-14.1c-1.224-1.105-1.24-1.11-1.81-.48-.392.433-.985.636-1.856.636-1.484 0-2.26-.526-6.273-4.248-1.48-1.374-2.9-2.456-3.153-2.405-.543.11-1.674 2.917-1.675 4.156 0 .474-.347 1.266-.772 1.76l-.772.897h-4.762c-7.175 0-7.03.206-6.696-9.573.166-4.853.112-6.5-.263-8.027-.674-2.74-.627-4.1.164-4.817 1.107-1.002 2.363.248 3.555 3.537.586 1.617.718 2.804.835 7.52.077 3.092.285 5.78.464 6 .199.244 1.12.4 2.36.4 1.915 0 2.047-.048 2.24-.817.239-.95.004-3.08-.747-6.78-.526-2.588-.524-2.652.124-3.52.992-1.328 2.599-1.242 3.464.185 1.096 1.81 4.365 5.168 6.947 7.136 1.354 1.032 2.614 1.876 2.8 1.876.228 0 .34-2.29.34-7.015V76.34l.828-.985c1-1.19 1.819-1.246 2.866-.2.672.673.785 1.085.785 2.862 0 1.142.135 2.16.3 2.261.165.102.762-.501 1.327-1.341 1.854-2.758 2.84-3.607 4.189-3.607 1.522 0 2.033.731 2.342 3.349.274 2.318 1.296 5.74 1.843 6.166.27.21 1.804-.041 4.72-.774 4.7-1.183 5.446-1.139 6.13.362.289.635.255.95-.169 1.598-.742 1.132-2.034 1.719-5.41 2.456-4.135.902-4.484 1.29-2.636 2.926 2.007 1.777 1.751 4.388-.478 4.878-1.594.35-3.04-.796-4.172-3.307-.344-.763-.795-1.33-1.002-1.261-.208.069-.86 1.269-1.45 2.666-1.05 2.49-1.962 3.661-2.848 3.661-.244 0-1-.502-1.679-1.115zm4.082-10.599c.312-1.13-.079-3.325-.593-3.325-.686 0-1.359 4.31-.765 4.904.357.358 1.043-.44 1.358-1.579zm-64.937 2.894c-.41-1.075-.403-6.899.008-7.98.234-.615.51-.816 1.018-.741.903.132 1.189 1.214 1.297 4.915.068 2.331-.026 3.062-.483 3.76-.714 1.09-1.437 1.108-1.84.046zm.967-19.66c-.188-.352-.43-2.262-.536-4.243-.166-3.093-.12-3.664.328-4.035.695-.577 1.424-.252 1.831.818.555 1.46.78 7.04.306 7.611-.569.685-1.521.61-1.929-.15zM41.62 49.59c-.278-.336-.362-2.462-.307-7.76.053-5.076-.042-7.658-.314-8.479-.56-1.692.06-2.677 3.245-5.168 1.453-1.136 3.27-2.736 4.037-3.557 1.812-1.938 3.23-2.826 5.896-3.69 1.713-.556 2.268-.623 2.633-.32.766.635.018 1.476-2.296 2.58-1.702.812-2.942 1.83-6.237 5.12-2.261 2.257-4.112 4.259-4.112 4.447 0 .585 2.617 3.215 3.982 4.003.714.412 2.335 1.054 3.602 1.426 2.639.775 3.849 1.868 3.268 2.952-.183.343-.544.704-.8.803-.762.292-6.222-1.777-8.248-3.126-1.032-.687-2.004-1.25-2.16-1.25s-.284 2.636-.284 5.857c0 5.833-.136 6.624-1.144 6.624-.208 0-.55-.208-.76-.463zm159.93-.259c-.23-.413-.444-2.219-.504-4.24-.113-3.807.236-5.12 1.362-5.12 1.14 0 1.481 1.309 1.356 5.19-.095 2.928-.225 3.708-.706 4.24-.752.83-1.014.818-1.508-.07zm-15.23-9.378c-.91-.636-.914-1.848-.012-2.69.386-.358.8-.652.921-.652s.778-.234 1.46-.52c1.23-.517 1.234-.523.439-.824-.474-.18-13.579-.369-32.16-.462-19.6-.1-32.2-.286-33.6-.498-1.232-.186-8.864-.454-16.96-.594-11.382-.198-15.446-.378-17.92-.796-2.607-.44-6.194-.567-19.359-.689-10.899-.1-16.294-.261-16.575-.495-.654-.542-.321-1.629.574-1.877.44-.121 7.09-.235 14.776-.253 12.012-.027 14.823.06 20 .619 4.937.533 8.218.653 18.184.664 6.688.007 13.24.153 14.56.324s17.495.44 35.945.6c33.287.287 33.556.294 34.954.971l1.41.682.965-.688c1.536-1.093 1.27-1.761-1.195-3.007-1.188-.6-2.72-1.538-3.404-2.084-.684-.546-1.486-.993-1.782-.993-.483 0-2.408-1.26-4.911-3.216-1.197-.935-1.113-2.336.148-2.482 1.08-.125 5.683 2.158 7.636 3.788.796.664 2.459 1.7 3.696 2.302 2.91 1.416 4.168 2.363 4.633 3.488.562 1.356.151 2.344-1.537 3.694-.835.669-2.204 1.817-3.041 2.552-1.478 1.297-5.777 3.635-6.686 3.635-.247 0-.77-.225-1.16-.499zm16.668-11.267c-.209-.136-.515-.605-.681-1.041-.417-1.097-.17-7.953.306-8.528.588-.708 1.66-.367 2.179.694.645 1.32.83 7.082.262 8.16-.433.822-1.394 1.155-2.066.715zm-160.9-2.715c-.075-.22-.43-1.192-.79-2.16-.46-1.24-.652-2.532-.652-4.374 0-3.032.162-3.626.994-3.626.55 0 .606.273.617 2.96.006 1.628.21 3.892.455 5.03s.374 2.184.29 2.32c-.237.383-.76.297-.914-.15zm78.063-3.265c-.432-.432-.785-1.003-.785-1.27s1.485-1.964 3.3-3.774c3.836-3.824 6.943-8.194 6.941-9.76-.003-1.81-1.929-2.131-5.126-.852-2.009.804-1.666 1.401.805 1.401 1.144 0 2.08.134 2.08.298 0 .57-1.77 1.544-3.456 1.902-3.527.749-4.224.384-4.224-2.21 0-1.586.708-2.904 1.96-3.643 2.59-1.53 7.01-2.254 9.042-1.481 1.289.49 1.881 1.735 2.046 4.3.183 2.86-.281 4.03-3.085 7.78-1.08 1.445-1.963 2.827-1.963 3.073 0 .346.548.44 2.427.414 2.281-.031 2.474.02 3.2.865.928 1.078.94 1.224.18 2.162-.525.65-1.066.776-4.88 1.14-6.546.627-7.53.587-8.462-.345zm-29.585-3.218c0-.616 1.511-2.327 6.48-7.339 3.564-3.595 6.739-6.905 7.055-7.357.66-.942 1.244-1.037 1.962-.318.427.426.503 1.561.503 7.456 0 4.981-.109 7.062-.384 7.337-.502.502-1.748.493-2.077-.016-.142-.22-.259-2.403-.259-4.85 0-2.705-.126-4.494-.322-4.561-.178-.061-2.77 2.258-5.76 5.153-4.29 4.153-5.624 5.268-6.318 5.281-.73.014-.88-.12-.88-.786zm69.933.177c-.598-.661-.593-.812.16-4.88.433-2.34.11-3.856-.91-4.247-.284-.11-1.927-.197-3.65-.195-1.75.002-3.133-.13-3.133-.298 0-.717 2.662-1.632 5.22-1.794 2.262-.143 2.76-.077 3.647.484 2.015 1.276 3.413 5.854 2.651 8.683-.671 2.493-2.718 3.647-3.985 2.247zm-49.227.105c-.256-.256.655-2.039 1.042-2.039.161 0 .752-.64 1.313-1.422 1.105-1.538 1.615-1.867 2.415-1.56.407.156.485.524.368 1.74-.177 1.844-.667 2.522-1.822 2.522-.473 0-1.14.211-1.48.47-.654.494-1.498.627-1.836.29zm38.814-.44c-.512-.51-.64-1.066-.64-2.768v-2.128l-1.753-1.754c-1.706-1.706-1.79-1.747-3.12-1.544-2.208.338-2.593 1.065-2.411 4.558.166 3.213-.054 3.957-1.172 3.957-1.45 0-1.607-.633-1.238-5.018.353-4.194.694-5.008 1.712-4.086.76.688 1.434.565 1.844-.336.359-.787.949-.978 2.577-.832.836.075 2.01.731 3.241 1.81.44.385 1.228.9 1.751 1.141 1.181.548 2.047 2.63 2.072 4.983.014 1.366-.11 1.75-.694 2.16-.94.658-1.398.628-2.169-.142z"/></svg>