<?xml version="1.0" standalone="no"?>
<!DOCTYPE svg PUBLIC "-//W3C//DTD SVG 20010904//EN"
 "http://www.w3.org/TR/2001/REC-SVG-20010904/DTD/svg10.dtd">
<svg version="1.0" xmlns="http://www.w3.org/2000/svg"
 width="1089.000000pt" height="1995.000000pt" viewBox="0 0 1089.000000 1995.000000"
 preserveAspectRatio="xMidYMid meet">
<metadata>
Created by potrace 1.16, written by Peter Selinger 2001-2019
</metadata>
<g transform="translate(0.000000,1995.000000) scale(0.100000,-0.100000)"
fill="current" stroke="none">
<path d="M773 19935 c0 -15 12 -20 67 -28 14 -3 -9 -5 -50 -6 -44 -1 -87 -7
-104 -16 -15 -8 -37 -15 -47 -15 -11 0 -22 -7 -25 -15 -4 -8 -14 -15 -24 -15
-10 0 -20 -7 -24 -15 -3 -8 -12 -15 -19 -15 -8 0 -35 -20 -61 -45 -27 -25 -51
-45 -55 -45 -5 0 -16 -9 -26 -20 -10 -11 -22 -20 -28 -20 -18 0 -117 -110
-137 -154 -12 -24 -30 -52 -41 -62 -10 -9 -19 -23 -19 -31 0 -7 -7 -13 -15
-13 -8 0 -15 -6 -15 -14 0 -7 -7 -19 -15 -26 -8 -7 -15 -19 -15 -27 0 -8 -7
-21 -15 -29 -8 -9 -15 -27 -15 -42 0 -15 -7 -36 -15 -46 -8 -11 -15 -26 -15
-34 0 -7 -7 -20 -15 -28 -8 -9 -15 -28 -15 -43 0 -15 -6 -33 -12 -39 -10 -10
-13 -84 -13 -300 0 -255 2 -290 17 -317 10 -16 18 -36 18 -43 0 -7 4 -20 9
-30 5 -9 17 -36 27 -59 11 -24 22 -43 27 -43 4 0 12 -10 17 -22 11 -26 32 -61
41 -68 3 -3 30 -33 58 -68 29 -35 65 -69 79 -75 15 -6 33 -17 40 -24 7 -7 22
-13 33 -13 10 0 19 -4 19 -9 0 -5 12 -12 28 -16 30 -7 86 -34 147 -70 22 -13
54 -24 70 -25 17 0 36 -5 42 -11 7 -7 62 -14 132 -17 67 -3 121 -9 121 -13 0
-5 -7 -9 -15 -9 -8 0 -15 -5 -15 -12 0 -6 -7 -19 -15 -28 -16 -18 -32 -206
-41 -490 -2 -69 -9 -154 -14 -190 -9 -54 -14 -104 -19 -198 -1 -7 -5 -11 -10
-7 -14 8 -95 -12 -99 -24 -2 -6 -10 -11 -18 -11 -8 0 -17 -7 -20 -15 -4 -8
-12 -15 -20 -15 -8 0 -14 -7 -14 -15 0 -8 -7 -15 -15 -15 -8 0 -15 -7 -15 -16
0 -8 -7 -22 -15 -30 -8 -9 -15 -24 -15 -33 0 -10 -7 -24 -15 -31 -8 -7 -15
-22 -15 -34 0 -12 -5 -27 -11 -33 -6 -6 -9 -23 -7 -39 2 -23 9 -30 31 -32 25
-3 40 -22 17 -22 -5 0 -30 -20 -56 -45 -25 -25 -47 -45 -50 -45 -7 0 -44 -39
-44 -47 -1 -5 -14 -19 -30 -33 -17 -13 -30 -28 -30 -33 0 -5 -7 -15 -15 -23
-8 -9 -15 -25 -15 -37 0 -12 -7 -31 -15 -41 -8 -11 -15 -26 -15 -34 0 -7 -7
-20 -15 -28 -8 -9 -15 -26 -15 -39 0 -13 -4 -26 -9 -29 -5 -3 -12 -22 -16 -43
-4 -20 -13 -46 -21 -57 -8 -11 -14 -28 -14 -37 0 -9 -7 -22 -15 -29 -8 -7 -15
-22 -15 -34 0 -11 -7 -30 -15 -40 -8 -11 -15 -37 -15 -59 0 -21 -7 -45 -15
-53 -8 -9 -15 -27 -15 -42 0 -15 -7 -36 -15 -46 -8 -11 -15 -41 -15 -66 0 -25
-6 -52 -13 -58 -9 -10 -12 -64 -12 -201 l0 -188 30 -59 c16 -32 37 -66 46 -75
9 -9 25 -35 35 -58 10 -22 21 -41 26 -41 4 0 8 -4 8 -9 0 -6 13 -30 30 -54 17
-25 30 -47 30 -51 0 -7 49 -61 126 -139 107 -108 155 -147 180 -147 13 0 24
-4 24 -8 0 -5 10 -14 23 -20 12 -7 40 -23 62 -37 24 -14 56 -24 80 -25 22 0
49 -7 59 -15 30 -22 373 -21 424 1 84 36 122 56 122 62 0 4 25 18 55 31 30 14
55 28 55 33 0 4 5 8 10 8 12 0 73 41 78 53 2 4 8 7 12 7 5 0 23 13 39 29 17
16 36 33 43 38 8 4 32 31 53 58 22 28 46 54 52 58 7 4 13 15 13 22 0 8 4 15 9
15 5 0 13 10 17 22 3 12 13 28 20 36 8 7 14 21 14 30 0 9 7 26 15 36 8 11 15
32 15 48 0 15 4 28 9 28 5 0 14 19 20 43 5 23 15 60 20 82 16 57 13 602 -2
609 -9 5 -9 8 1 12 7 3 19 12 26 20 8 8 20 14 26 14 6 0 13 7 16 15 3 8 21 17
40 21 19 3 34 10 34 15 0 5 11 9 24 9 13 0 29 7 36 15 7 8 21 15 32 15 10 0
21 7 24 15 4 8 16 15 29 15 13 0 25 7 29 15 3 8 14 15 24 15 11 0 25 7 32 15
7 8 23 15 35 15 12 0 28 7 35 15 7 8 21 15 32 15 10 0 21 7 24 15 4 8 12 15
19 15 8 0 20 6 27 13 7 6 33 22 58 34 25 12 61 36 80 52 57 50 59 51 65 51 4
0 15 9 66 55 9 8 19 15 24 15 4 0 18 11 31 25 13 14 28 25 34 25 5 0 10 4 10
9 0 5 12 12 27 16 19 4 29 2 35 -9 15 -26 70 -19 116 14 23 17 46 30 52 30 5
0 10 6 10 14 0 8 7 16 15 20 8 3 15 12 15 21 0 8 4 15 8 15 5 0 19 25 33 55
13 30 27 55 30 55 4 0 10 11 13 25 3 13 16 30 29 36 12 7 41 32 65 56 24 23
47 43 52 43 6 0 10 9 10 19 0 11 4 22 9 25 5 3 12 17 15 31 7 26 39 65 54 65
5 0 26 19 46 43 l38 42 -5 -30 c-6 -34 10 -113 28 -135 7 -8 15 -27 19 -42 3
-16 11 -28 16 -28 6 0 10 -4 10 -9 0 -9 54 -74 78 -95 7 -6 22 -19 33 -28 10
-10 21 -18 24 -18 3 0 16 -10 28 -22 29 -30 83 -68 97 -68 5 0 10 -7 10 -15 0
-9 9 -15 25 -15 14 0 28 -7 31 -15 4 -9 19 -15 35 -15 16 0 29 -4 29 -10 0 -5
12 -13 28 -16 15 -4 33 -11 40 -17 7 -6 65 -13 128 -16 l116 -6 -21 -26 c-20
-25 -20 -38 -20 -365 0 -186 5 -359 10 -384 5 -25 12 -126 15 -225 5 -148 4
-178 -7 -167 -18 17 -58 15 -65 -3 -4 -8 -15 -15 -25 -15 -10 0 -19 -7 -19
-15 0 -8 -4 -15 -9 -15 -12 0 -81 -62 -81 -73 0 -4 -7 -15 -15 -23 -8 -9 -15
-24 -15 -33 0 -10 -7 -24 -15 -31 -9 -8 -15 -29 -15 -55 0 -24 -5 -66 -12 -94
-9 -40 -9 -53 2 -66 14 -17 80 -21 80 -5 0 6 9 10 19 10 12 0 20 -7 20 -17 1
-61 20 -186 30 -196 6 -6 11 -22 11 -35 0 -13 6 -36 14 -50 16 -30 42 -122 38
-136 -2 -4 2 -14 8 -21 8 -10 -11 -13 -92 -17 -62 -3 -104 -10 -106 -16 -2 -6
-26 -14 -53 -18 -27 -4 -49 -10 -49 -15 0 -5 -9 -9 -19 -9 -11 0 -26 -7 -35
-15 -8 -8 -19 -15 -23 -15 -5 0 -38 -27 -72 -60 -35 -33 -69 -60 -77 -60 -8 0
-14 -7 -14 -15 0 -8 -4 -15 -9 -15 -5 0 -13 -9 -16 -20 -3 -11 -12 -20 -18
-20 -16 -1 -77 -84 -77 -105 0 -14 -26 -63 -41 -75 -5 -5 -31 -57 -63 -132 -9
-20 -16 -44 -16 -53 0 -9 -7 -23 -15 -31 -8 -9 -15 -25 -15 -37 0 -12 -7 -31
-15 -41 -22 -29 -22 -508 0 -550 8 -15 15 -34 15 -42 0 -42 94 -164 127 -164
7 0 16 -7 19 -15 4 -8 14 -15 24 -15 11 0 21 -4 24 -9 7 -11 83 -51 97 -51 6
0 17 -7 25 -15 9 -8 29 -15 45 -15 16 0 29 -4 29 -9 0 -5 15 -12 33 -16 36 -6
127 -32 172 -47 24 -8 156 -17 264 -18 11 0 11 -3 0 -16 -9 -11 -17 -58 -21
-128 -4 -61 -11 -176 -17 -256 -5 -80 -10 -267 -10 -417 -1 -152 -5 -274 -10
-277 -5 -4 -12 -24 -16 -46 l-7 -40 -26 20 c-17 14 -29 17 -36 10 -5 -5 -19
-10 -31 -10 -11 0 -28 -8 -37 -17 -10 -10 -30 -31 -47 -47 -50 -50 -49 -143 4
-200 14 -15 25 -29 25 -32 0 -2 8 -12 17 -22 10 -10 25 -29 33 -42 8 -12 21
-28 28 -36 6 -7 12 -18 12 -25 0 -7 7 -20 15 -29 8 -9 16 -27 17 -40 3 -22 0
-24 -29 -22 -18 2 -47 -4 -65 -12 -17 -9 -39 -16 -49 -16 -10 0 -21 -5 -24
-11 -8 -11 -107 -59 -124 -59 -6 0 -11 -4 -11 -9 0 -5 -11 -12 -25 -15 -14 -4
-25 -11 -25 -16 0 -6 -7 -10 -15 -10 -9 0 -18 -7 -21 -15 -4 -8 -13 -15 -20
-15 -8 0 -17 -7 -20 -15 -3 -8 -16 -17 -27 -21 -12 -4 -59 -44 -105 -90 -46
-46 -87 -84 -92 -84 -6 0 -10 -6 -10 -14 0 -8 -3 -16 -7 -18 -11 -4 -53 -65
-53 -77 0 -5 -7 -11 -15 -15 -8 -3 -15 -17 -15 -31 0 -14 -4 -25 -10 -25 -5 0
-13 -12 -16 -27 -4 -16 -13 -37 -20 -48 -8 -11 -14 -27 -14 -36 0 -10 -8 -32
-17 -51 -9 -18 -23 -45 -30 -60 -10 -20 -14 -85 -14 -263 0 -202 2 -239 15
-254 9 -10 16 -25 16 -34 0 -9 4 -17 9 -17 4 0 21 -19 37 -42 16 -24 32 -44
37 -46 4 -2 7 -8 7 -13 0 -12 37 -49 50 -49 6 0 10 -7 10 -15 0 -8 7 -15 15
-15 8 0 15 -7 15 -15 0 -8 7 -15 15 -15 8 0 15 -4 15 -10 0 -12 11 -25 109
-124 48 -50 81 -76 96 -76 12 0 47 -13 78 -30 31 -16 65 -30 76 -30 10 0 21
-7 25 -15 3 -8 18 -15 33 -15 15 0 37 -7 47 -15 11 -8 34 -15 51 -15 17 0 37
-6 44 -12 16 -17 371 -18 392 -2 8 6 34 14 59 17 24 3 46 11 48 16 2 6 17 11
33 11 16 0 29 5 29 11 0 5 14 15 30 20 17 6 30 15 30 20 0 5 6 9 14 9 7 0 19
7 26 15 7 8 21 15 31 15 11 0 19 7 19 15 0 8 6 15 13 15 7 0 33 20 59 45 26
25 50 45 54 45 17 0 164 163 171 188 3 15 12 33 20 40 7 7 13 19 13 27 0 7 7
15 15 19 8 3 15 17 15 31 0 14 4 25 9 25 5 0 12 12 16 27 3 15 10 30 13 33 13
10 52 69 52 80 0 5 4 10 8 10 4 0 13 12 20 28 6 15 22 43 34 62 22 33 23 45
23 227 0 140 -3 195 -12 204 -7 7 -13 22 -13 32 0 19 -19 68 -46 119 -8 14
-14 33 -14 41 0 9 -6 17 -12 20 -9 3 -4 11 12 23 13 10 39 33 56 51 18 18 38
33 44 33 16 0 69 31 92 53 10 9 25 17 33 17 8 0 15 5 15 10 0 6 7 10 15 10 8
0 15 7 15 15 0 8 5 15 10 15 12 0 73 41 78 53 2 4 10 7 17 7 8 0 18 6 22 13 4
8 24 22 43 33 48 26 110 72 142 106 15 15 31 28 36 28 5 0 23 15 40 33 69 70
99 95 140 112 23 11 42 22 42 27 0 4 6 8 13 8 8 0 44 29 81 65 37 36 71 65 76
65 6 0 10 7 10 15 0 8 5 15 10 15 15 0 11 -52 -5 -74 -8 -11 -15 -30 -15 -42
0 -13 -4 -26 -10 -29 -5 -3 -10 -40 -10 -80 0 -71 1 -75 24 -81 42 -10 65 1
134 66 65 62 82 93 82 154 0 37 5 60 16 71 14 13 19 14 25 3 5 -7 9 -21 9 -31
0 -10 7 -20 15 -23 8 -4 15 -12 15 -19 0 -20 179 -195 199 -195 5 0 11 -6 14
-13 2 -7 22 -21 43 -32 22 -11 43 -26 47 -32 4 -7 14 -13 21 -13 8 0 27 -7 42
-15 16 -8 36 -15 45 -15 9 0 22 -7 29 -15 8 -9 30 -15 57 -15 24 0 54 -5 66
-12 12 -6 74 -13 137 -15 l115 -3 -3 -62 c-2 -35 -8 -68 -13 -74 -5 -6 -11
-44 -14 -85 -3 -41 -10 -90 -16 -109 -5 -19 -10 -185 -12 -368 -2 -282 -4
-334 -17 -342 -12 -7 -16 -40 -18 -162 -2 -84 -8 -157 -13 -163 -6 -5 -9 -2
-9 8 0 9 -7 17 -15 17 -8 0 -15 5 -15 10 0 23 -85 1 -125 -32 -40 -33 -65 -58
-65 -66 0 -5 -6 -15 -14 -21 -19 -16 1 -79 34 -111 12 -12 70 -136 70 -151 0
-9 6 -22 14 -28 7 -6 16 -42 20 -81 4 -38 11 -72 17 -75 17 -11 10 -45 -10
-45 -11 0 -26 -7 -35 -15 -8 -8 -24 -15 -36 -15 -12 0 -28 -7 -36 -15 -9 -8
-25 -15 -38 -15 -12 0 -31 -7 -42 -15 -10 -8 -29 -15 -40 -15 -12 0 -27 -7
-34 -15 -7 -8 -19 -15 -27 -15 -7 0 -16 -7 -19 -15 -4 -8 -13 -15 -21 -15 -15
0 -42 -22 -124 -101 -26 -26 -53 -49 -58 -50 -21 -8 -130 -104 -130 -116 -1
-7 -5 -13 -10 -13 -5 0 -13 -10 -17 -22 -3 -12 -13 -28 -20 -36 -8 -7 -14 -20
-14 -28 0 -9 -7 -22 -15 -30 -8 -9 -15 -27 -15 -42 0 -15 -7 -36 -15 -46 -8
-11 -15 -37 -15 -58 0 -21 -4 -38 -9 -38 -17 0 -22 -68 -21 -309 0 -200 3
-248 15 -267 8 -13 15 -30 15 -38 0 -18 41 -100 52 -104 4 -2 8 -8 8 -13 0
-11 71 -79 82 -79 4 0 22 -13 40 -30 18 -16 38 -30 45 -30 7 0 13 -7 13 -15 0
-8 6 -15 13 -15 6 0 39 -27 72 -60 33 -33 67 -60 76 -60 9 0 22 -7 29 -15 7
-8 23 -15 36 -15 12 0 25 -4 28 -9 11 -17 87 -51 115 -51 16 0 34 -7 41 -15 7
-8 26 -15 42 -15 16 0 36 -7 44 -15 11 -11 37 -15 90 -15 l75 0 -4 -137 c-3
-76 -9 -167 -15 -203 -6 -36 -12 -147 -15 -247 -2 -101 -7 -186 -10 -190 -4
-3 -7 4 -7 16 0 12 -4 19 -10 16 -6 -3 -13 2 -17 12 -3 10 -12 22 -20 26 -7 4
-13 16 -13 27 0 37 -12 50 -46 50 -19 0 -34 -4 -34 -10 0 -5 -6 -10 -14 -10
-21 0 -77 -39 -104 -72 -18 -22 -23 -40 -23 -84 0 -49 5 -64 43 -122 62 -97
68 -105 74 -122 3 -8 16 -36 28 -61 l23 -46 -37 -17 c-20 -9 -46 -16 -56 -16
-11 0 -29 -7 -40 -15 -10 -8 -29 -15 -40 -15 -12 0 -24 -7 -28 -15 -3 -8 -16
-15 -29 -15 -13 0 -32 -7 -43 -15 -10 -8 -31 -15 -46 -15 -15 0 -33 -6 -40
-13 -7 -8 -26 -17 -41 -21 -15 -3 -27 -11 -27 -16 0 -6 -9 -10 -19 -10 -11 0
-26 -7 -35 -15 -8 -8 -19 -15 -25 -15 -6 0 -20 -8 -30 -18 -32 -28 -45 -38
-63 -45 -10 -3 -18 -11 -18 -17 0 -5 -7 -10 -15 -10 -8 0 -15 -7 -15 -15 0 -8
-7 -15 -15 -15 -8 0 -15 -7 -15 -15 0 -8 -7 -15 -15 -15 -8 0 -15 -4 -15 -10
0 -9 -127 -137 -219 -220 -28 -25 -51 -51 -51 -57 0 -7 -7 -13 -15 -13 -8 0
-15 -7 -15 -15 0 -8 -4 -15 -10 -15 -12 0 -80 -68 -80 -80 0 -6 -7 -10 -15
-10 -8 0 -15 -7 -15 -15 0 -8 -4 -15 -10 -15 -5 0 -13 -12 -16 -27 -4 -15 -13
-34 -21 -41 -7 -7 -13 -22 -13 -33 0 -10 -4 -19 -10 -19 -5 0 -10 -6 -10 -13
0 -7 -9 -29 -20 -50 -11 -20 -20 -44 -20 -52 0 -8 -4 -15 -10 -15 -5 0 -13
-12 -16 -27 -4 -15 -13 -38 -20 -52 -8 -14 -14 -36 -14 -48 0 -12 -4 -24 -9
-27 -5 -4 -12 -24 -16 -47 -4 -22 -13 -53 -21 -67 -8 -15 -14 -52 -15 -82 0
-30 -4 -64 -8 -74 -6 -17 -12 -14 -57 27 -70 66 -83 77 -90 77 -3 0 -12 6 -19
13 -8 6 -20 17 -27 22 -22 18 -159 85 -173 85 -7 0 -18 7 -25 15 -7 8 -24 15
-39 15 -14 0 -35 7 -45 15 -27 21 -149 21 -166 0 -7 -8 -19 -15 -26 -15 -8 0
-14 -7 -14 -15 0 -8 -7 -15 -15 -15 -8 0 -15 -7 -15 -15 0 -8 -7 -15 -15 -15
-8 0 -15 -8 -15 -18 0 -10 -5 -23 -11 -29 -8 -8 -7 -19 4 -42 l15 -31 -315 0
c-268 0 -319 2 -333 15 -14 13 -27 13 -81 4 -35 -6 -100 -14 -144 -18 -125
-10 -202 -68 -220 -162 -4 -24 -3 -39 5 -44 6 -4 188 -5 403 -4 666 6 657 7
702 -16 47 -23 152 -25 166 -4 6 11 13 9 29 -8 11 -12 20 -25 20 -27 0 -3 -19
-25 -42 -48 -55 -55 -132 -146 -136 -161 -2 -7 -8 -22 -15 -35 -8 -18 -8 -26
4 -37 18 -18 99 -9 99 11 0 8 7 14 15 14 9 0 18 6 21 14 3 8 16 17 30 20 13 4
24 11 24 16 0 6 9 10 20 10 11 0 20 5 20 10 0 6 12 16 28 23 15 6 29 14 32 17
3 3 29 17 58 30 28 14 52 28 52 31 0 4 16 10 35 13 19 4 35 11 35 15 0 5 11
12 25 15 14 4 25 11 25 16 0 6 5 10 11 10 7 0 31 16 55 35 23 19 47 35 53 35
6 0 11 7 11 15 0 17 17 20 22 4 2 -5 0 -40 -5 -77 -24 -186 -18 -329 14 -382
5 -8 12 -21 16 -29 3 -8 15 -23 25 -33 10 -10 18 -25 18 -33 0 -8 5 -15 10
-15 6 0 10 -9 10 -19 0 -11 6 -26 13 -33 6 -7 21 -31 32 -53 11 -22 26 -46 33
-55 53 -61 72 -87 72 -97 0 -7 7 -13 15 -13 8 0 15 -7 15 -15 0 -8 7 -15 15
-15 8 0 15 -7 15 -15 0 -8 5 -15 10 -15 6 0 16 -5 23 -10 47 -40 61 -50 70
-50 5 0 29 -13 54 -30 24 -16 48 -30 54 -30 5 0 9 -4 9 -10 0 -5 12 -12 28
-16 15 -3 43 -13 62 -21 19 -9 49 -22 65 -29 17 -7 48 -15 70 -18 22 -3 67
-10 100 -15 33 -5 187 -10 343 -10 l282 -1 0 -39 c0 -28 -5 -40 -18 -45 -31
-11 -61 -32 -86 -59 -14 -15 -30 -27 -36 -27 -5 0 -10 -5 -10 -11 0 -7 -6 -17
-14 -23 -17 -13 -28 -117 -18 -166 6 -26 14 -36 30 -38 14 -2 27 -14 33 -30 5
-15 14 -35 19 -44 6 -10 10 -25 10 -33 0 -8 13 -41 30 -71 43 -81 43 -89 -5
-89 -93 -1 -124 -6 -139 -20 -8 -8 -21 -15 -30 -15 -8 0 -21 -6 -28 -14 -8 -7
-24 -17 -36 -20 -12 -4 -22 -12 -22 -17 0 -5 -7 -9 -15 -9 -7 0 -18 -6 -22
-13 -4 -7 -32 -28 -60 -47 -29 -19 -53 -41 -53 -47 0 -7 -5 -13 -11 -13 -17 0
-239 -238 -239 -257 0 -7 -7 -13 -15 -13 -8 0 -15 -8 -15 -19 0 -10 -7 -24
-15 -31 -8 -7 -15 -25 -15 -41 0 -16 -4 -29 -10 -29 -5 0 -12 -17 -16 -37 -4
-21 -13 -44 -21 -51 -7 -7 -13 -23 -13 -36 0 -12 -4 -26 -10 -32 -26 -26 -53
-380 -32 -407 5 -7 13 -27 17 -44 3 -18 10 -33 13 -33 4 0 16 -20 27 -45 11
-25 23 -45 27 -45 5 0 14 -12 21 -27 12 -28 48 -69 78 -88 90 -58 116 -75 125
-82 22 -17 50 -33 72 -43 12 -5 22 -14 22 -20 0 -5 13 -10 29 -10 16 0 42 -7
57 -15 16 -8 39 -15 50 -15 12 0 35 -7 50 -15 16 -8 38 -15 49 -15 11 -1 31
-7 45 -15 14 -8 36 -15 50 -15 14 0 34 -7 44 -15 16 -12 69 -15 303 -15 272 0
284 1 325 22 24 12 45 26 46 30 2 4 10 8 18 8 8 0 17 7 20 15 4 8 10 15 15 15
9 0 139 127 139 135 0 6 70 75 75 75 7 0 45 39 45 45 0 3 12 17 27 31 27 25
48 55 59 87 3 9 10 17 14 17 5 0 11 13 15 29 3 16 13 32 21 35 8 3 14 17 14
31 0 14 4 25 10 25 5 0 13 12 16 28 4 15 13 36 20 47 8 11 14 31 14 45 0 14 4
30 9 35 18 18 34 197 27 307 -4 58 -3 108 1 110 12 5 53 65 53 78 0 5 7 10 15
10 8 0 15 7 15 15 0 8 4 15 9 15 13 0 171 158 171 171 0 5 7 9 15 9 8 0 15 7
15 15 0 8 7 15 15 15 8 0 15 7 15 15 0 8 6 15 14 15 8 0 16 7 20 15 3 8 13 15
21 15 10 0 13 -4 8 -12 -13 -22 -14 -50 -2 -64 16 -20 98 -18 105 1 4 8 15 15
25 15 10 0 19 6 19 13 0 7 10 17 22 22 12 6 26 19 32 30 6 10 17 25 24 33 6 7
12 31 12 52 0 21 8 53 17 72 9 18 22 45 30 60 7 14 13 38 13 52 0 14 4 26 9
26 5 0 12 18 16 40 6 37 25 48 25 14 0 -15 39 -76 53 -82 4 -2 7 -8 7 -13 0
-12 37 -49 50 -49 6 0 10 -6 10 -13 0 -6 12 -18 28 -25 15 -6 51 -35 80 -62
29 -28 57 -50 62 -50 6 0 10 -6 10 -12 0 -7 19 -22 41 -33 23 -10 44 -25 46
-32 4 -9 31 -13 94 -13 l89 0 -5 -28 c-5 -28 -13 -162 -22 -357 -2 -60 -9
-144 -15 -185 -13 -99 -12 -162 4 -172 21 -13 75 -9 92 7 8 8 20 15 26 15 6 0
13 7 16 15 4 8 12 15 20 15 8 0 14 7 14 15 0 8 7 15 15 15 8 0 15 6 15 14 0 8
7 16 15 20 12 4 15 28 15 125 0 66 5 132 11 148 7 15 14 101 17 191 l5 162 47
0 c30 0 52 6 60 15 7 8 19 15 27 15 7 0 16 7 19 15 4 8 12 15 19 15 7 0 18 7
25 15 7 8 21 15 31 15 9 0 24 6 31 13 7 8 26 17 41 21 15 3 27 10 27 15 0 5
14 12 30 16 17 4 30 11 30 15 0 5 16 12 35 16 19 3 35 10 35 15 0 5 11 9 24 9
13 0 29 7 36 15 7 8 19 15 27 15 7 0 16 6 19 14 3 8 16 17 29 20 23 6 145 116
145 131 0 12 44 55 58 55 6 0 12 5 12 10 0 6 7 10 15 10 8 0 15 7 15 15 0 8 7
15 15 15 8 0 15 6 15 14 0 8 7 16 15 20 8 3 15 11 15 19 0 7 5 18 12 25 18 18
39 82 49 147 4 33 13 80 18 105 6 25 10 101 11 170 0 130 6 174 21 164 5 -3 9
-1 9 5 0 5 -6 12 -12 14 -10 4 -10 6 0 6 8 1 12 18 12 49 0 34 3 43 10 32 6
-10 10 41 10 153 0 167 0 167 -22 167 -17 0 -28 12 -42 43 -11 23 -23 44 -26
47 -18 13 -110 130 -110 140 0 5 -7 10 -15 10 -8 0 -15 7 -15 15 0 8 -7 15
-15 15 -8 0 -15 5 -15 10 0 13 -37 50 -50 50 -5 0 -10 4 -10 9 0 5 -13 12 -30
16 -16 4 -30 10 -30 14 0 14 -86 45 -150 55 -140 20 -358 7 -368 -23 -2 -6 -8
-11 -14 -11 -5 0 -21 -9 -35 -20 -14 -11 -29 -17 -34 -14 -5 3 -9 -2 -9 -10 0
-9 -7 -16 -15 -16 -8 0 -15 -6 -15 -14 0 -8 -13 -17 -30 -21 -16 -4 -32 -11
-35 -16 -4 -5 -17 -9 -29 -9 -13 0 -29 -7 -36 -15 -7 -8 -20 -15 -30 -15 -10
0 -20 -7 -24 -15 -3 -8 -11 -15 -19 -15 -7 0 -34 -20 -59 -45 -26 -25 -50 -45
-55 -45 -4 -1 -24 -14 -43 -30 -19 -17 -38 -30 -42 -30 -4 0 -22 -15 -41 -33
-75 -72 -126 -117 -136 -117 -5 0 -14 -6 -18 -14 -4 -7 -29 -28 -55 -45 -64
-43 -128 -119 -128 -153 0 -14 -5 -28 -11 -30 -6 -2 -14 -28 -17 -58 -2 -30
-9 -60 -14 -67 -17 -21 -50 -347 -42 -415 3 -20 -2 -31 -14 -35 -9 -4 -19 -9
-22 -12 -3 -3 -23 -14 -45 -24 -22 -10 -53 -25 -68 -33 -16 -8 -37 -14 -47
-14 -9 0 -23 -6 -29 -14 -7 -8 -30 -17 -52 -21 -21 -4 -41 -11 -45 -16 -3 -5
-16 -9 -29 -9 -13 0 -30 -7 -39 -15 -8 -8 -18 -15 -23 -15 -5 0 -37 -27 -71
-60 -56 -53 -63 -64 -60 -93 l3 -32 70 0 c66 0 74 3 133 42 34 23 62 38 62 33
0 -10 -69 -94 -81 -98 -5 -2 -9 -9 -9 -16 0 -18 -60 -86 -76 -86 -8 0 -14 -4
-14 -10 0 -5 -5 -10 -11 -10 -13 0 -109 -98 -109 -111 0 -5 -4 -9 -10 -9 -5 0
-10 -5 -10 -12 0 -6 -6 -18 -14 -27 -50 -55 -185 -176 -189 -170 -1 2 -14 26
-27 52 -44 86 -51 97 -61 97 -5 0 -9 7 -9 15 0 8 -7 15 -15 15 -8 0 -15 7 -15
15 0 8 -7 15 -15 15 -8 0 -15 7 -15 15 0 8 -7 15 -15 15 -9 0 -18 7 -21 15 -4
8 -12 15 -20 15 -8 0 -14 4 -14 10 0 5 -11 12 -25 16 -13 3 -29 12 -36 20 -6
8 -19 14 -29 14 -10 0 -20 7 -24 15 -3 8 -10 15 -15 15 -5 0 -25 13 -43 30
-18 17 -38 30 -44 30 -6 0 -17 7 -24 15 -7 8 -21 15 -30 15 -10 0 -20 4 -22
10 -3 9 -92 38 -133 43 -15 2 -19 9 -17 27 1 13 9 28 17 33 8 4 15 14 15 21 0
8 7 19 15 26 8 7 15 25 15 41 0 16 4 29 9 29 5 0 13 15 16 32 4 18 12 39 17
45 6 7 7 25 4 39 -7 25 -9 26 -54 19 -26 -3 -52 -13 -58 -21 -6 -8 -14 -14
-18 -14 -4 0 -20 -14 -36 -31 l-28 -31 -7 31 c-3 17 -11 33 -16 36 -5 4 -9 55
-9 114 l0 108 60 6 c34 3 66 10 73 15 7 5 31 13 55 17 23 4 42 10 42 15 0 4
25 11 55 15 30 3 57 11 60 16 4 5 12 9 18 9 8 0 13 -28 14 -88 3 -114 26 -171
80 -197 21 -10 46 -22 57 -27 12 -6 22 -6 29 1 6 6 23 11 39 11 29 0 28 2 42
-104 6 -45 31 -68 66 -60 14 3 38 8 53 11 16 3 31 12 34 19 3 8 11 14 19 14 8
0 14 7 14 15 0 8 7 15 15 15 8 0 15 6 15 14 0 8 7 16 15 20 20 7 21 113 1 141
-7 11 -15 44 -18 74 -3 29 -11 56 -17 60 -12 8 9 58 37 89 6 7 12 19 12 26 0
8 7 19 15 26 8 7 15 21 15 32 0 10 7 21 15 24 8 4 15 17 15 30 0 14 6 27 14
30 8 3 13 11 11 17 -3 7 17 22 43 35 75 37 95 49 104 66 5 9 16 16 23 16 8 0
15 5 15 10 0 6 7 10 15 10 8 0 15 7 15 15 0 8 7 15 15 15 8 0 15 4 15 10 0 13
37 50 50 50 6 0 10 4 10 10 0 5 26 35 57 67 75 75 123 137 123 157 0 9 3 16 8
16 4 0 18 24 32 52 13 29 30 59 37 66 7 7 13 22 13 33 0 10 4 19 10 19 5 0 13
12 16 28 4 15 11 32 15 38 5 6 12 33 15 60 4 27 11 54 16 60 5 7 11 43 15 80
3 38 9 74 14 79 4 6 11 31 15 55 3 25 13 64 21 86 12 33 14 86 11 265 -2 145
-7 231 -15 244 -6 11 -22 44 -34 73 -13 28 -27 52 -31 52 -5 0 -8 4 -8 10 0
19 -87 111 -141 149 -19 14 -38 30 -42 38 -4 7 -15 13 -22 13 -8 0 -15 4 -15
9 0 5 -10 13 -22 17 -12 3 -28 13 -36 20 -19 19 -116 18 -136 -1 -8 -8 -20
-15 -26 -15 -6 0 -13 -7 -16 -15 -4 -8 -11 -15 -18 -15 -16 -1 -42 -40 -49
-77 -7 -38 19 -71 66 -80 15 -3 27 -9 27 -14 0 -4 20 -20 45 -35 25 -14 45
-30 45 -35 0 -5 7 -9 15 -9 8 0 15 -7 15 -15 0 -8 7 -15 15 -15 8 0 15 -4 15
-10 0 -5 8 -18 18 -28 40 -42 72 -82 72 -91 0 -5 7 -14 15 -21 8 -7 15 -20 15
-29 0 -9 7 -29 15 -45 12 -22 15 -69 15 -217 0 -103 -4 -190 -9 -193 -5 -3
-12 -35 -16 -71 -3 -36 -10 -67 -15 -70 -5 -3 -12 -31 -15 -63 -4 -31 -13 -71
-21 -89 -8 -17 -14 -45 -14 -61 0 -17 -4 -33 -9 -37 -5 -3 -12 -19 -16 -35 -4
-16 -17 -49 -31 -72 -13 -24 -28 -53 -34 -65 -5 -13 -14 -23 -20 -23 -5 0 -10
-13 -10 -30 0 -16 -4 -30 -9 -30 -5 0 -14 -14 -20 -30 -5 -17 -15 -30 -20 -30
-6 0 -11 -5 -11 -10 0 -13 -37 -50 -50 -50 -5 0 -10 -7 -10 -15 0 -8 -7 -15
-15 -15 -8 0 -15 -7 -15 -15 0 -10 -10 -15 -29 -15 -16 0 -31 -6 -35 -15 -4
-11 -20 -15 -56 -15 -35 0 -52 -5 -56 -14 -3 -8 -23 -17 -45 -21 -21 -4 -41
-11 -45 -16 -3 -5 -16 -9 -30 -9 -14 0 -27 -7 -30 -15 -4 -8 -14 -15 -24 -15
-10 0 -25 -6 -33 -14 -9 -10 -37 -14 -91 -13 -63 1 -80 -2 -91 -16 -7 -9 -16
-17 -21 -17 -5 0 -23 -14 -41 -30 -18 -17 -38 -30 -45 -30 -7 0 -25 -6 -39
-13 -14 -8 -45 -17 -69 -21 -24 -4 -50 -11 -56 -17 -7 -6 -62 -13 -123 -16
l-111 -6 0 35 c0 18 5 39 11 45 7 7 12 52 13 105 l2 93 30 2 c16 1 38 7 49 12
11 5 37 12 58 16 20 3 37 10 37 15 0 6 13 10 29 10 16 0 34 7 41 15 7 8 27 17
46 21 19 3 34 10 34 14 0 4 18 10 40 14 22 3 40 11 40 16 0 6 11 10 24 10 13
0 29 7 36 15 7 8 18 15 26 15 23 0 83 34 84 48 0 6 7 12 15 12 8 0 15 7 15 15
0 8 7 15 15 15 8 0 15 4 15 10 0 5 8 18 18 28 9 10 28 33 42 51 14 18 33 42
43 52 9 11 17 23 17 29 0 5 7 10 15 10 8 0 15 6 15 14 0 8 7 16 15 20 8 3 15
12 15 21 0 8 4 15 9 15 5 0 13 10 17 22 3 12 13 28 20 36 8 7 14 24 14 36 0
13 7 29 15 36 9 7 15 30 15 54 0 22 7 50 15 60 11 14 15 47 15 115 0 59 6 113
15 138 19 55 17 305 -2 325 -7 6 -13 26 -13 44 0 17 -7 37 -15 44 -8 7 -15 19
-15 26 0 19 -59 133 -91 174 -15 19 -54 63 -88 97 -34 34 -61 64 -61 67 0 4
-21 27 -47 52 -47 44 -119 84 -153 84 -10 0 -23 7 -30 15 -7 8 -29 15 -49 15
-20 0 -45 7 -55 15 -12 9 -42 15 -77 15 -31 0 -76 7 -99 15 -23 8 -53 15 -66
15 -13 0 -24 5 -24 10 0 6 7 10 15 10 8 0 15 7 15 15 0 8 6 15 14 15 7 0 16
14 20 31 l6 30 127 -4 c157 -5 322 -24 387 -43 26 -8 62 -14 80 -14 17 0 40
-7 50 -15 13 -10 43 -15 81 -15 61 0 84 10 123 52 9 10 20 18 24 18 17 0 45
38 51 69 9 45 -16 67 -89 76 -33 4 -62 12 -65 17 -4 6 -38 14 -77 18 -38 4
-75 11 -82 15 -6 4 -78 11 -158 16 -214 12 -399 33 -385 42 7 5 13 27 13 51 0
23 5 47 11 53 5 5 13 36 16 67 3 31 10 59 14 62 13 8 11 48 -3 62 -15 15 -54
16 -63 2 -3 -5 -15 -10 -25 -10 -11 0 -46 -28 -80 -61 -54 -55 -60 -66 -60
-103 0 -22 -5 -48 -10 -56 -14 -22 -13 655 1 681 6 11 13 84 16 162 l6 142 86
3 c58 1 89 6 96 16 6 7 20 16 33 20 12 4 22 12 22 17 0 5 13 9 29 9 16 0 31 6
35 15 3 8 15 15 26 15 11 0 23 7 26 15 4 8 10 15 15 15 21 0 229 206 229 227
0 8 7 21 15 29 8 9 15 24 15 35 0 10 4 19 9 19 5 0 14 12 19 28 6 15 22 40 36
56 14 16 26 35 26 43 0 7 4 13 10 13 5 0 13 12 16 27 4 16 10 30 14 33 12 10
50 122 50 150 0 15 6 43 14 61 21 51 23 476 2 504 -9 11 -16 30 -16 43 -1 63
-88 158 -194 212 -37 19 -71 41 -73 48 -3 6 -10 12 -17 12 -6 0 -29 16 -51 35
-22 20 -44 39 -50 43 -18 13 -110 42 -132 42 -14 0 -23 6 -23 15 0 8 -5 15
-11 15 -6 0 -28 13 -49 30 -26 21 -49 30 -73 30 -20 0 -40 6 -44 12 -19 30
-74 49 -131 47 -55 -2 -57 -1 -54 21 1 13 7 27 11 30 5 3 13 19 17 35 3 17 12
37 18 45 7 8 21 33 31 55 11 22 22 42 25 45 3 3 11 17 17 33 7 15 17 27 23 27
5 0 10 5 10 10 0 14 13 30 73 90 26 26 47 53 47 59 0 6 5 20 12 30 14 22 0 45
-31 54 -21 5 -101 -29 -101 -43 0 -6 -6 -10 -12 -10 -7 -1 -24 -14 -38 -30
-13 -17 -29 -30 -36 -30 -6 0 -14 -10 -17 -22 -4 -12 -10 -19 -14 -14 -11 11
-3 138 9 154 6 7 15 88 19 180 8 172 28 337 44 362 5 8 10 172 11 365 1 305 3
354 17 380 9 17 17 45 17 63 0 27 4 32 24 32 14 0 28 5 31 10 3 6 24 10 45 10
42 0 200 74 222 104 7 11 92 61 131 78 15 7 27 16 27 20 0 4 5 8 10 8 13 0 20
7 161 145 112 109 159 173 159 215 0 10 4 21 9 25 5 3 13 20 16 37 4 18 14 38
21 46 8 7 14 23 14 35 0 12 7 31 15 41 22 29 22 383 0 412 -8 10 -15 31 -15
45 0 14 -7 34 -15 45 -8 10 -15 25 -15 32 0 19 -57 149 -70 162 -15 15 -50 71
-50 80 0 5 -4 10 -9 10 -10 0 -34 38 -47 73 -3 9 -13 17 -20 17 -8 0 -14 4
-14 10 0 5 -16 25 -35 44 -19 20 -35 39 -35 43 0 5 -19 30 -43 55 -42 46 -113
87 -152 88 -11 0 -29 7 -39 15 -13 10 -44 15 -95 15 -41 0 -161 7 -266 16
-194 16 -339 14 -358 -5 -6 -6 -19 -11 -29 -11 -10 0 -21 -7 -24 -15 -4 -8
-12 -15 -19 -15 -7 0 -15 -7 -19 -15 -3 -8 -10 -15 -16 -15 -16 0 -110 -97
-110 -113 0 -8 -7 -17 -15 -21 -8 -3 -15 -16 -15 -30 0 -14 -7 -31 -15 -40 -8
-8 -15 -19 -15 -25 0 -6 -5 -11 -11 -11 -6 0 -37 -26 -69 -57 -31 -32 -71 -71
-88 -87 -33 -30 -72 -96 -72 -122 0 -18 -26 -59 -62 -99 -15 -16 -28 -35 -28
-42 0 -6 -3 -13 -7 -15 -12 -5 -53 -66 -53 -78 0 -5 -7 -10 -15 -10 -8 0 -15
-8 -15 -19 0 -10 -7 -32 -15 -47 -8 -16 -15 -36 -15 -45 0 -8 -4 -19 -9 -25
-6 -5 -12 -26 -14 -47 -5 -40 -17 -60 -24 -39 -3 6 -18 12 -34 12 -17 0 -44 7
-61 16 -38 20 -209 17 -216 -3 -2 -7 -12 -13 -22 -13 -10 0 -25 -7 -33 -15 -8
-7 -26 -17 -41 -21 -14 -3 -26 -10 -26 -15 0 -5 -9 -9 -19 -9 -22 0 -103 -51
-136 -84 -30 -31 -47 -70 -43 -97 3 -24 4 -24 128 -24 69 1 153 5 188 9 45 6
62 6 62 -3 0 -6 -5 -11 -11 -11 -6 0 -16 -6 -23 -12 -7 -7 -25 -22 -40 -33
-16 -11 -34 -26 -41 -32 -8 -7 -18 -13 -24 -13 -6 0 -11 -7 -11 -15 0 -8 -7
-15 -15 -15 -8 0 -15 -4 -15 -9 0 -8 -101 -73 -132 -84 -10 -4 -18 -11 -18
-16 0 -5 -11 -12 -25 -15 -14 -4 -25 -11 -25 -16 0 -6 -7 -10 -15 -10 -9 0
-18 -7 -21 -15 -4 -8 -12 -15 -20 -15 -8 0 -14 -3 -14 -7 0 -17 -70 -83 -94
-89 -14 -3 -26 -10 -26 -14 0 -4 -11 -11 -25 -14 -14 -4 -25 -11 -25 -16 0 -6
-8 -10 -19 -10 -10 0 -24 -7 -31 -15 -7 -8 -21 -15 -31 -15 -11 0 -19 -6 -19
-14 0 -8 -11 -17 -25 -20 -14 -4 -25 -11 -25 -16 0 -6 -9 -10 -20 -10 -11 0
-20 -7 -20 -15 0 -8 -7 -15 -15 -15 -8 0 -15 -6 -15 -13 0 -8 -20 -24 -45 -36
-25 -12 -45 -26 -45 -31 0 -4 -11 -11 -24 -14 -13 -3 -43 -24 -66 -46 -23 -22
-45 -40 -50 -40 -5 0 -10 -5 -12 -11 -2 -6 -24 8 -48 32 -42 42 -47 44 -98 42
-47 -2 -58 -6 -94 -42 l-42 -40 -20 22 c-12 12 -42 32 -67 44 -25 13 -54 32
-65 44 -16 18 -92 59 -110 59 -3 0 -23 14 -44 30 -27 21 -49 30 -75 30 l-37 0
24 33 c14 17 28 46 31 62 3 17 12 58 18 93 6 34 15 62 20 62 4 0 11 16 15 35
3 19 10 35 14 35 4 0 13 14 19 30 5 17 15 30 20 30 6 0 11 9 11 20 0 11 5 20
10 20 6 0 33 23 60 51 71 72 68 129 -7 129 -30 0 -92 -32 -101 -52 -2 -5 -10
-8 -18 -8 -8 0 -14 -7 -14 -15 0 -8 -5 -15 -12 -15 -7 0 -25 -15 -40 -32 l-28
-33 0 95 c0 56 6 112 15 136 11 32 14 110 15 353 0 171 4 321 9 334 5 13 12
88 16 167 8 156 13 169 65 170 14 0 34 6 45 14 11 7 40 16 65 20 50 8 120 36
120 48 0 4 9 8 20 8 11 0 20 7 20 15 0 8 6 15 14 15 7 0 19 7 26 15 7 8 21 15
31 15 11 0 19 6 19 14 0 8 14 17 30 21 17 4 30 10 30 13 0 4 20 16 45 27 25
11 45 25 45 32 0 7 7 13 15 13 8 0 15 7 15 15 0 8 7 15 15 15 8 0 15 7 15 15
0 8 7 15 15 15 8 0 15 4 15 9 0 10 26 43 83 103 20 22 37 46 37 53 0 7 7 15
15 19 8 3 15 12 15 21 0 8 4 15 10 15 5 0 12 11 16 25 3 14 10 25 14 25 5 0
12 15 16 32 3 18 14 43 22 57 12 18 16 50 15 136 0 111 0 113 -36 171 -40 65
-90 124 -106 124 -6 0 -11 6 -11 13 0 8 -9 22 -20 32 -11 10 -20 24 -20 32 0
7 -4 13 -10 13 -5 0 -10 7 -10 15 0 8 -4 15 -8 15 -10 0 -82 96 -82 110 0 5
-7 10 -15 10 -8 0 -15 7 -15 15 0 8 -7 15 -15 15 -8 0 -15 7 -15 15 0 8 -6 15
-14 15 -8 0 -16 6 -18 14 -4 18 -68 94 -153 180 -75 76 -143 112 -167 88 -7
-7 -22 -12 -34 -12 -12 0 -27 -7 -34 -15 -10 -12 -37 -15 -129 -15 -64 0 -126
3 -139 6 -28 8 -26 36 4 44 38 10 102 74 110 109 3 14 9 34 15 43 5 10 9 25 9
34 0 16 24 73 56 136 8 14 14 33 14 41 0 8 7 20 15 27 8 7 15 21 15 32 0 11 7
26 15 34 8 9 15 24 15 34 0 10 7 31 15 46 8 16 15 43 15 61 0 17 4 43 10 57 5
14 7 33 4 41 -8 20 -52 31 -67 16 -6 -6 -21 -11 -32 -11 -18 0 -21 5 -17 29 2
16 -1 67 -7 113 -6 46 -11 196 -12 333 -1 290 -16 821 -24 846 -5 15 5 17 86
20 62 3 94 8 97 17 2 6 12 12 23 12 11 0 22 6 25 14 3 8 16 17 30 20 13 4 24
11 24 16 0 6 9 10 20 10 11 0 23 6 26 14 3 8 16 17 30 20 13 4 24 11 24 16 0
6 6 10 13 10 6 0 30 17 52 36 85 76 95 84 105 84 5 0 10 7 10 15 0 8 7 15 15
15 8 0 15 5 15 11 0 6 6 17 13 24 61 67 107 142 107 175 0 11 7 23 15 26 8 4
15 17 15 30 0 14 7 35 15 47 12 19 14 69 12 297 -1 189 -6 281 -14 295 -6 11
-14 27 -17 35 -4 8 -15 29 -26 45 -11 17 -24 40 -30 53 -5 12 -14 22 -19 22
-5 0 -11 8 -15 18 -3 9 -10 25 -16 35 -23 40 -31 53 -40 75 -5 12 -14 22 -20
22 -5 0 -10 6 -10 13 0 13 -35 60 -72 99 -10 10 -18 23 -18 28 0 6 -7 10 -15
10 -8 0 -15 7 -15 15 0 8 -7 15 -15 15 -8 0 -15 4 -15 8 0 9 -77 67 -120 91
-43 24 -121 35 -235 34 -131 -1 -237 -14 -243 -31 -2 -7 -10 -12 -18 -12 -8 0
-14 -7 -14 -15 0 -8 -6 -15 -14 -15 -8 0 -16 -7 -20 -15 -3 -8 -17 -15 -32
-15 -14 0 -38 -6 -52 -14 -15 -8 -34 -17 -42 -21 -22 -9 -54 -28 -70 -43 -24
-21 -121 -82 -131 -82 -5 0 -9 -4 -9 -10 0 -5 -5 -10 -10 -10 -14 0 -110 -96
-110 -110 0 -5 -7 -10 -15 -10 -8 0 -15 -7 -15 -15 0 -15 -5 -23 -40 -64 -32
-38 -80 -129 -80 -153 0 -7 -7 -22 -15 -32 -8 -11 -15 -30 -15 -42 0 -12 -5
-24 -11 -26 -6 -2 -14 -28 -17 -58 -2 -30 -8 -60 -13 -66 -8 -10 -24 -115 -36
-240 l-5 -52 -41 -5 c-23 -3 -43 -11 -45 -16 -2 -6 -10 -11 -19 -11 -8 0 -29
-6 -46 -14 -18 -8 -53 -17 -79 -21 -27 -3 -48 -10 -48 -14 0 -5 -27 -12 -61
-15 -33 -4 -70 -11 -82 -16 -12 -5 -69 -14 -127 -20 -163 -16 -191 -21 -197
-36 -3 -8 -11 -14 -19 -14 -8 0 -14 -4 -14 -8 0 -5 -23 -33 -51 -63 -27 -30
-57 -61 -65 -70 -17 -19 -19 -80 -2 -97 8 -8 59 -12 165 -12 95 0 153 -4 153
-10 0 -5 -7 -10 -15 -10 -8 0 -15 -6 -15 -14 0 -8 -10 -17 -22 -20 -13 -3 -32
-14 -43 -24 -29 -25 -85 -98 -85 -111 0 -6 -4 -11 -10 -11 -5 0 -10 -7 -10
-15 0 -8 -7 -15 -15 -15 -9 0 -18 -6 -21 -14 -3 -8 -16 -17 -30 -20 -13 -4
-24 -11 -24 -16 0 -6 -11 -10 -25 -10 -14 0 -28 -7 -31 -15 -4 -8 -13 -15 -20
-15 -15 0 -76 -39 -82 -52 -2 -5 -16 -8 -32 -8 -16 0 -35 -7 -44 -15 -8 -8
-21 -15 -29 -15 -8 0 -17 -7 -21 -15 -3 -8 -14 -15 -25 -15 -11 0 -24 -6 -28
-13 -4 -6 -29 -22 -55 -35 -26 -13 -50 -27 -53 -33 -4 -5 -14 -9 -24 -9 -10 0
-24 -7 -31 -15 -7 -8 -20 -15 -29 -15 -9 0 -24 -9 -34 -20 -9 -11 -24 -20 -32
-20 -8 0 -15 -4 -15 -9 0 -5 -12 -12 -27 -16 -15 -3 -30 -11 -33 -16 -3 -4
-17 -10 -30 -11 -21 -3 -24 2 -27 32 -3 33 -14 67 -34 100 -5 8 -12 23 -15 33
-4 9 -11 17 -18 17 -6 0 -19 18 -29 40 -10 22 -37 59 -58 83 -22 23 -50 56
-61 73 -20 29 -93 74 -119 74 -6 0 -17 7 -25 15 -9 8 -28 15 -44 15 -16 0 -31
4 -34 9 -3 5 -31 12 -61 16 -34 4 -58 12 -62 21 -3 8 -11 14 -19 14 -8 0 -14
4 -14 10 0 5 -11 12 -25 16 -14 3 -29 11 -33 18 -4 6 -20 19 -37 28 -24 13
-29 22 -27 44 2 15 10 34 18 41 8 8 14 34 14 62 0 26 5 52 10 57 12 12 16 106
6 123 -9 14 -76 15 -76 1 0 -5 -9 -10 -20 -10 -11 0 -20 -7 -20 -15 0 -8 -7
-15 -15 -15 -8 0 -15 -7 -15 -15 0 -8 -6 -15 -12 -15 -10 0 -12 61 -7 287 4
159 12 324 17 368 6 44 11 149 11 233 l1 152 58 0 c31 0 70 7 86 15 15 8 34
15 42 15 16 0 98 41 102 52 2 4 19 10 38 14 19 3 34 10 34 14 0 4 11 11 25 14
14 4 25 11 25 16 0 6 7 10 15 10 9 0 18 7 21 15 4 8 12 15 20 15 8 0 14 7 14
15 0 8 4 15 10 15 12 0 110 90 110 102 0 5 6 16 13 23 25 29 33 41 55 83 12
23 22 49 22 57 0 8 4 15 10 15 5 0 12 17 16 38 4 20 12 40 18 44 7 5 12 87 14
251 3 210 1 246 -13 257 -8 7 -15 21 -15 32 0 10 -7 21 -15 24 -8 4 -15 16
-15 28 -1 24 -23 73 -63 133 -15 24 -27 46 -27 50 0 5 -20 30 -45 57 -25 26
-45 52 -45 57 0 22 -147 169 -170 169 -4 0 -17 14 -30 30 -13 17 -27 30 -32
30 -5 0 -36 14 -70 30 -33 17 -66 30 -73 30 -7 0 -18 7 -25 15 -16 19 -113 20
-132 2 -7 -7 -21 -16 -30 -20 -10 -3 -18 -11 -18 -17 0 -5 -6 -10 -12 -10 -7
0 -28 -14 -45 -31 -27 -25 -33 -37 -33 -73 l0 -43 60 -6 c38 -4 77 -16 103
-32 23 -14 50 -28 60 -31 9 -4 17 -13 17 -20 0 -8 7 -14 15 -14 8 0 15 -7 15
-15 0 -8 6 -15 14 -15 8 0 16 -3 18 -7 5 -12 66 -53 78 -53 5 0 10 -7 10 -15
0 -8 7 -15 15 -15 8 0 15 -6 15 -14 0 -8 3 -16 8 -18 8 -3 52 -64 52 -72 0 -3
18 -24 40 -48 41 -42 58 -68 82 -120 7 -16 16 -28 20 -28 4 0 8 -13 8 -29 0
-16 6 -34 14 -40 22 -19 36 -126 36 -281 0 -154 -14 -265 -36 -291 -8 -8 -14
-23 -14 -31 0 -9 -7 -21 -15 -28 -8 -7 -15 -16 -15 -21 0 -14 -39 -49 -54 -49
-8 0 -21 -6 -28 -14 -8 -7 -25 -17 -38 -21 -14 -4 -27 -11 -30 -14 -21 -28
-357 -54 -399 -31 -11 5 -55 13 -98 17 -43 3 -87 12 -98 19 -11 8 -27 14 -37
14 -10 0 -18 5 -18 11 0 5 -14 15 -30 20 -16 6 -30 15 -30 20 0 5 -9 9 -19 9
-11 0 -26 6 -33 13 -14 13 -68 36 -105 44 -13 3 -23 12 -23 19 0 8 -7 14 -15
14 -8 0 -15 7 -15 15 0 8 -7 15 -15 15 -8 0 -15 5 -15 10 0 13 -72 110 -81
110 -4 0 -9 10 -13 23 -3 13 -16 35 -29 49 -13 14 -27 34 -30 44 -16 52 -39
110 -48 119 -12 12 -12 482 0 489 5 4 12 24 16 46 4 22 11 40 16 40 5 0 12 12
15 27 4 15 13 34 21 41 7 7 13 22 13 31 0 10 7 24 15 31 8 7 15 20 15 30 0 10
7 23 15 30 8 7 15 17 15 22 0 6 13 27 28 47 15 20 37 53 47 75 11 21 30 43 43
49 12 6 22 14 22 19 0 4 7 8 16 8 8 0 22 7 30 15 12 11 41 15 123 15 84 0 111
3 121 15 7 8 19 15 26 15 14 0 31 14 86 68 31 30 39 91 15 114 -8 6 -11 22 -9
35 4 22 2 23 -70 23 -60 0 -75 -3 -75 -15z m3877 -2023 c56 -42 95 -85 111
-120 7 -18 19 -32 26 -32 6 0 14 -13 18 -30 4 -16 11 -30 16 -30 5 0 9 -6 9
-14 0 -7 7 -19 15 -26 8 -7 15 -21 15 -32 0 -10 6 -21 14 -24 8 -3 17 -13 20
-22 6 -20 26 -50 44 -70 6 -7 12 -22 12 -32 0 -10 7 -20 15 -24 13 -5 15 -46
15 -291 0 -241 -2 -289 -15 -301 -8 -9 -15 -26 -15 -39 0 -13 -7 -30 -15 -39
-8 -8 -15 -20 -15 -27 0 -10 -31 -42 -84 -86 -8 -7 -20 -13 -26 -13 -6 0 -13
-7 -16 -15 -4 -8 -12 -15 -20 -15 -7 0 -17 -8 -23 -17 -12 -23 -130 -28 -388
-18 -146 6 -183 10 -183 21 0 8 -10 14 -25 14 -14 0 -28 7 -31 15 -4 8 -17 15
-31 15 -13 0 -30 6 -37 13 -8 6 -24 19 -36 27 -13 8 -32 23 -42 33 -10 9 -22
17 -26 17 -5 0 -22 13 -38 30 -16 16 -35 30 -42 30 -7 0 -15 7 -18 15 -4 8
-12 15 -20 15 -8 0 -14 6 -14 14 0 8 -5 16 -11 18 -11 4 -58 80 -80 128 -15
34 -7 393 9 413 7 8 15 36 19 63 3 26 12 59 20 74 7 14 13 33 13 43 0 9 4 17
10 17 5 0 13 18 16 40 4 22 10 40 15 40 4 0 18 21 31 46 12 26 28 49 35 51 7
3 13 11 13 19 0 8 5 14 10 14 6 0 19 9 30 20 11 11 27 20 35 20 8 0 15 4 15 9
0 5 14 12 30 16 17 4 30 10 30 14 0 17 130 34 310 40 107 4 206 5 220 3 14 -2
41 -15 60 -30z m-3887 -1456 c9 -7 17 -19 17 -27 0 -8 6 -25 13 -39 8 -14 17
-41 20 -59 8 -38 40 -71 69 -71 31 0 77 29 139 86 27 25 91 -11 82 -46 -4 -14
2 -23 21 -31 14 -7 26 -18 26 -26 0 -7 5 -13 10 -13 6 0 10 -7 10 -15 0 -20
73 -20 94 0 27 28 70 29 125 4 28 -13 51 -30 51 -36 0 -7 7 -13 15 -13 8 0 15
-5 15 -10 0 -6 19 -28 43 -51 39 -38 83 -102 107 -156 5 -13 14 -23 20 -23 5
0 10 -15 10 -34 0 -19 6 -68 14 -110 9 -45 16 -148 17 -259 1 -166 0 -186 -17
-205 -10 -12 -24 -22 -31 -22 -7 0 -13 -4 -13 -8 0 -14 -65 -82 -78 -82 -6 0
-12 -4 -12 -10 0 -5 -7 -10 -15 -10 -8 0 -15 -7 -15 -15 0 -8 -9 -15 -19 -15
-11 0 -26 -7 -35 -15 -8 -8 -32 -15 -54 -15 -31 0 -41 5 -52 24 -13 25 -11 52
10 151 13 57 4 243 -12 263 -7 8 -41 12 -103 12 -94 0 -92 1 -152 -50 -7 -5
-17 -10 -23 -10 -5 0 -10 -7 -10 -15 0 -8 -7 -15 -15 -15 -8 0 -15 -7 -15 -15
0 -8 -5 -15 -11 -15 -5 0 -23 -15 -40 -32 -16 -18 -29 -28 -29 -22 0 5 32 41
71 79 101 100 104 110 104 293 0 106 -4 155 -12 160 -6 4 -15 20 -18 35 -4 15
-11 27 -15 27 -5 0 -11 13 -15 30 -4 16 -16 37 -28 45 -27 19 -97 19 -123 0
-10 -8 -29 -15 -41 -15 -12 0 -28 -6 -35 -13 -7 -8 -26 -17 -41 -21 -15 -3
-27 -11 -27 -16 0 -6 -8 -10 -18 -10 -10 0 -27 -7 -38 -15 -25 -19 -63 -19
-70 0 -4 10 -20 15 -49 15 -39 0 -48 -5 -111 -68 -90 -90 -110 -118 -117 -172
-9 -57 1 -71 43 -68 31 3 34 1 34 -27 1 -23 6 -31 23 -33 20 -3 22 -10 25 -88
l3 -85 -32 -27 c-18 -15 -33 -33 -33 -39 0 -7 -4 -13 -9 -13 -5 0 -11 -12 -14
-26 -6 -32 16 -54 53 -54 33 0 35 -7 39 -115 1 -44 6 -84 12 -90 5 -5 9 -33 9
-63 l0 -55 -23 34 c-12 19 -32 54 -45 79 -13 25 -32 59 -42 75 -11 17 -24 39
-30 50 -23 42 -38 67 -49 78 -18 18 -15 385 4 430 8 20 15 49 15 65 0 16 7 35
15 42 8 7 15 24 15 37 0 25 21 98 45 158 22 54 37 99 42 127 3 15 11 33 19 39
8 6 14 25 14 41 0 16 7 36 15 44 8 9 15 29 15 45 0 16 4 29 9 29 5 0 12 11 15
25 7 27 39 65 56 65 6 0 10 7 10 15 0 20 127 21 153 1z m72 -590 c0 0 15 -30
33 -66 29 -59 32 -73 32 -158 0 -71 -4 -101 -17 -123 -10 -16 -21 -29 -25 -29
-4 0 -24 -16 -45 -35 -41 -37 -60 -38 -94 -4 -17 17 -19 35 -19 199 l0 180 28
13 c15 6 29 14 32 18 10 12 35 17 55 12 11 -3 20 -6 20 -7z m-9 -598 c-11 -16
-16 -46 -16 -99 l0 -77 39 -31 c21 -17 47 -31 58 -31 10 0 25 -6 31 -12 8 -8
44 -14 94 -14 l80 -2 19 -41 c11 -26 28 -45 46 -52 33 -12 152 -2 173 16 8 7
25 16 38 19 12 4 22 12 22 17 0 5 9 9 20 9 11 0 20 6 20 14 0 8 11 17 25 20
14 4 25 11 25 16 0 6 6 10 14 10 8 0 32 16 53 36 21 19 49 43 63 52 14 9 29
22 33 29 16 26 22 3 16 -59 -6 -63 -19 -109 -45 -160 -8 -14 -14 -35 -14 -45
0 -10 -5 -24 -10 -29 -6 -6 -12 -21 -15 -33 -6 -31 -24 -51 -45 -51 -10 0 -20
-7 -24 -15 -3 -8 -16 -15 -30 -15 -13 0 -26 -7 -30 -15 -3 -8 -17 -15 -31 -15
-16 0 -25 -6 -25 -15 0 -10 -10 -15 -29 -15 -16 0 -34 -7 -41 -15 -10 -12 -42
-15 -165 -15 -123 0 -155 3 -165 15 -8 10 -31 15 -67 15 -38 0 -55 4 -59 15
-4 8 -16 15 -28 15 -49 0 -150 65 -243 157 -51 51 -93 94 -93 96 0 2 18 4 41
5 39 2 52 9 151 92 10 8 18 22 18 32 0 9 5 20 10 23 6 3 10 30 10 58 0 65 9
97 25 97 7 0 23 9 36 19 28 23 37 11 15 -21z m3359 -1178 c11 -5 89 -10 173
-12 132 -3 156 -6 166 -21 7 -9 18 -17 25 -17 6 0 14 -7 17 -15 4 -10 20 -15
48 -15 36 0 44 -4 59 -30 10 -16 22 -30 28 -30 5 0 9 -4 9 -10 0 -5 8 -18 18
-28 9 -10 37 -42 62 -72 25 -29 57 -67 73 -82 15 -16 27 -31 27 -34 0 -4 14
-23 30 -44 17 -21 30 -41 30 -44 0 -4 29 -37 65 -74 36 -37 70 -79 77 -94 7
-16 19 -28 25 -28 20 0 18 -213 -2 -230 -8 -7 -15 -19 -15 -26 0 -8 -4 -14 -9
-14 -5 0 -13 -10 -17 -22 -8 -26 -16 -36 -77 -99 -26 -27 -55 -49 -63 -49 -8
0 -17 -6 -20 -14 -3 -7 -23 -22 -44 -32 -22 -11 -40 -22 -40 -26 0 -20 -46
-51 -84 -55 -22 -3 -45 -9 -51 -13 -5 -4 -23 -10 -40 -14 -16 -4 -33 -13 -37
-19 -5 -9 -74 -12 -245 -12 -211 0 -241 2 -263 18 -13 9 -36 17 -50 17 -14 0
-34 7 -44 15 -11 8 -31 15 -45 15 -14 0 -35 7 -45 15 -11 8 -28 15 -38 15 -10
0 -18 5 -18 10 0 6 7 10 15 10 9 0 18 7 21 15 4 8 12 15 20 15 8 0 14 6 14 13
1 6 14 23 30 37 17 13 30 28 30 33 0 5 7 15 15 23 13 13 15 64 15 332 -1 212
-4 320 -12 329 -7 9 -7 13 0 13 6 0 9 7 6 15 -4 10 0 15 13 15 11 0 28 7 39
15 10 8 27 15 37 15 10 0 20 7 23 15 4 8 15 15 25 15 10 0 19 7 19 15 0 8 7
15 15 15 8 0 15 7 15 15 0 8 5 15 10 15 6 0 27 15 45 34 28 26 35 41 35 70 0
54 -27 58 -100 15 -8 -5 -25 -13 -37 -18 -11 -6 -24 -15 -28 -20 -3 -6 -17
-11 -29 -11 -13 0 -29 -7 -36 -15 -7 -8 -18 -15 -25 -15 -7 0 -18 -7 -25 -15
-7 -8 -22 -15 -34 -15 -12 0 -30 -6 -41 -14 -11 -7 -32 -16 -47 -20 -16 -3
-28 -11 -28 -16 0 -6 -9 -10 -19 -10 -11 0 -23 -5 -26 -10 -4 -6 -21 -16 -38
-24 -18 -7 -57 -34 -87 -59 l-55 -46 -3 35 c-2 22 3 43 12 53 9 10 16 30 16
44 0 15 4 27 9 27 5 0 12 14 16 30 4 17 10 30 15 30 5 0 11 14 15 30 4 17 10
30 15 30 5 0 11 14 15 30 4 17 11 30 16 30 5 0 18 9 29 20 11 11 27 20 35 20
8 0 15 4 15 9 0 6 15 11 33 13 64 6 282 -2 302 -12z m-559 -442 c-1 -61 16
-62 117 -12 16 8 32 14 35 14 6 0 5 -671 -1 -677 -7 -7 -76 34 -77 45 0 6 -4
12 -10 12 -15 0 -47 35 -55 62 -4 12 -12 28 -17 34 -10 13 -13 538 -3 554 10
17 12 12 11 -32z m4064 -1097 c88 -17 139 -43 189 -96 22 -24 41 -47 41 -50 0
-3 10 -16 23 -28 13 -12 34 -38 47 -57 13 -19 28 -39 34 -45 6 -5 20 -28 31
-49 11 -22 32 -54 48 -70 15 -17 30 -39 33 -48 3 -10 10 -18 15 -18 5 0 9 -7
9 -15 0 -13 6 -28 41 -110 28 -65 42 -145 46 -263 5 -136 -4 -176 -58 -277
-16 -30 -29 -66 -29 -80 0 -14 -4 -25 -10 -25 -5 0 -10 -6 -10 -12 0 -7 -19
-29 -42 -48 -23 -19 -54 -47 -70 -62 -16 -16 -33 -28 -39 -28 -5 0 -12 -7 -15
-15 -4 -8 -15 -15 -25 -15 -11 0 -22 -6 -25 -14 -3 -8 -19 -18 -35 -21 -16 -4
-29 -11 -29 -16 0 -5 -19 -9 -42 -9 -24 0 -56 -7 -72 -15 -39 -21 -156 -21
-156 0 0 21 -78 20 -108 -1 -39 -27 -271 -5 -365 34 -16 7 -36 12 -45 12 -10
0 -32 14 -50 30 -18 17 -40 30 -48 30 -8 0 -14 4 -14 10 0 5 -11 12 -25 16
-26 6 -49 36 -38 48 3 3 16 6 28 6 12 0 43 20 69 45 27 25 51 45 55 45 3 0 14
16 24 36 12 24 17 59 17 115 l0 79 30 -5 c17 -3 40 0 51 6 25 13 30 9 31 -22
0 -13 6 -42 13 -64 7 -22 16 -57 20 -77 3 -21 10 -38 15 -38 6 0 10 -28 11
-62 2 -96 9 -113 49 -116 37 -3 58 12 158 110 41 40 44 41 76 30 40 -15 252
-16 261 -2 3 6 20 10 36 10 17 0 32 6 35 15 4 8 11 15 18 15 6 0 19 8 28 18
22 23 46 42 53 42 9 0 45 39 45 49 0 5 7 12 16 15 11 4 14 17 12 43 -2 31 -7
39 -27 41 -13 2 -28 -1 -34 -7 -6 -6 -24 -11 -39 -11 -15 0 -28 -4 -28 -10 0
-14 -179 -13 -221 1 -52 18 -69 37 -69 81 0 29 4 38 18 39 30 2 47 -2 57 -14
14 -16 52 -37 67 -37 18 0 88 33 88 42 0 4 6 8 13 8 19 0 57 46 57 68 0 12 5
24 10 27 18 11 10 41 -18 66 -56 48 -86 59 -166 59 -81 0 -129 -17 -181 -66
-14 -13 -28 -24 -31 -24 -8 0 -44 -40 -44 -50 0 -5 -7 -10 -15 -10 -8 0 -15
-7 -15 -15 0 -8 -5 -15 -10 -15 -6 0 -16 -12 -22 -27 -11 -28 -12 -28 -16 -5
-2 13 4 32 12 41 19 21 22 81 3 81 -21 0 -44 51 -51 114 -3 32 -10 66 -15 75
-5 9 -11 39 -14 67 -2 27 -10 61 -17 75 -7 13 -16 31 -20 39 -11 22 -172 27
-193 5 -9 -8 -22 -15 -30 -15 -8 0 -17 -6 -20 -13 -2 -7 -23 -22 -46 -32 -22
-11 -41 -25 -41 -31 0 -7 -7 -14 -15 -18 -8 -3 -15 -13 -15 -23 0 -10 -7 -27
-15 -37 -9 -12 -15 -42 -15 -72 0 -29 -4 -55 -9 -59 -5 -3 -13 -41 -17 -85 -3
-44 -10 -80 -14 -80 -4 0 -11 -24 -14 -52 -4 -29 -12 -58 -17 -65 -6 -6 -13
-80 -16 -162 -3 -83 -10 -151 -15 -151 -4 0 -8 9 -8 20 0 11 -7 20 -15 20 -8
0 -15 5 -15 10 0 9 -35 65 -50 80 -9 9 -30 44 -40 68 -5 12 -14 22 -19 22 -35
0 -37 418 -2 439 5 4 13 19 16 34 4 15 13 27 21 27 8 0 14 6 14 14 0 7 7 19
15 26 8 7 15 21 15 30 0 10 3 20 8 22 11 5 52 66 52 78 0 5 4 10 10 10 5 0 13
12 16 28 4 15 13 36 20 47 8 11 14 25 14 33 0 17 38 57 46 49 4 -4 19 -1 33 7
14 7 41 20 59 29 46 23 263 25 282 2 7 -8 28 -15 47 -15 21 0 36 6 39 15 4 8
10 15 15 15 9 0 27 14 79 63 25 23 30 36 30 73 l0 46 58 -5 c31 -2 86 -10 122
-16z m-3414 -1856 c10 -8 25 -15 32 -15 7 0 20 -7 28 -15 9 -8 27 -15 40 -15
14 0 35 -10 47 -23 12 -12 48 -35 80 -51 31 -16 57 -32 57 -37 0 -11 120 -129
131 -129 4 0 22 -13 39 -30 25 -24 39 -30 74 -30 27 0 48 6 56 15 7 8 19 15
26 15 8 0 14 7 14 15 0 9 9 15 25 15 15 0 25 -6 25 -14 0 -7 7 -19 15 -26 8
-7 15 -21 15 -31 0 -9 7 -24 15 -33 8 -8 15 -21 15 -29 0 -8 7 -20 15 -27 8
-7 15 -20 15 -29 0 -9 7 -29 15 -45 12 -22 16 -67 17 -177 2 -150 -4 -179 -39
-179 -7 0 -16 -7 -19 -15 -4 -8 -10 -15 -15 -15 -5 0 -18 -8 -28 -17 -56 -51
-87 -67 -97 -52 -4 7 -9 88 -12 181 -5 166 -5 169 -30 189 -14 11 -31 18 -39
15 -7 -3 -15 -1 -18 4 -4 6 -39 10 -79 10 -67 0 -76 -3 -122 -35 -27 -19 -53
-35 -58 -35 -13 0 -53 -46 -71 -81 -9 -16 -20 -29 -25 -29 -6 0 -10 -7 -10
-15 0 -8 -7 -15 -15 -15 -8 0 -15 -7 -15 -15 0 -8 -7 -15 -15 -15 -8 0 -15 -7
-15 -15 0 -16 -35 -20 -64 -9 -13 5 -3 19 42 63 57 57 58 59 71 139 26 158
-14 363 -76 391 -13 6 -23 15 -23 21 0 6 -51 10 -140 10 -89 0 -140 -4 -140
-10 0 -6 -10 -15 -22 -20 -13 -6 -36 -19 -53 -30 -16 -11 -40 -25 -52 -31 -13
-7 -23 -16 -23 -21 0 -4 -7 -8 -15 -8 -8 0 -15 -4 -15 -8 0 -5 -11 -14 -23
-21 -24 -13 -57 -73 -57 -104 0 -24 48 -53 63 -38 6 6 13 11 17 11 3 0 5 -123
6 -272 0 -175 4 -291 12 -323 7 -27 14 -66 17 -86 7 -46 43 -95 58 -80 6 6 21
11 33 11 13 0 29 6 36 13 7 7 27 21 43 31 37 24 75 58 75 69 0 5 8 19 17 31
l18 23 45 -25 c25 -14 49 -31 53 -38 5 -9 27 -14 57 -14 28 0 50 -4 50 -10 0
-5 14 -17 30 -25 24 -12 39 -14 68 -6 20 6 54 13 75 16 20 3 37 10 37 15 0 6
6 10 13 10 8 0 24 9 37 20 22 19 24 19 42 4 10 -10 18 -23 18 -31 0 -7 11 -18
24 -23 46 -17 131 8 178 53 10 9 25 17 33 17 8 0 15 5 15 10 0 6 6 10 14 10
17 0 10 -38 -11 -58 -7 -7 -13 -22 -13 -31 0 -10 -7 -24 -15 -31 -8 -7 -15
-21 -15 -31 0 -11 -4 -19 -10 -19 -5 0 -10 -6 -10 -14 0 -20 -50 -72 -77 -81
-13 -3 -23 -11 -23 -16 0 -5 -4 -9 -10 -9 -5 0 -19 -9 -30 -20 -11 -11 -27
-20 -35 -20 -8 0 -15 -4 -15 -10 0 -5 -12 -10 -27 -10 -16 0 -41 -7 -57 -15
-22 -12 -67 -15 -196 -15 -129 0 -174 3 -196 15 -16 8 -39 15 -50 15 -12 0
-27 7 -34 15 -7 8 -18 15 -25 15 -8 0 -26 7 -42 14 -15 8 -35 17 -43 20 -8 3
-22 10 -30 15 -47 27 -80 41 -96 41 -9 0 -37 20 -61 45 -23 25 -45 45 -47 45
-7 0 -76 69 -76 76 0 3 -20 26 -45 52 -25 25 -47 54 -51 64 -3 10 -10 18 -15
18 -5 0 -9 7 -9 15 0 8 -5 15 -10 15 -6 0 -15 10 -21 23 -15 33 -35 67 -48 80
-14 14 -16 367 -1 367 5 0 13 18 16 40 4 22 13 45 20 51 8 6 14 24 14 40 0 15
4 30 9 34 5 3 12 19 16 36 4 17 13 33 21 36 8 3 14 15 14 28 0 12 7 28 15 35
8 7 15 19 15 27 0 29 62 109 78 99 5 -3 15 1 22 9 7 8 20 15 30 15 10 0 20 7
24 15 3 8 16 15 30 15 14 0 31 7 40 15 8 8 28 15 43 15 16 0 38 7 49 15 28 21
292 21 320 0z m-129 -459 c20 -21 23 -36 25 -124 2 -56 0 -103 -3 -106 -3 -3
-22 0 -42 6 l-37 11 0 119 c0 106 2 118 18 118 9 0 27 -11 39 -24z m3249
-1548 c9 -7 23 -21 32 -30 10 -11 31 -18 55 -18 24 0 40 -5 43 -15 4 -8 11
-15 18 -15 7 0 29 -18 50 -40 21 -22 49 -43 62 -46 13 -3 24 -12 24 -19 0 -7
7 -15 15 -19 8 -3 15 -12 15 -20 0 -8 27 -37 60 -66 33 -29 60 -59 60 -68 0
-28 44 -82 66 -82 12 0 31 9 44 20 13 11 27 20 33 20 5 0 20 11 33 26 l24 25
12 -25 c6 -15 15 -26 20 -26 4 0 8 -8 8 -18 0 -10 7 -28 16 -40 14 -20 16 -59
15 -264 0 -146 -5 -245 -11 -253 -5 -6 -14 -40 -19 -75 -4 -35 -13 -66 -20
-68 -6 -2 -11 -15 -11 -28 0 -14 -7 -27 -15 -30 -8 -4 -15 -15 -15 -26 0 -11
-13 -40 -30 -65 -16 -24 -30 -51 -30 -59 0 -7 -4 -14 -10 -14 -5 0 -13 -12
-16 -27 -9 -33 -27 -53 -47 -53 -8 0 -20 -7 -27 -15 -7 -8 -19 -15 -28 -15 -8
0 -23 -6 -31 -14 -23 -21 -255 -25 -259 -4 -1 7 -15 21 -29 30 -26 15 -29 15
-82 -13 -45 -24 -63 -29 -93 -24 -21 4 -40 11 -44 16 -3 5 -20 9 -37 9 -18 0
-41 7 -51 15 -11 8 -31 15 -45 15 -14 0 -35 7 -45 15 -11 8 -27 15 -37 15 -9
0 -22 7 -29 15 -7 8 -21 15 -31 15 -9 0 -24 7 -33 15 -8 8 -17 15 -21 15 -7 0
-20 11 -88 72 -29 26 -60 54 -69 62 -10 9 -22 16 -28 16 -5 0 -10 4 -10 9 0 5
-17 20 -37 32 -45 27 -82 68 -83 90 0 9 -7 22 -15 29 -8 7 -15 21 -15 32 0 10
-7 32 -15 49 -13 24 -15 64 -12 232 4 199 21 335 46 360 6 6 11 24 11 39 0 15
4 28 10 28 5 0 13 12 16 28 6 24 89 111 107 112 4 0 16 9 27 20 11 11 27 20
35 20 8 0 15 5 15 10 0 6 12 10 28 10 15 0 40 7 56 15 15 8 36 15 46 15 10 0
25 7 34 15 8 8 21 15 28 15 8 0 23 7 34 15 25 19 297 22 320 3z m-206 -3028
c0 -5 3 -15 6 -24 5 -13 -1 -16 -29 -16 -20 0 -42 -7 -51 -15 -8 -8 -23 -15
-33 -15 -10 0 -31 -7 -47 -15 -15 -8 -37 -15 -47 -15 -23 0 -99 -39 -99 -51 0
-5 -6 -9 -14 -9 -7 0 -19 -7 -26 -15 -7 -8 -21 -15 -31 -15 -9 0 -24 -7 -33
-15 -8 -8 -19 -15 -24 -15 -8 0 -23 -11 -69 -50 -7 -5 -16 -10 -21 -10 -10 0
-44 -25 -83 -62 -16 -16 -32 -28 -36 -28 -10 0 -103 -98 -103 -109 0 -5 -3
-11 -7 -13 -12 -5 -53 -66 -53 -78 0 -5 -4 -10 -10 -10 -5 0 -12 -11 -16 -24
-3 -14 -12 -27 -20 -30 -8 -3 -14 -19 -14 -36 0 -16 -4 -30 -9 -30 -5 0 -12
-26 -16 -57 -3 -32 -11 -67 -18 -78 -7 -13 -13 -92 -15 -222 -4 -183 -2 -208
16 -265 44 -132 77 -216 91 -228 3 -3 22 -36 41 -74 19 -39 48 -84 65 -102 16
-18 48 -54 70 -80 79 -92 140 -147 191 -170 29 -13 60 -24 69 -24 9 0 23 -7
31 -15 9 -8 30 -15 47 -15 18 0 41 -7 51 -15 11 -8 38 -15 61 -15 23 0 47 -6
53 -12 8 -8 47 -14 99 -15 47 -1 88 -4 90 -6 2 -2 -1 -17 -7 -33 -7 -16 -10
-74 -9 -129 l3 -100 -285 2 c-238 1 -289 4 -314 17 -16 9 -40 16 -52 16 -12 0
-34 7 -50 14 -15 8 -35 17 -43 20 -8 3 -22 10 -30 15 -8 5 -22 12 -30 15 -16
6 -51 27 -60 36 -15 15 -71 50 -80 50 -5 0 -10 7 -10 15 0 8 -6 15 -13 15 -12
0 -137 124 -137 136 0 5 -40 64 -50 74 -3 3 -14 23 -25 45 -23 47 -57 99 -67
103 -5 2 -8 9 -8 15 0 6 -8 19 -17 30 -15 15 -19 42 -21 136 -2 64 1 148 8
186 6 39 16 124 21 190 5 66 13 127 18 136 5 9 12 37 16 63 4 25 11 46 16 46
4 0 11 16 15 35 3 19 12 39 20 46 8 6 14 21 14 33 0 11 7 30 15 40 8 11 15 28
15 38 0 10 4 18 10 18 5 0 13 12 16 27 4 15 13 34 21 41 7 7 13 22 13 33 0 10
5 19 10 19 6 0 10 7 10 15 0 8 9 24 20 35 11 11 20 25 20 30 0 6 7 10 15 10 8
0 15 7 15 15 0 8 7 15 15 15 8 0 15 5 15 11 0 6 25 35 55 65 30 31 55 58 55
61 0 13 135 133 149 133 5 0 14 7 21 15 7 8 21 15 31 15 11 0 19 6 19 13 0 6
17 19 38 28 20 8 54 23 75 32 21 9 46 17 57 17 10 0 21 4 25 9 7 13 110 61
129 61 8 0 18 5 21 10 3 6 14 10 23 10 9 0 29 6 44 14 15 8 40 17 57 21 17 4
31 10 31 15 0 10 48 18 68 12 6 -2 12 -8 12 -12z m-20 -280 c0 -10 8 -23 18
-29 9 -5 87 -9 172 -9 116 -1 165 -5 192 -17 22 -9 68 -15 110 -15 72 -1 167
-25 191 -49 6 -6 17 -11 24 -11 7 0 13 -4 13 -10 0 -5 15 -24 33 -42 18 -18
48 -54 66 -80 19 -27 38 -48 43 -48 4 0 8 -4 8 -10 0 -5 8 -19 18 -29 34 -38
42 -50 42 -64 0 -8 7 -20 15 -27 8 -7 15 -19 15 -27 0 -7 7 -16 15 -19 8 -4
15 -13 15 -21 0 -8 7 -27 15 -43 41 -80 20 -555 -31 -667 -8 -17 -14 -38 -14
-47 0 -9 -7 -19 -15 -22 -8 -4 -15 -13 -15 -20 0 -16 -6 -25 -57 -79 -18 -20
-33 -40 -33 -46 0 -15 -26 -39 -43 -39 -8 0 -20 -7 -27 -15 -7 -8 -22 -15 -34
-15 -12 0 -31 -7 -42 -15 -10 -8 -28 -15 -39 -15 -11 0 -29 -6 -40 -14 -11 -7
-37 -16 -57 -20 -20 -4 -38 -11 -40 -17 -2 -7 -86 -10 -246 -10 -201 0 -246 3
-265 16 -12 8 -38 15 -57 15 -20 0 -40 4 -46 9 -5 4 -27 13 -49 19 -51 13
-106 34 -123 47 -29 22 -82 77 -82 86 0 5 -20 29 -45 55 -48 48 -57 74 -27 74
23 0 132 100 132 121 0 8 4 19 9 24 5 6 11 47 13 92 3 46 7 85 10 88 2 3 19 0
37 -6 19 -7 62 -9 101 -7 38 3 72 2 77 -1 12 -9 43 -105 43 -133 0 -13 7 -33
15 -44 8 -11 14 -42 15 -74 0 -30 7 -75 15 -100 8 -25 17 -57 20 -72 6 -32 48
-48 74 -29 9 6 27 16 41 21 14 6 49 42 77 81 51 67 53 73 51 130 -2 61 9 89
18 52 12 -46 127 -69 188 -38 15 8 34 15 41 15 7 0 18 7 25 15 7 8 23 15 37
15 13 0 26 7 29 15 4 8 11 15 18 15 14 0 49 33 95 89 19 22 38 41 43 41 13 0
48 34 48 47 0 7 4 13 10 13 5 0 12 11 16 24 3 14 12 27 20 30 8 3 14 15 14 26
0 11 5 20 10 20 14 0 12 54 -2 68 -17 17 -33 15 -81 -8 -48 -22 -77 -43 -77
-55 0 -5 -7 -15 -15 -24 -8 -9 -23 -26 -35 -38 -11 -13 -20 -29 -20 -36 0 -21
-52 -64 -87 -72 -60 -12 -71 -2 -75 73 -3 72 7 93 50 106 12 4 22 12 22 17 0
5 7 9 16 9 37 0 125 67 150 115 26 51 9 107 -26 85 -8 -6 -25 -10 -37 -10 -12
0 -28 -7 -37 -15 -8 -8 -21 -15 -30 -15 -8 0 -21 -6 -28 -13 -7 -7 -26 -19
-43 -27 -16 -8 -32 -16 -35 -17 -3 -2 -5 65 -5 148 0 141 -1 152 -20 165 -17
11 -25 11 -49 -1 -16 -8 -32 -15 -38 -15 -8 0 -27 -19 -103 -101 -11 -12 -15
-43 -15 -128 0 -92 -3 -112 -14 -108 -7 3 -26 -1 -41 -9 -39 -20 -85 -18 -87
4 0 9 -2 22 -2 28 -1 6 -6 18 -12 25 -7 8 -15 29 -19 47 -3 17 -10 32 -15 32
-5 0 -11 13 -15 30 -4 16 -11 32 -16 35 -5 4 -9 17 -9 29 0 13 -7 29 -15 36
-8 7 -15 21 -15 31 0 11 -5 19 -11 19 -5 0 -15 14 -20 30 -6 17 -15 30 -20 30
-5 0 -9 24 -9 53 0 28 -7 60 -14 70 -14 18 -61 23 -71 7 -3 -5 -15 -10 -26
-10 -10 0 -19 -4 -19 -9 0 -4 -19 -21 -42 -37 -24 -16 -44 -32 -46 -36 -2 -5
-8 -8 -13 -8 -14 0 -109 -73 -109 -83 0 -5 -7 -15 -16 -24 -9 -9 -14 -28 -12
-47 3 -28 7 -31 39 -34 l35 -3 -10 -72 c-5 -40 -12 -74 -16 -77 -4 -3 -11 -24
-15 -47 -3 -23 -13 -47 -21 -54 -8 -6 -14 -22 -14 -36 0 -13 -7 -26 -15 -29
-8 -4 -15 -18 -15 -33 0 -14 -7 -35 -15 -45 -8 -11 -15 -31 -15 -45 0 -14 -7
-35 -15 -45 -8 -11 -15 -29 -15 -41 0 -12 -5 -26 -10 -31 -6 -6 -13 -47 -17
-92 l-6 -82 -53 108 c-30 59 -54 116 -54 126 0 11 -7 27 -15 36 -22 24 -40
346 -25 441 5 37 10 84 10 103 0 20 4 36 10 36 5 0 12 16 16 35 3 19 12 39 20
46 8 6 14 18 14 26 0 14 8 26 43 64 9 10 17 21 17 24 0 14 43 44 113 78 42 21
77 43 77 48 0 5 10 9 23 9 12 0 35 7 51 15 15 8 43 15 61 15 18 0 38 7 45 15
9 11 33 15 86 15 67 0 74 -2 74 -20z m3177 -1397 c39 -18 153 -140 153 -163 0
-6 7 -10 15 -10 8 0 15 -4 15 -10 0 -13 37 -50 50 -50 6 0 10 -5 10 -12 0 -6
7 -19 16 -29 14 -16 16 -60 15 -370 -1 -194 -5 -357 -10 -363 -5 -6 -12 -48
-16 -93 -4 -46 -11 -83 -15 -83 -4 0 -11 -12 -14 -26 -4 -15 -12 -32 -19 -39
-7 -7 -21 -25 -31 -39 -10 -14 -25 -26 -32 -26 -8 0 -14 -4 -14 -9 0 -5 -8
-11 -17 -15 -10 -3 -25 -9 -33 -14 -47 -27 -84 -42 -105 -42 -13 0 -30 -7 -39
-15 -8 -8 -24 -15 -36 -15 -11 0 -23 -7 -26 -15 -4 -8 -12 -15 -20 -15 -19 0
-94 -40 -94 -50 0 -5 -10 -12 -22 -16 -13 -4 -25 -10 -28 -14 -8 -12 -19 -12
-237 -11 -173 1 -203 3 -203 16 0 8 -6 15 -12 15 -7 0 -29 14 -48 31 -19 17
-50 44 -68 60 -19 16 -38 29 -43 29 -5 0 -9 4 -9 9 0 4 -19 21 -42 36 -49 33
-61 47 -105 128 l-33 60 0 267 c0 208 3 278 15 316 8 27 15 66 15 86 0 20 4
39 9 42 5 3 12 17 15 32 4 14 17 35 30 47 12 12 25 30 29 40 3 9 13 17 22 17
8 0 15 5 15 10 0 6 6 10 14 10 8 0 16 6 19 13 2 7 23 22 46 32 22 11 41 26 41
33 0 6 6 12 13 12 7 0 20 8 29 18 28 29 47 42 62 42 7 0 16 7 20 15 3 8 16 15
29 15 14 0 30 7 37 15 6 7 32 17 56 21 24 3 47 10 50 15 3 5 78 9 167 9 155 0
164 1 207 25 25 14 53 28 63 32 9 3 17 10 17 15 0 10 28 3 77 -19z m-3069
-1792 c84 -1 102 -4 102 -16 0 -8 7 -15 15 -15 8 0 23 -8 34 -17 39 -38 83
-73 91 -73 5 0 10 -4 12 -9 2 -5 24 -25 51 -45 66 -50 119 -50 173 -1 22 19
42 35 47 35 4 0 7 5 7 10 0 6 9 20 19 32 l20 21 33 -28 c29 -25 78 -95 94
-135 5 -15 17 -43 48 -113 9 -21 16 -43 16 -50 0 -7 10 -30 21 -52 19 -35 22
-54 20 -155 -3 -163 -11 -241 -27 -264 -8 -11 -14 -28 -14 -37 0 -9 -7 -22
-15 -29 -8 -7 -15 -23 -15 -35 0 -21 -15 -58 -42 -105 -5 -8 -11 -23 -14 -32
-4 -10 -10 -18 -15 -18 -5 0 -9 -6 -9 -13 0 -7 -19 -29 -41 -48 -23 -19 -48
-40 -55 -46 -7 -7 -17 -13 -23 -13 -6 0 -11 -7 -11 -15 0 -22 -516 -22 -546 0
-10 8 -32 15 -47 15 -16 0 -35 7 -43 15 -9 8 -32 15 -52 15 -20 0 -46 7 -56
15 -11 8 -36 15 -57 15 -20 0 -42 6 -48 14 -6 7 -23 14 -37 14 -15 0 -29 4
-33 8 -3 5 -19 16 -35 24 -56 29 -66 35 -66 42 0 5 9 8 19 8 11 0 26 7 35 15
12 12 46 15 180 15 133 0 167 3 180 15 8 8 26 15 41 15 14 0 28 7 31 15 4 8
14 15 24 15 10 0 23 7 30 15 7 8 19 15 26 15 8 0 14 7 14 15 0 8 7 15 15 15 8
0 15 4 15 9 0 14 46 62 52 55 3 -2 3 -25 0 -49 -6 -61 6 -152 24 -170 17 -17
70 -20 79 -5 3 6 17 10 29 10 13 0 29 7 36 15 7 8 21 15 31 15 11 0 19 7 19
15 0 8 7 15 15 15 8 0 15 4 15 8 0 5 19 23 43 40 61 43 107 93 107 114 0 10 4
18 9 18 15 0 23 57 11 79 -8 17 -21 21 -56 21 -30 0 -46 -5 -50 -15 -4 -8 -12
-15 -19 -15 -7 0 -20 -10 -28 -22 -15 -22 -16 -17 -17 72 -1 52 -4 113 -8 135
-7 37 -10 40 -45 43 -21 2 -37 -1 -37 -7 0 -6 -7 -11 -15 -11 -9 0 -40 -25
-69 -55 -54 -54 -66 -56 -66 -8 0 19 -62 85 -75 79 -14 -5 -49 21 -37 28 6 3
6 23 1 48 -4 24 -8 61 -9 83 0 22 -7 53 -15 69 -8 15 -15 35 -15 43 0 34 -75
133 -101 133 -8 0 -23 7 -33 15 -29 22 -294 22 -302 0 -4 -8 -15 -15 -25 -15
-10 0 -19 -5 -19 -10 0 -6 -8 -14 -17 -17 -9 -4 -24 -14 -33 -22 -10 -9 -31
-27 -49 -41 -17 -14 -31 -30 -31 -37 0 -7 -4 -13 -9 -13 -12 0 -22 -57 -15
-86 5 -20 13 -24 41 -24 l36 0 -42 -45 c-38 -42 -41 -48 -41 -102 0 -32 5 -76
11 -98 11 -42 24 -161 32 -307 4 -77 3 -86 -12 -81 -24 9 -58 51 -78 94 -9 22
-20 39 -25 39 -4 0 -8 9 -8 19 0 11 -7 26 -15 35 -12 12 -15 45 -15 169 0 115
4 164 15 190 8 20 15 46 15 57 0 12 7 28 15 36 8 9 15 26 15 38 0 13 7 29 15
36 8 7 15 20 15 30 0 10 7 23 15 30 8 7 15 21 15 31 0 11 5 19 11 19 13 0 77
70 85 93 3 9 10 17 15 17 5 0 9 7 9 15 0 8 7 15 15 15 8 0 15 6 15 13 0 33
101 53 255 50 55 -1 146 -2 203 -2z m-257 -354 c36 -32 57 -68 59 -108 6 -72
9 -69 -90 -69 -89 0 -90 0 -90 24 0 14 -4 28 -10 31 -5 3 -10 33 -10 66 0 60
-4 65 -47 60 -7 -1 -13 3 -13 9 0 6 33 10 88 10 75 -1 90 -4 113 -23z m1 -402
c-4 -37 16 -56 52 -48 36 8 86 33 86 43 0 6 16 10 35 10 32 0 35 -2 35 -29 0
-17 5 -33 11 -37 24 -15 -19 -24 -111 -23 -125 2 -144 7 -172 49 -34 50 -30
64 17 70 22 3 42 4 45 2 2 -2 3 -18 2 -37z"/>
<path d="M4241 17653 c-13 -3 -36 -18 -52 -34 -16 -16 -33 -29 -39 -29 -5 0
-10 -7 -10 -15 0 -8 -4 -15 -9 -15 -5 0 -19 -15 -30 -34 -20 -31 -21 -48 -21
-279 0 -194 3 -248 13 -254 8 -4 22 -23 32 -40 11 -18 25 -33 31 -33 7 0 14
-6 17 -14 7 -18 52 -27 161 -33 56 -3 92 -1 99 6 6 6 21 11 33 11 13 0 29 7
38 15 8 8 21 15 29 15 8 0 20 7 27 15 7 8 16 15 21 15 5 0 18 8 28 18 39 34
50 42 66 42 8 0 15 7 15 15 0 8 7 15 15 15 8 0 15 7 15 15 0 8 6 15 13 15 6 0
21 19 32 43 11 23 24 45 30 49 5 4 11 82 13 179 4 139 1 179 -10 203 -9 17
-20 43 -26 59 -7 16 -19 27 -30 27 -28 0 -82 -21 -82 -31 0 -5 -5 -9 -11 -9
-17 0 -119 -106 -119 -124 0 -9 -4 -16 -10 -16 -22 0 -8 -28 19 -39 46 -20 54
-46 49 -172 -5 -154 -9 -159 -115 -159 -78 0 -83 1 -112 31 -17 17 -31 37 -31
45 0 8 -7 14 -16 14 -14 0 -15 13 -10 108 19 325 19 355 0 369 -18 13 -22 14
-63 6z"/>
<path d="M4251 13785 c-13 -7 -39 -27 -57 -44 -18 -17 -36 -31 -41 -31 -18 0
-74 -106 -66 -127 3 -7 9 -13 15 -13 5 0 8 -112 6 -290 l-3 -290 31 0 c17 0
41 9 54 20 13 11 29 20 37 20 7 0 13 5 13 10 0 6 5 10 12 10 6 0 26 17 45 38
l33 37 0 107 c0 60 4 110 10 113 7 4 10 -61 10 -188 0 -152 3 -196 13 -200 19
-7 70 3 82 17 6 7 33 29 62 49 126 88 178 177 113 194 -19 5 -20 14 -20 175 0
98 -4 178 -10 189 -14 25 -104 28 -114 4 -3 -8 -10 -15 -16 -15 -10 0 -69 -38
-80 -51 -3 -4 -15 -9 -27 -13 -23 -7 -23 -7 -23 109 0 64 4 125 10 135 24 45
-31 66 -89 35z"/>
<path d="M7113 8523 c-13 -2 -23 -9 -23 -14 0 -5 -10 -9 -22 -9 -13 0 -36 -7
-52 -15 -15 -8 -32 -15 -37 -15 -4 0 -29 -20 -56 -45 -26 -25 -55 -48 -65 -51
-10 -3 -18 -10 -18 -15 0 -5 -7 -9 -15 -9 -8 0 -15 -7 -15 -16 0 -9 -8 -23
-17 -30 -16 -11 -18 -30 -16 -171 2 -120 5 -160 16 -168 20 -15 41 -166 38
-276 -4 -145 19 -206 65 -175 11 7 31 16 47 20 15 3 27 11 27 16 0 6 7 10 15
10 8 0 15 7 15 15 0 8 7 15 15 15 8 0 15 7 15 15 0 8 6 15 13 15 6 0 20 17 30
38 15 30 18 61 17 162 -1 69 -1 130 -1 136 1 6 11 9 25 7 13 -3 27 0 30 6 4 6
19 11 34 11 15 0 35 8 43 18 9 9 29 29 45 44 56 51 72 85 56 115 -9 15 -26 17
-151 14 -136 -3 -141 -2 -141 17 0 12 -7 27 -15 36 -18 18 -20 86 -2 86 6 1
66 2 131 3 85 1 121 6 124 15 2 6 12 12 22 12 11 0 32 13 48 28 16 16 37 32
46 35 9 4 21 19 27 34 6 15 15 35 20 44 5 12 2 22 -10 33 -14 13 -41 16 -152
15 -74 -1 -144 -4 -156 -6z"/>
<path d="M7755 8090 c-3 -5 -22 -10 -41 -10 -21 0 -37 -6 -40 -14 -3 -8 -16
-17 -30 -20 -13 -4 -24 -11 -24 -16 0 -6 -4 -10 -10 -10 -5 0 -18 -8 -28 -17
-10 -10 -29 -25 -42 -33 -12 -8 -28 -21 -36 -27 -7 -7 -17 -13 -23 -13 -6 0
-11 -7 -11 -15 0 -8 -6 -15 -12 -15 -18 0 -90 -69 -116 -111 -20 -34 -22 -48
-22 -202 l0 -165 29 -7 c22 -5 38 0 63 17 18 13 35 26 36 31 2 4 9 7 16 7 17
0 76 69 76 89 0 9 5 22 11 28 17 17 25 209 9 228 -8 10 -9 15 -1 15 6 0 11 6
11 13 0 16 55 44 103 53 20 3 37 10 37 15 0 5 7 9 15 9 8 0 24 8 34 18 11 9
33 28 50 42 24 19 31 32 31 60 0 20 -5 41 -12 48 -15 15 -64 16 -73 2z"/>
<path d="M9676 3655 c-8 -8 -21 -15 -28 -15 -8 0 -23 -7 -34 -15 -10 -8 -27
-15 -37 -15 -10 0 -20 -7 -23 -15 -4 -8 -14 -15 -24 -15 -10 0 -20 -7 -24 -15
-3 -8 -14 -15 -24 -15 -10 0 -27 -7 -38 -15 -10 -8 -27 -15 -36 -15 -9 0 -32
-16 -51 -35 -19 -19 -39 -35 -46 -35 -6 0 -11 -6 -11 -14 0 -7 -7 -19 -15 -26
-20 -16 -19 -60 1 -75 20 -14 106 -3 112 14 2 6 9 11 16 11 8 0 13 -20 14 -59
1 -32 6 -71 12 -85 13 -36 13 -56 -2 -56 -17 0 -100 -77 -115 -108 -18 -34
-16 -66 5 -85 19 -17 90 -26 110 -13 18 11 15 -39 -3 -54 -18 -15 -20 -96 -3
-137 6 -15 14 -48 17 -73 5 -38 10 -46 30 -48 51 -8 164 70 199 136 14 26 18
137 6 173 -4 13 8 21 53 35 32 9 65 23 74 31 8 7 20 13 26 13 6 0 14 10 18 23
4 13 8 17 11 10 3 -7 -8 -33 -25 -58 -17 -25 -31 -50 -31 -54 0 -5 -6 -14 -14
-20 -16 -13 -28 -125 -20 -185 7 -50 33 -70 104 -81 54 -8 200 9 209 24 4 6
19 12 34 13 15 1 27 8 27 14 0 7 14 15 30 19 17 4 30 11 30 16 0 5 4 9 10 9
12 0 80 68 80 80 0 6 5 10 10 10 15 0 50 38 50 54 0 7 7 27 15 42 8 16 15 45
15 64 0 20 5 41 10 46 6 6 11 44 12 85 3 87 -12 116 -73 148 -50 26 -189 30
-209 6 -7 -8 -18 -15 -24 -15 -11 0 -86 -65 -86 -74 0 -10 -40 -46 -50 -46 -5
0 -10 -7 -10 -15 0 -8 -7 -15 -15 -15 -8 0 -15 -7 -15 -15 0 -8 -4 -15 -10
-15 -15 0 -12 11 8 33 15 17 17 40 15 189 -1 135 -5 174 -17 193 -9 14 -16 33
-16 43 0 11 -19 40 -43 66 -43 46 -44 46 -109 46 -46 0 -71 -5 -82 -15z m494
-661 c0 -118 -12 -134 -95 -134 -43 0 -56 4 -65 19 -13 25 -13 91 0 91 5 0 13
18 16 39 3 22 18 52 34 69 26 29 30 30 69 20 l41 -10 0 -94z"/>
<path d="M7570 1945 c-7 -8 -16 -15 -21 -15 -12 0 -49 -37 -49 -49 0 -5 -7
-11 -15 -15 -9 -3 -15 -18 -15 -39 0 -18 -4 -37 -10 -43 -12 -12 -16 -76 -6
-92 14 -23 76 -14 116 18 21 17 43 30 49 30 6 0 11 7 11 15 0 8 7 15 15 15 8
0 15 7 15 16 0 8 7 22 15 30 15 16 21 97 9 128 -8 22 -96 22 -114 1z"/>
<path d="M575 19236 c-57 -32 -125 -100 -125 -124 0 -12 -4 -24 -10 -27 -12
-7 -14 -97 -2 -110 4 -6 5 -138 2 -295 -3 -157 -2 -293 3 -302 12 -27 59 -22
104 11 48 35 93 79 93 90 0 5 6 11 14 14 8 3 16 23 18 44 l4 38 11 -27 c7 -14
16 -29 22 -32 5 -3 12 -20 16 -36 4 -17 11 -30 16 -30 5 0 9 -7 9 -16 0 -8 11
-35 25 -58 26 -45 79 -72 106 -55 8 5 23 9 33 9 19 0 116 93 116 111 0 5 5 9
10 9 6 0 10 -41 11 -102 0 -57 4 -125 7 -153 l7 -50 50 3 c30 2 53 9 58 18 4
8 15 14 22 14 8 0 15 5 15 10 0 6 12 22 27 36 15 14 36 38 45 52 22 33 24 90
4 98 -12 5 -11 9 5 25 10 10 26 19 34 19 9 0 18 7 21 15 4 8 11 15 18 15 7 0
23 13 36 30 14 16 28 29 33 30 8 0 47 38 47 46 0 3 7 12 15 20 21 21 21 147 0
164 -8 7 -15 20 -15 29 0 10 -15 31 -33 49 l-33 32 -121 0 c-95 0 -123 -3
-133 -15 -7 -8 -18 -15 -24 -15 -7 0 -23 -13 -36 -30 -14 -16 -29 -29 -33 -30
-4 0 -7 100 -7 221 1 147 -2 224 -9 228 -18 11 -82 0 -88 -15 -3 -8 -11 -14
-19 -14 -8 0 -33 -20 -56 -45 l-43 -45 -5 -121 -5 -121 -44 61 c-25 33 -48 61
-53 61 -4 0 -8 7 -8 15 0 8 -4 15 -8 15 -22 0 -47 79 -52 165 -5 87 -6 90 -30
92 -14 1 -43 -8 -65 -21z"/>
<path d="M1658 17833 c-16 -2 -28 -11 -28 -19 0 -8 -7 -14 -15 -14 -8 0 -15
-5 -15 -11 0 -11 -22 -34 -63 -68 -15 -12 -19 -12 -32 5 -11 16 -25 19 -90 17
-72 -1 -78 -3 -123 -39 -74 -60 -92 -78 -92 -94 0 -8 -7 -24 -15 -34 -8 -11
-15 -39 -15 -62 0 -23 -7 -58 -15 -77 -21 -51 -19 -198 3 -257 l17 -45 55 -3
c40 -2 66 2 97 18 24 12 43 25 43 29 0 4 18 16 40 27 22 10 40 22 40 27 0 4 5
7 10 7 6 0 10 -16 10 -35 0 -20 7 -52 15 -72 8 -19 15 -52 15 -72 0 -73 7 -81
65 -81 38 0 55 4 59 15 3 8 11 15 18 15 19 1 60 40 86 81 26 43 28 85 5 111
-9 10 -20 40 -24 66 -5 26 -13 73 -18 105 -5 32 -15 65 -22 73 -15 18 -16 133
-2 143 6 3 14 21 18 39 4 18 13 45 21 60 8 15 14 37 14 49 0 12 5 25 10 28 17
11 11 54 -9 65 -11 5 -23 9 -28 9 -4 -1 -20 -4 -35 -6z"/>
<path d="M3165 16173 c-11 -3 -24 -9 -30 -13 -5 -4 -22 -10 -37 -14 -16 -3
-28 -11 -28 -16 0 -6 -7 -10 -15 -10 -9 0 -18 -7 -21 -15 -4 -8 -12 -15 -20
-15 -8 0 -14 -4 -14 -9 0 -6 -11 -22 -25 -37 -32 -34 -32 -69 -1 -89 19 -13
29 -14 45 -6 11 6 40 11 64 11 27 0 49 6 57 15 7 8 17 15 22 15 5 0 22 14 38
30 16 17 32 30 35 30 26 0 60 83 48 118 -5 12 -76 15 -118 5z"/>
<path d="M2700 16046 c-56 -30 -97 -46 -128 -52 -18 -4 -35 -11 -38 -15 -3 -5
-16 -9 -30 -9 -14 0 -27 -7 -30 -15 -4 -8 -12 -15 -20 -15 -7 0 -17 -6 -21
-14 -4 -7 -25 -25 -46 -39 -58 -40 -79 -71 -75 -114 2 -31 7 -39 26 -41 24 -4
102 27 102 40 0 4 7 8 15 8 21 0 19 -4 -20 -47 l-35 -38 1 -104 c1 -57 5 -118
9 -135 5 -17 11 -64 14 -103 5 -61 4 -73 -9 -73 -8 0 -15 -7 -15 -16 0 -8 -7
-22 -15 -30 -8 -9 -15 -28 -15 -44 0 -21 6 -29 25 -34 22 -6 24 -10 19 -33
-10 -37 -10 -104 -2 -125 8 -19 68 -26 68 -8 0 6 7 10 15 10 15 0 61 29 96 60
19 17 59 89 59 107 0 6 14 14 30 18 17 4 30 10 30 15 0 5 14 11 30 15 17 4 30
11 30 16 0 5 6 9 13 9 20 0 126 104 148 145 15 28 19 56 19 146 0 112 -15 172
-47 192 -7 5 -13 26 -13 51 0 23 -7 51 -15 62 -8 10 -15 39 -15 64 -1 119 -25
160 -93 160 -23 0 -53 -6 -67 -14z"/>
<path d="M4837 16033 c-16 -2 -31 -11 -34 -19 -3 -8 -11 -14 -18 -14 -17 0
-105 -100 -105 -120 0 -8 -7 -24 -15 -34 -23 -31 -21 -313 2 -358 19 -38 70
-68 113 -68 16 0 35 -7 44 -15 8 -8 19 -15 24 -15 5 0 15 -7 22 -15 7 -9 29
-15 51 -15 37 0 38 -1 35 -29 -4 -34 26 -108 52 -127 19 -15 62 -19 62 -5 0 5
14 11 31 15 18 3 42 17 55 31 13 14 26 25 29 25 4 0 15 10 26 23 23 28 27 107
4 107 -11 0 -15 12 -16 48 -1 26 -1 50 0 54 0 4 -6 26 -14 49 -14 37 -14 45 0
65 8 13 15 34 15 47 0 14 7 30 15 37 8 7 15 20 15 30 0 10 7 31 15 46 8 16 15
39 15 52 0 12 4 22 9 22 5 0 12 15 16 33 3 17 11 42 18 55 17 36 -2 58 -49 55
-22 -2 -40 -7 -42 -13 -2 -5 -8 -10 -14 -10 -13 0 -76 -66 -108 -113 -27 -39
-40 -47 -40 -22 0 8 -4 15 -9 15 -5 0 -21 20 -35 45 -15 25 -31 45 -35 45 -5
0 -12 10 -15 23 -15 54 -58 79 -119 70z"/>
<path d="M5090 12475 c-7 -8 -17 -15 -22 -15 -5 0 -22 -13 -38 -30 -16 -16
-34 -30 -40 -30 -5 0 -10 -6 -10 -14 0 -7 -7 -19 -15 -26 -8 -7 -15 -23 -15
-36 0 -12 -4 -26 -10 -29 -5 -3 -10 -1 -10 4 0 6 -7 11 -15 11 -8 0 -15 5 -15
12 0 6 -10 27 -22 45 -20 28 -29 33 -63 33 -44 0 -62 -10 -132 -77 -24 -24
-48 -43 -54 -43 -5 0 -9 -6 -9 -12 -1 -7 -14 -24 -30 -38 -17 -13 -30 -28 -30
-32 0 -9 -11 -24 -42 -59 -10 -10 -18 -23 -18 -28 0 -5 -7 -11 -15 -15 -8 -3
-15 -13 -15 -23 0 -10 -7 -38 -16 -63 -17 -48 -13 -117 8 -168 16 -37 76 -96
123 -121 35 -19 41 -19 62 -6 12 8 29 15 38 15 9 0 18 7 21 15 4 8 15 15 25
15 10 0 19 7 19 15 0 8 6 15 14 15 8 0 16 7 20 15 7 18 28 20 24 3 -3 -17 22
-109 35 -125 15 -21 75 -15 110 10 18 12 34 25 35 30 2 4 10 7 18 7 8 0 14 5
14 11 0 7 8 17 17 24 15 11 17 28 14 126 -7 211 -6 225 12 243 9 10 17 26 17
35 0 10 7 24 15 31 8 7 15 23 15 35 0 13 7 25 15 29 8 3 15 18 15 32 0 15 7
35 15 44 21 23 24 128 5 140 -22 14 -56 12 -70 -5z"/>
<path d="M6285 10863 c-16 -3 -34 -9 -39 -14 -6 -5 -27 -9 -48 -9 -41 0 -81
-18 -139 -62 -33 -26 -43 -28 -126 -28 -102 0 -97 2 -211 -107 -30 -29 -59
-53 -64 -53 -5 0 -11 -7 -14 -15 -4 -8 -12 -15 -20 -15 -8 0 -14 -9 -14 -20 0
-11 -5 -20 -11 -20 -6 0 -9 -14 -7 -32 2 -26 8 -34 27 -36 13 -2 28 1 34 7 6
6 19 11 29 11 10 0 21 7 24 15 4 8 12 15 20 15 8 0 14 5 14 10 0 22 41 50 73
50 32 0 48 -12 75 -58 11 -20 10 -22 -9 -22 -13 0 -44 -24 -80 -60 -67 -69
-78 -103 -59 -183 6 -29 16 -94 21 -146 5 -52 13 -110 19 -130 5 -20 10 -69
10 -109 0 -97 10 -116 58 -107 48 9 148 99 159 145 3 14 9 30 14 36 5 5 6 21
4 35 -4 20 2 28 32 44 39 21 73 49 148 124 l45 44 0 81 c0 60 -4 88 -17 106
-24 34 -51 60 -63 60 -6 0 -10 37 -10 90 0 74 -3 91 -17 99 -14 8 -2 11 47 12
36 1 70 1 76 0 6 -1 17 6 24 14 7 8 18 15 26 15 17 0 75 58 91 91 28 58 20 93
-22 101 -11 2 -19 10 -17 16 2 12 -22 13 -83 5z"/>
<path d="M8180 10398 c-19 -13 -36 -26 -38 -30 -2 -5 -10 -8 -18 -8 -8 0 -17
-7 -20 -15 -4 -8 -12 -15 -20 -15 -8 0 -14 -6 -14 -14 0 -7 -7 -19 -15 -26
-10 -8 -15 -31 -15 -71 0 -33 -4 -59 -10 -59 -5 0 -10 11 -10 25 0 16 -6 25
-15 25 -8 0 -15 5 -15 11 0 6 -16 26 -35 45 -34 33 -39 34 -110 34 -41 0 -75
-4 -75 -9 0 -6 -18 -20 -41 -33 -26 -14 -52 -42 -75 -79 -32 -53 -34 -62 -34
-146 0 -49 6 -113 14 -143 7 -30 17 -76 20 -102 4 -26 11 -50 17 -53 5 -4 9
-13 9 -21 0 -15 29 -60 63 -99 15 -16 29 -20 83 -19 59 2 67 4 101 38 42 41
53 44 60 17 7 -28 46 -46 71 -32 11 6 29 11 39 11 10 0 43 27 73 61 42 46 56
70 61 102 8 50 -3 75 -36 83 -14 3 -25 12 -25 19 0 7 -5 15 -11 17 -9 3 -8 18
1 56 8 29 17 52 21 52 4 0 10 13 14 29 3 16 13 35 21 42 8 6 14 20 14 30 0 11
4 19 10 19 5 0 12 12 16 28 3 15 13 46 21 69 22 59 13 141 -17 165 -28 23 -37
23 -80 -4z"/>
<path d="M7930 6835 c-7 -8 -18 -15 -24 -15 -21 0 -106 -92 -106 -115 0 -11
-5 -26 -11 -32 -7 -7 -9 -57 -6 -149 5 -143 19 -240 37 -258 5 -5 10 -20 10
-31 0 -12 9 -30 20 -40 27 -25 142 -26 169 -1 29 26 48 20 55 -18 4 -19 13
-40 21 -46 18 -15 98 -7 103 9 2 6 9 11 15 11 23 0 103 85 116 123 11 32 10
39 -4 54 -49 49 -87 153 -55 153 5 0 13 12 16 27 4 15 13 34 21 41 7 7 13 22
13 33 0 11 7 27 15 35 19 19 21 134 3 152 -7 7 -22 12 -33 12 -27 0 -85 -28
-85 -41 0 -5 -7 -9 -15 -9 -8 0 -15 -6 -15 -14 0 -7 -9 -16 -21 -19 -15 -4
-22 1 -29 18 -5 13 -33 49 -63 79 -48 50 -58 56 -94 56 -24 0 -46 -6 -53 -15z"/>
<path d="M9631 1219 c-55 -30 -111 -86 -117 -118 -4 -17 -11 -31 -16 -31 -5 0
-7 -69 -6 -157 l3 -158 33 -3 c26 -3 43 5 80 35 66 53 77 66 96 104 19 39 31
209 19 283 -7 41 -12 51 -33 56 -17 5 -37 1 -59 -11z"/>
<path d="M9606 652 c-36 -21 -66 -49 -66 -61 0 -5 -7 -11 -15 -15 -8 -3 -15
-10 -15 -16 0 -6 -7 -18 -15 -26 -9 -10 -15 -34 -15 -63 0 -26 -4 -51 -10 -57
-5 -5 -10 -31 -11 -57 -3 -59 19 -89 51 -69 11 6 27 12 35 12 9 0 18 7 21 15
4 8 12 15 20 15 8 0 14 6 14 13 0 8 16 27 35 43 19 16 35 36 35 46 0 9 6 18
13 20 18 7 24 198 6 209 -21 13 -51 10 -83 -9z"/>
<path d="M9574 133 c-22 -4 -124 -105 -124 -123 0 -5 24 -10 53 -10 39 0 60 5
77 20 32 28 52 70 45 97 -5 23 -10 24 -51 16z"/>
</g>
</svg>
