<svg viewBox="0 0 348.48 638.4" xmlns="http://www.w3.org/2000/svg"><path d="M305.46 632.92c.12-1.428.42-2.99.67-3.473.683-1.32 2.677-2.943 3.477-2.829.64.091.686.271.651 2.55-.029 1.935-.187 2.698-.75 3.608-.892 1.443-2.562 2.74-3.529 2.74-.725 0-.732-.038-.519-2.596zm-79.484-11.344a490.21 490.21 0 00-5.92-1.792c-2.084-.593-4.283-1.749-7.678-4.035-3.472-2.338-4.914-3.95-6.647-7.433-.964-1.936-1.043-2.345-1.145-5.92-.141-4.95.345-7.897 1.94-11.759 1.585-3.837 3.387-6.58 6.77-10.304 4.523-4.98 6.1-6.254 10.6-8.57 2.322-1.196 2.827-1.331 5.44-1.453 3.878-.181 4.207-.603 2.553-3.274-.381-.616-1.173-2.344-1.76-3.84-.709-1.81-1.434-3.068-2.169-3.76-1.05-.99-1.097-1.124-.957-2.81.122-1.475.33-1.96 1.24-2.908 1.302-1.354 2.525-2.042 3.63-2.042.992 0 1.218-.706 1.08-3.374l-.097-1.906-9.76-.203c-13.963-.29-16.927-.96-23.453-5.312-4.817-3.212-7.347-6.18-11.938-14.005l-1.878-3.2-.11-3.68c-.06-2.024.046-4.544.237-5.6.192-1.056.493-3.648.67-5.76.601-7.184 3.535-15.593 7.574-21.71.936-1.417 3.895-4.673 7.765-8.54 6.932-6.93 9.278-8.986 12.247-10.734 2.268-1.335 10.184-4.792 13.45-5.875 2.055-.68 3.116-1.34 3.116-1.936 0-.724-2.46-5.882-3.818-8.006-1.938-3.03-2.102-3.563-1.47-4.785.574-1.11 2.755-2.685 3.493-2.522.27.059 1.405 1.62 2.523 3.467 1.117 1.848 2.239 3.36 2.492 3.36.381 0 .495-1.31.665-7.68.113-4.224.434-9.768.714-12.32.617-5.633.652-8.337.118-9.068-.26-.356-1.191-.668-2.64-.885-5.877-.881-12.104-3.6-16.188-7.07a146.587 146.587 0 00-5.206-4.199c-5.022-3.808-6.494-8.937-5.678-19.79.287-3.814.538-5.224 1.34-7.52 1.731-4.968 3.031-6.772 8.146-11.313 3.613-3.206 6.122-4.857 8.948-5.886.88-.32 2.626-1.067 3.88-1.658 1.253-.592 2.657-1.22 3.12-1.395 1.01-.384 1.024-.656.22-4.358-.745-3.427-1.877-6.377-3.386-8.826-.612-.994-1.114-2.154-1.114-2.577 0-1.332 2.915-3.632 4.084-3.22.222.078.841.777 1.376 1.554.534.776 1.098 1.412 1.253 1.412.457 0 .906-3.066 1.1-7.52.1-2.288.416-5.024.7-6.08.406-1.503.574-4.457.77-13.6.218-10.05.345-12.082.912-14.56.363-1.584.666-3.636.673-4.56l.012-1.68-1.68-.014c-.924-.008-3.264-.205-5.2-.438-6.34-.764-11.254-3.059-15.795-7.374-1.965-1.869-4.87-5.78-5.3-7.136-.116-.364-.42-.835-.678-1.049-.387-.322-.55-.191-.95.767-.265.636-.637 2.268-.826 3.626-.395 2.841-.78 3.706-2.264 5.1-3.665 3.439-4.365 1.288-1.966-6.044 1.216-3.715 1.236-4.783.075-3.97-.368.258-1.341 1.3-2.162 2.316-1.206 1.491-3.832 3.68-8.534 7.11-.176.13-1.273 1.024-2.437 1.99-3.224 2.674-4.655 3.727-12.385 9.114-3.927 2.737-7.455 5.275-7.84 5.64-.678.644-1.871 1.242-2.48 1.242-.164 0-.298-.429-.298-.952 0-.764.605-1.592 3.062-4.192 4.15-4.391 3.901-4.492-1.808-.728-1.686 1.112-3.33 2.313-3.652 2.669-.572.632-.559.687.546 2.325 1.473 2.183 3.522 6.543 4.375 9.311.564 1.829.677 3.01.677 7.1 0 2.697-.142 5.278-.315 5.734-.174.456-1.203 2.157-2.288 3.78-1.085 1.624-2.382 3.817-2.883 4.873-1.64 3.462-3.106 5.733-4.824 7.468-3.505 3.541-9.18 7.536-13.06 9.193-1.942.83-2.422.894-7.724 1.022-5.932.145-7.55-.083-10.667-1.502-1.78-.81-6.124-2.71-7.78-3.4-.759-.317-1.75-1.019-2.2-1.56-.453-.54-2.412-2.637-4.356-4.661-3.784-3.94-6.397-7.58-6.979-9.718-.232-.852-.308-3.316-.213-6.922l.146-5.6 1.989-4.937c1.098-2.727 2.644-5.913 3.453-7.12 1.94-2.892 5.312-6.046 9.228-8.632 5.533-3.655 8.324-4.852 11.993-5.143 1.072-.085 1.124-.147 1.218-1.446.108-1.492-.802-3.457-2.942-6.35-3.59-4.85-3.72-5.38-1.783-7.222 1.593-1.515 2.581-1.59 3.557-.27.652.881 1.54 1.292 1.556.72.004-.133.292-1.969.64-4.08.495-3 .634-5.38.635-10.88.003-8.472 1.111-23.202 1.9-25.245.196-.508.269-1.012.161-1.12s-1.803-.223-3.769-.257c-4.496-.079-5.233-.195-9.837-1.545-5.866-1.721-11.24-4.779-12.922-7.353-1.637-2.506-1.878-3.905-2.017-11.742l-.13-7.262 1.325-3.778c.728-2.078 1.84-4.714 2.473-5.858.632-1.144 1.524-2.8 1.982-3.68 1.036-1.992 5.758-6.705 8.61-8.593 1.179-.78 3.019-1.662 4.09-1.96 2.021-.563 1.587-.563 14.015.018 3.596.168 4.084.124 5.268-.48 2.788-1.422 3.65-.969 8.216 4.324 3.923 4.548 5.115 5.977 7.848 9.41 1.471 1.849 3.441 4.201 4.379 5.228.937 1.027 2.075 2.6 2.529 3.497.761 1.502.815 1.882.695 4.852-.116 2.835-.253 3.466-1.143 5.232-.556 1.105-1.692 2.895-2.525 3.977-2.295 2.983-6.793 7.39-8.59 8.419-.88.503-2.752 1.732-4.16 2.73-2.994 2.122-4.359 2.866-5.26 2.866-.359 0-2.016.437-3.684.97-3.366 1.08-3.062.694-3.524 4.47-.792 6.484-1.13 12.067-1.131 18.642 0 5.044-.159 8.653-.47 10.727-.478 3.179-.716 9.232-.377 9.57.103.103 1.032-.596 2.066-1.553 2.126-1.968 4.83-3.85 5.304-3.692.734.244.476.935-.897 2.403-1.74 1.861-4.087 6.624-4.977 10.102-.77 3.013-.981 3.409-2.394 4.487-1.661 1.267-1.503 1.792.544 1.8 1.343.007 2.257.297 4.55 1.446 1.58.79 3.307 1.86 3.84 2.376s1.495 1.157 2.135 1.425 1.602.922 2.136 1.456 1.138.97 1.343.97.972-.65 1.704-1.444c1.993-2.161 2.817-2.186 5.088-.155 1.158 1.036 1.985 1.554 2.24 1.402.222-.133 1.34-1.05 2.484-2.038 3.396-2.933 6.841-5.303 13.687-9.414 1.104-.663 2.79-1.95 3.745-2.858s3.005-2.443 4.553-3.41c7.003-4.37 13.223-9.485 12.258-10.08-.209-.13-1.7-.062-3.312.15-3.539.466-9.222.339-9.404-.21-.225-.678 2.168-2.944 4.022-3.81.996-.464 2.693-1.26 3.77-1.769 2.421-1.141 4.79-1.216 8.509-.266 3.854.984 4.141.887 4.634-1.56.635-3.148 1.155-4.189 5.39-10.778.905-1.408 1.98-3.266 2.39-4.13.796-1.681 4.095-5.385 5.891-6.616.7-.48 1.42-1.447 1.997-2.682 1.121-2.402 4.254-5.564 6.696-6.758 1.959-.959 1.078-.95 15.974-.159 5.94.316 8.524.903 10.747 2.444 2.594 1.798 9.56 11.378 11.738 16.141 1.793 3.923 2.315 6.522 2.315 11.531 0 4.95-.024 5.044-2.703 10.701-1.764 3.727-1.921 3.938-5.716 7.7-2.146 2.128-4.693 4.379-5.661 5.003-3.928 2.53-8.01 4.451-11.076 5.21-1.694.42-3.198.883-3.342 1.03-.144.146-.582 1.706-.973 3.466-.626 2.82-.739 4.547-.947 14.56-.13 6.276-.393 12.004-.587 12.8-.194.792-.502 3.672-.685 6.4-.421 6.29-1.091 11.75-1.76 14.348-.599 2.327-.376 2.877.604 1.492.966-1.365 4.998-5.219 6.055-5.787.49-.264 1.029-.393 1.199-.288.395.245-.342 1.7-1.295 2.556-1.513 1.36-5.229 7.642-6.07 10.264-.221.69-.745 1.714-1.163 2.274-.418.56-.76 1.082-.76 1.16 0 .077 1.188.209 2.64.292 2.573.146 3.248.356 7.12 2.21.704.338 1.77 1.045 2.37 1.573.6.528 1.465 1.043 1.92 1.145 2.61.584 3.356.92 5.595 2.527 1.354.971 3.192 2.16 4.083 2.64 3.997 2.156 5.787 4.663 6.51 9.118.602 3.713.604 6.06.01 11.642-.697 6.537-1.693 9.73-4.084 13.088-.621.872-1.491 2.307-1.934 3.19-2.234 4.454-5.777 7.723-11.583 10.686-2.958 1.51-3.361 1.63-5.48 1.63-1.447 0-2.406.147-2.609.4-.176.22-.488 2.415-.693 4.88s-.526 6.351-.713 8.64c-.383 4.672-.145 21.214.311 21.67.531.531 1.867-1.534 2.25-3.478.204-1.03.652-2.335.996-2.9.784-1.286 3.01-2.798 3.719-2.526.59.226.596.17-.512 5.538-.896 4.344-.8 4.577 1.883 4.573 2.025-.003 8.336.494 12.681 1 6.45.749 11.68 2.166 11.68 3.163 0 .831-2.492 2.88-3.497 2.876-.453-.003-1.53-.219-2.396-.481-4.34-1.316-19.08-3.154-21.467-2.676-.363.073-.993.78-1.454 1.633-.447.827-1.131 1.843-1.52 2.256-.388.414-.706 1.06-.706 1.437 0 .806 1.12 1.201 4.75 1.678 2.8.367 8.526 1.976 10.355 2.91 1.72.877 6.12 5.356 8.64 8.794 1.31 1.788 3.836 6.936 4.382 8.932.931 3.406-.12 14.884-1.857 20.262-1.01 3.13-2.278 5.251-5.507 9.216-3.558 4.37-6.24 6.213-12.923 8.878-2.868 1.144-7.662 2.438-9.048 2.442-1.02.003-1.352 1.1-1.352 4.46 0 1.548-.14 3.554-.311 4.456-.172.902-.228 1.858-.126 2.124.34.884 4.156.608 9.35-.677 4.229-1.047 4.816-1.28 6.01-2.373 1.463-1.341 2.99-2.227 3.838-2.227.304 0 1 .161 1.547.359.88.318 1.233.239 3.061-.684 1.138-.574 2.826-1.305 3.752-1.623.926-.319 2.003-.803 2.392-1.076.39-.273 1.258-.496 1.928-.496 3.324 0 6.765-3.292 10.54-10.08 1.92-3.456 2.279-4.516 3.785-11.2 1.964-8.72 1.969-8.759 1.857-15.33l-.104-6.127-1.028-2.072c-1.792-3.609-4.565-6.43-8.834-8.986-2.48-1.485-2.665-2.078-1.098-3.515 1.991-1.825 3.138-1.558 7.548 1.76 2.647 1.991 3.164 2.487 4.652 4.46 1.856 2.461 2.767 4.794 3.138 8.03.408 3.57.133 10.186-.54 12.98-.276 1.144-.996 4.456-1.6 7.359-.795 3.823-1.406 5.902-2.216 7.54-2.315 4.683-6.86 10.868-9.69 13.185a196.47 196.47 0 00-3.256 2.747c-.988.854-2.453 1.887-3.256 2.295-.803.41-1.614.935-1.803 1.169-.189.234-1.39 2.47-2.671 4.97l-2.328 4.544.866 4.008c.952 4.403.922 4.636-.781 6.068-1.264 1.064-2.458 1.377-3.038.796-.243-.242-.648-1.427-.9-2.633-.57-2.715-.8-2.973-2.072-2.315-1.267.655-1.74.639-3.206-.11-1.63-.83-2.333-2.476-2.575-6.023-.172-2.508-.26-2.81-.85-2.894-.362-.052-2.921.488-5.687 1.2-2.765.712-5.428 1.294-5.918 1.294-.489 0-1.062.173-1.273.384-.461.462-.53 7.197-.09 8.896.16.616.38 1.785.491 2.598.184 1.349.103 1.608-.931 2.963-1.181 1.546-1.386 2.245-.77 2.626.517.32 1.426-1.013 2.055-3.01.66-2.1 2.15-4.08 3.746-4.979.997-.561 1.253-.602 1.486-.234.364.574-.812 3.966-2.38 6.864-.65 1.203-1.059 2.303-.907 2.443.152.141 1.284.425 2.516.632 2.266.38 4.726 1.531 6.88 3.22.616.483 2.272 1.571 3.68 2.418 3.174 1.91 6.685 5.4 8.162 8.115.615 1.13 1.31 2.119 1.544 2.195.397.13 2.276-1.69 8.539-8.275 1.41-1.483 3.247-3.248 4.083-3.922 1.947-1.57 6.903-8.332 6.21-8.473-.505-.102-2.87 1.024-4.538 2.16-1.215.829-4.32.949-4.32.168 0-1.56 2.62-3.592 5.926-4.597 3.796-1.154 10.168-4.077 10.758-4.936.112-.163.297-2.258.41-4.656.335-7.008 1.41-12.584 2.99-15.492 1.012-1.866 5.478-5.875 12.55-11.268.922-.704 2.346-1.824 3.162-2.49 1.554-1.265 4.675-2.89 6.243-3.25.504-.116 1.584-.861 2.4-1.656s2.118-1.867 2.896-2.384c1.405-.933 1.448-.94 6.127-.94 7.956 0 10.808 1.378 15.894 7.68 4.235 5.248 4.567 6.004 4.553 10.383-.013 4.423-.818 17.452-1.276 20.657-.738 5.165-1.953 7.37-6.402 11.62-4.235 4.044-4.222 4.036-15.99 9.635a95.33 95.33 0 00-3.52 1.786c-1.028.553-2.25.95-2.938.954-1.954.009-2.18.498-2.196 4.748-.008 2.055-.152 4.385-.32 5.177s-.401 3.59-.517 6.22l-.211 4.779-1.37 1.37c-1.411 1.41-2.819 2.029-3.369 1.48-.333-.335.099-7.85.705-12.249.181-1.32.286-4.416.233-6.88l-.098-4.48-2.56-.161c-2.778-.175-3.269-.375-5.93-2.413-4.402-3.372-7.965-6.873-9.271-9.108-1.342-2.298-1.613-2.53-2.152-1.838-.382.489-3.927 10.995-3.927 11.638 0 .683-2.712 3.268-3.684 3.512-1.415.355-1.614-.237-.844-2.516.379-1.121.685-2.388.68-2.816-.008-.733-.075-.704-1.17.502-.638.704-3.985 4.16-7.437 7.68-3.453 3.52-6.598 6.816-6.991 7.324-.667.862-.714 1.244-.714 5.805 0 7.382-1.306 12.312-4.618 17.432-1.67 2.581-7.907 9.162-10.815 11.41-3.035 2.346-3.064 2.352-12.156 2.334l-8.09-.016-4.64-1.428zm26.318-4.54c.908-.836 1.99-1.88 2.406-2.32 1.181-1.25 3.908-5.453 4.134-6.371.112-.456.48-1.477.82-2.269 1.114-2.607 1.843-6.9 1.843-10.866 0-2.615-.13-3.898-.437-4.343a6.215 6.215 0 01-.682-1.43c-.28-.917-1.037-2.65-2.655-6.08-1.477-3.131-4.295-5.94-8.386-8.357-4.65-2.747-4.85-2.828-3.52-1.413.616.655 1.768 1.629 2.56 2.164 2.771 1.875 2.993 3.07.902 4.86-1.616 1.384-2.487 1.434-4.041.232-3.88-2.999-7.025-5.2-7.581-5.305-2.139-.405-7.546-.827-10.57-.825-3.353.003-3.64.057-5.76 1.086-2.217 1.076-2.965 1.747-6.168 5.539-2.004 2.372-3.972 6.35-4.875 9.858-.521 2.022-.657 3.528-.648 7.162.013 5.051.324 6.198 2.567 9.458 1.673 2.432 7.375 6.19 11.214 7.39 1.32.413 4.2 1.325 6.4 2.026l4 1.275 16.827.05 1.65-1.52zm-10.946-7.739c-.526-.983-.427-10.11.121-11.157.777-1.482 2.59-3.01 3.43-2.891.752.106.759.144.847 4.68.065 3.377.197 4.615.502 4.732.227.088 1.139-.566 2.025-1.453 1.92-1.92 2.984-2.14 2.984-.617 0 .8-.39 1.373-2 2.932-3.838 3.715-7.106 5.275-7.909 3.774zm-23.806-.177c-.113-.295-.206-1.706-.206-3.136 0-2.428-.608-7.287-1.299-10.37-.638-2.846-.433-3.823 1.131-5.387 2.29-2.289 2.906-1.977 3.686 1.867.463 2.284 1.06 2.608 4.324 2.344 2.791-.225 4.234-.713 4.49-1.516.25-.791-.963-4.466-1.846-5.588-1.004-1.277-2.45-1.738-5.453-1.738-2.344 0-2.8.097-3.752.8-1.492 1.1-2.56 1.075-2.56-.061 0-.987 2.554-3.574 4.547-4.605 1.51-.781 7.53-.884 9.266-.158 1.244.52 2.683 1.858 3.319 3.087.767 1.483 1.747 5.803 1.747 7.698 0 1.932.126 2.126 1.73 2.679 1.533.527 2.234 1.802 2.376 4.325.162 2.864.002 3.398-1.497 5.001-3.06 3.27-5.73 4.238-12.69 4.598-2.815.146-5.567.362-6.113.48-.767.166-1.042.092-1.2-.32zm16.258-5.27c.83-.69.444-3.602-.564-4.242-.687-.437-2.099-.263-3.537.435-1.338.65-2.443.65-2.443-.003 0-.162.576-.992 1.28-1.844 1.921-2.325 1.664-2.654-.875-1.119-1.444.874-2.647 1.334-4.645 1.776-.74.164-.879.36-.874 1.229.007 1.309 1.206 3.452 2.241 4.005 1.053.561 8.686.369 9.417-.238zm7.37-12.825c-.348-.561.182-2.797.923-3.901.387-.576 1.225-1.329 1.862-1.673.975-.527 1.239-.558 1.67-.2 1.19.988.399 2.947-1.999 4.946-1.423 1.187-2.095 1.413-2.457.828zm24.677-8.035c.607-.683.606-.685-.11-.309-.396.208-.72.517-.72.687 0 .454.153.385.83-.378zm2.813-2.222c.909-.714 2.004-2.531 1.526-2.531-.294 0-2.93 2.729-2.93 3.032 0 .351.587.142 1.404-.5zm-24.603-8.931c-.109-.176-.342-.32-.518-.32s-.23.144-.122.32c.109.176.342.32.518.32s.23-.144.122-.32zm-3.733-1.24c.34-.217.319-.313-.106-.476-.819-.314-3.681-.243-3.681.092 0 .58 2.998.883 3.787.383zm83.438-2.004c1.042-.64 3.407-1.837 5.255-2.659a999.098 999.098 0 005.256-2.356c3.709-1.685 6.079-4.837 7.036-9.36.577-2.728 1.6-20.093 1.388-23.556-.15-2.456-.903-3.995-3.2-6.54-.572-.634-1.697-2.002-2.5-3.04-1.591-2.053-3.424-3.475-5.32-4.126-1.314-.453-1.648-.344-3.834 1.245-.92.669-1.47.754-5.92.924-4.352.166-5.258.302-8.025 1.205-1.715.56-3.923 1.503-4.905 2.095-3.37 2.029-10.274 7.756-11.046 9.163-.167.303-.668 2.247-1.113 4.32-.701 3.257-.837 4.867-1 11.855l-.188 8.085 1.155 2.339c1.33 2.689 4.147 5.473 9.95 9.829 1.741 1.307 2.087 1.437 4.32 1.623 1.334.11 4.31.183 6.611.16l4.185-.042zm-18.855-8.516c-.085-.308-.339-1.541-.564-2.74-.34-1.804-.337-2.356.02-3.2.237-.561.445-1.524.462-2.14l.032-1.12-1.727-.16c-2.984-.277-3.012-1.812-.075-4.064l1.585-1.216-.051-4.24c-.029-2.331-.07-4.24-.093-4.24-.023 0-.857.373-1.853.829-1.92.879-2.746.844-2.746-.117 0-1.07 2.025-2.52 6.855-4.91 4.167-2.062 4.996-2.362 6.515-2.362 1.596 0 1.818.092 2.67 1.113 1.853 2.22 2.33 4.124 2.346 9.352l.014 4.705-1.44 1.481c-1.713 1.763-3.419 2.709-4.883 2.709-1.647 0-1.837.406-1.837 3.946 0 3.64-.412 4.645-2.495 6.09-1.407.974-2.514 1.09-2.735.284zm8.503-15.19c.157-.226.205-1.579.108-3.006-.27-3.96-1.49-6.845-2.896-6.845-.585 0-.758.227-.92 1.2-.48 2.907.007 8.56.781 9.08.587.392 2.559.104 2.927-.429zm3.927 15.147c-1.455-.64-1.922-1.591-1.881-3.833.063-3.497 1.414-5.886 5.993-10.593 3.01-3.095 4.653-4.173 6.356-4.17 1.727.003 3.504.641 4.467 1.604.788.788.905 1.146.9 2.77-.006 2.196-.707 5.737-1.399 7.075-.806 1.558-3.713 4.167-6.398 5.741-2.31 1.355-2.728 1.488-4.96 1.583-1.34.057-2.726-.023-3.078-.178zm8.93-4.562c1.098-.5 1.739-2.01 1.987-4.677.281-3.031.036-3.854-1.318-4.42-2.507-1.047-3.936-.361-5.44 2.612-1.061 2.098-1.491 5.535-.797 6.372.486.585 4.36.664 5.568.113zm-92.398-14.036c.225-.474.415-2.752.468-5.6l.089-4.8-2.864-.212c-4.496-.332-10.71-1.849-13.372-3.262-1.597-.848-3.008-2.158-5.893-5.473-4.477-5.142-6.731-9.076-8.234-14.369-.711-2.504-.805-3.439-.801-8 .004-5.419.692-10.668 1.72-13.127.828-1.984 3.34-5.277 6.144-8.056 2.469-2.447 3.99-3.52 9.854-6.952 2.698-1.579 8.977-3.749 10.849-3.749 1.69 0 1.996-.611 1.176-2.354-.837-1.781-1.368-2.25-2.305-2.035-2.832.65-16.585 6.18-19.021 7.648-1.913 1.152-8.231 7.224-11.718 11.262-4.156 4.81-8.09 14.456-8.86 21.724-.19 1.801-.503 4.212-.694 5.356-.19 1.144-.412 4.024-.49 6.4l-.144 4.32 3.142 5.278c2.04 3.427 3.85 6.027 5.159 7.416 2.053 2.177 6.296 5.294 9.183 6.747 4 2.011 9.276 2.756 19.036 2.689l7.196-.05zm29.338-.446c1.244-1.9.845-3.136-.752-2.326-1.209.613-1.47 1.31-.848 2.26.675 1.03.96 1.042 1.6.066zm-13.39-15.991c6.048-1.904 7.692-2.834 9.693-5.483 2.112-2.796 2.96-4.43 3.988-7.68 1.451-4.588 2.324-15.505 1.484-18.56-.397-1.447-2.809-6.39-3.9-7.996-.833-1.227-4.617-5.544-6.358-7.255-1.68-1.65-4.339-2.63-7.306-2.691-1.32-.028-3.264-.3-4.32-.606-1.173-.339-3.58-.622-6.184-.726-4.17-.167-4.271-.189-4.564-.96-.295-.774-.355-.786-3.096-.632-3.053.173-8.335 1.613-9.893 2.698-.497.346-1.796 1.1-2.887 1.674-2.686 1.416-4.663 3.453-6.026 6.21-1.712 3.464-2.19 6.563-2.122 13.766.056 5.974.07 6.079 1.16 9.302 1.588 4.7 3.269 7.55 6.892 11.694 4.44 5.078 5.208 5.638 9.403 6.858 5.278 1.534 7.16 1.762 13.797 1.677l6.4-.081zm-15.427-7.182c-.437-.274-1.36-3.873-1.37-5.341-.01-1.415-1.889-7.91-2.476-8.56-.43-.475-1.098-.56-4.421-.56h-3.916l-.515 1.286c-.29.724-.515 2.203-.515 3.38 0 2.08-.009 2.102-1.653 3.84-1.743 1.843-3.013 2.46-3.496 1.697-.423-.667-.34-3.438.158-5.243.242-.88 1.118-3.472 1.947-5.76 1.98-5.467 2.97-8.747 3.346-11.082.353-2.191.201-2.839-.666-2.839-.339 0-.699-.217-.8-.482-.294-.763.615-1.826 2.596-3.038 1.007-.616 2.415-1.595 3.13-2.176.874-.71 1.568-1.025 2.123-.96.721.084.856.295 1.08 1.696.14.88.88 2.824 1.642 4.32.763 1.496 2.08 4.479 2.927 6.628.847 2.15 1.696 3.967 1.887 4.04.454.175 5.344-1.046 5.86-1.463.274-.221.4-1.385.4-3.704 0-2.94.09-3.513.69-4.39 1.024-1.494 2.753-2.595 3.418-2.177.447.282.546 1.053.62 4.86.105 5.32.078 5.294 3.505 3.377 2.543-1.422 3.964-1.868 4.288-1.344.562.91-.914 2.432-3.721 3.84-1.056.53-2.388 1.315-2.96 1.745-1.018.764-1.04.835-1.04 3.275 0 2.903.431 3.553 2.358 3.553 1.859 0 3.6-1.079 4.82-2.985 1.864-2.913 4.473-4.816 5.135-3.746.402.651-1.31 3.16-3.957 5.8-2.159 2.154-3.336 3.038-5.433 4.08-3.472 1.727-5.267 1.819-6.739.347-.95-.951-.984-1.082-.984-3.814 0-1.556-.088-3.057-.195-3.336-.28-.73-4.537-.735-4.817-.006-.302.787.862 4.598 1.67 5.47 1.047 1.13 1.405 4.975.618 6.634-.879 1.85-3.601 3.73-4.544 3.138zm-5.758-19.366c.237-.618-1.811-5.175-2.327-5.175-.39 0-1.905 4.097-1.921 5.2-.01.578 4.026.554 4.248-.025zm23.426-82.665c2.554-1.319 2.564-1.33 4.4-4.476 4.888-8.376 5.423-10.384 5.48-20.594.043-7.494-.184-8.788-1.954-11.108-.928-1.217-1.658-1.327-2.516-.379-.716.792-2.126 1.568-2.849 1.568-.28 0-.756-.46-1.056-1.02-.3-.562-1.41-1.966-2.47-3.12-1.058-1.156-2.21-2.465-2.56-2.91-.349-.446-1.175-1.142-1.835-1.547-.66-.404-1.2-.837-1.2-.961 0-.438-3.067-2.509-4.325-2.921-.701-.23-1.629-.649-2.06-.93-.639-.415-1.753-.51-5.92-.507l-5.135.004-3.52 1.524c-7.797 3.377-9.395 4.596-11.343 8.656-2.272 4.736-2.41 5.536-2.414 13.971-.003 6.418.08 7.762.572 9.168.943 2.704 2.293 4.391 5.291 6.616 1.543 1.144 3.502 2.704 4.354 3.468.853.764 1.834 1.588 2.18 1.831 2.3 1.617 9.55 4.3 12.56 4.648 1.273.148 1.795.056 2.56-.45 1.156-.767 2.348-.827 2.614-.134.334.872 1.43 1.09 5.065 1.006 3.43-.078 3.586-.114 6.08-1.403zm-15.395-8.566c-.096-.251-.128-2.399-.07-4.772.105-4.282.113-4.324 1.098-5.543 1.284-1.589 5.83-5.283 8.287-6.734 3.53-2.084 5.95-1.637 3.701.684-1.16 1.196-1.681 1.495-4.228 2.424-.993.362-2.181 1.033-2.64 1.491-.807.808-.833.953-.833 4.806 0 4.534-.208 5.167-2.289 6.948-1.389 1.19-2.72 1.495-3.026.696zm-15.435-3.304c-.161-.308-.36-3.008-.44-6-.11-4.013-.283-5.754-.661-6.637-.333-.777-.592-2.722-.739-5.554l-.226-4.357 2.368-2.233c3.81-3.592 6.023-4.419 11.827-4.419 4.64 0 5.073.282 3.354 2.184-1.789 1.98-2.753 2.296-7.006 2.296-4.032 0-5.235.326-5.53 1.497-.356 1.42.547 4.315 1.543 4.946.231.147 2.117.27 4.19.272 3.193.004 3.801.085 3.971.529.464 1.208-2.324 3.497-4.62 3.793-2.555.329-2.495.21-2.366 4.679.148 5.158-.145 6.221-2.235 8.1-1.723 1.549-2.926 1.866-3.43.904zm-71.358-52.159c2.28-.838 6.335-3.581 7.443-5.035.464-.608 1.689-2.738 2.722-4.733 1.034-1.996 2.263-4.194 2.731-4.884.985-1.451.596-1.862-.791-.836-5.16 3.816-6.578 4.644-7.984 4.666-1.356.02-1.465-.047-2.184-1.338-.416-.748-.904-1.36-1.086-1.36-.181 0-.855.412-1.496.916-2.75 2.16-5.141 2.747-6.865 1.682-.603-.373-1.564-.678-2.134-.678-.757 0-1.857-.567-4.057-2.09-1.66-1.15-3.156-2.005-3.324-1.901-.168.103-.306.763-.306 1.465 0 .703-.205 1.675-.457 2.16-.623 1.206-3.365 3.294-4.172 3.179-1.365-.196-1.578-1.852-1.76-13.693l-.171-11.04h-1.09c-.6 0-1.146-.16-1.213-.357-.2-.587 3.152-3.41 5.41-4.556 2.04-1.035 2.209-1.066 5.317-.958 3.582.124 4.464.52 5.656 2.544.534.906.659 1.794.752 5.347.15 5.717.035 6.185-2.056 8.377-.955 1.001-1.736 2.052-1.736 2.335 0 .644 1.931 2.15 2.75 2.144.336-.003.914-.47 1.286-1.04 1.364-2.089 5.685-6.727 7.107-7.629 1.787-1.133 3.788-1.23 5.757-.28 1.287.622 1.34.707 1.358 2.16.051 4.176.563 8.735 1.066 9.503.736 1.122 1.417 1.02 3.695-.55 1.085-.748 2.65-1.72 3.477-2.16l1.504-.8.088-5.059c.082-4.705.033-5.212-.707-7.264-1.41-3.91-4.01-8.637-4.751-8.637-.221 0-1.099.576-1.95 1.28-.853.704-1.832 1.28-2.178 1.28-.834 0-4.188-2.431-6.182-4.481-.88-.905-2.052-1.837-2.605-2.071-.552-.234-1.578-.944-2.279-1.577s-1.4-1.152-1.555-1.152c-.155 0-1.145-.463-2.201-1.029l-1.92-1.028-5.592.087c-5.298.082-5.71.134-7.87 1-2.389.956-6.313 3.326-7.242 4.372-.892 1.005-3.076 5.39-4.663 9.36l-1.486 3.719-.027 12.16 1.273 2.06c.7 1.132 2.268 3.148 3.484 4.48 3.643 3.987 7.647 8.02 7.963 8.02.27 0 1.994.732 6.96 2.953 4.111 1.839 3.974 1.817 10.72 1.718 4.904-.072 6.029-.184 7.57-.75zm-1.313-15.13c1.141-.61 1.582-2.023 1.582-5.068 0-3.3-.15-3.882-1.004-3.882-3.142 0-4.768 3.8-3.171 7.41.895 2.024 1.271 2.248 2.593 1.54zm-12.882-9.654c.249-.25.384-1.546.384-3.69 0-3.624-.442-5.226-1.613-5.853-1.015-.543-2.853-.53-3.209.023-.164.255-.262 2.48-.218 4.944l.08 4.48 1.12.197c1.89.335 3.054.3 3.456-.101zm105.18-33.536c1.222-.81 1.967-.81 2.4 0 .834 1.558 7.282.207 12.369-2.592 3.735-2.055 6.666-4.795 7.865-7.353.448-.954 1.298-2.743 1.89-3.975l1.076-2.24-.004-5.28c-.004-5.754-.257-7.056-2.169-11.192-1.015-2.197-5.782-9.406-7.826-11.837-2.558-3.043-3.638-3.841-6.321-4.674-2.266-.703-3.565-.84-11.3-1.186-4.807-.215-9-.295-9.316-.178-.684.253-1.12 1.22-.727 1.612.158.158.656.135 1.151-.053.48-.183 2.645-.332 4.81-.332 3.497 0 4.03.074 4.779.663 1.099.865 1.064 1.604-.13 2.771-1.581 1.547-2.398 1.868-3.621 1.426-.588-.213-2.713-.38-4.815-.38-3.476 0-3.94.074-6.058.972-3.135 1.329-3.15 1.34-3.833 2.575-1.173 2.123-4.17 7.197-5.372 9.093-2.406 3.798-2.634 4.611-2.78 9.92-.157 5.738.149 6.83 3.177 11.35 4.163 6.215 10.148 10.017 17.395 11.05 4.381.626 6.234.585 7.36-.16zm-5.726-7.227c-.107-.278-.199-1.034-.205-1.68-.006-.645-.49-2.973-1.075-5.173l-1.064-4h-2.617c-1.979 0-2.691.117-2.92.48-.167.264-.306 1.574-.308 2.912-.004 2.177-.103 2.567-.943 3.727-1.179 1.627-2.906 2.96-3.834 2.96h-.711l.132-5.2c.103-4.062.278-5.69.801-7.44.368-1.231.975-3.751 1.349-5.6 1.215-6.01 1.61-6.759 4.58-8.678 1.62-1.047 2.187-1.241 3.63-1.241 1.205 0 1.877.166 2.273.562.344.344 1.046 2.608 1.81 5.84.813 3.432 1.47 5.525 1.883 5.985.558.624.585.823.23 1.682-.23.552-.316 1.417-.2 1.995.711 3.559 1.297 4.364 1.642 2.256.35-2.15 1.193-3.605 3.114-5.385 2.559-2.368 3.915-3.015 6.319-3.015 2.99 0 5.624 1.628 5.207 3.22-.21.801-2.12 2.475-3.108 2.723-.517.13-1.232-.078-2.182-.635-1.498-.878-3.372-1.085-4.013-.444-.52.52-.476 4.108.059 4.812.807 1.064 2.59 1.524 5.907 1.524 2.151 0 3.557-.161 4.368-.5 1.3-.543 2.082-.429 2.082.305 0 .624-2.344 2.611-4.32 3.663-1.493.794-1.869.85-5.6.837-3.049-.01-4.295-.143-5.24-.56-.68-.3-1.282-.545-1.335-.545-.052 0-.26.499-.462 1.11-.45 1.36-3.305 4.01-4.324 4.01-.402 0-.818-.228-.925-.507zm-3.9-15.368c.64-.245.645-1.389.015-4.185-.73-3.246-1.11-4.078-1.62-3.561-.44.444-1.73 5.768-1.73 7.137 0 .737.118.804 1.414.804.778 0 1.642-.088 1.92-.195zm-44.976 21.28c.846-.555 1.702-1.269 1.9-1.588.337-.538.296-.55-.59-.178-1.375.578-3.829 2.365-3.829 2.788 0 .47.63.214 2.519-1.022zm16.027-12.269c.227-.273.318-.497.202-.497-.397 0-1.788 1.033-1.788 1.328 0 .375 1.035-.166 1.586-.83zm1.783-1.395c-.099-.099-.357 0-.574.218-.314.316-.277.353.179.18.316-.12.493-.3.395-.398zm-55.034-41.817c1.302-.437 2.968-.891 3.702-1.009.826-.132 2.202-.811 3.609-1.782 1.25-.863 2.922-2.005 3.714-2.538 1.707-1.15 4.36-4.414 5.642-6.946.756-1.49.937-2.302 1.029-4.593.135-3.375-.44-4.787-3.158-7.763-.972-1.064-2.916-3.373-4.32-5.132-2.88-3.606-3.105-3.878-5.967-7.198-1.434-1.663-2.402-2.494-3.166-2.72-.605-.178-1.82-.756-2.7-1.284-1.543-.926-1.778-.967-6.56-1.15-2.728-.105-5.824-.373-6.88-.596-1.142-.24-3.16-.346-4.979-.261-2.695.126-3.293.268-5.039 1.2-1.618.862-2.207 1.414-3.219 3.015-1.999 3.165-3.21 5.784-4.548 9.826l-1.255 3.797.01 5.364c.018 8.147.84 11.6 3.276 13.737 2.424 2.128 9.553 5.115 15.753 6.6.352.084 3.35.17 6.664.19 5.62.035 6.182-.016 8.391-.757zm-24.917-5.525c-.077-.132-.244-5.28-.37-11.44s-.29-11.262-.364-11.337c-.072-.076-.89.176-1.814.56-2.09.865-2.79.887-2.79.084 0-1.212 2.729-3.08 7.76-5.313 2.684-1.191 6.137-2.793 7.673-3.56 1.537-.767 2.869-1.394 2.96-1.394.092 0 .167.273.167.608 0 .895-3.077 3.551-5.591 4.827-1.205.612-2.384 1.305-2.62 1.541-.494.494-.55 7.287-.13 15.903.286 5.874.186 6.314-1.912 8.4-1.258 1.252-2.598 1.758-2.97 1.12zm18.139-1.11c-.133-.214-.202-2.923-.155-6.02.1-6.504-.04-6.92-1.915-5.66l-1.088.732-.16 3.568c-.153 3.431-.197 3.607-1.12 4.572-.528.551-1.44 1.3-2.026 1.662-1.896 1.174-1.938.977-1.994-9.54-.033-6.207.066-9.532.299-9.967.619-1.156 3.32-3.312 4.023-3.212.627.09.663.325.747 4.975.072 3.992.172 4.88.549 4.88.253 0 1.675-.792 3.16-1.76 4.285-2.793 4.362-2.718 4.362 4.253 0 4.742.061 5.323.633 6.05.807 1.026.627 1.364-2.068 3.884-2.112 1.976-2.798 2.31-3.247 1.583zm164.17 390.33c-.097-.25-.128-2.403-.07-4.783l.105-4.327 1.12-1.167c1.373-1.432 2.455-1.911 3.102-1.374.374.31.445 1.216.362 4.625-.115 4.687-.339 5.291-2.5 6.763-1.221.83-1.87.911-2.12.263zm-141.24-99.965c0-.392 1.207-1.874 3.04-3.73 1.672-1.694 3.04-3.273 3.04-3.51 0-.404-2.04-2.418-2.449-2.418-.102 0-.88.247-1.729.548l-1.543.548-1.983-.948c-2.271-1.086-.58-1.02-21.737-.847-6.776.055-12.5.091-12.72.08-1.395-.073.797-2.833 2.937-3.699 1.286-.52 7.403-.9 8.141-.504.32.171 6.283.346 13.748.402 12.594.096 13.19.074 13.37-.492.25-.786-.238-1.225-2.027-1.828-2.083-.702-2.385-1.312-1.242-2.505 1.643-1.715 2.38-1.827 5.552-.841 5.552 1.724 12.804 6.16 13.665 8.36.264.673.12.96-1.106 2.209-1.373 1.399-2.698 2.159-7.719 4.426-1.343.607-3.758 1.988-5.366 3.07-3.572 2.401-3.872 2.531-3.872 1.68zm95.74-72.698c-.366-.88-.824-1.6-1.018-1.6-.194 0-1.028.36-1.855.8-4.391 2.338-6.15-.441-6.146-9.713.002-5.623.111-5.97 2.42-7.717 1.818-1.376 2.652-1.267 4.368.567.79.845 1.837 2.141 2.326 2.88.49.739 1.033 1.343 1.208 1.343.175 0 .922-.648 1.66-1.44.952-1.023 1.592-1.44 2.208-1.44 1.621 0 1.467 1.457-.655 6.2-1.328 2.966-1.29 3.966.234 6.088 1.236 1.72 1.122 2.264-.886 4.216-2.055 1.997-2.976 1.953-3.864-.184zm-3.068-7.581c-.446-.824-.488-.84-.5-.194-.007.388.167 1.103.387 1.59.371.821.407.835.5.194.055-.38-.12-1.096-.387-1.59zm-7.375-102.37c-2.374-2.375-3.182-4.753-3.701-10.897-.354-4.187-.204-5.098 1.065-6.474 2.075-2.253 4.833-2.913 6.678-1.6.528.376 1.6 1.682 2.381 2.902 2.054 3.204 2.895 2.778 2.968-1.504.04-2.293.733-3.609 2.528-4.797 2.036-1.347 2.384-.957 2.248 2.522-.11 2.796-.19 3.069-1.95 6.68-1.009 2.07-1.834 4.014-1.834 4.32.002.773 1.12 2.527 1.864 2.926 1.336.714 1.029 2.22-.796 3.91-1.95 1.803-3.029 1.972-3.84.599-.632-1.07-1.408-1.23-2.07-.427-1.654 2.01-4.445 2.935-5.54 1.84zm4.684-5.42c.314-.689.23-1.1-.567-2.774-1.717-3.61-2.933-4.561-2.547-1.992.393 2.62 1.678 5.573 2.427 5.573.175 0 .485-.363.687-.808zm-67.25.188c-.183-.34-.332-1.609-.332-2.819s-.3-4.28-.666-6.821c-1.155-8.023-1.192-7.075.338-8.734.74-.804 1.629-1.551 1.973-1.66.789-.251 1.553.364 1.56 1.253.003.374.136.887.295 1.14.25.394.368.396.83.012.963-.8.227-3.904-1.44-6.072-.544-.707-.852-.799-2.665-.794-1.851.005-2.165.106-3.229 1.04-1.289 1.131-2.436 1.363-2.436.493 0-.672 2.822-3.428 4.935-4.82 1.48-.976 1.747-1.039 4.427-1.039h2.852l1.825-1.433c1.562-1.228 2.202-1.506 4.445-1.931 2.53-.48 2.663-.475 3.908.16.708.362 1.288.734 1.288.827 0 .718-1.198 2.166-2.322 2.808-1.046.596-2.014.817-4.21.96-1.569.102-2.997.33-3.174.507-.215.215-.146.722.208 1.532.782 1.789 1.222 4.17.995 5.379-.162.864-.063 1.174.526 1.648 2.033 1.634 2.217 1.999 2.217 4.384v2.268l-2.098 2.007c-1.154 1.103-2.558 2.24-3.12 2.524-1.79.906-2.171 1.4-1.958 2.535.25 1.337-.43 2.64-2.153 4.114-1.51 1.292-2.33 1.447-2.82.533zm6.637-10.119c1.885-1.32-.202-4.714-2.231-3.628-.566.303-.629.552-.457 1.807.314 2.29 1.18 2.877 2.688 1.822zm-37.317-51.262c-.16-.308-.39-1.28-.51-2.16-.282-2.059-.48-2.72-.818-2.72-.15 0-1.112.72-2.139 1.598-2.17 1.86-3.718 2.678-4.558 2.411-1.175-.373-3.507-2.99-3.872-4.346-.417-1.549-.132-4.51.569-5.903.721-1.433 4.293-5.928 5.777-7.268 1.548-1.399 3.057-2.23 3.638-2.003.231.09 1.135 1.17 2.008 2.398.873 1.228 1.743 2.233 1.933 2.233.19 0 .872-1.126 1.515-2.504.89-1.906 1.477-2.718 2.458-3.397.712-.493 1.508-.81 1.778-.706.993.381.678 1.435-2.518 8.415l-1.487 3.248.443 3.792c.517 4.419.28 5.367-1.67 6.692-1.356.922-2.148.99-2.547.22zm-2.646-6.65c1.327-1.511 1.262-2.363-.412-5.43-1.139-2.087-1.537-2.56-2.156-2.56-1.52 0-2.765 4.107-1.91 6.3.41 1.05 2.24 2.82 2.916 2.82.313 0 1.016-.509 1.562-1.13zm-18.07-78.15c-.247-1.116-.847-3.415-1.69-6.48-.363-1.32-.846-3.624-1.074-5.12-.4-2.633-.438-2.716-1.213-2.597-2.476.379-2.407.443-2.331-2.189.09-3.14 1.311-5.665 3.684-7.614.91-.748 1.85-1.36 2.09-1.36.617 0 1.55 2.34 1.982 4.969.203 1.236.517 2.46.698 2.72.34.487.317-1.327-.38-30.317-.352-14.687-.389-14.12 1.05-16.156.212-.3.299-.63.194-.736-.105-.105-1.984-.307-4.175-.45-3.83-.248-4.1-.314-6.998-1.706-1.657-.797-3.878-2.116-4.934-2.931-5.398-4.17-6.257-5.074-7.905-8.328l-.96-1.895.148-6.265c.17-7.213.701-10.119 2.826-15.466 2.76-6.943 8.456-12.304 17.251-16.234.792-.354 2.035-1.09 2.762-1.638 1.22-.917 1.604-1.017 4.96-1.28 4.363-.344 7.298-.115 9.224.718 3.218 1.393 7.142 5.01 9.026 8.32.587 1.033 1.841 3.065 2.786 4.517.945 1.45 2.17 3.574 2.72 4.718.99 2.054 1.004 2.151 1.102 7.711.055 3.097-.03 7.068-.19 8.825-.257 2.848-.45 3.526-1.789 6.277-1.12 2.301-2.005 3.594-3.49 5.095-4.272 4.318-10.8 8.91-13.584 9.557-.664.154-2.03.283-3.036.287-1.451.006-1.894.131-2.147.604-.473.882.574 43.168 1.108 44.775.107.322.351.3 1.131-.103 2.858-1.478 2.494 1.611-1.254 10.629-.865 2.08-1.83 4.502-2.145 5.382-.67 1.871-1.138 2.487-2.832 3.727-1.598 1.17-2.361 1.179-2.615.033zm4.498-11.269c.443-.874.805-1.957.805-2.406 0-.728-.095-.794-.88-.606-1.5.359-2 .754-2 1.583 0 .828.797 3.019 1.098 3.019.094 0 .534-.715.977-1.59zm13.445-59.822c4.269-2.69 5.176-3.726 6.884-7.868.775-1.88.792-2.102.794-10.56l.002-8.64-.844-1.6c-.465-.88-1.76-3.069-2.88-4.863a424.567 424.567 0 01-2.836-4.598c-1.056-1.762-3.916-4.61-5.653-5.627-1.204-.706-1.524-.768-2.396-.463-.57.198-3.254.35-6.188.35-5.854 0-8.565.505-11.979 2.228-3.698 1.867-5.14 3.625-7.236 8.815-2.02 5.003-2.709 8.869-2.709 15.193 0 5.995.078 6.304 2.375 9.446 1.769 2.418 6.807 6.21 10.745 8.086 2.861 1.363 5.065 1.608 13.92 1.55l5.76-.038zm-17.755-10.367c-.795-.272-1.485-.92-2.4-2.257l-1.285-1.875.11-7.078c.08-5.148.228-7.308.544-7.918.594-1.149 2.593-2.854 3.346-2.854 1.212 0 1.352.991 1.109 7.838-.227 6.382-.219 6.51.502 7.794.998 1.775 2.211 2.288 5.413 2.288 2.752 0 4.216-.473 4.668-1.508.138-.314.315-2.594.393-5.065l.143-4.494-.829-.786c-1.038-.986-1.043-1.42-.028-2.75.924-1.21 3.483-2.83 3.984-2.52.184.114.62.767.97 1.452.552 1.083.635 1.89.635 6.151 0 4.451-.066 5.037-.72 6.329-.918 1.815-5.184 5.53-7.76 6.756-1.685.803-2.272.913-4.8.897-1.584-.01-3.382-.19-3.995-.4zm-108.98 77.837c-3.08-.699-3.48-.86-6.469-2.615-2.941-1.727-7.033-5.46-9.187-8.383-1.918-2.602-5.356-8.238-6.454-10.58-.685-1.46-.75-2.031-.754-6.536-.003-4.986.498-8.912 1.487-11.656.263-.73.741-2.34 1.063-3.576s1.33-4.044 2.242-6.24c4.457-10.73 4.46-10.734 6.36-12.656 2.437-2.466 5.748-5.082 7.523-5.944 1.694-.823 1.932-1.225 1.28-2.156-.642-.917-1.005-.856-2.643.447-2.448 1.946-3.074 1.323-1.806-1.798 1.594-3.921 5.361-6.57 7.006-4.926.65.65 1.48.607 1.509-.08.013-.308.083-2.504.157-4.88s.352-7.035.617-10.354c.265-3.318.482-7.61.482-9.535 0-3.833.234-4.594 1.892-6.17.544-.518.988-1.058.988-1.2s-.684-.262-1.52-.263c-1.566-.003-4.244-.355-7.6-1-2.003-.386-10.628-4.455-12.58-5.937-2.18-1.654-5.601-6.642-7.752-11.3l-1.107-2.4V36.63l1.23-2.88a163.43 163.43 0 001.806-4.383c.965-2.522 4.913-8.476 7.136-10.765 2.076-2.135 6.025-4.998 8.76-6.35 2.1-1.038 2.854-1.24 4.977-1.337 3.476-.159 4.4.704 2.57 2.401-1.591 1.478-2.66 1.85-5.84 2.032-2.91.167-3.138.235-5.36 1.608-1.976 1.22-2.583 1.827-4.095 4.094-1.902 2.85-4.527 8.145-5.777 11.653-.721 2.024-.767 2.573-.762 9.12l.005 6.966 1.06 2.613c1.394 3.437 4.1 7.73 6.29 9.979 1.448 1.488 2.603 2.225 6.53 4.168 4.282 2.117 5.137 2.42 8.32 2.958 4.039.68 10.746.801 13.374.24.932-.2 3.017-.997 4.631-1.77 2.603-1.249 3.065-1.603 4.076-3.127.628-.945 1.514-2.874 1.97-4.286.796-2.472.823-2.802.714-8.911l-.113-6.344-1.306-2.911c-.718-1.601-1.906-3.761-2.639-4.8-4.081-5.787-4.872-6.782-6.153-7.746a80.892 80.892 0 01-2.86-2.281c-1.759-1.482-4.026-2.664-6.472-3.375-1.001-.291-1.905-.665-2.007-.831-.398-.644.29-1.637 1.874-2.704 1.957-1.318 3.293-1.425 5.352-.43.776.375 1.992.936 2.7 1.246.709.31 1.937 1.14 2.729 1.844a57.05 57.05 0 002.87 2.363c1.365 1.033 1.934 1.695 4.49 5.221 3.104 4.284 3.542 5.038 5.254 9.038l1.127 2.635.035 6.645c.035 6.5.016 6.698-.84 9.002-1.974 5.305-6.402 10.273-11.504 12.907-4.167 2.152-6.073 2.848-8.953 3.271l-2.56.377-.207 7.024c-.115 3.864-.363 8.465-.552 10.225-.358 3.333-.5 19.04-.173 19.04.103 0 .948-.804 1.878-1.788 1.29-1.363 1.872-1.762 2.453-1.68 1.06.15 1.129 1.452.257 4.79-1.29 4.938-1.464 4.403 2.227 6.83 2.566 1.685 3.605 2.18 5.072 2.413 2.655.422 6.087 1.879 7.114 3.02.483.537 1.53 1.695 2.326 2.575 2.263 2.502 4.712 6.832 4.937 8.728.293 2.477.477 2.611 2.263 1.658.839-.448 4.798-2.572 8.798-4.72s7.379-3.906 7.509-3.906c.381 0 5.853-3.191 7.894-4.604 1.032-.714 2.548-2.191 3.369-3.282 1.62-2.153 4.433-4.518 6.828-5.743 1.418-.725 2.804-2.457 2.244-2.804-.133-.082-1.032.192-2 .61-1.594.687-2.22.759-6.762.77-4.253.011-5.035-.062-5.198-.487-.276-.719.502-2.023 2.098-3.518 2.272-2.128 2.454-2.21 5.354-2.43 3.937-.298 9.78-1.607 14.56-3.263 5.778-2 6.347-1.642 2.751 1.732-1.658 1.556-2.372 2.491-2.75 3.602-.367 1.078-1.017 1.951-2.305 3.1-.986.878-1.898 1.597-2.027 1.597s-.855 1.187-1.616 2.637c-1.61 3.07-3.995 5.683-5.188 5.683-.438 0-.885-.144-.994-.32-.109-.176-.752-.32-1.429-.32-1.237 0-2.088.544-4.662 2.978-2.302 2.177-7.33 5.363-13.749 8.71l-6.72 3.506c-4.596 2.399-6.85 3.698-7.09 4.088-.117.188-.225 5.034-.24 10.77l-.03 10.427-1.205 3.568c-2.178 6.445-5.065 9.864-11.95 14.155-4.479 2.79-5.348 3.237-7.325 3.764-2.378.633-9.915.503-13.134-.228zm17.91-4.75c.868-.382 2.78-1.42 4.247-2.307 3.068-1.853 3.326-2.238 5.227-7.793.78-2.28 1.293-4.47 1.438-6.135.282-3.225-.068-3.595-1.735-1.834-2.232 2.359-7.444 6.232-10.114 7.516-3.37 1.622-5.316 1.167-6.433-1.506l-.457-1.094-1.77.208c-2.47.29-5.283-.581-6.555-2.03-.793-.903-.943-1.344-.933-2.745.006-.918.197-2.003.423-2.411.597-1.077 7.25-7.708 8.27-8.244.507-.266 1.79-.453 3.108-.453 3.085 0 3.054-.08 2.781 7.347-.257 6.984-.179 7.247 2.14 7.159 2.281-.087 4.37-1.392 7.964-4.98l3.281-3.274.13-2.05c.142-2.221-.425-10.672-.959-14.283-.436-2.957-2.19-6.14-5.287-9.591-1.942-2.166-2.706-2.779-4.15-3.331-2.19-.839-2.705-.844-4.025-.039-.576.351-1.223.64-1.437.64-.595.002-2.707-2.242-2.944-3.127-.12-.45-.768-1.114-1.525-1.56l-1.315-.777-1.854 1.621c-1.885 1.65-3.146 2.239-3.67 1.714-.161-.16-.672-1.366-1.135-2.68-1.094-3.098-1.596-3.494-4.448-3.502-4.087-.012-4.752.69-7.973 8.422-2.135 5.125-3.277 8.29-3.884 10.77-.237.968-.823 3.2-1.302 4.96-.787 2.888-.874 3.745-.896 8.8l-.025 5.6 2.343 3.97c3.591 6.088 4.725 7.645 7.725 10.604 3.436 3.39 6.89 5.494 10.434 6.357 1.396.34 2.826.694 3.178.787.352.092 2.872.122 5.6.066 4.25-.087 5.185-.2 6.537-.796zm-26.387-11.874c-.427-.264-1.24-5.245-1.259-7.715-.011-1.505-.312-1.971-1.722-2.675-1.075-.535-.97-1.206.42-2.712l1.291-1.398v-2.815c0-2.452-.087-2.895-.676-3.444-.371-.346-.777-1.107-.9-1.692-.203-.954-.329-1.055-1.227-.984-.55.043-1.096-.076-1.213-.265-.466-.754.884-3.168 2.726-4.873 2.196-2.033 3.008-2.343 3.874-1.477.908.908 1.588.781 5.263-.987 1.832-.882 4.057-1.77 4.943-1.975 1.496-.346 1.666-.321 2.367.338.415.39 1.207 1.636 1.76 2.768.962 1.974 1.003 2.224 1.003 6.076 0 2.711-.144 4.351-.443 5.046-.378.88-6.343 6.969-10.203 10.416-1.126 1.006-1.194 1.174-1.194 2.98 0 1.859-.045 1.96-1.615 3.62-1.65 1.745-2.485 2.207-3.195 1.768zm8.87-13.514c2.865-2.75 2.98-3.038 2.98-7.46 0-3.583-.04-3.807-1.023-5.65-.562-1.055-1.235-2-1.495-2.1-.619-.237-3.4.737-4.93 1.727l-1.207.782.14 3.75c.077 2.063.152 4.862.168 6.22.026 2.385.066 2.508 1.158 3.6.622.622 1.354 1.13 1.627 1.13s1.435-.9 2.582-2zm9.7 4.612c0-1.754-.144-2.948-.384-3.188-1.373-1.373-4.096.856-4.096 3.352 0 1.15.155 1.468 1.04 2.135 1.224.922 2.107 1.162 2.88.781.47-.23.56-.727.56-3.08zm42.133 8.054c-.117-.117-.213-1.175-.213-2.35 0-1.713-.124-2.25-.625-2.702-.617-.56-.615-.583.206-2.154l.83-1.588-.396-5.336c-.465-6.244-.42-5.484-.373-6.376.053-1.008 2.4-3.28 3.386-3.28 1.02 0 1.452.837 1.452 2.82 0 1.76.533 2.478 1.593 2.142.365-.116.878-.537 1.139-.936.477-.727.4-1.472-.671-6.506-.088-.415-.391-.72-.715-.72-.865 0-5.484 1.856-6.388 2.567-1.478 1.162-2.76.617-1.98-.842.78-1.458 3.79-3.364 7.59-4.806 3.833-1.454 5.195-1.687 5.775-.988.188.227.65 2.207 1.029 4.4.654 3.802.927 4.67 2.157 6.869.667 1.191.933 6.156.422 7.861-.524 1.75-4.053 4.926-6.926 6.236-1.906.868-2.326 1.199-2.485 1.954-.418 1.99-3.87 4.672-4.807 3.735zm9.096-10.063c.155-.244.283-1.686.286-3.204.007-3.982-.708-4.304-3.595-1.618-.792.736-.88 1.034-.88 2.972 0 1.414.137 2.215.4 2.332.728.325 3.501-.028 3.789-.482zm73.65 3.384c-.643-.45-1.032-1.416-1.511-3.747-.139-.677-.365-.88-.98-.88-.439 0-1.552-.421-2.473-.935-.922-.514-2.31-1.102-3.086-1.306-.776-.204-1.82-.78-2.32-1.28l-.91-.91v-4.835c0-5.278.27-6.457 1.857-8.117 1.318-1.378 2.864-2.227 3.681-2.022.426.107 1.231.986 1.983 2.166 1.297 2.037 4.185 5.398 4.636 5.398.14 0 .57-.684.957-1.52 1.42-3.066 5.126-5.882 5.126-3.893 0 .367-.864 2.826-1.92 5.466-1.278 3.196-1.919 5.244-1.917 6.133.004 2.118.633 5.44 1.137 5.996.87.962.56 2.095-.9 3.278-1.727 1.4-2.478 1.626-3.36 1.008zm-3.92-11.916c0-.728-1.816-2.733-2.24-2.471-.446.276-.4 1.537.08 2.142.759.956 2.16 1.17 2.16.33zm-61.068-12.328c-.832-1.003 2.097-3.433 4.893-4.06 1.27-.284 1.65-.265 2.017.102.39.39.312.611-.557 1.601-1.358 1.547-2.75 2.355-4.503 2.613-1.095.162-1.556.098-1.85-.256zM51.03 101.67c-.167-.22-.554-1.624-.86-3.12-1.204-5.89-1.2-5.886-3.846-3.888-3.24 2.446-5.513 3.009-6.336 1.568-.612-1.071-.454-8.016.248-10.88.481-1.961.768-2.482 2.03-3.69 1.699-1.624 2.47-1.99 4.2-1.99.949 0 1.53.247 2.418 1.028l1.17 1.027.627-.787c2.355-2.96 4.008-4.107 4.58-3.18.112.181-.393 2.117-1.121 4.303l-1.325 3.974.981 3.897c.54 2.143.98 4.136.98 4.43s.289 1.098.64 1.789.64 1.493.64 1.784c0 .734-1.139 2.11-2.658 3.21-1.404 1.017-1.908 1.13-2.367.526zm-4.822-9.76c.27-.308.677-1.091.906-1.74.366-1.036.344-1.343-.18-2.504-.606-1.346-1.645-2.343-2.13-2.043-.316.195-.366 6.322-.054 6.634.37.37.95.233 1.458-.347zM36.49 63.59c-.248-.46-.438-2.908-.529-6.8-.077-3.344-.278-6.251-.447-6.46a.715.715 0 00-.762-.206c-.34.13-.456.794-.456 2.592v2.417l-1.87 1.869c-3.044 3.044-3.956 2.69-6.579-2.554-1.966-3.93-3.02-5.568-3.489-5.413-.232.076-.445 1.084-.543 2.568-.155 2.367-.202 2.486-1.548 3.856-1.862 1.896-2.748 2.362-3.421 1.803-.45-.374-.504-1.54-.442-9.758.04-5.133-.03-9.498-.154-9.698-.897-1.45 2.412-6.136 4.332-6.136.903 0 .913.023.913 1.914 0 2.369.636 4.052 2.53 6.7.81 1.13 2.128 3.002 2.932 4.16.803 1.159 1.595 2.106 1.76 2.106.166 0 .37-2.36.458-5.343l.16-5.343 1.086-1.119c1.23-1.268 2.81-2.135 3.446-1.89.34.13.428 1.637.428 7.31 0 3.931.128 7.226.283 7.322.156.097 1-.394 1.874-1.091 2.122-1.69 2.856-1.926 5.977-1.926 2.23 0 2.824.116 3.733.729 1.842 1.241 2.748 4.669 1.747 6.606-.64 1.238-3.307 3.579-5.182 4.55-1.441.745-1.545.88-1.462 1.899.233 2.866.22 2.907-1.463 4.511-1.775 1.694-2.718 1.929-3.312.825zm6.54-12.244c-.086-1.146-1.01-2.192-1.544-1.748-.69.572-.872 2.34-.287 2.769.844.617 1.91.023 1.831-1.02z"/></svg>