<?xml version="1.0" standalone="no"?>
<!DOCTYPE svg PUBLIC "-//W3C//DTD SVG 20010904//EN"
 "http://www.w3.org/TR/2001/REC-SVG-20010904/DTD/svg10.dtd">
<svg version="1.0" xmlns="http://www.w3.org/2000/svg"
 width="1920.000000pt" height="1023.000000pt" viewBox="0 0 1920.000000 1023.000000"
 preserveAspectRatio="xMidYMid meet">
<metadata>
Created by potrace 1.16, written by Peter Selinger 2001-2019
</metadata>
<g transform="translate(0.000000,1023.000000) scale(0.100000,-0.100000)"
fill="current" stroke="none">
<path d="M16277 10218 c-2 -7 8 -18 22 -25 l26 -11 -26 -1 c-14 -1 -36 -10
-49 -21 -13 -11 -29 -20 -37 -20 -7 0 -13 -4 -13 -10 0 -5 -7 -10 -15 -10 -8
0 -15 -7 -15 -15 0 -8 -4 -15 -9 -15 -12 0 -19 -32 -11 -54 6 -18 17 -19 152
-17 111 2 158 -1 193 -13 25 -9 67 -16 93 -16 27 0 52 -4 58 -9 5 -5 25 -14
44 -19 32 -10 33 -11 13 -17 -13 -4 -23 -14 -23 -21 0 -8 -4 -14 -9 -14 -5 0
-13 -14 -16 -32 -4 -17 -14 -38 -21 -46 -8 -7 -14 -21 -14 -30 0 -9 -7 -26
-15 -36 -8 -11 -15 -30 -15 -42 0 -12 -5 -24 -11 -26 -5 -2 -13 -22 -16 -45
-6 -46 -13 -50 -103 -55 l-45 -2 3 33 c1 18 9 39 17 48 8 8 15 29 16 46 0 18
4 74 7 125 8 102 3 115 -43 115 -31 0 -125 -71 -125 -94 0 -10 -6 -19 -12 -21
-9 -3 -14 -40 -15 -130 -2 -88 -7 -134 -18 -154 -8 -16 -15 -33 -15 -37 0 -5
-7 -15 -16 -24 -8 -9 -14 -27 -12 -42 3 -26 4 -26 91 -29 48 -1 87 1 87 6 0 5
31 13 70 16 38 4 72 11 75 17 4 5 15 9 25 9 10 0 25 6 32 14 8 7 29 17 46 21
38 8 44 -11 12 -40 -11 -10 -20 -31 -20 -47 0 -16 -7 -36 -15 -44 -10 -11 -15
-36 -15 -84 0 -76 10 -90 65 -90 14 0 34 -4 43 -9 9 -5 38 -11 63 -15 36 -5
50 -3 62 9 9 8 21 15 28 15 15 0 79 70 79 87 0 6 4 13 9 15 8 3 15 37 12 66
-1 14 -37 16 -46 2 -3 -5 -33 -10 -66 -10 l-59 0 0 70 c0 39 4 70 9 70 5 0 11
8 14 19 3 13 14 19 33 19 15 0 30 5 32 11 2 6 16 11 32 11 16 0 35 7 44 15 8
8 19 15 24 15 6 0 26 14 46 32 36 31 45 63 30 102 -7 17 -39 22 -48 7 -3 -5
-44 -11 -92 -13 -47 -2 -89 -9 -92 -15 -9 -14 -61 -23 -68 -11 -3 5 4 27 15
49 12 22 21 58 21 83 0 25 4 46 9 48 5 2 12 22 16 45 6 39 5 43 -19 49 l-25 6
28 24 c16 13 34 24 40 24 6 0 11 7 11 15 0 8 7 15 15 15 17 0 22 65 5 75 -6 3
-49 9 -97 12 -47 3 -98 12 -112 19 -18 10 -72 14 -171 16 l-145 1 140 8 c169
8 155 6 155 24 0 13 -26 15 -174 15 -131 0 -175 -3 -179 -12z"/>
<path d="M17305 9501 c-3 -6 -13 -11 -22 -11 -9 0 -36 -20 -60 -45 -23 -25
-45 -45 -48 -45 -9 0 -45 -40 -45 -50 0 -5 -7 -10 -15 -10 -8 0 -15 -7 -15
-15 0 -8 -4 -15 -10 -15 -5 0 -10 -7 -10 -15 0 -8 -4 -15 -10 -15 -5 0 -12 0
-15 0 -7 0 -40 -29 -94 -82 -27 -27 -53 -48 -60 -48 -6 0 -11 -4 -11 -10 0 -5
-8 -10 -17 -10 -10 0 -36 -22 -58 -50 -22 -27 -48 -49 -57 -50 -10 0 -18 -4
-18 -10 0 -5 -9 -10 -19 -10 -11 0 -26 -6 -33 -12 -20 -18 -50 -38 -70 -44 -9
-3 -19 -12 -22 -20 -3 -8 -12 -14 -21 -14 -8 0 -15 -4 -15 -10 0 -11 -76 -50
-98 -50 -8 0 -20 -7 -27 -17 -7 -9 -19 -14 -29 -10 -18 7 -22 42 -6 52 14 9
12 53 -2 58 -18 5 -48 -3 -48 -14 0 -5 -6 -9 -14 -9 -8 0 -28 -13 -44 -30 -17
-16 -33 -30 -36 -30 -8 0 -56 -46 -56 -54 0 -4 -7 -14 -15 -22 -8 -9 -15 -26
-15 -40 0 -14 -7 -27 -15 -30 -8 -4 -15 -14 -15 -23 0 -10 -9 -36 -20 -59 -14
-30 -27 -42 -41 -42 -20 0 -119 -92 -119 -110 0 -5 -13 -11 -30 -15 -16 -4
-30 -11 -30 -16 0 -5 -4 -9 -10 -9 -5 0 -25 -15 -44 -32 -61 -58 -122 -99
-168 -115 -10 -3 -18 -9 -18 -14 0 -18 -73 -80 -118 -100 -26 -12 -64 -39 -85
-62 -34 -35 -45 -40 -95 -44 -31 -2 -61 -8 -67 -13 -5 -4 -36 -11 -68 -15 -31
-4 -60 -11 -63 -16 -3 -5 -15 -9 -27 -9 -12 0 -35 -7 -51 -15 -15 -8 -33 -15
-38 -15 -11 0 -67 -23 -112 -46 -16 -8 -49 -17 -73 -21 -23 -3 -43 -9 -43 -13
0 -4 -19 -10 -42 -13 -24 -3 -44 -11 -46 -16 -2 -6 -15 -11 -28 -11 -14 0 -27
-6 -30 -14 -3 -8 -19 -18 -35 -21 -16 -4 -29 -10 -29 -15 0 -4 -19 -11 -42
-15 -24 -4 -47 -11 -53 -15 -5 -4 -34 -11 -62 -15 -29 -4 -53 -11 -53 -16 0
-5 -6 -9 -14 -9 -8 0 -19 20 -26 48 -25 92 -53 89 -156 -15 -41 -41 -74 -76
-74 -79 0 -24 -110 -84 -154 -84 -15 0 -26 -4 -26 -10 0 -5 -13 -10 -30 -10
-16 0 -33 -6 -37 -13 -9 -13 -93 -57 -110 -57 -6 0 -24 -7 -39 -15 -16 -8 -41
-15 -56 -15 -16 0 -28 -4 -28 -9 0 -4 -23 -11 -52 -14 -28 -4 -56 -11 -62 -17
-5 -5 -24 -10 -42 -10 -17 0 -37 -6 -43 -14 -7 -8 -26 -18 -42 -21 -16 -4 -29
-10 -29 -14 0 -5 -19 -11 -41 -14 -23 -3 -45 -10 -48 -15 -3 -6 -19 -14 -34
-17 -27 -7 -28 -6 -21 21 4 16 11 31 16 32 4 2 8 15 8 29 0 14 9 44 19 67 11
23 29 62 41 88 12 27 26 50 31 54 5 3 9 16 9 29 0 25 17 35 58 35 19 0 43 15
75 45 39 38 47 52 47 83 1 20 0 128 0 240 0 113 3 202 8 202 5 0 12 21 16 46
3 25 13 52 21 60 8 9 15 27 15 42 0 15 7 36 15 46 8 11 15 30 15 42 0 12 7 35
15 50 8 16 15 43 15 61 0 17 4 34 9 37 4 3 11 28 15 56 4 27 11 50 15 50 5 0
12 18 16 40 4 22 11 40 16 40 5 0 12 12 15 27 4 15 13 34 21 41 7 7 13 29 13
47 0 19 4 36 9 40 5 3 13 31 17 63 3 31 10 62 14 67 11 15 22 99 14 118 -3 9
-12 17 -19 17 -19 0 -75 -30 -75 -41 0 -5 -7 -9 -15 -9 -8 0 -15 -7 -15 -15 0
-8 -4 -15 -10 -15 -5 0 -10 -6 -10 -12 -1 -7 -9 -31 -20 -53 -11 -22 -20 -51
-20 -65 0 -14 -7 -34 -15 -44 -8 -11 -15 -31 -15 -45 0 -14 -7 -35 -15 -45 -8
-11 -15 -30 -15 -42 0 -12 -7 -35 -15 -50 -8 -16 -15 -41 -15 -56 0 -16 -4
-28 -9 -28 -5 0 -12 -18 -16 -41 -4 -22 -13 -53 -21 -67 -8 -15 -14 -33 -14
-40 0 -7 -7 -20 -15 -28 -8 -9 -15 -27 -15 -42 0 -15 -7 -36 -15 -46 -8 -11
-15 -34 -15 -52 0 -18 -4 -35 -9 -38 -5 -3 -12 -30 -16 -61 -3 -30 -10 -57
-15 -60 -4 -3 -11 -28 -15 -55 -4 -28 -11 -50 -15 -50 -5 0 -11 -13 -15 -30
-4 -16 -13 -30 -20 -30 -8 0 -12 -6 -9 -13 9 -24 -35 -51 -83 -53 -51 -2 -91
-19 -112 -48 -8 -11 -23 -28 -32 -37 -10 -10 -19 -32 -21 -50 -3 -32 -1 -33
42 -42 25 -5 49 -15 53 -23 4 -8 19 -14 32 -14 15 0 25 -6 25 -15 0 -9 6 -12
15 -9 10 4 15 0 15 -15 0 -12 -4 -21 -9 -21 -5 0 -12 -12 -16 -27 -8 -36 -44
-111 -56 -119 -5 -3 -9 -16 -9 -30 0 -13 -4 -24 -9 -24 -5 0 -12 -15 -16 -32
-3 -18 -10 -42 -15 -53 -5 -11 -11 -37 -15 -57 -3 -21 -10 -38 -15 -38 -5 0
-12 -11 -16 -25 -3 -13 -12 -29 -20 -36 -8 -6 -14 -20 -14 -30 0 -10 -6 -22
-12 -26 -39 -25 -63 -124 -36 -151 17 -17 67 -15 74 3 4 8 12 15 20 15 8 0 14
6 14 13 1 13 55 41 103 52 15 4 27 11 27 16 0 5 13 9 29 9 16 0 36 7 45 15 8
8 28 15 43 15 16 0 38 7 49 15 10 8 30 15 44 15 14 0 34 6 45 14 11 7 39 17
63 21 23 4 42 10 42 15 0 4 19 10 42 13 24 3 44 11 46 16 2 6 16 11 31 11 15
0 36 7 47 15 10 8 29 15 40 15 12 0 27 7 34 15 7 8 19 15 27 15 7 0 27 10 43
21 25 19 38 21 99 16 39 -3 81 -13 93 -21 12 -9 39 -16 59 -16 20 0 42 -7 49
-15 7 -8 27 -15 46 -15 18 0 36 -4 39 -10 3 -5 19 -10 36 -10 16 0 29 5 29 10
0 6 9 10 19 10 10 0 21 7 25 15 3 8 12 15 21 15 8 0 15 5 15 11 0 7 7 17 16
23 11 8 16 28 16 61 0 33 -5 53 -16 61 -9 6 -16 20 -16 31 0 18 8 21 57 25 31
3 59 10 61 16 2 7 17 12 33 12 17 0 32 6 35 15 4 8 14 15 24 15 10 0 23 7 30
15 7 8 27 17 46 21 19 3 34 10 34 15 0 4 23 11 50 15 28 4 53 11 56 15 3 5 22
9 43 9 22 0 44 6 51 15 7 8 27 15 46 15 18 0 39 7 48 15 8 8 21 15 30 15 8 0
22 7 31 16 8 9 34 18 56 21 22 3 42 10 45 14 3 5 25 9 50 9 25 0 53 4 62 8 10
5 26 4 41 -4 l24 -12 -32 -16 c-27 -14 -31 -22 -31 -56 0 -29 4 -40 15 -40 8
0 15 -4 15 -10 0 -5 18 -13 41 -16 22 -4 43 -13 46 -20 3 -8 16 -14 30 -14 13
0 31 -7 39 -15 9 -8 24 -15 33 -15 10 0 24 -7 31 -15 7 -8 23 -15 35 -15 12 0
28 -7 35 -15 7 -8 27 -15 45 -15 18 0 46 -7 61 -15 16 -8 39 -15 50 -15 12 0
24 -7 28 -15 3 -8 14 -15 24 -15 11 0 25 -7 32 -15 7 -8 19 -15 27 -15 8 0 21
-7 29 -15 9 -8 24 -15 35 -15 10 0 19 -4 19 -8 0 -5 25 -19 55 -33 30 -13 55
-30 55 -36 0 -7 11 -13 24 -13 13 0 26 -7 30 -15 3 -9 18 -15 35 -15 16 0 31
-6 35 -15 3 -8 16 -15 30 -15 13 0 37 -7 52 -15 16 -8 36 -15 44 -15 8 0 24
-7 34 -15 11 -8 27 -15 37 -15 9 0 22 -7 29 -15 7 -8 25 -15 41 -15 16 0 29
-4 29 -10 0 -5 12 -13 28 -16 15 -4 36 -13 47 -20 11 -8 33 -14 50 -14 16 0
39 -7 49 -15 11 -8 28 -15 38 -15 10 0 21 -7 24 -15 4 -8 17 -15 30 -15 14 0
27 -7 30 -15 4 -8 12 -15 19 -15 7 0 18 -7 25 -15 7 -8 28 -15 47 -15 21 0 36
6 39 15 4 8 12 15 19 15 8 0 28 14 45 31 25 26 30 38 28 68 -2 30 -9 39 -37
53 -19 9 -39 22 -44 27 -6 6 -24 11 -39 11 -15 0 -28 5 -28 10 0 6 -6 10 -12
10 -7 1 -31 9 -53 20 -22 11 -50 19 -61 20 -12 0 -27 7 -34 15 -7 8 -20 15
-30 15 -10 0 -23 7 -30 15 -7 8 -23 15 -36 15 -12 0 -25 4 -28 9 -3 5 -23 12
-43 15 -36 6 -71 20 -135 53 -14 7 -35 13 -46 13 -11 0 -22 7 -26 15 -3 8 -15
15 -26 15 -11 0 -20 4 -20 10 0 5 -17 14 -37 20 -21 6 -51 20 -68 30 -16 11
-37 22 -45 26 -8 3 -22 10 -30 15 -8 5 -23 12 -32 15 -10 4 -18 13 -18 20 0 8
-8 14 -19 14 -10 0 -24 7 -31 15 -7 8 -25 15 -41 15 -16 0 -29 4 -29 9 0 5
-19 12 -42 16 -24 4 -52 14 -63 21 -11 8 -30 14 -43 14 -12 0 -25 7 -28 15 -4
8 -16 15 -29 15 -13 0 -25 7 -29 15 -3 9 -18 15 -40 15 -19 0 -41 7 -50 15 -8
8 -26 15 -40 15 -14 0 -28 5 -32 11 -5 9 10 10 57 3 132 -18 1280 3 1287 24 2
6 8 12 14 12 12 0 58 42 58 53 0 5 7 15 15 23 8 8 12 21 8 30 -5 14 -75 15
-617 12 -336 -2 -597 -1 -581 0 17 2 34 10 38 18 4 8 19 14 33 14 13 0 27 7
30 15 4 8 13 15 20 15 8 0 17 7 20 15 3 8 21 17 40 21 19 3 34 10 34 15 0 5
12 9 28 9 15 0 40 7 56 15 15 8 38 15 51 15 12 0 28 6 34 14 7 8 26 18 42 21
16 4 29 11 29 16 0 5 9 9 19 9 11 0 27 7 35 16 9 8 32 18 51 21 20 3 38 10 41
14 3 5 18 9 33 9 15 0 36 7 47 15 10 8 27 15 36 15 9 0 23 6 30 13 7 7 20 16
28 20 32 16 57 33 74 50 12 11 33 17 66 17 27 0 52 5 55 10 3 6 28 10 55 10
46 0 130 32 138 52 2 4 8 8 14 8 15 0 58 48 58 66 0 7 5 14 10 14 12 0 14 47
2 54 -12 7 -107 -13 -110 -24 -2 -6 -21 -10 -43 -10 -21 0 -56 -9 -76 -20 -21
-11 -50 -20 -65 -20 -15 0 -30 -4 -33 -10 -3 -5 -17 -10 -30 -10 -13 0 -30 -7
-39 -15 -8 -8 -23 -15 -34 -15 -11 0 -25 -7 -32 -15 -7 -8 -16 -15 -21 -15 -5
0 -18 -9 -29 -20 -11 -11 -27 -20 -35 -20 -8 0 -15 -4 -15 -9 0 -5 -25 -12
-55 -16 -30 -3 -57 -11 -60 -16 -4 -5 -19 -9 -35 -9 -16 0 -35 -6 -42 -13 -7
-8 -26 -17 -41 -21 -15 -3 -27 -11 -27 -16 0 -6 -8 -10 -18 -10 -11 0 -27 -9
-37 -20 -10 -11 -31 -20 -47 -20 -15 0 -28 -4 -28 -10 0 -5 -14 -10 -31 -10
-27 0 -60 -12 -109 -42 -8 -5 -27 -14 -42 -21 -16 -6 -28 -15 -28 -19 0 -4 -6
-8 -13 -8 -7 0 -20 -9 -30 -20 -10 -12 -29 -20 -46 -20 -17 0 -33 -4 -36 -10
-3 -5 -16 -10 -28 -10 -12 0 -31 -7 -41 -15 -34 -25 -51 -18 -25 10 13 13 28
25 32 25 5 0 15 7 23 15 9 8 24 15 35 15 10 0 19 7 19 15 0 8 5 15 11 15 6 0
25 16 42 35 17 19 39 35 49 35 10 0 18 5 18 10 0 6 6 10 13 10 6 0 42 29 79
65 36 36 71 65 76 65 6 0 12 3 14 8 6 14 70 42 96 42 15 0 40 7 56 15 15 8 41
15 57 15 17 0 32 6 35 14 3 8 21 17 40 20 19 4 34 11 34 16 0 5 15 16 33 23
45 20 59 40 60 92 0 35 4 45 18 45 9 0 22 7 29 15 7 8 21 15 31 15 11 0 19 7
19 15 0 8 7 15 15 15 8 0 15 7 15 15 0 8 11 17 24 21 14 3 27 12 30 20 3 8 17
14 31 14 14 0 25 5 25 10 0 6 5 10 11 10 7 0 26 15 44 33 18 17 43 39 55 47
13 8 38 27 55 43 18 15 36 27 40 27 5 0 23 15 41 33 70 68 93 87 105 87 12 0
109 94 109 105 0 8 39 45 48 45 11 0 72 69 72 81 0 5 5 9 11 9 14 0 7 82 -8
87 -6 2 -14 -1 -18 -6z"/>
<path d="M12180 8989 c-59 -49 -60 -55 -60 -302 0 -183 -3 -238 -16 -280 -9
-29 -23 -57 -30 -63 -7 -5 -14 -28 -16 -50 l-3 -39 43 -3 c31 -2 44 1 48 12 3
9 13 16 20 16 8 0 17 6 20 14 3 8 19 18 35 21 16 4 29 11 29 16 0 5 5 9 10 9
6 0 19 8 29 18 11 9 26 22 33 28 18 15 78 85 78 91 0 2 7 11 15 19 8 9 15 24
15 35 0 10 4 19 10 19 5 0 12 15 16 34 3 19 12 37 20 40 8 3 14 15 14 26 0 11
4 20 10 20 5 0 12 17 15 38 3 20 11 46 17 56 17 31 23 183 8 201 -21 26 -63
18 -90 -16 -14 -17 -32 -38 -40 -48 -34 -40 -44 -70 -48 -143 -3 -43 -8 -78
-13 -78 -4 0 -11 -16 -15 -35 -3 -19 -12 -39 -20 -46 -8 -6 -14 -23 -14 -38 0
-14 -5 -33 -10 -41 -7 -10 -10 64 -10 225 0 132 1 246 0 253 0 20 -72 14 -100
-9z"/>
<path d="M12605 8463 c-16 -3 -34 -9 -39 -14 -6 -5 -20 -9 -32 -9 -13 0 -29
-7 -38 -15 -8 -8 -19 -15 -24 -15 -15 0 -105 -92 -121 -123 -13 -25 -13 -29 2
-44 13 -13 21 -14 39 -6 28 14 58 23 58 19 0 -3 -27 -64 -39 -86 -19 -36 -23
-97 -7 -113 9 -9 16 -22 16 -30 0 -8 9 -22 20 -32 16 -15 32 -17 92 -13 77 6
114 20 151 59 12 13 34 30 50 36 22 10 27 19 27 47 0 47 -14 54 -85 46 -100
-11 -100 -11 -100 40 l0 45 64 1 c40 0 66 5 69 12 2 7 10 12 17 12 8 0 19 9
25 20 6 11 17 20 25 20 8 0 15 5 15 10 0 6 7 10 15 10 9 0 15 9 15 23 0 13 5
28 12 35 22 22 -5 58 -49 65 -40 7 -128 7 -178 0z"/>
<path d="M18698 8097 c-7 -6 -30 -23 -50 -37 -37 -25 -78 -91 -78 -127 0 -10
-4 -23 -10 -29 -5 -5 -13 -38 -16 -73 -7 -64 -26 -96 -51 -87 -21 8 -74 -24
-124 -77 -25 -26 -50 -47 -56 -47 -6 0 -14 -8 -17 -17 -4 -10 -14 -31 -24 -48
-15 -28 -17 -29 -20 -8 -2 12 2 31 7 42 14 26 14 108 0 117 -18 11 -161 6
-172 -5 -6 -6 -21 -11 -34 -11 -12 0 -26 -6 -30 -13 -4 -7 -28 -23 -52 -35
-24 -13 -52 -33 -62 -45 -51 -59 -59 -71 -59 -84 0 -7 -4 -13 -10 -13 -5 0
-15 -19 -22 -42 -12 -40 -13 -33 -18 117 -5 158 -14 203 -43 206 -63 7 -177
-26 -177 -52 0 -5 -6 -9 -14 -9 -7 0 -23 -13 -36 -30 -13 -16 -27 -30 -32 -30
-10 0 0 69 12 85 4 6 11 26 15 45 4 19 14 44 21 55 21 29 19 124 -3 132 -9 4
-19 1 -21 -5 -2 -7 -12 -12 -22 -12 -11 0 -24 -9 -30 -20 -6 -11 -17 -20 -25
-20 -8 0 -15 -4 -15 -10 0 -5 -6 -10 -14 -10 -20 0 -46 -61 -46 -108 0 -23 -4
-43 -9 -46 -4 -3 -11 -37 -15 -76 -4 -38 -11 -70 -15 -70 -5 0 -12 -17 -16
-37 -8 -48 -37 -112 -50 -113 -5 0 -18 -19 -29 -43 -10 -23 -22 -50 -27 -59
-5 -10 -9 -40 -9 -68 0 -49 1 -50 29 -50 16 0 36 7 45 15 8 8 18 15 23 15 14
0 42 38 49 65 3 14 10 25 15 25 5 0 9 7 9 15 0 8 9 19 20 25 11 6 20 17 20 24
0 8 7 19 15 26 8 7 15 21 15 32 0 10 7 21 15 24 8 4 15 12 15 20 0 8 5 14 10
14 10 0 27 14 87 71 54 52 60 41 69 -119 4 -64 2 -92 -10 -117 -9 -18 -16 -40
-16 -49 0 -9 -5 -16 -11 -16 -6 0 -9 -17 -7 -42 l3 -43 53 -3 c31 -2 52 1 52
7 0 6 8 11 17 11 9 0 27 10 39 21 22 21 24 21 49 5 21 -14 42 -17 103 -13 42
2 93 9 113 14 32 9 39 8 54 -9 15 -18 25 -19 108 -14 51 3 115 6 144 5 28 0
54 5 58 10 3 6 18 11 33 11 18 0 37 11 55 31 15 17 27 26 27 20 0 -7 8 -15 18
-18 9 -4 23 -13 30 -20 19 -19 126 -17 142 2 15 18 41 20 57 4 8 -8 13 -8 17
0 4 6 14 11 22 11 8 0 28 14 44 30 16 17 33 30 37 30 14 0 34 54 40 109 4 30
12 66 19 80 12 22 18 24 77 22 44 -2 69 2 78 11 8 8 22 17 32 21 9 3 17 11 17
16 0 5 9 12 19 16 11 3 23 15 26 26 4 10 11 17 16 14 5 -4 9 12 9 34 l0 41
-134 0 c-79 0 -137 -4 -141 -10 -3 -5 -13 -10 -22 -10 -9 0 -45 -29 -79 -65
-46 -48 -65 -76 -70 -103 -4 -20 -11 -40 -16 -43 -5 -3 -12 -25 -15 -48 -5
-39 -23 -59 -23 -25 0 8 -4 13 -9 10 -15 -10 -42 5 -33 18 4 6 9 67 10 135 1
79 8 140 17 168 8 24 15 52 15 63 0 10 4 21 9 24 5 3 12 34 16 68 4 35 11 68
16 74 6 7 12 35 16 63 6 50 5 51 -20 51 -14 0 -32 -6 -39 -13z"/>
<path d="M12020 7790 c0 -5 -9 -10 -20 -10 -10 0 -23 -6 -27 -12 -4 -7 -17
-18 -27 -24 -11 -6 -24 -19 -30 -30 -6 -10 -14 -21 -17 -24 -11 -8 -14 -64 -6
-78 6 -8 1 -12 -16 -12 -14 0 -42 -15 -63 -35 -22 -19 -42 -35 -46 -35 -5 0
-8 -7 -8 -15 0 -8 -7 -15 -15 -15 -8 0 -15 -4 -15 -9 0 -5 -6 -9 -12 -8 -37 1
-56 -5 -76 -25 -47 -47 -62 -72 -62 -103 0 -17 -4 -35 -10 -41 -5 -5 -11 -25
-13 -43 l-2 -32 -76 -2 c-57 -2 -80 -6 -93 -20 -10 -9 -26 -22 -36 -27 -16 -9
-18 -6 -14 28 2 20 6 90 10 155 3 64 10 120 15 123 5 3 9 18 9 35 0 24 -4 29
-25 29 -27 0 -74 -26 -88 -47 -4 -7 -12 -13 -17 -13 -19 0 -50 -40 -50 -63 0
-13 -5 -28 -12 -35 -9 -9 -13 -71 -16 -205 -2 -105 -7 -201 -12 -212 -5 -11
-11 -49 -13 -84 -3 -35 -11 -67 -17 -71 -13 -8 -31 -80 -24 -92 7 -12 54 -10
54 2 0 6 9 10 20 10 11 0 23 7 26 15 4 8 12 15 20 15 8 0 14 7 14 15 0 8 7 15
15 15 8 0 15 6 15 14 0 8 5 16 10 18 6 2 13 21 17 43 3 22 10 42 14 45 5 3 11
38 15 78 l7 72 87 0 87 0 -4 -57 c-3 -32 -8 -67 -13 -78 -12 -29 -32 -194 -25
-205 8 -13 42 -13 50 0 3 6 15 10 26 10 10 0 19 4 19 9 0 5 16 26 35 45 19 20
35 43 35 50 0 8 5 16 10 18 6 2 13 21 16 43 3 22 9 56 14 75 5 19 12 47 15 63
3 15 12 27 20 27 8 0 15 6 15 14 0 8 10 16 23 19 25 7 61 66 55 93 -2 14 -14
20 -43 24 -40 5 -40 5 -36 45 1 22 7 42 11 45 5 3 12 29 16 58 6 49 8 52 33
48 14 -2 48 -7 74 -11 28 -4 47 -11 46 -18 -1 -7 -1 -42 0 -80 1 -64 2 -68 29
-78 21 -8 34 -7 59 7 41 21 93 67 93 82 0 5 5 12 11 14 7 2 13 17 15 33 2 16
8 31 14 33 5 2 10 10 10 18 0 8 5 14 10 14 6 0 16 12 23 28 6 15 16 30 21 33
5 4 6 14 3 23 -5 12 -20 16 -56 16 l-50 0 4 51 c2 29 9 57 14 62 14 14 14 87
1 121 -7 20 -16 26 -40 26 -16 0 -30 -4 -30 -10z"/>
<path d="M14960 7580 c0 -5 -9 -10 -20 -10 -11 0 -20 -7 -20 -15 0 -8 -4 -15
-9 -15 -10 0 -61 -46 -61 -55 0 -4 -7 -14 -16 -22 -15 -16 -15 -43 1 -85 6
-14 2 -18 -18 -18 -14 0 -32 -7 -41 -15 -8 -8 -18 -15 -23 -15 -10 0 -37 -30
-45 -51 -5 -13 -29 -16 -134 -18 -71 -1 -133 -6 -139 -10 -5 -5 -34 -12 -62
-16 -29 -4 -53 -11 -53 -16 0 -5 -9 -9 -19 -9 -11 0 -26 -7 -35 -15 -8 -8 -18
-15 -23 -15 -4 0 -21 -14 -37 -30 -16 -17 -33 -30 -37 -30 -12 0 -99 -117 -99
-133 0 -29 12 -47 31 -47 10 0 19 5 19 10 0 6 9 10 20 10 11 0 23 7 26 15 4 8
12 15 20 15 8 0 14 7 14 15 0 8 7 15 15 15 8 0 15 7 15 15 0 19 51 45 88 45
15 0 33 5 40 12 9 9 12 7 12 -9 0 -11 -7 -23 -15 -27 -8 -3 -15 -12 -15 -21 0
-8 -4 -15 -10 -15 -5 0 -12 -11 -16 -24 -3 -14 -12 -27 -20 -30 -8 -3 -14 -12
-14 -20 0 -7 -7 -27 -15 -42 -18 -35 -19 -120 -2 -154 7 -14 23 -26 37 -28 14
-2 29 -8 34 -13 13 -12 143 -12 151 1 3 6 15 10 25 10 10 0 25 6 32 13 7 7 21
16 31 20 9 3 17 11 17 17 0 5 5 10 10 10 6 0 33 22 61 49 38 36 50 55 47 72
-2 20 -10 25 -40 27 -21 2 -38 -1 -38 -6 0 -5 -8 -13 -17 -16 -10 -3 -28 -12
-41 -20 -14 -8 -46 -13 -80 -11 l-57 2 3 49 c1 29 8 53 17 60 8 6 15 18 15 27
0 8 8 29 18 46 16 30 20 31 84 31 37 0 70 5 73 10 3 6 14 10 23 10 20 0 86 57
95 82 4 12 15 16 34 14 15 -2 35 -4 42 -5 12 -1 12 -4 3 -13 -7 -7 -12 -45
-12 -99 0 -70 3 -88 16 -93 33 -12 52 -5 98 39 27 25 52 45 57 45 10 0 14 35
11 86 l-3 32 73 4 c44 2 73 9 76 16 2 7 10 12 18 12 8 0 14 7 14 15 0 8 4 15
10 15 5 0 17 16 26 36 24 51 12 58 -112 62 l-105 4 2 66 c1 37 6 79 11 94 13
35 -5 68 -37 68 -14 0 -25 -4 -25 -10z"/>
<path d="M19063 7533 c-13 -2 -23 -8 -23 -13 0 -5 -10 -12 -22 -16 -13 -3 -38
-23 -55 -43 -28 -31 -33 -43 -33 -88 0 -29 -4 -53 -10 -53 -5 0 -10 -18 -10
-40 0 -39 1 -40 35 -40 19 0 35 5 35 10 0 14 27 12 33 -2 3 -10 9 -10 26 0 11
6 27 12 34 12 14 0 63 49 90 90 10 15 17 45 17 75 0 42 -5 55 -31 83 -29 31
-39 34 -86 25z"/>
<path d="M12898 7113 c-10 -2 -18 -9 -18 -14 0 -5 -7 -9 -15 -9 -9 0 -18 -7
-21 -15 -4 -8 -11 -15 -18 -15 -6 0 -33 -21 -60 -45 -27 -25 -53 -45 -58 -45
-4 0 -8 -6 -8 -13 0 -7 -17 -21 -37 -32 -52 -29 -63 -42 -63 -81 0 -32 2 -34
33 -34 30 0 43 7 94 50 7 5 16 10 20 10 5 0 16 8 25 18 24 24 40 37 61 45 9 3
17 11 17 17 0 5 11 10 25 10 14 0 28 7 31 15 4 8 10 15 15 15 12 0 49 38 49
50 0 6 5 10 11 10 6 0 9 14 7 33 -3 29 -6 32 -38 34 -19 0 -43 -1 -52 -4z"/>
<path d="M170 6980 c-8 -5 -29 -10 -46 -10 -17 0 -41 -9 -54 -20 -13 -11 -27
-20 -32 -20 -4 0 -8 -6 -8 -14 0 -8 -4 -16 -9 -18 -5 -1 -10 -14 -11 -28 -5
-59 -22 -55 260 -55 188 0 263 -3 268 -12 4 -6 21 -15 37 -19 16 -4 36 -13 43
-21 7 -7 22 -13 33 -13 10 0 19 -4 19 -10 0 -5 11 -12 25 -16 14 -3 25 -12 25
-20 0 -9 11 -14 30 -14 17 0 30 -4 30 -9 0 -5 13 -12 30 -16 53 -12 42 -22
-30 -29 -39 -4 -70 -11 -70 -15 0 -5 -18 -11 -40 -15 -22 -3 -40 -10 -40 -15
0 -5 -11 -12 -25 -15 -14 -4 -25 -11 -25 -16 0 -6 -5 -10 -11 -10 -6 0 -23
-11 -37 -24 -15 -13 -46 -41 -69 -61 -24 -21 -43 -43 -43 -50 0 -7 -4 -15 -8
-17 -4 -1 -18 -22 -30 -46 -26 -50 -30 -157 -8 -200 7 -15 17 -48 20 -74 4
-27 11 -48 15 -48 5 0 12 -20 15 -45 4 -25 11 -45 17 -45 5 0 9 -4 9 -10 0 -5
9 -19 21 -31 18 -18 32 -20 143 -20 121 0 176 6 176 21 0 4 23 10 52 13 28 4
56 11 62 17 5 5 22 10 37 10 15 0 34 7 43 15 8 8 19 15 24 15 20 0 142 127
142 148 0 11 5 24 10 27 6 4 10 57 10 125 0 68 -4 121 -10 125 -5 3 -10 19
-10 35 0 28 2 29 32 23 18 -3 44 -12 58 -20 14 -7 33 -13 43 -13 9 0 17 -3 17
-8 0 -4 24 -18 53 -31 84 -39 113 -73 126 -145 19 -113 19 -128 0 -147 -10
-10 -30 -21 -44 -25 -14 -3 -25 -10 -25 -14 0 -5 -13 -11 -30 -15 -16 -4 -30
-11 -30 -16 0 -5 -6 -9 -13 -9 -7 0 -33 -20 -59 -45 -26 -25 -54 -45 -63 -45
-8 0 -15 -7 -15 -15 0 -8 -7 -15 -15 -15 -8 0 -15 -6 -15 -14 0 -8 -7 -16 -15
-20 -8 -3 -15 -17 -15 -31 0 -14 -4 -25 -10 -25 -6 0 -10 -30 -10 -70 0 -40 4
-70 10 -70 6 0 10 -9 10 -20 0 -11 7 -23 15 -26 8 -4 15 -10 15 -14 0 -5 19
-29 42 -54 l41 -46 78 0 c43 0 81 5 84 10 3 6 14 10 23 10 40 0 162 146 162
194 0 13 6 36 14 52 8 17 14 59 14 99 0 39 1 78 1 88 1 13 10 17 41 17 22 0
40 -3 40 -7 0 -5 14 -16 30 -25 17 -9 30 -24 30 -33 0 -8 8 -23 18 -33 41 -43
72 -83 72 -91 0 -6 6 -14 13 -18 19 -12 46 -71 53 -114 4 -22 11 -42 15 -45 5
-3 9 -29 9 -57 0 -29 7 -65 15 -81 13 -24 13 -32 2 -45 -7 -9 -19 -28 -26 -42
-7 -14 -28 -42 -47 -63 -19 -20 -34 -41 -34 -47 0 -5 -4 -9 -10 -9 -5 0 -10
-6 -10 -14 0 -8 -7 -22 -16 -30 -26 -27 -29 -80 -6 -125 29 -54 53 -81 75 -81
9 0 20 -7 23 -15 4 -8 13 -15 22 -15 9 0 31 -5 49 -12 27 -10 38 -10 53 0 11
7 29 12 40 12 11 0 23 7 26 15 4 8 12 15 20 15 8 0 14 6 14 14 0 8 7 16 15 20
8 3 15 10 15 16 0 6 7 19 16 28 15 14 16 34 11 149 -4 78 -11 140 -19 152 -17
28 -7 34 62 39 45 3 63 1 75 -12 9 -9 29 -16 44 -16 16 0 34 -7 41 -15 7 -8
17 -15 22 -15 9 0 23 -10 59 -42 10 -10 24 -18 29 -18 6 0 10 -7 10 -15 0 -8
7 -15 15 -15 8 0 15 -7 15 -15 0 -8 5 -15 11 -15 7 0 24 -13 39 -28 15 -16 37
-36 48 -44 12 -8 43 -35 70 -60 28 -25 58 -48 67 -52 17 -6 17 -7 0 -26 -10
-11 -24 -20 -32 -20 -7 0 -16 -7 -19 -15 -4 -8 -11 -15 -18 -15 -6 0 -19 -9
-29 -20 -9 -11 -24 -20 -32 -20 -8 0 -15 -4 -15 -10 0 -5 -5 -10 -12 -10 -16
0 -168 -157 -168 -174 0 -8 -4 -18 -10 -21 -13 -8 -13 -82 0 -90 6 -3 10 -17
10 -30 0 -51 17 -55 210 -55 165 0 183 2 222 22 24 12 47 28 51 35 14 23 72
73 85 73 6 0 12 5 12 11 0 6 7 17 15 25 9 9 15 34 15 60 0 24 5 44 10 44 6 0
10 -4 10 -9 0 -5 9 -13 20 -16 11 -3 20 -13 20 -21 0 -8 5 -14 10 -14 6 0 10
-7 10 -15 0 -8 7 -15 15 -15 8 0 15 -4 15 -10 0 -5 11 -12 25 -16 14 -3 29
-11 33 -18 4 -6 16 -16 27 -22 11 -6 25 -21 31 -33 7 -13 17 -28 23 -34 6 -6
11 -18 11 -27 0 -8 9 -23 20 -33 11 -9 20 -23 20 -31 0 -8 6 -16 13 -19 15 -6
-20 -42 -51 -51 -12 -4 -22 -12 -22 -17 0 -5 -7 -9 -15 -9 -8 0 -15 -4 -15 -8
0 -13 -81 -63 -91 -56 -5 3 -9 -2 -9 -10 0 -9 -4 -16 -9 -16 -6 0 -34 -24 -64
-52 -30 -29 -73 -70 -96 -91 -22 -21 -41 -44 -41 -51 0 -8 -6 -16 -12 -18 -10
-4 -13 -43 -13 -153 0 -110 3 -149 13 -152 6 -3 12 -11 12 -20 0 -8 12 -34 26
-59 l26 -44 99 0 c82 0 106 4 141 22 24 12 45 26 46 30 2 4 10 8 18 8 8 0 14
7 14 15 0 8 7 15 15 15 8 0 15 5 15 10 0 10 36 50 45 50 14 0 72 69 90 105 11
22 23 41 27 43 4 2 10 20 14 40 4 20 11 40 16 43 21 14 46 283 27 295 -5 3 -9
14 -9 25 0 17 8 19 84 19 55 0 94 -5 112 -15 16 -8 37 -15 47 -15 9 0 17 -4
17 -10 0 -5 16 -12 35 -16 19 -3 39 -12 46 -20 6 -8 18 -14 25 -14 15 0 15 -4
18 -110 0 -36 4 -70 8 -76 9 -14 -12 -24 -49 -24 -30 0 -103 -30 -103 -42 0
-4 -7 -8 -15 -8 -9 0 -18 -7 -21 -15 -4 -8 -11 -15 -17 -15 -11 0 -183 -173
-205 -206 -6 -10 -16 -29 -22 -41 -5 -13 -14 -23 -20 -23 -5 0 -10 -7 -10 -15
0 -8 -4 -15 -10 -15 -5 0 -10 -6 -10 -13 0 -7 -16 -28 -35 -47 -19 -19 -35
-43 -35 -52 0 -10 -4 -18 -9 -18 -5 0 -12 -12 -16 -27 -11 -43 -24 -53 -74
-53 -26 0 -56 -7 -67 -15 -10 -8 -29 -15 -42 -15 -12 0 -25 -7 -28 -15 -4 -8
-11 -15 -18 -15 -6 0 -19 -9 -29 -20 -9 -11 -24 -20 -32 -20 -8 0 -15 -3 -15
-7 0 -5 -20 -17 -45 -28 -25 -11 -45 -25 -45 -32 0 -7 -7 -13 -15 -13 -8 0
-15 -5 -15 -11 0 -14 -97 -109 -110 -109 -6 0 -10 -7 -10 -15 0 -8 -4 -15 -10
-15 -5 0 -10 -9 -10 -19 0 -11 -16 -36 -35 -55 -19 -20 -35 -40 -35 -45 0 -5
-7 -14 -15 -21 -8 -7 -15 -20 -15 -30 0 -26 -22 -39 -76 -46 -49 -6 -74 -14
-127 -40 -16 -8 -35 -14 -43 -14 -8 0 -27 -12 -42 -28 -15 -15 -44 -38 -64
-51 -21 -12 -38 -27 -38 -32 0 -5 -7 -9 -15 -9 -8 0 -15 -7 -15 -15 0 -8 -7
-15 -15 -15 -8 0 -15 -7 -15 -15 0 -8 -4 -15 -10 -15 -5 0 -10 -4 -10 -9 0
-11 -165 -181 -175 -181 -4 0 -18 -11 -31 -25 -13 -14 -28 -25 -34 -25 -5 0
-10 -7 -10 -15 0 -8 -4 -15 -8 -15 -4 0 -13 -13 -19 -30 -7 -20 -20 -31 -39
-35 -16 -4 -38 -10 -49 -15 -11 -5 -30 -12 -42 -15 -13 -4 -23 -10 -23 -16 0
-5 -18 -12 -40 -15 -22 -4 -40 -10 -40 -15 0 -5 -10 -9 -23 -9 -13 0 -32 -7
-43 -15 -10 -8 -29 -15 -41 -15 -12 0 -28 -7 -37 -15 -8 -8 -21 -15 -28 -15
-7 0 -31 -16 -53 -35 -61 -53 -63 -55 -75 -55 -5 0 -10 -4 -10 -10 0 -5 -15
-25 -32 -43 -18 -19 -44 -49 -58 -67 -14 -18 -33 -40 -42 -49 -10 -8 -18 -23
-18 -32 0 -30 -34 -59 -75 -66 -22 -3 -47 -11 -55 -18 -8 -7 -32 -15 -52 -19
-21 -4 -38 -11 -38 -16 0 -6 -6 -10 -14 -10 -18 0 -126 -70 -126 -81 0 -5 -6
-9 -14 -9 -8 0 -44 -29 -79 -65 -36 -36 -68 -65 -73 -66 -11 0 -74 -86 -74
-99 0 -6 -7 -10 -15 -10 -8 0 -15 -4 -15 -8 0 -5 -13 -7 -30 -4 -18 3 -30 0
-30 -7 0 -6 -11 -11 -25 -11 -14 0 -28 -7 -31 -15 -4 -8 -10 -15 -15 -15 -13
0 -68 -39 -96 -67 -12 -13 -25 -23 -28 -23 -3 0 -15 -9 -27 -21 -59 -53 -78
-75 -78 -91 0 -10 -4 -18 -9 -18 -5 0 -12 -12 -15 -26 -4 -15 -14 -33 -21 -41
-8 -8 -15 -23 -15 -34 0 -10 -4 -19 -10 -19 -5 0 -12 -11 -16 -24 -3 -14 -12
-27 -20 -30 -8 -3 -14 -16 -14 -30 0 -13 -5 -26 -12 -28 -6 -2 -13 -32 -16
-69 -2 -35 -8 -68 -12 -74 -5 -5 -11 -53 -15 -105 -3 -52 -11 -105 -17 -117
-24 -49 18 -68 80 -37 18 8 32 20 32 25 0 5 7 9 15 9 8 0 15 5 15 11 0 6 7 17
15 25 11 12 15 39 15 109 0 52 4 96 9 100 5 3 13 31 17 62 4 32 13 63 20 71 8
7 14 22 14 33 0 10 4 19 10 19 5 0 12 11 16 25 3 13 12 29 20 36 8 6 14 27 14
45 0 19 5 34 10 34 6 0 10 9 10 19 0 30 11 51 26 51 8 0 14 5 14 10 0 6 7 10
15 10 7 0 18 6 22 14 9 17 73 31 73 17 0 -6 -4 -12 -9 -15 -5 -3 -12 -21 -15
-40 -4 -19 -12 -36 -19 -39 -8 -2 -13 -44 -16 -136 -3 -119 -1 -135 15 -151
32 -32 44 -49 44 -60 0 -5 5 -10 10 -10 6 0 21 -10 33 -22 33 -34 84 -68 102
-68 8 0 15 -4 15 -10 0 -5 12 -13 27 -16 15 -4 34 -13 41 -21 20 -20 155 -17
200 4 21 9 58 38 83 65 25 26 49 48 53 48 11 0 45 43 46 56 0 7 7 14 15 18 8
3 15 16 15 29 0 13 6 29 13 35 8 9 12 53 12 145 0 108 -3 139 -19 171 -19 40
-62 85 -82 86 -7 0 -14 7 -18 15 -3 8 -15 15 -26 15 -12 0 -28 7 -36 15 -9 8
-27 15 -42 15 -15 0 -36 7 -46 15 -12 9 -42 15 -78 15 -48 0 -59 3 -68 21 -10
19 -3 29 67 99 44 42 90 81 103 85 14 4 30 11 35 15 6 5 27 11 48 15 20 4 40
11 43 16 3 5 13 9 22 9 9 0 29 6 43 14 14 7 37 16 51 19 l26 7 3 -122 c3 -85
8 -123 17 -126 6 -2 12 -14 12 -28 0 -24 38 -106 52 -112 4 -2 8 -10 8 -18 0
-8 7 -17 15 -20 8 -4 15 -12 15 -20 0 -8 5 -14 11 -14 6 0 31 -13 56 -30 34
-23 55 -30 93 -30 27 0 52 -4 55 -10 8 -13 105 -13 105 0 0 6 7 10 15 10 39 0
155 128 155 171 0 9 5 19 10 21 6 2 13 28 17 58 3 30 10 58 15 61 5 3 12 58
15 122 l6 116 -33 29 c-68 63 -116 92 -152 92 -12 0 -31 7 -42 15 -13 10 -51
14 -140 14 -121 0 -121 0 -118 23 1 13 16 40 32 60 17 20 30 40 30 45 0 13 68
55 79 49 5 -3 15 0 23 7 7 8 31 17 53 20 22 4 41 11 43 17 2 5 18 10 37 10 18
0 38 7 45 15 7 8 17 15 22 15 5 0 22 10 38 22 16 12 33 19 36 15 3 -3 5 -71 5
-150 -2 -122 1 -145 14 -150 8 -4 15 -13 15 -22 0 -8 7 -15 15 -15 8 0 15 -7
15 -15 0 -8 7 -15 15 -15 8 0 15 -7 15 -15 0 -8 7 -15 15 -15 8 0 15 -4 15
-10 0 -5 7 -10 15 -10 8 0 24 -9 35 -20 11 -11 30 -20 43 -20 13 0 29 -6 35
-12 17 -17 168 -16 184 0 7 7 19 12 28 12 8 0 23 9 33 20 9 11 26 20 37 20 11
0 20 5 20 10 0 6 5 10 10 10 10 0 27 14 80 65 48 47 60 61 60 69 0 4 7 14 15
22 8 9 15 25 15 38 0 12 5 27 11 33 13 13 23 133 15 178 -8 42 -61 96 -124
128 -24 12 -47 27 -49 34 -3 7 -11 13 -18 13 -7 0 -15 7 -19 15 -4 12 -31 15
-152 15 l-148 0 50 45 c78 73 125 120 184 185 30 33 65 63 78 66 12 4 22 10
22 15 0 5 9 9 19 9 11 0 26 6 33 14 8 7 39 17 69 21 30 4 60 12 67 17 9 8 12
-16 12 -116 l0 -126 55 -55 c30 -30 58 -55 63 -55 5 0 15 -7 22 -15 7 -8 23
-15 37 -15 13 0 26 -7 29 -15 4 -9 19 -15 35 -15 16 0 29 -4 29 -10 0 -6 47
-10 120 -10 73 0 120 4 120 10 0 6 9 10 20 10 11 0 20 7 20 15 0 8 5 15 10 15
10 0 50 36 50 45 0 3 12 17 27 31 25 23 45 52 58 84 4 8 11 23 16 33 5 9 12
58 16 108 6 82 4 92 -16 119 -12 17 -17 30 -11 30 6 0 13 -7 16 -15 4 -8 12
-15 20 -15 8 0 14 -7 14 -15 0 -10 10 -15 28 -15 15 0 33 -5 40 -12 16 -16
284 -17 290 0 2 6 10 12 18 12 8 0 17 7 20 15 4 8 10 15 14 15 14 0 80 63 80
77 0 7 6 13 13 13 8 0 20 12 28 27 19 35 20 294 2 301 -7 2 -13 10 -13 18 0 8
-7 17 -15 20 -8 4 -15 12 -15 20 0 8 -7 14 -15 14 -8 0 -15 4 -15 9 0 5 -16
19 -35 31 -19 12 -35 26 -35 32 0 19 -42 48 -70 48 -14 0 -31 5 -37 11 -6 6
-50 14 -97 16 -75 5 -86 8 -86 24 0 11 4 19 9 19 5 0 11 14 15 30 6 31 8 35
64 96 17 19 32 42 32 50 0 8 5 14 10 14 6 0 10 5 10 12 0 19 44 78 58 78 6 0
12 7 12 15 0 8 7 15 15 15 8 0 15 5 15 10 0 6 14 26 32 45 30 34 34 35 104 35
40 0 75 -4 78 -9 4 -5 25 -12 49 -16 28 -5 51 -17 69 -36 15 -16 31 -29 35
-29 17 0 40 -37 46 -74 3 -21 11 -44 18 -52 13 -16 69 -19 69 -4 0 6 7 10 15
10 8 0 30 16 50 35 30 31 35 42 35 85 0 31 -6 54 -16 64 -14 14 -14 18 0 38 9
12 16 42 16 65 0 24 4 43 9 43 5 0 11 23 15 50 4 28 11 50 16 50 5 0 13 12 16
27 11 41 59 88 107 104 23 7 62 27 86 43 41 28 49 29 155 30 96 0 114 -2 134
-19 12 -11 22 -25 22 -32 0 -7 7 -13 15 -13 16 0 21 -25 6 -35 -5 -3 -12 -18
-16 -34 -3 -16 -13 -32 -21 -35 -8 -3 -14 -14 -14 -25 0 -11 -4 -21 -8 -23
-10 -4 -52 -85 -52 -99 0 -6 -7 -18 -16 -26 -13 -14 -15 -39 -12 -167 5 -164
15 -200 58 -211 14 -4 28 -12 32 -18 10 -17 160 -16 166 1 2 6 12 12 22 12 9
0 23 7 30 15 7 8 23 15 36 15 15 0 24 6 24 15 0 8 7 15 15 15 8 0 15 7 15 15
0 8 5 15 10 15 6 0 10 7 10 15 0 8 6 15 12 15 7 0 30 19 51 43 l38 42 -3 142
c-2 97 -7 146 -15 155 -7 6 -13 26 -13 44 0 19 -6 34 -15 38 -8 3 -15 12 -15
20 0 13 -27 50 -71 96 -16 17 -14 18 37 25 30 3 54 10 54 14 0 5 26 11 57 14
32 3 59 11 61 17 2 5 16 10 32 10 15 0 47 7 70 15 28 10 81 15 155 15 88 0
115 -3 125 -15 7 -8 19 -15 26 -15 8 0 14 -7 14 -15 0 -8 6 -15 14 -15 7 0 35
-10 62 -22 l49 -22 -32 -9 c-18 -6 -33 -14 -33 -18 0 -5 -5 -9 -12 -9 -6 0
-35 -24 -64 -52 -28 -29 -70 -71 -93 -92 -22 -22 -41 -45 -41 -52 0 -6 -7 -14
-15 -18 -8 -3 -15 -12 -15 -19 0 -8 -7 -20 -16 -28 -13 -11 -15 -31 -12 -116
2 -61 8 -107 14 -111 6 -4 14 -19 18 -34 3 -16 11 -28 16 -28 6 0 10 -7 10
-15 0 -8 7 -15 15 -15 8 0 15 -4 15 -10 0 -5 9 -19 20 -30 17 -17 33 -20 124
-20 80 0 106 3 116 15 7 8 17 15 23 15 5 0 31 21 57 48 26 26 64 61 84 79 20
17 36 36 36 42 0 6 5 11 10 11 6 0 10 6 10 14 0 8 16 31 35 50 19 20 35 41 35
47 0 6 7 18 16 27 14 14 16 31 11 111 -4 52 -11 99 -17 105 -5 5 -10 25 -10
43 0 23 -5 33 -15 33 -8 0 -15 7 -15 15 0 11 13 15 54 15 48 0 58 -4 90 -35
20 -19 39 -35 43 -35 6 0 93 -87 93 -93 0 -10 -32 -67 -41 -72 -5 -4 -9 -13
-9 -21 0 -9 -7 -22 -15 -30 -8 -9 -15 -24 -15 -33 0 -10 -7 -24 -15 -31 -8 -7
-15 -20 -15 -29 0 -9 -6 -23 -12 -30 -17 -16 -17 -176 0 -193 6 -6 12 -19 12
-28 0 -9 18 -35 40 -58 45 -49 78 -54 137 -22 21 11 46 20 55 20 10 0 18 5 18
10 0 6 9 10 19 10 11 0 26 7 35 15 8 8 19 15 25 15 6 0 11 7 11 15 0 8 7 15
15 15 8 0 15 4 15 9 0 5 18 28 39 50 29 31 42 53 46 85 8 50 -2 126 -16 126
-5 0 -9 9 -9 19 0 10 -7 21 -15 25 -8 3 -15 14 -15 24 0 10 -7 27 -15 38 -8
10 -15 25 -15 33 0 8 -7 19 -15 25 -8 6 -17 26 -20 44 -5 28 -2 35 15 39 11 3
20 9 20 14 0 5 8 9 18 9 10 0 27 6 38 14 11 8 40 17 64 20 23 2 47 9 53 15 7
7 62 11 143 11 108 0 133 -3 138 -15 3 -8 15 -15 26 -15 12 0 28 -7 36 -15 9
-8 26 -15 40 -15 13 0 24 -4 24 -10 0 -5 -4 -10 -10 -10 -5 0 -10 -7 -10 -15
0 -8 -5 -15 -10 -15 -17 0 -44 -31 -65 -75 -11 -22 -23 -42 -26 -45 -4 -3 -10
-16 -14 -30 -4 -13 -14 -31 -22 -39 -19 -19 -15 -243 5 -263 6 -6 12 -22 12
-34 0 -12 11 -45 26 -73 l25 -51 105 0 c85 0 111 4 141 20 21 11 43 20 50 20
7 0 13 5 13 10 0 6 7 10 16 10 17 0 84 64 84 81 0 5 7 9 15 9 8 0 15 7 15 15
0 8 7 15 15 15 8 0 15 5 15 11 0 7 7 17 16 24 23 17 23 295 -1 331 -8 13 -15
32 -15 42 0 12 -9 22 -21 25 -12 3 -18 10 -14 16 10 17 357 10 363 -7 2 -7 -5
-16 -17 -19 -12 -3 -21 -12 -21 -19 0 -8 -4 -14 -10 -14 -5 0 -12 -11 -16 -24
-3 -14 -12 -27 -20 -30 -8 -3 -14 -16 -14 -30 0 -13 -4 -26 -10 -28 -16 -5
-23 -147 -11 -208 7 -30 16 -73 20 -95 10 -52 30 -84 58 -91 42 -11 226 0 231
14 2 6 11 12 21 12 14 0 51 32 51 45 0 10 48 55 59 55 6 0 11 5 11 10 0 6 7
10 15 10 8 0 15 5 15 11 0 6 7 17 15 25 21 21 21 182 0 210 -8 10 -15 31 -15
46 0 15 -7 33 -15 42 -8 8 -15 22 -15 31 0 8 -7 18 -15 21 -8 4 -15 11 -15 17
0 5 -11 25 -25 42 -23 31 -23 34 -7 47 9 9 48 18 86 21 38 4 74 11 80 17 5 5
49 10 97 10 68 0 88 -3 93 -15 3 -8 11 -15 19 -15 23 0 67 -24 67 -37 0 -7 12
-29 26 -50 14 -21 30 -48 35 -60 5 -13 13 -23 19 -23 5 0 10 -9 10 -20 0 -11
4 -20 10 -20 9 0 50 -84 50 -104 0 -19 60 -76 80 -76 10 0 25 7 34 15 8 8 22
15 30 15 9 0 16 7 16 15 0 8 6 15 13 15 16 0 47 51 47 78 0 11 -14 34 -30 52
-17 18 -30 38 -30 46 0 8 -7 14 -15 14 -8 0 -15 5 -15 11 0 13 -69 161 -79
169 -7 6 -27 38 -43 68 -6 12 -15 22 -20 22 -5 0 -16 7 -24 15 -9 8 -28 15
-44 15 -16 0 -30 6 -32 13 -4 9 -36 12 -118 12 -82 0 -114 -3 -117 -12 -3 -9
-30 -13 -85 -13 -51 0 -93 -6 -116 -16 -98 -43 -129 -59 -151 -82 -21 -23 -24
-24 -33 -9 -5 9 -17 17 -27 17 -10 0 -24 7 -32 16 -11 14 -40 15 -215 12 -145
-2 -207 -7 -216 -16 -14 -14 -158 -17 -158 -3 0 5 -20 12 -44 15 -24 4 -50 14
-56 21 -7 8 -25 15 -40 15 -15 0 -33 7 -41 16 -11 13 -40 15 -213 12 -148 -2
-200 -6 -204 -15 -2 -7 -15 -13 -28 -13 -14 0 -27 -7 -30 -15 -4 -8 -12 -15
-20 -15 -22 0 -92 -40 -98 -56 -3 -8 -12 -14 -21 -14 -8 0 -15 -4 -15 -10 0
-5 -5 -10 -12 -10 -6 0 -19 -7 -29 -16 -17 -15 -20 -14 -44 12 -14 16 -32 40
-41 54 -16 25 -77 70 -95 70 -5 0 -9 7 -9 15 0 22 -301 22 -324 0 -8 -8 -26
-15 -40 -15 -16 0 -26 6 -26 15 0 8 -9 15 -20 15 -11 0 -20 4 -20 10 0 5 -11
12 -25 16 -14 3 -25 9 -25 13 0 4 -22 23 -50 44 l-49 37 -179 0 c-141 0 -182
-3 -198 -15 -10 -8 -30 -15 -44 -15 -14 0 -37 -6 -51 -14 -14 -7 -43 -16 -64
-20 -20 -4 -45 -11 -54 -16 -9 -5 -33 -12 -53 -15 -21 -3 -38 -10 -38 -14 0
-5 -21 -11 -46 -14 -26 -2 -49 -9 -53 -13 -3 -5 -16 -14 -28 -21 -19 -11 -23
-10 -28 7 -4 11 -17 23 -31 26 -13 3 -24 11 -24 18 0 19 -84 38 -147 33 -83
-7 -152 -22 -165 -35 -7 -7 -20 -12 -30 -12 -10 0 -35 -9 -55 -20 -21 -11 -43
-20 -50 -20 -7 0 -13 -4 -13 -10 0 -5 -12 -10 -28 -10 -15 0 -35 -8 -44 -17
-34 -36 -55 -53 -63 -53 -9 0 -95 -89 -115 -120 -8 -13 -23 -30 -32 -39 -10
-8 -18 -25 -18 -38 0 -12 -4 -24 -9 -27 -5 -4 -12 -24 -16 -47 -6 -32 -10 -39
-23 -34 -10 4 -34 9 -54 12 -32 5 -35 7 -22 20 20 20 20 259 0 288 -7 11 -16
32 -20 47 -7 30 -74 68 -120 68 -15 0 -26 4 -26 9 0 5 -12 12 -27 16 -15 3
-30 11 -34 16 -9 16 -122 41 -154 34 -16 -4 -61 -10 -100 -15 -38 -4 -77 -11
-86 -14 -13 -6 -17 2 -22 41 -3 26 -10 49 -16 51 -6 2 -11 11 -11 21 0 9 -7
26 -15 37 -8 10 -15 26 -15 34 0 8 -16 29 -36 45 -19 17 -48 42 -65 58 -16 15
-34 27 -39 27 -6 0 -10 7 -10 15 0 8 -6 15 -13 15 -7 0 -28 13 -47 30 -19 16
-41 29 -47 30 -7 0 -13 7 -13 15 0 8 -7 15 -15 15 -8 0 -15 7 -15 15 0 8 -9
15 -20 15 -11 0 -20 3 -20 8 0 11 -63 43 -102 51 -24 5 -34 13 -36 29 -2 13
-10 26 -18 29 -8 3 -14 9 -14 14 0 12 -68 79 -80 79 -6 0 -10 7 -10 15 0 8 -7
15 -15 15 -8 0 -15 7 -15 15 0 8 -7 15 -15 15 -8 0 -15 7 -15 15 0 8 -4 15
-10 15 -12 0 -47 29 -110 90 -51 49 -104 90 -117 90 -5 0 -23 14 -41 30 -18
17 -39 30 -46 30 -8 0 -19 7 -26 15 -10 12 -40 15 -151 15 -109 0 -141 -3
-153 -15 -15 -15 -51 -21 -42 -7 5 8 -2 58 -23 172 -6 30 -15 56 -21 58 -5 2
-10 17 -10 33 0 19 -5 29 -15 29 -8 0 -15 5 -15 10 0 14 -72 110 -82 110 -4 0
-8 6 -8 13 0 8 -8 23 -17 35 -10 11 -27 32 -37 46 -10 14 -24 26 -31 26 -7 0
-15 7 -19 15 -4 12 -25 15 -101 15 l-95 0 0 116 c0 94 -4 123 -20 159 -19 41
-94 115 -117 115 -6 0 -16 7 -23 15 -7 8 -19 15 -27 15 -8 0 -21 7 -29 15 -9
8 -26 15 -38 15 -13 0 -29 7 -36 15 -7 8 -27 15 -45 15 -18 0 -46 7 -61 15
-18 9 -57 15 -101 15 l-73 0 0 30 c0 20 -5 30 -15 30 -8 0 -15 6 -15 13 0 16
-64 77 -80 77 -5 0 -10 7 -10 15 0 8 -8 15 -19 15 -10 0 -24 7 -31 15 -7 8
-23 15 -37 15 -13 0 -26 6 -29 13 -2 7 -25 22 -49 32 -25 11 -45 23 -45 27 0
3 -14 10 -32 13 -17 4 -38 14 -46 21 -7 8 -31 14 -52 14 -21 0 -42 5 -45 10
-8 13 -395 13 -415 0z m795 -537 c3 -21 10 -51 15 -68 5 -16 10 -86 11 -155 1
-108 -1 -125 -15 -128 -9 -2 -16 -7 -16 -12 0 -4 -25 -11 -55 -15 -30 -3 -57
-11 -60 -16 -4 -5 -56 -9 -116 -9 l-111 0 -11 30 c-6 17 -15 30 -18 30 -4 0
-10 18 -14 40 -4 22 -11 42 -16 46 -5 3 -9 59 -9 125 0 99 3 119 15 119 8 0
15 5 15 10 0 6 13 10 28 10 16 0 37 7 48 15 14 11 52 14 161 15 l142 0 6 -37z
m487 -515 c-8 -8 -12 -50 -12 -122 0 -130 -5 -156 -31 -156 -11 0 -19 4 -19
10 0 5 -20 31 -45 57 -39 42 -45 53 -45 94 0 51 9 63 80 102 49 27 93 36 72
15z m1428 -1108 l0 -100 -118 0 c-78 0 -122 4 -130 12 -18 18 -16 78 3 78 8 0
15 5 15 10 0 6 5 10 10 10 6 0 19 8 29 18 37 32 47 39 74 46 15 3 27 11 27 16
0 6 20 10 45 10 l45 0 0 -100z m539 -600 c1 -76 -3 -147 -8 -157 -6 -10 -13
-35 -16 -55 -3 -21 -10 -38 -15 -38 -4 0 -11 -13 -15 -30 -4 -16 -13 -30 -21
-30 -8 0 -14 -7 -14 -15 0 -8 -6 -15 -14 -15 -8 0 -16 -7 -20 -15 -8 -21 -136
-22 -136 -1 0 7 -7 19 -15 26 -8 7 -15 20 -15 29 0 9 -7 29 -15 45 -17 32 -21
176 -5 176 6 0 10 5 10 11 0 6 17 29 39 50 21 22 44 39 50 39 6 0 11 4 11 9 0
5 11 12 25 15 14 4 25 11 25 16 0 6 9 10 20 10 11 0 23 7 26 15 4 8 14 15 23
15 9 0 24 9 34 20 9 11 23 20 31 20 12 0 14 -26 15 -140z m2622 34 c26 -31 49
-128 49 -207 0 -77 -2 -83 -42 -128 -10 -10 -18 -21 -18 -24 0 -3 -9 -14 -20
-25 -26 -26 -140 -30 -140 -5 0 8 -12 25 -26 38 -15 12 -32 28 -39 34 -19 18
-30 155 -16 181 21 39 104 113 133 119 15 3 28 9 28 14 0 4 15 10 33 12 17 2
35 5 38 5 4 1 13 -5 20 -14z m1429 -39 c0 -8 4 -15 9 -15 5 0 22 -26 37 -57
15 -32 30 -60 35 -63 4 -3 12 -62 17 -130 9 -118 8 -126 -11 -142 -24 -22
-167 -26 -167 -5 0 6 -7 25 -15 41 -19 37 -26 283 -9 294 6 4 15 18 19 30 4
13 14 32 23 42 21 23 62 26 62 5z m-2396 -40 c4 -14 10 -25 15 -25 5 0 12 -19
16 -42 4 -24 11 -48 15 -53 5 -6 10 -62 11 -125 l3 -115 -70 -3 -69 -3 -17 58
c-24 78 -13 208 20 252 12 17 22 33 22 37 0 10 31 44 40 44 5 0 11 -11 14 -25z
m3122 -69 c3 -14 10 -26 15 -26 5 0 9 -15 9 -33 0 -18 7 -42 15 -53 9 -11 14
-42 15 -78 0 -49 -2 -57 -16 -52 -9 3 -33 6 -55 6 -31 0 -39 4 -39 18 0 10 -7
27 -15 38 -22 29 -21 207 2 234 17 20 18 20 40 -4 12 -13 25 -36 29 -50z
m-1601 -85 c3 -16 13 -32 21 -35 8 -3 14 -15 14 -27 0 -13 6 -30 14 -38 8 -9
16 -36 18 -61 l3 -45 -43 -3 c-37 -3 -44 0 -49 17 -3 12 -9 21 -14 21 -14 0
-11 157 3 180 17 27 25 25 33 -9z m-3294 -836 c-2 -148 1 -184 13 -200 25 -33
20 -45 -16 -38 -18 3 -44 12 -58 20 -14 7 -37 13 -52 13 -14 0 -28 6 -30 13
-4 9 -43 12 -151 12 -134 0 -172 6 -132 21 8 4 15 12 15 19 0 7 7 15 15 19 8
3 15 14 15 25 0 11 4 22 9 25 5 3 18 23 29 45 24 46 82 107 112 116 11 3 20
11 20 16 0 5 8 9 19 9 10 0 24 7 31 15 7 8 18 15 26 15 7 0 19 6 27 14 13 14
49 22 91 21 18 0 18 -10 17 -180z m229 160 c8 -9 30 -15 56 -15 32 0 44 -4 44
-15 0 -8 8 -15 17 -15 20 0 133 -116 133 -136 0 -7 4 -14 9 -16 5 -1 11 -40
13 -85 3 -69 1 -83 -12 -84 -74 -3 -157 5 -171 17 -8 8 -28 14 -42 14 -17 0
-27 5 -27 15 0 8 -7 15 -15 15 -8 0 -15 6 -15 14 0 7 -7 19 -15 26 -21 18 -22
280 -1 280 7 0 19 -7 26 -15z m-472 -513 c29 -6 59 -18 68 -26 8 -9 24 -16 35
-16 10 0 19 -7 19 -15 0 -8 7 -15 15 -15 8 0 15 -7 15 -15 0 -8 4 -15 8 -15
12 0 -3 -123 -19 -148 -11 -18 -23 -22 -60 -22 -29 0 -51 6 -59 15 -7 8 -20
15 -30 15 -10 0 -23 7 -30 15 -7 8 -25 15 -41 15 -19 0 -29 5 -29 15 0 8 -7
15 -15 15 -8 0 -15 4 -15 9 0 5 -13 12 -30 16 -16 4 -30 13 -30 20 0 7 -5 15
-11 17 -7 2 -13 33 -14 72 l-3 67 87 -4 c47 -3 110 -9 139 -15z m-752 -537 c4
-8 12 -15 19 -15 7 0 15 -7 19 -15 3 -8 12 -15 20 -15 7 0 16 -7 20 -15 3 -8
15 -15 26 -15 11 0 20 -7 20 -15 0 -8 7 -15 15 -15 12 0 15 -17 15 -95 0 -130
-6 -135 -139 -136 -78 -1 -105 3 -127 17 -33 20 -124 111 -125 125 0 5 0 47 0
94 0 47 0 92 0 100 1 12 21 15 116 15 94 0 117 -3 121 -15z m-743 -520 c48 -4
87 -11 87 -15 0 -5 14 -11 30 -15 17 -4 30 -13 30 -21 0 -8 7 -14 15 -14 17 0
18 -3 16 -129 -1 -52 -5 -99 -10 -105 -5 -6 -11 -22 -13 -36 -1 -14 -9 -25
-15 -24 -7 1 -33 2 -58 3 -28 0 -45 6 -45 14 0 6 -15 19 -33 28 -35 17 -86 83
-87 112 0 11 -7 31 -14 45 -22 40 -36 142 -23 164 7 10 15 14 22 9 5 -5 49
-12 98 -16z m-723 -476 c25 -6 54 -15 65 -20 11 -4 32 -10 48 -13 28 -7 67
-38 67 -55 0 -5 7 -11 15 -15 12 -4 15 -30 15 -146 0 -126 -2 -140 -17 -141
-75 -3 -139 4 -149 17 -6 7 -21 14 -33 14 -24 0 -31 5 -103 70 l-49 45 -1 110
c0 179 -6 163 50 154 26 -4 67 -13 92 -20z"/>
<path d="M3108 6893 c-36 -37 -55 -53 -64 -53 -11 0 -44 -73 -44 -98 0 -10 7
-27 15 -38 16 -21 20 -94 5 -94 -5 0 -10 -6 -10 -14 0 -26 -52 -49 -117 -52
l-63 -2 0 78 c0 81 16 118 46 106 7 -3 18 2 24 10 7 8 19 14 26 14 8 0 14 4
14 9 0 5 6 16 13 23 23 23 46 78 40 94 -4 10 -13 14 -27 10 -11 -3 -35 -6 -53
-6 -17 0 -38 -6 -45 -13 -7 -7 -21 -16 -30 -20 -10 -3 -18 -11 -18 -17 0 -5
-4 -10 -10 -10 -21 0 -110 -91 -110 -112 0 -9 -5 -18 -12 -20 -8 -3 -13 -49
-16 -145 l-4 -140 36 -23 c30 -18 47 -22 92 -18 38 3 54 1 54 -8 0 -6 -11 -15
-25 -18 -14 -4 -25 -11 -25 -16 0 -6 -7 -10 -15 -10 -17 0 -55 -35 -55 -50 0
-5 -7 -10 -15 -10 -8 0 -15 -7 -15 -15 0 -8 -4 -15 -10 -15 -5 0 -10 -6 -10
-14 0 -7 -9 -20 -19 -27 -14 -10 -20 -28 -22 -59 -4 -83 0 -120 15 -120 7 0
16 -14 20 -32 8 -43 23 -58 57 -58 35 0 98 31 99 48 0 6 7 12 15 12 8 0 15 7
15 15 0 8 4 15 10 15 15 0 50 33 50 47 0 7 7 13 15 13 8 0 15 7 15 15 0 8 5
15 10 15 6 0 10 6 10 13 0 8 9 22 20 32 11 10 20 22 20 27 0 4 18 25 39 46 22
21 43 50 46 65 4 15 11 27 15 27 4 0 11 11 14 25 4 16 16 27 34 31 37 9 82 36
82 49 0 6 9 19 21 28 13 12 19 27 17 45 -2 23 -8 28 -37 30 -20 2 -37 -2 -42
-10 -6 -9 -9 -7 -9 8 0 11 5 25 11 31 7 7 14 42 16 79 2 38 7 71 12 74 5 3 13
18 16 33 4 15 11 30 16 33 15 9 11 104 -5 120 -36 36 -121 45 -148 17z"/>
<path d="M12515 6732 c-16 -8 -31 -19 -33 -24 -2 -4 -8 -8 -13 -8 -4 0 -23
-15 -42 -32 -18 -18 -44 -40 -57 -48 -66 -43 -150 -140 -150 -175 0 -18 59
-25 75 -8 8 7 17 13 20 13 7 0 24 15 108 93 22 20 45 37 50 37 6 0 30 21 54
47 37 39 44 52 41 81 -4 41 -12 45 -53 24z"/>
<path d="M12105 6403 c-12 -2 -52 -38 -90 -80 -39 -42 -85 -91 -102 -110 -18
-19 -33 -38 -33 -43 0 -6 -4 -10 -9 -10 -12 0 -41 -58 -41 -82 0 -14 8 -18 34
-18 19 0 41 7 50 15 8 8 18 15 21 15 6 0 27 22 84 89 12 13 21 28 21 33 0 4 5
8 11 8 13 0 39 25 39 39 0 5 6 14 13 18 29 18 57 67 57 99 0 35 -4 37 -55 27z"/>
<path d="M11680 6033 c-21 -8 -100 -88 -100 -102 0 -6 -4 -11 -10 -11 -16 0
-110 -90 -110 -105 0 -7 -19 -31 -42 -53 -20 -19 -24 -62 -6 -80 14 -14 -6
-42 -31 -42 -9 0 -43 -27 -76 -60 -33 -33 -66 -60 -72 -60 -7 0 -13 -4 -13
-10 0 -5 -4 -10 -10 -10 -5 0 -19 -8 -29 -17 -39 -35 -50 -43 -66 -43 -9 0
-18 -6 -21 -13 -2 -7 -26 -24 -52 -37 -26 -14 -49 -28 -52 -31 -3 -3 -17 -9
-32 -13 -16 -3 -28 -11 -28 -16 0 -6 -7 -10 -15 -10 -9 0 -18 -7 -21 -15 -4
-8 -10 -15 -15 -15 -5 0 -17 -8 -28 -17 -37 -35 -65 -53 -83 -53 -10 0 -18 -4
-18 -10 0 -5 -9 -10 -19 -10 -11 0 -26 -7 -35 -15 -8 -8 -22 -15 -30 -15 -9 0
-16 -6 -16 -14 0 -8 -11 -17 -25 -20 -14 -4 -25 -11 -25 -16 0 -6 -9 -10 -19
-10 -11 0 -26 -6 -33 -14 -8 -7 -29 -17 -46 -21 -18 -3 -32 -11 -32 -16 0 -5
-14 -9 -30 -9 -18 0 -33 -6 -36 -15 -4 -8 -14 -15 -23 -15 -9 0 -28 -13 -41
-30 -14 -16 -29 -29 -34 -30 -5 0 -14 -8 -21 -17 -11 -14 -26 -17 -86 -14 -41
1 -77 7 -80 13 -4 5 -33 10 -66 11 -45 1 -64 -3 -77 -16 -10 -9 -24 -17 -32
-17 -8 0 -14 -4 -14 -10 0 -5 -7 -10 -15 -10 -8 0 -15 -7 -15 -15 0 -8 -4 -15
-9 -15 -14 0 -21 -28 -15 -59 5 -26 11 -29 55 -35 30 -4 52 -13 56 -21 3 -8
14 -15 24 -15 10 0 19 -3 19 -6 0 -10 -77 -84 -87 -84 -10 0 -50 -34 -125
-105 -26 -25 -51 -45 -57 -45 -6 0 -11 -4 -11 -10 0 -5 -7 -10 -15 -10 -8 0
-15 -7 -15 -15 0 -8 -6 -15 -13 -15 -7 0 -28 -16 -47 -35 -19 -19 -41 -35 -47
-35 -7 0 -13 -4 -13 -10 0 -5 -4 -10 -10 -10 -9 0 -18 -7 -71 -55 -9 -8 -19
-15 -24 -15 -4 0 -18 -11 -31 -25 -12 -13 -34 -27 -48 -31 -14 -3 -26 -10 -26
-14 0 -4 -11 -11 -25 -14 -14 -4 -25 -11 -25 -16 0 -6 -6 -10 -13 -10 -7 0
-24 -12 -37 -27 -14 -16 -43 -37 -65 -48 -22 -11 -65 -44 -97 -74 -44 -41 -58
-61 -58 -82 0 -29 21 -52 28 -31 2 7 13 12 24 12 11 0 31 9 45 20 14 11 32 20
39 20 8 0 14 5 14 10 0 6 6 10 14 10 7 0 29 15 49 33 52 46 57 49 110 75 26
13 47 28 47 33 0 5 11 11 25 15 14 3 25 10 25 15 0 5 4 9 10 9 5 0 25 15 44
33 48 45 64 57 75 57 6 0 28 16 48 35 21 19 50 46 65 60 15 14 33 25 40 25 8
0 21 8 29 18 36 39 138 132 146 132 5 0 20 13 33 30 14 16 29 29 33 30 4 0 21
14 37 32 l29 32 3 -105 c3 -103 3 -104 28 -107 16 -2 36 6 50 19 14 11 35 29
47 38 40 33 65 95 60 151 l-5 51 64 64 c35 35 64 69 64 75 0 6 7 18 15 26 8 9
15 24 15 34 0 12 10 21 30 25 17 4 30 11 30 16 0 5 13 9 29 9 16 0 34 7 41 15
7 8 19 15 27 15 7 0 16 7 19 15 4 8 12 15 20 15 8 0 22 9 31 20 10 11 23 20
30 20 7 0 13 4 13 9 0 5 14 12 30 16 17 4 30 10 30 15 0 5 14 11 30 15 17 4
30 11 30 16 0 5 6 9 13 9 7 0 20 8 29 18 24 24 40 37 61 45 9 3 17 11 17 16 0
5 14 12 30 16 17 4 30 11 30 16 0 5 11 9 25 9 14 0 34 8 44 18 36 32 50 42 60
42 6 0 14 6 18 13 11 16 69 57 83 57 5 0 10 5 10 10 0 6 7 10 15 10 8 0 15 5
15 11 0 15 72 79 98 85 12 4 22 10 22 15 0 5 7 9 15 9 8 0 15 7 15 15 0 8 4
15 9 15 5 0 11 9 14 20 10 38 28 22 25 -22 l-3 -43 95 -8 c52 -4 104 -13 115
-19 13 -8 102 -13 265 -16 186 -3 250 -8 265 -18 13 -10 51 -14 122 -14 l103
0 0 -80 c0 -62 3 -81 16 -88 18 -10 61 -4 70 9 3 5 16 9 29 9 13 0 30 7 39 15
8 8 18 15 23 15 16 0 88 42 96 56 4 8 15 14 22 14 8 0 15 4 15 9 0 12 48 23
119 26 87 4 213 23 225 35 6 6 131 10 351 10 328 0 343 1 365 20 13 11 26 20
29 20 11 0 41 62 41 86 0 16 -7 25 -23 29 -13 4 -186 5 -385 3 -272 -2 -364
-6 -374 -15 -8 -9 -54 -13 -153 -13 l-142 0 -46 44 c-26 24 -47 51 -47 60 0 9
-4 16 -10 16 -5 0 -10 7 -10 15 0 8 -7 15 -15 15 -9 0 -18 7 -21 15 -10 25
-119 20 -152 -6 -42 -33 -62 -70 -62 -118 0 -37 -2 -42 -17 -36 -45 19 -114
24 -318 25 -138 0 -225 4 -231 10 -16 16 -326 18 -331 3 -3 -7 -9 -13 -15 -13
-6 0 -17 -8 -24 -17 -12 -17 -13 -16 -14 5 0 12 5 22 10 22 19 0 10 31 -12 39
-23 9 -23 9 5 21 15 7 27 18 27 24 0 6 14 20 30 31 16 11 30 24 30 28 0 4 10
18 23 30 13 12 26 30 30 40 3 9 11 17 18 17 6 0 25 16 42 37 18 20 40 43 50
52 22 20 23 77 1 85 -18 7 -23 7 -44 -1z"/>
<path d="M10243 5912 c-13 -2 -23 -8 -23 -13 0 -5 -6 -9 -13 -9 -7 0 -23 -14
-37 -31 -14 -17 -33 -40 -42 -51 -10 -12 -18 -32 -18 -45 0 -12 -4 -23 -10
-23 -5 0 -12 -17 -15 -37 -3 -21 -13 -50 -21 -65 -8 -14 -14 -32 -14 -40 0 -8
-13 -14 -32 -15 -18 -2 -34 -7 -36 -13 -2 -5 -10 -10 -18 -10 -8 0 -17 -7 -20
-15 -3 -8 -14 -17 -25 -20 -10 -4 -19 -13 -19 -21 0 -8 -4 -14 -10 -14 -5 0
-10 -18 -10 -40 0 -34 4 -41 25 -46 14 -3 37 -4 52 -1 43 8 52 0 42 -36 -5
-18 -9 -96 -9 -174 l0 -143 25 -6 c41 -10 178 0 183 14 2 7 8 12 13 12 25 0
118 83 119 107 0 6 5 13 12 15 12 4 14 60 3 78 -8 13 -35 13 -35 0 0 -5 -7
-10 -15 -10 -9 0 -29 -13 -45 -30 -22 -22 -39 -30 -65 -30 -33 0 -35 2 -30 28
3 15 8 54 11 87 8 91 13 108 27 98 25 -18 124 -16 158 4 89 51 149 149 102
167 -10 4 -69 6 -133 5 l-115 -1 3 28 c2 16 7 30 12 32 5 2 12 20 16 40 4 20
10 42 14 47 5 6 11 27 15 48 4 20 11 37 16 37 5 0 9 20 9 44 0 46 -8 55 -47
48z"/>
<path d="M7211 5295 c-13 -8 -28 -21 -33 -29 -14 -24 -28 -19 -28 10 0 20 -4
25 -16 20 -9 -3 -49 -6 -90 -6 -59 0 -74 -3 -74 -15 0 -8 -7 -15 -15 -15 -7 0
-18 -6 -22 -13 -4 -7 -25 -23 -46 -37 -20 -14 -40 -34 -43 -45 -4 -10 -13 -25
-20 -33 -10 -9 -14 -41 -14 -107 l0 -93 34 -21 c20 -13 50 -21 75 -21 50 0 48
-8 -12 -38 -25 -12 -50 -29 -57 -37 -7 -8 -19 -15 -26 -15 -8 0 -14 -4 -14
-10 0 -5 -4 -10 -9 -10 -5 0 -26 -15 -46 -34 -34 -32 -37 -40 -38 -95 -3 -86
8 -94 121 -94 l90 0 66 65 c36 36 66 71 66 77 0 6 7 11 15 11 9 0 15 9 15 24
0 14 4 27 9 31 5 3 12 19 16 35 6 29 9 30 59 30 47 0 56 4 104 48 39 35 54 56
58 83 5 30 3 37 -14 41 -11 3 -24 2 -29 -2 -11 -10 -88 -21 -96 -14 -6 6 -3
13 27 71 9 17 16 41 16 52 0 12 4 21 9 21 5 0 13 15 16 33 4 17 12 35 17 38
11 7 14 82 4 98 -9 14 -45 12 -75 -4z"/>
<path d="M17120 4340 c-8 -5 -32 -10 -53 -10 -24 0 -40 -5 -43 -15 -4 -8 -15
-15 -25 -15 -10 0 -19 -7 -19 -15 0 -8 -5 -15 -10 -15 -6 0 -14 -8 -17 -17
-14 -36 -34 -46 -96 -47 -56 -2 -75 -8 -127 -38 -8 -5 -23 -11 -32 -14 -10 -4
-18 -10 -18 -15 0 -16 -39 -48 -65 -55 -14 -3 -25 -10 -25 -15 0 -5 -7 -9 -15
-9 -8 0 -15 -7 -15 -15 0 -8 -7 -15 -16 -15 -8 0 -13 -4 -9 -9 3 -5 -2 -16
-10 -24 -8 -9 -15 -20 -15 -25 0 -5 -16 -22 -35 -38 -19 -15 -35 -32 -35 -37
0 -4 -7 -15 -15 -23 -8 -9 -15 -24 -15 -34 0 -10 -7 -31 -15 -46 -8 -16 -15
-41 -15 -55 0 -15 -7 -32 -15 -39 -8 -7 -15 -20 -15 -30 0 -10 -7 -20 -15 -24
-9 -3 -15 -18 -15 -35 0 -16 -7 -42 -15 -57 -21 -40 -22 -346 -1 -366 8 -8 15
-23 17 -33 8 -41 60 -55 233 -62 159 -6 165 -5 201 17 21 13 51 36 67 52 16
15 33 28 38 28 6 0 10 5 10 11 0 6 6 17 13 24 33 37 37 47 37 80 0 33 -2 35
-35 35 -22 0 -38 -6 -41 -15 -4 -8 -12 -15 -20 -15 -8 0 -14 -6 -14 -13 0 -8
-9 -22 -20 -32 -18 -16 -36 -18 -146 -16 -161 3 -164 5 -164 126 0 67 3 85 14
85 8 0 16 3 18 8 5 11 66 52 78 52 5 0 10 5 10 10 0 6 7 10 15 10 8 0 15 6 16
13 0 6 20 28 45 47 54 43 134 123 134 135 0 2 19 24 43 47 39 40 77 102 77
126 0 16 34 76 48 85 6 4 12 21 12 37 0 16 5 32 11 36 7 4 9 21 6 40 -3 19 -3
34 1 35 4 0 54 1 111 2 73 1 106 6 109 15 2 6 9 12 16 12 14 0 64 53 84 88 10
18 10 27 -2 51 -9 16 -23 31 -31 35 -26 10 -158 7 -175 -4z m-290 -330 c0 -6
-4 -10 -9 -10 -5 0 -11 -22 -15 -48 -8 -61 -38 -124 -71 -150 -14 -11 -25 -25
-25 -31 0 -6 -7 -11 -15 -11 -8 0 -15 -7 -15 -15 0 -8 -4 -15 -10 -15 -5 0
-10 -5 -10 -12 0 -16 -41 -58 -57 -58 -7 0 -13 -4 -13 -10 0 -5 -5 -10 -12
-10 -12 0 -77 -69 -78 -82 0 -5 -4 -8 -10 -8 -12 0 -13 67 -1 74 5 3 12 33 16
66 4 33 11 60 15 60 4 0 11 16 14 35 4 19 10 35 15 35 4 0 18 25 32 55 13 30
27 55 32 55 4 0 7 6 7 13 0 7 15 27 33 45 24 24 46 34 87 40 54 8 90 1 90 -18z"/>
<path d="M9200 3921 c-41 -48 -48 -58 -53 -89 -6 -28 -1 -38 29 -72 20 -22 43
-40 50 -40 8 0 14 -7 14 -15 0 -8 7 -15 16 -15 23 0 74 -32 74 -47 0 -7 7 -13
15 -13 8 0 15 -7 15 -15 0 -8 7 -15 15 -15 8 0 15 -7 15 -15 0 -8 6 -15 14
-15 7 0 35 -20 62 -45 77 -70 83 -75 94 -75 6 0 10 -7 10 -15 0 -8 8 -15 19
-15 10 0 24 -7 31 -15 7 -8 20 -15 30 -15 10 0 23 -7 30 -15 7 -8 20 -15 30
-15 10 0 20 -7 24 -15 3 -8 15 -15 26 -15 11 0 20 -7 20 -15 0 -8 8 -15 19
-15 10 0 24 -7 31 -15 7 -8 21 -15 31 -15 11 0 19 -4 19 -10 0 -5 11 -12 25
-16 14 -3 25 -12 25 -20 0 -8 7 -14 15 -14 8 0 15 -6 15 -12 0 -7 15 -20 33
-29 30 -14 32 -20 35 -70 1 -30 6 -63 11 -74 5 -11 12 -40 15 -65 2 -24 10
-46 15 -48 6 -2 11 -14 11 -27 0 -12 6 -28 14 -34 8 -7 17 -23 20 -36 6 -22
12 -25 49 -25 28 0 48 6 59 18 9 9 27 26 40 37 29 25 68 87 68 109 0 9 2 16 5
16 10 0 85 -43 91 -51 3 -5 12 -9 20 -9 9 0 22 -7 30 -15 9 -8 24 -15 35 -15
10 0 19 -4 19 -9 0 -5 14 -12 30 -16 17 -4 30 -10 30 -15 0 -5 14 -11 30 -15
17 -4 30 -13 30 -21 0 -8 8 -14 19 -14 10 0 24 -7 31 -15 7 -8 17 -15 22 -15
5 0 16 -7 24 -15 9 -8 24 -15 35 -15 10 0 19 -4 19 -9 0 -5 10 -13 23 -16 48
-15 96 -41 97 -52 0 -7 11 -13 25 -13 14 0 28 -7 31 -15 4 -8 18 -15 33 -15
14 0 35 -7 45 -15 11 -8 31 -15 45 -15 14 0 35 -7 45 -15 11 -8 32 -15 48 -15
15 0 28 -4 28 -10 0 -26 41 -50 85 -50 l45 0 0 -40 c0 -39 1 -40 35 -40 19 0
45 6 58 12 38 22 87 71 87 89 0 9 7 22 15 29 8 7 15 23 15 37 0 13 6 26 14 29
8 3 17 15 20 27 l6 22 20 -25 c11 -14 20 -38 20 -53 0 -15 7 -30 15 -33 8 -4
15 -16 15 -29 0 -12 6 -28 14 -34 7 -6 16 -43 20 -88 3 -42 10 -80 16 -83 5
-3 12 -25 16 -48 4 -23 10 -42 15 -42 5 0 9 -6 9 -12 0 -17 46 -38 80 -38 43
0 91 29 151 92 30 32 60 58 66 58 5 0 18 17 29 37 10 21 25 44 32 51 6 7 12
29 12 48 0 19 4 34 9 34 5 0 12 20 15 45 4 24 11 47 16 50 16 10 40 -26 40
-59 0 -18 7 -41 15 -52 8 -10 15 -29 15 -40 0 -12 6 -27 14 -33 7 -6 16 -42
19 -84 7 -86 29 -134 66 -149 31 -12 114 -4 119 11 2 6 9 11 16 11 15 0 76 62
76 78 0 7 5 12 10 12 6 0 14 8 17 18 4 9 13 23 20 30 7 7 13 24 13 36 0 13 7
29 15 36 9 7 15 29 15 51 0 22 4 39 10 39 5 0 12 17 15 38 7 41 35 102 47 102
5 0 8 -4 8 -10 0 -5 7 -10 15 -10 8 0 15 -6 15 -14 0 -22 29 -46 56 -46 40 0
94 -75 94 -130 0 -16 7 -35 15 -44 8 -8 15 -25 15 -38 0 -13 6 -32 14 -43 7
-11 16 -37 19 -59 7 -44 30 -65 71 -66 32 0 106 29 106 42 0 4 7 8 15 8 8 0
15 7 15 15 0 9 8 19 17 22 24 9 53 41 53 58 0 8 4 15 9 15 6 0 13 21 17 48 3
26 10 52 15 58 5 6 12 59 16 118 9 152 22 123 37 -79 10 -141 40 -255 67 -255
5 0 9 -6 9 -14 0 -8 14 -28 31 -45 29 -29 35 -31 111 -31 l80 0 75 76 75 76
33 -16 c18 -9 40 -16 48 -16 8 0 17 -7 21 -15 3 -8 14 -15 24 -15 11 0 25 -7
32 -15 7 -8 20 -15 30 -15 10 0 23 -7 30 -15 7 -8 20 -15 30 -15 10 0 23 -7
30 -15 7 -8 23 -15 37 -15 13 0 31 -7 39 -15 9 -8 24 -15 34 -15 10 0 20 -7
24 -15 3 -8 17 -15 31 -15 14 0 25 -4 25 -10 0 -5 17 -12 38 -16 20 -4 46 -13
57 -20 11 -8 34 -14 52 -14 18 0 33 -4 33 -9 0 -5 19 -12 43 -16 23 -4 51 -14
62 -21 11 -8 34 -14 51 -14 17 0 45 -7 60 -15 16 -8 48 -15 72 -15 23 0 42 -4
42 -10 0 -5 12 -10 26 -10 36 0 64 -17 64 -39 0 -10 6 -24 14 -30 8 -7 17 -35
21 -64 4 -29 12 -58 17 -64 12 -15 58 -17 58 -3 0 6 9 10 20 10 11 0 23 7 26
15 4 8 12 15 20 15 8 0 14 4 14 10 0 12 37 50 49 50 5 0 22 -7 37 -15 16 -8
39 -15 52 -15 12 0 25 -7 28 -15 4 -8 18 -15 33 -15 14 0 35 -7 45 -15 11 -8
28 -15 38 -15 10 0 18 -4 18 -10 0 -5 12 -13 28 -16 15 -4 33 -12 41 -18 14
-11 72 -34 109 -43 12 -3 22 -12 22 -19 0 -8 10 -14 24 -14 13 0 29 -7 36 -15
7 -8 18 -15 24 -15 7 0 25 -13 41 -30 16 -16 33 -30 38 -30 4 0 15 -7 23 -15
9 -8 24 -15 35 -15 10 0 19 -7 19 -15 0 -10 10 -15 30 -15 17 0 30 -4 30 -10
0 -5 5 -10 11 -10 7 0 33 -10 58 -21 25 -12 56 -26 69 -32 16 -8 26 -7 34 1 7
7 18 12 25 12 8 0 29 16 48 35 28 28 35 42 35 74 0 35 -3 41 -26 47 -15 4 -50
20 -80 35 -29 16 -59 29 -65 29 -6 0 -17 7 -25 15 -9 8 -24 15 -33 15 -10 0
-24 7 -31 15 -7 8 -18 15 -24 15 -6 1 -22 14 -36 30 -13 17 -29 30 -36 30 -6
0 -17 7 -24 15 -7 8 -23 15 -35 15 -12 0 -28 7 -35 15 -7 8 -18 15 -25 15 -7
0 -18 7 -25 15 -7 8 -25 15 -41 15 -16 0 -29 4 -29 9 0 5 -13 12 -29 16 -16 3
-35 13 -42 21 -6 8 -22 14 -35 14 -13 0 -24 4 -24 10 0 5 -12 12 -27 16 -27 6
-72 24 -125 51 -14 7 -37 13 -51 13 -36 0 -68 30 -61 57 3 11 13 24 22 27 43
14 132 95 132 119 0 10 5 17 11 17 6 0 9 12 7 28 -3 26 -5 27 -58 24 -30 -2
-60 -9 -65 -16 -6 -7 -20 -16 -33 -20 -12 -4 -22 -12 -22 -17 0 -5 -11 -9 -24
-9 -14 0 -31 -7 -40 -15 -8 -8 -21 -15 -28 -15 -8 0 -23 -7 -34 -15 -10 -8
-26 -15 -35 -15 -9 0 -24 -9 -34 -20 -16 -18 -26 -20 -79 -14 -32 4 -71 13
-85 20 -14 8 -43 14 -63 14 -20 0 -39 4 -42 9 -3 5 -27 12 -52 16 -26 4 -53
13 -61 21 -8 8 -29 14 -46 14 -18 0 -41 7 -51 15 -11 8 -29 15 -40 15 -12 0
-30 7 -40 15 -11 8 -26 15 -34 15 -7 0 -20 7 -28 15 -9 8 -25 15 -37 15 -12 0
-31 7 -41 15 -11 8 -26 15 -34 15 -7 0 -20 7 -28 15 -9 8 -24 15 -35 15 -10 0
-19 4 -19 9 0 5 -13 14 -30 20 -16 5 -30 15 -30 20 0 6 -8 11 -19 11 -10 0
-32 7 -47 15 -16 8 -39 15 -50 15 -12 0 -24 7 -28 15 -3 8 -17 15 -31 15 -14
0 -28 7 -31 15 -4 8 -13 15 -21 15 -8 0 -11 5 -8 10 3 6 18 10 33 10 15 0 36
6 47 14 11 7 38 16 60 20 22 4 45 11 50 16 6 4 43 10 84 14 41 3 79 10 85 15
6 5 32 12 58 15 26 4 50 11 53 17 4 5 19 9 35 9 16 0 35 6 42 13 7 8 27 17 43
21 16 4 33 12 36 17 3 6 31 13 62 16 32 3 57 9 57 13 0 4 26 10 57 12 31 3 59
10 61 16 2 7 15 12 28 12 18 0 24 -5 24 -21 0 -11 6 -30 12 -42 7 -12 17 -37
23 -56 13 -44 38 -60 65 -43 11 6 27 12 35 12 9 0 18 7 21 15 4 8 12 15 20 15
8 0 14 7 14 15 0 8 7 15 15 15 8 0 15 5 15 10 0 13 37 50 50 50 6 0 10 7 10
15 0 8 7 15 15 15 8 0 15 4 15 8 0 4 20 29 45 55 25 27 45 50 45 53 0 13 40
45 48 40 6 -3 16 0 24 7 7 8 26 17 41 21 15 3 27 11 27 16 0 5 21 12 48 16 26
3 52 10 57 14 6 4 31 11 58 14 26 4 47 11 47 17 0 5 14 9 31 9 17 0 43 6 57
13 15 8 42 21 60 30 19 9 42 17 52 17 10 0 25 6 32 14 8 7 30 17 49 21 19 4
39 11 44 15 6 4 26 10 44 14 44 8 111 37 111 48 0 4 6 8 14 8 8 0 18 9 21 20
3 11 13 20 21 20 8 0 14 7 14 15 0 8 6 24 13 35 10 17 9 22 -3 31 -16 10 -79
3 -94 -12 -6 -5 -16 -9 -24 -9 -8 0 -28 -6 -45 -13 -18 -8 -59 -22 -92 -31
-33 -10 -73 -24 -88 -32 -16 -8 -37 -14 -47 -14 -10 0 -25 -6 -32 -14 -8 -7
-29 -17 -46 -21 -18 -3 -32 -10 -32 -15 0 -5 -21 -12 -47 -15 -27 -3 -56 -10
-65 -16 -10 -5 -30 -9 -45 -9 -16 0 -41 -7 -57 -15 -15 -8 -36 -15 -46 -15
-10 0 -25 -7 -33 -15 -8 -8 -33 -17 -56 -21 -23 -4 -41 -10 -41 -15 0 -5 -13
-9 -29 -9 -16 0 -37 -7 -46 -17 -24 -23 -103 -24 -116 0 -6 9 -17 17 -25 17
-8 0 -17 7 -20 15 -4 8 -12 15 -20 15 -8 0 -32 11 -54 25 -22 14 -47 25 -55
25 -21 0 -62 -27 -104 -70 -29 -28 -35 -43 -39 -86 -3 -32 0 -54 7 -59 24 -14
-34 -43 -102 -50 -37 -4 -70 -11 -73 -16 -3 -5 -16 -9 -29 -9 -13 0 -30 -6
-38 -14 -8 -8 -31 -18 -51 -21 -20 -4 -39 -11 -42 -16 -3 -5 -17 -9 -32 -9
-15 0 -38 -6 -52 -13 -15 -8 -57 -17 -95 -20 -38 -4 -73 -11 -79 -17 -5 -5
-24 -10 -41 -10 -16 0 -43 -7 -59 -15 -15 -8 -43 -15 -61 -15 -19 0 -40 -6
-47 -14 -8 -7 -39 -15 -71 -18 -45 -4 -65 -11 -96 -36 -22 -18 -43 -32 -47
-32 -4 0 -20 -14 -36 -32 -28 -31 -38 -68 -18 -68 6 0 10 -33 10 -80 0 -47 -4
-80 -10 -80 -5 0 -10 7 -10 16 0 8 -5 12 -10 9 -6 -3 -13 2 -17 12 -3 10 -12
25 -19 34 -16 18 -30 114 -39 272 -4 65 -13 124 -19 130 -6 7 -16 22 -22 32
-9 17 -24 20 -93 23 -51 2 -81 -1 -81 -8 0 -5 -6 -10 -13 -10 -7 0 -24 -12
-38 -27 -14 -16 -33 -33 -44 -39 -10 -6 -23 -19 -29 -30 -6 -10 -15 -22 -20
-25 -4 -4 -11 -27 -13 -53 -3 -26 -10 -49 -14 -52 -5 -3 -9 -40 -9 -82 0 -91
-15 -87 -31 9 -6 35 -14 68 -20 73 -5 6 -9 18 -9 27 0 23 -76 99 -98 99 -19 0
-52 29 -52 46 0 5 -11 19 -24 32 -19 17 -35 22 -79 22 -36 0 -59 -5 -67 -15
-7 -8 -19 -15 -27 -15 -7 0 -16 -7 -19 -15 -4 -8 -10 -15 -15 -15 -5 0 -18 -8
-28 -17 -10 -10 -30 -27 -43 -38 -13 -11 -35 -43 -49 -70 -13 -28 -30 -54 -36
-58 -7 -4 -13 -15 -13 -23 0 -9 -7 -22 -15 -30 -8 -9 -15 -30 -15 -47 0 -47
-10 -77 -26 -77 -15 0 -20 17 -29 105 -3 33 -10 64 -15 69 -6 6 -10 19 -10 31
0 24 -26 108 -46 148 -8 16 -14 35 -14 42 0 8 -6 18 -12 22 -7 4 -18 17 -24
28 -23 41 -113 22 -159 -32 -11 -14 -28 -34 -37 -44 -10 -10 -18 -23 -18 -28
0 -5 -7 -11 -15 -15 -8 -3 -15 -16 -15 -30 0 -13 -7 -26 -15 -30 -9 -3 -15
-18 -15 -35 0 -16 -4 -32 -9 -35 -5 -4 -12 -24 -16 -47 -4 -22 -13 -53 -21
-67 -8 -15 -14 -39 -14 -54 0 -16 -4 -28 -9 -28 -5 0 -11 -9 -14 -20 -7 -26
-27 -26 -27 -1 0 11 -6 26 -14 34 -15 14 -29 69 -47 182 -5 32 -14 64 -19 69
-6 6 -10 20 -10 33 0 26 -38 103 -51 103 -5 0 -9 7 -9 15 0 9 -11 27 -26 41
-27 28 -62 27 -91 -1 -8 -8 -20 -15 -26 -15 -7 0 -23 -15 -37 -32 -14 -18 -39
-47 -57 -65 -18 -18 -37 -42 -43 -53 -11 -20 -50 -28 -50 -10 0 6 -11 10 -25
10 -14 0 -42 9 -62 20 -21 11 -45 20 -54 20 -9 0 -22 7 -29 15 -7 8 -25 15
-41 15 -16 0 -29 4 -29 10 0 5 -16 12 -35 16 -19 3 -35 10 -35 14 0 5 -10 12
-22 15 -30 9 -89 34 -108 45 -8 6 -25 14 -37 19 -11 6 -24 15 -28 20 -3 6 -15
11 -26 11 -10 0 -19 5 -19 10 0 6 -11 15 -25 20 -14 5 -25 14 -25 20 0 5 -11
10 -24 10 -14 0 -27 4 -31 9 -3 5 -19 12 -35 16 -17 4 -30 13 -30 21 0 8 -8
14 -19 14 -10 0 -24 7 -31 15 -7 8 -18 15 -25 15 -7 0 -18 7 -25 15 -7 8 -21
15 -31 15 -11 0 -19 4 -19 9 0 5 -15 13 -32 16 -18 4 -40 13 -48 20 -8 7 -26
15 -40 17 -30 4 -38 32 -16 54 11 10 16 34 16 71 l0 55 -102 -4 c-70 -2 -103
-7 -106 -15 -6 -19 -62 -17 -62 2 0 8 -7 15 -15 15 -8 0 -15 7 -15 15 0 8 -9
15 -20 15 -11 0 -20 4 -20 10 0 5 -11 12 -25 16 -14 3 -25 10 -25 15 0 5 -6 9
-13 9 -8 0 -22 9 -32 20 -10 11 -24 20 -32 20 -7 0 -13 6 -13 14 0 7 -8 16
-17 20 -10 3 -25 9 -33 14 -43 26 -80 42 -94 42 -9 0 -16 4 -16 9 0 5 -11 13
-24 18 -23 8 -71 42 -107 76 -11 9 -21 17 -24 17 -9 0 -32 20 -88 78 -28 29
-70 64 -93 77 -22 13 -63 44 -89 69 -27 26 -54 46 -62 46 -7 0 -13 7 -13 15 0
22 -90 19 -110 -4z"/>
<path d="M13090 3800 c0 -5 -7 -10 -15 -10 -9 0 -18 -7 -21 -15 -4 -8 -12 -15
-20 -15 -8 0 -14 -7 -14 -15 0 -8 -4 -15 -9 -15 -5 0 -12 -12 -15 -26 -7 -27
-7 -28 -61 -89 -19 -22 -35 -47 -35 -56 0 -9 -7 -19 -15 -23 -8 -3 -15 -15
-15 -26 0 -11 -4 -20 -9 -20 -5 0 -12 -13 -16 -30 -4 -16 -11 -30 -16 -30 -12
0 -12 257 1 265 16 10 12 52 -6 59 -33 13 -114 6 -120 -9 -4 -8 -10 -15 -14
-15 -4 0 -26 -17 -49 -39 -33 -31 -41 -46 -41 -74 0 -31 4 -36 30 -42 26 -6
29 -9 19 -22 -9 -10 -14 -84 -17 -249 l-4 -234 31 0 c17 0 31 4 31 9 0 5 10
11 23 15 13 3 42 23 65 45 31 30 42 48 42 71 0 16 5 30 10 30 6 0 10 6 10 13
0 6 16 29 35 50 19 21 35 42 35 48 0 5 5 9 10 9 6 0 10 7 10 15 0 8 9 24 20
35 11 11 20 24 20 29 0 12 32 71 48 89 6 7 12 18 12 23 0 5 5 9 10 9 6 0 10
-13 10 -29 0 -16 6 -36 13 -43 21 -21 46 -234 35 -308 -3 -23 1 -25 39 -28 37
-3 45 1 82 39 23 24 44 52 47 63 4 11 13 26 20 34 8 7 14 21 14 30 0 9 7 26
15 36 8 11 15 27 15 37 0 9 7 19 15 23 8 3 15 16 15 28 0 13 7 32 15 42 8 11
15 28 15 37 0 19 28 75 48 97 6 7 12 18 12 23 0 6 14 23 31 38 25 23 30 35 27
62 -2 23 -9 35 -21 37 -24 5 -77 -20 -77 -35 0 -7 -4 -13 -10 -13 -5 0 -10 -7
-10 -15 0 -9 -8 -19 -17 -22 -42 -16 -113 -120 -113 -164 0 -7 -3 -9 -7 -5 -4
4 -10 36 -14 73 -4 36 -11 68 -16 72 -6 3 -13 31 -17 61 -4 30 -12 60 -18 67
-12 15 -98 18 -98 3z"/>
<path d="M13582 3676 c-69 -39 -106 -102 -83 -144 19 -36 354 -41 368 -6 3 8
12 14 19 14 23 0 74 58 74 85 0 30 -26 45 -79 45 -22 0 -43 5 -46 10 -9 15
-225 11 -253 -4z"/>
<path d="M9540 3153 c-8 -3 -19 -12 -23 -19 -4 -8 -12 -14 -17 -14 -27 0 -50
-36 -50 -77 0 -39 2 -43 26 -43 14 0 33 -4 42 -9 9 -4 94 -11 189 -15 145 -5
174 -4 187 9 8 8 22 15 30 15 9 0 16 6 16 14 0 8 7 16 15 20 8 3 15 12 15 21
0 8 5 15 11 15 6 0 9 12 7 28 -3 26 -5 27 -88 36 -47 4 -114 9 -150 10 -36 2
-94 6 -130 9 -36 4 -72 4 -80 0z"/>
<path d="M9550 2870 c0 -5 -8 -10 -18 -10 -33 0 -96 -82 -104 -135 -2 -11 -10
-21 -18 -21 -8 -1 -22 -2 -32 -3 -9 0 -35 -18 -57 -39 -49 -45 -57 -96 -18
-108 12 -4 24 -10 27 -15 3 -5 16 -10 28 -12 31 -5 37 -14 18 -32 -9 -9 -16
-31 -16 -49 0 -17 -5 -37 -11 -43 -16 -16 -17 -115 -1 -120 6 -3 12 -11 12
-19 0 -8 6 -14 14 -14 8 0 16 -7 20 -15 3 -8 16 -15 29 -15 14 0 41 -7 60 -15
48 -20 173 -20 211 0 15 8 35 15 42 15 8 0 17 6 20 14 3 8 16 17 30 20 13 4
24 11 24 16 0 6 7 10 15 10 9 0 18 7 21 15 4 8 12 15 20 15 7 0 25 12 39 28
31 32 32 85 1 90 -18 4 -88 -26 -94 -40 -2 -5 -63 -8 -135 -8 -122 0 -133 2
-145 20 -15 25 -6 86 13 94 7 2 30 3 50 0 22 -3 50 2 68 11 16 8 36 15 43 15
7 0 17 6 21 13 4 6 19 18 33 25 28 14 53 62 48 89 -4 24 -51 34 -148 31 l-85
-3 4 40 c1 22 7 42 11 45 4 3 10 31 14 63 l7 57 -30 0 c-17 0 -31 -4 -31 -10z"/>
<path d="M11420 2330 c0 -5 -6 -10 -12 -10 -19 -1 -68 -47 -68 -65 0 -8 -4
-15 -10 -15 -25 0 -7 -45 43 -111 15 -20 27 -41 27 -47 0 -5 7 -15 15 -22 8
-7 15 -21 15 -31 0 -11 5 -19 11 -19 5 0 15 -13 20 -30 6 -16 15 -30 20 -30 5
0 9 -6 9 -13 0 -13 35 -60 73 -99 9 -10 17 -21 17 -24 0 -10 61 -86 92 -116
15 -15 28 -29 28 -32 0 -3 8 -14 18 -25 9 -10 28 -34 42 -52 14 -18 33 -41 43
-51 9 -10 17 -22 17 -28 0 -5 4 -10 9 -10 5 0 21 -20 35 -45 15 -25 31 -45 35
-45 5 0 12 -8 15 -17 12 -33 37 -73 45 -73 5 0 12 -11 15 -25 4 -14 10 -25 15
-25 13 0 13 -301 1 -355 -14 -62 -6 -75 44 -75 45 1 64 13 114 78 19 23 37 42
42 42 4 0 13 -13 20 -30 7 -16 16 -30 21 -30 5 0 9 -7 9 -15 0 -8 6 -15 13
-15 14 -1 41 -36 51 -67 4 -13 12 -23 17 -23 5 0 9 -7 9 -15 0 -8 7 -15 15
-15 8 0 15 -7 15 -15 0 -8 4 -15 10 -15 9 0 80 -66 80 -75 0 -9 71 -75 80 -75
6 0 10 -7 10 -15 0 -8 5 -15 11 -15 5 0 15 -13 20 -30 6 -16 15 -30 20 -30 5
0 9 -6 9 -13 0 -7 14 -29 30 -47 17 -18 30 -40 30 -47 0 -7 7 -13 15 -13 8 0
15 -4 15 -10 0 -5 16 -25 35 -44 19 -20 35 -42 35 -51 0 -8 4 -15 9 -15 5 0
12 -13 16 -28 3 -15 17 -36 30 -46 14 -10 25 -24 25 -30 0 -27 21 -33 56 -17
18 8 34 19 34 23 0 4 6 8 13 8 8 0 23 10 35 23 25 26 31 101 10 110 -7 2 -22
28 -33 57 -11 29 -26 55 -32 57 -7 3 -13 11 -13 19 0 8 -7 14 -15 14 -8 0 -15
7 -15 15 0 8 -4 15 -10 15 -5 0 -16 12 -24 28 -8 15 -30 45 -50 67 -20 22 -36
47 -36 56 0 9 -7 19 -15 23 -8 3 -15 12 -15 21 0 8 -7 15 -15 15 -8 0 -15 5
-15 10 0 19 -119 140 -137 140 -7 0 -13 6 -13 14 0 8 -6 16 -13 19 -7 2 -22
23 -32 46 -11 22 -24 41 -28 41 -13 0 -65 61 -78 92 -6 15 -15 28 -20 28 -5 0
-9 6 -9 14 0 7 -10 16 -22 19 l-23 6 22 21 c12 11 25 20 29 20 4 0 27 20 51
45 23 25 47 45 53 45 5 0 10 7 10 15 0 8 6 24 12 35 25 40 -8 48 -194 49 -98
1 -118 4 -118 16 0 8 -6 15 -12 15 -7 0 -29 35 -48 77 -19 41 -54 96 -77 122
-23 25 -43 52 -43 59 0 6 -4 12 -9 12 -5 0 -21 20 -35 45 -15 25 -31 45 -36
45 -6 0 -10 7 -10 15 0 8 -7 15 -15 15 -8 0 -15 7 -15 15 0 8 -7 15 -15 15 -8
0 -15 6 -15 13 -1 6 -14 28 -30 47 -17 19 -30 40 -30 47 0 7 -7 13 -15 13 -8
0 -15 7 -15 15 0 8 -7 15 -15 15 -8 0 -15 5 -15 10 0 6 -9 19 -20 30 -11 11
-20 27 -20 35 0 8 -4 15 -9 15 -5 0 -11 8 -15 18 -8 24 -27 51 -58 83 -15 15
-30 39 -34 53 -3 14 -10 26 -14 26 -5 0 -11 14 -15 30 -4 17 -11 30 -16 30 -5
0 -9 6 -9 13 -1 26 -49 67 -80 67 -16 0 -30 -4 -30 -10z"/>
<path d="M16990 2073 c-14 -3 -28 -9 -31 -14 -3 -5 -140 -10 -307 -12 -225 -1
-304 -5 -314 -14 -6 -7 -20 -13 -30 -13 -10 0 -18 -7 -18 -15 0 -8 -5 -15 -11
-15 -40 0 -69 -113 -31 -124 24 -6 475 11 592 23 106 11 149 28 197 80 27 29
33 43 31 71 -3 30 -7 35 -28 36 -14 1 -36 0 -50 -3z"/>
<path d="M16836 1817 c-28 -18 -66 -53 -66 -61 0 -4 -7 -14 -15 -22 -8 -9 -15
-29 -15 -45 0 -16 -4 -29 -9 -29 -5 0 -14 -13 -20 -30 -5 -16 -15 -30 -20 -30
-6 0 -11 -11 -11 -24 0 -14 -4 -27 -9 -31 -5 -3 -13 -19 -16 -36 -4 -17 -26
-52 -49 -77 -67 -73 -71 -78 -74 -93 -4 -20 -72 -80 -83 -73 -12 7 -12 8 11
34 12 14 20 37 20 61 0 21 5 41 10 44 6 4 10 77 10 185 l0 180 -24 6 c-28 7
-66 -3 -66 -17 0 -5 -7 -9 -15 -9 -8 0 -15 -4 -15 -9 0 -6 -13 -25 -30 -43
l-30 -32 0 -161 c-1 -125 -4 -164 -15 -179 -8 -11 -15 -33 -15 -49 0 -15 -7
-35 -15 -43 -8 -9 -15 -28 -15 -44 0 -16 -4 -32 -10 -35 -5 -3 -10 -19 -10
-36 0 -29 1 -29 55 -29 30 0 55 5 55 10 0 6 9 10 20 10 31 0 102 41 142 82 21
21 42 38 46 38 14 0 94 84 103 109 5 13 12 21 16 17 8 -8 -27 -116 -44 -137
-7 -8 -13 -21 -13 -28 0 -7 -7 -19 -15 -27 -8 -9 -15 -28 -15 -43 0 -15 -5
-32 -10 -37 -16 -16 -51 -332 -43 -379 8 -38 31 -75 48 -75 7 0 26 -7 41 -15
42 -21 110 -19 160 7 24 12 44 25 44 30 0 4 7 8 15 8 9 0 18 7 21 15 4 8 11
15 18 15 6 0 39 27 74 59 45 43 62 66 62 85 0 29 -25 45 -43 27 -6 -6 -19 -11
-29 -11 -10 0 -21 -6 -24 -14 -3 -8 -19 -18 -35 -21 -16 -4 -29 -11 -29 -16 0
-5 -31 -9 -70 -9 l-69 0 4 33 c18 141 23 196 20 222 -4 29 21 65 45 65 5 0 10
7 10 15 0 8 7 15 15 15 16 0 85 65 85 80 0 6 4 10 9 10 5 0 12 13 16 29 3 16
13 32 21 35 8 3 14 12 14 20 0 8 3 16 8 18 4 2 17 17 30 35 17 25 22 46 22 94
0 85 -22 109 -102 109 -53 0 -60 -3 -89 -35 -18 -19 -34 -33 -36 -31 -6 6 16
57 32 72 8 9 15 21 15 29 0 7 7 15 15 19 8 3 15 10 15 16 0 6 7 18 15 26 8 9
15 25 15 38 0 12 5 27 11 33 6 6 9 28 7 49 -3 35 -6 39 -33 41 -16 1 -38 -3
-49 -10z"/>
<path d="M3064 1675 c-4 -8 -12 -15 -20 -15 -8 0 -14 -5 -14 -12 0 -9 -3 -9
-12 0 -17 17 -80 15 -104 -3 -10 -8 -27 -15 -37 -15 -10 0 -20 -7 -23 -15 -4
-8 -10 -15 -15 -15 -5 0 -17 -8 -27 -17 -9 -10 -29 -27 -44 -39 -54 -42 -68
-87 -68 -219 0 -66 5 -127 10 -135 11 -18 146 -22 158 -4 9 13 38 24 46 17 7
-8 -106 -113 -121 -113 -13 0 -41 -26 -92 -88 -19 -23 -38 -42 -43 -42 -11 0
-48 -38 -48 -48 0 -5 -7 -23 -15 -40 -11 -21 -13 -43 -9 -71 6 -40 9 -42 60
-57 39 -11 58 -12 73 -5 11 6 31 11 45 11 16 0 26 6 26 15 0 8 7 15 15 15 8 0
15 6 15 14 0 7 12 22 26 32 14 10 32 25 39 32 8 6 18 12 24 12 6 0 11 7 11 15
0 8 4 15 9 15 5 0 14 12 20 28 13 33 28 56 64 96 15 17 27 38 27 48 0 10 4 18
10 18 5 0 12 11 16 25 3 14 14 26 23 27 9 0 21 2 26 2 12 1 37 21 63 49 9 9
22 17 29 17 7 0 13 7 13 15 0 8 5 15 10 15 6 0 10 16 10 35 0 40 -21 55 -51
37 -22 -14 -89 -16 -89 -3 0 5 5 11 11 13 7 2 13 47 17 116 2 62 9 115 13 118
5 3 9 34 9 70 l0 64 -40 0 c-27 0 -43 -5 -46 -15z"/>
<path d="M11657 805 c-9 -8 -21 -15 -27 -15 -6 0 -14 -8 -17 -17 -4 -10 -13
-24 -20 -31 -18 -19 -16 -69 3 -76 9 -3 106 -6 217 -6 158 0 207 3 227 15 14
8 32 18 40 22 33 16 49 40 52 78 l3 40 -232 3 c-196 2 -234 0 -246 -13z"/>
<path d="M11714 611 c-9 -15 -30 -36 -45 -45 -19 -11 -29 -25 -29 -41 0 -13
-5 -25 -10 -27 -6 -2 -13 -28 -17 -58 -3 -29 -12 -65 -20 -79 -7 -15 -13 -39
-13 -54 0 -16 -7 -35 -15 -43 -8 -9 -15 -29 -15 -45 0 -16 -4 -29 -9 -29 -5 0
-12 -11 -15 -25 -4 -14 -11 -25 -16 -25 -6 0 -10 -18 -10 -40 0 -38 2 -40 29
-40 18 0 41 -10 57 -25 36 -34 76 -39 232 -31 130 6 135 7 178 38 24 17 44 37
44 45 0 7 7 13 15 13 12 0 15 15 15 75 0 41 -4 75 -9 75 -4 0 -21 19 -37 43
-16 23 -32 44 -36 45 -5 2 -8 9 -8 16 0 6 -13 19 -29 29 -33 19 -155 24 -166
7 -4 -6 -11 -8 -16 -4 -12 7 -2 61 17 89 8 11 14 34 14 52 0 17 5 35 10 38 6
3 10 22 10 41 0 34 0 34 -44 34 -39 0 -47 -4 -62 -29z"/>
</g>
</svg>
