<svg viewBox="0 0 614.4 327.36" xmlns="http://www.w3.org/2000/svg"><path d="M374.19 325.02a2.808 2.808 0 01-1.6-1.254c-.295-.522-.752-.93-1.016-.908-.999.083-1.28-.051-1.28-.61 0-.317.137-.713.304-.88.513-.513 1.963-4.58 3.071-8.618.955-3.473 1.175-3.947 2.347-5.04 2.434-2.27 2.883-1.438 1.595 2.954-1.289 4.394-1.45 4.099 2.133 3.911l3.05-.16 1.439 1.565c1.633 1.776 2.7 3.763 2.7 5.025 0 1.037-2.087 3.255-3.697 3.927-1.248.522-7.336.58-9.046.088zm8.264-3.591c0-.24-.642-1.125-1.427-1.967l-1.426-1.532-2.014.205c-2.031.207-3.133.912-3.133 2.005 0 .244.252.445.56.446.308 0 .992.288 1.52.638 1.194.791 5.92.954 5.92.205zm30.004-.925c-.436-.572-1.121-1.688-1.523-2.48-.402-.792-1.58-2.426-2.618-3.632-1.038-1.205-2.584-3.221-3.436-4.48-.853-1.258-2.877-3.656-4.5-5.328-1.622-1.672-3.332-3.544-3.799-4.16-1.872-2.468-4.58-5.754-4.913-5.96-.2-.123-.973.504-1.783 1.443-1.477 1.714-2.815 2.616-3.513 2.367-.302-.108-.4-1.72-.4-6.578v-6.435l-1.333-2.258c-1.47-2.492-2.958-4.515-6.815-9.269-5.317-6.553-7.438-9.406-9.422-12.67-1.123-1.848-2.381-3.871-2.796-4.497-1.02-1.54-.951-2.397.286-3.532 1.572-1.441 2.318-1.181 3.766 1.31 2.539 4.37 7.792 11.895 9.74 13.953.335.355 3.346 4.097 6.104 7.586.809 1.023 2.188 3.111 3.066 4.64 2.413 4.205 2.118 4.033 7.228 4.22 2.891.106 4.407.285 4.488.53.182.551-1.589 2.425-3.6 3.81-.975.672-1.71 1.39-1.63 1.594.32.833 6.958 9.068 8.25 10.232 1.838 1.659 3.872 4.035 5.472 6.394.716 1.056 1.675 2.36 2.13 2.896 2.176 2.568 3.14 3.871 3.977 5.382.5.903 1.112 1.87 1.36 2.147.247.278.45.73.45 1.003 0 .592-2.371 2.812-3.003 2.812-.243 0-.798-.468-1.233-1.04zM5.908 305.977c-.248-.644.41-6.587 1.025-9.271.562-2.456 3.523-8.723 5.122-10.842 2.322-3.078 7.028-6.47 9.42-6.791 1.106-.148 1.568-.452 2.676-1.758 2.867-3.379 7.262-7.343 9.77-8.813 1.274-.747 4.556-2.033 7.584-2.97.7-.218 1.168-.702 1.664-1.722 1.033-2.127 4.44-6.05 6.796-7.829 2.044-1.542 4.982-2.96 8.805-4.248 1.056-.356 2.064-.76 2.24-.897s.891-.433 1.59-.659c.972-.313 2.567-1.713 6.8-5.97 3.041-3.06 5.53-5.694 5.53-5.855 0-.546 5.269-4.55 7.01-5.326.952-.425 2.654-.986 3.782-1.248 2.8-.65 3.068-.834 4.257-2.94 1.556-2.758 3.34-5.05 5.873-7.55 2.482-2.447 7.376-5.82 9.158-6.31l2.967-.817c1.699-.466 1.908-.627 2.605-2.002 1.299-2.562 6.038-8.896 8.744-11.687 3.442-3.55 5.712-5.044 8.049-5.296l1.795-.193v-3.233c0-2.126-.15-3.513-.439-4.05-.324-.606-1.36-1.199-4-2.29-3.246-1.341-3.794-1.471-6.185-1.47-2.103.003-2.683.108-2.92.53-.162.29-.223 2.055-.135 3.92.284 6.042-1.29 10.054-5.67 14.458-3.397 3.413-4.801 4.135-8.041 4.135-2.866 0-3.483-.35-4.681-2.662-.747-1.442-.876-2.125-.989-5.245-.116-3.231-.061-3.696.552-4.689 1.365-2.208 8.787-8.383 12.254-10.195 1.868-.975 1.873-1.704.038-5.21-1.075-2.052-2.268-3.318-4.602-4.886-.802-.538-1.666-1.231-1.92-1.54-.652-.79-2.883-2.373-3.346-2.373-.248 0-.45.764-.558 2.115-.164 2.042-.23 2.177-1.884 3.865-2.528 2.58-2.882 2.704-8.411 2.951-2.653.119-5.173.13-5.601.025-1.05-.257-1.954-1.543-2.153-3.064-.132-1.013.01-1.508.744-2.589 1.297-1.91 5.293-5.352 8.187-7.053 1.364-.8 2.48-1.658 2.48-1.904s-.9-1.282-2-2.301c-7.834-7.26-11.054-9.726-13.41-10.27-1.661-.382-5.388-.428-5.948-.073-.317.201-.32 1.286-.013 5.305.366 4.81.355 5.107-.242 6.212-1.425 2.64-3.985 3.268-7.098 1.743-2.113-1.034-2.966-2.236-2.967-4.184-.002-1.644.275-2.21 2.23-4.558.817-.982 1.804-2.302 2.194-2.933l.709-1.146-.772-4.182c-.831-4.507-1.6-6.276-4.162-9.584-3.095-3.994-3.111-4.007-5.373-4.15-1.471-.094-2.154-.009-2.404.302-.192.238-.424 2.089-.516 4.113-.2 4.385-.58 5.662-2.248 7.557-1.75 1.99-3.244 2.683-5.78 2.683-2.06 0-2.068-.003-3.416-1.52-2.052-2.31-2.541-3.263-2.542-4.954-.002-2.571.754-3.877 3.529-6.098 1.372-1.098 3.66-2.616 5.083-3.375 1.424-.759 2.751-1.684 2.95-2.055.518-.969.114-5.492-.62-6.927-.764-1.496-4.642-3.871-8.227-5.039-3.13-1.019-3.766-.909-3.431.595.129.58.234 3.155.234 5.725v4.672l-1.12 1.264c-2.519 2.844-4.784 3.924-11.68 5.57-3.05.728-5.939.695-7.182-.081-1.718-1.073-3.628-6.716-3.67-10.84-.025-2.455.06-2.876.813-4 3.03-4.529 8.601-7.759 13.46-7.806.65-.006 1.265-.147 1.367-.312.281-.455-1.073-1.593-2.868-2.41-.88-.401-2.445-1.245-3.479-1.876-1.034-.63-2.993-1.518-4.354-1.97-2.365-.789-2.773-.823-9.28-.79-4.265.021-6.93-.088-7.135-.293-.5-.5 1.648-2.47 3.143-2.885.714-.199 3.93-.352 7.384-.353 5.698-.002 6.293.054 8.64.817 1.387.45 3.307 1.26 4.267 1.8s2.688 1.483 3.84 2.098c2.49 1.328 3.565 2.278 4.9 4.332 1.032 1.587 1.188 1.664 4.042 1.989 2.34.266 7.071 1.87 9.75 3.305 4.139 2.217 5.42 4.558 5.32 9.73-.024 1.28-.034 2.489-.021 2.687.015.223 1.031.412 2.688.5 3.53.185 4.317.709 7.422 4.94 3.338 4.55 3.897 5.761 4.49 9.742.275 1.836.623 3.462.774 3.615.155.155.882.058 1.662-.222 2.274-.818 6.028-.993 8.137-.38 1.563.454 6.03 3.089 7.017 4.138.524.557 3.956 3.693 6.51 5.947 1.295 1.144 2.987 2.897 3.759 3.895.995 1.287 1.752 1.926 2.604 2.198 1.13.36 3.227 1.872 9.68 6.978 2.244 1.776 2.93 2.542 3.918 4.38.66 1.226 1.363 2.853 1.565 3.616.202.763.583 1.47.848 1.572.264.101 1.752-.074 3.305-.389 3.472-.705 5.26-.548 7.964.7 1.144.526 2.624 1.135 3.288 1.351 1.98.645 3.024 1.746 3.44 3.63.328 1.487.302 7.02-.04 8.685-.102.49.2.737 1.472 1.203.88.323 1.79.55 2.021.504.231-.046.844-1.138 1.36-2.427 1.242-3.093 2.374-4.681 5.133-7.2 1.78-1.624 2.865-2.316 4.887-3.116 1.43-.566 3.32-1.396 4.2-1.845 1.294-.66 2.184-.842 4.667-.95 3.402-.15 4.264.115 5.994 1.845 1.058 1.059 1.815 1.204 2.787.536.816-.56 3.752-1.645 6.657-2.46 1.262-.354 3.374-.958 4.694-1.343 2.041-.595 3.214-.701 7.84-.711l5.44-.012 3.476 2.35c2.504 1.693 3.667 2.303 4.16 2.179.376-.095 1.548-.394 2.604-.666 2.255-.58 6.63-.66 7.601-.14 1.059.567 1.465.914 4.032 3.446 2.718 2.682 2.236 2.666 5.534.18.943-.71 2.771-1.772 4.064-2.36 2.304-1.046 2.46-1.07 7.84-1.23l5.49-.164 2.803 1.162c1.542.64 3.023 1.163 3.291 1.163s.84.23 1.271.513c.624.409.982.444 1.762.172 1.42-.495 10.134-1.101 13.547-.942 2.055.096 3.373.337 4.432.813 1.504.675 1.51.675 2.31.044 1.59-1.25 4.804-2.443 7.555-2.806 1.503-.198 3.23-.503 3.838-.677 1.9-.545 5.753-.372 7.19.323.704.34 1.433.623 1.62.629.817.026 3.61 4.042 4.812 6.917.28.67 1.071 2.046 1.758 3.058s1.25 2.12 1.25 2.46c0 .829-1.866 2.616-2.73 2.616-.888 0-1.379-.586-2.95-3.52-1.431-2.674-3.3-5.865-4.076-6.957-.28-.394-1.273-1.078-2.207-1.52-2.142-1.013-4.942-1.064-9.188-.168-1.655.35-3.317.637-3.693.64-.377.003-1.025.293-1.44.645l-.756.64.866.656c1.758 1.333 3.64 5.432 4.107 8.944.456 3.426.173 4.314-2.062 6.457-2.868 2.751-4.085 3.254-7.449 3.077-2.266-.119-2.797-.249-3.098-.759-.857-1.449-1.213-3.062-1.39-6.285-.216-3.934.102-5.15 2.199-8.397 1.818-2.815 1.715-2.868-5.824-2.998-5.349-.093-6.093-.044-6.268.41-.112.295.31 1.516.983 2.842 1.04 2.05 1.202 2.687 1.362 5.383.273 4.57.094 5.129-2.512 7.816-2.913 3.004-5.115 4.065-8.794 4.236l-2.6.12-.797-1.07c-1.543-2.074-2.003-3.937-2.003-8.112v-3.84l1.4-2.24c.77-1.232 1.968-2.86 2.662-3.616.693-.757 1.203-1.549 1.133-1.76-.07-.21-1.268-.866-2.661-1.456l-2.534-1.073-4.96.149c-4.726.141-5.08.199-7.52 1.212-1.408.586-2.964 1.466-3.457 1.957l-.898.893 2.132 4.087c1.902 3.645 2.138 4.297 2.178 6.034.042 1.807-.041 2.054-1.154 3.413-2.4 2.934-7.58 5.59-9.338 4.788-.438-.2-1.198-.97-1.69-1.711-.776-1.172-.907-1.721-1.005-4.195-.11-2.761-.076-2.92 1.114-5.304.675-1.352 1.637-3.14 2.136-3.972.532-.884.832-1.75.722-2.08-.215-.652-2.771-3.318-4.53-4.726-1.087-.87-1.422-.96-3.53-.96-3.029 0-3.321.297-2.189 2.23.775 1.322.893 1.904 1.029 5.072l.153 3.578-1.393 2.08c-1.621 2.42-5.296 6.24-7.21 7.494-1.045.685-1.851.91-3.777 1.056l-2.449.185-1.88-1.934c-1.307-1.344-2-2.359-2.269-3.328-.575-2.065-.478-5.07.211-6.523.839-1.766 6.025-6.876 8.214-8.093 1.012-.562 1.84-1.135 1.84-1.272s-.828-.739-1.84-1.337-2.175-1.384-2.584-1.747c-.65-.577-1.242-.674-4.64-.762-4.454-.115-5.756.066-11.735 1.636-5.11 1.341-5.44 1.46-5.44 1.946 0 .205.712 1.35 1.582 2.543 2.033 2.789 2.625 4.822 2.81 9.656.167 4.37.154 4.402-2.952 7.238-3.082 2.813-3.829 3.162-6.77 3.162-2.487 0-2.67-.05-3.584-.963-1.231-1.231-1.768-3.692-1.581-7.25.133-2.53.239-2.841 2.577-7.533 2.724-5.465 2.712-5.267.413-7.126-1.15-.93-1.32-.968-4.327-.968-3.042 0-3.202.037-5.65 1.311-1.385.722-2.892 1.403-3.348 1.514-1.72.419-3.249 2.73-4.744 7.175-1.24 3.682-1.405 4.984-.846 6.632.566 1.667.392 2.263-.982 3.343-1.466 1.153-2.19.897-2.983-1.057-1.24-3.055-5.138-4.998-10.027-4.998h-2.196l-1.88 1.793c-1.035.987-2.428 2.607-3.097 3.6a119.95 119.95 0 01-2.407 3.425c-.656.89-1.614 2.545-2.13 3.68-1.002 2.201-.906 2.862.417 2.862 1.448 0 6.279 1.237 7.29 1.867 1.096.682 3.802 3.374 5.002 4.976.62.826.692 1.325.692 4.75v3.829l-2.112 2.188c-2.952 3.058-3.574 3.302-7.937 3.112-4.252-.184-5.924-.802-7.66-2.83-1.663-1.942-1.9-3.166-1.766-9.092l.115-5.12-.934-.107c-1.26-.143-3.434.493-5.946 1.742-3.267 1.623-5.45 4.152-8.592 9.95-.238.438-.31.912-.16 1.052s2.36.318 4.912.395c4.318.13 4.818.212 7.2 1.174 1.408.568 3.042 1.492 3.63 2.053l1.07 1.02-.127 2.72c-.108 2.342-.276 3.003-1.208 4.747-1.493 2.796-4.378 5.39-6.318 5.681-3.331.5-7.357-.658-11.015-3.167-2.546-1.746-2.932-2.595-3.093-6.808l-.14-3.652h-.84c-1.175 0-4.75 1.058-6.375 1.887-1.335.681-11.822 10.782-11.513 11.09.086.086 2.255.19 4.82.23 4.297.067 4.735.13 5.567.793.496.396 1.671 1.23 2.61 1.854 3.087 2.05 3.253 2.35 3.245 5.873-.005 2.365-.152 3.394-.638 4.465-.675 1.486-3.813 4.772-5.322 5.573l-2.18 1.16c-.988.526-1.836.675-3.845.675-2.202 0-2.858-.137-4.51-.943-2.042-.996-5.017-3.822-5.579-5.3-.39-1.027-.406-5.954-.024-7.599.162-.698.16-1.275-.007-1.378-.157-.097-1.402.323-2.767.934a81.585 81.585 0 01-5.276 2.087c-3.758 1.315-4.459 1.71-5.852 3.31-1.321 1.518-2.528 3.914-2.287 4.542.11.286 1.427.463 4.461.6 5.045.228 7.589 1.035 9.85 3.123l1.356 1.251-.194 3.287c-.204 3.458-1.018 7.01-2.087 9.105-.795 1.56-3.24 3.845-4.43 4.144-1.355.34-5.755-.408-7.091-1.206-3.66-2.185-5.752-6.465-5.985-12.241-.07-1.74-.207-3.243-.302-3.34-.202-.2-3.072.49-4.484 1.08-.528.22-2.04.8-3.36 1.289-1.892.7-2.832 1.299-4.445 2.832-2.197 2.088-3.875 4.187-3.875 4.849 0 .245.739.547 1.84.753 1.012.19 2.493.478 3.29.641 4.232.866 7.637 3.088 8.343 5.443.212.709.305 2.844.232 5.32-.141 4.738-.37 5.376-2.794 7.787-3.06 3.045-3.437 3.23-6.549 3.23-2.526 0-2.972-.098-4.93-1.09-2.459-1.247-4.545-2.944-5.874-4.779-.876-1.21-.918-1.423-.918-4.745 0-2.972.117-3.765.8-5.447.44-1.083.8-2.145.8-2.36 0-.796-1.106-.782-2.777.035-2.033.995-3.012 2.19-4.072 4.965-.433 1.134-1.142 2.786-1.575 3.67-1.226 2.502-1.791 4.78-2.017 8.12-.233 3.458-.61 4.44-2.148 5.615-1.259.96-1.444.991-1.713.29zm29.142-8.424c.382-.381.71-8.487.394-9.746-.213-.849-1.385-2.217-2.303-2.688-1.82-.933-7.219-2.293-9.112-2.295-1.015 0-1.58 2.046-1.58 5.728 0 3.105.076 3.562.72 4.389 1.817 2.333 4.74 4.293 7.37 4.942 1.336.33 4.049.131 4.51-.33zm21.59-16.108c.588-.709 1.65-5.89 1.65-8.05 0-1.96-.048-2.084-1.155-2.997-1.952-1.608-4.245-2.294-7.673-2.294H46.45v2.171c0 2.748 1.379 6.82 2.953 8.721.803.97 2.45 1.912 4.134 2.365 2.182.587 2.674.6 3.103.084zm22.025-17.481c1.7-.772 1.956-1.285 2.22-4.444.295-3.551.035-4.047-3.328-6.333l-2.771-1.883-3.528-.101c-4.84-.138-4.77-.204-4.697 4.438.039 2.447.2 3.841.495 4.285 1.189 1.79 3.272 3.452 5.22 4.167 1.782.654 4.799.593 6.389-.129zm24.943-19.465c.872-.575 1.723-2.967 1.723-4.849 0-1.793-.07-1.975-1.073-2.775-2.164-1.727-4.528-2.46-8.446-2.623-4.594-.19-4.69-.125-4.488 3.03.082 1.275.336 2.544.564 2.819 1.544 1.86 7.373 4.624 9.763 4.63.88.001 1.76-.103 1.957-.232zm19.344-13.206c.55-.295.619-.696.619-3.622v-3.292l-1.2-1.406c-1.575-1.846-3.514-3.6-4.362-3.944-1.362-.554-5.143-1.41-5.545-1.255-.31.12-.413 1.27-.413 4.62 0 4.97.178 5.598 2.059 7.25 1.002.88 1.78 1.207 4.18 1.759 1.237.284 4.049.218 4.662-.11zm119.37-25.954c2.208-.742 2.283-.932 2.132-5.392-.127-3.77-.197-4.124-1.196-6.083-2.081-4.08-3.572-4.808-5.458-2.66-1.619 1.843-2.216 3.47-2.224 6.057-.009 2.837.445 5.292 1.307 7.072l.663 1.371h1.844c1.014 0 2.333-.164 2.932-.365zm-27.47-.753c.774-.32.993-1.437.574-2.919-.468-1.65-3.008-6.613-3.463-6.765-.469-.156-1.603 2.085-1.849 3.653-.106.676-.041 2.165.143 3.31.518 3.22 1.696 3.917 4.596 2.72zm-48.562-.161c.512-.566.555-1.033.373-4.08-.113-1.892-.472-4.31-.799-5.372-.703-2.289-2.17-4.63-2.896-4.625-.325.002-1.015.984-1.853 2.64-1.142 2.252-1.36 3.009-1.502 5.196-.2 3.097.134 5.375.916 6.239.848.937 4.913.939 5.76.002zm26.182-.94c1.392-.323 3.008-1.954 4.093-4.132.619-1.243.67-1.699.474-4.286-.301-3.991-1.551-6.643-3.131-6.643-1.163 0-4.86 2.096-6.365 3.609-1.853 1.863-2.362 3.227-2.085 5.588.257 2.188.545 2.75 2.378 4.643 1.576 1.63 2.187 1.79 4.636 1.222zm-85.554-.384c1.253-.437 3.295-3.4 4.017-5.831.632-2.129.683-11.346.064-11.583-1.2-.46-10.159 5.85-10.896 7.676-.147.364-.21 2.03-.14 3.702.132 3.194.874 5.347 2.085 6.053.758.441 3.583.432 4.87-.017zm159.31-1.877c.234-4.14-2.765-10.387-4.693-9.775-1.064.338-1.42 2.102-1.25 6.215.084 2.046.315 4.122.515 4.614.358.883.392.892 2.845.8l2.483-.094zm-172.6-25.912c.804-.305.82-.375.82-3.456 0-2.018-.137-3.281-.384-3.528-1.103-1.103-5.22.192-8.04 2.529-1.607 1.331-1.943 2.243-1.35 3.663l.462 1.105h3.835c2.11 0 4.205-.14 4.657-.313zm-26.981-14.168c.113-1.184-.147-4.322-.416-5.026l-.31-.814-.937 1.045c-1.236 1.38-1.3 3.26-.15 4.41.843.843 1.75 1.036 1.813.385zM47.272 145.62c.188-.129.444-.507.566-.839.347-.938.86-9.593.586-9.868-.383-.384-4.758 1.944-5.652 3.006-1.38 1.64-1.068 3.6.957 6.033 1.473 1.77 2.612 2.306 3.543 1.668zm-17.656-12.786c1.854-.487 3.378-1.078 3.675-1.425.421-.492.49-1.338.408-4.988-.115-5.04-.46-7.288-1.254-8.17-.512-.57-.903-.608-4.877-.47-4.675.163-7.394.843-8.854 2.214-.681.64-.746.967-.742 3.766.004 3.142.403 5.172 1.515 7.709.813 1.853 1.22 2.168 2.967 2.296 2.233.164 3.74-.032 7.162-.932zm502.89 171.78l-.93-.93.192-4.11c.23-4.88 1.055-9.399 2.14-11.713a84.45 84.45 0 001.671-3.916c1.1-2.783 1.525-3.485 3.163-5.226 2.353-2.502 3.963-2.9 5.45-1.348.83.866.89 1.09.726 2.685-.18 1.75-.344 2.07-3.02 5.89-1.28 1.83-2.948 3.394-4.467 4.19-.992.52-1.308 1.88-1.548 6.652-.209 4.14-.2 4.21.526 4.72 1.35.945 3.328.668 5.638-.79 1.492-.944 2.168-1.211 2.419-.96.446.446-1.424 2.423-4.142 4.377-1.911 1.375-2.022 1.41-4.424 1.41-2.294 0-2.529-.064-3.394-.93zm6.164-17.55c1.635-1.744 2.834-5.151 2.167-6.16-.27-.408-.404-.367-.902.276-.78 1.005-2.61 5.292-2.61 6.113 0 .88.363.82 1.345-.229zM373 303.61c-.278-.45.62-1.767 1.678-2.461.723-.475 1.775-.582 6.589-.671 3.15-.059 6.082-.018 6.515.091 1.17.294.905 1.701-.5 2.645-1.044.7-1.351.73-7.582.73-4.166 0-6.567-.12-6.7-.334zM85.7 300.8c-.618-.683-.673-2.16-.118-3.145.632-1.122 3.449-3.958 6.752-6.8 3.203-2.755 3.716-3.375 3.716-4.49 0-.84-.104-.83-1.531.14-.936.636-1.575.8-3.119.8-1.084 0-2.111-.17-2.326-.384-.42-.42-.537-5.49-.169-7.33.405-2.027 5.814-6.183 7.302-5.612 1.28.49.198 2.095-2.189 3.245l-1.328.64-.184 5.92h1.106c1.206 0 1.255-.083 2.614-4.48 1.169-3.78 1.505-4.484 2.596-5.442 2.327-2.043 2.69-.954 1.848 5.55-.818 6.322-.899 5.83.938 5.712 2.153-.138 2.57.056 2.095.976-.56 1.084-1.92 2.115-3.098 2.35-1.019.202-2.315 1.436-2.315 2.202 0 .21-.808 1.594-1.795 3.077-1.933 2.902-5.19 6.461-6.589 7.2-1.254.66-3.554.59-4.206-.13zm6.183-4.169c1.185-1.246 2.567-3.777 2.567-4.701 0-.44-.123-.43-.99.076-1.398.815-4.008 3.438-4.217 4.238-.178.68.472 1.62 1.12 1.62.19 0 .874-.555 1.52-1.233zm430.81-6.36c-.534-.187-.504-.994.1-2.686 1.242-3.483 1.513-5.098 1.703-10.147l.197-5.227 1.066-.952c.646-.577 1.34-.913 1.76-.854.671.096.697.253.782 4.82.091 4.849-.245 7.188-1.428 9.923-.286.661-.436 1.288-.332 1.391.307.307 3.444-1.543 4.111-2.423 2.944-3.885 4.034-5.56 5.375-8.257.852-1.713 1.64-3.508 1.752-3.989.299-1.286 2.033-3.126 2.947-3.126.785 0 .885.207.773 1.6-.07.882-1.397 3.711-2.112 4.505-.25.278-.454.6-.454.716 0 .424-2.092 3.646-3.901 6.008-2.191 2.861-5.822 6.217-7.902 7.303-1.77.924-3.885 1.589-4.437 1.395zm-12.56-10.145c-3.46-1.553-6.192-3.103-7.36-4.174-1.656-1.518-13.553-7.007-17.64-8.138l-1.478-.41-1.525 1.63c-2.069 2.212-2.825 2.202-3.482-.05-.27-.923-.882-2.282-1.36-3.019l-.871-1.339-4.822-1.169c-5.278-1.28-12.282-3.55-15.542-5.037a450.676 450.676 0 01-6.4-3.033c-5.5-2.653-6.963-3.282-7.634-3.282-.297 0-.822.523-1.166 1.162-.971 1.802-3.808 3.958-5.209 3.958-1.852 0-3.759-1.12-4.802-2.822-1.234-2.014-1.334-2.448-1.662-7.258-.33-4.82-.817-6.676-1.79-6.815-.97-.139-1.328.945-1.571 4.766-.117 1.83-.454 4.037-.75 4.902-1.063 3.114-4.76 6.123-6.69 5.443-.93-.328-1.269-1.066-2.968-6.461-1.157-3.675-1.822-4.733-3.162-5.027-.525-.116-1.35-.74-1.931-1.465-.757-.942-1.25-1.263-1.935-1.263-1.246 0-1.938 1.203-3.184 5.54-1.26 4.386-1.83 5.483-3.8 7.326-3.394 3.175-5.957 2.097-6.624-2.786-.12-.88-.71-3.098-1.31-4.928-.601-1.83-1.092-3.507-1.092-3.725s-.273-.733-.606-1.144l-.605-.748-.542 1.272c-.297.7-.954 2.525-1.459 4.055-.505 1.53-1.27 3.33-1.7 4-1.51 2.355-5.501 5.538-6.943 5.538-1.74 0-3.193-2.586-3.866-6.88-.34-2.18-2.456-7.916-3.175-8.613-.516-.5-2.409 1.744-3.501 4.149-.839 1.847-2.487 3.664-3.324 3.664-.568 0-1.16-.68-1.16-1.333 0-.65-.915-1.227-1.943-1.227-.388 0-1.388-.42-2.221-.933-.834-.513-2.722-1.338-4.196-1.834-2.729-.918-8.417-3.708-13.37-6.558-2.912-1.675-11.369-6.035-11.706-6.035-.11 0-.488.653-.842 1.452-1.25 2.827-3.941 5.121-4.988 4.252-1.133-.94-2.97-6.579-2.978-9.14-.006-1.828.018-1.792-2.395-3.613-2.783-2.099-4.032-2.89-8.32-5.275-4.063-2.259-5.183-3.07-9.28-6.72-1.408-1.253-3.641-3.073-4.961-4.042-3.006-2.206-3.52-2.72-3.52-3.522 0-.846 1.69-2.512 2.547-2.512.76 0 6.516 4.266 9.487 7.032 3.038 2.829 5.452 4.563 8.927 6.415 3.064 1.633 6.72 3.994 9.726 6.282 1.556 1.185 2.376 1.304 4.083.59 1.375-.574 4.627-.634 5.167-.095.603.603.454 1.56-.447 2.86-.457.659-.73 1.36-.608 1.558.122.198 2.044 1.264 4.27 2.37 3.95 1.962 8.497 4.4 12.368 6.635 2.734 1.577 6.253 3.21 10.277 4.77 1.916.743 3.656 1.486 3.866 1.651.21.165 1.132.498 2.05.74 1.953.516 2.495.319 3.47-1.26.374-.605 1.556-1.91 2.626-2.902 1.614-1.493 2.114-1.784 2.929-1.704.79.079 1.157.396 1.872 1.615 1.107 1.89 2.674 6.481 3.104 9.095.485 2.947 1.553 5.228 2.447 5.228.909 0 1.38-.566 1.92-2.305 2.582-8.309 4.241-11.523 6.75-13.073 1.568-.97 2.337-.721 3.406 1.102.896 1.528 3.1 8.767 3.785 12.436.268 1.435.472 1.84.923 1.84.65 0 1.026-.804 1.751-3.76.46-1.871.835-2.719 2.445-5.52.832-1.449 3.305-3.686 4.96-4.489 2.081-1.009 3.07-.848 4.483.73.67.747 1.796 1.647 2.503 2 1.498.745 2.608 2.701 3.723 6.56 1.415 4.892 1.311 4.654 1.765 4.034.23-.314.5-2.048.62-3.976.282-4.543 1.056-6.91 2.811-8.6 1.8-1.734 2.434-2.019 4.484-2.019 2.875 0 3.333.97 3.747 7.935.307 5.175.932 6.967 2.9 8.314 1.63 1.115 1.973.543 2.157-3.59l.15-3.374 1.37-1.263c.873-.805 1.815-1.341 2.598-1.481.676-.12 3.1-.724 5.389-1.341 2.288-.618 5.76-1.458 7.716-1.868s5.052-1.263 6.88-1.896c1.828-.634 4.67-1.487 6.316-1.897 3.373-.84 4.142-1.345 3.599-2.36-.193-.361-.351-1.192-.351-1.847 0-.975.234-1.414 1.293-2.421.712-.677 1.558-1.23 1.881-1.23.877 0 2.628.8 4.888 2.233 1.11.704 2.18 1.282 2.376 1.283.198.002 1.35-.41 2.56-.916 2.675-1.116 11.268-3.892 12.03-3.885.302.003 1.31-.303 2.24-.678 3.167-1.276 4.889-1.917 7.612-2.832 1.496-.502 3.72-1.276 4.943-1.72 2.374-.86 2.737-.842 2.737.131 0 .7-2.231 2.456-3.5 2.754-.451.106-2.404.805-4.34 1.554-5.086 1.967-9.84 3.608-12.587 4.344-1.317.353-2.984.904-3.704 1.224-.72.32-1.679.67-2.132.777s-1.455.954-2.23 1.882c-2.325 2.792-6.808 7.312-7.73 7.795-1.482.777-1.784.578-2.966-1.947-.885-1.89-1.27-2.4-1.81-2.4-1.077 0-7.707 1.815-12.36 3.383-2.333.786-4.925 1.51-5.76 1.609-2.3.271-12.88 3.406-12.88 3.816 0 .337 4.645 2.659 6.4 3.198.44.136 2.24.984 4 1.886 4.413 2.262 9.01 4.246 12.778 5.515 3.187 1.073 11.887 3.313 12.868 3.313.287 0 1.187-.397 1.998-.884 2.837-1.7 9.293-4.633 9.782-4.445.874.335.53 1.22-1.026 2.646-3.261 2.988-3.92 3.705-3.92 4.265 0 .825.472 1.121 3.36 2.103 2.315.788 8.803 3.614 14.24 6.203 1.144.545 2.695 1.505 3.446 2.133.752.628 3.291 2.065 5.643 3.194 2.352 1.128 4.357 2.261 4.456 2.518.23.599-.858 1.984-2.038 2.594-.504.26-.959.461-1.011.447-.053-.015-1.464-.641-3.136-1.392zm-29.29-42.73l.91-.95-.918-.348c-1.82-.692-2.853.128-2.05 1.628.46.86 1 .774 2.058-.33zm41.345 27.885c-1.131-.219-.449-1.901 1.18-2.907 1.015-.628 1.549-.67 8.723-.688 4.203-.01 8.362-.153 9.242-.317 4.83-.898 5.844-.732 4.844.794-.936 1.43-2.43 2.035-6.286 2.547-3.233.429-16.266.85-17.703.571zm-218.21-10.988c-1.607-.444-2.802-1.9-2.802-3.414 0-.647.28-2.156.622-3.354.343-1.198.547-2.375.455-2.617-.093-.241-.77-.629-1.503-.861-.918-.29-1.363-.625-1.427-1.07-.129-.898 1.505-2.379 2.806-2.543 1.279-.162 1.395-.285 1.876-1.975.415-1.462 2.475-3.712 3.25-3.55.63.13.55 1.785-.193 3.973-.819 2.41-.512 2.663 3.234 2.663 3.48 0 4.092.35 3.013 1.721-1.053 1.339-2.267 1.799-4.75 1.799-2.023 0-2.3.077-2.753.77-.342.522-.474 1.323-.408 2.478.133 2.321.827 2.661 5.378 2.633 2.816-.017 3.609-.14 4.9-.755 1.716-.82 2.443-.58 1.655.543-.263.376-1.522 1.378-2.797 2.227l-2.318 1.544-3.52.06c-1.936.033-4.06-.09-4.718-.272zm6.287-24.565c-4.645-.189-5.57-.456-5.57-1.607 0-.596 1.015-1.637 2.183-2.24.548-.283 1.002-.293 1.728-.04.542.189 2.44.358 4.218.375 4.857.048 6.722.329 6.857 1.032.23 1.21-2.043 2.816-3.85 2.72-.58-.03-3.085-.138-5.566-.24zm96.398-3.123c-.218-.218-.005-10.912.279-14.05.135-1.494.08-1.66-.65-1.993-1.136-.518-.996-1.072.657-2.595 1.243-1.146 1.624-1.325 2.64-1.24l1.187.098.048 5.541c.026 3.048.126 5.62.223 5.717.096.096.754-.741 1.462-1.861l3.296-5.224c3.917-6.21 6.389-7.602 7.127-4.013.127.616.491 1.912.81 2.88s.68 2.45.804 3.294c.135.915.372 1.487.588 1.418.199-.064.937-1.174 1.64-2.467 1.23-2.26 4.244-5.765 4.957-5.765.878 0 .62 1.124-.717 3.128-.79 1.183-1.525 2.44-1.634 2.793-.109.352-1.048 2.584-2.087 4.96-2.585 5.91-4.957 8.45-5.806 6.218-.171-.451-.312-1.927-.312-3.28 0-2.6-1.224-8.458-1.905-9.125-.294-.287-.568-.15-1.18.586-.438.528-.93 1.248-1.095 1.6-.353.757-.48.958-3.18 5.034-1.144 1.726-2.443 3.845-2.887 4.707-.964 1.873-1.77 2.809-2.936 3.412-.996.515-1.035.522-1.33.227zm122.88-.414c-5.304-.433-5.734-.97-5.903-7.366-.131-4.938.318-7.507 1.896-10.847a59.89 59.89 0 001.636-3.843c.69-1.853 1.39-3.157 1.99-3.71.191-.177.834-.943 1.428-1.704 1.082-1.385 3.281-3.215 6.03-5.017 1.277-.837 1.831-.98 4.341-1.12 2.764-.153 2.882-.19 2.997-.951.15-.997 1.56-2.518 2.84-3.066.537-.23 2.193-.508 3.68-.617 4.31-.315 5.42.691 3.324 3.012l-1.177 1.302h-8.577l.246.88c.53 1.895.25 3.406-1.173 6.32-1.678 3.439-3.002 5.262-6.195 8.525-2.437 2.49-6.862 6.035-7.535 6.035-.605 0-.425-.749.384-1.603.415-.438 1.723-1.589 2.906-2.557 2.356-1.927 5.861-6.38 6.936-8.81.376-.849.701-2.274.723-3.167l.04-1.623-1.917-.098c-2.292-.117-4.16.673-5.35 2.264-1.301 1.74-4.115 7.935-4.757 10.474-.784 3.104-.878 11.045-.147 12.458.572 1.108.94 1.2 5.77 1.463l3.84.208 1.572-1.318c1.596-1.339 2.378-1.362 1.964-.059-.266.84-2.929 3.48-4.147 4.113-1.18.614-3.645.749-7.665.42zm-93.377-13.026c-.822-.073-1.667-.34-1.876-.592-1.05-1.266 1.304-3.604 3.927-3.9 1.632-.184 7.111.437 7.985.905.963.515.573 1.592-.968 2.674-1.3.912-1.58.975-4.48 1.009-1.702.02-3.766-.024-4.588-.097zm-143.31-14.176c0-.72 2.798-2.963 8-6.412 5.688-3.773 10.808-7.658 15.477-11.747 1.56-1.367 3.16-2.701 3.556-2.965.901-.602 3.366-3.24 3.366-3.602 0-.148-1.08-.783-2.4-1.41-2.797-1.328-2.98-1.824-1.208-3.284 1.522-1.254 2.806-1.485 4.941-.888 3.99 1.117 4.813 1.017 6.89-.83 1.378-1.224 1.875-1.508 6.337-3.619 1.76-.832 3.596-1.787 4.08-2.122.484-.335 1.996-1.193 3.36-1.906 1.364-.713 2.984-1.689 3.6-2.168.616-.48 3.136-2.07 5.6-3.535 2.464-1.465 5.2-3.267 6.08-4.004 3.936-3.3 5.747-4.632 6.292-4.632.324 0 .588.165.588.366 0 .428-2.488 2.896-4.309 4.274a69.754 69.754 0 00-2.24 1.775c-2.036 1.708-5.53 4.078-7.482 5.074-1.117.57-3.026 1.747-4.241 2.614-1.216.867-2.277 1.577-2.358 1.577-.081 0-1.628.89-3.438 1.976-1.81 1.087-4.522 2.585-6.028 3.329-2.13 1.052-2.93 1.642-3.6 2.657-.475.717-.864 1.478-.864 1.69 0 .213-.888 1.209-1.974 2.214l-1.975 1.827-.193 2.625c-.185 2.528-.237 2.665-1.402 3.733-.776.711-1.462 1.073-1.913 1.009-.668-.095-.703-.252-.703-3.193 0-1.701-.099-3.192-.219-3.312-.12-.121-.912.412-1.76 1.184-2.474 2.255-8.059 7.071-9.208 7.94-.58.44-2.682 2.081-4.67 3.646-3.581 2.819-12.186 8.81-14.158 9.86-1.173.623-1.825.716-1.825.259zm-74.96-20.156c-1.013-.8-1.17-2.149-.388-3.342.689-1.052 3.747-3.38 6.308-4.802 1.188-.66 2.16-1.33 2.16-1.492 0-.16-.653-.292-1.45-.292-1.525 0-3.637-.715-4.054-1.373-.454-.713-.28-4.72.253-5.844.659-1.388 3.723-3.908 5.057-4.158 1.647-.31 3.215-.056 3.327.538.169.89-1.297 2.215-3.137 2.836-1.72.58-1.759.62-1.856 1.92-.055.73.063 1.524.262 1.764.46.554 2.03.906 2.864.641.65-.206 1.668-2.15 2.243-4.285.384-1.427 2.567-3.668 3.415-3.506 1.217.232.901 1.953-1.192 6.507-.485 1.056-.986 2.335-1.113 2.843-.226.906-.21.919.855.72 3.526-.655 3.485-.656 3.485.093 0 1.117-1.808 2.515-3.785 2.926-1.902.395-3.081 1.363-3.41 2.803-.288 1.257-1.715 3.175-3.46 4.65-1.368 1.155-1.753 1.31-3.52 1.422-1.669.105-2.125.014-2.865-.57zm5.925-3.448c.278-.308.604-.956.724-1.44.286-1.146-.363-1.17-2.096-.076-1.198.757-1.55 1.373-1.06 1.862.42.42 1.937.204 2.432-.346zm98.434-11.961c-.724-.725-.728-1.21-.078-9.142l.19-2.303-1.873-.097c-1.504-.078-1.893-.21-1.982-.674-.169-.89 1.907-2.657 3.402-2.896 1.466-.235 1.754-.697 3.14-5.03.688-2.15 1.144-2.98 2.241-4.088 1.368-1.38 2.111-1.579 2.299-.612.054.277-.568 2.408-1.382 4.735-.985 2.816-1.373 4.338-1.16 4.55.175.177 1.557.296 3.07.266 5.476-.108 6.34.715 3.25 3.1-.788.608-1.323.712-3.68.717-1.515.003-2.933.117-3.15.255-.58.368-1.211 6.643-.767 7.618.518 1.136 1.88.997 3.678-.375 1.527-1.166 2.123-1.205 2.123-.14 0 .777-2.778 3.563-4.248 4.261-1.652.784-4.217.71-5.073-.145zm77.726-7.07c-.392-.296-.568-.986-.634-2.49l-.091-2.08-1.28-.087c-.704-.048-2.76-.3-4.57-.56-1.81-.26-5.381-.472-7.938-.472s-5.685-.145-6.95-.322c-6.61-.925-9.264-1.44-9.413-1.828-.254-.661.72-1.866 2.002-2.474 1.1-.522 1.373-.526 4.104-.062 5.275.898 8.24 1.166 12.922 1.166 2.538 0 5.973.16 7.633.356 3.586.423 3.97.248 3.97-1.798 0-1.185.168-1.515 1.281-2.521.705-.637 1.615-1.157 2.023-1.157 1 0 2.762 1.395 4.382 3.469 1.896 2.426 2.745 2.706 7.657 2.518 2.21-.084 5.89-.4 8.177-.703 3.371-.446 5.642-.517 11.968-.373 4.396.1 7.945.314 8.121.49.505.504-.03 1.905-.96 2.515-.777.509-1.86.564-11.115.564-8.584 0-10.645.09-12.654.553-1.947.45-5.628.826-8.64.884-.264.005-1.344.667-2.4 1.47-3.137 2.387-6.568 3.716-7.595 2.942zm4.763-3.788c.713-.27.797-.397.421-.635-.815-.516-1.59-.353-1.59.334 0 .744.004.745 1.17.301zm-37.328-10.036c0-1.13 6.747-8.186 7.827-8.186.954 0 .471.885-1.85 3.39a385.497 385.497 0 00-3.556 3.89c-1.196 1.338-2.42 1.797-2.42.906zm-280-8.497c-1.329-2.633-1.308-4.286.076-6.028 1.792-2.256 5.59-5.121 9.2-6.939.968-.487 1.865-1.047 1.995-1.244.347-.529.295-2.118-.07-2.118-.173 0-1.419.792-2.768 1.76-2.435 1.748-2.47 1.76-4.782 1.76-2.135 0-2.384-.07-2.992-.843-.54-.687-.663-1.3-.663-3.302 0-1.352.221-3.204.491-4.115 1.049-3.53 7.829-8.313 7.829-5.522 0 .815-1.083 1.823-2.753 2.563-1.042.461-1.354.795-1.52 1.62-.347 1.737-.237 5.281.177 5.695.603.604 3.331.46 4.718-.247.68-.347 1.555-1.03 1.943-1.52.656-.826.692-1.107.5-3.958l-.208-3.069 1.444-1.33c1.654-1.525 2.81-1.712 4.135-.669 1.165.916 1.153 2.76-.028 4.75-.651 1.095-.924 2.076-1.075 3.867-.111 1.32-.259 2.616-.328 2.88-.09.342.178.51.933.582.582.056 1.133.296 1.224.534.291.759-.824 1.998-2.415 2.682-1.132.487-1.655.937-1.968 1.691-.464 1.121-4.865 7.137-6.489 8.87-1.733 1.851-4.075 3.561-4.875 3.561-.615 0-.956-.376-1.73-1.91zm6.816-4.995c2.617-3.426 3.673-5.574 2.74-5.574-.532 0-4.123 1.862-5.283 2.738-.55.416-1.097 1.136-1.213 1.6-.271 1.079.665 4.392 1.19 4.218.213-.07 1.367-1.412 2.566-2.982zm287.26 1.377c0-1.315 6.223-8.23 7.408-8.23 1.04 0 .445 1.105-2.354 4.377-3.143 3.674-5.054 5.131-5.054 3.853zm12.34-11.717c-.412-.668 7.667-7.355 8.22-6.802.49.49-.237 1.459-2.393 3.19a113.795 113.795 0 00-3.287 2.743c-1.26 1.112-2.192 1.432-2.54.87zm66.386-8.391c-1.473-.588-1.927-1.25-1.926-2.813 0-1.756 1.233-4.521 3.14-7.043.722-.953 1.237-1.853 1.147-2-.28-.453-1.833-.298-3.849.383-1.36.46-2.337 1.07-3.329 2.08-1.186 1.21-2.55 1.88-2.55 1.254 0-1.057 3.536-4.76 5.53-5.79 1.6-.828 5.229-1.714 7.026-1.716.927-.001 2.845-.092 4.263-.203 2.408-.187 2.613-.261 3.104-1.116.319-.556 1.253-1.264 2.381-1.805l1.856-.891-.105-1.767c-.104-1.741-.083-1.788 1.375-3.133 2.208-2.035 2.55-1.795 2.663 1.863.051 1.66.249 3.207.44 3.437.234.282 1.215.417 3.037.417 2.196 0 2.727.096 2.891.523.503 1.31-1.546 2.785-4.164 2.997l-1.977.16-.1 1.597c-.162 2.56-2.49 5.04-3.75 3.994-.4-.331-.491-.948-.426-2.855.045-1.339-.026-2.61-.16-2.825-.136-.221-.915-.391-1.79-.391-1.428 0-1.602.087-2.201 1.103-.908 1.539-2.772 2.417-5.131 2.417-1.72 0-1.982.092-2.707.953-.441.524-1.254 1.91-1.806 3.078-1.731 3.665-.986 5.065 2.58 4.845 1.235-.076 2.067-.328 2.684-.813 1.012-.796 2.087-.926 2.087-.253 0 .591-2.995 3.273-4.53 4.056-1.318.672-4.323.807-5.703.257zm-102.58-1.263c-.116-.188.082-1.16.44-2.16.633-1.773 1.067-5.657 1.506-13.5.103-1.848.335-3.928.516-4.621.389-1.496 2.152-3.38 3.163-3.38.683 0 .707.087.512 1.84-.113 1.013-.35 4.147-.528 6.966-.597 9.464-1.462 12.75-3.785 14.36-1.348.933-1.524.98-1.824.495zm11.498-.114c-.1-.262.1-2.463.444-4.891s.558-4.595.474-4.815c-.105-.276-.986-.4-2.848-.4-2.2 0-2.733-.096-2.897-.524-.264-.687.2-1.392 1.498-2.276.816-.556 1.511-.72 3.04-.72 2.46 0 2.82-.344 3.516-3.361.52-2.247 1.356-3.585 2.687-4.298 1.55-.83 1.677.275.501 4.333-.774 2.67-.788 2.85-.259 3.236.308.225.812.41 1.12.41 1.534 0 .946 1.551-1.184 3.13-1.022.757-1.418 1.275-1.418 1.853 0 .442-.228 1.914-.507 3.27-.553 2.69-1.484 4.236-3.035 5.038-.837.433-.971.435-1.132.015zm36.676-2.506c.003-.398 4.433-4.361 6.84-6.119 1.275-.93 3.068-1.288 3.293-.655.211.596-1.125 1.978-2.89 2.988-.935.535-2.679 1.695-3.876 2.579-2.123 1.567-3.37 2.014-3.367 1.207zm133.76-10.504c-1.672-.863-3.688-1.805-4.48-2.093-2.306-.838-8.712-3.325-9.76-3.788a18.166 18.166 0 00-1.76-.662c-1.47-.438-5.245-2.279-8.73-4.258-3.5-1.988-7.346-3.79-9.67-4.53-1.962-.624-8.97-3.499-10.488-4.302-.744-.393-1.4-.966-1.46-1.273-.141-.729.803-1.767 2.11-2.32.957-.405 1.17-.374 2.658.38.89.45 2.725 1.229 4.078 1.73 6.896 2.552 12.491 4.895 14.184 5.94 2.598 1.603 8.234 4.368 11.318 5.553 1.408.54 3.712 1.435 5.12 1.988 1.408.552 3.496 1.36 4.64 1.794 1.144.434 3.556 1.5 5.36 2.37 2.432 1.171 3.28 1.735 3.28 2.18 0 .662-2.327 2.93-2.96 2.887-.22-.015-1.768-.734-3.44-1.596zm-121.39 1.09c-.41-.409-.205-1.553.448-2.506.852-1.244 3.02-5.798 3.438-7.217.178-.607.68-1.967 1.116-3.023 2.703-6.546 3.125-7.694 3.04-8.268-.068-.454-.83-.963-2.656-1.773-1.408-.625-2.656-1.274-2.773-1.444-.326-.47 1.231-2.314 2.438-2.886.59-.28 1.65-.51 2.357-.51 1.105 0 1.415-.167 2.22-1.2 1.493-1.917 1.916-2.879 3.131-7.12 1.223-4.265 3.119-10.228 5.239-16.48a283.956 283.956 0 002.437-7.602c.814-2.7 1.412-4.077 2.116-4.88.961-1.094 1.962-1.434 2.355-.798.255.413-1.932 9.001-2.77 10.88-1.03 2.306-2.064 5.313-3.292 9.561a272.801 272.801 0 01-2.364 7.68l-1.22 3.72.24 3.68c.133 2.024.252 4.857.264 6.295.02 2.372-.056 2.709-.816 3.612-1.073 1.275-2.465 2.022-2.92 1.566-.779-.778-1.424-.008-2.964 3.536-.872 2.007-1.674 3.95-1.783 4.32-.109.369-.704 1.867-1.322 3.328-.619 1.462-1.06 2.722-.981 2.801.126.126 4.678-1.647 7.467-2.907.538-.243 2.87-.955 5.183-1.582s5.833-1.83 7.822-2.675c1.99-.844 4.696-1.925 6.016-2.4 2.488-.898 3.19-1.443 6.821-5.285 1.024-1.083 2.069-1.97 2.323-1.97.255 0 .792.685 1.194 1.52.677 1.41.812 1.516 1.837 1.457 1.153-.067 5.037-1.345 11.026-3.628 1.936-.737 4.6-1.748 5.92-2.246 1.32-.497 4.632-1.564 7.36-2.37a587.822 587.822 0 005.942-1.779c1.446-.46 2.059-.387 2.047.247-.023 1.289-2.185 2.765-4.813 3.288-.955.19-2.6.694-3.656 1.12s-4.008 1.407-6.56 2.177-6.368 2.133-8.48 3.026c-2.112.894-4.776 1.876-5.92 2.181s-2.214.672-2.376.814c-.175.152.072 1.009.603 2.094.816 1.666.858 1.91.45 2.637-.247.44-1.024 1.205-1.727 1.699-1.244.874-1.314.886-2.714.44-.79-.253-3.408-.924-5.817-1.494l-4.38-1.035-2.66 1.125c-1.463.618-3.74 1.52-5.06 2.005s-3.047 1.139-3.84 1.454c-.791.316-2.342.807-3.446 1.092-5.023 1.297-11.84 3.95-13.296 5.174-.888.747-1.82.975-2.244.55zm147.2-2.88c-.41-.41-.208-1.742.463-3.058.607-1.19.663-1.733.546-5.27-.104-3.122-.242-4.055-.662-4.475-.493-.494-.605-.477-1.62.243-3.37 2.39-4.478 3.39-5.237 4.729-1.933 3.407-3.847 6.1-4.806 6.76-2.154 1.482-2.218-.41-.136-4.015 1.812-3.14 2.545-5.333 4.04-12.084.481-2.178.725-2.669 1.87-3.77 2.297-2.207 2.992-1.161 1.804 2.713-.384 1.255-.9 2.919-1.147 3.698-.49 1.546-.587 2.907-.208 2.896.132-.004 1.032-.725 2-1.601 2.11-1.912 4.715-3.28 5.97-3.136 1.384.159 1.81 1.413 1.971 5.814.128 3.465.076 3.927-.606 5.381-.756 1.614-.704 1.866.467 2.278.573.201-.203 1.542-1.34 2.315-1.1.748-2.894 1.058-3.37.582zm15.03-1.084c-.794-.63-1.047-.679-1.92-.372-.926.326-3.026.484-5.556.417-.726-.02-1.186-.262-1.55-.816-.476-.728-.474-.92.028-2.48 1.362-4.23 2.77-6.127 6.227-8.386 1.629-1.064 1.928-1.145 4.229-1.145 2.164 0 2.52.082 2.825.652.391.73.195 2.71-.54 5.452-.56 2.086-.474 3.656.2 3.656.31 0 .588-.595.826-1.76.197-.968.677-2.379 1.067-3.135 1.463-2.839 4.824-5.822 6.568-5.83.546-.003 1.168-.117 1.383-.253.509-.324 1.263-2.483 1.548-4.436.51-3.48 2.57-6.826 4.204-6.826.406 0 .74.108.742.24.006.337-1.221 5.329-1.83 7.44-.676 2.348-1.062 5.203-1.264 9.334-.158 3.241-.132 3.432.515 3.778.375.2 1.212.32 1.86.266 1.104-.092 1.194-.181 1.4-1.378.446-2.608 1.536-4.862 3.009-6.22 1.877-1.73 2.522-1.94 5.947-1.94 3.446 0 4.257.305 3.753 1.412-.72 1.58-2.136 2.255-4.997 2.379-2.987.13-2.647-.247-3.401 3.771-.459 2.446-.86 3.221-2.231 4.3-.684.537-1.115.638-2.01.47-.866-.162-1.294-.074-1.782.367-.948.857-3.785.77-5.037-.156-1.123-.831-1.708-.884-2.271-.206-.962 1.159-1.364 1.247-8.786 1.926-2.017.184-2.33.132-3.155-.52zm-1.577-3.38c.432-.116.825-.58 1.011-1.196.489-1.612.707-3.673.41-3.857-.152-.094-1.033-.08-1.959.03-1.653.195-1.697.228-2.443 1.83-.842 1.81-.972 2.934-.365 3.179.568.23 2.512.237 3.346.014zm12.711-.305c.277-.277.503-.76.503-1.073 0-.313.367-1.26.816-2.105.45-.845.774-1.91.72-2.368-.09-.772-.211-.831-1.696-.831-1.517 0-1.63.059-2.159 1.142-.307.628-.652 2.03-.765 3.114-.195 1.869-.166 1.987.559 2.277 1.097.439 1.455.411 2.022-.156zm-208.29 3.713c-.105-.171-.248-1.2-.317-2.288-.07-1.098-.323-2.173-.57-2.42-.243-.243-1.197-.562-2.12-.708-.923-.146-1.826-.414-2.008-.595-.77-.77 1.651-3.137 3.409-3.333.919-.102.967-.184 1.122-1.923.173-1.944.93-3.094 2.618-3.971 1.672-.87 2.587.445 1.902 2.734-.481 1.606-.46 4.014.038 4.426.22.182.83.38 1.357.44 1.446.163 1.399 1.05-.131 2.448-.95.868-1.306 1.445-1.306 2.116 0 1.652-3.302 4.193-3.994 3.074zm224.32-.321c-.106-.17.012-.71.262-1.2.256-.501.385-1.35.295-1.943-.14-.924.01-1.211 1.223-2.33 1.958-1.808 2.733-1.93 3.906-.618.843.944.922 1.21.748 2.528-.154 1.17-.455 1.72-1.465 2.674-1.15 1.086-1.436 1.2-3.024 1.2-.964 0-1.84-.14-1.945-.311zm-109.29-20.837c-1.32-.16-2.868-.29-3.44-.291-.883-.001-1.04-.117-1.04-.767 0-.421.21-.846.466-.944.256-.099.746-.726 1.09-1.395.813-1.58 2.13-2.81 3.718-3.473.701-.293 1.853-1.129 2.56-1.857.707-.73 2.366-2.086 3.686-3.016 5.264-3.71 6.929-4.96 8.033-6.03.635-.615 1.847-1.577 2.694-2.139.847-.561 1.645-1.236 1.774-1.5.375-.767 2.124-4.908 2.319-5.49.232-.693 3.956-3.79 4.557-3.79.31 0 .463.347.463 1.056 0 2.65 1.596 2.415 6.932-1.02 1.26-.812 3.349-2.15 4.64-2.975 1.291-.825 2.817-1.904 3.39-2.4s2.284-1.91 3.803-3.141c1.519-1.232 4.423-3.866 6.455-5.853 3.541-3.463 4.845-4.25 4.592-2.775-.11.641-5.709 6.364-7.732 7.902a50.866 50.866 0 00-2.56 2.144c-.792.71-1.557 1.294-1.7 1.297-.142.003-1.006.705-1.92 1.56-.913.857-3.028 2.455-4.7 3.552s-3.256 2.179-3.52 2.403-1.344.878-2.4 1.452-1.984 1.1-2.062 1.17c-.078.069-.108.708-.066 1.42.067 1.129-.074 1.433-1.097 2.37-1.398 1.28-3.602 2.207-6.8 2.857-2.747.558-3.734 1.15-9.015 5.41-2.148 1.731-4.722 3.675-5.72 4.32-.997.644-2.603 2.017-3.567 3.051l-1.753 1.88 1.12-.24c2.053-.442 6.215-2.106 8.37-3.347 1.172-.675 3.836-1.91 5.92-2.747 2.085-.836 3.934-1.626 4.11-1.757.515-.381 5.116-2.16 6.62-2.56.759-.202 3.108-1.206 5.22-2.232 4.91-2.384 6.66-3.06 10.4-4.014 3.747-.956 3.84-.957 3.84-.039 0 1.573-2.227 2.842-6.264 3.568-3.032.545-4.523 1.073-6.87 2.432-1.714.992-8.695 3.884-15.506 6.423-2.334.87-10.067 4.439-12 5.538-.44.25-.728.547-.64.66.193.247 8.135.232 25.991-.052 12.361-.196 13.367-.172 13.56.33.237.619-.58 1.655-1.79 2.268-.53.27-3.127.475-7.68.608-12.504.366-34.04.468-36.48.173zm-98.702-3.243c-.641-.916-.643-3.443-.003-4.98.272-.654 1.091-1.798 1.82-2.543.729-.744 1.24-1.438 1.137-1.541s-.918.181-1.81.633c-2.664 1.35-3.702.94-2.26-.894.788-1.002 4.577-2.857 6.95-3.404 1.759-.405 4.386-.205 5.108.389.812.668.425 1.774-1.085 3.104-1.335 1.174-1.655 1.307-3.165 1.307-1.122 0-1.908.185-2.37.56-.858.695-1.364 2.75-.947 3.847.3.787.358.8 2.856.628 2.297-.157 2.551-.118 2.551.394 0 .313-.645 1.164-1.433 1.89l-1.433 1.32h-2.709c-2.436 0-2.759-.07-3.207-.71zm-11.378-8.262c0-.359.324-1.259.72-2 .683-1.277.725-1.766.824-9.435l.105-8.089 1.159-1.125c.715-.695 1.41-1.09 1.815-1.032.637.09.66.312.745 7.134.05 4.052-.054 7.705-.247 8.607-.64 3 .744 2.26 1.968-1.053.467-1.263 1.1-2.827 1.408-3.476.308-.648.793-2.566 1.077-4.26.548-3.266 1.535-5.143 2.938-5.588 1.201-.382 1.384.225 1.001 3.332-.283 2.298-.688 3.621-2.053 6.7-1.965 4.433-3.069 5.796-7.17 8.853-2.907 2.168-4.29 2.63-4.29 1.432zm147.08-29.889c-.856-.23-1.692-.616-1.858-.858-.46-.674-.047-4.28.68-5.924.357-.806 1.091-1.97 1.631-2.585s.938-1.16.883-1.211c-.22-.204-4.343 1.035-5.556 1.669-1.649.863-5.63 1.69-8.13 1.69-1.837 0-1.934-.039-1.934-.78 0-.43.14-.868.312-.974.696-.43 1.608-4.42 1.608-7.032 0-3.243.37-4.372 1.792-5.456 1.885-1.438 2.194-1.103 2.3 2.484.083 2.846.007 3.325-.892 5.57-.661 1.65-.87 2.527-.635 2.671.412.255 3.285-.16 5.013-.724 1.192-.389 1.25-.481 2.365-3.759 1.791-5.262 3.135-7.36 4.714-7.36.654 0 .745.115.571.72-.113.396-.43 1.584-.703 2.64a53.219 53.219 0 01-1.156 3.768c-.363 1.016-.574 1.934-.468 2.04.106.106.791-.047 1.523-.34 1.802-.72 5.464-1.468 7.197-1.468 1.099 0 1.42.118 1.42.523 0 .817-2.005 2.503-3.722 3.13-4.04 1.473-4.386 1.823-4.842 4.915-.21 1.429-.19 2.153.07 2.51.492.671 3.149 1.152 4.188.757 1.106-.42 1.406.408.56 1.55-1.623 2.191-3.628 2.722-6.93 1.834zM532.682 5.48c-.95-.275-3.94-.551-7.36-.68-5.612-.212-5.762-.235-5.86-.92-.074-.519.256-.962 1.248-1.68l1.348-.977h4.71c2.984 0 5.752.191 7.552.522 1.563.287 3.418.611 4.122.72 1.869.288 1.92 1.286.132 2.581-1.538 1.114-3.135 1.232-5.892.434z"/></svg>