<svg viewBox="0 0 453.12 190.08" xmlns="http://www.w3.org/2000/svg"><path d="M262.71 187.83c-1.944-.989-3.402-1.968-3.908-2.624-2.89-3.748-6.204-8.39-6.73-9.426-1.165-2.295-3.834-6.979-4.524-7.94-.38-.528-1.447-2.4-2.372-4.16-1.943-3.695-4.427-7.52-4.884-7.52-.173 0-1.27.627-2.438 1.393-4.61 3.024-10.555 6.868-12.683 8.201-5.081 3.183-6.002 3.756-8.494 5.286-1.433.88-3.06 1.91-3.616 2.287-6.551 4.457-15.475 8.748-21.65 10.41-5.762 1.55-6.21 1.614-11.36 1.63-6.066.018-8.211-.361-9.895-1.75l-1.217-1.002.169-7.547c.169-7.558.22-7.957 1.665-12.827.287-.968.88-3.344 1.317-5.28.438-1.936.924-3.808 1.08-4.16.156-.352.425-1.288.598-2.08 1.039-4.76 3.062-9.108 6.086-13.081a648.183 648.183 0 008.997-12.107c1.496-2.065 3.692-4.866 4.88-6.224s2.16-2.67 2.16-2.915-.684-.937-1.52-1.537-2.503-1.956-3.706-3.014-2.803-2.427-3.558-3.043-2.033-1.672-2.84-2.347l-1.468-1.227-1.084.827c-.887.676-1.433.827-2.998.827-1.416 0-2.046-.146-2.422-.56-.28-.308-1.095-1.176-1.812-1.929-.717-.752-1.397-1.738-1.51-2.191-.114-.453-.137-2.522-.052-4.599l.156-3.775-1.564-2.993c-2.386-4.568-3.248-8.241-3.382-14.414-.106-4.818-.078-5.083.68-6.56 1.116-2.177 3.924-4.803 8.52-7.969 2.897-1.994 3.375-2.13 9.638-2.723 5.222-.495 6.387-.714 9.44-1.774l3.482-1.209 13.12-.151-.058-2.017c-.033-1.109-.2-2.52-.371-3.136a45.866 45.866 0 01-.632-2.72 178.46 178.46 0 00-.829-3.84c-.28-1.232-.51-3.567-.51-5.189 0-2.54.082-2.992.591-3.265.5-.268.62-.855.776-3.813.101-1.923.333-4.054.514-4.735.182-.681.572-2.318.867-3.638.582-2.601 2.518-8.628 3.186-9.92.631-1.218 3.015-3.368 4.626-4.172.792-.395 2.232-1.33 3.2-2.078 2.9-2.242 3.366-2.39 7.525-2.39h3.717l2.73 1.44c1.501.792 3.152 1.44 3.67 1.44 1.657 0 3.87 1.462 7.47 4.933a584.993 584.993 0 003.528 3.387c.008 0 .288-.508.622-1.128 1.223-2.27 3.701-2.958 6.578-1.824 3.915 1.542 4.854 2.569 5.43 5.928.472 2.767.293 4.186-.724 5.708-.96 1.436-2.56 2.195-4.636 2.195-2.032 0-2.28.383-1.377 2.118.985 1.89 3.163 7.264 4.385 10.822.601 1.748 1.157 3.243 1.237 3.323.142.141 3.238-.892 5.125-1.711 2.087-.907 5.032-1.76 7.73-2.242 1.556-.278 3.91-.718 5.23-.976a919.03 919.03 0 014.96-.955c2.924-.554 5.308-1.13 7.84-1.897 3.683-1.114 4.867-1.192 15.68-1.022 8.865.139 11.025.263 12.48.714.968.3 1.904.65 2.08.775s1.22.557 2.319.959c2.167.792 4.605 2.71 5.401 4.25.725 1.402.875 7.236.246 9.523-.506 1.839-1.782 4.712-2.7 6.08-.296.44-1.008 2.168-1.583 3.84s-1.156 3.184-1.292 3.36c-.136.176-.625 1.256-1.086 2.4-.462 1.144-1.341 2.896-1.955 3.893-.95 1.544-1.067 1.937-.792 2.66.509 1.34.404 6.76-.151 7.835-.76 1.468-1.996 2.252-3.551 2.252-.758 0-1.467.144-1.576.32-.308.498-1.486.377-2.146-.22-.568-.514-.677-.455-2.276 1.236-.923.976-2.237 2.623-2.92 3.66a518.662 518.662 0 01-2.47 3.709c-.675 1.003-1.228 2.03-1.228 2.283 0 .252.918 1.317 2.04 2.366 1.775 1.662 3.23 2.753 8.12 6.096 2.383 1.628 2.902 1.944 5.04 3.073 3.476 1.834 9.868 6.367 10.335 7.33.274.565.314 1.047.118 1.421-.365.697-.149 1.212 1.718 4.086 1.838 2.83 4.766 8.87 5.465 11.275.294 1.01.65 2.055.792 2.321.142.266.698 1.924 1.236 3.684.842 2.754.978 3.698.977 6.773 0 4.476-.405 5.51-3.552 9.081-3.753 4.258-5.569 4.781-16.608 4.78-10.165 0-21.132-.944-27.625-2.378-1.378-.304-2.57-.488-2.649-.41-.218.219-1.906 7.293-2.69 11.274-.741 3.759-1.544 5.574-3.53 7.976-.677.82-2.057 3.033-3.065 4.917-2.264 4.23-4.624 6.786-8.284 8.973-3.123 1.867-5.456 2.62-8.047 2.597-1.59-.013-2.335-.252-4.972-1.593zm9.208-4.67c5.398-2.8 5.98-3.36 8.78-8.44.92-1.672 2.152-3.571 2.735-4.22 1.876-2.087 2-2.44 4.44-12.66.474-1.981.815-3.99.76-4.466-.092-.783-.284-.9-2.022-1.237-2.43-.471-9.501-2.568-11.195-3.32-.706-.314-2.004-.824-2.884-1.133s-2.043-.755-2.584-.991c-1.718-.75-10.24-3.333-10.996-3.333-.62 0-1.968.887-6.58 4.328-1.936 1.445-4.564 3.315-5.84 4.156-1.276.841-2.32 1.656-2.32 1.81s.775 1.298 1.723 2.542c.947 1.243 2.33 3.435 3.075 4.872s1.608 2.972 1.919 3.412c.932 1.317 3.915 6.444 4.745 8.158 1.572 3.243 6.4 9.21 8.177 10.106.55.278 1.575.818 2.276 1.2 1.812.988 2.573.885 5.791-.785zm-84.826-1.395c4.553-1.158 7.132-2.008 10.88-3.586 2.112-.89 3.989-1.735 4.171-1.88.182-.145 1.262-.725 2.4-1.29 1.136-.564 3.435-1.918 5.108-3.01a538.51 538.51 0 0111.2-7.07c1.436-.872 3.163-1.973 8.32-5.304 1.497-.966 3.851-2.465 5.233-3.33 1.381-.867 2.955-1.95 3.498-2.41l.986-.833-.573-1.886c-1.08-3.555-1.478-4.767-1.776-5.406-.665-1.431-2.201-6.517-2.418-8.007-.333-2.296-.615-2.661-2.814-3.65a355.677 355.677 0 01-4.122-1.896c-1.18-.554-2.234-1.007-2.34-1.007s-1.013-.379-2.014-.842c-2.853-1.32-9.34-3.951-11.05-4.48-2.103-.652-8.102-3.607-9.663-4.76a44.158 44.158 0 01-2.642-2.168c-.757-.678-1.55-1.176-1.76-1.107-.54.175-5.017 5.406-6.853 8.006-.842 1.193-3.312 4.577-5.489 7.52-2.176 2.943-4.546 6.215-5.266 7.271-1.94 2.846-3.877 7.546-4.68 11.36-.39 1.848-.921 4.08-1.181 4.96-.566 1.913-.787 2.764-1.911 7.36-.69 2.82-.924 4.812-1.176 10.018-.339 7.004-.215 7.91 1.114 8.14.406.071 3.402.068 6.658-.007 4.241-.098 6.555-.298 8.16-.706zm147.24-28.815c1.673-.565 2.198-.963 4.01-3.036 1.253-1.434 2.241-2.91 2.478-3.7.502-1.674.171-6.496-.612-8.934-.31-.968-.818-2.624-1.126-3.68-.308-1.056-.66-2.064-.784-2.24-.123-.176-.557-1.256-.965-2.4-.939-2.636-3.222-7.317-4.242-8.7-.43-.583-1.303-1.933-1.938-3-2.376-3.987-4.18-5.523-10.941-9.316-6.832-3.832-11.365-6.821-13.141-8.664-.721-.748-1.516-1.356-1.766-1.352-.25.004-1.535 1.48-2.855 3.28-1.559 2.125-4.502 5.338-8.4 9.168-5.226 5.136-6 6.024-6 6.888 0 1.468 1.323 6.406 3.218 12.016l1.676 4.96.144 7.52c.08 4.136.263 7.645.408 7.798.26.276.932.442 4.634 1.145 1.056.2 2.28.501 2.72.668 1.305.497 7.744 1.237 14.08 1.619 3.256.196 5.98.414 6.054.483.073.07 2.673.127 5.778.127 4.829 0 5.922-.094 7.57-.65zm-88.3-4.403c1.441-1.005 3.858-2.684 5.37-3.732 1.654-1.146 2.714-2.093 2.659-2.376-.053-.275-.758-.624-1.691-.839a73.261 73.261 0 01-3.84-1.046 309.29 309.29 0 00-4.64-1.354c-1.32-.372-2.854-.885-3.408-1.138-1.287-.59-2.032-.588-2.032.004 0 .256.371 1.444.825 2.64s1.323 3.686 1.933 5.534c.61 1.848 1.17 3.54 1.245 3.76.236.69.878.429 3.579-1.453zm42.789-6.947l-.03-7.04-1.454-4.16c-.799-2.288-1.7-5.24-2-6.56-.735-3.219-.728-3.2-1.196-3.198-.226.001-1.274.833-2.33 1.849s-3.36 3.096-5.12 4.624-5.144 4.67-7.52 6.985-4.874 4.58-5.55 5.036c-1.151.776-1.193.857-.64 1.26.324.238.95.51 1.39.605 1.536.332 5.282 1.485 5.6 1.723.176.132 1.4.6 2.72 1.04 1.32.44 3.295 1.177 4.39 1.637 1.093.461 3.813 1.339 6.044 1.95 2.23.611 4.136 1.193 4.237 1.294.1.1.476.14.835.089.636-.091.653-.28.624-7.134zm-28.106-3.858c1.042-.802 3.911-3.376 6.375-5.719s5.992-5.592 7.84-7.22c4.447-3.919 7.578-6.91 8.156-7.791.374-.571.4-.97.128-1.956-.188-.682-.82-3.484-1.402-6.228-.583-2.743-1.372-6.212-1.753-7.708-.38-1.496-.974-3.872-1.318-5.28s-.755-2.848-.913-3.2-.648-1.72-1.088-3.04c-1.264-3.792-3.756-9.71-4.328-10.279-.68-.677-4.17-2.51-6.602-3.469-1.056-.416-2.064-.862-2.24-.99-.176-.127-1.616-.755-3.2-1.394-1.584-.64-3.24-1.361-3.68-1.604-.44-.244-1.664-.684-2.72-.98-1.056-.295-3.189-.97-4.74-1.5l-2.82-.964-1.067.75c-1.6 1.125-5.622 4.391-6.892 5.597a85.127 85.127 0 01-2.88 2.554c-.968.82-3.604 3.22-5.857 5.334l-4.097 3.844.22 1.79c.121.985.545 2.799.943 4.03a89.748 89.748 0 012.199 8.16l1.18 5.28c.395 1.76 1.183 4.175 1.753 5.365.961 2.01 1.618 4.434 2.837 10.475 2.148 10.638 2.268 11.007 3.79 11.662 1.447.623 3.105 1.299 4.232 1.724 1.695.641 14.742 4.16 15.544 4.193.277.011 1.357-.636 2.4-1.438zm-14.261-16.493c-2.708-.53-4.196-1.554-5.784-3.978-.803-1.227-2.017-3.444-2.697-4.927-1.146-2.498-1.24-2.922-1.275-5.76-.046-3.75.318-7.71.842-9.16.314-.867.308-1.236-.03-1.866-.372-.696-.333-.908.338-1.852 1.354-1.903 6.172-6.487 7.596-7.226 1.206-.625 1.855-.717 4.957-.7 1.964.012 4.434.207 5.49.434 1.758.378 1.915.48 1.865 1.221-.05.744.078.826 1.6 1.019 2.984.378 4.509 1.082 7.045 3.255 3.086 2.644 3.26 3.178 2.795 8.562-.34 3.93-1.131 8.392-1.595 9-.139.18-.501 1.109-.805 2.062-.304.952-.938 2.233-1.409 2.846-.47.613-1.216 1.844-1.656 2.737-.81 1.644-2.03 2.693-4.675 4.023-1.17.588-1.858.657-6.24.626-2.709-.02-5.572-.162-6.362-.316zm6.014-4.002c.092-.953-.991-3.327-1.52-3.327-.13 0-.51.302-.844.67-1.324 1.463-2.693 1.428-2.693-.069 0-.863-.415-.742-1.23.36-.793 1.072-1.369 1.204-1.992.454-.322-.39-.338-.721-.067-1.439.21-.558.233-1.006.057-1.116-.364-.224-2.166 1.157-2.19 1.679-.03.614 3.017 3.55 3.853 3.714.423.083 2.065.132 3.649.11l2.88-.043zm4.543.513c0-.176-.064-.32-.141-.32-.078 0-.23.144-.34.32s-.045.32.142.32c.186 0 .339-.144.339-.32zm-2.106-1.474c.278-.107.506-.4.506-.651 0-.358-.14-.383-.64-.115-.352.189-.64.482-.64.652 0 .361.094.375.774.114zm4.606-1.486c.125-.656-.876-.776-1.476-.176-.628.628-.441.945.493.838.53-.062.92-.324.984-.662zm-.583-3.315c1.404-1.269 2.243-1.266 2.243.006 0 2 1.259.817 2.31-2.171.538-1.525.733-2.76.436-2.76-.073 0-.83.313-1.68.696-1.2.54-2.19.7-4.426.716-2.59.02-3.034-.068-4.4-.865-.836-.488-1.532-.847-1.546-.797-.015.05-.054.466-.089.926s-.455 1.35-.934 1.979c-.964 1.265-1.149 2.465-.379 2.465.704 0 3.028-1.233 3.028-1.606 0-.173.316-.314.702-.314.76 0 2.498 1.471 2.498 2.113 0 .325.259.544.879.742.043.014.654-.495 1.357-1.13zm-16-2.119c1.06-1.097 1.88-2.138 1.82-2.313-.058-.175-.455-.322-.881-.326-.564-.005-.804-.208-.88-.745-.162-1.142-.76-.665-1.34 1.07-.395 1.18-.717 1.616-1.299 1.754-.425.1-.823.439-.883.752-.11.566.763 1.802 1.27 1.802.146 0 1.132-.897 2.193-1.994zm6.109-1.657c.354-.6.85-1.17 1.104-1.268.556-.214.264-1.16-.358-1.16-.242 0-.529-.355-.637-.788-.344-1.371-1.002-1.652-1.899-.809l-.785.738.685 1.108c.386.625.667 1.58.644 2.19-.052 1.38.427 1.377 1.246-.011zm11.677-2.634c.867-.289 1.771-.678 2.009-.866.237-.187.807-.346 1.265-.354 1.055-.018 1.268-.723 1.31-4.322l.033-2.708-1.779-1.655c-1.78-1.657-4.189-2.69-6.275-2.69-1.241 0-2.804-.64-3.153-1.292-.579-1.082-.371-2.215.477-2.601 1.469-.67.467-.907-3.831-.907h-4.284l-1.618 1.644c-2.2 2.236-2.174 3.152.059 1.997.774-.4 1.136-.437 1.58-.16.316.198.937.36 1.38.36 1.069 0 1.086 1.08.027 1.773-.643.422-.746.693-.601 1.586.156.962-.001 1.264-1.464 2.81-.901.953-1.638 1.796-1.638 1.874s.391.136.87.129c.636-.01.984.22 1.29.853.346.712.547.82 1.13.605.646-.238.725-.532.877-3.266.287-5.13 2.253-9.581 3.807-8.62.383.236.363.56-.132 2.147-.321 1.028-.812 2.22-1.09 2.65-.36.555-.536 1.76-.607 4.16-.123 4.14.247 4.916 3.029 6.352 2.22 1.145 4.853 1.326 7.329.501zm-20.554-1.858c.197-.515-.223-3.597-.534-3.908-.336-.336-.855 1.458-.855 2.952 0 1.18.102 1.42.605 1.42.333 0 .686-.209.784-.464zm-7.938 26.685c.115-.186-.011-1.302-.28-2.48s-.726-3.582-1.016-5.342c-.802-4.869-1.43-7.413-2.577-10.438-1.04-2.741-2.077-6.894-2.869-11.482-.228-1.32-.712-3.336-1.077-4.48-.365-1.144-.756-2.76-.868-3.594-.113-.833-.39-1.767-.617-2.077-.372-.51-.76-.212-4.057 3.114-5.48 5.53-16.29 18.032-18.3 21.167l-.544.85 2.656 2.072c3.145 2.454 5.067 3.454 9.377 4.884 3.073 1.019 8.551 3.155 10.56 4.117a73.577 73.577 0 004.8 2.07c.88.346 2.176.923 2.88 1.28 1.497.762 1.653.79 1.931.34zm-32.457-17.742c.568-.792 1.129-1.44 1.245-1.44s.694-.684 1.284-1.52 1.514-2.029 2.054-2.651 1.63-1.914 2.422-2.87c2.933-3.543 7.459-8.353 11.548-12.273 4.772-4.575 4.447-3.614 3.053-9.006-.455-1.76-1.558-5.072-2.452-7.36-1.98-5.07-2.57-6.84-3.512-10.56-.402-1.584-.962-3.129-1.246-3.433-.773-.83-3.44-1.207-8.55-1.207-4.245 0-4.809.073-7.478.96-4.31 1.431-5.45 1.627-11.074 1.898l-5.152.249-2.368 1.525c-3.347 2.155-6.634 4.9-7.584 6.335-.778 1.176-.808 1.4-.746 5.61.036 2.41.198 4.815.362 5.343s.589 1.968.945 3.2c.355 1.232 1.13 3.104 1.722 4.16l1.077 1.92 2.848.017c1.566.01 3.064-.095 3.328-.232 1.574-.816 3.183-1.225 4.82-1.225 1.509 0 2.035.148 2.762.773.833.716.906.972 1.01 3.526.063 1.515.022 3.12-.09 3.568-.113.447-1.064 1.737-2.114 2.865-1.05 1.129-1.908 2.332-1.908 2.673 0 .35.593 1.086 1.36 1.687.748.586 2.512 2.084 3.92 3.33 1.408 1.244 3.352 2.82 4.32 3.499s1.95 1.425 2.182 1.657c.655.654.9.53 2.012-1.018zm92.674-4.219c3.227-3.067 5.88-5.939 7.638-8.268 1.482-1.963 2.694-3.7 2.694-3.86 0-.624-5.4-4.447-8.263-5.85-1.969-.966-7.697-4.12-8.217-4.525-.529-.412-7.931-4.158-8.216-4.158-.363 0-.334 1.083.04 1.456.311.313 3.114 7.621 3.798 9.904.21.704.675 2.635 1.032 4.29.357 1.655.72 3.124.807 3.264.252.409 1.279 4.639 2.05 8.446.771 3.81.836 4 1.35 4 .188 0 2.567-2.114 5.287-4.699zM186.929 94.08c0-1.209-.054-1.28-.96-1.28-.528 0-.96.099-.96.22 0 .36 1.42 2.335 1.68 2.338.132.001.24-.574.24-1.278zm119.56-3.28c2.25-3.603 3.329-5.081 5.474-7.504 1.279-1.443 2.324-2.775 2.324-2.96 0-.185-.37-.336-.824-.336-.492 0-1.217-.392-1.794-.97l-.97-.97.115-3.59c.104-3.241.202-3.738 1.01-5.112 1.048-1.787 1.985-2.477 3.651-2.692 1.574-.202 3.273.528 5.06 2.175.772.712 1.556 1.2 1.742 1.085.542-.335 2.869-5.231 3.728-7.846.434-1.32 1.79-4.428 3.016-6.907l2.226-4.507V46.66c0-3.824-.036-4.046-.795-4.865-.437-.471-1.761-1.291-2.943-1.821a221.38 221.38 0 01-3.13-1.43c-1.56-.74-6.695-1.088-16.011-1.085-8.787.003-9.9.115-14.24 1.422-2.274.684-6.717 1.633-8.96 1.913-4.026.502-5.746 1.265-8.127 3.606-.582.572-1.196 1.04-1.365 1.04s-.73.402-1.248.892c-1.091 1.036-3.521 2.948-3.746 2.948-.084 0-.779.571-1.543 1.27-1.362 1.245-1.382 1.293-1.038 2.48.491 1.693 1.983 5.913 2.295 6.49.143.264.595 1.704 1.005 3.2.41 1.496 1.14 3.944 1.623 5.44s1.043 3.368 1.245 4.16c.782 3.056.9 3.196 3.835 4.535 3.395 1.549 10.256 5.03 10.904 5.534.644.5 5.807 3.405 8 4.5 2.022 1.011 5.12 3.043 6.65 4.364.579.499 1.261.907 1.517.907s.847-.612 1.314-1.36zm-77.087-9.74c2.07-1.88 3.837-3.506 3.925-3.61s.878-.763 1.755-1.46 2.05-1.675 2.604-2.169c.555-.494 2.205-1.862 3.666-3.04 1.46-1.178 2.701-2.288 2.757-2.467.108-.343-7.329-2.648-11.422-3.54-1.32-.287-3.264-.723-4.32-.967-1.056-.245-3.72-.813-5.92-1.263s-4.252-.893-4.56-.983c-.368-.108-.56.011-.56.347 0 .81 2.739 8.871 3.602 10.602.6 1.204 2.99 8.21 3.945 11.57.062.22.26.4.438.4s2.019-1.54 4.09-3.42zm85.33-4.766c.108-.279.195-.86.195-1.29 0-1.368.864-2.938 1.917-3.483.823-.425.938-.606.626-.981-.56-.675-2.033-.56-2.734.213-.472.523-.634 1.276-.722 3.36-.07 1.646.01 2.687.206 2.687.175 0 .406-.228.513-.506zm-44.381-3.734c-.094-.396-.408-1.512-.697-2.48s-.931-3.2-1.426-4.96-1.275-4.28-1.733-5.6c-.458-1.32-.986-3.012-1.173-3.76-.187-.748-.49-1.36-.672-1.36-.183 0-.749.396-1.258.88-1.307 1.243-1.848 1.68-2.08 1.68-.112 0-.586.347-1.054.77-1.46 1.323-5.902 4.778-7.647 5.95-.917.616-1.671 1.288-1.676 1.493-.009.401.987.812 5.752 2.376 1.672.55 3.184 1.115 3.36 1.258.177.143 1.041.545 1.92.894.88.348 2.824 1.206 4.32 1.905 4.163 1.946 4.307 1.98 4.064.954zm-19.94-8.355c.398-.488 6.796-5.325 7.043-5.325.086 0 .697-.495 1.357-1.099.66-.605 1.558-1.289 1.997-1.52 1.14-.603 3.222-2.881 3.231-3.538.01-.693-1.57-5.379-1.997-5.923-.445-.568-1.535-.495-1.993.132-.239.326-.601.45-.936.322-.651-.25-.376-.852.393-.86.297-.003.849-.33 1.225-.727l.684-.723-.787-2.552c-.69-2.24-1.38-4.113-2.824-7.672-.215-.528-.65-1.608-.97-2.4-2.123-5.277-1.925-5.108-6.002-5.116-2.218-.003-2.58-.09-3.28-.79-.64-.64-.785-1.105-.785-2.511 0-1.782.792-3.305 2.513-4.833.378-.335.687-.804.687-1.042 0-.58-4.596-5.062-6.383-6.223-1.05-.683-1.81-.925-2.91-.925-1.19 0-1.88-.254-3.452-1.27l-1.965-1.27-6.983-.086-2.353 1.757c-1.295.967-2.96 2.062-3.702 2.434-1.745.875-2.551 1.747-3.434 3.715-1.074 2.393-1.355 3.22-2.281 6.72-1.453 5.491-1.759 7.207-2.222 12.48-.625 7.11-.64 11.081-.051 13.92.904 4.368 1.462 6.726 1.672 7.065.432.7 2.393 1.235 9.904 2.7 2.288.446 4.664.956 5.28 1.131.616.176 3.28.885 5.92 1.576 2.64.69 6.024 1.612 7.52 2.048 3.084.899 5.354 1.055 5.885.405zm18.276-14.47c.474-.51 2.944-2.375 3.146-2.375.096 0 .647-.432 1.225-.96.578-.528 1.2-.96 1.38-.96.477 0 2.729-2.07 2.729-2.508 0-.514-.343-.48-4.166.403-6.25 1.445-8.155 2.24-7.466 3.11.189.24.445.86.57 1.377.124.519.432 1.436.684 2.04.474 1.134.744 1.116 1.898-.126zm-18.4-25.055c0-.668-.741-1.432-1.07-1.104-.356.356-.233 1.322.19 1.492.72.291.88.22.88-.388zm11.858.27c1.44-.77 2.028-3.972 1.247-6.784-.319-1.148-1.982-2.806-2.815-2.806-.256 0-.37 1.027-.37 3.341 0 1.838-.139 3.427-.308 3.532-.391.242-1.003 2.418-.781 2.777.233.378 2.285.338 3.027-.06zm-3.858-8.123c0-.872-.393-1.467-.968-1.467-1.59 0-2.175 1.066-.872 1.59 1.083.436 1.84.385 1.84-.123zm-222.89 142.71c-.681-.682-.785-1.074-.78-2.96.003-1.196.299-3.255.657-4.575 1.278-4.708 1.58-6.633 1.901-12.143.36-6.181.633-7.057 2.194-7.057 1.809 0 1.963.56 1.955 7.065-.005 4.351-.18 6.985-.664 10.055-.361 2.288-.757 5.292-.88 6.675-.186 2.095-.348 2.615-.971 3.12-1.045.846-2.46.771-3.412-.18zm27.766-1.953c-1.065-.746-.945-2.155.264-3.078 2.606-1.99 2.926-2.369 3.2-3.793.436-2.257.35-5.185-.2-6.797-.598-1.758-.51-2.76.29-3.241.486-.294.727-.182 1.44.67 1.163 1.392 1.94 4.196 2.06 7.435.056 1.515.247 2.746.436 2.81.186.061.9-.486 1.588-1.215.688-.73 2.08-2.139 3.093-3.13 1.54-1.508 1.888-2.057 2.125-3.356.328-1.805.924-2.527 2.083-2.527 1.142 0 1.725.57 2.134 2.088.547 2.032.147 3.273-1.548 4.805-.82.74-2.743 2.597-4.273 4.125-3.017 3.012-4.077 3.676-7.826 4.9-2.85.93-3.88.994-4.866.304zm-15.351-1.173c-1.337-1.43-.872-3.392 1.954-8.249.553-.95.84-1.915.842-2.836l.004-1.397-1.498.225c-.824.124-2.414.508-3.534.853-2.347.725-3.288.575-3.288-.525 0-1.433 3.236-2.923 7.085-3.26 3.838-.337 4.44.228 4.427 4.155-.005 1.752-.205 2.766-.83 4.225-1.376 3.212-1.37 3.36.127 3.36 1.6 0 4.904-1.018 6.744-2.078 1.517-.874 2.607-1.038 2.607-.392 0 .888-3.494 4.606-5.176 5.509-1.51.81-2.106.93-5.224 1.047-3.39.13-3.547.106-4.24-.637zM.991 115.803c-.466-.871-.175-2.306.724-3.57.39-.546 2.636-3.304 4.991-6.127 4.052-4.856 6.094-7.779 6.636-9.5.6-1.904 2.771-4.116 4.045-4.121.734-.003 2.412 1.46 3.07 2.676.872 1.612 3.143 7.869 4.255 11.722.991 3.435 3.583 6.4 5.596 6.4 1.59 0 3.913-2.353 4.736-4.8.326-.968.794-2.214 1.04-2.769s.449-1.202.45-1.44c.002-.652 4.292-9.03 5.3-10.353 1.053-1.38 2.078-1.948 4.95-2.744 1.81-.501 2.564-.548 4.758-.298 1.434.163 3.053.555 3.598.87 1.497.866 5.485 6.413 7.432 10.337 2.42 4.88 2.951 5.654 4.496 6.56 1.03.603 1.815.797 3.23.797h1.868l2.028-2.16c3.416-3.638 5.656-7.4 7.192-12.08 1.22-3.716 2.055-4.64 4.194-4.64 1.9 0 3.656 1.127 5.477 3.515 1.246 1.633 3.437 5.536 4.494 8.005 2.05 4.787 5.354 8.817 6.898 8.413 1.027-.268 3.09-2.763 4.344-5.255 1.61-3.197 2.066-4.55 2.406-7.139.317-2.419.637-2.84 1.973-2.596.822.15.88.087.88-.951 0-.706.248-1.36.677-1.789.615-.616.94-.663 3.6-.527 2.425.124 3.278.32 5.003 1.147 1.144.548 3.773 1.436 5.843 1.972 4.325 1.12 6.668 2.084 8.185 3.366 2.45 2.07 1.952 3.9-1.594 5.853-1.295.713-3.144 1.607-4.11 1.987-.967.38-2.622 1.332-3.679 2.118-2.219 1.649-3.043 1.927-4.44 1.498-.593-.182-1.35-.196-1.838-.033-.658.22-1.254.058-2.878-.782-1.854-.958-2.075-1.18-2.322-2.33-.65-3.028-2.234-6.32-2.74-5.697-.12.145-.402.84-.63 1.545-1.619 5.006-5.042 9.659-7.675 10.433-1.32.387-1.497.359-3.14-.5-2.153-1.128-4.288-3.791-5.618-7.01a132.836 132.836 0 00-1.874-4.285c-.512-1.1-.93-2.116-.93-2.258 0-.607-3.232-5.16-4.103-5.78-1.076-.767-2.062-.875-2.54-.28-.176.22-.687 1.48-1.134 2.8-2.043 6.028-4.222 9.827-7.958 13.87-2.37 2.565-3.446 2.93-7.134 2.42-2.46-.34-3.28-.754-5.032-2.542-1.027-1.048-3.784-6.223-5.469-10.268-.265-.637-1.56-2.275-2.877-3.64l-2.395-2.481-2.999.157c-2.97.157-5.077.83-5.95 1.903-.611.752-3.819 7.099-4.416 8.74-.32.88-.684 1.743-.807 1.92-.123.175-.56 1.466-.972 2.867-.657 2.241-.982 2.796-2.707 4.616-1.934 2.042-1.984 2.07-3.922 2.21-1.08.078-2.439.053-3.02-.056-1.502-.282-3.992-2.78-4.951-4.968-1.504-3.43-1.683-3.936-2.816-7.966-.41-1.46-.882-2.828-1.047-3.04-.166-.21-.557-1.068-.87-1.904-.853-2.282-1.698-1.967-2.566.959-.483 1.626-2.685 5.238-4.664 7.652-.6.731-2.387 2.957-3.971 4.945s-3.197 3.946-3.585 4.35c-.923.96-2.496.99-2.996.055zm121.3-12.17c0-.962-.897-1.678-1.71-1.365-.405.155-.416.336-.07 1.198.223.56.51 1.304.636 1.656.227.632.235.633.687.02.251-.342.457-1.021.457-1.51zm7.52-2.831c.213-.344-.998-.9-2.56-1.176l-.96-.169.96.821c.985.843 2.209 1.093 2.56.524zm280.93 6.71c-2.796-.373-4.267-1.066-4.7-2.213-.373-.987-.978-1.332-3.428-1.95-2.188-.553-2.88-1.361-2.88-3.362 0-.915.207-2.253.461-2.973.254-.72.386-1.782.293-2.36-.138-.856.068-1.4 1.105-2.925.7-1.031 1.94-2.425 2.755-3.098 1.863-1.54 3.75-1.832 8.583-1.33 3.035.316 3.634.484 5.12 1.437.925.593 1.898 1.34 2.162 1.662.518.629.561 3.303.146 9.122l-.217 3.04-1.804 1.702c-3.474 3.275-4.407 3.674-7.596 3.248zm5.225-8.823c-.107-.106-.383-.118-.614-.025-.255.102-.179.178.194.193.337.014.526-.062.42-.168zm1.618-3.58l.092-2.922-1.212-.784c-.922-.597-1.85-.838-3.878-1.008l-2.667-.224.107.756c.11.774.195.789 2.215.384 1.113-.223 1.891.606 1.891 2.015 0 1.458.442 2.237 1.61 2.841.678.35.95.726.95 1.31 0 .512.15.769.4.686.272-.09.43-1.07.492-3.054zm-6.331-.227c0-.893-.553-1.079-.857-.287-.108.281.004.64.25.795.612.387.607.392.607-.508zm-3.258-3.625c.068-.461-.067-.695-.4-.695-.327 0-.502.29-.502.827 0 1.002.751.893.902-.132zm-33.76 14.941c-1.043-.53-1.53-1.949-1.097-3.194.195-.56.355-1.14.355-1.29 0-.15-3.492-.275-7.76-.278-5.027-.004-10.295-.229-14.96-.638-3.96-.347-8.107-.632-9.216-.634-2.164-.003-3.671-.57-4.214-1.585-.93-1.736.102-3.174 2.568-3.58 1.813-.297 11.638.152 15.159.694 1.043.16 6.37.378 11.84.483 10.59.204 11.868.39 12.515 1.823.42.931 1.108 1.098 1.108.27 0-.367-.118-.667-.262-.667s-.757-.45-1.36-.998c-.92-.837-5.425-3.209-7.42-3.907-.69-.241-1.35-1.6-1.097-2.256.101-.265.546-.719.987-1.008.735-.481.946-.483 2.515-.027 2.75.799 6.411 2.852 8.935 5.01 3.711 3.174 4.421 4.081 4.422 5.65 0 1.146-.153 1.455-1.04 2.106-.572.419-1.974 1.012-3.114 1.318s-2.912 1.064-3.936 1.686c-2 1.215-3.808 1.59-4.927 1.022zm57.018-13.684c-2.072-.375-3.248-1.151-3.476-2.294-.397-1.983.355-6.456 1.428-8.489 1.639-3.107 2.313-3.65 4.54-3.65 1.725 0 1.988.097 2.98 1.088 1.749 1.75 1.464 3.664-.766 5.154a35.4 35.4 0 00-2.045 1.482c-.473.38-1.409.779-2.08.887-1.05.17-1.236.326-1.326 1.112-.058.504.033 1.054.203 1.223.169.17 2.553.358 5.298.418 2.745.061 5.138.202 5.317.312.557.344.36 1.635-.346 2.275-.576.522-1.232.617-4.56.662-2.138.028-4.463-.052-5.167-.18zm1.3-8.124c1.653-.975 3.02-2.348 3.02-3.035 0-.968-1.307-1.58-2.487-1.165-1.13.397-2.964 3.885-2.273 4.323.583.37.948.344 1.74-.123zm11.411-10.007c-1.617-1.132-.378-2.697 2.42-3.057 1.006-.13 2.496-.336 3.31-.458 1.261-.19 1.584-.122 2.16.455.374.373.68.878.68 1.123 0 .836-1.12 1.827-2.4 2.124-2.07.48-5.36.38-6.17-.187zm-166.15-54.75a20.17 20.17 0 01-1.12-.423 73.299 73.299 0 00-1.692-.66c-1.128-.425-1.668-1.143-1.668-2.216 0-.409-.294-.78-.756-.957-1.376-.523-1.401-2.06-.042-2.577.393-.15.794-.606.89-1.015.45-1.904 1.335-3.705 2.706-5.504.82-1.078 1.62-2.048 1.775-2.156s1.51-.174 3.01-.148c3.275.058 3.617.35 3.617 3.081 0 1.535-.148 2.001-.96 3.023-.528.664-.96 1.465-.96 1.78 0 .843-1.499 2.475-2.956 3.219-1.011.516-1.6.606-2.839.436-1.305-.18-1.597-.125-1.773.335-.418 1.09 3.078 2.181 6.026 1.879 2.07-.213 2.998-.008 3.278.724.403 1.05-.414 1.388-3.295 1.362-1.518-.014-2.977-.097-3.24-.184zm1.365-7.735c.31-.266.488-.725.395-1.02-.094-.293.05-1.061.32-1.706.426-1.02.628-1.171 1.57-1.171 1.007 0 1.09-.081 1.236-1.2.192-1.474-.352-2-2.066-2-1.527 0-3.274 1.485-4.387 3.732-.422.851-.89 1.798-1.04 2.104-.15.305-.273.86-.273 1.234 0 .537.151.647.72.525.396-.086 1.08-.052 1.52.074.866.25 1.141.17 2.005-.571zm17.383-8.937c-.132-.132-1.876-.312-3.878-.4-3.975-.175-4.818-.509-3.886-1.539.296-.326.441-.69.323-.807-.117-.118.323-.214.979-.214s1.114.126 1.018.28c-.214.347 1.35.68 3.19.68 1.592 0 2.458-.265 2.205-.674-.39-.63 1.239-.238 1.8.434.697.837.779 1.554.237 2.096-.428.428-1.62.514-1.988.144z"/></svg>