<?xml version="1.0" standalone="no"?>
<!DOCTYPE svg PUBLIC "-//W3C//DTD SVG 20010904//EN"
 "http://www.w3.org/TR/2001/REC-SVG-20010904/DTD/svg10.dtd">
<svg version="1.0" xmlns="http://www.w3.org/2000/svg"
 width="1416.000000pt" height="594.000000pt" viewBox="0 0 1416.000000 594.000000"
 preserveAspectRatio="xMidYMid meet">
<metadata>
Created by potrace 1.16, written by Peter Selinger 2001-2019
</metadata>
<g transform="translate(0.000000,594.000000) scale(0.100000,-0.100000)"
fill="current" stroke="none">
<path d="M8980 5901 c0 -46 9 -51 85 -51 30 0 56 -4 59 -9 3 -4 49 -11 102
-15 108 -7 134 3 134 53 -1 58 -11 61 -204 61 l-176 0 0 -39z"/>
<path d="M8680 5840 c0 -5 -6 -10 -13 -10 -8 0 -31 -26 -53 -57 -21 -32 -41
-60 -44 -63 -15 -15 -50 -101 -50 -123 0 -20 -6 -27 -30 -32 -21 -5 -30 -13
-30 -26 0 -10 -4 -19 -10 -19 -5 0 -10 -7 -10 -15 0 -8 5 -15 10 -15 6 0 10
-7 10 -16 0 -9 14 -21 30 -27 25 -9 30 -17 30 -44 0 -35 21 -53 64 -53 13 0
26 -4 28 -9 4 -13 209 -40 227 -31 9 5 24 11 34 14 15 5 18 14 15 48 l-3 43
-125 3 c-68 1 -129 7 -134 12 -7 7 8 10 41 10 28 0 58 6 65 13 7 6 30 23 51
37 21 14 40 35 43 48 4 12 10 22 15 22 5 0 9 13 9 30 0 16 6 33 13 37 36 23
63 112 38 127 -5 3 -12 21 -15 40 -4 22 -14 37 -26 41 -11 4 -20 11 -20 16 0
5 -36 9 -80 9 -47 0 -80 -4 -80 -10z m115 -105 c0 -27 -3 -30 -28 -27 -19 2
-29 -2 -34 -15 -4 -10 -9 -20 -12 -23 -16 -13 -29 -58 -20 -67 6 -6 1 -17 -12
-29 -16 -14 -23 -15 -26 -6 -3 6 -16 12 -29 12 -35 0 -32 38 8 97 55 83 68 94
113 91 37 -3 40 -5 40 -33z"/>
<path d="M7096 5793 c-11 -3 -26 -11 -34 -19 -7 -8 -20 -14 -28 -14 -8 0 -14
-4 -14 -10 0 -5 -4 -10 -9 -10 -5 0 -25 -16 -44 -35 -19 -19 -44 -35 -56 -35
-12 0 -21 -4 -21 -9 0 -5 -11 -12 -25 -15 -14 -4 -25 -11 -25 -16 0 -6 -4 -10
-10 -10 -23 0 -110 -111 -110 -142 0 -10 -4 -18 -9 -18 -4 0 -11 -19 -14 -43
-3 -24 -13 -56 -21 -72 -9 -17 -16 -40 -16 -52 0 -12 -5 -23 -10 -25 -6 -2
-13 -28 -17 -58 -3 -30 -9 -59 -13 -65 -4 -5 -11 -50 -14 -100 -4 -49 -12 -95
-18 -102 -6 -7 -8 -33 -6 -58 5 -36 2 -45 -12 -50 -11 -4 -20 -20 -24 -46 -8
-49 4 -229 15 -229 4 0 11 -21 15 -47 4 -27 11 -51 16 -54 5 -3 12 -39 15 -80
3 -41 9 -78 13 -84 5 -5 10 -27 11 -48 l4 -38 -219 -2 c-165 -1 -220 -5 -224
-14 -2 -7 -11 -13 -20 -13 -9 0 -30 -7 -47 -16 -16 -8 -50 -18 -75 -21 -25 -3
-49 -9 -55 -14 -5 -4 -79 -11 -163 -15 -84 -4 -155 -11 -158 -15 -3 -5 -18 -9
-34 -9 -16 0 -35 -7 -44 -15 -8 -8 -19 -15 -24 -15 -8 0 -23 -11 -69 -50 -7
-5 -17 -10 -22 -10 -6 0 -14 -6 -18 -13 -4 -7 -21 -21 -37 -31 -15 -10 -43
-33 -61 -52 -18 -19 -37 -34 -41 -34 -12 0 -63 -61 -70 -84 -4 -12 -12 -24
-18 -28 -15 -10 -15 -390 0 -409 6 -8 14 -37 18 -66 4 -28 13 -64 21 -80 8
-15 15 -33 15 -40 0 -6 3 -13 8 -15 7 -3 52 -90 52 -102 0 -4 6 -13 13 -21 10
-9 13 -48 11 -154 -1 -78 -5 -141 -8 -141 -3 0 -12 0 -20 0 -8 0 -22 7 -30 16
-37 36 -72 -9 -40 -51 11 -15 28 -20 72 -22 31 -1 65 -2 75 -2 9 -1 17 -8 17
-16 0 -8 4 -15 9 -15 5 0 12 -11 15 -24 7 -27 37 -36 127 -36 45 0 62 4 76 20
19 19 63 18 63 -1 0 -5 6 -9 13 -9 7 0 24 -12 37 -28 14 -15 42 -38 62 -52 21
-14 38 -31 38 -37 0 -7 7 -13 15 -13 8 0 15 -7 15 -15 0 -8 7 -15 15 -15 8 0
15 -4 15 -10 0 -5 6 -10 13 -10 6 0 28 -16 47 -35 19 -19 40 -35 47 -35 7 0
13 -4 13 -10 0 -5 6 -10 14 -10 33 0 24 -23 -31 -82 -32 -34 -67 -71 -79 -83
-11 -12 -18 -27 -16 -33 2 -7 -3 -15 -12 -18 -9 -3 -16 -12 -16 -20 0 -7 -8
-18 -18 -23 -10 -5 -24 -22 -32 -38 -8 -15 -27 -41 -42 -57 -15 -16 -30 -38
-34 -48 -3 -10 -10 -18 -15 -18 -5 0 -9 -5 -9 -10 0 -14 -38 -67 -67 -96 -13
-12 -23 -27 -23 -33 0 -6 -16 -26 -35 -44 -19 -17 -35 -38 -35 -44 0 -7 -4
-13 -10 -13 -5 0 -10 -6 -10 -13 0 -7 -8 -20 -17 -29 -28 -25 -53 -61 -53 -75
0 -7 -4 -13 -10 -13 -5 0 -10 -9 -10 -21 0 -11 -9 -32 -20 -46 -11 -14 -20
-32 -20 -39 0 -8 -4 -14 -10 -14 -5 0 -13 -18 -16 -40 -4 -22 -10 -40 -14 -40
-4 0 -10 -26 -13 -58 -2 -32 -10 -67 -15 -78 -6 -10 -14 -36 -17 -56 -3 -21
-10 -38 -14 -38 -5 0 -12 -30 -16 -67 -4 -38 -10 -72 -15 -78 -4 -5 -10 -30
-13 -54 -3 -24 -10 -47 -15 -50 -5 -3 -12 -24 -15 -45 -4 -22 -12 -43 -19 -47
-10 -6 -14 -70 -17 -264 -2 -140 0 -266 3 -280 4 -15 16 -27 31 -31 14 -3 25
-10 25 -14 0 -4 17 -11 37 -15 21 -4 41 -11 44 -16 8 -14 429 -15 438 -1 3 6
30 14 59 18 28 3 52 10 52 14 0 4 27 10 60 14 33 4 60 11 60 16 0 6 7 10 15
10 8 0 32 9 52 20 21 11 46 20 55 20 10 0 18 4 18 9 0 5 18 11 39 15 22 3 41
9 43 13 5 12 85 53 102 53 9 0 16 4 16 9 0 5 14 12 30 16 17 4 30 10 30 15 0
4 11 11 25 14 14 4 25 10 25 15 0 5 20 20 45 32 25 12 45 26 45 31 0 4 7 8 15
8 9 0 18 6 21 14 3 8 19 18 35 21 16 4 29 11 29 16 0 5 6 9 13 9 6 0 29 16 51
35 21 19 47 35 57 35 10 0 19 5 19 10 0 6 5 10 10 10 14 0 72 41 83 58 4 6 19
12 32 12 14 0 25 5 25 10 0 6 7 10 15 10 7 0 18 6 22 13 9 14 48 41 103 71 19
10 37 21 40 25 8 10 43 31 73 44 15 6 27 15 27 19 0 4 4 8 10 8 6 0 19 9 30
20 11 11 27 20 35 20 8 0 15 5 15 10 0 6 6 10 13 10 8 0 22 9 32 20 10 11 24
20 32 20 7 0 13 4 13 8 0 5 11 14 25 20 14 6 25 8 25 3 0 -7 9 -20 49 -67 5
-6 19 -32 30 -57 11 -25 24 -47 28 -49 11 -5 53 -85 53 -101 0 -8 11 -26 25
-41 14 -15 25 -33 25 -41 0 -8 6 -18 14 -22 7 -4 23 -28 35 -53 32 -65 55
-104 64 -108 4 -2 7 -10 7 -18 0 -18 28 -70 63 -115 15 -20 27 -39 27 -42 0
-4 15 -22 33 -41 42 -45 52 -57 60 -79 3 -9 11 -17 17 -17 5 0 10 -6 10 -12 0
-18 58 -78 76 -78 7 0 14 -4 14 -10 0 -5 7 -10 16 -10 9 0 40 -15 68 -32 50
-32 54 -32 164 -32 71 0 116 5 120 11 4 6 20 15 35 18 15 4 27 11 27 16 0 5 6
9 13 9 8 0 22 9 32 20 10 11 24 20 32 20 8 0 20 6 27 13 8 6 24 19 36 27 32
22 100 85 100 94 0 4 11 19 25 34 14 15 25 35 25 44 0 10 9 26 20 35 11 10 20
25 20 35 0 10 4 18 8 18 5 0 19 24 32 54 14 30 37 62 52 73 16 10 28 24 28 31
0 6 5 12 10 12 6 0 10 9 10 19 0 11 7 27 16 35 8 9 18 33 21 53 3 21 10 41 14
44 5 3 12 34 15 70 4 35 10 69 14 74 4 6 10 39 14 74 3 36 10 67 15 71 6 3 13
29 17 58 l7 53 51 -6 c28 -4 54 -11 57 -16 3 -5 37 -12 75 -16 38 -3 72 -10
75 -15 3 -5 63 -12 133 -15 70 -3 129 -10 132 -15 8 -12 721 -10 729 2 3 6 13
10 21 10 34 0 112 45 154 89 66 69 94 102 116 136 10 17 23 33 29 37 6 5 10
71 9 175 -1 135 -4 174 -17 198 -9 17 -17 38 -17 48 0 9 -4 17 -9 17 -6 0 -13
20 -17 45 -3 25 -10 45 -14 45 -4 0 -10 19 -13 43 -6 44 -31 102 -54 125 -7 7
-13 24 -13 38 0 13 -4 24 -10 24 -5 0 -10 11 -10 23 0 13 -9 34 -20 47 -11 13
-20 29 -20 35 0 7 -7 15 -15 19 -8 3 -15 12 -15 21 0 8 -4 15 -10 15 -5 0 -10
6 -10 13 0 8 -14 34 -32 57 -19 27 -27 45 -20 48 16 5 15 60 0 77 -43 48 -64
65 -77 65 -9 0 -70 42 -117 79 -6 5 -20 12 -32 15 -12 4 -22 12 -22 17 0 5 -6
9 -13 9 -7 0 -20 9 -30 20 -9 11 -24 20 -32 20 -8 0 -15 5 -15 10 0 6 -9 10
-19 10 -11 0 -26 7 -35 15 -8 8 -19 15 -24 15 -5 0 -17 9 -27 20 -10 11 -24
20 -32 20 -7 0 -13 5 -13 10 0 6 -7 10 -15 10 -8 0 -22 8 -32 18 -17 17 -110
82 -118 82 -5 0 -48 37 -102 87 -35 32 -43 46 -38 62 3 12 11 21 16 21 5 0 9
6 9 13 0 7 9 20 20 30 11 9 20 24 20 32 0 8 4 15 9 15 5 0 12 12 15 26 4 14
18 36 31 48 14 13 25 27 25 32 0 5 8 16 18 25 9 8 30 30 45 48 26 31 29 32 41
16 10 -14 22 -16 79 -10 37 4 67 11 67 16 0 5 11 9 25 9 14 0 39 13 57 30 l32
31 0 165 c1 98 5 168 11 172 18 13 55 71 55 87 0 8 5 15 10 15 6 0 10 15 10
34 0 18 7 39 15 46 8 7 15 21 15 31 0 9 6 24 14 31 7 8 17 28 21 46 3 17 11
34 16 37 5 4 9 19 9 35 0 16 7 35 15 44 8 8 15 19 15 25 0 5 6 16 13 23 20 20
46 76 53 114 3 19 10 34 15 34 5 0 9 67 9 149 0 123 -3 155 -17 183 -18 32
-61 78 -75 78 -4 0 -13 6 -21 14 -20 21 -89 56 -109 56 -9 0 -19 4 -22 9 -3 5
-21 12 -40 15 -19 4 -36 11 -38 16 -2 6 -45 13 -96 16 -51 4 -95 11 -98 16 -7
11 -574 10 -574 -1 0 -5 -24 -12 -52 -16 -29 -4 -56 -12 -59 -18 -4 -5 -30
-12 -58 -15 -28 -2 -51 -8 -51 -12 0 -4 -34 -11 -75 -15 -41 -4 -75 -10 -75
-15 0 -4 -28 -11 -62 -15 -35 -4 -66 -11 -69 -16 -3 -5 -41 -12 -85 -15 -43
-3 -88 -9 -99 -14 -11 -5 -46 -12 -77 -15 -32 -4 -58 -11 -58 -16 0 -5 -8 -9
-18 -9 -9 0 -34 -9 -55 -20 -20 -11 -48 -20 -61 -20 -14 0 -27 -4 -30 -9 -3
-4 -19 -11 -36 -15 -17 -3 -38 -13 -46 -21 -23 -22 -30 -12 -33 42 -1 26 -5
49 -10 53 -5 3 -12 20 -16 38 -3 17 -11 32 -16 32 -5 0 -9 7 -9 15 0 8 -9 32
-20 52 -11 21 -20 44 -20 52 0 19 -32 91 -41 91 -4 0 -10 15 -13 34 -4 19 -13
37 -22 40 -33 13 1 26 67 26 65 0 73 2 100 29 16 16 29 34 29 39 0 5 7 15 15
22 21 17 21 196 0 224 -8 11 -15 25 -15 32 0 20 -53 74 -72 74 -10 0 -18 4
-18 9 0 5 -13 12 -30 16 -16 4 -30 11 -30 16 0 14 -158 11 -176 -3 -20 -17
-40 -38 -59 -63 -15 -20 -15 -20 -21 3 -3 12 -10 22 -15 22 -12 0 -49 38 -49
50 0 6 -7 10 -15 10 -8 0 -15 5 -15 10 0 6 -7 10 -15 10 -9 0 -19 8 -22 18
-18 48 -133 112 -202 112 -23 0 -41 4 -41 8 0 9 -81 52 -98 52 -6 0 -12 6 -14
13 -3 9 -42 12 -139 14 -74 1 -143 -1 -153 -4z m234 -133 c0 -5 11 -12 24 -16
14 -3 27 -12 30 -20 3 -8 12 -14 20 -14 8 0 16 -5 18 -11 2 -6 35 -13 73 -17
68 -5 80 -10 113 -44 9 -10 20 -18 24 -18 11 0 48 -38 48 -50 0 -5 5 -10 11
-10 18 0 84 -72 81 -88 -2 -8 -17 -27 -33 -41 -16 -14 -29 -31 -29 -37 0 -7
-6 -14 -12 -17 -9 -2 -13 -29 -13 -84 0 -107 5 -111 137 -120 102 -6 128 -16
128 -47 0 -8 6 -21 14 -28 7 -8 17 -29 21 -48 4 -19 11 -41 15 -50 28 -56 50
-109 50 -119 0 -6 4 -11 10 -11 5 0 12 -17 15 -37 4 -21 10 -47 15 -58 5 -11
11 -33 15 -50 4 -16 10 -32 14 -35 5 -3 11 -15 15 -28 6 -16 3 -24 -11 -29
-10 -4 -24 -13 -31 -20 -7 -7 -20 -13 -28 -13 -8 0 -14 -7 -14 -15 0 -10 -10
-15 -29 -15 -33 0 -47 -25 -36 -60 8 -24 28 -26 45 -5 7 8 19 15 26 15 8 0 14
4 14 10 0 5 15 12 34 16 19 3 37 13 40 21 9 23 26 5 26 -28 0 -16 4 -29 9 -29
5 0 12 -16 16 -36 3 -20 13 -43 20 -51 8 -7 11 -21 8 -29 -8 -21 -71 -84 -84
-84 -5 0 -25 -16 -43 -35 -19 -19 -39 -35 -45 -35 -6 0 -11 -4 -11 -9 0 -5
-11 -12 -25 -15 -14 -4 -25 -13 -25 -21 0 -8 -6 -15 -14 -15 -8 0 -16 -7 -20
-15 -3 -8 -10 -15 -17 -15 -11 0 -88 -56 -100 -73 -20 -28 -110 -49 -123 -28
-3 4 -33 11 -67 14 -34 3 -65 10 -68 16 -4 5 -26 13 -49 17 -23 4 -42 10 -42
14 0 5 -19 11 -42 15 -24 3 -52 10 -63 15 -11 5 -46 12 -77 15 -32 4 -58 10
-58 15 0 5 -26 12 -57 16 -32 3 -63 10 -69 15 -6 5 -40 12 -75 15 -35 4 -68
10 -74 14 -5 4 -39 10 -74 14 -35 3 -69 10 -75 15 -6 5 -24 11 -41 13 -23 2
-31 9 -34 28 -1 14 -7 27 -11 30 -5 3 -13 34 -19 70 -6 36 -15 92 -21 125 -11
65 -3 462 10 480 4 6 10 50 13 99 4 49 10 92 15 95 5 3 13 25 17 49 4 23 11
42 15 42 5 0 12 26 16 58 3 31 10 62 14 67 4 6 10 27 14 48 4 20 11 37 16 37
4 0 11 14 15 30 4 17 10 30 15 30 5 0 10 7 12 16 2 9 19 26 40 38 104 61 134
80 141 93 4 7 12 13 18 13 5 0 22 11 37 25 25 23 34 25 124 25 58 0 98 -4 98
-10z m846 -242 c22 -21 24 -31 24 -120 0 -111 -14 -138 -70 -138 -36 0 -38 14
-9 70 19 37 21 52 15 126 -7 92 -1 100 40 62z m1897 -687 c6 -6 23 -11 37 -11
15 0 37 -9 50 -20 13 -11 31 -20 42 -20 10 0 18 -4 18 -10 0 -5 9 -10 19 -10
11 0 33 -12 50 -26 l31 -26 0 -139 c0 -86 -4 -139 -10 -139 -5 0 -10 -6 -10
-13 0 -8 -9 -24 -20 -37 -11 -13 -20 -29 -20 -37 0 -7 -4 -13 -10 -13 -5 0
-10 -8 -10 -17 -1 -10 -9 -36 -20 -58 -11 -22 -19 -46 -20 -52 0 -7 -4 -13
-10 -13 -5 0 -12 -16 -16 -35 -3 -19 -10 -35 -15 -35 -5 0 -9 -18 -9 -40 0
-27 -5 -43 -15 -46 -8 -4 -15 -16 -15 -29 0 -12 -9 -30 -20 -40 -11 -10 -20
-26 -20 -37 0 -10 -4 -18 -10 -18 -5 0 -10 -7 -10 -15 0 -24 -20 -18 -56 18
-18 17 -40 38 -49 46 -21 17 -167 20 -173 3 -2 -7 -8 -12 -13 -12 -17 0 -49
-34 -49 -52 0 -10 -4 -18 -9 -18 -6 0 -13 -21 -16 -47 -3 -27 -10 -56 -16 -65
-12 -24 -12 -148 1 -148 6 0 10 -9 10 -19 0 -30 11 -51 26 -51 8 0 14 -4 14
-10 0 -5 10 -10 23 -10 40 0 38 -10 -11 -59 -66 -67 -112 -123 -112 -138 0 -7
-4 -13 -10 -13 -5 0 -10 -5 -10 -11 0 -5 -13 -27 -29 -47 -16 -20 -32 -47 -36
-60 -9 -30 -37 -22 -85 24 -19 19 -49 41 -67 49 -18 9 -35 20 -38 25 -3 5 -27
19 -53 32 -26 13 -48 26 -50 31 -2 4 -11 7 -19 7 -16 0 -79 35 -101 57 -7 7
-20 13 -28 13 -8 0 -14 5 -14 10 0 6 -11 10 -25 10 -14 0 -28 6 -31 14 -3 8
-40 31 -82 52 -42 21 -83 44 -90 51 -7 7 -18 13 -23 13 -6 0 -17 7 -25 15 -9
8 -24 15 -34 15 -10 0 -31 7 -46 15 -16 8 -37 15 -46 15 -10 0 -18 4 -18 9 0
5 -10 13 -22 17 -36 11 -54 36 -61 85 -3 25 -13 58 -21 74 -9 17 -16 40 -16
53 0 12 -4 22 -9 22 -6 0 -13 21 -16 48 -4 26 -10 56 -15 67 -5 11 -12 35 -15
53 -4 18 -13 45 -21 60 -8 15 -14 35 -14 45 0 9 -4 17 -10 17 -5 0 -12 23 -16
50 -4 28 -10 50 -15 50 -5 0 -9 8 -9 18 0 9 -7 30 -15 46 -18 33 -20 66 -4 66
6 0 24 14 41 30 16 17 34 30 39 30 6 0 20 10 32 23 12 12 41 35 65 51 24 16
60 47 81 68 21 21 43 38 47 38 5 0 24 14 43 30 27 24 43 30 82 30 26 0 50 4
53 8 3 5 44 12 92 16 48 3 92 10 98 15 6 5 29 13 51 17 22 4 43 11 47 17 3 6
31 12 62 15 31 2 56 8 56 13 0 14 88 17 439 14 225 -3 347 -7 354 -14z m-1463
-149 c0 -4 -16 -16 -36 -27 -19 -10 -40 -27 -45 -37 -5 -10 -16 -18 -24 -18
-8 0 -15 -4 -15 -9 0 -5 -10 -13 -22 -17 -12 -4 -33 -20 -47 -35 -14 -16 -31
-29 -37 -29 -7 0 -14 -7 -18 -15 -9 -23 -26 -18 -26 9 0 13 -7 37 -15 52 -8
16 -15 34 -15 39 0 13 73 45 104 45 14 0 28 5 31 10 3 6 25 10 48 11 33 0 81
12 115 28 1 0 2 -2 2 -7z m-350 -407 c0 -19 4 -35 9 -35 5 0 12 -18 16 -40 4
-22 10 -40 15 -40 4 0 11 -17 15 -37 4 -21 11 -43 17 -50 5 -6 12 -37 15 -67
3 -31 9 -56 14 -56 4 0 10 -19 14 -42 4 -24 11 -45 15 -48 4 -3 11 -20 15 -39
l7 -33 -33 7 c-18 4 -39 14 -47 21 -7 8 -20 14 -28 14 -9 0 -22 7 -30 15 -9 8
-24 15 -35 15 -10 0 -19 5 -19 10 0 6 -10 10 -23 10 -12 0 -39 9 -60 20 -20
11 -42 20 -48 20 -6 0 -17 7 -25 15 -9 8 -26 15 -39 15 -13 0 -27 5 -30 10 -3
6 -20 10 -36 10 -16 0 -46 7 -67 16 l-37 15 25 20 c14 10 32 26 41 34 9 8 19
15 23 15 8 0 30 18 54 43 9 9 20 17 25 17 4 0 18 11 31 25 13 14 28 25 33 25
6 0 21 10 35 23 13 12 39 33 57 47 18 14 41 33 49 43 24 25 32 21 32 -18z
m-1665 -135 c3 -5 21 -10 38 -10 41 0 58 -25 64 -102 3 -32 10 -58 14 -58 5 0
9 -12 9 -27 1 -16 9 -46 20 -68 11 -22 19 -48 20 -57 0 -10 4 -18 10 -18 5 0
12 -17 16 -37 4 -21 10 -42 14 -48 4 -5 11 -25 15 -42 3 -18 10 -33 15 -33 5
0 11 -14 15 -31 4 -17 13 -42 21 -57 8 -15 14 -48 14 -74 0 -27 4 -48 9 -48 5
0 11 -19 15 -42 4 -23 12 -48 18 -55 7 -9 7 -13 -1 -13 -6 0 -11 -7 -11 -15 0
-9 -8 -19 -17 -22 -20 -7 -306 -293 -365 -364 -38 -46 -65 -77 -122 -139 -18
-20 -35 -43 -39 -53 -3 -9 -11 -17 -17 -17 -5 0 -10 -7 -10 -15 0 -8 -8 -19
-19 -24 -10 -6 -26 -26 -35 -46 -9 -19 -22 -35 -29 -35 -7 0 -23 -18 -37 -40
-14 -22 -27 -40 -31 -40 -3 0 -18 14 -32 30 -15 17 -34 30 -42 30 -8 0 -15 5
-15 10 0 6 -6 10 -12 10 -7 1 -33 21 -58 45 -25 25 -48 45 -51 45 -11 0 -59
49 -59 60 0 5 -7 10 -15 10 -8 0 -15 5 -15 10 0 6 -6 10 -12 10 -22 0 -57 45
-52 66 3 10 25 34 50 52 24 18 44 39 44 46 0 8 5 16 12 18 9 3 12 39 10 132
-2 124 -3 128 -30 152 -25 24 -32 26 -115 22 -50 -2 -91 -8 -95 -14 -4 -6 -18
-15 -32 -19 -14 -4 -28 -13 -32 -19 -6 -8 -10 -7 -17 2 -6 10 -28 13 -76 11
-57 -2 -69 0 -78 17 -6 10 -17 25 -24 32 -7 7 -13 22 -13 32 0 10 -4 21 -9 24
-5 3 -12 26 -15 51 -4 24 -11 47 -16 50 -5 3 -12 28 -16 55 -4 28 -10 50 -15
50 -5 0 -9 54 -9 120 0 125 4 141 52 194 10 11 18 23 18 27 0 4 10 11 22 15
12 3 39 24 62 45 22 22 43 39 47 39 4 0 14 6 21 13 18 16 46 34 78 49 14 7 27
16 30 19 3 4 86 9 186 10 113 3 186 8 195 15 8 6 31 14 52 18 20 4 37 11 37
16 0 5 23 12 50 16 28 4 50 10 50 15 0 13 337 11 345 -1z m257 -60 c2 -6 37
-13 78 -17 41 -3 80 -9 85 -14 6 -4 38 -11 73 -15 34 -3 62 -10 62 -14 0 -5
24 -11 53 -15 28 -4 57 -11 62 -16 6 -4 38 -11 70 -14 33 -4 62 -10 65 -15 3
-4 25 -11 50 -15 25 -4 48 -12 51 -17 3 -5 25 -12 48 -15 22 -3 41 -8 41 -12
0 -3 -17 -17 -38 -31 -20 -14 -48 -37 -62 -52 -13 -16 -28 -28 -33 -28 -4 0
-27 -18 -49 -40 -23 -22 -45 -40 -49 -40 -11 0 -59 -48 -59 -60 0 -5 -7 -10
-15 -10 -8 0 -15 -5 -15 -10 0 -6 -8 -14 -17 -17 -17 -7 -41 -27 -156 -136
l-62 -58 -9 41 c-5 22 -12 40 -17 40 -4 0 -10 19 -14 43 -4 23 -12 45 -18 48
-5 4 -12 30 -15 58 -2 28 -8 51 -12 51 -5 0 -11 14 -15 30 -4 17 -10 30 -15
30 -5 0 -11 14 -15 30 -4 17 -11 30 -15 30 -5 0 -12 23 -16 50 -4 28 -10 50
-14 50 -5 0 -11 18 -15 40 -4 22 -10 40 -15 40 -4 0 -11 17 -15 37 -4 21 -12
41 -18 45 -7 4 2 8 20 8 17 0 33 -5 35 -10z m868 -210 c0 -5 18 -11 40 -15 22
-4 40 -11 40 -15 0 -5 17 -12 38 -15 20 -4 46 -10 57 -15 11 -5 37 -11 58 -15
20 -3 37 -10 37 -15 0 -5 12 -13 28 -16 15 -4 36 -13 47 -20 11 -8 27 -14 37
-14 10 0 18 -4 18 -9 0 -5 18 -11 40 -15 22 -3 40 -11 40 -16 0 -5 12 -13 27
-16 15 -4 34 -13 41 -21 7 -7 24 -13 37 -13 13 0 26 -4 29 -9 3 -5 18 -12 33
-16 15 -3 30 -10 33 -13 3 -4 26 -17 53 -30 37 -18 47 -29 47 -48 0 -13 4 -24
9 -24 5 0 12 -17 16 -37 4 -21 10 -40 13 -43 16 -12 52 -91 52 -114 0 -15 5
-26 10 -26 6 0 10 -13 10 -29 0 -16 6 -36 14 -43 7 -8 17 -30 21 -49 4 -19 12
-39 17 -46 5 -6 12 -38 15 -70 3 -32 9 -62 13 -68 4 -5 10 -30 14 -55 4 -24
11 -49 15 -55 5 -5 11 -28 14 -49 4 -22 11 -42 17 -46 6 -3 13 -43 17 -88 3
-45 9 -82 13 -82 4 0 10 -27 14 -60 4 -33 11 -62 15 -65 5 -2 12 -21 16 -41 6
-35 4 -38 -76 -115 -45 -44 -94 -87 -110 -96 -16 -10 -29 -22 -30 -28 0 -9
-55 -56 -134 -115 -19 -14 -34 -28 -35 -32 0 -10 -46 -58 -54 -58 -10 0 -36
-27 -36 -37 0 -10 -45 -53 -55 -53 -10 0 -30 -23 -38 -42 -3 -10 -13 -18 -22
-18 -8 0 -15 -4 -15 -10 0 -5 -4 -10 -9 -10 -5 0 -25 -15 -44 -32 -73 -68 -76
-70 -147 -63 -36 4 -69 10 -75 15 -5 4 -32 10 -59 14 -27 3 -54 10 -60 15 -6
5 -29 13 -51 17 -22 4 -43 11 -46 16 -3 5 -29 11 -57 15 -29 3 -52 9 -52 13 0
4 -18 10 -41 14 -23 4 -48 13 -56 21 -8 8 -25 15 -39 15 -13 0 -24 4 -24 9 0
5 -10 11 -22 13 -19 2 -24 10 -26 41 -2 20 -7 37 -11 37 -5 0 -12 32 -15 70
-4 39 -11 70 -15 70 -5 0 -12 30 -16 68 -4 37 -11 70 -16 73 -5 3 -12 40 -15
82 -4 42 -10 77 -14 77 -4 0 -10 22 -14 50 -4 27 -11 52 -16 55 -6 3 -10 14
-10 23 0 10 -9 25 -20 35 -13 11 -20 29 -20 52 0 19 -4 35 -9 35 -4 0 -11 27
-15 60 -4 33 -11 60 -16 60 -4 0 -12 29 -15 65 -4 36 -11 65 -15 65 -5 0 -12
30 -15 68 -4 37 -11 72 -15 77 -4 6 -10 23 -14 40 -4 16 -12 32 -17 36 -5 3
-12 30 -16 60 -3 30 -9 56 -13 59 -4 3 -10 22 -13 43 -5 30 -2 39 11 44 9 4
40 28 67 54 127 121 173 163 214 197 24 20 69 60 101 87 32 28 69 59 83 70 14
11 26 26 27 33 0 6 7 12 16 12 9 0 26 10 38 23 38 40 77 66 92 60 8 -3 14 -9
14 -13z m1020 -420 c0 -5 14 -11 30 -15 17 -4 30 -11 30 -16 0 -5 11 -11 25
-15 14 -3 25 -10 25 -15 0 -5 6 -9 13 -9 19 0 91 -40 100 -56 4 -8 17 -14 27
-14 11 0 20 -4 20 -10 0 -5 8 -10 18 -10 11 0 29 -9 42 -20 13 -11 29 -20 36
-20 7 0 14 -3 16 -7 4 -10 91 -53 107 -53 6 0 11 -4 11 -10 0 -5 7 -10 15 -10
8 0 23 -9 32 -20 10 -11 23 -20 30 -20 7 0 13 -4 13 -10 0 -5 6 -10 13 -10 6
0 30 -16 52 -37 l39 -36 -22 -15 c-12 -8 -22 -21 -22 -28 0 -8 -4 -14 -10 -14
-5 0 -10 -7 -10 -15 0 -8 -9 -20 -20 -27 -11 -7 -20 -18 -20 -25 0 -7 -4 -13
-10 -13 -5 0 -10 -5 -10 -11 0 -12 -70 -89 -144 -158 -27 -25 -83 -79 -123
-120 -51 -50 -78 -70 -85 -63 -5 5 -12 46 -15 91 -3 44 -9 81 -13 81 -4 0 -11
25 -15 55 -3 30 -10 55 -15 55 -4 0 -11 21 -15 48 -4 26 -12 50 -17 53 -6 4
-13 39 -16 78 -2 39 -9 71 -13 71 -5 0 -9 12 -9 28 0 15 -6 39 -14 54 -8 15
-17 42 -21 60 -4 18 -12 36 -16 39 -5 3 -12 23 -14 45 -3 21 -10 41 -15 42 -6
2 -10 9 -10 15 0 7 -9 29 -20 50 -11 21 -18 42 -15 47 6 10 35 2 35 -10z
m-1800 -265 c0 -8 4 -15 9 -15 5 0 13 -29 16 -65 4 -36 11 -65 15 -65 4 0 10
-22 14 -50 4 -27 10 -52 15 -54 5 -3 12 -38 16 -78 3 -40 10 -77 15 -83 4 -5
11 -39 14 -75 4 -35 11 -67 15 -70 5 -3 12 -20 16 -37 3 -18 11 -33 15 -33 5
0 12 -17 16 -37 4 -21 10 -42 14 -48 4 -5 11 -34 15 -62 4 -29 11 -55 15 -58
5 -3 11 -39 15 -80 4 -42 11 -77 15 -80 5 -3 11 -43 15 -90 4 -47 11 -85 16
-85 5 0 9 -7 9 -15 0 -8 -2 -15 -6 -15 -9 0 -89 45 -92 52 -2 4 -19 10 -38 14
-19 3 -34 10 -34 15 0 5 -13 9 -28 9 -16 0 -39 9 -52 20 -13 11 -31 20 -42 20
-10 0 -18 4 -18 10 0 5 -16 12 -35 16 -19 3 -35 10 -35 15 0 5 -11 9 -25 9
-14 0 -42 9 -62 20 -21 11 -43 20 -50 20 -6 0 -13 5 -15 11 -2 5 -22 13 -46
16 -23 3 -42 9 -42 13 0 4 -19 10 -41 13 -23 3 -45 10 -48 15 -3 6 -19 14 -34
17 -15 4 -27 11 -27 15 0 5 -13 11 -30 15 -16 4 -30 11 -30 16 0 5 -6 9 -13 9
-7 0 -24 12 -37 28 -14 15 -37 35 -52 45 -36 23 -35 35 7 81 19 21 35 42 35
47 0 5 5 9 10 9 6 0 10 9 10 20 0 11 5 20 10 20 12 0 60 48 60 59 0 4 18 26
40 49 22 22 40 45 40 49 0 5 12 20 28 33 15 14 45 47 67 75 52 64 73 85 85 85
6 0 10 7 10 15 0 8 5 15 10 15 6 0 10 7 10 15 0 9 8 19 18 22 9 4 20 11 24 17
3 6 39 46 80 88 72 76 98 93 98 63z m2642 -275 c27 -27 56 -50 64 -50 7 0 14
-4 14 -10 0 -5 6 -10 13 -10 7 0 20 -8 29 -17 29 -31 47 -43 63 -43 8 0 23 -9
32 -20 10 -11 23 -20 30 -20 7 0 13 -4 13 -9 0 -5 11 -12 25 -15 14 -4 25 -11
25 -16 0 -6 8 -10 19 -10 10 0 30 -9 44 -20 14 -11 30 -20 36 -20 6 0 11 -4
11 -10 0 -5 11 -12 25 -16 14 -3 25 -10 25 -14 0 -4 12 -11 26 -14 14 -4 32
-12 40 -19 8 -7 20 -17 27 -22 7 -6 29 -21 49 -33 20 -13 47 -39 58 -58 12
-18 25 -34 29 -34 5 0 19 -22 32 -50 13 -27 26 -50 29 -50 3 0 16 -20 30 -45
14 -25 28 -45 32 -45 5 0 8 -9 8 -20 0 -10 6 -23 13 -27 19 -12 57 -90 57
-118 0 -14 5 -25 10 -25 6 0 10 -6 10 -13 0 -7 9 -29 20 -50 11 -20 20 -46 20
-56 0 -11 5 -21 11 -23 6 -2 14 -27 17 -56 2 -29 9 -55 13 -58 5 -3 9 -12 9
-20 0 -8 9 -36 21 -61 18 -39 20 -61 17 -148 -2 -80 -7 -105 -20 -119 -10 -10
-18 -22 -18 -27 0 -5 -17 -26 -38 -47 -21 -20 -41 -45 -45 -54 -3 -10 -13 -18
-21 -18 -7 0 -27 -7 -42 -15 -16 -8 -36 -15 -44 -15 -9 0 -21 -5 -27 -11 -7
-7 -36 -9 -79 -6 -38 3 -177 11 -309 17 -132 6 -247 14 -256 19 -8 5 -79 12
-157 16 -78 4 -142 11 -142 15 0 5 -27 11 -60 15 -33 4 -62 11 -65 15 -3 5
-30 12 -60 15 -31 4 -58 12 -61 17 -8 13 -11 62 -18 278 -6 195 -12 250 -25
250 -5 0 -12 20 -15 45 -4 24 -11 47 -15 50 -5 2 -11 23 -15 45 -3 22 -10 40
-15 40 -5 0 -11 22 -15 49 -4 27 -11 51 -16 53 -6 2 -13 34 -17 71 -3 37 -10
70 -14 73 -16 10 -9 64 11 84 11 11 22 20 25 20 3 0 14 9 25 20 11 11 20 22
20 25 0 7 38 45 45 45 9 0 45 40 45 50 0 6 4 10 9 10 10 0 171 153 171 163 0
3 12 20 28 36 41 44 62 74 62 88 0 7 4 13 9 13 5 0 19 16 32 35 13 19 26 35
28 35 2 0 26 -22 53 -50z m-3369 -610 c19 -22 41 -40 47 -40 6 0 25 -13 43
-30 18 -16 38 -30 45 -30 6 0 12 -4 12 -10 0 -5 16 -12 35 -16 19 -3 35 -10
35 -14 0 -4 12 -11 26 -14 15 -4 33 -14 41 -21 8 -8 23 -15 34 -15 10 0 19 -4
19 -9 0 -5 25 -13 55 -16 30 -4 55 -11 55 -16 0 -5 6 -9 13 -9 7 0 29 -9 50
-20 20 -11 44 -20 52 -20 8 0 15 -4 15 -10 0 -5 15 -10 33 -10 20 0 44 -9 57
-20 13 -11 29 -20 37 -20 8 0 21 -7 29 -15 9 -8 24 -15 35 -15 10 0 19 -4 19
-10 0 -5 13 -10 29 -10 16 0 36 -7 44 -15 8 -7 26 -17 41 -21 14 -3 26 -10 26
-14 0 -5 14 -11 30 -15 17 -4 30 -10 30 -15 0 -5 15 -10 33 -12 28 -3 32 -7
35 -35 2 -18 7 -33 12 -33 5 0 12 -29 15 -65 4 -36 11 -68 16 -71 5 -3 9 -13
9 -22 0 -9 6 -29 14 -44 8 -15 17 -42 21 -60 4 -18 12 -36 17 -39 5 -3 12 -26
15 -50 3 -24 9 -46 13 -49 10 -8 28 -100 19 -100 -5 0 -17 -9 -28 -21 -11 -12
-24 -19 -28 -16 -5 3 -17 -2 -26 -11 -24 -26 -45 -42 -55 -42 -5 0 -19 -9 -32
-20 -13 -11 -29 -20 -37 -20 -7 0 -13 -4 -13 -10 0 -5 -6 -10 -13 -10 -7 0
-20 -9 -30 -20 -9 -11 -24 -20 -32 -20 -8 0 -15 -4 -15 -10 0 -5 -7 -10 -15
-10 -8 0 -23 -9 -32 -20 -10 -11 -23 -20 -30 -20 -7 0 -13 -4 -13 -9 0 -5 -11
-12 -25 -15 -14 -4 -25 -11 -25 -16 0 -6 -7 -10 -17 -10 -15 0 -31 -12 -71
-53 -9 -9 -27 -17 -39 -17 -13 0 -23 -4 -23 -10 0 -5 -5 -10 -10 -10 -14 0
-72 -41 -83 -57 -4 -7 -14 -13 -21 -13 -16 0 -55 -19 -76 -38 -47 -40 -64 -52
-77 -52 -7 0 -13 -4 -13 -10 0 -5 -7 -10 -15 -10 -8 0 -23 -9 -32 -20 -10 -11
-23 -20 -30 -20 -7 0 -13 -4 -13 -9 0 -5 -13 -12 -30 -16 -16 -4 -30 -10 -30
-15 0 -4 -11 -11 -25 -14 -14 -4 -25 -10 -25 -15 0 -5 -13 -12 -30 -16 -16 -4
-30 -11 -30 -16 0 -5 -8 -9 -17 -9 -10 0 -49 -16 -86 -35 -38 -19 -79 -35 -93
-35 -13 0 -24 -4 -24 -9 0 -4 -19 -11 -41 -14 -23 -3 -45 -10 -48 -15 -3 -5
-24 -12 -46 -16 -22 -5 -43 -13 -47 -19 -5 -8 -69 -14 -185 -19 -98 -4 -208
-10 -245 -14 -45 -4 -68 -3 -68 4 0 6 -7 12 -16 14 -15 3 -16 24 -15 183 1 99
6 184 10 190 5 5 11 34 14 64 4 29 11 58 16 65 5 6 12 37 16 69 4 31 11 57 15
57 4 0 10 28 13 62 3 34 10 64 16 66 6 2 11 16 11 30 0 15 7 39 14 54 8 16 18
60 22 98 4 39 11 73 15 76 5 3 9 16 9 29 0 13 7 30 15 38 7 8 17 26 21 41 3
14 10 26 15 26 5 0 9 9 9 20 0 20 37 81 53 88 4 2 7 8 7 13 0 13 41 72 58 82
6 4 12 15 12 22 0 8 6 15 13 15 6 0 18 14 25 30 8 17 27 43 43 59 16 16 29 32
29 36 0 8 43 69 53 73 4 2 7 9 7 16 0 6 9 19 20 29 11 9 20 24 20 32 0 8 5 15
10 15 6 0 10 5 10 11 0 7 16 27 35 46 19 19 35 38 35 43 0 5 12 23 28 39 45
49 106 123 115 137 12 21 21 17 60 -26z m2667 -130 c6 -30 15 -59 20 -64 6 -6
10 -19 10 -30 0 -12 7 -33 14 -48 8 -16 18 -48 22 -73 3 -25 10 -45 14 -45 5
0 11 -18 15 -40 4 -22 11 -42 16 -46 5 -3 9 -99 9 -214 l0 -209 -27 15 c-16 7
-40 14 -55 14 -14 0 -28 5 -30 11 -2 5 -22 13 -46 16 -23 3 -42 10 -42 14 0 5
-17 9 -37 9 -21 1 -56 9 -78 20 -22 11 -46 19 -52 20 -7 0 -13 4 -13 9 0 5
-14 13 -32 16 -18 4 -39 11 -48 16 -8 4 -32 11 -52 14 -21 3 -38 10 -38 15 0
5 -16 12 -35 16 -19 3 -35 10 -35 15 0 4 -17 11 -37 14 -21 3 -46 10 -55 16
-10 5 -28 9 -40 9 -20 0 -19 3 12 35 19 19 39 35 43 35 12 0 37 27 37 39 0 6
5 11 11 11 6 0 59 48 119 108 59 59 138 132 175 162 66 54 151 131 189 170 25
26 33 17 46 -50z m-1390 -460 c0 -5 16 -12 35 -16 19 -3 35 -10 35 -14 0 -5
24 -11 53 -15 28 -4 57 -11 62 -15 6 -4 31 -11 58 -14 26 -4 47 -11 47 -15 0
-5 26 -13 57 -17 31 -5 58 -15 61 -21 2 -7 -3 -13 -12 -13 -9 0 -16 -4 -16
-10 0 -5 -6 -10 -13 -10 -7 0 -20 -8 -29 -17 -25 -27 -43 -40 -80 -60 -19 -10
-50 -33 -69 -51 -19 -17 -42 -32 -51 -32 -10 0 -18 -4 -18 -10 0 -5 -8 -10
-19 -10 -20 0 -31 26 -31 78 0 17 -4 32 -10 32 -5 0 -10 8 -10 18 0 9 -6 29
-14 44 -8 15 -17 40 -21 57 -4 17 -10 31 -14 31 -4 0 -12 20 -18 45 -8 36 -8
45 3 45 8 0 14 -4 14 -10z m638 -181 c2 -5 21 -12 43 -15 21 -4 39 -10 39 -14
0 -4 25 -11 55 -15 31 -3 68 -13 83 -21 15 -7 33 -14 40 -14 7 0 20 -7 28 -15
9 -8 24 -15 34 -15 10 0 22 -4 25 -10 3 -5 19 -10 36 -10 16 0 46 -9 66 -20
21 -11 43 -20 50 -20 7 0 13 -4 13 -10 0 -5 17 -12 38 -16 20 -4 42 -10 47
-14 6 -4 36 -11 68 -14 31 -4 57 -11 57 -16 0 -4 21 -11 48 -15 59 -8 102 -26
102 -42 0 -7 -4 -13 -9 -13 -5 0 -13 -25 -16 -55 -4 -30 -11 -55 -15 -55 -4 0
-11 -31 -15 -70 -4 -38 -10 -70 -15 -70 -4 0 -10 -27 -14 -60 -4 -33 -11 -62
-16 -65 -6 -4 -10 -15 -10 -25 0 -10 -7 -25 -15 -34 -8 -8 -15 -17 -15 -21 0
-14 -45 -65 -57 -65 -7 0 -13 -7 -13 -15 0 -8 -4 -15 -10 -15 -5 0 -10 -11
-10 -23 0 -13 -9 -32 -20 -42 -11 -10 -20 -26 -20 -37 0 -10 -4 -18 -10 -18
-5 0 -12 -11 -16 -25 -3 -14 -10 -25 -15 -25 -5 0 -9 -6 -9 -14 0 -18 -70 -86
-87 -86 -7 0 -13 -4 -13 -9 0 -5 -13 -12 -30 -16 -16 -4 -30 -11 -30 -16 0 -5
-6 -9 -14 -9 -8 0 -21 -6 -28 -14 -8 -7 -25 -17 -38 -21 -14 -4 -27 -11 -30
-15 -3 -4 -17 -10 -32 -14 -21 -5 -32 -1 -45 14 -10 11 -25 20 -35 20 -10 0
-18 4 -18 10 0 5 -12 13 -27 16 -27 7 -93 63 -93 79 0 4 -11 18 -25 31 -14 13
-25 27 -25 31 0 5 -8 16 -17 25 -31 29 -43 47 -43 63 0 8 -6 15 -14 15 -8 0
-17 13 -21 30 -4 17 -11 30 -16 30 -5 0 -9 9 -9 19 0 11 -7 26 -15 35 -8 8
-15 19 -15 25 0 5 -6 16 -12 23 -16 18 -48 77 -48 89 0 5 -8 18 -17 28 -10 11
-25 28 -33 38 -17 20 -85 145 -101 186 -6 15 -15 27 -20 27 -5 0 -9 7 -9 15 0
9 -7 18 -15 21 -8 4 -15 11 -15 18 0 6 -12 22 -26 35 -24 23 -24 25 -7 34 10
6 22 16 26 24 4 7 15 13 22 13 8 0 15 4 15 10 0 5 11 12 25 16 14 3 25 10 25
15 0 5 6 9 13 9 6 0 25 14 41 30 16 16 37 32 47 35 11 4 19 11 19 16 0 5 6 9
13 9 6 0 25 14 41 31 17 16 40 32 53 35 13 4 23 10 23 15 0 5 7 9 15 9 8 0 15
6 15 14 0 8 6 17 13 20 16 7 61 -3 65 -15z"/>
<path d="M7643 3259 c-6 -6 -28 -26 -48 -45 -20 -19 -40 -34 -43 -34 -4 -1
-16 -13 -27 -27 -11 -14 -28 -33 -37 -42 -57 -55 -74 -72 -84 -84 -6 -7 -13
-60 -16 -117 -3 -65 -9 -105 -17 -108 -14 -5 -16 -292 -1 -292 5 0 13 -18 16
-40 4 -22 10 -40 14 -40 4 0 11 -11 14 -25 4 -14 11 -25 16 -25 6 0 10 -9 10
-20 0 -11 9 -28 20 -37 11 -10 20 -28 20 -40 0 -13 5 -23 10 -23 6 0 10 -5 10
-11 0 -17 60 -72 99 -92 19 -10 65 -20 103 -24 38 -3 71 -10 74 -14 7 -12 264
-12 264 0 0 5 16 12 35 15 19 4 35 11 35 16 0 6 6 10 13 10 14 0 42 19 93 66
23 21 34 40 34 58 0 18 12 38 35 60 19 19 35 38 35 45 0 6 4 11 9 11 4 0 11
21 15 46 3 25 13 52 21 60 8 9 15 28 15 44 0 16 4 31 9 35 5 3 12 31 16 63 3
31 10 65 15 74 15 27 12 251 -3 280 -14 28 -42 58 -53 58 -8 0 -17 8 -75 65
-20 19 -41 35 -48 35 -6 0 -11 4 -11 9 0 5 -33 12 -74 16 -69 6 -75 8 -81 32
-13 52 -19 53 -227 53 -117 -1 -198 -5 -205 -11z m286 -208 c5 -8 34 -15 74
-18 37 -3 67 -10 67 -14 0 -5 15 -9 34 -9 44 0 66 -9 66 -26 0 -8 7 -14 15
-14 8 0 15 -4 15 -8 0 -4 14 -16 30 -25 l30 -18 0 -105 0 -104 -35 0 c-23 0
-41 -7 -52 -20 -16 -18 -30 -20 -129 -20 -87 0 -114 3 -124 15 -7 8 -20 15
-29 15 -9 0 -25 10 -36 23 -18 19 -20 37 -20 145 0 83 4 125 12 130 6 4 15 20
18 35 4 15 11 27 16 27 5 0 9 10 9 23 1 22 1 22 16 2 8 -11 19 -26 23 -34z
m296 -470 c3 -5 -1 -15 -8 -23 -8 -7 -17 -29 -21 -49 -3 -20 -13 -44 -20 -55
-13 -18 -14 -17 -9 6 6 34 -21 70 -38 53 -7 -7 -21 -13 -31 -13 -10 0 -18 -5
-18 -12 0 -16 -31 -48 -47 -48 -7 0 -13 11 -13 24 0 15 -7 26 -20 29 -11 3
-20 12 -20 21 0 25 -66 22 -80 -4 -6 -11 -20 -20 -30 -20 -11 0 -20 -4 -20
-10 0 -5 -9 -10 -20 -10 -11 0 -20 5 -20 10 0 6 4 10 9 10 5 0 11 9 14 20 3
11 12 20 21 20 11 0 16 9 16 26 0 23 2 25 17 13 12 -10 51 -14 149 -14 114 0
136 3 151 18 19 19 29 21 38 8z"/>
<path d="M14018 3747 c-7 -8 -47 -17 -87 -21 -64 -5 -77 -10 -98 -34 -29 -34
-29 -50 2 -84 23 -27 27 -28 124 -28 55 0 102 4 106 9 3 5 19 12 36 16 17 4
33 13 36 21 3 8 9 11 14 8 5 -3 9 14 9 38 -1 38 -5 46 -36 66 -40 25 -86 29
-106 9z"/>
<path d="M13441 3489 c-17 -17 -31 -39 -31 -50 0 -10 -4 -19 -9 -19 -5 0 -13
-10 -17 -22 -4 -13 -10 -25 -15 -28 -4 -3 -11 -21 -14 -40 -3 -19 -10 -36 -16
-38 -5 -2 -9 -46 -9 -98 0 -74 4 -98 17 -114 10 -11 21 -20 26 -20 5 0 15 -7
23 -15 9 -8 33 -15 54 -15 21 0 42 -4 45 -10 4 -6 55 -10 121 -10 69 0 114 4
114 10 0 6 10 10 23 10 37 0 50 16 54 67 6 59 5 60 -122 68 -75 5 -210 14
-227 15 -16 1 -7 30 10 31 49 2 77 13 104 40 16 16 34 29 40 29 5 0 23 13 39
29 26 26 29 36 29 91 0 58 -2 64 -32 91 -30 26 -40 29 -105 29 -67 0 -74 -2
-102 -31z"/>
<path d="M12680 3230 c0 -5 -7 -10 -17 -10 -9 0 -23 -7 -32 -15 -9 -8 -30 -26
-47 -40 -18 -14 -35 -36 -38 -50 -4 -14 -13 -25 -21 -25 -8 0 -15 -5 -15 -11
0 -6 -7 -17 -15 -25 -11 -11 -14 -33 -13 -76 2 -42 -1 -63 -9 -65 -9 -3 -13
-29 -13 -84 0 -86 13 -112 65 -125 14 -3 28 -10 31 -15 3 -5 20 -9 39 -9 35 0
65 -21 65 -46 0 -24 24 -42 64 -49 20 -4 36 -11 36 -16 0 -14 188 -11 206 4
30 25 40 32 59 43 11 6 24 20 30 32 5 12 15 22 22 22 7 0 25 12 40 26 l28 26
3 190 c2 105 1 200 -2 212 -3 14 -24 31 -53 46 -26 13 -54 30 -61 37 -7 7 -33
13 -57 13 -24 0 -47 5 -50 10 -4 6 -57 10 -126 10 -73 0 -119 -4 -119 -10z"/>
<path d="M11568 3166 c-10 -7 -18 -21 -18 -30 0 -9 -4 -16 -10 -16 -14 0 -12
-22 6 -58 8 -18 22 -32 30 -32 8 0 14 -4 14 -10 0 -5 10 -10 23 -10 12 -1 49
-14 82 -30 l60 -30 -260 4 c-261 4 -567 25 -581 39 -11 11 -344 9 -344 -3 0
-5 -8 -10 -18 -10 -32 0 -52 -33 -52 -85 0 -39 5 -52 28 -74 25 -24 37 -26
142 -33 63 -4 151 -11 195 -17 44 -5 128 -10 187 -10 60 -1 110 -5 113 -11 4
-6 92 -10 231 -10 l224 0 -6 -38 c-4 -28 -2 -43 10 -55 9 -8 16 -20 16 -26 0
-6 7 -11 15 -11 8 0 15 -4 15 -10 0 -6 27 -10 60 -10 33 0 60 4 60 10 0 6 8
10 18 10 10 0 25 9 35 20 9 11 23 20 31 20 8 0 16 5 18 10 2 6 23 13 48 16 25
3 47 9 48 15 2 5 14 9 27 9 13 0 30 6 37 13 7 7 21 16 31 20 9 3 17 13 17 22
0 8 5 15 10 15 6 0 10 20 10 45 0 25 -4 45 -10 45 -5 0 -10 5 -10 11 0 14
-120 127 -142 135 -10 3 -18 12 -18 20 0 8 -5 14 -10 14 -6 0 -23 11 -37 25
-15 13 -40 27 -55 30 -15 4 -28 10 -28 15 0 5 -13 11 -30 15 -16 4 -30 11 -30
15 0 5 -16 12 -35 16 -19 3 -35 10 -35 15 0 14 -93 10 -112 -5z"/>
<path d="M2578 3101 c-16 -17 -28 -35 -28 -40 0 -6 -4 -11 -9 -11 -5 0 -12
-16 -15 -35 -4 -19 -11 -35 -16 -35 -6 0 -10 -20 -10 -45 0 -31 -5 -47 -14
-51 -8 -3 -18 -19 -21 -35 -4 -16 -11 -29 -16 -29 -5 0 -11 -11 -15 -25 -3
-14 -10 -25 -15 -25 -5 0 -9 -7 -9 -15 0 -8 -9 -23 -20 -32 -11 -10 -20 -21
-20 -25 0 -8 -20 -33 -85 -105 l-40 -45 -79 4 c-51 2 -81 8 -84 16 -2 6 -10
12 -17 12 -8 0 -24 20 -36 45 -12 25 -26 45 -31 45 -4 0 -11 18 -14 40 -4 22
-10 40 -14 40 -4 0 -11 12 -14 26 -7 27 -18 43 -48 72 -10 9 -18 24 -18 34 0
17 -20 45 -62 90 -10 10 -18 22 -18 27 0 18 -92 101 -111 101 -10 0 -19 5 -19
10 0 6 -45 10 -115 10 -70 0 -115 -4 -115 -10 0 -5 -14 -10 -31 -10 -44 0 -94
-26 -123 -65 -14 -18 -32 -40 -40 -48 -8 -8 -18 -26 -22 -41 -3 -14 -10 -26
-15 -26 -5 0 -9 -7 -9 -16 0 -18 -39 -87 -52 -92 -4 -2 -8 -8 -8 -14 0 -5 -6
-24 -14 -41 -8 -18 -17 -49 -21 -69 -3 -21 -10 -38 -15 -38 -4 0 -12 -15 -15
-32 -4 -18 -11 -37 -15 -43 -4 -5 -11 -25 -15 -42 -3 -18 -11 -33 -16 -33 -5
0 -9 -5 -9 -12 0 -19 -50 -58 -75 -58 -11 0 -26 -5 -33 -12 -9 -9 -12 -9 -12
0 0 7 -6 12 -12 12 -17 0 -77 69 -84 97 -3 12 -12 24 -20 27 -9 4 -14 21 -14
50 0 25 -4 47 -9 50 -5 4 -12 24 -16 46 -4 22 -11 40 -15 40 -5 0 -12 14 -15
32 -4 17 -14 38 -21 46 -8 7 -14 31 -14 53 0 21 -4 39 -9 39 -5 0 -12 14 -16
30 -4 17 -11 30 -16 30 -5 0 -13 8 -16 18 -4 9 -12 22 -17 28 -6 7 -19 22 -29
34 -16 19 -26 22 -61 18 -45 -5 -106 -49 -106 -75 0 -7 -4 -13 -9 -13 -5 0
-12 -13 -16 -30 -4 -16 -10 -30 -15 -30 -4 0 -11 -11 -14 -25 -8 -32 -46 -95
-57 -95 -5 0 -9 -7 -9 -15 0 -8 -4 -15 -10 -15 -5 0 -10 -5 -10 -11 0 -9 -22
-36 -82 -100 -10 -11 -18 -24 -18 -29 0 -5 -4 -10 -9 -10 -5 0 -11 -9 -14 -20
-3 -11 -11 -20 -19 -20 -7 0 -21 -12 -30 -27 -9 -16 -30 -41 -47 -58 -17 -16
-31 -35 -31 -42 0 -6 -5 -13 -11 -15 -14 -5 -24 -97 -15 -132 6 -23 11 -26 53
-26 42 0 50 4 84 43 21 23 39 45 39 48 0 10 48 59 57 59 5 0 14 13 20 28 7 15
28 43 48 62 19 19 35 40 35 46 0 6 20 33 45 60 24 27 45 55 45 62 0 6 5 12 10
12 6 0 10 7 10 15 0 8 9 23 20 32 11 10 20 25 20 35 0 10 4 18 9 18 4 0 12 23
17 52 8 48 34 81 34 43 0 -9 7 -23 15 -31 8 -9 15 -26 15 -39 0 -12 7 -25 15
-29 11 -4 15 -20 15 -56 0 -27 5 -50 10 -50 6 0 10 -8 10 -17 1 -10 9 -36 20
-58 11 -22 19 -50 20 -62 0 -13 4 -23 9 -23 5 0 12 -18 16 -40 4 -22 11 -40
16 -40 5 0 9 -5 9 -11 0 -7 16 -26 35 -45 19 -18 35 -36 35 -39 0 -14 28 -33
58 -40 18 -3 32 -11 32 -16 0 -5 27 -9 60 -9 33 0 60 4 60 9 0 5 12 12 28 16
30 7 92 51 92 65 0 5 11 21 25 36 14 15 28 38 31 51 4 13 10 23 14 23 4 0 11
25 15 55 3 30 10 55 15 55 4 0 11 16 14 35 4 19 11 35 16 35 4 0 11 13 15 30
4 16 11 32 16 35 5 4 9 15 9 27 0 11 9 31 20 45 11 14 20 32 20 39 0 8 4 14
10 14 5 0 12 11 16 25 3 14 10 25 15 25 5 0 9 6 9 13 0 21 44 57 68 57 12 0
22 4 22 9 0 5 38 12 86 16 l85 7 52 -55 c69 -74 77 -84 77 -97 0 -5 6 -10 14
-10 16 0 26 -21 26 -56 0 -13 4 -24 9 -24 5 0 12 -13 16 -30 4 -16 11 -30 16
-30 5 0 9 -6 9 -13 0 -8 9 -24 20 -37 11 -13 20 -34 20 -47 0 -13 8 -36 18
-51 26 -40 122 -132 138 -132 8 0 14 -4 14 -10 0 -6 47 -10 120 -10 73 0 120
4 120 10 0 6 7 10 15 10 8 0 15 4 15 8 0 5 29 40 65 78 36 38 72 85 81 104 10
19 22 40 28 47 34 39 62 93 71 141 4 17 10 32 15 32 4 0 11 16 14 35 4 19 11
35 16 35 4 0 11 19 15 42 16 93 80 82 139 -23 11 -19 25 -38 33 -42 7 -4 13
-19 13 -32 0 -14 4 -25 9 -25 5 0 12 -16 15 -35 4 -19 11 -35 16 -35 4 0 11
-13 15 -30 4 -16 10 -30 15 -30 5 0 11 -15 15 -32 8 -44 52 -132 76 -154 10
-9 19 -23 19 -31 0 -7 5 -13 10 -13 6 0 10 -6 10 -14 0 -8 9 -18 20 -21 11 -3
20 -11 20 -16 0 -5 6 -9 14 -9 8 0 22 -7 30 -16 22 -22 109 -21 155 3 41 20
91 70 91 89 0 8 9 18 20 24 11 6 20 17 20 25 0 8 4 15 9 15 5 0 12 14 16 30 4
17 11 30 16 30 5 0 9 13 9 29 0 16 6 36 14 43 8 8 16 23 18 34 6 33 23 21 32
-23 6 -24 13 -43 18 -43 4 0 8 -13 8 -29 0 -56 12 -90 34 -97 35 -11 90 -37
104 -51 17 -17 48 -17 64 0 10 11 17 11 39 0 30 -15 72 -9 90 13 6 8 18 14 26
14 8 0 28 12 43 28 51 47 58 51 99 58 23 4 41 10 41 15 0 5 7 9 16 9 9 0 27 9
41 20 14 11 32 20 39 20 8 0 14 4 14 8 0 5 18 16 40 26 22 10 40 24 40 32 0 8
5 14 10 14 18 0 12 85 -7 103 -54 52 -100 87 -115 87 -9 0 -19 4 -22 9 -4 5
-24 12 -46 16 -22 4 -42 11 -45 16 -3 4 -28 11 -55 15 -28 4 -50 10 -50 14 0
4 -22 10 -49 14 -27 4 -75 20 -108 36 -32 16 -66 30 -75 30 -9 0 -20 5 -23 10
-3 6 -40 10 -81 10 -43 0 -74 -4 -74 -10 0 -5 -9 -10 -20 -10 -21 0 -56 -62
-45 -79 4 -7 -5 -11 -22 -11 -41 0 -53 -17 -53 -71 0 -26 -4 -50 -9 -53 -5 -3
-12 -26 -15 -51 -4 -25 -14 -57 -22 -73 -7 -15 -14 -33 -14 -39 0 -7 -4 -13
-10 -13 -5 0 -12 -11 -16 -25 -3 -14 -10 -25 -15 -25 -5 0 -9 -7 -9 -16 0 -17
-87 -114 -102 -114 -21 0 -80 60 -103 106 -11 21 -22 41 -25 44 -16 15 -38 59
-44 88 -4 17 -11 32 -16 32 -4 0 -11 11 -14 25 -4 14 -11 25 -16 25 -6 0 -10
4 -10 10 0 18 -44 110 -52 110 -4 0 -8 5 -8 11 0 10 -59 89 -90 119 -33 33
-68 47 -130 53 -63 6 -66 6 -92 -22z"/>
<path d="M1165 1796 c-25 -18 -35 -88 -44 -309 -5 -124 -11 -181 -19 -186 -7
-4 -15 -25 -19 -47 -3 -21 -10 -42 -16 -45 -11 -8 -22 -206 -14 -240 8 -29 64
-69 98 -69 26 0 89 48 89 68 0 7 5 12 10 12 6 0 10 31 11 73 0 39 5 95 11 122
5 28 13 85 16 128 l7 78 83 3 c46 1 87 7 90 13 9 13 57 24 76 17 11 -4 12 -11
6 -22 -5 -10 -12 -33 -15 -54 -3 -20 -12 -39 -20 -42 -8 -3 -15 -12 -15 -21 0
-8 -4 -15 -10 -15 -5 0 -13 -12 -16 -27 -4 -16 -12 -31 -17 -35 -15 -10 -21
-122 -8 -146 6 -12 23 -25 36 -28 14 -3 25 -10 25 -15 0 -12 167 -12 174 0 3
5 26 12 51 15 25 4 45 11 45 17 0 5 6 9 14 9 14 0 72 54 130 121 28 33 50 94
40 111 -7 11 -42 10 -49 -1 -3 -6 -27 -20 -53 -33 -26 -13 -49 -26 -53 -30 -3
-5 -27 -11 -55 -14 -27 -4 -51 -10 -54 -15 -4 -6 -51 -13 -73 -10 -5 1 1 13
12 27 12 15 21 35 21 45 0 9 6 19 13 22 16 5 15 249 -2 255 -6 2 -18 10 -25
18 -16 16 -131 20 -140 5 -3 -4 -28 -11 -56 -15 -27 -4 -50 -11 -50 -16 0 -6
-11 -10 -25 -10 -13 0 -35 -12 -49 -26 l-24 -27 -4 167 c-2 135 -6 169 -18
176 -22 14 -94 12 -115 -4z"/>
<path d="M2032 1531 c-10 -23 -10 -33 3 -57 11 -21 15 -61 15 -146 0 -124 -4
-148 -26 -148 -8 0 -14 -6 -14 -14 0 -8 -11 -17 -25 -20 -47 -12 -65 -36 -65
-89 0 -45 2 -50 30 -60 17 -6 30 -15 30 -19 0 -13 46 -9 76 7 16 8 39 15 52
15 12 0 22 4 22 9 0 6 20 13 45 17 25 3 45 10 45 15 0 5 8 9 19 9 10 0 52 34
92 76 41 42 83 83 93 92 11 9 33 31 50 47 17 17 43 36 59 44 17 9 27 22 27 37
0 13 5 26 10 29 6 3 10 19 10 35 0 16 -4 32 -10 35 -5 3 -10 18 -10 33 0 38
-12 52 -51 61 -59 12 -93 0 -104 -36 -5 -18 -13 -33 -17 -33 -4 0 -8 -18 -8
-40 0 -29 -5 -43 -17 -47 -20 -8 -69 -56 -112 -110 -18 -24 -36 -43 -41 -43
-4 0 -10 44 -12 98 -3 64 -10 107 -21 127 -9 17 -17 37 -17 45 -1 32 -37 60
-77 60 -32 0 -40 -4 -51 -29z"/>
</g>
</svg>
