<svg viewBox="0 0 737.28 270.72" xmlns="http://www.w3.org/2000/svg"><path d="M398.42 269.62c-.28-.336-.345-2.41-.246-7.76.074-4.016.192-7.589.262-7.94.123-.62-.099-.648-6.753-.85-13.087-.396-52.024-.937-58.24-.809-7.18.149-14.025.675-17.552 1.35-3.656.7-14.88.614-24.028-.184-4.114-.358-7.585-.716-7.712-.795-.128-.079-2.23-.378-4.67-.664-3.062-.36-8.34-.57-17.016-.676l-12.577-.155-1.201.795-1.2.794-11.343.17c-6.835.102-11.978.317-12.942.54-1.217.283-6.023.277-20.07-.022-11.544-.247-20.066-.289-22.72-.113-4.261.282-13.304.316-34.49.129-7.005-.062-12.709.04-14.88.265-1.936.201-9.568.52-16.96.708-11.974.304-13.824.284-16.96-.184-4.909-.733-8.711-.932-9.251-.483-.24.2-.591.97-.78 1.713-.478 1.887-2.034 4.21-3.473 5.185a97.624 97.624 0 00-2.273 1.594c-.581.424-2.01 1.088-3.175 1.475-1.956.651-2.34.678-5 .35-5.233-.644-8.503-2.896-9.983-6.877-.47-1.263-.97-2.6-1.112-2.972-.241-.631-.554-.686-4.845-.847-4.361-.164-10.546-1.183-11.275-1.859-.167-.154-.055-.621.267-1.113.633-.965 1.094-.964 5.3.01 2.419.56 9.733 1.118 10.273.784.16-.099.5-.982.755-1.961.796-3.056 2.018-5.214 3.959-6.996.997-.916 2.173-1.824 2.613-2.018s1.44-.752 2.223-1.239c1.292-.805 1.7-.886 4.44-.886 2.735 0 3.21.094 5.053 1.002 3.15 1.55 4.66 3.386 5.855 7.117.544 1.699.99 3.52.99 4.045v.956h2.528c1.39 0 4.522.298 6.96.663 4.267.637 4.936.649 18.032.31 7.48-.192 13.96-.453 14.4-.579s12.104-.267 25.92-.315c13.816-.047 28.72-.12 33.12-.162s13.904.045 21.12.195c9.869.204 13.635.176 15.2-.114 1.144-.212 6.688-.49 12.32-.618 9.05-.206 10.407-.304 11.68-.847 1.326-.564 2.314-.613 12.48-.613 10.998 0 17.227.342 23.68 1.3 9.903 1.47 26.245 1.85 33.6.78 2.376-.345 5.248-.63 6.383-.634 1.135-.003 3.223-.169 4.64-.368 2.334-.327 35.808-.024 62.62.569 5.2.114 6.366.058 6.75-.326.478-.478.883-6.755.885-13.737 0-4.153.613-5.374 2.668-5.329 1.32.03 6.823 3.605 12.48 8.109 1.08.86 2.484 1.892 3.119 2.292.634.4 2.148 1.58 3.364 2.623 4.624 3.964 7.738 5.68 9.396 5.181.256-.077.472.045.48.272.008.226.181.515.386.641.533.33 4.518-.08 8.428-.867 7.768-1.563 8.29-1.614 16.603-1.62 4.468-.003 8.644.127 9.28.29 4.397 1.124 8.12 1.4 24.677 1.83 13.36.347 49.677-1.22 55.84-2.408 7.266-1.402 10.894-1.775 13.17-1.356 1.483.273 2.227.29 2.46.056.235-.234.219-1.666-.052-4.737-.572-6.48-.5-15.26.148-18.098.438-1.914.492-3.383.323-8.703-.112-3.52-.422-8.272-.688-10.56-.384-3.303-.479-8.214-.461-23.84l.022-19.68-1.54-.16c-1.206-.125-1.61-.317-1.858-.88-.173-.396-.488-.72-.698-.72-.448 0-.63-.537-.925-2.72-.119-.88-.485-2.896-.813-4.48-.51-2.46-.598-4.381-.603-13.177-.006-12.042.146-11.48-3.022-11.201-1.068.094-4.42.349-7.448.567-3.029.217-5.654.487-5.834.598-.18.111-.395 1.492-.479 3.068-.092 1.748-.47 3.917-.967 5.562-.448 1.483-.817 3.21-.82 3.84-.002.629-.203 2.007-.445 3.063-.243 1.056-.544 3.062-.668 4.457-.2 2.228-.342 2.653-1.17 3.48-.858.859-1.076.925-2.447.74-2.04-.275-9.937-.89-11.004-.857-.472.015-.949-.118-1.059-.296-.37-.6-1.368-.33-3.09.833a34.906 34.906 0 01-3.527 2.04c-.998.486-2.244 1.19-2.77 1.564-.524.373-1.05.68-1.168.68s-1.68.743-3.47 1.651-3.833 1.936-4.537 2.281-1.667.902-2.14 1.235c-.472.334-1.84 1.111-3.04 1.728-1.199.617-2.756 1.446-3.46 1.842s-2.504 1.246-4 1.888c-1.496.642-3.144 1.388-3.663 1.658-1.116.58-1.584.311-2.08-1.193-.228-.69-.233-1.377-.016-2.132.175-.613.319-1.692.318-2.397v-1.282l-2.479-.558c-1.67-.376-4.098-.579-7.44-.622l-4.96-.065-.22 2.383c-.122 1.324 0 6.078.275 10.702.272 4.576.563 10.696.646 13.6.142 4.943.196 5.314.846 5.823l.694.544-1.427 1.456c-1.43 1.46-2.152 1.75-2.785 1.117-.24-.24-1.536-.227-4.4.042-5.077.477-15.61.27-16.323-.321-.595-.495-.187-1.476.736-1.77.331-.104 2.068-.052 3.86.116 3.714.35 14.714-.08 15.712-.614.579-.31.626-.688.616-4.885-.006-2.501-.142-6.007-.303-7.79-.494-5.475-.748-15.133-.495-18.826.233-3.405.271-3.539 1.294-4.562 1.119-1.118 2.075-1.147 2.075-.063 0 .806.526.89 6.72 1.07 2.904.085 5.784.197 6.4.248l1.12.094v-7.264c0-5.4-.103-7.368-.401-7.666-.593-.592-12.995-1.182-25.418-1.208-5.962-.013-10.812-.156-11.28-.334-.947-.36-1.075-1.13-.261-1.563.451-.24 23.742.008 35.12.373l1.92.062v-4.588c0-4.435.025-4.608.755-5.2.958-.776 1.009-.772 2.158.18 1.235 1.024 5.889 3.85 7.6 4.616.73.327 2.767 1.031 4.527 1.565s4.666 1.418 6.458 1.964c1.793.546 4.457 1.548 5.92 2.226 3.736 1.732 9.225 5.437 11.348 7.66.602.63.816.686 1.404.372.492-.264 1.98-.305 5.136-.143 3.643.188 4.465.15 4.568-.211.12-.422.423-2.162 1.355-7.801.232-1.408.709-3.568 1.058-4.8.446-1.569.642-3.26.654-5.645.023-4.153.284-4.6 3.066-5.257 1.052-.248 4.433-.592 7.513-.765 5.852-.328 7.589-.547 8.215-1.036.272-.214.382-3.315.403-11.364.03-11.447-.008-10.967 1.618-20.77.178-1.077.324-2.568.324-3.315 0-1.255-.055-1.344-.733-1.174-.403.101-2.079.337-3.724.523s-3.083.396-3.196.466c-.113.07-1.425.291-2.916.493-1.491.2-3.36.562-4.151.802-3.97 1.205-7.597 1.68-8.624 1.13-.67-.359-.713-.548-.562-2.518.09-1.172.31-3.066.488-4.21.487-3.124.798-32.861.346-33.14-.197-.122-3.259-.286-6.803-.365-3.545-.079-6.827-.288-7.295-.466-.73-.277-1.077-.166-2.48.799-.896.617-2.143 1.29-2.77 1.498-1.23.405-5.12 2.394-7.585 3.876-.838.504-1.603.917-1.698.917-.663 0-4.402 2.24-7.486 4.483-4.872 3.544-12.563 7.253-14.48 6.98-1.26-.178-1.983-2.183-2.169-6.023l-.162-3.36-4.16-.215a815.812 815.812 0 00-6.72-.32l-2.56-.105-.111 1.92c-.06 1.056.047 3.504.239 5.44s.398 9.113.458 15.95c.116 13.254.108 13.33-1.417 13.33-.443 0-.683-.288-.823-.987-.109-.544-.396-1.064-.639-1.157-.242-.093-2.058.067-4.034.357-1.977.29-5.898.61-8.714.712-5.731.209-5.847.248-9.093 3.131-2.47 2.194-3.335 2.414-1.067.271 1.1-1.038 2-2.08 2-2.313 0-.234-1.356-1.808-3.015-3.5-1.658-1.69-3.825-4.082-4.815-5.314-.99-1.232-3.773-4.236-6.185-6.676l-4.385-4.436-5.12.238c-2.816.13-6.124.281-7.351.335-1.228.054-3.46.352-4.96.663-4.097.846-12.347.822-14.728-.044-1.963-.714-2.355-1.605-1.002-2.28.613-.305 1.182-.26 2.956.231 2.779.77 8.53.81 12.605.087 3.367-.597 8.1-1.014 14.498-1.28l4.578-.19 2.415 2.356c4.048 3.95 6.99 7.053 8.757 9.236.925 1.144 2.847 3.268 4.27 4.72l2.588 2.64h4.602c4.818 0 14.215-.82 15.165-1.322.49-.26.536-.732.404-4.205-.082-2.152-.221-9.503-.31-16.335-.138-10.664-.092-12.554.322-13.355.594-1.15 1.87-1.544 2.665-.824.472.427 1.592.528 6.627.598l6.059.083.22-2.88c.562-7.352.816-11.846.69-12.176-.084-.217-1.88-.501-4.524-.716-2.412-.195-5.898-.59-7.746-.876-3.434-.533-3.817-.532-19.015.049-5.492.21-6.905.077-6.905-.648 0-1.068 1.017-1.311 6.368-1.526 18.509-.743 18.484-.744 25.55.699.923.188 2.723.3 4 .248l2.322-.094.16-4.48c.088-2.464.276-4.66.419-4.88.402-.622 1.44-.471 1.835.267.328.612.402.625.916.16.308-.279.792-.507 1.076-.507s2.291 1.204 4.46 2.675c5.678 3.853 7.325 4.597 15.01 6.788 2.073.591 4.676 1.495 5.786 2.008 2.884 1.335 8.986 5.527 9.452 6.495l.394.817 7.057.179c4.831.122 7.205.301 7.526.567.4.332.467 2.649.46 15.79-.008 13.372-.088 15.925-.607 19.382-.328 2.19-.525 4.17-.437 4.4.243.632 1.918.51 5.585-.41 1.82-.455 4.244-.965 5.388-1.134 1.144-.168 3.163-.515 4.487-.771 1.324-.256 3.155-.466 4.069-.466 2.308 0 2.469-.381 2.217-5.265-.109-2.12-.364-5.072-.566-6.56-.202-1.488-.298-4.034-.213-5.657.151-2.89.139-2.955-.6-3.14-1.001-.252-.955-.99.105-1.686.736-.482 2.102-.603 9.52-.841 4.763-.154 10.893-.269 13.62-.256 4.94.022 14.572.007 27.36-.043 3.697-.015 10.68.167 15.52.403 10.53.513 14.632.57 16.88.234 1.495-.223 1.68-.188 1.67.32-.004.314-.22.85-.48 1.193-.283.375-.47 1.334-.47 2.424 0 .992-.212 3.317-.472 5.168-.28 2-.476 5.885-.48 9.576-.006 3.416-.15 10.387-.32 15.49-.475 14.164-.395 44.928.134 52 .244 3.257.516 6.137.604 6.4s.244 1.072.345 1.795c.164 1.177.07 1.43-.886 2.415-1.322 1.362-1.186.233-2.443 20.271-.154 2.464-.438 5.924-.63 7.688-.192 1.765-.309 5.434-.26 8.155l.089 4.946 11.52.103c7.828.07 12.559.25 14.76.565 3.952.565 7.138.581 7.849.04 1.245-.946 2.83-3.2 2.83-4.023 0-1.086.534-1.635 1.585-1.629 1.535.01 1.765.416 1.936 3.42.225 3.95-.566 3.727 13.253 3.754 11.626.022 12.432.122 10.622 1.308-.975.638-5.906.903-16.436.882l-7.12-.014v1.424c0 1.62-.377 2.498-1.279 2.98-.871.467-5.444-1.916-7.361-3.836l-1.44-1.443-3.36-.402c-2.863-.343-24.777-1.188-28.646-1.105l-1.287.028.091-6.62c.05-3.641.299-8.205.552-10.14s.535-5.608.628-8.16c.092-2.552.339-6.8.548-9.44.209-2.64.392-5.376.407-6.08l.027-1.28-2.08-.215c-6.254-.645-12.795-.911-22.32-.909-11.542.003-11.454-.012-9.701 1.706.846.83 1.95 3.274 2.445 5.41.162.7.004 1.069-.8 1.872-.822.823-1.155.96-1.872.77-1.687-.445-1.832-.381-1.832.806v1.12l5.12.185c3.022.11 5.907.392 7.04.69 1.056.276 4.258.68 7.116.896 3.598.272 5.307.527 5.558.83.446.537.119 5.771-.538 8.599-.292 1.255-.448 3.894-.451 7.62-.003 3.463-.14 5.955-.35 6.348-.875 1.633-1.004 1.642-25.302 1.804-25.955.172-23.18.564-23.289-3.292-.034-1.232-.266-3.79-.516-5.684-.25-1.893-.467-6.068-.484-9.276l-.03-5.834 1.166-1.069c.837-.767 1.317-.996 1.703-.812 1.09.52 10.902.503 13.99-.023 1.62-.276 3.53-.502 4.244-.502 1.576 0 2.303-.644 2.303-2.04 0-1.374-.499-1.8-2.105-1.8-2.116 0-2.184-.419-.6-3.68 2.248-4.627 3.832-4.102-12.655-4.193-7.832-.044-14.744-.126-15.36-.183l-1.12-.104-.28 18.38c-.255 16.688-.229 18.794.283 22.88.727 5.81 1.033 18.914.476 20.404-.579 1.548-.774 10.926-.325 15.616.82 8.558.902 7.421-.675 9.292l-1.395 1.654-1.762-.235c-4.514-.603-8.934-.267-15.473 1.177-3.872.855-12.366 1.35-38.29 2.229-9.357.317-13.038.295-24.16-.148-9.725-.387-13.781-.667-15.68-1.084-2.124-.467-4.135-.56-11.84-.55-9.15.014-9.355.029-14.72 1.067-2.991.58-6.112 1.157-6.933 1.285-.822.127-1.693.396-1.935.597-.343.285-4.091 2.278-5.451 2.9-.132.06-.24-.047-.24-.238 0-.19.216-.346.48-.346s.48-.126.48-.28c0-.152.503-.62 1.117-1.04 1.221-.83 1.372-1.165.652-1.44-.274-.106-.84.211-1.36.762-.489.52-1.393 1.217-2.01 1.55s-1.763 1.158-2.55 1.83c-.786.672-2.37 1.834-3.52 2.583-5.055 3.294-5.732 3.715-5.984 3.719-.146.002-1.057.41-2.025.908-5.807 2.985-7.655 3.888-7.964 3.888-.19 0-1.049.432-1.907.96-1.74 1.07-2.352 1.175-2.912.5zm4.463-2.468c1.454-.89 11.437-5.95 13.92-7.056 1.056-.47 2.496-1.377 3.2-2.015.704-.637 2.244-1.738 3.422-2.447 2.446-1.47 3.783-2.69 3.767-3.439-.006-.291-1.288-1.352-2.941-2.436-1.612-1.056-3.659-2.581-4.55-3.39-.89-.807-2.41-2.016-3.378-2.686s-2.552-1.839-3.52-2.598c-3.53-2.768-8.39-6.248-9.105-6.52-1.332-.507-1.455.04-1.463 6.538-.004 3.353-.155 6.734-.335 7.514-.237 1.03-.222 1.67.053 2.336.345.831.294 1.007-.545 1.885l-.925.969.04 6.522c.022 3.587.126 6.744.23 7.016.257.67.8.62 2.13-.193zm-322.72-5.9c2.39-.76 2.674-.945 3.588-2.32.77-1.157 1.067-2.069 1.32-4.053.41-3.206.264-4.687-.75-7.605-.96-2.768-1.501-3.556-3.46-5.047l-1.487-1.132-7.35-.1-.785 1.003c-.752.96-.836.988-1.979.637-1.584-.486-2.11-.156-3.108 1.95-.666 1.407-1.507 4.582-1.507 5.69 0 .767.957 1.091 2.75.932l1.89-.168-.1-1.242c-.079-.998.075-1.423.78-2.16.484-.505.99-.918 1.126-.918.135 0 .792.374 1.46.831.668.457 2.446 1.452 3.951 2.212 4.061 2.048 4.355 2.713 1.992 4.515-2.467 1.882-7.447 3.25-8.716 2.396-.403-.271-.388-.403.105-.948.316-.348.526-.969.468-1.38-.1-.699-.264-.752-2.591-.84-2.934-.11-3.172.135-2.315 2.38 1.072 2.806 3.64 4.843 7.2 5.712 2.691.656 4.66.566 7.518-.345zm525.92-64.263c7.304-.073 13.532-.233 13.84-.356.462-.183.56-.632.56-2.569 0-1.29-.135-2.43-.299-2.531-.164-.102-1.22.322-2.347.94-2.085 1.147-3.23 1.396-3.607.786-.236-.381.638-1.463 1.596-1.976.586-.314 1.09-.42 2.49-.523.707-.052 1.088-1.492.563-2.125-.223-.269-.926-.475-1.617-.475-1.486 0-1.685-.26-1.083-1.42.255-.491.464-1.306.464-1.81 0-.629.256-1.083.816-1.45 1.013-.664 1.506-.274 1.552 1.224.025.83.181 1.077.734 1.155.584.084.768-.132 1.092-1.28.214-.759.402-2.891.417-4.74l.029-3.36-4.32-.244c-2.376-.135-5.884-.547-7.795-.917-3.137-.608-4.174-.654-10.688-.477-3.967.108-8.091.333-9.165.5-1.074.167-4.587.379-7.807.47-3.22.093-5.991.253-6.16.357-.377.233-.379 7.804-.003 10.871.152 1.232.458 3.896.682 5.92.224 2.024.53 3.845.682 4.046.198.263 2.495.331 8.184.242 4.35-.068 13.885-.184 21.19-.258zm-18.21-7.517l-1.152-1.247-1.28 1.083c-1.451 1.228-2.61 1.381-3.71.49-.726-.588-.758-.587-1.612.044-1.488 1.1-1.933.6-1.853-2.081.039-1.277-.037-2.634-.167-3.016-.188-.548.046-1.001 1.114-2.16 2.06-2.235 2.616-1.959 1.846.92-.211.788-.296 1.522-.188 1.63.27.27 1.857-.794 2.75-1.845 1.368-1.607 3.896-1.468 4.549.249.393 1.034.83.985 1.422-.16.697-1.347 1.709-1.94 3.314-1.94 1.16 0 1.583.183 2.466 1.065 1.004 1.005 1.075 1.028 1.243.4.098-.365.18-1.192.183-1.836.004-.913.222-1.355.989-2 .542-.456 1.097-.829 1.235-.829.403 0 2.65 1.578 3.776 2.65.57.543 1.115.906 1.214.808.098-.099.496-.809.885-1.578.95-1.885 1.97-2.064 2.632-.463l.965 2.33.491 1.186.617-1.015c.653-1.073 2.843-2.638 3.692-2.638.293 0 .781.626 1.164 1.492l.66 1.49-.678 1.636c-.373.899-.677 2.293-.677 3.099 0 2.064-.636 2.583-2.639 2.156-1.34-.286-1.614-.246-2.364.344-1.2.944-1.601.443-1.794-2.243-.171-2.4-.596-3.27-1.267-2.598-.657.657-1.842.426-3.13-.61-.681-.546-1.393-.898-1.582-.78-.19.116-.344 1.075-.344 2.129 0 2.17-.616 3.653-1.653 3.982-.928.294-1.358-.335-1.868-2.739-.224-1.055-.495-1.914-.603-1.91-.108.005-.458.577-.778 1.271-.33.714-1.419 1.961-2.508 2.872-2.52 2.106-3.678 2.184-5.36.362zm5.5-1.922c.626-1.059.698-2.034.218-2.932-.336-.627-1.723-.858-2.043-.34-.095.153-.607.366-1.14.472-.88.176-.966.306-.966 1.463 0 1.482.832 2.266 2.402 2.266.743 0 1.113-.225 1.53-.929zm-7.948-.209c.295-.45.491-1.205.437-1.678-.078-.67-.313-.9-1.06-1.042-1.474-.28-1.76-.047-1.76 1.429 0 2.136 1.35 2.868 2.383 1.291zm-92.943-23.292c2.728-1.35 5.075-2.454 5.217-2.452.141.002 1.25-.645 2.463-1.437s2.281-1.44 2.374-1.44c.092 0 1.281-.659 2.642-1.463 2.853-1.687 3.981-2.193 5.544-2.488.616-.116 1.84-.755 2.72-1.42s2.14-1.54 2.8-1.945c1.47-.903 1.503-1.382.16-2.4-3.924-2.97-10.536-6.195-14.548-7.095-1.195-.268-4.099-1.146-6.453-1.951-4.611-1.577-4.824-1.565-4.834.292-.003.521.205.97.503 1.085.453.174.797.231 2.292.384.628.064.467 1.262-.22 1.63-.34.182-1.148.33-1.796.33-.98 0-1.377.225-2.363 1.337-1.484 1.672-2.34 1.558-2.196-.292.07-.9-.027-1.204-.385-1.204-.41 0-.493 1.058-.566 7.262l-.086 7.261 2.21-.185c3.47-.29 4.708.31 3.379 1.639-.366.366-1.144.503-2.861.503-1.297 0-2.448.145-2.558.323-.295.476-.602 5.931-.37 6.539.176.457.307.467 1.086.081l5.846-2.894zm101.92-5.258c2.08-.155 3.811-.448 4.232-.718.562-.36.795-.375 1.104-.065.295.295 3.248.392 11.913.392 6.841 0 12.927.156 14.98.384 2.6.29 3.798.295 4.816.023 1.14-.304 1.444-.28 1.92.15.52.47.681.453 2.028-.22l1.464-.73-.2-2.284c-.11-1.256-.356-3.818-.547-5.693-.672-6.605.171-74.084.977-78.19.444-2.263.422-4.745-.047-5.37-.344-.457-1.265-.548-6.48-.64-3.344-.06-10.976-.306-16.96-.548-9.146-.37-11.858-.371-17.014-.01-4.27.299-7.333.343-10.08.147-5.531-.395-24.413-.136-26.775.368l-.75.16.188 4.866c.582 15.078.583 15.902.038 20.016-.295 2.228-.768 5.203-1.051 6.61-.439 2.18-.531 6.011-.623 25.757-.115 24.874-.14 24.336 1.559 32.09.184.839.24 1.903.123 2.365l-.21.84 2.885-.165c1.588-.09 3.503-.027 4.258.14 3.407.755 19.9.945 28.252.325zm-19.936-42.695c-.211-.211-.384-.827-.384-1.369s-.252-1.34-.56-1.776c-1.143-1.614-2.2-5.233-1.89-6.47.209-.828 2.705-2.863 4.69-3.822 4.02-1.942 5.12-2.173 5.12-1.077 0 .542-1.035 1.283-2.24 1.605-.966.257-1.612.509-3.6 1.402-1.231.553-1.52.836-1.52 1.49 0 .707.073.76.597.433 1.044-.652 1.643-.126 1.643 1.443 0 1.84.393 1.968 3.277 1.065 2.169-.68 2.329-.794 2.636-1.886.69-2.452 3.059-3.965 5.652-3.608 3.426.471 4.315 2.839 1.881 5.012-.726.648-1.734 1.27-2.24 1.38-1.48.325-1.805.953-1.178 2.268.667 1.4.678 2.502.029 3.15-1.028 1.029-1.658.619-2.845-1.85-.623-1.294-1.132-2.51-1.132-2.7 0-.537-.624-.798-1.054-.442-.212.175-.962.423-1.666.55s-1.676.432-2.16.677c-.774.392-.88.628-.88 1.966 0 2.246-1.144 3.591-2.176 2.559zm14.25-8.816c.307-.798-1.169-1.695-2.634-1.602-1.179.075-1.288.16-1.377 1.082-.058.593.106 1.203.402 1.5.453.452.638.452 1.962.001.805-.274 1.546-.715 1.648-.98zm26.2 8.48a148.68 148.68 0 01-.49-1.997c-.638-2.664-1.021-3.21-2.21-3.155-1.687.08-2.56.396-2.733.993-.09.307-.32 1.171-.514 1.92-.42 1.623-1.64 2.635-2.408 1.997-.732-.607-.586-3.04.318-5.3.439-1.096 1.026-2.979 1.305-4.185.5-2.158 1.036-3.086 2.12-3.666.752-.403 2.622 1.266 3.614 3.224.907 1.79 1.314 2.159 2.54 2.3 1.204.14 1.365.678.456 1.525-.686.64-.7.747-.293 2.188.75 2.645.776 3.259.17 3.928-.638.706-1.713.836-1.875.228zm-2.86-7.76c.162-.501-1.147-2.455-1.499-2.237-.355.22-.417 1.437-.114 2.228.213.555 1.433.562 1.613.009zm-18.415 6.076c-1.633-1.475-2.073-2.611-1.886-4.869.149-1.788.202-1.875 2.36-3.865 1.855-1.711 3.712-2.942 4.437-2.942.342 0 .16 1.21-.23 1.52-.22.175-.954.515-1.632.755-1.362.483-2.447 1.753-2.447 2.864v.721l4.944-.204c5.1-.21 5.905-.048 4.875.981-.273.273-1.046.587-1.718.698-1.018.167-1.227.332-1.256.993-.02.435-.055 1.04-.08 1.343-.025.303-.938 1.131-2.029 1.84-2.553 1.659-3.647 1.693-5.338.165zm4.762-1.73c0-.72-2.524-1.831-3.4-1.496-.473.182-.425.33.369 1.16 1.11 1.157 3.03 1.37 3.03.336zm-110.72 28.45c.442-.444.585-.884.454-1.406-.105-.418-.035-.856.155-.974.19-.117.346-.491.346-.83 0-.76-2.484-2.43-2.937-1.977-.18.18-.212 1.428-.08 3.067.195 2.402.303 2.764.82 2.764.329 0 .887-.29 1.242-.645zm1.212-74.679c3.21-.978 5.561-2.33 13.01-7.477 1.338-.924 2.517-1.68 2.622-1.68.104 0 1.216-.618 2.47-1.374 1.255-.757 3.051-1.703 3.993-2.103.942-.4 2.382-1.133 3.2-1.628.818-.496 2.046-1.097 2.728-1.337 2.301-.808 2.02-1.38-1.98-4.015-3.786-2.493-7.265-4.04-11.65-5.179-4.671-1.213-8.595-2.882-11.72-4.983-1.326-.892-2.852-1.885-3.39-2.207-.54-.322-1.522-1.014-2.184-1.538-.9-.712-1.246-.841-1.371-.513-.093.241-.127 2.013-.077 3.938l.091 3.5 1.699.17c.934.094 1.82.367 1.967.606.38.616 1.164.223 1.67-.836.242-.506.739-.945 1.133-1.001.561-.08.757.113.976.96.238.926.42 1.073 1.43 1.158.636.054 1.343.322 1.57.597.349.42.296.594-.33 1.102-.41.332-1.078.603-1.484.603-.535 0-.899.33-1.324 1.2-.762 1.558-1.716 1.625-2.099.147-.171-.662-.553-1.159-1.029-1.34-.416-.158-.851-.44-.966-.627-.116-.187-.853-.34-1.64-.34-1.187 0-1.474.122-1.701.72-.15.396-.42 3.67-.602 7.274-.282 5.608-.26 6.687.144 7.469.423.819.415 1.034-.074 2.064-.677 1.427-.452 5.788.362 7.031.576.879.46.888 4.556-.361zm-1.004-7.13c-.47-.47-.16-1.077.805-1.577.775-.4 1.584-.49 3.393-.374 2.504.16 3.148.554 2.595 1.587-.265.496-.75.577-3.444.577-1.725 0-3.232-.096-3.349-.213zm-466.76 200.71c-.286-.345-.26-.83.112-2.084.57-1.921.437-2.43-.805-3.073-.507-.262-.921-.686-.921-.941 0-.594 1.46-1.561 2.026-1.344.624.24.958-.087 1.615-1.578.584-1.327 1.911-2.312 2.29-1.7.465.754.789-.23.789-2.397 0-1.657.136-2.455.464-2.727.72-.597 1.605-.27 1.7.63.046.438.166 1.424.265 2.19l.18 1.394 1.705-.213c1.13-.14 1.78-.091 1.926.147.32.516-.708 1.528-1.793 1.766-1.162.255-1.17.806-.04 2.854.63 1.142 1.134 1.65 1.814 1.829.842.221 1.08.097 2.253-1.181.722-.786 1.486-1.43 1.699-1.43.758 0 .37.948-.75 1.827a61.277 61.277 0 00-2.15 1.786c-2.258 1.985-3.709 1.466-5.353-1.916-1.27-2.611-2.04-3.133-2.955-2.003-.887 1.096-.589 1.921 1.035 2.867 1.708.995 2.06 2.044.866 2.588-.612.28-.993.243-1.791-.17-1.078-.557-1.635-.443-1.635.337 0 .764-.914 2.318-1.57 2.669-.442.236-.703.202-.976-.127zm402.23-.737c0-.59 1.83-2.516 2.118-2.23.137.139-.283.784-.934 1.435s-1.184 1.009-1.184.795zm-412.39-.447c-.351-.423-.811-3.462-1.19-7.863-.198-2.297-.504-1.952 4.207-4.742 2.901-1.718 3.61-2.01 3.61-1.484 0 .43-1.314 1.489-3.28 2.644-1.567.92-1.846 1.225-1.878 2.047-.042 1.116.052 2.195.207 2.357.21.22 2.57-.674 3.67-1.39 1.514-.985 2.643-1.206 3.384-.664.591.432.592.462.017 1.097-.326.36-2.015 1.104-3.757 1.656-3.398 1.077-3.817 1.498-3.349 3.362.285 1.136.897 1.273 3.624.815 1.307-.22 2.448-.328 2.535-.241.314.313-.572 1.496-1.467 1.959-1.355.7-5.858 1.019-6.333.447zm27.1-1.56c-.365-.227-.393-.426-.12-.864.44-.713 1.726-.952 1.726-.321 0 .738-1.064 1.523-1.607 1.185zm29.371-35.816c-3.523-1.125-6.964-5.768-6.964-9.399 0-2.522-.233-2.72-2.95-2.535-1.281.087-2.563.28-2.848.426-.324.167-.6.899-.741 1.957-.238 1.792-.887 2.814-1.787 2.814-.3 0-1.099-.44-1.773-.976-.675-.536-2.048-1.473-3.051-2.083-1.831-1.112-2.33-1.718-2.027-2.462.23-.564 6.923-5.52 7.454-5.52.272 0 .47.427.521 1.12.046.616.247 1.533.449 2.038l.365.917 2.794-.23c1.536-.126 2.962-.367 3.169-.535.206-.169.475-.91.598-1.648.346-2.08 1.172-3.402 3.636-5.826 2.081-2.047 5.598-4.308 6.708-4.314.24 0 1.104-.239 1.92-.528 1.105-.393 1.954-.468 3.33-.297 2.695.337 4.029 1.502 7.353 6.418 2.526 3.737 2.8 4.287 2.8 5.632v1.491l3.215.228c1.768.125 3.676.368 4.24.54 3.73 1.133 22.472 1.68 26.305.767 1.056-.251 3.576-.616 5.6-.811s5.408-.595 7.52-.888c4.77-.663 13.853-.718 18.24-.11 6.92.956 19.59.79 25.28-.332 3.212-.634 11.115-.716 15.92-.166 5.85.669 22.21 1.31 27.6 1.081 2.288-.097 4.88-.34 5.76-.539s3.688-.462 6.24-.585l4.64-.223-.1-3.2c-.055-1.76-.235-4.348-.4-5.751-.165-1.404-.3-10.276-.3-19.717 0-16.815.013-17.182.655-17.998l.656-.833-.859-.216c-1.114-.28-10.103.139-11.25.523-1.421.477-7.388 1.273-9.499 1.268-3.487-.008-8.184-1.56-8.184-2.704 0-.223.288-.771.64-1.219.567-.72.639-1.282.623-4.923-.022-5.415-.416-9.087-1.02-9.53-.315-.23-1.315-.261-2.998-.095-1.388.137-7.986.333-14.662.435-9.155.14-12.43.089-13.327-.208-1.15-.38-1.306-.33-4.662 1.449-3.788 2.007-6.25 3.256-12.113 6.145-6.005 2.957-9.982 5.149-13.28 7.318-4.36 2.868-4.518 2.924-5.725 2.032-.95-.702-.995-.84-.995-2.987 0-3.569-.683-12.775-.992-13.36-.258-.488-2.315-.522-26.104-.433-24.419.092-25.847.128-26.244.672-.23.316-.42.85-.42 1.185 0 1.622-2.621 4.035-6.72 6.185-1.697.89-1.92.923-6.24.92-4.145-.003-4.612-.065-6.24-.829-3.34-1.567-5.76-4.402-5.76-6.745 0-1.57-.504-1.701-5.44-1.422-2.065.116-3.99.122-4.277.011-.617-.237-.695-1.263-.123-1.633.22-.143 2.546-.403 5.17-.58l4.769-.32.409-1.186c.898-2.605 1.625-3.605 4.403-6.06 2.94-2.598 3.687-3.038 7.07-4.172 1.864-.624 2.426-.626 5.16-.018 2.252.5 6.534 3.981 7.72 6.276.272.525.585 1.973.697 3.218l.202 2.263 21.28.021c11.704.012 23.368-.06 25.92-.16l4.64-.181v-8.097c0-8.069.003-8.1.753-8.88.938-.975 1.44-.988 2.052-.053 1.12 1.71 12.957 7.835 18.475 9.561 3.493 1.093 6.937 2.237 13.28 4.41 4.366 1.498 4.48 1.56 4.48 2.458v.92h12.32c14.336 0 16.902-.112 17.264-.76.14-.252.144-.904.007-1.449-.138-.545-.34-2.79-.45-4.99-.11-2.2-.422-5.197-.694-6.66-.394-2.124-.414-2.755-.097-3.137.848-1.022 1.504-1.114 4.367-.618 2.29.398 5.608.473 18.162.41 14.091-.07 15.651-.023 18.88.556 2.79.5 4.982.634 10.56.64 3.872.005 7.818-.12 8.77-.28l1.728-.287-.262 2.688c-.145 1.478-.291 9.144-.326 17.035-.06 13.59-.094 14.379-.666 14.936-.332.323-.892.635-1.244.692-.519.085-.642-.077-.65-.855l-.012-.96-4.874-.089c-3.568-.065-6.266.095-10.069.594-2.857.375-6.809.78-8.781.901-1.973.121-3.63.286-3.68.367-.21.33.245 37.295.463 37.63.13.201.372 3.081.537 6.4.257 5.163.231 6.144-.177 6.776-.6.93-1.834.842-1.974-.142-.094-.656-.266-.684-4.55-.728-2.908-.03-5.537.14-7.582.49-2.725.466-4.83.51-16.25.339-9.262-.138-14.296-.35-17.12-.718-4.346-.567-13.835-.447-16.64.212-2.217.52-20.84.758-23.533.3-3.296-.56-14.733-.815-16.307-.364-.704.202-2.72.443-4.48.537-4.09.218-10.106 1.01-12.138 1.598-1.153.334-3.48.457-8.64.46-7.33.003-11.005-.274-16.982-1.28-6.08-1.025-6.863-1.07-7.086-.415-1.549 4.54-4.626 8.379-8.206 10.24-1.505.782-2.044.875-5.508.948-2.112.044-4.234-.046-4.716-.2zm10.5-2.462c.866-.288 1.844-.756 2.171-1.04 1.13-.978 4.049-7.648 4.043-9.237 0-.307-.217-.97-.48-1.475s-.478-1.196-.478-1.537c0-.679-3.039-5.456-4.606-7.242-1.897-2.16-3.992-2.458-8.582-1.224-3.43.923-4.109 1.355-5.466 3.481-1.281 2.007-1.826 3.477-1.826 4.926v1.072h5.6c5.132 0 5.6.048 5.6.563 0 1.145-1.237 1.498-5.6 1.6-5.722.135-5.6.094-5.6 1.87 0 3.023 3.238 7.653 5.89 8.422 1.758.51 7.596.399 9.333-.179zm145.74-60.955c5.427-.996 7.797-1.191 14.88-1.228 3.52-.018 7.407-.174 8.64-.346 5.338-.746 8.32-1.019 13.28-1.216l5.28-.21.204-14.08c.113-7.744.113-14.175 0-14.291-.113-.116-1.069-.067-2.125.11-2.162.36-14.31.06-15.894-.395-.542-.155-3.668-.52-6.946-.81-4.546-.401-7.137-.464-10.92-.264-5.545.294-18.115.376-19.84.13-1.301-.186-1.22-.997-.676 6.72.192 2.728.482 5.824.645 6.88.163 1.056.457 3 .655 4.32s.378 5.102.4 8.406l.042 6.005 1.467.452c2.163.667 6.69.59 10.907-.183zm11.673-5.41c-.331-.536-.819-8.362-.605-9.7.168-1.047.042-1.45-.852-2.72-1.205-1.71-4.907-6.22-6.925-8.436-1.532-1.683-1.65-2.143-.755-2.953.892-.807 1.56-.448 3.48 1.87a168.257 168.257 0 002.5 2.958c.443.501 1.748 2.17 2.9 3.71 1.52 2.03 2.29 2.8 2.797 2.8.8 0 2.045-1.232 4.041-4 1.934-2.68 4.547-5.583 5.034-5.592 1.025-.019-2.026 4.024-6.086 8.062-1.365 1.359-2.483 2.625-2.483 2.813 0 .19-.305.757-.678 1.261-.617.835-.662 1.204-.502 4.067.097 1.732.272 3.532.39 3.998.333 1.325-1.601 2.921-2.256 1.862zm-89.914 4.552a19.47 19.47 0 012.72-1.49c1.712-.734 4.8-2.691 4.8-3.042 0-.136 2.844-1.645 6.32-3.352 6.812-3.345 7.706-3.795 11.12-5.598 1.232-.65 2.852-1.424 3.6-1.719 2.168-.855 1.785-1.388-1.767-2.464-1.28-.387-3.584-1.204-5.12-1.814-1.536-.611-3.873-1.396-5.193-1.744-1.32-.349-3.624-1.078-5.12-1.62-3.1-1.126-11.018-5.006-13.018-6.38-2.377-1.633-2.345-1.704-2.324 5.08.025 8.106.339 9.598 1.725 8.211.42-.42.487-.826.305-1.854-.35-1.97-.208-2.855.558-3.487 1.031-.852 1.369-.533 1.63 1.537.13 1.03.353 1.991.497 2.135s1.297-.25 2.564-.874c1.942-.956 2.303-1.26 2.303-1.935 0-.44.37-1.172.824-1.626 1.149-1.148 1.545-.63 1.305 1.71a330.525 330.525 0 00-.36 3.784l-.17 1.92.821-2.88c.786-2.752 1.361-3.68 2.28-3.68.557 0 .532 1.233-.072 3.565-.27 1.044-.406 2.037-.301 2.206.364.59.828.302 1.289-.8.502-1.202 1.42-1.875 2.168-1.588.381.146.447.787.351 3.414-.065 1.779-.25 3.365-.41 3.525-.16.16-.632.244-1.048.185-.593-.084-.792-.35-.917-1.227-.158-1.106-.18-1.12-1.76-1.14-.88-.01-1.825-.123-2.1-.251-.32-.148-.714.004-1.09.42-.324.358-.946.65-1.382.65-.738 0-.778-.081-.59-1.2.492-2.931.596-4.56.29-4.56-.452 0-2.707 1.527-3.338 2.261-.371.431-.481.977-.368 1.82.126.938.017 1.333-.492 1.794-.863.78-1.339.574-1.773-.769-.272-.84-.559-1.129-1.196-1.203-.497-.057-.91.085-1.01.35-.095.245-.048 2.377.104 4.737.152 2.36.283 5.638.29 7.285l.015 2.995.88-.208c.484-.114 1.456-.6 2.16-1.08zm-64.243-8.391c1.067-.534 2.094-1.156 2.284-1.384.543-.655 1.319-4.845 1.319-7.124 0-2.918-1.36-5.347-4.019-7.176-1.767-1.216-3.511-1.662-7.021-1.798-2.814-.109-2.932-.084-5.105 1.09-2.049 1.105-2.308 1.366-3.262 3.28-.57 1.145-1.081 2.657-1.135 3.36L64.16 140l4.953.188-.076-2.474c-.075-2.386-.047-2.49.786-2.965.806-.46.929-.445 1.827.22.53.391 1.337.712 1.794.712.96 0 4.896 2.793 6.479 4.6.86.98.984 1.3.706 1.819-.185.346-1.95 1.438-3.923 2.426-1.972.989-3.93 2.067-4.35 2.396-.871.684-1.97.777-2.532.215-.212-.211-.384-1.214-.384-2.229 0-2.232-.35-2.507-3.19-2.507-1.44 0-1.999.126-2.135.48-.678 1.767 2.19 4.897 5.607 6.118.713.255 2.767.419 5.347.428 4.036.013 4.26-.022 6.128-.956zm-8.557-3.671c0-.264-.144-.48-.32-.48s-.32.216-.32.48.144.48.32.48.32-.216.32-.48zm650.8 73.414c-.847-.493-1.52-2.03-1.52-3.467 0-1.185.154-1.412 2-2.94 1.1-.91 2.115-1.852 2.256-2.092.285-.485-.647-4.183-1.129-4.48-.166-.103-.758.239-1.315.76-1.601 1.5-2.517 2.004-3.632 2.004-1.987 0-2.147-1.838-.327-3.755.54-.57.92-1.095.845-1.168-.076-.074-1.002-.04-2.058.075l-1.92.208-.081 2.4c-.105 3.117-.267 3.747-1.073 4.179-.545.291-.796.235-1.376-.31-.637-.598-.774-.619-1.33-.198-.765.578-1.73.627-1.772.09-.017-.22-.013-2.273.01-4.56.023-2.289-.095-4.367-.263-4.619-.21-.316-.809-.435-1.93-.384-1.212.055-1.625-.04-1.625-.372 0-1.228 2.533-2.11 7.44-2.591 1.95-.192 2.16-.156 2.16.367 0 .32-.468.847-1.04 1.174-1.67.953-2.145 1.753-2.153 3.624-.004.924.069 1.68.162 1.68.094 0 .597-.486 1.119-1.08 1.2-1.366 2.406-1.868 4.188-1.74 1.095.078 1.473.259 1.72.82.403.919.477.91 1.913-.231 1.569-1.247 3.311-1.6 3.902-.793.236.323.429.905.429 1.294s.504 2.156 1.12 3.926c1.806 5.189 1.533 8.427-.93 11.035-1.456 1.541-2.544 1.87-3.79 1.144zm3.213-4.175c.109-2.455-.316-2.906-1.708-1.81-.736.578-.833.846-.69 1.914.205 1.525.757 2.238 1.637 2.112.589-.084.679-.346.761-2.216zm-3.335-9.665c.671-1.374.389-2.019-.73-1.664-.793.252-1.755 1.939-1.493 2.62.338.882 1.588.343 2.223-.956zm-694.53 11.28c-.3-.562-.18-.888.789-2.132.63-.807 1.144-1.811 1.144-2.23 0-.692-.1-.743-1.075-.56-.93.174-1.101.104-1.264-.516-.244-.933.507-2.71 1.33-3.151 2.711-1.45 4.44 2.222 2.419 5.138-.457.659-.737 1.35-.622 1.537s.998.339 1.96.339c1.982 0 2.519.554 1.561 1.612-.478.528-.991.628-3.227.628-2.364 0-2.699-.074-3.015-.664zm395.96-.156c-.105-.275-.037-.84.152-1.255.66-1.448-.013-1.594-7.908-1.717-6.82-.106-13.181.252-22.133 1.248-4.921.547-5.216.424-5.58-2.327a46.696 46.696 0 00-.666-3.608c-.265-1.148-.445-3.746-.448-6.461-.003-2.805-.132-4.62-.339-4.748-.487-.3-1.82.658-3.865 2.781-1.734 1.8-1.858 1.868-3.44 1.868h-1.64v-1.72c0-.993-.17-1.858-.4-2.044-.226-.181-3.467-.393-7.44-.487-7.963-.186-9.92-.543-9.92-1.804 0-1.322 1.02-1.65 3.04-.975 1.46.488 2.84.591 8.12.609l6.362.02-.21-1.587c-.355-2.674 1.032-4.858 2.74-4.315.368.116 2.026 1.006 3.683 1.976s3.052 1.711 3.099 1.646c.13-.182.835-5.21 1.182-8.44.397-3.696 1.05-5.928 1.994-6.814.748-.703.767-.704 6.49-.331 3.157.205 10.914.457 17.238.56l11.499.186 1.141 1.626c1.414 2.013 7.044 8.372 9.349 10.559.942.893 2.649 2.378 3.793 3.3s2.332 1.882 2.64 2.133c1.232 1.003.246 2.382-1.703 2.382-.692 0-1.257.112-1.257.249 0 .262-.195.484-5.107 5.831-1.697 1.848-3.87 4.636-4.83 6.196-1.947 3.168-4.283 5.964-4.983 5.964-.253 0-.547-.225-.652-.5zm-24.268-4.307c2.288-.182 4.943-.47 5.899-.641 2.801-.501 17.87-.398 19.637.134 1.768.532 1.874.47 3.839-2.224.777-1.066 2.441-2.859 3.698-3.984 1.256-1.125 2.378-2.34 2.492-2.7.115-.361 1.151-1.633 2.304-2.827l2.095-2.17-1.733-1.51c-3.978-3.467-10.492-10.308-13.168-13.83L424.45 180l-11.344-.229c-6.24-.125-13.36-.348-15.824-.494-5.452-.323-5.44-.33-5.76 3.365-.119 1.363-.363 3.054-.544 3.758-.544 2.126-.373 19.119.22 21.779l.666 2.984c.165.736.245.755 2.315.561 1.178-.11 4.015-.35 6.303-.532zm4.407-11.272c-.171-.22-.478-1.258-.682-2.307s-.503-2.04-.666-2.202c-.534-.534-1.214.036-1.432 1.2-.223 1.186-1.159 1.976-1.972 1.663-.3-.114-.455-.663-.455-1.605 0-.787-.144-1.52-.32-1.63-.52-.32-.376-.692.64-1.651.528-.498.96-1.01.96-1.135 0-.886 1.47-3.882 2.109-4.301 1.055-.692 1.53-.235 2.017 1.94.468 2.09.952 2.565 2.35 2.31.575-.106 1.256-.058 1.516.106.398.252.356.42-.27 1.088-.409.434-1.089.877-1.512.983-.857.215-1.008 1.114-.437 2.613l.332.875.51-.728c.28-.4.991-.929 1.581-1.175 1.169-.488 1.236-.66 1.618-4.124.357-3.235.37-3.176-.694-3.36-.676-.116-.99-.37-1.06-.86-.212-1.492 2.297-1.77 4.885-.54 1.794.852 2.495 2.236 2.671 5.273.135 2.333.093 2.546-.615 3.137-.419.35-1.285 1.075-1.925 1.614-1.185.997-3.965 1.787-5.135 1.459l-1.22-.345c-.421-.12-.64-.028-.64.264 0 .424-1.28 1.838-1.662 1.838-.1 0-.32-.18-.492-.4zm9.397-4.622c.42-1.67-.379-5.15-1.032-4.497-.42.42-.766 5.165-.393 5.395.578.358 1.21-.04 1.425-.898zm4.242 2.499c-1.688-1.368-.186-6.605 2.258-7.869.91-.47 2.807-.37 3.936.208 1.386.71-.067 2.373-1.824 2.088-1.6-.26-2.423.498-2.509 2.314-.06 1.264.02 1.443.733 1.648.44.127 1.692.244 2.781.262 2.188.035 2.687.396 1.84 1.332-.816.903-6.106.915-7.215.017zM1.847 214.233C.271 213.16.004 212.574.008 210.18c.004-2.408.901-4.536 2.765-6.558.677-.735 1.611-1.78 2.075-2.32 1.17-1.365 3.017-1.385 4.512-.049 1.04.93 1.045.949 1.037 3.92-.011 4.166-.724 6.369-2.698 8.343-1.404 1.404-1.646 1.523-3.094 1.523-1.152 0-1.888-.215-2.758-.806zm5.358-2.554c.807-1.614 1.12-7.55.44-8.368-.64-.77-1.62-1.018-2.637-.664-1.255.438-2.529 3.22-2.706 5.911-.153 2.32.268 3.205 1.915 4.027 1.555.775 2.253.564 2.988-.906zm7.55 2.315c-1.535-.79-2.099-2-2.225-4.785-.137-3.028.321-4.92 1.266-5.22.361-.115.754-.112.873.007.119.119.22 1.636.224 3.372.008 2.885.074 3.227.776 3.973 1.525 1.624 2.243.902 2.251-2.263.003-1.097-.16-1.778-.491-2.053-.273-.226-.453-.774-.4-1.217.075-.634.676-1.147 2.816-2.404 2.564-1.507 2.873-1.606 5.39-1.736 2.466-.127 2.661-.092 2.56.456-.092.495-1.885 1.662-3.272 2.13-.256.086-.247.255.032.594.634.768.16 6.828-.586 7.503-1.318 1.193-1.874-.206-1.88-4.726-.005-2.846-.177-3.466-.964-3.466-.792 0-.96.621-.96 3.556 0 3.011-.447 4.247-2.044 5.649-1.256 1.103-2.127 1.266-3.365.63zm339.15-8.738c-.35-.424-.26-.804.57-2.4.542-1.044.936-1.897.876-1.897-.06 0-.586.272-1.168.604-1.38.789-3.286 1.11-4.075.688-.377-.202-.731-.865-.89-1.669-.145-.733-.425-1.387-.622-1.453-.427-.142-1.071 1.557-1.071 2.825 0 .824-1.033 2.205-1.65 2.205-.66 0-.81-1.42-.576-5.44.363-6.225 1.116-9.229 2.439-9.736.704-.27.802.393.435 2.941-.64 4.441-.644 4.577-.147 4.767.257.099.673.008.925-.201.252-.21.79-.333 1.196-.276.603.086.816.427 1.168 1.864.236.968.578 1.852.76 1.964.448.277 3.51.161 4.01-.15.66-.413.493-2.39-.24-2.847-.978-.61-.811-1.741.344-2.339.888-.46 1.058-.46 1.736-.017 1.574 1.032 1.435 2.793-.48 6.071-.705 1.205-1.28 2.318-1.28 2.474 0 .446 1.724.334 2.99-.195 1.484-.62 1.81-.605 1.81.083 0 .67-.687 1.134-2.955 1.996-2.026.77-3.538.82-4.104.138zm-14.503-5.337c.153-1.452.28-4.224.28-6.16l.004-3.52-1.28-.03c-1.97-.046-2.08-.086-2.08-.759 0-.768.903-1.291 2.23-1.291.544 0 1.507-.216 2.14-.48s1.617-.48 2.19-.48 1.559-.216 2.19-.48c1.52-.635 2.13-.606 2.13.103 0 .6-1.899 1.711-3.595 2.104-1.01.234-1.094.505-1.346 4.353-.51 7.755-.922 9.28-2.51 9.28-.6 0-.618-.13-.352-2.64zm-38.243-39.857c-.774-.299-1.558-.783-1.742-1.076-.81-1.29 1.564-2.058 3.308-1.072.678.384 5.133.43 29.28.303 17.746-.093 29.822-.285 32.041-.51l3.561-.363.196-1.632c.108-.898.206-5.089.217-9.313.03-11.44.404-18.175 1.063-19.181.597-.91 1.404-1.074 1.686-.34.1.262.04 2.89-.134 5.84-.174 2.948-.195 5.492-.047 5.652.545.586 10.694.965 23.177.867 7.123-.057 13.048-.234 13.36-.4.496-.266.56-.861.563-5.17.003-6.54.365-8.764 1.61-9.908 1.372-1.26 2.404-1.14 4.82.567 4.984 3.522 11.923 7.869 14.49 9.078 1.537.723 2.861 1.315 2.943 1.315.081 0 .685.348 1.34.774 1.08.699 3.686 1.572 9.674 3.24 2.487.692 2.88.954 2.88 1.922 0 .783-.829 1.186-5.608 2.73-1.143.37-3.12 1.346-4.395 2.17-3.993 2.584-6.734 4.151-8.557 4.892-.968.394-2.552 1.305-3.52 2.025-1.791 1.332-5.253 3.115-6.743 3.473-.832.2-1.29.483-5.159 3.194-2.505 1.755-2.97 1.858-2.719.604.134-.667.021-.995-.44-1.283-.587-.366-.619-.828-.619-8.845 0-4.652-.121-8.533-.27-8.625-.148-.092-.832 0-1.52.206-1.503.448-23.498.526-30.374.107-3.683-.224-4.55-.194-4.851.172-.246.298-.4 2.905-.468 7.909l-.1 7.464.757.572c.945.712.684 1.192-1.055 1.936-1.209.517-3.028.569-21.8.622-11.263.032-22.927.19-25.92.353-2.991.163-8.607.29-12.48.285-5.833-.01-7.28-.105-8.446-.554zm112.68-3.794c1.256-.82 3.218-1.852 4.36-2.293 1.143-.442 3.02-1.447 4.17-2.235 1.15-.788 3.212-1.992 4.582-2.675 1.37-.683 2.49-1.334 2.49-1.447 0-.112-.25-.77-.555-1.46-.51-1.156-.637-1.245-1.572-1.093-.56.09-1.247-.004-1.527-.21-.46-.34-.464-.588-.033-2.616.262-1.232.478-2.697.481-3.255.003-.613.327-1.396.814-1.976.445-.528.697-1.03.56-1.113-.136-.084-1.382-.739-2.767-1.455s-3.258-1.855-4.16-2.53-2.793-1.92-4.2-2.768c-1.409-.848-3.086-1.956-3.727-2.462-1.309-1.034-2.032-1.163-2.32-.415-.361.943-.218 15.981.156 16.355.253.253.253.531 0 1.003-.221.414-.35 3.132-.35 7.395 0 7.92-.152 7.698 3.598 5.25zm4.492-7.563c-.137-.212-.25-1.034-.25-1.826v-1.44l-1.326-.097c-1.166-.085-1.41.022-2.022.88-.716 1.005-1.462 1.269-1.686.595-.07-.21.009-1.172.175-2.137.219-1.27.196-1.923-.081-2.368-.673-1.076.475-5.063 1.669-5.801.758-.469 1.176.19 1.197 1.888l.015 1.28.98-1.2c1.517-1.856 2.795-1.36 1.742.675-.277.536-.503 1.271-.503 1.635 0 .546.14.627.795.463.656-.165.852-.05 1.12.655.485 1.275.398 4.863-.143 5.91-.538 1.04-1.317 1.451-1.682.888zm4.035-3.308c-.301-.363-.227-.619.364-1.247.825-.879.913-.906 1.573-.489.365.231.387.455.107 1.07-.429.941-1.52 1.297-2.044.666zm10.67.47c.926-.556 2.045-1.327 2.485-1.714.917-.807 2.198-1.528 3.92-2.207 2.102-.83 1.923-.943-4.56-2.87-1.496-.445-3.008-1.027-3.36-1.293s-.865-.488-1.14-.494c-.742-.015-1.947 1.802-2.138 3.225-.165 1.234-.158 1.244.773 1.058 1.127-.225 1.46.127 1.996 2.112.28 1.035.295 1.693.057 2.32-.432 1.137-.117 1.115 1.967-.136zm-135.54 11.359c-.118-.118-.214-3.29-.214-7.05 0-5.18-.096-6.872-.4-6.98-.88-.315-11.108-.903-18.865-1.085-8.89-.208-9.839-.397-8.3-1.655.696-.568 1.307-.616 7.68-.608 3.81.005 9.013.217 11.566.471 5.941.59 7.822.6 8.286.04.207-.248.509-2.774.699-5.84.83-13.422.556-12.643 4.2-11.934 2.375.462 9.84.547 22.974.262 5.136-.111 6.26-.043 8.48.512 2.35.587 3.627.64 15.52.64 11.116 0 13.341-.08 15.64-.56 1.472-.309 4.748-.655 7.28-.77 4.548-.207 4.6-.202 4.6.473 0 1.241-1.131 1.577-5.92 1.755-2.463.092-6.567.481-9.12.865-4.258.64-5.52.686-15.36.55-9.29-.128-11.231-.242-14.56-.858-3.291-.61-4.502-.683-8.48-.519-10.814.446-16.633.526-18.993.261-1.916-.215-2.611-.186-2.921.124-.671.67-1.39 10.515-1.663 22.77-.18 8.06-.216 8.433-.856 8.88-.746.523-.962.567-1.273.256zm39.068-3.963c-1.016-.838-1.35-.945-2.347-.758-1.111.208-1.146.188-.797-.464.512-.957-.03-1.824-1.428-2.285-1.398-.462-2.512.126-2.854 1.505-.422 1.7-2.736 3.262-2.736 1.847 0-.925 1.56-3.567 2.693-4.562 1.546-1.358 2.939-1.575 4.804-.75 1.69.747 2.423.616 2.423-.432 0-.4.216-.906.48-1.125.66-.547.602-1.198-.126-1.43-.333-.105-1.547-1.195-2.698-2.421-2.693-2.87-3.892-2.947-5.356-.342-.792 1.41-1.931 2.113-2.5 1.544-.602-.601-.405-1.45.476-2.056.46-.316 1.432-1.095 2.16-1.73 1.71-1.491 2.491-1.885 3.736-1.885.849 0 1.39.398 3.32 2.443 2.186 2.319 2.376 2.444 3.699 2.444 1.73 0 2.319-.66 2.055-2.306-.146-.916-.044-1.276.504-1.772.881-.797 1.73-.342 1.866 1.001.162 1.609-.43 2.5-2.629 3.956-1.6 1.06-2.18 1.65-2.398 2.437-.158.57-.66 1.528-1.118 2.128-.457.599-.83 1.24-.83 1.426 0 .583 2.23 2.323 2.97 2.318 1.276-.01 1.618-.496 1.764-2.514.097-1.338.32-2.093.73-2.464 1-.905 1.575-.363 1.575 1.484 0 1.6-.053 1.693-2.1 3.69-2.505 2.444-3.446 2.633-5.338 1.073zm-300.02-4.208c-.696-.696-.403-1.617.896-2.816 1.309-1.209 1.563-2.073.949-3.221-.214-.398-.67-.62-1.28-.62-.724 0-.95-.145-.95-.616 0-1.478 2.282-2.167 3.757-1.134.967.677 1.234 2.374.575 3.648-.288.559-.722 1.092-.963 1.184-.637.245-.898 1.145-.42 1.448.227.144 1.168.263 2.092.266 1.937.006 2.202.507.837 1.582-.662.52-1.303.663-2.976.663-1.233 0-2.295-.162-2.517-.384zM16 148.419c0-.208.291-.69.647-1.068l.648-.69-1.279-3.615c-.703-1.99-1.323-3.66-1.376-3.714-.054-.053-.729.045-1.5.218-2.902.652-2.21-1.209.73-1.964.731-.188 2.41-.694 3.73-1.125 2.736-.89 4.16-1.004 4.16-.33 0 .472-2.4 1.788-3.262 1.788-1.189 0-1.18.752.047 4.32 1.294 3.762 1.659 4.144 3.07 3.219.641-.42.785-.778.785-1.96 0-2.459 1.464-4.62 3.131-4.62.81 0 4.492 2.806 5.615 4.278.938 1.23 2.144 1.523 3.435.832 1.058-.567.729.304-.564 1.488-1.917 1.755-2.855 1.558-5.578-1.176-2.28-2.289-3.23-2.676-3.415-1.39-.052.366.128.85.4 1.076 1.27 1.054.234 1.825-4.788 3.561-3.848 1.33-4.636 1.479-4.636.873zm633.09-5.749c-.863-.975-5.049-3.675-6.376-4.113-.85-.28-1.114-.545-1.114-1.117 0-.605.292-.85 1.52-1.281.836-.293 2.6-1.02 3.92-1.614 4.11-1.85 4.32-1.802 4.32.974v1.6l5.92.203c3.256.112 10.6.38 16.32.596 9.802.37 10.584.358 13.6-.211l3.2-.604.034-1.132c.018-.623.295-1.532.615-2.02.32-.489.63-1.334.69-1.88.117-1.07.908-2.152 1.573-2.152.227 0 .601.383.83.85.23.468.634.96.898 1.092.264.132 1.74.823 3.28 1.534 3.133 1.448 3.258 1.677 2.027 3.724-.812 1.35-2.1 2.28-5.826 4.203-2.735 1.412-3.338 1.315-3.266-.524.028-.716-.087-1.44-.256-1.608-.195-.196-1.75-.004-4.293.528l-3.986.835-9.76-.352c-5.368-.193-11.507-.521-13.642-.728-2.528-.246-4.48-.275-5.6-.086l-1.718.292-.188 1.406c-.283 2.119-1.581 2.875-2.723 1.585zm47.16-4.062c.092-.275-.061-.39-.426-.32-.314.061-.635.305-.714.541-.092.276.062.391.427.32.314-.06.635-.304.714-.54zm10.423 2.661c-.3-.78.952-1.75 2.26-1.75 2.234 0 2.1-1.302-.28-2.696-2.487-1.458-2.572-2.566-.332-4.348 1.786-1.422 2.837-1.916 4.07-1.916.607 0 1.569-.345 2.248-.807.653-.443 1.61-.89 2.126-.994 1.161-.232 2.97.337 3.727 1.173.748.827 1.256.792 2.52-.172 1.197-.913 2.472-1.031 3.206-.298.702.703.633 1.002-.377 1.628-.484.3-1.24.86-1.68 1.246s-1.29.791-1.89.903c-.599.112-1.679.685-2.4 1.273-.72.587-1.634 1.24-2.03 1.45-.488.257-.72.673-.72 1.286 0 1.734-2.039 3.34-2.78 2.192-.143-.22-.331-1.912-.42-3.76-.18-3.759.13-3.442-2.877-2.949-2.007.33-2.01.997-.009 2.434 2.734 1.964 2.8 3.367.259 5.411-1.5 1.206-4.265 1.621-4.621.694zm11.569-7.249c.62-.282.806-.578.735-1.168-.114-.942-1.598-2.14-2.31-1.867-.668.256-.67 2.244-.004 2.911.602.602.54.597 1.578.124zm7.097 7.499c-.077-.132-.24-1.33-.36-2.663-.237-2.587.088-3.358 1.313-3.122 1.042.2 1.415 3.467.581 5.08-.46.89-1.222 1.24-1.534.705zm-387.33-6.145c-.746-.12-1.72-.558-2.163-.974l-.805-.758-.945.699c-1.661 1.228-2.183.77-.81-.712 1.014-1.095 1.003-1.316-.124-2.443-.811-.811-1.047-.888-1.938-.632-1.042.299-2.874 1.717-4.033 3.123-.402.488-.896.746-1.28.669-.51-.102-.133-.609 2.043-2.749 3.171-3.118 5.126-3.946 6.63-2.808.914.69 1.24.607 2.478-.63 2.148-2.148 2.81-.99.819 1.433-.504.612-.915 1.343-.915 1.624 0 .794 1.39 1.909 2.631 2.11.93.151 1.213.055 1.646-.563.288-.41.523-1.196.523-1.746 0-1.166.992-2.237 1.789-1.931.424.162.5.497.372 1.634-.19 1.679-.793 2.7-2.235 3.78-1.317.987-1.985 1.146-3.683.874zM30.41 120.3c0-.15.156-.613.346-1.031.465-1.02-.922-5.778-1.73-5.934-.42-.08-.536.143-.536 1.033 0 1.261-1.086 2.288-2.035 1.924-.99-.38-.626-1.19 2.819-6.293 1.254-1.858 2.416-1.526 2.416.69 0 1.075 1.457 6.032 1.946 6.621.248.299.78.37 1.765.235 1.118-.153 1.41-.095 1.41.28 0 .764-1.153 1.59-2.63 1.888-.754.152-1.91.407-2.57.567s-1.2.17-1.2.02zm616.84-1.648c-.794-1.184-1.749-2.05-3.3-2.994-1.674-1.017-2.208-1.52-2.284-2.152-.071-.595.106-.933.64-1.216.407-.216 1.51-1.077 2.45-1.913 1.689-1.5 3.091-2.226 2.843-1.473-.068.206-.858.95-1.755 1.655-1.648 1.293-2.024 1.967-1.261 2.26.608.233 2.804-.75 3.823-1.71.938-.885 1.196-2.31.419-2.31-.896 0-.922-.745-.053-1.493 1.091-.938 1.935-.95 2.576-.036.687.981.623 2.025-.193 3.128-1.267 1.715-.928 1.793 8.767 2.038 4.798.12 9.372.367 10.163.546s4.464.406 8.16.502c5.244.136 7.453.062 10.056-.335 1.835-.28 5.183-.51 7.44-.51 3.85 0 4.104.038 4.104.622 0 1.312-1.117 1.618-5.911 1.618-2.56 0-5.658.207-7.21.48-3.164.557-12.102.632-15.52.13-2.901-.427-8.672-.867-14.795-1.128-5.796-.247-5.844-.227-5.844 2.434 0 1.906-.81 3.524-1.763 3.524-.24 0-.939-.75-1.553-1.667zm-575.76-.208c-6.124-1.569-9.727-4.711-9.727-8.486 0-2.44 0-2.44-3.535-2.44-1.731 0-3.229.133-3.328.294-.1.162-.272.99-.382 1.84-.43 3.305-1.763 3.46-5.869.681-1.613-1.091-3.072-2.243-3.24-2.56-.412-.768.118-1.716 1.301-2.328.51-.264 2.055-1.201 3.43-2.083 1.377-.882 2.678-1.603 2.892-1.603.573 0 1.051 1.08 1.051 2.379v1.14h7.6l1.022-2.16c.675-1.424 1.75-2.904 3.16-4.348 2.58-2.642 4.685-3.731 7.207-3.731 2.05 0 7.045.986 9.331 1.842 1.504.563 1.594.66 1.5 1.618-.08.814.134 1.26 1.069 2.22.643.66 1.51 1.944 1.925 2.853.875 1.918 1.416 2.176 3.549 1.694 1.056-.239 7.58-.331 20.277-.286 10.296.036 29.736-.111 43.2-.328 27.054-.435 26.182-.433 52.226-.165 13.374.137 18.8.09 19.68-.175.668-.2 3.316-.443 5.884-.54l4.67-.177.374-4.038c.206-2.221.53-5.334.72-6.918.214-1.78.277-5.94.165-10.88-.152-6.691-.312-8.681-.98-12.16-.552-2.868-.803-5.278-.81-7.76-.007-2.652-.114-3.605-.41-3.62-2.319-.107-7.67.127-9.123.4-1.01.19-5.201.435-9.315.543l-7.478.197-.362 1.12c-.246.764-.583 1.151-1.06 1.22-1.041.147-1.601-1.028-1.801-3.78-.096-1.32-.472-3.624-.835-5.12-.484-1.992-.662-3.791-.668-6.72-.004-2.2-.143-4.216-.31-4.48-.245-.388-1.52-.521-6.635-.694-3.483-.117-6.98-.363-7.772-.546s-3.43-.339-5.862-.346l-4.421-.014-1.059 1.04c-1.968 1.934-4.475 3.47-8.178 5.01-.968.402-2.912 1.29-4.32 1.974-1.408.684-5.08 2.115-8.16 3.18-9.947 3.443-10.666 3.741-14.638 6.075-3.064 1.8-3.272 1.641-3.309-2.519-.015-1.694-.195-5.66-.4-8.813l-.373-5.733-1.6-.562c-1.368-.481-2.865-.566-10.332-.588-9.896-.028-38.573.54-39.668.786-.666.15-.72.337-.72 2.493 0 2.769-1.03 5.221-2.667 6.35-.557.385-1.835 1.47-2.84 2.414-2.434 2.284-3.418 2.653-7.065 2.653-3.85 0-5.5-.562-7.783-2.648-2.194-2.005-4.443-6.222-4.728-8.863-.103-.95-.297-1.83-.432-1.956s-2.583-.285-5.44-.353c-5.75-.138-6.514-.373-5.263-1.624.683-.683.96-.716 5.877-.716h5.159l.56-1.98c.309-1.09.97-2.734 1.472-3.654.98-1.8 4.364-4.951 6.474-6.028 1.481-.755 4.817-1.135 6.59-.75 1.056.23 1.274.41 1.28 1.055.005.62.383.973 1.866 1.747 2.175 1.134 3.88 3.18 5.823 6.99l1.282 2.515 9.278-.07c5.102-.04 16.838-.16 26.078-.269l16.8-.197.105-3.84c.057-2.112-.073-5.02-.289-6.461-.342-2.278-.328-2.722.102-3.38.28-.426.427-1.12.337-1.59-.124-.649.032-.957.71-1.401.994-.651.562-.84 5.218 2.272a170.84 170.84 0 004.709 3.04 560.28 560.28 0 014.752 2.95c9.393 5.89 13.652 8.264 17.1 9.526 1.933.707 2.072.717 3.13.212 1.516-.722 13.071-.755 17.085-.047 3.135.552 11.69.66 12.005.152.112-.18.187-3.398.168-7.15-.037-7.397.144-8.522 1.376-8.522.421 0 1.156-.307 1.633-.683.756-.595 1.12-.655 2.843-.47 11.349 1.224 21.979 1.133 33.656-.287 10.284-1.25 12.058-1.413 15.556-1.426 2.044-.008 4.47-.158 5.392-.332 2.775-.527 2.731-.623 2.731 6.137 0 6.47.385 11.326.928 11.712.194.138 3.952.153 8.352.034s10.757-.232 14.126-.25c5.27-.03 6.153-.106 6.32-.541.326-.847.222-13.52-.111-13.725-.51-.315-.035-1.035 1.524-2.314l1.482-1.215 10.58-.32.098-1.72c.08-1.414-.027-1.853-.604-2.468-.626-.666-.659-.851-.304-1.707.268-.648.327-1.666.18-3.134-.209-2.071-.18-2.21.63-2.972.821-.771 1.016-.801 5.625-.862 2.626-.034 4.775.054 4.775.197 0 .142-.548.639-1.217 1.103-1.098.76-1.504.843-4.139.843-3.271 0-3.469.147-3.01 2.24.237 1.079.293 1.115 1.506.997 2.448-.24 2.536-.224 2.639.495.083.588-.18.78-1.753 1.28l-1.851.588-.084 2.24c-.046 1.232.053 2.456.22 2.72.387.61 3.382.885 12.53 1.153 5.617.165 7.493.105 9.96-.315 2.506-.427 5.695-.518 18.223-.518h15.186l1.476.978c.96.635 1.59 1.335 1.804 2 .615 1.912 1.079 6.13 1.275 11.582l.195 5.44 5.149.189c2.831.104 5.328.3 5.548.437.912.563 16.708 1.34 20.024.985 1.768-.189 2.16-.341 2.381-.925.146-.384.442-3.575.657-7.092.215-3.517.654-7.758.976-9.424.839-4.345 1.681-4.795 4.573-2.44.953.777 2.146 1.628 2.652 1.892.506.264 2.144 1.44 3.64 2.615 2.672 2.096 10.262 6.862 11.955 7.505.474.18.942.537 1.04.792.305.795 3.996 2.944 6.92 4.03 1.536.57 2.96 1.237 3.164 1.482.522.63-.333 1.49-2.91 2.927-1.15.64-2.809 1.71-3.689 2.374-.88.666-1.733 1.21-1.896 1.211-.164 0-1.501.585-2.973 1.297a83.999 83.999 0 01-5.49 2.37c-1.549.59-3.81 1.574-5.028 2.187a76.012 76.012 0 01-4.293 1.97c-3.4 1.401-3.975 1.7-5.298 2.754-2 1.593-3.897 2.6-4.69 2.487-.695-.098-.73-.233-.71-2.664.028-3.235.668-11.668.938-12.368.112-.29.047-.624-.145-.743s-3.39-.2-7.105-.181c-6.584.033-9.162-.137-17.07-1.122-2.112-.264-4.807-.476-5.989-.473-2.506.008-2.808.307-2.817 2.786-.011 3.19-1.389 10.016-2.23 11.057-.546.675-.953.744-5.975 1.028-2.964.167-14.533.311-25.71.32-18.458.014-20.73.074-24.8.648-3.009.425-6.265.635-9.92.64l-5.44.008-.186-4.16c-.103-2.288-.532-6.3-.952-8.916-.72-4.468-.814-4.774-1.573-5.07-.512-.2-4.087-.233-9.768-.09l-13.56.337c-2.53.062-4.675.187-4.767.28-.092.091.02 1.717.25 3.613.61 5.042.75 10.24.305 11.314-.858 2.071-1.963 2.21-21.648 2.722-4.784.125-8.888.343-9.118.485-.638.395-.437 5.835.384 10.364.904 4.986 1.266 19.16.606 23.68-.231 1.584-.45 5.112-.487 7.84-.037 2.728-.08 5.363-.096 5.855-.017.51-.39 1.256-.872 1.737-.809.81-.86.82-1.28.244-.24-.329-.437-.95-.437-1.38v-.783l-5.52.179c-3.036.098-6.067.342-6.736.543-1.253.375-32.712.231-40.544-.186-2.024-.108-6.128-.031-9.12.17-3.274.22-21.442.457-45.63.594-31.542.178-40.296.314-40.677.63-.266.221-.572 1.143-.68 2.049-.23 1.954-1.668 4.485-3.698 6.515-3.075 3.075-6.419 3.647-12.388 2.119zm10.046-1.937c.653-.336 1.747-1.366 2.43-2.29 1.173-1.581 1.251-1.833 1.386-4.428.096-1.84 0-3.15-.29-3.957-.599-1.67-2.396-3.857-4.025-4.9-.752-.481-1.544-1.242-1.76-1.69-.513-1.064-2.367-1.609-6.314-1.854-2.762-.171-3.186-.119-4.64.573-1.435.684-1.724 1.01-2.807 3.16-.664 1.319-1.168 2.758-1.12 3.198l.087.8 13.963.172-.101.714c-.167 1.177-1.765 1.476-8.01 1.496-5.063.016-5.7.078-5.962.578-.446.852-.063 2.679.804 3.838 1.096 1.465 4.253 3.523 6.08 3.962.85.204 2.195.552 2.987.772 2.315.645 5.899.574 7.292-.144zm144.33-59.872c3.736-.463 8.75-.73 17.902-.954 15.87-.39 22.646-.675 23.13-.974.606-.375.375-5.35-.674-14.515-.86-7.502-1.066-11.772-.837-17.313.05-1.235.02-1.278-.907-1.208-.528.04-3.696.218-7.04.396s-7.016.456-8.16.619c-2.013.286-4.499.59-10.88 1.332-4.957.576-17.838.739-23.04.292l-6.307-.544c-2.052-.178-2.078-.112-1.946 4.87.092 3.482.101 3.52.973 3.937l.88.42.05 4.223c.027 2.323.082 7.51.122 11.53.04 4.018.206 7.44.37 7.603 1.005 1.005 9.384 1.152 16.364.287zm11.197-4.362c-.057-.29-.015-2.903.094-5.807l.198-5.282-1.004-.881c-.552-.485-1.877-1.538-2.945-2.34-2.688-2.021-6.523-6.507-6.525-7.633 0-.74.718-1.532 1.39-1.532.085 0 1.283 1.306 2.662 2.903 2.708 3.135 7.234 6.855 7.99 6.565.253-.097.707-.629 1.008-1.181 1.38-2.526 7.122-9.567 7.803-9.567.526 0 .225.525-1.968 3.429-2.975 3.941-4.935 7.224-5.742 9.618-.547 1.625-.664 2.764-.664 6.463 0 4.064-.061 4.551-.64 5.13-.776.776-1.516.828-1.657.115zm172.64 3.993c.385-.205 1.42-.91 2.3-1.567 1.591-1.19 6.143-3.481 10.72-5.398 4.419-1.852 7.419-3.377 7.71-3.919.449-.84.022-1.463-1.155-1.683-.66-.124-1.154-.438-1.272-.809-.206-.647.48-3.152 1.47-5.368.333-.746.606-1.477.606-1.625 0-.532-1.514-1.643-5.508-4.042-2.237-1.344-5.213-3.338-6.613-4.43-1.4-1.093-3.386-2.52-4.413-3.17-1.584-1.006-1.92-1.114-2.224-.717-.197.257-.524 2.734-.728 5.504l-.654 8.876c-.156 2.112-.432 4.488-.615 5.28-.32 1.392-.867 6.331-1.232 11.12-.192 2.522.028 2.79 1.608 1.948zm9.754-9.788c-.328-.687-.7-.915-1.698-1.04-1.608-.201-1.735-.852-.813-4.18.36-1.301.656-2.878.656-3.502 0-1.364.76-2.558 1.628-2.558.942 0 1.063.749.49 3.033-.7 2.784-.699 2.79.557 2.555 1.307-.245 1.367-.122 1.46 3.002.055 1.846-.048 2.481-.482 2.96-.764.845-1.305.763-1.798-.27zm-6.46-.342c-.233-.379.454-6.836.796-7.476.16-.297.29-.966.29-1.487 0-1.16 1.55-2.935 2.564-2.935.838 0 .805.313-.462 4.437-.453 1.471-.823 3.214-.823 3.872 0 1.59-.57 3.152-1.293 3.538-.712.381-.863.388-1.071.051zm12.125-3.898c-.296-.478.115-.96.819-.96.708 0 .797.337.237.896-.468.468-.794.488-1.056.064zM145.73 54.606c1.26-.765 3.068-1.65 4.018-1.964.95-.316 2.546-.98 3.55-1.479 1.003-.497 2.38-1.043 3.062-1.212 3.248-.807 7.592-2.32 9.59-3.343 1.214-.621 3.505-1.67 5.089-2.33 3.802-1.584 4.436-1.994 3.966-2.56-.2-.242-.559-.44-.796-.44-.911 0-5.512-1.669-7.65-2.775-2.383-1.232-7.568-4.32-13.6-8.1-2.024-1.268-4.316-2.688-5.093-3.155s-2.344-1.462-3.482-2.21c-2.95-1.938-3.002-1.911-2.797 1.44.094 1.54.24 6.544.324 11.12.168 9.133.472 17.376.665 18 .199.647.73.48 3.154-.992zm9.469-9.808c-.31-1.148-.449-1.28-1.347-1.28-.552 0-1.247-.221-1.546-.491-.497-.45-.559-.412-.733.462-.2.997-1.361 1.89-1.838 1.413-.328-.328-.45-9.943-.135-10.732.244-.614 1.262-1.04 1.756-.734.178.11.336 1.595.353 3.3l.03 3.102.646-2.88c.682-3.038 1.227-4 2.266-4 .564 0 .609.145.415 1.36-.119.748-.303 2.355-.408 3.57l-.192 2.211.757-.53c1.412-.99 1.785-.723 2.01 1.436.355 3.4.27 4.375-.413 4.741-1.012.542-1.259.397-1.621-.948zm-10.686-2.746c-.107-.279-.194-1.074-.194-1.768 0-1.057-.133-1.312-.813-1.571-.664-.252-.755-.417-.498-.898.174-.325.54-.776.813-1.003.274-.227.498-.883.498-1.458 0-1.287.965-2.585 1.71-2.3.352.135.53.576.53 1.311 0 1.05.655 2.113 1.302 2.113.582 0 .285 1.058-.502 1.788-.595.551-.8 1.067-.8 2.014 0 1.8-1.528 3.123-2.046 1.772zm168.13 13.305c7.22-1.14 17.342-1.597 26.08-1.18 5.196.249 20.447.093 27.776-.284 4.038-.207 3.713.136 4.565-4.822.785-4.569.829-17.923.073-22.353-.494-2.896-.648-3.294-1.618-4.188l-1.071-.987-14.542-.192c-12.352-.163-14.976-.117-17.422.308-4.309.747-13.033.888-18.481.298-6.364-.688-16.78-1-17.971-.537-.709.275-.843.45-.56.733.26.262.372 2.558.372 7.703 0 5.022.15 8.2.474 10.096 1.096 6.384 1.423 9.024 1.508 12.152.057 2.134.223 3.382.469 3.52.549.308 7.902.118 10.349-.267zm21.13-2.81c.005-.302.221-.83.48-1.17.81-1.071.575-2.005-.725-2.888-1.79-1.216-3.005-1.083-4.745.52-1.019.94-1.545 1.232-1.784.993-1.164-1.164 3.014-4.565 5.607-4.565.367 0 1.417.38 2.333.843l1.666.843 1.2-1.243c1.025-1.063 1.218-1.156 1.33-.644.07.33-.127 1.169-.441 1.865-.703 1.559-.356 1.904 1.789 1.78 1.414-.082 1.448-.11 1.92-1.593.825-2.595 2.24-3.294 2.24-1.106 0 1.31-1.167 3.028-2.85 4.194-1.238.858-1.45.9-3.543.706-2.195-.204-2.236-.194-2.926.739-.852 1.152-1.565 1.487-1.551.726zm4.452-9.973c-.45-.136-1.87-1.061-3.158-2.056-3.641-2.813-4.483-2.797-6.835.133-1.509 1.88-2.203 2.276-2.669 1.522-.294-.475 4.394-4.927 5.86-5.564 1.5-.652 2.626-.277 5.092 1.694 2.463 1.968 3.208 2.334 4.75 2.334 1.233 0 1.617-.38 1.936-1.92.423-2.033 1.884-2.98 2.263-1.467.275 1.092-.632 2.811-2.285 4.335-1.201 1.107-1.598 1.288-2.77 1.265-.751-.015-1.734-.14-2.184-.276zm-5.237-7.975c-.106-.173-.023-.688.186-1.146.334-.733.267-.99-.567-2.177-.52-.74-1.345-1.565-1.833-1.832-.964-.53-1.076-.445-3.365 2.55-.597.78-.846.91-1.198.618-.371-.309-.3-.625.434-1.941.483-.865 1.354-2.036 1.935-2.603.874-.85 1.309-1.03 2.496-1.03 1.303 0 1.57.142 2.853 1.52.779.835 1.472 1.52 1.54 1.52.07 0 .672-.434 1.339-.965.667-.53 1.274-.902 1.35-.827.198.198-.898 1.791-1.232 1.791-.543 0-.28 1.26.332 1.587.796.426 4.456.51 4.855.11.169-.168.484-1.16.7-2.201.474-2.278.712-2.696 1.539-2.696.946 0 1.087.834.472 2.785-.398 1.263-.972 2.161-2.047 3.2l-1.494 1.445-3.34-.163c-2.598-.127-3.497-.06-4.05.302-.436.286-.786.345-.905.153zM79.79 51.048c2.016-.954 3.56-2.404 4.393-4.13.498-1.03.619-1.974.618-4.821 0-3.348-.055-3.644-1.006-5.46-1.296-2.473-2.674-4.482-3.834-5.59-1.097-1.049-4.067-2.25-5.561-2.25-1.383 0-2.078-.28-2.078-.834 0-.508-2.083-.64-2.385-.15-.1.162-.595.385-1.099.496-1.656.364-3.068 2.55-4.067 6.301-.758 2.845-.593 3.147 1.717 3.147 1.986 0 2.634-.355 2.634-1.444 0-.713 1.528-2.396 2.174-2.396.21 0 1.021.468 1.805 1.04s2.656 1.815 4.162 2.763c1.507.947 2.739 1.897 2.739 2.11 0 .713-1.1 1.395-3.536 2.19-1.329.434-2.913 1.091-3.52 1.462-2.241 1.366-3.844.68-4.125-1.765l-.18-1.56h-4.16l.03 1.28c.062 2.844 3.277 7.787 5.951 9.151 2.867 1.462 6.8 1.656 9.328.46zm356.14-7.449c1.794-.875 3.715-2.38 3.558-2.788-.083-.216-1.116-.785-2.296-1.265-1.18-.48-2.682-1.222-3.338-1.65-2.072-1.352-2.513-1.124-2.986 1.541-.213 1.206.057 1.514.733.838.2-.2.589-.276.864-.17.386.148.502.682.502 2.308v2.115l.963-.212c.53-.116 1.43-.439 2-.717zM73.61 41.456c0-.078-.144-.23-.32-.339s-.32-.045-.32.141c0 .187.144.34.32.34s.32-.064.32-.142zm637.15 76.861c-.15-.396-.38-1.512-.512-2.48-.366-2.692-.638-3.2-1.713-3.2-1.262 0-1.675.61-1.94 2.862-.226 1.908-.97 3.218-1.83 3.218-1.025 0-.939-3.805.204-9.042.708-3.243 1.415-4.68 2.498-5.08.958-.352 1.882.615 3.357 3.514.93 1.83 1.202 2.126 1.933 2.115 1.02-.015 1.05.155.211 1.22-.645.82-.832 1.854-.412 2.274.125.125.902-.535 1.727-1.467 1.425-1.61 2.5-1.951 1.598-.508-.232.373-.497 1.497-.588 2.5-.224 2.468.353 2.907 3.475 2.646 1.819-.153 2.2-.102 2.2.292 0 .262-.3.749-.668 1.082-.846.765-4.936 1.049-6.398.443-.728-.301-1.06-.31-1.335-.035-.598.597-1.515.418-1.807-.354zm-1.712-8.32c-.073-.22-.397-.4-.72-.4-.322 0-.646.18-.72.4-.084.253.18.4.72.4s.805-.147.72-.4zm14.373 7.227c-.117-.118-.213-3.292-.213-7.055v-6.841l.843-.843c.809-.81.86-.819 1.28-.244.311.426.437 1.687.437 4.377 0 3.436.222 4.395.8 3.459.275-.445 1.87-.401 2.336.064.567.567.47 1.244-.296 2.059-.903.96-.593 1.608.97 2.029 1.5.404 1.78.73 1.335 1.561-.46.86-1.243.977-3.191.478-1.648-.422-1.726-.41-2.65.367-.995.837-1.295.944-1.65.589zM390.3 113.57c-.456-.652-.53-1.799-.53-8.312 0-4.155-.073-7.629-.162-7.718-.09-.09-1.71.611-3.598 1.558-1.89.947-3.724 1.68-4.077 1.63-.463-.066-.719-.45-.916-1.372-.518-2.425-.669-2.608-2.338-2.843-.852-.119-4.896-.351-8.988-.515-4.091-.165-7.727-.453-8.08-.642-.848-.454-.81-1.154.094-1.747.648-.424 1.095-.427 3.76-.03 2.342.35 11.766.695 14.305.524.262-.018.4-.565.4-1.578 0-3.423 2.772-3.42 7.312.007 2.056 1.552 2.414 1.33 2.14-1.336-.1-.968-.272-4.578-.384-8.023l-.203-6.263.748-.697c.831-.774 1.568-.91 1.624-.297.02.22.011 1.84-.02 3.6s.11 4.568.315 6.24c.204 1.672.466 8.224.58 14.56l.208 11.52 3.36-.039c6.42-.073 28.651-.772 30.55-.96 2.084-.206 2.629-.565 4.521-2.983 2.06-2.632 9.435-8.487 9.401-7.465-.004.136-.904.928-2 1.762-2.252 1.712-3.642 3.003-6.632 6.161a119.64 119.64 0 01-3.765 3.792c-1.559 1.475-1.742 1.564-2.446 1.187-.528-.282-1.43-.343-2.955-.197-1.206.115-7.162.346-13.234.514-6.072.168-12.71.398-14.75.512-3.646.203-3.719.193-4.24-.55zM4.81 111.957c-1.681-.67-2.24-1.536-2.24-3.472 0-1.554.173-2.066 1.26-3.738 1.334-2.055 2.959-3.63 3.743-3.63 1.227 0 3.385.79 3.807 1.392 1.197 1.708.182 6.652-1.766 8.6-1.04 1.04-1.403 1.205-2.606 1.188-.769-.011-1.758-.164-2.198-.34zm3.796-1.846c.496-.314.97-2.429.99-4.423.01-1.015-.139-1.43-.605-1.68-.78-.417-2.26-.432-2.26-.022 0 .17-.433.8-.96 1.402-1.548 1.762-1.254 3.41.8 4.482 1.112.581 1.437.62 2.035.241zm4.204 1.893c-1.024-.648-.218-5.456 1.027-6.123.944-.505 1.225.145 1 2.31-.213 2.035.192 2.614 1.193 1.708.497-.45.62-.99.62-2.717 0-2.324.164-2.545 1.883-2.545.478 0 1.006-.13 1.173-.288.647-.614 6.095-2.645 7.56-2.818 1.396-.165 1.544-.12 1.544.462 0 .87-.656 1.357-2.131 1.583-2.106.322-2.238.602-1.973 4.166.226 3.03.208 3.161-.533 3.91-1.281 1.295-1.723.54-1.831-3.125-.088-2.953-.124-3.095-.83-3.195-.98-.139-2.302.758-2.302 1.563 0 1.027-1.478 3.663-2.568 4.58-1.045.879-2.878 1.132-3.832.529zm337.28-5.42c0-.729.47-1.368 1.333-1.814 1.041-.539 1.668-1.808 1.364-2.765-.19-.598-.24-.588-1.065.202-2.128 2.038-2.209.03-.125-3.077.83-1.235 1.83-2.458 2.226-2.717 1.319-.864 1.489-.33 1.309 4.11l-.167 4.114h.736c1.726 0 2.232.744 1.164 1.71-.46.416-1.25.53-3.68.53-1.702 0-3.095-.132-3.095-.294zm-14.369-4.808c-.44-.272-.362-.992.79-7.219.293-1.584.552-3.096.576-3.36.047-.525-.438-.547-3.237-.15-1.55.22-1.68.19-1.68-.406 0-.854.53-1.235 2.08-1.495 2.098-.352 2.887-.794 3.281-1.839.36-.955.419-.98 1.828-.768.908.136 1.873.067 2.565-.183 2.246-.812 1.67.592-.7 1.706-.76.357-1.45.758-1.532.891-.082.133-.357 1.592-.611 3.243-1.37 8.893-1.399 9.008-2.352 9.519-.327.174-.78.202-1.008.061zm8.683-.393c-.245-.245-.308-.996-.183-2.195.253-2.417-.281-2.728-1.24-.723-.77 1.615-1.904 2.21-2.29 1.203-.295-.769 1.675-8.205 2.362-8.916 1.312-1.358 2.204.784 1.117 2.685-.251.44-.462 1.062-.469 1.382-.01.571.172.573 1.75.017.876-.308 1.28.533 1.28 2.67v2.171l1.04.1c1.26.122 1.307.442.196 1.317-.93.732-2.955.896-3.562.29zm62.012-.728c-.18-.473-.326-1.136-.326-1.473 0-.788-1.204-1.102-2.794-.728-.877.206-1.417.608-1.98 1.473-.425.655-1.03 1.19-1.342 1.19-.485 0-.557-.252-.484-1.694.077-1.543.219-1.828 1.582-3.192.824-.823 1.503-1.681 1.51-1.906.007-.224.768-1.632 1.693-3.128 1.936-3.135 2.875-3.657 3.34-1.86.317 1.221.278 1.215 2.737.456 1.024-.316 2.196-.49 2.605-.388.425.107 1.182.871 1.771 1.79.566.88 1.197 1.602 1.404 1.602.206 0 1.142-.576 2.079-1.28 1.866-1.402 3.239-1.685 3.239-.667 0 .435-.431.779-1.481 1.18-1.12.427-1.588.821-1.92 1.616-.733 1.753-.558 2.871.656 4.196 1.08 1.178 1.129 1.195 3.52 1.195 1.334 0 2.425.081 2.425.18 0 .432-1.839 1.874-2.644 2.073-1.595.394-3.65-.134-5.04-1.297-.916-.765-1.463-1.014-1.849-.842-.3.134-1.267.584-2.147 1-.88.415-2.176.79-2.88.832-.704.042-1.745.179-2.313.304-.922.203-1.069.134-1.36-.632zm7.01-2.246c.499-.258.994-.698 1.102-.978.229-.597-.336-2.058-1.522-3.936-1.219-1.932-1.594-1.743-1.336.67.2 1.865.158 2.06-.582 2.756-.668.628-.737.847-.421 1.353.451.722 1.522.775 2.76.135zm-3.752-.876c-.299-.299-.47-.299-.768 0-.299.299-.214.384.384.384.597 0 .682-.085.384-.384zm-4.283-2.805l.102-1.43-.691.626c-1.452 1.314-1.557 2.524-.202 2.331.57-.081.707-.346.791-1.527zm3.599.549c.23-.925.225-2.756-.01-3.12-.27-.423-.37-.417-.833.045-.651.651-.357 3.155.37 3.155.249 0 .461-.036.472-.08zm313.79 1.735c-.988-1.091-.542-2.47 1.32-4.08.958-.83 1.13-1.178 1.092-2.204-.025-.67-.262-1.55-.527-1.954-.461-.703-.525-.713-1.478-.238-1.439.718-3.66.403-4.735-.671-.976-.977-1.153-3.03-.385-4.464.658-1.23 3.505-3.314 4.875-3.568 2.603-.482 3.637.845 3.872 4.964.085 1.496.357 3.296.605 4 .538 1.53 1.047 1.548 3.09.106.76-.536 1.478-.875 1.599-.755.218.218-1.712 2.085-3.22 3.114-.672.459-.821.859-.942 2.522-.129 1.782-.25 2.067-1.24 2.886-1.312 1.089-3.109 1.245-3.926.342zm2.83-2.615c0-.41-.162-.8-.36-.866-.4-.134-.733.797-.516 1.442.225.668.876.24.876-.576zm-1.905-10c.016-2.384-.26-2.702-1.988-2.289-1.393.333-1.707.734-1.702 2.168.007 1.995.51 2.457 2.555 2.343l1.12-.062.015-2.16zm-10.658 4c-.123-.308-.226-1.831-.23-3.384l-.007-2.824 1.174-1.077c1.51-1.384 3.656-2.022 4.377-1.302.618.62.298 1.003-1.617 1.936l-1.337.651.083 2.503c.061 1.859-.048 2.703-.426 3.28-.593.906-1.696 1.024-2.017.217zm-20.044.006c-.106-.106-.205-.997-.22-1.98-.04-2.615-.437-5.419-.824-5.805-.236-.236-1.146-.237-3.023-.004-1.48.183-11.953.397-23.326.475l-20.64.142-2.367.795c-2.524.847-3.565.836-2.846-.03.825-.994 2.735-1.93 5.06-2.482 2.149-.51 4.58-.576 23.833-.643 14.84-.051 21.714-.184 22.33-.43.847-.339.882-.435.694-1.88-.166-1.28-.088-1.64.481-2.244 1.72-1.824 4.623.178 6.537 4.507.63 1.422 1.032 1.914 1.785 2.177.816.284.972.507.972 1.388 0 2.682-1.63 4.573-4.19 4.861-.952.107-1.879.31-2.06.452-.576.449-1.996.902-2.197.701zm15.99-1.647c-.095-.155-.034-2.423.135-5.04.452-6.968.585-6.29-1.198-6.093a33.01 33.01 0 00-2.56.387c-1.22.257-1.431-.36-.434-1.263.54-.489 4.667-1.676 7.714-2.22 2.147-.383 2.524 1.035.456 1.718-.598.197-1.183.514-1.3.704-.118.19-.306 2.757-.419 5.704-.212 5.546-.426 6.384-1.637 6.384-.32 0-.66-.127-.756-.281zm24.2-1.383c-1.034-1.035.562-2.798 1.687-1.864.648.538.618 1.072-.095 1.718-.695.63-1.073.664-1.591.146zM43.864 51.215c-.395-.25-.376-.453.138-1.406.544-1.01.561-1.29.186-2.983-.54-2.441-.566-2.47-1.526-1.714-.928.73-1.696.841-1.692.245.002-.22.357-1.12.79-2 .433-.88.792-1.996.797-2.48.006-.484.307-1.177.67-1.54 1.286-1.285 1.599-.79 2.828 4.478 1.137 4.87 1.166 4.943 2.192 5.36 1.207.492 1.284.819.4 1.702-.493.493-1.062.64-2.48.635-1.012-.002-2.048-.136-2.302-.297zm-27.583-1.11c-.557-1.224.49-2.953 2.686-4.44 1.31-.886 1.835-1.444 1.825-1.936-.009-.38-.408-2.622-.889-4.982-1-4.911-1.298-5.34-3.064-4.39-1.378.743-1.977.46-1.28-.603.561-.857 7.056-4.317 8.102-4.317.366 0 .666.206.666.458 0 .634-.89 1.462-1.573 1.462-.312 0-.814.273-1.115.605-.503.556-.51.757-.072 2.48.261 1.032.724 3.149 1.027 4.705.576 2.95.99 3.509 2.09 2.82.85-.53 1.883-.46 1.883.125 0 .272-.452.74-1.005 1.04-.552.3-1.368.941-1.812 1.425-.452.491-1.148.88-1.577.88-1.768 0-3.606 1.59-3.606 3.117 0 .597-.15 1.364-.331 1.704-.462.864-1.53.78-1.955-.154zm11.926-7.66c-.433-.522-1-3.362-1-5.012 0-1.676.612-2.06 3.42-2.142 2.936-.086 3.62.41 3.62 2.626 0 1.731.814 2.72 2.24 2.72 1.103 0 1.261.588.375 1.39-.363.329-1.135.53-2.03.53-1.873 0-2.595-.764-2.819-2.983-.124-1.235-.307-1.677-.726-1.757-.478-.09-.56.149-.56 1.634 0 2.5-1.475 4.253-2.52 2.995zm298.23-23.751c-1.319-1.11-1.748-2.855-1.534-6.235.302-4.757 1.582-8.302 3-8.302.55 0 .536.808-.053 2.75-.303.998-.478 2.92-.48 5.274-.003 3.56.028 3.734.814 4.472.765.719.872.737 1.68.286 1.625-.907 1.698-5.102.09-5.102-1.366 0-1.023-1.681.416-2.042.626-.157.82-.465.985-1.557.404-2.673.535-3.05 1.312-3.78 1.244-1.169 1.583-.508 1.189 2.322-.179 1.286-.253 2.463-.164 2.616.088.154 1.215.212 2.503.13 1.288-.083 2.456-.041 2.596.093.14.134.615.292 1.055.351 1.177.157 1.183 1.214.013 2.335-.535.512-.973 1.117-.973 1.344 0 .736 1.814 1.388 3.86 1.388h1.973l-.155-1.04c-.301-2.018.608-3.208 3.514-4.6 2.055-.983 4.088-.967 4.088.032 0 .426-.313.726-.96.918-.528.156-1.162.383-1.409.503-.644.312-1.276 2.713-1.086 4.128.214 1.598-.453 2.212-1.917 1.764-.739-.226-1.298-.199-1.988.096-1.178.504-4.058.552-5.699.097-1.04-.29-1.382-.242-2.338.322-1.347.794-3.3.853-4.68.14-.971-.502-1.025-.494-1.619.24-.71.878-2.132 1.875-2.679 1.878-.207.001-.816-.369-1.354-.821zm9.42-4.937c0-1.76-.058-1.92-.7-1.92-1.33 0-1.71.34-1.71 1.529 0 1.309.752 2.311 1.734 2.311.613 0 .676-.18.676-1.92zm-104.31 5.149c-.265-.43.138-1.284.764-1.62.301-.16 1.328-.392 2.283-.513 2.124-.27 2.645-.614 2.197-1.45-.178-.333-.54-.606-.803-.606-1.007 0-.903-1.035.194-1.93.898-.733 1.07-1.08 1.042-2.097-.036-1.26-.827-2.209-1.595-1.914-.86.33-.796-.602.089-1.31 1.192-.954 2.5-.97 3.153-.038.575.821.656 3.222.156 4.655-.272.78-.234 1.19.186 2 .427.827.457 1.188.159 1.909-.475 1.144-2.798 2.406-5.261 2.857-2.299.421-2.338.422-2.564.057zm11.09-.71c-1.176-.34-1.787-1.452-1.476-2.69.26-1.034 2.73-3.262 4.472-4.032 1.618-.716 1.688-1.005.9-3.714-.676-2.326-.463-4.64.523-5.69 1.065-1.133 1.5-.56 1.656 2.178.144 2.534 1.404 6.918 2.062 7.17.228.088 1.566-.892 2.972-2.178 2.925-2.677 3.618-3.043 4.358-2.303.572.572.403 1.84-.36 2.685-.709.788-.557 1.144.906 2.126 1.156.777 1.36 1.077 1.36 2.008 0 .953-.188 1.21-1.454 1.992-1.162.719-1.983.94-4.09 1.102-1.451.112-2.714.326-2.806.475-.402.65-1.466.214-2.099-.858l-.667-1.13-1.135 1.168c-1.099 1.132-2.818 2.082-3.66 2.023-.225-.016-.883-.165-1.462-.332zm3.44-2.344c.878-1.057-.228-2.345-1.698-1.976-1.489.374-.968 2.441.615 2.441.384 0 .87-.209 1.083-.465zm10.837-1.414c.316-.2.1-.526-.846-1.275-.699-.553-1.358-1.006-1.464-1.006s-.194.494-.194 1.098c0 .884.14 1.124.72 1.236 1.198.23 1.343.227 1.784-.053zm-1.02-4.36c.247-.644-.147-1.632-.499-1.254-.15.161-.371.617-.491 1.013-.162.537-.088.72.294.72a.805.805 0 00.696-.48zm64.756 5.635c0-2.763.645-4.188 1.71-3.78.429.165.53.668.53 2.635 0 2.81-.34 3.67-1.451 3.67-.772 0-.79-.056-.79-2.525zm-96-1.585c0-1.057.905-1.439 3.942-1.663 3.26-.24 3.738-.162 3.738.61 0 .989-1.315 1.437-4.56 1.553-2.899.105-3.12.07-3.12-.5z"/></svg>