<?xml version="1.0" standalone="no"?>
<!DOCTYPE svg PUBLIC "-//W3C//DTD SVG 20010904//EN"
 "http://www.w3.org/TR/2001/REC-SVG-20010904/DTD/svg10.dtd">
<svg version="1.0" xmlns="http://www.w3.org/2000/svg"
 width="2304.000000pt" height="846.000000pt" viewBox="0 0 2304.000000 846.000000"
 preserveAspectRatio="xMidYMid meet">
<metadata>
Created by potrace 1.16, written by Peter Selinger 2001-2019
</metadata>
<g transform="translate(0.000000,846.000000) scale(0.100000,-0.100000)"
fill="current" stroke="none">
<path d="M7694 8452 c3 -5 -7 -32 -21 -62 -21 -45 -25 -63 -20 -112 3 -32 9
-64 15 -71 5 -7 12 -25 16 -40 6 -24 3 -30 -14 -34 -11 -3 -20 -9 -20 -14 0
-5 -7 -9 -15 -9 -8 0 -23 -9 -32 -20 -10 -11 -21 -20 -25 -20 -14 0 -48 -34
-48 -47 0 -20 -20 -15 -21 5 0 9 -1 63 -2 119 -2 93 -4 103 -26 122 -31 27
-53 26 -110 -1 -96 -47 -135 -129 -65 -136 19 -2 38 3 47 12 23 24 36 19 33
-11 -2 -16 -4 -34 -5 -40 0 -7 -8 -13 -15 -13 -22 0 -68 -64 -60 -84 4 -10 18
-16 40 -16 19 0 34 -4 34 -10 0 -6 -26 -10 -58 -10 -50 0 -63 -4 -90 -28 -25
-23 -32 -37 -32 -67 l0 -38 73 7 c39 4 74 12 75 17 2 5 18 9 37 9 18 0 38 7
45 15 7 8 18 15 26 15 7 0 18 9 24 21 11 19 12 19 34 -13 21 -33 23 -33 109
-36 71 -2 88 0 93 13 3 8 12 15 20 15 8 0 14 6 14 14 0 26 20 28 29 3 11 -27
40 -39 64 -26 9 5 46 11 83 14 37 2 72 9 78 15 5 5 24 10 41 10 45 0 115 66
115 109 0 36 -25 81 -45 81 -8 0 -21 7 -30 16 -15 15 -15 18 4 36 24 21 29 96
9 116 -16 16 -83 15 -100 -1 -7 -7 -21 -16 -30 -20 -10 -3 -18 -11 -18 -17 0
-5 -7 -10 -15 -10 -8 0 -15 -7 -15 -15 0 -8 -4 -15 -10 -15 -5 0 -10 -6 -10
-13 0 -7 -13 -23 -29 -35 l-29 -21 -6 34 c-4 18 -12 35 -18 37 -7 3 -13 51
-16 131 l-5 127 -54 0 c-30 0 -52 -4 -49 -8z"/>
<path d="M10240 8360 c0 -5 -5 -10 -12 -10 -17 0 -58 -50 -58 -71 0 -9 -5 -19
-11 -21 -6 -2 -14 -31 -18 -66 -8 -70 -13 -78 -38 -67 -35 15 -83 -5 -83 -34
0 -6 -4 -11 -10 -11 -6 0 -10 -42 -10 -105 l0 -105 -42 0 c-24 0 -60 4 -80 9
-26 6 -38 5 -41 -3 -9 -24 -16 2 -18 68 l-2 69 44 4 c24 3 46 9 47 14 2 5 9 9
16 9 19 0 46 34 46 58 0 12 -9 26 -19 32 -25 13 -104 13 -117 0 -8 -8 -15 -6
-23 4 -23 28 -2 36 90 36 53 0 89 4 89 10 0 6 5 10 12 10 11 0 22 9 63 49 43
42 49 53 38 70 -13 19 -67 17 -100 -5 -17 -10 -58 -14 -160 -14 -137 0 -137 0
-161 -27 -21 -25 -23 -36 -21 -117 2 -62 -1 -91 -9 -94 -7 -2 -12 -17 -12 -33
0 -22 6 -30 25 -35 22 -5 25 -12 25 -48 l0 -43 -129 5 c-120 4 -132 3 -177
-19 -27 -13 -61 -35 -75 -49 -15 -14 -36 -33 -48 -42 -26 -22 -31 -91 -6 -82
18 7 16 21 16 -203 l0 -171 -413 -7 c-227 -3 -420 -8 -429 -11 -13 -4 -17 9
-22 82 -3 47 -11 92 -17 99 -13 16 -8 142 11 279 11 83 10 90 -7 103 -23 16
-96 17 -112 1 -9 -9 -69 -14 -205 -16 -106 -2 -196 -8 -201 -13 -6 -5 -41 -9
-80 -9 -38 0 -97 -7 -130 -15 -123 -29 -796 -59 -820 -35 -5 5 -46 11 -91 11
-131 2 -220 13 -218 26 3 12 -54 29 -64 19 -3 -3 -1 -12 6 -20 9 -11 7 -15
-11 -21 -13 -4 -31 -6 -40 -6 -9 1 -29 -6 -43 -15 l-26 -17 1 -251 1 -251
-144 0 c-94 0 -149 4 -158 12 -24 19 -240 36 -415 31 -142 -3 -168 -6 -179
-21 -15 -21 -34 -21 -59 -2 -11 8 -28 15 -38 15 -10 0 -18 4 -18 9 0 5 -12 12
-26 15 -15 4 -33 14 -41 21 -8 8 -23 15 -34 15 -10 0 -19 4 -19 9 0 5 -14 12
-30 16 -17 4 -30 10 -30 15 0 5 -13 11 -30 15 -16 4 -30 11 -30 16 0 5 -10 14
-22 20 -52 23 -158 98 -158 111 0 4 -8 8 -19 8 -10 0 -24 7 -31 15 -7 8 -23
15 -35 15 -12 0 -28 7 -35 15 -7 8 -17 15 -22 15 -10 0 -31 16 -56 43 -9 9
-22 17 -29 17 -7 0 -13 4 -13 9 0 5 -13 14 -30 20 -16 5 -30 15 -30 20 0 6 -9
11 -20 11 -11 0 -20 4 -20 10 0 5 -11 12 -25 16 -14 3 -25 10 -25 15 0 5 -8
13 -17 16 -20 8 -34 19 -63 47 -25 24 -79 17 -112 -16 -23 -23 -23 -25 -23
-268 0 -213 -2 -245 -15 -241 -25 5 -1025 2 -1307 -5 -263 -7 -263 -7 -263 14
0 12 -6 25 -12 29 -15 9 -33 37 -48 71 -5 12 -14 22 -20 22 -5 0 -12 11 -16
25 -3 14 -10 25 -15 25 -5 0 -9 6 -9 13 -1 32 -88 97 -132 97 -20 0 -25 26 -5
33 24 8 -12 35 -56 41 -93 15 -147 18 -147 8 0 -5 -18 -12 -40 -16 -22 -3 -40
-10 -40 -16 0 -5 -16 -12 -35 -16 -19 -3 -35 -9 -35 -13 0 -3 -20 -17 -44 -30
-24 -14 -50 -33 -58 -44 -7 -10 -21 -28 -31 -39 -9 -12 -17 -29 -17 -40 0 -10
-4 -18 -10 -18 -5 0 -10 -9 -10 -20 0 -11 -9 -37 -20 -57 -11 -21 -20 -50 -20
-65 l0 -28 -94 0 c-53 0 -98 4 -101 10 -8 13 -115 13 -115 0 0 -5 -9 -10 -20
-10 -11 0 -20 -4 -20 -8 0 -5 -9 -19 -19 -31 -11 -12 -17 -30 -14 -41 5 -17
14 -20 72 -20 37 0 71 -4 77 -10 5 -5 56 -11 114 -12 l105 -3 -3 -32 c-2 -17
2 -34 7 -38 6 -3 11 -17 11 -30 0 -13 7 -30 15 -38 7 -8 17 -26 21 -41 3 -14
10 -26 14 -26 4 0 10 -12 13 -27 6 -30 96 -133 116 -133 6 0 11 -4 11 -10 0
-5 12 -13 28 -16 15 -4 33 -12 41 -18 19 -15 279 -15 289 0 4 6 18 15 31 19
37 11 229 207 236 241 4 16 11 39 16 52 13 33 11 100 -3 105 -7 2 -11 7 -8 9
8 9 1482 21 1538 13 l51 -7 5 -121 c3 -67 8 -192 11 -277 3 -85 8 -165 10
-177 8 -36 62 -31 126 12 30 19 59 35 66 35 7 0 13 4 13 8 0 10 70 42 91 42 8
0 26 6 40 14 14 7 37 16 52 20 15 3 27 11 27 16 0 6 10 10 23 10 13 0 32 7 43
15 10 8 28 15 39 15 11 0 33 7 48 15 15 8 45 17 65 21 20 4 42 10 47 14 6 5
27 11 47 15 21 4 38 11 38 16 0 5 9 9 20 9 11 0 23 7 26 15 4 8 12 15 19 15 8
0 21 7 30 16 8 9 33 18 55 21 22 3 40 9 40 13 0 4 16 11 35 14 19 4 35 11 35
16 0 4 14 11 30 15 17 4 30 10 30 15 0 5 14 11 30 15 17 4 30 11 30 16 0 5 6
9 13 9 7 0 20 8 28 18 9 9 26 24 39 32 28 19 60 51 60 62 0 11 197 10 204 -1
3 -4 40 -11 82 -14 42 -3 81 -10 87 -16 7 -7 73 -11 178 -11 l167 0 4 -160 c2
-110 7 -163 16 -172 6 -6 12 -26 12 -42 0 -17 7 -44 15 -60 9 -18 15 -56 15
-103 0 -67 2 -76 26 -98 15 -14 39 -25 54 -25 28 0 66 33 72 63 3 18 16 19
196 18 142 0 203 3 230 13 22 9 96 17 181 20 79 3 149 10 156 16 9 8 13 -25
18 -151 3 -89 10 -164 15 -168 26 -16 55 -667 32 -711 -6 -11 -13 -93 -17
-183 l-6 -162 -104 3 c-76 2 -109 0 -120 -10 -13 -11 -268 -13 -1382 -13
-1051 0 -1372 -3 -1393 -12 -21 -9 -220 -12 -815 -13 -434 0 -794 -1 -802 0
-7 0 -11 6 -7 15 3 8 1 15 -4 15 -6 0 -10 8 -10 19 0 10 -7 24 -15 31 -8 7
-15 19 -15 26 0 8 -5 14 -10 14 -6 0 -22 12 -35 26 -18 20 -23 33 -18 55 4 22
1 30 -13 35 -11 3 -33 12 -51 20 -17 8 -38 14 -46 14 -9 0 -17 5 -19 10 -2 6
-30 14 -63 17 -33 3 -64 9 -70 13 -5 5 -38 11 -72 15 -51 5 -70 2 -107 -15
-25 -11 -50 -20 -55 -20 -6 0 -11 -4 -11 -10 0 -5 -6 -10 -13 -10 -17 0 -147
-122 -147 -138 0 -6 -4 -12 -9 -12 -5 0 -12 -16 -15 -35 -4 -19 -11 -35 -15
-35 -5 0 -11 -12 -14 -27 l-5 -28 -104 1 -103 0 3 33 c6 61 -4 81 -43 81 -19
0 -35 -4 -35 -10 0 -5 -7 -10 -14 -10 -8 0 -34 -12 -58 -27 -78 -50 -83 -53
-108 -66 -68 -33 -80 -47 -80 -94 0 -41 3 -46 30 -56 17 -6 30 -15 30 -18 0
-4 13 -10 29 -14 16 -3 32 -13 35 -21 3 -8 10 -14 16 -14 12 0 32 -15 58 -42
21 -23 112 -26 112 -4 0 8 7 16 15 20 11 4 15 21 15 61 l0 55 88 0 88 0 1 -52
c1 -29 7 -54 12 -56 6 -2 11 -14 11 -27 0 -13 7 -30 15 -39 8 -8 15 -19 15
-25 0 -6 7 -11 15 -11 8 0 15 -5 15 -10 0 -6 10 -15 23 -20 26 -12 60 -32 67
-41 13 -16 102 -49 132 -49 19 0 40 -6 46 -12 9 -9 53 -13 144 -13 96 0 132 3
135 13 3 6 13 12 23 12 20 0 82 56 93 83 3 9 13 17 22 17 8 0 15 7 15 15 0 8
7 15 15 15 8 0 15 7 15 15 0 8 4 15 10 15 16 0 50 86 50 128 l0 39 51 7 c28 4
263 4 522 1 266 -3 632 -1 837 5 678 20 1517 29 1820 20 510 -16 923 -15 1027
1 50 8 95 17 99 22 4 4 63 7 131 7 l123 0 0 -24 c0 -14 -5 -28 -10 -31 -18
-11 10 -35 41 -35 28 0 69 30 69 49 0 5 5 11 11 13 8 3 12 76 14 231 2 126 8
233 13 240 33 41 10 737 -26 780 -12 14 -27 215 -19 249 6 23 8 23 144 23 241
0 677 15 698 25 11 5 37 11 58 15 20 3 37 10 37 15 0 6 7 10 15 10 8 0 15 9
15 20 0 11 5 20 10 20 13 0 14 262 1 275 -5 6 -11 46 -12 90 -1 44 -6 86 -12
93 -7 9 34 12 199 13 168 0 630 0 655 -1 3 0 4 -13 1 -30 -2 -16 0 -30 5 -30
6 0 13 -39 16 -86 2 -47 10 -91 16 -97 7 -7 11 -66 11 -167 0 -108 4 -160 12
-168 14 -14 304 -17 312 -3 4 5 45 12 94 16 48 4 92 11 97 15 29 22 289 29
858 23 451 -5 597 -3 597 5 0 9 44 12 155 12 129 0 157 3 161 15 4 8 12 15 20
15 9 0 14 11 14 30 0 17 4 30 9 30 5 0 13 30 16 68 4 37 12 73 18 80 5 7 12
58 15 112 l5 100 98 0 c65 0 99 -4 101 -12 3 -7 49 -13 139 -16 77 -2 140 -9
148 -16 10 -7 90 -11 253 -11 175 0 238 -3 238 -12 0 -6 -6 -13 -12 -15 -10
-3 -14 -44 -16 -144 -2 -76 -7 -152 -12 -168 -16 -47 -12 -142 5 -156 19 -15
78 -16 83 -1 2 6 12 11 23 11 11 0 22 7 25 15 4 8 12 15 18 15 7 0 28 14 46
30 18 17 39 30 46 30 6 0 17 7 24 15 7 8 21 15 31 15 9 0 24 6 31 14 8 7 29
17 46 21 18 3 32 11 32 16 0 5 9 9 19 9 11 0 26 7 34 15 8 7 26 17 41 21 14 3
26 10 26 14 0 5 15 12 33 15 17 4 37 11 42 15 6 4 25 11 43 15 17 3 32 11 32
16 0 5 9 9 19 9 11 0 26 6 33 13 7 8 26 17 41 21 15 3 27 10 27 15 0 5 15 13
33 16 17 4 37 11 42 15 6 4 25 11 43 15 17 3 32 11 32 16 0 5 9 9 20 9 10 0
33 13 50 30 17 16 42 33 55 36 14 3 25 10 25 15 0 5 6 9 14 9 7 0 29 13 47 30
22 18 37 26 43 20 15 -15 319 -13 335 3 17 17 481 17 502 0 8 -6 37 -14 64
-18 28 -3 68 -10 90 -15 22 -6 73 -11 114 -12 l74 -3 -2 -130 c-1 -71 -7 -147
-12 -169 -6 -21 -9 -57 -7 -80 l3 -41 -175 3 c-138 3 -177 7 -183 18 -12 21
-70 17 -97 -6 -13 -11 -26 -20 -29 -20 -24 0 -41 -227 -21 -286 5 -16 11 -195
12 -405 l3 -377 -95 -10 c-52 -6 -117 -15 -145 -21 -27 -5 -116 -10 -196 -10
-138 -1 -147 0 -172 22 -15 12 -27 25 -27 29 0 3 -37 43 -82 89 -46 46 -92
103 -103 126 -11 24 -23 43 -27 43 -11 0 -57 40 -88 74 -14 16 -37 42 -52 58
-16 16 -28 33 -28 38 0 6 -5 10 -11 10 -6 0 -16 6 -24 13 -7 6 -25 21 -39 31
-14 10 -26 24 -26 31 0 28 -52 40 -168 38 -63 -1 -119 -6 -126 -11 -6 -5 -68
-12 -138 -14 -89 -3 -132 -9 -144 -19 -23 -19 -475 -21 -481 -1 -6 17 -81 15
-99 -3 -9 -8 -28 -15 -43 -15 -37 0 -79 -42 -87 -88 -10 -50 4 -302 16 -318 6
-7 10 -42 8 -78 l-3 -65 -43 39 c-24 22 -51 40 -60 40 -9 0 -26 7 -36 15 -11
8 -40 15 -65 15 -62 0 -91 -33 -91 -103 0 -43 -2 -48 -15 -37 -23 19 -528 30
-562 12 -24 -13 -37 -66 -23 -91 11 -21 120 -31 349 -31 80 0 158 -4 175 -10
17 -5 48 -12 69 -15 l37 -6 0 -54 c0 -81 27 -89 133 -42 26 12 47 25 47 29 0
5 6 8 13 8 8 0 24 9 37 20 13 11 27 19 32 18 5 -2 10 -113 11 -248 1 -135 6
-251 11 -259 7 -11 68 -12 370 -7 199 4 377 11 396 16 19 5 103 10 185 11 132
2 150 0 153 -14 2 -11 13 -17 32 -17 22 0 41 13 77 50 26 28 74 76 106 107 31
31 57 60 57 64 0 10 68 79 78 79 4 0 29 21 56 45 27 25 53 45 58 45 26 0 228
177 228 201 0 3 82 8 183 11 100 2 191 9 202 15 11 6 58 12 105 14 l85 4 -3
-32 c-5 -44 22 -58 69 -36 53 24 93 113 57 125 -10 4 -13 121 -16 501 -3 273
-2 502 1 509 3 10 46 12 186 10 l181 -3 0 -85 c0 -46 4 -92 9 -102 6 -9 13
-34 16 -54 4 -24 14 -42 27 -49 27 -15 114 -5 134 16 8 8 27 15 42 15 44 0
192 56 192 72 0 5 6 8 14 8 7 0 25 10 39 23 62 54 81 68 115 84 20 10 44 24
53 33 35 31 45 37 72 44 15 3 27 11 27 16 0 6 7 10 15 10 14 0 72 35 85 51 3
4 15 9 28 13 12 4 22 11 22 16 0 4 16 11 35 14 19 4 35 11 35 16 0 4 14 11 30
15 17 4 30 10 30 15 0 5 14 11 30 15 17 4 30 11 30 16 0 5 9 9 19 9 11 0 26 6
33 14 8 7 24 17 36 20 12 4 22 12 22 17 0 7 63 8 188 3 103 -5 211 -9 240 -9
l52 0 -3 -435 c-3 -406 -16 -635 -37 -650 -4 -3 -10 -34 -14 -68 -10 -93 4
-112 87 -112 35 0 67 4 73 9 5 5 37 11 72 13 35 2 67 9 70 16 4 6 31 14 60 18
28 3 52 10 52 15 0 4 41 11 90 15 50 3 90 10 90 15 0 5 39 9 86 9 78 0 85 -2
79 -17 -3 -10 -9 -57 -12 -105 -3 -49 -9 -88 -13 -88 -4 0 -11 -33 -15 -72 -3
-40 -11 -76 -17 -79 -6 -4 -12 -147 -15 -373 l-6 -366 -106 -1 c-101 0 -189
-8 -330 -28 -62 -9 -131 -37 -131 -54 0 -5 -7 -15 -14 -23 -12 -11 -15 -46
-15 -161 0 -82 -4 -149 -10 -152 -5 -3 -13 -39 -16 -79 -4 -39 -11 -72 -15
-72 -4 0 -10 -26 -14 -57 -4 -31 -11 -63 -17 -70 -6 -7 -9 -29 -7 -48 2 -20 0
-35 -7 -36 -56 -4 -177 4 -202 13 -25 9 -36 9 -45 0 -7 -7 -18 -12 -25 -12
-15 0 -16 1 -78 55 -22 19 -46 35 -52 35 -7 0 -13 4 -13 8 0 4 -12 13 -27 19
-38 17 -78 43 -114 76 -10 9 -23 17 -28 17 -5 0 -14 7 -21 15 -7 8 -21 15 -32
15 -11 0 -26 7 -34 15 -9 8 -24 15 -34 15 -10 0 -21 4 -24 9 -4 5 -25 12 -49
16 -23 4 -51 14 -62 21 -11 8 -36 14 -56 14 -20 0 -50 7 -65 15 -16 8 -37 15
-46 15 -9 0 -19 4 -22 9 -4 5 -24 12 -45 16 -22 4 -45 13 -52 21 -6 8 -24 14
-40 14 -16 0 -29 4 -29 9 0 5 -13 12 -30 16 -16 4 -30 11 -30 16 0 5 -7 9 -15
9 -8 0 -24 9 -35 20 -11 11 -27 20 -35 20 -8 0 -15 4 -15 10 0 5 -11 12 -25
16 -14 3 -25 12 -25 20 0 8 -7 14 -15 14 -8 0 -15 7 -15 15 0 27 -63 18 -99
-14 l-33 -29 4 -137 3 -137 -65 6 c-191 17 -410 25 -714 24 -241 0 -341 3
-346 11 -11 19 -78 51 -104 51 -14 0 -27 4 -30 9 -3 4 -23 11 -44 15 -22 3
-52 13 -68 21 -16 8 -44 15 -61 15 -18 0 -33 4 -33 9 0 5 -13 12 -30 16 -16 4
-30 10 -30 15 0 5 -13 11 -30 15 -16 4 -30 11 -30 16 0 5 -12 12 -27 15 -15 4
-34 13 -41 21 -7 7 -22 13 -33 13 -10 0 -19 5 -19 10 0 6 -6 10 -13 10 -19 0
-91 40 -100 56 -4 8 -15 14 -22 14 -8 0 -15 5 -15 10 0 6 -6 10 -13 10 -8 0
-22 9 -32 20 -10 11 -24 20 -31 20 -7 0 -14 3 -16 8 -5 11 -66 52 -78 52 -5 0
-10 4 -10 10 0 5 -11 12 -24 16 -14 3 -27 12 -30 20 -3 8 -12 14 -21 14 -8 0
-15 5 -15 10 0 6 -6 10 -14 10 -7 0 -19 7 -26 15 -14 17 -80 21 -80 5 0 -5 -7
-10 -16 -10 -8 0 -28 -14 -43 -31 -36 -39 -41 -75 -41 -289 l0 -168 -42 -7
c-24 -4 -202 -9 -397 -12 -276 -3 -357 -1 -369 9 -10 9 -62 14 -165 16 -83 1
-152 4 -155 6 -2 3 1 13 6 23 6 10 12 94 13 186 l3 167 62 0 c52 0 65 4 90 27
38 35 58 73 45 86 -13 13 -311 13 -320 0 -3 -6 -60 -13 -126 -16 -66 -3 -135
-11 -153 -18 -24 -8 -90 -10 -220 -6 -295 8 -627 29 -630 38 -5 13 -362 12
-362 -1 0 -6 -86 -10 -239 -10 -149 0 -242 4 -246 10 -3 6 -23 10 -43 10 -21
0 -47 7 -59 15 -14 10 -24 12 -28 5 -3 -5 -15 -10 -26 -10 -11 0 -23 -8 -26
-17 -4 -10 -12 -22 -20 -26 -9 -6 -13 -37 -13 -113 0 -58 -4 -113 -9 -123 -5
-9 -11 -79 -13 -156 l-3 -139 -115 3 c-66 2 -121 7 -128 14 -19 15 -549 23
-591 9 l-31 -11 0 150 c0 83 4 158 9 167 5 10 12 57 16 106 6 69 4 90 -6 97
-21 13 -61 11 -93 -6 -37 -20 -495 -22 -514 -3 -8 8 -64 13 -159 16 -82 2
-152 8 -157 13 -14 13 -396 12 -396 -1 0 -14 -467 -14 -475 0 -8 13 -185 13
-185 0 0 -5 -6 -10 -14 -10 -9 0 -16 -12 -18 -27 -4 -36 9 -132 22 -158 5 -11
11 -84 12 -163 2 -114 6 -145 18 -152 8 -5 13 -10 10 -11 -90 -21 -890 -38
-890 -19 0 5 4 10 8 10 13 0 12 38 -1 48 -7 5 -31 12 -53 16 -23 3 -54 13 -70
21 -16 8 -41 15 -56 15 -15 0 -29 4 -33 9 -3 5 -19 12 -36 16 -17 4 -42 13
-57 21 -15 8 -34 14 -42 14 -8 0 -24 7 -34 15 -11 8 -32 15 -47 15 -15 0 -29
5 -31 11 -2 6 -26 13 -53 16 -28 3 -59 12 -70 19 -11 8 -34 14 -52 14 -18 0
-33 4 -33 9 0 5 -12 12 -26 15 -15 4 -33 14 -41 21 -8 8 -22 15 -31 15 -9 0
-26 7 -36 15 -11 8 -28 15 -38 15 -10 0 -18 4 -18 10 0 5 -12 13 -27 16 -15 4
-34 13 -41 21 -7 7 -20 13 -28 13 -8 0 -14 5 -14 10 0 6 -6 10 -14 10 -7 0
-19 6 -25 14 -15 17 -86 56 -104 56 -20 0 -42 41 -27 50 7 4 9 13 6 19 -9 14
-76 15 -76 1 0 -5 -7 -10 -15 -10 -8 0 -15 -7 -15 -16 0 -9 -9 -18 -20 -21
-11 -3 -20 -13 -20 -22 0 -9 -6 -23 -12 -29 -10 -10 -10 -14 -1 -20 10 -7 17
-244 13 -446 0 -15 -3 -16 -14 -7 -11 9 -57 11 -173 6 -87 -3 -263 -6 -390 -6
-559 2 -658 1 -823 -4 l-175 -6 -2 83 c-1 62 -5 85 -17 94 -9 6 -16 14 -16 17
0 10 -70 77 -80 77 -6 0 -10 7 -10 15 0 8 -7 15 -15 15 -8 0 -15 7 -15 15 0 8
-7 15 -14 15 -8 0 -26 11 -40 24 -17 15 -43 25 -78 30 -87 10 -162 7 -183 -8
-11 -7 -35 -17 -52 -21 -18 -3 -33 -11 -33 -16 0 -5 -11 -9 -25 -9 -13 0 -28
-6 -32 -13 -4 -8 -24 -24 -43 -38 -48 -32 -128 -116 -136 -142 -4 -12 -13 -27
-20 -35 -8 -7 -14 -26 -14 -42 0 -34 -15 -41 -95 -46 -109 -5 -240 -20 -252
-27 -8 -5 -13 -29 -13 -57 0 -43 2 -48 26 -54 26 -7 238 1 282 10 20 4 22 1
22 -35 0 -22 6 -46 13 -53 7 -7 16 -21 20 -30 3 -10 11 -18 17 -18 5 0 10 -4
10 -10 0 -13 68 -80 81 -80 6 0 17 -7 25 -15 9 -8 28 -15 44 -15 16 0 32 -5
35 -10 8 -14 335 -14 335 0 0 6 5 10 11 10 22 0 105 44 126 66 12 13 25 24 28
24 8 0 45 39 45 49 0 5 7 11 15 15 8 3 15 12 15 21 0 8 4 15 9 15 5 0 11 11
13 25 l3 24 776 3 c597 3 780 7 792 16 20 17 27 -3 27 -73 0 -30 5 -57 10 -60
6 -4 10 -78 10 -189 l0 -182 28 -27 c31 -30 63 -35 86 -12 8 8 21 15 29 15 8
0 22 9 32 20 10 11 24 20 31 20 7 0 14 3 16 8 4 9 91 52 107 52 6 0 11 5 11
10 0 6 6 10 13 10 13 0 52 29 105 78 14 12 31 22 38 22 8 0 14 4 14 9 0 5 18
12 40 16 22 4 40 11 40 16 0 5 11 9 24 9 14 0 31 7 40 15 8 8 19 15 25 15 14
0 90 40 97 51 3 5 14 9 24 9 10 0 25 7 34 15 8 8 19 15 24 15 5 0 19 9 32 20
13 11 29 20 37 20 7 0 13 4 13 9 0 5 14 12 30 16 17 4 30 11 30 16 0 5 12 9
28 9 15 0 37 7 49 15 19 13 85 16 445 18 302 1 429 5 443 14 12 6 54 13 95 14
l75 2 3 -59 c2 -32 7 -63 13 -68 5 -6 9 -70 9 -144 0 -131 -1 -135 -25 -154
-16 -13 -25 -29 -25 -49 0 -22 6 -30 25 -35 14 -3 25 -9 25 -13 0 -3 22 -17
49 -30 48 -22 58 -23 229 -20 118 3 184 8 193 16 19 15 156 34 294 40 88 3
108 2 98 -8 -10 -10 -13 -145 -13 -604 0 -347 4 -595 9 -600 5 -6 11 -62 13
-126 l3 -116 -177 -5 c-116 -3 -182 -9 -191 -17 -27 -22 -1057 6 -1065 29 -4
12 -279 14 -286 2 -3 -5 -67 -12 -143 -16 -76 -4 -142 -11 -147 -16 -16 -16
-563 -13 -568 3 -6 16 -628 18 -649 1 -8 -7 -79 -14 -168 -17 -85 -4 -159 -11
-165 -17 -5 -5 -29 -10 -53 -10 -24 0 -60 -7 -80 -15 -47 -20 -442 -22 -461
-3 -8 8 -54 14 -130 16 -64 2 -123 9 -130 15 -8 6 -53 13 -100 15 -48 2 -92 8
-98 13 -6 5 -15 4 -22 -3 -9 -9 -12 -9 -13 2 -5 68 -8 83 -15 89 -12 8 -33 42
-40 64 -4 9 -13 17 -20 17 -8 0 -14 6 -14 13 0 7 -9 20 -20 30 -11 9 -20 24
-20 32 0 8 -4 15 -9 15 -5 0 -12 13 -16 30 -4 17 -11 30 -16 30 -5 0 -9 7 -9
15 0 8 -7 15 -15 15 -8 0 -15 7 -15 15 0 8 -7 15 -16 15 -8 0 -23 7 -32 16
-14 14 -36 16 -154 12 -87 -3 -143 -9 -150 -16 -7 -7 -22 -12 -34 -12 -13 0
-29 -7 -38 -15 -8 -8 -19 -15 -25 -15 -13 0 -101 -91 -101 -105 0 -9 -40 -45
-50 -45 -5 0 -10 -7 -10 -15 0 -8 -4 -15 -10 -15 -5 0 -13 -12 -16 -28 -4 -15
-11 -29 -15 -32 -4 -3 -9 -25 -11 -48 l-3 -43 -74 -5 c-47 -3 -78 0 -87 7 -16
13 -19 55 -4 64 17 10 12 72 -6 79 -27 11 -54 7 -60 -9 -4 -8 -12 -15 -20 -15
-8 0 -14 -4 -14 -10 0 -11 -65 -80 -75 -80 -8 0 -69 -43 -73 -52 -2 -5 -9 -8
-15 -8 -30 -1 -57 -39 -57 -78 0 -35 3 -41 27 -47 15 -3 30 -10 33 -13 8 -11
68 -52 76 -52 4 0 20 -14 36 -30 15 -17 33 -30 38 -30 6 0 10 -4 10 -10 0 -5
8 -10 18 -10 23 0 72 22 72 33 0 5 7 15 15 23 9 10 15 34 15 64 l0 48 70 4 70
3 0 -58 c0 -33 6 -71 14 -85 8 -15 17 -34 21 -42 16 -40 43 -76 89 -118 16
-15 38 -35 48 -45 10 -9 31 -17 46 -17 15 0 34 -6 40 -12 17 -17 244 -17 250
0 2 7 14 12 26 12 12 0 31 7 42 15 10 8 28 15 39 15 25 0 115 82 115 104 0 9
4 16 9 16 5 0 12 11 15 25 4 14 11 25 16 25 6 0 10 9 10 19 0 11 6 26 13 33 7
7 22 31 34 53 14 28 26 39 39 37 11 -2 55 -5 99 -8 44 -3 82 -9 85 -13 3 -5
59 -11 125 -15 66 -4 122 -11 123 -17 5 -13 509 -12 514 1 2 5 32 13 68 16 36
4 70 10 75 15 6 4 79 9 163 12 107 4 157 9 169 19 24 20 564 18 589 -3 23 -19
488 -26 579 -9 33 6 119 16 190 21 72 6 134 14 140 20 13 13 228 12 242 -2 36
-36 1090 -66 1111 -32 6 9 59 13 198 15 l189 2 3 -27 c3 -23 8 -27 33 -27 17
0 37 6 44 13 8 6 22 18 31 26 15 13 16 37 12 232 -3 141 -9 223 -16 232 -8 10
-12 175 -14 574 l-3 561 145 7 c80 4 147 11 150 16 3 5 119 12 258 16 233 7
252 7 252 -9 0 -9 -5 -20 -12 -24 -7 -5 -5 -11 7 -21 29 -20 53 -16 96 19 28
23 39 39 39 59 0 15 5 31 10 34 6 3 10 19 10 35 0 16 -4 32 -10 35 -6 4 -10
73 -10 176 l0 169 245 0 c185 0 258 -4 302 -15 36 -9 103 -15 183 -15 l125 0
3 -194 c1 -124 -1 -197 -8 -201 -16 -10 -12 -42 6 -49 9 -3 27 -6 42 -6 20 0
23 -3 14 -12 -15 -15 12 -48 38 -48 10 0 23 -6 29 -14 10 -12 117 -28 181 -27
14 0 401 3 860 6 715 5 848 8 929 22 72 13 97 14 112 5 23 -15 59 -16 59 -2 0
6 10 10 23 10 35 1 87 50 90 85 2 26 -2 30 -25 33 l-28 3 0 225 0 224 123 0
c85 0 127 -4 136 -12 9 -10 97 -12 389 -10 207 2 381 7 387 11 5 5 29 11 53
14 l43 5 -2 -269 c-1 -149 1 -273 5 -276 3 -4 6 -24 6 -45 0 -34 3 -38 25 -38
24 0 63 19 91 45 6 5 22 17 34 25 12 8 33 23 45 33 13 9 28 17 33 17 6 0 12 5
14 10 2 6 18 12 36 15 18 2 39 8 45 13 7 5 24 12 40 16 15 3 27 11 27 16 0 6
6 10 13 10 8 0 22 9 32 20 10 11 22 20 27 20 5 0 14 5 21 10 48 41 62 50 74
50 7 0 13 4 13 9 0 4 19 11 41 14 23 3 45 9 48 14 3 4 27 18 53 31 26 12 48
26 50 30 5 10 144 102 156 102 5 0 15 7 22 15 6 7 32 17 56 21 24 3 47 10 50
15 3 5 18 9 33 9 16 0 34 7 41 15 16 19 36 19 44 0 5 -13 57 -15 383 -15 208
0 405 -5 438 -10 46 -8 271 -21 350 -20 6 0 10 -75 10 -205 0 -128 -4 -206
-10 -207 -5 -2 -94 -2 -197 0 l-187 3 -6 31 c-7 28 -10 30 -41 25 -20 -3 -44
-18 -59 -34 -13 -15 -32 -36 -41 -45 -14 -15 -15 -50 -11 -336 3 -189 9 -327
15 -338 6 -11 12 -108 14 -217 l4 -197 -318 0 c-312 0 -318 0 -337 -22 -17
-18 -21 -19 -26 -5 -4 8 -18 18 -32 22 -13 3 -35 17 -47 30 -13 14 -27 25 -31
25 -11 0 -85 73 -85 85 0 6 -10 17 -21 25 -72 49 -119 93 -125 115 -3 14 -10
25 -15 25 -5 0 -9 7 -9 15 0 8 -7 15 -15 15 -8 0 -15 7 -15 15 0 8 -7 15 -15
15 -8 0 -15 7 -15 15 0 8 -7 15 -15 15 -8 0 -15 5 -15 10 0 6 -8 19 -17 29
-35 38 -43 50 -43 64 0 36 -21 37 -508 41 -321 3 -487 8 -500 15 -11 6 -41 11
-66 11 -36 0 -53 -6 -76 -27 -17 -14 -30 -33 -30 -42 0 -9 -7 -25 -15 -35 -8
-11 -15 -34 -15 -51 0 -17 -4 -35 -9 -40 -6 -6 -13 -56 -17 -113 -4 -56 -11
-105 -15 -108 -5 -3 -9 -16 -9 -29 0 -33 -13 -38 -43 -15 -14 11 -30 20 -36
20 -6 0 -11 4 -11 10 0 5 -11 12 -25 16 -13 3 -29 12 -36 20 -16 19 -80 17
-104 -4 -36 -32 -57 -80 -53 -125 l3 -42 -208 1 c-146 0 -211 4 -219 12 -17
17 -75 15 -82 -3 -3 -8 -12 -15 -21 -15 -8 0 -15 -9 -15 -20 0 -11 -4 -20 -10
-20 -5 0 -10 9 -10 19 0 10 -7 22 -16 25 -29 11 -93 6 -108 -9 -8 -8 -19 -15
-25 -15 -6 0 -11 -21 -11 -50 0 -43 3 -50 19 -50 54 0 22 -47 -34 -52 -39 -3
-40 -2 -43 32 -2 19 -8 39 -13 45 -5 5 -9 16 -9 25 -1 40 -53 61 -77 30 -10
-12 -12 -5 -13 40 0 31 5 61 10 66 6 6 13 34 17 63 5 44 3 55 -14 71 -14 12
-19 27 -16 44 5 25 3 26 -40 26 -26 0 -47 -5 -49 -12 -2 -6 -32 -13 -69 -16
-35 -3 -67 -9 -70 -15 -4 -5 -39 -12 -78 -15 -39 -2 -71 -8 -71 -12 0 -4 -11
-11 -24 -14 -19 -5 -24 -14 -29 -48 -3 -23 -3 -46 -1 -50 3 -5 33 -6 67 -2
l62 6 -3 -118 c-1 -66 -7 -128 -13 -139 -5 -12 -9 -48 -7 -80 3 -60 3 -60 33
-58 58 4 75 13 81 41 4 15 11 32 15 38 5 6 11 85 15 177 l7 166 29 6 c15 4 28
10 28 15 0 4 9 10 20 13 26 7 27 8 -14 -68 -9 -17 -16 -110 -28 -375 l-3 -55
43 -3 c25 -2 42 1 42 7 0 6 7 11 15 11 8 0 15 5 15 10 0 6 8 20 19 31 16 18
19 18 25 4 4 -13 17 -16 53 -14 27 1 54 7 61 12 8 7 12 5 12 -6 0 -9 -4 -19
-10 -22 -5 -3 -10 -22 -10 -41 0 -30 3 -34 28 -35 74 -2 139 4 162 15 14 7 42
21 63 31 29 14 39 27 48 58 15 55 7 68 -33 60 -18 -3 -49 -14 -68 -25 -19 -10
-38 -18 -42 -18 -12 0 -9 20 5 35 30 34 37 45 43 69 3 14 10 26 15 26 5 0 9
14 9 30 0 35 11 37 54 11 27 -16 58 -19 251 -23 260 -6 270 -9 261 -72 -10
-63 -1 -76 49 -76 58 0 89 13 127 52 28 28 97 81 99 75 0 -1 2 -61 3 -133 2
-72 7 -137 12 -145 5 -8 15 -48 22 -89 7 -41 15 -90 18 -108 5 -23 13 -34 31
-38 33 -9 212 3 227 15 6 5 81 11 166 15 188 7 681 8 688 1 3 -2 -1 -11 -7
-19 -7 -8 -11 -27 -9 -43 3 -24 8 -28 41 -31 26 -2 39 1 43 12 3 9 12 16 20
16 8 0 14 7 14 15 0 8 7 15 15 15 8 0 15 7 15 15 0 8 5 15 10 15 6 0 15 10 20
23 15 33 33 61 48 70 6 4 12 15 12 22 0 8 4 15 8 15 5 0 16 17 25 39 10 21 49
67 90 104 39 36 81 82 92 104 24 46 56 83 73 83 6 0 12 5 12 10 0 6 20 10 44
10 27 0 51 6 60 16 14 13 59 16 315 17 225 2 303 5 313 14 19 20 35 15 42 -12
6 -24 46 -37 46 -15 0 6 7 10 15 10 17 0 49 29 58 53 3 9 13 17 22 17 8 0 15
7 15 15 0 8 7 15 16 15 11 0 14 8 12 33 -3 29 -6 32 -33 30 l-30 -2 -3 256
c-2 170 -6 262 -14 277 -8 13 -13 91 -15 211 -3 198 1 242 21 226 6 -5 89 -11
184 -13 108 -2 176 -8 180 -14 4 -6 13 -13 21 -15 11 -4 13 -29 12 -113 -2
-70 2 -112 10 -122 15 -18 54 -18 73 1 8 8 29 18 45 21 17 4 31 10 31 14 0 5
14 11 30 15 17 4 30 10 30 15 0 4 12 11 27 15 15 3 30 10 33 13 7 10 95 52
109 52 6 0 11 4 11 9 0 5 14 12 30 16 17 4 30 10 30 15 0 5 14 11 30 15 17 4
30 11 30 16 0 5 6 9 13 9 8 0 32 13 54 29 22 16 49 32 61 35 12 4 22 11 22 16
0 4 11 11 25 14 14 4 25 10 25 15 0 5 14 12 30 16 17 4 30 11 30 16 0 5 8 9
18 9 9 0 30 7 46 15 15 8 34 15 42 15 20 0 89 38 119 66 14 13 29 24 33 24 4
0 15 9 25 20 9 11 23 20 31 20 8 0 16 6 19 14 4 11 29 12 124 9 65 -3 122 -9
128 -14 5 -5 71 -9 146 -9 112 0 138 3 143 15 3 8 12 15 20 15 9 0 16 16 20
48 20 166 30 238 36 242 4 3 10 38 13 78 4 45 12 78 21 88 11 10 16 34 16 74
0 32 5 62 10 65 14 8 13 92 -1 101 -21 13 14 24 77 24 33 0 64 4 70 9 5 6 77
11 161 13 l152 3 3 -326 c2 -225 7 -330 14 -340 7 -8 15 -42 19 -76 4 -35 10
-63 15 -63 4 0 10 -36 12 -80 3 -51 10 -86 20 -97 8 -10 17 -25 21 -34 4 -13
16 -15 59 -11 l53 4 0 -683 c0 -555 3 -690 14 -716 21 -50 22 -553 1 -578 -12
-15 -15 -60 -14 -264 0 -161 4 -253 11 -266 6 -11 13 -44 14 -73 l3 -53 -156
-2 c-98 -1 -160 -6 -169 -13 -8 -7 -48 -15 -89 -19 -41 -4 -81 -11 -90 -16
-14 -8 -175 -20 -505 -39 -77 -4 -220 -8 -317 -9 -111 -1 -178 -5 -178 -11 0
-13 -982 -14 -995 -1 -6 5 -92 11 -192 13 -139 3 -185 7 -199 18 -14 13 -80
15 -401 15 -283 0 -386 -3 -391 -12 -4 -6 -36 -14 -72 -18 -36 -4 -72 -9 -80
-13 -22 -8 -180 -28 -186 -23 -2 2 -4 15 -4 28 0 33 -25 39 -68 16 -33 -18
-40 -19 -69 -7 -18 8 -33 19 -33 24 0 6 -7 10 -15 10 -8 0 -15 5 -15 10 0 6
-6 10 -14 10 -8 0 -31 16 -50 35 -20 19 -39 35 -42 35 -6 0 -24 15 -63 52 -16
15 -46 36 -67 47 -22 11 -61 41 -87 66 -26 25 -52 45 -58 45 -5 0 -9 6 -9 13
0 6 -19 21 -43 32 -23 11 -46 25 -50 32 -4 7 -12 13 -18 13 -11 0 -17 4 -74
55 -22 19 -47 35 -56 35 -9 0 -22 7 -29 15 -7 8 -17 15 -22 15 -5 0 -16 7 -24
15 -24 24 -76 18 -112 -11 -29 -24 -32 -32 -32 -81 0 -30 -4 -62 -9 -71 -5 -9
-11 -114 -15 -232 -3 -118 -5 -215 -6 -215 -118 0 -356 9 -415 15 -104 11
-1735 11 -1885 0 -63 -5 -158 -15 -210 -22 -172 -22 -791 -10 -975 21 -33 5
-89 10 -125 10 -38 1 -71 6 -78 14 -10 9 -124 12 -503 12 -424 0 -491 -2 -499
-15 -8 -13 -58 -16 -317 -20 -169 -3 -314 -9 -321 -13 -6 -5 -236 -7 -510 -6
-745 4 -2279 -1 -2512 -7 -113 -3 -218 -10 -235 -15 -16 -5 -210 -10 -430 -11
-359 -2 -403 0 -430 15 -23 13 -55 17 -135 17 l-105 0 3 43 c3 30 -1 49 -12
60 -9 8 -16 24 -16 34 0 10 -7 31 -15 47 -8 15 -15 33 -15 39 0 12 -99 107
-111 107 -5 0 -9 7 -9 15 0 8 -6 15 -14 15 -8 0 -16 7 -20 15 -3 8 -16 15 -30
15 -13 0 -26 6 -28 13 -3 8 -38 13 -115 15 -90 3 -113 1 -126 -12 -8 -9 -19
-16 -24 -16 -5 0 -16 -9 -26 -20 -9 -11 -24 -20 -32 -20 -8 0 -15 -4 -15 -10
0 -5 -7 -10 -15 -10 -8 0 -23 -9 -32 -20 -10 -11 -23 -20 -30 -20 -7 0 -13 -4
-13 -10 0 -5 -5 -10 -11 -10 -17 0 -70 -63 -76 -92 -3 -16 -9 -28 -14 -28 -5
0 -9 -7 -9 -16 0 -9 -7 -30 -14 -47 -8 -18 -16 -45 -18 -61 l-3 -30 -115 3
c-63 1 -119 6 -125 11 -5 5 -43 12 -82 15 -40 4 -73 12 -73 16 0 16 -77 10
-84 -6 -3 -8 -12 -15 -21 -15 -8 0 -15 -7 -15 -15 0 -8 -4 -15 -10 -15 -5 0
-10 -13 -10 -30 0 -31 26 -53 58 -49 29 4 156 -13 168 -22 6 -5 77 -11 159
-14 l148 -4 2 -32 c2 -17 7 -34 13 -38 6 -3 13 -23 17 -44 4 -20 11 -37 15
-37 4 0 11 -11 14 -24 6 -26 84 -96 105 -96 7 0 19 -7 27 -15 9 -8 28 -15 44
-15 16 0 30 -5 32 -10 4 -14 261 -15 266 -1 2 6 17 11 34 11 41 0 83 25 141
85 68 69 77 80 77 93 0 7 7 12 15 12 9 0 15 9 15 24 0 14 5 28 11 32 6 3 9 17
6 30 -5 27 -7 27 93 24 41 -1 81 -7 89 -13 22 -19 1089 -14 1133 4 27 11 227
13 1118 13 597 0 1234 -1 1415 -3 226 -3 361 0 430 9 141 17 643 24 662 9 10
-9 17 -9 25 -1 7 7 18 12 26 12 8 0 20 7 27 16 10 15 57 16 465 15 250 -1 459
-6 464 -10 6 -5 61 -12 121 -16 61 -4 115 -11 120 -15 6 -4 81 -11 168 -15 86
-4 160 -11 163 -16 7 -12 547 -12 560 1 5 5 47 12 94 16 47 4 91 12 99 18 19
15 1979 10 1997 -5 7 -6 85 -9 203 -7 122 2 191 -1 191 -7 1 -5 1 -118 0 -250
0 -132 4 -246 8 -253 7 -10 25 -12 71 -6 34 3 64 11 67 15 3 5 14 9 25 9 11 0
22 7 25 15 4 8 14 15 24 15 10 0 25 6 32 14 8 7 24 17 36 20 12 4 22 11 22 16
0 5 14 11 30 15 17 4 30 10 30 15 0 4 11 11 25 14 14 4 25 11 25 16 0 6 5 10
11 10 22 0 232 99 237 112 2 4 9 8 15 8 7 1 23 14 37 30 30 37 38 38 32 2 -5
-39 17 -57 50 -39 30 15 78 66 78 81 0 7 18 23 40 36 22 14 40 28 40 33 0 4 9
7 20 7 11 0 23 7 26 15 4 8 12 15 20 15 7 0 26 13 42 28 26 25 40 30 113 36
46 4 86 11 89 15 3 5 40 10 82 13 45 3 84 11 94 19 26 21 693 21 718 -1 13
-10 64 -16 189 -22 95 -4 246 -12 337 -17 205 -12 898 -5 914 8 8 6 122 11
287 12 151 1 315 6 364 10 285 23 333 29 360 43 17 9 55 16 86 16 30 0 60 5
65 10 9 9 295 16 354 9 40 -5 69 2 74 19 4 9 20 33 37 52 l31 35 -7 115 c-4
63 -11 119 -16 125 -15 15 -11 439 4 454 16 16 15 627 -2 644 -8 8 -11 196
-11 664 0 585 4 696 22 641 4 -10 102 -13 444 -14 246 -1 438 -5 437 -10 -1
-5 -5 -24 -8 -43 -6 -32 -12 -42 -47 -81 -9 -10 -18 -36 -20 -57 l-3 -38 63
-3 62 -3 0 -34 0 -35 -48 0 c-26 0 -54 -6 -60 -12 -10 -10 -83 -13 -287 -14
l-274 -2 -25 -27 c-15 -16 -26 -40 -26 -55 0 -15 -3 -30 -7 -34 -15 -14 11
-524 27 -540 6 -6 10 -49 10 -97 0 -63 4 -90 14 -99 19 -15 1125 -15 1177 0
19 6 93 10 166 10 220 0 213 -8 213 256 0 112 4 212 10 222 10 18 28 145 37
256 3 51 1 71 -9 77 -7 5 -70 9 -140 9 -70 0 -129 4 -132 8 -3 5 -44 12 -92
15 -55 4 -90 11 -95 19 -6 10 -51 13 -171 15 -99 1 -164 5 -166 11 -2 6 19 10
52 9 47 -1 58 3 82 26 24 25 26 32 22 92 -2 37 -9 69 -14 73 -6 4 -14 19 -18
35 -3 15 -11 27 -16 27 -6 0 -10 5 -10 11 0 7 -8 18 -17 25 -15 11 37 13 319
14 189 0 339 -4 342 -9 5 -8 80 -14 316 -25 l55 -3 -3 -33 c-1 -18 -6 -38 -11
-44 -4 -6 -11 -87 -15 -180 -3 -93 -10 -174 -15 -180 -4 -6 -11 -86 -14 -177
-3 -103 -10 -175 -17 -189 -8 -16 -14 -97 -18 -244 -2 -122 -8 -226 -13 -232
-25 -31 14 -34 416 -34 239 0 405 -4 411 -9 5 -6 62 -13 127 -17 88 -5 117
-10 117 -20 0 -8 5 -14 10 -14 6 0 10 -7 10 -15 0 -8 7 -15 15 -15 8 0 15 -4
15 -9 0 -5 13 -12 29 -16 16 -3 32 -13 35 -21 3 -8 12 -14 21 -14 8 0 15 -4
15 -10 0 -5 11 -12 25 -16 13 -3 29 -12 36 -20 7 -8 30 -14 59 -14 60 0 80 25
80 101 0 51 0 51 28 44 93 -24 393 -27 407 -4 4 5 68 9 143 9 133 0 138 1 161
25 13 14 27 25 33 25 5 0 8 17 6 38 l-3 37 -116 3 c-64 1 -143 -2 -175 -8 -68
-12 -153 -15 -204 -6 -19 3 -89 7 -155 8 l-120 3 -3 94 c-2 56 -8 98 -15 105
-19 18 -76 35 -83 25 -3 -5 -15 -9 -27 -9 -34 0 -61 -38 -60 -83 2 -38 -3 -49
-40 -86 -16 -16 -32 -18 -140 -14 -67 2 -133 10 -146 16 -17 9 -130 12 -397
12 l-374 0 0 200 c0 132 4 205 11 212 6 6 13 77 16 174 3 90 10 170 15 176 6
7 13 87 16 178 3 91 9 168 13 171 5 3 9 20 9 37 0 43 10 77 22 77 5 0 18 10
29 23 17 19 18 32 13 97 -4 41 -11 81 -17 89 -12 14 -18 1234 -10 1913 l4 307
37 7 c20 4 40 11 43 16 3 5 30 11 60 15 30 3 59 10 65 14 6 5 325 9 709 9
l698 1 3 -50 c1 -28 8 -66 15 -86 10 -27 10 -38 1 -47 -7 -7 -12 -27 -12 -45
0 -31 2 -33 35 -33 19 0 35 5 35 10 0 6 7 10 15 10 9 0 18 7 21 15 4 11 21 15
56 15 46 0 116 28 126 51 2 4 12 17 23 30 10 12 19 28 19 34 0 7 7 18 15 25 8
7 12 17 8 22 -3 6 -6 29 -7 52 -1 41 -1 41 -37 38 -33 -3 -39 0 -53 29 -9 18
-16 43 -16 56 0 13 -7 26 -15 29 -8 4 -15 10 -15 15 0 5 -23 32 -52 59 -46 44
-58 50 -94 50 -43 0 -74 -19 -74 -45 0 -7 -5 -15 -10 -17 -6 -2 -12 -22 -13
-46 0 -23 -1 -43 -2 -44 0 -1 -301 -5 -670 -8 -640 -7 -755 -12 -788 -38 -7
-5 -25 -12 -41 -16 -15 -4 -35 -14 -43 -21 -8 -8 -21 -15 -29 -15 -11 0 -14
19 -14 91 0 50 5 99 10 110 6 11 14 80 17 154 5 103 9 135 20 135 7 0 13 11
13 24 0 13 5 26 12 28 6 2 8 10 4 16 -9 15 -96 16 -96 2 0 -13 -335 -7 -490 9
-144 14 -2038 7 -2053 -8 -6 -6 -22 -11 -35 -11 -13 0 -37 -8 -53 -17 -25 -15
-29 -23 -29 -60 0 -43 6 -49 46 -44 8 1 13 -56 16 -180 4 -114 10 -185 17
-192 9 -9 17 -196 9 -197 -2 -1 -30 -3 -63 -6 -33 -4 -65 -10 -71 -15 -6 -5
-47 -12 -90 -15 -43 -3 -88 -9 -99 -14 -11 -5 -42 -11 -69 -13 -27 -3 -51 -9
-55 -15 -3 -5 -36 -13 -74 -17 -37 -4 -70 -11 -73 -16 -7 -12 -54 -11 -54 1 0
6 4 10 8 10 11 0 11 4 18 110 3 47 10 89 15 95 5 5 9 227 9 516 l0 507 -26 17
c-22 14 -59 17 -237 20 -174 3 -213 6 -215 18 -2 8 -19 23 -40 33 -39 20 -44
24 -81 54 -13 11 -30 20 -36 20 -7 0 -15 7 -19 15 -3 8 -12 15 -21 15 -8 0
-15 4 -15 10 0 5 -11 12 -25 16 -14 3 -25 12 -25 20 0 8 -10 14 -24 14 -13 0
-29 7 -36 15 -7 8 -28 15 -46 15 -19 0 -34 4 -34 9 0 5 -25 12 -57 16 -31 4
-63 11 -72 15 -9 5 -33 12 -53 15 -21 3 -38 10 -38 15 0 6 -6 10 -13 10 -7 0
-29 9 -50 20 -20 11 -46 20 -57 20 -11 0 -23 7 -26 15 -4 8 -16 15 -29 15 -13
0 -25 7 -29 15 -3 8 -14 15 -24 15 -29 0 -82 30 -82 46 0 8 -7 14 -15 14 -8 0
-15 4 -15 9 0 5 -10 13 -22 17 -12 3 -27 12 -34 18 -6 6 -22 18 -34 26 -12 8
-29 21 -37 29 -9 8 -25 11 -43 7 -17 -3 -30 -1 -30 4 0 6 -17 10 -38 10 -29 0
-44 -7 -63 -27 -23 -27 -24 -34 -24 -165 l0 -138 -82 0 c-45 0 -84 4 -87 9 -3
5 -35 12 -71 16 -36 3 -67 11 -70 16 -8 12 -472 12 -477 0 -2 -5 -98 -11 -213
-12 -186 -3 -213 -2 -235 14 -13 9 -31 17 -38 17 -7 0 -20 7 -28 15 -9 8 -24
15 -34 15 -10 0 -21 4 -25 9 -3 6 -27 20 -53 33 -64 31 -91 56 -73 67 7 5 10
14 7 20 -9 15 -49 14 -64 -1 -9 -9 -12 -9 -12 3 0 7 -19 23 -43 34 -23 11 -44
22 -47 25 -12 12 -68 47 -105 65 -22 11 -41 23 -43 28 -2 4 -9 7 -15 7 -18 0
-77 44 -77 58 0 6 -7 12 -15 12 -8 0 -15 7 -15 15 0 8 -6 15 -14 15 -8 0 -16
7 -20 15 -3 8 -12 15 -19 15 -8 0 -20 7 -27 15 -7 8 -20 15 -29 15 -9 0 -31
14 -49 30 -18 17 -35 30 -37 30 -2 0 -16 11 -31 25 -27 25 -64 34 -64 15 0 -5
-6 -10 -14 -10 -26 0 -52 -63 -60 -140 -3 -40 -11 -78 -15 -84 -5 -6 -12 -88
-16 -181 -4 -94 -9 -177 -12 -185 -7 -18 -9 -29 -11 -52 -2 -17 -19 -18 -211
-18 -116 0 -212 4 -215 8 -3 5 -78 12 -168 15 -96 4 -164 11 -166 17 -2 6 -49
10 -117 10 l-113 0 -4 219 c-2 135 -8 224 -15 232 -5 8 -13 34 -17 57 -7 50
-15 59 -71 87 -22 11 -41 23 -43 28 -2 4 -139 7 -305 8 -301 0 -403 7 -362 24
31 13 35 24 35 108 l0 77 33 0 c50 0 87 36 87 83 0 35 -2 37 -32 38 -53 2 -92
-2 -103 -11 -5 -4 -25 -11 -42 -15 -18 -3 -33 -11 -33 -16 0 -5 -6 -9 -13 -9
-7 0 -30 -15 -50 -34 -32 -29 -37 -40 -37 -77 l0 -44 -55 3 c-59 4 -62 6 -42
27 28 32 34 42 40 67 10 40 -1 58 -35 58 -22 0 -29 4 -25 14 3 8 0 17 -7 19
-12 5 -90 -10 -143 -27 -22 -7 -23 -4 -23 38 0 25 5 48 10 51 6 3 10 28 10 56
0 47 -1 49 -29 49 -35 0 -91 -46 -91 -75 0 -12 -4 -25 -10 -31 -5 -5 -11 -29
-12 -52 -1 -23 -6 -42 -12 -42 -6 0 -22 -3 -35 -7 -23 -6 -23 -6 -16 58 4 35
11 66 16 67 5 2 9 21 9 43 0 35 -3 39 -25 39 -14 0 -25 -4 -25 -10z m-1958
-629 c-2 -23 -8 -41 -13 -41 -12 0 -12 -257 1 -262 5 -1 12 -61 16 -133 3 -71
10 -137 14 -145 4 -8 11 -89 15 -180 4 -90 9 -175 11 -187 l4 -23 -212 -1
c-117 0 -328 -5 -468 -10 -140 -6 -339 -13 -441 -17 -130 -5 -191 -11 -202
-20 -12 -10 -62 -12 -215 -10 -110 2 -203 6 -207 9 -3 4 -8 165 -10 358 -4
355 -10 411 -42 411 -21 0 -26 21 -25 99 0 42 -5 82 -11 89 -9 11 3 13 69 9
43 -3 106 -10 139 -15 94 -16 579 -14 629 3 22 7 99 16 170 19 70 4 136 11
145 16 10 5 53 12 97 16 43 4 85 11 92 17 8 6 93 12 199 15 126 3 194 9 211
18 34 17 38 13 34 -35z m1586 27 c10 -10 88 -13 319 -13 236 0 307 3 310 13 4
9 113 12 502 12 l497 0 30 -28 c24 -22 31 -37 32 -72 1 -24 7 -49 12 -54 13
-13 14 -658 0 -672 -5 -5 -11 -36 -13 -68 l-4 -59 -97 -3 c-63 -1 -102 -7
-113 -16 -20 -16 -453 -23 -688 -11 -141 8 -150 9 -150 28 0 18 8 20 91 25 66
4 95 9 107 22 9 9 20 18 24 20 14 6 53 67 53 83 0 8 5 15 10 15 6 0 10 25 10
55 l0 55 -37 0 c-47 0 -83 -37 -83 -87 0 -19 -5 -33 -12 -34 -7 -1 -25 -3 -40
-5 -30 -3 -40 19 -13 30 8 3 15 12 15 21 0 8 5 15 11 15 7 0 9 11 6 26 -3 18
0 27 12 31 36 11 67 29 87 49 30 31 64 88 64 108 0 9 5 16 11 16 6 0 9 19 7
48 -3 45 -4 47 -36 50 -37 4 -82 -30 -82 -62 0 -11 -5 -35 -12 -53 -14 -38
-36 -42 -87 -17 -34 17 -101 79 -101 93 0 5 -14 11 -31 15 -22 4 -30 11 -27
23 4 19 34 21 146 7 35 -4 52 -2 52 5 0 6 9 11 20 11 11 0 28 9 37 20 10 11
21 20 26 20 12 0 37 26 37 39 0 5 8 17 17 26 10 11 18 39 21 74 3 31 9 59 15
62 20 13 -5 29 -45 29 -32 0 -46 -6 -64 -27 -13 -16 -24 -35 -25 -43 -1 -8 -2
-26 -4 -40 -1 -14 -3 -33 -3 -42 -2 -15 -12 -18 -62 -18 -33 0 -60 4 -60 10 0
5 16 26 35 46 38 39 47 83 18 85 -55 4 -74 -4 -111 -43 -15 -16 -18 -15 -49
17 -33 34 -37 35 -109 35 -57 0 -76 -4 -80 -15 -4 -8 -12 -15 -19 -15 -8 0
-21 -18 -31 -40 -10 -22 -21 -40 -25 -40 -14 0 -41 -67 -37 -92 2 -18 8 -22
28 -20 57 6 70 13 84 45 21 46 47 75 53 59 3 -6 8 -10 12 -7 17 10 55 -46 55
-79 0 -36 -49 -96 -78 -96 -9 0 -16 -4 -16 -10 0 -14 -97 -108 -120 -115 -28
-9 -53 -70 -40 -96 12 -22 47 -25 82 -6 29 15 58 42 58 54 0 5 15 25 33 45 27
31 37 35 65 31 19 -3 36 -12 39 -19 3 -8 11 -14 19 -14 8 0 14 -7 14 -15 0 -8
7 -15 15 -15 8 0 15 -7 15 -15 0 -8 7 -15 15 -15 8 0 15 -7 15 -15 0 -10 10
-15 29 -15 38 0 46 -13 21 -35 -11 -10 -20 -24 -20 -32 0 -18 -38 -16 -58 3
-13 14 -29 15 -89 10 -40 -3 -82 -11 -94 -18 -37 -22 -89 -71 -89 -84 0 -7 -4
-14 -9 -16 -8 -3 -15 -44 -12 -75 2 -21 55 -15 80 8 12 11 26 32 31 45 13 34
86 34 123 0 22 -21 24 -26 12 -36 -8 -7 -15 -19 -15 -26 0 -8 -4 -14 -9 -14
-5 0 -12 -12 -15 -26 -5 -20 -10 -23 -20 -15 -16 14 -233 8 -311 -8 -27 -5
-73 -10 -102 -10 -28 -1 -55 -5 -58 -11 -3 -5 -34 -10 -67 -10 -34 0 -89 -4
-122 -10 -34 -5 -102 -11 -152 -12 l-92 -3 -7 150 c-4 83 -11 155 -15 160 -4
6 -10 47 -13 93 -3 45 -10 88 -16 95 -6 9 -11 110 -13 275 l-3 262 231 0 c171
0 233 -3 242 -12z m3069 -108 c23 0 77 -36 118 -77 23 -24 47 -43 53 -43 7 0
12 -4 12 -10 0 -5 11 -12 25 -16 14 -3 25 -10 25 -15 0 -8 27 -25 100 -59 25
-11 52 -25 60 -31 8 -5 23 -12 33 -15 9 -4 17 -13 17 -20 0 -8 7 -14 15 -14 8
0 15 -9 15 -19 0 -10 -7 -21 -15 -25 -8 -3 -15 -14 -15 -25 0 -10 -7 -32 -15
-47 -12 -24 -20 -28 -45 -26 -41 5 -82 -39 -78 -82 3 -28 7 -31 41 -34 21 -2
37 1 37 7 0 6 7 11 15 11 8 0 15 -6 15 -14 0 -14 23 -28 50 -30 8 -1 16 -8 18
-17 2 -12 -7 -18 -32 -23 -20 -4 -36 -11 -36 -16 0 -6 -18 -13 -40 -16 -22 -4
-43 -11 -46 -15 -3 -5 -14 -9 -24 -9 -10 0 -25 -6 -32 -12 -16 -16 -101 -58
-117 -58 -6 0 -11 -4 -11 -9 0 -5 -13 -12 -30 -16 -16 -4 -30 -11 -30 -16 0
-5 -11 -9 -25 -9 -14 0 -40 -8 -58 -18 -30 -16 -45 -27 -82 -59 -7 -7 -19 -13
-25 -13 -6 0 -13 -7 -16 -15 -4 -8 -12 -15 -19 -15 -10 0 -12 24 -8 108 2 59
8 116 13 127 5 11 11 55 13 99 3 49 9 81 17 86 10 6 14 61 18 222 2 117 8 217
13 223 5 5 9 25 9 45 0 47 9 55 35 30 12 -11 26 -20 32 -20z m-8467 15 c0 -8
9 -15 20 -15 11 0 20 -4 20 -9 0 -5 10 -13 23 -16 44 -12 92 -40 117 -67 13
-16 30 -28 38 -28 7 0 15 -7 18 -15 4 -8 13 -15 21 -15 8 0 21 -7 29 -15 9 -8
24 -15 35 -15 25 0 24 -12 -1 -28 -12 -7 -20 -8 -20 -2 0 11 -68 14 -94 4 -9
-3 -21 -24 -26 -45 -8 -29 -16 -39 -30 -39 -23 0 -23 -2 -9 39 9 27 8 35 -6
51 -19 21 -55 27 -55 10 0 -5 -9 -10 -20 -10 -11 0 -23 -8 -27 -17 -3 -10 -13
-26 -21 -35 -9 -11 -12 -27 -8 -41 4 -16 0 -29 -9 -37 -13 -11 -15 10 -15 174
0 117 4 186 10 186 6 0 10 -7 10 -15z m-2241 -87 c-6 -45 -1 -48 72 -48 49 0
75 -4 85 -15 9 -8 26 -15 40 -15 14 0 27 -7 30 -15 4 -8 12 -15 20 -15 8 0 14
-7 14 -15 0 -8 7 -15 15 -15 8 0 15 -6 15 -14 0 -8 6 -16 13 -19 7 -2 23 -26
36 -53 14 -27 29 -52 34 -56 6 -3 10 -67 10 -152 0 -127 -2 -149 -18 -166 -10
-11 -22 -20 -27 -20 -5 0 -28 -19 -50 -42 l-42 -43 -119 0 c-102 0 -120 2
-128 18 -6 9 -15 17 -21 17 -19 0 -105 97 -124 139 -10 23 -21 41 -25 41 -12
0 -22 65 -14 90 4 14 11 18 18 12 7 -5 24 -7 40 -6 27 3 27 3 27 -60 0 -63 0
-64 31 -70 67 -13 94 -7 191 45 10 5 26 9 36 9 10 0 27 7 38 15 10 8 25 15 32
15 7 0 26 10 42 22 24 17 30 29 30 59 0 33 -3 37 -30 43 -17 3 -45 19 -63 36
-18 16 -38 30 -44 30 -7 0 -13 7 -13 15 0 8 -8 15 -19 15 -10 0 -24 7 -31 15
-7 8 -21 15 -31 15 -11 0 -19 7 -19 16 0 14 -8 16 -44 12 -61 -7 -106 -43
-106 -85 0 -33 -1 -33 -46 -33 l-47 0 6 55 c3 30 13 62 21 71 9 8 16 22 16 29
0 20 80 101 108 110 12 3 22 11 22 16 0 5 5 9 10 9 6 0 10 -6 9 -12z m2678
-178 c10 -11 25 -20 35 -20 10 0 18 -4 18 -10 0 -5 11 -12 25 -16 14 -3 25
-10 25 -15 0 -5 8 -13 18 -16 18 -7 31 -17 63 -45 10 -10 25 -18 33 -18 8 0
17 -4 20 -9 3 -5 22 -12 41 -15 19 -4 35 -11 35 -16 0 -6 18 -13 40 -16 22 -4
40 -10 40 -14 0 -4 12 -11 28 -14 46 -12 82 -30 79 -41 -2 -5 -20 -14 -40 -19
-20 -5 -37 -13 -37 -18 0 -4 -7 -8 -15 -8 -8 0 -32 -9 -52 -20 -21 -11 -43
-20 -50 -20 -7 0 -13 -4 -13 -9 0 -5 -16 -12 -35 -15 -19 -4 -35 -11 -35 -16
0 -6 -18 -13 -40 -16 -22 -4 -43 -11 -46 -15 -3 -5 -20 -9 -39 -9 -18 0 -40
-7 -49 -15 -8 -8 -24 -15 -36 -15 -12 0 -34 -6 -48 -14 -15 -8 -49 -24 -77
-37 -27 -12 -58 -25 -67 -30 -10 -5 -31 -9 -47 -9 -16 0 -36 -7 -45 -15 -8 -8
-21 -15 -30 -15 -8 0 -21 -6 -28 -13 -7 -6 -31 -24 -54 -39 l-41 -26 -7 176
c-4 97 -11 203 -17 236 -7 41 -7 62 0 69 11 11 15 -5 11 -50 0 -12 6 -35 15
-52 12 -24 22 -31 45 -31 17 0 30 4 30 9 0 5 9 11 20 14 20 5 21 12 24 95 1
13 9 28 19 34 18 10 18 5 12 -100 -7 -103 -6 -111 12 -121 29 -15 91 -2 98 20
4 11 14 20 23 21 32 2 37 4 49 11 8 5 13 -5 15 -35 3 -42 4 -43 41 -46 31 -3
43 2 63 24 25 26 25 28 17 138 l-8 111 -44 -2 -44 -2 7 46 c3 25 6 61 6 79 0
39 12 43 37 14z m10306 -6 c4 -8 13 -14 20 -14 7 0 32 -18 57 -40 l44 -41 -34
-33 c-32 -30 -39 -32 -85 -29 l-50 5 0 89 c0 84 1 88 20 83 11 -4 24 -13 28
-20z m221 -149 c11 -8 27 -15 37 -15 9 0 30 -7 45 -15 16 -8 37 -15 47 -15 9
0 17 -4 17 -9 0 -5 14 -12 31 -16 17 -4 42 -13 57 -21 15 -8 39 -14 53 -14 15
0 40 -7 55 -15 16 -8 39 -15 51 -15 12 0 24 -4 27 -9 3 -5 18 -12 33 -15 38
-9 96 -38 106 -53 4 -7 13 -13 18 -13 6 0 17 -7 25 -15 9 -8 24 -15 35 -15 10
0 19 -4 19 -10 0 -5 11 -12 25 -16 14 -3 25 -11 25 -16 0 -6 7 -16 17 -23 14
-11 13 -13 -12 -19 -15 -4 -34 -14 -42 -21 -8 -8 -23 -15 -34 -15 -10 0 -19
-4 -19 -10 0 -5 -14 -10 -30 -10 -17 0 -33 -6 -36 -14 -3 -8 -16 -17 -30 -20
-13 -4 -24 -10 -24 -15 0 -5 -13 -12 -30 -16 -16 -4 -30 -10 -30 -13 0 -4 -25
-18 -55 -31 -30 -14 -55 -28 -55 -33 0 -4 -9 -8 -19 -8 -11 0 -26 -6 -33 -13
-7 -7 -31 -24 -53 -37 -22 -13 -44 -30 -48 -37 -4 -7 -15 -13 -22 -13 -8 0
-15 -4 -15 -8 0 -4 -18 -19 -40 -32 -22 -14 -40 -28 -40 -32 0 -5 -6 -8 -14
-8 -8 0 -21 -6 -28 -13 -17 -18 -77 -47 -95 -47 -8 0 -27 -7 -41 -15 -56 -30
-124 -56 -140 -53 -24 5 -30 161 -9 210 27 60 27 66 3 82 -22 14 -23 18 -14
68 5 29 8 73 7 98 -1 25 -1 95 0 157 1 109 2 112 24 111 12 -1 29 -7 37 -14 8
-6 24 -14 35 -16 13 -2 19 -10 17 -22 -2 -10 -1 -29 2 -42 14 -54 126 -12 126
47 0 14 7 19 24 19 34 0 96 38 96 58 -1 53 -10 62 -66 62 -51 0 -54 1 -54 25
0 29 7 30 34 10z m2884 -866 c32 -11 122 -8 327 10 129 11 745 3 787 -11 18
-6 129 -13 246 -15 l212 -5 0 -55 c0 -30 -6 -64 -12 -76 -9 -16 -15 -130 -21
-407 -11 -513 -11 -1994 0 -2145 4 -66 7 -128 4 -137 -4 -19 -51 -26 -51 -8 0
14 -53 13 -67 -1 -14 -14 -203 -13 -217 1 -6 6 -157 10 -378 10 -333 0 -368 2
-376 17 -9 15 -15 14 -67 -11 l-57 -27 -455 0 c-353 1 -459 3 -471 13 -10 9
-46 12 -117 11 l-102 -3 -7 77 c-3 42 -11 82 -16 88 -6 7 -13 42 -17 79 -3 36
-10 66 -14 66 -13 0 -11 627 1 635 6 3 10 17 10 31 0 13 -4 24 -10 24 -12 0
-14 746 -2 754 5 3 12 42 15 87 4 46 11 85 16 88 5 3 12 53 16 111 4 58 12
110 17 117 9 11 5 249 -9 514 -9 166 -8 185 12 169 16 -13 272 -7 355 8 69 13
404 6 448 -9z m-4997 -341 c6 -12 29 -37 51 -57 79 -71 198 -194 198 -204 0
-5 11 -20 25 -33 14 -13 25 -28 25 -34 0 -5 7 -10 15 -10 8 0 15 -7 15 -15 0
-8 7 -15 15 -15 8 0 15 -5 15 -11 0 -6 15 -27 33 -46 85 -93 123 -131 137
-135 11 -4 6 -14 -22 -39 -55 -50 -66 -59 -76 -59 -5 0 -17 -9 -27 -20 -10
-11 -24 -20 -31 -20 -7 0 -14 -3 -16 -8 -1 -4 -25 -25 -53 -47 -27 -22 -68
-59 -90 -82 -23 -24 -45 -43 -48 -43 -10 0 -37 -29 -81 -87 -28 -37 -47 -52
-70 -56 -17 -3 -193 -6 -390 -6 -198 -1 -364 -6 -370 -11 -6 -5 -75 -10 -153
-11 l-141 -2 -6 387 c-3 228 -9 393 -15 399 -5 7 -10 68 -12 137 l-2 125 24
-3 c13 -1 26 -7 30 -13 4 -6 49 -16 100 -22 113 -12 350 4 395 28 21 11 62 15
147 15 71 0 117 4 117 10 0 6 48 10 125 10 117 0 125 -1 136 -22z m-10961
-653 c19 -3 50 -8 68 -11 28 -4 32 -8 21 -20 -10 -12 -7 -20 16 -44 16 -17 36
-30 45 -30 24 0 110 -85 110 -108 0 -12 5 -24 10 -27 13 -8 13 -185 1 -185 -5
0 -12 -13 -16 -30 -4 -16 -22 -46 -42 -66 l-35 -36 -120 4 c-69 2 -122 9 -126
15 -4 6 -31 14 -60 18 -31 4 -56 13 -59 21 -3 8 -11 14 -18 14 -7 0 -15 7 -19
15 -3 8 -12 15 -21 15 -8 0 -15 4 -15 8 0 5 -11 14 -24 22 -20 10 -56 76 -56
102 0 4 91 8 203 10 199 3 202 3 230 28 37 32 50 56 42 80 -6 19 -17 20 -223
19 -119 0 -222 0 -229 0 -15 1 0 57 22 81 8 9 15 22 15 28 0 7 4 12 8 12 5 0
14 11 20 25 8 16 23 28 42 32 17 3 33 10 36 15 6 10 107 6 174 -7z m4238 -867
c10 -10 69 -13 227 -13 158 0 217 3 226 13 16 15 390 17 418 3 9 -5 73 -13
141 -17 75 -4 133 -12 145 -20 16 -10 81 -13 279 -13 142 0 259 -1 260 -3 1
-2 -1 -59 -6 -128 -4 -69 -5 -247 -3 -396 3 -149 3 -277 0 -285 -4 -11 -21
-14 -75 -11 -101 6 -391 -16 -408 -31 -11 -8 -91 -13 -276 -15 -144 -2 -265
-7 -271 -12 -5 -4 -53 -10 -105 -14 -52 -4 -99 -11 -106 -17 -14 -12 -305 -24
-364 -15 l-45 6 0 198 c0 135 -4 208 -13 232 -7 19 -15 69 -18 110 -3 41 -9
84 -14 95 -5 11 -10 87 -13 169 -2 104 -7 151 -15 154 -7 2 -12 8 -12 13 0 13
34 11 48 -3z m2992 -8 c116 -10 348 -2 356 11 7 13 358 11 370 -1 6 -6 54 -14
108 -19 54 -6 101 -12 104 -15 3 -3 -2 -6 -11 -6 -10 0 -17 -7 -17 -15 0 -20
-26 -19 -34 1 -5 14 -16 16 -59 11 -28 -3 -63 -11 -77 -19 -44 -24 -70 -43
-70 -50 0 -10 -69 -78 -79 -78 -18 0 -39 -37 -43 -75 -3 -39 -2 -40 30 -43 18
-2 32 1 32 7 0 6 7 11 15 11 8 0 15 5 15 10 0 15 91 100 118 111 27 10 62 -4
62 -26 0 -7 -10 -22 -23 -32 -30 -24 -55 -65 -50 -80 3 -8 22 -13 48 -13 33 0
46 5 57 22 l15 22 35 -22 c27 -17 51 -22 102 -22 65 0 67 1 111 46 25 25 45
51 45 59 0 7 6 15 12 17 8 3 13 27 13 69 l0 64 -36 -1 c-19 0 -47 -9 -63 -19
-24 -16 -27 -24 -25 -64 l3 -46 -39 3 c-22 2 -41 5 -41 5 -1 1 -4 11 -8 22 -4
15 3 30 29 55 19 19 35 41 35 48 0 6 6 12 13 12 420 2 576 7 588 16 8 6 54 14
103 17 49 4 94 11 100 17 11 11 96 14 96 4 0 -4 -8 -12 -17 -19 -14 -11 -18
-34 -20 -146 -2 -74 -8 -150 -13 -169 -6 -19 -11 -169 -12 -332 -2 -163 -6
-299 -9 -302 -3 -3 -300 -6 -660 -7 -360 -1 -778 -4 -929 -8 -282 -8 -421 -2
-428 18 -2 6 -15 11 -29 11 l-26 0 5 313 c4 204 9 321 17 335 6 11 11 56 11
99 0 43 3 109 7 146 6 68 6 69 32 62 14 -4 73 -11 131 -15z m3280 -25 c0 -8 9
-15 20 -15 11 0 20 -4 20 -10 0 -5 11 -12 24 -16 14 -3 27 -12 30 -20 3 -8 12
-14 21 -14 8 0 15 -4 15 -10 0 -5 11 -12 25 -16 14 -3 25 -10 25 -15 0 -5 7
-9 15 -9 8 0 23 -9 32 -20 10 -11 23 -20 30 -20 7 0 13 -7 13 -15 0 -8 9 -15
20 -15 11 0 20 -4 20 -9 0 -5 10 -13 22 -17 12 -3 28 -13 36 -20 7 -8 22 -14
33 -14 10 0 19 -4 19 -10 0 -5 7 -10 15 -10 16 0 21 -26 6 -32 -7 -2 -19 -102
-21 -167 0 -12 -3 -12 -12 -3 -7 7 -20 12 -30 12 -19 0 -71 -47 -81 -72 -3 -7
-3 10 0 38 6 54 -8 94 -32 94 -23 0 -27 18 -10 54 25 52 17 70 -30 74 -27 2
-43 -1 -51 -12 -10 -14 -12 -12 -17 14 -6 27 -11 30 -42 30 -22 0 -38 -6 -41
-15 -3 -8 -14 -17 -25 -20 -15 -5 -19 -16 -19 -55 0 -38 -5 -55 -25 -76 l-25
-27 0 227 c0 144 4 226 10 226 6 0 10 -7 10 -15z m-8378 -45 c18 -16 40 -30
49 -30 9 0 19 -7 23 -15 3 -8 17 -15 31 -15 14 0 25 -4 25 -10 0 -5 12 -13 27
-16 15 -4 34 -13 41 -21 7 -7 22 -13 33 -13 33 0 34 -29 2 -58 -17 -15 -33
-39 -37 -54 -3 -16 -13 -28 -21 -28 -8 0 -23 -9 -32 -20 -31 -36 -43 -25 -43
39 0 52 -3 61 -21 66 -41 13 -84 -3 -102 -38 -15 -31 -16 -29 -16 90 -1 67 -4
128 -7 137 -10 25 12 19 48 -14z m-2110 -101 c2 -5 22 -13 46 -16 23 -3 47
-12 53 -19 6 -8 16 -14 21 -14 5 0 32 -23 61 -52 l52 -52 -3 -139 c-2 -114 -5
-142 -19 -155 -9 -10 -21 -17 -27 -17 -6 -1 -30 -13 -53 -28 -40 -26 -49 -27
-163 -27 -78 0 -119 4 -115 10 3 6 13 10 21 10 15 0 76 39 82 53 2 4 11 7 21
7 9 0 26 7 37 15 10 8 31 15 45 15 15 0 32 7 39 15 7 8 19 15 26 15 28 0 54
39 54 80 0 25 -5 40 -12 40 -7 0 -37 23 -66 50 -29 28 -56 50 -61 50 -5 0 -11
7 -15 15 -3 8 -12 15 -21 15 -8 0 -15 7 -15 15 0 8 -7 15 -15 15 -8 0 -15 5
-15 10 0 13 -36 13 -61 0 -13 -8 -19 -7 -19 0 0 18 -27 40 -48 40 -54 0 -122
-74 -93 -103 6 -6 11 -27 11 -46 l0 -36 -55 0 c-52 0 -72 13 -45 30 6 3 10 19
10 34 0 15 9 36 20 46 11 10 20 24 20 32 0 7 6 13 14 13 8 0 16 5 18 11 2 6
31 26 63 44 51 28 71 33 132 34 42 1 73 -3 75 -10z m2578 -118 c0 -6 21 -13
46 -17 26 -4 59 -13 73 -20 14 -8 38 -14 54 -14 15 0 27 -4 27 -10 0 -5 16
-12 35 -16 19 -3 39 -12 46 -20 6 -8 27 -14 45 -14 19 0 34 -4 34 -10 0 -5 15
-10 33 -10 71 0 102 -23 47 -35 -16 -4 -30 -11 -30 -16 0 -5 -6 -9 -14 -9 -8
0 -21 -6 -28 -12 -21 -19 -50 -37 -80 -51 -16 -6 -28 -15 -28 -18 0 -4 -15
-11 -32 -14 -18 -4 -37 -11 -43 -15 -5 -4 -23 -10 -40 -14 -16 -4 -32 -11 -35
-14 -3 -4 -41 -25 -85 -46 -44 -22 -81 -43 -83 -48 -2 -4 -11 -8 -21 -8 -9 0
-24 -8 -33 -17 -29 -31 -45 -42 -72 -49 -14 -3 -26 -10 -26 -14 0 -4 -16 -11
-35 -14 -19 -4 -35 -11 -35 -16 0 -6 -6 -10 -13 -10 -8 0 -22 -9 -32 -20 -10
-11 -24 -20 -31 -20 -7 0 -14 -3 -16 -7 -5 -12 -66 -53 -78 -53 -5 0 -10 -4
-10 -10 0 -5 -6 -10 -12 -10 -10 0 -13 30 -11 123 1 102 -5 192 -19 267 -2 8
2 16 7 18 6 1 10 -6 11 -16 1 -22 22 -62 32 -62 5 0 27 9 50 20 l42 20 0 65
c0 48 4 65 13 65 8 0 22 9 32 20 10 11 22 20 27 20 13 0 10 -28 -4 -32 -7 -3
-14 -32 -16 -76 -4 -71 -4 -71 23 -78 18 -4 39 -1 59 9 17 9 54 17 81 19 44 3
50 1 48 -16 -3 -40 15 -66 47 -66 35 0 80 26 80 46 0 8 5 14 10 14 6 0 10 13
10 29 0 17 -4 33 -10 36 -5 3 -10 17 -10 30 0 13 5 27 10 30 6 3 10 28 10 54
0 47 -1 49 -30 53 -17 3 -42 -1 -57 -9 -14 -7 -27 -13 -29 -13 -7 0 8 54 18
67 6 7 8 20 4 28 -4 11 1 15 19 15 14 0 25 -4 25 -9z m8516 -96 c9 -8 24 -15
34 -15 10 0 21 -4 25 -10 3 -5 32 -12 65 -16 33 -4 60 -11 60 -15 0 -5 11 -9
24 -9 14 0 27 -4 30 -9 7 -10 -16 -21 -43 -21 -10 0 -26 -9 -36 -20 -10 -11
-23 -20 -28 -20 -5 0 -20 -11 -32 -24 -12 -13 -32 -29 -43 -35 -19 -10 -22 -9
-22 10 0 11 -6 35 -14 52 -8 18 -16 43 -18 57 -2 20 -9 25 -30 25 -20 -1 -28
4 -28 17 0 10 7 18 15 18 8 0 15 7 15 15 0 8 3 15 6 15 3 0 12 -7 20 -15z
m1984 -55 c3 -4 22 -10 43 -14 20 -4 37 -11 37 -16 0 -4 15 -12 33 -15 17 -4
37 -11 43 -16 6 -5 33 -12 60 -16 27 -3 55 -12 62 -20 7 -7 26 -13 42 -13 16
0 30 -5 32 -11 2 -5 22 -13 46 -16 23 -3 42 -9 42 -14 0 -4 13 -10 29 -14 16
-3 32 -13 35 -21 3 -8 12 -14 21 -14 8 0 15 -4 15 -9 0 -5 10 -13 23 -17 12
-4 24 -9 27 -13 9 -11 65 -47 85 -55 19 -7 19 -8 -5 -27 -14 -10 -35 -22 -47
-25 -13 -3 -23 -10 -23 -14 0 -4 -16 -11 -35 -14 -19 -4 -35 -11 -35 -16 0 -6
-9 -10 -19 -10 -11 0 -26 -7 -35 -15 -8 -8 -23 -15 -34 -15 -11 0 -25 -6 -31
-14 -7 -8 -23 -17 -36 -20 -14 -4 -25 -11 -25 -16 0 -6 -7 -10 -15 -10 -8 0
-23 -9 -32 -20 -10 -11 -25 -20 -35 -20 -9 0 -20 -4 -23 -10 -3 -5 -15 -10
-25 -10 -10 0 -25 -7 -34 -15 -8 -8 -19 -15 -25 -15 -5 0 -30 -13 -54 -30 -25
-16 -53 -30 -64 -30 -10 0 -26 -8 -35 -17 -29 -31 -45 -42 -72 -49 -14 -3 -26
-10 -26 -14 0 -4 -16 -11 -35 -14 -19 -4 -35 -11 -35 -16 0 -6 -6 -10 -12 -10
-7 -1 -31 -9 -53 -20 l-40 -19 -3 37 c-2 19 1 45 7 56 5 12 11 30 13 40 3 16
13 19 66 20 35 1 66 6 70 12 4 5 16 14 27 20 11 6 22 20 24 30 2 10 8 22 15
26 7 5 4 12 -9 22 -14 11 -45 15 -107 16 l-88 0 0 144 c0 158 3 176 31 176 19
0 69 41 69 56 0 5 25 9 57 9 36 0 58 4 60 13 3 6 11 12 19 12 8 0 14 8 14 18
0 10 5 23 11 29 8 8 7 17 -3 32 -10 17 -23 21 -60 21 -51 0 -51 0 -42 23 4 12
13 13 47 4 23 -6 44 -13 47 -17z m-2577 -134 c-4 -12 -8 -41 -8 -66 0 -42 2
-45 28 -48 28 -3 76 34 89 69 5 12 14 15 32 12 26 -5 35 -18 15 -25 -14 -5
-14 -109 1 -118 30 -19 110 29 110 67 1 31 23 48 63 49 21 0 42 5 45 11 4 6
25 12 47 13 68 3 73 2 73 -24 0 -18 -7 -26 -27 -31 -14 -4 -28 -10 -31 -13 -3
-4 -21 -15 -41 -25 -19 -10 -53 -34 -74 -53 -21 -18 -45 -34 -52 -34 -7 0 -13
-4 -13 -10 0 -5 -12 -10 -27 -10 -16 0 -41 -7 -57 -15 -15 -8 -36 -15 -45 -15
-9 0 -24 -8 -33 -17 -21 -23 -46 -43 -52 -43 -3 0 -20 -14 -38 -30 l-33 -31
-3 193 c-1 106 -1 197 2 204 2 6 11 11 20 11 12 0 14 -6 9 -21z m6126 -975 c4
-6 45 -14 92 -18 46 -3 92 -10 101 -15 10 -5 55 -11 100 -13 46 -2 85 -4 88
-4 3 -1 2 -45 -1 -98 -4 -54 -7 -106 -8 -115 -1 -10 -5 -18 -10 -18 -5 0 -7 9
-4 20 3 11 2 31 -1 45 -9 37 -66 35 -101 -2 l-25 -28 0 39 c0 21 -8 60 -17 87
-16 45 -20 49 -51 49 -24 0 -42 -9 -64 -30 -16 -16 -36 -30 -44 -30 -8 0 -14
-7 -14 -15 0 -27 -18 -16 -25 15 -4 17 -10 30 -15 30 -5 0 -10 12 -12 28 -5
43 -47 42 -92 -3 -20 -20 -36 -43 -36 -53 -1 -16 -1 -16 -14 1 -7 9 -16 17
-20 17 -4 0 -27 16 -50 35 -49 40 -88 45 -113 15 -10 -11 -23 -20 -30 -20 -7
0 -13 -9 -13 -19 0 -11 -4 -22 -10 -26 -5 -3 -7 -12 -3 -20 3 -10 -1 -15 -15
-15 -11 0 -22 5 -24 10 -4 14 -98 16 -107 3 -3 -6 -16 -13 -28 -17 -13 -4 -23
-14 -23 -22 0 -19 -9 -18 -33 4 -37 33 -170 11 -181 -31 -2 -11 -9 -16 -15
-12 -15 9 -14 21 5 39 8 9 14 26 12 38 -5 34 -64 26 -100 -13 -15 -16 -31 -29
-35 -29 -4 -1 -19 -14 -33 -30 -13 -17 -28 -30 -32 -30 -4 0 -8 51 -8 114 l0
113 221 5 c151 3 223 8 228 16 12 20 548 23 560 3z m-6469 -140 c124 -6 332
-8 463 -4 l238 6 29 -34 c16 -19 29 -40 30 -46 0 -7 5 -13 10 -13 6 0 10 -4
10 -10 0 -9 58 -74 175 -194 28 -28 61 -66 75 -84 14 -17 28 -32 33 -32 16 0
106 -76 113 -94 4 -13 1 -24 -10 -31 -9 -7 -16 -17 -16 -24 0 -6 -7 -11 -15
-11 -8 0 -15 -5 -15 -10 0 -6 -8 -14 -17 -17 -18 -7 -53 -39 -53 -49 0 -3 -6
-12 -12 -20 -7 -8 -29 -34 -48 -58 -19 -24 -47 -52 -62 -62 -16 -11 -28 -22
-28 -26 0 -4 -13 -22 -30 -40 -16 -18 -30 -40 -30 -49 0 -9 -6 -19 -12 -22
-19 -7 -78 4 -78 14 0 14 -567 12 -572 -2 -2 -7 -54 -13 -143 -16 -77 -3 -145
-10 -152 -15 -6 -5 -42 -12 -80 -15 -58 -5 -71 -3 -83 12 -13 15 -15 84 -15
454 0 407 1 439 19 478 15 32 23 39 35 33 9 -5 117 -13 241 -19z m6353 -179
l42 3 3 -75 c3 -77 13 -100 42 -100 22 0 70 25 82 42 7 10 11 9 22 -4 22 -29
68 -23 99 13 24 28 34 31 84 33 37 1 58 -3 60 -11 3 -9 -8 -13 -38 -13 -35 0
-48 -6 -78 -37 -38 -39 -61 -76 -61 -99 0 -19 69 -18 106 1 16 8 39 15 52 15
12 0 22 5 22 10 0 6 6 10 14 10 10 0 13 -12 12 -40 l-1 -40 -125 -4 c-69 -3
-149 -10 -179 -16 -33 -6 -242 -10 -531 -10 l-477 0 -6 79 c-3 43 -10 88 -16
99 -16 30 -15 125 2 119 7 -2 12 -24 12 -58 1 -87 33 -121 81 -84 24 18 58 19
84 3 16 -10 24 -10 40 0 11 6 28 12 39 12 10 0 21 9 24 20 7 27 18 25 56 -9
46 -41 83 -47 130 -23 42 22 103 79 121 112 15 27 30 25 30 -4 0 -13 7 -40 15
-60 20 -48 50 -48 98 1 36 35 37 39 37 107 l0 70 30 -33 c26 -28 36 -32 73
-29z m-16535 -351 c30 -6 52 -19 75 -44 47 -53 70 -85 87 -124 5 -13 14 -23
20 -23 5 0 10 -7 10 -15 0 -8 7 -15 15 -15 11 0 15 -11 15 -40 0 -27 5 -43 15
-46 17 -7 21 -69 6 -78 -5 -4 -12 -24 -16 -45 -4 -22 -13 -42 -21 -45 -8 -3
-14 -15 -14 -26 0 -11 -4 -20 -10 -20 -5 0 -12 -11 -16 -25 -3 -14 -10 -25
-15 -25 -5 0 -9 -7 -9 -15 0 -9 -8 -19 -17 -22 -10 -4 -20 -9 -23 -13 -22 -29
-249 -56 -264 -31 -3 4 -21 11 -41 14 -19 3 -45 17 -59 31 -13 14 -28 26 -34
26 -13 0 -70 117 -73 150 -4 50 0 64 15 50 28 -22 283 5 311 34 8 8 19 16 24
18 5 1 12 20 16 41 l7 37 -174 0 c-122 0 -178 -4 -186 -12 -13 -13 -16 2 -13
47 2 21 30 86 40 95 3 3 11 13 16 24 16 29 87 64 185 91 56 16 74 16 128 6z
m10276 -1196 c3 -8 12 -15 21 -15 8 0 15 -7 15 -15 0 -8 5 -15 10 -15 11 0 24
-10 61 -42 10 -10 23 -18 28 -18 5 0 11 -7 15 -15 3 -8 12 -15 21 -15 8 0 15
-4 15 -9 0 -5 9 -13 21 -16 12 -4 29 -14 38 -23 9 -10 32 -28 50 -42 18 -14
42 -33 52 -42 11 -10 23 -18 27 -18 7 0 80 -60 124 -102 10 -10 20 -18 23 -18
3 0 11 -5 18 -10 48 -41 62 -50 74 -50 7 0 13 -7 13 -15 0 -8 8 -15 18 -15 9
0 23 -4 31 -9 21 -13 1 -35 -57 -63 -25 -13 -63 -40 -85 -60 -21 -21 -40 -38
-42 -38 -2 0 -27 -16 -56 -35 -30 -19 -59 -35 -66 -35 -7 0 -13 -4 -13 -10 0
-5 -9 -10 -19 -10 -11 0 -26 -6 -33 -14 -8 -7 -25 -17 -38 -21 -14 -4 -27 -10
-30 -14 -3 -3 -27 -17 -55 -31 -27 -14 -52 -28 -55 -31 -3 -4 -20 -10 -37 -14
-18 -3 -33 -10 -33 -15 0 -5 -13 -11 -30 -15 -16 -4 -30 -11 -30 -16 0 -5 -9
-9 -19 -9 -11 0 -27 -7 -36 -16 -9 -9 -18 -15 -20 -13 -5 6 -13 370 -8 389 2
8 17 23 34 32 22 13 29 24 29 46 0 17 -6 32 -15 36 -17 6 -20 51 -5 61 6 4 10
85 10 211 0 168 2 204 14 204 8 0 16 -7 20 -15z m-10142 -209 c5 -9 14 -16 19
-16 17 0 65 -53 81 -90 9 -19 19 -53 22 -74 3 -22 10 -42 16 -46 8 -5 10 -32
6 -81 -11 -154 -15 -172 -53 -206 -19 -17 -47 -34 -61 -38 -15 -4 -30 -12 -34
-18 -5 -8 -43 -12 -115 -12 -99 1 -112 3 -153 28 -25 14 -60 34 -79 43 -19 10
-36 26 -39 36 -2 10 -8 18 -13 18 -5 0 -9 9 -9 19 0 11 -7 26 -15 35 -8 8 -15
19 -15 24 0 9 127 8 136 -1 3 -3 -9 -11 -25 -18 -25 -11 -31 -20 -31 -46 0
-21 6 -36 18 -41 27 -15 115 -12 139 4 12 8 33 14 47 14 13 0 31 7 40 15 8 8
21 15 29 15 25 0 122 79 128 104 9 31 0 76 -15 76 -6 0 -28 9 -49 20 -20 11
-44 20 -52 20 -8 0 -15 3 -15 8 0 4 -24 18 -52 32 -29 13 -58 29 -65 35 -7 5
-19 16 -27 23 -18 14 -56 16 -56 2 0 -5 -6 -10 -12 -10 -7 0 -23 -11 -36 -25
-18 -18 -23 -34 -20 -61 l3 -37 -45 -1 -45 0 2 44 c1 25 7 46 12 48 6 2 13 19
17 37 3 19 12 36 20 39 8 3 14 12 14 19 0 8 7 20 15 27 10 9 15 9 15 1 0 -6
17 -11 39 -11 34 0 42 5 59 33 l21 32 112 -2 c90 -2 114 -5 121 -17z"/>
<path d="M7726 7633 c-36 -19 -76 -61 -76 -79 0 -8 -4 -14 -10 -14 -5 0 -10
-6 -10 -13 0 -7 -8 -19 -17 -28 -10 -8 -34 -36 -53 -62 -19 -25 -41 -47 -47
-47 -7 0 -13 -9 -13 -20 0 -11 -4 -20 -10 -20 -5 0 -12 -11 -16 -25 -8 -33
-28 -32 -64 5 -16 17 -34 30 -40 30 -5 0 -10 5 -10 10 0 6 -6 10 -14 10 -16 0
-136 125 -136 143 0 7 -12 24 -25 40 -18 20 -33 27 -60 27 -19 0 -35 -4 -35
-10 0 -5 -6 -10 -14 -10 -8 0 -17 -13 -21 -30 -7 -33 1 -70 16 -70 5 0 9 -4 9
-9 0 -10 42 -60 113 -132 26 -27 47 -54 47 -59 0 -6 7 -10 15 -10 8 0 15 -4
15 -9 0 -5 13 -13 28 -19 16 -5 42 -22 58 -37 l29 -27 0 -191 0 -192 33 -3
c28 -3 39 3 63 29 l29 33 0 152 c0 115 4 159 15 180 8 16 15 37 15 46 0 9 4
18 8 20 13 5 52 74 52 92 0 9 4 16 9 16 5 0 12 11 15 25 6 23 39 65 51 65 9 0
45 40 45 50 0 6 4 10 8 10 13 0 72 89 72 108 0 20 -19 43 -34 41 -6 -1 -24 -8
-40 -16z"/>
<path d="M12940 7462 c0 -5 -9 -12 -20 -15 -22 -6 -26 -28 -10 -57 8 -16 6
-22 -15 -36 -30 -19 -36 -78 -9 -88 17 -7 16 -23 -5 -116 -11 -50 -14 -140 -5
-164 3 -9 12 -16 19 -16 19 0 75 30 75 41 0 5 25 9 55 9 l55 0 0 -35 c0 -42
19 -54 58 -34 58 29 62 39 62 163 l0 115 -27 3 c-27 3 -27 4 -27 83 l-1 80
-36 -3 c-26 -2 -38 2 -43 13 -4 11 -16 15 -43 13 -34 -3 -37 -1 -38 22 0 18
-6 26 -22 28 -13 2 -23 -1 -23 -6z"/>
<path d="M15232 6684 c-30 -20 -31 -88 -3 -104 22 -11 221 -14 236 -2 39 28
58 105 29 116 -9 3 -66 6 -128 6 -85 0 -117 -4 -134 -16z"/>
<path d="M18120 5331 c0 -5 -13 -12 -30 -16 -16 -4 -30 -10 -30 -15 0 -5 -15
-12 -32 -15 -18 -4 -35 -10 -38 -14 -3 -3 -26 -17 -52 -31 -26 -13 -50 -30
-52 -37 -3 -7 -11 -13 -18 -13 -28 0 -54 -119 -29 -134 9 -6 26 -74 22 -90 -4
-16 22 -56 36 -56 9 0 13 -15 13 -48 0 -56 20 -92 41 -75 8 6 29 14 46 18 27
5 34 13 43 44 5 21 7 51 4 67 -5 28 -2 31 45 52 75 32 91 30 91 -13 0 -21 6
-38 14 -41 8 -3 17 -16 20 -30 4 -13 11 -24 16 -24 6 0 10 -11 10 -25 0 -22 4
-25 40 -25 22 0 40 4 40 9 0 5 9 13 20 16 17 5 20 15 20 60 0 30 -4 57 -10 60
-5 3 -10 17 -10 29 0 20 6 24 42 29 24 3 44 11 46 16 2 6 10 11 18 11 10 0 14
-12 14 -40 0 -22 5 -40 10 -40 6 0 10 -8 10 -18 0 -9 20 -39 45 -65 43 -44 49
-47 97 -47 47 0 116 28 126 52 2 4 9 8 16 8 24 0 58 60 52 91 -5 26 -3 29 22
29 15 0 36 3 47 6 24 6 48 54 43 86 -3 20 -10 23 -52 26 -27 2 -54 -2 -59 -7
-7 -7 -55 -11 -115 -11 -114 0 -125 9 -56 44 21 11 41 24 42 28 2 4 10 8 17 8
17 0 45 44 45 70 0 17 -6 20 -45 20 -25 0 -45 -4 -45 -10 0 -5 -9 -10 -19 -10
-11 0 -26 -7 -35 -15 -8 -8 -19 -15 -25 -15 -6 0 -11 -4 -11 -10 0 -13 -32
-45 -54 -53 -13 -5 -18 0 -22 23 -5 22 -13 30 -35 35 -16 4 -29 11 -29 16 0 5
-36 9 -80 9 -47 0 -80 -4 -80 -10 0 -5 -6 -10 -13 -10 -8 0 -22 -9 -32 -20
-10 -11 -24 -20 -32 -20 -7 0 -13 -9 -13 -19 0 -11 -5 -23 -10 -26 -6 -4 -10
-12 -9 -18 4 -23 -14 -47 -35 -47 -11 0 -34 -7 -50 -15 -15 -8 -31 -15 -35
-15 -3 0 -4 25 -2 56 2 40 -1 59 -10 65 -19 12 6 29 44 29 15 0 27 5 27 10 0
6 12 10 28 10 15 0 32 4 37 8 21 14 45 62 45 87 0 23 -4 25 -45 25 -25 0 -45
-4 -45 -9z"/>
<path d="M19052 5283 c-32 -13 -62 -52 -62 -81 0 -17 -4 -34 -10 -37 -5 -3
-12 -28 -16 -56 -4 -27 -11 -52 -15 -55 -5 -3 -9 -13 -9 -22 0 -9 -7 -30 -15
-46 -18 -33 -19 -100 -4 -145 9 -25 16 -31 40 -31 16 0 29 5 29 10 0 6 5 10
11 10 24 0 59 45 59 77 0 17 5 35 10 38 8 5 8 11 0 20 -8 9 -6 14 6 19 30 12
65 6 71 -11 4 -10 10 -20 15 -23 4 -3 11 -37 15 -75 l8 -70 37 -3 c51 -4 98
39 98 90 0 19 -3 38 -7 42 -4 3 -12 22 -19 41 -11 33 -10 36 12 41 14 4 24 14
24 23 0 9 5 22 11 28 18 18 -15 63 -46 63 -13 0 -27 -4 -30 -10 -9 -15 -22
-12 -29 8 -11 30 -61 105 -92 139 -20 22 -60 29 -92 16z"/>
<path d="M12658 5708 c-16 -18 -28 -40 -28 -50 0 -9 -4 -20 -10 -23 -5 -3 -10
-14 -10 -24 0 -10 -9 -26 -20 -36 -11 -10 -20 -24 -20 -32 0 -7 -4 -13 -10
-13 -5 0 -12 -11 -16 -24 -3 -14 -25 -36 -50 -52 -42 -27 -44 -30 -44 -76 0
-27 -5 -57 -12 -68 -10 -15 -9 -23 6 -39 38 -42 99 -12 131 65 12 30 18 34 52
34 l39 0 -4 -39 c-6 -58 11 -81 58 -81 21 0 45 6 52 13 7 6 38 13 68 15 30 2
62 9 71 17 8 8 23 15 32 15 9 0 21 8 26 18 9 15 13 14 38 -15 16 -18 33 -33
39 -33 6 0 26 -7 43 -16 36 -18 99 -14 142 8 41 21 99 83 99 106 0 35 -11 52
-35 52 -13 0 -25 -3 -27 -7 -5 -12 -76 -43 -98 -43 -11 0 -20 5 -20 10 0 6 -7
10 -15 10 -8 0 -23 8 -33 18 -17 17 -19 42 -13 119 1 6 19 14 40 18 22 4 42
13 45 21 3 8 12 14 21 14 11 0 15 11 15 39 0 33 -4 40 -24 45 -29 7 -86 -3
-86 -15 0 -5 -9 -9 -20 -9 -11 0 -23 -7 -26 -15 -4 -8 -12 -15 -20 -15 -8 0
-14 -7 -14 -15 0 -8 -4 -15 -10 -15 -5 0 -10 6 -10 13 0 7 -9 20 -20 30 -11 9
-20 24 -20 32 0 8 -7 15 -15 15 -8 0 -15 5 -15 10 0 12 -77 13 -82 1 -3 -9
-35 -14 -72 -12 -12 1 -16 6 -12 17 9 24 -12 44 -48 44 -22 0 -39 -9 -58 -32z"/>
<path d="M7040 4460 c-36 -36 -25 -69 45 -145 83 -90 85 -92 85 -105 0 -5 7
-10 15 -10 8 0 15 -7 15 -15 0 -8 6 -15 13 -15 6 0 21 -20 32 -45 11 -25 25
-45 31 -45 18 0 24 -36 24 -154 0 -60 4 -123 10 -140 5 -17 13 -51 17 -76 8
-43 10 -45 40 -43 18 2 44 14 58 28 26 23 27 28 21 92 -14 152 -12 191 12 213
12 12 22 27 22 35 0 19 31 55 47 55 7 0 13 5 13 10 0 6 7 10 15 10 8 0 15 5
15 10 0 6 9 20 20 32 11 12 32 40 47 62 34 49 60 76 73 76 6 0 10 5 10 10 0
11 12 28 42 58 9 9 19 34 23 55 l7 37 -40 0 c-32 0 -47 -7 -71 -31 -17 -17
-31 -37 -31 -45 0 -8 -4 -14 -10 -14 -5 0 -10 -5 -10 -11 0 -10 -20 -34 -97
-115 -18 -19 -33 -36 -33 -38 0 -3 -18 -24 -40 -48 -38 -40 -41 -42 -46 -20
-4 12 -9 22 -13 22 -3 0 -15 20 -26 45 -11 25 -25 45 -32 45 -7 0 -13 7 -13
15 0 8 -7 15 -15 15 -8 0 -15 7 -15 15 0 8 -7 15 -15 15 -8 0 -15 5 -15 10 0
6 -8 18 -17 28 -10 10 -25 29 -33 42 -8 13 -27 36 -42 52 -16 16 -28 33 -28
38 0 6 -20 10 -45 10 -32 0 -51 -6 -65 -20z"/>
<path d="M10338 4173 c-10 -2 -18 -9 -18 -14 0 -5 -6 -9 -13 -9 -7 0 -28 -16
-47 -35 -19 -19 -40 -35 -47 -35 -7 0 -13 -4 -13 -9 0 -5 -9 -11 -20 -14 -37
-10 -49 -97 -16 -119 34 -23 106 4 106 40 0 7 5 12 10 12 6 0 10 6 10 14 0 8
8 24 18 36 25 30 61 21 86 -21 23 -39 81 -99 95 -99 16 0 13 -29 -5 -47 -11
-12 -18 -13 -27 -4 -6 6 -43 11 -85 11 -71 0 -76 -2 -106 -32 -34 -36 -66 -90
-66 -112 0 -8 -5 -16 -11 -18 -6 -2 -13 -25 -16 -51 -5 -38 -2 -48 11 -53 10
-4 22 -2 29 5 6 6 19 11 29 11 10 0 18 7 18 15 0 9 6 18 14 21 8 3 17 16 20
30 11 41 34 61 67 56 30 -4 31 -6 27 -56 -2 -42 0 -51 14 -54 10 -2 25 4 34
12 21 21 41 20 61 -4 10 -11 23 -20 30 -20 7 0 13 -4 13 -10 0 -5 20 -10 45
-10 25 0 45 5 45 10 0 6 5 10 10 10 13 0 50 37 50 49 0 5 9 12 20 16 10 3 31
20 45 37 23 28 26 37 23 102 l-3 71 -35 3 c-26 2 -43 -4 -64 -21 -24 -21 -28
-31 -26 -73 4 -75 2 -84 -19 -84 -31 0 -74 45 -66 69 3 12 10 21 14 21 5 0 19
23 32 50 17 36 31 53 49 57 24 6 35 13 84 62 29 28 41 84 31 141 -6 38 -9 40
-41 40 -51 0 -86 -35 -84 -85 3 -65 4 -64 -42 -57 -31 4 -49 14 -67 36 -15 17
-34 38 -43 48 -10 10 -18 23 -18 28 0 6 -6 10 -14 10 -8 0 -16 7 -20 15 -5 15
-66 19 -108 8z"/>
<path d="M12794 2651 c-32 -16 -66 -73 -58 -95 3 -7 20 -10 46 -8 35 4 40 2
35 -13 -4 -9 -7 -24 -7 -34 0 -13 -8 -16 -40 -13 -25 3 -40 0 -40 -7 0 -6 -8
-11 -19 -11 -13 0 -18 7 -18 26 0 15 -5 29 -10 33 -5 3 -14 26 -19 51 -9 44
-10 45 -44 42 -35 -4 -80 -37 -80 -59 0 -7 -4 -13 -9 -13 -11 0 -16 -16 -25
-72 -5 -24 -13 -39 -26 -43 -23 -7 -56 -68 -40 -73 5 -2 10 -25 10 -52 0 -72
6 -80 54 -80 54 1 75 18 79 66 6 64 22 54 25 -16 3 -83 16 -110 54 -110 15 0
28 5 28 10 0 6 7 10 15 10 8 0 19 9 25 20 9 18 21 20 95 20 50 0 85 4 85 10 0
6 7 10 15 10 8 0 32 16 53 35 41 36 52 36 52 -1 0 -38 48 -54 167 -54 69 0
109 4 118 13 8 6 21 18 30 25 21 17 20 91 -1 99 -8 3 -26 0 -39 -7 -23 -12
-138 -11 -151 3 -3 3 0 20 7 36 13 29 17 31 69 31 46 0 58 4 77 27 27 30 30
65 7 87 -22 23 -194 23 -194 1 0 -8 -7 -15 -16 -15 -8 0 -20 -13 -25 -30 -13
-36 -29 -39 -29 -6 0 14 -4 28 -10 31 -5 3 -10 16 -10 28 0 26 -66 87 -94 87
-12 0 -34 7 -50 15 -34 18 -51 17 -92 -4z"/>
<path d="M7148 8103 c-49 -2 -88 -8 -88 -12 0 -5 -13 -11 -29 -14 -24 -5 -32
-14 -40 -44 -6 -21 -11 -43 -11 -49 0 -17 31 -27 44 -14 5 5 56 10 113 10 91
0 105 2 120 20 10 11 23 20 30 20 8 0 13 14 13 39 0 32 -4 40 -22 45 -13 3
-27 5 -33 4 -5 -1 -49 -4 -97 -5z"/>
<path d="M745 7580 c-3 -5 -17 -10 -30 -10 -13 0 -26 -4 -29 -9 -8 -12 -88
-51 -104 -51 -7 0 -15 -7 -18 -15 -4 -8 -11 -15 -18 -15 -14 0 -59 -34 -93
-69 -15 -16 -23 -34 -21 -50 3 -22 9 -26 41 -29 21 -2 37 1 37 7 0 6 7 11 15
11 8 0 15 7 15 15 0 8 6 15 14 15 9 0 15 -18 19 -51 4 -28 10 -56 15 -63 5 -6
12 -38 15 -70 3 -32 11 -64 16 -69 16 -16 13 -47 -4 -47 -8 0 -15 -4 -15 -9 0
-5 -9 -12 -20 -16 -11 -3 -38 -24 -60 -45 -40 -39 -41 -40 -38 -102 l3 -63 39
-3 c56 -5 86 26 86 88 0 40 3 48 25 58 14 7 34 12 44 12 27 0 81 30 81 45 0
22 65 46 108 39 27 -4 43 -2 53 8 8 8 22 17 32 21 9 3 17 13 17 22 0 22 17 18
23 -5 3 -12 14 -20 25 -20 12 0 24 -4 27 -10 3 -5 21 -10 40 -10 19 0 37 5 40
10 3 6 14 10 24 10 29 0 82 60 79 89 -3 22 -9 26 -41 29 -21 2 -45 -2 -53 -9
-10 -8 -14 -8 -14 0 0 6 -7 11 -15 11 -12 0 -15 13 -15 61 0 97 -2 99 -130 99
-61 0 -110 -4 -110 -8 0 -5 -9 -19 -20 -32 -27 -31 -27 -66 1 -134 2 -5 -4
-10 -15 -12 -10 -1 -23 -7 -29 -13 -6 -6 -19 -11 -29 -11 -19 0 -24 13 -33
104 -3 33 -10 64 -14 70 -5 6 -11 29 -13 51 -3 36 -1 40 21 41 13 1 26 6 30
11 3 5 14 12 24 16 9 3 17 13 17 22 0 8 5 15 10 15 14 0 12 54 -2 68 -15 15
-45 16 -53 2z"/>
<path d="M1355 7277 c-27 -16 -35 -28 -35 -55 0 -12 -4 -30 -9 -40 -6 -9 -13
-34 -16 -54 -3 -21 -10 -38 -15 -38 -14 0 -43 -68 -36 -85 7 -20 65 -20 72 0
4 8 12 15 20 15 21 0 20 -106 -1 -114 -15 -5 -20 -42 -9 -70 9 -23 148 -22
195 1 43 21 49 29 49 76 0 40 -20 58 -43 38 -21 -17 -43 34 -50 113 -4 38 -11
74 -17 80 -5 5 -10 33 -10 62 0 29 -3 59 -6 68 -7 19 -59 21 -89 3z"/>
<path d="M22303 6229 c-5 -5 -36 -13 -67 -16 -31 -3 -56 -9 -56 -13 0 -4 -23
-10 -52 -12 -29 -3 -54 -11 -56 -17 -2 -6 -11 -11 -20 -11 -31 -1 -82 -57 -82
-90 0 -23 4 -30 19 -30 11 0 23 5 26 10 3 6 21 10 38 10 18 0 44 7 60 14 l27
15 -1 -87 c0 -48 -5 -109 -10 -137 -27 -135 -21 -165 34 -165 38 0 69 30 78
75 5 21 7 11 8 -33 0 -35 6 -72 11 -83 15 -28 62 -24 100 8 l32 26 -3 93 c-2
52 0 96 4 100 3 4 14 4 23 0 13 -5 14 -9 4 -21 -8 -9 -13 -44 -12 -86 0 -78
17 -109 58 -109 13 0 26 -4 29 -10 9 -15 77 -11 99 5 26 20 36 10 36 -34 0
-30 -7 -45 -32 -69 -53 -50 -58 -59 -58 -99 1 -58 27 -83 89 -83 28 0 51 5 51
10 0 6 8 10 18 10 9 0 32 14 50 31 30 28 32 35 32 95 0 48 3 64 13 62 13 -3
89 52 119 87 10 11 16 28 14 37 -4 18 17 41 47 51 9 4 17 13 17 22 0 11 7 14
25 11 23 -4 25 -2 25 38 0 42 -1 44 -37 50 -63 10 -89 7 -111 -13 -29 -25 -40
-78 -18 -87 18 -7 22 -24 6 -24 -6 0 -30 -18 -53 -40 -23 -22 -48 -39 -57 -38
-17 4 -28 65 -29 167 -1 46 -6 70 -18 83 -10 11 -18 29 -18 41 0 19 -6 22 -49
25 -27 2 -54 -2 -59 -7 -6 -6 -21 -11 -33 -11 -12 0 -33 -10 -48 -21 -31 -24
-46 -18 -28 11 8 14 8 21 1 26 -16 10 -112 6 -118 -5 -4 -5 -19 -13 -35 -17
-16 -4 -40 -19 -52 -33 l-23 -26 -1 98 c0 105 -3 101 63 112 26 4 37 11 37 23
0 10 5 23 12 30 18 18 -6 62 -35 62 -13 0 -28 -5 -34 -11z"/>
<path d="M10726 5812 c-3 -5 -21 -13 -40 -16 -19 -4 -37 -12 -39 -19 -3 -7 -6
-4 -6 6 -2 37 -111 10 -111 -29 0 -8 -4 -14 -10 -14 -5 0 -10 -6 -10 -14 0
-14 -42 -26 -90 -26 -16 0 -30 -7 -34 -15 -3 -8 -11 -15 -18 -15 -13 0 -38
-44 -38 -66 0 -17 24 -24 90 -24 46 0 61 4 69 18 17 29 13 -71 -4 -104 -9 -17
-15 -56 -15 -91 0 -38 -4 -63 -11 -63 -6 0 -9 -21 -7 -52 3 -47 6 -53 27 -56
13 -2 28 1 34 7 6 6 19 11 28 11 11 0 20 11 24 30 4 17 10 30 14 30 5 0 11 39
14 86 3 47 11 92 18 100 6 7 13 49 16 94 3 44 10 80 14 80 22 0 109 45 109 57
0 7 5 13 11 13 18 0 6 74 -13 78 -9 2 -19 -1 -22 -6z"/>
<path d="M10710 5657 c-19 -12 -30 -27 -30 -42 0 -13 -4 -26 -9 -29 -4 -3 -11
-29 -14 -57 -4 -28 -11 -57 -18 -65 -6 -7 -13 -49 -16 -94 -5 -73 -4 -80 13
-81 30 -2 49 2 52 12 8 20 32 8 32 -15 0 -30 16 -36 91 -36 52 0 63 4 84 26
24 26 25 26 25 5 0 -11 -4 -21 -10 -21 -14 0 -13 -47 1 -56 6 -3 16 -1 22 5
13 13 47 15 47 3 0 -4 -13 -13 -30 -19 -16 -6 -30 -18 -30 -27 0 -9 -5 -16
-11 -16 -6 0 -9 -14 -7 -32 l3 -33 99 -3 c99 -3 134 5 176 40 23 20 43 65 37
82 -8 19 -77 22 -95 4 -9 -9 -12 -6 -12 14 0 15 5 30 10 33 15 10 13 235 -2
236 -49 4 -104 -33 -144 -98 -10 -14 -14 -16 -25 -5 -18 16 -44 15 -59 -3 -20
-24 -25 -9 -22 59 4 72 -9 91 -58 84 -30 -4 -43 13 -20 27 6 3 10 30 10 59 0
52 -1 54 -30 58 -18 3 -41 -3 -60 -15z"/>
<path d="M235 5330 c-3 -5 -13 -10 -22 -10 -15 0 -93 -71 -93 -84 0 -8 -18
-31 -42 -54 -10 -9 -18 -24 -18 -34 0 -9 -4 -19 -9 -22 -20 -13 -22 -76 -4
-109 26 -47 44 -67 60 -67 8 0 21 -7 29 -15 10 -10 35 -15 73 -15 48 0 63 5
90 27 18 15 37 38 42 50 14 37 28 26 31 -24 l3 -48 63 -3 c49 -2 64 0 68 13 3
8 12 15 20 15 8 0 14 6 14 13 0 7 8 20 18 29 44 43 68 83 74 123 2 11 9 20 16
20 10 0 14 -24 16 -95 1 -52 5 -101 9 -107 13 -20 81 -16 100 5 10 10 17 24
17 30 0 7 5 12 10 12 13 0 13 67 1 72 -5 2 -11 35 -12 73 l-3 70 40 3 c21 1
54 10 72 20 29 15 32 21 32 61 l0 44 -72 -7 c-40 -4 -75 -11 -78 -15 -3 -5
-18 -13 -33 -16 -15 -4 -27 -11 -27 -15 0 -4 -19 -10 -42 -14 -23 -4 -45 -11
-49 -17 -3 -6 -28 -12 -55 -15 -27 -3 -53 -12 -57 -20 -5 -9 -25 -14 -52 -14
-25 0 -45 -4 -45 -10 0 -5 -4 -10 -10 -10 -5 0 -10 20 -10 45 0 56 -31 90 -91
100 -21 4 -41 11 -45 16 -7 12 -21 11 -29 -1z"/>
<path d="M22640 5301 c0 -5 -8 -12 -18 -15 -9 -3 -25 -21 -35 -38 -14 -27 -17
-66 -19 -222 l-3 -189 -90 -1 -90 -1 4 55 c2 30 7 57 11 60 4 3 10 15 14 28 4
12 12 22 17 22 5 0 9 9 9 20 0 17 -7 20 -39 20 -22 0 -41 -5 -44 -12 -4 -10
-7 -10 -18 0 -7 6 -25 12 -40 12 -43 0 -59 10 -59 36 0 50 -72 154 -107 154
-28 0 -83 -38 -83 -57 0 -7 -4 -13 -9 -13 -6 0 -13 -21 -17 -47 -4 -27 -10
-50 -15 -53 -9 -6 -28 -145 -36 -262 l-5 -78 32 0 c33 0 90 36 90 57 0 7 4 13
9 13 5 0 11 27 13 60 2 33 7 62 10 66 4 3 15 -3 26 -14 14 -14 21 -42 28 -103
l9 -84 159 0 c117 0 161 4 164 13 2 6 9 12 16 12 7 0 21 9 31 20 10 11 23 16
29 13 18 -12 60 -3 81 18 18 16 31 18 87 12 36 -3 76 -3 89 0 21 6 49 45 49
70 0 17 -45 46 -72 47 -30 0 -35 9 -16 28 15 15 12 83 -4 94 -7 4 -35 8 -61 8
-41 0 -48 3 -43 18 2 9 6 67 8 127 l3 110 -32 3 c-18 2 -33 -1 -33 -7z"/>
<path d="M20270 5148 c-19 -13 -45 -33 -56 -45 -12 -13 -26 -23 -33 -23 -6 0
-11 -7 -11 -15 0 -8 -7 -15 -15 -15 -7 0 -18 -6 -22 -14 -4 -8 -26 -24 -48
-37 -58 -34 -65 -43 -65 -85 0 -43 37 -84 75 -84 31 0 125 -92 125 -122 0 -52
44 -62 97 -22 32 24 33 27 33 100 l0 74 148 0 c97 0 152 -4 159 -11 7 -7 71
-13 170 -16 87 -2 182 -8 212 -13 73 -13 354 -13 367 0 6 6 97 12 215 15 167
3 210 7 239 21 44 22 50 30 50 76 0 56 -20 62 -168 55 -68 -3 -129 -10 -135
-15 -7 -5 -49 -12 -95 -15 -45 -4 -91 -11 -103 -17 -24 -13 -132 -9 -364 15
-88 9 -196 19 -240 24 -44 4 -159 9 -255 10 -96 1 -176 4 -179 6 -2 3 3 13 12
23 20 22 22 63 5 95 -6 12 -14 29 -18 37 -11 24 -61 23 -100 -2z"/>
<path d="M946 5095 c-8 -8 -18 -15 -23 -15 -8 0 -14 -9 -43 -66 -8 -16 -27
-42 -42 -59 -16 -16 -28 -35 -28 -41 0 -7 -7 -14 -15 -18 -10 -3 -15 -19 -15
-45 0 -31 4 -41 20 -46 30 -10 98 4 104 21 10 27 24 14 28 -28 4 -34 1 -46
-14 -58 -19 -16 -28 -76 -14 -98 9 -14 46 -16 46 -2 0 5 11 12 25 16 14 3 25
10 25 14 0 4 19 10 43 13 83 12 160 70 155 116 -2 20 -9 27 -30 29 -16 2 -28
-1 -28 -7 0 -6 -18 -11 -40 -11 l-40 0 0 44 c0 25 -6 51 -14 59 -9 8 -17 47
-22 98 -4 46 -12 87 -18 91 -18 12 -43 9 -60 -7z"/>
<path d="M22375 4460 c-3 -5 -15 -10 -25 -10 -10 0 -23 -7 -28 -16 -6 -11 -27
-18 -61 -22 -28 -2 -51 -8 -51 -12 0 -5 -13 -11 -30 -15 -16 -4 -30 -11 -30
-16 0 -5 -9 -9 -20 -9 -11 0 -20 -7 -20 -15 0 -8 -7 -15 -15 -15 -8 0 -15 -7
-15 -15 0 -8 -4 -15 -10 -15 -5 0 -10 -21 -10 -46 0 -47 25 -84 56 -84 7 0 17
-6 21 -13 4 -8 17 -18 28 -22 16 -8 11 -10 -25 -13 -60 -4 -90 -33 -90 -84 l0
-38 59 0 c68 0 96 12 140 60 30 32 33 34 45 18 14 -19 86 -26 86 -9 0 5 9 11
20 14 12 3 20 14 20 26 0 12 5 21 11 21 5 0 9 8 8 18 -3 24 11 52 26 52 8 0
30 16 51 35 26 25 46 35 68 35 23 0 38 8 56 30 14 17 33 30 43 30 22 0 67 47
67 71 0 34 -28 49 -93 49 -49 0 -65 -4 -84 -22 l-23 -22 -20 22 c-12 12 -29
22 -40 22 -10 0 -22 5 -25 10 -3 6 -24 10 -45 10 -21 0 -42 -4 -45 -10z"/>
<path d="M21638 4424 c-31 -17 -61 -72 -56 -102 2 -11 -5 -28 -14 -38 -9 -11
-18 -34 -20 -53 -2 -26 -8 -35 -23 -37 -11 -2 -42 -8 -70 -14 -64 -14 -682 -5
-701 11 -18 15 -291 24 -336 11 -38 -10 -38 -10 -38 18 0 16 5 32 10 35 16 10
12 62 -6 69 -26 10 -99 7 -111 -5 -13 -13 -46 -33 -83 -50 -14 -6 -33 -15 -42
-20 -10 -5 -31 -9 -46 -9 -16 0 -41 -10 -55 -23 -21 -18 -27 -32 -27 -65 0
-40 2 -42 29 -42 17 0 32 -4 35 -9 3 -4 18 -11 33 -14 16 -4 42 -19 60 -34 18
-15 44 -36 58 -46 14 -10 25 -23 25 -30 0 -18 52 -39 64 -27 5 5 19 10 29 10
10 0 21 9 24 20 3 11 10 20 15 20 6 0 8 18 6 40 -2 23 1 40 7 41 64 4 302 -5
310 -12 12 -12 732 -12 737 0 2 5 30 11 63 13 l60 3 0 -60 0 -60 38 -3 c26 -2
39 1 43 12 3 9 13 16 20 16 8 0 17 6 20 14 3 8 17 17 32 21 15 4 29 10 32 13
10 13 69 52 80 52 5 0 10 5 10 10 0 6 6 10 13 10 18 0 47 32 47 52 0 9 7 19
16 22 11 4 14 18 12 53 -3 46 -4 47 -43 55 -22 5 -43 15 -48 23 -4 8 -15 15
-23 15 -8 0 -25 7 -39 16 -13 8 -31 14 -41 12 -14 -2 -19 4 -21 26 -1 16 -4
35 -7 43 -7 17 -43 15 -78 -3z"/>
<path d="M635 4250 c-3 -5 -21 -10 -38 -10 -18 0 -44 -6 -59 -14 -14 -8 -45
-17 -67 -21 -23 -4 -41 -10 -41 -15 0 -4 -13 -10 -29 -13 -28 -6 -50 -20 -87
-55 -8 -7 -14 -24 -14 -38 0 -21 4 -24 39 -24 22 0 43 5 46 10 3 6 19 10 34
10 26 0 29 -4 34 -42 3 -24 11 -44 16 -46 6 -2 11 -13 11 -25 0 -12 7 -35 15
-51 19 -36 19 -50 1 -43 -24 10 -48 -27 -44 -70 3 -35 6 -38 36 -41 18 -2 32
1 32 7 0 6 8 11 18 11 9 0 29 6 44 14 15 8 40 17 57 21 17 4 31 11 31 16 0 5
9 9 20 9 11 0 37 9 57 20 21 11 43 20 49 20 7 0 14 7 18 15 3 8 12 15 21 15 8
0 15 9 15 20 0 11 5 20 10 20 6 0 10 -4 10 -8 0 -4 18 -27 40 -50 34 -35 47
-42 80 -42 22 0 40 5 40 10 0 6 7 10 15 10 8 0 23 9 32 20 10 11 23 20 30 20
7 0 13 7 13 15 0 8 4 15 10 15 5 0 12 11 16 25 6 24 24 36 24 16 0 -5 3 -16 6
-25 4 -10 -6 -27 -30 -48 -20 -17 -36 -40 -36 -49 0 -10 -4 -21 -10 -24 -17
-10 -11 -41 11 -61 30 -27 161 -26 204 1 51 32 65 52 65 91 l0 37 -60 -6 c-33
-3 -60 -4 -60 -3 0 2 9 13 20 26 34 39 25 170 -11 170 -11 0 -19 5 -19 10 0 6
-17 10 -39 10 -63 0 -121 -39 -121 -82 0 -27 -42 -70 -61 -63 -8 3 -25 24 -39
45 -13 22 -29 40 -35 40 -6 0 -18 9 -28 20 -9 11 -24 20 -32 20 -8 0 -15 7
-15 15 0 8 -6 15 -14 15 -8 0 -16 5 -18 11 -2 5 -21 13 -43 15 -35 5 -44 1
-77 -30 -21 -19 -38 -41 -38 -48 0 -8 -5 -19 -11 -25 -6 -6 -12 -33 -14 -60
-1 -34 -6 -48 -16 -48 -8 0 -15 10 -15 23 -1 13 -6 28 -13 35 -6 6 -11 19 -11
29 0 11 -10 32 -21 47 -23 32 -19 51 12 51 10 0 19 5 19 10 0 6 11 10 25 10
40 0 90 70 77 108 -5 14 -78 16 -87 2z"/>
<path d="M22658 4243 c-35 -18 -40 -39 -34 -138 2 -44 5 -88 5 -97 1 -28 64
-24 95 6 25 22 26 29 26 123 0 64 -4 103 -12 111 -15 15 -46 14 -80 -5z"/>
<path d="M22315 2343 c-27 -3 -52 -9 -56 -14 -3 -6 -26 -13 -50 -16 -88 -10
-148 -53 -149 -105 0 -27 1 -27 53 -22 28 3 60 7 70 9 16 3 17 -10 17 -161 0
-149 2 -164 18 -165 29 -2 47 2 54 14 5 8 9 6 14 -6 4 -12 18 -17 47 -17 33 0
46 6 65 27 20 24 23 36 21 110 -2 85 3 105 22 86 7 -7 7 -22 0 -50 -6 -22 -8
-54 -5 -72 6 -30 9 -31 55 -31 27 0 49 4 49 9 0 5 12 12 27 16 15 3 37 17 50
31 12 13 24 24 26 24 3 0 7 -23 11 -51 6 -44 4 -53 -16 -74 -13 -14 -27 -25
-33 -25 -5 0 -25 -13 -42 -28 -31 -26 -33 -32 -33 -94 0 -64 1 -67 41 -107 27
-26 50 -41 66 -41 44 0 142 73 143 107 0 6 5 13 10 15 6 2 14 46 17 98 4 64
10 98 19 103 23 13 16 41 -16 62 -25 17 -30 27 -30 61 0 22 -7 49 -15 60 -8
10 -15 40 -15 66 0 26 -5 50 -12 54 -19 12 -131 9 -136 -4 -2 -8 -38 -12 -111
-12 -93 0 -112 -3 -134 -20 -14 -11 -28 -16 -31 -11 -8 13 33 61 52 61 26 1
60 34 62 61 6 64 11 62 -125 52z"/>
<path d="M168 2224 c-10 -3 -18 -10 -18 -15 0 -5 -4 -9 -10 -9 -13 0 -50 -37
-50 -50 0 -5 -7 -10 -15 -10 -8 0 -15 -6 -15 -14 0 -8 -7 -16 -15 -20 -8 -3
-15 -12 -15 -20 0 -8 -5 -16 -12 -18 -12 -4 -25 -249 -15 -290 10 -37 76 -68
146 -68 59 0 61 1 111 50 27 28 50 59 50 70 0 10 5 20 11 22 7 2 16 48 22 103
13 117 24 100 26 -37 1 -48 6 -90 11 -93 6 -3 10 -17 10 -31 0 -14 6 -24 14
-24 8 0 16 -7 20 -15 4 -11 22 -15 76 -15 54 0 72 4 76 15 4 8 12 15 20 15 8
0 14 6 14 14 0 8 7 16 15 20 8 3 15 16 15 28 0 13 3 34 7 48 6 20 9 12 18 -40
10 -64 11 -65 43 -68 24 -2 40 3 57 20 22 20 25 32 25 93 0 39 4 75 10 81 5 5
10 31 11 57 2 34 6 47 17 47 33 0 80 40 85 73 8 57 4 59 -102 51 -53 -4 -100
-10 -106 -14 -5 -4 -22 -10 -37 -14 -16 -3 -28 -11 -28 -16 0 -6 -9 -10 -20
-10 -11 0 -23 -7 -26 -15 -4 -8 -13 -15 -21 -15 -17 0 -56 -38 -67 -65 -13
-34 -18 -6 -5 29 15 43 6 57 -38 58 -32 1 -65 -23 -77 -57 -6 -16 -9 -17 -16
-5 -6 8 -10 27 -10 41 0 34 -28 89 -45 89 -7 0 -15 4 -17 10 -3 11 -104 21
-130 14z m49 -252 c-4 -69 -9 -127 -12 -130 -12 -12 -63 -4 -83 14 -18 15 -22
29 -22 73 0 54 31 141 51 141 5 0 9 6 9 14 0 16 27 25 49 18 11 -4 13 -28 8
-130z"/>
<path d="M893 1996 c-19 -20 -23 -35 -23 -91 l0 -67 30 4 c32 5 44 -17 15 -28
-8 -4 -15 -12 -15 -19 0 -7 -7 -16 -16 -19 -11 -4 -14 -17 -12 -48 l3 -43 112
-3 c111 -3 112 -2 137 25 17 18 26 39 26 60 l0 33 -60 0 c-61 0 -72 8 -45 30
11 9 15 33 15 86 0 92 -10 104 -88 104 -47 0 -61 -5 -79 -24z"/>
<path d="M849 887 c-49 -22 -64 -47 -65 -104 0 -47 -4 -57 -27 -71 -33 -22
-67 -66 -67 -86 0 -11 -9 -16 -27 -16 -24 1 -26 3 -13 13 8 7 14 19 14 27 -1
8 -2 23 -3 34 -1 16 -8 18 -72 14 -38 -2 -73 -8 -77 -13 -21 -30 -112 -58
-112 -35 0 6 5 10 10 10 6 0 9 5 8 12 -2 7 7 17 20 23 12 5 22 13 22 17 0 5 6
8 13 8 12 0 26 9 74 50 7 5 15 10 17 10 20 0 46 39 46 67 0 32 -2 33 -39 33
-22 0 -44 -6 -51 -15 -7 -8 -18 -15 -25 -15 -6 0 -20 -9 -30 -20 -10 -11 -24
-20 -32 -20 -7 0 -13 -4 -13 -10 0 -5 -6 -10 -14 -10 -8 0 -21 -6 -28 -13 -7
-7 -24 -18 -38 -25 -65 -31 -99 -66 -100 -99 0 -12 7 -26 15 -31 11 -6 17 -30
21 -83 3 -41 9 -78 15 -83 5 -6 9 -25 9 -44 0 -60 13 -72 80 -72 32 0 60 4 62
10 2 5 31 13 65 16 38 4 64 12 67 20 3 8 12 14 20 14 9 0 17 15 21 40 6 38 18
50 29 31 3 -4 -1 -44 -9 -86 -9 -46 -12 -82 -6 -88 16 -16 82 4 93 29 6 13 15
24 19 24 5 0 11 16 15 35 6 35 24 49 24 20 0 -21 73 -20 94 1 10 9 31 15 54
14 108 -5 108 -6 193 80 99 100 106 140 23 140 -15 0 -24 -6 -24 -15 0 -8 -7
-15 -15 -15 -8 0 -15 -6 -15 -12 0 -22 -44 -56 -69 -54 -16 1 -30 12 -42 35
-10 19 -24 38 -31 42 -8 5 2 10 27 14 54 9 83 34 87 76 l3 34 -52 3 c-32 2
-53 -1 -53 -7 0 -6 -8 -11 -19 -11 -22 0 -31 26 -31 96 0 27 -5 55 -12 62 -14
14 -15 14 -49 -1z"/>
<path d="M1167 490 c-21 -23 -28 -38 -25 -63 3 -30 6 -32 43 -34 44 -3 71 14
93 58 24 45 13 64 -38 66 -39 2 -49 -2 -73 -27z"/>
</g>
</svg>
