<?xml version="1.0" standalone="no"?>
<!DOCTYPE svg PUBLIC "-//W3C//DTD SVG 20010904//EN"
 "http://www.w3.org/TR/2001/REC-SVG-20010904/DTD/svg10.dtd">
<svg version="1.0" xmlns="http://www.w3.org/2000/svg"
 width="2175.000000pt" height="264.000000pt" viewBox="0 0 2175.000000 264.000000"
 preserveAspectRatio="xMidYMid meet">
<metadata>
Created by potrace 1.16, written by Peter Selinger 2001-2019
</metadata>
<g transform="translate(0.000000,264.000000) scale(0.100000,-0.100000)"
fill="current" stroke="none">
<path d="M14407 2626 c-3 -8 2 -18 11 -22 12 -5 4 -9 -28 -15 -25 -5 -46 -13
-48 -19 -2 -5 -8 -10 -12 -10 -15 0 -100 -83 -122 -119 -12 -20 -29 -41 -38
-48 -13 -10 -15 -52 -15 -305 0 -311 8 -466 25 -497 14 -27 13 -84 -2 -99 -7
-7 -19 -12 -28 -12 -8 0 -23 -8 -32 -17 -34 -35 -55 -53 -62 -53 -11 0 -45
-43 -46 -57 0 -6 -5 -13 -12 -15 -6 -2 -9 -12 -5 -21 5 -14 21 -17 91 -17 56
0 86 4 88 12 2 6 10 8 16 4 8 -4 11 -31 10 -72 l-2 -64 -278 0 c-238 0 -279
-2 -284 -15 -4 -8 -11 -15 -16 -15 -6 0 -27 -13 -48 -30 -37 -29 -66 -42 -42
-18 9 9 12 118 12 428 1 349 3 418 15 434 8 11 15 30 15 42 0 12 7 25 16 28 8
3 12 11 9 17 -4 5 8 25 27 44 53 54 58 62 58 95 0 27 -3 30 -30 30 -16 0 -30
-4 -30 -10 0 -5 -11 -12 -25 -16 -14 -3 -25 -10 -25 -15 0 -4 -13 -16 -30 -26
-16 -9 -30 -21 -30 -26 0 -5 -22 -31 -50 -58 -27 -27 -50 -55 -50 -63 0 -7 -7
-16 -15 -20 -8 -3 -15 -12 -15 -20 0 -7 -7 -16 -15 -20 -8 -3 -15 -16 -15 -29
0 -13 -6 -29 -12 -35 -10 -10 -14 -94 -18 -322 -3 -169 -8 -311 -12 -315 -4
-4 -49 -7 -100 -8 l-93 0 3 99 c1 54 5 115 8 135 3 21 2 39 -3 42 -13 8 -97
-10 -101 -22 -2 -6 -10 -11 -18 -11 -8 0 -14 -7 -14 -15 0 -8 -6 -15 -14 -15
-8 0 -28 -18 -45 -39 -29 -36 -31 -44 -31 -121 0 -80 -1 -83 -32 -111 -18 -16
-36 -29 -40 -29 -5 0 -8 -7 -8 -15 0 -8 -9 -19 -20 -25 -11 -6 -20 -19 -20
-30 0 -10 -6 -20 -12 -23 -10 -3 -10 -7 1 -20 10 -12 30 -17 72 -17 l59 0 0
-59 c0 -33 -4 -63 -10 -66 -17 -10 -11 -41 11 -61 16 -15 24 -16 39 -6 11 7
27 12 35 12 8 0 15 7 15 15 0 8 6 15 13 15 7 0 24 13 37 30 14 16 31 29 38 30
6 0 12 9 12 20 0 11 4 20 9 20 5 0 11 12 13 27 2 18 9 28 20 28 10 0 23 6 30
13 6 6 17 12 23 12 5 0 21 12 34 25 13 14 36 33 52 42 15 9 30 24 33 32 2 9 5
-135 6 -319 2 -393 10 -574 28 -592 6 -6 12 -22 12 -34 0 -12 7 -27 15 -34 8
-7 15 -20 15 -30 0 -10 7 -20 15 -24 8 -3 15 -17 15 -31 0 -14 3 -25 8 -25 4
0 15 -14 24 -30 16 -28 21 -30 80 -30 57 0 66 3 98 33 86 79 113 141 66 153
-15 3 -27 15 -30 30 -4 13 -11 24 -16 24 -6 0 -10 9 -10 19 0 10 -7 21 -15 25
-8 3 -15 16 -15 28 0 21 1 21 28 -8 15 -16 38 -37 52 -47 30 -21 93 -22 114
-2 8 8 21 15 29 15 8 0 22 9 32 20 10 11 24 20 32 20 7 0 13 5 13 10 0 6 7 10
15 10 8 0 15 5 15 11 0 6 6 17 13 24 29 33 38 46 58 84 12 23 25 41 29 41 14
0 50 79 50 110 0 17 2 30 5 30 9 0 45 -40 45 -50 0 -5 4 -10 9 -10 5 0 32 -21
60 -47 43 -40 51 -52 51 -82 0 -20 -7 -45 -15 -55 -8 -11 -15 -30 -15 -43 0
-13 -4 -23 -9 -23 -5 0 -11 -19 -15 -42 -4 -23 -12 -48 -18 -55 -18 -22 6 -39
34 -25 13 6 33 14 46 17 12 4 22 11 22 16 0 5 7 9 15 9 8 0 15 7 15 15 0 9 7
18 16 22 30 11 74 62 80 93 4 16 13 35 20 41 8 6 14 24 14 40 0 16 4 29 10 29
5 0 13 18 16 40 4 22 10 40 15 40 4 0 11 17 14 37 4 21 13 52 21 70 8 17 14
40 14 51 0 11 7 22 15 26 8 3 15 14 15 24 0 11 7 25 15 32 8 7 15 21 15 30 0
10 5 20 10 22 6 2 11 20 12 41 1 40 18 48 44 22 9 -8 25 -15 37 -15 12 0 31
-7 41 -15 29 -22 157 -20 200 3 18 10 40 25 48 33 8 8 31 27 51 43 20 16 37
36 37 43 0 7 7 13 15 13 20 0 19 -19 -5 -55 -11 -16 -20 -37 -20 -46 0 -9 -7
-20 -16 -23 -11 -4 -14 -17 -12 -43 3 -34 6 -38 34 -41 19 -2 38 3 47 12 9 9
19 16 23 16 13 0 114 112 114 126 0 6 7 17 15 24 8 7 15 24 15 39 0 14 7 35
15 45 8 11 15 28 15 38 0 10 7 21 15 24 9 4 15 19 15 39 0 18 7 38 15 45 9 8
15 30 15 56 0 24 4 44 9 44 5 0 12 12 15 26 4 15 14 33 21 41 22 21 20 81 -2
85 -37 8 -128 -61 -189 -143 l-22 -30 -10 31 c-6 16 -16 30 -21 30 -6 0 -11 5
-11 10 0 6 -10 20 -21 31 -17 17 -29 20 -58 15 -20 -3 -37 -10 -39 -16 -2 -5
-8 -10 -13 -10 -10 0 -49 -37 -49 -46 0 -7 -48 -54 -56 -54 -2 0 -4 9 -4 19 0
31 -47 116 -96 173 -25 29 -51 65 -56 81 -15 40 -60 36 -122 -13 -18 -14 -19
-13 -13 2 7 19 -18 45 -28 28 -3 -5 -24 -10 -45 -10 -21 0 -45 -7 -54 -15 -8
-8 -32 -15 -54 -15 l-39 0 -11 158 c-5 86 -13 170 -17 185 -6 23 -3 32 24 56
17 15 31 33 31 39 0 7 4 12 10 12 12 0 50 82 50 108 0 11 7 22 15 26 8 3 15
16 15 29 0 14 7 30 15 37 8 7 15 27 15 44 0 17 7 40 15 50 21 28 22 291 1 299
-9 3 -12 15 -9 31 l5 26 -80 0 c-60 0 -81 -4 -85 -14z m140 -1250 c2 -23 -2
-36 -12 -40 -8 -3 -15 -14 -15 -24 0 -10 -4 -22 -9 -27 -5 -6 -13 -30 -18 -55
-8 -42 -11 -45 -44 -48 l-36 -3 1 85 c1 62 5 86 14 86 6 0 12 7 12 15 0 9 9
15 23 15 13 0 32 7 43 15 29 22 39 18 41 -19z m-132 -407 c0 -22 5 -24 57 -29
66 -6 81 -16 44 -29 -14 -6 -26 -15 -26 -21 0 -5 -7 -10 -15 -10 -8 0 -15 -3
-15 -8 0 -4 -11 -19 -25 -34 -13 -14 -27 -38 -31 -52 -3 -14 -12 -26 -20 -26
-8 0 -14 -4 -14 -10 0 -9 -44 33 -99 94 -23 26 -51 35 -51 16 0 -5 -11 -10
-25 -10 -16 0 -25 -6 -25 -15 0 -8 -7 -15 -15 -15 -9 0 -18 -7 -21 -15 -4 -8
-11 -15 -16 -15 -6 0 -17 -8 -24 -17 -12 -16 -13 -15 -14 12 0 17 -7 43 -15
59 -8 15 -15 35 -15 42 0 8 -7 17 -15 20 -8 4 -15 12 -15 19 0 7 -8 15 -18 17
-10 3 -19 13 -19 22 0 14 21 16 181 17 100 1 192 5 206 9 35 11 45 7 45 -21z
m-700 11 c3 -5 2 -10 -4 -10 -5 0 -43 -33 -85 -74 -56 -54 -76 -81 -76 -99 0
-14 4 -28 10 -32 9 -6 14 -4 78 28 59 30 97 23 147 -27 25 -24 45 -49 45 -54
0 -6 -16 -14 -35 -18 -19 -3 -35 -10 -35 -15 0 -5 -6 -9 -13 -9 -6 0 -25 -16
-41 -35 -16 -19 -34 -35 -38 -35 -14 0 -40 -29 -60 -66 -13 -24 -18 -56 -18
-110 0 -47 -4 -73 -10 -69 -5 3 -10 21 -10 40 0 18 -6 35 -12 37 -10 4 -14 69
-18 264 -3 142 -4 264 -2 270 2 7 30 12 73 12 39 0 73 3 76 6 9 9 21 7 28 -4z"/>
<path d="M19142 2540 c-19 -10 -41 -25 -51 -34 -10 -9 -23 -16 -29 -16 -7 0
-12 -4 -12 -10 0 -5 -7 -10 -15 -10 -8 0 -15 -5 -15 -11 0 -6 -6 -16 -12 -23
-7 -8 -20 -24 -28 -36 -8 -13 -23 -30 -32 -39 -10 -8 -18 -22 -18 -29 0 -7 -7
-20 -15 -28 -12 -13 -15 -52 -15 -227 0 -141 -4 -207 -10 -197 -5 8 -10 28
-10 43 0 16 -6 41 -14 55 -8 15 -17 34 -20 42 -4 8 -14 29 -24 45 -17 27 -24
30 -77 33 -38 2 -69 -2 -92 -13 -19 -9 -37 -14 -41 -11 -10 11 -1 116 14 151
18 45 20 244 2 268 -11 14 -26 15 -105 9 -81 -6 -95 -10 -129 -37 -57 -46
-154 -147 -154 -161 0 -6 -7 -14 -15 -18 -8 -3 -15 -16 -15 -29 0 -13 -6 -29
-12 -35 -9 -9 -15 -82 -20 -255 -3 -133 -11 -269 -17 -301 -5 -33 -8 -74 -5
-93 3 -27 1 -33 -16 -33 -10 0 -23 -6 -27 -13 -4 -7 -25 -23 -45 -36 -21 -12
-38 -27 -38 -32 0 -5 -6 -9 -12 -9 -15 -1 -48 -62 -48 -90 0 -11 9 -24 21 -31
22 -11 127 -10 144 3 6 4 16 -2 23 -13 7 -11 8 -19 2 -19 -5 0 -10 -6 -10 -13
0 -11 -28 -14 -122 -16 -87 -2 -130 -6 -145 -17 -13 -8 -46 -14 -78 -14 -40 0
-57 -4 -61 -15 -4 -8 -11 -15 -18 -15 -15 0 -47 -24 -90 -67 -18 -18 -38 -33
-45 -33 -6 0 -11 -4 -11 -10 0 -5 -6 -10 -14 -10 -8 0 -28 -13 -44 -30 -33
-33 -52 -38 -52 -15 0 8 -4 15 -9 15 -6 0 -22 11 -37 25 -27 25 -74 34 -74 15
0 -5 -9 -10 -20 -10 -10 0 -34 -16 -53 -35 -19 -19 -39 -35 -46 -35 -6 0 -11
-4 -11 -10 0 -5 -4 -10 -10 -10 -16 0 -12 47 5 54 8 3 15 15 15 26 0 11 4 20
9 20 10 0 19 40 13 58 -2 7 -11 12 -19 12 -22 0 -93 -32 -93 -42 0 -4 -7 -8
-15 -8 -8 0 -15 6 -15 13 0 7 -9 18 -19 24 -16 10 -27 10 -54 -2 -18 -7 -39
-21 -47 -29 -7 -9 -19 -16 -26 -16 -8 0 -14 -4 -14 -10 0 -5 -7 -10 -15 -10
-8 0 -15 -5 -15 -11 0 -7 -7 -17 -15 -23 -24 -17 -24 -105 -1 -122 21 -15 27
-71 8 -82 -6 -4 -14 -20 -17 -35 -4 -15 -11 -27 -16 -27 -5 0 -14 -10 -19 -22
l-9 -23 -7 24 c-4 14 -22 30 -46 41 -69 31 -104 144 -58 190 11 11 24 20 28
20 4 0 36 27 70 60 41 41 62 69 62 84 0 13 7 26 15 30 21 8 21 172 1 221 l-15
35 -90 0 c-73 0 -95 -3 -109 -17 -10 -10 -29 -25 -41 -33 -40 -27 -58 -45 -65
-65 -3 -11 -19 -35 -36 -53 -16 -18 -30 -40 -30 -48 0 -8 -4 -14 -10 -14 -5 0
-12 -16 -16 -35 -5 -30 -9 -33 -21 -24 -8 7 -39 13 -70 14 l-56 2 -1 49 c-1
27 -7 63 -13 79 -6 17 -14 52 -18 78 -7 49 -26 70 -48 48 -6 -6 -18 -11 -26
-11 -9 0 -33 -16 -55 -35 -21 -19 -42 -35 -47 -35 -5 0 -9 -7 -9 -15 0 -8 -7
-15 -15 -15 -9 0 -15 -9 -15 -24 0 -14 -4 -28 -10 -31 -5 -3 -10 -19 -10 -35
0 -16 5 -32 10 -35 16 -10 12 -40 -10 -61 -29 -29 -48 -44 -57 -44 -16 -1 -41
-47 -45 -81 l-3 -34 62 2 c65 3 76 -5 68 -48 -7 -36 12 -59 48 -59 33 0 55 13
108 62 18 17 41 28 57 28 15 0 35 9 45 20 9 11 24 20 32 20 8 0 15 3 15 8 0 4
10 12 22 17 13 6 30 24 38 40 14 28 15 17 20 -168 3 -129 9 -200 16 -205 6 -4
14 -16 18 -27 8 -28 116 -79 147 -71 39 11 99 40 99 48 0 4 15 23 34 43 27 27
35 31 40 19 4 -11 13 -13 28 -9 50 14 85 35 97 58 19 36 47 50 71 35 11 -7 20
-18 20 -25 0 -30 90 -4 130 37 3 3 17 11 33 17 15 7 27 17 27 21 0 5 11 7 25
4 14 -2 25 -8 25 -12 0 -4 11 -11 25 -14 24 -6 36 -26 15 -26 -5 0 -10 -11
-10 -24 0 -13 -7 -26 -15 -30 -8 -3 -15 -16 -15 -28 0 -14 -22 -46 -56 -82
-46 -49 -55 -65 -52 -90 3 -29 5 -31 37 -28 32 4 92 37 100 56 2 5 39 43 82
86 44 43 79 83 79 89 0 7 7 19 15 27 8 9 15 24 15 33 0 10 7 24 15 31 8 7 15
25 15 41 0 16 4 29 9 29 5 0 11 17 15 37 9 55 37 83 88 89 23 3 47 9 53 14 6
5 44 10 85 11 41 1 89 7 105 14 17 7 79 16 139 19 60 4 117 11 127 16 10 6 35
10 56 10 21 0 51 7 67 15 15 8 41 15 57 15 16 0 46 6 66 14 21 8 71 17 112 20
41 4 80 11 86 16 6 5 71 10 145 11 129 1 135 0 136 -19 3 -46 11 -53 56 -46
29 4 52 16 70 35 l27 29 155 0 c124 0 158 3 170 15 8 8 17 15 20 15 9 0 46 39
46 48 0 4 13 15 28 26 26 17 56 81 46 98 -3 4 -62 7 -132 7 -146 -1 -274 10
-266 22 3 5 25 9 49 9 25 0 50 6 59 15 8 8 19 15 24 15 6 0 35 24 64 53 51 49
85 108 72 128 -8 14 -71 11 -86 -4 -7 -8 -33 -16 -58 -20 -24 -3 -46 -11 -48
-16 -2 -6 -20 -11 -40 -11 l-37 0 2 145 c1 114 5 148 17 160 8 8 19 15 24 15
5 0 32 21 59 48 28 26 60 54 72 62 11 8 21 19 21 24 0 5 16 24 35 43 19 19 35
40 35 48 0 8 7 15 15 15 8 0 15 9 15 19 0 10 7 21 15 25 12 4 15 29 15 138 0
149 -7 171 -59 199 -48 25 -202 25 -249 -1z m78 -212 c5 -160 2 -190 -20 -233
-21 -42 -66 -93 -73 -84 -6 8 10 285 17 297 4 7 2 12 -3 12 -6 0 -11 5 -11 10
0 15 90 13 90 -2z m-613 -448 c3 -11 9 -20 14 -20 5 0 9 -5 9 -12 0 -6 6 -19
14 -27 7 -9 16 -28 20 -43 5 -23 3 -28 -13 -28 -11 0 -26 -6 -33 -12 -7 -7
-29 -21 -49 -31 -41 -21 -82 -57 -105 -92 -9 -14 -25 -25 -35 -25 -10 0 -21
-4 -24 -10 -3 -5 -12 -10 -18 -10 -8 0 -12 26 -12 85 0 47 3 85 8 85 4 0 7 7
7 16 0 9 9 18 20 21 11 3 20 9 20 14 0 5 5 9 10 9 13 0 50 37 50 50 0 6 7 10
15 10 8 0 15 6 15 14 0 15 18 23 58 25 16 1 26 -6 29 -19z"/>
<path d="M15785 2480 c-3 -5 -15 -10 -26 -10 -11 0 -33 -13 -49 -30 -16 -16
-32 -30 -35 -30 -15 0 -75 -65 -75 -81 0 -10 -4 -21 -10 -24 -17 -10 -12 -95
5 -101 20 -8 82 22 110 52 30 32 45 30 45 -5 0 -16 7 -34 15 -41 11 -9 15 -33
15 -89 l0 -76 -86 -83 c-70 -69 -88 -81 -100 -72 -7 7 -14 18 -14 25 0 20 -40
105 -49 105 -5 0 -12 11 -15 25 -12 48 -74 40 -140 -18 -56 -49 -74 -73 -78
-102 -4 -39 9 -95 22 -95 6 0 10 -5 10 -11 0 -19 40 -99 50 -99 6 0 10 -5 10
-11 0 -6 6 -25 14 -42 22 -53 39 -128 45 -203 3 -39 11 -77 17 -85 6 -8 14
-45 18 -84 3 -38 10 -102 16 -142 5 -40 10 -100 11 -133 1 -33 8 -73 16 -88
12 -21 14 -81 14 -291 0 -146 -5 -267 -9 -270 -5 -3 -13 -17 -17 -31 -8 -27
-38 -60 -55 -60 -5 0 -10 -7 -10 -15 0 -8 -7 -15 -15 -15 -8 0 -15 -6 -15 -12
-1 -7 -14 -24 -30 -38 -20 -16 -30 -33 -30 -52 0 -25 3 -28 34 -28 19 0 41 7
50 15 8 8 18 15 23 15 5 0 20 13 33 30 14 16 30 29 36 30 6 0 32 21 58 48 25
26 60 60 76 75 17 15 30 37 30 47 0 11 4 20 9 20 5 0 13 10 17 22 3 12 13 28
20 36 8 7 14 24 14 37 0 13 5 27 10 30 13 8 13 430 1 454 -6 10 -11 51 -12 92
-1 41 -8 86 -15 101 -9 17 -14 61 -14 121 0 70 -3 96 -13 100 -10 4 -16 38
-21 118 -3 62 -11 119 -18 126 -12 15 -7 16 98 13 51 -1 75 2 86 13 8 8 29 18
46 22 18 3 32 11 32 16 0 5 7 9 15 9 8 0 15 6 15 14 0 8 7 16 15 20 8 3 15 12
15 21 0 8 7 15 15 15 8 0 15 6 15 14 0 7 6 19 14 25 8 7 12 21 9 31 -5 19 -15
20 -134 20 -82 0 -129 4 -129 10 0 19 34 64 92 122 32 31 58 62 58 67 0 6 6
11 13 11 26 0 42 63 42 165 0 125 -22 203 -64 228 -32 19 -136 24 -146 7z"/>
<path d="M10929 2291 c-71 -6 -82 -13 -144 -79 -64 -68 -66 -71 -72 -110 -3
-20 -12 -41 -20 -45 -9 -6 -13 -33 -14 -95 0 -48 -4 -96 -9 -107 l-9 -20 -1
20 c-2 17 -3 16 -10 -5 -7 -22 -8 -22 -11 -5 -3 28 -6 55 -8 88 0 16 -7 27
-15 27 -8 0 -17 13 -21 30 -4 16 -16 37 -28 45 -29 20 -120 20 -137 0 -7 -8
-19 -15 -27 -15 -7 0 -16 -7 -19 -15 -4 -8 -11 -15 -16 -15 -5 0 -30 -21 -54
-46 -37 -38 -45 -52 -42 -77 3 -31 5 -32 53 -35 56 -4 83 -19 47 -28 -12 -4
-22 -10 -22 -15 0 -5 -11 -9 -25 -9 -16 0 -42 -17 -75 -50 -28 -27 -57 -50
-65 -50 -8 0 -15 -7 -15 -15 0 -8 -4 -15 -10 -15 -5 0 -12 -11 -16 -25 -3 -14
-11 -25 -16 -25 -6 0 -7 9 -3 23 3 12 11 44 17 71 5 28 16 59 24 70 8 11 14
35 14 52 0 18 8 47 17 66 31 62 33 68 33 93 0 14 -7 28 -15 31 -15 6 -79 -20
-101 -40 -6 -6 -21 -18 -33 -26 -11 -8 -21 -19 -21 -25 0 -6 -8 -18 -17 -27
-38 -37 -53 -55 -53 -65 0 -6 -7 -24 -15 -39 -8 -16 -15 -43 -15 -61 0 -17 -4
-34 -9 -37 -5 -3 -12 -31 -16 -62 -3 -30 -13 -71 -21 -89 -8 -19 -14 -65 -14
-103 0 -41 -5 -73 -12 -80 -10 -10 -14 -88 -16 -306 -3 -256 -1 -294 12 -305
9 -8 16 -21 16 -31 0 -10 6 -20 14 -23 7 -3 16 -24 20 -46 3 -23 11 -41 16
-41 6 0 10 -13 10 -29 0 -16 7 -34 15 -41 8 -7 15 -20 15 -30 0 -10 7 -23 15
-30 8 -7 15 -19 15 -27 0 -8 13 -44 30 -79 28 -61 31 -64 66 -64 49 0 100 26
123 64 22 34 56 59 85 61 11 1 22 7 24 13 2 7 10 12 17 12 8 0 31 16 52 35 21
19 44 35 51 35 6 0 12 5 12 10 0 6 7 10 15 10 8 0 15 7 15 15 0 8 5 15 10 15
6 0 10 7 10 15 0 8 9 23 20 32 11 10 20 24 20 33 1 11 4 9 12 -5 6 -11 18 -28
27 -37 45 -48 45 -48 26 -84 -10 -19 -24 -34 -31 -34 -14 0 -90 -84 -117 -129
-15 -25 -15 -31 -3 -43 15 -15 86 -13 86 3 0 5 5 9 10 9 6 0 18 8 29 17 111
105 113 107 128 88 7 -11 13 -23 13 -28 0 -13 23 -34 47 -41 12 -4 28 -18 37
-31 43 -65 163 -5 224 114 19 36 20 42 6 53 -8 7 -29 28 -46 46 -17 17 -37 32
-45 32 -7 0 -13 7 -13 15 0 8 -7 15 -15 15 -8 0 -15 5 -15 11 0 7 -7 17 -16
23 -14 11 -14 15 3 46 10 19 24 39 31 43 6 4 12 14 12 21 0 8 7 16 15 20 8 3
15 17 15 31 0 14 5 25 11 25 6 0 9 14 7 33 -2 25 -8 33 -27 35 -13 2 -28 -1
-34 -7 -6 -6 -19 -11 -29 -11 -10 0 -18 -7 -18 -15 0 -8 -7 -15 -15 -15 -8 0
-15 -3 -15 -7 -1 -5 -11 -21 -24 -36 l-23 -28 -24 35 c-19 28 -31 36 -56 36
-17 0 -38 -7 -47 -15 -8 -8 -20 -15 -26 -15 -6 0 -13 -7 -16 -15 -4 -8 -10
-15 -15 -15 -5 0 -18 -9 -29 -20 -25 -25 -40 -26 -38 -2 1 9 0 65 0 125 -2 88
-5 107 -17 107 -10 0 -15 10 -15 33 0 32 -20 71 -50 94 -12 10 -7 12 30 13 25
1 63 7 85 15 25 9 43 11 49 5 6 -6 7 -10 3 -10 -4 0 -3 -9 3 -20 14 -25 97
-29 106 -5 4 8 15 15 25 15 10 0 19 7 19 15 0 13 19 20 43 16 4 -1 37 6 73 14
36 8 75 15 88 15 24 0 50 17 100 65 17 17 43 36 58 44 14 7 30 23 34 35 6 19
7 18 11 -9 3 -16 0 -31 -6 -33 -6 -2 -11 -9 -11 -15 0 -7 -16 -43 -35 -80 -19
-38 -35 -77 -35 -87 0 -11 -6 -23 -12 -27 -17 -11 -48 -67 -48 -88 0 -9 -7
-23 -15 -31 -9 -10 -15 -34 -15 -63 l0 -48 80 4 c44 1 115 4 158 6 43 2 85 8
93 13 21 13 159 12 159 -2 0 -19 31 -25 67 -13 18 6 33 14 33 18 0 3 16 15 35
25 19 11 35 24 35 30 0 14 70 76 87 76 7 0 13 5 13 10 0 13 32 45 54 53 12 5
19 0 25 -16 5 -12 23 -35 40 -52 17 -16 31 -36 31 -42 0 -8 14 -13 35 -13 36
0 72 20 130 72 16 16 33 28 38 28 4 0 7 5 7 11 0 6 7 17 15 25 25 25 19 63
-12 77 -35 15 -55 35 -70 70 -8 16 -20 27 -33 27 -30 0 -25 17 25 73 25 29 45
55 45 59 0 5 7 8 15 8 8 0 15 8 15 18 0 10 5 23 11 29 19 19 2 43 -31 43 -16
0 -30 -4 -30 -10 0 -5 -9 -10 -20 -10 -11 0 -23 -7 -26 -15 -4 -8 -12 -15 -20
-15 -8 0 -14 -4 -14 -10 0 -13 -37 -50 -50 -50 -5 0 -10 -4 -10 -9 0 -17 -34
-22 -42 -6 -12 21 -96 21 -104 0 -4 -8 -12 -15 -19 -15 -7 0 -33 -23 -59 -51
-36 -40 -46 -58 -46 -86 0 -31 4 -36 39 -50 l39 -15 -25 -24 c-31 -28 -43 -30
-43 -6 -1 9 -14 28 -30 42 -17 13 -30 32 -30 42 0 19 -33 58 -50 58 -5 0 -10
7 -10 15 0 22 -39 93 -56 99 -8 3 -14 12 -14 21 0 8 -4 15 -10 15 -5 0 -10 6
-10 14 0 7 -6 19 -14 25 -8 7 -17 24 -21 39 -11 47 -43 72 -92 72 -30 0 -45
-5 -49 -15 -4 -8 -15 -15 -25 -15 -10 0 -19 -7 -19 -15 0 -8 -5 -15 -11 -15
-13 0 -48 -40 -49 -56 0 -19 -36 -44 -62 -44 -15 0 -28 -4 -30 -9 -1 -5 -52
-11 -113 -12 -142 -2 -140 -2 -126 15 9 10 9 16 1 21 -12 7 66 84 85 85 17 1
42 43 49 84 l7 39 -52 -5 c-29 -3 -55 -11 -57 -17 -2 -6 -16 -11 -30 -11 -23
1 -25 2 -11 13 11 9 15 28 14 67 -2 76 1 84 46 111 21 13 41 31 44 41 3 9 12
19 20 22 8 3 15 15 15 26 0 26 34 82 73 118 9 9 17 22 17 29 0 7 4 13 9 13 8
0 22 54 37 145 6 35 -24 75 -58 75 -11 0 -26 7 -32 15 -14 19 -55 24 -137 16z
m-277 -787 c-1 -6 -20 -24 -42 -40 -44 -33 -75 -85 -66 -110 5 -14 15 -15 59
-10 36 5 47 3 37 -4 -8 -5 -32 -10 -52 -10 -20 0 -43 -6 -51 -14 -10 -10 -51
-15 -152 -17 -99 -3 -140 -8 -143 -16 -2 -7 -12 -13 -23 -13 -10 0 -19 -7 -19
-15 0 -8 -5 -15 -11 -15 -13 0 -48 -41 -49 -56 0 -6 -7 -17 -15 -24 -14 -12
-14 -15 1 -31 14 -15 35 -19 123 -21 l106 -3 -47 -28 c-27 -15 -48 -34 -48
-42 0 -8 -5 -15 -11 -15 -6 0 -9 -17 -7 -42 3 -40 5 -43 35 -46 29 -3 34 -8
44 -45 6 -23 16 -45 21 -48 17 -11 -2 -49 -28 -55 -13 -3 -24 -10 -24 -15 0
-5 -7 -9 -15 -9 -8 0 -15 -4 -15 -10 0 -17 -39 -50 -58 -50 -14 0 -19 8 -20
31 0 17 -6 37 -14 46 -13 16 -36 71 -45 110 -3 12 -11 28 -19 34 -21 17 -20
428 1 469 8 16 15 33 14 37 -1 4 0 42 1 83 3 94 17 52 19 -57 1 -91 12 -103
92 -103 46 0 63 4 79 20 11 11 27 20 35 20 8 0 15 5 15 10 0 6 6 10 13 10 7 0
28 16 47 35 19 19 41 35 48 35 6 0 12 5 12 10 0 6 7 10 15 10 8 0 15 7 15 15
0 8 5 15 10 15 6 0 10 5 10 11 0 15 42 59 58 59 6 0 12 7 12 15 0 8 4 15 10
15 5 0 13 12 16 28 4 15 10 32 13 37 6 10 19 -172 13 -191z"/>
<path d="M1193 2283 c-24 -2 -43 -8 -43 -14 0 -5 -7 -9 -16 -9 -10 0 -32 -15
-50 -32 -18 -18 -44 -43 -58 -54 -14 -12 -28 -35 -32 -50 -4 -16 -10 -33 -14
-39 -4 -5 -8 -36 -8 -68 0 -47 3 -60 21 -72 14 -10 25 -11 31 -5 6 6 20 10 33
10 14 0 23 6 23 15 0 8 5 15 10 15 6 0 13 1 16 3 4 1 7 -40 7 -92 -1 -96 -6
-111 -45 -111 -10 0 -18 -7 -18 -15 0 -8 -6 -15 -14 -15 -8 0 -14 8 -13 18 1
24 -54 102 -73 102 -9 0 -21 5 -28 12 -9 9 -15 9 -24 0 -7 -7 -21 -12 -33 -12
-20 0 -55 -31 -55 -50 0 -6 -6 -10 -13 -10 -8 0 -24 -9 -37 -20 -13 -11 -26
-20 -30 -20 -4 0 -15 -17 -26 -37 -10 -21 -25 -42 -31 -46 -7 -4 -13 -17 -13
-28 0 -11 -7 -27 -15 -35 -8 -9 -15 -31 -15 -49 0 -19 -5 -37 -10 -40 -5 -3
-10 -35 -10 -70 0 -67 -15 -96 -25 -48 -4 15 -10 35 -15 43 -18 29 -48 95 -55
118 -3 12 -11 22 -16 22 -5 0 -9 9 -9 19 0 11 -6 26 -13 33 -7 7 -18 25 -24
41 -7 15 -21 27 -30 28 -45 3 -79 -4 -89 -17 -6 -8 -16 -14 -21 -14 -5 0 -30
-21 -54 -46 -24 -25 -52 -53 -61 -62 -10 -9 -18 -22 -18 -29 0 -7 -7 -13 -15
-13 -8 0 -15 -7 -15 -16 0 -8 -7 -22 -15 -30 -8 -9 -15 -24 -15 -34 0 -10 -7
-31 -15 -46 -8 -16 -15 -40 -15 -54 0 -14 -7 -34 -15 -44 -8 -11 -15 -27 -15
-37 0 -9 -7 -22 -15 -29 -10 -8 -15 -30 -15 -61 0 -26 -5 -51 -10 -54 -17 -10
-11 -44 9 -54 21 -12 91 4 91 19 0 6 9 10 20 10 11 0 20 7 20 15 0 8 7 15 15
15 8 0 15 6 15 14 0 8 7 16 15 20 8 3 15 12 15 20 0 7 7 16 15 20 10 4 15 20
15 53 0 26 7 57 15 67 8 11 15 32 15 48 0 15 3 28 8 28 10 0 72 -134 72 -157
0 -19 32 -53 50 -53 6 0 10 -5 10 -11 0 -6 9 -23 20 -39 l20 -28 -23 -6 c-12
-3 -68 -6 -124 -6 -57 0 -105 -4 -108 -10 -3 -5 -20 -10 -36 -10 -20 0 -39
-10 -59 -30 -16 -17 -33 -30 -38 -30 -5 0 -20 -13 -34 -28 -25 -28 -42 -99
-26 -104 22 -8 319 10 330 19 7 6 55 13 107 14 86 3 95 1 101 -17 7 -18 14
-19 74 -14 69 6 93 0 82 -18 -3 -6 -2 -13 4 -17 6 -4 10 -54 10 -121 0 -68 4
-114 10 -114 5 0 13 -12 16 -27 4 -15 13 -34 21 -41 7 -7 13 -26 13 -41 0 -38
24 -70 41 -53 7 6 20 12 29 12 10 0 27 9 40 20 13 11 29 20 37 20 7 0 13 5 13
10 0 6 7 10 15 10 8 0 15 7 15 15 0 8 4 15 9 15 5 0 12 13 16 30 4 16 11 30
16 30 12 0 12 67 -1 75 -5 3 -10 16 -10 28 0 12 -7 35 -15 51 -8 15 -15 50
-15 77 0 26 -4 50 -9 54 -11 6 70 85 88 85 6 0 11 5 11 11 0 6 7 17 15 25 8 9
15 28 15 44 0 29 -1 29 -62 32 -58 3 -63 5 -64 26 -2 30 -8 35 -46 36 -31 1
-33 3 -39 45 -3 25 -11 47 -17 49 -17 5 -15 22 2 22 35 0 136 127 136 172 0
28 17 30 24 3 10 -38 48 -58 96 -50 22 4 40 11 40 16 0 5 9 9 20 9 11 0 20 7
20 15 0 8 7 15 15 15 17 0 46 27 72 67 22 34 33 49 56 74 9 10 17 33 17 49 0
17 5 30 10 30 6 0 10 18 10 40 0 34 -4 41 -25 46 -16 4 -32 1 -43 -8 -9 -8
-25 -18 -34 -21 -10 -4 -18 -11 -18 -17 0 -5 -7 -10 -15 -10 -8 0 -15 -5 -15
-12 0 -8 -6 -7 -16 4 -21 21 -12 48 26 73 16 11 42 45 58 75 27 50 29 66 35
193 9 217 -7 243 -140 230z"/>
<path d="M5540 2271 c0 -6 -11 -11 -25 -11 -14 0 -28 -7 -31 -15 -4 -8 -12
-15 -20 -15 -7 0 -18 -9 -24 -20 -6 -11 -17 -20 -25 -20 -8 0 -15 -4 -15 -10
0 -5 -7 -10 -15 -10 -8 0 -15 -6 -15 -14 0 -8 -7 -16 -15 -20 -8 -3 -15 -12
-15 -20 0 -7 -7 -16 -15 -20 -12 -4 -15 -27 -15 -115 0 -98 2 -110 19 -116 21
-6 50 3 70 22 7 8 18 12 25 10 19 -7 8 -47 -24 -87 -17 -21 -30 -43 -30 -49 0
-6 -4 -11 -10 -11 -5 0 -10 -6 -10 -12 0 -7 -16 -29 -35 -48 -19 -19 -35 -40
-35 -46 0 -7 -4 -14 -9 -16 -8 -3 -15 -44 -12 -75 1 -15 37 -17 46 -3 3 6 53
10 113 10 95 0 110 2 125 20 9 11 24 20 32 20 8 0 15 4 15 9 0 5 11 12 25 15
14 4 25 10 25 15 0 5 8 17 17 27 19 19 23 78 5 96 -9 9 -18 9 -37 0 -14 -7
-44 -12 -66 -12 -37 0 -40 2 -33 22 8 25 13 32 77 100 28 30 47 60 47 74 0 12
5 26 10 29 14 9 11 211 -4 260 -11 39 -12 40 -64 43 -32 2 -52 -1 -52 -7z"/>
<path d="M12486 2245 c-8 -8 -26 -15 -40 -15 -14 0 -28 -5 -31 -10 -4 -6 -21
-16 -38 -24 -18 -7 -58 -39 -90 -70 -56 -54 -61 -57 -97 -51 -25 4 -42 2 -51
-7 -8 -8 -22 -17 -31 -21 -10 -3 -18 -11 -18 -17 0 -5 -7 -10 -15 -10 -8 0
-15 -7 -15 -15 0 -8 -4 -15 -9 -15 -16 0 -51 -66 -51 -94 0 -15 7 -29 15 -32
8 -4 15 -12 15 -19 0 -7 6 -15 13 -18 6 -3 21 -22 32 -43 11 -22 25 -43 32
-47 7 -4 13 -16 13 -26 0 -10 14 -37 30 -59 21 -30 30 -53 30 -81 0 -22 6 -44
15 -51 8 -7 15 -20 15 -29 0 -10 7 -26 15 -37 12 -15 14 -65 15 -271 0 -138
-4 -254 -9 -257 -5 -3 -12 -22 -16 -43 -4 -20 -13 -46 -21 -57 -8 -11 -14 -32
-14 -47 0 -15 -7 -40 -15 -55 -8 -16 -15 -37 -15 -46 0 -9 -4 -19 -9 -22 -5
-3 -12 -21 -15 -40 -4 -19 -13 -37 -21 -40 -8 -3 -15 -12 -15 -21 0 -8 -4 -15
-10 -15 -5 0 -12 -11 -16 -25 -3 -14 -10 -25 -14 -25 -5 0 -11 -14 -15 -30 -4
-17 -11 -30 -16 -30 -5 0 -9 -7 -9 -16 0 -9 -9 -18 -20 -21 -11 -3 -20 -9 -20
-14 0 -5 -7 -9 -15 -9 -8 0 -15 -7 -15 -15 0 -8 -4 -15 -10 -15 -5 0 -10 -7
-10 -15 0 -8 -9 -19 -20 -25 -13 -7 -20 -21 -20 -40 0 -16 -5 -32 -10 -35 -14
-8 4 -32 30 -40 23 -7 100 25 100 42 0 7 6 13 13 13 7 0 24 13 37 30 14 16 31
29 38 30 6 0 12 6 12 14 0 8 3 16 8 18 9 4 52 65 52 73 0 4 7 13 15 21 8 9 15
24 15 35 0 10 5 19 10 19 6 0 10 7 10 15 0 8 9 23 20 32 11 10 20 23 20 30 0
7 4 13 9 13 5 0 12 11 15 25 4 14 11 25 16 25 12 0 50 83 50 109 0 12 4 21 10
21 5 0 12 16 16 35 3 19 12 39 20 46 8 6 14 29 14 50 0 21 4 40 9 44 5 3 13
20 16 37 4 18 14 38 21 46 8 7 14 26 14 42 0 16 6 30 13 32 9 4 13 62 15 235
3 208 1 232 -14 248 -17 16 -16 18 7 36 13 10 36 19 50 19 15 0 32 7 39 15 7
8 18 15 25 15 6 0 20 9 30 20 10 11 22 20 27 20 13 0 78 65 78 77 0 6 7 13 15
17 20 7 19 50 -2 67 -13 11 -17 11 -20 2 -3 -7 -13 -13 -24 -13 -10 0 -36 -9
-58 -21 -22 -11 -53 -19 -68 -17 -26 3 -28 6 -25 43 2 22 10 50 18 62 8 12 14
29 14 38 0 9 7 27 16 40 13 20 16 45 12 126 -4 96 -5 103 -31 125 -32 27 -69
31 -91 9z"/>
<path d="M17890 2194 c-54 -20 -87 -40 -108 -65 -13 -16 -30 -29 -38 -29 -8 0
-14 -6 -14 -14 0 -8 -7 -16 -15 -20 -9 -3 -15 -19 -15 -41 0 -35 0 -35 44 -35
54 0 76 -8 76 -26 0 -8 7 -14 15 -14 8 0 15 -7 15 -15 0 -8 6 -15 13 -15 18 0
36 -45 25 -64 -5 -9 -22 -16 -37 -16 -15 0 -36 -9 -46 -20 -10 -11 -24 -20
-32 -20 -7 0 -13 -4 -13 -10 0 -5 -6 -10 -14 -10 -20 0 -106 -88 -106 -108 0
-10 -5 -23 -11 -29 -14 -14 -13 -105 0 -130 5 -10 12 -25 15 -33 15 -37 44
-76 67 -88 26 -13 126 -7 144 9 5 5 19 9 31 9 13 0 29 7 38 15 8 8 19 15 25
15 6 0 15 9 21 20 6 11 17 20 25 20 8 0 15 5 15 10 0 6 7 10 15 10 8 0 15 7
15 15 0 8 7 15 15 15 8 0 15 4 15 10 0 5 14 32 30 58 l30 49 0 191 0 191 -29
30 c-16 17 -32 38 -35 48 -4 10 -20 33 -36 52 -25 28 -38 35 -78 37 -26 2 -54
1 -62 -2z"/>
<path d="M3378 2126 c-8 -7 -23 -16 -35 -20 -11 -3 -33 -20 -49 -36 -16 -16
-35 -30 -41 -30 -7 0 -13 -6 -13 -14 0 -8 -7 -16 -15 -20 -22 -8 -19 -69 3
-89 10 -10 31 -17 45 -17 27 0 27 0 29 -82 1 -46 1 -98 1 -117 -1 -52 -53
-147 -53 -97 0 7 7 27 15 42 10 19 15 58 15 112 0 81 -1 84 -32 113 -18 16
-40 29 -49 29 -9 0 -19 7 -23 15 -8 22 -87 19 -134 -5 -42 -22 -132 -104 -132
-120 0 -5 -4 -10 -10 -10 -5 0 -13 -12 -16 -27 -4 -16 -13 -37 -20 -48 -9 -12
-14 -48 -14 -98 0 -51 -5 -88 -15 -108 -13 -25 -16 -73 -14 -290 0 -143 -2
-263 -5 -266 -3 -3 -10 6 -15 20 -5 14 -15 27 -22 29 -14 5 -16 87 -2 97 17
11 21 61 7 76 -14 14 -54 9 -54 -6 0 -5 -6 -9 -14 -9 -7 0 -19 -7 -26 -15 -15
-19 -34 -20 -27 -2 3 8 -7 21 -23 30 -25 15 -30 16 -43 2 -17 -17 -67 -21 -67
-5 0 6 -9 19 -20 30 -11 11 -20 27 -20 35 0 8 -4 15 -10 15 -5 0 -10 9 -10 19
0 11 -6 26 -12 33 -7 7 -22 31 -33 52 -11 21 -25 41 -32 43 -7 3 -13 9 -13 14
0 6 -10 23 -21 39 -12 15 -23 40 -24 54 -4 37 -13 46 -44 46 -25 0 -38 -7 -88
-50 -7 -5 -19 -10 -28 -10 -8 0 -15 -7 -15 -15 0 -8 -6 -15 -12 -15 -14 -1
-48 -62 -48 -85 0 -8 -4 -15 -10 -15 -5 0 -10 -10 -10 -23 0 -12 -9 -39 -20
-60 -11 -20 -20 -46 -20 -58 0 -11 -7 -27 -15 -35 -8 -9 -15 -26 -15 -39 0
-13 -4 -26 -9 -29 -4 -3 -11 -26 -14 -51 -2 -25 -12 -51 -20 -58 -9 -7 -17
-30 -19 -52 l-3 -40 150 -3 c107 -2 159 -7 182 -17 39 -19 97 -19 115 -2 7 8
26 17 41 21 15 3 27 11 27 16 0 20 28 9 33 -12 6 -21 -27 -105 -46 -119 -15
-11 -37 -61 -37 -85 0 -25 21 -45 28 -26 2 7 8 12 14 12 25 0 97 45 107 66 12
28 44 34 47 9 0 -5 2 -15 2 -21 1 -7 12 -14 23 -17 14 -4 20 -11 16 -21 -7
-18 21 -45 31 -29 4 6 18 14 32 18 14 4 42 20 63 37 27 21 41 27 53 20 11 -6
13 -11 5 -16 -17 -11 -14 -128 4 -152 8 -10 15 -38 15 -61 0 -23 4 -44 8 -47
12 -7 86 12 90 23 2 6 9 11 16 11 7 0 23 9 36 20 13 11 27 20 32 20 4 0 8 6 8
14 0 8 7 17 15 20 14 5 16 29 14 162 l-1 156 31 32 c17 18 31 37 31 44 0 7 5
12 10 12 17 0 11 50 -7 57 -9 4 -19 1 -21 -5 -2 -7 -13 -12 -25 -12 -22 0 -22
2 -19 147 2 81 7 152 12 158 4 5 11 24 14 42 4 17 17 42 29 55 12 13 35 43 51
66 26 38 49 48 45 19 -4 -33 2 -37 61 -37 33 0 60 4 60 10 0 6 13 10 29 10 16
0 36 7 45 15 8 8 21 15 28 15 7 0 27 13 45 30 17 16 37 31 44 32 19 4 49 36
49 52 0 8 5 18 10 21 13 8 13 62 -1 71 -6 3 -16 1 -22 -5 -6 -6 -20 -11 -31
-11 -11 0 -28 -7 -38 -17 -25 -22 -23 2 2 27 11 11 20 26 20 34 0 8 7 16 15
20 12 4 15 25 15 103 0 102 -22 193 -46 193 -7 0 -18 14 -26 30 -11 26 -18 30
-50 30 -20 0 -43 -6 -50 -14z"/>
<path d="M5160 2074 c-25 -14 -55 -37 -67 -52 -12 -15 -33 -38 -46 -53 -27
-28 -97 -167 -97 -191 0 -9 -7 -21 -15 -28 -9 -7 -15 -29 -15 -50 0 -21 -5
-40 -11 -42 -6 -2 -14 -28 -17 -58 -2 -30 -8 -59 -12 -65 -5 -5 -11 -41 -15
-80 -4 -38 -12 -76 -19 -84 -6 -8 -13 -64 -15 -127 -2 -87 -6 -111 -16 -108
-7 3 -16 1 -20 -5 -3 -6 -15 -11 -26 -11 -11 0 -22 -7 -25 -15 -7 -17 -54 -21
-54 -5 0 15 -38 12 -65 -6 -22 -14 -25 -15 -25 -1 0 8 5 17 11 19 20 7 13 53
-15 96 -14 23 -26 48 -26 56 0 7 -7 19 -15 26 -8 7 -15 25 -15 40 0 15 -7 33
-15 40 -8 7 -15 28 -15 46 0 23 -5 34 -15 34 -8 0 -17 14 -21 37 -7 36 -12 48
-50 110 -24 41 -55 58 -80 45 -42 -20 -90 -41 -114 -48 -14 -4 -35 -17 -47
-30 -12 -13 -25 -24 -28 -24 -9 0 -45 -40 -45 -50 0 -5 -4 -10 -9 -10 -5 0
-12 -12 -15 -27 -8 -34 -36 -93 -53 -111 -7 -7 -13 -21 -13 -30 0 -9 -7 -26
-15 -36 -8 -11 -15 -30 -15 -42 0 -12 -7 -35 -15 -50 -8 -16 -15 -41 -15 -56
0 -29 -28 -88 -47 -101 -7 -4 -13 -26 -13 -47 0 -36 2 -40 33 -45 62 -12 487
-1 495 12 4 7 19 14 32 15 22 3 25 -1 22 -24 -2 -16 1 -28 6 -28 16 0 62 -49
52 -55 -6 -3 -10 -15 -10 -26 0 -10 -4 -19 -8 -19 -4 0 -20 -27 -35 -60 -15
-32 -32 -62 -37 -65 -6 -3 -10 -20 -10 -36 0 -34 23 -48 51 -31 10 7 26 12 34
12 8 0 15 7 15 15 0 8 7 15 15 15 8 0 15 6 15 13 1 6 19 24 41 40 22 15 44 38
49 52 11 29 22 31 40 10 14 -17 60 -21 60 -5 0 6 7 10 16 10 9 0 32 9 50 21
32 19 34 20 34 2 0 -10 7 -31 15 -47 8 -15 15 -44 15 -63 0 -49 45 -123 75
-123 13 0 30 7 39 15 8 8 18 15 21 15 4 0 28 17 55 37 53 42 90 107 71 126 -6
6 -11 20 -11 32 0 12 -7 30 -15 41 -8 10 -15 31 -15 46 0 15 -7 33 -15 42 -8
8 -15 26 -15 39 0 20 6 27 30 32 17 4 30 11 30 16 0 5 7 9 15 9 8 0 15 7 15
15 0 8 7 15 15 15 8 0 15 6 15 14 0 8 7 16 15 20 8 3 15 14 15 24 0 10 5 23
12 30 22 22 -9 36 -89 38 -43 2 -84 3 -92 3 -11 1 -11 4 -2 15 14 17 12 194
-2 203 -5 3 12 24 37 48 25 23 46 47 46 53 0 6 4 12 8 14 12 5 52 87 52 107 0
10 7 21 15 25 8 3 15 17 15 31 0 15 7 33 15 41 9 10 15 34 15 64 0 30 5 50 13
52 8 3 13 42 16 136 l3 132 -43 -1 c-27 0 -62 -10 -89 -25z m-898 -761 c6 -15
10 -34 9 -40 -1 -7 2 -13 7 -13 5 0 12 -19 15 -42 3 -24 11 -44 16 -46 6 -2
11 -8 11 -13 0 -5 -39 -9 -86 -9 -72 0 -85 2 -75 14 6 7 14 37 17 66 3 29 12
60 20 67 8 8 14 25 14 37 0 47 28 35 52 -21z"/>
<path d="M13854 2035 c-4 -8 -12 -15 -20 -15 -7 0 -18 -9 -24 -20 -6 -11 -17
-20 -25 -20 -8 0 -15 -4 -15 -10 0 -5 -7 -10 -15 -10 -8 0 -15 -7 -15 -15 0
-8 -4 -15 -10 -15 -5 0 -12 -16 -16 -35 -5 -26 -2 -41 10 -54 9 -10 16 -35 16
-56 0 -24 6 -43 18 -51 16 -13 16 -13 0 -14 -10 0 -18 -7 -18 -15 0 -8 -4 -15
-10 -15 -12 0 -80 -68 -80 -80 0 -6 -4 -10 -10 -10 -15 0 -50 -86 -50 -124 0
-48 28 -114 51 -121 10 -3 27 -17 38 -31 17 -22 26 -24 99 -24 45 0 84 5 87
10 3 6 17 10 31 10 14 0 27 7 30 15 4 8 12 15 20 15 8 0 14 7 14 15 0 8 4 15
8 15 5 0 32 22 60 49 l52 50 0 89 c0 62 -4 94 -15 108 -8 10 -15 27 -15 36 0
9 -6 23 -12 30 -26 28 -42 65 -55 128 -28 135 -33 153 -44 166 -16 19 -78 18
-85 -1z"/>
<path d="M7988 1984 c-10 -3 -18 -9 -18 -13 0 -4 -18 -16 -40 -27 -22 -10 -40
-25 -40 -31 0 -7 -3 -13 -7 -13 -14 -1 -83 -66 -83 -78 0 -7 -4 -12 -10 -12
-14 0 -50 -84 -50 -118 0 -16 -7 -43 -15 -58 -8 -16 -15 -36 -15 -45 0 -9 -7
-30 -15 -45 -12 -23 -15 -74 -15 -256 l0 -228 -34 0 c-25 0 -45 -9 -73 -34
-21 -19 -50 -45 -65 -58 -34 -31 -45 -70 -24 -91 20 -20 20 -31 1 -47 -8 -7
-15 -21 -15 -31 0 -11 -4 -19 -10 -19 -5 0 -12 -11 -16 -25 -3 -13 -12 -29
-20 -36 -8 -6 -14 -20 -14 -30 0 -11 -4 -19 -9 -19 -13 0 -19 -33 -10 -57 7
-18 12 -20 48 -13 22 4 49 13 58 21 34 25 99 94 106 112 7 18 43 23 67 7 12
-8 13 -14 2 -42 -18 -47 -3 -59 86 -67 6 0 12 -8 12 -16 0 -8 4 -15 9 -15 5 0
12 -19 16 -42 4 -24 16 -59 26 -78 11 -19 19 -40 19 -46 0 -21 29 -39 42 -26
7 7 21 12 33 12 11 0 33 16 49 35 16 19 34 35 38 35 13 0 40 28 55 58 15 28
17 62 4 62 -5 0 -13 15 -16 32 -4 18 -12 38 -17 45 -6 7 -10 46 -10 88 1 75 1
75 -26 75 -23 0 -30 7 -44 48 -11 29 -18 83 -19 142 -1 52 -8 116 -16 142 -15
47 -15 48 13 82 16 19 37 35 47 35 9 1 17 6 17 11 0 6 5 10 10 10 10 0 50 36
50 45 0 8 39 45 48 45 4 0 15 19 26 43 10 23 22 49 26 57 4 9 11 30 14 47 4
17 14 34 22 37 8 3 14 13 14 23 0 10 7 27 15 37 8 11 15 28 15 37 0 10 6 19
12 21 9 3 14 40 16 121 l4 116 -28 7 c-16 4 -35 12 -42 17 -14 11 -174 20
-204 11z m24 -214 l28 0 0 -70 c0 -38 -4 -70 -9 -70 -5 0 -12 -12 -15 -26 -4
-15 -14 -33 -21 -41 -8 -8 -15 -25 -15 -39 0 -13 -4 -24 -9 -24 -5 0 -11 -19
-15 -42 -7 -41 -29 -78 -48 -78 -15 0 -9 212 7 240 8 14 14 42 15 62 0 20 5
40 10 43 6 3 10 16 10 29 0 28 10 40 24 26 5 -5 23 -10 38 -10z"/>
<path d="M9211 1961 c-70 -4 -106 -10 -109 -18 -2 -7 -9 -13 -16 -13 -6 0 -23
-13 -36 -30 -14 -16 -28 -29 -32 -30 -12 0 -48 -39 -48 -50 0 -5 -4 -10 -10
-10 -5 0 -10 -5 -10 -11 0 -6 -20 -31 -45 -56 -42 -43 -85 -111 -85 -134 0 -6
-7 -17 -15 -25 -22 -22 -22 -371 0 -400 20 -26 19 -50 -5 -74 -21 -21 -60 -27
-60 -10 0 19 -33 48 -49 43 -43 -14 -90 -39 -126 -67 l-39 -31 24 33 c13 17
27 32 32 32 15 0 9 87 -7 100 -8 7 -15 20 -15 29 0 9 -5 22 -12 29 -12 12 -32
76 -44 140 -4 17 -12 32 -19 32 -7 0 -15 7 -19 15 -3 8 -17 20 -31 27 -21 10
-25 17 -23 47 3 35 2 36 -34 39 -34 3 -43 -2 -86 -47 -27 -28 -55 -51 -61 -51
-6 0 -11 -7 -11 -15 0 -8 -4 -15 -10 -15 -5 0 -13 -12 -16 -27 -4 -15 -13 -34
-21 -41 -7 -7 -13 -24 -13 -37 0 -13 -4 -26 -9 -29 -5 -3 -12 -27 -16 -52 -4
-26 -13 -53 -21 -61 -8 -8 -14 -23 -14 -34 0 -10 -4 -19 -10 -19 -5 0 -12 -11
-16 -25 -3 -14 -10 -25 -15 -25 -4 0 -11 -16 -15 -35 -3 -19 -10 -35 -15 -35
-11 0 -32 -78 -24 -90 8 -13 99 -3 140 16 17 7 78 14 143 16 69 2 116 7 120
14 4 6 18 15 32 19 14 4 27 10 30 14 3 3 15 12 28 19 25 14 30 1 7 -18 -8 -7
-15 -22 -15 -34 1 -28 44 -76 70 -76 11 0 23 -7 26 -15 4 -8 17 -15 30 -15 13
0 24 -4 24 -10 0 -5 -4 -10 -10 -10 -5 0 -10 -7 -10 -15 0 -8 -9 -24 -20 -35
-11 -11 -20 -24 -20 -30 0 -5 -4 -10 -9 -10 -5 0 -13 -12 -19 -27 -5 -16 -21
-40 -35 -55 -14 -15 -27 -42 -29 -60 -3 -31 -1 -33 30 -36 18 -2 32 1 32 7 0
6 9 11 19 11 11 0 32 13 48 29 75 78 105 115 114 139 9 27 10 27 107 27 62 0
102 -4 110 -12 7 -7 16 -33 21 -58 5 -26 14 -52 20 -58 6 -6 11 -21 11 -33 0
-36 11 -54 31 -54 10 0 19 5 19 10 0 6 11 10 24 10 14 0 31 7 40 15 8 8 18 15
22 15 11 0 78 71 92 98 14 28 15 55 3 80 -43 85 -52 112 -41 132 6 11 15 20
20 20 6 0 10 6 10 14 0 8 7 16 15 20 8 3 15 16 15 30 0 14 5 28 10 31 6 4 8
11 5 16 -8 12 -65 12 -65 -1 0 -5 -9 -10 -20 -10 -11 0 -20 -6 -20 -14 0 -22
-30 -28 -36 -8 -3 9 -10 25 -15 34 -5 10 -9 23 -9 29 0 6 -6 25 -13 42 -23 55
-47 134 -47 156 0 14 6 21 20 21 11 0 23 7 26 15 4 8 10 15 15 15 15 0 134
123 147 153 6 15 16 27 22 27 5 0 10 6 10 14 0 8 7 16 15 20 8 3 15 12 15 20
0 8 4 16 8 18 4 2 25 36 45 76 35 69 37 79 37 167 0 104 -11 126 -58 123 -15
-1 -74 -4 -131 -7z m-37 -228 c-19 -128 -24 -157 -32 -162 -5 -3 -13 -17 -17
-29 -4 -13 -14 -32 -23 -42 -10 -9 -30 -33 -46 -53 -16 -20 -33 -34 -38 -31
-4 3 -5 11 -1 17 5 7 10 75 13 152 6 171 14 185 97 185 l53 0 -6 -37z"/>
<path d="M20716 1705 c-8 -8 -20 -15 -26 -15 -6 0 -13 -7 -16 -15 -4 -8 -12
-15 -20 -15 -8 0 -14 -5 -14 -10 0 -12 -32 -43 -87 -87 -18 -15 -33 -33 -33
-40 0 -7 -4 -13 -10 -13 -5 0 -13 -12 -16 -27 -4 -16 -10 -32 -14 -38 -4 -5
-10 -27 -14 -47 -4 -24 -13 -38 -21 -38 -8 0 -15 -8 -15 -17 -1 -17 -1 -17
-11 0 -10 17 -12 17 -47 -5 -50 -30 -54 -34 -123 -101 -32 -32 -59 -65 -59
-73 0 -8 -4 -14 -9 -14 -5 0 -11 -9 -14 -20 -3 -11 -12 -20 -21 -20 -9 0 -16
-4 -16 -9 0 -5 -10 -11 -22 -15 -28 -7 -57 26 -58 64 0 14 -7 38 -15 54 -8 15
-15 35 -15 42 0 8 -4 14 -9 14 -9 0 -44 66 -56 108 -3 12 -11 22 -16 22 -5 0
-9 5 -9 10 0 12 -41 73 -52 78 -5 2 -8 10 -8 17 0 7 -7 16 -16 19 -12 5 -15
15 -11 44 13 88 14 87 -13 90 -14 2 -33 11 -43 20 -13 12 -20 13 -29 4 -7 -7
-20 -12 -30 -12 -10 0 -32 -16 -49 -35 -18 -19 -38 -35 -46 -35 -7 0 -13 -4
-13 -10 0 -5 -7 -10 -15 -10 -8 0 -15 -7 -15 -15 0 -8 -4 -15 -9 -15 -11 0
-19 -66 -10 -83 11 -19 -11 -97 -27 -97 -8 0 -14 -10 -14 -25 0 -14 -7 -28
-15 -31 -8 -4 -15 -18 -15 -34 0 -16 -5 -30 -11 -32 -5 -2 -13 -22 -16 -46 -3
-23 -9 -42 -14 -42 -5 0 -12 -18 -15 -40 -4 -22 -13 -45 -20 -51 -8 -6 -14
-24 -14 -39 0 -16 -5 -30 -11 -32 -16 -5 -34 -111 -20 -116 16 -5 13 -22 -4
-22 -7 0 -18 -6 -22 -12 -4 -7 -24 -24 -43 -37 -19 -14 -39 -30 -43 -38 -4 -7
-15 -13 -22 -13 -8 0 -15 -4 -15 -10 0 -5 -4 -10 -10 -10 -5 0 -10 7 -10 15 0
8 -6 15 -12 15 -7 0 -24 25 -38 56 -46 104 -114 153 -150 109 -7 -8 -19 -15
-27 -15 -7 0 -16 -7 -19 -15 -4 -8 -10 -15 -15 -15 -11 0 -49 -37 -49 -48 0
-5 -9 -17 -19 -26 -19 -17 -20 -16 -26 29 -10 66 -27 79 -94 72 -31 -3 -57
-11 -59 -17 -2 -5 -8 -10 -14 -10 -21 0 -118 -104 -118 -127 0 -13 -4 -23 -10
-23 -5 0 -10 -7 -10 -15 0 -8 -8 -15 -18 -15 -10 0 -41 -23 -70 -51 -44 -43
-54 -49 -72 -39 -11 6 -20 19 -20 30 0 22 29 80 49 96 8 6 11 19 7 32 -6 17
-15 22 -40 22 -19 0 -39 -7 -46 -15 -7 -8 -19 -15 -26 -15 -8 0 -14 -4 -14 -9
0 -14 -39 -20 -43 -7 -3 8 -8 8 -18 -1 -7 -7 -21 -13 -31 -13 -10 0 -21 -7
-24 -15 -4 -8 -12 -15 -18 -15 -16 0 -76 -62 -76 -78 0 -7 -5 -21 -12 -32 -10
-15 -9 -24 2 -44 7 -14 19 -26 27 -26 20 0 16 -18 -17 -67 -16 -24 -30 -48
-30 -52 0 -5 -7 -11 -15 -15 -8 -3 -15 -12 -15 -20 0 -7 -7 -16 -15 -20 -8 -3
-15 -12 -15 -21 0 -8 -5 -24 -12 -34 -25 -41 30 -72 66 -36 8 8 20 15 26 15 6
0 13 7 16 15 4 8 12 15 19 15 13 0 60 50 81 86 10 17 11 17 30 -4 10 -12 22
-22 27 -22 5 0 18 -11 29 -25 20 -25 52 -33 63 -15 3 5 15 10 25 10 10 0 23 8
29 17 8 14 13 15 34 6 18 -8 36 -9 59 -2 18 5 52 9 76 9 29 0 45 5 48 15 4 8
14 15 23 15 9 0 24 8 32 17 9 10 26 25 39 33 13 8 30 23 39 33 8 9 21 17 28
17 7 0 13 5 13 10 0 6 7 10 15 10 8 0 15 7 15 15 0 8 7 15 15 15 8 0 15 9 15
19 0 11 5 21 11 23 5 2 13 38 16 80 3 43 10 75 14 72 5 -3 9 -14 9 -25 0 -10
4 -19 9 -19 5 0 12 -14 16 -30 4 -17 13 -30 21 -30 8 0 14 -5 14 -10 0 -12 41
-73 53 -78 4 -2 7 -8 7 -14 0 -19 34 -37 47 -26 10 8 13 5 13 -10 0 -11 -7
-25 -15 -32 -8 -7 -15 -19 -15 -26 0 -8 -4 -14 -10 -14 -5 0 -13 -12 -16 -27
-4 -15 -13 -34 -21 -41 -7 -7 -13 -22 -13 -32 0 -28 -22 -64 -70 -113 -129
-131 -149 -161 -126 -193 10 -13 21 -15 49 -10 21 4 37 11 37 15 0 5 11 12 25
15 14 4 25 10 25 15 0 5 23 32 50 61 28 29 50 55 50 58 0 4 21 26 45 50 25 24
45 47 45 52 0 4 7 10 15 14 8 3 15 12 15 21 0 8 4 15 9 15 5 0 12 18 16 40 4
22 11 40 16 40 5 0 11 11 15 25 3 14 10 25 14 25 5 0 12 10 16 22 3 12 13 28
20 36 8 7 14 19 14 26 0 8 7 19 15 26 8 7 15 23 15 36 0 13 4 24 9 24 5 0 20
21 33 48 13 26 29 51 35 55 7 4 13 14 13 21 0 8 7 16 15 20 8 3 15 12 15 21 0
8 4 15 9 15 5 0 11 10 13 22 3 21 3 21 248 19 225 -2 246 -1 262 16 46 50 86
59 49 11 -12 -14 -21 -38 -21 -52 0 -14 -4 -26 -10 -26 -5 0 -10 -6 -10 -13 0
-8 -9 -24 -20 -37 -26 -30 -26 -66 0 -73 11 -3 26 1 33 8 7 7 22 15 33 19 23
7 129 107 136 127 6 17 93 -38 107 -68 15 -32 70 -59 93 -44 10 6 27 11 38 11
11 0 23 7 26 15 4 8 12 15 20 15 8 0 14 5 14 10 0 11 36 50 48 50 15 1 41 67
30 78 -7 7 53 11 188 14 146 2 198 6 202 16 2 6 10 12 18 12 7 0 29 15 48 33
19 17 48 45 65 60 31 28 37 55 31 126 -3 34 -34 89 -78 140 -21 23 -47 68 -57
100 -11 31 -25 61 -31 66 -6 6 -18 24 -26 40 -8 17 -22 45 -31 63 -9 19 -17
44 -17 57 0 13 -7 30 -15 38 -7 8 -17 26 -21 41 -5 20 -12 26 -34 26 -16 0
-35 -7 -44 -15z m-76 -345 c0 -10 7 -25 15 -33 7 -8 17 -26 21 -41 3 -14 10
-26 15 -26 5 0 9 -9 9 -19 0 -11 7 -26 15 -35 8 -8 15 -19 15 -24 0 -5 9 -21
20 -35 11 -14 16 -28 12 -31 -5 -3 -55 -5 -112 -5 -59 0 -108 -5 -114 -11 -11
-11 -70 -14 -64 -2 3 4 11 22 18 40 8 17 18 32 22 32 4 0 8 6 8 14 0 8 6 21
13 28 6 7 23 36 37 63 14 27 31 56 38 63 6 7 12 22 12 33 0 11 5 17 10 14 6
-3 10 -15 10 -25z m-933 -122 c3 -15 9 -28 14 -28 6 0 37 -56 77 -142 2 -5
-43 -8 -100 -8 -75 1 -98 3 -85 11 10 6 17 22 17 39 0 16 4 31 9 35 6 3 13 27
16 53 9 64 11 69 30 69 10 0 18 -11 22 -29z"/>
<path d="M7303 1658 c-18 -5 -33 -13 -33 -18 0 -6 -7 -10 -15 -10 -9 0 -18 -7
-21 -15 -4 -8 -11 -15 -18 -15 -10 0 -36 -24 -85 -77 -12 -13 -21 -29 -21 -37
0 -7 -7 -19 -15 -26 -9 -7 -15 -29 -15 -51 0 -21 -4 -40 -9 -43 -4 -3 -11 -28
-15 -55 -3 -27 -13 -54 -21 -61 -8 -7 -15 -22 -15 -34 0 -11 -7 -30 -15 -40
-8 -11 -15 -28 -15 -38 0 -10 -4 -18 -9 -18 -5 0 -13 -14 -16 -32 -12 -51 -39
-73 -90 -70 -25 1 -45 -3 -45 -8 0 -6 -7 -10 -14 -10 -8 0 -35 -13 -59 -30
-51 -34 -57 -36 -57 -16 0 8 -13 17 -30 21 -21 5 -30 13 -30 26 0 10 4 19 9
19 11 0 20 70 9 76 -12 7 -88 -15 -88 -26 0 -6 -27 -10 -59 -10 -40 0 -65 -5
-75 -15 -8 -8 -22 -15 -30 -15 -9 0 -16 -7 -16 -15 0 -8 -4 -15 -10 -15 -5 0
-25 -16 -45 -36 -29 -28 -36 -43 -37 -79 -2 -36 3 -48 30 -76 29 -30 42 -73
25 -81 -21 -9 -53 -71 -53 -101 l0 -34 47 8 c26 5 50 14 53 19 4 6 24 13 45
15 22 3 44 10 49 15 6 6 18 10 28 10 10 0 18 6 18 14 0 8 9 18 20 21 11 3 20
11 20 16 0 5 7 9 15 9 8 0 15 6 15 14 0 8 7 16 15 20 8 3 15 14 15 23 0 10 9
27 21 36 20 18 21 18 34 0 7 -10 10 -20 7 -23 -4 -3 -8 -18 -10 -35 -2 -16 -7
-32 -12 -35 -4 -3 -11 -26 -15 -52 -4 -26 -13 -53 -21 -59 -8 -6 -14 -17 -14
-24 0 -7 -7 -18 -15 -25 -8 -7 -15 -23 -15 -36 0 -12 -4 -26 -10 -29 -5 -3
-10 -19 -10 -36 0 -24 4 -29 25 -29 14 0 25 4 25 9 0 5 11 12 24 15 22 5 50
25 97 68 10 10 24 18 29 18 6 0 10 7 10 16 0 8 7 22 15 30 8 9 15 26 15 40 0
13 5 24 10 24 6 0 10 8 10 18 0 9 9 34 19 54 11 19 17 39 14 42 -9 8 37 56 54
56 7 0 13 6 13 13 0 7 6 25 13 40 l12 27 197 0 c148 0 200 3 210 13 7 7 21 16
31 20 9 3 17 11 17 17 0 5 7 10 15 10 8 0 15 6 15 13 0 6 13 20 28 31 15 10
33 30 40 44 15 31 16 88 2 97 -5 3 -10 14 -10 24 0 10 -7 24 -15 31 -8 7 -15
23 -15 37 0 13 -7 26 -15 29 -8 4 -15 10 -15 16 0 15 -39 96 -50 103 -5 3 -10
14 -10 25 0 10 -7 20 -15 24 -10 3 -15 19 -15 44 0 42 -14 62 -44 62 -20 1
-20 1 -3 14 9 7 17 21 17 30 0 9 5 16 10 16 12 0 14 57 3 63 -5 2 -23 0 -40
-5z"/>
<path d="M21705 1451 c-42 -8 -81 -36 -146 -103 -43 -45 -60 -56 -77 -51 -12
3 -22 12 -22 19 0 8 -7 14 -15 14 -8 0 -15 7 -15 15 0 8 -6 15 -14 15 -8 0
-16 7 -20 15 -4 10 -20 15 -50 15 -41 0 -50 -5 -94 -50 -27 -27 -53 -50 -58
-50 -11 0 -34 -48 -34 -70 0 -22 103 -110 130 -110 18 0 11 -56 -14 -102 -13
-24 -27 -55 -31 -68 -4 -13 -18 -33 -31 -45 -13 -12 -24 -26 -24 -31 0 -13
-72 -74 -87 -74 -7 0 -13 -7 -13 -15 0 -8 -7 -15 -15 -15 -8 0 -15 -7 -15 -16
0 -8 -7 -22 -15 -30 -8 -9 -15 -31 -15 -50 0 -33 1 -34 40 -34 27 0 43 5 46
15 4 8 11 15 18 15 7 0 23 13 36 30 14 16 31 29 38 30 6 0 12 7 12 15 0 8 6
15 13 15 6 0 18 14 26 31 7 17 21 33 30 37 17 6 41 30 81 82 14 18 33 40 43
49 9 8 17 23 17 33 0 10 7 18 15 18 8 0 15 5 15 10 0 6 6 10 14 10 17 0 106
83 106 98 0 5 7 12 15 16 22 8 19 59 -4 73 -22 14 -18 53 5 53 8 0 14 7 14 15
0 8 11 17 24 21 14 3 27 12 30 20 3 8 10 14 16 14 16 0 50 33 50 50 0 13 1 13
10 0 7 -11 10 -2 10 33 0 26 -3 46 -7 46 -5 -1 -21 -4 -38 -8z"/>
<path d="M3630 1430 c0 -5 -6 -10 -12 -10 -7 0 -30 -16 -51 -35 -21 -19 -42
-35 -48 -35 -5 0 -9 -7 -9 -15 0 -8 -4 -15 -10 -15 -5 0 -10 -14 -10 -31 0
-30 2 -31 31 -25 16 3 37 13 45 21 9 8 20 15 25 15 15 0 10 -20 -6 -26 -8 -4
-15 -15 -15 -25 0 -11 -17 -29 -42 -45 -86 -54 -145 -127 -133 -164 6 -18 15
-20 79 -20 l74 0 -5 -43 c-7 -56 13 -80 54 -66 57 18 63 22 63 35 0 8 7 14 15
14 8 0 15 7 15 15 0 9 8 19 18 22 23 9 38 25 46 50 4 11 26 34 49 49 63 43 77
62 77 106 l0 38 -54 0 -53 0 1 73 1 72 -45 -1 c-24 -1 -46 -6 -48 -13 -2 -6
-7 -11 -12 -11 -5 0 -2 13 6 30 9 16 13 34 9 40 -8 13 -55 13 -55 0z"/>
<path d="M5810 1430 c0 -5 -9 -10 -20 -10 -11 0 -23 -7 -26 -15 -4 -8 -10 -15
-16 -15 -12 0 -78 -72 -78 -85 0 -6 -6 -17 -12 -23 -7 -7 -13 -18 -14 -25 0
-7 -2 -20 -2 -29 -1 -11 -10 -18 -21 -18 -11 0 -26 -7 -35 -15 -8 -8 -19 -15
-25 -15 -6 0 -11 -6 -11 -12 -1 -7 -14 -24 -30 -38 -17 -13 -30 -30 -30 -37 0
-7 -4 -13 -10 -13 -5 0 -10 -14 -10 -31 l0 -31 68 4 c37 3 75 9 85 13 18 7 19
2 16 -71 l-4 -79 33 -3 c18 -2 32 1 32 7 0 6 8 11 18 11 15 0 66 45 124 111
13 14 38 31 56 37 18 6 45 25 60 42 14 16 31 30 37 30 23 0 60 86 46 109 -4 5
-46 11 -95 12 l-88 2 3 86 c2 48 0 92 -5 99 -9 14 -46 16 -46 2z"/>
<path d="M1491 1376 c-8 -9 -18 -16 -24 -16 -13 0 -57 -48 -57 -62 0 -4 -7 -8
-15 -8 -8 0 -15 -7 -15 -15 0 -8 -7 -15 -15 -15 -11 0 -15 -11 -15 -39 0 -49
5 -51 182 -51 80 0 139 -4 143 -10 4 -6 -22 -10 -70 -10 -56 0 -77 -4 -81 -14
-3 -8 -16 -17 -30 -20 -13 -4 -24 -11 -24 -16 0 -6 -6 -10 -14 -10 -20 0 -76
-67 -76 -90 0 -10 -5 -22 -10 -25 -8 -5 -7 -11 1 -21 9 -11 42 -13 160 -12 84
2 150 -1 152 -6 2 -5 20 -9 41 -8 28 1 47 10 74 36 20 19 50 47 66 61 23 19
30 36 34 75 l4 49 -73 4 c-53 2 -68 5 -51 11 12 5 22 15 22 22 0 8 4 14 8 14
14 0 62 45 62 58 0 7 5 12 10 12 13 0 13 77 1 85 -12 7 -177 25 -292 31 -70 4
-88 2 -98 -10z"/>
<path d="M9546 1375 c-15 -8 -35 -15 -42 -15 -8 0 -14 -7 -14 -15 0 -8 -7 -15
-15 -15 -8 0 -15 -7 -15 -15 0 -9 -8 -19 -17 -22 -37 -14 -80 -80 -70 -107 9
-23 228 -23 271 -1 15 8 33 15 38 15 5 0 38 29 74 64 65 65 82 107 48 120 -34
13 -228 6 -258 -9z"/>
<path d="M6347 1347 c-9 -8 -35 -17 -56 -21 -21 -3 -41 -13 -45 -21 -3 -8 -15
-15 -26 -15 -12 0 -28 -6 -35 -12 -33 -30 -45 -38 -55 -38 -5 0 -10 -7 -10
-15 0 -8 -7 -15 -15 -15 -8 0 -15 -7 -15 -15 0 -8 -4 -15 -8 -15 -17 0 -50
-98 -57 -170 -5 -41 -10 -86 -13 -100 -9 -53 -13 -320 -5 -351 11 -39 51 -56
80 -33 10 7 25 14 33 14 8 0 28 16 43 35 15 19 34 35 42 35 8 0 15 5 15 11 0
6 7 17 15 25 11 12 14 42 13 137 0 67 -4 127 -9 132 -4 6 3 19 17 30 21 17
114 108 159 156 8 9 15 23 15 32 0 9 4 18 9 21 5 4 12 25 16 48 4 23 14 48 21
56 15 15 19 78 5 86 -4 3 -33 8 -62 11 -38 4 -59 2 -72 -8z"/>
<path d="M9585 1137 c-11 -8 -39 -18 -62 -22 -24 -4 -45 -11 -49 -16 -3 -5
-14 -9 -25 -9 -11 0 -22 -7 -25 -15 -4 -8 -12 -15 -20 -15 -7 0 -28 -16 -47
-35 -19 -19 -39 -35 -46 -35 -6 0 -11 -9 -11 -20 0 -11 -5 -20 -11 -20 -6 0
-9 -10 -7 -22 2 -19 10 -24 40 -26 21 -2 52 4 70 12 18 8 68 17 111 20 43 2
83 8 90 14 7 5 24 12 40 16 15 3 27 11 27 16 0 6 7 10 15 10 9 0 18 7 21 15 4
8 12 15 20 15 8 0 14 6 14 14 0 8 7 16 15 20 8 3 15 15 15 26 0 11 5 20 11 20
6 0 9 10 7 23 -3 21 -8 22 -88 25 -61 2 -91 -1 -105 -11z"/>
<path d="M17870 980 c-8 -5 -27 -10 -42 -10 -16 0 -28 -5 -28 -10 0 -6 -8 -14
-17 -17 -20 -8 -29 -15 -110 -93 -49 -46 -63 -66 -65 -92 -3 -29 0 -33 25 -36
18 -2 29 2 33 12 3 9 12 16 19 16 6 0 21 8 32 18 26 22 133 19 133 -4 0 -8 7
-14 15 -14 8 0 15 -5 15 -11 0 -20 -29 -39 -59 -39 -16 0 -36 -7 -45 -15 -8
-8 -22 -15 -30 -15 -9 0 -16 -7 -16 -15 0 -8 -7 -15 -15 -15 -8 0 -15 -6 -15
-12 0 -7 -18 -25 -40 -41 -56 -40 -70 -74 -70 -178 0 -54 4 -90 11 -95 6 -3
36 -6 65 -5 49 1 69 6 114 33 8 5 23 11 33 14 9 4 17 13 17 20 0 8 4 14 9 14
12 0 141 128 141 140 0 6 7 10 15 10 8 0 15 6 15 14 0 8 7 16 15 20 8 3 15 12
15 20 0 7 7 16 15 20 8 3 15 14 15 24 0 10 5 23 11 29 17 17 18 235 2 240 -7
3 -13 11 -13 19 0 8 -12 26 -26 39 -23 21 -37 25 -93 25 -36 0 -73 -5 -81 -10z"/>
</g>
</svg>
