<svg viewBox="0 0 696 84.48" xmlns="http://www.w3.org/2000/svg"><path d="M431.93 83.28c-1.06-1.22-3.14-5.06-3.748-6.917-.354-1.08-.792-3.454-.974-5.277-.382-3.821-.4-22-.036-36.206.21-8.251.338-9.983.825-11.2 1.393-3.485 7.255-9.673 8.234-8.694.273.273.106.668-.667 1.57-1.525 1.78-2.854 4.75-3.249 7.263-.41 2.608-.559 40.941-.173 44.661.403 3.886 2.362 8.569 4.58 10.946.778.834.788.896.27 1.687-.735 1.121-3.016 2.728-3.873 2.728-.387 0-.922-.252-1.189-.56zm170.63-.595c0-.283 1.158-1.822 2.574-3.418 2.007-2.264 2.993-3.746 4.48-6.733 1.048-2.106 1.906-4.08 1.906-4.387 0-.31-.32-.64-.72-.743-.866-.223-5.68-7.194-5.68-8.225 0-1.22 3.234-3.711 4.292-3.305.271.104 1.444 1.614 2.607 3.355 1.164 1.742 2.262 3.257 2.44 3.368.18.11 1.211-.665 2.293-1.722 1.903-1.859 2.995-2.635 3.707-2.635.593 0 .385.476-1.341 3.07-.925 1.392-2.905 4.971-4.4 7.955-2.605 5.2-2.868 5.588-6.334 9.357-1.99 2.163-3.888 4.078-4.22 4.255-.891.478-1.604.392-1.604-.192zm-109.44-3.946c0-.357.806-1.33 1.895-2.29 1.43-1.259 2.149-2.217 2.926-3.903l1.03-2.235-.173-6.915c-.12-4.84-.367-8.02-.82-10.596a124.862 124.862 0 01-1.015-7.2c-.201-1.936-.572-4.36-.825-5.386s-.458-2.457-.458-3.18c0-2.159-1.234-5.923-3.236-9.87-1.036-2.044-1.884-3.977-1.884-4.295 0-.85 2.734-3.35 3.664-3.35.96 0 1.63.912 3.326 4.534.713 1.523 1.45 2.863 1.636 2.978.197.122.616-.436.999-1.33.409-.955 1.625-2.53 3.197-4.142l2.538-2.601v-2.542c0-2.938-.704-5.412-1.624-5.704-.403-.128-1.101.156-2.036.828-1.59 1.14-2.42 1.079-2.42-.182 0-1.138.713-2.116 2.78-3.82 1.656-1.362 1.897-1.458 3.639-1.458 1.49 0 2.022.144 2.645.72 1.266 1.17 1.816 3.11 1.816 6.415 0 3.438 0 3.438-3.385 6.96-1.702 1.77-2.38 2.728-2.54 3.58-.12.64-.124 1.316-.008 1.504.128.207 1.583.34 3.721.34 2.8 0 3.548.096 3.693.472.236.617-.991 2.12-2.602 3.187-1.223.81-1.453.846-5.217.799-2.166-.027-4.007.02-4.09.104-.15.15-.01 1.237 1.028 7.919.286 1.848.633 4.584.77 6.08s.55 4.448.918 6.56c.538 3.086.67 5.18.67 10.665v6.825l-1.2 2.27c-1.226 2.319-4.646 6.09-7.202 7.942-1.505 1.09-2.157 1.186-2.157.316zm-111.86-1.724c-.28-.727.384-1.909 2.068-3.684.892-.94 2.076-2.524 2.632-3.52a65.395 65.395 0 012.067-3.411c.635-.962 1.829-3.918 2.996-7.418l1.94-5.817V45.77c0-6.79-.053-7.5-.647-8.663-.355-.697-.865-2.12-1.132-3.163-.493-1.925-2.846-6.335-4.816-9.027-.597-.815-1.085-1.71-1.085-1.989 0-.98 2.95-3.728 4.002-3.728.107 0 .604.449 1.106.998 1.038 1.137 1.612.998 1.612-.39 0-.697.408-1.392 1.51-2.57.83-.888 1.88-1.806 2.333-2.04 1.568-.81 4.518-1.722 4.988-1.542 1.474.566 1.961 5.737.784 8.33-.56 1.234-1.615 4.865-1.615 5.56 0 .531 2.781.307 4.205-.339 1.778-.807 2.515-.82 2.515-.044 0 1.454-5.107 4.682-8.028 5.073-1.563.21-1.815.686-1.127 2.135.426.898.515 2.33.515 8.287 0 6.89-.035 7.302-.816 9.551a1398.86 1398.86 0 00-2.055 5.985c-.958 2.811-1.978 4.86-4.503 9.045-3.85 6.381-4.782 7.615-6.86 9.093-1.669 1.186-2.33 1.36-2.59.683zm15.173-51.454c.413-1.072.629-2.06.48-2.194-.445-.404-4.27-.681-4.27-.31 0 .365 1.114 2.628 1.843 3.743.733 1.122 1.137.865 1.947-1.239zm58.93 50.288c0-.523.355-1.754.79-2.735.433-.982.936-2.318 1.115-2.969l.327-1.183-3.356-3.272c-2.26-2.204-3.356-3.502-3.356-3.978 0-.87 2.702-3.472 3.604-3.472.349 0 1.558.864 2.687 1.92 1.129 1.056 2.227 1.918 2.44 1.916.413-.004 1.829-1.993 1.829-2.567 0-.187.713-1.053 1.585-1.924 1.07-1.07 1.85-1.585 2.4-1.585 1.09 0 1.042.386-.439 3.556-.69 1.476-1.356 3.235-1.48 3.909-.125.673-.728 2.473-1.342 4a732.401 732.401 0 00-1.743 4.375c-.668 1.704-2.422 3.76-3.845 4.506-1.168.614-1.216.594-1.216-.497zm-17.291-1.137c-1.58-1.166-1.885-1.927-1.898-4.743l-.011-2.511 1.952-1.864c1.107-1.056 2.697-2.186 3.671-2.609.945-.41 1.797-.941 1.892-1.181.237-.598-.961-2.454-2.185-3.386-1.538-1.17-2.496-1.289-4.222-.526-.83.368-1.712.668-1.96.668-.68 0 0-1.09 1.56-2.501 4.384-3.966 6.703-4.14 9.939-.749 2.114 2.217 2.274 2.791 2.297 8.21l.016 3.84-1.764 2.558c-2.22 3.221-5.192 5.602-6.992 5.602-.78 0-1.583-.283-2.295-.808zm5.76-4.61c.402-.753.442-4.395.05-4.637-.153-.095-.873.257-1.6.783-1.532 1.11-1.739 2.252-.656 3.629.782.994 1.741 1.092 2.206.224zm132.81 4.843c0-.14.936-1.665 2.08-3.388 1.144-1.723 2.08-3.342 2.08-3.598 0-.256-.313-.888-.695-1.405-.584-.79-.637-1.067-.332-1.736.554-1.216 2.853-2.738 4.136-2.738.673 0 1.496-.307 2.142-.8 2.036-1.553 2.722-.798 1.309 1.44-.44.697-.8 1.46-.8 1.694 0 .486 1.632 2.146 2.11 2.146.174 0 .958-.665 1.743-1.477 1.294-1.34 4.674-3.322 5.667-3.323.617 0 .473-.578-.24-.96-.858-.459-.812-.742.334-2.047 1.366-1.556 3.637-2.621 4.627-2.17 1.297.59 2.079 2.93 2.079 6.216v2.877l-2.074 2.034c-1.141 1.118-2.617 2.392-3.28 2.83-1.487.983-4.948 1.742-7.033 1.542-1.175-.113-1.663-.024-1.985.364-.72.868-1.961.603-3.585-.766-.835-.704-1.615-1.28-1.733-1.28s-1.27 1.08-2.56 2.4c-1.716 1.755-2.568 2.4-3.168 2.4-.452 0-.822-.115-.822-.255zm20.82-7.756c.399-.213.62-.67.62-1.28 0-.522-.094-.949-.209-.949-.64 0-3.631 1.745-3.631 2.118 0 .535 2.28.614 3.22.11zm-273.84 6.11c-.636-.744-2.516-4.874-5.081-11.164l-1.74-4.265v-5.507c0-3.029.21-7.158.467-9.175.257-2.017.622-4.86.812-6.319.364-2.802 1.957-9.501 2.5-10.51 1.042-1.941 3.816-4.598 4.8-4.598.536 0 .46.488-.719 4.64-1.176 4.142-1.385 5.194-2.126 10.72-.771 5.744-1.15 15.545-.673 17.44.385 1.536 3.147 8.175 3.58 8.608.395.395 1.476-.182 3.492-1.866.858-.716 2.033-1.67 2.61-2.119l1.051-.816-.762-1.904c-.835-2.086-1.48-3.023-2.082-3.023-.216 0-.557-.2-.76-.445-.83-1 3.328-4.306 4.914-3.908.967.243 1.879 1.502 2.708 3.741.505 1.363.662 2.685.735 6.212l.093 4.48-1.003 1.443c-1.183 1.703-4.29 4.228-6.25 5.077-.763.331-1.747.994-2.187 1.472-1.918 2.085-3.552 2.752-4.379 1.786zm8.46-7.783c.222-.174.4-1.008.4-1.875 0-1.23-.111-1.56-.523-1.56-1.086 0-3.638 2.053-3.638 2.927 0 .125.217.443.483.709.517.517 2.521.395 3.277-.2zm4.56 7.593c0-.27 1.151-1.714 2.56-3.208 3.025-3.212 3.121-3.663 1.28-5.977-.705-.884-1.28-1.81-1.28-2.058 0-.612 2.684-3.18 3.564-3.41.531-.14.97.09 1.75.92.574.607 1.146 1.104 1.273 1.104s.992-.72 1.922-1.6c3.142-2.972 4.004-1.74 1.546 2.21-.987 1.586-1.408 2.574-1.292 3.031.174.684 1.58 2.187 3.797 4.054.66.556 1.2 1.288 1.2 1.627s-.645 1.26-1.432 2.047c-2.068 2.068-2.705 1.976-5.608-.809-1.285-1.232-2.44-2.24-2.569-2.24-.128 0-.43.24-.672.532-.242.293-1.415 1.373-2.608 2.4-2.126 1.832-3.431 2.356-3.431 1.377zm227.82-.008c-.6-.723-.781-3.79-.293-4.968.656-1.585 4.431-4.624 6.486-5.221.964-.28 1.84-.738 1.948-1.017.333-.867.215-1.883-.304-2.624-.423-.605-.794-.71-2.48-.71-1.415.001-2.28.184-3.03.64-2.138 1.304-2.72.417-.891-1.359.605-.588 1.926-1.637 2.934-2.332 1.653-1.138 2.067-1.275 4.177-1.381 2.315-.117 2.356-.105 3.466 1.004l1.122 1.123v7.374l-1.118 1.385c-.615.762-1.64 2.073-2.277 2.915-2.051 2.708-6.453 5.646-8.485 5.663-.463.004-1.028-.218-1.256-.493zm6.842-5.154c1.434-1.434 1.544-2.126.294-1.834-2.18.508-2.987 1.324-2.518 2.546.29.754.98.533 2.224-.712zm-319.78.47a35.11 35.11 0 01-1.168-3.188c-.48-1.614-1.395-2.509-2.568-2.509-.987 0-1.213-.53-.615-1.443.71-1.084.635-1.437-.308-1.437-.449 0-1.254-.226-1.79-.503-1.217-.63-1.7-.45-2.373.887-1.03 2.04-3.835 4.422-4.63 3.93-.594-.366-.302-1.267 1.321-4.08 1.403-2.43 1.603-2.986 1.423-3.945-.3-1.602-.001-2.228 1.68-3.511 1.375-1.05 1.607-1.122 3.017-.928l1.528.21V44.24c0-7.655 0-7.666 1.095-12.047.763-3.058 1.35-4.721 1.94-5.494 1.037-1.36 4.461-4.244 5.514-4.644 1.814-.69 5.912.087 7.187 1.363.586.586.643.939.502 3.102-.137 2.112-.42 3.024-2.093 6.761-2.055 4.591-3.566 6.699-6.417 8.952-2.735 2.162-2.93 2.557-2.732 5.556.456 6.934 1.116 9.759 2.39 10.24.796.3.852.45.845 2.267-.005 1.388.237 2.536.843 4.006.468 1.133.772 2.308.676 2.61-.299.94-2.96 3.17-3.784 3.17-.62 0-.905-.32-1.483-1.664zm2.175-27.614c.54-.453 1.33-1.728 1.837-2.96.49-1.19 1.314-3.158 1.832-4.375.839-1.97 1.095-3.622.904-5.829-.033-.376-1.156-.887-2.678-1.22-1.073-.235-2.152.282-2.157 1.033-.002.302-.362 1.988-.8 3.748-.597 2.397-.796 4.048-.796 6.587 0 4.196.155 4.45 1.858 3.017zm-41.738 28.17c-.094-.245.267-1.356.803-2.469 1.43-2.974 2.918-6.93 2.905-7.728-.006-.382-.206-1.047-.444-1.478-.575-1.037-.19-1.818 1.549-3.137.98-.745 1.71-1.04 2.57-1.04 2.168 0 3.275-.8 4.376-3.16 1.733-3.714 2.845-6.689 3.515-9.402.788-3.191 1.702-4.828 3.539-6.34 2.538-2.087 3.344-1.845 2.22.667-.61 1.361-.617 2.115-.018 1.745.587-.363 1.585.505 1.589 1.38.002.479.455 1.734 1.007 2.79 4.144 7.934 4.571 9.166 3.664 10.55-.289.441-1.256 1.38-2.15 2.086l-1.623 1.283h-6.817c-7.293 0-7.205-.02-7.205 1.615 0 .332-.433 1.096-.962 1.698-.529.602-1.163 1.651-1.41 2.331-1.062 2.924-2.543 5.695-3.738 6.992-1.443 1.565-3.087 2.353-3.37 1.616zm21.196-19.192c.205-.534-2.093-5.048-2.66-5.223-.694-.215-3.241 4.676-2.804 5.384.102.164 1.333.299 2.736.299 1.922 0 2.595-.114 2.728-.46zm-207.41 16.7c-.302-.925-.83-2.24-1.174-2.923-.509-1.013-.567-1.467-.316-2.458.32-1.26.027-3.846-.624-5.5-.365-.928-.494-.967-2.908-.884-1.401.048-1.52-.007-1.52-.708 0-.418.173-.932.384-1.143.554-.555-.205-.511-1.115.063-.968.611-8.885 1.577-13.181 1.607-3.166.023-3.524-.032-3.63-.563-.143-.73.975-1.96 2.662-2.925 1.076-.615 1.92-.763 5.28-.925 3.764-.181 6.206-.54 6.643-.977.246-.247-1.053-2.58-2.24-4.024-.507-.616-1.614-2.632-2.46-4.48-.856-1.871-1.731-3.36-1.974-3.36-.466 0-2.36 4.735-2.875 7.19-.444 2.114-3.13 4.727-4.374 4.253-.52-.197-.484-2.17.065-3.603.236-.616.954-2.734 1.596-4.707.87-2.677 1.535-4.077 2.621-5.522 1.667-2.217 3.737-4.023 4.964-4.331 1.122-.282 1.895.749 4.584 6.107 2.32 4.623 3.836 6.682 4.336 5.893.168-.264.31-1.92.317-3.68.022-5.517 1.101-8.352 4.281-11.246 2.118-1.928 2.94-2.38 3.772-2.073.966.358 2.164 1.604 2.336 2.43.565 2.713.444 2.521 1.222 1.95a76.76 76.76 0 012.106-1.456c.77-.515 1.59-1.207 1.821-1.538.5-.714.854-7.343.407-7.62-.163-.1-.757.17-1.322.6-2.224 1.693-3.106 1.306-3.106-1.362 0-1.723.586-2.78 2.356-4.247 1.644-1.363 2.701-1.838 4.086-1.838 2.356 0 3.158 1.661 3.158 6.54 0 4.038-.527 5.501-2.874 7.984-1.62 1.713-1.908 2.554-1.275 3.737.463.865.903.777 2.514-.504.773-.615 1.673-1.117 2-1.117 1.264 0 .455 3.19-1.405 5.54-1.242 1.57-3.989 3.42-5.076 3.42-1.02 0-1.402-.42-2.048-2.252-.478-1.355-1.302-2.548-1.76-2.548-.122 0-.311.944-.42 2.097-.242 2.605-1.347 4.735-3.466 6.687-1.692 1.559-1.712 1.627-1.197 4.03.308 1.436.493 1.704 1.452 2.105.735.307 1.068.642 1.007 1.01-.074.443.189.567 1.348.635 2.105.123 2.88.352 2.88.85S30.22 54.4 29.694 54.4c-.54 0-.04 3.573.868 6.201 1.237 3.584 1.062 4.391-1.383 6.359-2.111 1.698-2.749 1.61-3.432-.48zm.838-27.2c.087-1.79-.043-7.41-.174-7.542-.44-.44-.655.599-.755 3.66-.06 1.84-.03 3.557.07 3.814.219.571.832.62.859.067zm65.86 28.163c-.211-.394-.452-2.481-.535-4.64-.172-4.46-.214-4.512-2.463-2.965-.766.528-1.777 1.105-2.247 1.284-.726.276-.877.232-1.014-.292-.089-.339-.483-.697-.876-.796-.393-.098-.88-.542-1.083-.987-.533-1.17-1.326-.998-2.907.633-1.38 1.424-2.595 1.879-2.595.97 0-.257.43-1.147.956-1.976 1.135-1.789 1.498-3.39 1.011-4.459-.458-1.005-.862-.972-2.607.219-1.32.9-1.585.965-3.2.77-.968-.117-3.805-.31-6.305-.429-2.635-.125-4.695-.366-4.902-.573-.262-.263-.215-.687.18-1.6.295-.683.726-1.89.959-2.682 1.044-3.56 3.07-9.113 3.691-10.117.742-1.2 3.32-3.323 4.035-3.323.245 0 .731.667 1.08 1.482.35.816 1.058 2.016 1.573 2.666.516.651 1.549 2.324 2.295 3.718 2.382 4.445 3.097 5.064 4.903 4.241.702-.32.922-.274 1.555.32.91.854 1.206.86 2.529.054.576-.351 1.155-.64 1.287-.64.398-.002.25 1.384-.24 2.239-.664 1.161-.59 1.66.475 3.232.567.837.956 1.83.96 2.448.007 1.31.57 1.345 1.886.117l.988-.924.003-9.876c.002-5.673.14-10.353.326-10.995.177-.615.323-1.785.323-2.6 0-2.55.346-3.46 2.01-5.281C96.372 24.63 97.449 24 99.082 24c1.327 0 3.765 1.27 4.279 2.23.179.334.325 1.789.325 3.232 0 2.969-.142 3.293-3.232 7.338-1.008 1.32-2.199 3.232-2.646 4.248-.743 1.69-.817 2.26-.859 6.662-.025 2.648.034 4.893.13 4.99.096.096.611.022 1.144-.164 1.448-.504 1.449.021.001 1.751l-1.299 1.553.083 4.32c.045 2.376-.028 4.645-.162 5.043-.265.783-2.907 2.957-3.594 2.957-.233 0-.596-.322-.806-.716zM72.804 49.921l.84-.319-1.128-2c-1.47-2.608-2.07-2.638-2.858-.144-.324 1.02-.508 2.065-.41 2.32.209.544 2.281.628 3.556.143zm25.52-14.42c.553-1.087.77-4.184.367-5.234-.287-.746-1.06-.616-1.383.233-.238.627-.488 4.548-.377 5.927.058.727.807.23 1.394-.926zm453.68 30.876c0-.276.565-1.176 1.255-2 1.352-1.614 2.906-4.81 2.906-5.978 0-.809-.223-1.024-2.168-2.094l-1.368-.752-.956 1.16c-1.113 1.35-2.827 2.487-3.75 2.487-.354 0-.88-.36-1.169-.8-.756-1.154-1.404-1-3.22.766-3.193 3.107-4.02 2.303-1.57-1.526l1.48-2.313-1-1.245c-1.326-1.651-1.27-2.403.29-3.888 1.663-1.582 2.825-1.906 3.45-.964.6.903 1.365.871 2.822-.118 1.729-1.173 2.123-.584.976 1.456l-.892 1.587.862.862.862.862.926-1.036c1.047-1.173 3.038-2.603 3.623-2.603.214 0 1.05.504 1.856 1.12.807.616 1.658 1.12 1.892 1.12.234 0 1.101-.54 1.927-1.2.826-.66 2.048-1.59 2.714-2.066.667-.476 1.797-1.31 2.512-1.853 1.504-1.144 5.003-1.95 11.02-2.542 5.361-.527 5.12-.43 5.12-2.041 0-.754-.172-1.543-.383-1.754-.233-.233-1.362-.384-2.862-.384-1.375 0-2.568-.149-2.683-.334-.516-.834 2.608-3.689 4.436-4.055.51-.102 1.027-.478 1.18-.857.15-.37.42-5.138.601-10.594.365-10.978.53-11.964 2.48-14.804 1.55-2.259 4.498-4.454 6.354-4.732 1.577-.237 3.062.024 3.43.602.4.629.265 6.016-.201 8.055-.498 2.175-.961 6.56-.694 6.56.097 0 .837-.504 1.644-1.12 1.9-1.45 3.911-1.571 5.082-.307 2.553 2.754 4.233 10.919 2.902 14.102-.87 2.084-6.242 7.084-8.486 7.9-1.15.418 5.257.005 9.52-.614 1.215-.176 1.444-1.163.4-1.722-.855-.458-.806-1.25.16-2.56l.8-1.084.006-24.036.94-1.637c.95-1.657 3.313-3.984 4.86-4.785.507-.263 2.134-.475 4.056-.528 2.846-.08 3.313-.013 4.114.584.9.671.905.69.994 4.773l.09 4.1-1.103 1.66c-1.775 2.674-6.125 6.873-7.12 6.873-.795 0-.455-.886.986-2.575 2.147-2.515 2.417-3.292 2.417-6.954 0-3.787-.18-4.048-2.79-4.048-2.792 0-2.67-.626-2.574 13.243l.084 12.014 1.114.106c.612.058 2.31-.216 3.774-.61 3.022-.812 3.724-.618 2.957.815-.561 1.048-3.379 2.936-4.805 3.22-1.99.395-3.2 1.035-3.2 1.694 0 1.215.74 1.388 6.709 1.573 4.697.145 5.771.263 5.771.634 0 .25-.71 1.2-1.579 2.112l-1.579 1.656-5.06.103c-4.664.096-5.137.16-6.022.824-.528.396-1.208.811-1.51.923-.599.22-1.53-.51-1.53-1.199 0-.705-.921-.842-4.294-.637-6.008.365-12.133 1.299-15.814 2.41-2.266.685-6.613 1.35-12.371 1.896-2.112.2-4.653.57-5.647.822-.993.252-2.246.458-2.783.458-1.333 0-2.17 1.172-4.226 5.92-1.937 4.474-2.52 5.336-5.563 8.234-2.205 2.1-3.381 2.68-3.381 1.663zm37.539-23.46c.738-.333 1.808-.704 2.378-.825 1.331-.284 1.575-.69.568-.942-.923-.232-1.658-1.496-1.957-3.363-.116-.727-.35-1.406-.518-1.51s-.87.36-1.558 1.031c-1.307 1.277-1.55 2.221-.858 3.33.297.476.306.858.035 1.577-.56 1.483-.157 1.631 1.91.701zm9.13-6.916c.393-.367.66-3.18.332-3.507-.199-.2-2.92.497-3.397.87-.452.353-.246 1.613.445 2.72.356.57.635.68 1.322.52.478-.112 1.063-.383 1.298-.603zm-8.908-1.459c.264-.137 1.254-.999 2.2-1.915 1.068-1.034 2.606-2.075 4.062-2.747 1.288-.596 2.424-1.215 2.524-1.378.266-.43-.719-3.134-1.66-4.555-.736-1.113-.941-1.227-2.217-1.227-1.356 0-1.512.11-4.437 3.107l-3.032 3.106v2.92c0 1.606.093 3.014.208 3.128.222.222 1.562-.028 2.352-.439zm-1.485-9.822c.862-1.678 1.94-9.49 1.755-12.717-.088-1.527-.225-1.939-.676-2.024-.955-.182-1.523 1.82-1.692 5.961a949.89 949.89 0 01-.298 6.7c-.152 3.073.103 3.655.911 2.08zM193.73 66.093c-.098-.257-.127-3.965-.065-8.24.104-7.047.176-7.907.778-9.213.739-1.601 2.487-3.31 5.09-4.975 1.579-1.01 1.933-1.105 4.151-1.105 1.765 0 2.472.12 2.595.441.093.243-.278 1.719-.824 3.28-1.078 3.082-1.805 4.062-5.084 6.86l-2.038 1.74.145 4.289.144 4.29-.953 1.086c-1.547 1.762-3.554 2.55-3.939 1.547zm6.51-16.345c.946-2.443.927-2.708-.196-2.708-1.127 0-1.314.418-1.314 2.933 0 2.435.509 2.36 1.51-.225zM158.942 64.38c-.289-.32-.658-1.003-.82-1.52l-1.034-3.296c-.407-1.297-.922-2.427-1.143-2.512-.222-.085-.967.292-1.656.837-1.357 1.075-2.609 1.273-3.24.512-.69-.832-1.532-.534-2.51.887-1.283 1.865-3.735 4.073-4.523 4.073-1.072 0-.974-.31 1.388-4.43.64-1.118 1.165-2.263 1.165-2.546 0-.282-.463-.992-1.03-1.576-.966-.996-1-1.11-.56-1.83.655-1.07 2.833-2.738 3.575-2.738.34 0 .895.149 1.234.33.478.256.906.165 1.885-.398 1.553-.894 2.162-.545 1.448.832-.26.5-.472 1.02-.472 1.156 0 .322 1.235 1.123 2.208 1.43.625.198.732.148.573-.265-.107-.28.015-1.012.272-1.627.344-.824.467-2.486.467-6.328 0-3.482.166-6.006.5-7.61 1.224-5.883 2.482-10.244 3.65-12.657 1.84-3.8 5.277-7.07 7.152-6.803.643.092.705.305.79 2.713.105 2.938-.922 7.684-2.273 10.507-.42.88-.86 1.992-.976 2.471-.116.48-1.073 1.901-2.127 3.16l-1.916 2.287V48h2.36c2.635 0 3.272.355 2.654 1.48-.52.945-2.177 2.277-3.545 2.848-1.447.604-1.448.891-.029 5.133.616 1.842 1.12 3.605 1.12 3.918 0 .822-3.028 3.58-3.93 3.58-.072 0-.367-.26-.656-.58zm114.19-.056c-.185-.3.986-2.534 3.02-5.763 1.499-2.38 1.491-2.637-.097-3.292-.763-.314-1.784-.986-2.27-1.493-.86-.898-.87-.943-.345-1.828.651-1.1 2.77-2.67 3.582-2.657.324.005 1.148.354 1.831.774 1.383.849 1.861.784 3.185-.431 1.452-1.333 1.542-1.703.987-4.092-.378-1.629-.48-3.437-.4-7.141.103-4.844.128-4.998 1.066-6.603 1.704-2.917 5.56-7.197 7.61-8.447 1.348-.822 7.259-.934 7.91-.15.715.861.245 5.757-.767 8-1.718 3.805-6.484 9.195-8.753 9.9-1.184.367-.876-.546.875-2.594 2.458-2.874 3.536-5.14 3.826-8.042.32-3.197.116-3.584-1.897-3.584-2.22 0-3.014.472-3.97 2.36-.79 1.56-.834 1.91-.834 6.47 0 5.498.697 10.125 2.07 13.73.468 1.232.931 2.492 1.028 2.8.23.73.804.708 2.094-.079.576-.35 1.305-.639 1.62-.64.488 0 .517.103.2.72-.203.395-.812 1.188-1.354 1.76-.952 1.005-.971 1.083-.561 2.24.233.66.694 1.766 1.024 2.46.732 1.54.747 2.065.085 3.01-.74 1.058-2.988 2.61-3.774 2.607-.556-.002-.8-.416-1.416-2.394-1.118-3.597-1.369-3.81-4.747-4.022-1.556-.098-3.034-.242-3.285-.32-.286-.089-.946.596-1.768 1.833-1.64 2.47-2.257 3.166-3.824 4.312-1.353.99-1.65 1.081-1.95.596zm10.287-9.957c1.263-.868 1.418-1.1 1.235-1.84-.26-1.054-.642-1.464-1.1-1.18-.647.4-2.252 4.014-1.782 4.014.112 0 .853-.447 1.648-.994zm249 9.437c-.818-.416-1.853-1.234-2.299-1.82l-.81-1.062-.028-7.577-.028-7.576 1.175-1.77c1.229-1.852 3.175-3.864 4.391-4.54 1.02-.566 3.787-.519 4.642.08.66.462.711.746.711 3.953 0 4.145-.238 4.618-3.76 7.475l-2.32 1.88v1.913c0 2.367.555 3.486 2.314 4.668.749.503 1.407 1.151 1.463 1.441.134.693-1.962 2.994-3.082 3.385-.702.244-1.181.153-2.368-.45zm2.806-15.257c.101-.403.14-1.59.086-2.637-.078-1.511-.213-1.925-.658-2.01-.498-.094-.56.197-.56 2.637 0 2.21.092 2.744.474 2.744.26 0 .557-.33.658-.734zM202.896 63.76c0-.308.36-1.268.8-2.134 1.017-2.004 1.003-2.347-.155-4.057-.525-.775-.957-1.685-.96-2.023-.01-.986 2.657-3.32 4.062-3.555.666-.112 1.954-.407 2.861-.657.907-.25 1.807-.454 2-.454.444 0 .458 1.045.02 1.483-.494.494-.094 1.206 1.31 2.335.694.557 1.26 1.141 1.26 1.298 0 .265-1.026 1.588-3.56 4.585-1.187 1.405-2.629 2.25-3.416 2-.308-.098-1.17.241-1.984.782-1.645 1.092-2.24 1.197-2.238.397zm471.36-1.418c0-.453.93-1.61 2.64-3.288 1.788-1.753 2.942-3.205 3.576-4.5.515-1.053 1.271-2.45 1.68-3.107 1.204-1.932 1.022-2.53-1.336-4.383-2.123-1.668-2.428-2.294-1.743-3.575.394-.737 2.777-2.529 3.363-2.529.222 0 1.266.72 2.319 1.6 1.053.88 2.154 1.6 2.447 1.6.293 0 1.28-.694 2.193-1.543 2.054-1.908 3.521-2.937 4.19-2.937 1.005 0 .479.934-1.506 2.678-2.67 2.343-3.088 3.12-2.35 4.37.407.688.47 1.1.238 1.534-.497.93-2.814 2.902-3.657 3.113-.43.108-1.055.712-1.433 1.386-1.232 2.192-5.923 7.493-8.307 9.388-1.375 1.093-2.314 1.171-2.314.193zm-35.2-1.021c0-.64 1.203-3.257 2.273-4.945.983-1.549 1.194-2.616.518-2.616-.224 0-1.177.578-2.116 1.283-.939.706-2.083 1.378-2.543 1.493-.46.115-4.223.006-8.364-.243l-7.528-.452-.099-.857c-.055-.471.182-1.551.525-2.4.344-.849 1.092-2.84 1.662-4.423s1.75-4.392 2.62-6.24c1.351-2.871 1.556-3.556 1.405-4.706-.203-1.543.442-2.54 2.626-4.052 1.193-.827 1.327-.85 2.61-.457l1.352.415-.192 1.41c-.176 1.305-.071 1.586 1.409 3.768 1.621 2.389 4.544 7.917 4.96 9.382.463 1.627 1.57 3.52 2.06 3.52.883 0 3.545-2.135 4.547-3.648 1.131-1.708 3.438-4.053 4.597-4.673 1.717-.92 1.484.124-.802 3.59-1.232 1.87-2.24 3.609-2.24 3.865 0 .596.835 1.3 1.242 1.049.276-.17 3.224-5.294 3.512-6.103.062-.176.66-1.472 1.326-2.88a210.72 210.72 0 002.097-4.576c.673-1.534 1.434-2.529 3.182-4.16 1.263-1.18 2.695-2.356 3.181-2.616 1.09-.58 1.33-.316 2.583 2.82 1.553 3.893 4.095 8.825 5.654 10.968 2.102 2.891 2.654 4.266 2.176 5.42-.41.99-1.978 2.522-3.583 3.5-.965.589-1.614.641-7.984.642-3.814 0-7.162.089-7.44.196-.743.285-.618.939.294 1.536 1.007.66 1.002.984-.037 2.346-.927 1.216-2.543 2.32-3.397 2.322-.305 0-1.66-1.007-3.011-2.239s-2.643-2.24-2.87-2.24-.85.633-1.381 1.406c-1.11 1.611-3.745 4.034-4.39 4.034a.438.438 0 01-.434-.439zm-3.946-9.987c.225-.585-2.54-6.321-4.048-8.397-.82-1.13-1.088-1.314-1.463-1.003-.454.377-3.023 8.065-3.023 9.047 0 .529.926.649 6.17.798 1.723.049 2.21-.043 2.364-.445zm26.131-1.324c5.645-.187 5.918-.31 4.608-2.074-1.064-1.431-3.866-6.836-4.444-8.57-.258-.773-.629-1.46-.824-1.524-.196-.065-1.224 1.654-2.285 3.82-1.06 2.166-2.44 4.86-3.064 5.985-.903 1.626-1.058 2.14-.758 2.502.234.282.63.374 1.04.242.364-.118 2.942-.29 5.727-.381zm-178.63 6.828c-.276-.333-.138-.934.59-2.554 1.288-2.873 1.299-3.087.18-3.713-.529-.295-1.105-.971-1.28-1.502-.177-.53-1.077-1.792-2-2.803-.925-1.01-1.68-2.041-1.68-2.29 0-.698 2.125-2.891 3.256-3.36.985-.407 1.041-.383 2.318 1.003 2.386 2.593 2.154 2.592 4.537.018 1.88-2.03 3.358-2.994 3.845-2.506.092.092-.139.84-.513 1.661-.375.822-1.094 2.888-1.6 4.591-1.93 6.503-3.81 9.87-6.332 11.333-.802.466-1.018.486-1.32.121zm-68.793-.765c-.167-.313-.254-1.38-.194-2.372.135-2.245-.282-2.867-2.092-3.113-.76-.103-1.433-.347-1.498-.542-.122-.37.98-1.607 2.723-3.057.993-.826 1.023-.925 1.023-3.393 0-2.935.517-3.976 2.78-5.6 2.159-1.549 2.325-1.27 2.111 3.538-.14 3.157-.088 4.19.223 4.383.224.138 1.363.227 2.532.197 2.535-.064 3.522.43 2.96 1.48-.56 1.047-2.772 2.642-4.26 3.073-1.224.354-1.388.522-1.622 1.648-.294 1.415-.818 2.1-2.612 3.412-1.461 1.07-1.668 1.104-2.073.345zm-59.409-.784c-.204-.534.791-3.224 1.915-5.175.416-.723 1.37-2.754 2.12-4.514 1.172-2.75 1.367-3.531 1.39-5.552.026-2.339.033-2.36 1.306-3.438.704-.596 1.539-1.17 1.856-1.274.883-.29 2.12.714 2.782 2.26.328.766 1.092 1.944 1.697 2.619.605.674 1.392 1.801 1.75 2.505 1.483 2.928 4.721 7.2 5.455 7.2.638 0 3.26-2.175 3.26-2.703 0-.232-.504-.805-1.12-1.275-.616-.47-1.12-1.113-1.12-1.428 0-.72 2.47-3.199 3.426-3.439.438-.11 1.148.09 1.835.514l1.122.693 1.528-1.422c2.689-2.501 4.569-3.522 4.569-2.48 0 .144-.864 1.294-1.92 2.554s-1.92 2.454-1.92 2.65c0 .197.992 1.456 2.204 2.799 2.08 2.304 2.182 2.486 1.79 3.23-.502.955-3.29 3.137-4.058 3.176-.32.016-2.11-1.91-2.74-2.95-1.13-1.86-2.287-1.391-6.476 2.624-2.929 2.807-3.896 3.38-4.845 2.873-.458-.245-1.844-.3-4.238-.172-11.373.614-11.38.614-11.568.125zm11.85-4.727c.346-.288.38-.526.133-.915a105.77 105.77 0 01-1.518-2.607c-1.577-2.772-2.063-2.75-3.63.16-1.177 2.187-1.468 3.32-.984 3.822.363.377 5.462-.015 5.999-.46zm104.55 3.966c-1.11-.418-3.413-.945-5.12-1.172-3.024-.402-3.108-.435-3.206-1.284-.12-1.025-.007-.994-1.45-.392-.959.401-3.367.48-14.599.48-12.73 0-13.45-.03-13.45-.575 0-.52 1.434-2.085 3.009-3.282.486-.37 2.477-.495 9.92-.623l9.311-.16.093-3.008.093-3.009-2.748.194c-2.287.162-2.78.113-2.935-.292-.266-.692 1.576-2.483 3.653-3.552l1.736-.893-.207-3.04c-.114-1.672-.337-3.904-.495-4.96-.158-1.056-.308-6.053-.333-11.105-.053-10.382-.146-9.934 2.644-12.624 2.506-2.415 3.633-2.99 5.855-2.99 2.914 0 3.212.43 3.178 4.594-.03 3.686-.265 4.738-2.147 9.61-1.073 2.776-1.693 3.874-3.047 5.396-.97 1.09-1.627 2.102-1.53 2.357.095.245.396 2.713.67 5.484.676 6.815.572 6.48 2.007 6.474.656-.003 1.77-.213 2.474-.466 1.815-.654 2.72-.62 2.72.1 0 .899-2.496 3.176-4.14 3.778-.803.294-1.627.692-1.831.884-.22.207-.415 1.717-.48 3.709l-.11 3.36 1.664.096c1.541.089 1.697.03 2.126-.8.255-.493.637-1.54.849-2.328.212-.788.816-2.032 1.343-2.766.822-1.145.905-1.433.581-2.038-.207-.387-.293-1.038-.19-1.446.191-.765 3.17-3.358 3.857-3.358.594 0 4.47 5.375 5.6 7.766 1.112 2.355 3.182 5.314 4.753 6.793.56.527 1.017 1.175 1.016 1.44-.004.841-1.151 2.263-2.736 3.39-1.439 1.022-1.687 1.088-3.959 1.054-1.7-.025-3.025-.263-4.439-.796zm1.409-5.7c.096-.25-.307-1.438-.895-2.64-1.408-2.881-1.976-2.906-3.02-.13-.448 1.192-.654 2.175-.49 2.34.24.239 2.382.712 3.821.845.226.02.488-.167.584-.416zm-11.95-34.454c.382-1.39.537-2.933.48-4.774-.083-2.665-.1-2.72-.884-2.72h-.8l-.089 4.91c-.07 3.87-.003 4.88.32 4.774.225-.075.663-1.06.973-2.19zm57.07 40.48c-.107-.278-.194-.858-.194-1.288 0-.923-.997-1.405-2.901-1.405-1.073 0-1.26-.102-1.26-.685 0-.634.497-1.167 3.025-3.254.933-.77.94-.8.567-2.417-.475-2.056-.228-2.724 1.645-4.45 2.092-1.928 2.585-1.825 3.066.646.7 3.586 1.093 5.193 1.363 5.559.146.197 1.123.456 2.17.575 2.043.23 2.398.478 2.088 1.454-.262.826-3.042 2.843-4.253 3.086-.53.105-1.641.753-2.471 1.439-1.604 1.325-2.528 1.566-2.845.74zm-335.43-.19c-.128-.206-.216-1.1-.196-1.986.052-2.259-.165-2.419-2.987-2.205-2.071.156-2.383.111-2.383-.347 0-.759 2.328-2.906 4.005-3.694 1.266-.595 1.435-.797 1.437-1.713.002-1.891 2.464-4.719 4.109-4.719.647 0 .69.154.69 2.496 0 1.515.15 2.647.383 2.88.212.212.986.384 1.72.384 2.122 0 3.338.337 3.326.92-.022 1.04-2.628 3.33-4.248 3.735-.494.123-1.132.602-1.418 1.065-.81 1.31-2.08 2.614-3.028 3.109-1.047.547-1.116.55-1.41.076zm116.86-.546c-.555-.897 2.843-3.462 5.943-4.485 2.269-.75 6.669-.857 6.896-.17.178.541-2.118 2.717-3.556 3.37-.766.348-2.05.596-3.106.6-.99.004-2.412.223-3.16.487-1.529.54-2.756.62-3.017.198zm-184.01-.758a16.655 16.655 0 01-.246-1.68l-.088-.96-1.94.106c-2.762.151-3.153-.403-1.542-2.186.66-.729 1.714-1.589 2.344-1.91.768-.392 1.337-1.018 1.724-1.893.609-1.38 2.959-3.556 3.84-3.556.575 0 .802.705.93 2.88.074 1.272.177 1.45.884 1.53 2.803.313 2.879.817.489 3.248-.963.98-2.455 2.538-3.314 3.462-1.707 1.834-2.813 2.178-3.081.96zm-59.506.16c-.132-.132-2.412-.312-5.068-.4-3.242-.107-4.868-.281-4.95-.53-.197-.594 1.74-2.569 3.225-3.288 1.19-.575 1.97-.661 6.002-.661 4.633 0 5.403.168 5.403 1.183 0 .588-2.182 2.93-3.24 3.477-1.03.533-1.056.537-1.372.22zm202.37-.36c0-.753.691-2.475 2.07-5.16.588-1.144 1.284-2.8 1.548-3.68.881-2.941 2.42-5.742 4.021-7.32 1.723-1.696 2.696-1.868 2.856-.503.052.446.657 1.357 1.345 2.024.883.857 1.404 1.747 1.774 3.026.287.998.942 2.723 1.454 3.836 1.232 2.673 1.19 3.244-.35 4.784-1.793 1.793-3.055 2.312-5.646 2.322-1.206.004-3.416.288-4.912.631-3.497.802-4.16.808-4.16.04zm7.712-4.566c1.817-.612 1.874-.736 1.25-2.748-.308-1-.717-1.87-.907-1.934-.327-.109-2.615 4.022-2.615 4.72 0 .432.923.416 2.272-.038zm-139.19 4.421c-.263-.317-.187-.742.3-1.68.358-.69 1.202-2.91 1.875-4.935 1.7-5.117 3.884-9.491 5.447-10.913 1.351-1.228 4.735-2.66 5.55-2.347.763.293 1.923 2.275 3.173 5.42.629 1.584 1.244 3.215 1.366 3.623.122.409.784 1.883 1.472 3.277.689 1.393 1.252 2.818 1.252 3.166 0 .845-1.747 2.794-3.503 3.91l-1.423.904h-7.578c-5.91 0-7.656-.093-7.93-.425zm13.208-4.249c.55-.21.676-1.094.226-1.582-.154-.167-.606-1.312-1.005-2.544-.77-2.381-2.348-5.754-2.831-6.053-.16-.099-.443.003-.628.227-.483.582-2.255 5.276-2.497 6.615-.112.622-.407 1.532-.655 2.02-.247.49-.363 1.03-.258 1.2.208.337 6.815.437 7.648.117zm186.67-.964c-.862-.26-.667-1.174.48-2.26 1.746-1.653 2.382-1.846 6.8-2.061 5.438-.265 8.582-1.215 8.745-2.643.115-1 .306-.974-2.345-.32-1.356.334-.977-.884.8-2.566l1.6-1.515v-5.063c0-2.964.188-6.106.453-7.578.248-1.384.545-3.296.658-4.25.113-.953.42-2.249.683-2.88.602-1.445 2.488-3.415 4.033-4.213 1.511-.78 3.76-.798 4.77-.04.42.315 1.161.745 1.648.955 1.196.518 1.644 1.62 1.378 3.392-.274 1.827-3.443 6.79-6.398 10.023l-2.105 2.302v4.887l2.08-.223c1.967-.21 2.08-.186 2.08.445 0 .438-.72 1.245-2.095 2.347-2.076 1.663-2.094 1.69-2 3.129l.095 1.45h2.56c1.408 0 3.676-.113 5.04-.253 3.054-.312 3.178-.007.873 2.15-2.003 1.873-3.01 2.286-6.233 2.556-2.142.18-2.855.395-4.368 1.321-.995.609-1.97 1.107-2.167 1.107-.197 0-.531-.38-.742-.843-.38-.834-.41-.84-2.954-.647-1.413.107-3.289.423-4.169.702-1.58.502-8.103.92-9.2.59zm22.73-24.042c1.418-1.805 1.99-3.109 1.99-4.536 0-1.118-.132-1.356-.997-1.803-1.337-.692-1.586-.375-2.081 2.65-.49 2.99-.548 4.89-.149 4.89.161 0 .717-.54 1.236-1.2zM54.101 46.431c-.265-.148-2.353-.367-4.64-.487-5.625-.296-6.047-.79-3.016-3.53l1.339-1.208 4.998.226c7.186.327 8.059.951 5.189 3.718-1.635 1.575-2.71 1.931-3.87 1.281zm247.47-1.174c-.22-.573 1.773-2.798 3.156-3.524 1.289-.677 7.884-.642 8.147.042.238.621-.874 1.86-2.754 3.07-1.341.862-1.62.914-4.89.914-2.856 0-3.501-.088-3.66-.502zm-187.95-3.128c0-.49.85-1.297 1.68-1.591.81-.288.704.494-.181 1.325-.839.788-1.5.905-1.5.266zm326.36-.305c-.463-.211-1.258-.745-1.768-1.185-1.644-1.418-2.033-2.24-2.033-4.29v-1.907l5.467-5.286-.505-1.948c-.277-1.071-.658-2.286-.846-2.699-.269-.588-.225-.93.201-1.58.517-.79 3.185-2.77 3.73-2.77.53 0 1.214 1.522 1.87 4.16.372 1.496 1.207 3.872 1.855 5.28.96 2.086 1.201 3.016 1.297 5.019l.117 2.458-1.512 1.617c-2.321 2.482-6.053 3.966-7.874 3.131zm3.988-5.979c-.073-1.486-.809-2.147-1.857-1.67-1.066.487-1.024.866.222 2.004 1.253 1.145 1.703 1.052 1.635-.334zm-117.53 3.913c-.508-.411-.787-1.168-1.043-2.818-.52-3.356-.238-4.279 1.898-6.231.996-.911 2.036-1.75 2.31-1.863 1.84-.762 3.857-2.14 3.857-2.635 0-.888-.906-1.572-2.084-1.572-.593 0-1.176-.158-1.296-.352-.318-.515.806-1.864 2.558-3.072 1.746-1.203 3.932-1.455 4.69-.542 1.421 1.712 2.127 3.577 2.378 6.286.21 2.27.16 2.622-.594 4.16-1.014 2.07-4.134 5.25-7.016 7.152-3.324 2.193-4.428 2.483-5.658 1.487zm7.664-5.434c.807-1.025.946-4.885.177-4.885-.507 0-2.573 1.114-3.459 1.865-.935.792-.666 4.072.353 4.297.866.192 2.248-.411 2.93-1.277zm232.86 3.7c-1.88-2.466-2.377-5.584-1.196-7.52.963-1.58 4.05-3.682 6.252-4.256 2.475-.646 2.596-1.213.82-3.828-1.476-2.173-2.053-2.58-3.654-2.58-.617 0-1.22-.159-1.34-.353-.295-.477.752-1.827 2.395-3.088 1.925-1.477 3.935-1.477 5.449 0 .585.572 1.549 1.758 2.14 2.636l1.076 1.596v11.913l-.91 1.256c-1.047 1.445-3.567 3.624-5.1 4.408-.576.296-1.958.623-3.07.726-2.015.189-2.027.184-2.862-.91zm6.8-3.919c.218-.261.336-1.177.28-2.16l-.098-1.706-1.12.08c-2.796.197-3.094.66-1.913 2.973.525 1.03.817 1.267 1.56 1.267.503 0 1.084-.204 1.292-.454zm-468.86 1.802c-.87-.178-.674-.967.8-3.23 1.272-1.951 1.368-2.255 1.47-4.676.147-3.451-.327-5.207-1.481-5.483-1.07-.255-1.668-.705-1.668-1.253 0-1.086 3.83-4.306 5.12-4.306.721 0 2.498 2.63 2.872 4.25.172.743.312 2.286.313 3.43 0 2.026-.212 2.684-1.786 5.545-.274.497-.427.975-.34 1.062.087.087.785-.054 1.55-.313s1.498-.404 1.63-.323c1.025.63-1.25 3.187-3.88 4.363-1.563.698-3.664 1.125-4.6.934zm64.614-2.201c-.437-.437-.179-1.053 1.137-2.718a84.586 84.586 0 002.878-3.949c1.292-1.895 1.527-2.474 1.529-3.76.001-.836-.066-1.52-.148-1.52-.083 0-.797.455-1.586 1.012-2.022 1.425-2.424 1.027-2.424-2.402v-2.593l1.956-1.861c2.284-2.173 4.803-3.576 5.918-3.296 1.038.26 1.246 1.238 1.246 5.837 0 3.564-.061 3.973-.722 4.8-1.797 2.248-3.918 5.362-3.918 5.753 0 .319.576.43 2.221.43 3.356 0 3.452 1.07.286 3.185-1.935 1.292-1.948 1.295-5.05 1.295-1.71 0-3.206-.096-3.323-.213z"/></svg>