<svg viewBox="0 0 377.28 398.4" xmlns="http://www.w3.org/2000/svg"><path d="M201.47 397.07c-.387-.553-.51-1.524-.51-4.018 0-1.81-.116-3.29-.256-3.29s-.824.589-1.52 1.307c-2.178 2.249-3.71 2.954-6.765 3.115-3.001.157-3.73-.18-4.107-1.894-.112-.51-.323-.927-.47-.927-.145 0-1.006.943-1.911 2.095-.906 1.153-2.092 2.366-2.635 2.696-2.244 1.365-6.051 1.016-6.883-.631-.237-.47-.404-1.991-.402-3.68.003-3.458.528-4.836 2.748-7.21 1.174-1.255 1.702-1.6 2.336-1.526 1.308.153 1.131 1.003-.604 2.902-.89.973-1.833 2.379-2.095 3.122-.551 1.563-.627 4.233-.146 5.133.344.642 1.641.81 3.144.408.956-.256 5.485-6.345 5.485-7.373 0-.898-1.055-2.016-1.902-2.016-.342 0-1.014-.337-1.492-.748l-.87-.748.692-.692c.828-.828 2.113-.887 3.885-.178 1.442.577 2.246.426 2.249-.424.003-1.112.688-3.02 1.306-3.638.508-.509.752-.56 1.29-.272.562.301.636.56.48 1.688-.363 2.644-.865 10.24-.703 10.662.409 1.067 3.238-.063 5.286-2.11 1.871-1.872 2.915-3.878 3.125-6.005.24-2.44.841-3.615 1.85-3.615.871 0 1.444.81 1.444 2.04 0 1.212.497 1.279 1.588.212 1.219-1.192 2.212-1.46 3.647-.987 1.016.336 1.498.886 3.642 4.152.05.075.484-.226.966-.669.86-.788 4.674-3.35 6.056-4.066.384-.199 1.132-.362 1.66-.362.53 0 1.06-.157 1.179-.349.118-.192.401-2.244.628-4.56.465-4.736.896-6.29 1.745-6.29.592 0 .969 1.13.969 2.902 0 .497.37 1.595.824 2.44.731 1.363.808 1.81.68 3.937-.081 1.32-.344 3.336-.585 4.48-.428 2.028-.51 9.538-.12 11.13.16.657.34.72 1.85.64 1.614-.087 1.674-.06 1.773.8.077.668-.175 1.167-1.008 2-.976.976-1.307 1.11-2.737 1.11-1.329 0-1.803-.16-2.587-.88-.799-.732-1.001-1.226-1.205-2.943l-.245-2.063-4.8.088c-4.297.08-4.873.156-5.492.733-.38.354-.956.592-1.28.53-.542-.106-.58-.44-.473-4.298.091-3.345.014-4.379-.388-5.156-1.116-2.157-2.316-1.613-4.05 1.835l-1.277 2.54-.005 3.927c-.003 2.51-.15 4.216-.408 4.727-.55 1.096-1.918 1.236-2.596.268zm19.721-8.324c1.047-.401 1.288-1.365 1.146-4.583-.09-2.055-.159-2.249-.83-2.344-1.389-.197-6.164 3.174-7.626 5.384-1.386 2.094-1.036 2.338 3 2.09 1.89-.117 3.83-.362 4.31-.547zm-75.615 6.726c-1.791-.479-4.736-2.974-5.471-4.637-.818-1.848-1.134-7.336-.614-10.659.588-3.754 3.275-8.397 6.958-12.022 2.642-2.6 4.06-3.17 8.212-3.3 2.945-.093 3.555-.026 4.08.45.75.678.809 2.283.12 3.267-.52.743-2.169.997-2.543.391-.108-.175-.88-.32-1.716-.32-3.067 0-5.71 2.008-8.837 6.71-2.249 3.385-2.726 5.011-2.726 9.296 0 3.418.059 3.773.81 4.88.446.656 1.418 1.517 2.16 1.914 1.219.65 1.734.713 5.325.648 3.881-.07 4.031-.1 6.341-1.257 3.597-1.8 6.266-5.07 5.195-6.36-.521-.629-1.85-.386-5.53 1.012-3.383 1.285-8.097 2.023-9.33 1.46-1.292-.588-1.122-2.19.388-3.66 2.196-2.138 4.052-2.705 9.604-2.935 4.55-.189 4.993-.155 6.495.491 1.837.79 2.541 1.828 2.541 3.745 0 4.155-5.525 9.65-10.826 10.765-2.581.543-8.79.613-10.637.12zm23.226-.699c-.769-1.173-.716-5.297.098-7.73.354-1.056.74-2.493.86-3.194.326-1.93.723-2.494 1.596-2.275.55.138 1.093-.105 2.084-.932 1.32-1.104 1.38-1.119 4.337-1.119 2.704 0 3.034.065 3.353.661.273.51.244.83-.125 1.392-.4.61-.856.762-2.774.923-2.732.229-3.4.614-4.773 2.753-1.334 2.08-1.939 4.119-1.944 6.562-.003 1.072-.187 2.309-.408 2.749-.556 1.102-1.654 1.203-2.304.21zm-94.384-19.379c-.098-.158.376-1.202 1.053-2.32 2.028-3.345 4.268-7.914 4.052-8.264-.263-.426-5.93-.412-14.084.035-3.52.192-11.512.4-17.76.461-6.248.062-11.85.154-12.45.204-.6.051-1.145-.069-1.213-.267-.182-.527 1.305-2.169 2.95-3.258 1.93-1.28 4.388-1.681 10.553-1.726 5.804-.042 32.303-.611 33.28-.715 1.528-.163 2.029-.567 2.714-2.192.387-.918 1.035-2.39 1.44-3.27 1.164-2.534 2.569-6.077 4.123-10.4.79-2.2 1.664-4.535 1.94-5.189.683-1.618.632-2.443-.195-3.113-.642-.519-.664-.649-.271-1.596.675-1.63 5.87-7.107 7.646-8.061 1.928-1.036 2.487-1.587 3.87-3.809l1.09-1.751.227-9.76c.223-9.557.547-13.794 1.399-18.263.797-4.184.338-3.591-5.847 7.543-.977 1.76-2.604 4.44-3.614 5.955-1.92 2.879-5.119 6.045-6.106 6.045-.804 0-.727-.962.153-1.923.642-.703 2.606-3.924 6.632-10.877 1.005-1.736 3.511-5.94 6.54-10.97.59-.98 3.145-4.456 3.849-5.236.181-.202.978-1.194 1.77-2.205 1.575-2.011 4.69-4.72 5.224-4.541.697.232.54.866-.508 2.05-1.757 1.983-3.436 4.321-3.436 4.784 0 .255.292.4.72.354.868-.092.879.338.106 4.084-.603 2.919-1.413 9.947-1.476 12.8-.126 5.67.04 11.36.329 11.36.439 0 1.836-2.307 4.224-6.976 1.11-2.167 2.676-4.725 3.483-5.685 1.4-1.665 1.514-1.958 2.528-6.462.584-2.594 1.395-5.31 1.801-6.033.79-1.404 2.594-3.151 3.844-3.72 1.019-.465.967-.855-.446-3.374-2.457-4.378-7.03-14.994-8.129-18.87-.39-1.375.356-2.957 2.008-4.266 2.135-1.691 2.4-1.453 4.466 4.026.997 2.64 2.174 5.592 2.617 6.56 1.619 3.534 3.805 7.908 5.359 10.72.875 1.584 1.594 3.255 1.598 3.713.005.6-.482 1.297-1.733 2.48-2.028 1.918-2.828 2.063-3.56.647-.442-.854-.582-.935-.962-.554-.527.527-1.392 3.794-2.695 10.183-1.492 7.315-1.898 8.405-3.993 10.732-1.713 1.9-1.982 2.598-2.225 5.76-.348 4.543-2.327 13.967-4.335 20.64-.19.632-.076.935.542 1.447l.782.647-1.154 3.993c-1.482 5.131-3.376 15.1-3.378 17.785 0 .721-.165 1.78-.365 2.354-.374 1.074-.008 1.72.815 1.432.191-.066 6.237-.269 13.435-.449 8.265-.207 13.237-.452 13.495-.667.324-.27.222-.715-.498-2.166-1.4-2.822-1.918-5.364-2.109-10.363-.196-5.115-.332-6.127-.785-5.846-.316.195-6.655 9.403-8.522 12.379-1.427 2.273-3.606 4.413-4.494 4.413-1.125 0-.919-.945.708-3.244 1.799-2.54 2.173-3.097 3.947-5.876 1.207-1.89 2.437-3.75 6.11-9.236.251-.376 1.182-1.44 2.069-2.364 1.608-1.676 1.615-1.68 3.616-1.68 1.872 0 2.018.054 2.206.8.11.44.27.8.355.8.63 0 4.21-3.689 6.669-6.875 3.391-4.393 6.62-7.845 7.337-7.845 1.253 0 .466 1.36-4.628 8-3.255 4.242-6.633 7.38-8.397 7.801-1.208.289-1.304.95-.915 6.31.35 4.818.668 6.46 1.456 7.504.459.61.493.6 1.284-.335.856-1.011 4.26-5.699 4.808-6.621.177-.298 1.037-1.664 1.911-3.035.875-1.371 2.642-4.767 3.928-7.546 1.286-2.778 2.808-5.667 3.382-6.42 1.336-1.75 1.951-3.474 2.591-7.257.283-1.672.657-3.895.832-4.94.462-2.761.391-4.971-.219-6.763-1.096-3.224-5.831-10.174-6.8-9.983-.413.082-.503.616-.503 2.973 0 1.63-.164 3.158-.38 3.533-.752 1.31-3.304 3.384-4.035 3.28-.679-.097-.713-.274-.908-4.74-.112-2.552-.251-7.52-.31-11.04-.104-6.318-.095-6.418.684-7.749l.789-1.348-1.662-3.292c-.914-1.81-2.811-6.153-4.216-9.651s-2.708-6.515-2.898-6.704c-.447-.447-.45.856-.01 3.569.18 1.114.465 3.106.633 4.427.394 3.112 1.046 24.236.784 25.427-.203.924-2.416 3.449-3.56 4.061-1.449.775-1.509.42-1.787-10.56-.166-6.535-.5-12.46-.909-16.1-.632-5.64-1.359-14.86-1.755-22.286l-.199-3.725-1.49-.954c-3.726-2.385-6.707-4.18-7.796-4.695-1.736-.82-2.039-1.293-1.427-2.226.782-1.193 3.24-3.075 4.018-3.075.802 0 2.516.829 4.998 2.417.949.607 1.915 1.103 2.146 1.103.232 0 1.126-.582 1.987-1.293.861-.712 1.794-1.25 2.074-1.197.582.11.883 2.528.95 7.626.04 3.204.28 3.824 1.479 3.824.37 0 .828.156 1.019.347.248.249.88-.203 2.24-1.6 1.394-1.435 2.12-1.947 2.757-1.947.76 0 .864.124.864 1.036 0 .866-.374 1.396-2.276 3.224l-2.277 2.188 1.605 3.576c.883 1.967 2.573 6.024 3.755 9.016 2.011 5.09 5.265 12.098 5.936 12.784.496.507.338 1.307-.503 2.546-.713 1.051-.8 1.505-.8 4.193 0 2.807.05 3.04.72 3.372 1.401.695 7.238 7.096 9.338 10.239 1.17 1.753 2.338 3.187 2.595 3.187.286 0 .467.312.467.804 0 .442.17 1.077.378 1.41.747 1.196-.66 12.011-2.19 16.825-.485 1.527-1.138 2.59-2.632 4.29-.371.422-.676.878-.676 1.013 0 .135-.087.473-.194.751-.33.86.528.568 1.858-.633 1.813-1.639 2.283-1.41 2.579 1.258.178 1.615.473 2.516 1.12 3.423 1.336 1.876 6.99 8.775 9.597 11.712 1.395 1.571 2.32 2.896 2.32 3.322 0 .912-2.46 3.387-3.667 3.69-.828.208-1.103.033-2.864-1.828a121.26 121.26 0 01-3.44-3.808c-.994-1.165-1.6-1.642-1.812-1.43-.175.177-.629 2.409-1.007 4.96s-.843 5.145-1.033 5.76c-.438 1.424-3.342 4.223-4.247 4.094-.568-.082-.639-.294-.56-1.693.05-.88.292-2.68.538-4s.61-4.344.807-6.72.51-5.308.696-6.515c.315-2.042.29-2.26-.36-3.14-.385-.52-.872-1.791-1.083-2.826-.211-1.035-.456-1.955-.545-2.043-.09-.09-.863 1.223-1.72 2.915-2.425 4.785-8.5 13.664-11.628 16.993-1.568 1.67-2.072 2.657-1.899 3.724.148.914-.003 1.329-.898 2.46-.592.748-.993 1.496-.89 1.662.113.182 1.852.22 4.38.093 2.575-.128 7.586-.016 12.991.292 11.47.653 30.101.375 30.833-.46.593-.676 2.014-4.863 2.404-7.084.602-3.42 1.642-8.03 1.936-8.58.491-.917 3.481-3.571 4.024-3.571 1.08 0 .937 1.542-.83 8.871-1.253 5.202-1.874 6.54-4.001 8.617-.986.962-1.73 1.814-1.653 1.89.245.245 20.235-.546 20.515-.811.309-.293-1.322-5.447-1.723-5.447-.147 0-.507.396-.8.88-.717 1.185-2.945 2.96-3.717 2.96-.437 0-.82-.453-1.284-1.52-.364-.836-1.587-3.46-2.719-5.833-1.523-3.193-2.006-4.522-1.86-5.12.289-1.18 3.01-3.847 3.926-3.847.654 0 1.03.578 2.82 4.345l2.064 4.346 1.798-1.643c2.51-2.294 3.104-2.182 4.618.872 1.066 2.152 2.93 7.435 3.32 9.412.16.814.282.862 2.65 1.05 1.364.11 4.819.44 7.677.735 3.634.375 5.298.436 5.534.2.235-.235.236-3.315.004-10.227-.184-5.44-.334-11.017-.334-12.394v-2.503l1.803-1.891c1.607-1.685 1.756-1.953 1.367-2.457-.431-.558-4.14-4.896-4.45-5.205a57.831 57.831 0 01-1.245-1.44c-.596-.704-2.396-2.706-4-4.448-3.573-3.883-3.809-4.147-6.818-7.632-1.33-1.54-2.637-2.8-2.905-2.8-.42 0-.46.516-.28 3.76.114 2.068.3 6.786.415 10.485l.208 6.725-1.328 1.534c-.73.844-1.328 1.683-1.328 1.865 0 .181.792 1.205 1.76 2.275 2.208 2.44 2.25 3.077.321 4.924-1.953 1.872-2.914 2.087-3.939.88-.885-1.042-5.678-6.34-6.542-7.23-.727-.75-1.283-.73-2.009.072-.986 1.09-2.652 1.971-3.323 1.759-.342-.109-.893-.66-1.226-1.223-.848-1.44-2.492-6.1-2.96-8.386-.561-2.755-.78-3.04-1.405-1.831-.284.55-.517 1.14-.517 1.312 0 .288-.677 1.86-2.745 6.367-.426.93-.775 2.284-.775 3.011 0 1.167-.177 1.485-1.512 2.71-1.547 1.421-3.314 2.25-3.954 1.855-.648-.401-.024-2.207 3.089-8.944.506-1.097 1.743-4.39 2.894-7.71.433-1.247 1.288-3.046 1.9-3.996.612-.95 1.043-1.91.958-2.132-.086-.222-.386-1.736-.669-3.363-.282-1.628-.796-4.327-1.142-6s-1.125-5.703-1.73-8.96a646.472 646.472 0 00-3.81-18.72c-.834-3.79-.719-4.586.953-6.544.801-.939 1.383-1.899 1.293-2.134-.193-.502-.768-1.288-10.532-14.406-4.08-5.48-8.642-11.645-10.137-13.698-1.496-2.053-3.08-4.222-3.52-4.82-.77-1.046-1.543-1.601-1.829-1.315-.075.075.52 3.498 1.322 7.607.802 4.11 1.756 9.415 2.12 11.791.947 6.195 2.227 12.5 2.743 13.504.244.475.444 1.458.444 2.184 0 2.875 4.558 14.074 8.13 19.976.748 1.235 1.089 2.133.971 2.56-.277 1.007-3.382 3.737-4.126 3.629-.804-.118-1.88-1.737-4.103-6.173-1.868-3.727-2.567-5.267-3.74-8.24-.4-1.012-.862-1.84-1.026-1.84-.622 0-1.308 2.281-2.387 7.94-.3 1.567-4.018 4.695-4.732 3.98-.602-.6.008-4.386 1.405-8.73 1.118-3.475 1.711-4.62 3.281-6.336 1.444-1.579 1.453-1.777.28-6.294-.366-1.408-1.174-5.512-1.795-9.12-1.432-8.31-1.901-10.862-3.086-16.8-.527-2.64-1.077-6.672-1.223-8.96-.259-4.076-.248-4.193.554-5.808l.818-1.648-1.236-1.712c-10.72-14.85-28.61-38.396-41.903-55.152a1114.43 1114.43 0 01-6.301-8c-2.367-3.075-2.862-3.528-3.197-2.93-.795 1.421 1.985 10.104 8.726 27.25 1.908 4.852 5.787 12.435 6.53 12.762.351.155 1.39 1.388 2.309 2.739 3.216 4.733 12.714 14.546 17.45 18.029 1.189.873 2.16 1.728 2.16 1.9 0 1.211-3.08 4.09-4.378 4.09-1.156 0-3.871-2.227-10.043-8.238-3.766-3.667-5.543-5.198-5.714-4.92-.137.22-.337 3.596-.445 7.5-.107 3.903-.347 8.464-.532 10.134-.368 3.31-.847 4.21-3.296 6.192-1.013.82-1.241.889-1.695.512-.42-.348-.485-.789-.327-2.207.108-.975.32-5.885.473-10.91.305-10.052.319-10.121 2.437-12.142 1.707-1.63 1.857-2.03 1.093-2.922l-1.3-1.514c-.845-.984-1.11-.673-1.74 2.047-.283 1.226-.664 2.628-.846 3.117-.418 1.124-3.378 3.81-4.056 3.683-.788-.15-.797-2.156-.02-4.764.548-1.84 1.003-2.64 2.258-3.967 1.514-1.601 1.9-2.574 1.278-3.217-.595-.614-5.741-11.286-7.014-14.544-.722-1.848-1.793-4.584-2.38-6.08s-1.204-2.686-1.37-2.645c-.166.042-.374 1.206-.462 2.587-.18 2.835-.938 4.2-3.06 5.51-1.981 1.225-1.993 1.172-2.365-10.572-.182-5.72-.42-11.912-.532-13.76-.162-2.712-.101-3.598.318-4.599.718-1.714.72-7.902.003-10.03-.284-.842-1.358-2.683-2.386-4.091s-3.813-5.224-6.188-8.48l-5.199-7.125c-.485-.663-1.032-1.155-1.216-1.095-1.031.34-.035 13.928 2.222 30.3.254 1.848.467 3.805.473 4.349.012 1.194-1.107 2.713-3.24 4.395-1.423 1.123-1.604 1.43-2.353 3.997a504.02 504.02 0 01-1.595 5.34 61.562 61.562 0 00-1.286 5.12c-.276 1.407-.659 2.96-.851 3.448-.385.98-3.297 3.751-3.94 3.751-1.452 0-1.145-2.163 1.635-11.52 2.373-7.992 2.587-8.54 4.092-10.52.72-.946 1.484-1.957 1.699-2.247.312-.42.236-1.622-.376-5.96-.422-2.988-.93-7.592-1.13-10.233-.2-2.64-.42-5.016-.49-5.28-.068-.264-.285-3.328-.48-6.81-.413-7.328-.334-7.77 1.77-9.834 1.54-1.512 1.714-2.07.946-3.05-.269-.344-1.303-1.778-2.298-3.186-2.403-3.4-7.043-9.788-10.012-13.785-1.32-1.776-4.416-5.953-6.88-9.28-5.217-7.047-6.186-8.206-6.633-7.93-.218.135-.252 1.755-.102 4.789l.227 4.585-2.07 2.121c-1.345 1.379-2.271 2.082-2.646 2.01-.346-.066-.842-.761-1.237-1.733-.701-1.725-4.87-8.99-5.316-9.267-.146-.09-1.546 1.1-3.11 2.643-1.994 1.968-3.24 3.531-4.17 5.23-1.558 2.85-4.697 6.057-5.926 6.057h-.79l-.225-4.56c-.123-2.508-.174-6.675-.113-9.261.074-3.132-.007-4.82-.241-5.056-.255-.257-2.363-.267-7.68-.035-4.03.175-7.449.198-7.595.052-.378-.376.502-1.922 1.76-3.093 1.705-1.588 3.665-2.782 8.044-4.9 2.253-1.09 4.184-2.21 4.291-2.49.127-.331-.114-.735-.692-1.156-.935-.68-3.277-4.141-3.987-5.89-.23-.566-.619-1.196-.864-1.4-.89-.737-.508-1.948 1.102-3.5 2.097-2.02 3.095-2.342 4.844-1.559 2.465 1.104 2.712.725 1.637-2.51-.34-1.027-.701-3.292-.814-5.12l-.203-3.278 1.524-1.63c1.63-1.741 3.1-2.681 3.784-2.418.595.228 1.28-.635 2.255-2.844 2.611-5.916 3.741-7.83 5.847-9.906 1.165-1.147 2.379-2.086 2.698-2.086 1.015 0 1.034.985.055 2.794l-.934 1.728v9.393c0 5.165.108 9.5.24 9.633.133.132 1.429-.306 2.88-.974a165.337 165.337 0 014.88-2.14c1.232-.51 2.672-1.14 3.2-1.402 2.1-1.04 5.73-2.322 6.132-2.167.251.096.428.657.428 1.355 0 1.452-3.149 7.983-5.09 10.559-2.004 2.658-1.88 2.902 1.484 2.902 2.324 0 3.267.17 5.612 1.008 1.944.695 3.061 1.297 3.603 1.941.732.87.753.995.318 1.837-.677 1.31-3.426 3.38-6.22 4.684-4.593 2.145-5.946 2.938-6.035 3.539-.054.363 3.715 5.68 9.76 13.769 5.416 7.247 10.915 14.664 12.22 16.48 1.304 1.816 2.787 3.878 3.296 4.582 3.348 4.63 5.659 7.868 6.473 9.066 1.003 1.477 1.189 1.514 3.29.66.973-.396 1.121-.357 2.56.659l2.992 2.11c2.332 1.642 3.494 2.146 4.492 1.946 1.04-.208 3.577 1.028 7.792 3.794 1.415.93 4.048 2.428 5.852 3.33 2.01 1.006 3.28 1.83 3.28 2.13 0 1.275-3.096 3.993-4.532 3.977-.411-.004-2.541-.94-4.734-2.08-2.192-1.14-4.293-2.072-4.67-2.072-.375 0-2.155-.734-3.954-1.632-1.8-.897-3.365-1.54-3.477-1.427-.318.318.703 2.004 3.473 5.735 1.4 1.886 2.795 3.506 3.1 3.6 1.2.37 1.522.72 1.707 1.856.216 1.33.405 1.612 4.9 7.341 1.775 2.263 3.51 4.495 3.855 4.96.346.466 2.362 3.058 4.48 5.76a1472.92 1472.92 0 014.972 6.368c2.1 2.73 2.721 3.522 6.08 7.759a860.435 860.435 0 015.614 7.159c5.525 7.161 7.41 9.631 8.296 10.872 2.61 3.656 12.12 16.32 12.66 16.858.442.442.878.565 1.536.434.583-.117 2.017.167 3.926.778 3.337 1.068 8.818 2.267 14.272 3.123l3.584.562 1.326-.933c2.852-2.007 3.117-2.077 8.64-2.282 2.968-.11 7.913-.02 11.617.211 6.295.394 16.148.14 18.045-.466.52-.166.773-.081.923.311.281.732-2.114 3.17-4.199 4.273l-1.6.847-13.365-.023c-12.802-.022-13.358.002-13.18.562.234.736-2.603 3.668-3.854 3.982-.524.132-2.613-.17-5.388-.78-2.493-.547-6.117-1.23-8.053-1.518-1.936-.288-4.445-.716-5.576-.95-1.132-.236-2.18-.352-2.33-.259-.275.17.78 2.127 1.596 2.964.24.244.674.82.966 1.28 2.239 3.516 18.071 24.676 18.458 24.669.18-.003.96-.436 1.734-.96 1.67-1.132 2.482-1.174 5.556-.285 1.274.368 5.556 1.515 9.516 2.55 8.742 2.282 11.78 3.213 14.568 4.464 1.173.526 2.37.955 2.662.953.292-.002 1.163-.505 1.936-1.12.772-.614 1.687-1.117 2.032-1.117s2.017.918 3.715 2.04c4.998 3.3 7.475 4.317 13.06 5.357 2.18.407 3.744.856 3.839 1.103.208.542-1.019 2.187-2.445 3.279-.972.743-1.403.854-3.136.811-4.69-.117-10.59-2.17-15.11-5.254-1.01-.69-2.047-1.256-2.302-1.256-.256 0-1.03.428-1.721.951-.692.524-1.568.956-1.947.96-.379.005-1.89-.564-3.36-1.265-2.473-1.18-8.536-3.18-11.15-3.68-1.348-.256-6.005-1.487-10.44-2.757-3.656-1.048-3.964-1.089-3.955-.529.006.407.55 1.172 7.444 10.48 2.15 2.903 5.174 7.007 6.72 9.12a558.395 558.395 0 003.782 5.12c.534.705 2.321 3.153 3.972 5.44 7.144 9.903 12.41 16.899 14.815 19.68 1.141 1.32 3.398 3.84 5.016 5.6 2.516 2.738 10.8 12.168 12.811 14.584.742.89 4.483 5.691 5.427 6.963 3.368 4.538 3.207 4.232 3.207 6.11v1.784l1.342-.1c1.263-.094 1.548.064 4.8 2.666 4.493 3.593 6.178 5.099 6.178 5.521 0 .683-2.132 3.127-3.26 3.738l-1.155.625-1.51-1.265a80.758 80.758 0 00-3.395-2.646c-1.557-1.14-1.919-1.29-2.082-.867-.18.47.828 6.765 1.513 9.448.157.616.286 1.57.287 2.12.001.55.182 1.145.402 1.322s2.2.42 4.4.542 7.384.51 11.52.862c9.79.834 27.91 1.13 38.24.623 21.183-1.038 46.167-1.493 55.68-1.015 9.152.46 9.88.576 10.027 1.594.119.828-1.312 2.51-3.055 3.591-.924.574-1.214.601-2.88.276-3.388-.661-27.3-.767-43.452-.193-8.096.289-19.04.676-24.32.86-12.86.452-18.256.283-41.76-1.308-2.728-.185-8.128-.547-12-.805-11.285-.753-12.118-.825-12.96-1.133-1.154-.421-8.666-1.475-14.756-2.07-3.605-.353-6.645-.453-9.724-.32-11.07.481-34.836 1.153-40.8 1.154-3.608 0-9.8-.148-13.76-.33-7.182-.332-20.69-.121-39.36.613-4.488.176-13.343.482-19.68.68-6.335.197-11.748.482-12.03.632-.28.15-1.407 1.861-2.503 3.801-1.523 2.697-2.489 3.983-4.096 5.456-2.041 1.87-2.742 2.239-3.112 1.64zm174.03-15.655c.09-.144-.177-2.268-.591-4.72-1.194-7.056-1.606-11.796-1.127-12.952.363-.878.32-1.075-.473-2.155a79.99 79.99 0 01-1.968-2.86c-.601-.92-1.344-1.808-1.65-1.975-.306-.167-.914-.891-1.351-1.609-1.45-2.38-1.891-1.682-1.71 2.705.066 1.578.246 7.32.402 12.76.316 11.068.144 10.392 2.743 10.782 2.004.3 5.545.316 5.725.025zm-148.36-.87c.924-.204.92-.544-.08-6.738-.44-2.726-.8-5.62-.8-6.431 0-1.356.138-1.613 1.711-3.186 1.766-1.766 3.139-2.237 3.533-1.211.105.275.332.413.504.307.374-.231 4.172-11.752 4.172-12.656 0-.347-.093-.632-.207-.632-.41 0-2.905 2.238-6.738 6.043-2.94 2.918-4.107 3.877-4.72 3.877-.448 0-.815-.128-.815-.285 0-.866 10.601-11.555 11.46-11.555.34 0 2.296-2.115 2.305-2.49.003-.127.275-1.526.606-3.11.797-3.82 1.154-7.52.724-7.52-.403 0-2.863 3.252-3.717 4.913-.341.664-1.1 1.716-1.685 2.336a30.598 30.598 0 00-1.932 2.3 75.257 75.257 0 01-2.234 2.806c-1.552 1.855-1.62 2.045-.727 2.045.352 0 .64.128.64.284 0 .38-1.46 1.316-2.052 1.316-.572 0-1.867 1.168-2.385 2.15-.206.39-.647 1.542-.981 2.56-1.732 5.28-7.37 19.213-9.292 22.958-.788 1.537-.815 2.013-.122 2.149.79.155 12-.046 12.832-.23zm6.162-11.994c.225-1.06.352-1.98.283-2.043-.069-.063-.449.008-.845.157-.747.283-.949 1.487-.518 3.093.32 1.193.648.825 1.08-1.207zm106.88-20.773c0-.275-.209-3.595-.462-7.38-.254-3.783-.506-8.691-.56-10.906-.096-3.983-.087-4.042.82-5.352.506-.73.834-1.542.731-1.81-.103-.268-1.171-1.82-2.374-3.45-1.203-1.628-4.257-5.77-6.786-9.201-9.007-12.224-9.7-13.12-10.131-13.12-.547 0-.545.183.033 2.816.259 1.18.987 4.88 1.62 8.224s1.432 7.448 1.779 9.12c.603 2.907 1.492 7.438 2.89 14.72 1.236 6.444 1.195 6.321 2.199 6.67.503.176 1.171.727 1.486 1.225.577.915 3.024 4.209 4 5.384.292.352 1.288 1.561 2.214 2.687 1.557 1.894 1.715 2.003 2.112 1.459.237-.323.43-.812.43-1.087zM39.67 96.822l1.72-1.743.149-2.657c.082-1.462.334-3.022.56-3.468.6-1.181 3.474-3.77 4.46-4.017.918-.23 1.672.38 3.522 2.85 1.35 1.801 1.602 1.022 1.134-3.512-.342-3.317-.325-3.75.17-4.53 1.267-1.988 4.846-4.085 7.777-4.556 1.857-.298 4.205-1.186 4.205-1.59 0-.126-.969-.556-2.153-.955-1.87-.632-2.558-.703-5.253-.539-2.532.155-3.174.101-3.5-.291-.501-.605.164-2.122 1.952-4.45 1.485-1.934 2.1-3.367 1.583-3.687-.227-.14.149-.773 1.027-1.736 1.651-1.809 2.157-2.652 2.172-3.617.013-.78-.323-.895-1.193-.41-1.072.6-6.644 3.123-7.435 3.369-.44.136-1.448.58-2.24.985-2.007 1.028-4.829 2.056-5.645 2.056-.824 0-1.163-1.349-1.035-4.117.046-.992.011-1.803-.077-1.803-.302 0-2.056 1.598-2.584 2.353-.479.685-.482.9-.04 2.4a40.93 40.93 0 001.254 3.477c.421 1.007.767 1.982.767 2.168 0 .506-2.39 2.998-3.842 4.003-.703.487-1.278 1.033-1.278 1.212 0 .674 1.687 2.503 2.799 3.035.635.304 1.211.727 1.28.941.165.507-2.66 3.521-3.91 4.172-.533.277-2.223.66-3.756.852-1.533.19-2.757.49-2.72.667.039.186 1.538.34 3.587.37 1.936.027 3.718.063 3.96.08.356.024.422.898.345 4.59-.131 6.243-.034 9.84.265 9.84.138 0 1.026-.784 1.972-1.743zm5.457-30.513c0-.417.732-1.024 1.234-1.024.37 0 .346.131-.114.64-.595.657-1.12.837-1.12.384zm313.65 288.86c-.865-.903-1.915-2.211-2.332-2.907a117.817 117.817 0 00-1.723-2.76c-2.084-3.227-3.064-5.22-2.869-5.834.223-.701 1.32-.81 2.095-.208.59.458 3.474 4.697 4.293 6.31.313.615 1.342 2.006 2.287 3.089 1.723 1.974 2.05 2.85 1.334 3.566-.713.714-1.506.39-3.085-1.256zm-281.85-9.376c-.096-.251.13-1.151.503-2 .373-.85.852-1.976 1.065-2.504.52-1.293 6.7-13.633 7.931-15.84 2.43-4.35 3.56-6.054 5.264-7.93 3.297-3.632 5.196-3.755 2.768-.18a55.401 55.401 0 00-2.316 3.79c-1.497 2.745-7.66 15.12-7.66 15.38 0 .12-.73 1.702-1.623 3.517-2.153 4.375-5.294 7.429-5.932 5.766zm37.118-.326c-.098-.254.865-2.45 2.14-4.88 3.258-6.21 4.634-9.04 6.11-12.558.705-1.682 1.539-3.635 1.853-4.34s.68-1.64.814-2.08c1.09-3.587 5.822-8.865 6.943-7.744.159.158-.124 1.045-.654 2.052-.513.976-1.113 2.332-1.332 3.013-.22.682-.59 1.6-.823 2.04s-1.146 2.553-2.03 4.696c-.883 2.142-2.602 5.814-3.82 8.16a9020.675 9020.675 0 00-3.124 6.024c-.941 1.817-4.798 6.08-5.502 6.08-.219 0-.478-.208-.575-.462zm169.48-4.515c-2.322-1.766-6.913-3.87-11.04-5.06-4.081-1.177-5.494-1.426-14.08-2.477-2.992-.367-5.626-.844-5.853-1.06-.294-.28-.327-.623-.113-1.185.331-.871 2.707-2.95 3.747-3.278.364-.114 2.812.07 5.44.408 2.628.34 5.643.71 6.699.822 4.025.43 12.938 3.115 16.16 4.866 3.446 1.874 5.12 3.239 5.12 4.174 0 1.107-2.807 3.936-3.874 3.906-.422-.012-1.414-.514-2.206-1.116zm61.58-4.474c-.43-.974-1.767-3.242-2.97-5.04-4.467-6.674-6.953-10.958-6.514-11.229.524-.324 2.06 1.04 3.599 3.197 3.802 5.33 3.544 5.124 4.784 3.804.97-1.033 1.537-1.008 3.119.137 1.307.948 3.08 4.06 3.496 6.135.222 1.11-.665 2.559-2.382 3.888-1.702 1.318-2.22 1.17-3.131-.892zm-211.8-3.748c-.081-.396-.213-3.816-.292-7.6-.162-7.76-.086-8.131 2.063-10.072 1.471-1.33 2.757-1.505 2.982-.408.082.396.211 3.826.288 7.623.155 7.662.191 7.488-2.003 9.752-1.563 1.613-2.79 1.898-3.037.705zm47.578-2.41c-.308-.313-2.864-3.215-5.68-6.45-2.816-3.234-5.66-6.463-6.32-7.176s-1.2-1.575-1.2-1.916c0-.341.7-1.32 1.554-2.174 1.18-1.18 1.79-1.555 2.531-1.555 1.087 0 .899-.2 13.435 14.364.396.46.72 1.13.72 1.49 0 .933-3.292 3.987-4.299 3.987-.1 0-.433-.257-.74-.57zm-66-2.91c0-.153 1.224-2.111 2.72-4.352 2.498-3.74 4.858-8.112 5.446-10.088.458-1.539 2.983-6.264 4.873-9.12 2.103-3.178 4.876-6.09 6.09-6.394 1.155-.29 1.221.002.306 1.348-2.601 3.824-6.633 11.387-6.636 12.446-.003 1.422-7.41 12.637-9.77 14.794-1.617 1.479-3.03 2.116-3.03 1.367zm216.37-11.112c-.57-.81-.983-1.638-.915-1.84.08-.24 1.193-.378 3.216-.398 3.433-.032 3.64.124 2.428 1.825-.722 1.015-2.152 1.885-3.097 1.885-.343 0-1.034-.624-1.632-1.472zm-7.75-7.547c-1.13-.75-2.784-2.088-3.674-2.972-1.846-1.835-4.854-6.961-6.484-11.05-.596-1.495-1.835-3.871-2.752-5.28-.917-1.407-1.994-3.1-2.393-3.76-.782-1.294-1.139-1.474-1.428-.72-.102.265-.49.48-.865.48-1.106 0-2.432-1.172-3.538-3.128-.918-1.624-2.286-3.413-5.742-7.51-2.237-2.652-.81-3.334 1.686-.805 3.055 3.097 3.996 4.212 5.662 6.709 1.625 2.435 2.165 3.029 2.473 2.721.144-.145-.941-1.807-4.612-7.063-.754-1.08-1.947-3.086-2.65-4.458-.704-1.371-1.473-2.568-1.708-2.658-.235-.09-.97.204-1.634.654-1.95 1.324-2.313 1.155-4.571-2.126-1.544-2.245-1.392-2.637.654-1.684 1.949.907 4.08 1.062 4.08.297 0-.27-.737-2.034-1.638-3.92-.9-1.886-1.967-4.148-2.37-5.028-2.51-5.493-6.053-12.753-6.558-13.44-.13-.176-.533-1.256-.896-2.4s-1.05-3.294-1.525-4.778l-.864-2.698.88-.702c.758-.604.85-.851.661-1.782-.3-1.479-1.127-3.686-2-5.337-.402-.758-.73-1.626-.73-1.93 0-.303-.226-.873-.502-1.268-.515-.735-1.082-2.607-2.688-8.879-.507-1.98-1.34-4.659-1.85-5.953-.51-1.294-1.108-3.217-1.328-4.273-.22-1.056-.816-3.216-1.326-4.8-.51-1.584-1.077-3.76-1.262-4.835-.302-1.763-.965-3.857-3.431-10.846-.435-1.232-1.203-3.752-1.706-5.6s-1.575-5.736-2.38-8.64c-.805-2.904-1.74-6.504-2.08-8-.34-1.496-.848-3.368-1.13-4.16s-1.002-3.744-1.6-6.56c-3.344-15.756-2.895-14.185-5.815-20.32-2.709-5.689-4.014-8.159-4.736-8.96-.396-.44-1.45-1.88-2.34-3.2-.89-1.32-3.64-4.46-6.113-6.976-3.776-3.843-4.586-4.525-5.064-4.258-.638.357-1.283.936-6.686 5.998-3.701 3.468-8.259 7.43-18.357 15.956-2.71 2.288-5.899 4.988-7.088 6-2.11 1.796-2.918 2.167-3.316 1.522-.318-.514.172-1.09 2.897-3.408 7.153-6.087 9.024-7.68 14.209-12.1 3.087-2.633 5.775-4.937 5.974-5.12 7.07-6.518 10.998-10.33 10.998-10.668 0-.968-6.245-5.39-10.56-7.477-4.63-2.24-8.613-3.638-12.526-4.394-1.822-.353-5.042-1.202-7.154-1.888-5.282-1.716-8.247-2.52-10.88-2.95-1.232-.2-3.176-.568-4.32-.817s-3.557-.74-5.363-1.092c-4.782-.933-11.534-2.896-24.383-7.088-3.608-1.177-9.424-3.906-11.573-5.43-2.749-1.95-3.316-1.095-1.081 1.63 1.45 1.768 1.777 2.568 1.04 2.549-.937-.025-4.205-3.863-5.991-7.034-1.178-2.091-2.223-2.876-3.834-2.876-1.458 0-1.267.778 1.025 4.176 1.1 1.631 2.249 3.339 2.553 3.795.304.456 1.24 1.491 2.08 2.3 1.723 1.66 3.127 3.533 3.127 4.172 0 .974-1.19.591-2.647-.852-.833-.824-1.801-1.735-2.153-2.025-.836-.686-2.048-2.313-4.852-6.51-2.977-4.456-3.387-6.145-1.444-5.944.667.069.877-.064.954-.602.07-.491-.252-.945-1.12-1.579-.67-.489-2.034-1.673-3.03-2.632-1.706-1.641-1.912-1.746-3.5-1.781l-1.688-.038-2.213-2.72c-2.948-3.622-4.164-4.916-6.764-7.194-2.149-1.884-5.459-5.68-6.244-7.162-.22-.416-1.37-1.8-2.553-3.078-2.66-2.868-4.393-6.02-4.054-7.37.325-1.294 2.838-3.676 3.88-3.676.646 0 .927.255 1.32 1.2.276.66 1.003 1.956 1.616 2.88.907 1.369 1.282 1.68 2.02 1.68.92 0 1.66.531 2.235 1.606.212.396.211.662-.002.794-.177.109-.321.453-.321.764 0 1.004 3.886 6.19 6.955 9.281 2.664 2.684 2.933 3.06 2.52 3.52-.517.574-.35.854 2.017 3.395.656.704 1.851 2.144 2.656 3.2 1.982 2.599 5.503 5.93 7.452 7.049.88.505 2.518 1.752 3.641 2.77 3.034 2.752 11.314 7.682 15.027 8.947.997.339 2.1.742 2.452.896s3.16 1.03 6.24 1.946c3.08.917 7.472 2.238 9.76 2.934 2.288.696 4.736 1.383 5.44 1.525.704.142 2.648.558 4.32.926s4.552.897 6.4 1.178 4.224.726 5.28.989l3.2.8c.704.176 3.242.954 5.64 1.728 2.4.774 5.351 1.56 6.56 1.749 2.836.44 7.946 2.037 11 3.437l3.84 1.762c1.489.685 7.042 4.47 8.89 6.06.579.497 1.18.904 1.335.904.156 0 1.058-.708 2.004-1.573 4.274-3.906 13.026-10.975 14.678-11.856 2.012-1.073 3.32-1.24 3.619-.462.267.695.034.982-1.004 1.237-1.58.39-3.575 1.764-8.511 5.865-6.436 5.348-9.165 7.822-9.169 8.314-.002.222 1.943 2.36 4.322 4.75 2.379 2.389 5 5.303 5.826 6.475.826 1.171 2.058 2.775 2.74 3.563 1.172 1.357 6.045 10.859 7.557 14.739.38.974 1.174 4.07 1.765 6.88 1.584 7.53 3.022 13.515 3.727 15.509.343.968.836 2.84 1.096 4.16.702 3.558 3.89 15.08 5.447 19.68a700.604 700.604 0 002.365 6.78c.884 2.498 1.77 5.522 1.971 6.72.2 1.199.766 3.404 1.256 4.9.49 1.496.996 3.355 1.125 4.132.128.776.632 2.432 1.119 3.68a386.125 386.125 0 012.177 5.788c.711 1.936 2.026 5.078 2.923 6.983.897 1.904 1.922 4.568 2.278 5.92.965 3.657 2.15 7.264 3.331 10.137 1.337 3.25 1.673 4.401 1.885 6.455.193 1.867-.25 2.548-1.416 2.177-.38-.12-.64-.096-.575.054.065.15 1.582 3.226 3.37 6.834 1.79 3.608 3.979 8.072 4.865 9.92 3.116 6.493 4.64 9.022 11.058 18.345 1.07 1.553 2.82 4.23 3.89 5.947 2.728 4.378 6.443 9.308 7.014 9.308.322 0 .481.32.481.967 0 .671.374 1.38 1.223 2.32 1.461 1.617 2.617 3.469 2.617 4.193 0 .29-.288.772-.64 1.074s-.64.686-.64.855 1.023 1.267 2.273 2.44c1.569 1.473 2.237 2.32 2.156 2.738-.194 1.01-1.02.863-3.173-.566zm-207.63-265.81c-.373-.697-1.309-1.522-1.309-1.153 0 .256 1.285 1.74 1.507 1.74.064 0-.026-.264-.198-.587zm123.33 265.75c-1.42-2.167-2.495-9.407-2.833-19.079-.083-2.39-.17-2.733-.709-2.831-.338-.062-2.198-1.297-4.134-2.745-4.52-3.38-4.159-3.216-5.404-2.446-1.672 1.033-2.206.865-3.74-1.178-.76-1.012-1.894-2.327-2.52-2.922-1.165-1.11-4.87-2.976-8.976-4.524-.616-.232-1.696-.741-2.4-1.132s-1.856-.889-2.56-1.107c-1.553-.48-2.4-1.173-2.4-1.963 0-.778 1.98-2.946 3.254-3.563 1.137-.55 1.294-.5 6.588 2.119l2.643 1.307 3.511-1.895 2.002 2.116c1.1 1.164 2.722 2.518 3.602 3.009 3.246 1.81 4.909 2.928 9.713 6.528 2.702 2.025 5.032 3.993 5.177 4.374s.635.786 1.089.9c.454.113 1.58.788 2.503 1.5 6.083 4.687 6.127 4.716 16.823 11.116 1.818 1.087 3.382 1.977 3.476 1.977s1.378.73 2.854 1.622c2.672 1.614 2.98 2.03 2.359 3.19-.496.926-3.196 2.868-3.988 2.868-1.04 0-15.902-8.63-20.63-11.98-1.4-.992-2.168-1.357-2.389-1.135-.367.367.404 5.548 1.436 9.648.34 1.35.617 2.681.617 2.96 0 .964-3.268 4.027-4.297 4.027-.093 0-.393-.342-.667-.76zM272.58 295.2c-.095-.095-2.531-.605-5.413-1.134-2.883-.53-6.465-1.324-7.96-1.767s-2.973-.877-3.28-.967c-.917-.265-.643-1.324.727-2.81 2.069-2.245 2.693-2.374 6.342-1.31 1.7.495 5.682 1.423 8.85 2.061 5.378 1.083 5.767 1.21 5.867 1.902.127.89-.831 2.011-2.81 3.283-1.397.9-1.98 1.085-2.323.742zm2.946-14.055c-3.326-.76-8.393-3.004-13.68-6.057-5.129-2.961-5.994-3.432-8.246-4.487-3.017-1.413-5.118-2.041-7.717-2.307-1.177-.12-2.037-.361-2.037-.57 0-.638 2.865-3.375 4.051-3.871.631-.264 1.577-.48 2.102-.48 2.773 0 8.468 2.267 14.214 5.658 7.866 4.642 12.984 6.98 16.047 7.331 2.434.28 2.947.438 2.947.912 0 .703-2.522 3.073-3.97 3.73-1.497.68-1.374.676-3.71.141zm-170.35-7.745c-.5-.501-.137-4.264.914-9.436.62-3.053 1.422-7.063 1.784-8.91.66-3.376 2.25-9.77 2.79-11.223.159-.428.387-1.314.507-1.97.178-.972.097-1.295-.435-1.751-1.01-.864-.788-1.74.867-3.429 2.233-2.28 3.79-3.253 4.398-2.75.639.53.64 3.765.003 6.092-2.004 7.312-5.207 22.093-5.649 26.07-.378 3.412-1.12 4.96-3.097 6.466-1.43 1.089-1.717 1.205-2.081.841zm175.78-13.085c-5.227-5.895-6.078-7.313-5.022-8.368.655-.655 1.546-.14 2.748 1.59.518.746 1.472 1.86 2.12 2.476 1.65 1.568 4.19 4.828 4.391 5.635.216.869-.267 1.725-.973 1.725-.304 0-1.773-1.376-3.264-3.058zm-9.415-18.678c-1-1.442-1.577-1.753-2.419-1.303-1.204.645-1.841.317-3.892-2-3.658-4.134-6.328-8.518-6.836-11.222-.196-1.048-.148-1.178.439-1.178.776 0 2.432 1.884 4.137 4.71 1.961 3.247 5.126 6.676 7.091 7.681.955.489 2.392 1.482 3.194 2.207 1.273 1.153 1.402 1.384 1.024 1.84-.753.908-1.793.63-2.738-.735zm-69.154-.751c-2.923-1.866-4.597-3.263-4.61-3.849-.022-1.012.889-2.365 2.281-3.389.744-.547 1.52-.995 1.726-.995s.933.451 1.617 1.002 2.216 1.63 3.404 2.398c1.188.768 2.16 1.505 2.159 1.638-.006 1.131-3.282 4.251-4.447 4.235-.282-.004-1.24-.472-2.13-1.04zm6.098-8.382c-1.556-.319-11.078-2.46-19.814-4.455-.866-.198-1.621-.503-1.679-.678-.35-1.062 3.093-4.318 4.567-4.318.872 0 13.624 2.702 16.036 3.398.918.265 3.487.817 5.71 1.227s4.187.893 4.367 1.074c.432.432-.966 2.27-2.574 3.385-1.373.95-3.25 1.055-6.613.367zm43.893-8.064c-.43-.43-.195-1.293.537-1.98 1.393-1.309 2.693.06 1.34 1.41-.773.774-1.463.984-1.877.57zm-158.3-1.712c-.301-.186-.408-2.402-.436-9.062l-.036-8.816 1.265-1.299c1.218-1.25 1.236-1.298.477-1.298-1.009 0-1.298-.488-3-5.051-1.81-4.856-2.12-5.509-2.62-5.509-.227 0-.49.468-.585 1.04-.28 1.7-.767 5.99-.972 8.56a74.991 74.991 0 01-.538 4.626c-.33 2.11-.442 2.32-2.202 4.08-1.07 1.07-2.135 1.854-2.52 1.854-.77 0-.773-.028-.347-3.2.178-1.32.614-5.745.968-9.833.355-4.089.794-7.833.977-8.32.183-.488 1.004-1.572 1.825-2.408 1.457-1.488 1.482-1.546 1.076-2.56-1.385-3.47-1.997-5.652-2.175-7.759-.274-3.24.332-4.812 2.527-6.56.896-.714 1.786-1.247 1.977-1.185.19.063.46 1.399.597 2.97.318 3.618.88 5.38 3.923 12.295 2.68 6.091 4.607 11.127 4.835 12.64.118.779-.09 1.215-1.1 2.304l-1.245 1.344 1.657.192.203 4.16c.112 2.288.22 6.31.24 8.939l.037 4.779-1.546 1.49c-1.597 1.539-2.572 2.014-3.262 1.587zm157.09-4.94c-.435-.737-1.471-1.62-2.893-2.465-1.901-1.13-2.394-1.622-3.474-3.47-.692-1.185-1.88-2.93-2.639-3.877-1.943-2.424-2.54-3.438-2.392-4.062.094-.395.896.27 2.98 2.47 3.588 3.788 6.982 7.137 9.09 8.97 1.387 1.206 1.619 1.566 1.537 2.4-.147 1.505-1.33 1.524-2.21.034zm-82.945-16.286c-.27-.413-1.664-1.889-3.095-3.28-3.131-3.042-6.407-7.653-6.407-9.02 0-.716.38-1.297 1.587-2.425 1.832-1.714 2.717-1.856 3.769-.604l.74.88.552-.798c1.434-2.07 4.629-4.227 5.482-3.7.105.064 2.854.425 6.11.802 8.969 1.038 14.757 1.939 15.748 2.451 1.367.707 1.166 1.702-.694 3.441-1.621 1.517-2.847 1.873-4.114 1.196-.605-.323-8.077-1.369-15.1-2.113-2.551-.271-5.251-.58-6-.688-1.093-.157-1.36-.099-1.36.295 0 .744 2.75 4.244 4.389 5.587 1.903 1.56 3.612 3.825 3.612 4.788 0 .496-.565 1.334-1.585 2.354-1.791 1.791-2.848 2.034-3.634.834zm62.394-5.553c-.632-.669-1.722-2.008-2.423-2.976s-1.656-2.264-2.123-2.88-1.408-1.984-2.09-3.04-1.562-2.317-1.955-2.803c-.682-.844-.689-.909-.15-1.44.537-.53.625-.487 1.834.883.698.792 1.56 1.944 1.913 2.56.355.616.963 1.555 1.352 2.087l2.37 3.251c.914 1.257 2.11 2.743 2.657 3.303.547.56.95 1.255.894 1.545-.183.948-1.11.748-2.28-.49zm-69.655-15.47c-1.309-.378-10.796-5.11-16.64-8.297-4.485-2.447-11.395-6.048-18.933-9.867-7.231-3.664-8.907-4.679-8.907-5.395 0-.742 3.203-3.855 4.232-4.113.68-.171 1.11-.004 2.073.799.669.558 6.111 3.497 12.095 6.532 5.984 3.035 12.248 6.3 13.92 7.256s6.208 3.322 10.08 5.258c6.53 3.266 7.034 3.579 6.95 4.317-.107.956-2.084 3.065-3.242 3.46-.455.155-1.188.178-1.628.05zm55.68-2.47c-.843-.277-1.96-1.474-2.76-2.956-.427-.792-1.493-2.448-2.37-3.68-.875-1.232-1.947-2.96-2.382-3.84s-1.514-2.943-2.399-4.584c-1.771-3.286-1.858-3.576-1.07-3.576.902 0 3.366 2.866 5.292 6.157 1.003 1.714 2.442 3.926 3.197 4.915s1.66 2.322 2.012 2.963c.352.64.892 1.521 1.2 1.956.968 1.368.51 3.05-.72 2.645zm-67.2-16.389c-.616-.35-2.803-1.416-4.86-2.37-3.936-1.825-10.516-5.66-15.62-9.104-1.672-1.129-3.097-2.104-3.168-2.167-.07-.063-.142-.513-.16-1-.03-.857-.09-.886-1.792-.886-.968 0-1.94-.116-2.159-.258-.663-.43.344-1.93 2.221-3.308l1.681-1.234 8.649-.359c5.334-.221 9.356-.248 10.497-.071 3.41.53 7.59 3.132 7.59 4.727 0 .893-2.66 3.738-3.75 4.012-.681.17-.978.037-1.556-.702-1.607-2.052-6.377-3.58-9.83-3.149-1.944.243-2.152.44-1.263 1.204 1.307 1.123 9.724 5.914 13.465 7.665 5.386 2.521 6.276 3.023 6.398 3.613.057.274-.591 1.223-1.44 2.11-1.85 1.93-3.155 2.27-4.903 1.277zm49.882-6.647c-1.65-1.82-3.727-4.917-5.81-8.664-.52-.938-1.124-1.773-1.341-1.856-.218-.084-1.461.553-2.763 1.415-3.98 2.634-5.576 3.254-5.35 2.079.177-.916 7.95-5.854 9.215-5.854.143 0 1.51 1.857 3.037 4.126 1.527 2.27 3.414 4.874 4.193 5.786 1.423 1.668 1.746 2.75 1.033 3.464-.615.615-1.357.449-2.214-.496zm-13.262-21.101c-.651-1.022-2.36-3.227-3.796-4.899-1.436-1.672-2.929-3.494-3.317-4.05-1.14-1.627-.804-3.31.659-3.31.433 0 .546.161.412.586-.257.807 1.083 2.57 4.666 6.144 4.675 4.66 5.856 7.068 3.578 7.289-.93.09-1.121-.064-2.202-1.76zm-10.47-13.43c-.39-.485-2.402-2.605-4.47-4.71-3.603-3.669-4.45-4.999-3.182-4.999.492 0 3.695 2.803 8.459 7.403 1.337 1.291 1.537 2.316.554 2.842-.546.293-.763.207-1.36-.535zm-12.23-15.521c-.833-.46-2.098-1.873-3.876-4.331-.79-1.091-1.722-2.074-2.07-2.185-.964-.306-7.628-7.138-7.858-8.056-.223-.89.263-1.384 1.137-1.155.297.077 2.005 1.495 3.795 3.149s3.85 3.312 4.578 3.684c.729.371 2.461 1.795 3.85 3.163 2.334 2.3 2.525 2.587 2.525 3.793 0 .76-.21 1.515-.503 1.808-.589.589-.725.6-1.577.13zm90.008-2.747c-.238-1.113 1-4.9 3.144-9.61.423-.93.769-1.749.769-1.821 0-.073.561-1.04 1.247-2.15 1.636-2.648 1.882-3.46 1.046-3.46-.89 0-7.49 1.15-9.973 1.739-2.818.667-6.355.671-6.61.008-.3-.783.08-.926 3.032-1.143 1.528-.113 3.642-.497 4.698-.855 2.369-.802 8.035-1.789 10.4-1.811 1.67-.016 1.765.026 1.858.83.065.564-.698 2.38-2.288 5.44-2.129 4.096-3.357 6.927-5.152 11.873-.444 1.224-.697 1.52-1.301 1.52-.456 0-.797-.22-.87-.56zm31.016-17.93c-.693-.766-.694-1.953 0-2.943.718-1.026.91-5.225.263-5.762-.35-.29-.54-.21-.895.373-2.764 4.545-3.753 5.619-5.957 6.47-2.957 1.142-4.474-.209-4.74-4.222-.115-1.728-.006-3.071.364-4.486.858-3.275.193-6.778-1.132-5.96-.486.3-1.095 2.077-1.528 4.46-.53 2.923-.935 3.936-1.66 4.167-1.344.426-2.211-.873-2.222-3.327-.005-1.103-1.167-5.82-1.52-6.173-.458-.457-2.332.095-2.771.817-.306.502-.348 1.375-.164 3.396.445 4.887.369 6.877-.287 7.47-.321.291-.753.53-.96.53-.68 0-1.654-1.265-1.654-2.147 0-.556-.396-1.272-1.107-2-1.324-1.357-3.605-4.537-6.149-8.572-1.025-1.627-2.009-2.959-2.185-2.96-.424-.002-4.697 6.69-6.264 9.808-.68 1.354-1.42 2.578-1.646 2.721-.739.469-2.157.282-2.81-.37-.865-.866-.804-2.092.2-4.003.723-1.374 1.494-2.577 4.28-6.676.79-1.162 2.322-3.172 3.27-4.292.49-.579.89-1.36.89-1.737s-.647-1.961-1.44-3.52c-1.62-3.19-1.87-4.872-.776-5.22.89-.282 1.75.539 2.856 2.729.49.968 1.175 2.113 1.524 2.543l.633.783 1.172-1.264c.645-.695 1.66-1.983 2.254-2.863 1.998-2.957 2.866-3.563 3.687-2.573.664.8.072 2.233-2.573 6.23-1.395 2.108-2.536 4.178-2.536 4.6 0 1.254 5.286 9.343 6.106 9.343.305 0 .513-.513.633-1.565.208-1.806 1.155-2.838 3.101-3.379 2.94-.816 4.416-.243 5.392 2.092.251.6.552 1.092.67 1.092s.674-.504 1.238-1.12c.923-1.008 1.195-1.12 2.705-1.12 1.511 0 1.787.114 2.758 1.144l1.079 1.144 1.338-1.145c1.476-1.263 2.916-1.779 4.98-1.781 2.046-.003 2.557.682 2.583 3.46.022 2.289.489 3.702 1.503 4.543.619.514 1.238.22 2.174-1.034.609-.816.608-.825-.224-2.05-.905-1.33-1.059-2.33-.452-2.937.615-.615 1.732-.446 2.757.416.523.44 1.155.8 1.405.8.44 0 1.432-1.14 2.57-2.954.583-.932 1.986-1.234 2.253-.486.079.22-.341 1.322-.933 2.448-.592 1.127-1.076 2.31-1.076 2.63 0 .318.413 1.053.917 1.63.731.839.963 1.486 1.143 3.19.22 2.076.201 2.153-.634 2.7-.77.505-.948.515-1.703.096-.464-.257-1.09-.957-1.39-1.556-1.157-2.303-2.493-2.588-2.493-.531 0 .835-.216 1.268-.88 1.763-1.88 1.402-2.02 1.65-1.811 3.222.176 1.33.09 1.612-.89 2.9-1.229 1.615-2.37 1.974-3.236 1.018zm-5.12-6.87c1.772-2.477 2.977-5.23 2.977-6.801 0-1.967-.594-2.137-2.374-.678-2.137 1.75-2.76 3.32-2.525 6.359.122 1.592.327 2.48.57 2.48.21 0 .818-.612 1.353-1.36zm-213.56-18.69c.463-.893 4.146-4.134 6.148-5.41.963-.612 1.413-.98 3.99-3.254 2.331-2.058 4.203-3.286 5.008-3.286.413 0 .752.167.752.37 0 .477-3.25 3.64-5.12 4.985-.792.57-2.664 2.045-4.16 3.28-1.496 1.234-2.936 2.342-3.2 2.463-.264.12-.84.473-1.28.785-.44.312-1.21.664-1.71.784l-.91.217zM8.414 45.693c-.604-.656-.684-1.274-.894-6.96-.15-4.052-.358-6.323-.593-6.475-.2-.13-.805-.238-1.346-.24-1.074-.006-2.376-1.116-2.376-2.026 0-.904 1.188-1.82 2.36-1.82 1.641 0 1.835-.47 1.732-4.206l-.092-3.313-1.25-.103c-1.786-.146-2.72.168-3.122 1.048-.413.908-.113 2.415.482 2.415.528 0 1.81 1.344 1.81 1.898 0 .296-.255.35-.88.19-.484-.123-1.495-.299-2.246-.39-1.716-.206-2.108-.87-1.934-3.278.214-2.95 1.85-4.44 5.22-4.76.88-.082 1.943-.418 2.363-.745.982-.765 1.154-.752 2.385.187.563.43 1.598.918 2.298 1.085 5.097 1.215 5.75 1.498 7.15 3.092 1.832 2.086 1.215 4.52-2.069 8.155-1.457 1.613-3.226 2.566-4.764 2.566-.725 0-1.211.177-1.329.484-.102.266-.025 3.008.171 6.094.305 4.795.289 5.742-.112 6.517-.762 1.473-1.934 1.704-2.964.585zm5.685-18.168c.831-.445 3.277-4.095 3.083-4.6-.195-.508-5.924-2.823-6.343-2.564-.368.227-.013 6.096.419 6.931.326.63 1.864.756 2.841.233zm72.448 13.739c-.293-.475 3.198-3.817 5.154-4.933a82.252 82.252 0 003.46-2.132c1.733-1.133 3.404-1.602 3.404-.955 0 .66-6.096 5.808-6.879 5.808-.112 0-.662.346-1.222.769-.827.624-3.173 1.791-3.599 1.791-.056 0-.199-.156-.318-.348zm-63.78-21.52c-.195-.236-.465-1.856-.599-3.6-.24-3.124-.256-3.173-1.093-3.27-.601-.07-1.144.188-1.851.88-1.22 1.193-2.032 1.235-3.106.16-.61-.608-.76-.997-.588-1.52.127-.386.322-1.489.433-2.45.178-1.54.335-1.84 1.316-2.498.92-.619 1.449-.732 3.04-.651l1.926.097.16-2.346c.125-1.834.295-2.445.781-2.8.797-.582.92-.573 1.8.139.602.488.763 1.009.915 2.96l.184 2.367 2.008.192c2.212.212 3.592 1.12 3.592 2.364 0 1.121-1.591 2.371-3.319 2.608-2.137.293-2.441.707-2.441 3.318 0 2.253-.388 3.8-1.06 4.227-.604.384-1.71.29-2.098-.177z"/></svg>