<?xml version="1.0" standalone="no"?>
<!DOCTYPE svg PUBLIC "-//W3C//DTD SVG 20010904//EN"
 "http://www.w3.org/TR/2001/REC-SVG-20010904/DTD/svg10.dtd">
<svg version="1.0" xmlns="http://www.w3.org/2000/svg"
 width="1179.000000pt" height="1245.000000pt" viewBox="0 0 1179.000000 1245.000000"
 preserveAspectRatio="xMidYMid meet">
<metadata>
Created by potrace 1.16, written by Peter Selinger 2001-2019
</metadata>
<g transform="translate(0.000000,1245.000000) scale(0.100000,-0.100000)"
fill="current" stroke="none">
<path d="M735 12440 c18 -8 17 -9 -8 -9 -22 -1 -29 -7 -33 -31 -4 -16 -10 -30
-15 -30 -4 0 -9 -23 -11 -52 l-3 -52 -58 3 c-50 2 -63 -1 -93 -24 -31 -24 -34
-30 -34 -80 0 -29 -4 -55 -10 -57 -5 -1 -12 -21 -15 -43 -6 -32 -3 -45 15 -68
19 -23 29 -27 75 -27 53 0 72 9 95 48 18 32 30 -8 30 -107 0 -109 7 -120 82
-121 46 0 48 2 67 41 12 24 21 65 22 102 3 94 5 97 54 97 25 0 50 6 59 15 8 8
19 15 25 15 6 0 11 4 11 8 0 5 9 20 21 33 14 16 19 32 15 51 -6 31 -35 68 -53
68 -7 0 -13 5 -13 10 0 6 -24 10 -52 10 -56 0 -89 12 -69 24 16 10 14 71 -3
85 -7 6 -16 25 -19 41 -5 21 -14 31 -32 36 -14 3 -22 10 -19 15 3 5 -7 9 -23
8 -25 0 -26 -1 -8 -9z"/>
<path d="M256 11965 c-8 -8 -18 -15 -23 -15 -5 0 -16 -9 -26 -20 -13 -16 -29
-20 -76 -20 -33 0 -61 -3 -63 -7 -1 -5 -16 -15 -33 -23 l-30 -16 0 -124 0
-125 87 -3 88 -3 0 30 c0 16 -6 31 -15 35 -8 3 -15 12 -15 21 0 8 -9 15 -20
15 -10 0 -24 8 -29 19 -14 24 13 56 54 65 32 6 65 -6 46 -18 -14 -9 -15 -103
-1 -111 6 -3 10 -22 10 -41 0 -33 -1 -34 -41 -34 -47 0 -79 -14 -79 -35 0 -8
-4 -15 -10 -15 -17 0 -11 -37 11 -74 20 -34 24 -36 72 -36 l52 0 -3 -198 c-3
-189 -2 -200 18 -225 19 -23 29 -27 76 -27 43 0 56 4 61 18 4 9 11 20 16 24
19 12 14 246 -8 369 l-7 36 58 5 c32 3 60 10 62 16 2 7 9 12 16 12 15 0 76 62
76 78 0 7 5 12 10 12 6 0 10 5 10 11 0 6 13 23 29 39 31 32 44 91 34 156 -6
36 -23 64 -38 64 -3 0 -23 14 -44 30 -21 17 -55 33 -77 37 -21 3 -44 9 -49 14
-6 4 -34 11 -63 15 -34 4 -52 11 -52 20 0 8 -7 14 -15 14 -8 0 -15 7 -15 15 0
8 -9 15 -19 15 -11 0 -26 -7 -35 -15z m140 -190 c9 -8 24 -15 35 -15 10 0 19
-4 19 -10 0 -5 11 -10 24 -10 31 0 44 -20 22 -32 -9 -5 -16 -16 -16 -23 0 -8
-4 -15 -10 -15 -5 0 -12 -11 -16 -25 -5 -19 -13 -25 -33 -25 -15 0 -32 -5 -38
-11 -15 -15 -21 11 -25 109 -4 76 6 90 38 57z"/>
<path d="M3350 11583 c-33 -12 -41 -25 -24 -38 15 -11 13 -16 -20 -52 -20 -22
-36 -44 -36 -47 0 -4 -7 -14 -15 -22 -8 -9 -15 -33 -15 -53 0 -22 6 -44 15
-51 8 -7 15 -21 15 -31 0 -9 7 -24 15 -33 8 -8 15 -18 15 -23 0 -16 87 -103
103 -103 10 0 17 -4 17 -10 0 -5 6 -10 14 -10 8 0 16 -10 20 -23 3 -12 19 -38
35 -57 50 -57 51 -59 51 -64 0 -10 130 -136 140 -136 5 0 10 -7 10 -15 0 -8 6
-15 13 -15 14 0 137 -117 137 -130 0 -6 6 -10 13 -10 7 0 21 -17 32 -37 42
-78 77 -99 156 -93 17 1 31 -7 42 -22 24 -36 72 -84 95 -97 l22 -12 -25 -33
c-17 -23 -25 -46 -25 -73 0 -45 24 -103 33 -81 7 16 47 -26 47 -48 0 -8 6 -14
14 -14 7 0 24 -22 37 -50 13 -27 27 -50 31 -50 5 0 8 -7 8 -15 0 -8 4 -15 9
-15 6 0 20 -18 32 -40 13 -22 28 -40 34 -40 12 0 66 -48 82 -72 15 -24 72 -58
97 -58 13 0 31 -7 40 -15 8 -8 19 -15 25 -15 6 0 11 -7 11 -15 0 -8 7 -15 15
-15 8 0 15 -7 15 -15 0 -8 9 -15 20 -15 18 0 20 7 20 65 0 51 -3 65 -15 65 -8
0 -15 5 -15 10 0 6 11 10 24 10 74 0 75 41 4 119 -38 42 -47 57 -35 59 9 2 27
-4 39 -12 12 -9 32 -16 44 -16 12 0 27 -7 34 -15 7 -8 18 -15 25 -15 7 0 26
-7 41 -15 16 -8 38 -15 49 -15 11 0 29 -7 39 -15 11 -8 30 -15 43 -15 13 0 23
-4 23 -9 0 -5 23 -12 50 -16 28 -4 50 -10 50 -15 0 -4 16 -11 35 -14 19 -4 47
-13 62 -21 15 -8 36 -15 45 -15 9 0 19 -4 22 -9 4 -5 25 -12 48 -16 23 -4 48
-14 56 -21 7 -8 28 -14 47 -14 18 0 46 -7 61 -15 16 -8 46 -15 67 -15 21 0 48
-7 60 -15 15 -9 46 -14 96 -13 48 1 76 -2 79 -10 2 -6 30 -14 63 -18 32 -4 59
-10 59 -14 0 -4 34 -11 75 -15 41 -4 77 -11 80 -16 3 -4 28 -11 55 -15 28 -4
50 -10 50 -14 0 -5 19 -11 43 -15 23 -4 47 -11 52 -15 6 -4 26 -11 45 -15 19
-4 44 -14 55 -21 11 -8 33 -14 50 -14 16 -1 41 -7 55 -15 15 -9 54 -14 97 -15
39 0 74 -4 77 -9 3 -4 26 -11 51 -14 26 -4 53 -14 61 -22 9 -8 26 -15 39 -15
13 0 26 -4 30 -9 3 -5 19 -12 35 -16 17 -4 30 -10 30 -13 0 -4 24 -18 53 -31
96 -43 119 -56 124 -68 3 -7 9 -13 14 -13 6 0 15 -5 22 -10 48 -41 62 -50 74
-50 7 0 13 -5 13 -10 0 -6 8 -14 18 -17 24 -10 69 -53 54 -53 -6 0 -12 -7 -12
-15 0 -8 -5 -15 -10 -15 -6 0 -33 -21 -61 -47 -27 -27 -85 -82 -128 -123 -84
-80 -141 -130 -147 -130 -8 0 -44 -40 -44 -50 0 -5 -6 -10 -13 -10 -7 0 -34
-20 -60 -45 -27 -25 -52 -45 -58 -45 -5 0 -9 -7 -9 -15 0 -8 -4 -15 -10 -15
-5 0 -23 -13 -40 -30 -17 -16 -33 -30 -35 -30 -3 0 -13 -8 -24 -17 -64 -61
-91 -83 -100 -83 -6 0 -11 -4 -11 -10 0 -5 -7 -10 -15 -10 -8 0 -15 -7 -15
-15 0 -8 -5 -15 -11 -15 -7 0 -31 -17 -54 -37 -72 -64 -96 -83 -106 -83 -5 0
-9 -7 -9 -15 0 -8 -5 -15 -11 -15 -5 0 -26 -12 -45 -27 -30 -25 -34 -33 -34
-74 0 -50 9 -59 58 -59 18 0 44 15 77 45 106 95 118 105 132 105 7 0 13 7 13
15 0 8 7 15 15 15 8 0 15 7 15 15 0 8 7 15 15 15 8 0 15 7 15 15 0 8 4 15 10
15 9 0 25 14 116 101 17 16 36 29 43 29 6 0 11 5 11 10 0 6 7 10 15 10 8 0 15
7 15 15 0 8 5 15 10 15 6 0 18 8 29 18 10 9 33 28 51 42 18 14 41 33 51 43 11
9 24 17 29 17 6 0 10 7 10 15 0 8 4 15 10 15 5 0 25 15 43 33 19 17 65 59 102
92 38 33 81 72 97 88 16 15 33 27 38 27 6 0 10 7 10 15 0 8 4 15 10 15 5 0 32
23 60 51 33 33 56 49 66 45 9 -3 20 -6 25 -6 5 0 9 -7 9 -15 0 -8 7 -15 15
-15 8 0 15 -6 15 -13 0 -14 66 -77 81 -77 5 0 9 -7 9 -15 0 -8 7 -15 15 -15 8
0 15 -7 15 -15 0 -8 5 -15 11 -15 16 0 75 -61 83 -86 4 -12 17 -33 31 -48 13
-14 27 -36 31 -48 4 -13 17 -33 30 -45 13 -12 24 -26 24 -31 0 -6 7 -12 15
-16 8 -3 15 -14 15 -24 0 -11 7 -25 15 -32 8 -7 15 -20 15 -29 0 -10 7 -26 15
-37 8 -10 15 -25 15 -31 0 -20 43 -113 51 -113 4 0 10 -13 14 -30 4 -16 11
-30 16 -30 5 0 9 -13 9 -29 0 -16 7 -34 15 -41 8 -7 15 -20 15 -29 0 -9 7 -29
15 -45 8 -15 15 -50 15 -76 0 -28 6 -54 14 -62 7 -8 17 -42 21 -76 4 -34 10
-62 15 -62 4 0 10 -35 14 -77 4 -43 11 -82 15 -88 5 -5 11 -33 14 -62 3 -28
10 -60 15 -70 15 -29 33 -102 42 -171 4 -35 13 -69 19 -75 6 -6 11 -28 11 -48
0 -20 7 -42 15 -49 8 -7 15 -27 15 -45 0 -18 7 -38 15 -45 8 -7 15 -24 15 -37
0 -14 6 -39 14 -56 8 -18 17 -49 21 -69 3 -21 10 -38 14 -38 5 0 12 -29 16
-65 3 -36 11 -65 16 -65 5 0 9 -15 9 -33 0 -18 7 -42 15 -53 8 -10 15 -31 15
-45 0 -14 7 -34 15 -45 8 -10 15 -30 15 -44 0 -14 7 -34 15 -44 8 -11 15 -34
15 -51 0 -17 7 -40 15 -51 8 -11 14 -42 15 -75 0 -38 5 -61 15 -69 8 -7 15
-28 15 -46 0 -24 5 -34 15 -34 9 0 15 -9 15 -23 0 -13 7 -32 15 -43 8 -10 15
-39 15 -64 0 -25 7 -58 15 -74 8 -15 15 -36 15 -45 0 -10 7 -26 15 -37 8 -10
15 -30 15 -44 0 -14 6 -36 13 -51 8 -14 17 -52 21 -84 4 -33 11 -62 17 -65 5
-4 12 -30 16 -58 3 -29 9 -52 14 -52 4 0 11 -17 14 -37 3 -21 13 -50 21 -65 8
-14 14 -36 14 -47 0 -12 3 -21 8 -21 7 0 25 -30 38 -62 3 -10 12 -18 19 -18 7
0 15 -19 18 -47 3 -26 10 -49 16 -51 6 -2 11 -13 11 -25 0 -15 -3 -18 -11 -10
-6 6 -18 9 -25 6 -17 -6 -20 -109 -3 -115 5 -2 13 -24 16 -48 3 -25 9 -49 13
-55 4 -5 10 -27 14 -47 4 -20 13 -50 21 -65 8 -15 15 -36 15 -45 0 -10 4 -18
9 -18 5 0 12 -12 16 -27 3 -15 10 -30 13 -33 12 -9 52 -96 52 -113 0 -9 5 -19
10 -22 6 -3 10 -15 10 -26 0 -10 5 -19 11 -19 5 0 15 -13 20 -30 6 -17 15 -30
20 -30 5 0 9 -13 9 -29 0 -16 6 -31 15 -35 8 -3 15 -14 15 -25 0 -10 7 -21 15
-25 8 -3 15 -14 15 -25 0 -11 7 -26 15 -35 8 -8 15 -17 15 -21 0 -8 37 -93 55
-126 8 -14 12 -29 8 -32 -18 -18 -102 30 -89 51 3 5 -2 9 -12 8 -10 0 -16 6
-16 16 1 11 -5 18 -17 18 -11 0 -19 5 -19 10 0 17 -46 11 -63 -8 -24 -26 -21
-66 8 -112 14 -22 25 -43 25 -48 0 -4 8 -15 18 -24 27 -26 42 -46 42 -58 0 -5
7 -10 15 -10 8 0 15 -6 15 -13 0 -22 37 -51 45 -36 10 15 44 -27 45 -53 0 -10
7 -18 15 -18 8 0 15 -4 15 -10 0 -5 8 -19 18 -29 34 -39 42 -50 42 -66 0 -8 7
-15 15 -15 8 0 15 -7 15 -15 0 -8 7 -15 15 -15 8 0 15 -4 15 -10 0 -5 9 -19
20 -30 11 -11 20 -27 20 -35 0 -8 4 -15 9 -15 5 0 12 -11 15 -25 4 -14 11 -25
16 -25 6 0 10 -7 10 -15 0 -8 7 -15 15 -15 7 0 18 -8 24 -17 7 -13 24 -18 60
-19 52 -2 81 -16 81 -40 0 -7 16 -30 35 -51 19 -21 35 -44 35 -50 0 -7 4 -13
8 -13 12 0 52 -83 52 -108 0 -11 5 -24 10 -27 6 -3 10 -15 10 -25 0 -10 7 -25
15 -34 8 -8 18 -29 21 -45 4 -17 10 -31 14 -31 4 0 11 -11 14 -25 4 -14 10
-25 15 -25 5 0 12 -14 16 -30 4 -17 11 -30 16 -30 5 0 9 -7 9 -16 0 -19 118
-144 137 -144 7 0 13 -7 13 -15 0 -8 7 -15 15 -15 9 0 18 -7 21 -15 4 -8 12
-15 20 -15 8 0 14 -4 14 -9 0 -5 9 -13 21 -16 11 -4 19 -11 17 -17 -2 -6 20
-35 49 -66 29 -30 53 -59 53 -63 0 -5 7 -9 15 -9 8 0 15 -7 15 -15 0 -9 7 -18
15 -21 8 -3 17 -15 21 -27 13 -40 60 -68 70 -42 4 8 10 15 15 15 16 0 75 45
112 86 39 44 49 87 21 98 -28 11 -71 6 -84 -9 -14 -17 -57 -20 -62 -5 -2 6
-27 13 -57 17 -71 8 -101 36 -101 91 0 32 -7 48 -30 72 -16 17 -30 33 -30 36
0 10 -33 38 -47 40 -25 4 -27 13 -8 34 21 23 23 93 3 115 -29 32 -38 45 -38
53 0 5 -14 19 -30 32 -31 24 -41 60 -16 60 14 0 27 55 19 78 -6 14 -73 17 -73
2 0 -5 -5 -10 -11 -10 -13 0 -39 25 -39 38 0 6 -7 12 -15 16 -8 3 -15 10 -15
16 0 9 -7 18 -55 71 -8 9 -15 21 -15 27 0 7 -4 12 -10 12 -5 0 -10 5 -10 10 0
9 -35 65 -50 80 -3 3 -14 23 -25 45 -11 22 -28 47 -37 57 -10 10 -18 25 -18
33 0 8 -4 15 -10 15 -5 0 -10 6 -10 13 0 7 -9 20 -20 30 -11 9 -20 24 -20 32
0 8 -4 15 -10 15 -5 0 -10 5 -10 10 0 6 -8 19 -17 29 -32 35 -40 47 -47 69 -4
12 -11 22 -15 22 -4 0 -18 21 -31 48 -13 26 -26 49 -29 52 -11 9 -31 44 -42
73 -6 15 -15 27 -20 27 -5 0 -9 11 -9 24 0 13 -7 26 -15 30 -8 3 -15 12 -15
21 0 8 -7 15 -15 15 -10 0 -15 10 -15 30 0 19 -5 30 -14 30 -8 0 -17 13 -21
30 -4 16 -10 30 -15 30 -5 0 -11 14 -15 31 -4 17 -13 42 -21 57 -8 15 -14 33
-14 40 0 6 -4 12 -10 12 -5 0 -10 6 -10 13 -1 6 -9 30 -20 52 -11 22 -19 46
-20 53 0 6 -4 12 -9 12 -5 0 -12 13 -16 30 -4 16 -11 30 -16 30 -5 0 -9 6 -9
13 0 7 -9 29 -20 50 -25 47 -25 53 2 60 20 6 21 10 15 104 -3 55 -10 99 -16
101 -6 2 -11 16 -11 32 0 16 -7 30 -15 34 -8 3 -15 17 -15 31 0 16 -6 25 -15
25 -10 0 -15 10 -15 30 0 17 -6 33 -14 36 -8 3 -17 25 -21 50 -3 24 -10 44
-15 44 -5 0 -12 21 -15 48 -4 26 -10 56 -15 67 -5 11 -12 39 -15 63 -4 23 -11
42 -16 42 -5 0 -9 7 -9 16 0 18 -18 62 -61 147 -16 32 -29 71 -29 86 0 16 -7
34 -15 41 -8 7 -15 27 -15 44 0 18 -7 41 -15 52 -8 10 -15 31 -15 45 0 15 -7
32 -15 39 -8 7 -15 21 -15 31 0 9 -7 24 -15 33 -8 8 -15 30 -15 49 0 20 -6 37
-14 40 -8 3 -16 29 -20 66 -4 34 -11 61 -16 61 -6 0 -10 12 -10 28 0 15 -7 40
-15 56 -8 15 -15 51 -15 80 0 28 -7 64 -15 80 -8 15 -15 38 -15 50 0 12 -7 31
-15 42 -8 10 -15 31 -15 46 0 15 -6 33 -13 40 -8 7 -17 31 -20 53 -4 22 -11
41 -17 43 -5 2 -10 16 -10 30 0 15 -7 40 -15 56 -8 15 -15 36 -15 45 0 10 -7
26 -15 37 -8 10 -15 31 -15 45 0 14 -7 34 -15 45 -8 10 -15 31 -15 45 0 14 -7
34 -15 45 -8 10 -14 35 -15 54 0 19 -7 55 -15 80 -8 25 -17 62 -20 83 -3 20
-10 37 -14 37 -5 0 -12 36 -15 80 -4 44 -12 82 -17 85 -5 4 -9 15 -9 27 0 11
-6 34 -14 51 -16 38 -36 124 -43 189 -3 26 -11 52 -19 59 -8 6 -14 26 -14 45
0 18 -6 39 -14 47 -8 7 -17 47 -21 90 -4 43 -11 80 -16 83 -5 3 -9 22 -9 42 0
20 -7 50 -15 66 -8 15 -15 36 -15 45 0 10 -7 26 -15 37 -8 10 -15 32 -15 47 0
15 -6 30 -14 33 -8 3 -17 16 -20 30 -4 13 -11 24 -16 24 -5 0 -12 16 -16 35
-3 19 -10 38 -15 41 -5 3 -9 13 -9 23 0 10 -7 24 -15 31 -8 7 -15 20 -15 30 0
10 -7 23 -15 30 -8 7 -15 19 -15 26 0 8 -15 29 -32 48 -55 57 -88 98 -88 107
0 5 -7 12 -15 15 -8 4 -15 12 -15 19 0 7 -6 15 -13 18 -7 2 -22 23 -32 46 -11
22 -26 41 -32 41 -7 0 -13 7 -13 15 0 8 -6 12 -13 9 -8 -3 -47 31 -93 80 -113
121 -117 126 -89 126 8 0 15 5 15 11 0 10 96 109 106 109 2 0 12 8 23 18 10 9
34 28 52 42 18 14 41 33 51 43 10 9 23 17 28 17 6 0 10 7 10 15 0 8 6 15 13
15 6 0 30 16 52 35 58 51 64 55 71 55 3 0 17 9 31 20 36 28 46 15 23 -28 -11
-20 -20 -43 -20 -50 0 -7 -7 -20 -15 -28 -8 -9 -15 -24 -15 -34 0 -10 -4 -21
-9 -25 -6 -3 -13 -26 -17 -50 -3 -25 -10 -45 -15 -45 -20 0 -9 -67 14 -88 49
-46 126 -11 127 57 0 14 7 35 15 45 8 11 15 32 15 48 0 15 5 28 10 28 6 0 10
6 10 13 0 7 9 29 20 50 11 20 20 43 20 51 0 7 7 19 15 26 8 7 15 20 15 30 0
10 7 23 15 30 8 7 15 21 15 31 0 9 7 24 15 33 8 8 15 21 15 29 0 8 7 20 15 27
8 7 15 25 15 40 0 16 4 30 10 32 5 2 11 22 12 46 1 31 -4 46 -18 57 -21 16
-104 20 -119 6 -6 -5 -47 -11 -93 -14 -46 -4 -97 -11 -115 -16 -18 -6 -49 -13
-69 -16 -21 -3 -38 -10 -38 -15 0 -6 -19 -10 -43 -10 -24 0 -52 -7 -63 -15
-10 -8 -38 -15 -61 -15 -63 0 -73 -7 -73 -50 l0 -38 66 -8 c78 -8 197 1 202
16 2 5 22 10 45 10 23 1 62 5 87 11 118 25 132 24 111 -10 -7 -10 -31 -16 -75
-17 -63 -2 -107 -18 -146 -54 -9 -8 -27 -22 -40 -30 -12 -8 -28 -21 -36 -27
-7 -7 -17 -13 -23 -13 -6 0 -11 -7 -11 -15 0 -8 -7 -15 -15 -15 -8 0 -15 -7
-15 -15 0 -8 -6 -15 -12 -15 -7 0 -26 -13 -43 -29 -90 -89 -104 -101 -114
-101 -6 0 -11 -4 -11 -10 0 -5 -7 -10 -15 -10 -8 0 -15 -7 -15 -15 0 -8 -7
-15 -15 -15 -8 0 -15 -3 -15 -7 0 -5 -18 -23 -40 -41 l-40 -33 -33 25 c-17 15
-39 33 -48 41 -9 8 -21 15 -27 15 -7 0 -12 5 -12 10 0 6 -8 14 -17 17 -19 7
-32 17 -64 46 -10 9 -23 17 -29 17 -5 0 -10 4 -10 9 0 5 -12 12 -26 15 -15 4
-33 14 -41 21 -8 8 -22 15 -31 15 -9 0 -26 7 -36 15 -11 8 -26 15 -34 15 -7 0
-20 7 -28 15 -9 8 -24 15 -33 15 -10 0 -24 7 -31 15 -8 9 -30 15 -56 15 -32 0
-44 4 -44 15 0 12 -14 15 -64 15 -36 0 -67 4 -70 9 -3 4 -34 11 -68 14 -35 3
-77 13 -93 21 -17 9 -38 16 -47 16 -10 0 -18 4 -18 9 0 5 -19 11 -41 15 -23 4
-51 13 -62 21 -12 8 -34 15 -49 15 -15 0 -29 4 -32 9 -4 5 -30 12 -59 16 -28
4 -54 11 -57 15 -3 5 -34 13 -70 19 -36 5 -85 14 -110 20 -25 6 -77 10 -117
11 -39 0 -74 4 -78 9 -3 5 -31 13 -63 17 -31 3 -61 10 -67 14 -5 4 -31 11 -57
14 -27 4 -48 11 -48 16 0 5 -20 12 -45 16 -25 3 -45 10 -45 14 0 4 -17 10 -39
14 -21 3 -51 13 -67 21 -16 8 -37 15 -46 15 -9 0 -19 4 -22 9 -3 4 -23 11 -44
15 -22 3 -52 13 -68 21 -16 8 -39 15 -50 15 -12 0 -35 7 -50 15 -16 8 -40 15
-54 15 -14 0 -34 7 -44 15 -11 8 -37 15 -57 15 -21 0 -40 4 -44 9 -3 5 -19 12
-35 16 -17 4 -30 10 -30 15 0 4 -12 13 -27 19 -27 10 -62 30 -73 41 -15 15
-71 50 -80 50 -5 0 -10 4 -10 10 0 5 -11 12 -25 16 -14 3 -25 10 -25 15 0 5
-6 9 -14 9 -8 0 -31 16 -50 35 -20 19 -40 35 -45 35 -5 0 -12 11 -15 24 -3 13
-18 32 -33 42 -28 18 -32 20 -65 22 -10 1 -18 8 -18 15 0 6 -12 18 -27 24 -16
7 -59 42 -97 78 -38 36 -72 65 -77 65 -5 0 -9 6 -9 14 0 8 -20 36 -45 62 -25
25 -45 53 -45 60 0 8 -7 14 -15 14 -8 0 -15 7 -15 15 0 8 -7 15 -15 15 -18 0
-20 31 -2 49 10 11 10 14 0 18 -7 3 -13 13 -13 23 0 12 -10 21 -30 25 -16 4
-30 12 -30 18 0 7 -13 21 -28 31 -16 10 -39 35 -53 55 -13 20 -29 40 -36 44
-7 4 -13 15 -13 22 0 8 -4 15 -10 15 -5 0 -10 6 -10 14 0 8 -6 21 -14 28 -7 8
-21 29 -31 48 -16 31 -16 35 -1 45 20 15 22 65 2 65 -8 0 -24 16 -36 35 -14
23 -29 35 -44 35 -24 0 -56 28 -56 48 0 7 -6 12 -12 12 -7 0 -22 21 -33 46
-36 84 -40 89 -68 92 -15 2 -27 -2 -27 -8 0 -6 -10 -10 -22 -8 -13 2 -22 9
-20 16 1 6 1 12 0 11 -2 0 -10 -3 -18 -6z"/>
<path d="M3075 11473 c-11 -3 -24 -11 -28 -19 -4 -8 -17 -14 -27 -14 -11 0
-20 -7 -20 -15 0 -8 -7 -15 -15 -15 -8 0 -23 -9 -32 -20 -10 -11 -23 -20 -30
-20 -7 0 -13 -4 -13 -10 0 -5 -8 -10 -19 -10 -10 0 -38 -15 -62 -33 -24 -18
-52 -36 -62 -40 -9 -4 -22 -18 -29 -32 -6 -14 -15 -25 -19 -25 -16 0 -49 -34
-49 -50 0 -9 -5 -21 -11 -27 -6 -6 -8 -20 -4 -32 5 -17 12 -20 33 -15 30 7 95
44 100 56 2 4 11 8 19 8 9 0 32 16 51 36 19 20 40 33 48 30 8 -3 14 1 14 9 0
8 7 15 15 15 7 0 18 6 22 13 4 7 22 21 38 31 41 26 135 124 135 141 0 11 -27
48 -33 44 -1 -1 -11 -4 -22 -6z"/>
<path d="M1507 11381 c-42 -9 -187 -139 -187 -168 0 -7 -4 -13 -10 -13 -5 0
-12 -11 -16 -25 -3 -14 -10 -25 -14 -25 -4 0 -11 -15 -14 -34 -4 -19 -13 -37
-21 -40 -8 -3 -15 -14 -15 -25 0 -11 -4 -22 -9 -26 -5 -3 -12 -19 -16 -35 -4
-17 -11 -30 -16 -30 -5 0 -9 -6 -9 -13 0 -19 -30 -43 -62 -51 -16 -3 -28 -11
-28 -16 0 -6 -5 -10 -12 -10 -6 0 -35 -25 -65 -56 l-54 -56 1 -136 c2 -170 2
-172 -7 -170 -17 4 -83 -14 -83 -22 0 -6 -6 -10 -12 -10 -7 0 -28 -16 -47 -35
-19 -19 -38 -35 -42 -35 -5 0 -9 -5 -9 -11 0 -6 -9 -22 -20 -36 -27 -35 -25
-66 5 -89 14 -10 28 -33 31 -51 3 -18 12 -37 20 -44 8 -6 14 -18 14 -25 0 -8
4 -14 9 -14 5 0 13 -10 17 -22 11 -36 37 -67 57 -68 24 0 22 -20 -2 -20 -11 0
-26 -7 -35 -15 -8 -8 -21 -15 -30 -15 -8 0 -21 -6 -28 -14 -8 -7 -29 -17 -46
-21 -18 -3 -32 -11 -32 -16 0 -5 -6 -9 -13 -9 -8 0 -24 -9 -37 -20 -13 -11
-27 -20 -32 -20 -19 0 -128 -107 -128 -126 0 -8 -7 -14 -15 -14 -10 0 -15 -10
-15 -29 0 -16 -6 -31 -12 -34 -9 -3 -10 -8 -2 -16 8 -9 45 -9 145 -1 74 5 184
10 244 10 l110 0 -3 -297 c-2 -163 1 -300 6 -305 13 -13 102 3 102 18 0 8 4
14 9 14 14 0 124 117 143 151 9 17 22 38 30 47 7 9 22 33 32 52 20 37 73 89
92 90 6 0 17 11 24 25 16 30 40 33 40 6 0 -11 4 -22 9 -25 5 -4 19 -27 32 -54
12 -26 29 -51 36 -55 7 -4 13 -19 13 -32 0 -14 6 -25 13 -25 17 0 37 -47 37
-87 0 -32 1 -33 45 -33 36 0 50 6 75 30 17 17 35 30 40 30 6 0 10 7 10 15 0 8
5 15 10 15 12 0 50 37 50 49 0 5 7 14 15 21 11 9 15 35 15 104 1 82 2 89 15
71 8 -11 19 -25 25 -32 5 -7 10 -16 10 -22 0 -5 6 -11 13 -14 7 -2 22 -23 32
-46 11 -22 26 -41 33 -41 6 0 12 -5 12 -11 0 -6 14 -28 30 -49 17 -21 30 -43
30 -49 0 -6 4 -11 9 -11 4 0 21 -19 37 -42 16 -24 39 -53 51 -65 13 -12 23
-26 23 -31 0 -8 11 -23 50 -69 5 -7 10 -15 10 -18 0 -3 8 -13 18 -23 9 -10 24
-29 32 -42 8 -12 21 -28 28 -36 6 -7 12 -17 12 -23 0 -6 6 -11 14 -11 8 0 16
-10 20 -23 3 -13 17 -36 31 -51 14 -15 25 -31 25 -37 0 -5 5 -9 10 -9 6 0 15
-10 20 -22 13 -30 32 -60 46 -73 6 -5 20 -26 30 -45 11 -19 31 -46 47 -60 15
-13 27 -29 27 -35 0 -5 -20 -27 -45 -48 -29 -26 -45 -47 -45 -62 0 -13 -6 -25
-12 -27 -21 -7 -23 -231 -3 -280 8 -21 15 -63 15 -93 0 -29 7 -85 15 -123 8
-39 15 -131 16 -211 0 -88 6 -159 15 -188 8 -25 14 -74 14 -108 0 -34 5 -66
12 -73 9 -9 9 -12 0 -12 -7 0 -12 -6 -12 -13 0 -8 -13 -27 -30 -43 -16 -16
-30 -37 -30 -46 0 -10 -7 -18 -15 -18 -11 0 -15 -12 -15 -45 0 -33 -4 -45 -15
-45 -11 0 -15 -12 -15 -50 0 -27 -4 -50 -9 -50 -5 0 -12 -23 -16 -52 -4 -28
-14 -58 -21 -66 -8 -7 -14 -26 -14 -42 0 -16 -4 -30 -10 -32 -5 -1 -13 -25
-17 -53 -3 -27 -12 -56 -20 -63 -7 -7 -13 -32 -13 -56 0 -23 -5 -47 -11 -53
-6 -6 -9 -26 -7 -44 3 -30 6 -34 37 -37 25 -3 43 4 70 25 20 16 44 32 53 36 9
3 25 19 35 34 9 15 23 32 30 36 7 4 13 20 13 35 0 16 4 32 9 37 6 6 14 44 19
86 5 42 15 85 21 97 6 11 11 34 11 50 0 16 7 46 15 65 8 20 15 50 15 66 0 16
4 32 9 35 6 4 9 -55 8 -145 -1 -126 1 -153 14 -163 9 -6 19 -29 22 -51 4 -22
11 -41 17 -43 5 -2 10 -8 10 -13 0 -13 -33 -49 -45 -49 -12 0 -45 -51 -45 -70
0 -6 -7 -18 -15 -26 -11 -12 -15 -39 -15 -108 0 -51 -6 -115 -14 -142 -9 -31
-14 -103 -14 -198 -1 -90 -5 -153 -11 -159 -14 -14 -14 -84 0 -93 6 -3 16 -1
22 5 6 6 20 11 31 11 20 0 26 4 84 62 55 56 62 64 62 76 0 7 7 12 15 12 12 0
15 16 15 83 0 47 5 88 11 94 6 6 13 59 16 117 3 58 10 106 14 106 5 0 9 -15 9
-34 0 -21 6 -36 15 -40 8 -3 15 -15 15 -27 0 -11 7 -33 14 -47 8 -15 22 -44
31 -64 12 -27 21 -35 33 -30 15 5 15 4 0 -12 -10 -9 -18 -26 -18 -36 0 -10 -7
-20 -15 -24 -13 -5 -15 -44 -13 -293 l3 -288 28 -10 c24 -8 31 -6 42 8 7 9 22
17 34 17 11 0 21 4 21 9 0 5 27 36 60 69 l61 59 -6 229 c-2 126 -5 255 -6 287
-1 31 -5 57 -10 57 -15 0 -10 38 6 44 8 3 15 14 15 24 0 10 5 23 11 29 13 13
-2 64 -28 94 -7 8 -13 34 -13 56 0 24 -6 46 -15 53 -8 7 -15 20 -15 29 0 10
-7 26 -15 37 -8 10 -15 30 -15 43 0 13 -6 29 -13 35 -7 6 -21 31 -31 56 -10
25 -27 63 -37 86 -10 23 -19 46 -19 53 0 6 -4 11 -10 11 -5 0 -10 8 -10 19 0
10 -7 24 -15 31 -8 7 -15 22 -15 34 0 11 -7 30 -15 40 -11 15 -15 48 -15 122
0 90 -2 103 -17 106 -33 7 -64 -4 -93 -33 -16 -16 -33 -29 -39 -29 -6 0 -11
-4 -11 -10 0 -5 -7 -10 -16 -10 -8 0 -13 -4 -10 -9 3 -4 -1 -17 -9 -27 -13
-18 -14 -17 -15 13 0 26 6 36 29 48 44 22 121 102 121 125 0 11 4 20 10 20 19
0 23 72 7 124 -9 29 -17 92 -18 146 -1 61 -7 102 -15 115 -9 11 -14 47 -14 86
0 37 -6 82 -14 100 -9 21 -16 91 -20 184 -3 83 -8 170 -10 195 -3 25 -3 37 0
27 3 -9 10 -15 15 -12 5 4 13 -4 18 -17 5 -13 21 -36 35 -51 14 -15 26 -35 26
-43 0 -7 4 -14 8 -14 5 0 28 -27 52 -60 24 -33 47 -60 52 -60 4 0 8 -7 8 -15
0 -8 4 -15 9 -15 5 0 19 -17 31 -37 12 -21 28 -42 36 -46 8 -4 14 -15 14 -22
0 -8 4 -15 9 -15 5 0 12 -8 15 -18 3 -9 18 -31 33 -48 44 -47 63 -116 63 -222
0 -66 -5 -102 -16 -124 -14 -26 -16 -63 -15 -202 0 -94 3 -216 6 -271 3 -55 7
-188 9 -296 2 -108 6 -201 9 -206 11 -17 103 19 138 55 17 17 35 32 39 32 4 0
18 16 31 35 30 44 39 44 39 2 0 -18 7 -42 15 -53 8 -10 15 -28 15 -40 0 -11 7
-29 15 -40 8 -10 15 -31 15 -46 0 -16 4 -28 10 -28 5 0 13 -12 17 -27 8 -34
72 -161 84 -169 5 -3 9 -14 9 -24 0 -10 3 -20 8 -22 12 -5 52 -66 52 -79 0 -7
10 -23 21 -35 l21 -23 -51 -54 c-29 -30 -51 -63 -51 -75 0 -12 -4 -22 -10 -22
-5 0 -12 -17 -15 -37 -3 -21 -10 -45 -15 -54 -17 -32 -22 -103 -8 -121 11 -14
20 -16 52 -8 21 5 42 12 45 17 4 4 21 21 39 38 l32 29 -4 -293 c-2 -161 -7
-295 -10 -298 -3 -4 -6 15 -6 40 0 43 -2 47 -25 47 -14 0 -25 -4 -25 -10 0 -5
-8 -10 -18 -10 -30 0 -163 -116 -188 -165 -19 -36 -18 -91 1 -99 8 -3 15 -1
15 4 0 6 5 10 10 10 13 0 13 -47 -1 -52 -5 -2 -13 -22 -16 -46 -3 -23 -9 -42
-13 -42 -5 0 -11 -24 -15 -52 -4 -29 -14 -62 -21 -73 -8 -11 -14 -31 -14 -45
0 -14 -7 -43 -15 -65 -8 -22 -14 -60 -15 -85 0 -25 -7 -56 -15 -70 -9 -16 -14
-54 -15 -102 0 -42 -4 -79 -9 -83 -6 -3 -12 -27 -16 -53 -3 -26 -12 -67 -19
-92 -18 -58 -28 -198 -14 -206 5 -3 15 -1 21 5 6 6 21 11 33 11 13 0 29 7 38
15 8 8 19 15 25 15 6 0 11 6 11 13 0 6 13 18 30 25 16 8 30 20 30 28 0 8 7 17
15 20 8 4 15 14 15 24 0 10 7 23 15 30 12 10 15 38 15 130 0 67 4 120 10 122
5 2 12 30 16 63 4 33 11 63 16 66 5 3 11 30 15 60 3 30 10 59 15 66 5 6 12 38
15 70 3 32 10 61 16 64 5 4 12 28 14 55 3 27 9 54 13 59 4 6 11 29 15 53 8 51
40 119 49 104 8 -14 46 -3 74 21 19 18 22 18 22 4 0 -10 -6 -26 -12 -37 -20
-32 -1 -51 100 -100 50 -25 92 -51 92 -57 0 -7 11 -13 25 -13 14 0 28 -7 31
-15 4 -8 12 -15 19 -15 7 0 18 -7 25 -15 7 -8 21 -15 31 -15 18 0 19 -11 21
-152 0 -84 0 -163 -1 -175 -1 -13 5 -36 14 -52 10 -20 15 -58 15 -114 0 -46 7
-124 15 -173 16 -93 17 -317 2 -279 -5 11 -12 27 -17 35 -5 8 -22 41 -37 73
-15 31 -31 57 -35 57 -4 0 -8 8 -8 19 0 10 -7 24 -15 31 -8 7 -15 20 -15 29
-1 9 -12 34 -25 56 -14 22 -28 47 -31 55 -23 58 -50 110 -56 110 -5 0 -8 7 -8
15 0 20 -39 137 -50 150 -4 6 -11 33 -15 60 -4 28 -12 56 -17 63 -12 14 -58
17 -58 3 0 -5 -12 -11 -28 -14 -15 -3 -41 -19 -57 -36 -17 -17 -36 -31 -42
-31 -7 0 -13 -5 -13 -11 0 -7 -7 -17 -17 -24 -22 -16 -24 -121 -3 -156 9 -13
24 -51 35 -84 10 -33 25 -67 32 -76 7 -8 13 -25 13 -36 0 -21 38 -114 50 -123
4 -3 9 -14 13 -25 14 -49 35 -97 45 -107 7 -7 12 -20 12 -29 0 -9 7 -22 15
-29 8 -7 15 -20 15 -28 0 -9 12 -29 27 -44 15 -15 22 -28 17 -28 -6 0 -28 -16
-50 -35 -21 -19 -42 -35 -46 -35 -5 0 -8 -7 -8 -15 0 -8 -4 -15 -9 -15 -5 0
-13 -10 -17 -22 -3 -12 -13 -28 -20 -36 -9 -8 -14 -37 -14 -75 -1 -39 -6 -69
-15 -81 -8 -11 -15 -36 -15 -56 0 -52 -18 -101 -49 -130 -32 -32 -71 -86 -71
-99 0 -5 -4 -11 -8 -13 -5 -1 -26 -39 -48 -83 -21 -44 -42 -81 -46 -83 -5 -2
-8 -9 -8 -16 0 -7 -7 -21 -15 -32 -14 -17 -15 -5 -11 136 2 85 7 169 11 185 3
17 8 95 10 174 3 111 8 148 20 161 8 9 15 35 15 58 0 22 4 43 9 46 5 3 11 20
13 37 4 25 1 33 -14 37 -12 3 -17 10 -14 19 3 8 6 17 6 19 0 2 7 4 15 4 8 0
15 6 15 14 0 7 13 23 30 36 17 13 30 29 30 36 0 7 4 14 10 16 5 2 12 22 16 45
l7 43 -36 0 c-20 0 -42 -7 -51 -15 -8 -8 -19 -15 -24 -15 -6 0 -12 -7 -16 -15
-3 -8 -12 -15 -21 -15 -8 0 -15 -4 -15 -10 0 -13 -37 -50 -50 -50 -5 0 -10 -5
-10 -10 0 -6 -8 -18 -18 -28 -9 -10 -28 -33 -42 -51 -14 -19 -38 -48 -55 -65
-16 -18 -39 -49 -50 -70 -11 -21 -26 -40 -32 -43 -7 -3 -13 -16 -13 -29 0 -14
-7 -27 -15 -30 -8 -4 -15 -13 -15 -20 0 -8 -7 -17 -15 -20 -8 -4 -15 -17 -15
-31 0 -13 -6 -31 -13 -38 -30 -35 -37 -45 -37 -58 0 -8 -8 -23 -18 -35 -10
-11 -27 -38 -38 -59 -10 -21 -22 -40 -26 -41 -5 -2 -8 -9 -8 -16 0 -7 -9 -21
-20 -31 -11 -10 -20 -24 -20 -31 0 -7 -3 -14 -7 -16 -8 -3 -26 -32 -65 -108
-13 -25 -26 -46 -30 -48 -4 -2 -17 -23 -29 -48 -13 -24 -28 -44 -35 -44 -16 0
-68 -105 -61 -124 13 -34 76 -16 129 37 15 15 32 27 38 27 5 0 10 5 10 10 0
13 37 50 50 50 6 0 10 6 10 13 0 7 13 28 30 47 16 19 29 41 30 48 0 6 5 12 10
12 6 0 10 6 10 14 0 7 7 19 15 26 9 7 27 37 40 67 14 29 29 53 35 53 5 0 10
11 10 24 0 13 7 29 15 36 8 7 15 21 15 31 0 11 7 19 15 19 10 0 15 10 15 30 0
20 5 30 15 30 8 0 12 6 9 13 -2 7 2 21 10 32 14 19 15 18 15 -20 0 -22 -6 -49
-14 -59 -11 -14 -15 -47 -15 -119 0 -54 -5 -108 -11 -119 -7 -12 -13 -124 -16
-292 -3 -149 -9 -275 -14 -280 -5 -6 -9 -18 -9 -28 0 -10 -8 -22 -17 -25 -10
-4 -21 -11 -25 -17 -3 -5 -15 -11 -25 -12 -9 -2 -19 -8 -21 -13 -2 -6 -10 -11
-17 -11 -7 0 -42 -30 -76 -66 -35 -36 -85 -86 -111 -112 -27 -25 -48 -49 -48
-54 0 -5 -7 -16 -15 -24 -8 -9 -15 -25 -15 -38 0 -12 -5 -27 -10 -32 -16 -16
-1 -44 23 -41 18 2 21 -3 19 -23 -1 -13 -7 -27 -11 -30 -5 -3 -13 -19 -17 -35
-4 -16 -13 -36 -21 -43 -7 -7 -13 -25 -13 -40 0 -15 -7 -36 -15 -46 -8 -11
-15 -29 -15 -40 0 -12 -7 -30 -15 -40 -8 -11 -15 -34 -15 -52 0 -17 -7 -37
-15 -44 -8 -7 -15 -28 -15 -46 0 -19 -4 -34 -10 -34 -5 0 -12 -16 -16 -35 -3
-19 -9 -35 -13 -35 -7 0 -34 -57 -46 -98 -4 -15 -12 -21 -21 -18 -8 3 -14 2
-14 -2 0 -4 -20 -6 -46 -4 -25 2 -65 -1 -90 -7 -30 -8 -208 -12 -552 -12 -408
0 -509 -3 -522 -13 -8 -8 -41 -16 -73 -18 -33 -3 -62 -9 -65 -15 -4 -6 -17
-13 -29 -17 -13 -4 -23 -12 -23 -17 0 -5 -6 -9 -13 -9 -8 0 -28 -15 -45 -34
-17 -19 -37 -38 -44 -43 -28 -17 -49 -62 -39 -82 14 -25 46 -32 68 -15 11 8
44 13 84 14 37 0 83 7 102 15 46 19 108 19 171 0 70 -21 560 -21 611 1 26 10
81 14 219 14 l185 0 -27 -52 c-15 -29 -30 -55 -34 -58 -3 -3 -9 -17 -13 -32
-4 -15 -13 -29 -21 -32 -8 -3 -14 -15 -14 -26 0 -11 -7 -23 -15 -26 -8 -4 -15
-11 -15 -17 0 -6 -6 -18 -14 -26 -8 -9 -16 -29 -18 -46 -7 -67 72 -36 176 70
81 83 87 90 103 128 7 15 16 27 21 27 4 0 16 20 27 45 11 25 27 45 35 46 8 0
70 0 138 0 86 -1 137 3 168 14 36 12 119 15 467 15 337 1 431 4 463 15 31 11
123 14 452 15 379 0 473 -6 362 -24 -22 -3 -40 -11 -40 -16 0 -6 -5 -10 -10
-10 -29 0 -170 -131 -170 -158 0 -7 -7 -15 -15 -18 -8 -4 -15 -12 -15 -19 0
-7 -7 -15 -15 -19 -8 -3 -15 -17 -15 -31 0 -16 -6 -25 -15 -25 -8 0 -15 -8
-15 -19 0 -10 -7 -24 -15 -31 -9 -8 -15 -29 -15 -56 0 -23 -4 -46 -10 -49 -6
-4 -10 -73 -10 -175 0 -102 4 -171 10 -175 6 -3 10 -15 10 -25 0 -10 7 -25 15
-34 8 -8 15 -19 15 -24 0 -5 12 -18 26 -28 14 -10 35 -27 46 -36 12 -10 25
-18 30 -18 5 0 16 -7 24 -15 9 -8 25 -15 38 -15 12 0 27 -5 33 -11 7 -7 45 -9
114 -5 198 11 239 17 239 32 0 8 9 14 21 14 11 0 32 9 46 20 14 11 32 20 39
20 8 0 14 5 14 10 0 6 5 10 10 10 12 0 28 14 90 75 70 69 80 83 80 107 0 36
11 68 21 62 5 -3 9 11 9 31 0 21 -6 38 -14 41 -7 3 -16 23 -20 45 -3 21 -11
39 -17 39 -6 0 -17 7 -25 15 -9 8 -25 15 -37 15 -12 1 -33 7 -47 15 -32 18
-60 19 -60 1 0 -11 -32 -14 -151 -18 -95 -3 -153 -8 -157 -15 -4 -6 -20 -15
-37 -19 -16 -4 -51 -29 -77 -55 -43 -43 -48 -53 -48 -92 0 -34 5 -48 26 -66
24 -21 34 -22 88 -17 115 11 151 18 159 32 4 8 21 14 36 14 16 0 31 6 34 14 3
7 23 17 44 21 21 4 40 10 43 14 8 12 68 22 74 12 9 -14 -6 -51 -20 -51 -8 0
-14 -7 -14 -15 0 -8 -7 -15 -15 -15 -8 0 -15 -4 -15 -10 0 -23 -99 -90 -134
-90 -8 0 -16 -6 -18 -12 -6 -18 -250 -18 -255 0 -3 6 -11 12 -19 12 -8 0 -28
14 -44 30 -27 28 -30 38 -31 98 -1 37 -1 73 0 80 1 7 -4 11 -11 10 -15 -4 -23
39 -10 55 5 7 13 33 16 60 4 26 11 47 16 47 5 0 12 10 16 22 7 22 15 34 47 69
9 10 17 24 17 29 0 6 5 10 10 10 6 0 10 5 10 11 0 19 74 86 125 113 54 29 120
35 129 11 13 -35 116 1 116 41 0 8 5 14 10 14 6 0 10 24 10 54 0 52 -2 55 -32
67 -30 13 -23 14 97 17 72 1 173 -1 225 -6 52 -5 145 -5 205 -1 147 11 743 30
1087 36 202 3 282 2 298 -7 13 -7 59 -14 104 -17 44 -2 98 -11 119 -19 20 -8
64 -14 96 -14 40 0 65 -5 75 -15 10 -11 37 -15 93 -15 43 -1 98 -6 123 -11 70
-16 179 -22 193 -11 7 5 21 6 32 1 11 -4 70 -8 132 -8 62 -1 136 -7 165 -15
31 -8 114 -14 201 -15 97 -1 162 -7 185 -16 30 -10 143 -13 582 -11 300 1 577
5 615 9 86 9 791 29 1045 30 374 0 854 -13 878 -25 17 -9 25 -9 34 0 7 7 19
12 28 12 9 0 25 9 35 20 10 11 22 20 26 20 11 0 89 81 89 92 0 5 7 16 15 24 8
9 15 26 15 40 0 23 -3 24 -60 24 -33 0 -77 7 -97 15 -41 17 -174 20 -190 4 -7
-7 -36 -7 -94 -1 -46 6 -243 10 -437 11 -299 0 -356 -2 -369 -14 -12 -13 -80
-15 -441 -16 -235 -1 -431 -1 -435 0 -4 1 -15 -5 -23 -14 -13 -13 -54 -15
-257 -15 -139 0 -257 4 -277 10 -19 6 -177 13 -350 16 -225 4 -328 9 -360 19
-26 8 -98 14 -170 15 -69 1 -145 5 -170 8 l-45 7 -5 71 c-3 39 -10 77 -16 85
-17 21 -24 119 -9 119 7 0 32 -21 55 -46 39 -43 45 -46 81 -41 20 3 45 11 54
18 51 44 105 103 105 115 0 8 4 14 9 14 5 0 11 16 13 36 4 32 -1 41 -41 80
-25 24 -52 44 -58 44 -7 0 -13 7 -13 15 0 8 -5 15 -10 15 -14 0 -110 72 -110
82 0 4 -7 8 -15 8 -8 0 -15 5 -15 10 0 6 -9 19 -20 30 -24 24 -80 27 -80 5 0
-8 -4 -15 -10 -15 -14 0 -13 53 2 68 9 9 7 19 -10 42 l-23 30 63 0 c39 -1 70
-6 82 -15 14 -10 45 -15 102 -15 47 0 99 -6 124 -15 23 -8 65 -15 92 -15 34 0
50 -4 54 -15 4 -10 21 -15 54 -15 26 0 61 -7 76 -15 16 -8 36 -15 45 -15 9 0
30 -7 45 -15 16 -8 36 -15 45 -15 8 0 20 -5 26 -11 13 -13 47 -33 81 -48 12
-6 22 -15 22 -21 0 -5 6 -10 13 -10 6 0 26 -13 44 -29 24 -21 39 -27 62 -23
17 2 31 8 31 13 0 5 6 9 13 9 7 0 35 20 62 45 96 89 108 134 49 181 -20 16
-43 35 -50 41 -7 7 -19 13 -28 13 -8 0 -17 4 -20 9 -8 12 -84 51 -100 51 -7 0
-19 7 -26 15 -7 8 -24 15 -39 15 -14 0 -35 7 -45 15 -11 8 -41 15 -67 15 -29
0 -53 6 -63 15 -8 8 -32 15 -53 15 -22 0 -44 5 -49 10 -6 6 -55 13 -110 16
-54 4 -106 12 -114 18 -8 7 -49 14 -89 15 -41 2 -86 7 -99 12 -61 23 -130 6
-177 -45 -13 -14 -28 -26 -33 -26 -4 0 -18 -18 -30 -39 -29 -51 -51 -60 -58
-22 -4 16 -18 35 -35 45 -16 9 -29 24 -29 32 0 8 -4 14 -8 14 -5 0 -28 27 -52
60 -24 33 -47 60 -52 60 -4 0 -8 4 -8 10 0 5 -15 24 -33 42 -18 18 -46 51 -62
72 -17 22 -42 54 -57 70 -16 17 -28 34 -28 38 0 5 -7 8 -15 8 -8 0 -15 6 -15
13 0 7 -17 31 -37 54 -62 67 -83 93 -83 103 0 6 -7 10 -15 10 -8 0 -15 5 -15
10 0 13 -37 50 -50 50 -5 0 -10 5 -10 11 0 5 -18 29 -39 52 -21 23 -52 58 -67
77 -16 19 -32 37 -36 38 -5 2 -8 10 -8 18 0 8 -7 14 -15 14 -8 0 -15 7 -15 15
0 8 -4 15 -8 15 -5 0 -28 27 -52 60 -24 33 -47 60 -52 60 -4 0 -8 6 -8 13 0 6
-16 30 -35 52 -19 22 -39 45 -45 52 -5 7 -10 17 -10 23 0 5 -4 10 -9 10 -4 0
-21 19 -37 43 -16 23 -32 44 -36 45 -5 2 -8 10 -8 18 0 8 -4 14 -9 14 -5 0
-14 14 -21 30 -7 17 -16 30 -21 30 -5 0 -9 6 -9 14 0 8 -6 16 -13 19 -7 2 -22
23 -32 46 -11 22 -26 41 -32 41 -7 0 -13 5 -13 10 0 6 -21 39 -48 74 -26 35
-54 74 -62 86 -8 12 -21 28 -27 36 -7 7 -13 17 -13 22 0 6 -3 12 -7 14 -10 4
-53 65 -53 74 0 4 -8 13 -17 20 -16 12 -15 13 14 14 17 0 38 -7 47 -15 8 -8
24 -15 36 -15 11 0 23 -7 26 -15 4 -8 14 -15 24 -15 10 0 23 -7 30 -15 7 -8
24 -15 39 -15 14 0 35 -7 45 -15 11 -8 30 -15 42 -15 12 0 35 -6 51 -14 15 -8
47 -22 71 -32 23 -9 42 -21 42 -27 0 -5 11 -20 25 -33 14 -13 25 -26 25 -29 0
-6 13 -23 43 -56 9 -10 17 -25 17 -32 0 -7 5 -18 12 -25 14 -14 68 -16 68 -2
0 6 8 10 19 10 10 0 24 7 31 15 14 17 40 20 40 4 0 -14 41 -48 58 -49 6 0 12
-6 12 -13 0 -6 12 -18 28 -24 15 -7 43 -28 63 -47 20 -19 48 -38 63 -42 l26
-6 1 -162 c1 -88 1 -165 0 -169 -1 -4 6 -21 14 -37 9 -17 15 -57 15 -97 1 -40
7 -78 15 -93 8 -14 14 -38 15 -53 0 -15 7 -43 14 -62 13 -31 19 -35 51 -35 22
0 38 6 41 15 4 8 15 15 25 15 10 0 19 5 19 12 0 6 19 30 43 53 54 52 85 111
69 127 -7 7 -12 27 -12 46 0 18 -5 43 -12 55 -7 12 -15 52 -18 90 -6 71 3 83
34 49 9 -10 41 -32 72 -48 31 -16 59 -35 61 -41 3 -7 13 -13 23 -13 10 0 20
-7 24 -15 3 -8 15 -15 26 -15 11 0 20 -5 20 -11 0 -5 14 -15 30 -20 17 -6 30
-15 30 -20 0 -5 9 -9 19 -9 10 0 21 -7 25 -15 3 -8 15 -15 26 -15 11 0 20 -4
20 -9 0 -5 14 -14 30 -20 17 -5 30 -15 30 -20 0 -6 8 -11 19 -11 10 0 24 -7
31 -15 7 -8 17 -15 23 -15 6 0 19 -8 29 -17 13 -12 34 -17 63 -15 52 2 111 42
169 114 49 62 46 92 -9 122 -22 11 -44 27 -48 34 -4 6 -17 12 -27 12 -10 0
-23 6 -27 13 -4 6 -30 23 -56 37 -27 14 -61 32 -75 40 l-27 15 47 3 c28 2 59
-3 77 -12 16 -9 54 -16 83 -16 31 -1 61 -7 72 -15 26 -20 95 -20 102 0 4 8 14
15 23 15 9 0 24 8 33 18 9 9 37 35 62 57 25 22 46 46 46 53 0 6 5 12 11 12 6
0 9 14 7 32 -4 38 -22 46 -118 47 -37 1 -70 5 -76 11 -5 5 -39 13 -74 17 -35
3 -75 12 -90 20 -14 7 -34 13 -45 13 -11 1 -31 7 -45 15 -14 8 -39 14 -56 15
-17 0 -37 7 -44 15 -7 8 -23 15 -37 15 -13 0 -26 -7 -29 -15 -4 -8 -15 -15
-25 -15 -11 0 -35 -16 -53 -35 -19 -19 -39 -35 -45 -35 -6 0 -11 -5 -11 -11 0
-6 -7 -17 -15 -25 -8 -9 -15 -24 -15 -35 0 -20 0 -20 -29 0 -16 12 -34 21 -40
21 -6 0 -11 7 -11 15 0 8 -9 15 -19 15 -11 0 -26 7 -35 15 -8 8 -19 15 -25 15
-6 0 -11 4 -11 8 0 8 -95 82 -105 82 -3 0 -16 11 -28 24 -32 33 -82 57 -94 45
-7 -7 -11 -3 -11 14 0 24 -33 67 -52 67 -5 0 -13 6 -17 13 -4 8 -21 22 -38 32
-16 10 -42 31 -57 47 -15 15 -30 28 -33 28 -4 0 -24 14 -45 30 -21 17 -43 30
-49 30 -6 0 -11 6 -11 13 0 7 -20 21 -45 32 -25 11 -45 23 -45 27 0 3 -13 11
-30 17 -16 5 -30 15 -30 20 0 6 -13 11 -30 11 -20 0 -30 5 -30 15 0 8 -7 15
-15 15 -8 0 -15 7 -15 15 0 8 -7 15 -15 15 -8 0 -15 5 -15 10 0 6 -8 19 -17
29 -10 11 -24 27 -31 35 -17 21 -81 21 -88 1 -4 -8 -17 -15 -30 -15 -15 0 -24
-6 -24 -16 0 -9 -3 -14 -7 -12 -5 2 -25 12 -45 21 -21 10 -38 21 -38 25 0 9
-44 28 -85 38 -16 3 -35 13 -42 22 -14 17 -95 11 -101 -7 -2 -6 -10 -11 -18
-11 -16 0 -114 -96 -114 -112 0 -5 -9 -21 -20 -35 l-19 -25 -12 26 c-7 14 -16
26 -21 26 -4 0 -8 6 -8 14 0 8 -3 16 -7 18 -12 5 -53 66 -53 78 0 5 -7 10 -15
10 -8 0 -15 5 -15 10 0 12 -4 17 -54 76 -20 23 -36 46 -36 52 0 6 -3 12 -7 14
-11 4 -53 65 -53 76 0 14 103 1 121 -14 8 -8 26 -14 40 -14 13 -1 35 -7 49
-15 14 -8 44 -14 66 -15 24 0 47 -6 54 -15 7 -8 29 -15 50 -15 21 0 51 -7 66
-15 16 -8 41 -15 57 -15 17 0 27 -5 27 -15 0 -10 10 -15 34 -15 18 0 39 -7 46
-15 7 -8 25 -15 40 -15 15 0 33 -7 40 -15 20 -24 97 -19 137 8 18 12 33 25 33
30 0 22 37 0 113 -67 9 -9 23 -16 31 -16 8 0 17 -4 20 -9 10 -15 90 -51 114
-51 13 0 22 -6 22 -15 0 -11 12 -15 43 -15 23 0 51 -7 61 -15 13 -10 43 -15
82 -15 43 0 65 -5 74 -15 12 -14 15 -14 36 0 13 8 32 15 44 15 11 0 20 7 20
15 0 8 9 15 20 15 11 0 20 7 20 15 0 8 7 15 15 15 8 0 15 7 15 15 0 8 5 15 10
15 6 0 10 -7 10 -15 0 -8 -4 -15 -10 -15 -5 0 -12 -11 -16 -25 -3 -14 -10 -25
-15 -25 -5 0 -9 -6 -9 -14 0 -10 24 -15 93 -19 51 -3 106 -12 122 -20 54 -27
105 -47 120 -47 8 0 15 -4 15 -9 0 -5 13 -14 30 -20 17 -5 30 -15 30 -20 0 -6
8 -11 19 -11 10 0 24 -7 31 -15 7 -8 19 -15 26 -15 8 0 14 -7 14 -15 0 -9 9
-15 24 -15 14 0 28 -5 31 -11 4 -5 17 -15 28 -20 12 -5 49 -25 82 -44 33 -19
67 -37 75 -41 8 -3 42 -19 75 -35 33 -16 68 -29 78 -29 10 0 29 -7 42 -16 33
-21 223 -17 247 6 9 8 33 29 53 45 69 55 85 77 85 117 l0 38 -72 0 c-48 1 -80
6 -92 15 -11 8 -27 15 -37 15 -9 0 -30 7 -45 15 -16 8 -37 15 -46 15 -9 0 -37
14 -61 30 -25 17 -52 30 -61 30 -9 0 -16 4 -16 9 0 5 -12 14 -27 20 -16 6 -41
20 -58 31 -16 11 -39 24 -50 30 -59 31 -120 69 -123 79 -2 6 -12 11 -22 11 -9
0 -23 7 -30 15 -7 8 -25 15 -40 15 -15 0 -33 7 -40 15 -7 8 -20 15 -30 15 -10
0 -23 7 -30 15 -7 8 -27 15 -44 15 -18 0 -41 7 -52 15 -26 20 -118 20 -134 0
-7 -8 -20 -15 -28 -15 -9 0 -38 -23 -64 -51 -46 -49 -68 -59 -54 -24 3 9 10
13 16 10 5 -3 10 3 10 15 0 11 5 29 12 40 7 10 10 22 7 25 -3 3 -35 8 -70 11
-35 4 -69 11 -75 15 -6 5 -33 12 -60 15 -27 4 -58 13 -69 20 -11 8 -29 14 -40
14 -11 0 -29 7 -39 15 -11 8 -27 15 -37 15 -9 0 -22 7 -29 15 -7 8 -20 15 -30
15 -10 0 -20 7 -24 15 -3 8 -11 15 -18 15 -8 0 -28 14 -46 30 -18 17 -37 30
-42 30 -5 0 -23 13 -40 30 -34 33 -61 38 -80 15 -7 -8 -21 -15 -31 -15 -11 0
-19 -7 -19 -15 0 -8 -6 -15 -14 -15 -8 0 -16 -7 -20 -15 -8 -21 -26 -19 -77 8
-24 13 -62 27 -84 31 -22 4 -52 14 -67 22 -15 8 -37 14 -50 14 -13 0 -32 7
-42 15 -11 8 -36 15 -55 15 -20 1 -47 7 -61 15 -14 8 -39 14 -56 15 -17 0 -37
7 -44 15 -7 9 -30 15 -54 15 -22 0 -50 7 -60 15 -11 8 -34 15 -52 15 -17 0
-37 7 -44 15 -8 9 -30 15 -60 15 -30 0 -52 6 -60 15 -17 21 -150 22 -150 1 0
-8 -13 -17 -30 -21 -16 -4 -30 -11 -30 -16 0 -5 -4 -9 -10 -9 -5 0 -10 6 -10
14 0 8 -6 21 -13 28 -6 7 -29 39 -50 70 -21 31 -50 69 -63 83 -13 14 -24 28
-24 31 0 9 -75 104 -82 104 -4 0 -8 5 -8 10 0 12 -41 73 -52 78 -5 2 -8 10 -8
18 0 8 -7 14 -15 14 -8 0 -15 5 -15 11 0 6 -13 28 -30 49 -16 21 -30 41 -30
44 0 3 -8 14 -17 24 -10 10 -25 29 -33 42 -8 12 -21 28 -27 36 -7 7 -13 16
-13 19 0 4 -13 24 -30 45 -16 21 -30 43 -30 49 0 6 -7 11 -15 11 -8 0 -15 5
-15 10 0 15 93 12 133 -5 20 -8 58 -15 85 -15 32 0 54 -5 62 -15 9 -10 32 -15
75 -15 41 0 67 -5 74 -14 15 -18 142 -17 149 2 2 6 10 12 18 12 10 0 7 -8 -11
-27 -50 -54 -29 -78 79 -89 43 -4 70 -12 73 -20 3 -9 22 -14 52 -14 25 -1 57
-7 71 -15 14 -8 44 -14 68 -15 23 0 54 -7 67 -16 27 -18 33 -34 12 -34 -14 0
-40 -27 -50 -53 -3 -9 -13 -17 -22 -17 -9 0 -15 -9 -15 -24 0 -14 -4 -28 -10
-31 -12 -7 -14 -55 -2 -55 4 0 23 -15 42 -33 20 -17 53 -41 74 -52 21 -11 40
-26 43 -32 3 -7 13 -13 22 -13 9 0 22 -5 28 -11 8 -8 23 -7 57 6 25 10 46 22
46 26 0 5 7 9 15 9 9 0 18 7 21 15 4 8 12 15 20 15 8 0 14 6 14 14 0 8 3 16 7
18 16 7 53 68 53 88 0 13 -12 28 -30 38 -16 9 -30 20 -30 25 0 4 -11 7 -25 7
-14 0 -28 7 -31 15 -4 8 -12 15 -20 15 -8 0 -14 5 -14 10 0 15 40 12 46 -3 3
-10 34 -14 109 -16 92 -2 104 0 99 13 -4 11 0 16 11 16 15 0 48 27 131 108 26
25 33 81 12 83 -7 1 -29 1 -49 0 -20 -2 -58 5 -83 13 -26 9 -66 16 -90 16 -30
0 -46 5 -50 15 -3 9 -18 15 -39 15 -19 0 -51 7 -70 15 -20 8 -51 15 -70 15
-18 0 -42 7 -53 15 -10 8 -40 15 -65 15 -25 0 -54 7 -65 15 -10 8 -41 15 -69
15 -27 0 -57 5 -65 11 -11 7 21 8 105 4 176 -10 253 -9 418 2 86 6 153 15 159
21 7 7 22 12 34 12 13 0 29 7 38 15 8 8 19 15 24 15 6 0 30 18 53 40 24 22 46
40 50 40 24 0 53 89 35 107 -11 12 -109 2 -130 -13 -29 -20 -474 -20 -560 1
-83 20 -380 19 -397 -1 -6 -8 -29 -14 -51 -14 -35 0 -96 -30 -106 -52 -2 -4
-20 -15 -39 -25 -30 -14 -41 -14 -67 -4 -17 7 -64 15 -103 18 -43 3 -78 12
-84 19 -7 8 -31 14 -58 14 -25 1 -57 7 -71 15 -14 8 -41 14 -61 15 -20 0 -42
7 -49 15 -7 9 -29 15 -52 15 -25 0 -41 5 -44 15 -5 11 -23 15 -75 15 -60 0
-70 3 -80 22 -6 12 -22 33 -35 47 -13 14 -24 29 -24 33 0 5 -8 16 -18 26 -9
10 -24 29 -32 41 -8 13 -23 33 -34 44 -10 12 -31 40 -45 62 -14 23 -38 54 -53
69 -14 16 -34 46 -45 67 -10 21 -24 39 -30 39 -7 0 -13 5 -13 11 0 6 -13 28
-30 49 -16 21 -30 43 -30 49 0 6 -4 11 -8 11 -8 0 -82 95 -82 105 0 3 -7 13
-16 23 -47 53 -74 88 -74 100 0 6 -3 12 -8 12 -4 0 -28 27 -52 60 -25 33 -48
60 -52 60 -5 0 -8 6 -8 13 0 6 -14 25 -30 41 -16 16 -32 37 -35 47 -4 11 -11
19 -16 19 -5 0 -9 7 -9 15 0 8 -7 15 -15 15 -8 0 -15 4 -15 9 0 9 -20 34 -87
111 -18 21 -33 43 -33 49 0 6 -4 11 -10 11 -5 0 -16 12 -24 28 -8 15 -31 44
-50 65 -20 21 -36 42 -36 46 0 5 -7 11 -15 15 -8 3 -15 12 -15 19 0 8 -13 27
-30 43 -16 16 -30 34 -30 40 0 7 -6 14 -12 17 -7 3 -21 19 -31 36 l-18 31 47
-25 c26 -14 51 -25 55 -25 14 0 158 -71 164 -81 4 -5 15 -9 26 -9 11 0 22 -7
25 -15 4 -8 14 -15 24 -15 11 0 22 -5 25 -11 4 -5 17 -14 28 -20 12 -5 29 -13
37 -18 8 -5 35 -19 60 -31 49 -23 65 -31 95 -48 11 -7 30 -16 43 -22 12 -5 22
-14 22 -20 0 -5 11 -10 25 -10 14 0 28 -7 31 -15 4 -8 14 -15 24 -15 11 0 21
-4 24 -9 8 -12 204 -111 221 -111 7 0 18 -7 25 -15 7 -8 20 -15 30 -15 10 0
23 -7 30 -15 7 -8 24 -15 39 -15 15 0 32 -5 38 -11 13 -13 47 -33 82 -49 30
-13 121 -2 128 16 3 8 11 14 19 14 8 0 14 6 14 13 0 6 14 18 30 25 21 10 30
21 30 38 0 15 6 24 15 24 11 0 15 12 15 45 0 38 -3 45 -19 45 -11 0 -26 7 -35
15 -8 8 -24 15 -36 15 -11 0 -23 7 -26 15 -4 8 -16 15 -29 15 -12 0 -46 13
-76 29 -30 15 -66 31 -81 35 -16 3 -28 11 -28 16 0 6 -11 10 -25 10 -14 0 -28
7 -31 15 -4 8 -14 15 -24 15 -10 0 -23 7 -30 15 -7 8 -17 15 -22 15 -5 0 -16
7 -24 15 -9 8 -24 15 -35 15 -10 0 -19 4 -19 9 0 5 -13 14 -30 20 -16 5 -30
15 -30 20 0 6 -8 11 -19 11 -10 0 -24 7 -31 15 -7 8 -20 15 -30 15 -10 0 -20
7 -24 15 -3 8 -11 15 -18 15 -16 0 -96 39 -104 51 -3 5 -12 9 -20 9 -9 0 -22
7 -30 15 -9 8 -24 15 -35 15 -10 0 -19 7 -19 15 0 9 -9 15 -25 15 -14 0 -28 7
-31 15 -4 9 -19 15 -35 15 -19 0 -29 5 -29 15 0 10 -10 15 -30 15 -20 0 -30 5
-30 15 0 9 -9 15 -23 15 -12 0 -56 18 -97 40 -41 22 -85 44 -96 49 -12 5 -30
21 -42 35 -24 31 -60 34 -92 6 -13 -11 -27 -20 -32 -20 -12 0 -31 -16 -78 -64
-37 -38 -38 -39 -57 -20 -10 10 -27 33 -38 49 -10 17 -24 34 -32 38 -7 4 -13
15 -13 22 0 8 -3 15 -8 15 -4 0 -27 27 -51 60 -24 33 -48 60 -52 60 -5 0 -9 6
-9 14 0 8 -7 17 -16 20 -12 5 -14 15 -9 50 l7 45 -36 -6 c-24 -4 -36 -2 -36 6
0 11 -8 23 -40 59 -8 10 -23 30 -33 45 -17 26 -17 27 3 27 27 0 120 -40 120
-51 0 -5 11 -9 25 -9 14 0 28 -7 31 -15 4 -8 14 -15 24 -15 10 0 23 -7 30 -15
7 -8 21 -15 31 -15 9 0 24 -7 33 -15 9 -9 33 -15 65 -15 31 0 55 6 65 15 8 8
19 15 25 15 6 0 11 7 11 15 0 8 7 15 15 15 8 0 15 7 15 15 0 8 7 15 15 15 8 0
15 7 15 15 0 8 4 15 9 15 11 0 41 57 41 77 0 7 -11 18 -25 23 -14 5 -25 14
-25 20 0 5 -14 10 -30 10 -18 0 -33 6 -36 15 -4 8 -14 15 -24 15 -10 0 -23 7
-30 15 -7 8 -21 15 -31 15 -10 0 -22 6 -26 13 -4 7 -25 21 -47 32 -21 11 -40
26 -43 33 -3 6 -13 12 -23 12 -10 0 -20 7 -24 15 -3 8 -15 15 -26 15 -11 0
-20 5 -20 10 0 6 -7 10 -15 10 -8 0 -25 10 -36 21 -18 18 -33 22 -85 21 -50
-1 -64 2 -64 13 0 8 -7 15 -15 15 -9 0 -18 7 -21 15 -4 8 -17 15 -30 15 -14 0
-27 7 -30 15 -4 8 -12 15 -20 15 -8 0 -14 4 -14 9 0 5 -15 19 -34 30 -39 25
-104 28 -132 6 -24 -19 -45 -19 -38 -1 3 8 -4 24 -15 35 -12 12 -21 24 -21 27
0 3 -13 23 -30 44 -16 21 -30 43 -30 49 0 6 -4 11 -9 11 -4 0 -21 19 -37 43
-16 23 -32 44 -36 45 -5 2 -8 8 -8 14 0 6 -13 27 -30 48 -16 21 -30 42 -30 48
0 6 -3 12 -7 14 -12 5 -53 66 -53 78 0 5 -7 10 -15 10 -8 0 -15 5 -15 10 0 12
-41 73 -52 78 -5 2 -8 10 -8 17 0 7 -6 15 -13 18 -7 2 -22 23 -32 46 -11 22
-26 41 -32 41 -7 0 -13 7 -13 15 0 8 -4 15 -9 15 -5 0 -19 17 -31 38 -12 20
-28 41 -36 45 -8 4 -14 12 -14 18 0 13 -72 109 -82 109 -4 0 -8 7 -8 15 0 8
-4 15 -9 15 -5 0 -12 8 -15 18 -3 9 -19 31 -36 49 -16 18 -30 37 -30 42 0 6
-4 11 -9 11 -4 0 -28 27 -52 60 -24 33 -47 60 -51 60 -5 0 -8 5 -8 10 0 6 -5
16 -10 23 -32 38 -80 107 -80 115 0 5 -7 15 -15 22 -19 16 -19 30 -1 30 8 0
16 7 20 15 3 9 18 15 36 15 18 0 33 6 36 15 4 8 15 15 25 15 11 0 22 6 25 14
3 8 19 18 35 21 16 4 29 10 29 15 0 5 10 12 23 16 12 4 50 35 85 69 46 46 62
69 62 89 0 32 -49 86 -78 86 -11 0 -25 7 -32 15 -7 8 -25 15 -40 15 -15 0 -44
7 -65 16 -23 9 -63 15 -104 14 -36 -1 -70 -1 -74 -1 -5 1 1 13 12 27 12 15 21
33 21 40 0 8 7 14 15 14 8 0 15 9 15 19 0 10 7 21 15 25 9 3 15 18 15 40 0 19
3 36 8 38 11 5 52 85 52 101 0 8 7 17 15 21 8 3 15 18 15 32 0 15 5 43 12 61
15 42 -1 65 -32 45 -11 -6 -31 -12 -44 -12 -14 0 -31 -6 -38 -14 -8 -7 -29
-17 -46 -21 -18 -4 -58 -20 -90 -36 -31 -16 -67 -29 -79 -29 -13 0 -23 -4 -23
-10 0 -5 -6 -10 -12 -10 -7 -1 -31 -9 -53 -20 -22 -11 -47 -19 -57 -20 -9 0
-18 -4 -20 -9 -1 -5 -16 -11 -33 -13 l-30 -3 1 284 c1 252 3 285 18 296 9 7
16 17 16 23 0 6 8 24 17 40 13 23 15 37 8 58 -11 31 -19 34 -58 25z m283 -826
c-13 -14 -27 -25 -32 -25 -11 0 -48 -33 -48 -43 0 -5 -7 -15 -15 -23 -8 -9
-15 -26 -15 -39 0 -18 4 -23 15 -19 8 4 15 1 15 -5 0 -6 -4 -11 -10 -11 -5 0
-10 -6 -10 -13 0 -8 -9 -22 -20 -32 -11 -10 -20 -24 -20 -32 0 -7 -4 -13 -10
-13 -5 0 -10 -7 -10 -15 0 -8 -8 -22 -19 -32 -10 -10 -21 -35 -25 -56 -6 -34
-5 -38 19 -47 35 -13 205 -13 205 0 0 6 10 10 23 10 18 0 19 -2 7 -10 -12 -7
-8 -10 15 -10 23 0 27 -3 15 -10 -8 -5 -34 -10 -57 -10 -23 0 -48 -7 -57 -15
-8 -8 -19 -15 -25 -15 -20 0 -81 -35 -81 -47 0 -7 -5 -13 -11 -13 -16 0 -79
-68 -79 -85 0 -7 -4 -17 -10 -20 -5 -3 -10 -17 -10 -30 0 -13 5 -27 10 -30 6
-3 10 -22 10 -41 l0 -36 -26 31 c-28 34 -63 40 -88 16 -8 -8 -18 -15 -23 -15
-12 0 -103 -96 -103 -109 0 -6 -7 -11 -15 -11 -9 0 -15 -9 -15 -24 0 -13 -4
-26 -9 -28 -9 -3 -20 -81 -21 -150 0 -27 -4 -38 -15 -38 -8 0 -15 -7 -15 -15
0 -8 -4 -15 -10 -15 -12 0 -19 300 -9 395 4 35 1 40 -18 43 -13 2 -23 -1 -23
-7 0 -6 -11 -11 -25 -11 -31 0 -32 13 -2 28 55 29 127 91 127 109 0 6 7 14 16
17 10 4 14 15 12 33 -2 21 -12 31 -42 42 -22 8 -49 24 -61 35 -21 21 -23 56
-3 56 6 0 37 28 69 61 61 63 71 90 47 129 -10 16 -10 22 2 34 15 14 80 32 80
22 0 -3 -11 -22 -25 -42 -14 -21 -24 -45 -23 -53 4 -18 58 -28 58 -12 0 6 7
11 15 11 9 0 18 7 21 15 4 8 11 15 16 15 13 0 58 42 58 54 0 5 8 14 17 21 15
11 15 15 4 29 -9 11 -10 16 -2 16 6 0 11 7 11 15 0 10 14 17 40 21 22 4 40 10
40 14 0 4 16 11 35 14 19 4 35 11 35 16 0 4 15 12 33 15 17 4 41 14 52 21 31
22 43 -1 15 -31z m1690 -3307 c0 -7 16 -31 35 -53 54 -63 55 -64 55 -69 0 -2
13 -19 29 -38 16 -18 43 -49 60 -68 17 -19 31 -41 31 -47 0 -7 7 -13 15 -13 8
0 15 -7 15 -15 0 -8 4 -15 10 -15 5 0 16 -12 24 -27 8 -16 31 -45 50 -66 20
-21 36 -40 36 -43 0 -8 64 -88 78 -97 6 -4 12 -12 12 -17 0 -5 16 -26 35 -47
19 -21 35 -44 35 -50 0 -7 5 -13 10 -13 6 0 10 -4 10 -10 0 -5 7 -18 16 -27
47 -54 74 -89 74 -100 0 -7 4 -13 8 -13 5 0 30 -30 57 -67 27 -36 58 -76 70
-89 11 -12 27 -32 35 -44 8 -13 21 -28 28 -36 6 -7 12 -16 12 -21 0 -4 14 -21
30 -37 17 -16 30 -38 30 -48 0 -10 7 -18 15 -18 8 0 15 -7 15 -15 0 -8 7 -15
15 -15 8 0 15 -5 15 -11 0 -6 14 -28 30 -49 17 -21 30 -41 30 -44 0 -4 11 -19
25 -34 14 -15 28 -37 31 -49 4 -13 9 -23 13 -23 9 0 81 -97 81 -110 0 -5 4
-10 9 -10 4 0 21 -19 37 -42 16 -24 32 -44 37 -46 4 -2 7 -8 7 -13 0 -5 7 -17
16 -26 47 -54 74 -89 74 -100 0 -7 3 -13 8 -13 4 0 32 -34 62 -75 30 -41 61
-74 68 -75 17 0 15 -17 -3 -24 -8 -3 -15 -13 -15 -22 0 -9 -6 -22 -13 -28 -22
-18 0 -331 32 -451 15 -60 31 -161 39 -247 4 -42 13 -83 20 -90 7 -7 12 -37
12 -68 0 -34 6 -64 15 -76 8 -10 15 -38 15 -62 0 -23 7 -59 15 -79 8 -19 15
-65 15 -102 0 -44 5 -74 15 -87 8 -10 15 -32 15 -48 0 -16 7 -37 16 -47 14
-16 14 -20 -3 -45 -10 -16 -30 -42 -45 -58 -16 -17 -28 -34 -28 -39 0 -5 -7
-15 -15 -23 -8 -9 -15 -24 -15 -34 0 -10 -7 -31 -15 -46 -8 -16 -15 -38 -15
-49 0 -11 -7 -29 -15 -39 -10 -13 -15 -43 -15 -82 0 -34 -3 -69 -6 -78 -7 -17
-44 -22 -44 -6 0 6 -27 38 -60 71 -39 41 -65 59 -75 56 -13 -6 -15 7 -15 84 0
70 3 91 15 95 8 4 15 15 15 25 0 10 6 19 14 19 8 0 16 14 19 33 4 25 -3 43
-29 84 -19 28 -34 57 -34 65 0 7 -7 22 -15 32 -8 11 -15 26 -15 34 0 7 -7 20
-15 28 -8 9 -15 24 -15 33 0 10 -7 24 -15 31 -8 7 -15 23 -15 36 0 12 -6 29
-13 36 -8 7 -17 26 -21 41 -3 15 -11 27 -16 27 -6 0 -10 13 -10 28 0 16 -7 37
-15 48 -8 10 -15 31 -15 45 0 15 -7 29 -15 33 -8 3 -15 16 -15 29 0 13 -7 32
-15 43 -8 10 -15 31 -15 45 0 15 -7 29 -15 33 -8 3 -15 16 -15 30 0 13 -6 26
-12 28 -13 5 39 76 56 77 13 1 33 30 56 78 32 67 24 103 -21 103 -16 0 -29 -4
-29 -9 0 -5 -13 -12 -30 -16 -16 -4 -30 -11 -30 -16 0 -5 -5 -9 -10 -9 -6 0
-21 -11 -33 -25 -14 -16 -36 -27 -59 -30 l-37 -5 -3 175 c-2 112 -7 178 -14
185 -17 17 -77 -3 -116 -39 -35 -32 -65 -35 -97 -8 -9 7 -34 22 -56 32 -22 11
-45 26 -51 34 -8 10 -23 12 -58 8 -44 -6 -54 -11 -91 -45 -25 -23 -38 -8 -16
17 12 13 21 30 21 38 0 8 6 21 14 28 10 10 14 45 15 122 1 59 6 125 12 147 6
21 11 88 11 148 0 102 10 141 25 102 6 -16 219 -234 228 -234 2 0 22 -18 45
-40 23 -22 46 -40 51 -40 5 0 19 -10 31 -22 30 -30 90 -29 122 1 12 11 26 21
30 21 11 0 76 66 76 77 0 6 6 13 14 16 15 6 28 59 20 82 -4 8 -12 15 -20 15
-8 0 -14 5 -14 10 0 6 -5 10 -11 10 -16 0 -77 51 -167 139 -41 39 -78 71 -83
71 -5 0 -9 7 -9 15 0 8 -7 15 -15 15 -8 0 -15 7 -15 15 0 8 -7 15 -15 15 -8 0
-15 7 -15 15 0 8 -7 15 -15 15 -8 0 -15 7 -15 15 0 8 -4 15 -10 15 -13 0 -50
37 -50 50 0 6 -7 10 -15 10 -8 0 -15 4 -15 9 0 5 -23 33 -50 62 -28 30 -56 66
-63 81 -6 16 -15 28 -19 28 -4 0 -17 18 -30 41 -15 28 -31 42 -50 46 -21 4
-28 11 -28 29 0 12 -4 25 -9 28 -5 3 -12 18 -15 32 -4 15 -14 33 -21 41 -8 8
-15 23 -15 33 0 10 -7 20 -15 24 -8 3 -15 16 -15 29 0 14 -7 30 -15 37 -8 7
-15 19 -15 27 0 8 -6 27 -14 41 -27 52 -46 103 -46 121 0 10 -7 24 -15 31 -8
7 -15 20 -15 29 0 10 -7 26 -15 37 -8 10 -15 28 -15 39 0 11 -7 33 -15 49 -8
15 -15 36 -15 46 0 10 -7 20 -15 24 -8 3 -15 16 -15 28 0 13 -7 36 -15 52 -8
15 -15 36 -15 45 0 10 -7 26 -15 37 -8 10 -15 31 -15 45 0 14 -7 34 -15 45
-16 21 -20 94 -5 94 6 0 10 -6 10 -12z m1770 -2343 c0 -7 6 -15 13 -18 7 -2
22 -23 32 -46 11 -22 26 -41 33 -41 6 0 12 -5 12 -11 0 -6 14 -28 30 -49 17
-21 30 -41 30 -44 0 -6 13 -22 62 -79 15 -18 28 -38 28 -44 0 -7 4 -13 8 -13
10 0 82 -96 82 -110 0 -5 7 -10 15 -10 8 0 15 -5 15 -10 0 -14 72 -110 82
-110 4 0 8 -5 8 -12 0 -6 7 -18 15 -27 39 -41 75 -87 75 -98 0 -6 3 -13 8 -15
4 -1 20 -22 36 -45 16 -24 33 -43 37 -43 5 0 9 -6 9 -14 0 -7 7 -19 15 -26 22
-18 19 -36 -12 -71 -16 -16 -36 -44 -45 -62 -22 -39 -24 -120 -3 -137 9 -8 15
-30 15 -59 1 -25 7 -57 15 -71 8 -14 15 -43 15 -65 0 -22 7 -51 15 -65 8 -14
14 -45 15 -68 0 -24 6 -58 14 -75 8 -18 17 -50 20 -72 2 -22 9 -62 15 -90 11
-51 26 -145 39 -245 4 -30 13 -64 19 -76 7 -11 13 -49 14 -85 1 -35 8 -75 15
-89 11 -23 18 -99 15 -157 0 -13 -7 -23 -16 -23 -10 0 -15 -10 -15 -29 0 -16
-4 -31 -10 -33 -5 -1 -12 -23 -15 -46 -3 -24 -12 -51 -20 -59 -8 -8 -15 -23
-15 -33 0 -10 -4 -21 -9 -24 -5 -4 -12 -24 -16 -46 -4 -22 -11 -40 -15 -40 -5
0 -12 -10 -15 -22 -4 -13 -12 -36 -20 -53 -7 -16 -21 -48 -31 -70 -9 -22 -23
-46 -31 -53 -7 -7 -13 -24 -13 -37 0 -13 -5 -25 -11 -27 -6 -2 -14 -27 -16
-54 -4 -40 -2 -52 11 -57 8 -3 18 -2 21 3 4 6 16 10 29 10 13 0 31 9 41 20 10
11 25 20 34 20 20 0 141 126 141 145 0 8 -6 18 -14 22 -14 8 5 60 60 165 8 14
14 33 14 42 0 9 5 16 10 16 6 0 10 -17 10 -37 1 -21 7 -49 15 -63 8 -14 14
-35 15 -47 0 -12 7 -28 15 -37 8 -8 15 -24 15 -35 0 -31 32 -88 58 -102 18
-10 27 -10 42 -1 11 7 25 12 31 12 6 0 28 14 49 30 40 32 60 38 60 18 0 -6 28
-41 63 -77 34 -36 83 -90 108 -118 30 -36 55 -55 77 -59 25 -5 32 -3 32 10 0
9 7 16 15 16 8 0 29 16 48 35 19 19 39 35 46 35 6 0 11 7 11 15 0 8 7 15 15
15 8 0 15 8 15 18 0 10 5 23 11 29 21 21 -1 65 -57 119 -52 50 -62 74 -28 74
8 0 14 7 14 15 0 8 4 15 10 15 5 0 12 11 16 25 3 14 10 25 14 25 4 0 11 26 15
58 5 43 2 65 -9 87 -13 24 -16 66 -16 210 l1 180 22 -30 c12 -16 37 -45 54
-63 18 -18 33 -37 33 -42 0 -6 5 -10 10 -10 11 0 50 -36 50 -46 0 -3 13 -17
28 -32 52 -49 152 -169 152 -180 0 -7 7 -12 15 -12 8 0 15 -7 15 -15 0 -8 7
-15 15 -15 8 0 15 -4 15 -10 0 -5 15 -25 33 -44 17 -19 37 -40 42 -48 6 -8 18
-23 28 -35 19 -21 18 -22 -27 -66 -26 -25 -46 -53 -46 -65 0 -11 -4 -24 -10
-27 -12 -8 -13 -91 -1 -170 5 -33 13 -169 16 -302 l7 -243 -50 0 c-32 0 -54 5
-62 15 -7 8 -18 15 -24 14 -6 -1 -73 -1 -148 0 l-138 1 0 34 c0 18 -7 39 -15
46 -8 7 -15 18 -15 26 0 7 -6 28 -14 46 -8 18 -22 60 -32 93 -10 33 -24 67
-31 76 -7 8 -13 21 -13 28 0 6 -6 24 -14 40 -13 23 -19 27 -50 23 -20 -2 -36
-8 -36 -13 0 -5 -6 -9 -14 -9 -7 0 -29 -13 -47 -30 -40 -35 -45 -36 -53 -12
-3 9 -9 24 -14 32 -23 40 -42 83 -42 95 0 7 -7 18 -15 25 -8 7 -15 24 -15 39
0 15 -5 32 -12 39 -15 15 -54 16 -63 2 -3 -6 -15 -10 -25 -10 -10 0 -30 -13
-43 -30 -14 -16 -29 -30 -33 -30 -4 0 -13 -8 -20 -17 -12 -16 -13 -15 -14 14
0 17 5 35 10 38 16 10 12 65 -5 71 -27 11 -108 -37 -167 -99 -32 -33 -58 -68
-58 -76 0 -9 -7 -25 -15 -35 -10 -13 -15 -43 -15 -82 0 -37 -5 -68 -13 -76 -7
-8 -13 -44 -14 -88 -1 -43 -6 -76 -12 -78 -6 -2 -14 -21 -17 -43 -4 -21 -10
-39 -15 -39 -5 0 -9 -7 -9 -15 0 -13 -56 -15 -445 -15 -245 0 -445 2 -445 5 0
8 37 43 59 55 12 6 21 20 21 30 0 11 7 20 15 20 10 0 15 11 15 35 0 19 4 44
10 57 5 13 13 59 17 102 7 65 11 80 26 82 10 1 21 -5 24 -14 4 -9 33 -45 65
-80 32 -34 58 -69 58 -77 0 -21 78 -21 86 0 4 8 12 15 20 15 18 0 103 86 127
127 25 45 22 60 -20 102 -51 51 -83 91 -83 102 0 5 -7 9 -15 9 -8 0 -15 6 -15
14 0 8 -3 16 -8 18 -10 4 -82 93 -82 102 0 4 -10 17 -23 29 -44 44 -120 139
-139 175 -11 22 -18 57 -18 88 0 64 -22 95 -49 69 -22 -19 -41 -19 -41 0 0 8
4 15 10 15 5 0 12 11 16 25 3 14 10 25 15 25 4 0 11 17 14 37 3 21 11 46 16
57 6 10 13 43 16 72 3 30 12 59 19 65 9 8 14 35 14 81 0 38 4 78 10 88 5 10
12 77 15 149 6 144 1 156 -51 132 -22 -10 -26 -8 -35 16 -12 32 -100 153 -111
153 -16 0 -8 19 11 25 10 3 39 26 64 50 25 25 50 45 56 45 6 0 11 9 11 19 0
11 5 21 12 23 7 3 13 32 16 74 2 38 8 73 13 79 6 5 9 2 9 -9 0 -9 4 -14 10
-11 5 3 12 -7 16 -22 8 -39 47 -123 56 -123 5 0 8 -7 8 -15 0 -17 38 -93 51
-101 5 -3 9 -13 9 -23 0 -10 7 -24 15 -31 8 -7 15 -19 15 -26 0 -8 9 -23 20
-34 11 -11 20 -27 20 -35 0 -11 12 -15 44 -15 34 0 51 6 77 30 19 16 40 30 47
30 6 0 12 7 12 15 0 8 7 15 15 15 10 0 15 10 15 29 0 16 7 34 15 41 16 14 21
60 5 60 -5 0 -18 21 -30 47 -11 26 -27 54 -35 63 -7 8 -17 27 -20 43 -4 15
-11 27 -16 27 -5 0 -9 8 -9 19 0 10 -7 24 -15 31 -8 7 -15 20 -15 29 0 10 -7
26 -15 37 -8 10 -15 27 -15 37 0 11 -6 31 -13 45 -8 15 -21 42 -30 60 -9 19
-17 41 -17 51 0 9 -7 26 -15 38 -9 13 -16 47 -16 90 -2 66 -20 119 -46 136 -7
4 -13 26 -13 48 0 22 -7 56 -15 76 -8 19 -15 59 -15 87 0 29 -6 61 -14 72 -10
13 -16 51 -17 105 -1 46 -8 101 -15 123 -8 21 -14 69 -14 106 0 48 -4 71 -15
80 -17 14 -22 115 -5 105 6 -3 10 -12 10 -20z m-780 -1039 c0 -12 7 -31 15
-42 8 -10 15 -26 15 -35 0 -9 7 -22 15 -29 8 -7 15 -20 15 -30 0 -10 7 -23 15
-30 8 -7 15 -21 15 -32 0 -10 7 -21 15 -24 17 -7 21 -34 5 -34 -5 0 -13 -12
-16 -27 -4 -16 -13 -37 -20 -48 -17 -27 -16 -141 2 -156 11 -9 14 -66 14 -279
0 -148 3 -275 6 -284 7 -17 54 -22 54 -6 0 6 8 10 19 10 10 0 24 7 31 15 7 8
19 15 26 15 8 0 14 5 14 11 0 7 15 27 33 45 54 55 67 77 67 116 0 21 5 38 10
38 6 0 10 -5 10 -11 0 -6 7 -17 15 -25 8 -9 15 -24 15 -35 0 -10 5 -19 10 -19
6 0 15 -10 21 -22 15 -34 35 -68 48 -81 6 -6 11 -26 11 -44 0 -23 5 -33 15
-33 18 0 19 -28 3 -67 -6 -15 -15 -82 -19 -148 -11 -184 -34 -269 -88 -319
-17 -17 -31 -36 -31 -43 0 -7 -4 -13 -10 -13 -5 0 -10 -11 -10 -24 0 -13 -9
-35 -20 -49 -11 -14 -20 -30 -20 -36 0 -6 -4 -19 -9 -29 -5 -9 -14 -28 -20
-42 -6 -14 -20 -38 -30 -55 -11 -16 -20 -37 -20 -46 -1 -9 -10 -24 -21 -34
-11 -10 -20 -24 -20 -32 0 -7 -4 -13 -10 -13 -5 0 -10 -7 -10 -15 0 -8 -9 -24
-20 -35 -11 -11 -20 -23 -20 -26 0 -3 -7 -12 -15 -20 -8 -9 -15 -24 -15 -35 0
-10 -7 -19 -15 -19 -8 0 -15 -7 -15 -15 0 -8 -7 -15 -15 -15 -10 0 -15 -10
-15 -30 0 -20 -5 -30 -15 -30 -8 0 -15 -7 -15 -15 0 -8 -7 -15 -15 -15 -8 0
-16 -8 -16 -17 -4 -60 -19 83 -19 186 -1 105 -4 127 -18 137 -16 13 -16 13 0
14 11 0 15 5 12 15 -4 8 -1 15 6 15 7 0 30 16 51 35 22 19 44 35 50 35 13 0
33 20 42 43 3 9 12 17 19 17 7 1 31 25 52 55 22 30 43 55 48 55 4 0 8 5 8 11
0 6 14 28 30 49 17 21 30 43 30 49 0 6 7 11 15 11 8 0 15 9 15 20 0 11 4 20
10 20 5 0 12 11 16 25 3 14 10 25 15 25 5 0 9 5 9 10 0 12 39 71 54 81 5 4 5
12 2 18 -9 13 -46 15 -46 2 0 -5 -13 -12 -30 -16 -16 -4 -30 -11 -30 -16 0 -5
-7 -9 -15 -9 -8 0 -15 -7 -15 -15 0 -9 -8 -19 -17 -22 -23 -9 -37 -23 -46 -45
-3 -10 -12 -18 -20 -18 -7 0 -20 -12 -29 -27 -9 -16 -30 -41 -47 -58 -17 -16
-31 -36 -31 -42 0 -7 -4 -13 -9 -13 -6 0 -20 -18 -33 -40 -22 -36 -103 -110
-120 -110 -5 0 -8 7 -8 15 0 11 -11 15 -40 15 -46 0 -50 8 -15 34 l25 19 0
246 c0 135 -3 261 -7 279 -6 38 -27 51 -54 34 -10 -7 -26 -12 -34 -12 -9 0
-18 -7 -21 -15 -4 -8 -12 -15 -20 -15 -8 0 -14 -4 -14 -8 0 -4 -16 -23 -35
-42 -19 -19 -35 -42 -35 -51 0 -9 -7 -22 -15 -29 -13 -11 -15 -50 -13 -263 2
-190 6 -251 16 -255 16 -5 16 -42 -1 -42 -8 0 -20 -12 -28 -27 -7 -16 -20 -36
-29 -45 -25 -29 -35 -41 -60 -83 -13 -22 -28 -43 -33 -46 -10 -7 -30 -40 -46
-76 -6 -13 -15 -23 -21 -23 -5 0 -10 -8 -10 -19 0 -10 -7 -24 -15 -31 -8 -7
-15 -19 -15 -26 0 -8 -7 -14 -15 -14 -10 0 -15 -10 -15 -30 0 -20 -5 -30 -15
-30 -8 0 -15 -7 -15 -15 0 -8 -4 -15 -10 -15 -5 0 -10 -9 -10 -20 0 -10 -9
-24 -20 -30 -11 -6 -20 -15 -20 -21 0 -6 -7 -17 -15 -25 -8 -9 -15 -24 -15
-35 0 -10 -4 -19 -10 -19 -5 0 -7 -7 -4 -15 4 -8 2 -15 -2 -15 -146 -6 -227
-11 -235 -15 -16 -11 -11 197 6 219 9 11 15 42 15 70 0 28 5 58 10 66 8 12 10
11 10 -7 0 -36 32 -46 80 -26 22 10 40 21 40 25 0 9 45 58 54 58 12 0 30 23
43 53 7 15 17 27 23 27 5 0 10 7 10 15 0 8 4 15 9 15 5 0 12 12 16 27 3 15 10
30 14 33 5 3 20 31 35 63 14 31 30 57 36 57 5 0 10 8 10 19 0 10 7 24 15 31 8
7 15 20 15 30 0 10 7 23 15 30 8 7 15 20 15 30 0 10 7 23 15 30 8 7 15 23 15
37 0 13 7 31 15 39 8 9 15 26 15 38 0 13 7 29 15 36 9 7 15 29 15 51 0 22 5
39 10 39 6 0 10 6 10 13 1 6 9 30 20 52 11 22 19 48 20 58 0 9 4 17 9 17 5 0
13 10 17 23 4 12 18 39 30 59 26 41 31 84 12 91 -18 6 -77 -25 -78 -40 0 -7
-6 -13 -13 -13 -16 0 -101 -79 -110 -103 -3 -9 -11 -17 -17 -17 -5 0 -10 -9
-10 -19 0 -10 -7 -21 -15 -25 -9 -3 -15 -18 -15 -36 0 -16 -4 -30 -10 -30 -5
0 -10 -8 -10 -18 0 -9 -9 -34 -20 -55 -11 -20 -20 -44 -20 -52 0 -8 -4 -15 -9
-15 -5 0 -12 -18 -16 -40 -4 -22 -10 -40 -14 -40 -9 0 -51 -95 -51 -115 0 -8
-4 -15 -10 -15 -5 0 -12 -11 -16 -25 -3 -14 -10 -25 -14 -25 -5 0 -11 -14 -15
-30 -4 -17 -11 -30 -16 -30 -5 0 -9 -6 -9 -14 0 -8 -6 -21 -13 -28 -7 -7 -24
-35 -38 -63 -13 -27 -30 -56 -36 -63 -7 -7 -13 -22 -13 -31 0 -10 -7 -24 -15
-31 -8 -7 -15 -21 -15 -31 0 -10 -4 -21 -10 -24 -16 -10 -12 89 5 121 8 16 15
43 15 59 0 17 7 39 15 49 8 11 15 30 15 43 0 13 6 34 14 46 8 12 18 44 21 70
7 47 7 49 -16 45 -15 -2 -24 2 -23 10 1 6 2 18 3 26 0 8 12 17 26 20 14 4 25
11 25 16 0 6 7 10 15 10 9 0 18 7 21 15 4 8 10 15 15 15 12 0 49 38 49 50 0 6
7 10 15 10 8 0 15 9 15 20 0 11 4 20 10 20 5 0 12 11 16 25 3 14 12 25 20 25
8 0 14 7 14 15 0 16 12 34 43 63 9 9 17 24 17 34 0 10 4 18 10 18 5 0 12 11
16 25 3 14 12 25 20 25 8 0 14 7 14 16 0 8 7 22 15 30 8 9 15 24 15 35 0 10 4
19 10 19 5 0 12 11 16 25 3 14 10 25 14 25 5 0 11 18 15 40 4 22 11 40 16 40
5 0 9 5 9 11 0 22 61 138 88 167 6 7 12 20 12 28 0 8 5 14 10 14 6 0 10 6 10
13 0 7 7 22 15 33 14 18 16 18 29 1 10 -13 21 -15 45 -11 17 4 31 10 31 15 0
5 9 9 20 9 11 0 20 6 20 13 0 7 14 21 30 30 17 10 30 25 30 33 0 8 7 14 15 14
8 0 15 6 15 14 0 7 6 19 14 25 11 9 14 74 14 344 0 182 1 340 1 350 1 26 21
10 21 -17z m1680 -192 c0 -8 5 -12 10 -9 6 3 13 -2 17 -12 3 -10 19 -34 35
-54 15 -20 28 -39 28 -43 0 -3 15 -20 33 -39 19 -18 40 -47 48 -65 7 -18 20
-32 26 -32 7 0 13 -4 13 -10 0 -5 7 -18 16 -27 42 -48 74 -89 74 -97 0 -4 14
-25 30 -46 17 -21 30 -43 30 -49 0 -6 4 -11 9 -11 4 0 21 -19 37 -42 16 -24
32 -44 37 -46 4 -2 7 -10 7 -18 0 -8 4 -14 10 -14 5 0 14 -9 21 -21 9 -17 7
-25 -8 -42 -41 -47 -46 -72 -39 -174 3 -54 11 -170 16 -258 5 -88 13 -171 18
-185 5 -14 7 -32 3 -40 -8 -20 -31 -24 -31 -6 0 8 -16 30 -35 49 -19 19 -35
40 -35 46 0 6 -7 11 -15 11 -8 0 -15 5 -15 10 0 11 -39 70 -52 80 -3 3 -9 17
-13 32 -8 31 -55 54 -74 35 -8 -8 -11 5 -11 48 -1 33 -7 71 -15 85 -8 14 -14
52 -15 89 0 44 -5 67 -15 75 -9 7 -15 33 -16 76 -1 36 -8 77 -15 92 -8 15 -14
49 -14 76 0 27 -6 57 -15 68 -8 10 -15 33 -15 49 0 17 -6 39 -14 50 -7 11 -17
55 -21 97 -3 43 -11 80 -16 84 -5 3 -9 38 -9 79 0 40 -4 75 -9 77 -5 2 -13 16
-17 32 -5 21 -4 27 5 22 6 -4 11 -14 11 -22z m-1950 -330 c3 -129 -1 -154 -22
-154 -15 0 -153 -147 -170 -179 -7 -14 -18 -33 -26 -41 -38 -45 -52 -64 -52
-77 0 -7 -4 -13 -10 -13 -5 0 -12 -11 -16 -24 -3 -14 -12 -27 -20 -30 -8 -3
-14 -12 -14 -20 0 -16 -29 -73 -47 -94 -7 -7 -13 -23 -13 -35 0 -12 -7 -31
-15 -41 -8 -11 -15 -30 -15 -43 0 -13 -7 -26 -15 -29 -8 -4 -15 -17 -15 -31 0
-14 -13 -42 -30 -63 -16 -21 -30 -45 -30 -54 0 -9 -4 -16 -9 -16 -5 0 -12 -11
-15 -25 -4 -14 -13 -25 -21 -25 -8 0 -15 -9 -15 -20 0 -11 -4 -20 -10 -20 -14
0 -13 11 5 53 8 20 15 56 15 81 0 24 5 46 11 48 6 2 14 28 17 58 2 30 8 60 13
66 4 5 11 48 14 95 9 119 22 162 61 200 19 18 34 38 34 45 0 6 7 14 15 18 8 3
15 14 15 24 0 11 7 25 15 32 8 7 15 24 15 39 1 14 7 37 15 51 8 14 14 52 15
86 0 33 4 64 10 70 5 5 13 39 16 74 4 36 10 70 14 75 4 6 11 30 15 54 6 39 9
43 20 28 13 -18 45 -23 45 -7 0 6 9 10 20 10 10 0 24 9 30 20 6 11 15 20 21
20 14 0 79 64 79 79 0 6 7 11 15 11 9 0 16 10 17 28 2 45 15 -183 18 -324z
m-737 -771 c-9 -3 -13 -27 -13 -69 0 -36 -5 -74 -10 -84 -6 -10 -11 -37 -12
-60 -1 -34 -6 -44 -34 -61 -19 -11 -42 -31 -53 -45 -10 -13 -24 -24 -30 -24
-6 0 -11 -7 -11 -15 0 -8 -6 -15 -14 -15 -15 0 -142 -126 -178 -176 -22 -31
-67 -69 -73 -62 -2 2 2 16 10 32 8 15 19 45 25 67 8 28 17 40 35 45 14 3 25
10 25 15 0 5 7 9 15 9 8 0 23 9 32 20 10 11 23 20 30 20 7 0 13 7 13 15 0 8 4
15 9 15 17 0 32 60 20 82 -9 16 -7 24 10 39 12 11 21 26 21 34 0 8 4 15 9 15
5 0 11 9 14 20 3 11 11 20 19 20 7 0 20 9 28 21 8 11 23 30 33 41 9 12 17 27
17 35 0 7 5 13 10 13 6 0 10 7 10 15 0 17 41 58 49 49 3 -4 0 -9 -6 -11z
m-100 -480 c-3 -21 -10 -39 -14 -41 -5 -2 -11 -20 -15 -39 -4 -20 -13 -48 -20
-62 -8 -14 -14 -33 -14 -42 0 -9 -7 -22 -15 -29 -8 -7 -15 -19 -15 -26 0 -9
-11 -14 -31 -14 -23 0 -41 -10 -66 -35 -19 -19 -38 -35 -43 -35 -6 0 -10 -4
-10 -10 0 -5 -13 -23 -30 -40 -29 -30 -30 -34 -30 -124 0 -71 4 -97 15 -106
11 -9 15 -33 15 -90 0 -60 3 -79 15 -84 21 -8 19 -43 -2 -48 -14 -3 -309 -2
-347 1 -6 1 -5 6 2 13 7 7 12 20 12 29 0 9 7 19 15 23 9 3 15 19 15 41 0 20 7
43 15 51 8 9 15 24 15 35 0 10 4 19 9 19 4 0 11 16 14 35 3 19 13 42 21 51 9
8 16 24 16 35 0 10 4 19 9 19 5 0 12 14 16 31 4 17 13 42 21 57 8 15 14 35 14
45 0 9 4 17 10 17 5 0 12 15 15 33 6 31 9 33 41 29 26 -3 34 0 34 11 0 9 9 19
20 22 11 3 20 11 20 16 0 5 6 9 13 9 6 0 64 54 127 119 63 66 120 119 127 120
8 1 10 -11 6 -36z m1587 -75 c0 -17 8 -40 17 -51 14 -15 17 -33 14 -90 -1 -40
-9 -86 -16 -103 -8 -20 -14 -83 -14 -175 -1 -79 -6 -145 -11 -147 -5 -2 -12
-34 -16 -72 -5 -54 -10 -69 -24 -73 -10 -3 -23 0 -28 5 -15 15 -362 20 -379 6
-9 -7 -13 -7 -13 1 0 6 4 11 10 11 5 0 18 19 29 43 17 36 18 44 5 58 -18 20
-18 35 1 43 8 3 15 10 15 16 0 7 12 24 28 40 15 15 41 45 57 65 17 20 43 51
58 68 15 17 30 42 33 54 4 13 12 23 20 23 8 0 14 7 14 15 0 8 5 15 10 15 6 0
10 6 10 14 0 8 8 22 17 32 19 19 36 45 52 82 6 12 15 22 21 22 5 0 10 9 10 20
0 11 4 20 10 20 5 0 12 11 16 25 3 14 10 25 14 25 4 0 11 11 14 25 9 34 26 22
26 -17z m2640 -137 c0 -6 8 -19 18 -30 75 -81 74 -78 57 -104 -19 -29 -18
-122 2 -138 9 -8 13 -36 13 -84 0 -40 6 -90 14 -112 8 -22 16 -71 18 -109 3
-68 3 -69 -22 -68 -14 1 -49 2 -79 3 -42 1 -52 4 -48 15 3 8 1 17 -6 20 -9 5
-9 7 1 12 10 5 10 9 0 21 -10 12 -14 92 -16 331 l-3 315 25 -30 c14 -17 26
-36 26 -42z m-3427 -130 c-8 -12 -9 -31 -2 -57 4 -22 9 -73 9 -115 0 -42 7
-98 15 -125 8 -27 15 -61 15 -76 0 -18 5 -28 15 -28 9 0 15 -9 15 -25 l0 -25
-107 -1 c-133 -1 -305 -1 -316 0 -17 2 5 21 24 21 10 0 19 7 19 15 0 8 7 15
15 15 8 0 15 5 15 11 0 6 7 17 15 25 8 9 15 24 15 35 0 10 4 19 9 19 5 0 12
14 16 30 4 17 13 30 21 30 8 0 14 7 14 15 0 8 5 15 10 15 6 0 10 6 10 13 0 7
14 29 30 47 17 18 30 39 30 46 0 7 6 17 14 21 7 4 22 24 32 43 32 59 58 89 69
79 6 -6 5 -16 -2 -28z m2077 -118 c0 -12 4 -24 9 -27 11 -7 51 -88 51 -103 0
-6 7 -16 15 -23 8 -7 15 -25 15 -41 0 -16 4 -29 10 -29 5 0 13 -12 16 -27 4
-16 14 -33 23 -40 13 -10 -13 -12 -131 -13 -80 0 -153 -3 -162 -6 -11 -4 -16
-1 -16 10 0 9 7 16 15 16 8 0 15 7 15 15 0 8 7 15 15 15 9 0 15 9 15 24 0 13
7 26 15 30 9 3 15 18 15 39 0 18 4 37 10 43 5 5 13 32 17 59 3 28 12 56 20 63
7 7 13 21 13 30 0 15 2 15 10 2 5 -8 10 -25 10 -37z"/>
<path d="M5360 2770 c-19 -5 -36 -13 -38 -19 -2 -6 -9 -11 -16 -11 -6 0 -23
-13 -36 -30 -14 -16 -31 -29 -37 -30 -7 0 -13 -8 -13 -19 0 -10 -7 -24 -15
-31 -8 -7 -15 -21 -15 -32 0 -27 31 -78 47 -78 7 0 13 -7 13 -15 0 -8 7 -15
15 -15 8 0 15 -5 15 -11 0 -5 19 -29 43 -52 23 -24 53 -59 67 -80 14 -20 28
-37 33 -37 4 0 7 -7 7 -15 0 -8 7 -15 15 -15 8 0 15 -6 15 -14 0 -8 4 -16 8
-18 15 -5 142 -156 142 -167 0 -17 76 -13 94 4 8 8 22 15 30 15 9 0 16 4 16 9
0 4 18 26 40 47 22 22 40 44 40 50 0 7 7 14 15 18 21 8 19 58 -2 78 -10 8 -45
46 -78 83 -33 38 -72 81 -87 97 -16 16 -28 30 -28 32 0 5 -36 49 -67 83 -13
13 -23 30 -23 38 0 8 -7 15 -15 15 -8 0 -15 7 -15 15 0 8 -7 15 -15 15 -8 0
-15 5 -15 10 0 16 -77 90 -92 89 -7 -1 -29 -5 -48 -9z"/>
<path d="M2520 11031 c0 -6 -8 -11 -18 -11 -10 0 -31 -12 -48 -27 -17 -16 -47
-36 -67 -47 -19 -10 -37 -26 -40 -36 -2 -9 -18 -23 -36 -31 -17 -8 -31 -17
-31 -21 0 -10 -38 -48 -47 -48 -5 0 -22 -14 -40 -30 -18 -17 -39 -30 -47 -30
-9 0 -16 -7 -16 -15 0 -8 -7 -15 -15 -15 -8 0 -15 -7 -15 -15 0 -8 -7 -15 -15
-15 -8 0 -15 -6 -15 -14 0 -8 -7 -16 -15 -20 -8 -3 -15 -12 -15 -21 0 -8 -4
-15 -8 -15 -10 0 -32 -66 -25 -74 7 -6 73 23 90 40 8 8 21 14 29 14 8 0 14 4
14 10 0 5 11 12 25 16 14 3 25 12 25 20 0 8 9 14 19 14 11 0 21 3 23 8 2 4 25
25 53 47 27 22 62 53 76 69 15 15 31 26 37 22 5 -3 17 3 27 14 10 11 23 20 28
20 5 0 20 11 33 25 13 14 25 25 28 25 11 0 76 73 76 86 0 8 5 14 11 14 6 0 9
10 7 23 -2 18 -10 23 -45 25 -26 2 -43 -1 -43 -7z"/>
<path d="M7973 10920 c-13 -15 -23 -33 -23 -39 0 -6 -7 -11 -15 -11 -8 0 -15
-9 -15 -20 0 -12 -13 -34 -30 -50 -16 -16 -30 -36 -30 -45 0 -8 -4 -15 -9 -15
-17 0 -41 12 -41 21 0 17 -44 109 -52 109 -4 0 -8 6 -8 13 0 19 -33 47 -54 47
-9 0 -30 -10 -46 -22 -24 -17 -30 -29 -30 -59 0 -24 5 -39 15 -43 8 -3 15 -14
15 -25 0 -11 6 -26 13 -33 35 -39 77 -148 57 -148 -5 0 -10 -7 -10 -15 0 -8
-7 -15 -15 -15 -8 0 -15 -6 -15 -13 0 -7 -13 -28 -30 -47 -16 -19 -29 -41 -30
-47 0 -7 -4 -13 -10 -13 -5 0 -10 -6 -10 -13 0 -7 -8 -20 -17 -29 -24 -22 -53
-60 -53 -70 0 -5 -11 -21 -25 -36 -14 -15 -28 -37 -31 -49 -4 -13 -10 -23 -14
-23 -5 0 -11 -13 -15 -30 -4 -16 -11 -30 -16 -30 -5 0 -9 -16 -9 -35 0 -19 4
-35 8 -35 5 0 14 -11 20 -25 10 -23 17 -25 70 -25 68 0 95 17 106 68 4 17 12
32 17 32 5 0 11 11 15 25 3 14 10 25 14 25 4 0 10 10 14 23 3 12 16 33 28 47
13 14 29 36 36 50 19 40 36 64 50 73 6 4 12 15 12 22 0 8 5 15 10 15 6 0 10
-9 10 -20 0 -11 6 -23 14 -26 8 -3 18 -19 21 -35 4 -16 11 -29 16 -29 5 0 9
-7 9 -15 0 -9 6 -18 14 -21 7 -3 22 -23 32 -44 11 -22 22 -40 26 -40 4 0 15
-14 24 -31 9 -17 31 -47 50 -66 21 -21 34 -43 34 -59 0 -35 26 -77 58 -92 34
-16 52 -15 77 4 19 14 20 27 20 192 0 151 2 177 15 177 8 0 18 5 23 10 12 17
27 -17 27 -62 0 -23 4 -44 9 -47 4 -3 11 -40 14 -82 5 -69 9 -80 34 -100 32
-27 61 -31 69 -9 3 8 14 17 25 20 13 4 21 19 25 46 4 22 11 42 15 45 5 3 9 20
9 39 0 44 21 135 32 135 14 0 9 -128 -8 -169 -28 -72 -8 -240 34 -280 22 -20
35 -23 91 -22 36 0 67 5 69 11 2 5 10 10 17 10 18 0 105 86 105 104 0 8 7 16
15 20 8 3 15 12 15 21 0 8 5 15 10 15 17 0 12 -90 -5 -96 -11 -5 -15 -22 -15
-63 0 -65 6 -76 42 -90 47 -18 86 3 130 68 12 18 18 46 18 89 0 44 4 62 13 62
37 0 67 26 75 65 l9 40 11 -38 c16 -55 45 -77 104 -77 36 0 48 4 48 15 0 9 7
18 15 21 19 8 21 80 3 88 -10 5 -10 7 0 12 23 11 12 51 -28 97 l-41 46 31 49
c16 27 30 54 30 61 0 6 5 11 11 11 6 0 9 16 7 38 -3 36 -4 37 -47 40 -38 3
-47 0 -67 -25 -13 -15 -23 -32 -24 -37 0 -5 -11 -19 -24 -31 -23 -21 -24 -21
-46 -3 -12 10 -33 18 -46 18 -12 0 -25 4 -29 10 -3 5 -19 2 -38 -9 -28 -15
-32 -24 -35 -63 -2 -29 2 -51 11 -59 21 -22 28 -50 16 -65 -10 -12 -15 -11
-30 7 -16 18 -19 39 -19 114 0 72 -4 95 -16 105 -8 8 -50 15 -93 18 -63 4 -85
1 -121 -16 -25 -11 -51 -30 -58 -42 -11 -17 -16 -19 -28 -10 -8 7 -14 19 -14
28 0 23 -176 12 -194 -13 -12 -17 -15 -15 -42 19 -16 20 -35 36 -41 36 -7 0
-13 5 -13 10 0 6 -22 10 -50 10 -27 0 -50 -4 -50 -9 0 -6 -20 -13 -45 -17 -25
-3 -45 -10 -45 -15 0 -5 -8 -13 -17 -16 -24 -9 -42 -34 -43 -56 0 -23 -24 -17
-28 7 -2 10 -12 26 -23 37 -10 10 -19 26 -19 34 0 8 -4 15 -10 15 -5 0 -10 7
-10 15 0 8 -4 15 -9 15 -5 0 -14 14 -21 30 -7 17 -16 30 -21 30 -15 0 -10 57
6 70 8 7 15 19 15 26 0 8 6 14 14 14 7 0 16 12 19 28 3 15 18 40 32 56 14 16
25 35 25 43 0 7 4 13 10 13 5 0 12 16 16 35 3 19 10 35 15 35 14 0 10 53 -5
73 -9 11 -26 17 -52 16 -31 0 -44 -6 -61 -29z"/>
<path d="M4650 9646 c0 -40 5 -48 75 -120 41 -42 75 -81 75 -86 0 -6 6 -10 13
-10 7 0 23 -13 35 -30 13 -16 29 -30 37 -30 19 0 64 -49 71 -77 4 -13 10 -23
15 -23 5 0 9 -4 9 -10 0 -15 92 -110 106 -110 8 0 14 -4 14 -10 0 -5 -14 -10
-31 -10 -25 0 -30 3 -25 17 4 10 4 14 0 10 -4 -4 -13 -2 -21 4 -9 8 -13 8 -13
1 0 -6 11 -19 25 -30 20 -16 32 -18 77 -11 35 6 59 16 71 30 23 29 23 115 -1
150 -32 49 -152 159 -172 159 -11 0 -20 7 -20 15 0 9 -9 15 -23 15 -13 0 -33
13 -47 30 -14 16 -31 29 -37 30 -7 0 -13 7 -13 15 0 8 -5 15 -10 15 -13 0 -26
11 -86 68 -37 35 -52 42 -85 42 l-39 0 0 -44z"/>
<path d="M5070 9080 c0 -11 7 -20 15 -20 8 0 15 -7 15 -15 0 -8 7 -15 15 -15
8 0 15 -8 15 -17 1 -17 2 -17 15 1 13 17 14 14 18 -30 l3 -49 2 48 c3 62 22
61 22 -2 0 -45 3 -50 30 -63 17 -7 30 -17 30 -23 0 -5 14 -19 30 -30 16 -11
30 -23 30 -27 0 -5 7 -8 15 -8 8 0 15 -4 15 -10 0 -5 20 -30 45 -56 25 -25 45
-49 45 -55 0 -5 6 -9 14 -9 7 0 17 -15 22 -32 6 -20 17 -34 29 -37 31 -5 44
-20 55 -61 6 -21 17 -41 25 -44 8 -3 15 -12 15 -21 0 -8 5 -15 10 -15 6 0 10
-7 10 -15 0 -8 7 -15 15 -15 8 0 15 -4 15 -10 0 -5 8 -18 18 -29 53 -57 82
-90 82 -96 0 -3 5 -11 10 -18 40 -48 50 -61 50 -72 0 -29 37 -46 91 -43 l54 3
3 36 c2 20 -3 43 -10 50 -7 8 -22 32 -33 54 -22 43 -49 75 -65 75 -5 0 -10 6
-10 13 0 6 -14 18 -31 26 -17 7 -33 21 -37 30 -3 9 -22 32 -41 52 -45 45 -64
76 -51 84 6 3 10 19 10 36 0 24 -4 29 -25 29 -14 0 -28 7 -31 15 -4 8 -10 12
-15 9 -17 -10 -49 17 -49 41 0 16 -6 25 -15 25 -8 0 -15 5 -15 10 0 6 -5 10
-12 10 -14 0 -14 0 -150 134 -83 82 -114 106 -143 112 -25 4 -35 11 -31 20 3
8 -1 14 -9 14 -8 0 -15 7 -15 15 0 11 -12 15 -50 15 -43 0 -50 -3 -50 -20z"/>
<path d="M6048 8178 c-12 -12 -18 -33 -18 -63 0 -43 1 -45 30 -45 49 0 34 -17
-21 -24 -55 -7 -74 -16 -130 -58 -20 -16 -42 -28 -48 -28 -6 0 -11 -7 -11 -15
0 -8 -6 -15 -13 -15 -8 0 -27 -11 -43 -25 -16 -15 -42 -34 -57 -43 -22 -13
-27 -23 -25 -47 3 -26 7 -30 37 -33 32 -3 101 23 109 41 2 4 9 7 16 7 6 0 19
9 29 20 9 11 23 20 31 20 7 0 25 12 40 27 14 14 28 24 29 22 2 -2 18 -33 36
-69 18 -36 39 -69 47 -73 8 -4 14 -18 14 -31 0 -12 13 -37 28 -54 16 -18 37
-48 48 -67 10 -19 22 -35 26 -35 5 0 8 -5 8 -11 0 -41 88 -54 114 -17 21 30
21 114 1 122 -8 3 -15 12 -15 21 0 8 -7 15 -15 15 -8 0 -15 7 -15 15 0 8 -7
15 -15 15 -8 0 -15 7 -15 15 0 9 -7 18 -15 21 -8 4 -15 17 -15 30 0 17 -4 22
-15 18 -10 -4 -15 0 -15 15 0 12 -6 21 -15 21 -14 0 -19 14 -18 47 0 6 -6 9
-13 6 -9 -3 -14 2 -14 16 0 12 -6 21 -14 21 -16 0 -26 32 -19 60 8 30 23 24
23 -10 0 -20 5 -30 15 -30 8 0 15 -7 15 -15 0 -8 7 -15 15 -15 14 0 19 -14 18
-47 0 -6 6 -9 13 -6 9 3 14 -2 14 -16 0 -14 5 -19 15 -15 10 4 15 0 15 -15 0
-12 6 -21 15 -21 8 0 15 -6 15 -13 0 -8 9 -22 20 -32 12 -10 18 -25 15 -32 -2
-8 0 -11 5 -8 6 4 14 -4 19 -17 9 -20 10 -19 10 15 1 26 -3 37 -14 37 -10 0
-15 10 -15 30 0 20 -5 30 -15 30 -11 0 -15 12 -15 45 l0 45 -45 0 -45 0 0 45
c0 33 -4 45 -15 45 -11 0 -15 12 -15 45 0 43 -1 45 -30 45 -25 0 -30 4 -30 25
0 14 -8 33 -17 43 -17 16 -19 16 -35 0z"/>
<path d="M4390 8090 c-41 -4 -154 -8 -251 -9 -144 -1 -179 -4 -189 -16 -7 -8
-20 -15 -30 -15 -9 0 -28 -10 -42 -22 -14 -13 -42 -36 -62 -52 -20 -16 -36
-35 -36 -42 0 -6 -7 -14 -15 -18 -9 -3 -15 -18 -15 -40 0 -30 4 -35 31 -41 20
-5 36 -2 47 8 24 21 72 28 72 11 0 -8 -5 -14 -11 -14 -6 0 -9 -10 -7 -22 2
-15 16 -30 41 -41 20 -10 37 -23 37 -28 0 -5 7 -9 15 -9 7 0 18 -6 22 -13 4
-7 34 -30 66 -51 31 -21 60 -42 63 -47 3 -5 14 -9 25 -9 10 0 19 -4 19 -9 0
-5 14 -14 30 -20 17 -5 30 -14 30 -18 0 -4 19 -17 41 -28 23 -10 44 -25 46
-32 3 -7 13 -13 23 -13 10 0 23 -7 30 -15 7 -8 20 -15 30 -15 10 0 23 -7 30
-15 7 -8 20 -15 30 -15 10 0 23 -7 30 -15 7 -8 25 -15 40 -15 15 0 33 -7 40
-15 7 -8 18 -15 25 -15 7 0 37 -13 68 -30 45 -24 56 -27 61 -15 3 8 17 15 31
15 16 0 25 6 25 15 0 8 6 15 13 15 7 0 33 23 57 51 25 28 51 58 58 65 17 17
12 54 -8 65 -8 4 -46 22 -85 40 -144 65 -215 102 -215 110 0 5 -11 9 -25 9
-14 0 -28 7 -31 15 -4 8 -15 15 -25 15 -10 0 -19 4 -19 10 0 5 -11 12 -25 16
-14 3 -25 12 -25 20 0 8 -9 14 -19 14 -11 0 -26 6 -33 13 -7 8 -27 19 -43 25
l-30 10 38 1 c25 1 40 -4 43 -14 4 -9 19 -15 39 -15 18 0 38 -7 45 -15 7 -8
19 -15 26 -15 8 0 14 -7 14 -15 0 -8 7 -15 15 -15 8 0 15 -6 15 -14 0 -8 9
-17 20 -21 27 -9 91 5 97 21 3 8 14 14 24 14 10 0 19 7 19 15 0 8 5 15 10 15
6 0 10 6 10 13 0 7 9 20 20 30 11 9 20 26 20 37 0 11 5 20 10 20 6 0 10 14 10
30 0 17 -4 30 -10 30 -5 0 -10 7 -10 15 0 8 -6 15 -14 15 -8 0 -16 7 -20 15
-3 8 -10 15 -16 15 -6 0 -18 7 -26 15 -9 8 -26 15 -39 15 -12 0 -25 6 -28 14
-3 8 -29 16 -64 19 -32 4 -69 8 -83 11 -14 2 -59 0 -100 -4z"/>
<path d="M6369 7493 c-2 -34 3 -56 16 -69 7 -7 32 -52 56 -101 23 -48 49 -92
56 -96 7 -4 13 -19 13 -32 0 -14 5 -25 10 -25 6 0 15 -11 20 -25 5 -14 14 -25
20 -25 5 0 10 -9 10 -20 0 -11 7 -20 15 -20 8 0 15 -6 15 -13 0 -7 14 -26 30
-42 17 -16 30 -37 30 -46 0 -10 7 -24 15 -33 8 -8 15 -19 15 -25 0 -6 7 -11
15 -11 8 0 19 -9 25 -20 6 -11 20 -20 31 -20 15 0 19 -5 15 -15 -12 -32 26
-14 39 19 8 19 19 37 25 41 5 3 10 18 9 33 0 15 -3 21 -6 15 -8 -22 -23 -14
-23 13 0 14 -4 23 -10 19 -14 -9 -29 36 -23 68 7 34 23 25 23 -14 0 -19 5 -29
15 -29 8 0 15 -7 15 -15 0 -8 7 -15 15 -15 11 0 15 -12 15 -45 0 -33 4 -45 15
-45 8 0 15 -7 15 -15 0 -8 7 -15 15 -15 8 0 15 -7 15 -15 0 -10 10 -15 30 -15
40 0 38 -18 -2 -23 -23 -3 -16 -4 20 -5 46 -2 52 0 52 18 0 11 -7 20 -15 20
-8 0 -15 7 -15 15 0 8 -7 15 -15 15 -10 0 -15 10 -15 30 0 20 -5 30 -15 30 -8
0 -15 7 -15 15 0 8 -7 15 -15 15 -10 0 -15 10 -15 30 0 27 -3 30 -30 30 -20 0
-30 5 -30 15 0 8 -7 15 -15 15 -10 0 -15 10 -15 30 0 20 -5 30 -15 30 -8 0
-15 7 -15 15 0 8 -7 15 -15 15 -9 0 -15 9 -15 25 0 14 -9 35 -20 47 l-20 22 0
-32 c0 -19 8 -40 21 -53 11 -11 18 -27 15 -34 -3 -9 0 -12 10 -8 11 4 14 -4
14 -32 0 -21 -4 -34 -10 -30 -5 3 -10 13 -10 21 0 8 -7 14 -15 14 -8 0 -15 6
-15 14 0 7 -7 19 -15 26 -8 7 -15 21 -15 31 0 12 -5 16 -15 13 -9 -4 -17 1
-21 12 -10 33 -39 88 -51 102 -7 7 -13 20 -13 28 0 8 -4 14 -10 14 -5 0 -10 7
-10 15 0 8 -9 23 -20 32 -11 10 -20 21 -20 26 0 5 -21 31 -47 58 -41 41 -54
49 -85 49 -29 0 -38 -4 -39 -17z"/>
<path d="M5260 6754 c-29 -19 -59 -41 -64 -49 -18 -22 -40 -22 -58 -1 -14 18
-20 19 -37 9 -11 -7 -27 -13 -35 -13 -8 0 -16 -7 -20 -15 -3 -8 -12 -15 -21
-15 -8 0 -15 -7 -15 -15 0 -8 -4 -15 -10 -15 -13 0 -50 -37 -50 -50 0 -5 -4
-10 -10 -10 -18 0 -31 -76 -19 -104 7 -14 16 -26 20 -26 4 0 9 -10 13 -23 3
-13 17 -36 31 -51 14 -15 25 -31 25 -35 0 -10 118 -129 149 -151 12 -8 24 -22
27 -32 3 -10 12 -18 19 -18 8 0 17 -11 21 -25 7 -30 29 -50 39 -35 3 5 14 10
24 10 9 0 27 8 40 18 40 30 111 103 111 114 0 5 7 16 15 24 8 9 15 25 15 36 0
20 -53 96 -77 111 -7 4 -13 15 -13 22 0 8 -6 15 -13 15 -14 0 -107 90 -107
104 0 9 34 5 110 -13 25 -5 85 -10 133 -11 53 0 99 -5 115 -14 16 -8 65 -14
122 -15 71 -1 98 -5 106 -16 14 -19 88 -20 106 -2 7 7 28 22 46 32 17 11 32
26 32 33 0 8 8 16 18 19 24 6 52 54 52 90 0 34 -41 63 -89 63 -18 0 -46 6 -64
13 -20 9 -79 15 -152 16 -74 1 -137 8 -163 16 -23 8 -75 15 -115 15 -49 0 -80
5 -93 15 -10 8 -39 15 -64 15 -36 0 -57 -8 -100 -36z"/>
<path d="M6910 6732 c0 -53 3 -61 30 -85 17 -15 30 -34 30 -42 0 -8 4 -15 10
-15 5 0 12 -11 16 -25 3 -14 10 -25 15 -25 5 0 9 -6 9 -13 0 -8 9 -22 20 -32
11 -10 20 -22 20 -27 0 -5 11 -21 24 -35 13 -14 32 -43 43 -64 10 -21 21 -39
26 -39 11 0 47 -38 47 -50 0 -5 9 -10 20 -10 11 0 20 -4 20 -10 0 -16 47 -11
54 6 12 31 7 94 -8 94 -8 0 -24 16 -36 35 -12 19 -25 35 -30 35 -4 0 -11 11
-14 25 -4 14 -11 25 -16 25 -6 0 -10 7 -10 15 0 9 -7 18 -15 21 -8 4 -15 10
-15 15 0 10 -35 63 -57 87 -7 7 -13 19 -13 26 0 7 -11 25 -25 40 -14 15 -25
31 -25 37 0 5 -5 9 -11 9 -6 0 -9 7 -5 15 3 8 1 15 -4 15 -6 0 -10 7 -10 15 0
11 -12 15 -45 15 l-45 0 0 -58z"/>
<path d="M7428 6260 c-10 -11 -18 -25 -18 -30 0 -6 -7 -10 -15 -10 -10 0 -15
-11 -15 -35 0 -24 5 -35 15 -35 8 0 15 -7 15 -15 0 -10 7 -15 18 -13 12 2 18
-5 20 -24 2 -16 7 -28 12 -28 5 0 12 -10 16 -22 4 -13 17 -37 30 -54 13 -17
24 -36 24 -42 0 -7 7 -12 15 -12 8 0 15 -6 15 -13 0 -7 8 -20 18 -29 30 -29
40 -44 47 -76 3 -18 12 -32 18 -32 8 0 8 -3 0 -11 -17 -17 11 -69 37 -69 11 0
20 4 20 10 0 10 63 -20 68 -32 2 -5 10 -8 17 -8 14 0 45 -53 45 -75 0 -17 44
-27 86 -19 33 6 34 7 34 57 0 50 -2 54 -56 104 -31 29 -63 53 -70 53 -8 0 -14
7 -14 15 0 8 -7 15 -15 15 -8 0 -15 7 -15 15 0 8 -7 15 -15 15 -8 0 -15 7 -15
15 0 8 -7 15 -15 15 -8 0 -15 7 -15 15 0 8 -7 15 -15 15 -8 0 -15 7 -15 15 0
8 -7 15 -15 15 -8 0 -15 7 -15 15 0 8 -7 15 -15 15 -8 0 -15 7 -15 15 0 8 -7
15 -15 15 -8 0 -15 7 -15 15 0 8 -7 15 -15 15 -8 0 -15 7 -15 15 0 8 -4 15
-10 15 -5 0 -19 20 -31 45 -12 25 -26 45 -31 45 -6 0 -5 6 2 15 11 13 8 15
-18 15 -30 0 -31 2 -34 45 -3 45 -3 45 -20 25z"/>
<path d="M7895 5542 c-53 -44 -81 -126 -52 -150 14 -12 83 9 125 38 23 16 31
66 18 108 -9 27 -61 30 -91 4z"/>
<path d="M8052 5429 c-27 -10 -39 -36 -23 -52 6 -6 11 -21 11 -34 0 -14 6 -23
15 -23 10 0 15 -11 15 -35 0 -24 5 -35 14 -35 8 0 17 -13 21 -30 4 -16 11 -30
16 -30 5 0 9 -6 9 -14 0 -8 6 -21 13 -28 7 -7 23 -30 36 -51 22 -36 48 -69 84
-108 9 -10 17 -23 17 -29 0 -5 4 -10 10 -10 5 0 16 -13 25 -30 14 -27 20 -30
64 -30 49 0 70 -13 84 -53 9 -24 34 -32 60 -19 12 6 36 14 53 17 21 4 34 13
38 28 10 37 7 57 -9 57 -8 0 -15 8 -15 19 0 11 -9 21 -21 24 -12 3 -18 10 -15
15 3 5 -2 9 -12 8 -10 0 -17 6 -16 16 1 10 -4 14 -11 11 -8 -2 -23 5 -34 16
-12 12 -28 21 -37 21 -10 0 -14 6 -10 15 3 9 0 15 -9 15 -8 0 -15 6 -15 14 0
8 -6 14 -12 13 -31 -1 -48 4 -48 13 0 6 8 10 18 11 14 0 14 2 -3 8 -11 5 -26
6 -32 4 -7 -3 -13 2 -13 11 0 9 -7 16 -15 16 -8 0 -15 7 -15 15 0 8 -6 15 -13
15 -8 0 -24 21 -37 48 -13 26 -30 53 -37 60 -7 7 -13 18 -13 23 0 15 -79 96
-99 102 -9 2 -27 0 -39 -4z"/>
<path d="M8410 5331 c-5 -11 -10 -31 -10 -45 0 -16 -6 -26 -15 -26 -10 0 -15
-10 -15 -30 0 -18 -5 -30 -13 -30 -7 0 -13 -9 -13 -20 0 -15 7 -20 28 -20 18
0 28 -5 28 -15 0 -8 7 -15 15 -15 8 0 15 -7 15 -15 0 -8 7 -15 15 -15 8 0 15
-7 15 -15 0 -9 9 -15 21 -15 15 0 19 -5 15 -15 -4 -11 2 -15 20 -15 13 0 27
-7 30 -15 4 -8 12 -15 20 -15 8 0 14 -7 14 -15 0 -8 9 -15 20 -15 13 0 20 7
20 20 0 16 -7 20 -30 20 -27 0 -30 3 -30 30 0 27 -3 30 -30 30 l-30 0 0 60 c0
47 -3 60 -15 60 -8 0 -15 7 -15 15 0 10 -10 15 -30 15 -35 0 -40 15 -8 23 15
4 30 -2 51 -22 16 -16 39 -31 51 -33 19 -4 21 -1 18 28 -3 24 -18 46 -53 79
-53 49 -73 55 -89 26z"/>
<path d="M8606 4609 c-38 -30 -37 -93 4 -137 17 -18 30 -36 30 -39 0 -10 69
-73 80 -73 6 0 14 -8 17 -17 8 -20 9 -21 58 -77 19 -21 35 -45 35 -52 0 -8 9
-14 19 -14 11 0 22 -4 26 -10 3 -5 19 -2 38 9 26 14 33 25 35 54 2 27 -1 39
-12 43 -9 3 -16 12 -16 20 0 7 -16 28 -35 45 -19 18 -35 38 -35 46 0 7 -4 13
-10 13 -5 0 -10 7 -10 15 0 8 -5 15 -10 15 -6 0 -21 11 -34 25 -13 14 -27 25
-32 25 -5 0 -15 12 -22 28 -27 58 -37 72 -54 72 -10 0 -18 7 -18 15 0 21 -23
19 -54 -6z"/>
<path d="M3000 2661 c0 -6 -9 -11 -20 -11 -11 0 -23 -7 -26 -15 -4 -8 -12 -15
-19 -15 -15 0 -109 -89 -118 -112 -3 -10 -11 -18 -17 -18 -5 0 -10 -6 -10 -14
0 -8 -7 -16 -15 -20 -8 -3 -15 -15 -15 -26 0 -12 -6 -28 -12 -35 -28 -31 -35
-42 -59 -90 -13 -27 -30 -56 -36 -63 -7 -7 -13 -20 -13 -28 0 -8 -4 -14 -9
-14 -5 0 -12 -13 -16 -29 -3 -16 -13 -32 -21 -35 -8 -3 -14 -15 -14 -26 0 -11
-4 -20 -10 -20 -5 0 -10 -9 -10 -20 0 -11 -9 -28 -20 -37 -11 -10 -20 -25 -20
-35 0 -9 -4 -19 -9 -23 -5 -3 -12 -18 -16 -34 -3 -16 -13 -32 -21 -35 -8 -3
-14 -14 -14 -24 0 -11 -7 -25 -15 -32 -8 -7 -15 -22 -15 -34 0 -11 -7 -30 -15
-40 -8 -11 -15 -27 -15 -37 0 -9 -7 -19 -15 -23 -9 -3 -15 -18 -15 -36 0 -16
-5 -30 -11 -30 -6 0 -9 -12 -7 -27 3 -24 8 -28 39 -31 25 -2 40 3 54 18 10 11
22 20 26 20 4 0 25 18 46 41 21 23 46 48 56 57 9 9 17 24 17 33 0 9 7 22 15
29 8 7 15 21 15 31 0 11 4 19 10 19 5 0 13 12 16 28 4 15 13 36 20 47 8 11 14
27 14 36 0 9 7 19 15 23 8 3 15 16 15 29 0 14 7 30 15 37 8 7 15 21 15 32 0
10 7 21 15 24 8 4 15 17 15 31 0 13 7 31 15 39 8 9 15 24 15 35 0 10 7 19 15
19 10 0 15 10 15 34 0 19 4 36 8 38 11 4 52 86 52 103 0 8 4 15 9 15 5 0 13
10 17 23 4 12 9 24 13 27 13 11 51 70 51 80 0 5 4 10 10 10 14 0 42 66 38 91
-3 23 -28 40 -28 20z"/>
<path d="M10463 2493 c-7 -3 -13 -18 -13 -34 0 -30 8 -45 43 -77 9 -9 17 -27
17 -39 0 -13 5 -23 10 -23 6 0 10 -6 10 -13 0 -8 9 -24 20 -37 11 -13 20 -29
20 -37 0 -7 4 -13 9 -13 5 0 12 -11 15 -25 4 -14 11 -25 16 -25 6 0 10 -6 10
-14 0 -7 7 -19 15 -26 8 -7 15 -23 15 -35 0 -13 7 -25 15 -29 8 -3 15 -17 15
-31 0 -14 6 -25 13 -25 8 0 23 -31 36 -72 12 -40 26 -80 30 -88 11 -21 65 -25
84 -6 9 9 20 16 26 16 5 0 36 25 67 55 l58 55 0 62 c1 59 -6 81 -46 148 -5 8
-11 22 -14 30 -3 8 -23 23 -44 34 -21 10 -41 25 -44 32 -7 19 -107 20 -101 2
2 -7 -2 -22 -10 -32 -15 -20 -15 -20 -30 0 -8 10 -15 25 -15 32 0 6 -4 12 -9
12 -10 0 -34 38 -47 73 -3 9 -11 17 -18 17 -6 0 -16 10 -21 23 -6 12 -20 26
-32 32 -13 5 -23 15 -23 22 0 7 -9 13 -20 13 -11 0 -20 4 -20 9 0 11 -21 19
-37 14z"/>
<path d="M10975 1740 c-16 -17 -17 -25 -7 -40 7 -11 12 -31 12 -45 0 -16 6
-25 15 -25 8 0 15 -4 15 -10 0 -20 35 -90 45 -90 5 0 19 -21 30 -46 18 -41 29
-58 65 -101 5 -7 10 -17 10 -23 0 -5 7 -10 15 -10 8 0 15 -5 15 -10 0 -20 67
-80 88 -80 12 0 35 14 53 31 26 25 30 36 25 61 -5 27 -40 67 -58 68 -5 0 -8 5
-8 11 0 5 -14 23 -31 38 -16 15 -31 38 -32 49 -1 12 -7 22 -14 22 -7 0 -13 6
-13 13 0 12 -7 23 -49 73 -5 6 -12 21 -16 34 -12 39 -67 87 -106 94 -28 5 -39
2 -54 -14z"/>
<path d="M6988 979 c-10 -5 -20 -26 -24 -47 -4 -20 -11 -42 -16 -49 -5 -6 -12
-71 -15 -142 l-6 -131 -41 0 c-26 0 -48 -6 -58 -17 -40 -41 -56 -53 -71 -53
-10 0 -17 -4 -17 -9 0 -5 -10 -13 -22 -17 -13 -4 -33 -17 -45 -30 -25 -27 -33
-30 -33 -11 0 18 -71 89 -109 110 -45 24 -77 21 -109 -8 -15 -14 -30 -25 -34
-25 -4 0 -12 18 -18 40 -6 22 -16 40 -23 40 -7 0 -21 3 -32 6 -40 10 -63 -25
-70 -106 -4 -41 -13 -79 -21 -87 -8 -8 -14 -21 -14 -29 0 -8 -13 -29 -30 -47
-16 -18 -30 -38 -30 -44 0 -7 -5 -13 -10 -13 -12 0 -73 -41 -78 -52 -2 -5 -11
-8 -20 -8 -16 0 -16 14 -8 161 4 88 5 176 2 195 -7 33 -9 34 -50 34 -52 0 -62
-10 -71 -72 -4 -27 -12 -48 -17 -48 -6 0 -8 -7 -4 -15 3 -9 0 -15 -8 -15 -8 0
-16 5 -18 12 -3 9 -32 12 -95 12 l-91 -1 0 39 c-1 48 -7 58 -37 58 -13 0 -27
5 -30 10 -3 6 -35 10 -70 10 -35 0 -67 -4 -70 -10 -3 -5 -15 -10 -26 -10 -10
0 -29 -11 -41 -25 -17 -20 -28 -24 -50 -20 -43 10 -64 -18 -72 -94 -4 -36 -14
-74 -22 -85 -8 -11 -14 -33 -14 -48 0 -15 -4 -30 -10 -33 -6 -3 -10 -50 -10
-106 0 -59 4 -99 10 -99 6 0 10 -6 10 -14 0 -29 103 -31 122 -2 4 6 8 23 8 38
0 15 4 29 8 32 5 3 12 49 15 103 5 71 11 99 22 106 8 4 15 15 15 22 0 8 4 15
10 15 5 0 12 11 16 24 6 25 11 27 97 42 l32 5 -30 -29 c-40 -38 -75 -88 -75
-106 0 -8 -4 -18 -10 -21 -12 -8 -14 -245 -1 -245 5 0 11 -9 14 -20 3 -12 14
-20 25 -20 12 0 24 -5 27 -10 9 -14 123 -12 165 3 34 12 120 94 120 115 0 23
28 18 51 -9 23 -28 27 -29 107 -29 45 0 90 4 100 9 89 44 115 58 129 74 9 9
20 17 25 17 4 0 8 -38 8 -85 0 -50 4 -85 10 -85 6 0 10 -7 10 -15 0 -24 118
-21 127 3 4 9 10 19 13 22 4 3 10 71 12 153 4 118 8 151 21 165 10 10 17 28
17 40 0 13 6 22 15 22 8 0 14 3 14 8 -4 22 4 32 25 32 13 0 26 -6 29 -12 2 -7
2 -81 -1 -165 l-5 -152 28 -11 c15 -6 37 -7 49 -4 11 4 32 8 46 10 13 1 26 8
28 13 2 6 13 11 25 11 18 0 19 2 7 10 -24 15 -9 19 102 26 l106 7 3 -75 c6
-103 12 -108 138 -108 96 0 100 1 120 26 12 15 21 35 21 45 0 11 5 19 11 19 6
0 9 16 7 38 l-3 37 -59 5 -58 5 -3 60 c-1 33 -6 101 -10 151 -7 78 -5 92 10
107 14 15 16 35 13 142 -2 92 -7 128 -17 134 -7 5 -15 30 -18 57 -4 55 -22
123 -36 142 -11 14 -36 15 -59 1z m-58 -554 c0 -69 -3 -85 -15 -85 -8 0 -15
-6 -15 -14 0 -11 -24 -16 -96 -21 -107 -8 -128 -1 -97 34 60 68 117 121 132
121 6 0 11 4 11 9 0 5 14 12 30 16 17 4 30 11 30 16 0 5 5 9 10 9 6 0 10 -35
10 -85z m-1168 -35 c18 0 28 -5 28 -15 0 -8 7 -15 16 -15 9 0 14 -3 12 -7 -3
-5 -10 -23 -17 -40 -7 -18 -16 -33 -20 -33 -4 0 -25 -26 -47 -57 -61 -89 -72
-98 -126 -94 -15 1 -18 11 -18 59 0 52 8 83 39 142 4 8 17 19 29 25 12 5 22
17 22 27 0 18 30 29 45 16 5 -4 22 -8 37 -8z"/>
</g>
</svg>
