<svg version="1.0" xmlns="http://www.w3.org/2000/svg" width="1572" height="1660" viewBox="0 0 1179 1245"><g fill="current"><path d="M73.5 1c1.8.8 1.7.9-.8.9-2.2.1-2.9.7-3.3 3.1-.4 1.6-1 3-1.5 3-.4 0-.9 2.3-1.1 5.2l-.3 5.2-5.8-.3c-5-.2-6.3.1-9.3 2.4-3.1 2.4-3.4 3-3.4 8 0 2.9-.4 5.5-1 5.7-.5.1-1.2 2.1-1.5 4.3-.6 3.2-.3 4.5 1.5 6.8 1.9 2.3 2.9 2.7 7.5 2.7 5.3 0 7.2-.9 9.5-4.8 1.8-3.2 3 .8 3 10.7 0 10.9.7 12 8.2 12.1 4.6 0 4.8-.2 6.7-4.1 1.2-2.4 2.1-6.5 2.2-10.2.3-9.4.5-9.7 5.4-9.7 2.5 0 5-.6 5.9-1.5.8-.8 1.9-1.5 2.5-1.5.6 0 1.1-.4 1.1-.8 0-.5.9-2 2.1-3.3 1.4-1.6 1.9-3.2 1.5-5.1-.6-3.1-3.5-6.8-5.3-6.8-.7 0-1.3-.5-1.3-1 0-.6-2.4-1-5.2-1-5.6 0-8.9-1.2-6.9-2.4 1.6-1 1.4-7.1-.3-8.5-.7-.6-1.6-2.5-1.9-4.1-.5-2.1-1.4-3.1-3.2-3.6-1.4-.3-2.2-1-1.9-1.5.3-.5-.7-.9-2.3-.8-2.5 0-2.6.1-.8.9zM25.6 48.5c-.8.8-1.8 1.5-2.3 1.5-.5 0-1.6.9-2.6 2-1.3 1.6-2.9 2-7.6 2-3.3 0-6.1.3-6.3.7-.1.5-1.6 1.5-3.3 2.3l-3 1.6v24.9l8.7.3 8.8.3v-3c0-1.6-.6-3.1-1.5-3.5-.8-.3-1.5-1.2-1.5-2.1 0-.8-.9-1.5-2-1.5-1 0-2.4-.8-2.9-1.9-1.4-2.4 1.3-5.6 5.4-6.5 3.2-.6 6.5.6 4.6 1.8-1.4.9-1.5 10.3-.1 11.1.6.3 1 2.2 1 4.1 0 3.3-.1 3.4-4.1 3.4-4.7 0-7.9 1.4-7.9 3.5 0 .8-.4 1.5-1 1.5-1.7 0-1.1 3.7 1.1 7.4 2 3.4 2.4 3.6 7.2 3.6h5.2l-.3 19.8c-.3 18.9-.2 20 1.8 22.5 1.9 2.3 2.9 2.7 7.6 2.7 4.3 0 5.6-.4 6.1-1.8.4-.9 1.1-2 1.6-2.4 1.9-1.2 1.4-24.6-.8-36.9l-.7-3.6 5.8-.5c3.2-.3 6-1 6.2-1.6.2-.7.9-1.2 1.6-1.2 1.5 0 7.6-6.2 7.6-7.8 0-.7.5-1.2 1-1.2.6 0 1-.5 1-1.1 0-.6 1.3-2.3 2.9-3.9 3.1-3.2 4.4-9.1 3.4-15.6-.6-3.6-2.3-6.4-3.8-6.4-.3 0-2.3-1.4-4.4-3-2.1-1.7-5.5-3.3-7.7-3.7-2.1-.3-4.4-.9-4.9-1.4-.6-.4-3.4-1.1-6.3-1.5-3.4-.4-5.2-1.1-5.2-2 0-.8-.7-1.4-1.5-1.4s-1.5-.7-1.5-1.5-.9-1.5-1.9-1.5c-1.1 0-2.6.7-3.5 1.5zm14 19c.9.8 2.4 1.5 3.5 1.5 1 0 1.9.4 1.9 1 0 .5 1.1 1 2.4 1 3.1 0 4.4 2 2.2 3.2-.9.5-1.6 1.6-1.6 2.3 0 .8-.4 1.5-1 1.5-.5 0-1.2 1.1-1.6 2.5-.5 1.9-1.3 2.5-3.3 2.5-1.5 0-3.2.5-3.8 1.1-1.5 1.5-2.1-1.1-2.5-10.9-.4-7.6.6-9 3.8-5.7zM335 86.7c-3.3 1.2-4.1 2.5-2.4 3.8 1.5 1.1 1.3 1.6-2 5.2-2 2.2-3.6 4.4-3.6 4.7 0 .4-.7 1.4-1.5 2.2-.8.9-1.5 3.3-1.5 5.3 0 2.2.6 4.4 1.5 5.1.8.7 1.5 2.1 1.5 3.1 0 .9.7 2.4 1.5 3.3.8.8 1.5 1.8 1.5 2.3 0 1.6 8.7 10.3 10.3 10.3 1 0 1.7.4 1.7 1 0 .5.6 1 1.4 1 .8 0 1.6 1 2 2.3.3 1.2 1.9 3.8 3.5 5.7 5 5.7 5.1 5.9 5.1 6.4 0 1 13 13.6 14 13.6.5 0 1 .7 1 1.5s.6 1.5 1.3 1.5c1.4 0 13.7 11.7 13.7 13 0 .6.6 1 1.3 1 .7 0 2.1 1.7 3.2 3.7 4.2 7.8 7.7 9.9 15.6 9.3 1.7-.1 3.1.7 4.2 2.2 2.4 3.6 7.2 8.4 9.5 9.7l2.2 1.2-2.5 3.3c-1.7 2.3-2.5 4.6-2.5 7.3 0 4.5 2.4 10.3 3.3 8.1.7-1.6 4.7 2.6 4.7 4.8 0 .8.6 1.4 1.4 1.4.7 0 2.4 2.2 3.7 5 1.3 2.7 2.7 5 3.1 5 .5 0 .8.7.8 1.5s.4 1.5.9 1.5c.6 0 2 1.8 3.2 4 1.3 2.2 2.8 4 3.4 4 1.2 0 6.6 4.8 8.2 7.2 1.5 2.4 7.2 5.8 9.7 5.8 1.3 0 3.1.7 4 1.5.8.8 1.9 1.5 2.5 1.5.6 0 1.1.7 1.1 1.5s.7 1.5 1.5 1.5 1.5.7 1.5 1.5.9 1.5 2 1.5c1.8 0 2-.7 2-6.5 0-5.1-.3-6.5-1.5-6.5-.8 0-1.5-.5-1.5-1 0-.6 1.1-1 2.4-1 7.4 0 7.5-4.1.4-11.9-3.8-4.2-4.7-5.7-3.5-5.9.9-.2 2.7.4 3.9 1.2 1.2.9 3.2 1.6 4.4 1.6 1.2 0 2.7.7 3.4 1.5.7.8 1.8 1.5 2.5 1.5s2.6.7 4.1 1.5c1.6.8 3.8 1.5 4.9 1.5 1.1 0 2.9.7 3.9 1.5 1.1.8 3 1.5 4.3 1.5 1.3 0 2.3.4 2.3.9s2.3 1.2 5 1.6c2.8.4 5 1 5 1.5 0 .4 1.6 1.1 3.5 1.4 1.9.4 4.7 1.3 6.2 2.1s3.6 1.5 4.5 1.5c.9 0 1.9.4 2.2.9.4.5 2.5 1.2 4.8 1.6 2.3.4 4.8 1.4 5.6 2.1.7.8 2.8 1.4 4.7 1.4 1.8 0 4.6.7 6.1 1.5 1.6.8 4.6 1.5 6.7 1.5 2.1 0 4.8.7 6 1.5 1.5.9 4.6 1.4 9.6 1.3 4.8-.1 7.6.2 7.9 1 .2.6 3 1.4 6.3 1.8 3.2.4 5.9 1 5.9 1.4 0 .4 3.4 1.1 7.5 1.5 4.1.4 7.7 1.1 8 1.6.3.4 2.8 1.1 5.5 1.5 2.8.4 5 1 5 1.4 0 .5 1.9 1.1 4.3 1.5 2.3.4 4.7 1.1 5.2 1.5.6.4 2.6 1.1 4.5 1.5 1.9.4 4.4 1.4 5.5 2.1 1.1.8 3.3 1.4 5 1.4 1.6.1 4.1.7 5.5 1.5 1.5.9 5.4 1.4 9.7 1.5 3.9 0 7.4.4 7.7.9.3.4 2.6 1.1 5.1 1.4 2.6.4 5.3 1.4 6.1 2.2.9.8 2.6 1.5 3.9 1.5 1.3 0 2.6.4 3 .9.3.5 1.9 1.2 3.5 1.6 1.7.4 3 1 3 1.3 0 .4 2.4 1.8 5.3 3.1 9.6 4.3 11.9 5.6 12.4 6.8.3.7.9 1.3 1.4 1.3.6 0 1.5.5 2.2 1 4.8 4.1 6.2 5 7.4 5 .7 0 1.3.5 1.3 1 0 .6.8 1.4 1.8 1.7 2.4 1 6.9 5.3 5.4 5.3-.6 0-1.2.7-1.2 1.5s-.5 1.5-1 1.5c-.6 0-3.3 2.1-6.1 4.7-2.7 2.7-8.5 8.2-12.8 12.3-8.4 8-14.1 13-14.7 13-.8 0-4.4 4-4.4 5 0 .5-.6 1-1.3 1-.7 0-3.4 2-6 4.5-2.7 2.5-5.2 4.5-5.8 4.5-.5 0-.9.7-.9 1.5s-.4 1.5-1 1.5c-.5 0-2.3 1.3-4 3-1.7 1.6-3.3 3-3.5 3-.3 0-1.3.8-2.4 1.7-6.4 6.1-9.1 8.3-10 8.3-.6 0-1.1.4-1.1 1 0 .5-.7 1-1.5 1s-1.5.7-1.5 1.5-.5 1.5-1.1 1.5c-.7 0-3.1 1.7-5.4 3.7-7.2 6.4-9.6 8.3-10.6 8.3-.5 0-.9.7-.9 1.5s-.5 1.5-1.1 1.5c-.5 0-2.6 1.2-4.5 2.7-3 2.5-3.4 3.3-3.4 7.4 0 5 .9 5.9 5.8 5.9 1.8 0 4.4-1.5 7.7-4.5 10.6-9.5 11.8-10.5 13.2-10.5.7 0 1.3-.7 1.3-1.5s.7-1.5 1.5-1.5 1.5-.7 1.5-1.5.7-1.5 1.5-1.5 1.5-.7 1.5-1.5.4-1.5 1-1.5c.9 0 2.5-1.4 11.6-10.1 1.7-1.6 3.6-2.9 4.3-2.9.6 0 1.1-.5 1.1-1 0-.6.7-1 1.5-1s1.5-.7 1.5-1.5.5-1.5 1-1.5c.6 0 1.8-.8 2.9-1.8 1-.9 3.3-2.8 5.1-4.2 1.8-1.4 4.1-3.3 5.1-4.3 1.1-.9 2.4-1.7 2.9-1.7.6 0 1-.7 1-1.5s.4-1.5 1-1.5c.5 0 2.5-1.5 4.3-3.3 1.9-1.7 6.5-5.9 10.2-9.2 3.8-3.3 8.1-7.2 9.7-8.8 1.6-1.5 3.3-2.7 3.8-2.7.6 0 1-.7 1-1.5s.4-1.5 1-1.5c.5 0 3.2-2.3 6-5.1 3.3-3.3 5.6-4.9 6.6-4.5.9.3 2 .6 2.5.6s.9.7.9 1.5.7 1.5 1.5 1.5 1.5.6 1.5 1.3c0 1.4 6.6 7.7 8.1 7.7.5 0 .9.7.9 1.5s.7 1.5 1.5 1.5 1.5.7 1.5 1.5.5 1.5 1.1 1.5c1.6 0 7.5 6.1 8.3 8.6.4 1.2 1.7 3.3 3.1 4.8 1.3 1.4 2.7 3.6 3.1 4.8.4 1.3 1.7 3.3 3 4.5 1.3 1.2 2.4 2.6 2.4 3.1 0 .6.7 1.2 1.5 1.6.8.3 1.5 1.4 1.5 2.4 0 1.1.7 2.5 1.5 3.2.8.7 1.5 2 1.5 2.9 0 1 .7 2.6 1.5 3.7.8 1 1.5 2.5 1.5 3.1 0 2 4.3 11.3 5.1 11.3.4 0 1 1.3 1.4 3 .4 1.6 1.1 3 1.6 3s.9 1.3.9 2.9c0 1.6.7 3.4 1.5 4.1.8.7 1.5 2 1.5 2.9 0 .9.7 2.9 1.5 4.5.8 1.5 1.5 5 1.5 7.6 0 2.8.6 5.4 1.4 6.2.7.8 1.7 4.2 2.1 7.6.4 3.4 1 6.2 1.5 6.2.4 0 1 3.5 1.4 7.7.4 4.3 1.1 8.2 1.5 8.8.5.5 1.1 3.3 1.4 6.2.3 2.8 1 6 1.5 7 1.5 2.9 3.3 10.2 4.2 17.1.4 3.5 1.3 6.9 1.9 7.5.6.6 1.1 2.8 1.1 4.8s.7 4.2 1.5 4.9c.8.7 1.5 2.7 1.5 4.5 0 1.8.7 3.8 1.5 4.5.8.7 1.5 2.4 1.5 3.7 0 1.4.6 3.9 1.4 5.6.8 1.8 1.7 4.9 2.1 6.9.3 2.1 1 3.8 1.4 3.8.5 0 1.2 2.9 1.6 6.5.3 3.6 1.1 6.5 1.6 6.5s.9 1.5.9 3.3c0 1.8.7 4.2 1.5 5.3.8 1 1.5 3.1 1.5 4.5s.7 3.4 1.5 4.5c.8 1 1.5 3 1.5 4.4 0 1.4.7 3.4 1.5 4.4.8 1.1 1.5 3.4 1.5 5.1 0 1.7.7 4 1.5 5.1.8 1.1 1.4 4.2 1.5 7.5 0 3.8.5 6.1 1.5 6.9.8.7 1.5 2.8 1.5 4.6 0 2.4.5 3.4 1.5 3.4.9 0 1.5.9 1.5 2.3 0 1.3.7 3.2 1.5 4.3.8 1 1.5 3.9 1.5 6.4 0 2.5.7 5.8 1.5 7.4.8 1.5 1.5 3.6 1.5 4.5 0 1 .7 2.6 1.5 3.7.8 1 1.5 3 1.5 4.4 0 1.4.6 3.6 1.3 5.1.8 1.4 1.7 5.2 2.1 8.4.4 3.3 1.1 6.2 1.7 6.5.5.4 1.2 3 1.6 5.8.3 2.9.9 5.2 1.4 5.2.4 0 1.1 1.7 1.4 3.7.3 2.1 1.3 5 2.1 6.5.8 1.4 1.4 3.6 1.4 4.7 0 1.2.3 2.1.8 2.1.7 0 2.5 3 3.8 6.2.3 1 1.2 1.8 1.9 1.8s1.5 1.9 1.8 4.7c.3 2.6 1 4.9 1.6 5.1.6.2 1.1 1.3 1.1 2.5 0 1.5-.3 1.8-1.1 1-.6-.6-1.8-.9-2.5-.6-1.7.6-2 10.9-.3 11.5.5.2 1.3 2.4 1.6 4.8.3 2.5.9 4.9 1.3 5.5.4.5 1 2.7 1.4 4.7.4 2 1.3 5 2.1 6.5s1.5 3.6 1.5 4.5c0 1 .4 1.8.9 1.8s1.2 1.2 1.6 2.7c.3 1.5 1 3 1.3 3.3 1.2.9 5.2 9.6 5.2 11.3 0 .9.5 1.9 1 2.2.6.3 1 1.5 1 2.6 0 1 .5 1.9 1.1 1.9.5 0 1.5 1.3 2 3 .6 1.7 1.5 3 2 3s.9 1.3.9 2.9c0 1.6.6 3.1 1.5 3.5.8.3 1.5 1.4 1.5 2.5 0 1 .7 2.1 1.5 2.5.8.3 1.5 1.4 1.5 2.5s.7 2.6 1.5 3.5c.8.8 1.5 1.7 1.5 2.1 0 .8 3.7 9.3 5.5 12.6.8 1.4 1.2 2.9.8 3.2-1.8 1.8-10.2-3-8.9-5.1.3-.5-.2-.9-1.2-.8-1 0-1.6-.6-1.6-1.6.1-1.1-.5-1.8-1.7-1.8-1.1 0-1.9-.5-1.9-1 0-1.7-4.6-1.1-6.3.8-2.4 2.6-2.1 6.6.8 11.2 1.4 2.2 2.5 4.3 2.5 4.8 0 .4.8 1.5 1.8 2.4 2.7 2.6 4.2 4.6 4.2 5.8 0 .5.7 1 1.5 1s1.5.6 1.5 1.3c0 2.2 3.7 5.1 4.5 3.6 1-1.5 4.4 2.7 4.5 5.3 0 1 .7 1.8 1.5 1.8s1.5.4 1.5 1c0 .5.8 1.9 1.8 2.9 3.4 3.9 4.2 5 4.2 6.6 0 .8.7 1.5 1.5 1.5s1.5.7 1.5 1.5.7 1.5 1.5 1.5 1.5.4 1.5 1c0 .5.9 1.9 2 3s2 2.7 2 3.5c0 .8.4 1.5.9 1.5s1.2 1.1 1.5 2.5c.4 1.4 1.1 2.5 1.6 2.5.6 0 1 .7 1 1.5s.7 1.5 1.5 1.5c.7 0 1.8.8 2.4 1.7.7 1.3 2.4 1.8 6 1.9 5.2.2 8.1 1.6 8.1 4 0 .7 1.6 3 3.5 5.1 1.9 2.1 3.5 4.4 3.5 5 0 .7.4 1.3.8 1.3 1.2 0 5.2 8.3 5.2 10.8 0 1.1.5 2.4 1 2.7.6.3 1 1.5 1 2.5s.7 2.5 1.5 3.4c.8.8 1.8 2.9 2.1 4.5.4 1.7 1 3.1 1.4 3.1.4 0 1.1 1.1 1.4 2.5.4 1.4 1 2.5 1.5 2.5s1.2 1.4 1.6 3c.4 1.7 1.1 3 1.6 3s.9.7.9 1.6c0 1.9 11.8 14.4 13.7 14.4.7 0 1.3.7 1.3 1.5s.7 1.5 1.5 1.5c.9 0 1.8.7 2.1 1.5.4.8 1.2 1.5 2 1.5s1.4.4 1.4.9.9 1.3 2.1 1.6c1.1.4 1.9 1.1 1.7 1.7-.2.6 2 3.5 4.9 6.6 2.9 3 5.3 5.9 5.3 6.3 0 .5.7.9 1.5.9s1.5.7 1.5 1.5c0 .9.7 1.8 1.5 2.1.8.3 1.7 1.5 2.1 2.7 1.3 4 6 6.8 7 4.2.4-.8 1-1.5 1.5-1.5 1.6 0 7.5-4.5 11.2-8.6 3.9-4.4 4.9-8.7 2.1-9.8-2.8-1.1-7.1-.6-8.4.9-1.4 1.7-5.7 2-6.2.5-.2-.6-2.7-1.3-5.7-1.7-7.1-.8-10.1-3.6-10.1-9.1 0-3.2-.7-4.8-3-7.2-1.6-1.7-3-3.3-3-3.6 0-1-3.3-3.8-4.7-4-2.5-.4-2.7-1.3-.8-3.4 2.1-2.3 2.3-9.3.3-11.5-2.9-3.2-3.8-4.5-3.8-5.3 0-.5-1.4-1.9-3-3.2-3.1-2.4-4.1-6-1.6-6 1.4 0 2.7-5.5 1.9-7.8-.6-1.4-7.3-1.7-7.3-.2 0 .5-.5 1-1.1 1-1.3 0-3.9-2.5-3.9-3.8 0-.6-.7-1.2-1.5-1.6-.8-.3-1.5-1-1.5-1.6 0-.9-.7-1.8-5.5-7.1-.8-.9-1.5-2.1-1.5-2.7 0-.7-.4-1.2-1-1.2-.5 0-1-.5-1-1 0-.9-3.5-6.5-5-8-.3-.3-1.4-2.3-2.5-4.5s-2.8-4.7-3.7-5.7c-1-1-1.8-2.5-1.8-3.3 0-.8-.4-1.5-1-1.5-.5 0-1-.6-1-1.3 0-.7-.9-2-2-3-1.1-.9-2-2.4-2-3.2 0-.8-.4-1.5-1-1.5-.5 0-1-.5-1-1 0-.6-.8-1.9-1.7-2.9-3.2-3.5-4-4.7-4.7-6.9-.4-1.2-1.1-2.2-1.5-2.2-.4 0-1.8-2.1-3.1-4.8-1.3-2.6-2.6-4.9-2.9-5.2-1.1-.9-3.1-4.4-4.2-7.3-.6-1.5-1.5-2.7-2-2.7s-.9-1.1-.9-2.4c0-1.3-.7-2.6-1.5-3-.8-.3-1.5-1.2-1.5-2.1 0-.8-.7-1.5-1.5-1.5-1 0-1.5-1-1.5-3 0-1.9-.5-3-1.4-3-.8 0-1.7-1.3-2.1-3-.4-1.6-1-3-1.5-3s-1.1-1.4-1.5-3.1c-.4-1.7-1.3-4.2-2.1-5.7s-1.4-3.3-1.4-4c0-.6-.4-1.2-1-1.2-.5 0-1-.6-1-1.3-.1-.6-.9-3-2-5.2s-1.9-4.6-2-5.3c0-.6-.4-1.2-.9-1.2s-1.2-1.3-1.6-3c-.4-1.6-1.1-3-1.6-3s-.9-.6-.9-1.3c0-.7-.9-2.9-2-5-2.5-4.7-2.5-5.3.2-6 2-.6 2.1-1 1.5-10.4-.3-5.5-1-9.9-1.6-10.1-.6-.2-1.1-1.6-1.1-3.2s-.7-3-1.5-3.4c-.8-.3-1.5-1.7-1.5-3.1 0-1.6-.6-2.5-1.5-2.5-1 0-1.5-1-1.5-3 0-1.7-.6-3.3-1.4-3.6-.8-.3-1.7-2.5-2.1-5-.3-2.4-1-4.4-1.5-4.4s-1.2-2.1-1.5-4.8c-.4-2.6-1-5.6-1.5-6.7-.5-1.1-1.2-3.9-1.5-6.3-.4-2.3-1.1-4.2-1.6-4.2s-.9-.7-.9-1.6c0-1.8-1.8-6.2-6.1-14.7-1.6-3.2-2.9-7.1-2.9-8.6 0-1.6-.7-3.4-1.5-4.1-.8-.7-1.5-2.7-1.5-4.4 0-1.8-.7-4.1-1.5-5.2-.8-1-1.5-3.1-1.5-4.5 0-1.5-.7-3.2-1.5-3.9-.8-.7-1.5-2.1-1.5-3.1 0-.9-.7-2.4-1.5-3.3-.8-.8-1.5-3-1.5-4.9 0-2-.6-3.7-1.4-4-.8-.3-1.6-2.9-2-6.6-.4-3.4-1.1-6.1-1.6-6.1-.6 0-1-1.2-1-2.8 0-1.5-.7-4-1.5-5.6-.8-1.5-1.5-5.1-1.5-8 0-2.8-.7-6.4-1.5-8-.8-1.5-1.5-3.8-1.5-5 0-1.2-.7-3.1-1.5-4.2-.8-1-1.5-3.1-1.5-4.6 0-1.5-.6-3.3-1.3-4-.8-.7-1.7-3.1-2-5.3-.4-2.2-1.1-4.1-1.7-4.3-.5-.2-1-1.6-1-3 0-1.5-.7-4-1.5-5.6-.8-1.5-1.5-3.6-1.5-4.5 0-1-.7-2.6-1.5-3.7-.8-1-1.5-3.1-1.5-4.5s-.7-3.4-1.5-4.5c-.8-1-1.5-3.1-1.5-4.5s-.7-3.4-1.5-4.5c-.8-1-1.4-3.5-1.5-5.4 0-1.9-.7-5.5-1.5-8s-1.7-6.2-2-8.3c-.3-2-1-3.7-1.4-3.7-.5 0-1.2-3.6-1.5-8-.4-4.4-1.2-8.2-1.7-8.5-.5-.4-.9-1.5-.9-2.7 0-1.1-.6-3.4-1.4-5.1-1.6-3.8-3.6-12.4-4.3-18.9-.3-2.6-1.1-5.2-1.9-5.9-.8-.6-1.4-2.6-1.4-4.5 0-1.8-.6-3.9-1.4-4.7-.8-.7-1.7-4.7-2.1-9-.4-4.3-1.1-8-1.6-8.3-.5-.3-.9-2.2-.9-4.2s-.7-5-1.5-6.6c-.8-1.5-1.5-3.6-1.5-4.5 0-1-.7-2.6-1.5-3.7-.8-1-1.5-3.2-1.5-4.7s-.6-3-1.4-3.3c-.8-.3-1.7-1.6-2-3-.4-1.3-1.1-2.4-1.6-2.4s-1.2-1.6-1.6-3.5c-.3-1.9-1-3.8-1.5-4.1-.5-.3-.9-1.3-.9-2.3 0-1-.7-2.4-1.5-3.1-.8-.7-1.5-2-1.5-3s-.7-2.3-1.5-3c-.8-.7-1.5-1.9-1.5-2.6 0-.8-1.5-2.9-3.2-4.8-5.5-5.7-8.8-9.8-8.8-10.7 0-.5-.7-1.2-1.5-1.5-.8-.4-1.5-1.2-1.5-1.9s-.6-1.5-1.3-1.8c-.7-.2-2.2-2.3-3.2-4.6-1.1-2.2-2.6-4.1-3.2-4.1-.7 0-1.3-.7-1.3-1.5s-.6-1.2-1.3-.9c-.8.3-4.7-3.1-9.3-8-11.3-12.1-11.7-12.6-8.9-12.6.8 0 1.5-.5 1.5-1.1 0-1 9.6-10.9 10.6-10.9.2 0 1.2-.8 2.3-1.8 1-.9 3.4-2.8 5.2-4.2 1.8-1.4 4.1-3.3 5.1-4.3 1-.9 2.3-1.7 2.8-1.7.6 0 1-.7 1-1.5s.6-1.5 1.3-1.5c.6 0 3-1.6 5.2-3.5 5.8-5.1 6.4-5.5 7.1-5.5.3 0 1.7-.9 3.1-2 3.6-2.8 4.6-1.5 2.3 2.8-1.1 2-2 4.3-2 5 0 .7-.7 2-1.5 2.8-.8.9-1.5 2.4-1.5 3.4s-.4 2.1-.9 2.5c-.6.3-1.3 2.6-1.7 5-.3 2.5-1 4.5-1.5 4.5-2 0-.9 6.7 1.4 8.8 4.9 4.6 12.6 1.1 12.7-5.7 0-1.4.7-3.5 1.5-4.5.8-1.1 1.5-3.2 1.5-4.8 0-1.5.5-2.8 1-2.8.6 0 1-.6 1-1.3 0-.7.9-2.9 2-5 1.1-2 2-4.3 2-5.1 0-.7.7-1.9 1.5-2.6.8-.7 1.5-2 1.5-3s.7-2.3 1.5-3c.8-.7 1.5-2.1 1.5-3.1 0-.9.7-2.4 1.5-3.3.8-.8 1.5-2.1 1.5-2.9 0-.8.7-2 1.5-2.7.8-.7 1.5-2.5 1.5-4 0-1.6.4-3 1-3.2.5-.2 1.1-2.2 1.2-4.6.1-3.1-.4-4.6-1.8-5.7-2.1-1.6-10.4-2-11.9-.6-.6.5-4.7 1.1-9.3 1.4-4.6.4-9.7 1.1-11.5 1.6-1.8.6-4.9 1.3-6.9 1.6-2.1.3-3.8 1-3.8 1.5 0 .6-1.9 1-4.3 1s-5.2.7-6.3 1.5c-1 .8-3.8 1.5-6.1 1.5-6.3 0-7.3.7-7.3 5v3.8l6.6.8c7.8.8 19.7-.1 20.2-1.6.2-.5 2.2-1 4.5-1 2.3-.1 6.2-.5 8.7-1.1 11.8-2.5 13.2-2.4 11.1 1-.7 1-3.1 1.6-7.5 1.7-6.3.2-10.7 1.8-14.6 5.4-.9.8-2.7 2.2-4 3-1.2.8-2.8 2.1-3.6 2.7-.7.7-1.7 1.3-2.3 1.3-.6 0-1.1.7-1.1 1.5s-.7 1.5-1.5 1.5-1.5.7-1.5 1.5-.6 1.5-1.2 1.5c-.7 0-2.6 1.3-4.3 2.9-9 8.9-10.4 10.1-11.4 10.1-.6 0-1.1.4-1.1 1 0 .5-.7 1-1.5 1s-1.5.7-1.5 1.5-.7 1.5-1.5 1.5-1.5.3-1.5.7c0 .5-1.8 2.3-4 4.1l-4 3.3-3.3-2.5c-1.7-1.5-3.9-3.3-4.8-4.1-.9-.8-2.1-1.5-2.7-1.5-.7 0-1.2-.5-1.2-1 0-.6-.8-1.4-1.7-1.7-1.9-.7-3.2-1.7-6.4-4.6-1-.9-2.3-1.7-2.9-1.7-.5 0-1-.4-1-.9s-1.2-1.2-2.6-1.5c-1.5-.4-3.3-1.4-4.1-2.1-.8-.8-2.2-1.5-3.1-1.5-.9 0-2.6-.7-3.6-1.5-1.1-.8-2.6-1.5-3.4-1.5-.7 0-2-.7-2.8-1.5-.9-.8-2.4-1.5-3.3-1.5-1 0-2.4-.7-3.1-1.5-.8-.9-3-1.5-5.6-1.5-3.2 0-4.4-.4-4.4-1.5 0-1.2-1.4-1.5-6.4-1.5-3.6 0-6.7-.4-7-.9-.3-.4-3.4-1.1-6.8-1.4-3.5-.3-7.7-1.3-9.3-2.1-1.7-.9-3.8-1.6-4.7-1.6-1 0-1.8-.4-1.8-.9s-1.9-1.1-4.1-1.5c-2.3-.4-5.1-1.3-6.2-2.1-1.2-.8-3.4-1.5-4.9-1.5-1.5 0-2.9-.4-3.2-.9-.4-.5-3-1.2-5.9-1.6-2.8-.4-5.4-1.1-5.7-1.5-.3-.5-3.4-1.3-7-1.9-3.6-.5-8.5-1.4-11-2-2.5-.6-7.7-1-11.7-1.1-3.9 0-7.4-.4-7.8-.9-.3-.5-3.1-1.3-6.3-1.7-3.1-.3-6.1-1-6.7-1.4-.5-.4-3.1-1.1-5.7-1.4-2.7-.4-4.8-1.1-4.8-1.6s-2-1.2-4.5-1.6c-2.5-.3-4.5-1-4.5-1.4 0-.4-1.7-1-3.9-1.4-2.1-.3-5.1-1.3-6.7-2.1-1.6-.8-3.7-1.5-4.6-1.5-.9 0-1.9-.4-2.2-.9-.3-.4-2.3-1.1-4.4-1.5-2.2-.3-5.2-1.3-6.8-2.1-1.6-.8-3.9-1.5-5-1.5-1.2 0-3.5-.7-5-1.5-1.6-.8-4-1.5-5.4-1.5-1.4 0-3.4-.7-4.4-1.5-1.1-.8-3.7-1.5-5.7-1.5-2.1 0-4-.4-4.4-.9-.3-.5-1.9-1.2-3.5-1.6-1.7-.4-3-1-3-1.5 0-.4-1.2-1.3-2.7-1.9-2.7-1-6.2-3-7.3-4.1-1.5-1.5-7.1-5-8-5-.5 0-1-.4-1-1 0-.5-1.1-1.2-2.5-1.6-1.4-.3-2.5-1-2.5-1.5s-.6-.9-1.4-.9c-.8 0-3.1-1.6-5-3.5-2-1.9-4-3.5-4.5-3.5s-1.2-1.1-1.5-2.4c-.3-1.3-1.8-3.2-3.3-4.2-2.8-1.8-3.2-2-6.5-2.2-1-.1-1.8-.8-1.8-1.5 0-.6-1.2-1.8-2.7-2.4-1.6-.7-5.9-4.2-9.7-7.8-3.8-3.6-7.2-6.5-7.7-6.5s-.9-.6-.9-1.4c0-.8-2-3.6-4.5-6.2-2.5-2.5-4.5-5.3-4.5-6 0-.8-.7-1.4-1.5-1.4s-1.5-.7-1.5-1.5-.7-1.5-1.5-1.5c-1.8 0-2-3.1-.2-4.9 1-1.1 1-1.4 0-1.8-.7-.3-1.3-1.3-1.3-2.3 0-1.2-1-2.1-3-2.5-1.6-.4-3-1.2-3-1.8 0-.7-1.3-2.1-2.8-3.1-1.6-1-3.9-3.5-5.3-5.5-1.3-2-2.9-4-3.6-4.4-.7-.4-1.3-1.5-1.3-2.2 0-.8-.4-1.5-1-1.5-.5 0-1-.6-1-1.4 0-.8-.6-2.1-1.4-2.8-.7-.8-2.1-2.9-3.1-4.8-1.6-3.1-1.6-3.5-.1-4.5 2-1.5 2.2-6.5.2-6.5-.8 0-2.4-1.6-3.6-3.5-1.4-2.3-2.9-3.5-4.4-3.5-2.4 0-5.6-2.8-5.6-4.8 0-.7-.6-1.2-1.2-1.2-.7 0-2.2-2.1-3.3-4.6-3.6-8.4-4-8.9-6.8-9.2-1.5-.2-2.7.2-2.7.8 0 .6-1 1-2.2.8-1.3-.2-2.2-.9-2-1.6.1-.6.1-1.2 0-1.1-.2 0-1 .3-1.8.6zm-27.5 11c-1.1.3-2.4 1.1-2.8 1.9-.4.8-1.7 1.4-2.7 1.4-1.1 0-2 .7-2 1.5s-.7 1.5-1.5 1.5-2.3.9-3.2 2c-1 1.1-2.3 2-3 2-.7 0-1.3.4-1.3 1 0 .5-.8 1-1.9 1-1 0-3.8 1.5-6.2 3.3-2.4 1.8-5.2 3.6-6.2 4-.9.4-2.2 1.8-2.9 3.2-.6 1.4-1.5 2.5-1.9 2.5-1.6 0-4.9 3.4-4.9 5 0 .9-.5 2.1-1.1 2.7-.6.6-.8 2-.4 3.2.5 1.7 1.2 2 3.3 1.5 3-.7 9.5-4.4 10-5.6.2-.4 1.1-.8 1.9-.8.9 0 3.2-1.6 5.1-3.6 1.9-2 4-3.3 4.8-3 .8.3 1.4-.1 1.4-.9s.7-1.5 1.5-1.5c.7 0 1.8-.6 2.2-1.3.4-.7 2.2-2.1 3.8-3.1 4.1-2.6 13.5-12.4 13.5-14.1 0-1.1-2.7-4.8-3.3-4.4-.1.1-1.1.4-2.2.6z"/><path d="M150.7 106.9c-4.2.9-18.7 13.9-18.7 16.8 0 .7-.4 1.3-1 1.3-.5 0-1.2 1.1-1.6 2.5-.3 1.4-1 2.5-1.4 2.5-.4 0-1.1 1.5-1.4 3.4-.4 1.9-1.3 3.7-2.1 4-.8.3-1.5 1.4-1.5 2.5s-.4 2.2-.9 2.6c-.5.3-1.2 1.9-1.6 3.5-.4 1.7-1.1 3-1.6 3s-.9.6-.9 1.3c0 1.9-3 4.3-6.2 5.1-1.6.3-2.8 1.1-2.8 1.6 0 .6-.5 1-1.2 1-.6 0-3.5 2.5-6.5 5.6l-5.4 5.6.1 13.6c.2 17 .2 17.2-.7 17-1.7-.4-8.3 1.4-8.3 2.2 0 .6-.6 1-1.2 1-.7 0-2.8 1.6-4.7 3.5-1.9 1.9-3.8 3.5-4.2 3.5-.5 0-.9.5-.9 1.1 0 .6-.9 2.2-2 3.6-2.7 3.5-2.5 6.6.5 8.9 1.4 1 2.8 3.3 3.1 5.1.3 1.8 1.2 3.7 2 4.4.8.6 1.4 1.8 1.4 2.5 0 .8.4 1.4.9 1.4s1.3 1 1.7 2.2c1.1 3.6 3.7 6.7 5.7 6.8 2.4 0 2.2 2-.2 2-1.1 0-2.6.7-3.5 1.5-.8.8-2.1 1.5-3 1.5-.8 0-2.1.6-2.8 1.4-.8.7-2.9 1.7-4.6 2.1-1.8.3-3.2 1.1-3.2 1.6s-.6.9-1.3.9c-.8 0-2.4.9-3.7 2-1.3 1.1-2.7 2-3.2 2-1.9 0-12.8 10.7-12.8 12.6 0 .8-.7 1.4-1.5 1.4-1 0-1.5 1-1.5 2.9 0 1.6-.6 3.1-1.2 3.4-.9.3-1 .8-.2 1.6.8.9 4.5.9 14.5.1 7.4-.5 18.4-1 24.4-1h11l-.3 29.7c-.2 16.3.1 30 .6 30.5 1.3 1.3 10.2-.3 10.2-1.8 0-.8.4-1.4.9-1.4 1.4 0 12.4-11.7 14.3-15.1.9-1.7 2.2-3.8 3-4.7.7-.9 2.2-3.3 3.2-5.2 2-3.7 7.3-8.9 9.2-9 .6 0 1.7-1.1 2.4-2.5 1.6-3 4-3.3 4-.6 0 1.1.4 2.2.9 2.5.5.4 1.9 2.7 3.2 5.4 1.2 2.6 2.9 5.1 3.6 5.5.7.4 1.3 1.9 1.3 3.2 0 1.4.6 2.5 1.3 2.5 1.7 0 3.7 4.7 3.7 8.7 0 3.2.1 3.3 4.5 3.3 3.6 0 5-.6 7.5-3 1.7-1.7 3.5-3 4-3 .6 0 1-.7 1-1.5s.5-1.5 1-1.5c1.2 0 5-3.7 5-4.9 0-.5.7-1.4 1.5-2.1 1.1-.9 1.5-3.5 1.5-10.4.1-8.2.2-8.9 1.5-7.1.8 1.1 1.9 2.5 2.5 3.2.5.7 1 1.6 1 2.2 0 .5.6 1.1 1.3 1.4.7.2 2.2 2.3 3.2 4.6 1.1 2.2 2.6 4.1 3.3 4.1.6 0 1.2.5 1.2 1.1 0 .6 1.4 2.8 3 4.9 1.7 2.1 3 4.3 3 4.9 0 .6.4 1.1.9 1.1.4 0 2.1 1.9 3.7 4.2 1.6 2.4 3.9 5.3 5.1 6.5 1.3 1.2 2.3 2.6 2.3 3.1 0 .8 1.1 2.3 5 6.9.5.7 1 1.5 1 1.8 0 .3.8 1.3 1.8 2.3.9 1 2.4 2.9 3.2 4.2.8 1.2 2.1 2.8 2.8 3.6.6.7 1.2 1.7 1.2 2.3 0 .6.6 1.1 1.4 1.1.8 0 1.6 1 2 2.3.3 1.3 1.7 3.6 3.1 5.1 1.4 1.5 2.5 3.1 2.5 3.7 0 .5.5.9 1 .9.6 0 1.5 1 2 2.2 1.3 3 3.2 6 4.6 7.3.6.5 2 2.6 3 4.5 1.1 1.9 3.1 4.6 4.7 6 1.5 1.3 2.7 2.9 2.7 3.5 0 .5-2 2.7-4.5 4.8-2.9 2.6-4.5 4.7-4.5 6.2 0 1.3-.6 2.5-1.2 2.7-2.1.7-2.3 23.1-.3 28 .8 2.1 1.5 6.3 1.5 9.3 0 2.9.7 8.5 1.5 12.3.8 3.9 1.5 13.1 1.6 21.1 0 8.8.6 15.9 1.5 18.8.8 2.5 1.4 7.4 1.4 10.8 0 3.4.5 6.6 1.2 7.3.9.9.9 1.2 0 1.2-.7 0-1.2.6-1.2 1.3 0 .8-1.3 2.7-3 4.3-1.6 1.6-3 3.7-3 4.6 0 1-.7 1.8-1.5 1.8-1.1 0-1.5 1.2-1.5 4.5s-.4 4.5-1.5 4.5-1.5 1.2-1.5 5c0 2.7-.4 5-.9 5s-1.2 2.3-1.6 5.2c-.4 2.8-1.4 5.8-2.1 6.6-.8.7-1.4 2.6-1.4 4.2s-.4 3-1 3.2c-.5.1-1.3 2.5-1.7 5.3-.3 2.7-1.2 5.6-2 6.3-.7.7-1.3 3.2-1.3 5.6 0 2.3-.5 4.7-1.1 5.3-.6.6-.9 2.6-.7 4.4.3 3 .6 3.4 3.7 3.7 2.5.3 4.3-.4 7-2.5 2-1.6 4.4-3.2 5.3-3.6.9-.3 2.5-1.9 3.5-3.4.9-1.5 2.3-3.2 3-3.6.7-.4 1.3-2 1.3-3.5 0-1.6.4-3.2.9-3.7.6-.6 1.4-4.4 1.9-8.6.5-4.2 1.5-8.5 2.1-9.7.6-1.1 1.1-3.4 1.1-5s.7-4.6 1.5-6.5c.8-2 1.5-5 1.5-6.6 0-1.6.4-3.2.9-3.5.6-.4.9 5.5.8 14.5-.1 12.6.1 15.3 1.4 16.3.9.6 1.9 2.9 2.2 5.1.4 2.2 1.1 4.1 1.7 4.3.5.2 1 .8 1 1.3 0 1.3-3.3 4.9-4.5 4.9-1.2 0-4.5 5.1-4.5 7 0 .6-.7 1.8-1.5 2.6-1.1 1.2-1.5 3.9-1.5 10.8 0 5.1-.6 11.5-1.4 14.2-.9 3.1-1.4 10.3-1.4 19.8-.1 9-.5 15.3-1.1 15.9-1.4 1.4-1.4 8.4 0 9.3.6.3 1.6.1 2.2-.5.6-.6 2-1.1 3.1-1.1 2 0 2.6-.4 8.4-6.2 5.5-5.6 6.2-6.4 6.2-7.6 0-.7.7-1.2 1.5-1.2 1.2 0 1.5-1.6 1.5-8.3 0-4.7.5-8.8 1.1-9.4.6-.6 1.3-5.9 1.6-11.7.3-5.8 1-10.6 1.4-10.6.5 0 .9 1.5.9 3.4 0 2.1.6 3.6 1.5 4 .8.3 1.5 1.5 1.5 2.7 0 1.1.7 3.3 1.4 4.7.8 1.5 2.2 4.4 3.1 6.4 1.2 2.7 2.1 3.5 3.3 3 1.5-.5 1.5-.4 0 1.2-1 .9-1.8 2.6-1.8 3.6s-.7 2-1.5 2.4c-1.3.5-1.5 4.4-1.3 29.3l.3 28.8 2.8 1c2.4.8 3.1.6 4.2-.8.7-.9 2.2-1.7 3.4-1.7 1.1 0 2.1-.4 2.1-.9s2.7-3.6 6-6.9l6.1-5.9-.6-22.9c-.2-12.6-.5-25.5-.6-28.7-.1-3.1-.5-5.7-1-5.7-1.5 0-1-3.8.6-4.4.8-.3 1.5-1.4 1.5-2.4s.5-2.3 1.1-2.9c1.3-1.3-.2-6.4-2.8-9.4-.7-.8-1.3-3.4-1.3-5.6 0-2.4-.6-4.6-1.5-5.3-.8-.7-1.5-2-1.5-2.9 0-1-.7-2.6-1.5-3.7-.8-1-1.5-3-1.5-4.3 0-1.3-.6-2.9-1.3-3.5-.7-.6-2.1-3.1-3.1-5.6-1-2.5-2.7-6.3-3.7-8.6s-1.9-4.6-1.9-5.3c0-.6-.4-1.1-1-1.1-.5 0-1-.8-1-1.9 0-1-.7-2.4-1.5-3.1-.8-.7-1.5-2.2-1.5-3.4 0-1.1-.7-3-1.5-4-1.1-1.5-1.5-4.8-1.5-12.2 0-9-.2-10.3-1.7-10.6-3.3-.7-6.4.4-9.3 3.3-1.6 1.6-3.3 2.9-3.9 2.9-.6 0-1.1.4-1.1 1 0 .5-.7 1-1.6 1-.8 0-1.3.4-1 .9.3.4-.1 1.7-.9 2.7-1.3 1.8-1.4 1.7-1.5-1.3 0-2.6.6-3.6 2.9-4.8 4.4-2.2 12.1-10.2 12.1-12.5 0-1.1.4-2 1-2 1.9 0 2.3-7.2.7-12.4-.9-2.9-1.7-9.2-1.8-14.6-.1-6.1-.7-10.2-1.5-11.5-.9-1.1-1.4-4.7-1.4-8.6 0-3.7-.6-8.2-1.4-10-.9-2.1-1.6-9.1-2-18.4-.3-8.3-.8-17-1-19.5-.3-2.5-.3-3.7 0-2.7.3.9 1 1.5 1.5 1.2.5-.4 1.3.4 1.8 1.7.5 1.3 2.1 3.6 3.5 5.1 1.4 1.5 2.6 3.5 2.6 4.3 0 .7.4 1.4.8 1.4.5 0 2.8 2.7 5.2 6 2.4 3.3 4.7 6 5.2 6 .4 0 .8.7.8 1.5s.4 1.5.9 1.5 1.9 1.7 3.1 3.7c1.2 2.1 2.8 4.2 3.6 4.6.8.4 1.4 1.5 1.4 2.2 0 .8.4 1.5.9 1.5s1.2.8 1.5 1.8c.3.9 1.8 3.1 3.3 4.8 4.4 4.7 6.3 11.6 6.3 22.2 0 6.6-.5 10.2-1.6 12.4-1.4 2.6-1.6 6.3-1.5 20.2 0 9.4.3 21.6.6 27.1s.7 18.8.9 29.6c.2 10.8.6 20.1.9 20.6 1.1 1.7 10.3-1.9 13.8-5.5 1.7-1.7 3.5-3.2 3.9-3.2.4 0 1.8-1.6 3.1-3.5 3-4.4 3.9-4.4 3.9-.2 0 1.8.7 4.2 1.5 5.3.8 1 1.5 2.8 1.5 4 0 1.1.7 2.9 1.5 4 .8 1 1.5 3.1 1.5 4.6 0 1.6.4 2.8 1 2.8.5 0 1.3 1.2 1.7 2.7.8 3.4 7.2 16.1 8.4 16.9.5.3.9 1.4.9 2.4s.3 2 .8 2.2c1.2.5 5.2 6.6 5.2 7.9 0 .7 1 2.3 2.1 3.5l2.1 2.3-5.1 5.4c-2.9 3-5.1 6.3-5.1 7.5 0 1.2-.4 2.2-1 2.2-.5 0-1.2 1.7-1.5 3.7-.3 2.1-1 4.5-1.5 5.4-1.7 3.2-2.2 10.3-.8 12.1 1.1 1.4 2 1.6 5.2.8 2.1-.5 4.2-1.2 4.5-1.7.4-.4 2.1-2.1 3.9-3.8l3.2-2.9-.4 29.3c-.2 16.1-.7 29.5-1 29.8-.3.4-.6-1.5-.6-4 0-4.3-.2-4.7-2.5-4.7-1.4 0-2.5.4-2.5 1 0 .5-.8 1-1.8 1-3 0-16.3 11.6-18.8 16.5-1.9 3.6-1.8 9.1.1 9.9.8.3 1.5.1 1.5-.4 0-.6.5-1 1-1 1.3 0 1.3 4.7-.1 5.2-.5.2-1.3 2.2-1.6 4.6-.3 2.3-.9 4.2-1.3 4.2-.5 0-1.1 2.4-1.5 5.2-.4 2.9-1.4 6.2-2.1 7.3-.8 1.1-1.4 3.1-1.4 4.5s-.7 4.3-1.5 6.5-1.4 6-1.5 8.5c0 2.5-.7 5.6-1.5 7-.9 1.6-1.4 5.4-1.5 10.2 0 4.2-.4 7.9-.9 8.3-.6.3-1.2 2.7-1.6 5.3-.3 2.6-1.2 6.7-1.9 9.2-1.8 5.8-2.8 19.8-1.4 20.6.5.3 1.5.1 2.1-.5.6-.6 2.1-1.1 3.3-1.1 1.3 0 2.9-.7 3.8-1.5.8-.8 1.9-1.5 2.5-1.5.6 0 1.1-.6 1.1-1.3 0-.6 1.3-1.8 3-2.5 1.6-.8 3-2 3-2.8 0-.8.7-1.7 1.5-2 .8-.4 1.5-1.4 1.5-2.4s.7-2.3 1.5-3c1.2-1 1.5-3.8 1.5-13 0-6.7.4-12 1-12.2.5-.2 1.2-3 1.6-6.3.4-3.3 1.1-6.3 1.6-6.6.5-.3 1.1-3 1.5-6 .3-3 1-5.9 1.5-6.6.5-.6 1.2-3.8 1.5-7 .3-3.2 1-6.1 1.6-6.4.5-.4 1.2-2.8 1.4-5.5.3-2.7.9-5.4 1.3-5.9.4-.6 1.1-2.9 1.5-5.3.8-5.1 4-11.9 4.9-10.4.8 1.4 4.6.3 7.4-2.1 1.9-1.8 2.2-1.8 2.2-.4 0 1-.6 2.6-1.2 3.7-2 3.2-.1 5.1 10 10 5 2.5 9.2 5.1 9.2 5.7 0 .7 1.1 1.3 2.5 1.3s2.8.7 3.1 1.5c.4.8 1.2 1.5 1.9 1.5s1.8.7 2.5 1.5 2.1 1.5 3.1 1.5c1.8 0 1.9 1.1 2.1 15.2 0 8.4 0 16.3-.1 17.5-.1 1.3.5 3.6 1.4 5.2 1 2 1.5 5.8 1.5 11.4 0 4.6.7 12.4 1.5 17.3 1.6 9.3 1.7 31.7.2 27.9-.5-1.1-1.2-2.7-1.7-3.5-.5-.8-2.2-4.1-3.7-7.3-1.5-3.1-3.1-5.7-3.5-5.7-.4 0-.8-.8-.8-1.9 0-1-.7-2.4-1.5-3.1-.8-.7-1.5-2-1.5-2.9-.1-.9-1.2-3.4-2.5-5.6-1.4-2.2-2.8-4.7-3.1-5.5-2.3-5.8-5-11-5.6-11-.5 0-.8-.7-.8-1.5 0-2-3.9-13.7-5-15-.4-.6-1.1-3.3-1.5-6-.4-2.8-1.2-5.6-1.7-6.3-1.2-1.4-5.8-1.7-5.8-.3 0 .5-1.2 1.1-2.8 1.4-1.5.3-4.1 1.9-5.7 3.6-1.7 1.7-3.6 3.1-4.2 3.1-.7 0-1.3.5-1.3 1.1 0 .7-.7 1.7-1.7 2.4-2.2 1.6-2.4 12.1-.3 15.6.9 1.3 2.4 5.1 3.5 8.4 1 3.3 2.5 6.7 3.2 7.6.7.8 1.3 2.5 1.3 3.6 0 2.1 3.8 11.4 5 12.3.4.3.9 1.4 1.3 2.5 1.4 4.9 3.5 9.7 4.5 10.7.7.7 1.2 2 1.2 2.9 0 .9.7 2.2 1.5 2.9.8.7 1.5 2 1.5 2.8 0 .9 1.2 2.9 2.7 4.4 1.5 1.5 2.2 2.8 1.7 2.8-.6 0-2.8 1.6-5 3.5-2.1 1.9-4.2 3.5-4.6 3.5-.5 0-.8.7-.8 1.5s-.4 1.5-.9 1.5-1.3 1-1.7 2.2c-.3 1.2-1.3 2.8-2 3.6-.9.8-1.4 3.7-1.4 7.5-.1 3.9-.6 6.9-1.5 8.1-.8 1.1-1.5 3.6-1.5 5.6 0 5.2-1.8 10.1-4.9 13-3.2 3.2-7.1 8.6-7.1 9.9 0 .5-.4 1.1-.8 1.3-.5.1-2.6 3.9-4.8 8.3-2.1 4.4-4.2 8.1-4.6 8.3-.5.2-.8.9-.8 1.6 0 .7-.7 2.1-1.5 3.2-1.4 1.7-1.5.5-1.1-13.6.2-8.5.7-16.9 1.1-18.5.3-1.7.8-9.5 1-17.4.3-11.1.8-14.8 2-16.1.8-.9 1.5-3.5 1.5-5.8 0-2.2.4-4.3.9-4.6.5-.3 1.1-2 1.3-3.7.4-2.5.1-3.3-1.4-3.7-1.2-.3-1.7-1-1.4-1.9.3-.8.6-1.7.6-1.9 0-.2.7-.4 1.5-.4s1.5-.6 1.5-1.4c0-.7 1.3-2.3 3-3.6 1.7-1.3 3-2.9 3-3.6 0-.7.4-1.4 1-1.6.5-.2 1.2-2.2 1.6-4.5l.7-4.3h-3.6c-2 0-4.2.7-5.1 1.5-.8.8-1.9 1.5-2.4 1.5-.6 0-1.2.7-1.6 1.5-.3.8-1.2 1.5-2.1 1.5-.8 0-1.5.4-1.5 1 0 1.3-3.7 5-5 5-.5 0-1 .5-1 1 0 .6-.8 1.8-1.8 2.8-.9 1-2.8 3.3-4.2 5.1-1.4 1.9-3.8 4.8-5.5 6.5-1.6 1.8-3.9 4.9-5 7-1.1 2.1-2.6 4-3.2 4.3-.7.3-1.3 1.6-1.3 2.9 0 1.4-.7 2.7-1.5 3-.8.4-1.5 1.3-1.5 2 0 .8-.7 1.7-1.5 2-.8.4-1.5 1.7-1.5 3.1 0 1.3-.6 3.1-1.3 3.8-3 3.5-3.7 4.5-3.7 5.8 0 .8-.8 2.3-1.8 3.5-1 1.1-2.7 3.8-3.8 5.9-1 2.1-2.2 4-2.6 4.1-.5.2-.8.9-.8 1.6 0 .7-.9 2.1-2 3.1s-2 2.4-2 3.1c0 .7-.3 1.4-.7 1.6-.8.3-2.6 3.2-6.5 10.8-1.3 2.5-2.6 4.6-3 4.8-.4.2-1.7 2.3-2.9 4.8-1.3 2.4-2.8 4.4-3.5 4.4-1.6 0-6.8 10.5-6.1 12.4 1.3 3.4 7.6 1.6 12.9-3.7 1.5-1.5 3.2-2.7 3.8-2.7.5 0 1-.5 1-1 0-1.3 3.7-5 5-5 .6 0 1-.6 1-1.3 0-.7 1.3-2.8 3-4.7 1.6-1.9 2.9-4.1 3-4.8 0-.6.5-1.2 1-1.2.6 0 1-.6 1-1.4 0-.7.7-1.9 1.5-2.6.9-.7 2.7-3.7 4-6.7 1.4-2.9 2.9-5.3 3.5-5.3.5 0 1-1.1 1-2.4 0-1.3.7-2.9 1.5-3.6.8-.7 1.5-2.1 1.5-3.1 0-1.1.7-1.9 1.5-1.9 1 0 1.5-1 1.5-3s.5-3 1.5-3c.8 0 1.2-.6.9-1.3-.2-.7.2-2.1 1-3.2 1.4-1.9 1.5-1.8 1.5 2 0 2.2-.6 4.9-1.4 5.9-1.1 1.4-1.5 4.7-1.5 11.9 0 5.4-.5 10.8-1.1 11.9-.7 1.2-1.3 12.4-1.6 29.2-.3 14.9-.9 27.5-1.4 28-.5.6-.9 1.8-.9 2.8 0 1-.8 2.2-1.7 2.5-1 .4-2.1 1.1-2.5 1.7-.3.5-1.5 1.1-2.5 1.2-.9.2-1.9.8-2.1 1.3-.2.6-1 1.1-1.7 1.1s-4.2 3-7.6 6.6c-3.5 3.6-8.5 8.6-11.1 11.2-2.7 2.5-4.8 4.9-4.8 5.4s-.7 1.6-1.5 2.4c-.8.9-1.5 2.5-1.5 3.8 0 1.2-.5 2.7-1 3.2-1.6 1.6-.1 4.4 2.3 4.1 1.8-.2 2.1.3 1.9 2.3-.1 1.3-.7 2.7-1.1 3-.5.3-1.3 1.9-1.7 3.5-.4 1.6-1.3 3.6-2.1 4.3-.7.7-1.3 2.5-1.3 4s-.7 3.6-1.5 4.6c-.8 1.1-1.5 2.9-1.5 4 0 1.2-.7 3-1.5 4-.8 1.1-1.5 3.4-1.5 5.2 0 1.7-.7 3.7-1.5 4.4-.8.7-1.5 2.8-1.5 4.6 0 1.9-.4 3.4-1 3.4-.5 0-1.2 1.6-1.6 3.5-.3 1.9-.9 3.5-1.3 3.5-.7 0-3.4 5.7-4.6 9.8-.4 1.5-1.2 2.1-2.1 1.8-.8-.3-1.4-.2-1.4.2s-2 .6-4.6.4c-2.5-.2-6.5.1-9 .7-3 .8-20.8 1.2-55.2 1.2-40.8 0-50.9.3-52.2 1.3-.8.8-4.1 1.6-7.3 1.8-3.3.3-6.2.9-6.5 1.5-.4.6-1.7 1.3-2.9 1.7-1.3.4-2.3 1.2-2.3 1.7s-.6.9-1.3.9c-.8 0-2.8 1.5-4.5 3.4-1.7 1.9-3.7 3.8-4.4 4.3-2.8 1.7-4.9 6.2-3.9 8.2 1.4 2.5 4.6 3.2 6.8 1.5 1.1-.8 4.4-1.3 8.4-1.4 3.7 0 8.3-.7 10.2-1.5 4.6-1.9 10.8-1.9 17.1 0 7 2.1 56 2.1 61.1-.1 2.6-1 8.1-1.4 21.9-1.4h18.5l-2.7 5.2c-1.5 2.9-3 5.5-3.4 5.8-.3.3-.9 1.7-1.3 3.2-.4 1.5-1.3 2.9-2.1 3.2-.8.3-1.4 1.5-1.4 2.6s-.7 2.3-1.5 2.6c-.8.4-1.5 1.1-1.5 1.7 0 .6-.6 1.8-1.4 2.6-.8.9-1.6 2.9-1.8 4.6-.7 6.7 7.2 3.6 17.6-7 8.1-8.3 8.7-9 10.3-12.8.7-1.5 1.6-2.7 2.1-2.7.4 0 1.6-2 2.7-4.5s2.7-4.5 3.5-4.6h13.8c8.6.1 13.7-.3 16.8-1.4 3.6-1.2 11.9-1.5 46.7-1.5 33.7-.1 43.1-.4 46.3-1.5 3.1-1.1 12.3-1.4 45.2-1.5 37.9 0 47.3.6 36.2 2.4-2.2.3-4 1.1-4 1.6 0 .6-.5 1-1 1-2.9 0-17 13.1-17 15.8 0 .7-.7 1.5-1.5 1.8-.8.4-1.5 1.2-1.5 1.9s-.7 1.5-1.5 1.9c-.8.3-1.5 1.7-1.5 3.1 0 1.6-.6 2.5-1.5 2.5-.8 0-1.5.8-1.5 1.9 0 1-.7 2.4-1.5 3.1-.9.8-1.5 2.9-1.5 5.6 0 2.3-.4 4.6-1 4.9-.6.4-1 7.3-1 17.5s.4 17.1 1 17.5c.6.3 1 1.5 1 2.5s.7 2.5 1.5 3.4c.8.8 1.5 1.9 1.5 2.4s1.2 1.8 2.6 2.8c1.4 1 3.5 2.7 4.6 3.6 1.2 1 2.5 1.8 3 1.8s1.6.7 2.4 1.5c.9.8 2.5 1.5 3.8 1.5 1.2 0 2.7.5 3.3 1.1.7.7 4.5.9 11.4.5 19.8-1.1 23.9-1.7 23.9-3.2 0-.8.9-1.4 2.1-1.4 1.1 0 3.2-.9 4.6-2 1.4-1.1 3.2-2 3.9-2 .8 0 1.4-.5 1.4-1 0-.6.5-1 1-1 1.2 0 2.8-1.4 9-7.5 7-6.9 8-8.3 8-10.7 0-3.6 1.1-6.8 2.1-6.2.5.3.9-1.1.9-3.1 0-2.1-.6-3.8-1.4-4.1-.7-.3-1.6-2.3-2-4.5-.3-2.1-1.1-3.9-1.7-3.9-.6 0-1.7-.7-2.5-1.5-.9-.8-2.5-1.5-3.7-1.5-1.2-.1-3.3-.7-4.7-1.5-3.2-1.8-6-1.9-6-.1 0 1.1-3.2 1.4-15.1 1.8-9.5.3-15.3.8-15.7 1.5-.4.6-2 1.5-3.7 1.9-1.6.4-5.1 2.9-7.7 5.5-4.3 4.3-4.8 5.3-4.8 9.2 0 3.4.5 4.8 2.6 6.6 2.4 2.1 3.4 2.2 8.8 1.7 11.5-1.1 15.1-1.8 15.9-3.2.4-.8 2.1-1.4 3.6-1.4 1.6 0 3.1-.6 3.4-1.4.3-.7 2.3-1.7 4.4-2.1 2.1-.4 4-1 4.3-1.4.8-1.2 6.8-2.2 7.4-1.2.9 1.4-.6 5.1-2 5.1-.8 0-1.4.7-1.4 1.5s-.7 1.5-1.5 1.5-1.5.4-1.5 1c0 2.3-9.9 9-13.4 9-.8 0-1.6.6-1.8 1.2-.6 1.8-25 1.8-25.5 0-.3-.6-1.1-1.2-1.9-1.2-.8 0-2.8-1.4-4.4-3-2.7-2.8-3-3.8-3.1-9.8-.1-3.7-.1-7.3 0-8 .1-.7-.4-1.1-1.1-1-1.5.4-2.3-3.9-1-5.5.5-.7 1.3-3.3 1.6-6 .4-2.6 1.1-4.7 1.6-4.7s1.2-1 1.6-2.2c.7-2.2 1.5-3.4 4.7-6.9.9-1 1.7-2.4 1.7-2.9 0-.6.5-1 1-1 .6 0 1-.5 1-1.1 0-1.9 7.4-8.6 12.5-11.3 5.4-2.9 12-3.5 12.9-1.1 1.3 3.5 11.6-.1 11.6-4.1 0-.8.5-1.4 1-1.4.6 0 1-2.4 1-5.4 0-5.2-.2-5.5-3.2-6.7-3-1.3-2.3-1.4 9.7-1.7 7.2-.1 17.3.1 22.5.6 5.2.5 14.5.5 20.5.1 14.7-1.1 74.3-3 108.7-3.6 20.2-.3 28.2-.2 29.8.7 1.3.7 5.9 1.4 10.4 1.7 4.4.2 9.8 1.1 11.9 1.9 2 .8 6.4 1.4 9.6 1.4 4 0 6.5.5 7.5 1.5 1 1.1 3.7 1.5 9.3 1.5 4.3.1 9.8.6 12.3 1.1 7 1.6 17.9 2.2 19.3 1.1.7-.5 2.1-.6 3.2-.1 1.1.4 7 .8 13.2.8 6.2.1 13.6.7 16.5 1.5 3.1.8 11.4 1.4 20.1 1.5 9.7.1 16.2.7 18.5 1.6 3 1 14.3 1.3 58.2 1.1 30-.1 57.7-.5 61.5-.9 8.6-.9 79.1-2.9 104.5-3 37.4 0 85.4 1.3 87.8 2.5 1.7.9 2.5.9 3.4 0 .7-.7 1.9-1.2 2.8-1.2.9 0 2.5-.9 3.5-2s2.2-2 2.6-2c1.1 0 8.9-8.1 8.9-9.2 0-.5.7-1.6 1.5-2.4.8-.9 1.5-2.6 1.5-4 0-2.3-.3-2.4-6-2.4-3.3 0-7.7-.7-9.7-1.5-4.1-1.7-17.4-2-19-.4-.7.7-3.6.7-9.4.1-4.6-.6-24.3-1-43.7-1.1-29.9 0-35.6.2-36.9 1.4-1.2 1.3-8 1.5-44.1 1.6-23.5.1-43.1.1-43.5 0-.4-.1-1.5.5-2.3 1.4-1.3 1.3-5.4 1.5-25.7 1.5-13.9 0-25.7-.4-27.7-1-1.9-.6-17.7-1.3-35-1.6-22.5-.4-32.8-.9-36-1.9-2.6-.8-9.8-1.4-17-1.5-6.9-.1-14.5-.5-17-.8l-4.5-.7-.5-7.1c-.3-3.9-1-7.7-1.6-8.5-1.7-2.1-2.4-11.9-.9-11.9.7 0 3.2 2.1 5.5 4.6 3.9 4.3 4.5 4.6 8.1 4.1 2-.3 4.5-1.1 5.4-1.8 5.1-4.4 10.5-10.3 10.5-11.5 0-.8.4-1.4.9-1.4s1.1-1.6 1.3-3.6c.4-3.2-.1-4.1-4.1-8-2.5-2.4-5.2-4.4-5.8-4.4-.7 0-1.3-.7-1.3-1.5s-.5-1.5-1-1.5c-1.4 0-11-7.2-11-8.2 0-.4-.7-.8-1.5-.8s-1.5-.5-1.5-1c0-.6-.9-1.9-2-3-2.4-2.4-8-2.7-8-.5 0 .8-.4 1.5-1 1.5-1.4 0-1.3-5.3.2-6.8.9-.9.7-1.9-1-4.2l-2.3-3h6.3c3.9.1 7 .6 8.2 1.5 1.4 1 4.5 1.5 10.2 1.5 4.7 0 9.9.6 12.4 1.5 2.3.8 6.5 1.5 9.2 1.5 3.4 0 5 .4 5.4 1.5.4 1 2.1 1.5 5.4 1.5 2.6 0 6.1.7 7.6 1.5 1.6.8 3.6 1.5 4.5 1.5.9 0 3 .7 4.5 1.5 1.6.8 3.6 1.5 4.5 1.5.8 0 2 .5 2.6 1.1 1.3 1.3 4.7 3.3 8.1 4.8 1.2.6 2.2 1.5 2.2 2.1 0 .5.6 1 1.3 1 .6 0 2.6 1.3 4.4 2.9 2.4 2.1 3.9 2.7 6.2 2.3 1.7-.2 3.1-.8 3.1-1.3s.6-.9 1.3-.9c.7 0 3.5-2 6.2-4.5 9.6-8.9 10.8-13.4 4.9-18.1-2-1.6-4.3-3.5-5-4.1-.7-.7-1.9-1.3-2.8-1.3-.8 0-1.7-.4-2-.9-.8-1.2-8.4-5.1-10-5.1-.7 0-1.9-.7-2.6-1.5-.7-.8-2.4-1.5-3.9-1.5-1.4 0-3.5-.7-4.5-1.5-1.1-.8-4.1-1.5-6.7-1.5-2.9 0-5.3-.6-6.3-1.5-.8-.8-3.2-1.5-5.3-1.5-2.2 0-4.4-.5-4.9-1-.6-.6-5.5-1.3-11-1.6-5.4-.4-10.6-1.2-11.4-1.8-.8-.7-4.9-1.4-8.9-1.5-4.1-.2-8.6-.7-9.9-1.2-6.1-2.3-13-.6-17.7 4.5-1.3 1.4-2.8 2.6-3.3 2.6-.4 0-1.8 1.8-3 3.9-2.9 5.1-5.1 6-5.8 2.2-.4-1.6-1.8-3.5-3.5-4.5-1.6-.9-2.9-2.4-2.9-3.2 0-.8-.4-1.4-.8-1.4-.5 0-2.8-2.7-5.2-6-2.4-3.3-4.7-6-5.2-6-.4 0-.8-.4-.8-1 0-.5-1.5-2.4-3.3-4.2-1.8-1.8-4.6-5.1-6.2-7.2-1.7-2.2-4.2-5.4-5.7-7-1.6-1.7-2.8-3.4-2.8-3.8 0-.5-.7-.8-1.5-.8s-1.5-.6-1.5-1.3c0-.7-1.7-3.1-3.7-5.4-6.2-6.7-8.3-9.3-8.3-10.3 0-.6-.7-1-1.5-1s-1.5-.5-1.5-1c0-1.3-3.7-5-5-5-.5 0-1-.5-1-1.1 0-.5-1.8-2.9-3.9-5.2-2.1-2.3-5.2-5.8-6.7-7.7-1.6-1.9-3.2-3.7-3.6-3.8-.5-.2-.8-1-.8-1.8s-.7-1.4-1.5-1.4-1.5-.7-1.5-1.5-.4-1.5-.8-1.5c-.5 0-2.8-2.7-5.2-6-2.4-3.3-4.7-6-5.2-6-.4 0-.8-.6-.8-1.3 0-.6-1.6-3-3.5-5.2s-3.9-4.5-4.5-5.2c-.5-.7-1-1.7-1-2.3 0-.5-.4-1-.9-1-.4 0-2.1-1.9-3.7-4.3-1.6-2.3-3.2-4.4-3.6-4.5-.5-.2-.8-1-.8-1.8s-.4-1.4-.9-1.4-1.4-1.4-2.1-3c-.7-1.7-1.6-3-2.1-3s-.9-.6-.9-1.4c0-.8-.6-1.6-1.3-1.9-.7-.2-2.2-2.3-3.2-4.6-1.1-2.2-2.6-4.1-3.2-4.1-.7 0-1.3-.5-1.3-1 0-.6-2.1-3.9-4.8-7.4-2.6-3.5-5.4-7.4-6.2-8.6-.8-1.2-2.1-2.8-2.7-3.6-.7-.7-1.3-1.7-1.3-2.2 0-.6-.3-1.2-.7-1.4-1-.4-5.3-6.5-5.3-7.4 0-.4-.8-1.3-1.7-2-1.6-1.2-1.5-1.3 1.4-1.4 1.7 0 3.8.7 4.7 1.5.8.8 2.4 1.5 3.6 1.5 1.1 0 2.3.7 2.6 1.5.4.8 1.4 1.5 2.4 1.5s2.3.7 3 1.5c.7.8 2.4 1.5 3.9 1.5 1.4 0 3.5.7 4.5 1.5 1.1.8 3 1.5 4.2 1.5 1.2 0 3.5.6 5.1 1.4 1.5.8 4.7 2.2 7.1 3.2 2.3.9 4.2 2.1 4.2 2.7 0 .5 1.1 2 2.5 3.3 1.4 1.3 2.5 2.6 2.5 2.9 0 .6 1.3 2.3 4.3 5.6.9 1 1.7 2.5 1.7 3.2 0 .7.5 1.8 1.2 2.5 1.4 1.4 6.8 1.6 6.8.2 0-.6.8-1 1.9-1 1 0 2.4-.7 3.1-1.5 1.4-1.7 4-2 4-.4 0 1.4 4.1 4.8 5.8 4.9.6 0 1.2.6 1.2 1.3 0 .6 1.2 1.8 2.8 2.4 1.5.7 4.3 2.8 6.3 4.7 2 1.9 4.8 3.8 6.3 4.2l2.6.6.1 16.2c.1 8.8.1 16.5 0 16.9-.1.4.6 2.1 1.4 3.7.9 1.7 1.5 5.7 1.5 9.7.1 4 .7 7.8 1.5 9.3.8 1.4 1.4 3.8 1.5 5.3 0 1.5.7 4.3 1.4 6.2 1.3 3.1 1.9 3.5 5.1 3.5 2.2 0 3.8-.6 4.1-1.5.4-.8 1.5-1.5 2.5-1.5s1.9-.5 1.9-1.2c0-.6 1.9-3 4.3-5.3 5.4-5.2 8.5-11.1 6.9-12.7-.7-.7-1.2-2.7-1.2-4.6 0-1.8-.5-4.3-1.2-5.5-.7-1.2-1.5-5.2-1.8-9-.6-7.1.3-8.3 3.4-4.9.9 1 4.1 3.2 7.2 4.8 3.1 1.6 5.9 3.5 6.1 4.1.3.7 1.3 1.3 2.3 1.3 1 0 2 .7 2.4 1.5.3.8 1.5 1.5 2.6 1.5s2 .5 2 1.1c0 .5 1.4 1.5 3 2 1.7.6 3 1.5 3 2s.9.9 1.9.9c1 0 2.1.7 2.5 1.5.3.8 1.5 1.5 2.6 1.5s2 .4 2 .9 1.4 1.4 3 2c1.7.5 3 1.5 3 2 0 .6.8 1.1 1.9 1.1 1 0 2.4.7 3.1 1.5.7.8 1.7 1.5 2.3 1.5.6 0 1.9.8 2.9 1.7 1.3 1.2 3.4 1.7 6.3 1.5 5.2-.2 11.1-4.2 16.9-11.4 4.9-6.2 4.6-9.2-.9-12.2-2.2-1.1-4.4-2.7-4.8-3.4-.4-.6-1.7-1.2-2.7-1.2-1 0-2.3-.6-2.7-1.3-.4-.6-3-2.3-5.6-3.7-2.7-1.4-6.1-3.2-7.5-4l-2.7-1.5 4.7-.3c2.8-.2 5.9.3 7.7 1.2 1.6.9 5.4 1.6 8.3 1.6 3.1.1 6.1.7 7.2 1.5 2.6 2 9.5 2 10.2 0 .4-.8 1.4-1.5 2.3-1.5.9 0 2.4-.8 3.3-1.8.9-.9 3.7-3.5 6.2-5.7s4.6-4.6 4.6-5.3c0-.6.5-1.2 1.1-1.2.6 0 .9-1.4.7-3.2-.4-3.8-2.2-4.6-11.8-4.7-3.7-.1-7-.5-7.6-1.1-.5-.5-3.9-1.3-7.4-1.7-3.5-.3-7.5-1.2-9-2-1.4-.7-3.4-1.3-4.5-1.3-1.1-.1-3.1-.7-4.5-1.5s-3.9-1.4-5.6-1.5c-1.7 0-3.7-.7-4.4-1.5-.7-.8-2.3-1.5-3.7-1.5-1.3 0-2.6.7-2.9 1.5-.4.8-1.5 1.5-2.5 1.5-1.1 0-3.5 1.6-5.3 3.5-1.9 1.9-3.9 3.5-4.5 3.5-.6 0-1.1.5-1.1 1.1 0 .6-.7 1.7-1.5 2.5-.8.9-1.5 2.4-1.5 3.5 0 2 0 2-2.9 0-1.6-1.2-3.4-2.1-4-2.1-.6 0-1.1-.7-1.1-1.5s-.9-1.5-1.9-1.5c-1.1 0-2.6-.7-3.5-1.5-.8-.8-1.9-1.5-2.5-1.5-.6 0-1.1-.4-1.1-.8 0-.8-9.5-8.2-10.5-8.2-.3 0-1.6-1.1-2.8-2.4-3.2-3.3-8.2-5.7-9.4-4.5-.7.7-1.1.3-1.1-1.4 0-2.4-3.3-6.7-5.2-6.7-.5 0-1.3-.6-1.7-1.3-.4-.8-2.1-2.2-3.8-3.2-1.6-1-4.2-3.1-5.7-4.7-1.5-1.5-3-2.8-3.3-2.8-.4 0-2.4-1.4-4.5-3-2.1-1.7-4.3-3-4.9-3-.6 0-1.1-.6-1.1-1.3 0-.7-2-2.1-4.5-3.2s-4.5-2.3-4.5-2.7c0-.3-1.3-1.1-3-1.7-1.6-.5-3-1.5-3-2 0-.6-1.3-1.1-3-1.1-2 0-3-.5-3-1.5 0-.8-.7-1.5-1.5-1.5s-1.5-.7-1.5-1.5-.7-1.5-1.5-1.5-1.5-.5-1.5-1c0-.6-.8-1.9-1.7-2.9-1-1.1-2.4-2.7-3.1-3.5-1.7-2.1-8.1-2.1-8.8-.1-.4.8-1.7 1.5-3 1.5-1.5 0-2.4.6-2.4 1.6 0 .9-.3 1.4-.7 1.2-.5-.2-2.5-1.2-4.5-2.1-2.1-1-3.8-2.1-3.8-2.5 0-.9-4.4-2.8-8.5-3.8-1.6-.3-3.5-1.3-4.2-2.2-1.4-1.7-9.5-1.1-10.1.7-.2.6-1 1.1-1.8 1.1-1.6 0-11.4 9.6-11.4 11.2 0 .5-.9 2.1-2 3.5l-1.9 2.5-1.2-2.6c-.7-1.4-1.6-2.6-2.1-2.6-.4 0-.8-.6-.8-1.4 0-.8-.3-1.6-.7-1.8-1.2-.5-5.3-6.6-5.3-7.8 0-.5-.7-1-1.5-1s-1.5-.5-1.5-1c0-1.2-.4-1.7-5.4-7.6-2-2.3-3.6-4.6-3.6-5.2 0-.6-.3-1.2-.7-1.4-1.1-.4-5.3-6.5-5.3-7.6 0-1.4 10.3-.1 12.1 1.4.8.8 2.6 1.4 4 1.4 1.3.1 3.5.7 4.9 1.5 1.4.8 4.4 1.4 6.6 1.5 2.4 0 4.7.6 5.4 1.5.7.8 2.9 1.5 5 1.5s5.1.7 6.6 1.5c1.6.8 4.1 1.5 5.7 1.5 1.7 0 2.7.5 2.7 1.5s1 1.5 3.4 1.5c1.8 0 3.9.7 4.6 1.5.7.8 2.5 1.5 4 1.5s3.3.7 4 1.5c2 2.4 9.7 1.9 13.7-.8 1.8-1.2 3.3-2.5 3.3-3 0-2.2 3.7 0 11.3 6.7.9.9 2.3 1.6 3.1 1.6.8 0 1.7.4 2 .9 1 1.5 9 5.1 11.4 5.1 1.3 0 2.2.6 2.2 1.5 0 1.1 1.2 1.5 4.3 1.5 2.3 0 5.1.7 6.1 1.5 1.3 1 4.3 1.5 8.2 1.5 4.3 0 6.5.5 7.4 1.5 1.2 1.4 1.5 1.4 3.6 0 1.3-.8 3.2-1.5 4.4-1.5 1.1 0 2-.7 2-1.5s.9-1.5 2-1.5 2-.7 2-1.5.7-1.5 1.5-1.5 1.5-.7 1.5-1.5.5-1.5 1-1.5c.6 0 1 .7 1 1.5s-.4 1.5-1 1.5c-.5 0-1.2 1.1-1.6 2.5-.3 1.4-1 2.5-1.5 2.5s-.9.6-.9 1.4c0 1 2.4 1.5 9.3 1.9 5.1.3 10.6 1.2 12.2 2 5.4 2.7 10.5 4.7 12 4.7.8 0 1.5.4 1.5.9s1.3 1.4 3 2c1.7.5 3 1.5 3 2 0 .6.8 1.1 1.9 1.1 1 0 2.4.7 3.1 1.5.7.8 1.9 1.5 2.6 1.5.8 0 1.4.7 1.4 1.5 0 .9.9 1.5 2.4 1.5 1.4 0 2.8.5 3.1 1.1.4.5 1.7 1.5 2.8 2 1.2.5 4.9 2.5 8.2 4.4 3.3 1.9 6.7 3.7 7.5 4.1.8.3 4.2 1.9 7.5 3.5s6.8 2.9 7.8 2.9 2.9.7 4.2 1.6c3.3 2.1 22.3 1.7 24.7-.6.9-.8 3.3-2.9 5.3-4.5 6.9-5.5 8.5-7.7 8.5-11.7V860h-7.2c-4.8-.1-8-.6-9.2-1.5-1.1-.8-2.7-1.5-3.7-1.5-.9 0-3-.7-4.5-1.5-1.6-.8-3.7-1.5-4.6-1.5-.9 0-3.7-1.4-6.1-3-2.5-1.7-5.2-3-6.1-3-.9 0-1.6-.4-1.6-.9s-1.2-1.4-2.7-2c-1.6-.6-4.1-2-5.8-3.1-1.6-1.1-3.9-2.4-5-3-5.9-3.1-12-6.9-12.3-7.9-.2-.6-1.2-1.1-2.2-1.1-.9 0-2.3-.7-3-1.5-.7-.8-2.5-1.5-4-1.5s-3.3-.7-4-1.5c-.7-.8-2-1.5-3-1.5s-2.3-.7-3-1.5c-.7-.8-2.7-1.5-4.4-1.5-1.8 0-4.1-.7-5.2-1.5-2.6-2-11.8-2-13.4 0-.7.8-2 1.5-2.8 1.5-.9 0-3.8 2.3-6.4 5.1-4.6 4.9-6.8 5.9-5.4 2.4.3-.9 1-1.3 1.6-1 .5.3 1-.3 1-1.5 0-1.1.5-2.9 1.2-4 .7-1 1-2.2.7-2.5-.3-.3-3.5-.8-7-1.1-3.5-.4-6.9-1.1-7.5-1.5-.6-.5-3.3-1.2-6-1.5-2.7-.4-5.8-1.3-6.9-2-1.1-.8-2.9-1.4-4-1.4s-2.9-.7-3.9-1.5c-1.1-.8-2.7-1.5-3.7-1.5-.9 0-2.2-.7-2.9-1.5-.7-.8-2-1.5-3-1.5s-2-.7-2.4-1.5c-.3-.8-1.1-1.5-1.8-1.5-.8 0-2.8-1.4-4.6-3-1.8-1.7-3.7-3-4.2-3s-2.3-1.3-4-3c-3.4-3.3-6.1-3.8-8-1.5-.7.8-2.1 1.5-3.1 1.5-1.1 0-1.9.7-1.9 1.5s-.6 1.5-1.4 1.5c-.8 0-1.6.7-2 1.5-.8 2.1-2.6 1.9-7.7-.8-2.4-1.3-6.2-2.7-8.4-3.1-2.2-.4-5.2-1.4-6.7-2.2-1.5-.8-3.7-1.4-5-1.4-1.3 0-3.2-.7-4.2-1.5-1.1-.8-3.6-1.5-5.5-1.5-2-.1-4.7-.7-6.1-1.5-1.4-.8-3.9-1.4-5.6-1.5-1.7 0-3.7-.7-4.4-1.5-.7-.9-3-1.5-5.4-1.5-2.2 0-5-.7-6-1.5-1.1-.8-3.4-1.5-5.2-1.5-1.7 0-3.7-.7-4.4-1.5-.8-.9-3-1.5-6-1.5s-5.2-.6-6-1.5c-1.7-2.1-15-2.2-15-.1 0 .8-1.3 1.7-3 2.1-1.6.4-3 1.1-3 1.6s-.4.9-1 .9c-.5 0-1-.6-1-1.4 0-.8-.6-2.1-1.3-2.8-.6-.7-2.9-3.9-5-7s-5-6.9-6.3-8.3c-1.3-1.4-2.4-2.8-2.4-3.1 0-.9-7.5-10.4-8.2-10.4-.4 0-.8-.5-.8-1 0-1.2-4.1-7.3-5.2-7.8-.5-.2-.8-1-.8-1.8s-.7-1.4-1.5-1.4-1.5-.5-1.5-1.1c0-.6-1.3-2.8-3-4.9-1.6-2.1-3-4.1-3-4.4 0-.3-.8-1.4-1.7-2.4-1-1-2.5-2.9-3.3-4.2-.8-1.2-2.1-2.8-2.7-3.6-.7-.7-1.3-1.6-1.3-1.9 0-.4-1.3-2.4-3-4.5-1.6-2.1-3-4.3-3-4.9 0-.6-.7-1.1-1.5-1.1s-1.5-.5-1.5-1c0-1.5 9.3-1.2 13.3.5 2 .8 5.8 1.5 8.5 1.5 3.2 0 5.4.5 6.2 1.5.9 1 3.2 1.5 7.5 1.5 4.1 0 6.7.5 7.4 1.4 1.5 1.8 14.2 1.7 14.9-.2.2-.6 1-1.2 1.8-1.2 1 0 .7.8-1.1 2.7-5 5.4-2.9 7.8 7.9 8.9 4.3.4 7 1.2 7.3 2 .3.9 2.2 1.4 5.2 1.4 2.5.1 5.7.7 7.1 1.5 1.4.8 4.4 1.4 6.8 1.5 2.3 0 5.4.7 6.7 1.6 2.7 1.8 3.3 3.4 1.2 3.4-1.4 0-4 2.7-5 5.3-.3.9-1.3 1.7-2.2 1.7-.9 0-1.5.9-1.5 2.4 0 1.4-.4 2.8-1 3.1-1.2.7-1.4 5.5-.2 5.5.4 0 2.3 1.5 4.2 3.3 2 1.7 5.3 4.1 7.4 5.2 2.1 1.1 4 2.6 4.3 3.2.3.7 1.3 1.3 2.2 1.3.9 0 2.2.5 2.8 1.1.8.8 2.3.7 5.7-.6 2.5-1 4.6-2.2 4.6-2.6 0-.5.7-.9 1.5-.9.9 0 1.8-.7 2.1-1.5.4-.8 1.2-1.5 2-1.5s1.4-.6 1.4-1.4c0-.8.3-1.6.7-1.8 1.6-.7 5.3-6.8 5.3-8.8 0-1.3-1.2-2.8-3-3.8-1.6-.9-3-2-3-2.5 0-.4-1.1-.7-2.5-.7s-2.8-.7-3.1-1.5c-.4-.8-1.2-1.5-2-1.5s-1.4-.5-1.4-1c0-1.5 4-1.2 4.6.3.3 1 3.4 1.4 10.9 1.6 9.2.2 10.4 0 9.9-1.3-.4-1.1 0-1.6 1.1-1.6 1.5 0 4.8-2.7 13.1-10.8 2.6-2.5 3.3-8.1 1.2-8.3-.7-.1-2.9-.1-4.9 0-2 .2-5.8-.5-8.3-1.3-2.6-.9-6.6-1.6-9-1.6-3 0-4.6-.5-5-1.5-.3-.9-1.8-1.5-3.9-1.5-1.9 0-5.1-.7-7-1.5-2-.8-5.1-1.5-7-1.5-1.8 0-4.2-.7-5.3-1.5-1-.8-4-1.5-6.5-1.5s-5.4-.7-6.5-1.5c-1-.8-4.1-1.5-6.9-1.5-2.7 0-5.7-.5-6.5-1.1-1.1-.7 2.1-.8 10.5-.4 17.6 1 25.3.9 41.8-.2 8.6-.6 15.3-1.5 15.9-2.1.7-.7 2.2-1.2 3.4-1.2 1.3 0 2.9-.7 3.8-1.5.8-.8 1.9-1.5 2.4-1.5.6 0 3-1.8 5.3-4 2.4-2.2 4.6-4 5-4 2.4 0 5.3-8.9 3.5-10.7-1.1-1.2-10.9-.2-13 1.3-2.9 2-47.4 2-56-.1-8.3-2-38-1.9-39.7.1-.6.8-2.9 1.4-5.1 1.4-3.5 0-9.6 3-10.6 5.2-.2.4-2 1.5-3.9 2.5-3 1.4-4.1 1.4-6.7.4-1.7-.7-6.4-1.5-10.3-1.8-4.3-.3-7.8-1.2-8.4-1.9-.7-.8-3.1-1.4-5.8-1.4-2.5-.1-5.7-.7-7.1-1.5-1.4-.8-4.1-1.4-6.1-1.5-2 0-4.2-.7-4.9-1.5-.7-.9-2.9-1.5-5.2-1.5-2.5 0-4.1-.5-4.4-1.5-.5-1.1-2.3-1.5-7.5-1.5-6 0-7-.3-8-2.2-.6-1.2-2.2-3.3-3.5-4.7-1.3-1.4-2.4-2.9-2.4-3.3 0-.5-.8-1.6-1.8-2.6-.9-1-2.4-2.9-3.2-4.1-.8-1.3-2.3-3.3-3.4-4.4-1-1.2-3.1-4-4.5-6.2-1.4-2.3-3.8-5.4-5.3-6.9-1.4-1.6-3.4-4.6-4.5-6.7-1-2.1-2.4-3.9-3-3.9-.7 0-1.3-.5-1.3-1.1 0-.6-1.3-2.8-3-4.9-1.6-2.1-3-4.3-3-4.9 0-.6-.4-1.1-.8-1.1-.8 0-8.2-9.5-8.2-10.5 0-.3-.7-1.3-1.6-2.3-4.7-5.3-7.4-8.8-7.4-10 0-.6-.3-1.2-.8-1.2-.4 0-2.8-2.7-5.2-6-2.5-3.3-4.8-6-5.2-6-.5 0-.8-.6-.8-1.3 0-.6-1.4-2.5-3-4.1-1.6-1.6-3.2-3.7-3.5-4.7-.4-1.1-1.1-1.9-1.6-1.9s-.9-.7-.9-1.5-.7-1.5-1.5-1.5-1.5-.4-1.5-.9c0-.9-2-3.4-8.7-11.1-1.8-2.1-3.3-4.3-3.3-4.9 0-.6-.4-1.1-1-1.1-.5 0-1.6-1.2-2.4-2.8-.8-1.5-3.1-4.4-5-6.5-2-2.1-3.6-4.2-3.6-4.6 0-.5-.7-1.1-1.5-1.5-.8-.3-1.5-1.2-1.5-1.9 0-.8-1.3-2.7-3-4.3-1.6-1.6-3-3.4-3-4 0-.7-.6-1.4-1.2-1.7-.7-.3-2.1-1.9-3.1-3.6l-1.8-3.1 4.7 2.5c2.6 1.4 5.1 2.5 5.5 2.5 1.4 0 15.8 7.1 16.4 8.1.4.5 1.5.9 2.6.9s2.2.7 2.5 1.5c.4.8 1.4 1.5 2.4 1.5 1.1 0 2.2.5 2.5 1.1.4.5 1.7 1.4 2.8 2 1.2.5 2.9 1.3 3.7 1.8.8.5 3.5 1.9 6 3.1 4.9 2.3 6.5 3.1 9.5 4.8 1.1.7 3 1.6 4.3 2.2 1.2.5 2.2 1.4 2.2 2 0 .5 1.1 1 2.5 1s2.8.7 3.1 1.5c.4.8 1.4 1.5 2.4 1.5 1.1 0 2.1.4 2.4.9.8 1.2 20.4 11.1 22.1 11.1.7 0 1.8.7 2.5 1.5s2 1.5 3 1.5 2.3.7 3 1.5c.7.8 2.4 1.5 3.9 1.5s3.2.5 3.8 1.1c1.3 1.3 4.7 3.3 8.2 4.9 3 1.3 12.1.2 12.8-1.6.3-.8 1.1-1.4 1.9-1.4.8 0 1.4-.6 1.4-1.3 0-.6 1.4-1.8 3-2.5 2.1-1 3-2.1 3-3.8 0-1.5.6-2.4 1.5-2.4 1.1 0 1.5-1.2 1.5-4.5 0-3.8-.3-4.5-1.9-4.5-1.1 0-2.6-.7-3.5-1.5-.8-.8-2.4-1.5-3.6-1.5-1.1 0-2.3-.7-2.6-1.5-.4-.8-1.6-1.5-2.9-1.5-1.2 0-4.6-1.3-7.6-2.9-3-1.5-6.6-3.1-8.1-3.5-1.6-.3-2.8-1.1-2.8-1.6 0-.6-1.1-1-2.5-1s-2.8-.7-3.1-1.5c-.4-.8-1.4-1.5-2.4-1.5s-2.3-.7-3-1.5c-.7-.8-1.7-1.5-2.2-1.5-.5 0-1.6-.7-2.4-1.5-.9-.8-2.4-1.5-3.5-1.5-1 0-1.9-.4-1.9-.9s-1.3-1.4-3-2c-1.6-.5-3-1.5-3-2 0-.6-.8-1.1-1.9-1.1-1 0-2.4-.7-3.1-1.5-.7-.8-2-1.5-3-1.5s-2-.7-2.4-1.5c-.3-.8-1.1-1.5-1.8-1.5-1.6 0-9.6-3.9-10.4-5.1-.3-.5-1.2-.9-2-.9-.9 0-2.2-.7-3-1.5-.9-.8-2.4-1.5-3.5-1.5-1 0-1.9-.7-1.9-1.5 0-.9-.9-1.5-2.5-1.5-1.4 0-2.8-.7-3.1-1.5-.4-.9-1.9-1.5-3.5-1.5-1.9 0-2.9-.5-2.9-1.5s-1-1.5-3-1.5-3-.5-3-1.5c0-.9-.9-1.5-2.3-1.5-1.2 0-5.6-1.8-9.7-4s-8.5-4.4-9.6-4.9c-1.2-.5-3-2.1-4.2-3.5-2.4-3.1-6-3.4-9.2-.6-1.3 1.1-2.7 2-3.2 2-1.2 0-3.1 1.6-7.8 6.4-3.7 3.8-3.8 3.9-5.7 2-1-1-2.7-3.3-3.8-4.9-1-1.7-2.4-3.4-3.2-3.8-.7-.4-1.3-1.5-1.3-2.2 0-.8-.3-1.5-.8-1.5-.4 0-2.7-2.7-5.1-6-2.4-3.3-4.8-6-5.2-6-.5 0-.9-.6-.9-1.4 0-.8-.7-1.7-1.6-2-1.2-.5-1.4-1.5-.9-5l.7-4.5-3.6.6c-2.4.4-3.6.2-3.6-.6 0-1.1-.8-2.3-4-5.9-.8-1-2.3-3-3.3-4.5-1.7-2.6-1.7-2.7.3-2.7 2.7 0 12 4 12 5.1 0 .5 1.1.9 2.5.9s2.8.7 3.1 1.5c.4.8 1.4 1.5 2.4 1.5s2.3.7 3 1.5c.7.8 2.1 1.5 3.1 1.5.9 0 2.4.7 3.3 1.5.9.9 3.3 1.5 6.5 1.5 3.1 0 5.5-.6 6.5-1.5.8-.8 1.9-1.5 2.5-1.5.6 0 1.1-.7 1.1-1.5s.7-1.5 1.5-1.5 1.5-.7 1.5-1.5.7-1.5 1.5-1.5 1.5-.7 1.5-1.5.4-1.5.9-1.5c1.1 0 4.1-5.7 4.1-7.7 0-.7-1.1-1.8-2.5-2.3-1.4-.5-2.5-1.4-2.5-2 0-.5-1.4-1-3-1-1.8 0-3.3-.6-3.6-1.5-.4-.8-1.4-1.5-2.4-1.5s-2.3-.7-3-1.5c-.7-.8-2.1-1.5-3.1-1.5s-2.2-.6-2.6-1.3c-.4-.7-2.5-2.1-4.7-3.2-2.1-1.1-4-2.6-4.3-3.3-.3-.6-1.3-1.2-2.3-1.2-1 0-2-.7-2.4-1.5-.3-.8-1.5-1.5-2.6-1.5s-2-.5-2-1c0-.6-.7-1-1.5-1s-2.5-1-3.6-2.1c-1.8-1.8-3.3-2.2-8.5-2.1-5 .1-6.4-.2-6.4-1.3 0-.8-.7-1.5-1.5-1.5-.9 0-1.8-.7-2.1-1.5-.4-.8-1.7-1.5-3-1.5-1.4 0-2.7-.7-3-1.5-.4-.8-1.2-1.5-2-1.5s-1.4-.4-1.4-.9-1.5-1.9-3.4-3c-3.9-2.5-10.4-2.8-13.2-.6-2.4 1.9-4.5 1.9-3.8.1.3-.8-.4-2.4-1.5-3.5-1.2-1.2-2.1-2.4-2.1-2.7 0-.3-1.3-2.3-3-4.4-1.6-2.1-3-4.3-3-4.9 0-.6-.4-1.1-.9-1.1-.4 0-2.1-1.9-3.7-4.3-1.6-2.3-3.2-4.4-3.6-4.5-.5-.2-.8-.8-.8-1.4 0-.6-1.3-2.7-3-4.8-1.6-2.1-3-4.2-3-4.8 0-.6-.3-1.2-.7-1.4-1.2-.5-5.3-6.6-5.3-7.8 0-.5-.7-1-1.5-1s-1.5-.5-1.5-1c0-1.2-4.1-7.3-5.2-7.8-.5-.2-.8-1-.8-1.7s-.6-1.5-1.3-1.8c-.7-.2-2.2-2.3-3.2-4.6-1.1-2.2-2.6-4.1-3.2-4.1-.7 0-1.3-.7-1.3-1.5s-.4-1.5-.9-1.5-1.9-1.7-3.1-3.8c-1.2-2-2.8-4.1-3.6-4.5-.8-.4-1.4-1.2-1.4-1.8 0-1.3-7.2-10.9-8.2-10.9-.4 0-.8-.7-.8-1.5s-.4-1.5-.9-1.5-1.2-.8-1.5-1.8c-.3-.9-1.9-3.1-3.6-4.9-1.6-1.8-3-3.7-3-4.2 0-.6-.4-1.1-.9-1.1-.4 0-2.8-2.7-5.2-6-2.4-3.3-4.7-6-5.1-6-.5 0-.8-.5-.8-1 0-.6-.5-1.6-1-2.3-3.2-3.8-8-10.7-8-11.5 0-.5-.7-1.5-1.5-2.2-1.9-1.6-1.9-3-.1-3 .8 0 1.6-.7 2-1.5.3-.9 1.8-1.5 3.6-1.5s3.3-.6 3.6-1.5c.4-.8 1.5-1.5 2.5-1.5 1.1 0 2.2-.6 2.5-1.4.3-.8 1.9-1.8 3.5-2.1 1.6-.4 2.9-1 2.9-1.5s1-1.2 2.3-1.6c1.2-.4 5-3.5 8.5-6.9 4.6-4.6 6.2-6.9 6.2-8.9 0-3.2-4.9-8.6-7.8-8.6-1.1 0-2.5-.7-3.2-1.5-.7-.8-2.5-1.5-4-1.5s-4.4-.7-6.5-1.6c-2.3-.9-6.3-1.5-10.4-1.4-3.6.1-7 .1-7.4.1-.5-.1.1-1.3 1.2-2.7 1.2-1.5 2.1-3.3 2.1-4 0-.8.7-1.4 1.5-1.4s1.5-.9 1.5-1.9c0-1 .7-2.1 1.5-2.5.9-.3 1.5-1.8 1.5-4 0-1.9.3-3.6.8-3.8 1.1-.5 5.2-8.5 5.2-10.1 0-.8.7-1.7 1.5-2.1.8-.3 1.5-1.8 1.5-3.2 0-1.5.5-4.3 1.2-6.1 1.5-4.2-.1-6.5-3.2-4.5-1.1.6-3.1 1.2-4.4 1.2-1.4 0-3.1.6-3.8 1.4-.8.7-2.9 1.7-4.6 2.1-1.8.4-5.8 2-9 3.6-3.1 1.6-6.7 2.9-7.9 2.9-1.3 0-2.3.4-2.3 1 0 .5-.6 1-1.2 1-.7.1-3.1.9-5.3 2-2.2 1.1-4.7 1.9-5.7 2-.9 0-1.8.4-2 .9-.1.5-1.6 1.1-3.3 1.3l-3 .3.1-28.4c.1-25.2.3-28.5 1.8-29.6.9-.7 1.6-1.7 1.6-2.3 0-.6.8-2.4 1.7-4 1.3-2.3 1.5-3.7.8-5.8-1.1-3.1-1.9-3.4-5.8-2.5zm28.3 82.6c-1.3 1.4-2.7 2.5-3.2 2.5-1.1 0-4.8 3.3-4.8 4.3 0 .5-.7 1.5-1.5 2.3-.8.9-1.5 2.6-1.5 3.9 0 1.8.4 2.3 1.5 1.9.8-.4 1.5-.1 1.5.5s-.4 1.1-1 1.1c-.5 0-1 .6-1 1.3 0 .8-.9 2.2-2 3.2s-2 2.4-2 3.2c0 .7-.4 1.3-1 1.3-.5 0-1 .7-1 1.5s-.8 2.2-1.9 3.2c-1 1-2.1 3.5-2.5 5.6-.6 3.4-.5 3.8 1.9 4.7 3.5 1.3 20.5 1.3 20.5 0 0-.6 1-1 2.3-1 1.8 0 1.9.2.7 1-1.2.7-.8 1 1.5 1s2.7.3 1.5 1c-.8.5-3.4 1-5.7 1-2.3 0-4.8.7-5.7 1.5-.8.8-1.9 1.5-2.5 1.5-2 0-8.1 3.5-8.1 4.7 0 .7-.5 1.3-1.1 1.3-1.6 0-7.9 6.8-7.9 8.5 0 .7-.4 1.7-1 2-.5.3-1 1.7-1 3s.5 2.7 1 3c.6.3 1 2.2 1 4.1v3.6l-2.6-3.1c-2.8-3.4-6.3-4-8.8-1.6-.8.8-1.8 1.5-2.3 1.5-1.2 0-10.3 9.6-10.3 10.9 0 .6-.7 1.1-1.5 1.1-.9 0-1.5.9-1.5 2.4 0 1.3-.4 2.6-.9 2.8-.9.3-2 8.1-2.1 15 0 2.7-.4 3.8-1.5 3.8-.8 0-1.5.7-1.5 1.5s-.4 1.5-1 1.5c-1.2 0-1.9-30-.9-39.5.4-3.5.1-4-1.8-4.3-1.3-.2-2.3.1-2.3.7s-1.1 1.1-2.5 1.1c-3.1 0-3.2-1.3-.2-2.8 5.5-2.9 12.7-9.1 12.7-10.9 0-.6.7-1.4 1.6-1.7 1-.4 1.4-1.5 1.2-3.3-.2-2.1-1.2-3.1-4.2-4.2-2.2-.8-4.9-2.4-6.1-3.5-2.1-2.1-2.3-5.6-.3-5.6.6 0 3.7-2.8 6.9-6.1 6.1-6.3 7.1-9 4.7-12.9-1-1.6-1-2.2.2-3.4 1.5-1.4 8-3.2 8-2.2 0 .3-1.1 2.2-2.5 4.2-1.4 2.1-2.4 4.5-2.3 5.3.4 1.8 5.8 2.8 5.8 1.2 0-.6.7-1.1 1.5-1.1.9 0 1.8-.7 2.1-1.5.4-.8 1.1-1.5 1.6-1.5 1.3 0 5.8-4.2 5.8-5.4 0-.5.8-1.4 1.7-2.1 1.5-1.1 1.5-1.5.4-2.9-.9-1.1-1-1.6-.2-1.6.6 0 1.1-.7 1.1-1.5 0-1 1.4-1.7 4-2.1 2.2-.4 4-1 4-1.4 0-.4 1.6-1.1 3.5-1.4 1.9-.4 3.5-1.1 3.5-1.6 0-.4 1.5-1.2 3.3-1.5 1.7-.4 4.1-1.4 5.2-2.1 3.1-2.2 4.3.1 1.5 3.1zm169 330.7c0 .7 1.6 3.1 3.5 5.3 5.4 6.3 5.5 6.4 5.5 6.9 0 .2 1.3 1.9 2.9 3.8 1.6 1.8 4.3 4.9 6 6.8 1.7 1.9 3.1 4.1 3.1 4.7 0 .7.7 1.3 1.5 1.3s1.5.7 1.5 1.5.4 1.5 1 1.5c.5 0 1.6 1.2 2.4 2.7.8 1.6 3.1 4.5 5 6.6 2 2.1 3.6 4 3.6 4.3 0 .8 6.4 8.8 7.8 9.7.6.4 1.2 1.2 1.2 1.7s1.6 2.6 3.5 4.7 3.5 4.4 3.5 5c0 .7.5 1.3 1 1.3.6 0 1 .4 1 1 0 .5.7 1.8 1.6 2.7 4.7 5.4 7.4 8.9 7.4 10 0 .7.4 1.3.8 1.3.5 0 3 3 5.7 6.7 2.7 3.6 5.8 7.6 7 8.9 1.1 1.2 2.7 3.2 3.5 4.4.8 1.3 2.1 2.8 2.8 3.6.6.7 1.2 1.6 1.2 2.1 0 .4 1.4 2.1 3 3.7 1.7 1.6 3 3.8 3 4.8s.7 1.8 1.5 1.8 1.5.7 1.5 1.5.7 1.5 1.5 1.5 1.5.5 1.5 1.1c0 .6 1.4 2.8 3 4.9 1.7 2.1 3 4.1 3 4.4 0 .4 1.1 1.9 2.5 3.4s2.8 3.7 3.1 4.9c.4 1.3.9 2.3 1.3 2.3.9 0 8.1 9.7 8.1 11 0 .5.4 1 .9 1 .4 0 2.1 1.9 3.7 4.2 1.6 2.4 3.2 4.4 3.7 4.6.4.2.7.8.7 1.3s.7 1.7 1.6 2.6c4.7 5.4 7.4 8.9 7.4 10 0 .7.3 1.3.8 1.3.4 0 3.2 3.4 6.2 7.5s6.1 7.4 6.8 7.5c1.7 0 1.5 1.7-.3 2.4-.8.3-1.5 1.3-1.5 2.2 0 .9-.6 2.2-1.3 2.8-2.2 1.8 0 33.1 3.2 45.1 1.5 6 3.1 16.1 3.9 24.7.4 4.2 1.3 8.3 2 9 .7.7 1.2 3.7 1.2 6.8 0 3.4.6 6.4 1.5 7.6.8 1 1.5 3.8 1.5 6.2 0 2.3.7 5.9 1.5 7.9.8 1.9 1.5 6.5 1.5 10.2 0 4.4.5 7.4 1.5 8.7.8 1 1.5 3.2 1.5 4.8 0 1.6.7 3.7 1.6 4.7 1.4 1.6 1.4 2-.3 4.5-1 1.6-3 4.2-4.5 5.8-1.6 1.7-2.8 3.4-2.8 3.9s-.7 1.5-1.5 2.3c-.8.9-1.5 2.4-1.5 3.4s-.7 3.1-1.5 4.6c-.8 1.6-1.5 3.8-1.5 4.9 0 1.1-.7 2.9-1.5 3.9-1 1.3-1.5 4.3-1.5 8.2 0 3.4-.3 6.9-.6 7.8-.7 1.7-4.4 2.2-4.4.6 0-.6-2.7-3.8-6-7.1-3.9-4.1-6.5-5.9-7.5-5.6-1.3.6-1.5-.7-1.5-8.4 0-7 .3-9.1 1.5-9.5.8-.4 1.5-1.5 1.5-2.5s.6-1.9 1.4-1.9c.8 0 1.6-1.4 1.9-3.3.4-2.5-.3-4.3-2.9-8.4-1.9-2.8-3.4-5.7-3.4-6.5 0-.7-.7-2.2-1.5-3.2-.8-1.1-1.5-2.6-1.5-3.4 0-.7-.7-2-1.5-2.8-.8-.9-1.5-2.4-1.5-3.3 0-1-.7-2.4-1.5-3.1-.8-.7-1.5-2.3-1.5-3.6 0-1.2-.6-2.9-1.3-3.6-.8-.7-1.7-2.6-2.1-4.1-.3-1.5-1.1-2.7-1.6-2.7-.6 0-1-1.3-1-2.8 0-1.6-.7-3.7-1.5-4.8-.8-1-1.5-3.1-1.5-4.5 0-1.5-.7-2.9-1.5-3.3-.8-.3-1.5-1.6-1.5-2.9 0-1.3-.7-3.2-1.5-4.3-.8-1-1.5-3.1-1.5-4.5 0-1.5-.7-2.9-1.5-3.3-.8-.3-1.5-1.6-1.5-3 0-1.3-.6-2.6-1.2-2.8-1.3-.5 3.9-7.6 5.6-7.7 1.3-.1 3.3-3 5.6-7.8 3.2-6.7 2.4-10.3-2.1-10.3-1.6 0-2.9.4-2.9.9s-1.3 1.2-3 1.6c-1.6.4-3 1.1-3 1.6s-.5.9-1 .9c-.6 0-2.1 1.1-3.3 2.5-1.4 1.6-3.6 2.7-5.9 3l-3.7.5-.3-17.5c-.2-11.2-.7-17.8-1.4-18.5-1.7-1.7-7.7.3-11.6 3.9-3.5 3.2-6.5 3.5-9.7.8-.9-.7-3.4-2.2-5.6-3.2-2.2-1.1-4.5-2.6-5.1-3.4-.8-1-2.3-1.2-5.8-.8-4.4.6-5.4 1.1-9.1 4.5-2.5 2.3-3.8.8-1.6-1.7 1.2-1.3 2.1-3 2.1-3.8 0-.8.6-2.1 1.4-2.8 1-1 1.4-4.5 1.5-12.2.1-5.9.6-12.5 1.2-14.7.6-2.1 1.1-8.8 1.1-14.8 0-10.2 1-14.1 2.5-10.2.6 1.6 21.9 23.4 22.8 23.4.2 0 2.2 1.8 4.5 4s4.6 4 5.1 4 1.9 1 3.1 2.2c3 3 9 2.9 12.2-.1 1.2-1.1 2.6-2.1 3-2.1 1.1 0 7.6-6.6 7.6-7.7 0-.6.6-1.3 1.4-1.6 1.5-.6 2.8-5.9 2-8.2-.4-.8-1.2-1.5-2-1.5s-1.4-.5-1.4-1c0-.6-.5-1-1.1-1-1.6 0-7.7-5.1-16.7-13.9-4.1-3.9-7.8-7.1-8.3-7.1-.5 0-.9-.7-.9-1.5s-.7-1.5-1.5-1.5-1.5-.7-1.5-1.5-.7-1.5-1.5-1.5-1.5-.7-1.5-1.5-.7-1.5-1.5-1.5-1.5-.7-1.5-1.5-.4-1.5-1-1.5c-1.3 0-5-3.7-5-5 0-.6-.7-1-1.5-1s-1.5-.4-1.5-.9-2.3-3.3-5-6.2c-2.8-3-5.6-6.6-6.3-8.1-.6-1.6-1.5-2.8-1.9-2.8-.4 0-1.7-1.8-3-4.1-1.5-2.8-3.1-4.2-5-4.6-2.1-.4-2.8-1.1-2.8-2.9 0-1.2-.4-2.5-.9-2.8-.5-.3-1.2-1.8-1.5-3.2-.4-1.5-1.4-3.3-2.1-4.1-.8-.8-1.5-2.3-1.5-3.3s-.7-2-1.5-2.4c-.8-.3-1.5-1.6-1.5-2.9 0-1.4-.7-3-1.5-3.7-.8-.7-1.5-1.9-1.5-2.7 0-.8-.6-2.7-1.4-4.1-2.7-5.2-4.6-10.3-4.6-12.1 0-1-.7-2.4-1.5-3.1-.8-.7-1.5-2-1.5-2.9 0-1-.7-2.6-1.5-3.7-.8-1-1.5-2.8-1.5-3.9s-.7-3.3-1.5-4.9c-.8-1.5-1.5-3.6-1.5-4.6 0-1-.7-2-1.5-2.4-.8-.3-1.5-1.6-1.5-2.8 0-1.3-.7-3.6-1.5-5.2-.8-1.5-1.5-3.6-1.5-4.5 0-1-.7-2.6-1.5-3.7-.8-1-1.5-3.1-1.5-4.5s-.7-3.4-1.5-4.5c-1.6-2.1-2-9.4-.5-9.4.6 0 1 .6 1 1.2zm177 234.3c0 .7.6 1.5 1.3 1.8.7.2 2.2 2.3 3.2 4.6 1.1 2.2 2.6 4.1 3.3 4.1.6 0 1.2.5 1.2 1.1 0 .6 1.4 2.8 3 4.9 1.7 2.1 3 4.1 3 4.4 0 .6 1.3 2.2 6.2 7.9 1.5 1.8 2.8 3.8 2.8 4.4 0 .7.4 1.3.8 1.3 1 0 8.2 9.6 8.2 11 0 .5.7 1 1.5 1s1.5.5 1.5 1c0 1.4 7.2 11 8.2 11 .4 0 .8.5.8 1.2 0 .6.7 1.8 1.5 2.7 3.9 4.1 7.5 8.7 7.5 9.8 0 .6.3 1.3.8 1.5.4.1 2 2.2 3.6 4.5 1.6 2.4 3.3 4.3 3.7 4.3.5 0 .9.6.9 1.4 0 .7.7 1.9 1.5 2.6 2.2 1.8 1.9 3.6-1.2 7.1-1.6 1.6-3.6 4.4-4.5 6.2-2.2 3.9-2.4 12-.3 13.7.9.8 1.5 3 1.5 5.9.1 2.5.7 5.7 1.5 7.1.8 1.4 1.5 4.3 1.5 6.5s.7 5.1 1.5 6.5c.8 1.4 1.4 4.5 1.5 6.8 0 2.4.6 5.8 1.4 7.5.8 1.8 1.7 5 2 7.2.2 2.2.9 6.2 1.5 9 1.1 5.1 2.6 14.5 3.9 24.5.4 3 1.3 6.4 1.9 7.6.7 1.1 1.3 4.9 1.4 8.5.1 3.5.8 7.5 1.5 8.9 1.1 2.3 1.8 9.9 1.5 15.7 0 1.3-.7 2.3-1.6 2.3-1 0-1.5 1-1.5 2.9 0 1.6-.4 3.1-1 3.3-.5.1-1.2 2.3-1.5 4.6-.3 2.4-1.2 5.1-2 5.9-.8.8-1.5 2.3-1.5 3.3s-.4 2.1-.9 2.4c-.5.4-1.2 2.4-1.6 4.6-.4 2.2-1.1 4-1.5 4-.5 0-1.2 1-1.5 2.2-.4 1.3-1.2 3.6-2 5.3-.7 1.6-2.1 4.8-3.1 7-.9 2.2-2.3 4.6-3.1 5.3-.7.7-1.3 2.4-1.3 3.7 0 1.3-.5 2.5-1.1 2.7-.6.2-1.4 2.7-1.6 5.4-.4 4-.2 5.2 1.1 5.7.8.3 1.8.2 2.1-.3.4-.6 1.6-1 2.9-1 1.3 0 3.1-.9 4.1-2 1-1.1 2.5-2 3.4-2 2 0 14.1-12.6 14.1-14.5 0-.8-.6-1.8-1.4-2.2-1.4-.8.5-6 6-16.5.8-1.4 1.4-3.3 1.4-4.2 0-.9.5-1.6 1-1.6.6 0 1 1.7 1 3.7.1 2.1.7 4.9 1.5 6.3.8 1.4 1.4 3.5 1.5 4.7 0 1.2.7 2.8 1.5 3.7.8.8 1.5 2.4 1.5 3.5 0 3.1 3.2 8.8 5.8 10.2 1.8 1 2.7 1 4.2.1 1.1-.7 2.5-1.2 3.1-1.2.6 0 2.8-1.4 4.9-3 4-3.2 6-3.8 6-1.8 0 .6 2.8 4.1 6.3 7.7 3.4 3.6 8.3 9 10.8 11.8 3 3.6 5.5 5.5 7.7 5.9 2.5.5 3.2.3 3.2-1 0-.9.7-1.6 1.5-1.6s2.9-1.6 4.8-3.5 3.9-3.5 4.6-3.5c.6 0 1.1-.7 1.1-1.5s.7-1.5 1.5-1.5 1.5-.8 1.5-1.8.5-2.3 1.1-2.9c2.1-2.1-.1-6.5-5.7-11.9-5.2-5-6.2-7.4-2.8-7.4.8 0 1.4-.7 1.4-1.5s.4-1.5 1-1.5c.5 0 1.2-1.1 1.6-2.5.3-1.4 1-2.5 1.4-2.5.4 0 1.1-2.6 1.5-5.8.5-4.3.2-6.5-.9-8.7-1.3-2.4-1.6-6.6-1.6-21l.1-18 2.2 3c1.2 1.6 3.7 4.5 5.4 6.3 1.8 1.8 3.3 3.7 3.3 4.2 0 .6.5 1 1 1 1.1 0 5 3.6 5 4.6 0 .3 1.3 1.7 2.8 3.2 5.2 4.9 15.2 16.9 15.2 18 0 .7.7 1.2 1.5 1.2s1.5.7 1.5 1.5.7 1.5 1.5 1.5 1.5.4 1.5 1c0 .5 1.5 2.5 3.3 4.4 1.7 1.9 3.7 4 4.2 4.8.6.8 1.8 2.3 2.8 3.5 1.9 2.1 1.8 2.2-2.7 6.6-2.6 2.5-4.6 5.3-4.6 6.5 0 1.1-.4 2.4-1 2.7-1.2.8-1.3 9.1-.1 17 .5 3.3 1.3 16.9 1.6 30.2l.7 24.3h-5c-3.2 0-5.4-.5-6.2-1.5-.7-.8-1.8-1.5-2.4-1.4-.6.1-7.3.1-14.8 0l-13.8-.1v-3.4c0-1.8-.7-3.9-1.5-4.6-.8-.7-1.5-1.8-1.5-2.6 0-.7-.6-2.8-1.4-4.6-.8-1.8-2.2-6-3.2-9.3-1-3.3-2.4-6.7-3.1-7.6-.7-.8-1.3-2.1-1.3-2.8 0-.6-.6-2.4-1.4-4-1.3-2.3-1.9-2.7-5-2.3-2 .2-3.6.8-3.6 1.3s-.6.9-1.4.9c-.7 0-2.9 1.3-4.7 3-4 3.5-4.5 3.6-5.3 1.2-.3-.9-.9-2.4-1.4-3.2-2.3-4-4.2-8.3-4.2-9.5 0-.7-.7-1.8-1.5-2.5s-1.5-2.4-1.5-3.9-.5-3.2-1.2-3.9c-1.5-1.5-5.4-1.6-6.3-.2-.3.6-1.5 1-2.5 1s-3 1.3-4.3 3c-1.4 1.6-2.9 3-3.3 3-.4 0-1.3.8-2 1.7-1.2 1.6-1.3 1.5-1.4-1.4 0-1.7.5-3.5 1-3.8 1.6-1 1.2-6.5-.5-7.1-2.7-1.1-10.8 3.7-16.7 9.9-3.2 3.3-5.8 6.8-5.8 7.6 0 .9-.7 2.5-1.5 3.5-1 1.3-1.5 4.3-1.5 8.2 0 3.7-.5 6.8-1.3 7.6-.7.8-1.3 4.4-1.4 8.8-.1 4.3-.6 7.6-1.2 7.8-.6.2-1.4 2.1-1.7 4.3-.4 2.1-1 3.9-1.5 3.9s-.9.7-.9 1.5c0 1.3-5.6 1.5-44.5 1.5-24.5 0-44.5-.2-44.5-.5 0-.8 3.7-4.3 5.9-5.5 1.2-.6 2.1-2 2.1-3 0-1.1.7-2 1.5-2 1 0 1.5-1.1 1.5-3.5 0-1.9.4-4.4 1-5.7.5-1.3 1.3-5.9 1.7-10.2.7-6.5 1.1-8 2.6-8.2 1-.1 2.1.5 2.4 1.4.4.9 3.3 4.5 6.5 8 3.2 3.4 5.8 6.9 5.8 7.7 0 2.1 7.8 2.1 8.6 0 .4-.8 1.2-1.5 2-1.5 1.8 0 10.3-8.6 12.7-12.7 2.5-4.5 2.2-6-2-10.2-5.1-5.1-8.3-9.1-8.3-10.2 0-.5-.7-.9-1.5-.9s-1.5-.6-1.5-1.4c0-.8-.3-1.6-.8-1.8-1-.4-8.2-9.3-8.2-10.2 0-.4-1-1.7-2.3-2.9-4.4-4.4-12-13.9-13.9-17.5-1.1-2.2-1.8-5.7-1.8-8.8 0-6.4-2.2-9.5-4.9-6.9-2.2 1.9-4.1 1.9-4.1 0 0-.8.4-1.5 1-1.5.5 0 1.2-1.1 1.6-2.5.3-1.4 1-2.5 1.5-2.5.4 0 1.1-1.7 1.4-3.7.3-2.1 1.1-4.6 1.6-5.7.6-1 1.3-4.3 1.6-7.2.3-3 1.2-5.9 1.9-6.5.9-.8 1.4-3.5 1.4-8.1 0-3.8.4-7.8 1-8.8.5-1 1.2-7.7 1.5-14.9.6-14.4.1-15.6-5.1-13.2-2.2 1-2.6.8-3.5-1.6-1.2-3.2-10-15.3-11.1-15.3-1.6 0-.8-1.9 1.1-2.5 1-.3 3.9-2.6 6.4-5 2.5-2.5 5-4.5 5.6-4.5.6 0 1.1-.9 1.1-1.9 0-1.1.5-2.1 1.2-2.3.7-.3 1.3-3.2 1.6-7.4.2-3.8.8-7.3 1.3-7.9.6-.5.9-.2.9.9 0 .9.4 1.4 1 1.1.5-.3 1.2.7 1.6 2.2.8 3.9 4.7 12.3 5.6 12.3.5 0 .8.7.8 1.5 0 1.7 3.8 9.3 5.1 10.1.5.3.9 1.3.9 2.3 0 1 .7 2.4 1.5 3.1.8.7 1.5 1.9 1.5 2.6 0 .8.9 2.3 2 3.4s2 2.7 2 3.5c0 1.1 1.2 1.5 4.4 1.5 3.4 0 5.1-.6 7.7-3 1.9-1.6 4-3 4.7-3 .6 0 1.2-.7 1.2-1.5s.7-1.5 1.5-1.5c1 0 1.5-1 1.5-2.9 0-1.6.7-3.4 1.5-4.1 1.6-1.4 2.1-6 .5-6-.5 0-1.8-2.1-3-4.7-1.1-2.6-2.7-5.4-3.5-6.3-.7-.8-1.7-2.7-2-4.3-.4-1.5-1.1-2.7-1.6-2.7s-.9-.8-.9-1.9c0-1-.7-2.4-1.5-3.1-.8-.7-1.5-2-1.5-2.9 0-1-.7-2.6-1.5-3.7-.8-1-1.5-2.7-1.5-3.7 0-1.1-.6-3.1-1.3-4.5-.8-1.5-2.1-4.2-3-6-.9-1.9-1.7-4.1-1.7-5.1 0-.9-.7-2.6-1.5-3.8-.9-1.3-1.6-4.7-1.6-9-.2-6.6-2-11.9-4.6-13.6-.7-.4-1.3-2.6-1.3-4.8 0-2.2-.7-5.6-1.5-7.6-.8-1.9-1.5-5.9-1.5-8.7 0-2.9-.6-6.1-1.4-7.2-1-1.3-1.6-5.1-1.7-10.5-.1-4.6-.8-10.1-1.5-12.3-.8-2.1-1.4-6.9-1.4-10.6 0-4.8-.4-7.1-1.5-8-1.7-1.4-2.2-11.5-.5-10.5.6.3 1 1.2 1 2zm-78 103.9c0 1.2.7 3.1 1.5 4.2.8 1 1.5 2.6 1.5 3.5 0 .9.7 2.2 1.5 2.9.8.7 1.5 2 1.5 3s.7 2.3 1.5 3c.8.7 1.5 2.1 1.5 3.2 0 1 .7 2.1 1.5 2.4 1.7.7 2.1 3.4.5 3.4-.5 0-1.3 1.2-1.6 2.7-.4 1.6-1.3 3.7-2 4.8-1.7 2.7-1.6 14.1.2 15.6 1.1.9 1.4 6.6 1.4 27.9 0 14.8.3 27.5.6 28.4.7 1.7 5.4 2.2 5.4.6 0-.6.8-1 1.9-1 1 0 2.4-.7 3.1-1.5.7-.8 1.9-1.5 2.6-1.5.8 0 1.4-.5 1.4-1.1 0-.7 1.5-2.7 3.3-4.5 5.4-5.5 6.7-7.7 6.7-11.6 0-2.1.5-3.8 1-3.8.6 0 1 .5 1 1.1 0 .6.7 1.7 1.5 2.5.8.9 1.5 2.4 1.5 3.5 0 1 .5 1.9 1 1.9.6 0 1.5 1 2.1 2.2 1.5 3.4 3.5 6.8 4.8 8.1.6.6 1.1 2.6 1.1 4.4 0 2.3.5 3.3 1.5 3.3 1.8 0 1.9 2.8.3 6.7-.6 1.5-1.5 8.2-1.9 14.8-1.1 18.4-3.4 26.9-8.8 31.9-1.7 1.7-3.1 3.6-3.1 4.3 0 .7-.4 1.3-1 1.3-.5 0-1 1.1-1 2.4 0 1.3-.9 3.5-2 4.9-1.1 1.4-2 3-2 3.6 0 .6-.4 1.9-.9 2.9-.5.9-1.4 2.8-2 4.2-.6 1.4-2 3.8-3 5.5-1.1 1.6-2 3.7-2 4.6-.1.9-1 2.4-2.1 3.4s-2 2.4-2 3.2c0 .7-.4 1.3-1 1.3-.5 0-1 .7-1 1.5s-.9 2.4-2 3.5-2 2.3-2 2.6c0 .3-.7 1.2-1.5 2-.8.9-1.5 2.4-1.5 3.5 0 1-.7 1.9-1.5 1.9s-1.5.7-1.5 1.5-.7 1.5-1.5 1.5c-1 0-1.5 1-1.5 3s-.5 3-1.5 3c-.8 0-1.5.7-1.5 1.5s-.7 1.5-1.5 1.5-1.6.8-1.6 1.7c-.4 6-1.9-8.3-1.9-18.6-.1-10.5-.4-12.7-1.8-13.7-1.6-1.3-1.6-1.3 0-1.4 1.1 0 1.5-.5 1.2-1.5-.4-.8-.1-1.5.6-1.5s3-1.6 5.1-3.5c2.2-1.9 4.4-3.5 5-3.5 1.3 0 3.3-2 4.2-4.3.3-.9 1.2-1.7 1.9-1.7.7-.1 3.1-2.5 5.2-5.5 2.2-3 4.3-5.5 4.8-5.5.4 0 .8-.5.8-1.1 0-.6 1.4-2.8 3-4.9 1.7-2.1 3-4.3 3-4.9 0-.6.7-1.1 1.5-1.1s1.5-.9 1.5-2 .4-2 1-2c.5 0 1.2-1.1 1.6-2.5.3-1.4 1-2.5 1.5-2.5s.9-.5.9-1c0-1.2 3.9-7.1 5.4-8.1.5-.4.5-1.2.2-1.8-.9-1.3-4.6-1.5-4.6-.2 0 .5-1.3 1.2-3 1.6-1.6.4-3 1.1-3 1.6s-.7.9-1.5.9-1.5.7-1.5 1.5c0 .9-.8 1.9-1.7 2.2-2.3.9-3.7 2.3-4.6 4.5-.3 1-1.2 1.8-2 1.8-.7 0-2 1.2-2.9 2.7-.9 1.6-3 4.1-4.7 5.8-1.7 1.6-3.1 3.6-3.1 4.2 0 .7-.4 1.3-.9 1.3-.6 0-2 1.8-3.3 4-2.2 3.6-10.3 11-12 11-.5 0-.8-.7-.8-1.5 0-1.1-1.1-1.5-4-1.5-4.6 0-5-.8-1.5-3.4l2.5-1.9v-24.6c0-13.5-.3-26.1-.7-27.9-.6-3.8-2.7-5.1-5.4-3.4-1 .7-2.6 1.2-3.4 1.2-.9 0-1.8.7-2.1 1.5-.4.8-1.2 1.5-2 1.5s-1.4.4-1.4.8-1.6 2.3-3.5 4.2c-1.9 1.9-3.5 4.2-3.5 5.1 0 .9-.7 2.2-1.5 2.9-1.3 1.1-1.5 5-1.3 26.3.2 19 .6 25.1 1.6 25.5 1.6.5 1.6 4.2-.1 4.2-.8 0-2 1.2-2.8 2.7-.7 1.6-2 3.6-2.9 4.5-2.5 2.9-3.5 4.1-6 8.3-1.3 2.2-2.8 4.3-3.3 4.6-1 .7-3 4-4.6 7.6-.6 1.3-1.5 2.3-2.1 2.3-.5 0-1 .8-1 1.9 0 1-.7 2.4-1.5 3.1-.8.7-1.5 1.9-1.5 2.6 0 .8-.7 1.4-1.5 1.4-1 0-1.5 1-1.5 3s-.5 3-1.5 3c-.8 0-1.5.7-1.5 1.5s-.4 1.5-1 1.5c-.5 0-1 .9-1 2 0 1-.9 2.4-2 3-1.1.6-2 1.5-2 2.1 0 .6-.7 1.7-1.5 2.5-.8.9-1.5 2.4-1.5 3.5 0 1-.4 1.9-1 1.9-.5 0-.7.7-.4 1.5.4.8.2 1.5-.2 1.5-14.6.6-22.7 1.1-23.5 1.5-1.6 1.1-1.1-19.7.6-21.9.9-1.1 1.5-4.2 1.5-7s.5-5.8 1-6.6c.8-1.2 1-1.1 1 .7 0 3.6 3.2 4.6 8 2.6 2.2-1 4-2.1 4-2.5 0-.9 4.5-5.8 5.4-5.8 1.2 0 3-2.3 4.3-5.3.7-1.5 1.7-2.7 2.3-2.7.5 0 1-.7 1-1.5s.4-1.5.9-1.5 1.2-1.2 1.6-2.7c.3-1.5 1-3 1.4-3.3.5-.3 2-3.1 3.5-6.3 1.4-3.1 3-5.7 3.6-5.7.5 0 1-.8 1-1.9 0-1 .7-2.4 1.5-3.1.8-.7 1.5-2 1.5-3s.7-2.3 1.5-3c.8-.7 1.5-2 1.5-3s.7-2.3 1.5-3c.8-.7 1.5-2.3 1.5-3.7 0-1.3.7-3.1 1.5-3.9.8-.9 1.5-2.6 1.5-3.8 0-1.3.7-2.9 1.5-3.6.9-.7 1.5-2.9 1.5-5.1 0-2.2.5-3.9 1-3.9.6 0 1-.6 1-1.3.1-.6.9-3 2-5.2s1.9-4.8 2-5.8c0-.9.4-1.7.9-1.7s1.3-1 1.7-2.3c.4-1.2 1.8-3.9 3-5.9 2.6-4.1 3.1-8.4 1.2-9.1-1.8-.6-7.7 2.5-7.8 4 0 .7-.6 1.3-1.3 1.3-1.6 0-10.1 7.9-11 10.3-.3.9-1.1 1.7-1.7 1.7-.5 0-1 .9-1 1.9 0 1-.7 2.1-1.5 2.5-.9.3-1.5 1.8-1.5 3.6 0 1.6-.4 3-1 3-.5 0-1 .8-1 1.8 0 .9-.9 3.4-2 5.5-1.1 2-2 4.4-2 5.2 0 .8-.4 1.5-.9 1.5s-1.2 1.8-1.6 4c-.4 2.2-1 4-1.4 4-.9 0-5.1 9.5-5.1 11.5 0 .8-.4 1.5-1 1.5-.5 0-1.2 1.1-1.6 2.5-.3 1.4-1 2.5-1.4 2.5-.5 0-1.1 1.4-1.5 3-.4 1.7-1.1 3-1.6 3s-.9.6-.9 1.4c0 .8-.6 2.1-1.3 2.8-.7.7-2.4 3.5-3.8 6.3-1.3 2.7-3 5.6-3.6 6.3-.7.7-1.3 2.2-1.3 3.1 0 1-.7 2.4-1.5 3.1-.8.7-1.5 2.1-1.5 3.1s-.4 2.1-1 2.4c-1.6 1-1.2-8.9.5-12.1.8-1.6 1.5-4.3 1.5-5.9 0-1.7.7-3.9 1.5-4.9.8-1.1 1.5-3 1.5-4.3 0-1.3.6-3.4 1.4-4.6.8-1.2 1.8-4.4 2.1-7 .7-4.7.7-4.9-1.6-4.5-1.5.2-2.4-.2-2.3-1 .1-.6.2-1.8.3-2.6 0-.8 1.2-1.7 2.6-2 1.4-.4 2.5-1.1 2.5-1.6 0-.6.7-1 1.5-1 .9 0 1.8-.7 2.1-1.5.4-.8 1-1.5 1.5-1.5 1.2 0 4.9-3.8 4.9-5 0-.6.7-1 1.5-1s1.5-.9 1.5-2 .4-2 1-2c.5 0 1.2-1.1 1.6-2.5.3-1.4 1.2-2.5 2-2.5s1.4-.7 1.4-1.5c0-1.6 1.2-3.4 4.3-6.3.9-.9 1.7-2.4 1.7-3.4s.4-1.8 1-1.8c.5 0 1.2-1.1 1.6-2.5.3-1.4 1.2-2.5 2-2.5s1.4-.7 1.4-1.6c0-.8.7-2.2 1.5-3 .8-.9 1.5-2.4 1.5-3.5 0-1 .4-1.9 1-1.9.5 0 1.2-1.1 1.6-2.5.3-1.4 1-2.5 1.4-2.5.5 0 1.1-1.8 1.5-4 .4-2.2 1.1-4 1.6-4s.9-.5.9-1.1c0-2.2 6.1-13.8 8.8-16.7.6-.7 1.2-2 1.2-2.8 0-.8.5-1.4 1-1.4.6 0 1-.6 1-1.3 0-.7.7-2.2 1.5-3.3 1.4-1.8 1.6-1.8 2.9-.1 1 1.3 2.1 1.5 4.5 1.1 1.7-.4 3.1-1 3.1-1.5s.9-.9 2-.9 2-.6 2-1.3c0-.7 1.4-2.1 3-3 1.7-1 3-2.5 3-3.3 0-.8.7-1.4 1.5-1.4s1.5-.6 1.5-1.4c0-.7.6-1.9 1.4-2.5 1.1-.9 1.4-7.4 1.4-34.4 0-18.2.1-34 .1-35 .1-2.6 2.1-1 2.1 1.7zm168 19.2c0 .8.5 1.2 1 .9.6-.3 1.3.2 1.7 1.2.3 1 1.9 3.4 3.5 5.4 1.5 2 2.8 3.9 2.8 4.3 0 .3 1.5 2 3.3 3.9 1.9 1.8 4 4.7 4.8 6.5.7 1.8 2 3.2 2.6 3.2.7 0 1.3.4 1.3 1 0 .5.7 1.8 1.6 2.7 4.2 4.8 7.4 8.9 7.4 9.7 0 .4 1.4 2.5 3 4.6 1.7 2.1 3 4.3 3 4.9 0 .6.4 1.1.9 1.1.4 0 2.1 1.9 3.7 4.2 1.6 2.4 3.2 4.4 3.7 4.6.4.2.7 1 .7 1.8s.4 1.4 1 1.4c.5 0 1.4.9 2.1 2.1.9 1.7.7 2.5-.8 4.2-4.1 4.7-4.6 7.2-3.9 17.4.3 5.4 1.1 17 1.6 25.8s1.3 17.1 1.8 18.5c.5 1.4.7 3.2.3 4-.8 2-3.1 2.4-3.1.6 0-.8-1.6-3-3.5-4.9-1.9-1.9-3.5-4-3.5-4.6 0-.6-.7-1.1-1.5-1.1s-1.5-.5-1.5-1c0-1.1-3.9-7-5.2-8-.3-.3-.9-1.7-1.3-3.2-.8-3.1-5.5-5.4-7.4-3.5-.8.8-1.1-.5-1.1-4.8-.1-3.3-.7-7.1-1.5-8.5-.8-1.4-1.4-5.2-1.5-8.9 0-4.4-.5-6.7-1.5-7.5-.9-.7-1.5-3.3-1.6-7.6-.1-3.6-.8-7.7-1.5-9.2-.8-1.5-1.4-4.9-1.4-7.6 0-2.7-.6-5.7-1.5-6.8-.8-1-1.5-3.3-1.5-4.9 0-1.7-.6-3.9-1.4-5-.7-1.1-1.7-5.5-2.1-9.7-.3-4.3-1.1-8-1.6-8.4-.5-.3-.9-3.8-.9-7.9 0-4-.4-7.5-.9-7.7-.5-.2-1.3-1.6-1.7-3.2-.5-2.1-.4-2.7.5-2.2.6.4 1.1 1.4 1.1 2.2zm-195 33c.3 12.9-.1 15.4-2.2 15.4-1.5 0-15.3 14.7-17 17.9-.7 1.4-1.8 3.3-2.6 4.1-3.8 4.5-5.2 6.4-5.2 7.7 0 .7-.4 1.3-1 1.3-.5 0-1.2 1.1-1.6 2.4-.3 1.4-1.2 2.7-2 3-.8.3-1.4 1.2-1.4 2 0 1.6-2.9 7.3-4.7 9.4-.7.7-1.3 2.3-1.3 3.5 0 1.2-.7 3.1-1.5 4.1-.8 1.1-1.5 3-1.5 4.3 0 1.3-.7 2.6-1.5 2.9-.8.4-1.5 1.7-1.5 3.1 0 1.4-1.3 4.2-3 6.3-1.6 2.1-3 4.5-3 5.4 0 .9-.4 1.6-.9 1.6s-1.2 1.1-1.5 2.5c-.4 1.4-1.3 2.5-2.1 2.5s-1.5.9-1.5 2-.4 2-1 2c-1.4 0-1.3-1.1.5-5.3.8-2 1.5-5.6 1.5-8.1 0-2.4.5-4.6 1.1-4.8.6-.2 1.4-2.8 1.7-5.8.2-3 .8-6 1.3-6.6.4-.5 1.1-4.8 1.4-9.5.9-11.9 2.2-16.2 6.1-20 1.9-1.8 3.4-3.8 3.4-4.5 0-.6.7-1.4 1.5-1.8.8-.3 1.5-1.4 1.5-2.4 0-1.1.7-2.5 1.5-3.2.8-.7 1.5-2.4 1.5-3.9.1-1.4.7-3.7 1.5-5.1.8-1.4 1.4-5.2 1.5-8.6 0-3.3.4-6.4 1-7 .5-.5 1.3-3.9 1.6-7.4.4-3.6 1-7 1.4-7.5.4-.6 1.1-3 1.5-5.4.6-3.9.9-4.3 2-2.8 1.3 1.8 4.5 2.3 4.5.7 0-.6.9-1 2-1 1 0 2.4-.9 3-2 .6-1.1 1.5-2 2.1-2 1.4 0 7.9-6.4 7.9-7.9 0-.6.7-1.1 1.5-1.1.9 0 1.6-1 1.7-2.8.2-4.5 1.5 18.3 1.8 32.4zm-73.7 77.1c-.9.3-1.3 2.7-1.3 6.9 0 3.6-.5 7.4-1 8.4-.6 1-1.1 3.7-1.2 6-.1 3.4-.6 4.4-3.4 6.1-1.9 1.1-4.2 3.1-5.3 4.5-1 1.3-2.4 2.4-3 2.4-.6 0-1.1.7-1.1 1.5s-.6 1.5-1.4 1.5c-1.5 0-14.2 12.6-17.8 17.6-2.2 3.1-6.7 6.9-7.3 6.2-.2-.2.2-1.6 1-3.2.8-1.5 1.9-4.5 2.5-6.7.8-2.8 1.7-4 3.5-4.5 1.4-.3 2.5-1 2.5-1.5s.7-.9 1.5-.9 2.3-.9 3.2-2c1-1.1 2.3-2 3-2 .7 0 1.3-.7 1.3-1.5s.4-1.5.9-1.5c1.7 0 3.2-6 2-8.2-.9-1.6-.7-2.4 1-3.9 1.2-1.1 2.1-2.6 2.1-3.4 0-.8.4-1.5.9-1.5s1.1-.9 1.4-2c.3-1.1 1.1-2 1.9-2 .7 0 2-.9 2.8-2.1.8-1.1 2.3-3 3.3-4.1.9-1.2 1.7-2.7 1.7-3.5 0-.7.5-1.3 1-1.3.6 0 1-.7 1-1.5 0-1.7 4.1-5.8 4.9-4.9.3.4 0 .9-.6 1.1zm-10 48c-.3 2.1-1 3.9-1.4 4.1-.5.2-1.1 2-1.5 3.9-.4 2-1.3 4.8-2 6.2-.8 1.4-1.4 3.3-1.4 4.2 0 .9-.7 2.2-1.5 2.9-.8.7-1.5 1.9-1.5 2.6 0 .9-1.1 1.4-3.1 1.4-2.3 0-4.1 1-6.6 3.5-1.9 1.9-3.8 3.5-4.3 3.5-.6 0-1 .4-1 1 0 .5-1.3 2.3-3 4-2.9 3-3 3.4-3 12.4 0 7.1.4 9.7 1.5 10.6 1.1.9 1.5 3.3 1.5 9 0 6 .3 7.9 1.5 8.4 2.1.8 1.9 4.3-.2 4.8-1.4.3-30.9.2-34.7-.1-.6-.1-.5-.6.2-1.3.7-.7 1.2-2 1.2-2.9 0-.9.7-1.9 1.5-2.3.9-.3 1.5-1.9 1.5-4.1 0-2 .7-4.3 1.5-5.1.8-.9 1.5-2.4 1.5-3.5 0-1 .4-1.9.9-1.9.4 0 1.1-1.6 1.4-3.5.3-1.9 1.3-4.2 2.1-5.1.9-.8 1.6-2.4 1.6-3.5 0-1 .4-1.9.9-1.9s1.2-1.4 1.6-3.1c.4-1.7 1.3-4.2 2.1-5.7s1.4-3.5 1.4-4.5c0-.9.4-1.7 1-1.7.5 0 1.2-1.5 1.5-3.3.6-3.1.9-3.3 4.1-2.9 2.6.3 3.4 0 3.4-1.1 0-.9.9-1.9 2-2.2 1.1-.3 2-1.1 2-1.6s.6-.9 1.3-.9c.6 0 6.4-5.4 12.7-11.9 6.3-6.6 12-11.9 12.7-12 .8-.1 1 1.1.6 3.6zm158.7 7.5c0 1.7.8 4 1.7 5.1 1.4 1.5 1.7 3.3 1.4 9-.1 4-.9 8.6-1.6 10.3-.8 2-1.4 8.3-1.4 17.5-.1 7.9-.6 14.5-1.1 14.7-.5.2-1.2 3.4-1.6 7.2-.5 5.4-1 6.9-2.4 7.3-1 .3-2.3 0-2.8-.5-1.5-1.5-36.2-2-37.9-.6-.9.7-1.3.7-1.3-.1 0-.6.4-1.1 1-1.1.5 0 1.8-1.9 2.9-4.3 1.7-3.6 1.8-4.4.5-5.8-1.8-2-1.8-3.5.1-4.3.8-.3 1.5-1 1.5-1.6 0-.7 1.2-2.4 2.8-4 1.5-1.5 4.1-4.5 5.7-6.5 1.7-2 4.3-5.1 5.8-6.8 1.5-1.7 3-4.2 3.3-5.4.4-1.3 1.2-2.3 2-2.3s1.4-.7 1.4-1.5.5-1.5 1-1.5c.6 0 1-.6 1-1.4 0-.8.8-2.2 1.7-3.2 1.9-1.9 3.6-4.5 5.2-8.2.6-1.2 1.5-2.2 2.1-2.2.5 0 1-.9 1-2s.4-2 1-2c.5 0 1.2-1.1 1.6-2.5.3-1.4 1-2.5 1.4-2.5.4 0 1.1-1.1 1.4-2.5.9-3.4 2.6-2.2 2.6 1.7zm264 13.7c0 .6.8 1.9 1.8 3 7.5 8.1 7.4 7.8 5.7 10.4-1.9 2.9-1.8 12.2.2 13.8.9.8 1.3 3.6 1.3 8.4 0 4 .6 9 1.4 11.2.8 2.2 1.6 7.1 1.8 10.9.3 6.8.3 6.9-2.2 6.8-1.4-.1-4.9-.2-7.9-.3-4.2-.1-5.2-.4-4.8-1.5.3-.8.1-1.7-.6-2-.9-.5-.9-.7.1-1.2s1-.9 0-2.1c-1-1.2-1.4-9.2-1.6-33.1l-.3-31.5 2.5 3c1.4 1.7 2.6 3.6 2.6 4.2zm-342.7 13c-.8 1.2-.9 3.1-.2 5.7.4 2.2.9 7.3.9 11.5s.7 9.8 1.5 12.5c.8 2.7 1.5 6.1 1.5 7.6 0 1.8.5 2.8 1.5 2.8.9 0 1.5.9 1.5 2.5v2.5l-10.7.1c-13.3.1-30.5.1-31.6 0-1.7-.2.5-2.1 2.4-2.1 1 0 1.9-.7 1.9-1.5s.7-1.5 1.5-1.5 1.5-.5 1.5-1.1c0-.6.7-1.7 1.5-2.5.8-.9 1.5-2.4 1.5-3.5 0-1 .4-1.9.9-1.9s1.2-1.4 1.6-3c.4-1.7 1.3-3 2.1-3s1.4-.7 1.4-1.5.5-1.5 1-1.5c.6 0 1-.6 1-1.3 0-.7 1.4-2.9 3-4.7 1.7-1.8 3-3.9 3-4.6 0-.7.6-1.7 1.4-2.1.7-.4 2.2-2.4 3.2-4.3 3.2-5.9 5.8-8.9 6.9-7.9.6.6.5 1.6-.2 2.8zm207.7 11.8c0 1.2.4 2.4.9 2.7 1.1.7 5.1 8.8 5.1 10.3 0 .6.7 1.6 1.5 2.3.8.7 1.5 2.5 1.5 4.1 0 1.6.4 2.9 1 2.9.5 0 1.3 1.2 1.6 2.7.4 1.6 1.4 3.3 2.3 4 1.3 1-1.3 1.2-13.1 1.3-8 0-15.3.3-16.2.6-1.1.4-1.6.1-1.6-1 0-.9.7-1.6 1.5-1.6s1.5-.7 1.5-1.5.7-1.5 1.5-1.5c.9 0 1.5-.9 1.5-2.4 0-1.3.7-2.6 1.5-3 .9-.3 1.5-1.8 1.5-3.9 0-1.8.4-3.7 1-4.3.5-.5 1.3-3.2 1.7-5.9.3-2.8 1.2-5.6 2-6.3.7-.7 1.3-2.1 1.3-3 0-1.5.2-1.5 1-.2.5.8 1 2.5 1 3.7z"/><path d="M536 968c-1.9.5-3.6 1.3-3.8 1.9-.2.6-.9 1.1-1.6 1.1-.6 0-2.3 1.3-3.6 3-1.4 1.6-3.1 2.9-3.7 3-.7 0-1.3.8-1.3 1.9 0 1-.7 2.4-1.5 3.1-.8.7-1.5 2.1-1.5 3.2 0 2.7 3.1 7.8 4.7 7.8.7 0 1.3.7 1.3 1.5s.7 1.5 1.5 1.5 1.5.5 1.5 1.1c0 .5 1.9 2.9 4.3 5.2 2.3 2.4 5.3 5.9 6.7 8 1.4 2 2.8 3.7 3.3 3.7.4 0 .7.7.7 1.5s.7 1.5 1.5 1.5 1.5.6 1.5 1.4c0 .8.4 1.6.8 1.8 1.5.5 14.2 15.6 14.2 16.7 0 1.7 7.6 1.3 9.4-.4.8-.8 2.2-1.5 3-1.5.9 0 1.6-.4 1.6-.9 0-.4 1.8-2.6 4-4.7 2.2-2.2 4-4.4 4-5 0-.7.7-1.4 1.5-1.8 2.1-.8 1.9-5.8-.2-7.8-1-.8-4.5-4.6-7.8-8.3-3.3-3.8-7.2-8.1-8.7-9.7-1.6-1.6-2.8-3-2.8-3.2 0-.5-3.6-4.9-6.7-8.3-1.3-1.3-2.3-3-2.3-3.8 0-.8-.7-1.5-1.5-1.5s-1.5-.7-1.5-1.5-.7-1.5-1.5-1.5-1.5-.5-1.5-1c0-1.6-7.7-9-9.2-8.9-.7.1-2.9.5-4.8.9zM252 141.9c0 .6-.8 1.1-1.8 1.1s-3.1 1.2-4.8 2.7c-1.7 1.6-4.7 3.6-6.7 4.7-1.9 1-3.7 2.6-4 3.6-.2.9-1.8 2.3-3.6 3.1-1.7.8-3.1 1.7-3.1 2.1 0 1-3.8 4.8-4.7 4.8-.5 0-2.2 1.4-4 3-1.8 1.7-3.9 3-4.7 3-.9 0-1.6.7-1.6 1.5s-.7 1.5-1.5 1.5-1.5.7-1.5 1.5-.7 1.5-1.5 1.5-1.5.6-1.5 1.4c0 .8-.7 1.6-1.5 2-.8.3-1.5 1.2-1.5 2.1 0 .8-.4 1.5-.8 1.5-1 0-3.2 6.6-2.5 7.4.7.6 7.3-2.3 9-4 .8-.8 2.1-1.4 2.9-1.4.8 0 1.4-.4 1.4-1 0-.5 1.1-1.2 2.5-1.6 1.4-.3 2.5-1.2 2.5-2s.9-1.4 1.9-1.4c1.1 0 2.1-.3 2.3-.8.2-.4 2.5-2.5 5.3-4.7 2.7-2.2 6.2-5.3 7.6-6.9 1.5-1.5 3.1-2.6 3.7-2.2.5.3 1.7-.3 2.7-1.4 1-1.1 2.3-2 2.8-2s2-1.1 3.3-2.5c1.3-1.4 2.5-2.5 2.8-2.5 1.1 0 7.6-7.3 7.6-8.6 0-.8.5-1.4 1.1-1.4.6 0 .9-1 .7-2.3-.2-1.8-1-2.3-4.5-2.5-2.6-.2-4.3.1-4.3.7zM797.3 153c-1.3 1.5-2.3 3.3-2.3 3.9 0 .6-.7 1.1-1.5 1.1s-1.5.9-1.5 2c0 1.2-1.3 3.4-3 5-1.6 1.6-3 3.6-3 4.5 0 .8-.4 1.5-.9 1.5-1.7 0-4.1-1.2-4.1-2.1 0-1.7-4.4-10.9-5.2-10.9-.4 0-.8-.6-.8-1.3 0-1.9-3.3-4.7-5.4-4.7-.9 0-3 1-4.6 2.2-2.4 1.7-3 2.9-3 5.9 0 2.4.5 3.9 1.5 4.3.8.3 1.5 1.4 1.5 2.5s.6 2.6 1.3 3.3c3.5 3.9 7.7 14.8 5.7 14.8-.5 0-1 .7-1 1.5s-.7 1.5-1.5 1.5-1.5.6-1.5 1.3c0 .7-1.3 2.8-3 4.7-1.6 1.9-2.9 4.1-3 4.7 0 .7-.4 1.3-1 1.3-.5 0-1 .6-1 1.3 0 .7-.8 2-1.7 2.9-2.4 2.2-5.3 6-5.3 7 0 .5-1.1 2.1-2.5 3.6s-2.8 3.7-3.1 4.9c-.4 1.3-1 2.3-1.4 2.3-.5 0-1.1 1.3-1.5 3-.4 1.6-1.1 3-1.6 3s-.9 1.6-.9 3.5.4 3.5.8 3.5c.5 0 1.4 1.1 2 2.5 1 2.3 1.7 2.5 7 2.5 6.8 0 9.5-1.7 10.6-6.8.4-1.7 1.2-3.2 1.7-3.2s1.1-1.1 1.5-2.5c.3-1.4 1-2.5 1.4-2.5.4 0 1-1 1.4-2.3.3-1.2 1.6-3.3 2.8-4.7 1.3-1.4 2.9-3.6 3.6-5 1.9-4 3.6-6.4 5-7.3.6-.4 1.2-1.5 1.2-2.2 0-.8.5-1.5 1-1.5.6 0 1 .9 1 2s.6 2.3 1.4 2.6c.8.3 1.8 1.9 2.1 3.5.4 1.6 1.1 2.9 1.6 2.9s.9.7.9 1.5c0 .9.6 1.8 1.4 2.1.7.3 2.2 2.3 3.2 4.4 1.1 2.2 2.2 4 2.6 4 .4 0 1.5 1.4 2.4 3.1.9 1.7 3.1 4.7 5 6.6 2.1 2.1 3.4 4.3 3.4 5.9 0 3.5 2.6 7.7 5.8 9.2 3.4 1.6 5.2 1.5 7.7-.4 1.9-1.4 2-2.7 2-19.2 0-15.1.2-17.7 1.5-17.7.8 0 1.8-.5 2.3-1 1.2-1.7 2.7 1.7 2.7 6.2 0 2.3.4 4.4.9 4.7.4.3 1.1 4 1.4 8.2.5 6.9.9 8 3.4 10 3.2 2.7 6.1 3.1 6.9.9.3-.8 1.4-1.7 2.5-2 1.3-.4 2.1-1.9 2.5-4.6.4-2.2 1.1-4.2 1.5-4.5.5-.3.9-2 .9-3.9 0-4.4 2.1-13.5 3.2-13.5 1.4 0 .9 12.8-.8 16.9-2.8 7.2-.8 24 3.4 28 2.2 2 3.5 2.3 9.1 2.2 3.6 0 6.7-.5 6.9-1.1.2-.5 1-1 1.7-1 1.8 0 10.5-8.6 10.5-10.4 0-.8.7-1.6 1.5-2 .8-.3 1.5-1.2 1.5-2.1 0-.8.5-1.5 1-1.5 1.7 0 1.2 9-.5 9.6-1.1.5-1.5 2.2-1.5 6.3 0 6.5.6 7.6 4.2 9 4.7 1.8 8.6-.3 13-6.8 1.2-1.8 1.8-4.6 1.8-8.9 0-4.4.4-6.2 1.3-6.2 3.7 0 6.7-2.6 7.5-6.5l.9-4 1.1 3.8c1.6 5.5 4.5 7.7 10.4 7.7 3.6 0 4.8-.4 4.8-1.5 0-.9.7-1.8 1.5-2.1 1.9-.8 2.1-8 .3-8.8-1-.5-1-.7 0-1.2 2.3-1.1 1.2-5.1-2.8-9.7l-4.1-4.6 3.1-4.9c1.6-2.7 3-5.4 3-6.1 0-.6.5-1.1 1.1-1.1.6 0 .9-1.6.7-3.8-.3-3.6-.4-3.7-4.7-4-3.8-.3-4.7 0-6.7 2.5-1.3 1.5-2.3 3.2-2.4 3.7 0 .5-1.1 1.9-2.4 3.1-2.3 2.1-2.4 2.1-4.6.3-1.2-1-3.3-1.8-4.6-1.8-1.2 0-2.5-.4-2.9-1-.3-.5-1.9-.2-3.8.9-2.8 1.5-3.2 2.4-3.5 6.3-.2 2.9.2 5.1 1.1 5.9 2.1 2.2 2.8 5 1.6 6.5-1 1.2-1.5 1.1-3-.7-1.6-1.8-1.9-3.9-1.9-11.4 0-7.2-.4-9.5-1.6-10.5-.8-.8-5-1.5-9.3-1.8-6.3-.4-8.5-.1-12.1 1.6-2.5 1.1-5.1 3-5.8 4.2-1.1 1.7-1.6 1.9-2.8 1-.8-.7-1.4-1.9-1.4-2.8 0-2.3-17.6-1.2-19.4 1.3-1.2 1.7-1.5 1.5-4.2-1.9-1.6-2-3.5-3.6-4.1-3.6-.7 0-1.3-.5-1.3-1 0-.6-2.2-1-5-1-2.7 0-5 .4-5 .9 0 .6-2 1.3-4.5 1.7-2.5.3-4.5 1-4.5 1.5s-.8 1.3-1.7 1.6c-2.4.9-4.2 3.4-4.3 5.6 0 2.3-2.4 1.7-2.8-.7-.2-1-1.2-2.6-2.3-3.7-1-1-1.9-2.6-1.9-3.4 0-.8-.4-1.5-1-1.5-.5 0-1-.7-1-1.5s-.4-1.5-.9-1.5-1.4-1.4-2.1-3c-.7-1.7-1.6-3-2.1-3-1.5 0-1-5.7.6-7 .8-.7 1.5-1.9 1.5-2.6 0-.8.6-1.4 1.4-1.4.7 0 1.6-1.2 1.9-2.8.3-1.5 1.8-4 3.2-5.6 1.4-1.6 2.5-3.5 2.5-4.3 0-.7.4-1.3 1-1.3.5 0 1.2-1.6 1.6-3.5.3-1.9 1-3.5 1.5-3.5 1.4 0 1-5.3-.5-7.3-.9-1.1-2.6-1.7-5.2-1.6-3.1 0-4.4.6-6.1 2.9zM465 280.4c0 4 .5 4.8 7.5 12 4.1 4.2 7.5 8.1 7.5 8.6 0 .6.6 1 1.3 1 .7 0 2.3 1.3 3.5 3 1.3 1.6 2.9 3 3.7 3 1.9 0 6.4 4.9 7.1 7.7.4 1.3 1 2.3 1.5 2.3s.9.4.9 1c0 1.5 9.2 11 10.6 11 .8 0 1.4.4 1.4 1 0 .5-1.4 1-3.1 1-2.5 0-3-.3-2.5-1.7.4-1 .4-1.4 0-1-.4.4-1.3.2-2.1-.4-.9-.8-1.3-.8-1.3-.1 0 .6 1.1 1.9 2.5 3 2 1.6 3.2 1.8 7.7 1.1 3.5-.6 5.9-1.6 7.1-3 2.3-2.9 2.3-11.5-.1-15C515 310 503 299 501 299c-1.1 0-2-.7-2-1.5 0-.9-.9-1.5-2.3-1.5-1.3 0-3.3-1.3-4.7-3-1.4-1.6-3.1-2.9-3.7-3-.7 0-1.3-.7-1.3-1.5s-.5-1.5-1-1.5c-1.3 0-2.6-1.1-8.6-6.8-3.7-3.5-5.2-4.2-8.5-4.2H465v4.4zm42 56.6c0 1.1.7 2 1.5 2s1.5.7 1.5 1.5.7 1.5 1.5 1.5 1.5.8 1.5 1.7c.1 1.7.2 1.7 1.5-.1 1.3-1.7 1.4-1.4 1.8 3l.3 4.9.2-4.8c.3-6.2 2.2-6.1 2.2.2 0 4.5.3 5 3 6.3 1.7.7 3 1.7 3 2.3 0 .5 1.4 1.9 3 3s3 2.3 3 2.7c0 .5.7.8 1.5.8s1.5.4 1.5 1c0 .5 2 3 4.5 5.6 2.5 2.5 4.5 4.9 4.5 5.5 0 .5.6.9 1.4.9.7 0 1.7 1.5 2.2 3.2.6 2 1.7 3.4 2.9 3.7 3.1.5 4.4 2 5.5 6.1.6 2.1 1.7 4.1 2.5 4.4.8.3 1.5 1.2 1.5 2.1 0 .8.5 1.5 1 1.5.6 0 1 .7 1 1.5s.7 1.5 1.5 1.5 1.5.4 1.5 1c0 .5.8 1.8 1.8 2.9 5.3 5.7 8.2 9 8.2 9.6 0 .3.5 1.1 1 1.8 4 4.8 5 6.1 5 7.2 0 2.9 3.7 4.6 9.1 4.3l5.4-.3.3-3.6c.2-2-.3-4.3-1-5-.7-.8-2.2-3.2-3.3-5.4-2.2-4.3-4.9-7.5-6.5-7.5-.5 0-1-.6-1-1.3 0-.6-1.4-1.8-3.1-2.6-1.7-.7-3.3-2.1-3.7-3-.3-.9-2.2-3.2-4.1-5.2-4.5-4.5-6.4-7.6-5.1-8.4.6-.3 1-1.9 1-3.6 0-2.4-.4-2.9-2.5-2.9-1.4 0-2.8-.7-3.1-1.5-.4-.8-1-1.2-1.5-.9-1.7 1-4.9-1.7-4.9-4.1 0-1.6-.6-2.5-1.5-2.5-.8 0-1.5-.5-1.5-1 0-.6-.5-1-1.2-1-1.4 0-1.4 0-15-13.4-8.3-8.2-11.4-10.6-14.3-11.2-2.5-.4-3.5-1.1-3.1-2 .3-.8-.1-1.4-.9-1.4s-1.5-.7-1.5-1.5c0-1.1-1.2-1.5-5-1.5-4.3 0-5 .3-5 2zm97.8 90.2c-1.2 1.2-1.8 3.3-1.8 6.3 0 4.3.1 4.5 3 4.5 4.9 0 3.4 1.7-2.1 2.4s-7.4 1.6-13 5.8c-2 1.6-4.2 2.8-4.8 2.8-.6 0-1.1.7-1.1 1.5s-.6 1.5-1.3 1.5c-.8 0-2.7 1.1-4.3 2.5-1.6 1.5-4.2 3.4-5.7 4.3-2.2 1.3-2.7 2.3-2.5 4.7.3 2.6.7 3 3.7 3.3 3.2.3 10.1-2.3 10.9-4.1.2-.4.9-.7 1.6-.7.6 0 1.9-.9 2.9-2 .9-1.1 2.3-2 3.1-2 .7 0 2.5-1.2 4-2.7 1.4-1.4 2.8-2.4 2.9-2.2.2.2 1.8 3.3 3.6 6.9 1.8 3.6 3.9 6.9 4.7 7.3.8.4 1.4 1.8 1.4 3.1 0 1.2 1.3 3.7 2.8 5.4 1.6 1.8 3.7 4.8 4.8 6.7 1 1.9 2.2 3.5 2.6 3.5.5 0 .8.5.8 1.1 0 4.1 8.8 5.4 11.4 1.7 2.1-3 2.1-11.4.1-12.2-.8-.3-1.5-1.2-1.5-2.1 0-.8-.7-1.5-1.5-1.5s-1.5-.7-1.5-1.5-.7-1.5-1.5-1.5-1.5-.7-1.5-1.5c0-.9-.7-1.8-1.5-2.1-.8-.4-1.5-1.7-1.5-3 0-1.7-.4-2.2-1.5-1.8-1 .4-1.5 0-1.5-1.5 0-1.2-.6-2.1-1.5-2.1-1.4 0-1.9-1.4-1.8-4.7 0-.6-.6-.9-1.3-.6-.9.3-1.4-.2-1.4-1.6 0-1.2-.6-2.1-1.4-2.1-1.6 0-2.6-3.2-1.9-6 .8-3 2.3-2.4 2.3 1 0 2 .5 3 1.5 3 .8 0 1.5.7 1.5 1.5s.7 1.5 1.5 1.5c1.4 0 1.9 1.4 1.8 4.7 0 .6.6.9 1.3.6.9-.3 1.4.2 1.4 1.6 0 1.4.5 1.9 1.5 1.5 1-.4 1.5 0 1.5 1.5 0 1.2.6 2.1 1.5 2.1.8 0 1.5.6 1.5 1.3 0 .8.9 2.2 2 3.2 1.2 1 1.8 2.5 1.5 3.2-.2.8 0 1.1.5.8.6-.4 1.4.4 1.9 1.7.9 2 1 1.9 1-1.5.1-2.6-.3-3.7-1.4-3.7-1 0-1.5-1-1.5-3s-.5-3-1.5-3c-1.1 0-1.5-1.2-1.5-4.5V452h-9v-4.5c0-3.3-.4-4.5-1.5-4.5s-1.5-1.2-1.5-4.5c0-4.3-.1-4.5-3-4.5-2.5 0-3-.4-3-2.5 0-1.4-.8-3.3-1.7-4.3-1.7-1.6-1.9-1.6-3.5 0zM439 436c-4.1.4-15.4.8-25.1.9-14.4.1-17.9.4-18.9 1.6-.7.8-2 1.5-3 1.5-.9 0-2.8 1-4.2 2.2-1.4 1.3-4.2 3.6-6.2 5.2s-3.6 3.5-3.6 4.2c0 .6-.7 1.4-1.5 1.8-.9.3-1.5 1.8-1.5 4 0 3 .4 3.5 3.1 4.1 2 .5 3.6.2 4.7-.8 2.4-2.1 7.2-2.8 7.2-1.1 0 .8-.5 1.4-1.1 1.4-.6 0-.9 1-.7 2.2.2 1.5 1.6 3 4.1 4.1 2 1 3.7 2.3 3.7 2.8s.7.9 1.5.9c.7 0 1.8.6 2.2 1.3.4.7 3.4 3 6.6 5.1 3.1 2.1 6 4.2 6.3 4.7.3.5 1.4.9 2.5.9 1 0 1.9.4 1.9.9s1.4 1.4 3 2c1.7.5 3 1.4 3 1.8 0 .4 1.9 1.7 4.1 2.8 2.3 1 4.4 2.5 4.6 3.2.3.7 1.3 1.3 2.3 1.3 1 0 2.3.7 3 1.5.7.8 2 1.5 3 1.5s2.3.7 3 1.5c.7.8 2 1.5 3 1.5s2.3.7 3 1.5c.7.8 2.5 1.5 4 1.5s3.3.7 4 1.5c.7.8 1.8 1.5 2.5 1.5s3.7 1.3 6.8 3c4.5 2.4 5.6 2.7 6.1 1.5.3-.8 1.7-1.5 3.1-1.5 1.6 0 2.5-.6 2.5-1.5 0-.8.6-1.5 1.3-1.5.7 0 3.3-2.3 5.7-5.1 2.5-2.8 5.1-5.8 5.8-6.5 1.7-1.7 1.2-5.4-.8-6.5-.8-.4-4.6-2.2-8.5-4-14.4-6.5-21.5-10.2-21.5-11 0-.5-1.1-.9-2.5-.9s-2.8-.7-3.1-1.5c-.4-.8-1.5-1.5-2.5-1.5s-1.9-.4-1.9-1c0-.5-1.1-1.2-2.5-1.6-1.4-.3-2.5-1.2-2.5-2s-.9-1.4-1.9-1.4c-1.1 0-2.6-.6-3.3-1.3-.7-.8-2.7-1.9-4.3-2.5l-3-1 3.8-.1c2.5-.1 4 .4 4.3 1.4.4.9 1.9 1.5 3.9 1.5 1.8 0 3.8.7 4.5 1.5.7.8 1.9 1.5 2.6 1.5.8 0 1.4.7 1.4 1.5s.7 1.5 1.5 1.5 1.5.6 1.5 1.4c0 .8.9 1.7 2 2.1 2.7.9 9.1-.5 9.7-2.1.3-.8 1.4-1.4 2.4-1.4s1.9-.7 1.9-1.5.5-1.5 1-1.5c.6 0 1-.6 1-1.3 0-.7.9-2 2-3 1.1-.9 2-2.6 2-3.7s.5-2 1-2c.6 0 1-1.4 1-3 0-1.7-.4-3-1-3-.5 0-1-.7-1-1.5s-.6-1.5-1.4-1.5c-.8 0-1.6-.7-2-1.5-.3-.8-1-1.5-1.6-1.5-.6 0-1.8-.7-2.6-1.5-.9-.8-2.6-1.5-3.9-1.5-1.2 0-2.5-.6-2.8-1.4-.3-.8-2.9-1.6-6.4-1.9-3.2-.4-6.9-.8-8.3-1.1-1.4-.2-5.9 0-10 .4zm197.9 59.7c-.2 3.4.3 5.6 1.6 6.9.7.7 3.2 5.2 5.6 10.1 2.3 4.8 4.9 9.2 5.6 9.6.7.4 1.3 1.9 1.3 3.2 0 1.4.5 2.5 1 2.5.6 0 1.5 1.1 2 2.5s1.4 2.5 2 2.5c.5 0 1 .9 1 2s.7 2 1.5 2 1.5.6 1.5 1.3c0 .7 1.4 2.6 3 4.2 1.7 1.6 3 3.7 3 4.6 0 1 .7 2.4 1.5 3.3.8.8 1.5 1.9 1.5 2.5 0 .6.7 1.1 1.5 1.1s1.9.9 2.5 2c.6 1.1 2 2 3.1 2 1.5 0 1.9.5 1.5 1.5-1.2 3.2 2.6 1.4 3.9-1.9.8-1.9 1.9-3.7 2.5-4.1.5-.3 1-1.8.9-3.3 0-1.5-.3-2.1-.6-1.5-.8 2.2-2.3 1.4-2.3-1.3 0-1.4-.4-2.3-1-1.9-1.4.9-2.9-3.6-2.3-6.8.7-3.4 2.3-2.5 2.3 1.4 0 1.9.5 2.9 1.5 2.9.8 0 1.5.7 1.5 1.5s.7 1.5 1.5 1.5c1.1 0 1.5 1.2 1.5 4.5s.4 4.5 1.5 4.5c.8 0 1.5.7 1.5 1.5s.7 1.5 1.5 1.5 1.5.7 1.5 1.5c0 1 1 1.5 3 1.5 4 0 3.8 1.8-.2 2.3-2.3.3-1.6.4 2 .5 4.6.2 5.2 0 5.2-1.8 0-1.1-.7-2-1.5-2s-1.5-.7-1.5-1.5-.7-1.5-1.5-1.5c-1 0-1.5-1-1.5-3s-.5-3-1.5-3c-.8 0-1.5-.7-1.5-1.5s-.7-1.5-1.5-1.5c-1 0-1.5-1-1.5-3 0-2.7-.3-3-3-3-2 0-3-.5-3-1.5 0-.8-.7-1.5-1.5-1.5-1 0-1.5-1-1.5-3s-.5-3-1.5-3c-.8 0-1.5-.7-1.5-1.5s-.7-1.5-1.5-1.5c-.9 0-1.5-.9-1.5-2.5 0-1.4-.9-3.5-2-4.7l-2-2.2v3.2c0 1.9.8 4 2.1 5.3 1.1 1.1 1.8 2.7 1.5 3.4-.3.9 0 1.2 1 .8 1.1-.4 1.4.4 1.4 3.2 0 2.1-.4 3.4-1 3-.5-.3-1-1.3-1-2.1s-.7-1.4-1.5-1.4-1.5-.6-1.5-1.4c0-.7-.7-1.9-1.5-2.6-.8-.7-1.5-2.1-1.5-3.1 0-1.2-.5-1.6-1.5-1.3-.9.4-1.7-.1-2.1-1.2-1-3.3-3.9-8.8-5.1-10.2-.7-.7-1.3-2-1.3-2.8 0-.8-.4-1.4-1-1.4-.5 0-1-.7-1-1.5s-.9-2.3-2-3.2c-1.1-1-2-2.1-2-2.6s-2.1-3.1-4.7-5.8c-4.1-4.1-5.4-4.9-8.5-4.9-2.9 0-3.8.4-3.9 1.7zM526 569.6c-2.9 1.9-5.9 4.1-6.4 4.9-1.8 2.2-4 2.2-5.8.1-1.4-1.8-2-1.9-3.7-.9-1.1.7-2.7 1.3-3.5 1.3-.8 0-1.6.7-2 1.5-.3.8-1.2 1.5-2.1 1.5-.8 0-1.5.7-1.5 1.5s-.4 1.5-1 1.5c-1.3 0-5 3.7-5 5 0 .5-.4 1-1 1-1.8 0-3.1 7.6-1.9 10.4.7 1.4 1.6 2.6 2 2.6.4 0 .9 1 1.3 2.3.3 1.3 1.7 3.6 3.1 5.1 1.4 1.5 2.5 3.1 2.5 3.5 0 1 11.8 12.9 14.9 15.1 1.2.8 2.4 2.2 2.7 3.2.3 1 1.2 1.8 1.9 1.8.8 0 1.7 1.1 2.1 2.5.7 3 2.9 5 3.9 3.5.3-.5 1.4-1 2.4-1 .9 0 2.7-.8 4-1.8 4-3 11.1-10.3 11.1-11.4 0-.5.7-1.6 1.5-2.4.8-.9 1.5-2.5 1.5-3.6 0-2-5.3-9.6-7.7-11.1-.7-.4-1.3-1.5-1.3-2.2 0-.8-.6-1.5-1.3-1.5-1.4 0-10.7-9-10.7-10.4 0-.9 3.4-.5 11 1.3 2.5.5 8.5 1 13.3 1.1 5.3 0 9.9.5 11.5 1.4 1.6.8 6.5 1.4 12.2 1.5 7.1.1 9.8.5 10.6 1.6 1.4 1.9 8.8 2 10.6.2.7-.7 2.8-2.2 4.6-3.2 1.7-1.1 3.2-2.6 3.2-3.3 0-.8.8-1.6 1.8-1.9 2.4-.6 5.2-5.4 5.2-9 0-3.4-4.1-6.3-8.9-6.3-1.8 0-4.6-.6-6.4-1.3-2-.9-7.9-1.5-15.2-1.6-7.4-.1-13.7-.8-16.3-1.6-2.3-.8-7.5-1.5-11.5-1.5-4.9 0-8-.5-9.3-1.5-1-.8-3.9-1.5-6.4-1.5-3.6 0-5.7.8-10 3.6zm165 2.2c0 5.3.3 6.1 3 8.5 1.7 1.5 3 3.4 3 4.2 0 .8.4 1.5 1 1.5.5 0 1.2 1.1 1.6 2.5.3 1.4 1 2.5 1.5 2.5s.9.6.9 1.3c0 .8.9 2.2 2 3.2s2 2.2 2 2.7 1.1 2.1 2.4 3.5c1.3 1.4 3.2 4.3 4.3 6.4 1 2.1 2.1 3.9 2.6 3.9 1.1 0 4.7 3.8 4.7 5 0 .5.9 1 2 1s2 .4 2 1c0 1.6 4.7 1.1 5.4-.6 1.2-3.1.7-9.4-.8-9.4-.8 0-2.4-1.6-3.6-3.5-1.2-1.9-2.5-3.5-3-3.5-.4 0-1.1-1.1-1.4-2.5-.4-1.4-1.1-2.5-1.6-2.5-.6 0-1-.7-1-1.5 0-.9-.7-1.8-1.5-2.1-.8-.4-1.5-1-1.5-1.5 0-1-3.5-6.3-5.7-8.7-.7-.7-1.3-1.9-1.3-2.6 0-.7-1.1-2.5-2.5-4s-2.5-3.1-2.5-3.7c0-.5-.5-.9-1.1-.9-.6 0-.9-.7-.5-1.5.3-.8.1-1.5-.4-1.5-.6 0-1-.7-1-1.5 0-1.1-1.2-1.5-4.5-1.5H691v5.8zm51.8 47.2c-1 1.1-1.8 2.5-1.8 3 0 .6-.7 1-1.5 1-1 0-1.5 1.1-1.5 3.5s.5 3.5 1.5 3.5c.8 0 1.5.7 1.5 1.5 0 1 .7 1.5 1.8 1.3 1.2-.2 1.8.5 2 2.4.2 1.6.7 2.8 1.2 2.8s1.2 1 1.6 2.2c.4 1.3 1.7 3.7 3 5.4 1.3 1.7 2.4 3.6 2.4 4.2 0 .7.7 1.2 1.5 1.2s1.5.6 1.5 1.3c0 .7.8 2 1.8 2.9 3 2.9 4 4.4 4.7 7.6.3 1.8 1.2 3.2 1.8 3.2.8 0 .8.3 0 1.1-1.7 1.7 1.1 6.9 3.7 6.9 1.1 0 2-.4 2-1 0-1 6.3 2 6.8 3.2.2.5 1 .8 1.7.8 1.4 0 4.5 5.3 4.5 7.5 0 1.7 4.4 2.7 8.6 1.9 3.3-.6 3.4-.7 3.4-5.7s-.2-5.4-5.6-10.4c-3.1-2.9-6.3-5.3-7-5.3-.8 0-1.4-.7-1.4-1.5s-.7-1.5-1.5-1.5-1.5-.7-1.5-1.5-.7-1.5-1.5-1.5-1.5-.7-1.5-1.5-.7-1.5-1.5-1.5-1.5-.7-1.5-1.5-.7-1.5-1.5-1.5-1.5-.7-1.5-1.5-.7-1.5-1.5-1.5-1.5-.7-1.5-1.5-.7-1.5-1.5-1.5-1.5-.7-1.5-1.5-.7-1.5-1.5-1.5-1.5-.7-1.5-1.5-.7-1.5-1.5-1.5-1.5-.7-1.5-1.5-.4-1.5-1-1.5c-.5 0-1.9-2-3.1-4.5-1.2-2.5-2.6-4.5-3.1-4.5-.6 0-.5-.6.2-1.5 1.1-1.3.8-1.5-1.8-1.5-3 0-3.1-.2-3.4-4.5-.3-4.5-.3-4.5-2-2.5zm46.7 71.8c-5.3 4.4-8.1 12.6-5.2 15 1.4 1.2 8.3-.9 12.5-3.8 2.3-1.6 3.1-6.6 1.8-10.8-.9-2.7-6.1-3-9.1-.4zm15.7 11.3c-2.7 1-3.9 3.6-2.3 5.2.6.6 1.1 2.1 1.1 3.4 0 1.4.6 2.3 1.5 2.3 1 0 1.5 1.1 1.5 3.5s.5 3.5 1.4 3.5c.8 0 1.7 1.3 2.1 3 .4 1.6 1.1 3 1.6 3s.9.6.9 1.4c0 .8.6 2.1 1.3 2.8.7.7 2.3 3 3.6 5.1 2.2 3.6 4.8 6.9 8.4 10.8.9 1 1.7 2.3 1.7 2.9 0 .5.4 1 1 1 .5 0 1.6 1.3 2.5 3 1.4 2.7 2 3 6.4 3 4.9 0 7 1.3 8.4 5.3.9 2.4 3.4 3.2 6 1.9 1.2-.6 3.6-1.4 5.3-1.7 2.1-.4 3.4-1.3 3.8-2.8 1-3.7.7-5.7-.9-5.7-.8 0-1.5-.8-1.5-1.9 0-1.1-.9-2.1-2.1-2.4-1.2-.3-1.8-1-1.5-1.5.3-.5-.2-.9-1.2-.8-1 0-1.7-.6-1.6-1.6.1-1-.4-1.4-1.1-1.1-.8.2-2.3-.5-3.4-1.6-1.2-1.2-2.8-2.1-3.7-2.1-1 0-1.4-.6-1-1.5.3-.9 0-1.5-.9-1.5-.8 0-1.5-.6-1.5-1.4 0-.8-.6-1.4-1.2-1.3-3.1.1-4.8-.4-4.8-1.3 0-.6.8-1 1.8-1.1 1.4 0 1.4-.2-.3-.8-1.1-.5-2.6-.6-3.2-.4-.7.3-1.3-.2-1.3-1.1 0-.9-.7-1.6-1.5-1.6s-1.5-.7-1.5-1.5-.6-1.5-1.3-1.5c-.8 0-2.4-2.1-3.7-4.8-1.3-2.6-3-5.3-3.7-6-.7-.7-1.3-1.8-1.3-2.3 0-1.5-7.9-9.6-9.9-10.2-.9-.2-2.7 0-3.9.4z"/><path d="M841 711.9c-.5 1.1-1 3.1-1 4.5 0 1.6-.6 2.6-1.5 2.6-1 0-1.5 1-1.5 3 0 1.8-.5 3-1.3 3-.7 0-1.3.9-1.3 2 0 1.5.7 2 2.8 2 1.8 0 2.8.5 2.8 1.5 0 .8.7 1.5 1.5 1.5s1.5.7 1.5 1.5.7 1.5 1.5 1.5 1.5.7 1.5 1.5c0 .9.9 1.5 2.1 1.5 1.5 0 1.9.5 1.5 1.5-.4 1.1.2 1.5 2 1.5 1.3 0 2.7.7 3 1.5.4.8 1.2 1.5 2 1.5s1.4.7 1.4 1.5.9 1.5 2 1.5c1.3 0 2-.7 2-2 0-1.6-.7-2-3-2-2.7 0-3-.3-3-3s-.3-3-3-3h-3v-6c0-4.7-.3-6-1.5-6-.8 0-1.5-.7-1.5-1.5 0-1-1-1.5-3-1.5-3.5 0-4-1.5-.8-2.3 1.5-.4 3 .2 5.1 2.2 1.6 1.6 3.9 3.1 5.1 3.3 1.9.4 2.1.1 1.8-2.8-.3-2.4-1.8-4.6-5.3-7.9-5.3-4.9-7.3-5.5-8.9-2.6zm19.6 72.2c-3.8 3-3.7 9.3.4 13.7 1.7 1.8 3 3.6 3 3.9 0 1 6.9 7.3 8 7.3.6 0 1.4.8 1.7 1.7.8 2 .9 2.1 5.8 7.7 1.9 2.1 3.5 4.5 3.5 5.2 0 .8.9 1.4 1.9 1.4 1.1 0 2.2.4 2.6 1 .3.5 1.9.2 3.8-.9 2.6-1.4 3.3-2.5 3.5-5.4.2-2.7-.1-3.9-1.2-4.3-.9-.3-1.6-1.2-1.6-2 0-.7-1.6-2.8-3.5-4.5-1.9-1.8-3.5-3.8-3.5-4.6 0-.7-.4-1.3-1-1.3-.5 0-1-.7-1-1.5s-.5-1.5-1-1.5c-.6 0-2.1-1.1-3.4-2.5-1.3-1.4-2.7-2.5-3.2-2.5s-1.5-1.2-2.2-2.8c-2.7-5.8-3.7-7.2-5.4-7.2-1 0-1.8-.7-1.8-1.5 0-2.1-2.3-1.9-5.4.6zM300 978.9c0 .6-.9 1.1-2 1.1s-2.3.7-2.6 1.5c-.4.8-1.2 1.5-1.9 1.5-1.5 0-10.9 8.9-11.8 11.2-.3 1-1.1 1.8-1.7 1.8-.5 0-1 .6-1 1.4 0 .8-.7 1.6-1.5 2-.8.3-1.5 1.5-1.5 2.6 0 1.2-.6 2.8-1.2 3.5-2.8 3.1-3.5 4.2-5.9 9-1.3 2.7-3 5.6-3.6 6.3-.7.7-1.3 2-1.3 2.8 0 .8-.4 1.4-.9 1.4s-1.2 1.3-1.6 2.9c-.3 1.6-1.3 3.2-2.1 3.5-.8.3-1.4 1.5-1.4 2.6s-.4 2-1 2c-.5 0-1 .9-1 2s-.9 2.8-2 3.7c-1.1 1-2 2.5-2 3.5 0 .9-.4 1.9-.9 2.3-.5.3-1.2 1.8-1.6 3.4-.3 1.6-1.3 3.2-2.1 3.5-.8.3-1.4 1.4-1.4 2.4 0 1.1-.7 2.5-1.5 3.2-.8.7-1.5 2.2-1.5 3.4 0 1.1-.7 3-1.5 4-.8 1.1-1.5 2.7-1.5 3.7 0 .9-.7 1.9-1.5 2.3-.9.3-1.5 1.8-1.5 3.6 0 1.6-.5 3-1.1 3-.6 0-.9 1.2-.7 2.7.3 2.4.8 2.8 3.9 3.1 2.5.2 4-.3 5.4-1.8 1-1.1 2.2-2 2.6-2 .4 0 2.5-1.8 4.6-4.1 2.1-2.3 4.6-4.8 5.6-5.7.9-.9 1.7-2.4 1.7-3.3 0-.9.7-2.2 1.5-2.9.8-.7 1.5-2.1 1.5-3.1 0-1.1.4-1.9 1-1.9.5 0 1.3-1.2 1.6-2.8.4-1.5 1.3-3.6 2-4.7.8-1.1 1.4-2.7 1.4-3.6 0-.9.7-1.9 1.5-2.3.8-.3 1.5-1.6 1.5-2.9 0-1.4.7-3 1.5-3.7.8-.7 1.5-2.1 1.5-3.2 0-1 .7-2.1 1.5-2.4.8-.4 1.5-1.7 1.5-3.1 0-1.3.7-3.1 1.5-3.9.8-.9 1.5-2.4 1.5-3.5 0-1 .7-1.9 1.5-1.9 1 0 1.5-1 1.5-3.4 0-1.9.4-3.6.8-3.8 1.1-.4 5.2-8.6 5.2-10.3 0-.8.4-1.5.9-1.5s1.3-1 1.7-2.3c.4-1.2.9-2.4 1.3-2.7 1.3-1.1 5.1-7 5.1-8 0-.5.4-1 1-1 1.4 0 4.2-6.6 3.8-9.1-.3-2.3-2.8-4-2.8-2zm746.3 16.8c-.7.3-1.3 1.8-1.3 3.4 0 3 .8 4.5 4.3 7.7.9.9 1.7 2.7 1.7 3.9 0 1.3.5 2.3 1 2.3.6 0 1 .6 1 1.3 0 .8.9 2.4 2 3.7 1.1 1.3 2 2.9 2 3.7 0 .7.4 1.3.9 1.3s1.2 1.1 1.5 2.5c.4 1.4 1.1 2.5 1.6 2.5.6 0 1 .6 1 1.4 0 .7.7 1.9 1.5 2.6.8.7 1.5 2.3 1.5 3.5 0 1.3.7 2.5 1.5 2.9.8.3 1.5 1.7 1.5 3.1 0 1.4.6 2.5 1.3 2.5.8 0 2.3 3.1 3.6 7.2 1.2 4 2.6 8 3 8.8 1.1 2.1 6.5 2.5 8.4.6.9-.9 2-1.6 2.6-1.6.5 0 3.6-2.5 6.7-5.5l5.8-5.5v-6.2c.1-5.9-.6-8.1-4.6-14.8-.5-.8-1.1-2.2-1.4-3-.3-.8-2.3-2.3-4.4-3.4-2.1-1-4.1-2.5-4.4-3.2-.7-1.9-10.7-2-10.1-.2.2.7-.2 2.2-1 3.2-1.5 2-1.5 2-3 0-.8-1-1.5-2.5-1.5-3.2 0-.6-.4-1.2-.9-1.2-1 0-3.4-3.8-4.7-7.3-.3-.9-1.1-1.7-1.8-1.7-.6 0-1.6-1-2.1-2.3-.6-1.2-2-2.6-3.2-3.2-1.3-.5-2.3-1.5-2.3-2.2 0-.7-.9-1.3-2-1.3s-2-.4-2-.9c0-1.1-2.1-1.9-3.7-1.4zm51.2 75.3c-1.6 1.7-1.7 2.5-.7 4 .7 1.1 1.2 3.1 1.2 4.5 0 1.6.6 2.5 1.5 2.5.8 0 1.5.4 1.5 1 0 2 3.5 9 4.5 9 .5 0 1.9 2.1 3 4.6 1.8 4.1 2.9 5.8 6.5 10.1.5.7 1 1.7 1 2.3 0 .5.7 1 1.5 1s1.5.5 1.5 1c0 2 6.7 8 8.8 8 1.2 0 3.5-1.4 5.3-3.1 2.6-2.5 3-3.6 2.5-6.1-.5-2.7-4-6.7-5.8-6.8-.5 0-.8-.5-.8-1.1 0-.5-1.4-2.3-3.1-3.8-1.6-1.5-3.1-3.8-3.2-4.9-.1-1.2-.7-2.2-1.4-2.2s-1.3-.6-1.3-1.3c0-1.2-.7-2.3-4.9-7.3-.5-.6-1.2-2.1-1.6-3.4-1.2-3.9-6.7-8.7-10.6-9.4-2.8-.5-3.9-.2-5.4 1.4zm-398.7 76.1c-1 .5-2 2.6-2.4 4.7-.4 2-1.1 4.2-1.6 4.9-.5.6-1.2 7.1-1.5 14.2l-.6 13.1h-4.1c-2.6 0-4.8.6-5.8 1.7-4 4.1-5.6 5.3-7.1 5.3-1 0-1.7.4-1.7.9s-1 1.3-2.2 1.7c-1.3.4-3.3 1.7-4.5 3-2.5 2.7-3.3 3-3.3 1.1 0-1.8-7.1-8.9-10.9-11-4.5-2.4-7.7-2.1-10.9.8-1.5 1.4-3 2.5-3.4 2.5-.4 0-1.2-1.8-1.8-4-.6-2.2-1.6-4-2.3-4-.7 0-2.1-.3-3.2-.6-4-1-6.3 2.5-7 10.6-.4 4.1-1.3 7.9-2.1 8.7-.8.8-1.4 2.1-1.4 2.9 0 .8-1.3 2.9-3 4.7-1.6 1.8-3 3.8-3 4.4 0 .7-.5 1.3-1 1.3-1.2 0-7.3 4.1-7.8 5.2-.2.5-1.1.8-2 .8-1.6 0-1.6-1.4-.8-16.1.4-8.8.5-17.6.2-19.5-.7-3.3-.9-3.4-5-3.4-5.2 0-6.2 1-7.1 7.2-.4 2.7-1.2 4.8-1.7 4.8-.6 0-.8.7-.4 1.5.3.9 0 1.5-.8 1.5s-1.6-.5-1.8-1.2c-.3-.9-3.2-1.2-9.5-1.2l-9.1.1v-3.9c-.1-4.8-.7-5.8-3.7-5.8-1.3 0-2.7-.5-3-1-.3-.6-3.5-1-7-1s-6.7.4-7 1c-.3.5-1.5 1-2.6 1-1 0-2.9 1.1-4.1 2.5-1.7 2-2.8 2.4-5 2-4.3-1-6.4 1.8-7.2 9.4-.4 3.6-1.4 7.4-2.2 8.5-.8 1.1-1.4 3.3-1.4 4.8s-.4 3-1 3.3c-.6.3-1 5-1 10.6 0 5.9.4 9.9 1 9.9s1 .6 1 1.4c0 2.9 10.3 3.1 12.2.2.4-.6.8-2.3.8-3.8s.4-2.9.8-3.2c.5-.3 1.2-4.9 1.5-10.3.5-7.1 1.1-9.9 2.2-10.6.8-.4 1.5-1.5 1.5-2.2 0-.8.4-1.5 1-1.5.5 0 1.2-1.1 1.6-2.4.6-2.5 1.1-2.7 9.7-4.2l3.2-.5-3 2.9c-4 3.8-7.5 8.8-7.5 10.6 0 .8-.4 1.8-1 2.1-1.2.8-1.4 24.5-.1 24.5.5 0 1.1.9 1.4 2 .3 1.2 1.4 2 2.5 2 1.2 0 2.4.5 2.7 1 .9 1.4 12.3 1.2 16.5-.3 3.4-1.2 12-9.4 12-11.5 0-2.3 2.8-1.8 5.1.9 2.3 2.8 2.7 2.9 10.7 2.9 4.5 0 9-.4 10-.9 8.9-4.4 11.5-5.8 12.9-7.4.9-.9 2-1.7 2.5-1.7.4 0 .8 3.8.8 8.5 0 5 .4 8.5 1 8.5s1 .7 1 1.5c0 2.4 11.8 2.1 12.7-.3.4-.9 1-1.9 1.3-2.2.4-.3 1-7.1 1.2-15.3.4-11.8.8-15.1 2.1-16.5 1-1 1.7-2.8 1.7-4 0-1.3.6-2.2 1.5-2.2.8 0 1.4-.3 1.4-.8-.4-2.2.4-3.2 2.5-3.2 1.3 0 2.6.6 2.9 1.2.2.7.2 8.1-.1 16.5l-.5 15.2 2.8 1.1c1.5.6 3.7.7 4.9.4 1.1-.4 3.2-.8 4.6-1 1.3-.1 2.6-.8 2.8-1.3.2-.6 1.3-1.1 2.5-1.1 1.8 0 1.9-.2.7-1-2.4-1.5-.9-1.9 10.2-2.6l10.6-.7.3 7.5c.6 10.3 1.2 10.8 13.8 10.8 9.6 0 10-.1 12-2.6 1.2-1.5 2.1-3.5 2.1-4.5 0-1.1.5-1.9 1.1-1.9.6 0 .9-1.6.7-3.8l-.3-3.7-5.9-.5-5.8-.5-.3-6c-.1-3.3-.6-10.1-1-15.1-.7-7.8-.5-9.2 1-10.7 1.4-1.5 1.6-3.5 1.3-14.2-.2-9.2-.7-12.8-1.7-13.4-.7-.5-1.5-3-1.8-5.7-.4-5.5-2.2-12.3-3.6-14.2-1.1-1.4-3.6-1.5-5.9-.1zm-5.8 55.4c0 6.9-.3 8.5-1.5 8.5-.8 0-1.5.6-1.5 1.4 0 1.1-2.4 1.6-9.6 2.1-10.7.8-12.8.1-9.7-3.4 6-6.8 11.7-12.1 13.2-12.1.6 0 1.1-.4 1.1-.9s1.4-1.2 3-1.6c1.7-.4 3-1.1 3-1.6s.5-.9 1-.9c.6 0 1 3.5 1 8.5zm-116.8 3.5c1.8 0 2.8.5 2.8 1.5 0 .8.7 1.5 1.6 1.5.9 0 1.4.3 1.2.7-.3.5-1 2.3-1.7 4-.7 1.8-1.6 3.3-2 3.3-.4 0-2.5 2.6-4.7 5.7-6.1 8.9-7.2 9.8-12.6 9.4-1.5-.1-1.8-1.1-1.8-5.9 0-5.2.8-8.3 3.9-14.2.4-.8 1.7-1.9 2.9-2.5 1.2-.5 2.2-1.7 2.2-2.7 0-1.8 3-2.9 4.5-1.6.5.4 2.2.8 3.7.8z"/></g></svg>