<svg viewBox="0 0 524.16 260.16" xmlns="http://www.w3.org/2000/svg"><path d="M319.44 259.04l-1.04-.452v-6.11l-2.64-.002c-3.666 0-4.57-.498-5.955-3.277-.885-1.776-1.106-2.64-1.245-4.88l-.17-2.722-1.475-.038c-2.164-.055-3.281-.367-3.68-1.027-.3-.495-.14-.778 1.046-1.84.77-.69 1.715-1.255 2.099-1.255 1.538 0 1.867-.642 1.817-3.546-.056-3.15.426-4.224 2.51-5.604 1.22-.807 1.293-.944 1.293-2.433 0-1.731.423-2.817 1.097-2.817.694 0 .773.59.845 6.287.037 2.966.21 5.573.382 5.793.427.544 2.115.501 3.232-.082 1.184-.617 2.006-.607 2.25.028.342.893.21 1.308-.526 1.664-1.143.55.122.474 1.47-.09 1.466-.612 2.101-.607 2.342.02.407 1.06-2.59 3.32-5.012 3.78-.616.117-1.732.445-2.48.73-1.356.515-1.36.522-1.359 2.154.001 1.659.769 3.435 1.848 4.276 1.712 1.335 7.11-1.002 7.111-3.078 0-.463.253-1.346.56-1.962.468-.936.768-1.146 1.832-1.28.929-.117 1.374-.366 1.651-.923.521-1.05 1.021-1.306 2.554-1.312 1.576-.006 2.595.714 3.46 2.442.338.678.964 1.537 1.39 1.91.738.645.776.866.823 4.826l.05 4.151-1.292 1.893c-1.274 1.868-3.651 3.804-5.867 4.778-1.44.634-7.462.632-8.921-.003zm10.874-3.369c.836-.393 1.462-1.444 1.085-1.821-.098-.099-.538.056-.978.344-.58.38-1.538.523-3.495.523h-2.696l-.515-1.286c-.283-.708-.515-1.512-.515-1.787 0-.275-.18-.439-.4-.363-.518.178-.525 3.599-.009 4.115.841.842 5.925 1.027 7.523.275zm-.13-3.508c.985-.984 1.61-3.44 1.202-4.724-.19-.597-3.192-2.089-3.528-1.753-.098.098-.178.485-.178.86s-.576 1.244-1.28 1.931c-1.04 1.015-1.28 1.474-1.28 2.439 0 2.024.181 2.201 2.25 2.201 1.638 0 1.975-.114 2.815-.954zm-288.41-3.237c-.496-1.335-.9-5.206-1.029-9.867-.123-4.456-.063-5.44.393-6.453.376-.833.48-1.614.343-2.581-.108-.764-.199-1.703-.202-2.088a.949.949 0 00-.64-.902c-1.017-.322-.753-1.352.565-2.206l1.2-.777 19.84-.047c13.001-.03 21.841.09 25.644.351 4.77.328 6.139.323 7.68-.026 1.032-.234 4.83-.519 8.44-.633s6.764-.332 7.007-.482 2.544-.39 5.115-.535c2.57-.145 6.474-.565 8.674-.935 5.236-.88 10.155-1.21 18.502-1.242l6.821-.026-.218.687c-.12.377-.597 1.013-1.061 1.412-1.163 1.001-.699 1.277.73.434.645-.38 1.262-.603 1.371-.495.109.109.03.756-.173 1.437-.511 1.705-.476 4.36.064 4.808.326.271 1.372.201 4.191-.28 2.522-.432 5.213-.643 8.187-.643 4.138 0 4.486.048 5.27.723l.841.723-.362 5.917c-.257 4.191-.501 6.131-.84 6.651-.662 1.02-1.901 1.438-3.129 1.055-.547-.17-3.926-.384-7.51-.473l-6.517-.162-1.709 1.792c-1.5 1.573-1.837 1.779-2.763 1.68-2.957-.312-38.315.406-38.939.792-.196.12-6.584.426-14.196.678-7.612.252-14.128.54-14.48.639-1.6.452-9.752.896-18.24.994-5.104.058-11.4.201-13.991.317-3.889.174-4.74.133-4.878-.237zm69.27-6.365c.969-.174 4.353-.544 7.52-.822s6.913-.738 8.32-1.02c1.798-.36 4.8-.543 10.079-.611 5.733-.075 7.547-.194 7.641-.504.069-.224.326-.64.573-.923.325-.375.502-1.968.647-5.83l.2-5.312-.87-.33c-1.098-.418-10.653-.423-15.657-.008-2.084.173-4.964.615-6.4.984-2.486.637-3.368.668-18.292.638-18.514-.037-20.736.114-25.76 1.746l-3.68 1.196-4.64-.183c-2.552-.1-6.986-.425-9.853-.722l-5.213-.54-2.307.84c-1.498.545-2.957.84-4.158.839-1.017-.001-2.367.214-3 .478l-1.149.48.135 4.725c.074 2.599.222 4.866.329 5.04.262.425 63.128.271 65.536-.16zm52.097-4.548c.21-.211.384-.73.384-1.154 0-.423.36-1.197.8-1.72.913-1.086 1.033-2.024.293-2.308-1.006-.386-13.424-.216-13.83.19-.505.506-.505 4.486 0 4.992.27.27 2.098.384 6.176.384s5.906-.114 6.176-.384zm-116.39-8.576c.161 0 .293-.144.293-.32s-.432-.32-.96-.32c-.924 0-1.205.288-.736.757.123.123.422.147.666.053.243-.093.575-.17.737-.17zm-35.783 14.397c-2.136-.759-4.13-2.408-4.598-3.804-.413-1.226-.147-6.42.415-8.123.873-2.643 4.732-6.665 6.975-7.269.642-.172 2.252-.346 3.578-.386 2.514-.075 3.897.427 4.337 1.574.334.868-1.057 1.691-2.856 1.691-1.707 0-4.578.73-5.386 1.37-.27.215-.875 1.05-1.344 1.859-.698 1.205-.864 1.924-.926 4.015-.042 1.4.029 2.716.156 2.923.416.672 4.345 1.673 6.56 1.672 1.825-.001 2.33-.137 3.566-.959 2.7-1.795 4.667-.995 4.518 1.837-.054 1.007-2.62 2.816-5.112 3.602-2.702.852-7.483.851-9.883-.002zm263.29-10.062c-.444-.535-.216-3.63.497-6.734.243-1.056.443-2.388.446-2.96.005-.999-.046-1.04-1.256-1.04-1.522 0-5.456-.88-6.017-1.345-.51-.423-.52-1.61-.019-2.111.483-.483 1.87-.489 4.214-.018 1.353.272 2.028.273 2.613.007 1.571-.716.828-1.013-2.531-1.013-4.289 0-4.495-.205-2.788-2.761 1.256-1.88 4.219-4.6 5.013-4.6 1.138 0 1.26-.992 1.055-8.515a857.568 857.568 0 01-.248-15.164c-.027-4.615-.193-8.366-.402-9.12-.196-.704-.445-3.224-.553-5.6-.186-4.081-.236-4.337-.916-4.636-.632-.277-.72-.552-.722-2.24 0-1.906-.803-11.448-1.143-13.604-.097-.616-.394-1.728-.66-2.472s-.821-2.76-1.235-4.48c-.414-1.72-1.12-4.136-1.568-5.368-.756-2.075-.817-2.65-.825-7.84-.006-3.384-.197-6.74-.483-8.48-.657-3.998-.615-5.472.191-6.777.624-1.01.636-1.137.16-1.663-.697-.77-.648-1.291.147-1.585.655-.243.662-.389.63-12.07-.019-6.672.112-12.847.3-14.171.183-1.291.25-2.481.148-2.646-.102-.165-.94.46-1.864 1.386-2.078 2.086-2.597 2.486-3.223 2.486-.6 0-.654-.83-.076-1.184.23-.14.838-.816 1.352-1.5.799-1.065.843-1.216.302-1.048-1.479.461-1.599-.02-1.484-5.937.059-3.042.298-6.395.532-7.451.234-1.056.525-3.908.647-6.338l.221-4.418.846.098c.655.076.87.297.948.978.117 1.016.289 1.067 1.273.378 1.454-1.019 1.766-.571 1.797 2.582.025 2.552.134 3.071.96 4.56.511.924 1.074 1.68 1.25 1.68.175 0 .764-.329 1.308-.731 1.253-.924 2.773-1.593 3.032-1.334.11.11-.264 1.048-.83 2.086l-1.028 1.887.708.487c2.65 1.823 6.34 4.665 7.365 5.672 1.422 1.398 1.343 1.759-.79 3.585-1.596 1.365-2.422 1.436-3.635.312-.874-.81-.931-.82-1.801-.306-1.062.628-1.791.355-2.69-1.005l-.589-.893-.577 3.36c-.462 2.689-.516 3.839-.27 5.76.168 1.32.394 3.696.502 5.28.296 4.355 1.119 11.996 1.447 13.44.16.704.294 2.097.299 3.097.012 2.758.006 2.755 6.306 2.613 2.96-.066 6.822-.259 8.582-.428s6.525-.389 10.589-.488l7.389-.181 1.49 1.231c2.171 1.795 4.371 4.484 5.166 6.316 1.384 3.19 2.486 8.09 2.914 12.96.116 1.32.353 2.76.527 3.2s.48 3.464.68 6.72l.365 5.92 1.078.103c.592.057 1.456-.051 1.92-.24 1.423-.58 3.798-.518 4.5.117.523.473 1.105.545 3.656.451 2.715-.1 3.125-.196 3.886-.911.826-.777 1.027-.806 6.825-1.006 6.634-.23 7.335-.078 6.192 1.334-.584.721-.832.762-5.44.893-4.786.136-4.84.146-5.863 1.06-1.033.922-2.673 1.554-4.045 1.557-.401 0-1.247.218-1.879.482-.839.35-2.38.48-5.71.48-3.263 0-4.655.114-4.888.4-.492.603.352 9.99 1.043 11.6.302.704 1.028 2.288 1.613 3.52s1.233 3.104 1.441 4.16l.584 2.974c.114.58.345 1.083.513 1.12.376.08 2.529-2.678 3.426-4.39.362-.692 1.36-2.1 2.216-3.13.857-1.029 1.72-2.174 1.918-2.543.819-1.53 2.812-3.863 6.66-7.791 2.24-2.288 5.205-5.456 6.587-7.04 1.381-1.584 2.754-3.096 3.05-3.36.558-.498 4.258-5.313 5.164-6.72.748-1.163 8.594-10.441 10.418-12.32 1.919-1.977 8.387-7.99 10.335-9.608 2.364-1.963 10.165-6.917 14.72-9.348 6.05-3.23 10.18-4.885 15.36-6.158 2.904-.713 6.144-1.512 7.2-1.774 3.533-.878 9.466-1.173 29.92-1.488 11.176-.172 24.424-.381 29.44-.465 8.882-.15 14.749.171 16.07.878.655.351.76 1.653.17 2.123-.22.175-1.12.42-2 .542-.889.124-2.17.604-2.88 1.08l-1.28.858h-31.23c-23.409 0-31.345.093-31.684.375-.97.804-4.8 1.385-9.14 1.385h-4.334l-3.726 2.248a587.87 587.87 0 00-4.206 2.553c-.264.167-1.631.987-3.038 1.823-1.695 1.006-3.64 2.6-5.766 4.727-3.3 3.303-5.235 4.97-7.872 6.783-.835.574-2.152 1.661-2.928 2.415-1.357 1.319-3.437 2.924-4.698 3.626-.639.356-3.01 2.22-3.849 3.025-.275.264-.93.751-1.455 1.083-.525.332-1.746 1.375-2.714 2.318l-5.68 5.527c-2.156 2.097-3.92 3.954-3.92 4.128 0 .593 1.035.713 2 .231.574-.285 3.19-.688 6.443-.992 3.012-.28 5.613-.642 5.78-.803.168-.16.708-.292 1.2-.292.664 0 .897.156.897.6 0 1.28-1.654 1.78-7.68 2.326-2.996.272-3.859.468-4.64 1.056-1.886 1.42-3.054 1.826-5.45 1.895l-2.344.068-2.343 2.067c-1.289 1.137-2.56 2.305-2.823 2.596-.264.29-1.488 1.355-2.72 2.365-5.116 4.194-7.05 6.518-10.11 12.147-.766 1.408-2.008 3.461-2.761 4.563-.753 1.102-1.37 2.119-1.37 2.26s-.418.658-.93 1.148c-1.725 1.653-4.738 6.906-5.156 8.989-.535 2.664-.785 3.04-2.026 3.04-.896 0-1.133-.175-1.627-1.2l-.577-1.2-.3.798c-.166.44-.263 1.815-.217 3.057.07 1.888-.036 2.453-.65 3.445-.788 1.276-1.546 1.82-2.535 1.82-.645 0-.677-.131-1.229-5.004-.106-.936-.024-2.135.19-2.784.423-1.28 2.291-3.092 3.19-3.092 1.06 0 1.359-.767 1.145-2.935-.11-1.114-.332-2.673-.492-3.465l-.478-2.373-.186-.933-.568.933c-.784 1.289-3.877 3.973-4.578 3.973-.731 0-.717-.28.064-1.28.436-.557.628-1.307.633-2.47.006-1.52.136-1.813 1.447-3.29 1.341-1.51 1.44-1.744 1.44-3.408 0-1.73.026-1.782.795-1.635.715.137.776.068.61-.682-.1-.46-.6-1.956-1.108-3.325-.585-1.578-1-3.453-1.133-5.12-.303-3.802-1.536-9.583-2.123-9.953-.36-.227-.813-.053-1.724.664-2.525 1.984-3.095 2.143-8.117 2.26-2.646.061-4.836-.025-5.097-.201-.38-.256-.307-.506.428-1.47.487-.639.811-1.356.72-1.595-.344-.894.621-1.508 3.111-1.978 2.703-.51 3.274-.354 3.46.946.083.59.337.712 1.655.796 1.64.104 4.447-.709 5.08-1.472.27-.325.186-1.095-.338-3.095-.384-1.464-.699-3.399-.699-4.298 0-2.501-1.539-14.502-2.04-15.91-1.319-3.703-4.798-8.832-6.19-9.124-.314-.066-6.437-.075-13.609-.02-11.848.09-13.066.149-13.327.64-.463.87.467 8.224 1.372 10.84.437 1.266 1.012 2.634 1.278 3.04s.869 2.252 1.34 4.1 1.02 3.648 1.217 4c.204.363.429 2.921.52 5.92l.16 5.28 3.119.092c1.895.055 3.386-.052 3.799-.273.56-.3.793-.25 1.325.282.82.82.586 1.42-.81 2.083-.608.288-1.285.741-1.505 1.006-.91 1.096-2.773 1.934-4.648 2.09l-1.92.16-.097 2.72c-.124 3.49.62 8.508 2.657 17.92a525.294 525.294 0 011.484 7.04c.416 2.144.16 21.3-.31 23.2-1.008 4.07-1.331 6.339-.967 6.778.302.363 1.401.427 5.683.332 11.26-.251 24.508-.954 24.744-1.313.13-.196.238-1.087.24-1.98.004-1.39.167-1.81 1.134-2.94 1.264-1.477 2.321-1.982 2.747-1.311.151.239.183 1.783.07 3.432l-.205 2.997 2.69-.224c3.479-.29 5.855-.654 9.41-1.442 2.09-.463 4.107-.642 7.36-.653 6.12-.021 11.541-.457 15.36-1.234 1.76-.359 4.567-.802 6.24-.985 1.671-.184 5.271-.617 8-.963 4.17-.529 6.982-.63 17.666-.641 6.99-.007 14.117.13 15.84.304 1.723.175 7.237.464 12.253.642s12.648.473 16.96.656c6.632.28 8.383.255 11.36-.163l6.08-.851c1.762-.246 6.152-.286 14.08-.13 17.79.351 21.271.356 21.36.03.044-.165-.568-.472-1.36-.684-1.261-.337-2.453-.826-4.16-1.705-.264-.136-.768-.724-1.12-1.307-.352-.583-1.396-1.836-2.32-2.786s-1.68-1.936-1.68-2.193c0-.257.596-1.045 1.324-1.751 1.966-1.908 3.476-2.103 3.476-.45 0 .531.262.908.801 1.154.482.22 1.123 1.044 1.606 2.065.8 1.69 1.895 2.663 2.414 2.143.15-.15-.333-.919-1.073-1.71-1.865-1.993-3.377-4.443-3.188-5.165.086-.33.524-.691.972-.804.9-.226.94-.188 4.96 4.655 1.5 1.807 2.886 3.072 4.48 4.088 1.27.809 3.366 2.28 4.659 3.27 1.293.99 2.729 2.047 3.192 2.35 1.053.69 1.96 1.85 1.97 2.52.01.79-1.059 1.57-2.155 1.57-1.304 0-4.546 1.713-7.62 4.027-3.39 2.551-9.455 8.44-10.838 10.523-1.326 1.999-1.625 2.16-2.849 1.542-.81-.41-.974-.4-1.508.083-.629.569-1.583.436-1.583-.22 0-.21 2.717-3.131 6.037-6.49 6.153-6.223 7.147-7.425 6.377-7.707-.228-.083-10.638-.21-23.134-.28-12.806-.074-23.697-.271-24.96-.453-6.988-1.007-15.618-1.672-21.66-1.669-5.302.003-7.59.35-11.46 1.738-1.406.504-3.843.931-7.52 1.318-5.683.598-7.784.87-10.72 1.39-1.044.184-13.475.323-30.56.342-37.316.041-41.274.218-48.463 2.159-.959.259-4.127.602-7.04.762-5.257.29-7.718.599-9.705 1.221-.568.178-1.897.583-2.953.899l-1.92.574-.16 3.444c-.155 3.351-.186 3.467-1.12 4.25-3.14 2.635-3.36 2.488-3.36-2.244 0-2.03-.125-3.69-.279-3.69-.326 0-1.32 5.156-1.32 6.846 0 .727-.237 1.39-.64 1.794-.762.762-1.073.796-1.588.175zm9.987-15.107c-.22-.089-.58-.089-.8 0s-.04.162.4.162.62-.073.4-.162zm-9.226-3.822c.524-.201.715-1.086.234-1.086-.618 0-2.288.724-2.288.991 0 .328 1.292.387 2.054.095zm111.07-1.246a175.15 175.15 0 015.76-.8c1.584-.187 3.528-.434 4.32-.548l1.44-.209-1.12-.201c-.616-.111-7.168-.148-14.56-.082-12.96.115-19.245.501-22.27 1.369-.597.17-1.609.311-2.248.311s-1.648.105-2.242.234l-1.08.234 1.28.166c.704.091 7.256.125 14.56.076 9.593-.066 14.08-.218 16.16-.55zm-28.328-70.64a993.755 993.755 0 012.982-2.8c.285-.264 1.221-1.2 2.082-2.08.86-.88 2.378-2.164 3.372-2.855.995-.69 2.063-1.482 2.374-1.76 1.422-1.271 3.572-2.905 3.824-2.905.153 0 1.256-.867 2.45-1.927 1.937-1.72 3.139-2.689 6.435-5.19.523-.398 2.436-2.155 4.25-3.906 1.814-1.75 4.401-3.982 5.749-4.96 3.136-2.273 2.422-2.492-1.64-.504-3.127 1.532-8.832 5.053-9.95 6.142-.352.343-1.678 1.865-2.947 3.384-1.268 1.518-3.428 3.717-4.8 4.887-2.381 2.033-6.008 4.634-6.459 4.634-.328 0-4.533 4.144-5.846 5.76-.644.792-1.975 2.402-2.959 3.577-1.635 1.953-2.124 2.823-1.585 2.823.113 0 1.313-1.044 2.668-2.32zm-42.842-4.664c-.172-.322-.402-1.726-.511-3.12-.11-1.395-.326-3.184-.481-3.976s-.373-2.268-.483-3.28-.348-1.84-.529-1.84c-.336 0-.313.407.354 6.08.197 1.672.571 5.013.833 7.424.608 5.613.923 6.347 1.039 2.417.05-1.716-.05-3.383-.222-3.705zm-42.123-2.856c.22-.572-.363-3.75-.86-4.69-.31-.585-.338-.587-.647-.033-.321.573-.14 4.667.232 5.27.257.415 1.034.081 1.275-.547zm98.094-8.08c0-.176-.063-.32-.14-.32-.079 0-.231.144-.34.32s-.045.32.141.32c.187 0 .34-.144.34-.32zm-58.668-3.6c-.089-.22-.161-.04-.161.4s.072.62.161.4.089-.58 0-.8zm-.981-3.066c-.468-.468-.51-.456-.51.134 0 .893.757 1.653.91.913.06-.295-.119-.766-.4-1.047zm5.633 103.88c-.211-.211-.384-.758-.384-1.216 0-1.612 1.74-2.272 2.109-.8.454 1.81-.646 3.095-1.725 2.016zm188.19-3.285c-1.163-.506-2.765-2.553-3.324-4.249-.251-.76-.303-2.02-.155-3.734.24-2.786.222-12.41-.025-12.66-.083-.082-.826.108-1.653.423-4.22 1.612-4.568 1.683-5.042 1.036-.321-.44-.347-.76-.098-1.225.335-.626 3.586-2.311 5.718-2.964 1.072-.328 1.122-.41 1.172-1.93.03-.874.263-2.38.52-3.348.258-.968.865-3.416 1.349-5.44 1.022-4.274 1.249-4.8 2.064-4.8.33 0 1.219-.576 1.973-1.28 2.245-2.092 3.292-2.128 2.442-.084-.275.662-.68 2.284-.901 3.604-.221 1.32-.598 2.795-.838 3.278-.24.483-.526 2.463-.637 4.4l-.202 3.522h1.165c.64 0 1.82-.176 2.622-.39 1.535-.41 2.194-.227 2.836.792.472.748-.566 1.781-2.009 2.001-2.456.374-4.535.916-4.796 1.249-.15.191-.356 1.572-.459 3.068-.102 1.496-.413 3.695-.692 4.888-.845 3.617.114 8.956 1.769 9.841.423.226 1.489.325 2.624.243 1.768-.128 2.015-.245 3.274-1.555.75-.78 1.93-1.753 2.623-2.164a4.817 4.817 0 001.881-2.08c.597-1.284 2.33-2.773 3.228-2.773.275 0 .432.381.432 1.053 0 1.114-1.153 2.438-4.065 4.667-.74.566-1.673 1.686-2.073 2.488-.91 1.822-2.17 2.903-3.711 3.182-.655.119-1.725.485-2.378.813-1.394.7-3.202.75-4.634.128zm-466.96-8.306c-.714-.86-.544-2.337.382-3.312.762-.803.869-1.272 1.318-5.833.703-7.129.741-13.266.106-17.079-.44-2.64-.494-4.6-.325-11.926l.201-8.767 2.706-2.784 14.836-.236c8.16-.13 15.952-.132 17.316-.004 2.886.27 2.969.158 1.705-2.323a1159.22 1159.22 0 01-3.883-7.836c-1.71-3.474-3.305-6.48-3.545-6.679-.305-.253-4.08-.381-12.517-.425-8.35-.044-12.674-.19-14-.472-1.057-.224-2.421-.504-3.033-.622-1.702-.328-1.916-1.075-1.936-6.766-.03-8.79-.556-20.853-.925-21.221-.517-.517-.422-1.103.293-1.819.598-.597 1.067-.64 7.04-.64 5.304 0 6.4-.077 6.4-.452 0-.25-1.218-2.517-2.706-5.04-2.344-3.974-3.06-4.91-5.36-7-1.46-1.328-3.53-3.082-4.602-3.9-3.627-2.766-4.707-4.58-3.264-5.485.434-.273.849-.13 2.01.687 1.358.958 2.082 1.26 2.082.867 0-.09-.563-1.303-1.25-2.697-.689-1.393-1.357-2.868-1.485-3.276-.128-.41-.645-1.647-1.149-2.752-.503-1.104-.916-2.085-.916-2.18 0-.094-.518-1.278-1.152-2.631-.633-1.354-1.585-3.397-2.116-4.54-.53-1.145-1.38-2.891-1.888-3.881-1.082-2.11-1.18-3.32-.307-3.787.82-.44 1.431-.166 2.36 1.055.994 1.309 8.997 17.614 9.63 19.623.345 1.095 1.062 1.153 1.424.115.376-1.08 1.432-1.732 2.4-1.48.379.098 1.038.722 1.463 1.387.426.664 1.146 1.77 1.6 2.46.764 1.157.838 1.59.986 5.76.156 4.393.186 4.548 1.178 6.108 1.868 2.935 4.494 7.345 5.158 8.661.362.716.875 1.482 1.141 1.703.36.298 2.939.42 10.023.477 8.01.064 9.976.173 12.26.684 2.435.544 4.08.606 15.68.591 10.84-.013 13.38-.104 15.52-.552 1.408-.294 3.64-.756 4.96-1.025s2.976-.658 3.68-.862c1.283-.373 23.803-.674 24.7-.33.312.12.42 1.056.42 3.628 0 1.907.109 3.534.241 3.616.132.081 2.112.015 4.4-.148 7.362-.525 12.087-.643 15.199-.38l3.04.257.09 1.44c.048.792.285 1.872.525 2.4.804 1.77 1.228 4.133 1.386 7.727.157 3.564.156 3.567-.676 4.113-.684.448-1.016.483-1.847.193-.623-.217-3.92-.359-8.566-.367-6.797-.013-9.79-.202-13.117-.828l-1.085-.204.223 2.551.222 2.551-2.224 2.292c-2.366 2.437-2.91 2.65-4.57 1.791-1.125-.582-5.532-.696-7.504-.195-.691.176-2.265.414-3.497.53-1.232.115-2.764.345-3.404.51-1.238.32-21.845.944-37.955 1.15-9.767.125-10.368.204-9.395 1.242.338.36 3.137 5.915 5.473 10.864 2.951 6.25 2.92 6.2 3.81 6.37 2.095.399 22.564.553 27.392.206 5.804-.418 6.564-.53 14.08-2.083 5.377-1.11 5.533-1.124 13.535-1.129l8.094-.005 1.628 1.628-.464 13.413 2.204.007c1.212.004 5.5.144 9.528.312 5.533.23 7.501.422 8.05.78.991.65 1.24 2.457.649 4.702-.44 1.67-.962 6.13-1.246 10.652-.197 3.132.022 3.067-10.311 3.067-8.108 0-8.756.041-8.924.57-.1.314-.156 2.654-.125 5.2.063 5.149-.305 6.995-1.598 8.012-1.016.799-1.534.779-3.62-.14-2.877-1.267-10.703-2.07-20.44-2.094-5.03-.013-7.396.109-8.8.453-1.41.347-4.802.518-12.8.646-12.337.198-18.322.603-21.113 1.43-5.845 1.73-8.405 2.207-12.806 2.386-2.464.1-5.056.328-5.76.505-.704.177-4.448.464-8.32.636s-8.555.405-10.406.517c-2.925.177-3.425.133-3.814-.336zm16.587-4.862c.07-.061.097-1.257.06-2.658-.058-2.227.056-2.828.913-4.78.539-1.228.98-2.666.98-3.196 0-1.18.764-2.033 1.529-1.708 1.54.655 2.885 1.769 3.375 2.797.369.773.727 1.112 1.101 1.041.461-.087.582-.581.715-2.929.13-2.311.273-2.906.781-3.277 1.338-.976 3.822-.243 6.19 1.828.578.505 1.262.919 1.52.919.53 0 .638-.818.149-1.12-.176-.109-.32-1.276-.32-2.595 0-3.865 1.056-5.035 3.866-4.278 1.049.283 1.487.666 2.408 2.105 1.3 2.032 2.205 2.58 3.535 2.141.823-.272.957-.529 1.39-2.677.265-1.307.973-3.583 1.574-5.058.87-2.136 1.31-2.81 2.16-3.312.587-.346 1.067-.77 1.067-.943 0-.173-.986-1.634-2.19-3.248-2.196-2.943-4.529-6.616-4.532-7.137 0-.153-.325-.681-.72-1.174-.688-.859-.889-.91-4.718-1.208-3.958-.307-31.937-.902-32.4-.689-.132.06-.24 3.738-.24 8.172.002 6.095.13 8.763.528 10.94.666 3.644.796 17.239.193 20.118-.216 1.032-.31 2.012-.207 2.178.169.273 10.969.033 11.293-.252zm1.362-17.003c-.315-.6.004-1.797.572-2.148.19-.118.847-.996 1.459-1.953.611-.956 1.334-1.738 1.606-1.738 1.231 0 .863 2.276-.788 4.88-1.04 1.64-2.275 2.055-2.85.96zm-10.254-1.243c-.65-.455-.729-.724-.602-2.046.08-.837.48-2.15.885-2.916s.932-1.755 1.169-2.195c.237-.442.43-1.769.431-2.97.002-2.56.647-4.39 1.547-4.39 1.204 0 1.495.866 1.495 4.45 0 2.933-.1 3.578-.742 4.781-.408.765-.671 1.463-.584 1.55.376.376 1.558-.361 2.583-1.61 1.317-1.609 1.78-2.72 1.793-4.311.013-1.473.674-2.38 1.734-2.38 1.404 0 1.776.599 1.776 2.856 0 2.229-.354 3.159-2.142 5.616-2.42 3.326-7.122 5.12-9.343 3.565zm17.307-.91c-.516-.656-.665-1.542-.855-5.1-.127-2.368-.136-4.459-.02-4.646.116-.187.551-.34.968-.34.598 0 .928.354 1.567 1.68.446.923.877 2.327.96 3.12l.173 1.68c.045.433 1.132.23 1.785-.336 1.28-1.107 1.552-1.748 1.94-4.566.466-3.393 1.071-4.542 2.317-4.398 1.389.161 1.691 1.255 1.133 4.1-1.14 5.802-1.805 6.85-5.483 8.632-2.47 1.196-3.645 1.242-4.485.174zm-15.044-15.565c-1.084-.405-.85-1.888.39-2.48 1.014-.484 7.295-.896 8.614-.565 1.705.428 1.322 2.614-.507 2.894-2.084.319-7.776.42-8.497.15zm23.78 33.362c1.233-.322 3.969-1.05 6.08-1.616 4.687-1.257 9.408-1.6 22.24-1.62 8.112-.012 9.1-.075 12.634-.81 4.586-.954 8.664-1.03 16.872-.315 5.821.507 11.985 1.292 12.899 1.643.313.12.66.02.824-.239.155-.245.291-7.934.302-17.087.01-9.152.145-17.72.3-19.04.155-1.32.167-2.519.026-2.664-.141-.146-3.074-.249-6.519-.23-4.99.028-6.835.163-9.08.67-1.549.348-3.526.777-4.392.951-.867.175-1.636.378-1.71.451-.252.253 2.648.482 5.365.425 2.047-.044 2.976.078 3.75.493 2.166 1.157 2.019 2.501-.478 4.384-.817.616-2.263 1.84-3.214 2.72-3.33 3.083-4.567 3.44-5.922 1.71l-.791-1.01-2.352.739c-3.05.958-11.23 4.28-16.112 6.542-3.807 1.764-5.439 2.133-6.175 1.397-.295-.296-.593-.179-1.322.52-.803.769-1.109.87-2.083.687-1-.187-1.14-.135-1.14.43 0 .672-.86 1.305-1.772 1.305-.293 0-1.044-.51-1.669-1.136-.624-.624-1.322-1.064-1.55-.977-.582.224-1.729 4.128-1.734 5.907-.007 2.222-.269 2.833-1.55 3.613-.83.506-1.691.715-2.994.726-1.663.015-1.931-.084-2.98-1.098-.635-.613-1.444-1.583-1.799-2.155-.864-1.393-1.553-1.363-1.553.07 0 .665.448 1.922 1.12 3.146 1.304 2.372 1.332 2.572.48 3.424-.492.492-1.067.64-2.485.64-2.045 0-3.733-.714-5.37-2.272-.536-.51-1.228-.928-1.537-.928-.506 0-.555.35-.493 3.532.075 3.823-.082 4.261-1.547 4.325-.677.03-.915.246-1.113 1.01-.139.535-.469 1.152-.733 1.372-.265.22-.482.526-.482.68 0 .544 7.388.305 9.76-.316zm50.459-12.316c-.76-.398-1.876-1.348-2.48-2.11-1.264-1.598-1.429-3.197-.641-6.22.574-2.204.971-2.975 2.204-4.278.883-.932 1.169-1.04 2.762-1.035 2.376.007 4.142.991 4.778 2.662.429 1.128.413 1.326-.217 2.622-.375.77-1.076 1.66-1.558 1.976-1.161.76-3.664.769-4.497.015-.894-.809-1.049-.708-1.049.687 0 1.027.2 1.422 1.131 2.24 1.075.944 1.266.993 3.843.993s2.762-.048 3.716-.96c1.569-1.499 2.83-1.138 2.83.808 0 2.083-2.555 3.36-6.679 3.338-2.227-.012-3.028-.155-4.143-.738zm3.351-8.998c.883-.619 1.133-1.662.54-2.256-.512-.51-3.175-.65-3.88-.203-.226.143-.497.786-.6 1.427l-.19 1.166 1.162-.044c.64-.024 1.257.052 1.374.168.336.336.87.25 1.594-.258zm6.944.483c-2.061-.32-2.353-.5-2.353-1.465 0-.582.32-.938 1.28-1.428 1.068-.545 1.28-.813 1.28-1.623 0-.784-.179-1.033-.934-1.296-1.63-.568-1.618-2.09.019-2.418.665-.133.974-.42 1.106-1.024.334-1.537.442-1.685 1.149-1.581.486.07.785.422.97 1.142.235.91.4 1.04 1.33 1.04 1.911 0 2.85 2.013 1.409 3.022-.391.274-1.044.498-1.45.498-.835 0-1.304.823-.773 1.354.193.193.847.332 1.453.31 1.282-.049 2.761.954 2.761 1.872 0 .335-.324.817-.72 1.07-.909.582-4.37.862-6.527.527zm31.025 2.387c.141-1.408.56-3.568.93-4.8s.685-2.71.701-3.284l.03-1.045-17.28-.15-.186 5.6c-.103 3.08-.122 5.782-.044 6.005.112.315 1.858.386 7.867.32l7.724-.086zm-66.85-5.868c.24-.388 10.107-5.23 13.312-6.533 5.06-2.057 7.51-2.92 10.22-3.605 1.486-.375 2.752-.832 2.813-1.015.067-.202-.9-.422-2.439-.556-2.819-.246-3.348-.59-3.303-2.152.027-.966 0-.983-1.152-.783-3.747.65-9.35.876-19.392.78-7.5-.073-11.21.001-11.284.223-.187.557 2.442 4.335 4.78 6.87 1.219 1.32 2.949 3.443 3.844 4.72 1.522 2.166 2.199 2.7 2.6 2.05zm-32.98-40.582c.675-.112 1.293-.374 1.373-.582.08-.209-.453-1.364-1.184-2.568-.732-1.203-1.985-3.64-2.786-5.414-.802-1.775-1.696-3.658-1.989-4.186a803.502 803.502 0 01-2.044-3.744c-.832-1.531-1.757-2.855-2.055-2.942-.299-.086-3.744-.257-7.657-.38-6.044-.188-7.14-.152-7.29.24-.2.522.367 18.496.591 18.72.162.161 7.668.531 20.533 1.01.704.027 1.832-.043 2.508-.155zm31.8-1.362c2.326-.183 5.71-.55 7.52-.815 3.852-.563 13.078-1.095 23.472-1.354 6.227-.154 7.65-.103 9.12.332 1.614.478 1.769.476 2.14-.02.43-.573.55-4.504.155-5.067-.13-.185-.822-.507-1.539-.716-1.722-.502-2.405-1.656-1.713-2.894.396-.708.736-.871 1.986-.952 1.305-.084 1.535-.205 1.709-.9.11-.44.093-1.404-.039-2.142s-.212-1.844-.179-2.46c.034-.616.088-1.696.12-2.4l.06-1.28-4.64.077c-10.494.176-32.271.22-38.4.08-7.146-.165-9.578.015-13.744 1.015-2.297.552-4.163.684-11.643.827-6.254.118-8.949.278-9.048.535-.077.202.517 1.586 1.32 3.076.804 1.49 2.056 4.005 2.782 5.59s1.656 3.417 2.067 4.073c.41.657.746 1.279.746 1.382 0 .273 1.898 3.052 2.688 3.936l.672.752 10.08-.171c5.544-.094 11.983-.321 14.309-.504zm69.828-10.668c-.024-1.66-.03-1.668-.4-.663-.207.56-.484 1.123-.616 1.253-.465.458-.233 1.09.4 1.09.562 0 .637-.205.616-1.68zm-4.2-.304c.477-.477.52-4.935.05-5.225-.184-.113-.68.02-1.1.296-.637.417-2.163.516-9.018.587l-8.25.086-.244 1.429c-.275 1.608.16 2.455.809 1.577.209-.282.703-.616 1.099-.741.667-.212.695-.168.398.614-.176.463-.32.969-.32 1.123 0 .404 1.859.519 9.456.582 4.878.04 6.842-.05 7.12-.328zm-120.51-11.84c-.299-.299-.47-.299-.768 0-.299.298-.213.384.384.384s.683-.086.384-.384zm4.329.15c-.664-.069-1.672-.068-2.24.003-.568.071-.025.128 1.207.126 1.232 0 1.697-.06 1.033-.128zm-29.673 84.733c-.44-.151-1.423-.29-2.185-.308-1.078-.024-1.591-.238-2.32-.967-.79-.79-.935-1.19-.935-2.57 0-1.11-.257-2.143-.8-3.214-.44-.869-.805-2.052-.811-2.63-.006-.578-.223-2.202-.482-3.61a227.902 227.902 0 01-.987-6.002c-.626-4.171-.463-4.728 1.897-6.504.914-.688 1.863-1.442 2.108-1.675.244-.233.802-.658 1.239-.944.69-.452.84-.459 1.155-.056.198.255.763.485 1.255.51 1.273.064 3.37 1.553 3.89 2.762 1.408 3.277 1.776 4.51 1.776 5.957 0 1.298.128 1.677.66 1.962.89.476 6.113 5.915 6.642 6.917.233.44.506 2.084.608 3.656l.185 2.857-1.692 1.597c-.931.879-2.212 1.755-2.848 1.947-1.495.453-7.319.673-8.355.315zm8.773-3.816c.234-.38-.523-3.883-.84-3.883-.139 0-.253.936-.253 2.08 0 1.597.107 2.08.461 2.08.254 0 .538-.125.632-.277zm-4.361-4.009c.087-2.979.042-3.237-.757-4.39-1.057-1.525-1.664-1.724-3.687-1.205-1.45.371-1.587.483-1.417 1.16.392 1.561.771 5.435.597 6.1-.13.496-.011.746.415.88.328.103.813.316 1.077.473.264.157 1.2.255 2.08.217l1.6-.07zm-6.082-11.075c.117-1.857-1.03-4.271-2.102-4.423-.616-.088-.708.014-.579.64.084.409.244 1.674.356 2.812.245 2.512.313 2.634 1.385 2.51.763-.089.859-.245.94-1.539zm243.67-5.2c-.336-.421-1.063-4.275-1.689-8.948-.307-2.296-.483-2.823-.997-2.986-1.253-.398-1.553.35-1.553 3.869 0 3.272-.007 3.304-1.01 4.306-.555.556-1.346 1.23-1.757 1.5-.828.542-1.713.369-1.713-.336 0-.718-.976-.908-1.82-.355-1.054.69-3.616.947-4.977.498-1.93-.637-2.303-1.332-2.483-4.62l-.16-2.928-2.13.068c-1.61.052-2.174-.045-2.308-.395-.218-.567.507-.979 2.741-1.554 1.641-.423 1.696-.473 1.66-1.518-.06-1.7-.842-5.07-1.137-4.887-.146.09-.266.721-.266 1.402 0 1.24-.633 2.244-1.413 2.244-.494 0-1.467-1.025-1.467-1.545 0-.67-.819-.397-1.76.585-.998 1.042-2.216 1.261-2.526.454-.107-.278-.195-1.322-.197-2.32 0-.997-.435-3.902-.964-6.454-1.146-5.526-1.109-5.394-2.272-7.906-.507-1.093-.921-2.128-.921-2.301 0-.686-.674-.66-1.833.072-.669.423-1.412 1.004-1.65 1.292-.507.61-1.637.703-1.637.134 0-.214.676-1.075 1.503-1.914 1.349-1.37 1.495-1.66 1.426-2.835-.07-1.177.061-1.436 1.297-2.565 2.165-1.98 2.356-1.859 4.692 2.992 1.12 2.327 2.329 4.987 2.684 5.911.694 1.803 1.403 2.176 1.672.88l.334-1.607c.092-.444.716-1.704 1.385-2.8 1.69-2.764 3.98-7.371 4.835-9.724.7-1.926 1.562-3.008 3.247-4.074.731-.464.883-.47 1.225-.06.318.385-.111 1.49-2.335 6.008-2.325 4.726-2.796 5.96-3.209 8.417-.266 1.584-.723 4.22-1.015 5.859-.292 1.638-.442 3.067-.333 3.176s.593-.168 1.075-.617c1.238-1.15 2.619-1.983 2.871-1.73.366.366.74 3.68.933 8.272.102 2.42.25 4.4.33 4.4s.424-.149.764-.331c.564-.302.62-.707.62-4.576 0-4.492.218-5.26 1.328-4.666.4.214.591.674.591 1.425 0 1.272.172 1.335 1.28.468.44-.344 1.05-.629 1.354-.633.74-.01 1.713 1.975 1.998 4.073.178 1.314.353 1.68.799 1.68.314 0 .737.2.94.445.438.528 1.806.85 4.09.963 2.547.126 2.66.318 2.66 4.551 0 2.127.128 3.641.308 3.641.17 0 .782-.412 1.36-.917.578-.504 1.396-1.024 1.818-1.156.727-.227.756-.184.558.808a9.605 9.605 0 01-.682 1.996c-.504 1.01-.4 1.51.317 1.51 1.12 0 .582.772-2.207 3.17-3.015 2.594-3.68 2.935-4.274 2.19zm-11.869-8.407c-.125-2.56-.543-3.285-1.491-2.591-1.217.89-.29 5.199 1.061 4.93.458-.09.523-.447.43-2.34zm16.19-15.378c-.102-.103-1.746-.36-3.653-.57-3.357-.373-3.467-.41-3.467-1.165 0-.739.148-.8 2.733-1.143 1.503-.2 3.03-.522 3.394-.716.874-.468 3.767-.738 5.293-.494 1.01.162 1.22.324 1.22.946 0 .51-.307.91-.952 1.243-.523.27-1.479.85-2.124 1.288-1.132.768-2.055.999-2.444.61zm111.55-2.535c-.3-.781.059-1.282 1.696-2.37 1.491-.993 1.661-1.029 4.589-.98 4.258.069 5.259.023 5.007-.229-.12-.12-.829-.3-1.573-.4-1.078-.144-1.354-.31-1.354-.817 0-.449.283-.698.96-.843 1.595-.34 12.582-.313 12.796.033.106.172.038.604-.153.96-.309.577-.663.646-3.31.646h-2.963l-1.265 1.3c-.696.716-1.707 1.575-2.247 1.91-1.84 1.144-11.799 1.79-12.183.79zm64.204-.419c0-.998 2.556-2.82 4.33-3.085.8-.12 1.949-.425 2.552-.677 1.442-.602 1.758-.579 1.758.132 0 .708-1.903 2.739-3.19 3.404-.506.262-1.94.571-3.185.687-2.154.2-2.265.177-2.265-.46zm-39.177-1.303c-.25-.406.934-1.807 2.142-2.534.843-.507 1.866-.657 5.515-.806 4.685-.192 8.332-.648 10.653-1.333 1.208-.357 1.456-.339 2.056.147l.682.552-.898 1.248c-.493.687-1.406 1.645-2.027 2.129l-1.13.88h-8.409c-4.625 0-8.488-.128-8.584-.283zm-394.15-4.52l-.962-.963-.944.673c-2.004 1.427-2.342-.083-.733-3.277 1.367-2.713 2.153-5.363 1.738-5.862-.405-.488-.09-1.355.74-2.045.255-.211.563-1.064.686-1.894.122-.83.725-3.003 1.34-4.828 1.868-5.55 4.01-8.98 6.93-11.107 3.607-2.624 4.588-1.907 5.942 4.345.134.616.43 1.469.66 1.895.229.427.673 1.829.988 3.117.314 1.288.886 2.852 1.271 3.475.562.908.727 1.752.83 4.244.238 5.794.374 7.905.604 9.41.205 1.344.143 1.587-.59 2.32-2.105 2.106-3.701.018-4.66-6.096-.351-2.237-.983-4.66-1.31-5.027-.13-.145-.913.215-1.742.799-1.392.98-1.67 1.055-3.65.975-1.405-.057-2.344.06-2.726.34-.76.555-1.129 2.56-1.146 6.228-.012 2.522-.109 3.055-.654 3.6-.879.88-1.485.804-2.612-.322zm11.172-15.852c.572-.238 1.04-.476 1.04-.529 0-.053-.307-.888-.683-1.856-.375-.968-.915-2.696-1.2-3.84s-.66-2.051-.837-2.016-.56.827-.853 1.76c-.294.933-.955 2.883-1.469 4.334s-.85 2.723-.746 2.827c.283.283 3.56-.186 4.748-.68zm414.02 14.712c-1.357-1.357.012-1.737 6.26-1.737 5.975 0 7.222.37 5.855 1.737-.419.418-1.435.503-6.058.503-4.622 0-5.638-.084-6.057-.503zm-193.85-22.436c-1.16-1.215-1.843-4.243-1.85-8.191-.003-2.653.123-3.433.828-5.12 1.051-2.516 1.586-3.11 2.797-3.11.533 0 1.592-.302 2.353-.67 1.242-.602 1.623-.639 3.701-.358 1.319.177 3.144.707 4.237 1.23 1.75.836 1.93 1.017 2.025 2.037.058.616.34 1.38.626 1.698.328.365.57 1.342.652 2.641.172 2.695-1.1 6.881-2.625 8.646-1.209 1.398-2.367 1.668-8.358 1.942l-3.52.161zm9.19-4.061c.393-.602.478-1.543.407-4.519l-.091-3.758-1.44-.556c-2.107-.813-4.267-1.034-4.983-.51-.89.65-1.059 6.268-.235 7.862.72 1.397 2.35 2.24 4.33 2.24 1.24 0 1.603-.137 2.011-.76zm8.535-4.698c-1.385-.556-.351-.943 2.52-.943 2.33 0 2.86.09 2.86.48 0 .373-.423.48-1.893.48-1.041 0-2.085.063-2.32.14-.234.077-.76.006-1.167-.157zm65.914-1.282c-.41-.165-.687-.48-.614-.7.095-.287 1.535-.452 5.067-.582 3.685-.136 5.258-.324 6.214-.742 1.893-.828 5.335-1.062 5.884-.4.358.432.357.539-.007.655-5.453 1.737-7.579 2.11-11.896 2.088-2.145-.011-4.237-.155-4.647-.32zm-11.733-.358c-.704-.172-3.224-.41-5.6-.527-4.035-.201-4.32-.258-4.32-.856 0-.6.244-.645 3.881-.73 4.744-.109 8.209.636 8.382 1.802.115.774-.25.823-2.343.311zm-23.09-1.716c-.3-.783.1-.937 2.715-1.05 1.76-.074 2.627.025 3.064.351 1.114.833.295 1.192-2.718 1.192-2.293 0-2.91-.1-3.06-.493zm62.027-.227c.096-.671.274-.724 2.663-.784 1.408-.036 3.885-.233 5.505-.439 3.16-.4 4.575-.245 4.575.503 0 .258-.396.557-.88.665s-1.384.327-2 .485-3.11.288-5.543.289c-4.403.002-4.421-.001-4.32-.719zm24.484-.454c-1.196-.144-1.866-.848-1.304-1.372.155-.144 3.276-.327 6.936-.407 5.88-.127 6.642-.086 6.558.351-.052.273-.742.695-1.533.939-1.445.446-8.373.763-10.656.489zm20.818-3.51c-.664-.193-.73-.856-.134-1.35.464-.385 5.802-.551 6.67-.208.58.23 1.035 1.099.733 1.4-.239.24-6.524.376-7.269.159zM286.92 82.09c-.294-.448-.823-.816-1.175-.816-.367 0-.762-.308-.925-.72-.779-1.974-4.326-8.987-5.544-10.96-.76-1.232-1.712-3.32-2.114-4.64-.402-1.32-.936-2.782-1.186-3.25-.723-1.346-.547-2.106.836-3.605 1.842-1.999 2.701-2.133 3.954-.616.547.662 1.228 1.714 1.513 2.337.49 1.072.484 1.192-.115 2.187l-.633 1.054 2.964 5.906c1.679 3.346 3.154 5.907 3.402 5.907.552 0 .91-.954 1.199-3.2.134-1.039.94-3.347 1.965-5.633.957-2.13 1.739-4.315 1.739-4.855 0-.581.327-1.371.8-1.934.44-.522.8-1.18.8-1.46 0-.723 3.068-3.718 3.81-3.718.829 0 .854.146.67 3.808-.178 3.534-.325 3.431 2 1.4.661-.576 1.402-1.048 1.647-1.048 1.186 0 .633 1.177-2.523 5.36-2.628 3.485-3.545 4.986-4.355 7.127-.999 2.642-1.923 4.303-2.755 4.953-.225.176-1.19 1.832-2.145 3.68-1.412 2.733-1.88 3.378-2.514 3.457-.548.068-.939-.146-1.315-.72zm-233.48-.816c-.86-.861-.805-2.06.173-3.73.812-1.385.813-1.404.824-9.425.006-5.085.138-8.318.358-8.8.39-.855 1.546-1.032 2.131-.326.2.24.517 2.221.703 4.4.786 9.175.754 8.96 1.4 9.432.9.658 1.3.561 2.226-.54l.832-.988-.212-4.433c-.183-3.843-.14-4.543.324-5.252.662-1.01 1.484-1.043 2.346-.098 1.172 1.288 1.36 2.037 1.465 5.845l.103 3.752 1.371 1.279c1.318 1.229 1.44 1.273 3.12 1.134 1.377-.114 1.805-.037 2.01.362.517 1.01-.54 2.27-2.454 2.923-1.384.472-2.971-.058-4.612-1.54L64.3 74.141l-.71.647c-1.191 1.085-2.13 1.419-3.681 1.31l-1.484-.104-.872 1.76c-.48.968-.881 2.012-.892 2.32-.028.766-1.16 1.84-1.94 1.84-.353 0-.929-.288-1.28-.64zm16.871-16.26c-.991-.602-1.405-1.548-1.61-3.68-.092-.971-.397-1.806-.824-2.26-.843-.898-.878-2.013-.071-2.27.665-.21.983-1.06.99-2.639.003-.717.21-1.138.682-1.391.89-.477 1.428.055 1.976 1.952l.412 1.428 1.938.16c2.166.179 2.996.675 2.996 1.79 0 .996-1.434 1.73-3.377 1.73h-1.49l.181 1.2c.1.66.272 1.715.383 2.344.17.975.086 1.22-.568 1.648-.7.459-.844.458-1.618-.012zM8.011 47.54c-.38-1-.435-1.004-1.6-.143-.898.664-1.93.643-1.93-.04 0-.185.55-.946 1.224-1.69 1.534-1.695 4.057-5.868 4.528-7.488.195-.674.558-2.233.807-3.465.248-1.232.727-3.464 1.064-4.96.337-1.496.708-4.16.824-5.92.287-4.356.972-6.673 2.374-8.035 1.38-1.34 2.037-1.41 1.91-.205-.072.698.041.88.549.88 1.194 0 1.533.45.977 1.299-.659 1.005-.63 2.144.063 2.577.502.313.538.743.355 4.157a293.144 293.144 0 01-.445 6.72c-.177 2.146-.138 2.977.145 3.152.62.383 1.625-.78 1.625-1.879 0-.547.274-1.507.61-2.133.335-.626.704-1.992.82-3.035s.29-2.318.387-2.831c.222-1.172 2.853-4.027 3.71-4.027.624 0 .636.162.485 6.435l-.154 6.434.99.604c1.49.909 2.42.758 4.152-.673 1.671-1.38 2.439-1.607 2.441-.72.002.683-4.848 5.317-6.272 5.993-1.178.56-2.605.625-3.789.175-.772-.294-.82-.443-.82-2.541 0-1.226-.115-2.3-.255-2.386-.14-.087-1.385.985-2.767 2.38-3.198 3.231-4.009 3.3-4.49.38-.233-1.412-.69-1.77-1.018-.8-.585 1.726-1.754 3.97-2.743 5.266-.82 1.073-1.187 1.942-1.35 3.185-.243 1.867-1.068 3.827-1.695 4.03-.22.072-.54-.242-.712-.696zm212.15-1.615c0-.78 1.84-2.623 3.31-3.314 2.29-1.076 3.287-2.492 3.562-5.056.441-4.12 4.637-10.68 6.83-10.68.709 0 .74.081.53 1.36a20.965 20.965 0 01-.65 2.64c-.235.703-.524 2.033-.645 2.954-.24 1.846.102 2.256 1.577 1.885 1.019-.255 2.387-3.345 2.725-6.154.23-1.907.389-2.267 1.418-3.21 1.235-1.132 2.143-1.153 2.143-.052 0 .35.288 1.002.64 1.45.42.534.64 1.297.64 2.226 0 1.566.659 3.117 1.454 3.422.285.11.938.199 1.452.199 1.412 0 1.156.741-.737 2.132-1.476 1.084-1.951 1.251-4.08 1.433-2.294.195-3.913.53-6.41 1.327-.616.197-1.834.436-2.707.532-1.563.173-1.593.197-2 1.615-.46 1.603-1.103 2.251-2 2.017-.7-.184-2.842 1.017-4.652 2.607-1.336 1.173-2.4 1.47-2.4.668zm87.83-3.065c-.322-.522.66-1.772 2.251-2.867.799-.55 1.7-1.474 2.005-2.055.304-.58 1.093-2.08 1.753-3.332.807-1.53 1.303-2.999 1.513-4.48.172-1.212.604-3.453.96-4.98.356-1.527.647-3.239.646-3.804 0-.565.504-2.036 1.122-3.268s1.35-3.248 1.627-4.48c1.295-5.766 2.23-5.74 2.17.06-.038 3.596-.158 4.489-.891 6.612-.48 1.392-.933 3.567-1.045 5.02-.184 2.385-.146 2.62.546 3.356.409.436.869.792 1.022.792.152 0 1.005-.68 1.894-1.512 1.792-1.676 2.835-3.437 2.839-4.795.003-.491.357-1.613.79-2.493.433-.88.792-2.003.797-2.495.005-.493.512-1.68 1.126-2.64.866-1.354 1.296-1.745 1.92-1.745.787 0 .804.05.804 2.404 0 1.322-.292 3.716-.65 5.32-.717 3.22-.777 6.796-.124 7.338.797.66 2.861-.838 3.185-2.313.31-1.414 1.24-1.086 1.37.484.09 1.09-.05 1.366-1.253 2.477l-1.354 1.25h.903c.496 0 1.375-.36 1.952-.8 2.244-1.712 2.878-.341.736 1.594-1.761 1.59-3.205 2.144-5.635 2.157-2.42.014-3.2-.52-3.5-2.392-.11-.69-.39-1.327-.623-1.416-.232-.089-1.164.463-2.07 1.228-1.619 1.365-1.694 1.391-4.339 1.502-3.143.132-3.09.08-3.792 3.75-.305 1.593-.816 2.995-1.453 3.989-1.196 1.863-1.87 2.191-2.615 1.272l-.547-.676-1.651 1.136c-1.775 1.22-2.069 1.32-2.389.802zm-142.87-.815l-1.847-.661c-.933-.333-1.722-.952-2.48-1.945-1.022-1.338-1.113-1.637-1.113-3.667 0-2.643.376-3.464 2.496-5.447 1.837-1.718 2.743-1.971 6.45-1.803 3.413.155 4.03.705 3.977 3.543-.032 1.712-.145 2.056-.865 2.63-1.264 1.007-3.782 1.78-5.803 1.78-1.698 0-1.812.047-1.717.711.073.506.52.88 1.542 1.286 1.239.492 2.08.547 6.003.388 4.027-.163 4.586-.123 4.762.336.27.702-.141 1.052-2.34 1.997-1.504.647-2.515.823-5.225.913-1.848.062-3.576.034-3.84-.06zm.073-8.13c.691-.42 1.374-.582 2.007-.473.528.091 1.176.016 1.44-.168.412-.285.372-.424-.275-.966-1.175-.986-2.378-.816-3.531.497-.898 1.022-1.247 1.75-.841 1.75.083 0 .623-.288 1.2-.64zm336.57 2.5c0-.719.368-1.456 1.248-2.5.816-.968 1.485-2.251 1.929-3.701.373-1.221.876-2.652 1.118-3.18.24-.528.885-1.926 1.431-3.107.547-1.18.994-2.28.994-2.442s.684-.964 1.52-1.782c2.819-2.757 4.443-1.224 2.183 2.061-1.46 2.122-1.989 3.808-1.489 4.743.203.378.543.686.757.686.214-.001 1.289-.805 2.39-1.786 1.643-1.466 2.036-2.013 2.204-3.066.249-1.554.955-1.924 1.765-.925.777.96.744 1.755-.12 2.925-.53.716-.743 1.527-.837 3.183-.149 2.64-.013 2.753 2.702 2.25 1.52-.28 1.942-.26 2.314.113.395.394.296.65-.73 1.903-1.861 2.27-3.868 3.404-6.03 3.404-2.372 0-2.79-.561-2.79-3.751 0-2.526-.185-2.733-1.512-1.689-.448.352-1.216.64-1.709.64-.957 0-1.76.888-2.515 2.784-.473 1.189-3.59 4.256-4.324 4.256-.348 0-.5-.31-.5-1.02zm-353.15-.504c-.194-.13-.445-1.46-.559-2.957l-.525-6.88c-.294-3.83-.272-4.223.27-4.96a2.308 2.308 0 011.597-.9c.94-.094 1.008-.184 1.008-1.341 0-1.446.482-1.894 1.231-1.146.785.784.961 10.236.236 12.677-.62 2.091-.624 2.23-.045 2.23 1.257 0 6.895-4.15 8.418-6.197.63-.847.72-1.352.72-4.062 0-2.61-.1-3.222-.64-3.908-.352-.448-.64-.976-.64-1.175 0-.775 1.054-1.908 1.96-2.107.772-.17 1.101-.05 1.731.63 1.221 1.318 1.43 1.915 1.43 4.101 0 3.921-1.41 6.464-6.024 10.858-1.351 1.287-3.033 2.578-3.737 2.868-.704.29-2.216.917-3.36 1.393-1.144.476-2.224.921-2.4.99s-.478.016-.671-.114zm-52.674-.55c-1.87-.534-2.37-.882-4.21-2.93-1.244-1.383-1.5-1.899-1.673-3.361-.24-2.043.134-3.104 2.06-5.849.73-1.041 1.33-2.05 1.331-2.24.009-.96 1.778-4.008 2.938-5.061 2.649-2.406 6.201-1.984 9.288 1.103.408.408.571 1.068.571 2.314 0 2.359-1.486 4.87-4.485 7.575-2.525 2.278-3.939 3.162-5.057 3.162-1.335 0-.57.77 1.566 1.576 1.467.553 2.905.812 5.018.902 2.622.112 3.058.05 3.803-.536 1.066-.838 2.092-.843 2.842-.014.57.629.568.673-.064 1.52-1.37 1.839-2.344 2.12-7.608 2.199-3.276.049-5.296-.066-6.32-.36zm.19-8.491c1.037-.526 2.361-.956 2.943-.956.924 0 1.202-.217 2.195-1.713 1.937-2.918 1.538-3.76-2-4.229-2.809-.372-3.941.72-5.014 4.838-.537 2.065-.617 3.026-.249 3.02.132-.002 1.088-.434 2.125-.96zm5.155-10.028c.912.146.93.13.343-.344-.733-.592-2.801-.43-3.927.308-1.281.84-.798 1.08.944.47.924-.323 2.112-.519 2.64-.434zm168.39 18.516c-3.219-1.222-4.386-2.902-4.386-6.314 0-2.135.1-2.53.92-3.643a21.687 21.687 0 012.08-2.35c.833-.792 1.162-1.379 1.167-2.08.011-1.54 1.04-3.384 2.992-5.363 2.734-2.773 4.3-2.786 9.292-.077 2.513 1.364 4.615 3.332 5.62 5.262.228.44.47.861.535.936.065.075.88-.681 1.808-1.68 1.45-1.556 1.854-1.816 2.839-1.816.632 0 1.666.216 2.297.48.632.264 1.533.48 2.002.48.994 0 3.008 1.154 3.008 1.724 0 .215-.512.887-1.138 1.494-1.087 1.053-1.258 1.107-3.846 1.215-3.442.144-3.497.227-3.234 4.831.107 1.858.074 3.571-.073 3.808-.457.74-1.449.276-1.775-.832-.362-1.229-.594-1.298-1.044-.31-.577 1.267-2.044 2.79-2.687 2.79-.356 0-.741-.32-.907-.756-.158-.416-.586-.834-.952-.93-.536-.14-.664-.427-.664-1.484 0-.72-.148-1.31-.328-1.31-.376 0-4.14 3.41-5.635 5.103-.995 1.128-1.027 1.138-3.84 1.21-1.857.048-3.256-.086-4.051-.388zm8.956-4.725c.543-.572 1.093-1.4 1.222-1.84.129-.44.341-.944.473-1.12.474-.636 1.26-3.562 1.462-5.44.267-2.493-.296-3.098-3.071-3.298-1.05-.076-1.908-.036-1.908.09 0 .125.288.594.64 1.041.918 1.167.797 1.811-.528 2.822-1.073.818-1.247.857-2.16.481-1.954-.805-2.653-.785-3.228.092-.641.98-1.435 3.84-1.44 5.191-.009 2.051 1.592 2.957 5.293 2.997 2.144.023 2.306-.027 3.245-1.016zm7.075-8.173c-.146-1.709-.735-1.572-1.16.27-.582 2.517-.495 2.86.45 1.786.603-.686.782-1.205.71-2.056zm-10.925-5.568c-.644-.235-1.012-.227-1.264.025-.261.262-.02.35.908.331 1.25-.025 1.254-.029.356-.356zm180.63 17.971l-2.033-.94.113-3.95c.109-3.813.146-3.994 1.07-5.205 2.134-2.801 3.51-3.335 8.598-3.335 3.823 0 4.229.262 4.14 2.679-.07 1.886-.785 3.611-2.188 5.278-.933 1.11-1.468 1.245-2.067.523-.296-.356-1.085-.48-3.068-.48-2.309 0-2.714.083-3 .617-.487.91-.16 1.398 1.356 2.023 1.754.723 6.49.768 7.413.07.774-.585 2.419-.623 2.419-.055 0 .807-2.447 2.814-4.001 3.281-.848.255-2.706.458-4.13.45-2.171-.013-2.917-.167-4.622-.956zm7.633-8.958c0-.4-.313-.767-.821-.96-1.276-.485-3.545-.38-4.116.19-1.113 1.114-.59 1.418 2.43 1.418 2.304 0 2.507-.052 2.507-.648zm-334.71 7.547c-.267-.701-.441-.78-1.327-.603l-1.02.204.203-1.49c.113-.82.288-1.82.39-2.226.177-.706.07-.752-2.645-1.137-1.556-.22-3.04-.322-3.299-.227-.712.263-1.365-.296-1.144-.98.107-.33.689-.936 1.294-1.347.988-.671 1.4-.738 4.049-.654 2.875.091 2.956.074 3.25-.693.166-.432.223-1.67.127-2.75-.143-1.608-.073-2.056.382-2.468.828-.749 2.826-1.509 3.395-1.29.608.233.614.559.045 2.202-.244.704-.494 2.144-.555 3.2l-.112 1.92 1.53.098c.932.06 1.924-.098 2.534-.402.92-.46 1.05-.455 1.611.052.396.358 1.008.518 1.743.455 1.754-.152 1.18.56-1.165 1.441-1.123.422-2.235.928-2.472 1.124-.236.197-1.25.446-2.254.555l-1.825.197-.264 1.28c-.565 2.742-.925 3.682-1.533 4.008-.533.285-.68.212-.938-.47zm64.419-.043c-.106-.277-.017-1.037.198-1.69.215-.652.343-1.613.283-2.136-.105-.928-.153-.952-2.108-1.045-1.71-.082-2-.183-2-.697 0-.648 1.41-1.928 2.123-1.928.977 0 .339-.649-1.163-1.182-.88-.313-1.6-.683-1.6-.823 0-.551 1.024-.6 2.256-.106.977.39 1.451.433 1.938.173.603-.323.634-.58.489-4.083-.085-2.057-.201-4.171-.259-4.699-.15-1.38.442-1.403 1.099-.044.551 1.141 1.274 1.496 1.688.827a.518.518 0 01.572-.215c.25.083.338 1.26.28 3.777-.047 2.01.047 3.852.208 4.092.208.311.675.38 1.611.24l2.598-.39c.992-.15 1.28-.09 1.28.268 0 .254-.368.63-.818.835-1.132.516-.748.91 1.138 1.17.88.121 1.694.374 1.81.561.117.188-.32.83-.972 1.426l-1.183 1.084-5.255-.42-.56 1.944c-.46 1.588-.78 2.091-1.755 2.754-1.394.947-1.638.987-1.898.307zm171.2-1.592c-.229-.596.85-1.82 2.25-2.552.55-.289 1.396-.737 1.88-.996.744-.398 1.252-1.396.711-1.396-.397 0-4.26 2.082-5.477 2.952-1.453 1.039-2.514 1.078-2.514.092 0-.43.692-1.051 2.212-1.985 1.653-1.015 2.077-1.411 1.678-1.564-.294-.113-2.78-.124-5.525-.025-3.797.137-5.177.302-5.77.69-.664.435-1.135.461-3.19.175-1.326-.184-2.981-.335-3.678-.335-1.853 0-2.012-.787-.432-2.152.732-.633 1.25-1.369 1.256-1.783l.01-.705 8-.045c9.706-.054 9.124-.011 8.339-.605-.343-.259-.867-.47-1.167-.47-.3 0-.633-.231-.742-.514-.254-.665 2.043-3.006 2.95-3.006.811 0 6.894 2.35 8.027 3.1.458.304 1.984.929 3.392 1.389 1.949.636 2.577.983 2.63 1.453.103.897-1.461 1.982-4.316 2.996-3.47 1.233-5.063 2.11-5.906 3.256-.793 1.078-3.021 2.526-3.886 2.526-.298 0-.627-.223-.732-.496zm-147.85-.384c.094-.308.687-1.97 1.317-3.693l1.146-3.133V19.17c0-4.728.068-5.463.521-5.637.33-.127.719.063 1.062.517.298.395.747.688 1 .652 1.236-.176 1.257-.097 1.257 4.657 0 4.306-.054 4.734-.743 5.84-1.594 2.56-1.404 2.9 1.093 1.956 2.37-.897 3.667-1.958 4.99-4.08a75.79 75.79 0 011.783-2.738c1.476-2.095 2.469-4.505 2.473-6.003.002-.825.154-1.894.337-2.376.479-1.259.103-2.53-.88-2.977-1.685-.768-7.081-1.717-11.119-1.956-3.735-.22-4.203-.315-4.72-.954-.758-.936-.727-1.814.08-2.245.734-.393 3.956-.762 11.025-1.263 2.64-.187 6.352-.651 8.248-1.031 2.688-.54 3.533-.607 3.833-.307.282.282.292.533.039.934-.324.513-.664.645-3.16 1.225l-.96.223 1.047.32c.665.205 1.111.583 1.226 1.04.237.946-.587 2.488-1.788 3.343-1.05.748-1.238 1.617-.484 2.243.356.295.48 1.084.48 3.053 0 2.431-.097 2.836-1.152 4.824-1.383 2.608-4.334 6.29-6.436 8.033-1.738 1.44-5.245 3.43-6.599 3.745-.499.116-1.468.565-2.154.998-1.506.95-3.022 1.075-2.763.227zm-147.94.036c0-.594.936-1.56 2.887-2.98 1.24-.901 2.19-1.747 2.11-1.877-.082-.13-1.13-.118-2.332.028-1.202.147-6.98.425-12.84.619-8.029.265-10.746.261-11.024-.017-.28-.279-.275-.463.015-.753.555-.555.472-.896-.217-.896-.33 0-.764-.197-.964-.437-.72-.867.461-1.153 6.073-1.47 12.234-.692 11.709-.617 12.603-1.79.436-.571 1.48-1.425 2.32-1.896 1.322-.74 1.756-.828 3.208-.649 2.48.307 7.363 1.677 9.225 2.588 1.681.823 2.705 2.254 2.45 3.424-.078.354-1.48 1.249-3.7 2.36-1.966.985-4.15 2.19-4.854 2.677-.9.624-1.827.937-3.12 1.057-1.012.093-1.84.099-1.84.012zm374.08-2.368c0-.359.672-2.12 1.495-3.913 1.493-3.259 1.495-3.265 1.628-7.414.116-3.62.234-4.353.92-5.706.721-1.423.873-1.545 1.812-1.454.928.09 1.016.19.93 1.059-.051.528-.218 2.688-.37 4.8s-.381 4.524-.51 5.36c-.35 2.285.298 2.006 3.997-1.725l3.218-3.245v-1.846c0-1.677.092-1.925 1.004-2.692 2.62-2.205 3.52.512 1.8 5.428-1.018 2.905-1.559 3.474-4.965 5.225-3.595 1.848-5.433 3.298-6.052 4.775-.362.865-.61 1.042-1.472 1.051-.57.007-1.395.218-1.835.47-1.119.639-1.6.587-1.6-.173zm13.234-9.333c.188-.3.24-.646.116-.771-.253-.253-1.51.77-1.51 1.23 0 .471 1.019.137 1.394-.459zm-59.474 8.613c-2.899-1.175-4.85-2.607-5.632-4.135-.71-1.385-.847-6.148-.257-8.898.612-2.852 5.51-7.88 8.449-8.673.704-.19 2.049-.619 2.988-.953 2.058-.733 3.294-.769 4.528-.13 1.564.808 1.924 1.639 1.924 4.437 0 1.986-.156 2.847-.72 3.981-1.732 3.48-5.642 6.572-10.052 7.947-1.546.482-2.645.992-2.579 1.198.063.197.825.75 1.693 1.23 1.506.833 1.784.874 6.088.88 4.11.007 4.562-.049 5.09-.632.319-.352.767-.64.997-.64.23 0 .71-.312 1.065-.694.554-.595.762-.641 1.452-.327.96.437 1.082 1.632.246 2.388-.308.279-1.856 1.129-3.44 1.89l-2.88 1.383-4 .068c-2.554.044-4.347-.072-4.96-.32zm2.928-9.802c1.434-.731 2.106-1.296 2.48-2.083.281-.594.516-1.202.52-1.351.006-.15.438-.838.96-1.529.961-1.269 1.227-2.772.652-3.68-.178-.283-1.014-.51-2.177-.595l-1.888-.136-1.364 1.549c-1.717 1.95-3.358 4.926-3.853 6.988-.331 1.377-.313 1.638.132 1.963.67.49 2.03.153 4.538-1.126zm-4.712-4.924c.155-.406.634-1.162 1.065-1.68s.966-1.288 1.188-1.71c.36-.681.343-.745-.138-.56-.299.114-.66.208-.804.208-.437 0-2.247 3.05-2.247 3.788 0 .914.582.885.936-.046zm11.433.244c.26-.675-.173-1.04-.542-.457-.392.62-.384.951.023.951.181 0 .415-.222.52-.494zm83.473 12.977c-.308-.498.81-2.556 1.708-3.145.448-.294 1.063-.492 1.366-.44.574.097.728-.226 1.07-2.255.125-.74.7-1.772 1.51-2.707l1.307-1.51-.217-3.709-.217-3.707 1.615-1.585c.888-.872 1.615-1.848 1.615-2.169 0-.383.193-.546.561-.476.927.178 1.213 4.2.529 7.433-.301 1.423-.655 3.307-.786 4.187-.13.88-.342 1.927-.47 2.327-.21.663-.164.7.528.424 2.225-.886 3.798-1.889 5.504-3.51 2.237-2.124 3.415-3.862 3.415-5.037 0-.995 2.027-3.092 2.837-2.936.285.055.717.515.96 1.023.814 1.697-.685 6.565-2.397 7.783-1.96 1.395-8.708 4.675-10.836 5.267-1.907.532-2.52.897-4.179 2.489-2.18 2.093-4.838 3.198-5.422 2.253zm19.49-11.548c1.16-1.379 1.129-2.275-.043-1.23-1.664 1.481-2.074 2.215-1.238 2.215.249 0 .825-.443 1.28-.985zm-80.58 11.31c-.106-.106-.192-.826-.192-1.6 0-1.035.228-1.707.86-2.536 1.29-1.69.83-2.141-2.44-2.387-1.753-.132-2.802-.367-3.137-.702-.458-.458-.4-.607.635-1.642 1.03-1.03 1.307-1.138 2.904-1.138 2.398 0 2.778-.192 2.778-1.403 0-1.038.43-1.832 1.778-3.287 1.246-1.345 1.7-.834 1.808 2.034.106 2.817-.018 2.73 3.174 2.223 1.186-.188 1.518-.137 1.67.257.103.27-.03.672-.296.893-.266.222-1.005.944-1.642 1.605-.657.681-1.689 1.344-2.382 1.531-.952.256-1.265.523-1.41 1.198-.338 1.575-1.163 3.21-2.018 3.998-.927.855-1.795 1.251-2.09.955zm48.848-.937c-.631-.255-.475-1.124.57-3.166.532-1.043 1-2.328 1.04-2.857.068-.925.01-.97-1.53-1.175a35.709 35.709 0 00-3.45-.242c-2.288-.035-2.65-.587-1.311-1.995 1.37-1.441 1.697-1.534 4.442-1.272 3.114.297 3.68-.078 3.68-2.441 0-2.676 2.708-7.44 4.23-7.44.907 0 .963.646.238 2.729-1.984 5.692-2.292 7.19-1.482 7.19.235 0 1.252-.165 2.26-.368 1.575-.316 1.906-.297 2.34.137.46.46.408.564-.581 1.167-.597.364-1.376.663-1.73.663-.627.002-2.889 1.057-3.499 1.634-.167.157-.404 1.256-.526 2.441-.16 1.547-.38 2.247-.782 2.48-.307.18-1.195.866-1.973 1.526s-1.442 1.19-1.475 1.175l-.46-.187zm-443.45-6.522c-.112-.182-.172-.865-.133-1.518.15-2.515.337-2.383-3.194-2.262-1.747.06-3.273.012-3.393-.108-.306-.306.607-1.52 1.67-2.222.627-.413 1.491-.593 2.86-.594 2.081-.002 2.603-.304 2.753-1.591.07-.607-.131-.8-1.145-1.094l-1.23-.357.697-.885c.384-.487.84-1.402 1.015-2.034.422-1.528 2.676-3.961 3.67-3.961.728 0 .759.093.762 2.32.003 1.276-.24 3.362-.537 4.635-.298 1.274-.443 2.415-.323 2.535.12.12 1.322.23 2.67.244 2.85.03 3.178.363 1.757 1.784-.835.836-1.192.962-2.72.962-1.727 0-1.764.019-1.977 1.04-.119.572-.42 1.36-.668 1.753-.578.913-2.253 1.808-2.534 1.353zm74.974-1.767c-.1-.1-.102-1.05-.006-2.112.212-2.339.042-2.496-2.72-2.502-2.065-.006-2.403-.28-1.59-1.29.606-.751 2.062-1.595 2.753-1.595 1.189 0 1.638-.37 1.638-1.345 0-.526.204-1.339.455-1.806.25-.467.533-1.101.63-1.41.115-.37.5-.56 1.137-.56 1.416 0 2.027 1.092 1.756 3.135-.19 1.433-.143 1.62.45 1.809.775.246 3.034-.305 4.3-1.049 1.032-.607 1.929-.251 2.09.83.135.902-2.381 2.634-3.836 2.64-1.753.008-2.656.653-2.701 1.929-.063 1.772-.1 1.907-.524 1.907-.221 0-1.079.36-1.905.8-1.644.875-1.664.881-1.927.618zm231.11-6.548c-1.633-.275-4.568-1.09-5.091-1.414-.192-.118-.349-.55-.349-.96 0-1.091 1.271-1.777 3.293-1.777.944 0 3.28-.22 5.192-.488 2.981-.419 3.54-.424 3.925-.04.48.481.399.61-1.05 1.649-.585.42-.483.46 1.2.469 1.595.008 1.84.091 1.84.621 0 .337-.443.985-.984 1.44-.905.762-1.21.825-3.76.786-1.527-.023-3.424-.152-4.216-.286zm119.52-3.916c-.421-.253-3.04-.441-7.676-.55-6.162-.145-7.049-.23-7.136-.686-.058-.304.457-.961 1.237-1.58l1.337-1.058 8.04.085c6.401.068 8.141.178 8.544.54.277.25.745.454 1.04.454.978 0 .631 1.45-.564 2.362-.841.64-1.46.835-2.64.828-.848-.005-1.83-.183-2.182-.395zm-47.28-.41c-.548-.576-.16-1.434 1.098-2.431 1.16-.92 1.63-1.076 3.53-1.184 1.948-.11 2.172-.189 2.007-.708-.308-.969.847-1.294 4.242-1.194 2.683.079 3.13.17 3.224.658.075.39-.226.706-.975 1.018-.596.25-1.245.808-1.443 1.241-.197.434-.868 1.177-1.49 1.651-1.07.816-1.372.872-5.542 1.032-2.426.093-4.519.055-4.65-.083z"/></svg>