<?xml version="1.0" standalone="no"?>
<!DOCTYPE svg PUBLIC "-//W3C//DTD SVG 20010904//EN"
 "http://www.w3.org/TR/2001/REC-SVG-20010904/DTD/svg10.dtd">
<svg version="1.0" xmlns="http://www.w3.org/2000/svg"
 width="1638.000000pt" height="813.000000pt" viewBox="0 0 1638.000000 813.000000"
 preserveAspectRatio="xMidYMid meet">
<metadata>
Created by potrace 1.16, written by Peter Selinger 2001-2019
</metadata>
<g transform="translate(0.000000,813.000000) scale(0.100000,-0.100000)"
fill="#000000" stroke="none">
<path d="M7378 8121 c9 -5 -7 -11 -44 -15 -32 -4 -64 -12 -72 -18 -9 -8 -75
-13 -185 -15 -95 -3 -181 -8 -192 -13 -11 -5 -55 -11 -98 -13 -42 -2 -80 -7
-84 -11 -4 -3 -7 -28 -7 -55 -1 -40 3 -53 23 -70 22 -19 37 -21 157 -21 85 0
134 -4 136 -11 2 -6 33 -13 68 -16 36 -4 71 -12 78 -20 7 -7 28 -13 47 -13
l33 0 -5 -102 c-4 -67 -10 -107 -19 -116 -8 -7 -14 -20 -14 -28 0 -8 -4 -14
-9 -14 -5 0 -12 -13 -16 -30 -4 -16 -12 -30 -18 -30 -7 0 -21 -19 -32 -43 -11
-23 -22 -44 -25 -47 -3 -3 -18 -24 -34 -47 -15 -23 -38 -45 -50 -49 -11 -4
-23 -10 -26 -15 -3 -4 -18 -11 -33 -14 -33 -9 -37 11 -7 45 18 21 20 37 20
192 0 144 -2 170 -16 175 -8 3 -20 1 -27 -6 -17 -17 -27 -13 -27 13 0 38 -61
51 -80 17 -6 -12 -10 -95 -10 -200 0 -113 -4 -181 -10 -183 -6 -2 -13 -21 -16
-43 -3 -22 -12 -54 -20 -72 -8 -17 -14 -38 -14 -46 0 -8 -7 -17 -15 -21 -9 -3
-15 -19 -15 -41 0 -31 3 -35 25 -35 14 0 25 4 25 9 0 5 15 12 34 15 19 4 36
10 38 14 4 10 68 40 101 48 15 3 27 10 27 14 0 5 14 11 30 15 17 4 30 10 30
15 0 4 11 11 25 14 14 4 25 11 25 16 0 6 7 10 15 10 8 0 15 7 15 15 0 8 5 15
11 15 12 0 89 73 89 85 0 3 12 19 28 35 40 42 62 72 62 87 0 7 4 13 10 13 5 0
12 11 16 25 3 14 10 25 15 25 4 0 11 16 15 35 3 19 10 38 15 41 5 3 9 45 9 94
0 69 -3 89 -15 94 -16 6 -21 36 -7 36 22 0 57 45 68 86 6 24 7 44 2 44 -19 0
-6 18 18 24 40 10 54 30 54 75 l0 41 -67 0 c-41 0 -63 -4 -55 -9z"/>
<path d="M13056 8114 c-3 -9 -6 -27 -6 -40 0 -23 -3 -24 -70 -24 -56 0 -70 -3
-70 -15 0 -9 -8 -19 -17 -22 -23 -9 -44 -30 -60 -61 -30 -57 -12 -64 178 -60
104 3 128 6 143 21 10 9 23 17 31 17 7 0 15 7 19 15 3 8 12 15 21 15 8 0 15 5
15 10 0 17 38 53 48 46 20 -12 42 25 42 70 l0 44 -134 0 c-113 0 -135 -2 -140
-16z"/>
<path d="M1138 8073 c-10 -2 -18 -9 -18 -14 0 -5 -7 -9 -15 -9 -8 0 -15 -5
-15 -12 0 -6 -14 -24 -31 -39 -22 -19 -32 -39 -36 -68 -3 -23 -10 -41 -14 -41
-17 0 -46 -37 -51 -64 -5 -24 -3 -26 31 -27 20 -1 42 -1 49 0 18 3 15 -16 -5
-24 -10 -4 -37 -7 -60 -6 -25 2 -43 -2 -43 -8 0 -6 -11 -11 -25 -11 -47 0
-148 -119 -102 -120 6 -1 59 -2 117 -3 l105 -2 -3 -35 c-1 -19 -5 -49 -7 -66
l-6 -32 42 9 c22 5 47 16 55 23 7 8 17 16 21 18 5 1 18 23 30 49 21 43 24 45
58 41 21 -3 35 0 35 7 0 6 7 11 16 11 19 0 64 40 64 56 0 7 7 15 16 18 8 3 14
14 12 23 -3 15 -18 19 -93 23 l-90 5 3 30 c2 17 8 34 13 40 5 5 9 60 9 122 0
111 0 113 -22 112 -13 -1 -31 -3 -40 -6z"/>
<path d="M13953 8056 c-13 -6 -23 -16 -23 -23 0 -7 -4 -13 -8 -13 -16 0 -62
-45 -62 -61 0 -8 -5 -20 -11 -26 -6 -6 -8 -16 -5 -22 9 -14 73 -14 81 -1 10
17 281 13 308 -4 12 -8 40 -14 61 -13 23 1 41 -4 44 -11 5 -16 106 -16 133 1
43 25 89 74 91 97 2 19 -3 25 -29 32 -19 5 -33 15 -33 23 0 13 -36 15 -245 15
-157 0 -245 4 -245 10 0 13 -28 11 -57 -4z"/>
<path d="M3399 7998 c-1 -7 -2 -25 -3 -39 0 -14 -9 -34 -19 -44 -13 -12 -17
-27 -13 -45 5 -26 2 -28 -36 -33 -22 -3 -44 -10 -47 -14 -3 -5 -14 -12 -23
-16 -10 -3 -18 -13 -18 -21 0 -7 -7 -16 -15 -20 -18 -7 -20 -55 -2 -57 6 -1
42 -1 78 1 l67 2 -5 -78 -6 -77 43 6 c24 3 47 13 52 21 6 11 18 14 43 10 42
-6 58 18 53 79 l-3 42 36 0 c34 0 109 32 109 46 0 4 13 9 29 12 31 6 42 38 31
87 -5 21 -12 25 -48 28 -28 2 -47 -2 -58 -12 -8 -9 -24 -16 -34 -16 -10 0 -22
-4 -25 -10 -3 -5 -18 -10 -32 -10 -20 0 -24 4 -18 18 24 63 17 112 -21 136
-19 13 -29 15 -39 6 -9 -8 -15 -8 -20 0 -9 14 -55 13 -56 -2z"/>
<path d="M15140 8001 c0 -6 -7 -11 -15 -11 -8 0 -19 -9 -25 -20 -6 -11 -17
-20 -25 -20 -8 0 -15 -7 -15 -15 0 -8 -4 -15 -10 -15 -5 0 -10 -11 -10 -23 0
-13 -9 -32 -20 -42 -11 -10 -20 -30 -20 -45 0 -14 -4 -30 -9 -35 -5 -6 -11
-28 -13 -50 -3 -39 -4 -40 -43 -40 -22 -1 -50 3 -62 7 -29 10 -77 -5 -106 -34
-14 -13 -34 -31 -46 -40 -26 -22 -29 -74 -3 -82 9 -3 61 -5 115 -5 54 0 100
-1 102 -3 7 -6 -26 -92 -41 -109 -8 -8 -14 -23 -14 -32 0 -9 -4 -19 -10 -22
-16 -10 -12 -62 6 -69 29 -11 43 -6 77 29 19 19 39 35 46 35 6 0 11 4 11 10 0
5 10 9 22 7 19 -2 23 5 29 38 5 22 8 61 8 88 1 50 -2 47 76 77 11 4 42 12 70
16 41 7 51 14 59 35 5 14 6 38 2 53 -5 20 -12 26 -34 26 -15 0 -32 -4 -38 -9
-8 -8 -51 -15 -80 -12 -14 1 0 84 21 123 8 14 15 33 15 41 0 9 4 17 10 19 5 2
11 32 12 68 3 61 2 65 -19 68 -13 2 -23 -1 -23 -7z"/>
<path d="M15576 7994 c-3 -9 -6 -27 -6 -40 0 -13 -5 -24 -11 -24 -16 0 -79
-71 -79 -89 0 -10 -5 -22 -12 -29 -7 -7 -8 -16 -2 -24 6 -7 11 -52 13 -100 2
-71 -1 -90 -15 -107 -10 -12 -24 -21 -31 -21 -7 0 -13 -7 -13 -15 0 -8 -4 -15
-9 -15 -5 0 -12 -23 -16 -50 -4 -31 -11 -50 -18 -47 -6 2 -16 0 -22 -5 -62
-49 -75 -62 -80 -81 -3 -12 -11 -32 -17 -44 -21 -42 -6 -51 64 -41 34 6 65 14
66 19 2 5 9 9 16 9 6 0 23 13 36 30 14 16 30 29 35 30 6 0 19 13 29 29 17 24
29 30 75 36 58 7 131 33 131 47 0 4 9 8 20 8 11 0 23 7 26 15 4 8 10 15 15 15
17 0 109 44 109 52 0 4 6 8 14 8 8 0 21 6 28 13 7 7 21 16 31 20 9 3 17 13 17
22 0 8 4 15 9 15 5 0 12 17 16 37 4 21 12 41 18 45 13 8 22 106 13 153 -6 32
-10 35 -41 35 -45 0 -102 -38 -110 -72 -4 -16 -10 -28 -14 -28 -5 0 -11 -18
-14 -40 -4 -34 -16 -51 -70 -103 -85 -80 -88 -83 -120 -91 -15 -3 -27 -11 -27
-16 0 -6 -7 -10 -16 -10 -15 0 -15 2 -2 23 8 12 18 53 21 92 4 38 11 71 17 73
6 2 10 53 10 129 0 108 -2 128 -17 139 -25 18 -60 17 -67 -2z"/>
<path d="M12546 7974 c-9 -8 -33 -18 -53 -20 -21 -3 -49 -11 -63 -17 -67 -31
-236 -194 -246 -237 -3 -14 -11 -36 -17 -49 -17 -34 -16 -273 1 -278 6 -3 12
-13 12 -24 0 -11 7 -22 15 -25 8 -4 15 -12 15 -20 0 -8 9 -14 20 -14 11 0 20
-4 20 -10 0 -5 11 -12 24 -16 14 -3 27 -12 30 -20 3 -8 15 -14 26 -14 11 0 32
-7 46 -16 21 -15 44 -16 152 -11 74 4 128 10 130 16 2 6 13 11 23 11 11 0 37
9 57 19 20 11 53 27 72 35 51 22 90 60 90 87 0 56 -100 110 -113 60 -2 -10
-18 -24 -36 -32 -17 -8 -31 -20 -31 -26 0 -10 -35 -13 -144 -13 -119 0 -145 3
-150 15 -3 8 -16 15 -30 15 -43 0 -38 17 6 23 24 3 44 10 46 16 2 6 19 13 38
17 19 3 34 10 34 15 0 5 6 9 13 9 12 0 26 9 74 50 7 5 15 10 18 10 9 0 75 71
75 81 0 5 5 9 10 9 6 0 10 7 10 15 0 8 9 23 20 32 11 10 20 27 20 40 0 12 5
25 10 28 6 3 10 44 10 91 0 49 -4 84 -10 84 -5 0 -10 9 -10 20 0 11 -7 20 -15
20 -8 0 -23 9 -32 20 -14 16 -30 20 -85 20 -47 0 -71 -5 -82 -16z m15 -164
c37 0 39 -1 39 -32 0 -21 -12 -48 -30 -72 -17 -22 -30 -48 -30 -58 0 -10 -4
-18 -10 -18 -5 0 -10 -7 -10 -16 0 -9 -9 -18 -20 -21 -11 -3 -20 -9 -20 -14 0
-5 -11 -9 -24 -9 -15 0 -26 -7 -29 -21 -5 -17 -12 -20 -49 -17 -39 3 -43 5
-40 28 2 14 8 27 13 28 5 2 9 17 9 33 0 16 8 37 18 47 9 10 24 31 32 47 22 44
83 106 98 100 8 -3 31 -5 53 -5z"/>
<path d="M10750 7960 c-30 -5 -101 -8 -157 -9 -62 -1 -103 -5 -103 -11 0 -5
-11 -10 -24 -10 -37 0 -56 -26 -56 -75 l0 -43 49 -7 c28 -4 55 -13 62 -21 7
-9 32 -14 70 -14 32 0 61 -4 64 -10 9 -14 151 -12 177 3 39 22 99 88 96 105
-2 11 -15 18 -36 20 -29 3 -32 6 -32 38 0 23 -5 34 -14 34 -8 0 -20 2 -28 4
-7 1 -38 0 -68 -4z"/>
<path d="M10017 7858 c-11 -8 -20 -32 -24 -65 -3 -29 -10 -53 -14 -53 -5 0 -9
-17 -10 -37 -1 -48 -13 -81 -23 -65 -14 24 -24 1 -13 -29 10 -26 9 -32 -6 -43
-9 -7 -17 -17 -17 -22 0 -5 -6 -21 -13 -35 -8 -14 -17 -63 -21 -109 -4 -46
-10 -87 -15 -90 -4 -3 -11 -41 -15 -85 -4 -44 -11 -81 -17 -83 -5 -2 -9 -12
-9 -22 0 -24 -48 -120 -61 -120 -5 0 -9 -6 -9 -14 0 -20 -33 -76 -45 -76 -5 0
-29 -18 -53 -40 -51 -48 -68 -104 -35 -114 23 -7 53 2 53 15 0 5 5 9 10 9 6 0
19 9 30 20 23 23 40 26 40 6 0 -8 8 -16 18 -18 39 -8 62 5 88 51 15 25 31 49
36 52 5 3 11 23 14 45 3 21 10 48 15 59 5 11 10 35 12 54 l2 35 79 0 c54 1 81
5 84 14 2 6 9 12 16 12 6 0 19 8 28 18 58 59 68 60 68 9 0 -16 10 -43 22 -59
l21 -30 90 4 c58 3 92 9 95 16 2 7 9 12 16 12 14 0 47 24 84 62 47 47 52 56
52 88 0 35 -17 39 -55 14 -27 -18 -28 -17 -25 38 3 64 -6 78 -51 78 -39 0 -39
0 -39 -38 0 -29 -6 -44 -25 -60 -14 -12 -27 -22 -30 -22 -3 0 -5 47 -5 104 0
74 4 106 12 108 9 3 13 40 13 134 l0 129 -42 3 c-34 3 -42 0 -48 -17 -3 -12
-11 -21 -16 -21 -5 0 -9 -7 -9 -15 0 -8 -9 -23 -20 -32 -14 -12 -20 -30 -20
-59 0 -37 -23 -101 -40 -114 -4 -3 -10 -27 -14 -54 -3 -27 -13 -57 -21 -66 -8
-9 -15 -20 -15 -23 0 -11 -39 -47 -50 -47 -5 0 -10 -7 -10 -15 0 -22 -47 -19
-52 3 -8 28 3 177 13 180 5 2 9 16 9 32 0 16 8 36 18 46 15 15 17 39 17 183
l0 166 -25 3 c-14 2 -33 -3 -43 -10z"/>
<path d="M13937 7823 c-4 -3 -7 -21 -7 -39 0 -18 -7 -40 -16 -48 -12 -13 -17
-48 -21 -166 -3 -83 -9 -150 -14 -150 -4 0 -10 -13 -14 -30 -4 -16 -11 -30
-15 -30 -5 0 -12 -16 -16 -35 -3 -19 -10 -35 -14 -35 -4 0 -12 -23 -17 -51
-10 -47 -9 -51 11 -58 23 -9 47 -4 58 12 3 6 29 9 57 8 35 -1 51 3 52 11 3 48
8 63 23 73 10 5 31 22 48 38 18 15 37 27 44 27 7 0 19 6 26 13 22 20 98 58 98
50 0 -5 -13 -23 -30 -41 -24 -26 -30 -42 -30 -77 0 -24 -4 -47 -10 -50 -6 -3
-10 -48 -10 -99 0 -103 4 -111 61 -122 19 -4 38 -13 42 -21 6 -10 38 -13 130
-13 104 0 128 3 161 20 45 25 116 95 116 115 0 8 5 15 10 15 6 0 10 7 10 15 0
23 -68 19 -120 -6 -35 -17 -55 -20 -96 -15 -34 4 -55 2 -60 -5 -5 -8 -9 -8
-14 1 -4 7 -25 16 -46 19 -20 3 -39 12 -42 19 -6 18 142 17 157 -2 23 -28 48
-25 84 11 65 63 89 116 90 200 2 105 0 107 -176 100 l-138 -6 6 30 c4 17 13
42 21 57 8 15 14 35 14 44 0 9 4 18 10 20 5 2 10 31 11 65 1 49 -3 68 -20 92
-24 33 -48 40 -57 16 -4 -8 -13 -15 -20 -15 -8 0 -17 -7 -20 -15 -4 -8 -10
-15 -16 -15 -25 0 -38 -31 -38 -90 l0 -61 -65 -65 c-36 -36 -65 -69 -65 -74 0
-6 -5 -10 -11 -10 -7 0 -18 -8 -25 -17 -12 -16 -13 -15 -14 13 0 16 4 34 10
40 5 5 10 64 11 131 1 91 5 125 15 134 8 6 14 27 14 45 l0 34 -63 0 c-35 0
-67 -3 -70 -7z"/>
<path d="M13480 7799 c0 -7 -16 -27 -35 -46 -19 -19 -35 -40 -35 -48 0 -8 -5
-15 -10 -15 -6 0 -10 -6 -9 -12 5 -44 1 -48 -63 -48 -65 0 -81 -9 -136 -75
-36 -43 18 -79 123 -82 39 -1 74 -2 79 -2 4 -1 -3 -16 -18 -35 -20 -27 -26
-46 -26 -84 0 -30 -5 -52 -12 -54 -6 -2 -8 -10 -4 -16 9 -14 76 -16 76 -2 0 6
6 10 12 10 19 0 79 72 85 103 3 15 10 30 14 33 5 3 9 14 9 25 0 14 7 19 28 19
17 0 38 12 56 30 16 17 33 30 38 30 4 0 8 6 8 14 0 8 11 17 24 20 27 7 41 35
31 66 -5 17 -15 20 -64 20 -32 0 -61 -3 -65 -7 -3 -4 -15 -8 -26 -10 -15 -2
-20 3 -20 21 0 14 5 28 10 31 6 3 10 30 10 60 0 39 -4 54 -16 59 -26 10 -64 7
-64 -5z"/>
<path d="M6003 7704 c-8 -21 4 -99 19 -124 11 -17 11 -22 0 -29 -10 -6 -13
-27 -11 -72 l3 -64 -73 -1 c-80 -1 -90 -7 -83 -54 4 -28 8 -30 44 -30 l40 0
-31 -31 c-17 -17 -31 -39 -31 -50 0 -10 0 -22 0 -26 0 -5 30 -10 67 -13 61 -4
68 -7 65 -25 -1 -11 -5 -46 -9 -77 l-6 -58 34 0 c51 0 115 63 124 122 l7 44
61 -8 c66 -8 117 -2 117 13 0 5 6 9 13 10 18 0 78 79 75 98 -2 11 -18 18 -48
21 -41 5 -45 7 -42 31 4 37 -16 50 -63 39 -22 -5 -57 -10 -77 -10 l-38 0 0
100 c0 60 4 100 10 100 6 0 10 16 10 35 0 24 -5 35 -14 35 -8 0 -16 -4 -18 -9
-1 -5 -15 -13 -30 -16 -24 -6 -28 -4 -28 15 0 41 -73 70 -87 34z"/>
<path d="M8570 7713 c-18 -8 -37 -23 -58 -47 -9 -10 -32 -33 -49 -51 -18 -17
-33 -37 -33 -44 0 -6 -4 -11 -9 -11 -5 0 -12 -23 -16 -51 -5 -39 -15 -58 -41
-85 -19 -19 -38 -34 -42 -34 -4 0 -16 -19 -27 -43 -11 -23 -24 -45 -28 -48
-11 -8 -10 -150 0 -158 5 -3 17 -24 28 -45 11 -22 28 -41 37 -44 10 -2 18 -8
18 -12 0 -5 10 -12 22 -16 12 -3 28 -13 36 -20 10 -10 45 -14 131 -14 l117 0
29 38 c31 39 138 142 148 142 3 0 3 -18 0 -41 -6 -40 -5 -41 23 -37 26 3 29 0
32 -29 2 -25 8 -33 23 -33 10 0 19 5 19 10 0 6 8 10 18 10 10 0 32 16 48 35
31 38 44 44 44 20 0 -18 67 -32 83 -16 8 8 10 54 9 141 -3 112 -1 130 12 130
9 0 16 4 16 10 0 6 16 8 38 5 66 -9 108 4 156 49 26 23 46 47 46 53 0 18 -36
52 -63 58 -15 4 -27 11 -27 15 0 4 -25 11 -55 15 -30 3 -55 11 -55 16 0 5 -20
9 -45 9 -25 0 -45 -4 -45 -10 0 -5 -7 -10 -15 -10 -8 0 -19 -9 -25 -20 -6 -11
-17 -20 -24 -20 -8 0 -17 -11 -20 -25 -7 -27 -26 -34 -26 -10 0 8 -3 15 -7 15
-5 0 -19 17 -33 38 -14 20 -27 39 -31 42 -3 3 -8 13 -12 23 -3 9 -16 17 -27
17 -11 0 -20 4 -20 9 0 5 -14 12 -31 16 -17 4 -33 13 -36 21 -3 8 -13 14 -23
14 -10 0 -20 6 -22 12 -5 14 -160 23 -188 11z m198 -209 c18 -5 22 -13 22 -45
0 -21 -4 -40 -9 -43 -4 -3 -11 -30 -14 -61 -3 -30 -13 -62 -21 -71 -9 -8 -16
-27 -16 -40 0 -14 -12 -36 -26 -49 -24 -22 -36 -25 -111 -25 -117 0 -123 4
-123 90 0 40 4 70 10 70 6 0 10 10 10 23 0 40 12 48 55 36 22 -6 43 -16 47
-23 8 -12 67 17 81 41 4 7 15 13 22 13 11 0 15 12 15 45 0 48 7 52 58 39z"/>
<path d="M520 7701 c0 -6 -7 -11 -15 -11 -8 0 -15 -7 -15 -16 0 -9 -9 -18 -20
-21 -11 -3 -20 -12 -20 -19 0 -8 -4 -14 -10 -14 -5 0 -13 -12 -16 -27 -4 -16
-12 -31 -17 -35 -6 -3 -14 -50 -18 -105 -15 -180 -31 -298 -41 -304 -6 -4 -13
-31 -16 -60 -2 -30 -8 -59 -13 -64 -4 -6 -11 -34 -15 -63 -3 -28 -10 -52 -14
-52 -4 0 -11 -11 -14 -25 -4 -14 -11 -25 -16 -25 -6 0 -10 -8 -10 -18 0 -11
-9 -27 -20 -37 -11 -10 -20 -24 -20 -31 0 -7 -17 -31 -39 -53 -40 -42 -55 -78
-45 -105 8 -20 48 -21 64 -1 7 8 19 15 26 15 8 0 14 -7 14 -15 0 -10 10 -15
34 -15 27 0 36 5 42 22 3 12 13 28 20 36 8 7 14 29 14 48 0 19 5 34 10 34 6 0
10 15 10 34 0 44 9 66 26 66 8 0 14 7 14 15 0 8 4 15 9 15 5 0 12 14 16 30 4
17 10 30 15 30 4 0 11 10 14 23 7 20 8 19 20 -13 11 -30 18 -35 47 -37 36 -3
69 18 82 50 3 9 12 17 19 17 7 0 22 14 33 30 11 16 23 30 28 30 4 0 7 -26 7
-59 0 -35 5 -62 13 -68 7 -6 47 -7 94 -4 79 6 83 7 133 51 149 132 151 134
157 178 5 40 4 42 -20 42 -16 0 -41 -15 -67 -40 -23 -22 -48 -40 -55 -40 -8 0
-16 -4 -20 -10 -3 -5 -13 -6 -21 -3 -9 3 -25 6 -37 7 -22 1 -22 2 -18 201 2
119 8 203 14 206 14 10 1 39 -18 39 -34 0 -155 -105 -155 -135 0 -7 -4 -15
-10 -17 -5 -1 -12 -37 -16 -78 -3 -41 -12 -88 -19 -105 -8 -16 -17 -47 -20
-67 -3 -21 -11 -38 -17 -38 -13 0 -2 188 12 205 5 6 10 58 11 115 1 85 -2 104
-15 112 -20 11 -21 38 -1 64 8 10 15 29 15 42 0 20 -4 23 -27 20 -25 -3 -28 0
-28 27 0 25 -4 30 -27 33 -16 2 -28 -1 -28 -7z"/>
<path d="M3060 7691 c-61 -13 -150 -126 -150 -190 0 -12 -4 -21 -9 -21 -5 0
-12 -13 -16 -30 -4 -16 -11 -30 -16 -30 -5 0 -9 -6 -9 -13 0 -7 -8 -20 -17
-29 -42 -39 -48 -54 -52 -127 -3 -58 1 -82 14 -108 10 -18 22 -33 27 -33 11 0
48 -38 48 -50 0 -5 6 -10 14 -10 8 0 16 -7 20 -15 3 -8 14 -15 25 -15 11 0 21
-6 23 -12 4 -10 53 -13 204 -13 209 0 207 -1 252 48 9 9 22 17 29 17 7 0 13 9
13 20 0 11 5 20 10 20 16 0 12 20 -11 52 -20 27 -26 30 -60 25 -21 -3 -46 -12
-54 -21 -12 -12 -36 -16 -89 -16 -68 0 -174 14 -184 25 -6 6 19 30 41 38 9 3
17 11 17 17 0 5 4 10 9 10 5 0 24 15 43 33 19 17 47 42 61 53 14 12 36 40 47
62 12 22 28 46 36 53 21 17 20 162 -2 183 -8 9 -19 16 -22 16 -4 0 -23 14 -41
31 -29 26 -43 31 -100 34 -36 2 -82 0 -101 -4z m122 -243 c-2 -13 -8 -24 -13
-26 -5 -2 -9 -10 -9 -17 0 -7 -8 -23 -19 -36 -15 -19 -27 -23 -59 -21 -42 4
-82 -14 -82 -35 0 -7 -4 -13 -9 -13 -5 0 -16 -3 -25 -6 -11 -4 -16 -1 -16 10
0 9 4 16 9 16 5 0 11 22 15 49 3 27 13 62 21 78 l15 30 88 -3 c85 -3 87 -3 84
-26z"/>
<path d="M5000 7682 c-5 -2 -10 -14 -10 -27 0 -13 -7 -31 -16 -39 -22 -22 -14
-69 14 -81 24 -10 24 -15 24 -137 0 -63 -2 -69 -35 -103 -19 -19 -39 -35 -46
-35 -6 0 -11 -3 -11 -7 0 -5 -17 -19 -37 -33 -20 -14 -48 -35 -61 -47 -14 -13
-31 -23 -38 -23 -7 0 -18 -8 -23 -17 -9 -16 -10 -16 -11 4 0 12 6 23 13 25 14
5 23 314 12 404 -6 48 -8 52 -36 56 -40 6 -62 -16 -57 -54 4 -25 0 -31 -38
-50 -31 -15 -45 -29 -49 -49 -4 -15 -13 -33 -21 -40 -13 -10 -13 -14 0 -28 11
-13 16 -63 22 -220 8 -215 12 -230 55 -203 10 7 25 12 33 12 8 0 22 7 31 16 8
9 33 18 55 21 22 3 40 9 40 14 0 4 14 11 32 14 39 9 40 10 146 117 105 105
134 140 146 176 5 15 14 30 20 34 18 12 15 221 -4 240 -8 9 -24 28 -34 42 -16
23 -26 26 -63 24 -23 -2 -47 -4 -53 -6z"/>
<path d="M4083 7593 c-18 -2 -33 -8 -33 -14 0 -5 -6 -9 -12 -9 -21 0 -78 -72
-78 -98 0 -17 4 -23 15 -18 12 4 15 -4 15 -44 0 -28 -4 -50 -10 -50 -5 0 -10
4 -10 9 0 4 -36 9 -80 10 -51 1 -80 -2 -80 -8 0 -6 -6 -11 -13 -11 -8 0 -24
-9 -37 -20 -13 -11 -27 -20 -32 -20 -4 0 -8 -7 -8 -15 0 -8 -5 -15 -11 -15 -6
0 -9 -12 -7 -27 l3 -28 113 -3 c98 -2 112 -5 113 -20 2 -30 -3 -57 -12 -66 -5
-6 -9 -27 -9 -48 0 -43 14 -49 54 -23 23 15 24 14 29 -15 5 -24 12 -30 32 -30
14 0 25 5 25 10 0 6 6 10 14 10 8 0 17 14 21 33 4 17 11 37 15 42 5 6 10 30
12 55 l4 45 54 3 c30 2 59 9 65 16 6 7 31 16 58 20 26 4 47 11 47 17 0 5 7 9
15 9 21 0 55 41 55 67 0 20 -5 23 -35 23 -19 0 -35 -4 -35 -10 0 -5 -9 -10
-21 -10 -15 0 -19 5 -15 15 7 20 -57 21 -77 1 -7 -8 -36 -15 -63 -17 -47 -4
-49 -3 -45 21 1 14 6 27 11 30 4 3 9 29 12 59 3 29 10 56 15 60 19 12 22 40 7
56 -15 15 -20 15 -81 8z"/>
<path d="M11350 7589 c0 -8 -13 -26 -30 -41 -16 -14 -34 -38 -40 -52 l-10 -26
-218 0 -219 0 -13 -25 c-10 -19 -11 -28 -3 -36 9 -9 3 -19 -20 -40 -17 -16
-35 -29 -39 -29 -5 0 -8 -15 -8 -34 l0 -33 113 -8 c61 -4 118 -12 125 -18 10
-8 22 -6 45 8 18 10 35 22 38 27 3 5 68 7 145 6 127 -3 136 -4 107 -16 -18 -8
-33 -18 -33 -22 0 -5 -9 -12 -21 -15 -17 -6 -20 -14 -17 -48 3 -39 5 -42 34
-45 20 -2 36 4 49 18 20 22 44 29 28 8 -6 -7 -13 -25 -17 -41 -8 -32 15 -47
45 -29 10 7 30 12 43 12 14 0 29 6 33 13 4 6 17 17 27 23 11 6 24 19 30 29 19
32 45 54 71 61 14 3 25 10 25 15 0 5 18 12 40 15 22 4 40 10 40 14 0 4 19 10
41 14 28 4 50 16 67 36 15 17 32 30 39 30 7 0 13 9 13 20 0 11 5 20 10 20 6 0
10 8 10 19 0 19 -34 31 -86 31 -13 0 -24 4 -24 9 0 4 -18 11 -40 14 -22 3 -47
12 -55 21 -9 9 -23 16 -31 16 -8 0 -14 4 -14 9 0 5 -16 12 -35 15 -19 4 -35
11 -35 16 0 4 -15 12 -32 15 -18 4 -38 11 -43 15 -6 5 -38 12 -73 16 -50 5
-62 4 -62 -7z"/>
<path d="M15970 7572 c-14 -9 -29 -22 -33 -29 -4 -7 -14 -13 -21 -13 -13 0
-46 -56 -46 -78 0 -12 -32 -74 -41 -82 -4 -3 -10 -20 -14 -37 -3 -18 -10 -33
-15 -33 -5 0 -12 -15 -15 -32 -4 -18 -11 -37 -15 -43 -4 -5 -11 -30 -15 -54
-4 -27 -17 -53 -31 -66 -13 -12 -24 -27 -24 -33 0 -6 -7 -15 -16 -20 -16 -9
-38 -97 -28 -113 12 -20 54 -7 91 26 91 85 103 99 103 121 0 13 4 24 9 24 5 0
12 11 15 24 4 18 11 23 25 19 10 -3 22 0 25 6 4 6 15 11 26 11 10 0 20 7 24
15 13 36 21 10 18 -60 -6 -108 7 -125 93 -125 36 0 65 4 65 9 0 5 12 12 26 15
14 4 38 18 52 32 15 13 35 27 45 30 9 3 17 12 17 20 0 8 9 22 20 31 11 10 20
23 20 30 0 12 20 18 43 14 5 -1 7 13 5 31 -2 24 -7 32 -18 28 -8 -2 -44 -6
-80 -8 -36 -2 -67 -8 -70 -12 -3 -5 -12 -10 -20 -12 -12 -2 -15 12 -16 71 -1
64 1 74 17 78 11 3 19 13 19 23 0 10 6 20 13 23 9 3 9 9 0 28 -7 13 -17 36
-23 52 -8 22 -15 27 -44 27 -36 0 -46 -15 -46 -72 0 -16 -4 -28 -8 -28 -5 0
-14 -11 -20 -25 -7 -14 -20 -29 -29 -32 -10 -4 -29 -20 -44 -35 -14 -16 -28
-25 -32 -22 -11 11 -8 64 3 64 6 0 10 11 10 25 0 16 14 40 35 62 27 28 35 44
35 74 0 20 -3 44 -6 53 -8 21 -52 20 -84 -2z"/>
<path d="M2101 7548 c-17 -11 -31 -24 -31 -29 0 -5 -6 -9 -12 -9 -7 0 -29 -17
-48 -38 -32 -33 -41 -37 -90 -39 -30 -1 -93 -6 -140 -12 -47 -5 -140 -10 -207
-10 -137 -1 -183 -16 -183 -59 0 -27 20 -50 38 -44 7 2 12 -5 12 -17 0 -12 -4
-21 -10 -21 -5 0 -10 -7 -10 -15 0 -13 26 -15 178 -15 98 0 182 4 188 9 5 5
97 11 204 14 107 3 209 9 225 13 l30 7 -31 -26 c-18 -15 -35 -27 -38 -27 -4 0
-23 -15 -41 -34 -37 -35 -45 -70 -20 -80 19 -7 73 3 81 16 3 5 11 4 19 -2 9
-8 15 -8 20 0 3 5 15 10 25 10 10 0 23 6 27 13 4 6 44 30 88 51 44 22 82 43
85 46 3 4 17 10 33 14 15 3 27 11 27 16 0 6 8 10 18 10 43 0 54 47 25 112 -11
24 -26 41 -40 44 -13 4 -23 10 -23 14 0 5 -14 12 -32 15 -17 4 -38 14 -46 21
-7 8 -29 14 -47 14 -19 0 -36 4 -39 9 -3 5 -36 12 -73 16 -38 4 -72 10 -78 15
-23 17 -54 16 -84 -2z"/>
<path d="M7512 7362 c-18 -2 -36 -10 -39 -18 -3 -8 -10 -14 -15 -14 -15 0 -47
-43 -48 -62 0 -10 -4 -18 -9 -18 -4 0 -11 -35 -15 -77 -3 -42 -10 -79 -15 -83
-5 -3 -13 -18 -16 -33 -4 -15 -11 -27 -15 -27 -5 0 -15 -3 -24 -6 -13 -5 -16
2 -16 40 0 25 4 46 10 46 5 0 12 23 16 50 4 28 10 50 15 50 5 0 9 27 9 60 0
56 -2 60 -23 60 -35 0 -127 -76 -127 -105 0 -8 -6 -15 -14 -15 -13 0 -46 -56
-46 -79 0 -6 -4 -11 -10 -11 -5 0 -10 -6 -10 -14 0 -7 -9 -25 -20 -39 -13 -16
-20 -40 -20 -69 0 -87 -59 -186 -111 -188 -9 0 -39 -23 -68 -51 -41 -42 -51
-58 -51 -85 0 -21 5 -34 13 -34 21 0 67 24 67 35 0 6 20 21 45 35 25 14 45 28
45 32 0 8 59 38 76 38 7 0 15 -6 18 -12 5 -10 7 -10 12 0 3 6 14 12 24 12 13
0 19 11 24 40 7 45 32 75 61 77 70 2 162 18 173 30 9 8 39 13 88 13 43 0 74 4
74 10 0 6 9 10 20 10 11 0 23 7 26 15 4 8 13 15 20 15 8 0 17 6 20 14 3 8 15
17 27 20 22 5 60 69 49 81 -3 3 -28 5 -56 5 -72 0 -79 8 -84 87 -3 44 -10 75
-20 86 -9 10 -15 31 -14 47 4 33 -2 37 -46 32z"/>
<path d="M5146 7263 c-23 -6 -30 -12 -106 -86 -33 -32 -60 -67 -60 -78 0 -10
-4 -19 -10 -19 -14 0 -12 -107 2 -149 7 -20 21 -42 30 -49 10 -7 18 -19 18
-25 0 -16 52 -47 79 -47 12 0 33 -7 47 -16 21 -14 42 -16 131 -11 58 3 109 10
112 16 3 5 23 12 44 16 20 4 37 11 37 16 0 5 8 9 18 9 32 0 62 34 62 70 l0 32
-147 -6 c-148 -6 -223 0 -230 19 -2 6 19 10 48 11 28 0 54 5 57 11 4 6 25 14
46 19 22 4 50 18 63 32 20 22 23 35 23 103 0 58 -4 82 -15 91 -9 7 -23 20 -32
28 -12 11 -42 15 -107 16 -50 1 -100 -1 -110 -3z"/>
<path d="M2136 6479 c-3 -17 -6 -47 -6 -65 0 -28 -5 -35 -25 -40 -21 -5 -25
-12 -25 -46 0 -30 6 -45 24 -59 19 -15 24 -31 30 -91 4 -40 11 -75 16 -76 6
-2 17 -10 25 -19 22 -21 69 -19 95 5 20 19 22 28 17 73 -4 28 -12 57 -18 65
-9 11 -8 14 2 15 8 0 39 2 69 3 30 2 56 8 58 15 2 6 10 18 18 25 21 21 17 54
-8 81 -19 20 -34 25 -88 27 l-65 3 -3 38 c-3 48 -32 77 -76 77 -30 0 -34 -4
-40 -31z"/>
<path d="M9330 6470 c0 -5 -11 -12 -25 -16 -14 -3 -25 -10 -25 -15 0 -5 -7 -9
-15 -9 -8 0 -15 -7 -15 -15 0 -9 -8 -19 -17 -22 -25 -9 -42 -34 -43 -61 0 -12
-8 -26 -17 -29 -34 -13 -43 -32 -43 -87 0 -44 -4 -60 -20 -73 -11 -10 -20 -28
-20 -40 0 -13 -4 -23 -9 -23 -5 0 -11 -14 -15 -31 -3 -16 -13 -37 -21 -45 -8
-9 -15 -26 -15 -39 0 -13 -4 -25 -9 -27 -6 -1 -12 -27 -14 -56 -5 -63 -19 -72
-28 -17 -4 21 -12 41 -18 43 -6 2 -11 15 -11 28 0 14 -7 27 -15 30 -8 4 -15
15 -15 25 0 10 -6 19 -14 19 -8 0 -17 11 -20 25 -4 14 -11 25 -16 25 -6 0 -10
8 -10 18 0 10 -7 27 -15 38 -16 21 -20 74 -5 74 5 0 12 16 16 37 5 28 3 39
-10 48 -9 7 -16 22 -16 33 0 12 -8 23 -19 27 -11 3 -21 16 -23 28 -2 18 -10
23 -44 25 -35 3 -46 -2 -70 -27 -16 -17 -33 -31 -39 -31 -36 -1 -72 -124 -41
-142 9 -5 16 -22 16 -40 0 -17 6 -39 14 -47 8 -9 16 -34 18 -56 3 -36 1 -40
-21 -41 -13 -1 -28 -9 -33 -18 -5 -9 -16 -16 -25 -16 -9 0 -21 -8 -28 -17 -12
-16 -16 -16 -40 -3 -15 8 -29 26 -32 42 -3 15 -9 28 -14 28 -12 0 -11 147 1
155 6 3 10 19 10 36 0 22 -5 29 -20 29 -11 0 -20 -4 -20 -10 0 -5 -9 -10 -19
-10 -11 0 -26 -7 -35 -15 -18 -18 -30 -20 -23 -2 9 24 -12 57 -35 57 -45 0
-53 -15 -60 -107 -4 -48 -11 -139 -16 -201 -5 -61 -15 -118 -21 -126 -8 -10
-9 -16 -1 -21 13 -8 13 -132 0 -140 -6 -3 -10 -48 -10 -100 0 -93 1 -95 25
-101 23 -6 36 -24 16 -24 -5 0 -11 -9 -14 -20 -3 -11 -12 -20 -21 -20 -9 0
-16 -8 -16 -20 0 -11 -4 -20 -10 -20 -5 0 -10 -9 -10 -20 0 -13 7 -20 20 -20
11 0 20 5 20 10 0 6 8 10 18 10 21 0 47 20 104 77 25 25 38 33 38 23 0 -9 -6
-22 -12 -28 -10 -10 -14 -110 -16 -415 l-2 -402 -25 -3 c-14 -2 -25 -9 -25
-17 0 -23 25 -62 38 -57 17 5 15 -25 -3 -32 -8 -3 -15 -12 -15 -20 0 -8 -4
-16 -10 -18 -6 -2 -6 -32 0 -86 5 -46 10 -182 11 -303 1 -174 4 -222 15 -234
8 -7 14 -29 14 -47 0 -18 7 -46 15 -62 8 -15 15 -36 15 -45 0 -9 6 -25 14 -36
7 -11 17 -50 20 -87 4 -38 12 -68 17 -68 5 0 9 -13 9 -29 0 -16 6 -31 13 -34
10 -4 16 -38 21 -117 3 -62 11 -120 16 -130 6 -10 10 -86 10 -169 l0 -151 30
0 30 0 0 -150 c0 -120 3 -150 14 -150 21 0 26 -99 26 -560 0 -436 -1 -450 -38
-450 -23 0 -142 -115 -142 -137 0 -5 -9 -16 -20 -26 -11 -9 -20 -23 -20 -31 0
-8 -4 -16 -9 -18 -5 -1 -13 -30 -16 -64 -8 -70 6 -94 55 -94 16 0 30 -5 32
-11 2 -6 36 -12 78 -14 l75 -3 -4 -38 c-1 -22 -7 -42 -12 -45 -5 -3 -12 -42
-16 -88 -3 -45 -10 -84 -15 -87 -11 -7 -10 -64 2 -64 6 0 10 -7 10 -15 0 -11
12 -15 45 -15 43 0 46 2 52 30 5 27 23 43 23 21 0 -20 82 8 109 38 15 17 33
31 39 31 7 0 12 6 12 14 0 8 6 16 13 18 8 3 12 34 13 104 l2 99 31 3 c17 2 31
7 31 11 0 5 24 12 52 15 29 4 55 12 58 17 4 5 71 14 151 19 233 16 350 28 362
38 7 5 35 13 62 17 28 4 56 12 64 18 10 9 301 13 1120 15 630 1 1115 6 1126
11 11 5 53 12 93 15 41 3 79 9 85 14 7 5 68 13 137 16 69 4 129 11 135 15 5 5
45 11 89 13 43 3 81 10 85 15 3 6 22 14 41 18 19 4 41 12 49 19 10 8 124 11
396 10 330 -1 386 -4 413 -18 20 -10 56 -16 105 -16 47 0 85 -6 103 -15 25
-13 124 -15 723 -15 381 1 695 -1 697 -3 2 -2 -16 -25 -41 -51 -25 -27 -45
-52 -45 -57 0 -5 -4 -9 -9 -9 -13 0 -231 -218 -231 -231 0 -5 -4 -9 -10 -9
-29 0 -55 -51 -51 -97 1 -17 48 -17 53 -1 3 8 26 11 72 10 66 -3 67 -2 77 28
6 16 15 30 20 30 5 0 9 6 9 13 1 25 304 317 329 317 4 0 16 9 26 20 10 11 24
20 32 20 7 0 13 5 13 10 0 6 7 10 15 10 8 0 23 9 32 20 10 11 27 20 40 20 12
0 25 4 28 10 3 5 25 10 48 10 55 0 68 10 74 56 4 33 0 44 -25 72 -16 17 -33
32 -39 32 -5 0 -23 13 -39 30 -16 16 -33 30 -37 30 -9 0 -31 17 -55 43 -9 9
-22 17 -29 17 -7 0 -13 5 -13 10 0 6 -6 10 -13 10 -7 0 -20 9 -30 20 -9 11
-24 20 -32 20 -8 0 -15 5 -15 10 0 6 -6 10 -13 10 -13 0 -147 132 -147 145 0
4 -6 12 -12 19 -7 8 -20 24 -28 36 -15 22 -25 33 -54 58 -18 14 -46 16 -46 2
0 -5 -7 -10 -15 -10 -9 0 -18 -7 -21 -15 -4 -8 -17 -15 -29 -15 -34 0 -55 -10
-55 -26 0 -8 -6 -14 -13 -14 -7 0 -23 -13 -37 -30 -14 -16 -30 -30 -37 -30 -8
0 -13 -13 -13 -33 0 -24 8 -40 31 -60 17 -15 36 -27 43 -27 6 0 23 -26 38 -58
27 -61 44 -74 117 -92 23 -6 40 -14 37 -17 -10 -10 -241 -3 -244 7 -5 15 -775
13 -789 -1 -7 -7 -56 -14 -110 -16 -54 -2 -107 -9 -118 -14 -13 -6 -72 -8
-145 -5 -69 3 -309 10 -535 16 -291 7 -417 14 -434 22 -36 19 -1138 19 -1150
0 -5 -9 -47 -15 -132 -19 -68 -3 -128 -9 -134 -13 -5 -4 -44 -10 -85 -14 -41
-4 -77 -12 -81 -18 -9 -14 -155 -24 -497 -36 -163 -6 -225 -11 -231 -20 -4 -7
-34 -15 -67 -18 -32 -3 -68 -9 -79 -14 -11 -5 -60 -11 -109 -13 l-89 -4 8 66
c4 36 8 84 8 106 2 39 1 40 -29 38 -79 -6 -144 -82 -144 -169 0 -45 -3 -52
-22 -57 -24 -6 -357 -11 -698 -12 l-205 0 4 44 c1 25 9 51 17 58 8 9 14 35 14
67 0 28 6 58 13 64 9 10 12 97 12 367 0 270 -3 357 -12 366 -7 7 -13 28 -13
47 0 19 -6 48 -14 65 -8 18 -17 63 -20 102 -3 38 -10 71 -16 73 -5 2 -10 24
-10 49 0 25 -6 59 -14 76 -8 18 -17 70 -20 116 -3 47 -10 89 -16 95 -5 5 -10
47 -10 92 l0 82 63 4 c62 4 71 9 137 70 10 9 28 19 40 23 51 16 76 65 51 104
-10 16 -185 17 -227 1 -15 -6 -29 -9 -31 -6 -3 2 -4 78 -4 169 1 136 -1 166
-14 177 -8 7 -15 24 -15 37 0 14 -6 37 -14 51 -8 15 -18 48 -21 75 -3 26 -10
47 -16 47 -5 0 -9 13 -9 29 0 16 -6 31 -14 34 -7 3 -16 25 -19 48 -3 24 -11
45 -16 47 -6 2 -11 17 -11 33 0 18 -5 29 -14 29 -11 0 -16 25 -21 103 -4 57
-6 111 -4 121 4 16 31 17 366 16 236 0 364 3 368 10 9 14 67 12 88 -4 9 -7 17
-20 17 -28 0 -8 15 -29 33 -46 45 -43 57 -59 57 -75 0 -8 7 -20 15 -27 8 -7
15 -21 15 -32 0 -10 7 -21 15 -24 9 -4 15 -19 15 -38 0 -17 7 -44 15 -60 10
-19 15 -58 15 -123 0 -61 5 -106 14 -126 10 -21 16 -76 18 -159 2 -85 7 -131
16 -140 6 -6 12 -24 12 -38 0 -14 5 -31 12 -38 9 -9 9 -12 0 -12 -7 0 -12 -7
-12 -15 0 -16 -3 -17 -85 -17 -75 0 -72 -1 -79 27 -6 22 -11 25 -56 25 -27 0
-52 -4 -55 -10 -3 -5 -24 -10 -45 -10 -21 0 -50 -4 -64 -10 -22 -8 -26 -16
-26 -50 0 -28 -6 -45 -20 -57 -11 -10 -20 -25 -20 -35 0 -10 -4 -18 -10 -18
-5 0 -10 -8 -10 -19 0 -17 8 -18 145 -15 79 3 150 6 157 8 7 3 30 7 50 11 46
7 75 22 113 58 39 35 50 34 52 -5 4 -72 19 -156 30 -169 6 -8 13 -63 15 -123
2 -74 8 -111 16 -114 7 -2 12 -19 12 -38 0 -24 5 -34 15 -34 19 0 19 -37 0
-56 -10 -10 -15 -35 -15 -74 0 -57 -1 -60 -39 -87 -44 -31 -51 -46 -51 -117 0
-39 -5 -53 -25 -72 -16 -15 -25 -34 -25 -53 0 -36 15 -48 36 -27 8 9 21 16 27
16 7 0 23 14 37 30 14 17 28 30 32 30 12 0 48 39 48 51 0 6 6 9 13 7 7 -3 13
-30 15 -74 2 -38 7 -73 13 -79 5 -5 9 -22 9 -37 0 -21 -5 -28 -20 -28 -11 0
-20 -4 -20 -9 0 -5 -9 -13 -20 -16 -11 -3 -20 -13 -20 -21 0 -8 -6 -14 -12
-14 -7 0 -23 -16 -36 -34 -22 -32 -23 -43 -21 -146 3 -150 7 -170 30 -170 11
0 19 5 19 10 0 14 58 12 62 -2 9 -26 38 2 38 37 0 23 7 41 20 52 16 14 20 30
20 79 l0 61 55 -5 c52 -4 54 -3 61 22 3 14 10 26 14 26 4 0 11 28 15 62 5 38
17 77 31 100 13 21 24 41 24 46 0 4 8 15 18 24 30 29 42 47 42 64 0 9 9 18 19
21 10 3 27 21 37 41 11 21 22 39 27 40 4 2 7 9 7 16 0 6 9 19 20 29 11 9 20
23 20 31 0 8 7 16 15 20 8 3 15 12 15 21 0 8 5 15 10 15 6 0 10 11 10 25 0 13
8 32 18 42 10 10 27 36 37 58 11 22 26 44 33 48 6 4 12 15 12 22 0 8 4 15 10
15 5 0 12 11 16 25 3 14 12 25 20 25 8 0 14 4 14 10 0 10 92 102 141 140 18
14 42 35 54 48 12 12 26 22 31 22 6 0 18 14 27 30 10 17 23 30 29 30 6 0 20
10 32 23 12 12 38 37 59 55 35 30 43 32 110 32 72 0 127 19 164 56 13 13 35
19 57 15 4 -1 13 3 20 8 6 5 59 13 116 17 58 4 110 10 115 14 6 4 29 11 53 15
l43 7 -3 41 -3 42 -60 -3 c-32 -1 -62 -6 -65 -11 -3 -4 -75 -11 -160 -14 -99
-3 -156 -9 -158 -16 -4 -11 -42 -16 -42 -5 0 9 199 204 208 204 4 0 30 24 58
53 27 28 66 63 84 76 19 14 39 30 43 38 4 7 15 13 22 13 8 0 15 5 15 10 0 6 6
10 13 10 7 0 17 8 24 18 6 11 27 27 47 36 20 9 36 21 36 26 0 5 8 11 19 15 10
3 45 31 77 63 33 31 72 64 88 72 15 8 32 22 37 32 5 10 15 18 22 18 7 0 23 14
37 30 14 17 31 30 38 30 17 0 24 6 150 132 59 60 113 108 120 108 6 0 12 5 12
10 0 6 7 10 15 10 8 0 23 9 32 20 10 11 28 20 40 20 13 0 23 5 23 10 0 6 6 10
13 10 7 0 20 9 30 20 9 11 26 20 37 20 11 0 20 4 20 10 0 5 11 12 24 16 14 3
27 12 30 20 3 8 12 14 21 14 8 0 15 5 15 10 0 6 6 10 14 10 8 0 22 8 32 18 15
15 43 17 206 20 103 2 188 8 188 13 0 5 11 9 24 9 14 0 31 7 39 15 13 13 145
15 999 17 859 3 987 5 1001 18 37 34 45 37 99 42 33 3 63 11 72 21 18 17 22
67 6 67 -5 0 -10 6 -10 14 0 15 -30 26 -70 26 -15 0 -32 6 -38 13 -18 17 -698
18 -733 0 -17 -8 -212 -13 -707 -16 -414 -3 -688 -9 -695 -15 -7 -5 -43 -12
-81 -15 -38 -3 -71 -9 -75 -15 -3 -5 -34 -13 -68 -17 -35 -4 -63 -10 -63 -15
0 -4 -28 -11 -62 -14 -35 -4 -65 -11 -68 -15 -3 -5 -22 -11 -42 -15 -31 -6
-38 -4 -38 9 0 38 -24 45 -146 45 -125 0 -143 -7 -144 -56 0 -29 17 -34 111
-34 78 0 104 -12 53 -24 -15 -4 -33 -14 -41 -21 -8 -8 -23 -15 -34 -15 -10 0
-19 -4 -19 -10 0 -5 -11 -10 -25 -10 -14 0 -33 -9 -42 -20 -10 -11 -25 -20
-35 -20 -9 0 -20 -4 -23 -10 -3 -5 -14 -10 -24 -10 -10 0 -26 -9 -36 -20 -10
-11 -26 -20 -37 -20 -10 0 -18 -4 -18 -9 0 -5 -10 -13 -22 -17 -13 -4 -25 -9
-28 -13 -11 -13 -70 -51 -80 -51 -5 0 -10 -4 -10 -10 0 -5 -6 -10 -13 -10 -8
0 -24 -9 -37 -20 -13 -11 -29 -20 -37 -20 -7 0 -13 -4 -13 -10 0 -5 -11 -12
-25 -16 -14 -3 -25 -10 -25 -15 0 -5 -4 -9 -10 -9 -5 0 -18 -8 -28 -17 -10
-10 -47 -43 -82 -73 -34 -30 -84 -76 -110 -102 -27 -27 -53 -48 -59 -48 -6 0
-11 -4 -11 -10 0 -11 -36 -50 -47 -50 -9 0 -103 -103 -103 -112 0 -5 -7 -8
-15 -8 -8 0 -15 -7 -15 -15 0 -8 -4 -15 -10 -15 -5 0 -10 -6 -10 -13 0 -7 -8
-20 -17 -28 -29 -26 -83 -87 -83 -93 0 -3 -12 -18 -27 -34 -16 -16 -35 -39
-43 -51 -8 -12 -27 -36 -42 -54 -16 -17 -28 -36 -28 -43 0 -7 -6 -17 -13 -21
-8 -4 -24 -24 -38 -43 -13 -19 -30 -39 -36 -43 -7 -4 -13 -13 -13 -18 0 -11
-25 -39 -34 -39 -3 0 -6 6 -6 13 0 19 -59 42 -73 28 -7 -7 -68 -11 -177 -11
l-166 0 -32 -29 c-29 -27 -39 -30 -113 -32 -60 -1 -83 2 -90 12 -11 18 -201
19 -207 1 -2 -7 -9 -12 -16 -12 -10 0 -13 36 -15 147 -1 81 -6 152 -11 158 -4
5 -11 40 -15 78 -4 37 -11 67 -15 67 -4 0 -10 52 -13 116 -4 64 -11 121 -16
128 -5 6 -12 32 -16 59 -4 26 -11 47 -15 47 -5 0 -11 23 -15 50 -4 28 -11 50
-16 50 -5 0 -9 7 -9 15 0 8 -9 23 -20 32 -11 10 -20 22 -20 29 0 12 -94 110
-127 132 -34 21 -28 32 16 32 48 0 57 12 41 50 -9 23 -21 31 -49 36 -20 4 -41
11 -48 16 -11 9 -158 14 -290 10 l-73 -2 0 -29 c0 -16 6 -33 13 -38 6 -6 86
-13 176 -16 90 -3 168 -10 172 -14 5 -5 -116 -10 -269 -11 -614 -6 -631 -7
-644 -19 -6 -7 -33 -13 -59 -13 l-46 0 -8 113 c-4 61 -12 115 -17 118 -20 13
-49 749 -29 749 5 0 11 -7 15 -15 4 -11 21 -15 60 -15 39 0 55 -4 60 -15 9
-23 82 -20 103 5 10 11 21 20 26 20 4 0 24 17 42 38 32 34 35 35 35 15 0 -18
6 -23 25 -23 14 0 25 5 25 10 0 6 5 10 10 10 6 0 10 -11 10 -24 0 -30 27 -41
76 -31 28 5 36 12 41 36 3 16 9 29 14 29 5 0 9 9 9 19 0 11 6 26 13 33 8 7 19
29 26 48 6 19 29 55 51 78 22 24 40 52 40 62 0 10 7 20 15 24 8 3 15 16 15 28
0 13 7 32 15 42 8 11 15 32 15 48 0 15 5 28 10 28 6 0 10 7 10 15 0 7 6 18 13
22 7 4 23 25 37 45 14 21 28 38 33 38 4 0 7 5 7 12 0 6 7 18 15 27 55 60 85
101 85 115 0 9 5 16 10 16 12 0 13 37 1 44 -19 12 -73 -8 -102 -36 -16 -16
-29 -26 -30 -21 -4 44 4 170 12 179 5 6 6 14 2 17 -10 11 -53 8 -53 -3z m-656
-495 c4 -14 11 -25 16 -25 6 0 10 -9 10 -20 0 -11 7 -20 15 -20 8 0 15 -9 15
-20 0 -11 7 -23 15 -26 8 -4 15 -14 15 -24 0 -10 7 -25 15 -34 8 -8 15 -23 15
-34 0 -11 7 -25 15 -32 17 -14 20 -30 5 -30 -5 0 -10 7 -10 16 0 8 -4 13 -9
10 -5 -3 -25 10 -45 29 -21 19 -44 35 -52 35 -8 0 -14 7 -14 15 0 8 -9 15 -19
15 -11 0 -21 5 -23 11 -2 5 -11 11 -20 13 -26 3 -30 12 -13 26 8 7 15 18 15
25 0 7 7 15 15 19 9 3 15 19 15 41 0 40 15 47 24 10z m3482 -1458 c-21 -18
-81 -74 -132 -124 -51 -51 -98 -93 -103 -93 -6 0 -25 -16 -44 -35 -19 -19 -39
-35 -46 -35 -6 0 -11 -3 -11 -7 0 -5 -17 -19 -37 -33 -21 -14 -56 -44 -79 -67
-22 -24 -46 -43 -52 -43 -7 0 -12 -4 -12 -10 0 -5 -4 -10 -10 -10 -11 0 -83
-53 -126 -94 -16 -14 -37 -29 -46 -32 -10 -3 -18 -10 -18 -15 0 -5 -7 -9 -15
-9 -9 0 -18 -7 -21 -15 -4 -8 -12 -15 -19 -15 -14 0 -105 -94 -105 -110 0 -5
-7 -10 -15 -10 -7 0 -18 -6 -22 -13 -4 -8 -26 -29 -48 -48 l-40 -34 40 49 c22
28 52 63 68 80 15 17 27 34 27 38 0 5 7 8 15 8 8 0 15 5 15 10 0 9 36 50 44
50 2 0 18 14 36 30 18 17 37 30 43 30 6 0 17 7 26 15 9 9 51 41 94 71 42 31
77 60 77 65 0 5 5 9 10 9 13 0 50 37 50 50 0 6 5 10 10 10 10 0 50 36 50 45 0
4 16 22 35 42 19 20 35 40 35 45 0 4 7 8 15 8 8 0 15 8 15 18 0 10 12 25 27
33 15 8 35 22 45 32 10 9 25 17 33 17 8 0 15 5 15 10 0 6 7 10 15 10 8 0 23 9
32 20 10 11 23 20 30 20 7 0 13 5 13 10 0 6 9 10 19 10 11 0 26 6 33 13 20 18
51 36 63 36 6 0 -7 -14 -29 -32z m-1356 -1092 c0 -3 -25 -30 -55 -61 -30 -31
-57 -64 -60 -75 -4 -10 -11 -19 -16 -19 -14 0 -39 -26 -39 -40 0 -6 -8 -14
-17 -17 -23 -9 -37 -23 -46 -45 -3 -10 -11 -18 -17 -18 -15 0 -40 -25 -40 -40
0 -6 -8 -14 -17 -17 -23 -9 -37 -23 -46 -45 -3 -10 -13 -18 -22 -18 -8 0 -15
-7 -15 -15 0 -8 -4 -15 -10 -15 -5 0 -10 -7 -10 -15 0 -8 -9 -23 -20 -32 -11
-10 -20 -23 -20 -30 0 -7 -4 -13 -10 -13 -5 0 -10 -6 -10 -14 0 -8 -13 -28
-30 -44 -16 -17 -30 -34 -30 -39 0 -5 -8 -16 -17 -25 -30 -28 -43 -47 -43 -61
0 -8 -9 -22 -19 -31 -11 -10 -27 -33 -36 -52 -22 -47 -35 -42 -35 14 0 27 -6
57 -15 68 -8 10 -15 33 -15 50 0 16 -7 39 -15 50 -8 10 -15 29 -15 42 0 12 -6
22 -15 22 -8 0 -17 14 -21 35 -3 19 -10 35 -14 35 -4 0 -11 21 -15 48 -4 26
-11 52 -15 57 -4 6 -10 61 -11 123 l-4 113 164 2 c121 1 165 5 169 15 2 7 23
12 56 12 51 0 77 12 114 53 14 14 35 17 144 17 72 0 128 4 128 9 0 8 10 12 53
20 4 0 7 -1 7 -4z m1330 -1935 c0 -6 -28 -10 -64 -10 -44 0 -67 -5 -76 -15
-11 -13 -63 -15 -356 -15 -189 0 -344 4 -344 9 0 11 74 21 174 22 45 1 95 5
111 9 47 12 555 12 555 0z"/>
<path d="M1720 6320 c0 -5 -6 -10 -14 -10 -22 0 -26 -47 -26 -313 0 -209 -2
-250 -15 -263 -8 -9 -15 -21 -15 -29 0 -7 -5 -15 -11 -17 -18 -6 -17 -92 1
-109 36 -37 126 -31 136 7 3 13 10 24 15 24 5 0 9 13 9 29 0 16 6 36 14 43 8
8 15 23 17 33 3 15 15 18 68 19 56 2 66 5 85 29 24 30 36 34 36 14 0 -8 17
-22 38 -33 20 -10 40 -23 44 -28 10 -14 99 -8 135 10 35 16 53 41 53 73 0 12
5 21 10 21 6 0 10 7 10 15 0 12 -16 15 -81 15 -80 0 -83 1 -115 35 l-34 34 0
116 c0 107 -2 120 -26 161 -28 48 -60 63 -103 48 -23 -9 -27 -16 -34 -79 -10
-95 -10 -131 0 -193 9 -48 7 -55 -15 -87 -23 -32 -27 -34 -42 -20 -13 12 -18
41 -23 132 -4 64 -11 121 -17 127 -5 5 -10 44 -10 86 0 89 -15 120 -61 120
-16 0 -29 -4 -29 -10z"/>
<path d="M844 5995 c-7 -41 3 -105 16 -105 6 0 10 -7 10 -15 0 -7 6 -18 13
-22 8 -4 17 -26 20 -47 4 -22 10 -42 15 -45 5 -3 12 -16 16 -28 4 -13 12 -23
17 -23 5 0 9 -7 9 -16 0 -19 41 -107 53 -112 4 -2 10 -21 13 -43 4 -21 10 -39
15 -39 5 0 9 -9 9 -19 0 -11 6 -26 14 -33 7 -8 17 -29 21 -46 8 -36 34 -94 47
-103 5 -3 12 -20 18 -37 8 -32 8 -32 -13 -17 -29 20 -93 20 -105 -1 -10 -18
-3 -74 9 -74 5 0 9 -7 9 -15 0 -8 5 -15 11 -15 7 0 28 -16 48 -35 58 -57 67
-65 74 -65 4 0 16 -8 26 -17 11 -10 48 -43 82 -73 92 -81 99 -89 99 -105 0 -8
5 -15 10 -15 6 0 10 -6 10 -14 0 -7 6 -19 14 -25 8 -7 23 -29 34 -49 44 -83
58 -107 70 -120 23 -25 13 -41 -30 -47 -35 -5 -192 -2 -268 5 -8 1 -36 -4 -62
-10 -36 -9 -47 -16 -52 -36 -7 -27 2 -93 14 -109 5 -5 10 -185 12 -399 3 -289
7 -391 16 -394 7 -2 12 -10 12 -18 0 -8 9 -14 19 -14 11 0 22 -4 25 -9 4 -5
41 -12 84 -16 42 -3 86 -10 97 -15 26 -11 546 -21 652 -12 77 7 82 6 102 -16
12 -13 21 -28 21 -34 0 -5 7 -16 15 -24 8 -9 15 -24 15 -35 0 -10 5 -19 10
-19 6 0 10 -8 10 -18 0 -11 9 -29 20 -42 11 -13 20 -31 20 -42 0 -10 4 -18 9
-18 5 0 12 -12 15 -26 4 -15 14 -33 21 -41 8 -8 15 -25 15 -39 0 -13 5 -24 10
-24 6 0 10 -8 10 -18 0 -11 9 -29 20 -42 45 -51 59 -50 -494 -50 -391 0 -519
-3 -538 -12 -36 -19 -98 -83 -98 -101 0 -9 -4 -19 -10 -22 -16 -10 -13 -612 3
-618 17 -5 18 -537 0 -559 -7 -8 -13 -45 -14 -82 -2 -57 -5 -69 -20 -73 -11
-3 -19 -12 -19 -19 0 -8 -4 -14 -10 -14 -5 0 -10 -18 -10 -40 0 -22 5 -40 10
-40 6 0 10 -6 10 -14 0 -8 7 -17 16 -20 22 -8 517 5 529 14 6 5 73 11 150 15
77 4 145 11 150 15 6 5 70 10 143 12 95 2 135 7 141 16 4 7 33 16 64 19 32 3
57 9 57 13 0 4 21 11 48 15 26 4 50 12 54 18 5 9 108 13 365 15 197 1 367 7
378 12 11 5 80 11 153 13 101 3 136 7 143 18 7 12 55 14 274 13 162 -1 270 -6
278 -12 6 -6 59 -13 117 -17 58 -4 110 -11 115 -15 6 -4 30 -10 54 -13 24 -3
47 -11 51 -17 4 -7 28 -15 54 -17 52 -6 96 15 96 46 0 11 6 21 12 23 10 4 14
54 16 194 l4 189 272 -3 c272 -3 272 -3 299 21 24 20 27 29 27 88 0 36 4 69 9
75 5 5 11 58 13 117 2 73 8 111 16 116 8 5 13 36 15 87 1 71 -1 82 -21 102
-22 22 -35 23 -245 33 -122 5 -235 10 -252 11 -16 1 -50 -2 -73 -7 l-44 -8 4
214 3 214 -25 25 -25 25 -313 0 c-227 0 -315 -3 -320 -12 -4 -6 -41 -15 -82
-19 -41 -4 -78 -11 -81 -15 -3 -5 -34 -12 -70 -15 -35 -4 -70 -12 -78 -18 -21
-17 -1046 -22 -1066 -6 -8 7 -15 23 -15 36 0 13 -4 24 -10 24 -5 0 -10 9 -10
19 0 11 -7 26 -15 34 -7 8 -17 26 -21 41 -3 14 -10 26 -15 26 -5 0 -9 9 -9 21
0 11 -9 32 -20 46 -11 14 -20 34 -20 44 0 11 -4 19 -10 19 -5 0 -10 10 -10 23
0 12 -9 30 -20 40 -11 9 -20 26 -20 37 0 11 -4 20 -10 20 -5 0 -10 7 -10 16 0
8 -12 31 -26 50 -17 22 -22 34 -13 34 109 -3 1147 14 1154 18 6 4 85 9 177 13
94 3 173 10 180 16 7 6 61 14 121 18 59 4 110 11 113 16 7 12 84 11 84 -1 0
-5 14 -10 30 -10 17 0 37 -8 46 -18 16 -19 64 -19 64 -2 0 5 10 12 21 15 29
10 79 55 79 72 0 7 8 17 18 20 47 18 55 38 49 122 -2 45 -1 81 3 81 5 0 10 -6
12 -12 4 -10 72 -15 269 -20 145 -4 314 -10 376 -13 l112 -6 7 26 c10 39 -5
278 -18 286 -5 4 -13 27 -15 53 -3 25 -10 46 -14 46 -5 0 -9 29 -9 65 l0 65
-73 0 c-40 0 -78 5 -84 11 -7 7 -47 9 -114 5 -359 -18 -425 -22 -436 -29 -10
-6 -13 14 -13 92 0 56 4 103 10 106 6 3 10 15 10 26 0 14 -7 19 -24 19 -14 0
-28 -4 -31 -10 -3 -5 -30 -10 -60 -10 -30 0 -57 5 -60 10 -8 12 -462 14 -469
1 -3 -4 -53 -10 -110 -13 -58 -3 -111 -9 -118 -15 -7 -6 -44 -14 -83 -18 -38
-4 -72 -11 -75 -15 -16 -26 -829 -56 -844 -31 -3 4 -67 10 -141 13 -81 3 -141
10 -148 17 -8 8 -100 11 -302 11 l-291 0 -14 35 c-8 20 -22 43 -32 52 -10 9
-18 24 -18 35 0 10 -4 18 -10 18 -5 0 -12 11 -16 25 -3 14 -10 25 -15 25 -5 0
-9 6 -9 13 0 12 -9 26 -50 74 -5 7 -10 17 -10 22 0 5 -8 17 -17 27 -15 15 -19
40 -21 153 -2 75 -8 140 -13 146 -5 5 -9 17 -9 27 0 10 -9 26 -20 35 -11 10
-20 21 -20 25 0 22 -64 108 -80 108 -10 0 -22 4 -25 10 -4 6 -12 6 -23 1 -9
-5 -25 -12 -34 -15 -10 -3 -18 -14 -18 -25 0 -11 -4 -23 -10 -26 -5 -3 -10 0
-10 7 0 7 -16 44 -35 81 -19 38 -35 77 -35 88 0 10 -4 19 -10 19 -5 0 -10 9
-10 20 0 11 -9 28 -20 37 -11 10 -20 25 -20 34 0 19 -29 79 -47 97 -7 7 -13
24 -13 38 0 13 -4 24 -10 24 -5 0 -10 6 -10 13 0 8 -9 24 -20 37 -11 13 -20
34 -20 47 0 12 -4 23 -10 23 -5 0 -10 7 -10 15 0 9 -7 18 -15 21 -8 3 -17 15
-21 27 -11 35 -30 47 -73 47 -38 0 -40 -2 -47 -35z m3449 -1632 c2 -10 4 -70
3 -133 l-1 -115 -38 3 c-49 5 -77 -22 -77 -73 0 -44 39 -85 80 -85 34 0 37 -8
34 -85 l-3 -60 -33 3 c-18 2 -37 8 -43 13 -12 12 -358 12 -370 0 -6 -5 -109
-11 -231 -13 -139 -2 -226 -7 -235 -14 -8 -6 -52 -12 -99 -13 -96 -2 -152 -10
-160 -22 -9 -13 -881 -26 -902 -14 -10 5 -18 16 -18 23 0 6 -9 20 -20 29 -11
10 -20 23 -20 30 0 7 -4 13 -9 13 -5 0 -12 11 -15 25 -4 14 -10 25 -15 25 -5
0 -12 14 -16 30 -4 17 -10 30 -15 30 -4 0 -11 16 -14 35 -4 19 -11 35 -16 35
-4 0 -11 14 -15 30 -4 17 -11 30 -16 30 -5 0 -9 9 -9 19 0 11 -7 26 -15 34 -7
8 -17 26 -21 41 -3 14 -10 26 -14 26 -5 0 -11 13 -15 29 -3 16 -13 32 -22 35
-9 4 -14 8 -12 11 3 2 126 6 274 9 171 4 271 9 273 16 2 5 30 10 62 10 42 0
63 5 76 18 16 16 71 17 818 19 441 1 811 3 824 5 12 1 22 6 22 10 0 16 19 8
23 -9z m-2568 -88 c5 -6 17 -24 26 -40 46 -88 65 -120 71 -125 3 -3 10 -18 13
-33 4 -15 11 -27 16 -27 5 0 9 -9 9 -19 0 -11 7 -26 15 -35 8 -8 18 -29 21
-45 4 -17 10 -31 15 -31 5 0 9 -8 9 -19 0 -10 9 -30 20 -44 11 -14 20 -32 20
-41 0 -9 5 -16 10 -16 6 0 10 -7 10 -15 0 -8 9 -23 19 -32 11 -9 18 -20 16
-23 -8 -12 -669 1 -677 14 -5 8 -11 7 -20 -2 -6 -6 -15 -12 -19 -12 -4 0 -10
75 -13 168 -3 92 -9 218 -13 280 -5 63 -6 115 -4 118 10 9 446 -10 456 -21z
m3295 -128 l0 -59 -234 4 c-129 2 -238 7 -243 11 -4 5 0 13 10 18 9 6 17 21
17 34 0 21 -5 25 -30 25 -18 0 -33 -6 -36 -15 -10 -26 -30 -17 -28 13 1 15 3
27 3 27 1 0 123 0 271 0 l270 0 0 -58z m-540 -1416 c0 -131 -3 -400 -7 -599
l-6 -362 -26 7 c-14 3 -30 9 -36 13 -5 4 -71 10 -144 14 -88 4 -138 10 -142
18 -6 9 -79 12 -282 13 -229 0 -277 -2 -292 -15 -15 -12 -78 -16 -364 -22
-431 -8 -655 -21 -675 -37 -8 -7 -40 -15 -70 -18 -31 -3 -56 -9 -56 -13 0 -4
-19 -10 -41 -13 -23 -3 -46 -11 -50 -19 -6 -9 -49 -14 -154 -18 -126 -4 -145
-3 -145 10 0 20 33 48 62 52 23 3 23 5 23 121 0 71 4 117 10 117 6 -1 21 -14
35 -30 13 -17 30 -30 37 -30 7 0 13 -4 13 -10 0 -5 18 -13 40 -16 22 -4 43
-11 46 -15 7 -12 71 -12 78 0 3 4 19 11 36 14 29 6 30 8 30 62 0 30 -4 55 -10
55 -5 0 -10 5 -10 11 0 6 -9 22 -20 36 -25 31 -29 83 -5 63 8 -7 15 -18 15
-24 0 -7 16 -29 35 -50 l35 -39 87 5 c54 3 88 9 91 16 2 7 10 12 17 12 33 0
45 30 45 111 0 46 4 79 10 79 6 0 10 17 10 39 0 22 6 44 15 51 10 8 15 9 15 2
0 -24 55 -62 90 -62 42 0 56 8 62 35 3 17 10 19 46 17 31 -3 44 0 48 12 5 12
21 16 68 16 44 0 69 6 91 20 17 11 38 20 48 20 9 0 17 5 17 10 0 6 11 10 24
10 14 0 31 7 39 15 8 7 26 17 41 21 14 3 26 10 26 14 0 4 16 11 35 14 19 4 35
11 35 16 0 5 16 12 35 16 19 3 35 10 35 14 0 4 18 10 40 14 22 3 40 10 40 15
0 5 15 13 33 16 17 4 37 11 42 15 6 4 28 10 49 13 22 4 42 10 45 15 3 5 18 12
34 16 21 5 29 2 34 -11 13 -34 34 -46 76 -45 23 1 44 7 45 12 2 6 9 10 15 10
7 0 42 29 79 65 36 36 71 65 77 65 6 0 11 4 11 8 0 4 18 19 39 32 58 36 68 89
26 134 -21 23 -36 28 -95 33 -39 3 -70 9 -70 14 0 4 35 11 78 14 42 4 85 10
94 14 9 3 85 7 168 8 l150 1 0 -237z m-2581 149 c277 0 439 -4 445 -10 5 -5
41 -10 78 -10 57 0 70 -3 74 -17 3 -10 10 -26 15 -35 5 -10 9 -24 9 -31 0 -7
9 -20 20 -30 11 -9 20 -24 20 -32 0 -8 5 -15 10 -15 6 0 10 -7 10 -15 0 -8 9
-23 20 -32 11 -10 20 -23 20 -30 0 -7 5 -13 10 -13 6 0 10 -7 10 -15 0 -8 7
-15 15 -15 8 0 17 -11 21 -24 3 -14 12 -27 20 -30 24 -9 16 -32 -21 -60 -23
-18 -35 -35 -35 -52 0 -13 -4 -24 -9 -24 -4 0 -11 -16 -14 -35 -3 -19 -13 -42
-21 -51 -9 -8 -16 -28 -16 -43 0 -15 -4 -31 -9 -37 -5 -5 -11 -27 -13 -49 -2
-32 -7 -41 -25 -43 -29 -4 -73 25 -73 49 0 11 -4 19 -9 19 -5 0 -11 10 -15 23
-7 28 -68 57 -120 57 -25 0 -45 -8 -63 -25 -25 -22 -27 -32 -31 -120 -3 -52
-7 -95 -11 -95 -4 0 -14 8 -23 18 -28 29 -47 42 -61 42 -7 0 -22 7 -33 15 -22
16 -64 20 -64 5 0 -5 -6 -10 -13 -10 -8 0 -23 -8 -35 -18 -16 -15 -21 -32 -24
-90 -3 -71 -20 -103 -26 -50 -2 19 -11 28 -29 33 -14 3 -35 17 -46 31 -16 21
-26 25 -61 22 l-41 -3 -6 -69 c-3 -39 -11 -72 -17 -74 -7 -2 -12 -9 -12 -15 0
-7 -7 -25 -16 -42 -12 -21 -16 -56 -16 -117 l0 -87 -149 -3 c-82 -2 -153 -2
-157 0 -9 3 10 187 21 198 11 11 9 252 -3 259 -5 3 -10 34 -10 68 1 51 3 59
12 42 17 -31 28 -35 97 -35 62 0 151 30 151 52 0 4 8 8 18 8 9 0 26 14 37 30
11 16 23 30 28 30 4 0 7 6 7 13 0 7 9 20 20 30 11 9 20 23 20 31 0 8 5 16 12
18 7 3 13 37 16 94 5 107 -5 124 -71 124 -57 0 -77 -24 -79 -93 -1 -41 -9 -63
-36 -104 -34 -50 -52 -65 -52 -43 0 6 6 13 13 16 7 2 14 19 15 36 2 17 7 38
13 45 6 7 9 29 5 50 -3 21 -8 56 -11 78 -11 75 -15 83 -42 93 -26 10 -24 11
22 11 28 1 56 5 64 10 7 5 31 4 54 -1 26 -6 44 -5 51 2 5 5 20 10 32 10 32 0
54 26 54 65 0 63 -16 68 -180 62 -173 -6 -210 -19 -210 -75 0 -37 31 -71 65
-72 18 0 17 -2 -6 -17 -22 -14 -27 -26 -33 -76 -3 -33 -6 -80 -6 -103 0 -24
-4 -44 -10 -44 -5 0 -10 -9 -10 -19 0 -11 -6 -26 -13 -33 -8 -7 -23 -40 -35
-73 l-21 -60 -1 52 c0 28 -4 53 -9 55 -8 3 -22 524 -14 531 2 2 27 0 55 -4 28
-5 247 -9 487 -9z m1741 -46 c0 -19 8 -28 35 -40 19 -7 44 -14 55 -14 11 0 20
-4 20 -10 0 -5 -13 -10 -30 -10 -16 0 -30 -4 -30 -10 0 -5 -16 -12 -37 -16
-20 -4 -48 -13 -62 -20 -14 -8 -36 -14 -48 -14 -13 0 -23 -4 -23 -9 0 -5 -16
-12 -35 -15 -19 -4 -35 -11 -35 -16 0 -5 -16 -12 -35 -16 -19 -3 -35 -10 -35
-14 0 -4 -16 -11 -35 -14 -19 -4 -35 -11 -35 -16 0 -6 -5 -10 -11 -10 -19 0
-104 -42 -112 -56 -4 -8 -19 -14 -32 -14 -14 0 -25 -4 -25 -10 0 -5 -9 -10
-19 -10 -11 0 -26 -7 -34 -15 -22 -21 -97 -32 -97 -14 0 8 -9 22 -20 32 -11 9
-20 23 -20 30 0 7 -13 23 -30 37 -16 14 -30 28 -30 33 0 4 -16 24 -35 45 -88
94 -105 116 -105 133 0 11 -6 19 -13 19 -8 0 -19 12 -26 26 l-12 27 148 -8
c203 -11 519 -9 628 2 50 5 109 11 133 11 39 2 42 0 42 -24z m1368 -330 c56
-4 87 -3 95 5 16 16 62 15 49 -1 -5 -7 -13 -34 -16 -60 -4 -27 -11 -48 -16
-48 -10 0 -19 -54 -22 -138 -2 -54 -6 -63 -23 -67 -11 -3 -116 -6 -233 -7
l-214 -3 7 75 c4 41 7 116 8 165 1 50 5 92 8 95 7 5 195 -3 357 -16z"/>
<path d="M4148 2663 c0 -10 -2 -22 -3 -28 -2 -5 -3 -15 -4 -21 0 -6 -19 -16
-41 -23 -38 -11 -40 -14 -40 -51 0 -31 4 -40 23 -46 12 -3 30 -15 41 -26 15
-17 16 -22 5 -29 -8 -5 -21 -9 -30 -9 -9 0 -19 -7 -23 -15 -3 -8 -10 -15 -16
-15 -5 0 -10 7 -10 15 0 8 -4 15 -10 15 -5 0 -10 7 -10 15 0 8 -6 15 -14 15
-8 0 -22 8 -32 18 -14 13 -35 17 -99 17 -77 0 -83 -2 -108 -29 -15 -16 -27
-35 -27 -42 0 -8 -4 -14 -10 -14 -5 0 -13 -12 -16 -27 -4 -16 -10 -30 -14 -33
-7 -5 -14 -131 -11 -191 0 -14 15 -41 31 -59 17 -18 30 -37 30 -42 0 -4 12
-11 28 -14 15 -4 30 -12 34 -18 5 -7 51 -11 126 -11 99 0 125 3 157 20 68 35
75 44 75 103 0 45 -3 55 -20 59 -11 3 -20 9 -20 14 0 24 -77 -7 -84 -33 -4
-16 -17 -18 -103 -18 -92 0 -100 2 -122 25 -13 14 -21 29 -17 32 4 4 45 6 91
4 67 -2 85 0 85 11 0 7 8 21 18 30 9 8 24 25 33 37 12 16 22 19 52 14 20 -3
37 -10 37 -14 0 -5 45 -9 100 -9 55 0 100 4 100 8 0 4 14 13 30 19 26 10 30
16 30 51 0 54 -20 72 -80 72 -27 0 -52 5 -55 10 -6 10 6 14 38 10 27 -2 67 41
67 74 0 39 -41 76 -85 76 -31 0 -34 3 -37 33 -3 30 -6 32 -45 35 -36 3 -43 0
-45 -15z"/>
<path d="M2193 2631 c-3 -11 -9 -21 -14 -21 -4 0 -11 -27 -15 -60 -4 -33 -11
-63 -15 -66 -5 -3 -9 -23 -9 -44 0 -29 -7 -47 -30 -72 -16 -18 -30 -30 -31
-28 0 3 -2 29 -4 59 -2 30 -8 57 -13 60 -5 3 -12 19 -16 34 -11 48 -38 69 -82
65 l-39 -3 3 -160 c2 -88 7 -162 11 -165 4 -3 10 -13 14 -22 3 -10 16 -18 27
-18 11 0 20 -4 20 -10 0 -5 11 -10 25 -10 14 0 25 4 25 9 0 5 14 12 30 16 17
4 30 11 30 16 0 5 12 9 28 9 31 0 122 77 122 104 0 9 4 16 9 16 4 0 11 32 15
72 4 40 12 75 18 79 13 8 18 133 6 145 -4 4 -30 9 -58 12 -46 4 -52 2 -57 -17z"/>
<path d="M1823 2343 c-13 -14 -23 -33 -23 -41 0 -8 -11 -25 -25 -38 -14 -13
-25 -28 -25 -34 0 -6 -7 -13 -15 -16 -39 -15 -1 -104 44 -104 19 0 81 54 81
70 0 5 8 16 17 25 19 19 34 97 26 138 -7 36 -49 36 -80 0z"/>
<path d="M7507 4869 c-19 -3 -42 -13 -51 -22 -11 -11 -26 -14 -50 -10 -26 4
-38 0 -55 -18 -11 -12 -21 -28 -21 -34 0 -5 -9 -27 -20 -48 -11 -20 -20 -50
-20 -66 0 -17 -4 -33 -10 -36 -12 -8 -13 -152 -1 -159 4 -3 11 -42 14 -87 4
-66 9 -85 29 -106 l23 -26 170 6 c114 4 179 10 195 19 45 24 70 43 70 51 0 5
7 15 15 23 8 9 15 24 15 35 0 10 4 19 9 19 4 0 11 19 14 42 3 24 11 44 16 46
7 2 11 39 11 93 0 75 -3 93 -19 110 -16 17 -18 26 -9 51 9 26 7 32 -23 59 -20
17 -44 29 -61 29 -18 0 -28 5 -28 14 0 11 -20 15 -89 18 -50 2 -105 0 -124 -3z
m40 -159 c27 0 34 -3 29 -15 -4 -12 3 -15 35 -15 30 0 38 -3 32 -12 -10 -17
-10 -16 -11 -130 l-2 -98 -62 0 c-73 0 -84 5 -93 43 -4 15 -11 27 -16 27 -5 0
-9 45 -9 99 0 86 2 100 18 104 9 3 23 3 30 1 8 -2 29 -4 49 -4z"/>
<path d="M11905 4790 c-4 -6 -73 -10 -175 -10 -93 0 -180 -4 -194 -10 -22 -8
-25 -13 -19 -42 3 -18 8 -35 10 -37 2 -3 85 -5 186 -5 154 0 187 2 212 17 17
9 40 17 53 17 19 0 22 5 22 40 l0 40 -44 0 c-25 0 -48 -4 -51 -10z"/>
<path d="M11128 4761 c-1 -6 -75 -13 -163 -16 -88 -4 -161 -7 -162 -8 0 -1 -4
-18 -8 -38 l-7 -36 102 -7 c209 -14 360 10 360 59 0 36 -111 77 -122 46z"/>
<path d="M8857 4733 c-4 -3 -7 -21 -7 -40 l0 -33 134 0 c148 0 163 7 123 54
-22 25 -27 26 -133 26 -61 0 -114 -3 -117 -7z"/>
<path d="M10406 4731 c-3 -4 -29 -11 -57 -14 -29 -4 -56 -12 -60 -19 -6 -10
-54 -14 -181 -16 -148 -3 -175 -6 -186 -20 -7 -9 -11 -26 -10 -37 3 -19 11
-20 211 -23 115 -1 207 2 207 6 0 5 23 12 52 15 28 4 55 12 59 18 3 6 27 14
53 16 43 5 46 8 46 34 0 19 -5 29 -15 29 -8 0 -15 5 -15 10 0 12 -97 13 -104
1z"/>
<path d="M7881 4616 c-7 -8 -10 -24 -6 -36 6 -20 13 -20 118 -18 l112 3 0 30
0 30 -106 3 c-84 2 -109 0 -118 -12z"/>
<path d="M460 4550 c0 -5 -7 -10 -15 -10 -9 0 -18 -7 -21 -15 -4 -8 -12 -15
-19 -15 -17 0 -84 -66 -115 -112 -14 -21 -28 -38 -32 -38 -5 0 -8 -5 -8 -11 0
-13 -41 -101 -51 -109 -3 -3 -9 -23 -12 -44 -4 -22 -10 -42 -15 -45 -5 -3 -13
-25 -17 -48 -4 -24 -11 -43 -16 -43 -5 0 -9 -17 -9 -37 0 -56 -9 -79 -35 -93
-17 -9 -24 -23 -27 -50 -2 -27 0 -36 9 -33 7 3 13 -2 13 -10 0 -8 -5 -17 -11
-19 -5 -2 -13 -22 -16 -46 -3 -23 -9 -42 -13 -42 -4 0 -11 -12 -15 -27 -3 -15
-12 -31 -18 -35 -15 -9 -23 -148 -8 -148 6 0 11 5 11 10 0 6 9 10 20 10 11 0
23 7 26 15 9 22 30 18 52 -10 14 -18 29 -25 53 -25 60 1 65 12 72 145 4 77 11
131 21 151 15 30 17 31 71 26 48 -4 59 -1 76 17 11 11 27 21 35 21 9 0 22 7
30 15 25 25 34 17 34 -30 0 -33 4 -45 15 -45 11 0 15 -13 15 -52 0 -29 7 -66
15 -82 8 -15 15 -38 15 -51 0 -19 8 -33 50 -82 20 -24 100 -13 100 13 0 8 7
17 15 20 17 7 22 108 6 118 -5 3 -12 89 -16 190 -6 143 -11 186 -21 190 -8 3
-14 12 -14 20 0 8 -5 16 -12 18 -6 2 -13 30 -16 61 -2 31 -8 57 -13 57 -5 0
-9 11 -9 23 0 13 -9 34 -20 47 -14 16 -20 37 -20 71 0 26 -4 51 -10 54 -5 3
-10 17 -10 30 0 13 -6 30 -14 37 -7 8 -17 24 -20 36 -6 18 -15 22 -47 22 -21
0 -39 -4 -39 -10z"/>
<path d="M7650 4094 c-86 -47 -150 -124 -150 -181 0 -13 -4 -23 -9 -23 -5 0
-12 -16 -15 -35 -4 -19 -11 -35 -16 -35 -11 0 -36 -50 -45 -89 -3 -16 -13 -32
-21 -35 -8 -3 -14 -12 -14 -21 0 -8 -4 -15 -9 -15 -5 0 -13 -10 -17 -22 -3
-12 -13 -28 -20 -36 -8 -7 -14 -25 -15 -40 0 -15 -4 -36 -9 -47 -7 -18 -8 -17
-14 10 -4 17 -11 38 -17 47 -5 10 -9 29 -9 43 0 16 -6 25 -15 25 -9 0 -15 9
-15 23 0 12 -7 31 -15 41 -8 11 -15 28 -15 38 0 10 -6 18 -14 18 -9 0 -17 15
-21 38 -10 62 -50 95 -79 67 -8 -8 -20 -15 -26 -15 -6 0 -13 -6 -16 -14 -3 -8
-17 -17 -30 -20 -17 -5 -26 -16 -31 -36 -3 -17 -12 -30 -19 -30 -17 0 -19 -41
-3 -57 8 -8 -3 -25 -40 -61 -40 -39 -51 -57 -51 -81 0 -24 4 -31 20 -31 11 0
20 5 20 10 0 6 8 10 18 10 10 0 29 13 43 29 32 37 62 44 67 16 7 -34 42 -105
52 -105 6 0 10 -18 10 -41 0 -23 6 -55 14 -72 8 -18 16 -61 18 -96 3 -37 10
-67 16 -69 8 -2 12 -36 12 -102 0 -109 10 -131 54 -123 14 3 37 18 53 34 30
31 53 37 53 15 0 -8 9 -18 20 -21 11 -3 20 -11 20 -16 0 -5 7 -9 15 -9 8 0 15
5 15 10 0 6 7 10 15 10 7 0 19 8 24 18 9 14 10 12 11 -15 0 -17 5 -35 12 -39
14 -9 -15 -22 -53 -23 -14 -1 -44 -10 -67 -21 -44 -21 -56 -52 -30 -78 14 -14
68 -16 68 -3 0 11 44 23 62 16 10 -4 12 -27 9 -96 l-3 -91 33 -31 c30 -27 42
-31 99 -32 72 -2 133 9 138 24 5 15 33 14 31 -1 -5 -38 2 -48 31 -48 20 0 39
11 63 35 19 19 39 35 46 35 6 0 11 7 11 15 0 8 7 15 15 15 12 0 15 19 15 115
0 96 3 115 15 115 11 0 15 -11 15 -40 0 -22 5 -40 10 -40 6 0 10 -37 10 -90 0
-58 5 -104 15 -127 8 -19 15 -48 15 -63 0 -30 30 -65 37 -42 3 6 15 12 27 12
12 0 29 8 37 18 9 9 33 31 54 47 21 17 45 38 54 48 8 9 19 17 24 17 17 0 44
36 50 68 6 31 5 32 -19 26 -24 -6 -26 -5 -19 17 4 13 14 31 21 40 8 8 14 30
14 47 0 56 -55 50 -114 -11 -14 -15 -21 -17 -24 -8 -3 8 1 17 8 21 18 11 9
182 -10 205 -12 14 -26 16 -77 12 -63 -5 -106 8 -128 37 -6 8 -19 15 -30 18
-15 3 -19 11 -17 31 1 15 -3 37 -10 49 -7 13 -17 41 -23 63 -10 38 -12 40 -44
37 -19 -1 -40 -10 -46 -19 -15 -21 -35 -9 -35 22 0 24 -17 35 -55 35 -30 0
-36 -10 -44 -74 -6 -46 -8 -40 -15 61 -4 63 -13 116 -19 120 -6 3 -13 1 -15
-5 -2 -7 -15 -12 -28 -12 -14 0 -27 -7 -30 -15 -4 -8 -12 -15 -19 -15 -7 0
-15 -7 -19 -15 -3 -8 -10 -15 -15 -15 -11 0 -3 69 9 85 4 6 11 43 15 83 4 39
11 72 15 72 4 0 9 29 12 64 2 42 9 69 21 80 9 10 17 23 17 31 0 7 3 15 8 17
11 5 52 85 52 102 0 9 5 16 10 16 6 0 10 8 10 19 0 10 9 30 20 44 11 14 20 34
20 45 0 12 5 24 10 27 6 3 10 17 10 31 0 27 -20 30 -60 8z"/>
<path d="M13396 3654 c-18 -17 -20 -42 -7 -63 8 -12 44 -16 173 -18 90 -2 186
-1 214 2 48 6 52 8 56 36 9 56 -3 59 -222 59 -167 0 -201 -2 -214 -16z"/>
<path d="M13000 3591 c0 -4 -39 -11 -86 -14 -47 -3 -91 -10 -98 -16 -6 -5 -76
-11 -155 -13 -104 -2 -146 -6 -149 -15 -2 -7 -10 -13 -18 -13 -7 0 -19 -9 -26
-20 -7 -11 -18 -20 -24 -20 -12 0 -34 -50 -34 -76 0 -11 48 -14 259 -14 142 0
273 3 291 7 41 8 160 121 160 151 0 44 -10 52 -66 52 -30 0 -54 -4 -54 -9z"/>
<path d="M11913 3573 c-16 -3 -23 -13 -25 -36 -3 -31 -4 -32 -46 -29 -23 2
-48 -1 -55 -6 -7 -5 -27 -13 -44 -17 -18 -3 -33 -11 -33 -16 0 -5 -8 -13 -17
-16 -29 -11 -53 -36 -53 -55 0 -10 -4 -18 -10 -18 -5 0 -10 -9 -10 -20 0 -19
7 -20 159 -20 96 0 162 4 166 10 3 6 24 10 46 10 27 0 45 6 56 20 10 11 21 20
25 20 5 0 26 19 48 41 l40 42 88 -2 c81 -2 90 0 115 23 33 31 35 61 5 70 -25
6 -420 6 -455 -1z"/>
<path d="M13932 3552 c-18 -2 -35 -9 -38 -17 -3 -8 -30 -16 -65 -20 -32 -4
-59 -11 -59 -16 0 -5 -7 -9 -15 -9 -8 0 -23 -9 -32 -20 -10 -11 -21 -20 -25
-20 -14 0 -48 -34 -48 -47 0 -7 -4 -13 -10 -13 -5 0 -10 -11 -10 -25 0 -23 3
-25 49 -25 28 0 53 5 56 10 3 6 25 10 49 10 44 0 64 11 120 68 18 17 38 32 43
32 9 0 28 91 21 94 -2 1 -18 0 -36 -2z"/>
<path d="M8200 3452 c-13 -2 -33 -10 -44 -18 -11 -8 -35 -14 -53 -14 -18 0
-33 -4 -33 -10 0 -6 -30 -10 -70 -10 l-70 0 0 -44 c0 -49 10 -56 86 -56 22 0
45 -5 52 -12 16 -16 184 -17 189 0 3 6 9 12 14 12 5 0 18 9 29 20 11 11 31 20
45 20 17 0 25 6 25 18 0 9 3 34 6 54 l6 36 -78 4 c-44 2 -90 1 -104 0z"/>
<path d="M407 2732 c-11 -2 -27 -11 -37 -20 -57 -54 -79 -72 -87 -72 -6 0 -21
-13 -36 -29 -14 -16 -34 -34 -44 -39 -16 -9 -18 -24 -17 -127 0 -74 5 -120 12
-127 7 -7 12 -35 12 -64 0 -28 7 -71 15 -94 8 -23 15 -67 15 -97 0 -37 4 -55
14 -59 8 -3 17 -26 21 -52 4 -26 10 -51 15 -57 4 -5 10 -27 14 -47 6 -30 12
-39 34 -44 15 -4 30 -12 34 -18 10 -15 366 -15 376 0 4 6 17 14 29 18 11 4 45
30 75 59 l53 52 -1 103 c-1 62 -6 108 -13 115 -6 6 -11 18 -11 27 0 15 -61 70
-78 70 -6 0 -13 11 -16 25 -4 15 -16 27 -31 31 -16 4 -26 15 -30 35 -5 24 -12
29 -36 29 -30 0 -33 7 -30 57 1 11 -3 24 -8 28 -6 3 -11 19 -11 36 0 17 -8 36
-20 46 -13 12 -20 30 -20 55 0 21 -4 38 -10 38 -5 0 -10 7 -10 15 0 8 -7 15
-15 15 -7 0 -18 6 -22 14 -4 8 -27 24 -50 36 -24 12 -43 26 -43 30 0 11 -21
17 -43 12z m144 -541 c4 0 9 -10 12 -21 3 -11 12 -20 20 -20 13 0 16 -18 19
-95 l3 -95 -47 0 c-46 0 -63 12 -35 24 6 3 1 4 -13 3 -23 -2 -25 1 -28 48 -2
28 -7 54 -13 60 -5 5 -9 28 -9 51 0 49 18 58 91 45z"/>
<path d="M15944 2552 c-12 -2 -42 -23 -67 -48 -36 -35 -52 -44 -81 -44 -31 0
-37 -4 -42 -27 -4 -16 -10 -32 -14 -38 -4 -5 -11 -36 -14 -67 -4 -32 -11 -60
-16 -63 -4 -3 -11 -32 -15 -65 -4 -33 -11 -60 -16 -60 -5 0 -9 -12 -9 -27 -1
-30 -30 -73 -50 -73 -18 0 -40 -27 -40 -49 0 -27 47 -29 66 -3 12 16 13 15 14
-5 0 -21 -5 -23 -45 -23 -33 0 -45 -4 -45 -15 0 -8 -12 -18 -27 -21 -66 -17
-115 -64 -111 -107 3 -31 5 -32 56 -35 28 -2 52 1 52 6 0 5 14 12 31 16 16 3
37 13 46 21 8 9 23 15 31 13 14 -3 16 -26 15 -171 -1 -93 -6 -173 -11 -180 -6
-8 -7 -42 -2 -92 5 -44 9 -85 9 -91 1 -10 11 -24 51 -71 5 -7 10 -16 10 -20 0
-17 68 -38 126 -38 44 0 65 5 78 18 10 9 28 17 41 17 13 0 26 4 29 9 3 4 21
11 41 14 35 6 85 48 85 73 0 8 4 14 9 14 5 0 12 12 16 28 7 27 36 62 53 62 14
0 132 120 132 135 0 8 7 15 15 15 8 0 15 7 15 16 0 8 5 12 10 9 6 -3 10 2 10
11 0 10 -3 15 -6 11 -4 -3 -13 1 -21 9 -23 22 -81 7 -123 -32 -19 -19 -38 -34
-41 -34 -4 0 -10 -16 -13 -35 -4 -21 -13 -35 -21 -35 -8 0 -20 -9 -27 -20 -8
-12 -24 -20 -40 -20 -23 0 -28 -4 -28 -25 0 -15 -7 -28 -17 -32 -10 -4 -21
-11 -24 -16 -6 -9 -42 -12 -110 -9 -31 2 -39 7 -53 36 -9 19 -16 50 -16 69 0
20 -4 39 -10 42 -14 9 -13 112 2 117 6 2 13 31 15 69 2 35 9 74 15 85 5 12 9
42 7 68 -5 53 -1 56 77 56 30 0 54 5 54 10 0 6 13 10 30 10 40 0 65 37 56 85
l-7 35 -87 0 c-55 0 -92 -4 -100 -12 -30 -30 -4 207 30 267 6 11 13 51 16 90
3 44 10 73 18 78 8 4 14 17 14 27 0 11 5 20 10 20 15 0 12 37 -2 42 -7 2 -23
2 -34 0z"/>
<path d="M4719 1276 c-2 -2 -150 -7 -329 -10 -178 -4 -329 -11 -335 -15 -5 -5
-43 -11 -82 -13 -40 -3 -79 -11 -87 -17 -9 -7 -74 -14 -173 -18 -87 -3 -163
-10 -170 -15 -6 -5 -90 -9 -185 -9 -145 1 -178 -2 -203 -16 -28 -16 -104 -17
-943 -18 -686 0 -915 -3 -920 -12 -4 -6 -20 -15 -35 -18 -17 -5 -27 -14 -27
-25 0 -10 -3 -25 -6 -34 -4 -11 2 -19 17 -25 23 -8 24 -13 24 -99 0 -60 -4
-95 -12 -103 -16 -16 -18 -324 -3 -334 6 -3 10 -30 10 -58 0 -29 3 -69 6 -90
l7 -37 101 0 c56 0 106 4 112 9 5 6 191 11 452 13 375 3 444 5 452 18 7 11 56
16 257 22 557 17 799 28 818 37 12 6 255 12 593 16 586 5 606 7 594 43 -2 6 5
15 15 19 22 8 38 24 44 42 4 11 41 13 189 12 112 -1 189 -6 197 -13 7 -6 41
-11 75 -12 85 -1 105 18 114 111 3 37 10 69 15 71 5 2 9 66 9 143 0 192 18
179 -248 179 -114 0 -212 -4 -218 -9 -5 -5 -35 -11 -67 -13 l-57 -3 0 63 c0
34 4 62 8 62 11 0 35 68 28 79 -3 5 -15 7 -26 4 -23 -6 -24 -1 -11 45 9 31 9
36 0 28z m-185 -272 c3 -9 6 -81 6 -160 0 -132 -2 -146 -20 -161 -11 -10 -20
-23 -20 -30 0 -15 -16 -17 -25 -3 -8 12 -262 14 -269 2 -3 -5 -64 -12 -137
-15 -75 -4 -137 -11 -145 -18 -8 -7 -70 -14 -152 -17 -84 -3 -140 -9 -144 -16
-5 -8 -286 -12 -1000 -14 -546 -2 -997 -7 -1003 -12 -5 -4 -48 -10 -95 -11
l-85 -4 -3 135 c-1 73 -7 139 -13 146 -13 16 19 24 104 24 37 0 67 4 67 9 0 5
18 11 39 15 22 3 41 12 44 18 5 17 215 12 235 -5 21 -17 499 -17 510 0 4 7 27
15 50 19 23 4 42 10 42 14 0 4 28 11 62 14 35 4 68 11 73 16 6 5 278 10 603
12 464 2 594 6 601 16 5 8 46 14 120 19 61 3 114 10 117 15 3 4 101 8 219 8
185 0 214 -2 219 -16z m600 -186 c-3 -13 -13 -27 -20 -31 -8 -4 -14 -15 -14
-22 0 -8 -4 -15 -9 -15 -5 0 -11 -12 -13 -27 -2 -16 -9 -28 -15 -27 -7 1 -87
2 -178 3 l-165 1 0 70 0 70 211 0 210 0 -7 -22z"/>
<path d="M9748 1173 c-15 -4 -18 -16 -18 -79 0 -54 -4 -74 -13 -74 -15 0 -87
-66 -87 -79 0 -5 -5 -11 -10 -13 -6 -2 -12 -43 -15 -93 -2 -50 -4 -93 -4 -96
-1 -4 -17 -9 -36 -12 -23 -4 -46 -17 -63 -36 -14 -17 -32 -31 -39 -31 -7 0
-13 -9 -13 -20 0 -11 -4 -20 -10 -20 -5 0 -10 -9 -10 -20 0 -23 19 -29 110
-34 l65 -3 3 -59 c2 -32 7 -63 13 -68 5 -6 9 -29 9 -53 0 -30 4 -43 14 -43 7
0 16 -13 19 -29 7 -33 35 -71 53 -71 7 0 15 -7 18 -16 5 -13 21 -15 101 -12
l95 3 0 -102 0 -102 57 -7 c83 -10 278 1 298 18 9 7 24 21 33 30 9 10 24 18
34 18 10 0 18 4 18 9 0 5 9 13 20 16 11 3 20 13 20 21 0 8 6 14 14 14 8 0 18
10 21 22 4 11 19 32 34 45 26 24 26 28 29 175 2 92 0 154 -7 161 -5 5 -20 10
-33 11 -16 1 -23 7 -24 23 -1 11 -15 36 -33 55 -17 18 -31 36 -31 41 0 4 -9 7
-20 7 -11 0 -20 5 -20 10 0 16 -49 12 -92 -7 -27 -12 -38 -23 -38 -39 0 -18
-7 -22 -50 -28 -34 -5 -50 -11 -50 -21 0 -8 -4 -15 -10 -15 -5 0 -10 -20 -10
-45 0 -35 -5 -49 -27 -70 -16 -14 -37 -28 -48 -31 -11 -4 -23 -11 -26 -16 -7
-11 -62 -18 -89 -11 -11 3 -23 16 -26 28 -3 13 -12 26 -20 29 -10 4 -14 22
-14 60 0 54 0 54 35 60 19 4 35 11 35 15 0 5 25 12 55 16 30 3 55 11 55 16 0
5 8 13 18 16 27 11 82 68 82 87 0 9 5 16 10 16 6 0 10 9 10 20 0 14 -7 20 -23
20 -13 0 -27 -4 -32 -9 -6 -5 -21 -11 -35 -13 -21 -2 -26 2 -28 24 -2 20 -10
30 -28 34 -27 7 -76 -3 -84 -16 -3 -5 -21 -11 -39 -12 l-32 -3 1 179 c1 214
-7 232 -92 209z m542 -767 c0 -8 8 -13 18 -12 14 1 18 -9 20 -53 3 -44 -1 -58
-20 -78 -19 -21 -30 -23 -78 -21 l-55 3 1 39 c1 21 6 41 11 45 5 3 12 14 16
24 3 9 16 17 27 17 13 0 24 10 30 25 10 27 30 34 30 11z"/>
<path d="M420 1130 c0 -5 -9 -10 -20 -10 -11 0 -23 -7 -26 -15 -4 -8 -12 -15
-19 -15 -15 0 -105 -84 -105 -98 0 -5 -9 -19 -20 -32 -11 -13 -20 -29 -20 -37
0 -7 -4 -13 -9 -13 -5 0 -12 -35 -16 -77 -3 -43 -10 -86 -15 -95 -13 -23 -13
-85 -1 -93 5 -3 12 -18 16 -34 3 -16 19 -39 36 -51 16 -13 29 -29 29 -35 0
-22 27 -36 81 -42 30 -3 57 -11 61 -17 9 -14 178 -13 186 1 4 6 33 14 65 18
31 4 57 11 57 16 0 5 7 9 15 9 8 0 23 9 32 20 10 11 23 20 30 20 7 0 13 5 13
10 0 6 6 10 13 10 6 0 18 12 25 27 31 68 -1 123 -76 130 -38 4 -52 1 -71 -16
-13 -12 -30 -21 -37 -21 -7 0 -14 -5 -16 -12 -5 -13 -130 -12 -156 1 -9 5 -35
13 -57 18 l-40 8 -3 80 c-2 61 1 87 15 115 25 50 43 70 64 70 9 0 19 5 21 11
2 5 41 12 90 14 72 3 90 7 112 26 22 19 25 29 20 53 -12 56 -36 65 -161 66
-69 0 -113 -4 -113 -10z"/>
</g>
</svg>
