<?xml version="1.0" standalone="no"?>
<!DOCTYPE svg PUBLIC "-//W3C//DTD SVG 20010904//EN"
 "http://www.w3.org/TR/2001/REC-SVG-20010904/DTD/svg10.dtd">
<svg version="1.0" xmlns="http://www.w3.org/2000/svg"
 width="1137.000000pt" height="2652.000000pt" viewBox="0 0 1137.000000 2652.000000"
 preserveAspectRatio="xMidYMid meet">
<metadata>
Created by potrace 1.16, written by Peter Selinger 2001-2019
</metadata>
<g transform="translate(0.000000,2652.000000) scale(0.100000,-0.100000)"
fill="current" stroke="none">
<path d="M5601 25159 c-13 -5 -78 -12 -145 -15 -118 -5 -217 -26 -243 -51 -10
-9 -10 -13 0 -17 9 -5 9 -7 -2 -12 -13 -6 -31 -25 -57 -56 -6 -8 -13 -40 -16
-71 -5 -60 -14 -80 -27 -59 -5 9 -11 5 -19 -13 -18 -38 -16 -384 1 -418 11
-21 16 -24 26 -14 10 10 12 -76 7 -433 -3 -245 -9 -490 -12 -545 -7 -118 9
-218 30 -189 12 15 14 11 20 -31 4 -27 14 -58 22 -71 16 -23 10 -94 -7 -94 -5
0 -9 -38 -9 -84 0 -46 -3 -98 -6 -115 -7 -33 -24 -43 -24 -13 -1 9 -7 2 -15
-17 -9 -20 -15 -67 -16 -120 0 -47 -5 -120 -10 -161 -5 -41 -13 -117 -17 -168
-6 -73 -12 -96 -25 -103 -13 -8 -17 -24 -17 -66 0 -43 -3 -54 -14 -50 -18 7
-33 -26 -41 -90 -4 -29 -11 -53 -16 -53 -5 0 -9 -24 -10 -52 0 -74 -13 -133
-27 -131 -9 2 -12 -23 -12 -88 0 -77 -2 -90 -15 -85 -12 4 -15 -3 -15 -34 0
-29 4 -40 15 -40 10 0 15 -10 15 -30 0 -16 -5 -30 -11 -30 -32 0 -38 -35 -39
-197 0 -97 4 -164 10 -168 16 -10 12 -22 -10 -28 -11 -3 -23 -13 -26 -24 -4
-10 -16 -25 -27 -34 -16 -13 -18 -23 -13 -52 7 -40 22 -55 38 -39 32 32 33 3
28 -651 -5 -605 -6 -655 -22 -671 -24 -24 -23 -53 4 -67 l21 -11 -8 -1247 c-5
-685 -10 -1275 -12 -1311 -2 -36 -6 -150 -8 -255 -4 -155 -7 -192 -20 -201
-21 -16 -19 -57 4 -71 18 -11 19 -23 5 -89 -2 -13 -14 -24 -29 -28 -15 -4 -23
-11 -19 -17 8 -13 -13 -29 -40 -29 -10 0 -37 -13 -60 -28 -22 -15 -55 -34 -73
-41 -20 -8 -30 -18 -26 -27 3 -8 -5 -16 -21 -20 -14 -3 -26 -10 -26 -14 0 -4
-16 -11 -35 -14 -19 -4 -35 -10 -35 -14 0 -4 -20 -16 -44 -26 -40 -18 -43 -21
-28 -33 15 -11 13 -12 -15 -13 -18 0 -36 -6 -40 -14 -4 -7 -38 -28 -75 -45
-39 -18 -68 -38 -68 -46 0 -8 -9 -15 -20 -15 -11 0 -20 -6 -20 -14 0 -15 -21
-26 -51 -26 -10 0 -19 -4 -19 -10 0 -5 -6 -10 -12 -10 -7 0 -31 -14 -52 -30
-22 -17 -48 -30 -57 -30 -12 0 -16 -5 -13 -15 4 -9 -3 -16 -20 -21 -14 -3 -26
-10 -26 -14 0 -4 -14 -10 -31 -14 -18 -3 -42 -18 -55 -32 -13 -14 -27 -23 -32
-21 -4 3 -16 1 -27 -4 -17 -6 -17 -8 -2 -8 19 -1 24 -21 5 -21 -26 0 -197 -92
-192 -103 4 -12 -79 -57 -103 -57 -7 0 -13 -3 -13 -8 0 -4 -18 -15 -41 -25
-28 -12 -39 -22 -35 -32 4 -11 -2 -15 -24 -15 -18 0 -30 -5 -30 -13 0 -11 -86
-57 -106 -57 -10 0 -34 -28 -34 -39 0 -6 -11 -11 -25 -11 -18 0 -23 -4 -19
-15 4 -10 0 -15 -14 -15 -10 0 -31 -9 -45 -20 -14 -11 -31 -20 -39 -21 -7 0
-26 -9 -43 -20 -16 -11 -38 -22 -48 -25 -13 -5 -15 -10 -7 -19 8 -10 5 -15
-12 -20 -26 -7 -95 -40 -118 -55 -8 -6 -27 -14 -42 -20 -19 -6 -26 -14 -22
-24 4 -10 -3 -17 -20 -22 -14 -3 -26 -10 -26 -14 0 -5 -15 -12 -32 -15 -18 -4
-35 -10 -38 -14 -3 -3 -22 -14 -42 -25 -23 -11 -35 -23 -31 -32 4 -10 -3 -14
-21 -14 -14 0 -26 -5 -26 -10 0 -6 -12 -16 -27 -23 -16 -6 -34 -17 -41 -24 -7
-7 -21 -13 -31 -13 -10 0 -30 -11 -45 -25 -15 -14 -31 -25 -37 -25 -5 0 -9 -6
-9 -14 0 -15 -21 -26 -51 -26 -10 0 -19 -4 -19 -8 0 -4 -12 -13 -27 -20 -56
-24 -103 -56 -103 -69 0 -7 -11 -15 -25 -19 -14 -3 -25 -10 -25 -14 0 -4 -16
-11 -35 -14 -19 -4 -35 -11 -35 -15 0 -5 -19 -18 -42 -29 -24 -12 -37 -21 -30
-22 15 0 16 -20 1 -20 -29 0 -100 -45 -106 -68 -3 -14 -11 -21 -19 -18 -16 6
-19 -13 -15 -84 2 -27 10 -49 20 -57 19 -15 81 -17 81 -3 0 6 5 10 12 10 6 0
40 14 74 31 44 21 61 35 57 44 -3 9 3 17 13 21 11 3 33 12 51 20 17 8 36 14
42 14 6 0 11 4 11 8 0 5 18 17 39 27 26 11 38 22 34 31 -4 10 4 14 26 14 21 0
31 5 31 15 0 9 12 18 30 22 17 3 30 9 30 13 0 4 12 11 26 14 29 8 54 29 54 45
0 6 11 11 25 11 16 0 25 6 25 15 0 8 6 15 13 15 8 0 24 9 37 20 13 11 32 20
44 20 25 1 99 54 89 64 -10 10 17 26 45 26 12 0 22 5 22 10 0 6 6 10 14 10 7
0 24 8 37 19 13 10 38 23 54 28 17 6 29 16 27 25 -2 13 81 58 107 58 5 0 11 3
13 8 2 4 20 15 40 26 23 11 35 23 31 32 -5 13 -1 16 30 18 6 1 20 9 30 19 9 9
24 17 32 17 8 0 15 5 15 10 0 6 5 10 11 10 23 0 79 33 79 46 0 8 6 14 13 14 7
0 20 9 30 20 9 11 28 20 42 20 14 0 25 5 25 10 0 6 6 10 14 10 7 0 25 11 41
25 15 14 40 28 55 32 19 3 27 10 23 19 -3 8 5 16 21 20 14 3 26 10 26 14 0 4
13 10 29 13 17 4 39 14 51 24 11 10 35 23 53 30 18 6 24 12 15 12 -19 1 -25
21 -7 21 16 0 103 43 107 53 2 4 8 7 14 7 26 0 76 33 71 46 -3 9 2 14 14 14
10 0 26 9 36 20 9 11 28 20 42 20 14 0 25 3 25 8 0 4 18 15 39 26 25 12 38 23
34 32 -4 10 4 14 26 14 19 0 31 5 31 13 0 11 86 57 108 57 4 0 16 11 26 25 10
14 27 25 37 25 12 0 16 5 13 15 -4 9 0 15 10 15 8 0 46 17 83 37 38 20 77 41
89 47 11 6 19 17 16 24 -2 6 5 15 15 18 24 8 94 42 113 54 8 6 27 14 42 20 16
5 26 15 23 22 -4 12 115 78 140 78 6 0 9 -63 7 -177 -3 -162 -2 -178 16 -203
20 -26 20 -27 1 -38 -17 -11 -19 -25 -19 -137 0 -80 4 -132 12 -145 9 -15 9
-24 -1 -44 -9 -15 -11 -37 -7 -58 8 -39 8 -50 0 -107 -4 -27 -2 -52 7 -67 10
-19 10 -29 0 -47 -7 -13 -11 -47 -9 -77 l3 -55 40 -6 c22 -3 32 -7 22 -8 -10
0 -29 -13 -42 -27 -21 -23 -25 -37 -25 -88 0 -36 5 -67 12 -74 10 -10 10 -17
0 -32 -15 -25 -16 -160 -1 -160 8 0 9 -11 4 -32 -4 -18 -10 -101 -14 -183 -5
-134 -8 -154 -28 -178 -12 -15 -27 -26 -34 -25 -7 2 -19 -10 -28 -27 -9 -16
-18 -32 -21 -35 -7 -7 -28 -41 -42 -68 -6 -13 -17 -20 -25 -18 -8 3 -17 -2
-20 -11 -6 -16 -31 -48 -60 -78 -7 -7 -15 -24 -19 -39 -7 -29 -24 -35 -25 -8
0 12 -3 10 -10 -7 -5 -13 -8 -26 -5 -28 2 -2 -13 -21 -34 -41 -21 -20 -41 -47
-44 -59 -8 -25 -22 -30 -29 -10 -4 8 -6 7 -6 -4 -1 -8 -14 -31 -31 -49 -16
-18 -30 -40 -30 -47 0 -7 -4 -13 -9 -13 -5 0 -11 -10 -13 -22 -2 -13 -10 -23
-18 -23 -21 0 -80 -63 -80 -86 0 -10 -4 -19 -10 -19 -5 0 -10 -7 -10 -15 0 -9
-7 -18 -16 -22 -19 -7 -74 -59 -74 -70 0 -11 -44 -73 -52 -73 -14 0 -43 -34
-61 -70 -21 -43 -52 -80 -66 -80 -6 0 -11 -7 -11 -15 0 -8 -7 -15 -15 -15 -8
0 -15 -5 -15 -10 0 -6 -5 -16 -10 -23 -41 -48 -50 -62 -50 -74 0 -7 -7 -13
-15 -13 -8 0 -15 -5 -15 -10 0 -6 -20 -30 -45 -54 -25 -25 -45 -54 -45 -65 0
-12 -7 -21 -15 -21 -8 0 -15 -7 -15 -15 0 -8 -6 -15 -14 -15 -8 0 -23 -13 -33
-30 -9 -16 -21 -30 -25 -30 -4 0 -8 -6 -8 -14 0 -17 -40 -60 -64 -69 -10 -4
-23 -21 -29 -37 -6 -17 -14 -30 -18 -30 -4 0 -10 -11 -13 -24 -3 -14 -19 -30
-36 -37 -16 -8 -37 -29 -47 -49 -21 -40 -32 -55 -55 -78 -10 -9 -18 -22 -18
-29 0 -7 -7 -13 -15 -13 -9 0 -19 -8 -23 -18 -10 -25 -58 -82 -70 -82 -6 0
-13 -12 -17 -27 -5 -21 -8 -24 -16 -12 -6 10 -9 10 -9 1 0 -19 -63 -111 -77
-111 -7 -1 -10 -8 -7 -16 4 -9 -1 -18 -12 -22 -28 -10 -62 -50 -86 -100 -12
-25 -28 -48 -37 -51 -25 -9 -67 -55 -76 -81 -7 -24 -39 -61 -53 -61 -11 0 -35
-30 -55 -70 -23 -47 -53 -81 -68 -78 -7 2 -19 -10 -28 -27 -9 -16 -18 -32 -21
-35 -7 -7 -28 -41 -42 -68 -6 -12 -18 -21 -27 -20 -9 2 -16 -3 -16 -11 0 -8
-17 -32 -38 -54 -20 -21 -40 -50 -43 -63 -3 -13 -12 -24 -20 -24 -8 0 -14 -4
-14 -9 0 -5 -18 -27 -39 -48 -22 -21 -43 -51 -46 -66 -5 -17 -13 -26 -20 -23
-15 5 -64 -53 -89 -107 -10 -21 -23 -36 -29 -34 -15 5 -66 -51 -73 -80 -4 -13
-10 -23 -15 -23 -5 0 -9 -7 -9 -15 0 -9 -8 -19 -17 -22 -22 -8 -63 -52 -63
-67 -1 -13 -56 -76 -68 -76 -12 0 -36 -31 -50 -65 -15 -36 -57 -85 -72 -85 -5
0 -10 -7 -10 -15 0 -8 -7 -15 -15 -15 -8 0 -15 -7 -15 -15 0 -8 -4 -15 -10
-15 -5 0 -10 -6 -10 -13 0 -8 -9 -22 -20 -32 -11 -10 -20 -24 -20 -32 0 -7 -7
-13 -15 -13 -8 0 -15 -5 -15 -11 0 -6 -18 -27 -39 -47 -22 -20 -43 -49 -46
-64 -4 -16 -13 -28 -21 -28 -8 0 -14 -7 -14 -15 0 -8 -6 -15 -12 -15 -13 0
-68 -71 -68 -87 0 -5 -20 -24 -45 -41 -31 -22 -47 -41 -51 -62 -4 -16 -10 -30
-15 -30 -5 0 -9 -7 -9 -15 0 -9 -8 -18 -17 -22 -21 -7 -83 -71 -83 -85 0 -10
-16 -31 -42 -56 -10 -9 -18 -25 -18 -35 0 -13 -5 -17 -15 -13 -10 3 -19 -1
-23 -13 -10 -26 -59 -81 -71 -81 -6 0 -11 -9 -11 -19 0 -11 -5 -23 -10 -26 -6
-3 -10 0 -10 7 0 7 -7 0 -16 -17 -27 -53 -59 -95 -71 -95 -7 0 -10 -7 -7 -15
4 -9 -1 -18 -12 -22 -11 -4 -27 -16 -36 -27 -10 -12 -23 -27 -30 -35 -6 -8
-12 -21 -13 -30 -1 -19 -35 -61 -49 -61 -15 0 -66 -62 -72 -87 -4 -13 -10 -23
-15 -23 -5 0 -14 -12 -20 -27 -9 -25 -11 -26 -20 -10 -7 12 -6 26 5 47 14 28
13 31 -11 50 -14 11 -30 20 -35 20 -19 0 -48 -21 -48 -35 0 -16 -19 -19 -88
-15 -33 1 -41 -1 -36 -13 3 -10 -4 -16 -26 -21 -40 -7 -58 -25 -62 -62 -3 -26
-6 -29 -35 -26 -26 3 -32 0 -27 -11 4 -11 -4 -17 -24 -22 -25 -5 -32 -13 -42
-53 -10 -41 -9 -48 6 -59 10 -7 26 -13 36 -13 10 0 18 -6 18 -14 0 -7 10 -16
22 -20 42 -10 7 -26 -37 -16 -42 9 -119 -2 -142 -22 -7 -6 -13 -19 -13 -29 0
-10 -7 -22 -16 -27 -10 -6 -14 -20 -12 -43 3 -33 4 -34 53 -37 82 -4 101 -20
33 -28 -47 -6 -88 -49 -88 -95 0 -20 7 -42 15 -49 12 -10 15 -10 15 3 0 11 14
18 48 22 26 3 55 10 64 16 25 13 75 12 61 -2 -6 -6 -9 -19 -6 -29 6 -21 40
-33 49 -18 24 39 33 -100 9 -146 -16 -31 -20 -62 -7 -70 14 -9 102 17 102 31
0 9 17 13 59 13 52 0 61 3 66 21 4 12 12 18 21 15 8 -3 14 -1 14 4 0 6 7 10
15 10 8 0 15 8 15 18 0 9 9 28 20 42 l20 25 6 -22 c6 -20 13 -23 60 -23 30 0
54 5 54 10 0 6 11 15 25 20 23 9 25 15 25 65 0 42 -3 55 -15 55 -8 0 -15 7
-15 16 0 23 -55 74 -80 74 -38 0 -15 25 26 28 21 2 42 9 46 17 4 7 20 16 35
20 34 8 52 32 52 70 0 31 -19 65 -37 65 -5 0 -12 7 -16 15 -6 17 -75 21 -92 6
-5 -5 -19 -12 -31 -16 -17 -5 -23 -2 -23 9 0 9 9 16 20 16 11 0 19 3 17 8 -1
4 7 16 18 28 32 34 51 59 58 78 4 11 13 16 22 12 8 -3 15 0 15 7 0 7 10 22 23
33 12 12 32 41 44 65 20 40 54 79 69 79 13 0 44 44 44 62 0 10 4 18 9 18 5 0
13 9 16 21 4 12 12 18 21 15 8 -3 14 1 14 9 0 8 6 15 14 15 8 0 23 19 35 42
22 47 44 78 55 78 9 0 47 39 60 64 37 64 52 86 64 86 6 0 12 7 12 15 0 8 7 15
15 15 8 0 15 3 15 8 0 4 11 19 25 34 13 14 27 38 31 52 3 14 12 26 20 26 8 0
14 9 14 20 0 11 6 20 13 20 20 0 77 66 77 89 0 12 6 21 15 21 8 0 15 7 15 15
0 8 6 15 13 15 14 0 47 35 47 50 0 6 5 10 10 10 6 0 10 6 10 14 0 18 48 69 59
62 4 -3 17 11 27 32 10 20 22 39 26 40 5 2 8 9 8 15 1 16 50 71 57 64 7 -8 29
14 37 38 3 11 20 35 36 54 17 18 30 38 30 43 0 6 7 8 15 4 9 -3 15 0 15 9 0 8
4 15 10 15 5 0 7 6 5 13 -3 7 13 30 35 52 21 22 39 45 40 52 0 7 7 10 15 7 9
-4 15 0 15 10 0 9 5 16 10 16 6 0 10 6 10 13 0 7 9 20 20 30 11 9 20 24 20 32
0 8 5 15 10 15 6 0 10 7 10 15 0 9 8 19 17 22 28 10 83 72 83 94 0 10 7 19 15
19 9 0 12 6 8 18 -6 15 -4 15 15 -2 12 -11 22 -25 22 -33 0 -17 50 -73 66 -73
6 0 14 -10 18 -23 10 -43 43 -67 91 -67 49 0 70 15 80 60 8 37 -13 100 -32 93
-7 -3 -16 3 -20 13 -3 11 -9 21 -12 24 -3 3 -14 22 -25 42 -11 22 -32 44 -52
53 -18 8 -36 20 -39 25 -8 13 14 45 39 56 11 5 25 19 31 32 5 12 13 22 17 22
5 0 8 6 8 13 0 8 9 24 20 37 11 13 20 27 20 32 0 5 5 6 11 3 13 -8 49 23 49
42 0 8 5 19 10 26 41 48 50 62 50 74 0 8 8 13 18 11 9 -2 16 2 15 8 -1 7 18
33 42 58 25 25 45 55 45 66 0 24 20 27 21 3 0 -11 5 -7 11 11 6 16 18 36 27
46 29 31 47 56 54 74 4 11 13 16 22 12 8 -3 15 0 15 5 0 6 14 27 30 46 17 18
30 40 30 48 0 8 5 15 10 15 6 0 10 9 10 20 0 12 10 24 24 30 34 13 76 57 76
81 0 11 5 17 10 14 6 -3 10 -19 10 -35 0 -26 5 -31 40 -40 22 -6 40 -15 40
-20 0 -5 10 -10 23 -12 14 -2 21 -9 21 -21 -1 -9 4 -17 12 -17 8 0 14 -4 14
-10 0 -5 6 -10 14 -10 7 0 19 -7 26 -15 9 -10 32 -15 77 -15 52 0 65 3 69 18
3 9 11 27 17 40 9 18 7 29 -8 55 -27 46 -40 57 -68 57 -13 0 -32 9 -42 20 -10
11 -24 20 -32 20 -8 0 -13 8 -11 17 2 12 -7 21 -30 29 -19 6 -37 15 -40 21 -4
6 -17 14 -30 17 l-23 8 33 38 c18 21 36 39 40 39 12 1 48 40 48 51 0 6 5 10
10 10 6 0 10 4 10 9 0 18 45 80 58 81 6 0 12 7 12 15 0 8 7 15 15 15 8 0 15 4
15 9 0 6 11 22 25 37 14 15 28 38 31 51 4 13 12 23 20 23 8 0 14 9 14 20 0 11
6 20 14 20 19 0 76 69 76 92 0 10 7 18 15 18 8 0 15 7 15 15 0 8 6 15 14 15 8
0 23 14 33 30 9 17 21 30 25 30 4 0 8 7 8 16 0 18 49 68 58 60 8 -9 42 35 42
56 0 10 4 18 9 18 5 0 11 9 14 20 3 13 14 20 29 20 13 0 31 -9 41 -20 9 -11
24 -20 33 -20 10 0 14 -5 10 -15 -4 -11 3 -19 19 -25 14 -5 28 -17 32 -25 4
-13 19 -16 72 -14 l66 3 5 -40 c4 -33 11 -42 45 -60 22 -11 52 -24 68 -27 15
-4 27 -14 27 -22 0 -10 11 -15 34 -15 25 0 33 -4 32 -16 -2 -27 28 -39 63 -25
17 8 28 18 25 23 -3 5 1 15 11 21 12 10 15 25 13 62 -3 48 -4 50 -41 58 -26 6
-37 14 -33 23 3 8 -1 14 -9 14 -8 0 -26 11 -41 25 -15 14 -37 25 -50 25 -12 0
-29 7 -38 15 -17 17 -42 20 -51 5 -12 -19 -35 -10 -35 13 0 28 -17 47 -36 40
-8 -3 -14 1 -14 10 0 17 -76 77 -97 77 -17 0 -17 17 0 23 6 3 -3 6 -20 6 -35
1 -46 24 -18 35 8 3 15 13 15 22 0 13 3 14 14 5 12 -10 15 -7 21 16 3 15 24
48 45 71 22 24 40 48 40 54 0 6 7 8 15 4 9 -3 15 0 15 9 0 8 5 15 10 15 6 0
10 6 10 13 0 8 9 22 20 32 11 10 20 24 20 32 0 7 4 13 9 13 5 0 12 11 15 25 4
14 11 23 17 20 14 -9 79 62 79 86 0 10 4 19 9 19 5 0 11 10 14 21 4 15 11 20
21 16 9 -4 16 -2 16 4 0 5 11 20 25 33 14 13 25 27 25 32 0 19 46 74 63 74 11
0 26 18 42 53 29 61 59 99 76 95 7 -2 19 11 28 27 9 17 19 32 24 33 4 2 7 9 7
16 0 6 9 19 20 29 11 9 20 24 20 33 0 8 6 14 13 12 9 -4 13 -64 15 -246 2
-232 2 -243 -18 -259 -27 -24 -27 -79 0 -86 20 -5 20 -14 20 -455 0 -250 -4
-453 -9 -456 -5 -3 -20 3 -33 14 -14 10 -37 22 -51 25 -31 8 -35 21 -9 28 13
4 12 5 -5 6 -12 0 -23 5 -25 11 -5 15 -101 15 -126 -1 -19 -12 -22 -23 -22
-72 0 -39 4 -56 11 -52 6 4 20 -2 32 -13 12 -10 35 -22 50 -26 20 -5 27 -12
23 -21 -3 -9 7 -20 29 -31 19 -9 35 -20 35 -25 0 -4 21 -9 46 -11 l46 -3 0
-150 0 -149 -27 -9 c-22 -8 -26 -14 -23 -40 2 -23 9 -33 26 -37 l23 -5 -1
-399 c0 -362 -4 -437 -17 -398 -3 6 -18 12 -33 12 -19 0 -33 7 -40 20 -6 12
-21 20 -36 20 -16 0 -24 5 -21 13 2 6 -3 17 -12 24 -21 16 -133 17 -149 1 -13
-13 -17 -118 -4 -118 5 0 18 -9 29 -19 11 -11 33 -21 49 -23 20 -2 29 -8 28
-20 -1 -11 5 -18 17 -18 10 0 22 -6 26 -12 10 -16 49 -38 67 -38 7 0 19 -6 25
-14 6 -7 25 -16 42 -20 26 -5 29 -9 20 -20 -8 -9 -11 -63 -11 -163 2 -145 -3
-183 -21 -183 -15 0 -10 -40 7 -58 15 -14 16 -87 13 -781 -3 -713 -5 -768 -21
-790 -26 -35 -24 -87 4 -94 l21 -6 -7 -1818 c-3 -1000 -11 -1926 -16 -2058 -5
-132 -9 -536 -9 -899 l-1 -659 23 -19 c12 -11 22 -30 22 -41 0 -29 -40 -67
-69 -67 -13 0 -37 -7 -52 -15 -20 -10 -23 -15 -11 -15 9 0 17 -4 17 -9 0 -13
-37 -21 -97 -21 -28 0 -54 -4 -58 -9 -3 -6 -27 -13 -53 -17 -48 -6 -112 -45
-112 -67 0 -14 -43 -57 -57 -57 -13 0 -63 -54 -63 -67 0 -7 -8 -19 -17 -29
-10 -9 -18 -22 -19 -28 0 -6 -2 -17 -2 -25 -1 -7 -8 -11 -16 -8 -19 8 -36 -12
-36 -44 0 -15 -7 -32 -15 -39 -8 -6 -17 -22 -21 -33 -3 -12 -11 -28 -18 -36
-6 -7 -11 -19 -12 -25 0 -6 -2 -19 -2 -30 -2 -14 -5 -16 -15 -7 -21 17 -35
-23 -39 -112 -2 -43 -8 -81 -14 -85 -6 -4 -14 -32 -18 -64 -5 -35 -13 -58 -22
-62 -11 -4 -14 -30 -14 -126 0 -73 -4 -120 -10 -120 -5 0 -11 6 -12 13 -1 13
-14 -92 -25 -225 -5 -48 -14 -93 -20 -100 -8 -7 -13 -38 -13 -73 0 -34 -3
-123 -7 -198 -6 -127 -7 -135 -25 -126 -10 5 -26 13 -36 18 -10 5 -32 12 -50
16 -18 3 -32 13 -32 21 0 8 -10 14 -26 14 -16 0 -24 5 -21 13 5 17 -23 36 -54
37 -14 0 -34 9 -44 20 -10 11 -25 20 -33 20 -8 0 -12 6 -8 15 4 11 -2 15 -24
15 -20 0 -30 5 -30 15 0 23 -75 65 -115 65 -23 0 -41 7 -52 20 -10 11 -23 20
-30 20 -7 0 -13 6 -13 14 0 13 -22 28 -46 30 -16 2 -74 53 -74 66 0 7 -13 10
-32 8 l-33 -3 -3 320 c-3 321 0 365 19 365 22 0 68 45 74 71 4 16 11 31 16 34
12 8 12 375 0 375 -5 0 -12 11 -15 25 -4 14 -18 31 -32 37 -15 7 -23 17 -19
25 3 9 -8 19 -33 29 -20 8 -45 19 -54 24 -21 12 -125 13 -130 3 -1 -5 -16 -15
-33 -23 -18 -10 -30 -24 -30 -35 0 -13 -6 -20 -17 -19 -11 1 -19 -8 -23 -27
-4 -16 -11 -29 -16 -29 -5 0 -9 -9 -9 -19 0 -11 -4 -23 -10 -26 -5 -3 -10 -44
-10 -90 0 -60 -4 -86 -14 -92 -7 -4 -16 -27 -19 -51 -6 -47 -17 -66 -25 -43
-3 8 -11 -9 -19 -39 -22 -88 7 -150 71 -150 38 0 64 -14 47 -25 -9 -5 -12 -67
-10 -218 l1 -212 -68 -3 c-38 -1 -71 -8 -75 -13 -3 -6 -22 -14 -40 -18 -21 -4
-38 -15 -44 -29 -7 -16 -18 -22 -41 -22 -24 0 -31 -4 -30 -18 1 -14 -9 -17
-61 -20 l-63 -3 -6 -41 c-6 -37 -8 -39 -21 -23 -12 18 -13 17 -13 -8 0 -17 5
-27 15 -27 8 0 15 -4 15 -10 0 -6 29 -10 66 -10 69 0 80 -14 18 -26 -20 -4
-38 -14 -40 -23 -3 -9 -13 -31 -21 -49 -13 -25 -14 -35 -5 -44 7 -7 12 -21 12
-33 1 -22 32 -65 49 -65 6 0 11 -7 11 -15 0 -9 12 -20 28 -26 15 -6 41 -17 57
-24 17 -7 51 -15 77 -18 26 -2 54 -12 63 -21 9 -9 30 -16 47 -16 21 0 29 -4
25 -14 -7 -17 25 -33 86 -41 26 -3 47 -10 47 -16 0 -5 15 -9 33 -9 47 0 77
-10 77 -26 0 -10 14 -14 51 -14 32 0 48 -4 44 -10 -9 -15 14 -40 37 -40 11 0
34 -6 51 -14 18 -8 48 -17 69 -20 20 -4 39 -13 42 -21 3 -10 19 -15 42 -15 27
0 35 -4 31 -14 -8 -20 59 -62 111 -71 23 -4 42 -11 42 -16 0 -5 12 -12 26 -15
18 -5 22 -10 15 -17 -13 -13 15 -36 45 -37 12 0 31 -9 44 -20 13 -11 29 -20
37 -20 7 0 16 -7 20 -15 3 -9 13 -15 22 -14 31 3 43 -1 39 -13 -6 -18 13 -34
50 -43 18 -3 32 -10 32 -15 0 -4 11 -11 25 -14 14 -4 25 -10 25 -15 0 -5 14
-12 31 -16 16 -4 28 -12 26 -18 -5 -16 23 -36 50 -37 12 0 28 -6 35 -13 7 -8
31 -16 52 -20 22 -3 42 -11 45 -16 4 -5 19 -13 34 -16 18 -5 26 -12 23 -21 -5
-13 64 -52 124 -69 14 -4 31 -12 38 -18 12 -9 28 -13 76 -16 15 -1 17 -4 8
-13 -16 -16 14 -37 55 -38 17 0 38 -6 46 -14 8 -8 31 -18 51 -21 20 -4 36 -11
36 -15 0 -5 9 -12 21 -15 11 -4 18 -12 16 -18 -5 -17 18 -36 52 -43 17 -4 31
-10 31 -15 0 -5 6 -9 14 -9 7 0 19 -7 26 -15 7 -8 27 -17 45 -21 21 -4 32 -11
29 -18 -6 -15 68 -66 95 -66 10 0 24 -6 30 -14 7 -8 27 -17 46 -20 33 -6 50
-26 23 -26 -6 0 -3 -7 8 -15 10 -8 31 -15 45 -15 14 0 34 -7 45 -15 10 -8 38
-15 61 -15 23 0 48 -6 56 -14 8 -8 35 -17 60 -21 26 -4 47 -11 47 -16 0 -5 -5
-9 -11 -9 -21 0 2 -19 31 -25 18 -4 34 -17 42 -33 15 -30 54 -40 158 -41 68
-1 97 17 106 64 3 20 10 38 15 41 5 3 9 16 9 30 0 20 5 24 28 24 35 0 45 -9
31 -26 -5 -6 -7 -24 -3 -38 6 -26 7 -26 103 -26 92 1 129 11 127 35 -1 6 31
11 72 13 55 2 72 6 72 17 0 8 12 18 28 21 15 4 36 13 47 20 11 8 36 14 57 14
21 0 38 3 38 8 0 4 18 16 40 26 22 10 37 23 33 29 -7 11 15 27 40 27 10 0 25
7 33 15 11 11 38 15 98 15 45 0 87 5 93 11 5 5 37 12 69 15 67 6 112 23 92 35
-18 11 -6 19 34 22 33 3 44 9 89 50 10 9 31 17 47 17 32 1 60 20 55 38 -3 8
11 12 50 12 55 0 55 0 76 43 15 30 21 63 21 109 0 78 -11 92 -70 86 -32 -3
-40 0 -40 13 0 11 11 20 29 24 51 11 61 115 12 115 -11 0 -22 -8 -25 -17 -13
-34 -29 3 -22 51 7 44 20 59 29 34 2 -7 9 17 16 54 13 75 3 112 -31 121 -11 3
-18 12 -16 19 6 16 -20 37 -47 38 -11 0 -33 7 -50 16 -24 13 -64 17 -191 18
l-160 1 -32 -32 c-18 -17 -32 -36 -32 -42 0 -6 -5 -11 -11 -11 -24 0 -38 -30
-41 -91 -3 -68 -21 -84 -26 -25 -2 26 -7 33 -18 29 -8 -3 -14 0 -14 6 0 13
-67 81 -80 81 -6 0 -10 9 -10 20 0 11 -7 20 -15 20 -9 0 -19 8 -22 17 -4 10
-13 24 -20 31 -16 17 -17 98 -1 108 6 4 14 2 16 -4 5 -16 41 -15 71 2 18 10
20 15 11 21 -19 12 13 23 66 24 22 1 55 8 72 17 35 17 83 16 89 -3 3 -8 -11
-15 -36 -19 -23 -4 -41 -10 -41 -15 0 -5 -22 -11 -50 -15 -27 -4 -50 -10 -50
-15 0 -5 -7 -9 -16 -9 -9 0 -29 -8 -45 -17 -26 -16 -29 -22 -29 -70 0 -48 2
-53 25 -59 15 -4 39 0 59 10 19 9 45 16 58 16 31 0 53 15 53 37 0 13 9 19 34
21 19 2 40 10 48 18 10 10 39 14 102 14 48 0 91 4 97 10 5 5 36 12 69 15 71 8
105 22 98 41 -4 11 7 14 51 14 44 0 54 3 50 14 -4 11 5 17 33 21 21 4 52 13
70 21 17 8 57 14 90 14 41 0 65 6 82 19 20 15 36 18 81 14 69 -7 128 10 126
35 -1 14 9 18 48 20 27 2 55 10 63 18 8 8 32 14 54 14 23 0 47 7 55 15 9 8 34
15 57 15 44 1 90 24 65 33 -27 9 4 20 55 18 42 -1 57 3 72 19 13 14 31 20 61
20 23 0 44 5 46 11 2 6 19 14 38 18 22 4 39 15 45 29 7 15 18 22 37 22 19 0
26 4 22 14 -4 10 6 16 35 21 23 4 41 11 41 16 0 5 12 12 28 15 15 4 40 18 56
31 37 31 93 29 119 -4 10 -13 28 -23 40 -23 28 0 117 -42 117 -55 0 -5 23 -26
50 -45 27 -19 50 -38 50 -41 0 -4 16 -10 35 -13 24 -5 33 -11 28 -21 -4 -11 3
-15 26 -15 20 0 31 -5 31 -14 0 -14 61 -59 98 -70 12 -4 22 -14 22 -22 0 -8 4
-14 8 -14 5 0 14 -11 21 -24 8 -13 36 -33 67 -46 30 -13 54 -29 54 -37 0 -7 8
-13 19 -13 10 0 27 -11 37 -25 10 -14 27 -25 36 -25 10 0 35 -9 55 -20 21 -11
44 -20 51 -20 8 0 12 -6 9 -14 -4 -11 3 -16 26 -18 19 -2 31 -8 30 -16 -2 -8
13 -12 52 -12 30 0 55 4 55 9 0 5 20 12 44 15 32 5 43 11 42 23 0 10 9 19 24
23 23 5 25 11 28 63 l3 57 58 0 c32 0 73 -3 90 -6 33 -7 42 -23 14 -25 -14 0
-15 -2 -3 -6 8 -2 25 -9 37 -15 31 -15 73 4 73 32 0 11 7 23 15 26 11 5 15 23
15 74 0 38 -4 71 -9 74 -5 3 -12 22 -15 41 -6 29 -11 35 -34 36 -53 2 -57 4
-59 29 -2 41 8 72 23 66 18 -7 26 9 30 58 4 47 -14 96 -33 89 -9 -4 -13 4 -13
23 0 21 3 25 12 16 16 -16 37 14 37 53 0 31 -21 69 -32 58 -4 -3 -12 7 -17 24
-11 30 -11 30 -102 35 -50 3 -93 11 -97 16 -4 7 -53 12 -121 14 l-114 3 3 52
c2 47 0 53 -24 65 l-26 14 26 24 c14 13 25 31 25 41 0 21 -36 49 -62 49 -10 0
-18 7 -18 15 0 9 -9 15 -21 15 -15 0 -19 5 -15 15 6 17 -29 45 -56 45 -10 0
-18 5 -18 10 0 6 -11 10 -25 10 -14 0 -29 8 -35 20 -6 11 -18 20 -26 20 -9 0
-14 6 -11 13 5 13 77 13 86 -1 3 -5 23 -12 45 -15 45 -7 56 -15 37 -26 -10 -6
-9 -10 4 -15 9 -3 24 -6 34 -6 9 0 26 -8 37 -18 11 -10 37 -22 58 -25 22 -3
42 -10 45 -15 3 -5 19 -12 34 -16 19 -4 27 -12 24 -20 -6 -16 26 -31 86 -41
20 -3 37 -10 37 -15 0 -6 15 -10 34 -10 19 0 41 -7 50 -15 8 -8 23 -15 33 -15
26 0 47 -16 39 -29 -4 -6 0 -11 8 -11 9 0 16 -4 16 -8 0 -9 81 -52 99 -52 6 0
11 -5 11 -11 0 -6 25 -9 68 -8 58 2 67 0 71 -16 4 -21 25 -45 39 -45 5 0 15
-7 22 -15 7 -8 20 -15 29 -15 22 -1 75 -46 67 -58 -7 -11 45 -32 80 -32 13 0
26 -5 29 -10 8 -13 80 -46 118 -54 18 -4 27 -12 24 -20 -3 -8 11 -20 39 -31
24 -10 44 -21 44 -25 0 -4 16 -11 35 -14 19 -4 35 -11 35 -16 0 -6 12 -10 28
-10 41 0 73 -11 69 -23 -4 -14 54 -46 71 -39 8 2 16 -4 19 -17 4 -18 13 -21
54 -21 34 0 51 5 57 16 6 11 11 13 16 5 9 -14 76 -15 76 -1 0 6 7 10 15 10 10
0 15 10 15 28 0 34 14 57 29 48 11 -7 15 5 12 31 -1 7 11 15 26 19 49 10 53
13 53 34 0 12 9 24 24 29 27 11 36 30 36 73 0 54 -20 103 -48 116 -31 14 -98
16 -107 2 -14 -23 -24 -7 -19 30 5 37 4 41 -23 51 -15 6 -42 13 -60 14 -18 1
-43 9 -55 17 -13 9 -42 19 -66 23 -23 4 -42 10 -42 14 0 5 -25 11 -56 14 -61
6 -76 13 -55 26 17 11 -7 20 -84 31 -33 5 -61 14 -63 20 -2 5 -9 10 -16 10 -7
0 -21 9 -31 20 -10 11 -24 20 -30 20 -7 0 -12 11 -12 25 0 22 4 25 36 25 40 0
81 23 81 46 0 8 4 14 10 14 5 0 26 17 47 37 28 29 43 37 65 34 19 -2 41 6 63
23 18 14 38 26 43 26 5 0 9 8 8 17 0 12 7 19 22 21 12 2 22 8 22 13 0 13 55
69 68 69 6 0 9 7 6 15 -4 9 3 18 17 24 51 21 71 46 76 94 4 31 10 47 19 47 11
0 14 22 14 103 0 67 -4 97 -10 87 -5 -8 -12 -12 -15 -8 -4 3 -9 85 -12 182 -3
97 -9 176 -14 176 -4 0 -10 28 -14 63 -4 34 -12 65 -17 68 -5 3 -11 23 -14 45
-8 59 -25 98 -35 82 -7 -11 -11 -10 -19 2 -5 8 -10 22 -10 31 0 42 -56 109
-90 109 -11 0 -25 15 -35 38 -21 46 -62 91 -94 103 -15 6 -21 15 -17 24 3 8 1
15 -4 15 -5 0 -23 13 -40 30 -17 16 -40 30 -50 30 -11 0 -20 4 -20 9 0 5 -14
11 -30 15 -22 4 -30 11 -28 22 2 12 -10 21 -42 32 -25 8 -46 19 -48 23 -2 5
-9 9 -16 9 -7 0 -21 9 -31 20 -10 11 -29 20 -42 20 -12 0 -23 5 -23 10 0 6 5
10 12 10 9 0 9 3 1 11 -7 7 -22 9 -40 4 -15 -4 -22 -10 -15 -12 19 -7 14 -20
-9 -26 -28 -8 -51 3 -45 20 4 8 -5 18 -22 24 -15 6 -45 19 -67 29 -72 32 -90
39 -122 45 -31 6 -47 25 -21 25 7 0 2 7 -10 16 -13 9 -32 14 -42 11 -11 -3
-25 2 -32 10 -11 14 -67 42 -111 57 -10 3 -17 12 -15 18 6 17 -14 36 -46 44
-14 3 -26 10 -26 15 0 5 -9 9 -19 9 -11 0 -26 6 -34 14 -8 8 -31 18 -51 21
-28 6 -34 10 -26 20 8 9 6 15 -7 20 -10 5 -23 7 -29 7 -5 -1 -20 7 -32 18 -12
11 -32 20 -46 20 -13 0 -31 6 -38 14 -8 7 -35 16 -61 20 -45 7 -66 25 -29 26
9 1 -5 9 -31 20 -27 10 -54 23 -60 28 -7 5 -27 13 -44 17 -18 3 -33 10 -33 15
0 4 -12 11 -26 14 -14 4 -23 12 -21 19 2 7 -10 21 -28 32 -43 27 -105 82 -105
94 0 5 -16 16 -35 25 -19 9 -37 20 -39 25 -3 5 -22 12 -41 15 -19 4 -35 11
-35 16 0 6 -15 10 -32 10 -42 0 -69 16 -50 29 10 6 -4 17 -50 40 -36 17 -70
31 -76 31 -7 0 -12 5 -12 10 0 6 -10 10 -22 10 -30 0 -52 15 -44 29 7 10 -6
16 -27 12 -4 -1 -18 10 -31 24 -13 14 -34 25 -47 25 -13 0 -37 7 -53 15 -39
21 -172 21 -180 0 -3 -8 -14 -15 -24 -15 -10 0 -23 -5 -28 -10 -6 -6 -30 -14
-54 -18 -36 -6 -45 -12 -50 -32 -3 -14 -14 -26 -24 -28 -26 -5 -64 -51 -72
-87 -7 -30 -7 -30 -15 -6 -7 18 -14 22 -32 17 -12 -3 -31 -6 -42 -6 -17 -1
-17 -3 5 -13 23 -11 19 -12 -37 -15 -46 -2 -63 -7 -63 -17 0 -7 -8 -16 -17
-20 -41 -14 -69 -47 -72 -89 -1 -4 -7 -6 -15 -3 -19 7 -36 -12 -36 -41 0 -21
-3 -23 -32 -17 -18 4 -34 11 -36 16 -6 16 -175 10 -196 -6 -13 -10 -43 -15
-81 -15 -55 0 -63 -3 -75 -25 -7 -14 -19 -25 -27 -25 -7 0 -13 -9 -13 -19 0
-11 -9 -21 -24 -25 -19 -5 -25 -14 -30 -55 -4 -28 -11 -53 -16 -56 -13 -8 -13
-298 0 -311 5 -5 13 -32 16 -59 4 -28 10 -52 14 -55 3 -3 13 -23 21 -45 10
-28 21 -40 34 -40 14 0 21 -8 24 -25 1 -14 16 -44 32 -68 16 -24 29 -53 29
-66 0 -26 17 -46 35 -40 14 6 28 -22 19 -37 -3 -5 1 -12 10 -15 8 -3 17 -23
21 -45 4 -21 11 -39 16 -39 5 0 9 -7 9 -15 0 -8 5 -15 10 -15 6 0 10 -7 10
-15 0 -8 9 -15 20 -15 13 0 20 -7 20 -20 0 -25 0 -25 -58 3 -46 22 -51 22
-422 19 -237 -1 -385 -6 -401 -13 -15 -6 -67 -14 -115 -17 -79 -6 -90 -9 -99
-29 -8 -19 -18 -23 -51 -23 -34 0 -42 -3 -40 -17 0 -12 -7 -19 -21 -21 -13 -2
-23 -8 -23 -13 0 -5 -9 -9 -19 -9 -22 0 -74 -57 -65 -71 6 -10 -35 -59 -49
-59 -15 0 -67 -58 -67 -74 0 -20 -41 -58 -56 -52 -8 3 -15 -7 -19 -25 -4 -16
-11 -27 -16 -23 -11 6 -9 3460 3 4249 16 1119 22 1383 36 1397 17 17 17 289 0
306 -19 19 -19 963 0 969 15 6 18 718 2 728 -14 9 -14 935 0 935 6 0 11 -45
12 -112 0 -62 5 29 10 202 7 275 3 462 -9 408 -3 -10 -9 -18 -14 -18 -5 0 -9
157 -9 391 0 257 3 388 10 384 6 -4 11 -90 12 -218 l2 -212 6 240 c22 763 23
882 12 889 -9 5 -12 83 -12 276 0 169 -4 271 -10 275 -6 4 -7 13 -1 23 13 24
13 373 0 388 -7 8 -7 14 1 19 6 4 10 86 10 236 0 211 -1 229 -17 229 -17 1
-17 1 0 14 12 10 17 28 17 68 0 45 5 62 30 96 17 23 30 49 30 57 0 8 6 15 14
15 7 0 21 10 29 23 9 12 30 37 46 56 17 18 31 38 31 43 0 6 7 8 15 4 9 -3 15
0 15 9 0 8 5 15 10 15 6 0 10 6 10 14 0 7 7 19 15 26 8 7 25 32 37 56 12 25
27 43 32 41 17 -6 65 48 87 98 14 32 25 45 35 41 8 -3 14 -1 14 5 0 5 11 20
25 33 14 13 25 30 25 37 1 16 45 69 58 69 14 0 42 35 42 53 0 9 5 17 10 17 6
0 10 6 10 13 1 17 47 68 60 65 6 -2 18 10 28 27 19 33 24 40 52 74 11 13 20
30 20 38 0 7 9 13 21 13 11 0 18 4 15 9 -4 5 12 27 33 48 22 21 43 51 46 66 4
15 11 27 17 27 14 0 76 71 93 108 9 17 22 32 29 32 19 0 76 69 76 92 0 10 4
18 9 18 5 0 11 9 14 21 3 12 11 19 18 17 17 -6 67 45 75 76 3 14 10 26 14 26
5 0 12 9 15 21 4 12 12 18 21 15 8 -3 14 1 14 9 0 8 4 15 9 15 5 0 16 15 25
33 19 39 61 87 76 87 5 0 10 7 10 15 0 8 6 15 13 15 6 0 21 18 31 40 11 22 23
40 27 40 4 0 11 9 14 20 3 11 13 20 21 20 8 0 14 9 14 20 0 11 4 20 10 20 15
0 50 33 50 46 0 7 5 14 12 16 6 2 12 15 13 29 1 15 8 24 19 23 10 -1 16 6 16
17 0 11 7 19 15 19 16 0 75 75 75 97 0 7 7 13 15 13 8 0 15 7 15 15 0 8 7 15
16 15 8 0 21 15 29 33 15 36 71 100 97 109 9 4 28 31 43 60 15 29 33 57 41 61
8 4 14 15 14 24 0 8 6 13 13 10 8 -3 21 9 32 28 9 19 24 36 31 39 8 3 14 13
14 22 0 10 5 14 15 10 11 -4 15 2 15 24 0 16 5 32 11 36 8 5 10 -3 5 -27 -6
-27 -17 -147 -25 -266 -2 -23 -21 -14 -22 10 -3 46 -20 -62 -29 -176 -5 -65
-13 -124 -18 -130 -5 -7 -12 -67 -15 -135 -3 -67 -10 -129 -16 -136 -6 -7 -14
-65 -17 -129 -4 -65 -11 -117 -16 -117 -4 0 -8 8 -8 18 -1 9 -7 -1 -14 -23 -8
-22 -16 -93 -20 -159 -3 -65 -9 -123 -14 -130 -5 -6 -12 -67 -15 -136 -5 -96
-10 -127 -22 -136 -12 -9 -15 -33 -15 -113 0 -75 -3 -101 -13 -101 -20 0 -35
-75 -40 -198 -3 -64 -10 -119 -16 -125 -6 -6 -11 -44 -11 -86 0 -135 -18 -222
-33 -163 -3 9 -5 -3 -6 -27 -1 -61 -31 -254 -40 -266 -5 -5 -11 -66 -14 -133
-3 -68 -10 -129 -15 -135 -5 -7 -12 -65 -15 -130 -5 -118 -11 -143 -26 -118
-15 24 -24 -19 -31 -151 -4 -70 -12 -133 -17 -140 -6 -7 -13 -68 -16 -136 -3
-74 -10 -129 -17 -137 -8 -9 -15 -62 -18 -132 -4 -95 -7 -113 -17 -99 -11 15
-13 13 -19 -16 -4 -18 -11 -89 -16 -157 -4 -67 -13 -128 -19 -134 -6 -6 -11
-41 -11 -78 0 -109 -11 -189 -26 -189 -11 0 -14 -23 -14 -105 0 -80 -3 -107
-14 -111 -19 -7 -35 -92 -40 -213 -2 -57 -9 -108 -15 -114 -6 -6 -11 -45 -11
-88 0 -91 -10 -169 -21 -169 -4 0 -10 10 -12 23 -3 13 -5 7 -6 -16 -2 -65 -32
-281 -40 -292 -5 -5 -11 -66 -14 -134 -4 -68 -11 -129 -17 -135 -5 -5 -10 -40
-10 -77 0 -93 -11 -189 -21 -183 -5 3 -10 15 -10 27 -3 46 -20 -63 -29 -176
-5 -65 -13 -124 -18 -130 -5 -7 -12 -67 -15 -135 -3 -74 -10 -129 -17 -137 -7
-9 -15 -61 -18 -125 -2 -60 -9 -110 -13 -110 -5 0 -9 8 -10 18 -2 56 -27 -102
-32 -196 -2 -64 -10 -119 -16 -125 -6 -6 -11 -41 -11 -78 0 -109 -11 -189 -26
-189 -11 0 -14 -22 -14 -97 0 -65 -4 -102 -13 -112 -23 -28 -36 -93 -40 -201
-2 -58 -9 -115 -15 -127 -8 -13 -12 -72 -12 -152 l0 -131 54 0 c39 0 55 4 60
15 3 8 12 15 19 15 23 0 35 41 41 134 3 49 10 94 16 100 5 5 10 47 10 92 0
115 10 176 26 170 11 -4 14 16 14 104 0 87 3 110 14 110 17 0 24 39 36 199 5
68 14 129 20 135 5 5 10 44 10 86 0 95 10 180 21 180 5 0 10 -8 10 -17 2 -20
10 35 28 182 7 55 16 104 21 110 4 5 10 66 13 134 3 68 10 128 16 134 6 6 11
50 12 102 0 49 4 108 8 130 8 38 8 39 18 16 9 -23 10 -23 17 -5 5 10 12 79 16
152 5 73 13 138 18 145 5 7 12 67 15 135 3 77 10 128 18 138 8 9 14 57 17 125
3 60 8 109 13 109 5 0 10 -8 10 -17 3 -45 21 74 29 186 4 67 13 128 19 134 6
6 11 38 11 71 0 114 12 197 26 192 11 -4 14 15 14 99 0 77 4 106 14 112 19 12
27 52 36 197 5 71 14 134 19 139 6 6 11 47 12 91 0 45 4 104 8 131 7 47 8 49
19 25 7 -16 11 -19 11 -8 3 57 33 286 40 303 5 11 12 73 14 139 3 65 10 123
16 129 6 6 12 53 12 106 1 53 4 110 8 126 6 27 8 28 17 11 11 -18 11 -18 19 0
4 11 11 79 15 152 5 73 13 138 18 145 5 7 12 68 15 136 3 76 10 126 17 131 14
9 18 43 19 153 1 51 5 87 11 87 6 0 10 -8 11 -17 2 -57 27 101 32 195 2 64 10
119 16 125 6 6 11 44 11 86 0 116 10 183 26 177 11 -4 14 14 14 94 0 74 4 102
15 114 8 8 15 26 15 40 0 14 4 27 9 30 4 3 11 63 14 133 3 79 9 129 16 131 7
2 11 34 11 80 0 97 10 182 21 182 5 0 10 -8 10 -17 2 -24 15 58 29 187 6 57
15 109 19 115 5 5 11 66 14 135 3 76 10 126 16 128 7 2 11 36 11 85 0 45 3
106 7 136 5 46 8 51 18 37 12 -15 13 -15 20 1 4 10 11 76 15 146 5 71 13 134
18 140 5 7 12 68 15 136 3 81 9 126 17 131 7 4 13 20 13 35 0 18 6 29 23 35
34 13 47 46 42 111 -6 78 -17 89 -93 89 -49 0 -66 -4 -79 -19 -10 -11 -31 -23
-47 -26 -16 -4 -29 -13 -29 -21 0 -8 -9 -14 -20 -14 -13 0 -18 -5 -14 -15 5
-11 -3 -17 -25 -21 -17 -4 -31 -10 -31 -14 0 -5 -13 -11 -30 -15 -16 -4 -30
-11 -30 -16 0 -5 -11 -9 -25 -9 -14 0 -25 4 -25 8 0 4 -12 13 -27 20 -59 27
-73 37 -68 49 2 7 -2 13 -9 13 -7 0 -19 7 -26 15 -19 23 -68 18 -95 -10 -19
-18 -25 -35 -25 -70 0 -39 4 -47 24 -54 13 -5 26 -17 29 -25 4 -9 14 -16 23
-16 10 0 14 -5 11 -15 -4 -8 -1 -17 4 -21 6 -3 -5 -16 -24 -28 -19 -11 -32
-27 -30 -34 3 -7 -7 -15 -26 -18 -17 -4 -31 -10 -31 -14 0 -4 -12 -11 -27 -15
-15 -3 -38 -14 -52 -24 -14 -10 -36 -21 -48 -25 -14 -4 -20 -12 -16 -22 4 -10
-2 -14 -21 -14 -17 0 -26 -5 -26 -15 0 -9 -12 -18 -30 -21 -16 -4 -30 -10 -30
-14 0 -4 -12 -11 -26 -14 -29 -8 -54 -29 -54 -45 0 -6 -17 -11 -37 -11 -28 0
-34 -3 -23 -10 8 -5 12 -10 10 -12 -27 -17 -92 -48 -101 -48 -7 0 -27 -11 -45
-25 -18 -14 -37 -25 -42 -25 -5 0 -9 -8 -8 -17 1 -12 -7 -19 -23 -21 -13 -2
-42 -15 -64 -29 -23 -14 -55 -32 -73 -39 -20 -8 -31 -19 -28 -27 4 -12 -80
-57 -106 -57 -6 0 -10 -4 -10 -9 0 -5 -14 -12 -30 -16 -20 -4 -32 -14 -36 -30
-3 -13 -14 -25 -25 -28 -22 -6 -26 11 -5 19 14 5 13 13 -10 76 -3 10 -21 20
-41 24 -22 4 -32 11 -29 19 6 17 -14 35 -40 35 -13 0 -30 8 -40 17 -22 22
-126 30 -160 13 -35 -19 -33 -76 4 -118 16 -18 34 -32 40 -32 7 0 12 -4 12
-10 0 -5 12 -10 26 -10 14 0 37 -9 51 -20 14 -11 36 -20 49 -20 28 0 32 -16 7
-23 -11 -3 -7 -5 10 -6 33 -1 36 -17 5 -26 -41 -11 -68 -28 -68 -42 0 -7 -6
-13 -13 -13 -7 0 -18 -9 -25 -20 -7 -11 -22 -20 -33 -20 -12 0 -40 -13 -63
-28 -22 -15 -55 -34 -73 -41 -17 -7 -30 -18 -27 -25 4 -10 -80 -56 -101 -56
-3 0 -14 -8 -25 -17 -11 -10 -35 -23 -53 -30 -18 -6 -24 -12 -14 -12 20 -1 23
-21 3 -21 -8 0 -36 -11 -63 -25 -53 -29 -61 -23 -43 30 6 20 11 70 10 113 -1
42 -2 184 -1 315 1 197 3 237 15 237 19 0 29 63 24 153 -1 40 0 73 5 75 27 9
37 0 38 -35 0 -21 3 -32 6 -25 7 18 23 14 23 -6 0 -11 9 -29 20 -42 11 -13 20
-30 20 -37 0 -28 54 -91 84 -97 85 -17 119 1 118 64 -1 24 -5 46 -9 49 -5 3
-14 17 -21 31 -6 14 -16 32 -21 40 -5 8 -14 27 -21 42 -8 16 -18 24 -26 21
-10 -4 -14 4 -14 26 0 22 -4 29 -14 25 -10 -4 -16 5 -21 27 -14 63 -112 119
-129 73 -3 -8 -10 -12 -16 -9 -6 4 -10 67 -10 159 0 112 -4 161 -14 182 -19
38 -19 46 -17 612 1 421 3 482 16 482 8 0 15 -9 15 -20 0 -13 5 -17 14 -14 8
3 17 -2 21 -13 3 -10 23 -31 45 -48 22 -16 37 -36 35 -42 -2 -7 2 -13 9 -13
18 0 117 -100 110 -111 -3 -5 2 -9 11 -9 10 0 26 -11 37 -25 22 -28 41 -31 81
-12 25 11 27 17 27 73 0 54 -3 66 -29 93 -16 17 -34 31 -40 31 -6 0 -8 7 -5
15 4 9 -3 18 -18 24 -13 5 -38 25 -56 45 -17 20 -37 36 -43 36 -6 0 -8 7 -5
16 4 11 -1 18 -14 21 -11 3 -20 9 -20 14 0 5 -4 9 -10 9 -5 0 -24 14 -41 31
-28 27 -37 30 -83 27 l-51 -3 -3 859 c-1 619 -5 863 -13 873 -7 7 -14 32 -16
56 -6 46 -18 67 -39 67 -10 0 -14 14 -14 50 0 38 -3 48 -14 44 -15 -6 -26 23
-26 72 0 18 -7 45 -15 60 -8 16 -15 52 -15 81 0 28 -5 53 -11 55 -6 2 -16 79
-24 187 -7 100 -16 186 -19 189 -3 3 -6 -6 -6 -19 0 -13 -4 -30 -9 -37 -5 -8
-11 29 -15 95 -4 59 -12 113 -17 119 -5 6 -12 115 -16 243 -3 127 -10 231 -14
231 -5 0 -12 18 -15 40 -4 22 -10 40 -15 40 -19 0 -8 39 16 58 16 13 27 34 31
61 4 27 11 40 19 37 23 -8 38 420 21 609 -7 76 -10 86 -19 65 -21 -51 -27 83
-22 467 5 326 4 382 -8 377 -17 -6 -27 41 -27 127 0 37 -5 61 -14 69 -8 6 -16
32 -18 57 -3 43 -5 46 -43 59 -45 16 -138 17 -174 3z m-318 -273 c8 -19 55
-28 186 -33 73 -3 118 0 124 6 6 6 21 11 33 11 12 0 25 8 28 17 11 27 26 -4
26 -52 0 -23 6 -47 13 -53 9 -10 13 -114 18 -420 3 -229 10 -424 16 -447 7
-25 11 -32 12 -18 0 12 6 25 11 28 7 4 10 -103 10 -313 l0 -320 -22 -6 c-13
-3 -33 -6 -45 -6 -12 0 -23 -6 -25 -12 -3 -9 -44 -14 -144 -16 -131 -3 -141
-2 -167 18 -18 14 -26 28 -22 38 3 8 0 27 -7 43 -11 25 -13 26 -26 11 -11 -14
-12 61 -7 468 7 576 7 591 -1 654 -4 32 -9 44 -15 35 -4 -7 -12 -10 -16 -5 -9
9 -17 329 -9 363 7 26 21 30 29 9z m393 -1814 c4 -19 13 -47 20 -61 10 -19 14
-70 14 -178 0 -84 4 -174 10 -200 12 -59 31 -234 36 -327 5 -92 14 -97 14 -8
0 39 5 74 10 77 6 4 10 -24 11 -77 3 -171 7 -239 16 -251 6 -6 13 -27 16 -44
5 -25 3 -33 -8 -33 -8 0 -15 8 -15 19 0 14 -10 20 -37 25 -62 10 -321 7 -328
-4 -3 -5 -16 -10 -28 -11 -12 0 -16 -3 -9 -6 28 -11 9 -23 -38 -23 -37 0 -50
-4 -50 -15 0 -8 -15 -17 -37 -21 -45 -8 -113 -51 -113 -70 0 -8 -7 -14 -15
-14 -8 0 -19 -9 -25 -20 -12 -22 -40 -27 -40 -7 0 7 7 22 15 33 8 10 15 31 15
46 0 15 5 30 10 33 6 3 10 36 10 73 0 40 6 79 15 96 8 15 15 42 15 60 0 36 13
61 27 53 11 -7 36 60 32 83 -1 8 4 29 11 45 16 34 37 218 48 412 7 129 15 161
31 134 14 -22 24 16 30 108 l6 84 73 -2 c40 -1 79 2 85 8 13 10 66 17 129 18
35 0 38 -3 44 -35z m41 -1228 c13 -4 20 -11 17 -16 -7 -11 24 -48 40 -48 12
-1 56 -35 56 -44 0 -4 -71 -5 -157 -4 -87 2 -157 7 -155 12 5 13 -39 32 -86
38 -46 7 -91 46 -69 60 14 9 322 10 354 2z m-177 -614 c0 -5 8 -10 18 -10 9 0
23 -4 31 -9 10 -6 3 -12 -25 -21 -46 -15 -94 -64 -94 -96 0 -12 -3 -30 -6 -39
-6 -14 -8 -14 -25 1 -11 9 -19 24 -19 31 0 12 -14 14 -65 11 -65 -3 -75 2 -53
26 8 9 27 11 56 8 33 -4 48 0 65 15 12 11 30 23 39 26 10 3 15 12 13 19 -3 7
7 20 22 30 33 19 43 21 43 8z m434 -307 c10 -26 6 -452 -5 -458 -5 -4 -12 2
-16 11 -9 24 -40 54 -56 54 -7 0 -19 6 -25 13 -10 9 -79 12 -278 12 -242 0
-266 -2 -275 -17 -6 -11 -22 -18 -37 -18 -32 0 -53 -16 -45 -36 3 -8 -3 -17
-13 -20 -66 -22 -107 -48 -126 -80 -20 -35 -21 -35 -36 -13 -14 20 -17 182
-12 534 1 18 2 19 13 3 7 -9 25 -20 40 -23 15 -4 27 -11 27 -16 0 -5 12 -9 28
-9 45 0 74 -11 68 -26 -4 -11 6 -14 44 -14 33 0 50 -4 50 -12 0 -28 54 -38
196 -38 106 0 149 4 170 15 16 8 39 15 52 15 34 0 62 18 56 35 -4 11 5 16 35
21 23 4 41 10 41 15 0 5 15 12 33 17 18 4 36 17 42 30 12 26 21 28 29 5z
m-241 -539 c15 -10 27 -25 27 -31 0 -7 7 -13 15 -13 18 0 18 -5 5 -31 -10 -17
-22 -19 -115 -19 -57 0 -106 4 -109 9 -4 5 -29 12 -56 16 -28 4 -50 11 -50 16
0 5 -9 9 -19 9 -29 0 -51 11 -51 25 0 7 -8 16 -17 20 -42 17 28 25 183 21 139
-3 165 -6 187 -22z m-148 -619 c0 -5 -15 -11 -32 -13 -19 -2 -33 -9 -33 -16 0
-7 -11 -25 -25 -40 -14 -15 -25 -35 -26 -44 0 -9 -4 -26 -9 -37 -7 -18 -9 -17
-20 11 -13 38 -40 53 -100 56 -71 5 -52 23 27 26 56 2 71 6 67 17 -3 8 3 16
15 20 12 3 21 10 21 15 0 5 8 11 18 13 29 8 97 3 97 -8z m387 -522 c2 -148 2
-270 0 -273 -2 -3 -8 3 -13 13 -6 10 -22 17 -42 17 -28 1 -30 2 -15 14 36 27
-37 36 -290 36 l-242 0 -16 -25 c-12 -18 -25 -25 -50 -25 -26 0 -32 -3 -28
-15 5 -11 -3 -17 -25 -21 -17 -4 -31 -10 -31 -14 0 -5 -13 -11 -30 -15 -29 -6
-58 -38 -75 -80 -7 -19 -8 -18 -14 5 -5 18 -14 25 -31 25 l-23 0 1 294 c1 162
4 296 5 297 2 2 13 1 25 -3 26 -6 29 -23 5 -23 -24 -1 38 -27 82 -36 19 -3 35
-10 35 -14 0 -4 23 -10 52 -13 28 -4 54 -10 57 -15 3 -5 86 -12 184 -15 165
-6 181 -5 215 13 20 11 49 20 63 20 15 0 32 6 39 14 6 8 26 16 43 18 22 2 35
10 42 26 9 20 24 27 48 23 5 -1 6 3 2 9 -7 12 2 30 15 30 5 0 11 -116 12 -267z
m-254 -358 c48 -6 56 -11 74 -42 12 -19 30 -39 42 -43 18 -8 16 -9 -11 -9 -18
-1 -33 -5 -33 -11 0 -6 -39 -10 -96 -10 -78 0 -101 4 -122 19 -15 10 -46 22
-69 26 -24 4 -45 10 -48 15 -3 4 -21 11 -40 14 -40 8 -41 9 -17 36 16 20 25
21 142 16 69 -2 149 -8 178 -11z m-93 -626 c9 -9 9 -10 -32 -14 -34 -3 -89
-64 -97 -107 -7 -36 -26 -54 -26 -24 0 7 -9 16 -21 19 -12 3 -18 10 -15 16 7
11 -76 26 -99 17 -11 -4 -15 2 -15 20 0 18 4 24 14 21 7 -3 34 -9 60 -12 49
-8 81 6 72 32 -3 7 1 13 9 13 8 0 18 6 22 14 4 8 17 16 28 19 26 7 87 -2 100
-14z m2415 -89 c0 -5 -4 -10 -8 -10 -4 0 -21 -20 -36 -45 -16 -25 -33 -45 -37
-45 -5 0 -9 -7 -9 -15 0 -8 -7 -15 -15 -15 -8 0 -15 -4 -15 -8 0 -5 -13 -22
-30 -38 -16 -16 -30 -37 -30 -46 0 -21 -16 -24 -23 -5 -3 6 -6 -3 -6 -20 -1
-22 -6 -33 -15 -33 -8 0 -23 -13 -33 -30 -9 -16 -21 -30 -25 -30 -4 0 -8 -6
-8 -12 -1 -15 -39 -59 -64 -73 -10 -6 -29 -30 -41 -54 -26 -48 -53 -81 -68
-81 -15 0 -47 -41 -47 -62 0 -10 -5 -18 -10 -18 -6 0 -14 -8 -17 -17 -10 -25
-42 -55 -53 -48 -6 4 -10 -1 -10 -9 0 -9 -5 -16 -11 -16 -5 0 -7 -4 -4 -10 3
-5 -5 -22 -19 -37 -15 -15 -26 -31 -26 -35 0 -5 -6 -8 -14 -8 -8 0 -17 -12
-20 -26 l-7 -27 -15 22 c-12 17 -25 21 -65 21 -42 0 -50 3 -48 18 8 55 -39
124 -96 138 -14 3 -25 12 -25 20 0 8 -9 14 -20 14 -41 0 -12 41 47 65 23 10
33 20 30 29 -4 10 3 17 24 21 16 4 29 11 29 16 0 5 5 9 12 9 27 0 137 62 132
74 -6 15 22 30 37 20 5 -3 9 1 9 10 0 8 13 17 30 21 17 4 30 10 30 15 0 5 10
11 23 15 40 11 67 28 67 42 0 7 8 13 19 13 10 0 21 9 24 20 3 12 14 20 26 20
20 0 100 44 111 61 3 4 18 11 33 14 15 4 27 13 27 21 0 7 11 16 25 20 14 3 25
10 25 15 0 5 8 9 18 9 9 0 31 9 47 21 17 11 40 24 52 29 14 6 20 15 17 24 -4
10 4 16 25 21 17 4 31 11 31 16 0 5 5 9 10 9 6 0 10 -4 10 -10z m-2936 -225
c5 -19 13 -25 34 -25 15 0 40 -7 56 -15 15 -8 40 -15 55 -15 44 0 73 -11 67
-26 -4 -12 34 -14 224 -14 198 0 229 2 224 15 -4 11 4 16 34 21 23 3 43 13 46
20 3 8 20 14 41 14 19 0 35 5 35 10 0 6 7 10 15 10 8 0 15 7 15 15 0 8 5 15
11 15 6 0 9 -10 7 -22 -2 -13 -9 -22 -16 -21 -17 4 -17 -518 0 -535 9 -9 7
-12 -11 -12 -12 0 -20 4 -17 9 13 21 -7 41 -39 41 -19 0 -40 7 -49 15 -12 13
-55 15 -255 15 -149 0 -242 -4 -246 -10 -3 -5 -14 -10 -23 -10 -24 -1 -101
-39 -79 -40 33 0 17 -20 -18 -20 -25 0 -35 -4 -35 -15 0 -9 -8 -19 -17 -22
-10 -4 -23 -14 -30 -22 -6 -9 -14 -13 -18 -9 -4 3 -16 -3 -27 -14 -18 -18 -23
-19 -32 -6 -6 8 -17 13 -23 11 -10 -4 -13 21 -13 104 0 167 14 216 21 73 4
-96 5 -80 7 97 1 123 -2 223 -8 238 -8 22 -6 32 10 55 11 16 20 44 20 64 0 42
24 50 34 11z m1818 -516 c17 -12 40 -22 52 -23 13 -1 21 -8 20 -19 -1 -9 4
-17 10 -17 7 0 22 -13 34 -30 13 -16 29 -30 37 -30 8 0 15 -4 15 -10 0 -5 21
-10 46 -10 37 0 45 -3 43 -17 -5 -53 1 -73 26 -79 14 -3 25 -13 25 -21 0 -9
-6 -13 -15 -9 -8 3 -15 1 -15 -5 0 -5 -11 -20 -24 -32 -14 -13 -28 -35 -31
-50 -4 -15 -11 -27 -16 -27 -5 0 -9 -7 -9 -15 0 -9 -8 -19 -17 -22 -23 -8 -83
-71 -83 -86 -1 -19 -37 -57 -54 -57 -9 0 -16 -7 -16 -15 0 -8 -4 -15 -10 -15
-5 0 -10 -7 -10 -15 0 -8 -4 -15 -10 -15 -5 0 -10 -5 -10 -12 0 -20 -44 -78
-57 -74 -14 6 -43 -25 -43 -47 0 -9 -4 -17 -10 -17 -5 0 -10 -4 -10 -10 0 -18
-46 -76 -57 -73 -6 2 -20 -11 -32 -29 -11 -18 -32 -46 -46 -62 -14 -16 -25
-39 -25 -50 -1 -21 -1 -21 -15 -2 -13 18 -15 18 -16 3 -1 -9 -2 -22 -3 -28 -1
-6 -20 -31 -43 -55 -24 -24 -43 -51 -43 -59 0 -18 -16 -20 -23 -2 -4 8 -6 7
-6 -3 -1 -8 -15 -30 -31 -49 -17 -18 -30 -40 -30 -47 0 -18 1 -18 -55 7 -46
20 -95 20 -95 -1 0 -6 -6 -10 -14 -10 -24 0 -27 -120 -3 -120 21 -1 53 -30 41
-38 -6 -4 -14 -15 -17 -26 -4 -11 -13 -16 -22 -12 -9 3 -15 0 -15 -8 0 -7 -11
-22 -25 -32 -14 -10 -25 -23 -25 -28 0 -17 -45 -76 -57 -76 -7 0 -13 -7 -13
-16 0 -9 -5 -14 -11 -12 -8 3 -10 46 -8 138 2 74 2 185 0 246 -3 115 4 138 33
109 12 -12 32 -15 78 -13 l63 3 3 58 c2 45 0 57 -12 57 -8 0 -18 9 -21 21 -4
11 -18 25 -31 31 -13 6 -24 15 -24 19 0 4 -11 10 -25 13 -15 4 -30 18 -35 32
-11 27 -14 402 -4 452 4 22 11 28 24 25 9 -2 24 2 32 11 9 8 27 18 42 22 14 3
26 10 26 14 0 5 14 11 30 15 17 4 30 11 30 16 0 5 7 9 15 9 8 0 12 6 9 14 -4
10 9 21 40 35 25 12 47 21 50 21 15 0 96 57 96 67 0 8 13 13 30 13 20 0 30 5
30 15 0 8 11 17 25 21 14 3 25 10 25 15 0 5 7 9 16 9 23 0 74 32 74 47 0 7 11
13 25 13 17 0 23 4 19 14 -4 10 5 16 25 21 17 4 31 11 31 16 0 7 23 16 68 28
2 1 17 -9 34 -20z m-1176 -156 c13 -8 24 -20 24 -26 0 -6 7 -19 16 -29 15 -16
15 -18 1 -24 -28 -10 -277 0 -285 12 -4 6 -26 15 -49 19 -27 4 -43 12 -43 21
0 9 -11 14 -30 14 -22 0 -30 5 -30 18 0 16 14 17 186 14 148 -3 192 -6 210
-19z m191 -927 c-1 -22 1 -197 2 -388 4 -312 2 -348 -12 -363 -10 -9 -17 -23
-17 -31 0 -8 -7 -14 -15 -14 -8 0 -15 -9 -15 -20 0 -11 -6 -20 -14 -20 -19 0
-76 -69 -76 -92 0 -10 -7 -18 -15 -18 -8 0 -15 -7 -15 -15 0 -8 -6 -15 -14
-15 -8 0 -23 -13 -33 -30 -9 -16 -20 -30 -24 -30 -4 0 -10 -10 -13 -22 -3 -13
-24 -36 -46 -51 -22 -16 -43 -39 -46 -53 -3 -13 -10 -24 -14 -24 -4 0 -10 -10
-14 -23 -3 -13 -18 -30 -33 -38 -38 -19 -49 -31 -58 -59 -4 -13 -11 -28 -16
-34 -32 -38 -59 -66 -64 -66 -10 0 -30 -24 -30 -36 0 -14 -51 -74 -64 -74 -6
0 -11 -7 -11 -15 0 -8 -7 -15 -15 -15 -8 0 -15 -7 -15 -15 0 -8 -4 -15 -10
-15 -5 0 -10 -5 -10 -10 0 -10 -37 -68 -51 -80 -3 -3 -9 -13 -12 -24 -4 -11
-13 -16 -22 -12 -8 3 -15 1 -15 -4 0 -5 -11 -21 -25 -36 -14 -15 -28 -38 -31
-51 -4 -13 -10 -23 -14 -23 -4 0 -11 -12 -14 -26 -4 -14 -12 -24 -19 -21 -8 3
-11 27 -8 80 3 70 1 77 -15 77 -15 0 -16 2 -5 9 11 7 15 45 17 175 1 91 5 174
9 185 3 11 2 22 -3 25 -10 6 -6 1265 4 1275 4 3 9 1 11 -6 3 -8 13 -4 27 12
28 30 53 32 75 7 9 -11 37 -22 65 -25 27 -4 55 -12 63 -19 21 -17 451 -17 462
0 4 7 25 15 47 19 21 3 41 9 44 12 3 3 18 14 35 23 16 9 30 23 31 30 2 24 4
26 28 26 21 0 23 -5 23 -42z m2 -1306 c-3 -69 -3 -129 -1 -133 2 -5 4 -70 3
-145 -1 -76 -3 -221 -4 -325 -1 -152 -4 -186 -15 -182 -8 3 -16 5 -18 5 -2 0
-4 7 -4 15 0 9 -10 15 -26 15 -19 0 -25 4 -20 15 4 11 -2 15 -24 15 -17 0 -30
5 -30 10 0 6 -90 10 -250 10 -239 0 -250 -1 -262 -20 -7 -11 -24 -20 -38 -20
-30 0 -45 -10 -45 -30 0 -9 -11 -16 -29 -18 -30 -4 -39 -10 -88 -54 -16 -16
-34 -28 -38 -28 -5 0 -7 -7 -4 -15 4 -8 2 -15 -4 -15 -5 0 -13 7 -16 16 -9 24
-7 64 3 64 5 0 12 11 15 25 4 14 13 25 20 25 18 0 76 66 76 85 0 8 4 15 9 15
5 0 11 10 13 23 2 12 10 22 18 22 21 0 68 49 76 79 3 14 10 26 14 26 5 0 12 9
15 21 4 12 12 18 21 15 8 -3 14 1 14 8 0 7 11 21 24 31 13 10 22 23 20 29 -3
10 49 76 61 76 7 0 42 35 46 47 13 30 66 102 77 103 6 0 12 5 12 11 0 6 18 28
40 50 22 22 43 51 46 64 3 14 12 25 20 25 8 0 14 9 14 20 0 11 6 20 13 20 19
0 65 54 73 85 3 14 12 25 20 25 8 0 14 7 14 15 0 8 6 15 14 15 12 0 66 70 66
86 0 4 12 20 28 35 l27 27 5 -81 c3 -45 2 -138 -1 -207z m-304 -864 c75 -13
85 -16 85 -31 0 -8 5 -15 10 -15 6 0 10 -6 10 -14 0 -8 6 -16 13 -19 6 -2 8
-8 4 -13 -13 -13 -256 -11 -265 2 -4 6 -28 14 -54 18 -27 4 -48 11 -48 15 0 5
-16 12 -35 15 -36 7 -44 23 -22 45 12 13 217 11 302 -3z m-97 -614 c36 -3 25
-22 -13 -22 -19 0 -35 -4 -35 -10 0 -5 -13 -23 -30 -40 -17 -18 -30 -41 -30
-56 0 -22 -3 -24 -22 -19 -13 4 -27 13 -33 19 -17 22 -84 39 -99 27 -10 -9
-15 -8 -20 5 -13 33 -7 37 52 31 62 -7 105 0 96 14 -3 5 5 20 17 33 23 24 26
24 117 18z m-496 -324 c2 -17 13 -24 43 -30 22 -5 44 -13 49 -18 6 -6 24 -10
41 -10 45 0 75 -11 75 -26 0 -12 40 -14 226 -14 163 0 223 3 218 11 -9 15 15
29 52 29 19 0 34 6 38 15 3 8 18 15 34 15 17 0 38 10 52 25 30 32 37 32 33 -2
-2 -16 -4 -111 -6 -213 l-2 -185 -45 3 c-25 2 -55 10 -67 18 -18 11 -68 14
-232 14 -115 0 -212 -4 -215 -9 -3 -5 -26 -12 -50 -15 -46 -7 -73 -27 -61 -46
4 -6 -7 -10 -29 -10 -25 0 -36 -5 -36 -15 0 -8 -11 -17 -24 -21 -14 -3 -27
-12 -30 -20 -3 -8 -12 -14 -21 -14 -8 0 -15 -4 -15 -10 0 -5 -7 -10 -15 -10
-8 0 -15 -5 -15 -12 0 -8 -3 -9 -10 -2 -15 15 -18 574 -3 574 6 0 13 -10 15
-22z m666 -565 c12 -13 22 -28 22 -33 0 -6 7 -13 15 -16 8 -4 15 -10 15 -16 0
-15 -312 -6 -318 10 -2 6 -13 12 -25 12 -38 0 -67 12 -67 27 0 8 -5 11 -10 8
-14 -8 -42 14 -34 27 4 5 82 8 192 6 179 -3 188 -4 210 -25z m-210 -604 c12
-18 10 -23 -13 -45 -14 -13 -31 -24 -37 -24 -17 0 -48 -31 -48 -48 0 -12 -4
-11 -21 4 -16 14 -36 19 -85 19 -63 0 -64 0 -64 28 0 23 4 27 28 27 26 -1 26
-1 8 -15 -18 -14 -15 -15 40 -14 32 1 51 3 42 6 -30 8 -20 20 22 27 25 4 45
15 57 31 22 30 54 32 71 4z m402 -289 c0 -5 -3 -10 -7 -10 -5 0 -7 -83 -5
-185 l3 -185 -28 0 c-44 0 -75 11 -69 25 3 10 -43 14 -208 20 -187 6 -307 1
-268 -12 25 -9 11 -22 -32 -28 -25 -4 -47 -13 -50 -21 -3 -8 -19 -14 -39 -14
-25 0 -41 -8 -60 -30 -15 -16 -27 -37 -27 -45 0 -8 -7 -15 -16 -15 -8 0 -22
-7 -30 -15 -9 -8 -20 -15 -25 -15 -5 0 -12 7 -15 15 -4 8 -12 15 -20 15 -11 0
-14 23 -14 113 0 61 3 144 8 182 6 65 7 59 13 -80 5 -142 6 -139 5 58 l-1 207
28 0 c16 0 27 -5 27 -13 0 -17 34 -34 85 -42 22 -4 42 -11 45 -16 3 -4 43 -11
88 -15 82 -7 111 -22 50 -26 -18 -1 17 -4 77 -7 126 -7 194 -3 174 10 -21 13
-6 20 57 26 33 3 62 10 65 15 3 5 23 12 45 15 21 3 47 15 58 25 11 10 26 16
33 14 13 -5 17 5 14 32 -1 6 7 12 19 12 11 0 20 -4 20 -10z m-383 -500 c138 0
164 -2 160 -14 -4 -9 3 -16 20 -21 30 -7 86 -62 77 -76 -6 -10 -266 -12 -302
-3 -17 5 -20 9 -11 20 13 15 -4 24 -85 43 -52 12 -84 40 -63 53 7 4 18 6 25 3
8 -3 88 -5 179 -5z m-21 -616 c-3 -7 0 -15 7 -17 9 -3 8 -8 -2 -20 -7 -10 -17
-17 -21 -17 -17 0 -70 -59 -70 -78 0 -29 -19 -37 -35 -16 -11 15 -27 19 -79
19 -46 0 -66 4 -66 13 0 6 7 12 16 12 10 0 14 6 11 14 -5 12 5 15 51 15 67 -1
110 14 119 38 10 30 44 62 60 56 8 -3 12 -11 9 -19z m-442 -341 c22 -2 42 -7
45 -12 3 -4 27 -11 54 -15 26 -4 47 -11 47 -17 0 -5 -5 -9 -12 -9 -9 0 -9 -3
-1 -11 10 -10 148 -33 277 -46 27 -3 68 0 90 7 23 7 68 16 101 19 49 5 62 10
70 29 8 17 18 22 47 22 29 0 36 3 32 15 -5 11 3 17 25 21 17 4 31 10 31 15 0
5 7 9 15 9 13 0 15 -41 15 -310 0 -171 -4 -310 -9 -310 -5 0 -14 7 -21 15 -7
8 -22 15 -34 15 -12 0 -28 6 -34 13 -19 18 -533 18 -540 -1 -2 -6 -21 -15 -43
-18 -21 -4 -50 -17 -64 -30 -15 -13 -30 -24 -36 -24 -5 0 -9 -7 -9 -15 0 -9
-7 -18 -15 -22 -25 -9 -75 -56 -75 -70 0 -7 -4 -13 -10 -13 -7 0 -10 139 -9
398 0 311 3 392 12 372 9 -20 20 -26 51 -27z m492 -678 c4 -10 20 -15 50 -15
24 0 44 -4 44 -10 0 -5 7 -10 15 -10 8 0 23 -9 32 -20 10 -11 23 -20 30 -20
19 0 16 -21 -4 -36 -20 -15 -243 -20 -243 -5 0 5 -23 11 -51 15 -42 6 -49 9
-39 21 10 11 7 15 -15 21 -14 3 -28 4 -31 1 -6 -5 -44 28 -44 38 0 3 8 5 18 6
10 0 12 3 4 6 -34 14 11 23 114 23 93 0 116 -3 120 -15z m336 -1362 c-1 -252
-5 -534 -8 -628 -3 -93 -7 -1170 -10 -2393 l-5 -2223 53 3 c46 3 53 6 58 28 4
15 13 24 23 24 19 -2 24 12 37 106 7 55 8 44 7 -73 -2 -108 -5 -140 -16 -147
-12 -7 -15 -55 -15 -282 l-1 -273 -30 0 c-23 0 -31 -5 -33 -23 -2 -13 -10 -22
-20 -22 -15 0 -17 11 -13 96 4 121 -15 174 -61 174 -21 0 -32 7 -40 25 -10 23
-25 30 -56 26 -7 -1 -15 5 -18 13 -3 8 -17 17 -31 21 -20 5 -22 9 -13 20 11
14 10 211 -3 450 -9 164 -14 188 -41 209 -21 15 -23 21 -14 50 7 23 7 54 -3
107 -7 41 -14 66 -17 57 -6 -27 -19 -21 -25 12 -7 32 -61 90 -85 90 -8 0 -12
6 -8 15 3 8 1 15 -5 15 -9 0 -21 8 -54 38 -8 7 -28 15 -44 18 -17 4 -31 10
-31 15 0 5 -54 9 -120 9 -66 0 -120 -4 -120 -9 0 -5 -17 -11 -39 -15 -40 -6
-91 -46 -104 -80 -4 -10 -10 -17 -12 -14 -8 8 -6 1841 3 1910 4 38 9 -107 12
-372 3 -239 6 438 7 1505 2 1243 6 1941 12 1943 6 2 18 -6 28 -17 11 -13 29
-21 50 -21 23 0 31 -4 27 -13 -6 -16 28 -34 81 -41 22 -3 41 -10 43 -16 5 -13
402 -14 402 -1 0 5 21 12 46 16 53 8 84 24 84 42 0 7 11 13 25 13 15 0 25 6
25 15 0 8 11 17 25 21 13 3 29 12 36 20 6 8 12 14 13 14 1 0 0 -206 -2 -457z
m2782 -3372 c3 -4 34 -12 68 -15 53 -6 60 -10 46 -20 -15 -11 -15 -13 3 -24
10 -7 28 -12 39 -12 11 0 37 -9 57 -20 21 -11 43 -20 49 -20 7 0 14 -7 18 -15
3 -8 13 -15 22 -15 8 0 14 -6 11 -12 -7 -20 -85 -15 -101 7 -9 13 -22 16 -45
13 -27 -4 -34 -1 -41 18 -10 26 -77 75 -94 68 -7 -3 -21 4 -31 16 -10 11 -24
20 -32 20 -7 0 -13 5 -13 10 0 12 37 13 44 1z m-1016 -118 c2 -7 16 -13 32
-13 38 0 60 -9 60 -26 0 -8 7 -14 15 -14 8 0 15 -6 15 -13 0 -13 38 -32 88
-42 17 -4 32 -10 32 -15 0 -4 16 -11 36 -14 25 -5 34 -11 30 -22 -4 -10 3 -14
30 -14 24 0 34 -4 32 -12 -5 -14 34 -38 61 -38 9 0 29 -7 45 -15 15 -8 36 -15
46 -15 29 0 50 -11 50 -26 0 -9 12 -14 36 -14 28 0 35 -3 30 -15 -3 -9 0 -15
9 -15 8 0 15 -4 15 -9 0 -5 16 -12 35 -15 19 -4 35 -11 35 -16 0 -6 9 -10 19
-10 30 0 51 -11 51 -26 0 -8 9 -14 20 -14 11 0 20 -7 20 -15 0 -13 114 -75
140 -75 5 0 10 -7 10 -15 0 -11 11 -15 36 -15 22 0 33 -4 29 -10 -11 -18 16
-40 47 -40 17 0 42 -6 56 -14 15 -8 45 -18 67 -23 23 -5 39 -14 38 -21 -2 -8
11 -12 38 -12 28 0 39 -4 36 -12 -5 -16 22 -37 46 -38 11 0 30 -9 44 -20 14
-11 34 -20 44 -20 11 0 19 -7 19 -15 0 -10 10 -15 31 -15 20 0 29 -4 27 -12
-8 -22 19 -38 62 -40 23 -1 44 -7 47 -14 2 -6 25 -15 49 -19 35 -5 44 -10 40
-21 -5 -12 1 -15 22 -14 43 3 54 1 47 -10 -11 -17 15 -40 46 -40 15 0 34 -6
41 -13 7 -7 25 -18 41 -24 15 -7 27 -17 27 -23 0 -5 16 -10 36 -10 24 0 34 -4
32 -12 -7 -20 15 -35 60 -43 23 -4 42 -11 42 -16 0 -5 11 -9 25 -9 14 0 34 -9
45 -20 11 -11 25 -20 31 -20 6 0 9 -6 6 -14 -4 -9 6 -19 26 -27 48 -20 96 -53
97 -65 0 -7 8 -11 18 -10 10 0 16 -6 16 -16 -1 -10 3 -18 10 -18 17 0 56 -63
56 -90 0 -36 22 -90 37 -90 9 0 13 -15 13 -45 0 -33 3 -43 14 -39 15 6 26 -23
26 -68 0 -16 4 -28 9 -28 5 0 12 -18 16 -41 4 -22 13 -53 21 -67 8 -15 14 -36
14 -47 1 -27 28 -124 29 -102 2 31 18 18 25 -20 3 -21 6 -129 6 -240 l0 -203
-44 0 c-26 0 -46 -5 -48 -12 -6 -16 -124 -13 -144 3 -10 8 -14 8 -14 0 0 -17
-67 -14 -74 4 -3 9 -18 15 -36 15 -16 0 -30 5 -30 10 0 6 6 10 12 10 22 0 -26
27 -62 35 -19 4 -39 11 -45 15 -5 4 -30 10 -55 13 -24 3 -49 12 -55 19 -5 7
-21 14 -34 16 -30 3 -41 13 -23 19 21 8 -17 29 -65 38 -24 4 -43 11 -43 15 0
5 -13 11 -29 15 -16 3 -35 13 -42 21 -6 8 -29 14 -50 14 -22 0 -39 5 -39 10 0
6 5 10 12 10 6 0 3 7 -8 15 -10 8 -30 15 -44 15 -14 0 -49 16 -79 35 -29 19
-64 35 -78 35 -19 0 -24 4 -19 15 3 10 -1 18 -12 22 -9 3 -29 15 -44 25 -14
10 -35 18 -45 18 -11 0 -28 9 -38 20 -10 11 -25 20 -33 20 -8 0 -12 6 -9 14 6
15 -22 32 -70 41 -18 4 -33 11 -33 16 0 5 -20 9 -44 9 -29 0 -51 6 -61 17 -10
9 -36 18 -59 19 -22 2 -45 3 -50 3 -4 1 -6 7 -3 15 8 20 -11 33 -60 41 -24 4
-43 10 -43 15 0 4 -19 10 -41 13 -23 3 -45 10 -48 15 -3 6 -19 14 -34 17 -17
5 -26 12 -23 21 7 18 -12 31 -56 39 -22 4 -38 13 -38 21 0 8 -6 14 -13 14 -11
0 -16 26 -20 101 -4 56 -11 107 -17 114 -5 6 -13 34 -17 61 -4 32 -14 56 -30
71 -12 12 -23 27 -23 33 0 5 -3 9 -7 9 -23 -4 -34 3 -31 19 2 13 -5 18 -35 20
-32 3 -38 0 -47 -22 -5 -14 -14 -26 -20 -26 -5 0 -10 -11 -10 -25 0 -14 -3
-25 -6 -25 -3 0 -20 11 -38 25 -18 14 -44 25 -57 25 -34 0 -58 17 -41 29 14 9
-4 18 -88 43 l-45 13 -5 65 -5 65 -35 1 c-47 1 -73 16 -76 45 -1 13 -3 27 -3
31 -1 3 -18 25 -40 47 -21 22 -37 42 -34 44 9 9 -9 55 -20 51 -11 -3 -57 82
-57 105 0 14 -34 71 -42 71 -5 0 -8 8 -8 18 0 14 -2 15 -10 2 -9 -13 -11 -13
-20 0 -5 8 -10 22 -10 30 0 8 -7 24 -15 34 -8 11 -15 30 -15 43 0 13 -4 23 -9
23 -6 0 -13 21 -16 48 -3 26 -9 54 -13 62 -15 30 -6 239 13 305 4 15 257 3
263 -12z m3278 -1070 c4 -16 11 -31 16 -34 5 -3 11 -30 15 -60 3 -30 10 -57
16 -60 10 -7 25 -106 33 -226 4 -57 9 -71 20 -66 11 4 14 -8 14 -62 0 -68 -13
-80 -25 -23 -4 17 -15 46 -25 63 -10 18 -16 43 -14 56 3 13 -2 53 -10 89 -8
36 -15 55 -15 43 -1 -12 -5 -24 -10 -27 -9 -6 -21 87 -21 160 0 23 -4 45 -9
49 -12 7 -25 90 -17 110 9 24 25 18 32 -12z m-5659 -17 c-15 -12 -15 -15 -2
-26 8 -7 15 -18 15 -24 0 -17 34 -43 49 -38 7 2 15 -5 18 -17 3 -12 9 -21 14
-21 5 0 9 -6 9 -14 0 -7 9 -25 20 -39 16 -20 20 -40 20 -100 0 -77 16 -127 38
-119 8 2 12 -8 12 -32 0 -24 5 -36 14 -36 22 0 26 -33 26 -207 0 -152 1 -164
20 -175 11 -7 20 -16 20 -20 0 -5 -9 -8 -20 -8 -11 0 -20 4 -20 9 0 5 -14 11
-32 15 -23 5 -29 9 -21 17 16 16 -7 37 -46 45 -17 4 -31 10 -31 15 0 5 -8 9
-18 9 -10 0 -26 6 -37 14 -11 7 -35 17 -52 21 -34 7 -45 25 -16 25 15 0 14 2
-3 15 -10 8 -30 15 -44 15 -14 0 -38 7 -54 15 -15 8 -36 15 -46 15 -9 0 -27 9
-40 20 -13 11 -29 20 -36 20 -8 0 -11 6 -8 15 4 8 1 15 -6 15 -6 0 -28 16 -48
35 -20 19 -31 35 -24 35 8 0 12 21 12 73 0 100 9 149 26 143 11 -4 14 7 14 47
0 45 3 54 23 62 18 8 23 21 28 66 9 82 29 98 127 101 l77 2 -67 3 c-99 6 -83
23 20 23 75 -1 85 -3 69 -14z m2121 -8 c8 -10 -21 -12 -141 -10 -170 4 -299
-11 -290 -34 4 -11 -15 -14 -101 -14 -85 0 -104 -3 -100 -14 6 -17 -25 -26
-93 -26 -28 0 -53 -5 -55 -11 -2 -6 -32 -13 -66 -16 -34 -3 -65 -10 -68 -14
-11 -19 -24 -8 -24 21 0 28 -2 30 -40 30 -22 0 -40 4 -40 9 0 10 34 21 67 21
12 0 23 6 25 12 3 9 40 14 119 18 63 3 120 9 128 14 34 22 662 34 679 14z
m100 -168 c2 -6 23 -10 47 -10 67 0 107 -10 95 -25 -12 -15 19 -31 75 -39 22
-3 41 -10 43 -16 2 -5 21 -10 42 -10 21 0 45 -7 54 -15 8 -8 23 -15 33 -15 25
0 47 -16 39 -28 -10 -16 5 -44 20 -38 8 3 14 -1 14 -9 0 -7 13 -16 30 -20 39
-9 49 -25 15 -25 -18 0 -29 -6 -32 -20 -4 -14 -14 -20 -32 -20 -36 0 -89 -48
-97 -89 -4 -20 -11 -30 -20 -27 -21 8 -31 -16 -37 -87 -2 -38 -10 -74 -16 -80
-16 -16 -14 -35 10 -68 15 -22 17 -30 7 -33 -33 -11 -119 -17 -324 -22 l-221
-5 -36 24 c-40 27 -38 37 5 37 15 0 37 9 48 20 25 25 32 83 10 86 -85 13 -91
15 -80 29 9 11 2 18 -37 35 -77 34 -81 60 -8 60 34 0 43 3 39 14 -4 10 5 16
28 21 45 10 88 42 88 66 0 11 6 22 14 25 8 3 16 19 20 36 4 21 10 29 21 24 10
-3 15 1 15 14 0 10 5 22 10 25 6 3 10 44 10 90 0 69 -3 84 -17 89 -15 6 -15 8
-3 17 18 12 124 2 128 -11z m-400 -16 c13 -4 21 -12 18 -19 -5 -14 67 -30 85
-20 5 4 9 1 9 -4 0 -6 6 -11 14 -11 31 0 35 -96 6 -133 -11 -14 -20 -30 -20
-36 0 -6 -15 -12 -32 -12 -18 -1 -25 -3 -15 -6 38 -10 14 -23 -44 -23 -65 0
-76 19 -11 21 20 1 -15 8 -78 16 -63 8 -128 21 -144 29 -16 8 -35 14 -41 14
-20 0 -25 25 -25 111 l0 79 128 0 c70 0 137 -3 150 -6z m-724 -89 c6 -22 12
-25 52 -25 28 0 51 6 61 15 18 19 50 15 44 -6 -2 -8 -6 -39 -8 -69 -5 -60 -30
-120 -50 -120 -8 0 -13 -14 -13 -36 0 -27 -3 -35 -14 -31 -10 4 -13 1 -9 -9 3
-8 -1 -14 -11 -14 -9 0 -16 6 -16 14 0 7 -14 19 -30 26 -25 10 -35 10 -63 -4
-17 -8 -26 -16 -19 -16 24 0 12 -20 -13 -20 -14 0 -25 -6 -25 -13 0 -8 -10
-23 -22 -35 l-23 -21 3 97 c3 117 9 145 26 139 14 -5 66 34 66 49 0 14 44 104
51 104 4 0 10 -11 13 -25z m-1578 -325 c27 0 48 -16 40 -29 -4 -6 1 -14 11
-18 10 -4 36 -21 57 -40 22 -18 49 -33 60 -33 28 0 50 -15 42 -28 -8 -13 12
-29 47 -37 15 -4 27 -11 27 -16 0 -5 15 -9 34 -9 19 0 41 -7 50 -15 8 -8 25
-15 38 -15 33 0 57 -17 40 -29 -10 -6 -4 -13 21 -25 19 -9 40 -16 46 -16 6 0
11 -4 11 -9 0 -5 14 -12 30 -16 17 -4 30 -10 30 -15 0 -4 14 -10 31 -14 22 -4
30 -10 25 -21 -6 -17 28 -39 48 -32 7 3 26 -6 41 -19 15 -13 37 -24 47 -24 11
0 16 -4 13 -10 -3 -5 -26 -10 -51 -10 -32 0 -44 -4 -44 -15 0 -8 -12 -18 -27
-21 -16 -4 -36 -13 -45 -21 -15 -14 -20 -13 -44 6 -15 12 -33 21 -41 21 -9 0
-13 6 -9 15 4 12 -4 15 -45 15 -36 0 -49 4 -46 13 5 16 -22 36 -50 37 -12 0
-28 7 -36 15 -8 7 -27 17 -41 21 -17 4 -25 11 -22 20 3 8 2 13 -2 13 -26 -4
-44 3 -39 14 3 9 -9 20 -34 31 -21 10 -39 21 -39 26 0 4 -11 11 -25 14 -14 4
-25 14 -25 22 0 12 -6 15 -21 11 -14 -4 -23 1 -29 16 -11 28 -81 93 -109 102
-12 4 -20 12 -18 18 4 13 -16 37 -31 37 -5 0 -17 9 -27 20 -10 11 -24 20 -32
20 -30 0 -10 20 27 26 22 4 45 13 51 21 10 11 14 11 29 -2 9 -8 25 -15 36 -15z
m3358 -29 c15 -16 15 -21 3 -28 -7 -4 -22 -27 -32 -50 -11 -24 -25 -43 -32
-43 -8 0 -13 -13 -13 -33 0 -31 -3 -34 -30 -35 -17 0 -37 -8 -46 -16 -17 -17
-59 -21 -69 -7 -3 5 2 16 10 24 8 9 15 26 15 39 0 28 16 55 26 45 8 -7 40 33
37 45 -6 16 46 58 71 58 14 0 26 5 26 10 0 16 15 12 34 -9z m-3674 -81 c0 -29
-5 -50 -11 -50 -23 0 -39 -30 -39 -74 0 -24 -6 -51 -14 -58 -7 -8 -16 -35 -20
-62 -6 -35 -11 -46 -22 -42 -10 4 -14 -3 -14 -29 0 -20 -5 -35 -11 -35 -18 0
-38 -32 -39 -62 0 -15 -7 -33 -15 -42 -8 -8 -15 -27 -15 -43 0 -35 -14 -58
-29 -49 -7 5 -11 -5 -11 -28 0 -22 -5 -36 -13 -36 -14 0 -32 -40 -41 -92 -4
-21 -11 -38 -15 -38 -5 0 -11 -22 -15 -50 -12 -89 -36 -66 -36 36 0 73 10 116
26 110 14 -5 25 30 26 83 1 17 9 39 18 49 13 14 19 41 22 102 2 54 8 85 16 88
6 2 12 19 12 38 0 24 4 34 16 34 20 0 53 39 54 63 0 9 5 17 10 17 6 0 10 9 10
19 0 11 7 26 15 35 8 8 15 23 15 33 0 26 16 47 29 39 6 -4 11 -2 11 4 0 9 67
87 78 89 1 1 2 -21 2 -49z m1873 -28 c5 15 14 9 17 -12 1 -8 2 -46 1 -84 -1
-56 -4 -67 -16 -62 -12 4 -15 -3 -15 -34 0 -22 -4 -40 -10 -40 -15 0 -37 -50
-43 -99 -10 -77 -27 -73 -27 5 0 55 5 81 25 120 19 38 25 64 25 116 0 80 7
103 25 88 9 -8 14 -7 18 2z m167 -4 c0 -6 3 -8 6 -5 4 4 19 -2 34 -13 16 -11
34 -20 42 -20 15 -1 68 -45 68 -57 0 -14 39 -43 45 -33 3 5 16 -1 29 -13 47
-43 58 -49 82 -49 39 0 38 -16 -3 -27 -21 -6 -45 -11 -54 -11 -9 0 -19 -7 -23
-15 -3 -9 -18 -15 -35 -15 -18 0 -38 -9 -52 -25 -14 -14 -35 -25 -51 -25 -19
0 -26 -4 -22 -14 5 -14 -23 -26 -63 -26 -13 0 -23 -4 -23 -9 0 -11 -62 -23
-71 -14 -10 10 10 103 22 103 5 0 9 17 9 38 0 43 13 68 29 58 8 -5 11 21 11
88 0 57 4 96 10 96 6 0 10 -5 10 -12z m-1866 -85 c20 -18 36 -35 36 -38 0 -9
40 -45 50 -45 6 0 10 -4 10 -10 0 -5 7 -10 15 -10 9 0 18 -6 21 -14 3 -8 19
-18 34 -21 20 -4 27 -11 23 -21 -3 -8 1 -14 8 -14 7 0 23 -10 34 -23 11 -12
44 -34 73 -47 32 -15 50 -30 47 -37 -3 -8 5 -13 20 -13 14 0 25 -5 25 -11 0
-18 32 -38 59 -39 24 0 71 -35 71 -52 0 -4 -6 -8 -14 -8 -8 0 -17 -11 -20 -25
-4 -14 -13 -25 -21 -25 -11 0 -15 -11 -15 -39 0 -33 -4 -40 -22 -43 -16 -2
-24 -12 -29 -37 -4 -18 -11 -36 -17 -40 -5 -3 -12 -15 -14 -26 -2 -11 -11 -19
-21 -19 -13 1 -17 -6 -17 -30 0 -23 -6 -34 -22 -41 -15 -7 -24 -20 -26 -40 -2
-16 -10 -35 -18 -41 -8 -6 -15 -24 -16 -40 -2 -33 -16 -56 -29 -48 -5 3 -9
-14 -9 -36 0 -32 -3 -41 -14 -37 -19 8 -34 -34 -39 -111 -2 -35 -8 -67 -14
-70 -7 -4 -13 -33 -15 -65 -3 -64 -18 -70 -32 -14 -5 20 -13 37 -18 37 -4 0
-8 7 -8 15 0 9 -7 18 -15 21 -8 4 -15 10 -15 16 0 5 -15 23 -32 39 -27 24 -40
29 -73 27 -33 -3 -41 -7 -43 -26 -2 -13 -10 -26 -18 -29 -17 -6 -18 -45 -2
-61 16 -16 -5 -31 -42 -32 -28 -1 -63 -23 -53 -34 12 -12 -20 -26 -59 -26 -21
0 -38 -4 -38 -10 0 -5 -16 -12 -35 -16 -19 -3 -38 -10 -41 -15 -20 -33 -24 16
-24 277 0 275 6 334 31 319 5 -4 9 12 9 37 0 35 4 45 22 53 18 8 25 22 31 63
5 28 13 52 18 52 5 0 9 11 9 24 0 35 10 56 26 56 9 0 14 12 14 35 0 20 5 35
11 35 16 0 38 31 39 55 0 11 7 33 15 48 8 15 17 44 21 63 4 24 11 34 20 30 10
-4 14 5 14 34 0 23 5 40 11 40 21 0 38 34 39 73 0 48 16 80 34 70 7 -5 30 -22
50 -40z m3953 -59 c3 -7 13 -16 24 -19 10 -4 19 -13 19 -21 0 -9 10 -14 28
-14 20 0 33 -7 41 -23 7 -13 26 -27 43 -33 39 -11 49 -49 16 -60 -23 -7 -68
-51 -68 -67 0 -5 -7 -4 -15 3 -12 10 -15 10 -15 -3 0 -8 -6 -17 -12 -20 -9 -2
-13 -34 -13 -110 0 -111 -6 -133 -25 -98 -6 12 -17 21 -24 21 -7 0 -23 9 -36
20 -13 11 -27 20 -33 20 -5 0 -7 6 -4 14 6 14 -18 31 -39 28 -5 -1 -20 7 -31
18 -12 10 -33 22 -47 26 -14 3 -26 10 -26 15 0 5 -6 9 -14 9 -34 0 -28 50 7
65 15 7 24 22 28 50 4 21 12 41 18 43 6 2 11 27 11 58 0 42 5 58 20 71 11 10
20 22 20 28 0 6 10 15 23 21 17 7 31 5 60 -10 21 -10 41 -25 44 -32z m-1547
-142 c0 -4 -4 -12 -9 -17 -5 -6 -11 -68 -13 -138 -3 -138 -7 -147 -60 -147
-14 0 -28 -5 -30 -11 -2 -6 -28 -14 -58 -17 -30 -2 -58 -9 -61 -15 -4 -5 -31
-12 -60 -15 -29 -3 -63 -10 -76 -17 -22 -11 -22 -13 -6 -20 16 -7 15 -9 -7
-15 -14 -5 -55 -8 -91 -9 -46 -1 -70 -6 -79 -16 -7 -9 -29 -15 -51 -15 -22 0
-39 -3 -39 -8 0 -4 -9 -13 -20 -20 -20 -12 -20 -10 -20 118 l0 130 48 0 c50 0
74 13 65 36 -4 11 7 14 46 14 38 0 49 3 45 14 -6 15 23 26 69 26 15 0 27 4 27
10 0 5 11 12 25 16 15 4 28 16 31 30 4 14 11 24 18 23 40 -5 86 2 80 12 -10
17 16 29 64 29 25 0 50 6 58 15 16 16 104 22 104 7z m875 -84 c7 -17 21 -24
53 -29 24 -3 47 -10 50 -16 4 -6 16 -13 27 -15 11 -2 19 -11 19 -21 -1 -9 4
-17 12 -17 14 0 20 -17 27 -77 3 -27 0 -33 -15 -33 -10 0 -18 4 -18 9 0 5 -14
12 -31 16 -19 4 -29 12 -25 20 7 18 -14 35 -44 35 -14 0 -33 9 -43 20 -9 11
-23 20 -31 20 -8 0 -16 5 -18 10 -2 6 -18 13 -37 15 -38 5 -50 13 -35 23 6 4
14 16 18 28 5 16 13 20 30 17 13 -3 27 0 30 6 11 17 20 13 31 -11z m1061 -12
c3 -8 19 -18 35 -21 30 -7 38 -20 17 -28 -7 -3 2 -6 20 -6 17 -1 32 -6 32 -12
0 -15 39 -49 57 -49 7 0 13 -4 13 -10 0 -5 12 -10 26 -10 17 0 28 -6 31 -20 3
-11 14 -20 24 -20 29 0 31 -17 4 -38 -16 -13 -25 -30 -25 -48 0 -35 -19 -66
-27 -46 -4 10 -8 9 -19 -5 -16 -22 -18 -65 -3 -80 13 -13 5 -15 -73 -28 -25
-4 -38 -11 -38 -22 0 -10 -6 -13 -16 -9 -9 3 -26 6 -39 6 -13 0 -30 7 -39 15
-8 8 -23 15 -33 15 -25 0 -47 16 -39 28 8 13 -24 32 -53 32 -11 0 -29 9 -39
21 -17 17 -18 25 -9 50 6 16 15 29 19 29 12 0 10 88 -2 95 -5 3 -10 22 -10 41
0 19 5 34 10 34 6 0 10 7 10 15 0 10 11 15 38 16 20 1 29 3 20 6 -29 7 -21 20
16 27 19 4 37 13 40 21 7 19 45 19 52 1z m-1391 -105 c-3 -6 -13 -9 -23 -9
-30 2 -92 -23 -92 -38 0 -10 -14 -14 -56 -14 -38 0 -53 -3 -48 -11 10 -16 -16
-29 -61 -29 -22 0 -49 -7 -59 -15 -30 -23 -56 -19 -56 8 0 36 11 42 80 45 36
1 67 7 68 12 2 6 11 10 20 10 10 0 31 8 47 17 48 26 194 45 180 24z m-2303
-96 c-2 -17 -10 -37 -17 -45 -8 -8 -15 -38 -17 -65 -2 -40 -7 -50 -20 -49 -12
1 -19 -10 -24 -40 -4 -22 -7 -45 -6 -50 2 -4 -6 -16 -18 -26 -15 -13 -20 -30
-20 -68 0 -32 -6 -56 -15 -66 -9 -9 -15 -33 -15 -63 0 -68 -9 -96 -25 -83 -15
13 -19 5 -34 -84 -6 -32 -15 -64 -20 -70 -4 -6 -11 -40 -14 -75 -3 -35 -10
-68 -16 -74 -6 -6 -11 -22 -11 -37 0 -38 -11 -70 -22 -64 -15 9 -48 -32 -48
-61 0 -14 -4 -25 -10 -25 -6 0 -10 -49 -10 -126 0 -114 -2 -125 -17 -122 -15
3 -17 12 -15 51 3 36 1 47 -10 45 -10 -2 -14 25 -16 130 -2 113 0 132 13 132
12 0 15 18 15 110 0 76 4 111 13 117 25 16 37 55 37 122 0 45 5 74 14 83 7 8
16 35 20 61 7 48 21 61 29 30 3 -10 5 -3 6 15 1 21 10 41 26 56 14 13 25 34
25 49 0 14 6 32 13 39 8 7 17 26 21 41 3 15 13 27 21 27 8 0 15 8 15 19 0 10
11 26 25 35 14 9 25 24 25 34 0 9 6 29 14 43 7 14 16 37 19 51 7 26 26 38 57
34 10 -1 14 -10 12 -31z m5200 -11 c18 -20 43 -40 56 -45 15 -6 22 -15 19 -23
-4 -9 5 -22 21 -32 15 -9 31 -23 35 -31 4 -7 15 -13 22 -13 8 0 15 -4 15 -10
0 -5 10 -10 23 -10 27 0 54 -16 44 -26 -9 -9 76 -64 97 -64 8 0 21 -6 28 -14
8 -7 28 -17 45 -20 22 -5 30 -12 26 -22 -3 -10 4 -16 26 -20 31 -6 48 -20 38
-31 -7 -7 -77 19 -77 29 0 4 -15 8 -33 8 -21 0 -41 8 -52 20 -10 11 -27 20
-37 20 -11 0 -18 5 -16 12 5 13 -52 48 -77 48 -8 0 -15 5 -15 10 0 6 -6 10
-14 10 -8 0 -22 7 -30 16 -9 8 -28 17 -43 19 -19 2 -28 8 -27 19 1 9 -11 24
-27 33 -16 10 -29 21 -29 25 0 4 -13 8 -29 8 -16 0 -36 6 -43 13 -7 7 -21 18
-30 23 -15 8 -14 13 15 47 18 20 33 37 35 37 1 0 17 -16 34 -36z m-4870 -2
c-1 -7 -5 -116 -9 -242 l-6 -230 -29 32 c-15 18 -47 41 -71 52 -30 15 -41 26
-39 39 2 9 -2 17 -8 17 -7 0 -25 9 -41 21 -21 15 -41 20 -64 17 -29 -3 -35 -1
-35 14 0 10 4 18 9 18 4 0 11 21 14 47 3 27 11 50 21 55 11 6 16 23 16 55 0
33 3 44 13 40 8 -3 22 6 32 19 11 15 28 24 46 24 21 0 27 4 23 14 -4 11 5 16
38 19 68 6 93 3 90 -11z m2255 -28 c46 -31 68 -41 106 -48 76 -14 32 -36 -73
-36 -37 0 -71 -5 -76 -10 -6 -6 -35 -13 -65 -17 -30 -3 -69 -15 -87 -25 -23
-12 -55 -18 -105 -19 -61 -1 -147 -15 -109 -18 25 -2 11 -19 -22 -25 -40 -8
-69 2 -62 20 5 13 -11 19 -41 15 -7 -1 -13 4 -13 11 0 7 -14 22 -30 33 -16 11
-30 23 -30 28 0 4 22 7 50 7 38 0 48 3 44 14 -4 11 8 16 52 22 31 3 69 13 83
20 14 8 40 14 58 14 21 0 33 6 37 18 5 15 20 17 130 16 105 0 129 -4 153 -20z
m561 -35 c29 -13 50 -29 48 -35 -3 -7 4 -14 15 -17 37 -10 19 -27 -28 -27 -49
-1 -83 -16 -76 -36 2 -6 -8 -14 -22 -17 -15 -2 -28 0 -31 7 -3 9 1 160 5 175
1 2 9 -3 19 -11 9 -8 41 -25 70 -39z m-2428 -119 l0 -108 -42 -4 c-24 -3 -51
-8 -60 -12 -15 -7 -16 -4 -8 26 14 46 12 142 -2 156 -9 9 -4 13 20 18 18 4 32
10 32 14 0 9 43 29 53 23 4 -2 7 -53 7 -113z m2100 -90 l0 -80 -34 0 c-18 0
-47 -7 -62 -15 -16 -8 -41 -15 -55 -15 -15 0 -40 -7 -55 -15 -16 -8 -37 -15
-46 -15 -27 0 -68 -22 -61 -33 7 -12 -16 -27 -43 -27 -12 0 -27 -7 -34 -15 -8
-10 -31 -15 -70 -15 -32 0 -71 -7 -86 -15 -16 -8 -45 -15 -64 -15 -43 -1 -75
-21 -58 -38 9 -9 -1 -12 -45 -12 -42 0 -58 -4 -65 -17 -7 -11 -27 -18 -66 -21
-31 -2 -59 -8 -62 -13 -3 -5 -12 -9 -19 -9 -11 0 -13 8 -8 33 3 17 10 36 14
41 5 6 9 38 9 73 0 55 2 63 19 63 11 0 34 8 53 17 18 9 40 20 48 24 8 3 14 14
12 23 -2 14 9 16 73 16 57 0 75 3 75 14 0 15 61 26 151 26 34 0 59 5 61 12 2
6 31 13 64 16 41 3 68 11 91 28 27 21 44 24 120 25 48 1 80 3 71 6 -27 7 -21
21 10 26 66 10 62 14 62 -73z m448 -27 c2 -8 -5 -13 -18 -13 -12 0 -19 -4 -15
-9 8 -14 -28 -31 -62 -31 -21 0 -33 -8 -45 -27 -8 -16 -13 -34 -11 -40 3 -9
-6 -13 -25 -13 -21 0 -31 -6 -35 -20 -4 -15 -14 -20 -40 -20 -22 0 -37 -6 -41
-15 -3 -8 -17 -15 -32 -15 -14 0 -39 -9 -55 -21 -16 -11 -32 -18 -37 -15 -13
8 -37 -12 -37 -31 0 -15 -10 -19 -65 -21 -36 -2 -67 -7 -70 -12 -3 -4 -27 -11
-55 -15 -27 -4 -53 -12 -56 -17 -4 -6 -28 -13 -55 -16 -48 -5 -116 -32 -81
-32 9 0 17 -4 17 -10 0 -5 -21 -10 -47 -10 -30 0 -53 -6 -66 -17 -15 -14 -41
-19 -115 -22 -64 -2 -100 -8 -109 -17 -9 -8 -35 -14 -67 -14 -56 0 -106 -17
-106 -37 0 -9 -16 -13 -45 -13 -33 0 -43 -3 -39 -14 3 -8 -4 -16 -18 -20 -35
-9 -68 -7 -68 4 0 20 55 59 83 60 15 0 47 9 70 20 23 11 58 23 79 26 23 4 35
11 32 19 -6 14 25 25 76 25 19 0 44 7 54 15 11 8 39 15 62 15 24 0 44 5 46 12
3 7 32 14 74 16 73 5 96 14 87 38 -3 8 1 15 8 15 48 5 59 8 80 23 13 9 38 16
56 16 18 0 33 4 33 9 0 6 21 13 48 16 63 9 101 26 95 42 -4 9 5 13 31 13 26 0
34 4 30 14 -4 10 6 16 35 21 21 3 42 13 45 21 4 9 21 14 54 14 52 0 64 8 77
50 9 30 22 40 55 40 14 0 34 7 45 16 25 18 136 16 143 -3z m-1906 -43 c12 -11
18 -23 15 -27 -9 -9 22 -43 40 -43 8 0 13 -12 13 -30 0 -19 5 -29 13 -27 6 1
12 -5 12 -13 0 -10 -14 -15 -45 -18 -25 -2 -49 -10 -53 -18 -4 -8 -22 -14 -38
-14 -17 0 -47 -11 -67 -25 -20 -14 -49 -25 -64 -25 -19 0 -26 -4 -22 -14 5
-14 -23 -26 -62 -26 -13 0 -25 -10 -33 -26 -6 -15 -15 -23 -19 -20 -9 10 -3
138 8 151 5 6 10 28 12 50 3 38 4 40 34 37 24 -3 36 3 51 22 11 14 23 23 26
20 3 -3 22 -2 43 2 22 4 33 9 27 11 -24 8 -13 22 22 29 19 3 38 10 41 15 8 14
23 11 46 -11z m3028 11 c0 -5 -6 -12 -12 -14 -7 -3 -3 -6 9 -6 12 -1 25 -5 28
-11 3 -5 37 -10 74 -10 37 0 70 -2 73 -5 2 -3 3 -18 0 -35 -4 -27 -8 -30 -43
-30 -22 0 -39 -5 -39 -11 0 -11 -91 -8 -207 8 -65 9 -86 19 -66 31 8 5 9 13 3
22 -6 8 -10 27 -10 43 l0 27 95 0 c52 0 95 -4 95 -9z m-826 -49 c4 -10 24 -29
46 -43 22 -13 40 -30 40 -36 0 -7 5 -13 10 -13 6 0 21 -11 34 -25 13 -14 30
-25 39 -25 9 0 22 -6 29 -13 7 -8 26 -17 41 -21 24 -6 27 -9 17 -21 -10 -12
-9 -15 3 -15 9 0 22 -6 29 -12 19 -19 59 -37 88 -40 14 -2 25 -9 25 -18 0 -32
45 -70 83 -70 9 0 26 -6 37 -14 11 -7 41 -16 68 -20 26 -4 47 -12 47 -17 0
-12 202 -7 238 5 14 6 22 4 22 -3 0 -6 -6 -11 -13 -11 -8 0 -33 -14 -55 -30
-40 -28 -42 -33 -42 -80 0 -49 -1 -50 -29 -50 -39 0 -61 9 -61 26 0 8 -10 14
-25 14 -17 0 -29 8 -37 25 -8 18 -19 25 -39 25 -15 0 -34 6 -41 14 -8 7 -24
17 -37 21 -14 4 -20 12 -17 21 4 10 -3 14 -24 14 -17 0 -30 5 -30 11 0 14 -35
46 -72 65 -16 8 -28 21 -28 29 0 8 -9 15 -20 15 -11 0 -20 5 -20 11 0 16 -31
38 -53 39 -10 0 -20 7 -23 15 -4 8 -15 15 -25 15 -11 0 -27 9 -36 20 -10 11
-25 20 -35 20 -10 0 -18 5 -18 11 0 18 -56 68 -86 75 -16 4 -35 13 -42 21 -7
7 -20 13 -27 13 -19 0 -14 48 5 60 22 14 28 12 34 -8z m-2779 -72 c0 -8 4 -20
8 -27 5 -8 -1 -15 -20 -19 -15 -4 -31 -11 -34 -16 -6 -9 -167 -27 -174 -19
-16 15 2 84 21 80 5 -1 16 0 24 4 8 3 22 8 30 11 8 2 44 4 80 3 50 -2 65 -5
65 -17z m-3311 -50 c-4 -20 -11 -29 -20 -26 -21 8 -36 -20 -32 -61 2 -30 9
-41 31 -51 15 -7 27 -20 27 -28 0 -9 11 -14 35 -14 26 0 33 3 29 15 -5 11 1
15 18 15 14 0 53 3 87 6 l61 7 0 -35 c0 -45 15 -58 65 -58 34 0 44 5 55 25 15
28 30 33 30 10 0 -9 13 -24 30 -33 16 -9 30 -20 30 -24 0 -5 12 -8 28 -8 34 0
57 -14 48 -29 -4 -7 1 -11 13 -11 21 0 84 -30 89 -42 2 -5 11 -8 20 -8 20 -1
72 -44 72 -60 0 -5 7 -10 15 -10 9 0 26 -11 39 -25 13 -14 30 -25 37 -25 8 0
26 -6 40 -14 14 -7 38 -16 53 -20 19 -5 26 -12 22 -21 -3 -10 1 -15 12 -15 10
0 33 -11 53 -24 20 -14 52 -28 72 -31 21 -4 40 -11 43 -16 3 -5 17 -9 32 -9
45 0 74 -11 68 -26 -4 -11 7 -14 50 -14 51 0 113 -21 122 -42 2 -5 12 -8 23
-8 24 0 119 -41 119 -52 0 -18 55 -68 75 -68 13 0 28 -7 35 -15 7 -8 27 -17
46 -21 28 -5 32 -9 23 -20 -9 -12 -4 -14 29 -14 29 0 48 -7 67 -24 14 -13 41
-27 60 -30 19 -4 35 -11 35 -16 0 -6 16 -10 36 -10 26 0 43 8 65 29 16 16 29
36 29 44 0 14 3 14 29 1 38 -19 173 -24 178 -6 10 28 25 10 20 -24 -5 -31 -4
-35 11 -29 9 4 45 9 80 12 34 3 62 9 62 13 0 12 44 26 88 29 40 2 102 19 75
20 -28 2 -11 21 25 27 20 4 44 12 52 18 31 24 79 46 98 46 20 0 36 25 26 41
-3 5 11 9 30 9 26 0 34 4 30 14 -7 18 25 26 107 26 50 0 68 4 73 15 3 10 19
15 43 15 39 1 73 18 73 39 0 7 19 11 50 11 38 0 48 3 44 14 -3 8 4 16 18 20
48 12 51 10 45 -46 -7 -54 -17 -68 -55 -68 -14 0 -21 -4 -16 -11 9 -15 -15
-29 -53 -29 -17 0 -33 -5 -35 -11 -2 -7 -37 -14 -83 -17 -44 -2 -89 -11 -100
-18 -11 -8 -43 -14 -73 -14 -63 0 -99 -15 -82 -34 12 -16 -14 -26 -68 -26 -18
0 -40 -7 -48 -15 -9 -8 -29 -15 -45 -15 -16 0 -29 -4 -29 -10 0 -5 -6 -10 -12
-10 -26 -1 -85 -35 -81 -47 3 -8 -5 -13 -21 -13 -15 0 -29 -7 -32 -15 -4 -8
-12 -15 -19 -15 -7 0 -24 -9 -38 -20 -14 -11 -40 -20 -59 -20 -35 -1 -68 -19
-68 -39 0 -6 -17 -11 -41 -11 -27 0 -38 -4 -33 -11 9 -16 -15 -29 -53 -29 -31
0 -32 1 -35 48 l-3 47 -54 -2 c-62 -1 -75 -12 -85 -73 -3 -22 -15 -54 -25 -70
l-18 -31 -17 26 c-9 14 -26 25 -37 25 -12 0 -35 6 -52 14 -18 8 -49 17 -71 20
-44 6 -56 14 -38 25 9 5 5 11 -13 19 -15 7 -31 10 -36 6 -5 -3 -23 6 -40 20
-17 14 -37 26 -45 26 -8 0 -14 4 -14 9 0 5 -18 11 -41 15 -33 5 -39 9 -30 20
10 11 3 18 -36 32 -26 10 -50 21 -53 25 -3 3 -22 9 -42 13 -21 4 -38 11 -38
16 0 6 -10 10 -22 10 -30 0 -58 19 -40 27 12 4 -67 62 -86 63 -4 1 -25 9 -47
20 -22 11 -46 19 -52 20 -7 0 -13 5 -13 10 0 6 6 10 13 11 6 0 -3 5 -21 10
-19 6 -45 21 -58 35 -14 13 -33 24 -44 24 -10 0 -21 4 -24 9 -3 4 -20 11 -37
15 -26 5 -29 9 -20 20 10 12 3 18 -43 32 -31 10 -56 21 -56 25 0 4 -11 10 -25
13 -14 4 -25 11 -25 16 0 6 -15 10 -32 10 -38 0 -63 13 -54 28 3 5 -16 17 -42
27 -26 10 -51 21 -57 25 -5 4 -25 11 -42 15 -18 3 -33 10 -33 15 0 4 -23 10
-50 12 -55 5 -72 14 -52 27 8 5 -12 14 -54 25 -38 9 -70 20 -73 25 -4 4 -31
11 -61 13 -30 3 -56 11 -58 17 -2 6 -16 11 -30 11 -15 0 -34 5 -42 10 -13 8
-13 11 -1 19 9 6 -8 14 -55 24 -119 27 -161 56 -156 107 2 14 -8 40 -23 59
-14 19 -25 38 -25 42 0 4 17 10 37 14 20 4 46 13 57 21 11 8 28 14 38 14 10 0
18 5 18 10 0 6 7 10 15 10 8 0 15 5 15 11 0 6 7 9 15 6 8 -4 17 -1 21 5 12 19
24 -18 18 -52z m4188 -73 c-6 -7 -12 -45 -13 -84 -2 -77 -7 -83 -69 -83 -15 0
-31 -5 -37 -11 -6 -6 -43 -14 -82 -17 -39 -2 -71 -8 -71 -12 0 -5 -19 -11 -42
-15 -48 -8 -112 -34 -85 -35 9 0 17 -4 17 -9 0 -11 -36 -21 -81 -21 -20 0 -50
-7 -65 -15 -16 -8 -36 -15 -45 -15 -9 0 -20 -8 -23 -17 -14 -35 -26 10 -26 93
l0 82 65 -6 c56 -4 65 -2 60 10 -7 16 19 27 65 28 14 0 34 7 44 15 11 8 32 15
48 15 15 0 28 5 28 10 0 6 7 10 15 10 8 0 15 7 15 15 0 11 12 15 46 15 38 0
44 2 35 14 -17 20 6 26 95 26 43 0 74 4 74 10 0 6 10 10 21 10 17 0 19 -3 11
-13z m-1693 -21 c7 -8 27 -17 46 -20 33 -7 50 -26 23 -26 -9 0 -8 -3 2 -9 8
-6 18 -7 22 -5 8 5 68 -55 68 -68 0 -5 25 -8 55 -8 30 0 55 4 55 10 0 5 9 14
19 19 18 10 19 7 14 -72 -6 -106 -9 -117 -29 -89 -8 12 -12 27 -9 32 3 6 -1
10 -9 10 -9 0 -38 14 -64 30 -27 17 -54 30 -61 30 -6 0 -11 7 -11 15 0 8 -7
15 -15 15 -8 0 -15 6 -15 13 0 6 -14 21 -30 32 -16 11 -30 23 -30 28 0 4 -16
7 -35 7 -32 0 -35 3 -35 28 0 42 17 54 39 28z m-1187 -31 c3 -11 6 -74 7 -140
1 -76 5 -125 12 -132 9 -9 5 -14 -14 -18 -48 -12 -49 -9 -48 150 1 81 4 152 7
157 9 13 29 4 36 -17z m1970 -65 c5 -52 -11 -67 -79 -76 -29 -3 -58 -13 -64
-20 -6 -8 -20 -14 -30 -14 -10 0 -21 -5 -24 -10 -14 -22 -25 4 -25 55 0 75 12
85 111 85 46 0 79 4 79 10 0 6 6 10 14 10 9 0 15 -14 18 -40z m8 -180 c0 -5
-3 -10 -8 -10 -4 0 -6 -20 -4 -45 l4 -45 -36 0 c-24 0 -36 -5 -36 -14 0 -16
-30 -26 -82 -26 -21 0 -38 -4 -38 -10 0 -5 -14 -10 -31 -10 -25 0 -29 3 -20
13 6 8 8 17 4 21 -10 10 46 56 68 56 9 0 19 4 21 10 2 5 27 14 56 20 65 12 73
16 65 35 -3 10 2 15 16 15 12 0 21 -4 21 -10z m-1314 -285 l-1 -155 -37 0
c-20 0 -43 7 -52 15 -8 8 -23 15 -34 15 -45 0 -83 13 -78 26 4 10 -3 14 -24
14 -18 0 -30 5 -30 13 0 7 -29 30 -65 50 -62 36 -76 57 -36 57 9 0 21 4 27 10
5 5 46 13 89 16 44 4 83 11 86 16 3 5 23 11 45 15 45 7 67 21 60 39 -3 7 4 15
17 17 12 2 25 5 28 6 3 0 6 -69 5 -154z m1984 -104 c0 -5 50 -11 112 -13 76
-2 113 -7 116 -16 2 -6 12 -12 22 -12 48 0 67 -35 35 -66 -8 -9 -15 -31 -15
-50 0 -33 -1 -34 -42 -34 -40 1 -42 2 -24 15 19 14 18 15 -16 15 -20 0 -40 5
-43 10 -3 6 -30 10 -59 10 -63 0 -116 9 -116 21 0 4 7 15 17 24 15 16 15 19 0
45 -10 16 -14 35 -11 44 7 17 24 22 24 7z m-714 -97 c-3 -9 -6 -20 -6 -25 0
-6 -6 -9 -12 -8 -33 4 -38 -2 -38 -50 0 -32 -5 -51 -14 -54 -7 -3 -16 -23 -19
-45 -4 -22 -14 -52 -22 -68 -8 -16 -15 -48 -15 -71 0 -43 -14 -59 -23 -25 -3
10 -5 6 -6 -11 0 -16 -12 -38 -26 -51 -20 -18 -25 -33 -25 -70 0 -38 -3 -46
-19 -46 -10 0 -32 -7 -47 -15 -16 -8 -37 -15 -47 -15 -20 0 -47 -22 -47 -39 0
-6 -8 -10 -17 -9 -49 4 -72 -2 -66 -18 4 -10 -1 -17 -16 -21 -18 -5 -21 -13
-21 -55 0 -40 -3 -48 -13 -40 -10 8 -16 6 -26 -10 -10 -17 -20 -19 -53 -15
-45 6 -58 15 -40 26 16 10 -24 27 -82 35 -22 3 -42 9 -45 14 -3 5 -23 12 -45
16 -21 4 -46 11 -55 16 -9 5 -29 11 -44 15 -22 4 -26 9 -18 19 8 10 -1 19 -42
39 -28 14 -62 28 -74 32 -13 3 -23 10 -23 15 0 5 -16 12 -36 16 -24 4 -34 11
-30 20 3 8 1 14 -4 14 -5 0 -23 13 -40 30 -17 16 -35 30 -40 30 -6 0 -10 5
-10 10 0 6 33 10 80 10 56 0 79 4 77 12 -1 6 12 16 28 21 17 5 38 13 48 18 9
5 38 12 62 16 25 3 45 10 45 14 0 5 6 9 14 9 8 0 16 7 20 15 3 8 14 15 25 15
12 0 18 6 17 17 -1 12 7 19 23 21 13 2 31 10 38 18 8 8 26 14 39 14 14 0 34 9
46 19 11 11 26 17 33 14 8 -2 23 1 35 7 16 9 19 15 10 24 -12 15 14 26 62 26
14 0 28 5 30 11 2 6 35 13 73 16 39 3 84 11 102 19 17 8 57 14 88 14 57 0 85
14 77 38 -2 8 12 12 52 12 41 0 58 4 62 15 4 8 11 15 16 15 6 0 7 -7 4 -16z
m355 -16 c1 -18 3 -25 6 -15 2 9 8 17 12 17 16 0 21 -65 21 -271 0 -128 4
-210 10 -214 17 -11 11 -25 -11 -25 -11 0 -27 -7 -35 -15 -9 -8 -24 -15 -35
-15 -25 0 -47 -21 -41 -38 2 -8 -9 -12 -37 -12 -28 0 -41 -4 -41 -14 0 -16
-30 -26 -82 -26 -21 0 -38 -4 -38 -10 0 -5 -18 -13 -40 -16 -31 -5 -42 -12
-46 -29 -5 -22 -9 -22 -135 -21 l-129 1 0 31 c0 35 13 44 61 44 16 0 28 4 27
9 -4 14 70 61 95 61 37 0 47 19 47 86 0 35 5 75 12 91 l12 28 4 -32 c2 -19 9
-33 17 -33 8 0 15 -18 20 -52 3 -29 14 -68 23 -85 15 -29 21 -33 57 -33 23 0
60 9 82 20 35 17 42 25 48 60 4 25 12 40 21 40 14 0 17 51 19 322 0 40 5 58
23 77 20 21 28 52 23 89 -1 6 5 12 14 12 10 0 15 -10 16 -32z"/>
<path d="M6651 19417 c-7 -13 -11 -41 -9 -63 2 -31 9 -41 31 -52 15 -7 27 -17
27 -21 0 -5 11 -12 25 -15 14 -4 25 -13 25 -21 0 -8 7 -15 16 -15 9 0 33 -14
53 -30 54 -46 55 -46 84 -54 15 -3 27 -13 27 -21 0 -8 8 -15 18 -15 9 0 22
-10 27 -22 8 -18 20 -24 54 -26 62 -5 86 3 99 33 23 49 6 118 -25 108 -7 -3
-13 0 -13 6 0 7 -11 16 -25 21 -14 5 -28 17 -31 25 -4 8 -12 15 -20 15 -8 0
-14 7 -14 15 0 8 -7 15 -15 15 -8 0 -15 5 -15 10 0 6 -8 10 -18 10 -11 0 -27
9 -37 20 -10 11 -26 20 -37 20 -10 0 -18 7 -18 16 0 10 -7 14 -22 12 -16 -2
-23 3 -28 22 -5 23 -10 25 -76 28 -65 3 -71 1 -83 -21z"/>
<path d="M7332 19068 c-7 -7 -12 -21 -12 -31 0 -12 -5 -17 -13 -14 -7 3 -18
-2 -23 -11 -13 -22 6 -80 24 -75 6 3 12 -2 12 -11 0 -9 8 -16 19 -16 11 0 23
-9 26 -20 3 -11 11 -20 16 -20 5 0 9 -5 9 -11 0 -12 25 -39 36 -39 16 0 74
-45 74 -57 0 -7 9 -13 21 -13 15 0 19 -5 15 -15 -3 -9 0 -15 9 -15 8 0 15 -5
15 -10 0 -6 6 -10 14 -8 8 2 21 -5 28 -15 10 -14 28 -18 76 -18 35 0 69 5 77
11 32 26 8 126 -25 105 -6 -3 -10 3 -10 14 0 12 -3 21 -7 21 -5 0 -23 14 -42
30 -18 17 -43 30 -53 30 -14 0 -18 5 -14 15 4 11 -1 15 -19 15 -14 0 -25 6
-25 13 0 14 -53 67 -67 67 -10 0 -53 45 -53 55 0 29 -84 47 -108 23z"/>
<path d="M8858 18962 c-14 -16 -29 -38 -32 -49 -4 -12 -15 -19 -29 -19 -21 1
-22 -3 -27 -120 -3 -70 -10 -127 -17 -135 -6 -8 -14 -32 -18 -54 -4 -22 -11
-45 -16 -51 -5 -6 -12 -50 -15 -97 -4 -48 -11 -87 -15 -87 -5 0 -9 6 -9 13 0
29 -28 -44 -32 -87 -3 -27 -10 -51 -15 -55 -6 -3 -13 -35 -16 -70 -4 -44 -10
-67 -21 -73 -22 -13 -23 -146 -1 -154 22 -9 102 32 110 56 5 16 10 18 20 10
14 -12 27 17 40 90 3 19 10 44 15 55 5 11 12 46 15 78 4 31 11 57 16 57 5 0 9
13 9 29 0 43 11 91 21 91 5 0 9 -8 10 -17 0 -14 2 -15 6 -3 3 8 11 18 17 22 8
5 7 8 -1 8 -25 0 -12 19 17 25 17 4 42 18 55 31 32 32 46 31 39 -5 -4 -16 -1
-32 5 -35 6 -4 11 -18 11 -30 0 -13 9 -35 21 -50 19 -24 27 -26 90 -26 38 0
69 4 69 9 0 5 16 12 35 15 19 4 43 18 54 31 10 14 24 25 30 25 6 0 11 9 11 19
0 10 7 22 16 25 10 4 14 16 12 38 -3 30 -7 33 -37 36 -22 2 -49 -4 -72 -17
-28 -16 -39 -18 -45 -9 -4 6 -6 112 -5 234 l3 223 -35 6 c-42 8 -77 -1 -77
-20 0 -8 -12 -20 -27 -27 -24 -11 -29 -21 -33 -67 -3 -30 -11 -56 -18 -59 -7
-2 -12 -23 -12 -52 0 -58 -7 -80 -26 -80 -8 0 -14 -10 -14 -24 0 -29 -15 -43
-23 -22 -7 18 3 89 13 96 4 3 9 70 11 150 l4 145 -30 3 c-24 2 -37 -4 -57 -26z"/>
<path d="M10880 16700 c0 -6 -11 -15 -24 -20 -19 -7 -25 -18 -28 -52 -3 -24
-1 -49 5 -55 14 -18 67 -17 67 2 0 8 10 17 23 21 23 6 67 80 59 102 -5 15
-102 17 -102 2z"/>
<path d="M4450 13435 c-7 -8 -18 -15 -25 -15 -24 0 -34 -87 -13 -108 18 -18
34 -15 77 16 40 28 57 74 38 107 -10 19 -61 19 -77 0z"/>
<path d="M3644 11837 c-3 -8 -4 -45 -2 -83 l3 -69 34 -3 c19 -2 46 -12 59 -23
14 -10 31 -19 39 -19 9 0 13 -6 10 -14 -4 -10 4 -17 24 -21 16 -4 29 -11 29
-16 0 -5 6 -9 14 -9 8 0 16 -6 18 -12 3 -9 28 -13 74 -13 97 0 104 4 104 65 0
56 -12 75 -54 86 -14 3 -26 10 -26 15 0 5 -9 9 -19 9 -11 0 -27 7 -35 16 -9 8
-28 17 -43 18 -16 2 -32 4 -36 5 -5 0 -5 6 -2 11 10 16 -13 38 -46 45 -16 4
-29 11 -29 16 0 15 -110 11 -116 -4z"/>
<path d="M4116 11565 c-11 -8 -16 -15 -11 -15 5 0 -1 -9 -13 -20 -39 -37 -27
-115 20 -124 21 -4 29 -10 24 -21 -3 -9 0 -15 10 -15 8 0 22 -6 29 -12 29 -26
41 -34 93 -58 28 -14 52 -30 52 -35 0 -13 57 -35 89 -35 49 0 61 16 61 80 0
46 -3 60 -15 60 -8 0 -19 9 -25 20 -6 11 -17 20 -24 20 -8 0 -16 9 -19 20 -3
11 -17 22 -33 26 -16 4 -40 15 -53 26 -13 10 -32 18 -42 18 -11 0 -19 7 -19
15 0 9 -10 15 -26 15 -19 0 -25 4 -20 15 3 8 -3 19 -14 25 -25 13 -41 12 -64
-5z"/>
<path d="M2741 10606 c-7 -8 -23 -17 -36 -20 -20 -5 -25 -13 -25 -37 0 -54 43
-111 71 -94 4 3 14 -3 21 -15 7 -11 23 -20 36 -20 13 0 36 -6 50 -14 15 -8 40
-17 55 -21 20 -4 27 -10 23 -21 -4 -9 3 -18 17 -23 65 -25 100 -31 131 -26 41
8 52 36 41 109 -6 36 -12 46 -31 50 -13 4 -24 11 -24 16 0 6 -15 10 -32 10
-38 0 -71 18 -50 27 20 8 -14 29 -60 37 -21 4 -38 11 -38 16 0 5 -20 12 -45
16 -25 3 -48 10 -51 15 -8 14 -40 11 -53 -5z"/>
<path d="M3263 10324 c-26 -29 -32 -94 -9 -94 8 0 17 -11 20 -24 4 -18 15 -25
46 -30 22 -3 40 -11 40 -16 0 -6 15 -10 33 -10 37 0 70 -18 49 -27 -20 -8 17
-32 49 -33 14 0 34 -7 45 -15 21 -16 94 -20 94 -5 0 6 7 10 16 10 23 0 43 29
44 62 0 45 -20 76 -54 84 -17 3 -42 12 -56 20 -14 7 -42 16 -63 19 -26 4 -37
10 -34 19 8 20 -13 36 -49 36 -17 0 -37 7 -44 15 -8 9 -30 15 -59 15 -37 0
-50 -5 -68 -26z"/>
<path d="M3847 10069 c-14 -8 -15 -14 -7 -24 9 -10 4 -15 -20 -20 -28 -6 -30
-10 -30 -50 0 -47 12 -62 58 -71 17 -3 29 -11 26 -18 -5 -14 56 -63 90 -72 14
-3 26 -10 26 -14 0 -5 10 -10 23 -12 13 -2 22 -10 21 -20 -1 -9 14 -24 35 -35
20 -10 38 -21 39 -25 2 -5 12 -8 22 -8 9 0 23 -7 30 -15 17 -21 96 -20 104 1
3 9 6 42 6 74 0 55 -2 60 -30 77 -16 9 -30 21 -30 25 0 4 -16 10 -35 14 -19 3
-35 10 -35 14 0 4 -12 11 -26 14 -20 5 -23 10 -15 20 14 16 -1 31 -42 41 -15
4 -27 11 -27 16 0 5 -9 9 -19 9 -11 0 -26 7 -35 15 -8 8 -29 18 -45 21 -30 6
-43 24 -18 24 7 0 4 7 -7 15 -23 18 -34 18 -59 4z"/>
<path d="M4302 9708 c-7 -7 -12 -35 -12 -63 0 -61 21 -92 65 -97 21 -2 30 -8
29 -20 -1 -10 2 -18 8 -18 5 0 19 -11 31 -24 13 -14 35 -28 50 -31 15 -4 27
-11 27 -15 0 -5 10 -10 23 -12 12 -2 22 -10 22 -18 0 -21 68 -70 98 -70 7 0
25 6 40 13 31 14 42 50 32 108 -5 31 -13 43 -33 52 -15 6 -33 17 -40 24 -7 7
-21 13 -30 13 -12 0 -13 3 -5 11 13 13 -5 39 -22 33 -6 -3 -20 5 -32 16 -12
11 -28 20 -36 20 -8 0 -22 9 -32 20 -10 11 -25 20 -33 20 -8 0 -12 6 -8 15 3
8 -3 19 -14 25 -26 14 -113 13 -128 -2z"/>
<path d="M48 8396 l-46 -22 -2 -297 -1 -297 85 0 c47 0 88 5 91 10 3 6 13 10
22 10 26 0 82 31 77 44 -2 6 12 19 31 28 31 14 36 14 31 1 -3 -8 -6 -19 -6
-24 0 -5 -7 -9 -15 -9 -13 0 -15 -20 -15 -123 0 -117 -1 -123 -25 -149 -20
-21 -25 -38 -25 -76 0 -51 12 -72 43 -72 20 0 50 24 45 37 -2 4 9 9 24 11 18
2 25 8 22 17 -3 7 3 18 14 24 11 6 22 25 26 42 5 27 8 30 21 19 12 -10 24 -10
54 -1 21 6 54 11 72 11 54 0 81 10 69 25 -8 10 -4 15 19 20 18 4 33 15 36 26
4 12 13 18 20 15 17 -6 42 51 28 65 -5 5 -24 11 -43 13 -19 2 -37 4 -40 5 -3
0 -4 32 -2 71 l4 70 -36 17 c-30 14 -39 15 -60 4 -13 -8 -22 -19 -20 -26 3 -7
-8 -20 -25 -28 l-30 -15 1 44 c3 49 -9 64 -51 64 -23 0 -24 2 -17 53 3 28 7
95 7 147 l2 95 12 -105 12 -105 1 150 c1 116 -2 144 -10 125 l-11 -25 -7 30
c-4 17 -8 45 -9 63 -1 29 -4 32 -33 32 -34 -1 -69 -23 -80 -52 -4 -9 -17 -18
-30 -20 -23 -3 -23 -4 -28 -193 l-5 -190 -47 -3 -48 -3 0 229 c0 200 -2 231
-16 236 -23 9 -34 7 -86 -18z"/>
</g>
</svg>
