<?xml version="1.0" standalone="no"?>
<!DOCTYPE svg PUBLIC "-//W3C//DTD SVG 20010904//EN"
 "http://www.w3.org/TR/2001/REC-SVG-20010904/DTD/svg10.dtd">
<svg version="1.0" xmlns="http://www.w3.org/2000/svg"
 width="3609.000000pt" height="318.000000pt" viewBox="0 0 3609.000000 318.000000"
 preserveAspectRatio="xMidYMid meet">
<metadata>
Created by potrace 1.16, written by Peter Selinger 2001-2019
</metadata>
<g transform="translate(0.000000,318.000000) scale(0.100000,-0.100000)"
fill="current" stroke="none">
<path d="M32429 3171 c10 -6 5 -11 -19 -16 -34 -7 -49 -16 -78 -47 -9 -10 -20
-18 -24 -18 -11 0 -48 -38 -48 -49 0 -5 -9 -15 -20 -22 -28 -19 -47 -181 -29
-249 24 -89 72 -121 119 -80 13 11 27 20 32 20 10 0 11 -157 0 -162 -4 -1 -23
-22 -42 -45 -18 -24 -39 -43 -47 -43 -7 0 -13 -7 -13 -15 0 -8 -4 -15 -8 -15
-5 0 -25 -16 -45 -37 l-37 -36 0 100 c0 77 4 103 15 113 11 9 12 17 4 31 -13
24 -30 24 -62 -1 -14 -11 -31 -20 -38 -20 -7 0 -30 -18 -51 -40 -22 -22 -42
-40 -45 -40 -13 0 -43 -45 -43 -65 0 -11 -4 -25 -10 -31 -5 -5 -10 -47 -12
-94 -3 -84 -3 -85 -28 -82 -14 1 -30 9 -36 17 -6 8 -21 15 -33 15 -12 0 -21 6
-21 15 0 11 -11 15 -39 15 -22 0 -52 5 -68 11 -23 10 -167 28 -235 30 -10 0
-18 4 -18 10 0 5 -8 9 -17 9 -17 1 -17 1 0 14 23 18 25 151 1 184 -13 19 -13
28 -3 57 10 28 10 39 -1 59 -9 18 -11 47 -7 99 l5 74 -26 -6 c-37 -8 -161 -92
-168 -113 -3 -10 -12 -18 -20 -18 -8 0 -14 -5 -14 -11 0 -7 -6 -17 -14 -23
-18 -13 -19 -35 -18 -193 2 -101 4 -121 16 -117 20 8 25 -26 8 -53 -8 -13 -21
-23 -29 -23 -7 0 -19 -5 -26 -10 -7 -6 -30 -26 -52 -45 -22 -19 -43 -35 -47
-35 -5 0 -8 -7 -8 -15 0 -8 -4 -15 -9 -15 -8 0 -141 -127 -141 -134 0 -2 -16
-20 -35 -39 -19 -19 -35 -42 -35 -51 0 -9 -4 -16 -10 -16 -5 0 -12 -11 -16
-24 -3 -14 -12 -27 -20 -30 -8 -3 -14 -16 -14 -30 0 -13 -5 -26 -12 -28 -19
-7 -17 -253 2 -298 8 -19 21 -39 28 -43 6 -4 12 -13 12 -20 0 -18 68 -77 106
-93 18 -8 35 -18 39 -24 3 -5 21 -10 39 -10 19 0 39 -7 46 -15 8 -9 29 -15 55
-15 24 0 50 -3 59 -6 19 -7 22 -64 4 -82 -7 -7 -13 -57 -16 -129 -2 -65 -8
-122 -13 -127 -12 -13 -12 -53 0 -61 5 -3 12 -1 16 5 3 5 16 10 29 10 22 0 55
20 84 53 9 9 21 17 26 17 6 0 32 23 58 51 l48 52 0 93 0 94 45 0 c26 0 47 5
52 14 4 7 26 21 48 31 22 10 54 34 71 53 18 19 36 32 41 29 5 -3 17 7 27 22
10 15 28 32 39 37 11 5 25 17 31 27 6 10 43 52 81 92 72 77 101 109 146 162
28 34 46 34 28 1 -7 -13 -13 -159 -15 -397 -3 -236 -9 -390 -16 -414 -15 -48
-3 -61 40 -46 18 6 32 15 32 19 0 4 10 10 23 14 19 4 81 60 152 137 23 24 22
1180 0 1199 -22 18 -19 50 4 50 11 0 22 4 25 9 7 10 158 2 171 -10 5 -5 17 -9
26 -9 9 0 20 -7 23 -16 12 -32 140 1 150 38 2 10 11 18 20 18 9 0 16 5 16 10
0 6 6 10 13 10 19 0 77 75 77 99 0 14 -9 21 -32 26 -18 4 -41 15 -51 24 -15
12 -36 15 -93 13 -41 -2 -74 0 -74 4 0 4 16 22 35 41 19 19 35 40 35 47 0 8 7
16 15 20 8 3 15 12 15 21 0 8 7 15 15 15 9 0 15 9 15 23 0 13 5 28 11 34 7 7
9 51 6 129 -6 139 -15 193 -33 214 -7 8 -29 33 -48 54 -20 22 -36 47 -36 58 0
14 -8 18 -37 18 -26 0 -34 -3 -24 -9z m-1234 -1093 c-3 -29 -7 -73 -10 -98 -2
-25 -7 -119 -10 -210 -7 -210 -10 -230 -35 -230 -11 0 -20 7 -20 15 0 8 -9 15
-19 15 -11 0 -32 17 -48 38 -15 20 -34 41 -40 45 -7 4 -13 16 -13 26 0 10 -7
24 -15 31 -12 10 -15 38 -15 131 0 65 4 120 9 124 6 3 20 26 33 51 12 25 39
61 60 80 31 28 46 34 83 34 l44 0 -4 -52z m335 7 c0 -9 10 -15 26 -15 14 0 32
-7 40 -15 9 -8 24 -15 34 -15 10 0 22 -4 25 -10 3 -5 24 -14 45 -20 46 -12 41
13 42 -231 l0 -137 -41 -40 c-23 -22 -41 -43 -41 -47 0 -5 -16 -23 -35 -41
l-34 -34 -107 0 c-93 0 -105 2 -100 16 3 9 6 67 6 130 0 95 3 114 15 114 13 0
15 27 15 180 l0 180 55 0 c42 0 55 -3 55 -15z"/>
<path d="M35515 3050 c-3 -5 -15 -10 -26 -10 -11 0 -22 -7 -25 -15 -4 -8 -12
-15 -20 -15 -7 0 -28 -16 -47 -35 -19 -19 -39 -35 -46 -35 -6 0 -11 -6 -11
-14 0 -8 -5 -16 -11 -18 -6 -2 -14 -27 -17 -56 -3 -35 -9 -52 -18 -52 -11 0
-14 -17 -14 -70 0 -54 -4 -72 -15 -76 -11 -4 -15 -21 -15 -58 0 -29 -5 -57
-10 -62 -9 -9 -30 -163 -31 -226 0 -9 -9 -20 -19 -23 -10 -3 -21 -12 -24 -20
-3 -8 -12 -15 -21 -15 -8 0 -15 -4 -15 -9 0 -5 -11 -12 -25 -15 -14 -4 -25
-11 -25 -16 0 -6 -7 -10 -15 -10 -8 0 -15 -7 -15 -15 0 -9 -7 -18 -16 -22 -21
-8 -134 -118 -134 -130 0 -6 -9 -18 -20 -28 -11 -10 -20 -24 -20 -30 0 -7 -7
-18 -15 -25 -8 -7 -15 -22 -15 -34 0 -12 -5 -27 -11 -33 -6 -6 -13 -54 -16
-107 -4 -62 -11 -100 -19 -107 -11 -9 -14 -48 -14 -163 l0 -152 35 -17 c28
-13 64 -17 160 -17 l124 0 -10 -32 c-5 -18 -9 -77 -9 -131 0 -54 -5 -107 -10
-117 -6 -10 -11 -37 -12 -59 -1 -28 -9 -48 -29 -69 -16 -17 -31 -42 -35 -56
-5 -22 -2 -27 21 -36 39 -15 59 -12 85 10 13 11 29 20 37 20 7 0 13 5 13 10 0
6 5 10 11 10 6 0 21 13 35 29 14 17 33 32 43 36 29 9 51 76 58 179 4 72 9 96
19 92 16 -6 16 85 0 97 -8 6 -7 10 2 14 7 2 19 11 26 19 8 8 19 14 25 14 6 0
28 16 50 35 21 19 45 35 52 35 8 1 28 19 44 40 17 21 35 39 40 40 6 0 30 23
55 51 25 28 51 57 58 64 6 8 12 16 12 20 0 10 44 69 58 78 6 4 12 21 12 37 0
17 4 30 9 30 5 0 12 21 16 47 4 26 13 56 21 67 9 13 14 48 14 98 0 45 4 78 10
78 11 0 12 -97 10 -525 -1 -146 -5 -251 -11 -253 -5 -2 -9 -15 -9 -28 0 -13
-9 -32 -20 -41 -11 -10 -20 -27 -20 -39 0 -12 -7 -24 -15 -28 -8 -3 -12 -11
-10 -19 3 -7 -10 -26 -30 -43 -59 -48 -95 -84 -95 -94 0 -6 -7 -10 -15 -10 -9
0 -15 -9 -15 -24 0 -13 -5 -26 -12 -28 -6 -2 -9 -12 -5 -21 12 -31 70 -22 113
18 22 19 47 35 57 35 9 0 17 4 17 8 0 5 23 31 50 59 28 28 50 56 50 62 0 6 7
14 15 17 8 4 15 12 15 20 0 7 9 18 20 24 11 6 20 17 20 25 0 8 4 15 9 15 5 0
11 14 15 30 3 18 12 30 21 30 9 0 15 9 15 24 0 13 7 26 15 30 8 3 15 13 15 23
0 10 7 27 15 37 8 11 15 28 15 38 0 10 7 21 15 24 8 4 15 16 15 28 0 17 2 18
10 6 6 -10 9 83 8 270 -2 262 -3 271 -8 115 l-6 -170 -3 255 c-1 140 -5 264
-7 275 -9 44 -23 195 -25 280 -1 50 -8 106 -16 125 -9 22 -13 60 -11 100 3 61
2 65 -19 68 -13 2 -23 -1 -23 -6 0 -6 -11 -13 -25 -16 -33 -8 -97 -63 -171
-147 -21 -23 -20 -159 1 -159 12 0 15 -18 15 -100 0 -60 -4 -100 -10 -100 -5
0 -10 5 -10 10 0 26 -83 80 -124 80 -16 0 -26 6 -26 15 0 11 -11 15 -38 15
-21 0 -48 7 -60 16 -12 8 -36 14 -54 12 l-32 -3 3 55 c1 30 8 58 14 62 7 4 13
42 16 89 2 53 8 88 17 97 8 8 14 34 14 62 0 28 5 50 12 52 7 3 13 32 16 74 2
38 8 73 13 79 15 16 11 85 -5 85 -8 0 -18 -4 -21 -10z m-325 -919 c0 -16 -6
-36 -14 -44 -11 -11 -14 -52 -15 -183 -1 -136 -4 -171 -16 -180 -10 -7 -15
-29 -15 -63 0 -29 -5 -62 -12 -74 -12 -22 -14 -27 -17 -62 -2 -19 -2 -19 -15
-2 -7 9 -25 17 -40 17 -30 0 -28 -13 -26 170 1 74 6 140 11 146 5 6 12 51 15
100 4 53 12 94 20 102 8 7 14 20 14 28 0 8 6 14 13 14 7 0 20 9 30 20 9 11 24
20 32 20 8 0 15 5 15 10 0 6 5 10 10 10 6 0 10 -13 10 -29z m269 -1 c12 0 21
-6 21 -15 0 -8 9 -15 20 -15 11 0 20 -7 20 -15 0 -8 7 -15 15 -15 8 0 18 -8
23 -17 10 -22 -8 -333 -19 -333 -4 0 -11 -21 -15 -47 -4 -26 -13 -53 -20 -61
-8 -7 -14 -20 -14 -28 0 -8 -4 -14 -10 -14 -5 0 -10 -6 -10 -13 0 -40 -119
-70 -121 -29 -4 84 5 209 17 226 8 11 14 44 14 73 0 28 4 63 9 76 8 20 12 72
21 247 0 12 3 12 14 -2 7 -10 23 -18 35 -18z"/>
<path d="M1330 2990 c0 -5 -8 -10 -18 -10 -11 0 -27 -9 -37 -20 -10 -11 -24
-20 -32 -20 -7 0 -13 -4 -13 -10 0 -5 -5 -10 -11 -10 -7 0 -22 -10 -33 -22
-12 -13 -39 -37 -59 -55 -20 -17 -37 -33 -37 -36 0 -3 -15 -21 -32 -40 -68
-72 -98 -109 -98 -123 0 -8 -4 -14 -10 -14 -5 0 -10 -9 -10 -20 0 -11 -9 -28
-20 -37 -11 -10 -20 -29 -20 -43 0 -14 -7 -34 -15 -44 -10 -13 -15 -43 -15
-82 0 -35 -4 -65 -9 -68 -5 -3 -12 -34 -16 -68 -4 -35 -14 -72 -21 -83 -8 -11
-14 -37 -14 -58 0 -24 -5 -40 -15 -43 -10 -4 -15 -20 -15 -49 0 -24 -4 -47
-10 -50 -5 -3 -10 -15 -10 -25 0 -26 -21 -36 -32 -16 -5 9 -18 16 -29 16 -11
0 -22 7 -25 15 -4 8 -12 15 -20 15 -8 0 -14 7 -14 15 0 8 -7 15 -15 15 -8 0
-15 6 -15 14 0 8 -13 26 -30 39 -16 14 -30 35 -30 46 0 10 -3 21 -7 23 -14 6
-52 66 -59 92 -3 14 -10 29 -15 32 -5 3 -9 63 -9 133 0 96 3 131 14 140 8 7
14 36 15 78 1 37 6 72 11 78 5 6 12 35 16 65 4 30 12 63 19 73 18 26 7 57 -20
57 -19 0 -32 -8 -82 -50 -7 -5 -15 -10 -18 -10 -4 0 -31 -25 -61 -55 -45 -45
-54 -60 -54 -89 0 -19 -4 -38 -10 -41 -5 -3 -12 -29 -16 -56 -4 -28 -13 -53
-20 -56 -10 -4 -14 -26 -14 -77 0 -48 -5 -79 -15 -93 -12 -18 -15 -45 -11
-135 5 -143 33 -247 73 -271 7 -4 13 -16 13 -26 0 -10 7 -24 15 -31 8 -7 15
-19 15 -26 0 -8 4 -14 10 -14 10 0 50 -36 50 -45 0 -9 40 -45 50 -45 6 0 10
-4 10 -10 0 -5 16 -12 35 -16 19 -3 39 -12 46 -20 8 -10 36 -14 97 -14 67 0
83 -3 74 -12 -8 -8 -12 -58 -12 -159 0 -132 -2 -148 -17 -151 -30 -6 -63 4
-63 18 0 9 -12 14 -34 14 -18 0 -38 6 -44 13 -6 6 -31 21 -56 32 -25 11 -46
26 -46 33 0 6 -12 12 -28 12 -15 0 -42 4 -59 9 -20 6 -35 6 -38 0 -4 -5 -17
-9 -31 -9 -13 0 -32 -9 -41 -20 -10 -11 -24 -20 -32 -20 -15 0 -81 -66 -81
-81 0 -5 -5 -9 -11 -9 -13 0 -39 -25 -39 -39 0 -5 -6 -14 -12 -18 -7 -4 -23
-22 -35 -40 -20 -28 -23 -44 -23 -137 0 -95 2 -105 20 -111 10 -3 27 -2 37 3
27 15 633 15 633 1 0 -7 14 -26 30 -43 142 -146 217 -216 231 -216 10 0 19 -6
22 -12 2 -9 26 -13 73 -13 70 1 82 5 122 48 9 9 23 17 31 17 7 0 27 14 43 30
15 17 31 30 34 30 11 0 134 134 140 152 3 10 10 18 15 18 5 0 9 7 9 15 0 7 6
18 14 22 14 8 56 80 56 96 0 4 5 13 10 20 41 48 50 62 50 74 0 7 4 13 9 13 5
0 12 13 16 30 4 16 10 30 15 30 4 0 11 11 14 25 4 14 11 25 16 25 6 0 10 9 10
19 0 11 7 26 15 35 8 8 18 29 21 45 4 17 10 31 15 31 13 0 11 48 -2 56 -6 3
-16 1 -22 -5 -6 -6 -19 -11 -29 -11 -9 0 -21 -6 -25 -13 -4 -7 -21 -21 -38
-31 -42 -27 -115 -108 -115 -128 0 -10 -4 -18 -9 -18 -5 0 -12 -15 -15 -34 -4
-19 -13 -37 -21 -40 -8 -3 -15 -15 -15 -26 0 -11 -4 -20 -10 -20 -5 0 -12 -11
-16 -25 -3 -14 -10 -25 -15 -25 -5 0 -9 -7 -9 -16 0 -20 -39 -86 -57 -97 -7
-4 -13 -17 -13 -27 0 -11 -4 -20 -9 -20 -5 0 -12 -11 -15 -25 -4 -14 -11 -25
-16 -25 -6 0 -10 -6 -10 -14 0 -8 -4 -17 -9 -20 -14 -9 -63 12 -56 24 3 5 -1
10 -9 10 -16 0 -57 39 -186 176 -42 44 -81 79 -88 76 -17 -5 -15 26 3 44 12
12 15 42 15 130 0 68 5 124 12 137 6 12 12 50 13 86 2 63 3 64 31 67 16 2 30
8 32 14 2 5 11 10 20 10 10 0 31 9 47 20 17 11 37 20 46 20 8 0 28 12 45 28
16 15 46 36 67 47 20 11 37 25 37 32 0 7 7 13 15 13 9 0 33 18 55 40 22 22 43
40 48 40 6 0 17 15 26 34 9 18 24 36 35 39 17 4 101 118 101 136 0 5 7 14 15
21 8 7 15 22 15 34 0 11 7 30 15 40 8 11 15 30 15 42 0 12 7 24 15 28 11 4 15
21 15 64 0 33 7 79 15 102 19 54 18 218 -1 256 -8 14 -14 33 -14 40 0 8 -4 14
-10 14 -5 0 -10 7 -10 15 0 8 -9 24 -20 35 -11 11 -20 23 -20 26 0 3 -19 25
-42 50 l-41 44 -79 0 c-45 0 -78 -4 -78 -10z m-50 -214 c0 -6 16 -28 35 -49
19 -21 35 -42 35 -46 0 -5 7 -14 15 -21 8 -7 15 -20 15 -30 0 -10 7 -23 15
-30 21 -17 21 -253 0 -290 -8 -14 -14 -44 -15 -67 0 -23 -4 -44 -9 -48 -5 -3
-12 -18 -16 -35 -9 -41 -44 -110 -55 -110 -6 0 -10 -7 -10 -15 0 -8 -4 -15
-10 -15 -5 0 -10 -9 -10 -20 0 -13 -7 -20 -20 -20 -11 0 -20 -4 -20 -10 0 -5
-6 -10 -14 -10 -8 0 -22 -8 -32 -17 -13 -13 -39 -18 -110 -21 -102 -5 -135 1
-116 20 7 7 12 31 12 54 0 23 5 44 11 46 6 2 14 28 17 57 3 31 10 55 18 58 8
3 14 19 14 38 0 18 7 46 15 61 8 16 15 43 15 60 0 18 7 45 15 60 8 16 15 50
15 75 0 29 6 51 15 59 10 9 15 32 15 75 0 42 5 66 14 75 8 6 13 17 10 24 -3 8
2 20 10 29 9 9 16 21 16 27 0 7 9 22 21 34 16 16 30 21 55 18 19 -2 34 -9 34
-16z"/>
<path d="M5090 2960 c0 -5 -9 -10 -20 -10 -10 0 -23 -6 -27 -13 -4 -7 -25 -23
-45 -37 -21 -14 -38 -31 -38 -37 0 -7 -6 -13 -13 -13 -7 0 -26 -21 -43 -47
-16 -26 -39 -58 -51 -72 -39 -45 -43 -50 -43 -58 0 -5 -8 -16 -17 -25 -10 -9
-22 -23 -28 -30 -27 -36 -90 -114 -96 -118 -3 -3 -9 -14 -13 -26 -3 -12 -20
-34 -36 -50 -16 -16 -30 -34 -30 -40 0 -6 -19 -32 -42 -57 -58 -63 -68 -75
-68 -84 0 -5 -13 -20 -29 -34 -15 -14 -31 -35 -35 -47 -4 -12 -12 -22 -17 -22
-10 0 -13 -43 -3 -53 6 -6 48 17 72 40 7 7 19 13 26 13 19 0 186 167 186 186
0 6 10 17 84 98 20 21 36 43 36 49 0 6 7 17 15 26 43 47 52 59 61 77 16 34 17
-265 0 -328 -9 -37 -15 -114 -16 -227 -1 -144 2 -172 14 -177 9 -3 23 1 31 10
9 9 23 16 31 16 8 0 14 5 14 10 0 6 7 10 15 10 8 0 36 22 62 49 87 88 83 73
83 278 0 135 4 193 14 217 10 24 11 37 3 45 -7 7 -7 21 1 49 7 24 11 114 11
240 l-1 202 -24 0 c-13 0 -24 -4 -24 -10z"/>
<path d="M35176 2882 c-20 -4 -37 -16 -64 -44 -9 -10 -21 -18 -27 -18 -14 0
-75 -65 -75 -79 0 -6 -7 -11 -15 -11 -8 0 -15 -9 -15 -19 0 -10 -7 -21 -15
-25 -9 -3 -15 -18 -15 -36 0 -16 -4 -30 -10 -30 -5 0 -12 -16 -16 -35 -3 -19
-12 -39 -20 -46 -8 -6 -14 -20 -14 -31 0 -11 -7 -26 -15 -34 -8 -9 -15 -26
-15 -39 0 -13 -5 -25 -10 -27 -6 -2 -13 -21 -17 -43 -3 -22 -12 -44 -20 -48
-7 -4 -13 -21 -13 -37 0 -17 -4 -30 -10 -30 -5 0 -13 -18 -16 -40 -4 -22 -10
-40 -15 -40 -5 0 -9 -5 -9 -11 0 -14 -42 -102 -52 -109 -3 -3 -10 -18 -13 -33
-4 -15 -11 -27 -15 -27 -5 0 -11 -13 -15 -30 -4 -16 -10 -30 -15 -30 -5 0 -11
-13 -15 -30 -4 -16 -10 -30 -15 -30 -4 0 -11 -16 -14 -35 -4 -19 -11 -35 -16
-35 -5 0 -12 -10 -16 -22 -3 -12 -13 -28 -20 -36 -8 -7 -14 -22 -14 -33 0 -10
-4 -19 -9 -19 -5 0 -13 -14 -16 -32 -4 -17 -14 -38 -21 -46 -8 -7 -14 -22 -14
-31 0 -10 -7 -24 -15 -31 -9 -7 -15 -29 -15 -54 0 -23 -5 -47 -12 -54 -8 -8
-14 -80 -19 -214 -4 -112 -10 -212 -14 -223 -7 -22 9 -61 55 -140 l29 -50 52
1 c32 0 54 5 57 12 2 7 10 12 17 12 7 0 30 16 49 35 20 19 41 35 46 35 6 0 10
7 10 15 0 8 9 19 20 25 18 10 20 21 20 105 l0 95 -29 0 c-16 0 -36 -7 -45 -15
-8 -8 -22 -15 -30 -15 -18 0 -20 30 -9 95 l8 40 6 -45 c4 -26 7 18 7 105 1
309 1 305 17 305 11 0 15 11 15 41 0 23 7 47 15 55 8 9 15 24 15 35 0 10 5 19
10 19 6 0 10 11 10 23 0 13 9 34 20 47 11 13 20 31 20 41 0 9 4 19 8 21 11 4
52 86 52 103 0 8 4 15 10 15 5 0 12 11 16 25 3 14 10 25 15 25 5 0 9 6 9 13 0
7 9 29 20 50 11 20 20 44 20 52 0 8 4 15 10 15 5 0 12 11 16 25 3 14 10 25 15
25 4 0 11 16 15 35 3 19 12 39 20 46 8 6 14 23 14 38 0 14 7 35 15 45 8 11 15
30 15 43 0 13 4 23 9 23 5 0 12 16 16 36 3 20 13 43 21 51 8 8 14 25 14 38 0
12 7 25 15 29 9 3 15 18 15 36 0 16 4 30 9 30 5 0 12 18 16 39 4 22 13 42 21
45 8 3 14 16 14 30 0 13 7 26 15 30 16 6 11 32 -8 38 -7 3 -21 2 -31 0z"/>
<path d="M12253 2852 c-13 -2 -23 -8 -23 -13 0 -5 -7 -9 -15 -9 -7 0 -18 -7
-23 -16 -6 -11 -28 -16 -86 -18 -43 -1 -81 -7 -84 -13 -4 -7 -80 -12 -199 -15
-133 -2 -197 -8 -205 -16 -7 -7 -30 -12 -53 -12 -22 0 -49 -6 -60 -14 -32 -22
-120 -29 -135 -11 -14 17 -40 20 -40 5 0 -5 -11 -10 -24 -10 -14 0 -31 -7 -40
-15 -8 -8 -19 -15 -24 -15 -5 0 -17 -9 -27 -20 -10 -11 -23 -20 -29 -20 -6 -1
-22 -14 -36 -30 -13 -17 -30 -30 -37 -30 -7 0 -13 -7 -13 -15 0 -8 -4 -15 -10
-15 -5 0 -10 -6 -10 -14 0 -7 -7 -19 -15 -26 -23 -19 -18 -40 10 -40 14 0 25
4 25 9 0 5 43 12 95 16 52 4 97 11 101 16 3 5 22 9 42 9 20 0 50 7 65 15 20
10 68 15 179 16 104 0 158 5 172 14 12 7 70 15 136 19 63 3 116 10 118 16 2 5
20 10 41 10 24 0 42 7 54 20 9 11 24 20 33 20 27 0 144 113 144 140 0 11 5 20
10 20 15 0 12 37 -2 42 -7 2 -23 2 -35 0z"/>
<path d="M24810 2840 c0 -5 -7 -10 -16 -10 -9 0 -31 -15 -50 -32 -19 -18 -38
-33 -43 -33 -9 0 -41 -31 -41 -40 0 -3 -13 -18 -29 -33 l-28 -27 -6 -193 c-4
-125 -10 -198 -17 -207 -13 -16 -11 -123 3 -142 5 -7 0 -14 -15 -18 -12 -4
-28 -14 -36 -21 -7 -8 -19 -14 -27 -14 -7 0 -15 -7 -19 -15 -3 -8 -13 -15 -23
-15 -10 0 -31 -14 -47 -30 -16 -17 -37 -30 -46 -30 -9 0 -23 -11 -30 -25 -8
-14 -24 -28 -37 -31 -13 -4 -23 -10 -23 -15 0 -5 -7 -9 -15 -9 -8 0 -15 -7
-15 -16 0 -9 -9 -18 -20 -21 -11 -3 -20 -9 -20 -14 0 -5 -5 -9 -11 -9 -6 0
-21 -13 -35 -29 -14 -17 -34 -33 -44 -36 -11 -4 -23 -17 -26 -30 -3 -13 -12
-29 -20 -36 -11 -9 -14 -40 -14 -128 0 -79 -4 -121 -12 -129 -10 -10 -6 -19
19 -42 18 -17 39 -30 47 -30 9 0 16 -4 16 -10 0 -5 11 -12 25 -16 14 -3 25
-10 25 -14 0 -18 69 -50 108 -50 22 0 44 -4 47 -10 3 -5 27 -10 53 -10 26 0
57 -3 70 -6 24 -7 31 -24 9 -24 -10 0 -14 -24 -16 -92 -2 -63 -7 -98 -17 -109
-8 -8 -14 -28 -14 -42 0 -22 5 -27 25 -27 14 0 25 5 25 10 0 6 6 10 14 10 7 0
29 13 47 30 19 16 37 30 41 30 13 0 89 88 109 124 10 20 19 47 19 61 0 17 6
25 18 25 9 0 31 9 47 20 17 11 40 20 53 20 12 0 22 4 22 9 0 5 13 12 29 16 16
3 32 13 35 21 3 8 12 14 21 14 8 0 15 4 15 9 0 5 11 12 25 15 14 4 25 11 25
16 0 6 7 10 15 10 8 0 15 7 15 15 0 9 8 19 18 22 9 4 26 16 37 27 11 12 33 29
48 39 16 10 36 32 45 48 10 16 23 29 30 29 6 0 12 5 12 11 0 6 7 17 15 25 11
12 15 40 15 117 0 56 5 120 10 141 7 31 5 46 -7 66 -15 27 -94 70 -126 70 -10
0 -20 7 -23 15 -5 12 -29 15 -131 15 -107 0 -124 2 -119 15 4 11 -2 15 -24 15
-30 0 -41 15 -18 22 9 3 14 49 19 156 3 90 10 156 17 164 8 10 11 74 11 197 0
121 4 187 11 197 7 7 9 18 5 24 -8 13 -55 13 -55 0z m-269 -940 c4 -56 -4
-197 -12 -206 -4 -5 -11 -54 -15 -108 -5 -68 -10 -94 -18 -86 -5 5 -20 10 -33
10 -13 0 -26 7 -29 15 -4 8 -10 15 -15 15 -11 0 -32 16 -57 43 -9 9 -24 17
-34 17 -21 0 -20 -6 -23 127 l-3 102 42 22 c22 11 45 27 49 35 4 8 15 14 22
14 8 0 15 5 15 10 0 6 23 9 55 8 41 -2 55 -6 56 -18z m239 -57 c0 -5 24 -9 53
-11 31 -2 57 -9 63 -17 6 -8 23 -15 38 -15 16 0 26 -6 26 -14 0 -8 14 -17 30
-21 32 -7 41 -32 15 -41 -12 -5 -15 -24 -15 -85 0 -64 3 -79 15 -79 8 0 15 -4
15 -10 0 -5 -7 -10 -16 -10 -8 0 -12 -5 -9 -10 4 -6 -7 -15 -24 -21 -17 -6
-31 -15 -31 -20 0 -5 -49 -9 -108 -9 l-108 0 4 73 c2 39 9 78 15 86 6 7 13 58
15 112 3 55 8 99 13 99 5 0 9 -3 9 -7z"/>
<path d="M13736 2722 c-3 -5 -23 -12 -45 -15 -22 -3 -47 -11 -55 -19 -8 -7
-29 -24 -47 -38 -51 -39 -105 -93 -112 -112 -8 -22 -27 -24 -27 -3 0 8 -7 15
-15 15 -14 0 -19 12 -16 33 0 4 -12 7 -28 7 -16 0 -34 7 -42 16 -11 14 -39 15
-206 12 -127 -2 -196 -7 -201 -14 -4 -6 -38 -14 -76 -17 -38 -2 -71 -10 -75
-15 -4 -6 -26 -14 -49 -18 -23 -4 -45 -11 -48 -15 -3 -5 -13 -9 -23 -9 -10 0
-28 -9 -41 -20 -13 -11 -31 -20 -42 -20 -10 0 -18 -4 -18 -10 0 -5 -7 -10 -15
-10 -8 0 -23 -9 -32 -20 -10 -11 -21 -20 -26 -20 -9 0 -25 -13 -70 -57 -57
-57 -67 -75 -67 -125 l0 -48 35 0 c19 0 35 5 35 10 0 6 8 10 19 10 10 0 34 13
52 30 19 16 42 32 51 35 9 3 20 14 23 25 3 10 12 21 20 24 8 3 15 12 15 20 0
9 14 15 40 18 39 3 51 -4 29 -17 -5 -4 -14 -18 -20 -32 -5 -13 -13 -21 -19
-18 -6 4 -10 -8 -10 -28 0 -22 6 -37 15 -41 8 -3 15 -14 15 -23 0 -10 7 -28
15 -40 8 -11 15 -46 16 -76 1 -31 6 -54 11 -51 12 8 16 -11 22 -118 3 -53 11
-109 16 -123 12 -32 13 -125 2 -125 -5 0 -19 -20 -31 -45 -12 -25 -28 -45 -36
-45 -7 0 -15 -5 -17 -10 -2 -6 -27 -12 -56 -14 -30 -1 -57 -7 -60 -13 -4 -6
-21 -14 -38 -17 -18 -4 -45 -20 -60 -36 -16 -16 -32 -30 -37 -30 -14 0 -77
-63 -77 -77 0 -7 -4 -13 -9 -13 -19 0 -20 -31 -1 -50 20 -20 20 -21 3 -45 -10
-13 -22 -25 -28 -25 -5 -1 -19 -12 -30 -26 -11 -14 -29 -36 -40 -49 -57 -65
-65 -76 -65 -83 0 -4 -9 -15 -20 -25 -11 -9 -20 -24 -20 -32 0 -8 -4 -15 -10
-15 -5 0 -10 -13 -10 -30 0 -30 21 -42 35 -20 3 6 15 10 25 10 10 0 23 6 27
13 4 8 24 24 43 38 19 13 66 57 105 97 38 39 74 72 78 72 5 0 15 7 23 15 17
17 44 20 44 6 0 -6 -4 -13 -10 -16 -20 -12 -10 -35 14 -35 25 0 86 30 86 42 0
4 20 17 45 29 25 12 45 26 45 29 0 4 36 10 80 13 45 3 86 10 93 15 7 5 27 13
45 17 17 3 32 10 32 15 0 5 29 12 65 15 36 4 68 11 71 16 3 5 29 9 59 9 32 0
59 5 67 14 8 7 38 17 66 21 29 4 52 11 52 16 0 5 7 9 15 9 8 0 23 9 32 20 10
11 26 20 36 20 18 0 35 11 65 43 9 9 22 17 29 17 7 0 13 4 13 10 0 5 11 12 25
16 14 3 25 12 25 20 0 8 4 14 8 14 14 0 107 94 131 133 22 36 23 44 19 190 -4
127 -8 157 -24 184 -10 18 -22 33 -26 33 -5 0 -8 27 -8 59 0 43 -4 60 -15 65
-9 3 -15 18 -15 35 0 23 -4 29 -15 25 -9 -4 -15 0 -15 9 0 8 7 20 15 27 8 7
15 19 15 26 0 8 4 14 8 14 4 0 13 12 20 28 26 55 37 72 49 72 7 0 13 9 13 19
0 11 6 22 13 25 10 5 10 7 0 12 -15 7 -17 34 -3 34 6 0 10 5 10 12 0 6 14 23
30 38 35 31 46 82 18 88 -9 2 -19 -1 -22 -6z m-574 -340 c14 -9 38 -31 52 -47
15 -17 33 -37 41 -46 22 -23 13 -39 -69 -123 -93 -97 -186 -200 -197 -217 -6
-11 -9 -10 -14 3 -9 22 3 40 18 31 7 -3 4 3 -5 14 -14 15 -18 38 -18 94 -1 41
-7 92 -15 114 -8 22 -15 59 -15 81 0 23 -6 47 -14 53 -8 6 -16 23 -19 36 l-4
25 116 0 c94 0 121 -3 143 -18z m202 -293 c10 -12 20 -45 23 -77 5 -46 33
-129 33 -97 0 6 3 6 9 0 6 -6 11 -73 12 -150 l1 -140 -36 -3 c-20 -2 -36 -7
-36 -13 0 -5 -24 -9 -54 -9 -34 0 -60 -5 -69 -14 -7 -8 -44 -17 -80 -21 -37
-4 -67 -11 -67 -16 0 -5 -10 -9 -22 -9 -13 0 -36 -7 -52 -15 -28 -15 -155 -40
-163 -32 -2 2 7 11 19 19 77 51 107 101 113 185 3 46 9 69 19 75 9 5 16 16 16
23 0 8 3 15 8 15 4 0 16 16 26 35 11 20 39 56 63 81 24 25 43 50 43 55 0 5 7
9 15 9 18 0 28 7 93 71 26 25 52 47 57 48 6 0 19 -8 29 -20z"/>
<path d="M29310 2691 c0 -6 -11 -11 -25 -11 -14 0 -28 -7 -31 -15 -3 -8 -15
-17 -25 -20 -20 -7 -99 -81 -137 -130 -13 -16 -22 -42 -22 -62 0 -21 -6 -36
-15 -39 -11 -5 -15 -22 -15 -69 0 -36 -6 -75 -15 -91 -8 -16 -15 -52 -15 -80
0 -27 -4 -54 -9 -60 -6 -5 -13 -40 -16 -79 -8 -87 -13 -104 -24 -86 -5 7 -9
-47 -10 -120 -2 -132 -5 -154 -21 -144 -4 3 -9 -52 -9 -121 -1 -89 -6 -135
-16 -155 -12 -22 -15 -77 -15 -267 0 -194 -3 -242 -15 -258 -8 -10 -15 -31
-15 -46 0 -16 -4 -28 -10 -28 -14 0 -12 -67 2 -76 6 -4 14 -2 16 4 2 7 15 12
28 12 14 0 38 14 57 33 17 17 44 38 60 46 15 8 27 19 27 25 0 7 8 19 18 28 38
35 52 63 52 106 0 24 5 53 12 65 6 12 12 36 12 54 l1 32 150 5 c98 2 150 7
153 15 2 6 19 11 37 11 19 0 40 6 47 14 8 7 34 17 59 21 24 4 49 11 54 15 6 4
25 11 43 15 17 3 32 10 32 15 0 4 27 11 60 15 33 4 60 11 60 15 0 4 11 11 25
14 14 4 25 10 25 15 0 5 20 20 45 32 25 12 45 28 45 36 0 7 4 13 9 13 5 0 35
25 66 55 31 30 60 55 65 55 6 0 10 5 10 11 0 7 16 27 35 46 19 19 35 40 35 48
0 8 4 15 10 15 5 0 13 18 16 40 4 22 13 45 20 51 8 6 14 19 14 28 0 9 7 25 15
35 22 29 21 238 0 256 -8 7 -15 21 -15 31 0 10 -13 34 -30 52 -16 19 -30 37
-30 40 0 3 -33 41 -74 84 -41 43 -87 93 -104 111 l-30 32 -177 0 c-98 0 -206
5 -241 12 -47 8 -70 9 -86 0 -13 -6 -33 -14 -45 -17 -13 -4 -23 -11 -23 -16 0
-5 -6 -9 -14 -9 -7 0 -16 -9 -19 -20 -3 -11 -14 -20 -25 -20 -19 0 -72 -58
-72 -78 0 -5 -6 -15 -14 -22 -8 -6 -12 -18 -9 -26 6 -17 35 -18 50 -3 8 8 47
10 130 5 149 -8 142 -8 181 0 43 9 42 -10 -3 -32 -19 -9 -35 -19 -35 -23 0 -4
-13 -21 -29 -37 l-29 -30 -4 -249 c-3 -146 -8 -249 -14 -248 -5 1 -10 -11 -11
-25 0 -15 -6 -28 -12 -30 -14 -5 -14 -39 -1 -47 16 -10 1 -25 -26 -25 -13 0
-24 -4 -24 -10 0 -6 -28 -10 -64 -10 -43 0 -67 -5 -75 -14 -7 -8 -26 -18 -43
-21 -17 -4 -49 -25 -70 -46 -22 -22 -45 -39 -51 -38 -8 0 -8 2 1 6 9 3 12 38
12 127 0 86 4 127 14 141 9 14 14 58 15 139 1 65 7 128 13 140 6 11 13 75 16
141 2 66 8 125 13 130 4 6 11 42 15 80 4 39 13 79 20 90 8 11 14 45 14 76 0
46 3 58 18 62 16 4 16 5 0 6 -22 1 -24 21 -3 21 8 0 15 7 15 16 0 8 7 22 15
30 10 10 15 35 15 75 0 35 4 59 11 59 14 0 7 52 -8 58 -7 2 -13 -1 -13 -7z
m484 -553 c3 -13 37 -56 76 -96 38 -40 70 -76 70 -80 1 -4 14 -18 30 -32 17
-13 30 -34 30 -46 0 -12 7 -24 15 -28 12 -4 15 -27 15 -119 0 -90 -3 -117 -15
-127 -8 -7 -15 -23 -15 -36 0 -13 -4 -24 -9 -24 -5 0 -12 -16 -15 -35 -4 -19
-12 -36 -19 -36 -7 -1 -23 -3 -37 -4 -13 -1 -26 -8 -28 -14 -2 -6 -16 -11 -32
-11 -16 0 -35 -6 -43 -14 -8 -8 -35 -17 -60 -21 -26 -4 -47 -11 -47 -15 0 -4
-11 -10 -25 -12 -35 -7 -31 4 15 43 22 19 40 41 40 50 0 9 3 19 8 23 4 4 8 76
9 159 1 84 4 195 7 247 3 52 5 130 5 173 1 75 13 100 25 55z"/>
<path d="M9720 2631 c0 -5 -13 -12 -30 -16 -16 -4 -30 -11 -30 -16 0 -5 -6 -9
-14 -9 -8 0 -42 -27 -75 -61 l-61 -61 0 -109 c0 -87 -3 -109 -14 -109 -8 0
-16 -4 -18 -9 -1 -5 -12 -11 -23 -13 -23 -4 -25 14 -13 130 6 56 5 78 -4 83
-9 6 -4 15 15 35 26 25 57 78 57 96 0 11 -57 10 -64 -1 -4 -5 -24 -12 -45 -16
-22 -4 -42 -14 -45 -22 -4 -9 -9 -14 -11 -11 -3 3 2 19 11 36 8 18 13 36 9 42
-8 13 -45 13 -45 0 0 -5 -14 -10 -30 -10 -18 0 -33 -6 -36 -15 -3 -8 -26 -17
-50 -21 -24 -3 -44 -10 -44 -15 0 -5 -5 -9 -11 -9 -15 0 -79 -59 -133 -121 -9
-11 -16 -29 -16 -41 -1 -19 -2 -20 -10 -7 -5 8 -10 55 -11 105 -1 49 -4 95 -6
102 -6 14 -63 17 -63 3 0 -5 -11 -12 -25 -15 -14 -4 -25 -11 -25 -16 0 -6 -5
-10 -12 -10 -6 0 -20 -8 -30 -17 -48 -44 -78 -78 -78 -88 0 -15 -46 -55 -63
-55 -8 0 -17 -7 -21 -15 -3 -8 -12 -15 -21 -15 -8 0 -15 -7 -15 -15 0 -8 -4
-15 -8 -15 -5 0 -22 -13 -38 -30 -16 -16 -34 -30 -41 -30 -6 0 -13 -5 -15 -11
-4 -11 -546 -14 -557 -4 -2 3 -5 22 -5 44 -1 25 -5 37 -13 34 -8 -3 -13 13
-15 54 -3 57 -3 58 -35 61 -19 2 -33 -1 -33 -7 0 -6 -7 -11 -15 -11 -8 0 -29
-16 -48 -35 -19 -19 -37 -35 -40 -35 -11 0 -47 -34 -47 -43 0 -5 -7 -15 -15
-23 -21 -21 -19 -80 3 -93 16 -10 16 -10 -1 -11 -10 0 -15 -5 -12 -10 3 -6 -4
-14 -17 -20 -30 -12 -68 -45 -68 -59 0 -6 -8 -11 -18 -11 -11 0 -27 -14 -38
-35 -10 -19 -24 -35 -31 -35 -7 0 -13 -11 -13 -25 0 -20 5 -25 24 -25 14 0 31
6 39 14 20 21 106 58 117 51 6 -3 10 1 10 9 0 9 5 16 10 16 6 0 10 -7 10 -15
0 -8 4 -15 8 -15 11 0 33 -70 26 -82 -3 -4 -12 -8 -20 -8 -8 0 -14 -4 -14 -10
0 -5 -6 -10 -14 -10 -8 0 -21 -6 -28 -13 -7 -7 -24 -18 -38 -25 -37 -18 -61
-34 -91 -62 -15 -14 -40 -36 -54 -50 -30 -27 -45 -58 -38 -77 6 -15 43 -17 43
-3 0 6 9 10 20 10 10 0 23 7 28 15 4 9 26 18 48 20 21 3 41 10 42 15 2 6 11
10 20 10 10 0 30 7 46 15 55 29 54 36 48 -242 -2 -157 -8 -263 -15 -271 -7 -9
-7 -16 0 -23 8 -8 13 -7 17 0 4 6 17 11 30 11 22 0 55 20 84 53 9 9 20 17 25
17 12 0 77 66 77 79 0 6 7 11 15 11 16 0 17 10 15 238 l-1 122 110 0 c67 0
111 4 111 10 0 6 8 10 19 10 10 0 21 9 24 20 3 12 14 20 26 20 12 0 21 4 21 9
0 5 9 13 20 16 11 3 20 13 20 21 0 8 6 14 14 14 8 0 18 9 21 20 3 11 10 20 14
20 4 0 13 12 20 27 16 34 0 53 -29 35 -14 -8 -76 -12 -205 -12 l-185 0 0 24 0
24 178 4 c182 4 218 12 252 53 7 8 18 15 25 15 7 0 15 7 19 15 3 8 14 15 25
15 10 0 21 7 25 15 3 8 11 15 18 15 7 1 24 14 38 30 13 17 28 30 32 30 10 0
61 44 100 85 22 23 28 26 28 12 0 -10 -7 -20 -15 -23 -8 -4 -15 -13 -15 -20 0
-8 -7 -17 -15 -20 -11 -5 -15 -21 -15 -59 0 -34 5 -59 15 -69 8 -8 15 -19 15
-25 0 -6 4 -11 9 -11 5 0 13 -9 16 -20 3 -11 13 -20 21 -20 20 0 20 -125 0
-137 -15 -9 -27 -126 -14 -139 8 -7 80 25 86 39 2 4 8 7 13 7 16 0 108 74 108
87 1 7 10 17 21 23 11 6 20 19 20 30 0 10 5 22 10 25 6 4 8 16 5 27 -5 14 -1
21 13 25 12 3 23 11 26 19 3 8 12 14 21 14 16 0 34 12 63 43 9 9 22 17 28 17
7 0 14 4 16 9 2 4 14 12 26 16 20 6 23 4 20 -12 -2 -10 -9 -17 -14 -16 -8 1
-10 -40 -5 -109 1 -11 41 -10 41 1 0 5 18 11 40 15 22 3 40 11 40 16 0 6 11
10 23 10 13 0 34 9 47 20 13 11 29 20 37 20 7 0 13 4 13 9 0 5 13 12 29 16 16
3 40 19 55 36 14 16 33 29 41 29 8 0 15 5 15 10 0 6 7 10 15 10 8 0 15 9 15
20 0 12 7 20 16 20 17 0 44 23 44 37 0 5 8 16 18 25 39 39 49 55 55 88 4 19
11 55 16 80 14 63 13 154 -1 168 -14 14 -28 16 -28 3z"/>
<path d="M16595 2570 c-3 -5 -15 -10 -26 -10 -11 0 -22 -7 -25 -15 -4 -8 -11
-15 -18 -15 -19 0 -76 -48 -126 -107 -15 -18 -16 -24 -35 -423 -8 -171 -12
-200 -30 -200 -9 0 -15 -10 -15 -24 0 -13 -6 -27 -12 -29 -10 -4 -10 -8 1 -16
11 -7 18 -5 28 7 15 20 15 22 13 -98 -1 -52 -5 -97 -9 -100 -4 -3 -10 -13 -14
-22 -3 -10 -13 -18 -22 -18 -8 0 -15 -6 -15 -14 0 -7 -7 -27 -15 -42 -16 -29
-13 -90 6 -125 11 -22 46 -30 62 -14 7 7 23 16 35 19 12 4 22 11 22 16 0 5 10
12 22 16 26 8 42 22 51 47 3 9 11 17 17 17 15 0 50 33 50 46 0 7 5 14 12 16 7
3 13 38 16 99 3 57 10 102 18 114 17 24 18 107 2 123 -9 9 -7 12 10 12 15 0
22 -6 22 -20 0 -11 7 -23 15 -26 8 -4 15 -13 15 -21 0 -8 7 -21 15 -29 8 -9
15 -24 15 -33 0 -10 7 -24 15 -31 9 -7 15 -29 15 -51 0 -21 5 -41 10 -44 13
-8 13 -51 -1 -90 -7 -19 -9 -47 -5 -70 l7 -37 42 6 c23 4 44 11 47 15 3 4 17
11 32 15 15 3 41 20 58 36 17 17 35 30 40 30 15 0 12 -40 -2 -40 -25 -1 38
-29 65 -30 15 0 30 -7 33 -15 4 -8 16 -15 29 -15 12 0 28 -7 35 -15 9 -11 33
-15 85 -15 54 0 76 -4 86 -16 11 -13 30 -15 107 -12 51 2 96 9 100 14 4 6 24
14 44 17 37 6 54 15 86 50 9 9 22 17 29 17 7 0 21 8 31 18 21 19 70 60 101 82
12 8 21 19 21 24 0 6 15 24 34 41 34 30 54 79 37 90 -5 3 -12 1 -16 -5 -3 -5
-14 -10 -24 -10 -18 0 -36 -12 -99 -67 -20 -18 -43 -33 -49 -33 -7 0 -13 -4
-13 -10 0 -16 -201 -12 -250 5 -23 8 -55 15 -70 15 -15 0 -33 7 -40 15 -7 8
-21 15 -32 15 -14 0 -18 5 -14 15 4 11 -2 15 -24 15 l-30 0 0 86 c0 104 7 114
83 114 40 0 60 5 77 20 13 11 28 20 33 20 6 0 28 18 49 40 22 22 43 40 47 40
6 0 20 23 38 62 2 3 -4 14 -13 22 -20 20 -92 21 -130 1 -16 -8 -43 -15 -60
-15 -17 0 -41 -9 -54 -20 -13 -11 -27 -20 -32 -20 -4 0 -8 -7 -8 -15 0 -8 -7
-15 -16 -15 -18 0 -37 -17 -47 -42 -3 -10 -13 -18 -22 -18 -8 0 -15 -4 -15
-10 0 -5 -7 -10 -15 -10 -8 0 -15 -7 -15 -15 0 -8 -4 -15 -10 -15 -5 0 -10 -6
-10 -13 0 -7 -8 -20 -17 -29 -28 -25 -53 -61 -53 -75 0 -7 -4 -13 -10 -13 -5
0 -12 -11 -16 -25 -12 -47 -21 -25 -21 50 -1 52 -6 83 -17 100 -9 13 -16 32
-16 41 0 17 -31 77 -42 82 -4 2 -17 21 -30 43 -16 29 -30 40 -54 45 -37 7 -94
-3 -94 -17 0 -5 -9 -9 -19 -9 -11 0 -26 -6 -34 -14 -7 -8 -24 -16 -36 -18
l-23 -3 2 155 c0 85 5 173 10 195 12 52 13 232 1 240 -5 3 -12 1 -16 -5z"/>
<path d="M14900 2540 c-8 -5 -29 -10 -45 -10 -18 0 -38 -8 -48 -20 -9 -11 -24
-20 -32 -20 -18 0 -25 -5 -99 -76 -65 -63 -89 -104 -70 -122 7 -7 17 -12 22
-12 5 0 10 -41 10 -92 0 -73 3 -94 16 -103 9 -7 16 -25 16 -41 0 -16 7 -42 15
-57 11 -21 15 -73 15 -222 2 -227 3 -225 -85 -225 l-56 0 3 321 3 320 -35 -6
c-19 -4 -43 -15 -53 -26 -10 -10 -22 -19 -28 -19 -5 0 -26 -16 -46 -35 -20
-19 -39 -35 -44 -35 -4 0 -16 -18 -28 -40 -19 -37 -20 -54 -18 -245 l3 -205
-49 0 c-40 0 -48 3 -43 15 4 11 -1 15 -19 15 -15 0 -26 7 -30 20 -3 11 -13 27
-22 36 -23 22 -21 378 2 401 8 8 15 23 15 34 0 10 4 19 9 19 5 0 12 13 16 30
4 16 11 32 16 35 14 9 11 45 -4 45 -20 0 -77 -30 -77 -41 0 -5 -11 -11 -25
-15 -14 -3 -25 -10 -25 -15 0 -5 -7 -9 -15 -9 -8 0 -15 -6 -15 -13 0 -7 -13
-24 -29 -38 -30 -26 -71 -94 -71 -117 0 -7 -7 -15 -15 -18 -8 -4 -15 -14 -15
-23 0 -9 -7 -25 -15 -35 -12 -16 -15 -56 -15 -187 0 -101 -4 -178 -11 -192
-12 -27 2 -67 24 -67 7 0 25 -16 40 -35 20 -25 36 -35 55 -35 16 0 33 -5 39
-11 6 -6 69 -13 142 -16 l131 -6 0 -117 c0 -89 -3 -120 -14 -129 -10 -8 -14
-30 -13 -69 2 -54 3 -57 29 -60 30 -4 71 19 108 60 13 16 28 28 33 28 12 0 32
21 40 43 3 9 13 17 22 17 8 0 15 5 15 11 0 6 7 17 16 26 12 13 15 34 12 104
-2 66 0 89 10 89 6 0 20 8 30 18 10 9 32 25 49 34 17 10 46 33 65 50 19 18 64
62 101 96 36 35 69 72 72 82 3 10 12 21 20 24 8 3 15 14 15 25 0 10 7 21 15
25 13 5 15 40 15 236 0 174 -3 229 -12 228 -7 -2 -15 14 -19 37 -7 42 -27 100
-44 125 -10 17 -14 100 -4 100 4 0 10 11 13 25 4 14 13 25 20 25 15 0 29 50
18 62 -4 4 -14 3 -22 -2z"/>
<path d="M26625 2510 c-3 -5 -15 -10 -25 -10 -11 0 -34 -16 -53 -35 -19 -19
-37 -35 -41 -35 -11 0 -36 -27 -36 -39 0 -5 -9 -16 -21 -25 -20 -13 -21 -21
-17 -170 2 -107 7 -159 16 -168 7 -7 12 -42 12 -94 0 -64 3 -83 15 -88 11 -4
15 -20 15 -54 0 -27 7 -69 15 -92 12 -33 15 -93 15 -266 0 -204 1 -223 18
-226 25 -6 89 31 137 80 23 23 46 42 51 42 26 0 45 62 47 150 2 70 5 89 15 85
8 -3 19 -5 25 -5 11 0 19 -32 18 -70 0 -8 -2 -83 -5 -166 -4 -161 1 -187 32
-168 10 6 37 15 60 19 23 4 42 11 42 16 0 5 8 9 18 9 11 0 29 9 42 20 13 11
31 20 42 20 10 0 18 5 18 10 0 16 30 12 36 -5 4 -8 13 -15 21 -15 9 0 22 -8
29 -17 10 -15 30 -18 130 -19 78 -1 119 -5 122 -12 2 -8 11 -8 30 2 15 7 42
17 61 21 19 4 39 11 45 16 105 85 176 159 176 182 0 6 7 15 17 22 21 16 10 45
-17 45 -11 0 -20 -4 -20 -10 0 -5 -8 -10 -18 -10 -10 0 -25 -9 -35 -20 -9 -11
-24 -20 -32 -20 -8 0 -15 -4 -15 -10 0 -6 -39 -9 -96 -9 -79 0 -95 3 -90 15 3
9 -1 14 -13 14 -10 0 -24 7 -31 15 -7 8 -26 15 -42 15 l-29 0 2 85 c1 61 5 85
14 85 7 0 13 6 12 13 -1 33 4 47 18 47 8 0 15 7 15 15 0 8 5 15 10 15 6 0 10
-7 10 -15 0 -20 63 -20 80 0 7 8 27 17 46 21 19 3 47 19 62 35 15 16 30 29 34
29 13 0 46 37 53 59 3 12 11 21 16 21 5 0 9 11 9 25 0 27 -31 48 -38 27 -2 -8
-34 -12 -96 -12 -73 0 -99 -4 -117 -17 -39 -29 -63 -43 -81 -49 -10 -4 -18
-13 -18 -20 0 -8 -4 -14 -8 -14 -9 0 -112 -97 -112 -105 0 -3 -16 -20 -35 -38
-19 -17 -35 -38 -35 -44 0 -7 -4 -13 -9 -13 -5 0 -12 -12 -16 -27 -3 -15 -13
-32 -20 -37 -10 -7 -16 -35 -17 -78 -2 -38 -7 -68 -11 -68 -4 0 -7 79 -6 176
1 165 0 177 -20 195 -11 10 -32 19 -46 19 -16 0 -25 6 -25 15 0 21 -105 21
-117 1 -5 -8 -27 -16 -53 -17 l-45 -3 3 32 c2 17 -4 42 -12 54 -9 13 -16 43
-16 73 0 27 -7 63 -15 79 -9 16 -15 55 -15 89 0 40 -5 66 -15 77 -12 14 -17
51 -20 171 -2 85 -4 157 -4 162 -1 11 -39 9 -46 -3z"/>
<path d="M7141 2499 c-25 -5 -47 -13 -50 -17 -3 -5 -16 -12 -28 -16 -13 -4
-23 -12 -23 -17 0 -5 -114 -9 -280 -9 -219 0 -281 3 -279 13 3 27 -2 37 -21
37 -11 0 -20 -4 -20 -10 0 -5 -9 -10 -20 -10 -11 0 -23 -7 -26 -15 -4 -8 -11
-15 -18 -15 -6 0 -25 -13 -42 -29 -18 -17 -47 -31 -72 -36 -23 -4 -42 -11 -42
-15 0 -5 -13 -11 -30 -15 -16 -4 -30 -10 -30 -15 0 -4 -16 -11 -36 -15 -20 -3
-41 -11 -48 -16 -49 -41 -61 -49 -78 -49 -10 0 -18 -4 -18 -10 0 -5 -7 -10
-15 -10 -8 0 -15 -7 -15 -15 0 -9 -8 -19 -17 -22 -25 -9 -83 -71 -83 -89 0 -8
-7 -14 -15 -14 -22 0 -22 -118 0 -126 8 -4 21 -2 28 4 6 5 24 12 40 16 15 3
27 11 27 16 0 5 16 12 35 16 19 3 35 10 35 15 0 5 7 9 15 9 9 0 31 15 50 33
19 17 48 44 64 60 18 16 28 34 25 42 -4 10 0 15 14 15 12 0 25 6 29 14 4 8 17
16 27 18 19 3 19 -3 16 -97 -2 -55 -4 -113 -4 -130 -1 -26 -26 -65 -42 -65 -5
0 -85 -62 -110 -85 -5 -5 -13 -18 -17 -27 -3 -10 -13 -18 -22 -18 -22 0 -19
-47 4 -55 17 -5 50 2 61 14 13 15 92 52 98 46 12 -11 1 -139 -13 -158 -10 -14
-14 -71 -15 -221 0 -120 -5 -202 -10 -204 -13 -5 -13 -29 0 -37 6 -4 16 -2 23
3 7 5 27 13 45 17 17 3 32 11 32 16 0 5 5 9 11 9 6 0 29 18 51 40 22 22 44 40
49 40 4 0 11 10 15 22 4 13 13 27 20 33 10 8 14 65 16 249 2 174 6 240 15 243
7 3 9 11 6 19 -7 19 31 19 47 -1 7 -8 18 -15 24 -15 7 0 17 -15 24 -34 11 -29
16 -33 40 -28 15 2 32 9 37 16 6 6 29 20 52 31 24 11 43 25 43 30 0 13 45 55
59 55 6 0 11 6 11 14 0 8 4 16 9 18 5 2 12 18 16 36 5 25 3 32 -8 32 -8 0 -17
9 -20 20 -3 11 -16 24 -29 29 -38 14 -258 -3 -258 -20 0 -5 -10 -9 -23 -9 -21
0 -22 3 -17 58 3 38 9 56 18 54 16 -3 16 35 0 41 -39 16 30 23 185 19 161 -4
176 -3 213 17 21 12 53 21 71 21 18 0 33 5 33 10 0 6 11 10 25 10 14 0 29 8
35 20 6 11 18 20 27 20 8 0 33 18 54 40 22 22 42 40 45 40 11 0 31 26 38 48
20 71 24 68 -63 51z"/>
<path d="M20440 2450 c0 -5 -8 -10 -18 -10 -11 0 -29 -9 -42 -20 -13 -11 -27
-20 -32 -20 -20 0 -120 -101 -144 -145 -18 -35 -18 -37 -1 -49 12 -10 17 -27
17 -65 0 -37 4 -53 15 -57 8 -4 15 -12 15 -20 0 -23 34 -83 48 -84 6 0 12 -10
12 -22 1 -25 32 -68 49 -68 17 0 14 -201 -3 -235 -8 -15 -12 -34 -9 -41 3 -8
-3 -16 -13 -20 -11 -3 -27 -10 -36 -15 -10 -5 -56 -9 -103 -9 l-85 0 0 39 c0
23 5 41 13 43 9 4 12 72 12 299 l0 294 -22 3 c-13 2 -23 -1 -23 -7 0 -6 -9
-11 -20 -11 -11 0 -23 -7 -26 -15 -4 -8 -12 -15 -19 -15 -11 0 -43 -29 -120
-111 -12 -13 -15 -55 -15 -238 l0 -222 -22 7 c-13 3 -24 11 -26 15 -2 5 -17 9
-33 9 -19 0 -29 5 -29 15 0 9 -7 18 -15 21 -12 5 -15 30 -15 140 0 110 3 136
15 140 8 4 15 17 15 29 0 13 4 26 9 29 5 4 12 24 16 46 4 22 13 43 20 47 7 5
15 24 17 43 3 34 2 35 -27 32 -16 -2 -39 -12 -51 -23 -11 -10 -26 -19 -32 -19
-7 0 -12 -4 -12 -10 0 -5 -6 -10 -13 -10 -14 0 -40 -27 -50 -53 -3 -9 -13 -17
-22 -17 -8 0 -15 -5 -15 -11 0 -6 -7 -17 -15 -25 -8 -9 -15 -29 -15 -45 0 -16
-4 -29 -10 -29 -5 0 -12 -16 -16 -35 -3 -19 -12 -39 -20 -46 -8 -6 -14 -22
-14 -35 0 -13 -4 -24 -9 -24 -15 0 -20 -39 -22 -171 l-2 -125 42 -42 c31 -30
51 -42 72 -42 17 0 32 -6 35 -15 4 -9 19 -15 35 -15 18 0 29 -5 29 -14 0 -16
69 -28 112 -19 24 5 28 3 25 -15 -2 -12 -6 -25 -10 -28 -4 -4 -7 -17 -7 -29 0
-11 -4 -25 -10 -31 -5 -5 -12 -27 -14 -47 -4 -26 -15 -47 -36 -65 -16 -14 -30
-35 -30 -45 0 -10 -7 -25 -15 -33 -18 -18 -21 -129 -4 -140 11 -6 81 24 87 39
2 4 9 7 15 7 19 1 124 106 132 132 4 12 14 31 22 40 9 10 13 27 9 41 -4 16 1
28 14 40 11 9 20 26 20 36 0 11 4 22 9 25 4 3 11 20 15 38 4 22 9 29 17 21 11
-11 59 -6 59 7 0 4 16 11 36 15 33 6 79 29 94 45 6 7 88 50 95 50 14 0 2 -31
-15 -40 -11 -6 -20 -17 -20 -25 0 -8 -5 -15 -11 -15 -6 0 -9 -10 -7 -22 2 -18
9 -23 31 -21 15 1 34 9 43 17 8 9 22 16 30 16 8 0 14 4 14 9 0 5 14 12 30 16
17 4 30 11 30 16 0 5 12 12 27 15 15 4 45 24 67 46 22 21 48 40 57 43 10 3 20
19 24 35 3 16 12 34 20 40 8 6 11 18 8 26 -6 16 -39 19 -48 4 -3 -5 -19 -10
-35 -10 -16 0 -32 -5 -36 -11 -3 -6 -21 -17 -40 -25 -18 -7 -60 -36 -93 -64
-34 -28 -61 -46 -61 -41 0 6 6 14 14 18 25 14 186 171 186 181 0 6 5 12 11 14
6 2 14 28 17 58 2 31 11 58 18 63 11 6 14 35 14 114 0 90 -3 111 -21 139 -11
19 -25 34 -30 34 -5 0 -9 8 -9 19 0 10 -7 24 -15 31 -8 7 -15 18 -15 25 0 7
-7 18 -15 25 -8 7 -15 20 -15 30 0 10 -7 23 -15 30 -8 7 -15 19 -15 28 0 8 -8
21 -17 28 -17 13 -17 13 -1 14 11 0 15 5 12 14 -3 7 1 20 10 28 13 14 20 37
17 66 -1 14 -51 17 -51 2z"/>
<path d="M34656 2425 c-8 -8 -19 -15 -25 -15 -5 0 -25 -16 -44 -35 -19 -19
-37 -35 -40 -35 -12 0 -47 -34 -47 -46 0 -7 -5 -14 -11 -16 -5 -2 -13 -39 -16
-83 -3 -44 -12 -89 -19 -100 -8 -11 -14 -27 -14 -37 0 -10 -4 -18 -8 -18 -9 0
-42 -69 -42 -87 0 -5 -8 -19 -17 -31 -41 -49 -53 -67 -53 -79 0 -7 -4 -13 -10
-13 -5 0 -10 -6 -10 -13 0 -7 -12 -27 -27 -44 -16 -17 -37 -49 -48 -70 -11
-21 -32 -51 -47 -67 -16 -17 -28 -35 -28 -42 0 -7 -16 -29 -35 -50 -19 -20
-35 -41 -35 -45 0 -5 -4 -9 -10 -9 -5 0 -10 11 -10 25 0 14 -7 28 -15 31 -8 4
-15 18 -15 34 0 16 -7 30 -15 34 -9 3 -15 18 -15 39 0 19 -7 40 -15 47 -8 7
-15 27 -15 45 0 18 -7 49 -15 68 -8 20 -15 52 -15 70 0 19 -7 54 -15 77 -8 23
-15 59 -15 79 0 20 -7 45 -15 55 -8 11 -15 33 -15 48 0 16 -7 42 -15 58 -8 16
-16 50 -17 77 -1 26 -3 42 -6 35 -7 -21 -22 -13 -22 13 0 14 5 25 11 25 6 0 9
12 7 28 -3 24 -6 27 -38 24 -19 -1 -36 -7 -38 -12 -2 -6 -8 -10 -14 -10 -9 0
-57 -38 -111 -88 -17 -15 -46 -71 -60 -112 -3 -9 1 -24 9 -35 8 -10 14 -35 14
-55 0 -20 7 -45 15 -56 8 -10 15 -33 15 -50 0 -16 7 -39 15 -50 8 -10 15 -38
15 -60 0 -23 7 -58 15 -77 8 -20 15 -52 15 -72 0 -20 7 -52 15 -72 8 -19 15
-55 15 -78 0 -26 6 -48 15 -55 8 -7 15 -22 15 -34 1 -11 7 -32 15 -46 8 -14
14 -35 15 -46 0 -12 7 -27 15 -34 8 -7 15 -21 15 -31 0 -10 6 -22 14 -26 8 -5
15 -32 18 -66 3 -34 11 -65 21 -74 14 -15 19 -15 50 0 19 9 40 23 47 32 7 8
19 15 26 15 8 0 14 5 14 10 0 6 6 10 13 10 6 0 21 14 32 30 11 16 25 30 31 30
12 0 44 58 44 79 0 6 5 11 10 11 6 0 10 6 10 13 0 6 14 26 30 44 17 18 30 37
30 44 0 7 15 27 33 45 48 50 57 62 57 80 0 9 9 18 20 21 11 3 20 12 20 19 0 8
3 14 8 14 4 0 16 17 27 38 11 20 26 45 35 54 32 36 40 48 40 59 0 7 16 27 35
46 19 19 35 40 35 48 0 8 4 15 9 15 5 0 12 13 16 29 3 16 13 32 21 35 8 3 14
12 14 21 0 8 4 15 10 15 5 0 12 11 16 25 3 14 10 25 14 25 4 0 11 12 15 27 3
15 10 30 14 33 13 9 51 90 51 109 0 11 5 21 12 23 7 3 13 37 16 91 l5 87 -26
0 c-14 0 -32 -7 -41 -15z"/>
<path d="M12050 2391 c0 -5 -13 -12 -29 -16 -16 -3 -42 -19 -57 -35 -16 -16
-32 -30 -36 -30 -3 0 -26 -18 -49 -40 -24 -22 -48 -40 -55 -40 -12 0 -53 -31
-101 -77 -13 -13 -28 -23 -33 -23 -6 0 -10 -7 -10 -15 0 -8 -5 -15 -10 -15
-15 0 -90 -80 -90 -96 0 -8 -4 -14 -10 -14 -5 0 -10 -13 -10 -30 0 -23 4 -30
20 -30 11 0 20 4 20 9 0 15 28 21 52 12 21 -8 22 -10 5 -16 -16 -7 -18 -18
-17 -79 1 -39 2 -119 1 -178 -1 -105 -2 -108 -24 -108 -12 0 -30 9 -40 20 -9
11 -23 17 -32 14 -11 -5 -15 1 -15 23 0 17 -7 45 -16 63 -23 46 -23 304 1 329
8 10 15 36 15 59 0 23 5 42 10 42 6 0 10 9 10 20 0 13 -7 20 -20 20 -11 0 -20
-4 -20 -9 0 -5 -12 -11 -28 -14 -15 -3 -41 -19 -57 -36 -17 -17 -33 -31 -38
-31 -13 0 -77 -71 -77 -85 0 -7 -7 -15 -15 -19 -11 -4 -15 -20 -15 -55 0 -28
-5 -51 -11 -53 -6 -2 -14 -27 -17 -56 -2 -29 -8 -52 -13 -52 -5 0 -9 -7 -9
-15 0 -8 -9 -23 -20 -32 -11 -10 -20 -23 -20 -29 0 -7 -5 -14 -12 -16 -6 -2
-9 -12 -5 -21 4 -12 14 -15 40 -10 l34 5 1 -47 c1 -26 8 -58 17 -71 8 -13 15
-35 15 -49 0 -39 17 -63 55 -80 19 -7 35 -19 35 -24 0 -6 21 -11 49 -11 32 0
53 -5 62 -16 10 -12 27 -15 71 -12 l58 3 0 -40 c0 -22 -7 -49 -15 -59 -9 -11
-15 -41 -15 -68 0 -26 -4 -48 -10 -48 -5 0 -10 -7 -10 -15 0 -8 -7 -15 -16
-15 -9 0 -18 -9 -21 -20 -3 -11 -9 -20 -14 -20 -5 0 -9 -9 -9 -20 0 -16 7 -20
35 -20 19 0 35 5 35 10 0 6 9 10 20 10 11 0 23 7 26 15 3 8 14 17 25 20 41 13
159 126 159 153 0 11 7 25 15 32 10 8 15 31 15 71 0 53 3 61 35 94 20 19 40
35 45 35 5 0 24 16 43 35 19 19 39 35 46 35 6 0 11 4 11 10 0 5 11 12 24 16
14 3 27 13 30 21 4 8 13 13 21 9 9 -3 19 3 25 14 6 11 14 20 19 20 16 0 141
131 147 155 3 13 12 26 20 29 21 8 20 179 -1 196 -8 7 -15 18 -15 24 0 6 -13
17 -30 24 -16 7 -32 22 -35 33 -4 10 -11 19 -16 19 -5 0 -9 9 -9 19 0 11 -4
23 -10 26 -14 9 -60 107 -54 117 3 4 -2 18 -10 30 -8 13 -17 47 -21 76 -6 42
-10 52 -26 52 -10 0 -19 -4 -19 -9z m-140 -421 c0 -11 7 -20 15 -20 9 0 15 -9
15 -25 0 -14 9 -34 19 -46 60 -65 76 -79 88 -79 9 0 13 -17 13 -65 0 -52 -4
-69 -20 -85 -11 -11 -24 -20 -28 -20 -4 0 -23 -16 -42 -35 -19 -19 -41 -35
-47 -35 -7 0 -13 -4 -13 -9 0 -10 -30 -19 -45 -14 -16 5 -6 169 11 184 11 9
14 41 14 140 0 79 4 129 10 129 6 0 10 -9 10 -20z"/>
<path d="M11570 2360 c0 -6 -8 -14 -17 -17 -10 -4 -28 -17 -40 -30 -12 -13
-26 -23 -30 -23 -4 0 -22 -17 -40 -37 -31 -34 -41 -62 -27 -75 10 -11 62 23
102 65 9 9 23 17 31 17 28 0 90 88 74 104 -10 10 -53 7 -53 -4z"/>
<path d="M23560 2330 c0 -5 -7 -10 -15 -10 -8 0 -24 -9 -35 -20 -11 -11 -22
-20 -25 -20 -13 0 -115 -115 -115 -130 0 -10 -7 -20 -15 -24 -13 -5 -15 -51
-15 -330 0 -315 -1 -324 -20 -329 -11 -3 -23 -1 -26 4 -3 5 -40 9 -82 9 l-77
0 3 81 c3 58 8 82 18 86 10 4 14 24 14 79 0 41 6 89 13 107 8 18 15 67 16 109
1 44 8 90 16 105 8 16 15 44 15 64 0 19 5 40 11 46 7 7 9 19 5 28 -7 20 -49
14 -73 -10 -8 -8 -21 -15 -29 -15 -8 0 -14 -4 -14 -10 0 -5 -5 -10 -11 -10
-18 0 -109 -96 -109 -116 0 -11 -7 -28 -15 -38 -8 -11 -15 -39 -15 -63 0 -30
-5 -45 -15 -49 -12 -5 -15 -27 -15 -108 0 -74 -4 -107 -15 -122 -8 -10 -15
-38 -15 -61 0 -45 -9 -53 -30 -28 -7 8 -23 15 -35 15 -12 0 -28 7 -35 15 -7 8
-19 15 -26 15 -8 0 -14 7 -14 15 0 9 -6 12 -15 9 -13 -5 -15 7 -15 74 0 51 5
90 15 108 8 16 15 41 15 57 0 15 4 27 9 27 5 0 12 13 16 29 3 16 13 32 21 35
8 3 14 12 14 21 0 8 4 15 9 15 5 0 12 15 15 34 4 19 13 37 21 40 8 3 15 13 15
22 0 10 6 25 14 33 8 9 16 30 18 46 3 27 0 30 -21 27 -13 -2 -31 -10 -38 -18
-8 -8 -21 -14 -30 -14 -9 0 -29 -13 -45 -30 -15 -16 -30 -30 -33 -30 -11 0
-43 -39 -50 -59 -3 -12 -13 -21 -21 -21 -8 0 -14 -10 -14 -25 0 -14 -7 -28
-15 -31 -8 -4 -15 -14 -15 -24 0 -22 -26 -74 -45 -90 -8 -7 -15 -19 -15 -27 0
-8 -7 -21 -15 -29 -8 -9 -15 -29 -15 -45 0 -16 -4 -29 -10 -29 -5 0 -12 -17
-16 -37 -4 -21 -13 -43 -21 -48 -10 -8 -13 -34 -11 -110 l3 -99 55 -29 c30
-15 57 -32 58 -38 2 -5 15 -9 28 -9 14 0 27 -7 30 -15 4 -8 18 -15 34 -15 16
0 30 -5 32 -12 2 -6 35 -14 74 -17 l69 -6 3 -64 c2 -36 -2 -69 -7 -74 -6 -6
-11 -27 -11 -48 0 -21 -8 -47 -20 -62 -12 -14 -20 -40 -20 -61 0 -32 3 -36 25
-36 14 0 25 5 25 10 0 6 8 10 18 10 10 0 25 9 35 20 9 11 24 20 32 20 8 0 15
5 15 10 0 6 6 10 14 10 7 0 16 9 19 20 3 11 12 20 21 20 9 0 16 7 16 15 0 8 6
15 13 15 19 0 47 74 47 124 l0 43 89 5 c64 4 94 10 106 22 9 9 21 16 26 16 5
0 9 7 9 15 0 8 7 15 16 15 18 0 37 17 47 43 3 9 13 17 22 17 8 0 15 5 15 10 0
6 7 10 15 10 8 0 15 7 15 15 0 8 5 15 10 15 6 0 10 7 10 15 0 8 9 23 20 32 11
10 20 24 20 31 0 7 7 20 15 28 8 9 15 27 15 42 0 21 9 31 39 45 22 10 41 27
44 39 4 13 11 19 20 15 16 -6 47 21 47 40 0 6 6 13 14 16 7 3 16 24 20 46 3
23 10 41 15 41 6 0 9 8 9 18 -1 9 2 27 6 40 4 12 5 22 1 22 -22 0 -95 -24 -95
-31 0 -5 -4 -9 -10 -9 -5 0 -18 -8 -29 -17 -41 -39 -66 -54 -70 -42 -2 6 1 14
6 18 6 3 11 101 12 226 1 123 7 221 12 223 5 2 9 17 9 33 0 24 -4 29 -25 29
-14 0 -25 -4 -25 -10z"/>
<path d="M21768 2216 c-8 -7 -24 -17 -36 -20 -12 -4 -22 -11 -22 -16 0 -5 -10
-12 -22 -16 -26 -8 -42 -22 -51 -46 -3 -10 -11 -18 -17 -18 -17 0 -50 -33 -50
-50 0 -9 -4 -20 -10 -26 -5 -5 -13 -54 -18 -108 -5 -54 -14 -101 -19 -105 -5
-3 -10 -37 -11 -74 -1 -46 -7 -73 -17 -83 -8 -9 -15 -26 -15 -39 0 -29 -27
-58 -47 -51 -8 3 -46 6 -84 6 l-69 0 0 113 c1 83 4 117 15 131 11 14 15 47 15
113 0 51 4 93 9 93 4 0 11 28 15 63 3 34 11 64 16 65 19 7 11 42 -10 42 -11 0
-20 -4 -20 -10 0 -5 -9 -10 -20 -10 -11 0 -28 -9 -37 -20 -10 -11 -23 -20 -30
-20 -7 0 -13 -4 -13 -10 0 -5 -7 -10 -15 -10 -8 0 -15 -7 -15 -15 0 -9 -8 -19
-17 -22 -25 -10 -53 -36 -53 -49 0 -7 -5 -14 -12 -16 -8 -3 -14 -33 -16 -82
-3 -50 -9 -79 -17 -82 -9 -4 -13 -33 -14 -97 -1 -61 -6 -97 -15 -107 -10 -11
-14 -51 -15 -142 -2 -117 0 -128 18 -137 31 -17 246 -14 264 3 8 8 31 18 51
21 20 4 36 11 36 16 0 5 7 9 15 9 8 0 19 9 25 21 19 34 45 20 46 -26 1 -46
-20 -72 -66 -81 -16 -4 -30 -10 -30 -14 0 -4 -12 -11 -26 -14 -15 -4 -33 -14
-41 -21 -8 -8 -23 -15 -34 -15 -10 0 -19 -4 -19 -10 0 -5 -6 -10 -13 -10 -7 0
-29 -16 -49 -36 -21 -19 -42 -33 -47 -30 -6 4 -15 -3 -21 -14 -6 -11 -17 -20
-24 -20 -8 0 -16 -7 -20 -15 -3 -8 -10 -15 -16 -15 -6 0 -16 -4 -23 -10 -72
-59 -100 -85 -161 -147 -106 -107 -106 -107 -106 -189 0 -40 5 -85 10 -100 10
-24 14 -26 48 -20 52 10 165 7 177 -5 13 -13 36 -11 67 5 15 8 40 17 57 21 17
4 31 10 31 15 0 4 11 11 25 14 14 4 25 10 25 15 0 5 19 19 43 31 23 12 46 28
50 36 4 8 13 14 20 14 7 1 23 14 37 30 13 17 28 30 32 30 11 0 24 11 96 80 70
67 102 112 102 142 1 13 7 34 15 48 8 14 15 39 15 55 0 17 5 37 10 45 16 25
12 -63 -5 -103 -8 -20 -15 -49 -15 -64 0 -15 -7 -37 -15 -47 -8 -11 -15 -30
-15 -43 0 -21 4 -23 49 -23 28 0 53 5 56 10 3 6 17 10 30 10 13 0 30 7 38 15
8 7 27 17 43 21 16 4 33 11 39 16 45 36 93 78 120 106 18 17 35 32 39 32 11 0
6 -28 -6 -32 -10 -4 -14 -51 -16 -181 l-4 -176 -29 -6 c-16 -4 -29 -11 -29
-16 0 -5 -8 -9 -17 -9 -10 0 -30 -6 -44 -14 -14 -7 -38 -16 -54 -20 -16 -4
-39 -18 -52 -32 -12 -13 -26 -24 -31 -24 -14 0 -62 -44 -62 -58 0 -7 -9 -12
-20 -12 -11 0 -20 -6 -20 -14 0 -8 -7 -16 -15 -20 -8 -3 -15 -14 -15 -25 0
-11 -4 -23 -10 -26 -5 -3 -10 -22 -10 -41 0 -38 21 -54 45 -34 15 12 80 10
233 -6 34 -4 52 -2 52 5 0 6 9 11 20 11 10 0 24 9 30 20 6 11 17 20 25 20 8 0
15 5 15 10 0 6 6 10 13 10 18 0 107 98 107 118 0 9 7 26 15 36 8 11 15 33 15
49 0 15 7 35 15 43 8 9 15 24 15 34 0 10 7 31 15 46 8 16 15 37 15 47 0 10 6
25 14 32 10 11 14 58 14 210 1 164 3 200 16 214 11 12 16 37 16 78 0 45 4 62
15 67 26 9 16 76 -11 76 -8 0 -14 -4 -14 -10 0 -5 -11 -12 -24 -16 -14 -3 -27
-12 -30 -20 -3 -8 -12 -14 -21 -14 -13 0 -47 -31 -119 -110 -7 -8 -16 -32 -20
-52 -4 -21 -10 -38 -14 -38 -9 0 -38 -21 -90 -67 -45 -39 -80 -59 -88 -50 -4
4 -2 13 4 20 6 7 14 39 18 70 4 31 13 62 20 68 8 6 14 29 14 50 0 21 5 41 10
44 11 7 14 48 4 58 -4 3 -16 0 -28 -8 -11 -8 -28 -15 -38 -15 -10 0 -18 -4
-18 -10 0 -5 -7 -10 -15 -10 -8 0 -19 -9 -25 -20 -6 -11 -15 -20 -21 -20 -15
0 -89 -83 -89 -100 0 -8 -5 -22 -10 -30 -7 -11 -10 -2 -10 32 0 31 5 52 16 60
8 7 23 21 32 31 9 9 20 17 25 17 19 0 167 148 167 167 0 7 7 13 15 13 8 0 15
9 15 20 0 11 5 20 10 20 6 0 10 9 10 20 0 16 -7 20 -30 20 -16 0 -30 -4 -30
-9 0 -5 -8 -11 -17 -15 -28 -9 -53 -27 -101 -73 -46 -44 -69 -55 -58 -27 3 9
6 21 6 27 0 7 19 20 42 30 74 32 165 114 195 177 18 36 37 64 48 73 11 8 -11
27 -33 27 -8 0 -11 12 -10 33 3 28 0 32 -25 35 -18 2 -29 -2 -33 -12 -3 -9
-11 -16 -18 -16 -26 0 -146 -114 -146 -139 0 -8 -2 -12 -5 -9 -9 8 17 142 29
150 6 4 13 53 17 110 3 57 11 116 17 131 17 41 15 65 -7 77 -15 7 -23 6 -33
-4z m-306 -998 c-7 -7 -12 -20 -12 -30 0 -10 -4 -18 -9 -18 -5 0 -13 -25 -17
-56 -3 -31 -13 -69 -20 -83 -8 -14 -14 -41 -14 -58 0 -18 -4 -33 -10 -33 -5 0
-10 -6 -10 -13 0 -19 -34 -44 -69 -52 -17 -4 -31 -11 -31 -16 0 -5 -53 -9
-118 -9 l-119 0 1 61 c1 56 3 62 36 89 19 16 39 30 43 30 4 0 13 5 20 10 48
41 62 50 74 50 7 0 13 5 13 10 0 6 11 10 24 10 13 0 35 9 49 20 14 11 30 20
36 20 6 0 11 4 11 9 0 5 14 12 30 16 17 4 30 11 30 16 0 5 11 11 24 15 14 3
27 13 31 21 3 9 8 13 12 9 4 -3 1 -12 -5 -18z"/>
<path d="M18775 2120 c-3 -5 -13 -10 -21 -10 -8 0 -23 -9 -34 -20 -11 -11 -27
-20 -35 -20 -8 0 -15 -4 -15 -10 0 -5 -7 -10 -15 -10 -8 0 -15 -7 -15 -15 0
-9 -8 -19 -17 -22 -25 -10 -53 -36 -53 -49 0 -7 -5 -14 -12 -16 -6 -2 -13 -37
-16 -86 l-5 -82 -38 0 c-21 0 -41 5 -44 10 -3 6 -15 10 -26 10 -10 0 -19 -4
-19 -10 0 -5 -6 -10 -13 -10 -8 0 -23 -8 -35 -17 -11 -10 -30 -25 -42 -33 -21
-14 -89 -81 -117 -114 -18 -21 -16 -44 5 -50 9 -3 76 -5 147 -4 l130 1 -4 -43
c-1 -24 -9 -50 -17 -57 -8 -8 -14 -20 -14 -28 0 -7 -7 -15 -15 -19 -11 -4 -15
-23 -15 -80 0 -41 -4 -78 -10 -81 -14 -9 -12 -45 3 -46 32 -3 107 24 107 39 0
4 18 18 40 32 22 13 40 29 40 35 0 5 8 15 18 22 25 15 52 74 52 111 0 16 7 35
16 43 11 9 14 22 10 41 -4 22 -1 30 12 34 9 3 26 10 37 14 11 5 38 11 59 14
22 3 42 9 45 14 3 5 22 13 40 17 19 4 46 20 60 36 14 16 30 29 35 29 15 0 76
68 76 85 0 8 5 15 10 15 6 0 10 9 10 20 0 15 -7 20 -24 20 -14 0 -28 -4 -31
-10 -3 -5 -19 -10 -35 -10 -16 0 -35 -6 -43 -14 -10 -10 -42 -15 -103 -17
l-89 -2 4 49 c1 27 8 55 13 61 6 7 12 48 15 90 2 43 9 88 15 100 17 34 -8 74
-27 43z"/>
<path d="M10825 2091 c-3 -6 -16 -11 -28 -11 -13 0 -30 -8 -39 -17 -33 -34
-55 -53 -61 -53 -13 0 -47 -35 -47 -47 0 -7 -7 -13 -15 -13 -9 0 -15 -9 -15
-24 0 -13 -6 -26 -12 -28 -15 -5 13 -38 31 -38 6 0 11 -7 11 -15 0 -23 62 -19
83 5 9 11 24 20 33 20 9 0 30 14 46 30 15 17 32 30 36 30 31 0 65 95 41 114
-8 6 -19 20 -25 31 -13 23 -30 30 -39 16z"/>
<path d="M15553 2042 c-13 -2 -23 -8 -23 -13 0 -5 -7 -9 -15 -9 -19 0 -90 -38
-106 -56 -6 -8 -15 -14 -19 -14 -12 0 -114 -103 -127 -129 -19 -34 -16 -41 17
-41 17 0 30 5 30 10 0 6 11 10 23 10 21 0 24 -5 25 -39 2 -38 2 -38 -43 -45
-45 -6 -60 -14 -93 -48 -9 -10 -22 -18 -28 -18 -22 0 -104 -92 -104 -117 0
-26 -8 -25 192 -27 l108 -1 0 -71 c0 -98 8 -134 30 -134 23 0 82 31 93 48 4 6
13 12 18 12 16 0 109 96 109 113 0 8 7 18 16 21 15 6 15 8 0 31 -21 32 -21 32
14 40 17 4 30 11 30 16 0 5 11 11 24 15 14 3 27 12 30 20 3 8 11 14 18 14 14
0 108 93 108 106 0 4 7 15 16 25 11 12 14 27 10 44 -5 21 -12 25 -41 25 -19 0
-35 -4 -35 -10 0 -5 -7 -10 -15 -10 -9 0 -18 -7 -21 -15 -6 -15 -41 -30 -61
-27 -7 2 -13 -2 -13 -8 0 -6 -23 -10 -55 -10 l-55 0 0 94 c0 73 -3 96 -16 107
-12 10 -14 23 -10 50 7 41 2 47 -31 41z"/>
<path d="M28370 2000 c0 -5 -8 -10 -18 -10 -11 0 -28 -8 -40 -17 -11 -10 -37
-31 -58 -48 -53 -43 -84 -74 -84 -85 0 -6 -7 -10 -15 -10 -8 0 -15 -9 -15 -19
0 -10 -7 -21 -15 -25 -19 -7 -21 -96 -3 -114 9 -9 9 -12 0 -12 -7 0 -12 -6
-12 -14 0 -8 -10 -18 -21 -21 -12 -4 -42 -28 -66 -54 -25 -25 -49 -45 -54 -43
-5 1 -9 -6 -9 -16 0 -10 -5 -23 -11 -29 -6 -6 -8 -16 -5 -22 9 -14 59 -14 72
-1 7 7 28 7 65 0 30 -6 68 -11 86 -12 l32 -1 3 -116 3 -116 28 -3 c15 -2 27 1
27 7 0 6 9 11 20 11 11 0 36 16 54 35 19 19 37 35 41 35 26 0 102 114 84 126
-24 15 0 19 100 16 86 -3 111 0 123 12 9 8 27 18 42 22 14 3 26 10 26 14 0 5
8 11 18 14 11 4 25 18 32 31 7 14 19 25 26 25 21 0 66 67 60 87 -5 17 -22 18
-235 15 l-229 -3 -2 113 c-1 62 -3 124 -5 138 -1 14 -3 42 -4 63 -1 30 -5 37
-21 37 -11 0 -20 -4 -20 -10z"/>
<path d="M25842 1877 c-7 -7 -21 -20 -30 -29 -9 -10 -22 -18 -28 -18 -18 0
-85 -71 -100 -106 -9 -22 -23 -36 -41 -40 -28 -8 -43 -17 -71 -46 -9 -10 -22
-18 -29 -18 -15 0 -86 -69 -102 -99 -26 -47 -18 -52 79 -50 81 2 125 -6 93
-18 -7 -2 -15 -20 -19 -39 -3 -19 -12 -34 -20 -34 -8 0 -14 -10 -14 -24 0 -14
-4 -28 -10 -31 -5 -3 -10 -17 -10 -31 0 -21 5 -24 35 -24 19 0 35 5 35 10 0 6
8 10 19 10 10 0 21 9 24 20 3 11 12 20 21 20 20 0 102 80 122 118 12 23 19 26
56 23 42 -2 47 0 105 49 7 5 16 10 21 10 13 0 122 122 122 137 0 18 -30 22
-140 20 l-95 -1 4 39 c1 22 9 48 17 59 8 11 14 31 14 43 0 13 5 23 10 23 6 0
10 9 10 20 0 16 -6 20 -32 20 -18 -1 -39 -6 -46 -13z"/>
<path d="M22300 1820 c0 -5 -7 -10 -15 -10 -9 0 -18 -7 -21 -15 -3 -8 -15 -17
-27 -21 -12 -4 -32 -20 -46 -35 -14 -16 -31 -29 -39 -29 -13 0 -18 -3 -62 -43
-45 -40 -70 -79 -70 -109 0 -23 -4 -29 -15 -24 -16 6 -20 -10 -9 -38 7 -18 74
-23 74 -6 0 6 5 10 11 10 29 0 179 141 179 168 0 5 16 26 35 46 19 21 35 43
35 50 0 8 6 19 14 26 8 6 12 18 9 26 -6 16 -53 20 -53 4z"/>
<path d="M2875 1803 c-38 -2 -74 -8 -79 -14 -6 -5 -42 -9 -82 -9 -51 0 -73 -4
-77 -14 -4 -9 -33 -15 -96 -18 -50 -3 -97 -10 -103 -16 -7 -5 -49 -12 -92 -14
-51 -2 -81 -8 -84 -16 -2 -7 -10 -12 -17 -12 -7 0 -24 -13 -37 -29 -14 -16
-33 -31 -44 -35 -24 -8 -64 -66 -64 -93 0 -26 23 -32 70 -20 19 5 85 13 145
19 61 5 112 14 113 19 2 5 32 9 66 9 39 0 69 5 82 15 15 11 53 14 171 15 142
0 153 1 163 20 6 11 17 20 25 20 8 0 15 5 15 10 0 6 7 10 15 10 8 0 20 9 27
20 7 11 18 20 25 20 7 0 13 4 13 10 0 5 14 23 30 38 17 16 30 39 30 51 0 23
-15 24 -215 14z"/>
<path d="M10084 1800 c-12 -5 -25 -13 -29 -19 -3 -6 -14 -11 -25 -11 -10 0
-20 -7 -24 -15 -3 -8 -10 -15 -16 -15 -14 0 -79 -74 -101 -115 -24 -44 -24
-72 -1 -78 16 -4 16 -5 -1 -6 -10 0 -15 -6 -12 -12 7 -11 -68 -89 -85 -89 -6
0 -10 -11 -10 -25 0 -14 -4 -25 -10 -25 -5 0 -10 -7 -10 -15 0 -10 11 -15 35
-15 19 0 35 5 35 10 0 6 17 10 38 10 35 -1 36 -2 18 -15 -14 -10 -15 -15 -6
-15 11 0 11 -3 2 -12 -17 -17 -15 -48 3 -48 11 0 15 -18 17 -82 l3 -83 32 -3
c32 -3 47 5 81 41 9 9 22 17 29 17 7 0 13 5 13 10 0 6 7 10 15 10 8 0 22 12
32 28 10 15 23 31 30 35 7 4 13 14 13 21 0 8 7 17 16 20 11 4 15 16 12 43 -3
35 -1 38 27 40 45 3 85 26 133 76 9 9 20 17 25 17 7 0 29 22 67 67 15 19 30
60 23 67 -10 10 -51 7 -58 -4 -4 -6 -62 -10 -141 -10 l-134 0 0 78 c0 45 5 83
11 89 14 14 5 43 -13 42 -7 0 -23 -4 -34 -9z"/>
<path d="M32936 1791 c-4 -6 -15 -11 -25 -11 -9 0 -26 -7 -36 -15 -11 -8 -40
-29 -64 -46 -24 -17 -46 -39 -48 -50 -3 -10 -12 -19 -19 -19 -8 0 -14 -9 -14
-20 0 -11 -4 -20 -10 -20 -16 0 -11 -30 6 -37 8 -3 26 0 39 7 16 8 44 10 87 6
153 -15 308 -19 308 -7 0 6 7 11 16 11 9 0 26 8 39 18 12 9 33 24 45 32 55 38
135 133 125 150 -9 14 -55 13 -55 -1 0 -9 -41 -10 -152 -5 -84 4 -172 9 -194
12 -25 4 -44 2 -48 -5z"/>
<path d="M10810 1783 c-13 -3 -38 -18 -54 -34 -16 -16 -33 -29 -36 -29 -11 0
-60 -48 -60 -59 0 -6 -9 -15 -20 -21 -11 -6 -20 -19 -20 -29 0 -10 -7 -24 -15
-31 -19 -16 -19 -58 0 -103 9 -23 13 -52 9 -79 -8 -65 -7 -76 15 -121 10 -23
22 -57 26 -74 10 -51 36 -63 141 -63 77 0 95 3 114 20 13 11 29 20 37 20 7 0
13 5 13 10 0 6 6 10 13 10 7 0 40 27 72 61 33 33 68 68 78 77 9 9 17 29 17 44
0 16 5 28 11 28 6 0 9 21 7 53 -3 49 -4 52 -28 49 -14 -2 -32 -10 -41 -18 -8
-8 -20 -14 -26 -14 -14 0 -53 -35 -53 -49 0 -6 -5 -11 -10 -11 -6 0 -27 -16
-46 -35 -40 -41 -54 -38 -54 10 0 19 -6 38 -13 42 -21 14 -39 82 -33 126 4 23
2 66 -4 96 -7 38 -7 58 1 67 12 15 8 57 -6 59 -5 1 -21 0 -35 -2z"/>
<path d="M5785 1670 c-3 -5 -16 -10 -28 -10 -12 0 -34 -6 -49 -14 -15 -8 -65
-17 -112 -21 -47 -4 -86 -11 -86 -16 0 -5 -24 -9 -54 -9 -35 0 -60 -5 -69 -15
-11 -11 -48 -14 -163 -16 -101 -1 -154 -5 -168 -14 -12 -7 -64 -15 -116 -19
-52 -3 -99 -11 -104 -16 -6 -6 -34 -10 -62 -10 -29 0 -58 -6 -66 -13 -7 -7
-33 -23 -57 -35 -24 -13 -55 -36 -70 -53 -14 -16 -31 -29 -38 -29 -7 0 -13 -6
-13 -14 0 -8 -4 -16 -9 -18 -5 -1 -11 -16 -13 -33 -3 -30 -3 -30 42 -27 25 2
58 10 74 18 16 8 58 14 94 14 35 0 78 6 95 14 21 9 86 16 191 19 93 3 163 10
169 16 6 6 35 11 63 11 32 0 58 6 67 14 8 9 47 17 96 21 45 4 84 12 87 16 3 5
29 9 58 9 34 0 58 5 65 14 7 8 23 17 36 20 14 4 25 11 25 16 0 6 5 10 12 10 6
0 18 7 27 15 9 8 30 27 46 42 38 35 74 94 68 111 -6 14 -29 16 -38 2z"/>
<path d="M7060 1580 c0 -5 -6 -10 -13 -10 -8 0 -22 -9 -32 -20 -10 -11 -24
-20 -32 -20 -7 0 -13 -4 -13 -10 0 -5 -7 -10 -15 -10 -8 0 -15 -5 -15 -11 0
-7 -16 -27 -35 -46 -20 -19 -33 -38 -30 -43 7 -11 -67 -90 -83 -90 -7 0 -12
-4 -12 -10 0 -5 -5 -10 -11 -10 -7 0 -10 29 -8 87 l3 88 -38 -3 c-24 -2 -49
-13 -65 -28 -14 -14 -41 -34 -58 -45 -18 -11 -33 -27 -33 -35 0 -8 -4 -14 -10
-14 -5 0 -12 -11 -16 -25 -3 -13 -12 -29 -20 -36 -10 -8 -14 -37 -14 -106 0
-71 -4 -98 -15 -109 -11 -11 -15 -37 -15 -94 0 -49 -5 -88 -15 -106 -8 -16
-15 -39 -15 -51 0 -12 -4 -24 -9 -28 -5 -3 -12 -19 -16 -35 -4 -17 -11 -30
-16 -30 -5 0 -9 -6 -9 -13 0 -7 -8 -20 -17 -29 -40 -36 -53 -63 -53 -108 0
-25 -5 -51 -12 -58 -9 -9 -9 -15 0 -24 9 -9 15 -9 24 0 7 7 20 12 30 12 10 0
26 9 35 20 10 11 24 20 31 20 22 0 142 127 142 151 0 11 7 27 15 35 8 9 15 31
15 50 0 19 4 34 8 34 10 0 52 94 52 118 0 15 49 52 70 52 5 0 11 -13 15 -30 4
-16 11 -30 16 -30 5 0 9 -5 9 -11 0 -29 71 -52 85 -29 3 6 18 10 33 10 15 0
35 9 45 20 9 11 24 20 32 20 8 0 15 5 15 10 0 6 7 10 15 10 8 0 15 5 15 11 0
13 41 48 57 49 7 0 17 9 23 20 6 11 17 20 25 20 8 0 15 4 15 9 0 6 14 18 30
28 17 9 30 24 30 31 0 8 9 16 20 19 11 3 20 12 20 19 0 8 4 14 9 14 5 0 12 9
16 20 3 11 24 37 46 58 21 22 39 43 39 49 0 5 9 20 20 33 16 18 20 37 20 92
l0 68 -30 0 c-16 0 -30 -4 -30 -10 0 -5 -7 -10 -15 -10 -9 0 -18 -7 -21 -15
-3 -8 -15 -17 -26 -21 -23 -7 -58 -40 -58 -54 0 -5 -6 -10 -14 -10 -8 0 -17
-9 -21 -19 -3 -11 -12 -22 -20 -25 -8 -3 -15 -13 -15 -23 0 -15 -2 -16 -10 -3
-5 8 -10 75 -10 148 l0 132 -30 0 c-16 0 -30 -4 -30 -10z"/>
<path d="M3680 1537 c-44 -9 -49 -12 -104 -62 -19 -16 -44 -39 -57 -50 -33
-27 -53 -75 -39 -89 8 -8 115 -11 344 -11 303 0 334 2 350 18 10 9 23 17 31
17 7 0 15 7 19 15 3 8 10 15 15 15 5 0 27 18 48 41 21 22 45 48 54 57 9 9 18
26 21 37 5 20 0 20 -318 20 -177 0 -341 -4 -364 -8z"/>
<path d="M30190 1520 c0 -5 -7 -10 -15 -10 -8 0 -23 -9 -32 -20 -10 -11 -23
-20 -31 -20 -7 0 -42 -30 -77 -66 -59 -59 -65 -69 -65 -107 0 -23 -7 -51 -15
-61 -8 -11 -15 -33 -15 -49 0 -15 -7 -35 -15 -43 -8 -9 -15 -26 -15 -40 0 -13
-4 -24 -10 -24 -5 0 -12 -12 -16 -27 -9 -43 -35 -97 -50 -106 -8 -4 -14 -14
-14 -21 0 -8 -7 -27 -15 -42 -8 -16 -15 -50 -15 -76 0 -28 -5 -48 -12 -51 -10
-4 -10 -7 -1 -17 9 -9 16 -10 25 -3 7 6 28 14 46 18 17 3 50 24 73 46 22 21
45 39 50 39 5 0 16 12 26 28 10 15 23 31 30 35 7 4 13 16 13 26 0 27 25 34
121 32 62 -2 90 1 100 11 8 8 22 17 32 21 9 3 17 11 17 17 0 5 6 10 13 10 18
0 67 42 67 58 0 7 9 12 20 12 11 0 20 5 20 10 0 6 11 10 24 10 12 0 36 12 52
26 16 14 41 37 56 50 14 13 31 24 36 24 5 0 13 8 16 18 4 9 14 30 22 45 12 21
13 32 5 40 -8 8 -11 8 -11 -1 0 -7 -5 -12 -11 -12 -8 0 -10 26 -8 79 l4 80
-30 -6 c-49 -9 -93 -33 -98 -54 -3 -10 -13 -19 -22 -19 -10 0 -31 -15 -47 -32
-16 -18 -36 -40 -43 -49 -9 -9 -15 -35 -15 -62 0 -50 -18 -69 -56 -62 -10 2
-25 4 -32 4 -8 1 -10 6 -5 14 12 19 10 40 -5 65 -9 15 -13 54 -13 107 1 71 -2
83 -14 79 -17 -7 -22 31 -5 41 6 3 10 15 10 26 0 14 -7 19 -25 19 -14 0 -25
-4 -25 -10z"/>
<path d="M23731 1449 c-34 -11 -43 -16 -91 -61 -15 -16 -32 -28 -36 -28 -9 0
-54 -49 -54 -59 0 -5 -7 -14 -15 -21 -8 -7 -15 -27 -15 -45 0 -18 -7 -38 -15
-45 -9 -7 -15 -29 -15 -54 0 -23 -5 -47 -11 -53 -7 -7 -13 -22 -14 -35 -1 -13
-3 -29 -4 -35 -2 -20 -71 -17 -71 3 0 12 -6 15 -26 10 -25 -7 -35 -13 -71 -46
-9 -8 -22 -15 -28 -15 -6 0 -25 -15 -43 -33 -17 -17 -34 -32 -37 -32 -9 0 -45
-39 -45 -49 0 -5 -7 -17 -16 -26 -32 -32 -10 -45 75 -45 71 0 83 -3 107 -25
28 -26 96 -35 109 -15 3 6 17 10 30 10 13 0 30 7 39 15 8 8 19 15 24 15 5 0
12 9 15 21 3 11 11 19 19 17 23 -5 105 86 111 123 3 19 10 52 16 74 6 22 11
59 11 82 0 23 5 43 12 45 6 2 13 30 16 61 3 39 9 57 18 57 10 0 14 14 14 50 0
28 4 50 9 50 5 0 12 15 16 33 4 17 9 40 11 50 6 19 3 19 -45 6z"/>
<path d="M20510 1376 c-75 -42 -170 -127 -170 -152 0 -7 -7 -25 -15 -40 -9
-17 -15 -56 -15 -95 0 -47 -4 -70 -15 -79 -10 -8 -15 -31 -15 -69 0 -75 8
-100 34 -106 31 -8 207 11 215 22 3 6 16 13 29 17 12 4 22 12 22 17 0 5 7 9
15 9 9 0 18 7 21 15 4 8 12 15 20 15 7 0 28 16 47 35 19 19 39 35 46 35 7 0
39 27 71 60 67 67 81 110 35 110 -14 0 -25 -4 -25 -9 0 -5 -12 -12 -26 -15
-15 -4 -32 -12 -39 -19 -7 -7 -23 -19 -35 -27 -12 -8 -28 -20 -34 -25 -32 -29
-69 -45 -106 -45 l-40 0 0 84 c0 47 4 87 9 91 5 3 12 31 16 63 3 31 10 65 15
74 12 21 13 55 3 61 -5 2 -33 -10 -63 -27z"/>
<path d="M4873 1327 c-18 -6 -33 -14 -33 -18 0 -5 -9 -9 -20 -9 -11 0 -25 -9
-32 -20 -7 -11 -16 -20 -20 -20 -4 0 -24 -18 -45 -41 -21 -23 -46 -48 -55 -57
-23 -21 -26 -122 -4 -122 11 0 13 -20 9 -107 -3 -60 -9 -109 -14 -111 -4 -2
-8 -107 -8 -234 -1 -143 -5 -236 -12 -244 -7 -9 -4 -17 13 -28 29 -21 184 -23
213 -2 11 7 40 16 65 19 24 3 46 11 48 16 2 6 9 11 16 11 7 0 21 9 31 20 10
11 22 20 27 20 5 0 19 11 32 25 13 14 27 25 32 25 4 0 3 -5 -4 -12 -17 -17
-15 -91 3 -135 11 -25 15 -73 15 -169 l0 -134 45 0 c32 0 45 4 45 14 0 8 11
17 25 20 27 7 65 39 65 56 0 6 5 10 10 10 16 0 60 51 60 69 0 10 6 23 12 29
10 10 10 17 1 31 -7 11 -13 64 -14 125 -1 71 -6 111 -15 123 -7 10 -14 43 -14
76 0 31 -4 57 -10 57 -11 0 8 48 27 68 8 8 13 40 13 78 0 50 -3 64 -15 64 -8
0 -15 7 -15 15 0 8 -7 15 -15 15 -10 0 -15 10 -15 29 0 16 -7 36 -15 44 -15
15 -55 12 -55 -4 0 -5 -9 -9 -20 -9 -10 0 -24 -9 -30 -20 -6 -11 -15 -20 -21
-20 -18 0 -99 -83 -116 -117 -15 -33 -15 -40 5 -155 12 -66 -4 -78 -107 -78
l-79 0 8 33 c4 17 11 149 16 292 4 143 9 285 11 315 10 121 10 169 -1 173 -6
2 -26 -1 -43 -6z"/>
<path d="M2932 1258 c-10 -10 -96 -14 -361 -18 -314 -4 -351 -7 -368 -22 -11
-10 -23 -18 -27 -18 -11 0 -46 -32 -121 -111 -8 -9 -15 -25 -15 -37 0 -23 1
-24 115 -23 28 0 129 2 225 6 96 3 278 9 403 13 132 4 231 12 235 17 4 6 21
19 37 29 67 42 135 113 135 141 0 30 -11 33 -140 34 -74 1 -109 -2 -118 -11z"/>
</g>
</svg>
