<svg viewBox="0 0 1154.9 101.76" xmlns="http://www.w3.org/2000/svg"><path d="M166.56 101.67c-.07-.22-.198-2.2-.285-4.4-.15-3.789-.946-8.803-1.49-9.39-.137-.148-.805.218-1.484.815-2.757 2.423-4.827 3.135-9.112 3.135-1.806 0-3.21-.14-3.329-.33-.112-.183-.053-3.747.132-7.92.407-9.164.463-14.42.178-16.505-.212-1.545-.203-1.564 1.46-3.248 1.755-1.777 3.976-3.04 4.453-2.53.152.162.154 3.215.006 6.853a3724.51 3724.51 0 00-.497 12.755l-.228 6.195 2.715-.115c2.252-.096 2.919-.252 3.9-.915.652-.44 1.256-1.088 1.342-1.44.087-.352-.039-1.75-.28-3.107-.545-3.075-.253-3.817 2.31-5.868 2.122-1.697 3.212-1.8 3.6-.338.135.51.597 1.301 1.026 1.76 1.169 1.247 1.272 3.053.279 4.856l-.806 1.463.688 3.898c.38 2.144.69 4.668.69 5.609 0 .941.158 2.167.353 2.725.661 1.897-.239 3.295-3.458 5.37-1.863 1.2-1.983 1.237-2.163.672zm530.55-12.946c-4.115-.134-4.32-.207-4.32-1.525 0-.893.302-1.401 1.615-2.714.889-.888 1.761-1.615 1.939-1.615.178 0 .855-.407 1.505-.903 1.35-1.033 5.145-2.617 6.268-2.617.415 0 .899-.18 1.075-.4.177-.22.393-2.992.48-6.16.089-3.22.323-6.171.53-6.692.757-1.9-.178-1.615-2.754.839-2.644 2.518-5.62 4.228-7.955 4.57-2.145.314-2.233.057-1.267-3.713.468-1.828.983-3.947 1.142-4.707.16-.761.589-1.801.952-2.312.87-1.222 3.154-3.045 4.108-3.28.74-.18.754-.146.552 1.378-.114.86-.492 2.674-.839 4.031-.78 3.053-.792 3.646-.071 3.645.659-.002 1.742-.68 4.491-2.808 1.525-1.18 2.236-2.016 2.94-3.454 1.15-2.353 1.727-3.04 3.442-4.1 1.721-1.064 2.478-1.105 2.196-.117-1.033 3.63-1.76 8.855-1.97 14.144-.222 5.65-.214 5.613-2.248 10.347-.248.578-.451 1.288-.451 1.579 0 1.45-1.398 3.332-3.748 5.048-1.985 1.45-2.618 1.75-3.572 1.696a241.73 241.73 0 00-4.04-.16zm6.377-5.397c.552-.552 1.005-1.982.719-2.268-.22-.22-3.096 2.093-3.096 2.49 0 .48 1.847.308 2.377-.222zm-498.91.453c.124-1.053.516-2.1 1.084-2.897 2.324-3.26 3.913-7.907 3.925-11.472.003-.802.216-1.739.474-2.08.32-.422.473-1.437.48-3.16.013-3.176.693-4.668 2.9-6.365 2.468-1.897 2.723-1.668 2.65 2.39l-.061 3.386 1.768-1.854c.972-1.019 2.258-2.187 2.858-2.596.6-.408 1.092-.975 1.093-1.26.003-.77 1.105-2.029 3.167-3.615 1.155-.889 1.99-1.323 2.244-1.167.296.183.38 1.227.317 3.895-.06 2.5.04 3.88.32 4.394.233.427.363 1.46.302 2.4-.132 2.021.263 2.12 1.624.407.794-1 .989-1.546.989-2.776 0-1.764.779-2.905 3.054-4.47 2.1-1.445 2.386-1.319 2.382 1.05-.003 1.809-.112 2.137-1.144 3.436-.628.79-1.247 1.51-1.374 1.6-.128.09-.54.668-.917 1.284-.778 1.273-3.989 4.48-4.485 4.48-.18 0-1.048.648-1.929 1.44-.88.792-1.682 1.44-1.78 1.44-.099 0-.71.36-1.358.8-1.643 1.115-2.822 1.044-4-.24-.524-.572-1.035-1.364-1.136-1.76-.249-.98-.855-.905-2.462.306-1.172.884-1.592 1.566-3.026 4.92-.916 2.14-1.665 4.115-1.665 4.387 0 .745-3.128 4.017-4.517 4.725-1.85.944-2 .857-1.777-1.028zm467.1-2.805c-3.511-.177-3.69-.22-4.076-.985-.494-.98-.533-3.482-.072-4.695.376-.988 5.25-5.83 7.02-6.972a18.954 18.954 0 002.193-1.728c.59-.553 1.228-1.005 1.415-1.005s.593-.228.901-.507c.831-.752 5.068-3.116 6.709-3.742.786-.3 1.95-.976 2.587-1.5 1-.825 1.19-1.203 1.386-2.773.125-1 .301-2.012.392-2.248.104-.272-.071-.43-.475-.43-.352 0-.72.21-.82.466-.198.519-2.247 1.909-4.209 2.856-1.859.898-7.5 1.134-8.677.363l-.836-.548.208-3.728c.114-2.051.344-4.665.51-5.81s.454-3.16.64-4.48c.752-5.308.78-5.396 2.235-6.88 1.484-1.51 3.977-3.009 4.365-2.621.13.13.076.702-.122 1.27-.343.982-.903 4.364-1.656 9.992-.189 1.408-.38 3.856-.425 5.44l-.082 2.88 2.997.092c3.378.105 4.142-.188 5.048-1.935.721-1.39 1.654-5.074 1.884-7.437.337-3.468.86-6.386 1.299-7.243.86-1.682 4.437-4.376 5.348-4.026.714.274.337 5.816-.625 9.188-.514 1.802-.88 4.233-1.086 7.2-.17 2.465-.397 4.877-.504 5.36-.328 1.483.684 1.072 2.953-1.197 1.876-1.876 3.38-2.776 3.85-2.305.691.69-2.387 4.287-5.836 6.819-2.224 1.633-2.097 1.366-3.648 7.644-1.043 4.223-2.315 6.33-4.912 8.138a28.024 28.024 0 00-2.514 2.024c-1.04.964-4.89 3.562-6.854 4.626-1.01.547-2.437.643-6.511.437zm10.652-5.438c1.636-.745 3.592-2.586 3.828-3.602.524-2.262 2.174-8.364 2.33-8.616.383-.62-.877-.668-1.555-.058-.387.348-1.352.949-2.144 1.336s-1.656.841-1.92 1.009c-.264.167-1.128.593-1.92.944-2.146.954-3.73 1.965-5.978 3.815-2.056 1.692-2.297 2.222-2.045 4.505.138 1.244.256 1.28 4.19 1.28 3.13 0 4.125-.117 5.214-.613zm66.963 2.617c-.515-.076-1.449-.486-2.075-.91-.904-.615-1.55-.774-3.143-.774-1.661 0-2.006-.092-2.006-.535 0-.612 2.109-2.71 4.088-4.066 1.191-.816 1.446-.878 2.246-.546.497.205 1.529.403 2.294.44 1.592.076 1.31.609 2.861-5.406.504-1.954 1.162-4.072 1.463-4.705.64-1.348 3.794-4.062 4.721-4.062.782 0 .762.15-.787 6.08-.62 2.376-1.313 5.4-1.539 6.72-.225 1.32-.606 2.796-.846 3.28-.476.957-4.463 4.4-5.097 4.4-.215 0-.583.05-.818.11-.234.061-.847.05-1.362-.026zm-715.07-.693c-1.813-.574-2.908-1.447-6.809-5.43-3.806-3.887-4.147-4.156-4.9-3.87-.941.358-19.313.417-19.842.064-1.226-.819-1.472-4.146-.454-6.143.878-1.72 3.865-4.872 5.786-6.105 2.115-1.357 3.442-1.217 6.868.724 2.614 1.48 6.747 3.129 7.845 3.129.732 0 .816-.322 1.248-4.8.42-4.357.498-7.164.211-7.629-.126-.204-.944-.371-1.818-.371-4.69 0-8.858-3.393-12.014-9.779l-1.161-2.349.174-5.536c.102-3.226.374-6.337.652-7.456.263-1.056.724-2.917 1.025-4.135.447-1.81.817-2.504 2.019-3.788 1.55-1.658 3.06-2.633 3.58-2.311.515.318.354 1.901-.462 4.537-1.535 4.96-1.985 13.14-.882 16.013 1.36 3.54 4.656 7.648 7.152 8.912 1.696.86 2.59.969 3.06.372.77-.982 4.099-13.78 4.7-18.08.535-3.82 4.204-9.047 9.145-13.026C42.081 8.2 43.168 7.67 44.943 7.67c2.316 0 3.532.86 5.665 4.004 1.629 2.402 1.855 3.353 1.855 7.805 0 8.482-2.077 13.617-7.779 19.235-2.547 2.51-8.048 6.716-8.782 6.716-.137 0-.767.278-1.4.618-.634.34-1.712.718-2.396.842-2.131.385-2.25.535-2.46 3.086l-.54 6.654c-.193 2.376-.504 4.8-.69 5.388-.337 1.055-.31 1.098 2.493 3.984 5.784 5.956 6.622 6.625 8.288 6.627.79.001 1.199-.293 2.16-1.554.652-.855 1.186-1.654 1.186-1.775s.526-1.042 1.17-2.045c.643-1.004 2.158-3.769 3.368-6.145 1.639-3.221 2.58-4.674 3.698-5.714 1.658-1.54 2.897-2.16 3.368-1.69.294.294-1.045 3.803-1.848 4.844-.204.264-.843 1.416-1.421 2.56s-1.233 2.296-1.456 2.56c-.222.264-.721 1.11-1.108 1.879-1.762 3.504-6.298 8.543-9.844 10.937-1.497 1.01-3.028 1.362-4.25.976zM12.74 63.384c.313-.198-.316-.688-2.226-1.734-1.464-.801-2.77-1.39-2.904-1.307s-.34.672-.46 1.31c-.172.92-.096 1.248.37 1.588.657.481 4.52.587 5.22.143zm24.204-21.508c2.447-.67 4.703-2.33 6.116-4.503 2.778-4.272 3.954-8.89 3.961-15.553.002-2.295-.122-2.893-.928-4.48-.513-1.007-1.46-2.443-2.105-3.19-1.103-1.279-1.275-1.36-2.853-1.36-1.333 0-1.816.148-2.34.72-1.129 1.229-2.592 4.323-2.953 6.243-1.163 6.182-1.816 8.872-3.98 16.396-1.128 3.918-1.373 5.44-.945 5.867.342.342 4.628.242 6.027-.14zm888.07 35.452c-.09-.232.115-1.204.455-2.16.757-2.131.863-3.148 1.237-11.818.163-3.784.596-9.328.963-12.32s.864-7.24 1.104-9.44c.24-2.2.728-5.296 1.084-6.88.356-1.584.95-4.548 1.32-6.586.37-2.039.817-4.233.995-4.876.564-2.042 5.007-5.826 6.07-5.17.486.301-.02 3.71-.734 4.952-.354.616-.83 2.056-1.055 3.2-1.224 6.206-2.098 11.545-2.567 15.68-.289 2.552-.733 6.368-.987 8.48-.533 4.433-.925 12-.621 12 .114 0 1.153-.78 2.31-1.735 1.781-1.47 2.453-1.812 4.391-2.24 5.245-1.156 6.341-1.003 4.997.698l-.693.877 1.033.103c1.603.16 1.75-.209 1.296-3.26-.356-2.392-.342-2.79.119-3.493.43-.656.55-2.125.694-8.432.097-4.235.328-8.044.52-8.55.19-.501 1.177-1.603 2.193-2.448 1.015-.845 1.76-1.623 1.654-1.728-.105-.106-2.807-.192-6.005-.192s-5.903-.09-6.014-.2c-.416-.417.758-1.981 2.489-3.316l1.794-1.384 6.946.065c3.882.036 7.465.219 8.125.414.824.244 2.035 1.229 4.016 3.265 5.597 5.752 6.484 7.393 6.484 11.99 0 2.785-.108 3.4-.915 5.202-.504 1.124-1.007 2.425-1.118 2.891-.29 1.21-5.735 6.79-8.276 8.48-1.32.876-3.05 1.677-4.48 2.074-2.795.774-7.79 2.437-8.86 2.95-.496.238-2.895.37-6.763.37h-5.994l-.197 1.886a43.541 43.541 0 00-.197 3.735c0 1.594-.144 2.037-1.044 3.218-1.315 1.724-4.23 4.12-5.014 4.12-.326 0-.666-.19-.755-.422zm27.453-18.967c2.288-.799 4.875-1.646 5.75-1.883 1.716-.465 2.54-1.238 3.018-2.834.168-.558.672-1.879 1.12-2.935.653-1.536.818-2.454.824-4.595.007-2.406-.096-2.872-1.029-4.64-.68-1.29-2.252-3.208-4.583-5.591-3.125-3.195-3.659-3.614-4.484-3.52-.545.062-.954.307-.98.586-.023.264-.059 5.412-.08 11.44l-.036 10.958-1.151 1.274c-.633.701-1.641 1.577-2.24 1.947-1.1.68-1.424 1.268-.69 1.253.22-.004 2.273-.662 4.56-1.46zm2.872 17.549c.137-1.11.658-2.666 1.313-3.92 2.15-4.112 3.696-8.17 4.137-10.853.27-1.646 2.308-4.052 4.537-5.358 1.57-.92 2.144-.757 1.86.531-.11.506-.049.99.142 1.109.186.115.339 1.029.339 2.03 0 1.777.683 5.755 1.106 6.439.116.188.829.342 1.583.342 1.657 0 2.383-.672 2.635-2.44.097-.682.386-1.708.642-2.281.621-1.391 4.131-4.304 5.031-4.176.632.09.675.256.573 2.22-.068 1.307.024 2.206.24 2.339 1.164.72-.823 3.003-4.086 4.697-1.12.581-2.11 1.248-2.2 1.48-.089.234-.612.656-1.163.938-.55.282-1.408.853-1.906 1.268-.767.64-1.256.755-3.219.755-1.54 0-2.522-.157-2.935-.47-.942-.712-1.077-.625-1.889 1.211-1.144 2.588-4.634 5.98-6.154 5.98-.801 0-.81-.024-.586-1.84zm150.17-.64c-.27-.308-1.01-1.568-1.645-2.8l-1.151-2.24.317-6.56c.458-9.462.452-9.444 6.987-22.4 2.175-4.312 4.217-8.56 4.538-9.44 1.3-3.56 3.545-9.263 3.774-9.58.134-.187.787-1.708 1.45-3.38 1.229-3.1 2.169-4.389 4.611-6.32 1.892-1.496 2.948-1.242 2.011.484-.47.867-4.022 9.531-5.147 12.556-1.21 3.257-3.645 8.38-8.742 18.4-3.24 6.37-3.789 8.857-3.847 17.44-.047 6.949-.263 6.336 2.071 5.868.759-.152.852-.056 1.037 1.063.477 2.886.303 3.64-1.15 5-2.605 2.436-4.144 3.01-5.114 1.91zm16.794.028c-.596-.24-.487-.91.35-2.144.528-.778.857-1.94 1.117-3.934.69-5.319.9-8.767.547-9.055-.183-.15-1.702-.323-3.374-.384-2.384-.088-3.368-.273-4.56-.86l-1.52-.748v-4.088c0-2.248.138-4.816.307-5.705s.455-2.8.636-4.247c.593-4.73 3.668-8.764 9.836-12.91 2.808-1.887 2.575-1.402 3.621-7.553.588-3.455 2.396-12.372 2.727-13.448.25-.809 2.432-2.878 3.74-3.545 1.094-.559 1.247-.571 1.42-.119.243.633-.35 4.427-1.349 8.632-.862 3.633-2.063 11.078-1.845 11.44.08.132.573.24 1.096.24 2.144 0 7.712 2.35 9.277 3.915 1.562 1.562 1.664 2.15 1.241 7.125-.657 7.721-2.098 10.982-7.003 15.84-3.178 3.147-4.817 4.435-7.127 5.598l-1.35.68-.703 5.694c-.694 5.625-.715 5.708-1.773 6.821-2.292 2.412-3.985 3.29-5.31 2.755zm2.255-20.563c.608-.231.815-.596.956-1.68.1-.762.405-2.393.68-3.625.276-1.232.647-4.472.826-7.2s.465-5.817.638-6.865c.237-1.443.218-1.965-.081-2.155-.56-.355-.696-.328-1.551.308-.42.313-1.171.776-1.67 1.029-1.232.625-2.419 2.76-2.786 5.016-1.052 6.467-1.267 8.35-1.267 11.096 0 3.372.084 3.515 2.4 4.074.528.127.986.246 1.019.264.033.018.409-.1.836-.262zm10.835-.474c1.321-1.164 2.505-3.257 3.49-6.17.748-2.214.94-3.453 1.126-7.278l.224-4.61-.925-.87c-1.03-.968-4.452-2.702-5.333-2.703-.855 0-1.117 1.094-1.345 5.629-.114 2.272-.55 5.931-.968 8.131-.82 4.311-1.097 7.6-.693 8.24.15.239.922.396 1.913.39 1.277-.008 1.858-.183 2.511-.759zm-483.16 20.603c-.981-.395-1.123-1.294-.732-4.633.819-6.993.905-7.22 3.565-9.383 2.875-2.339 3.232-1.885 2.353 2.983-.255 1.408-.466 3.372-.47 4.365-.006 2.042.16 2.195 2.402 2.195 1.175 0 1.712-.244 3.413-1.547 2.51-1.922 3.378-2.393 3.984-2.16.413.158.406.296-.055 1.064-.583.97-5.28 4.882-5.864 4.882-.201 0-.366.108-.368.24-.003.264-1.56 1.255-2.994 1.905-1.035.469-4.158.522-5.234.089zm371.92-1.261c-.092-.149-.034-1.688.13-3.421.494-5.258.752-30.092.333-32.031-.2-.924-.475-1.68-.612-1.68-.35 0-.648 2.818-.678 6.4-.014 1.672-.126 3.295-.25 3.607-.693 1.754-12.599 13.673-13.658 13.673-.144 0-.514.229-.823.508-.319.289-1.402.585-2.505.685-1.07.097-1.955.192-1.97.211-.013.02-.212 1.692-.441 3.716l-.417 3.68-2.038 1.851c-2.048 1.86-3.273 2.482-3.818 1.936-.376-.375.147-7.403.704-9.469.535-1.985.296-2.216-3.397-3.285-3.8-1.1-5.725-2.19-7.023-3.973-2.15-2.953-2.424-3.817-2.424-7.664 0-3.399.036-3.578 1.138-5.693.626-1.2 1.739-2.903 2.473-3.783 2.15-2.575 6.675-6.787 9.06-8.432 1.877-1.293 2.224-1.679 2.311-2.566.056-.574-.07-1.251-.28-1.505-.247-.296-.363-1.522-.328-3.439.03-1.638-.085-3.347-.256-3.798-.251-.662-.168-1.031.435-1.919.939-1.38 4.084-3.78 4.956-3.78.618 0 .644.127.448 2.232-.142 1.525-.088 2.377.17 2.688.254.306.376 2.033.373 5.272 0 3.25.112 4.891.357 5.042.2.123 1.672.33 3.273.458 3.441.277 6.941 1.19 9.715 2.535 1.103.535 2.089.972 2.19.972s.613.304 1.134.675 1.048.575 1.17.454.262-2.046.312-4.275c.05-2.23.167-4.4.259-4.824.355-1.632 4.417-4.81 5.177-4.05.12.12.171 2.406.116 5.082-.074 3.582.037 5.531.421 7.39.454 2.199.504 4.71.39 19.505l-.132 16.98-1.922 1.807c-1.867 1.755-3.734 2.776-4.072 2.228zM1013.92 53.76c3.888-3.893 3.968-4.103 3.978-10.496l.01-5.206-3.106-1.452c-2.206-1.03-3.834-1.554-5.616-1.806-3.472-.491-3.413-.577-3.763 5.543-.155 2.71-.513 6.694-.795 8.854-.283 2.16-.47 4.608-.417 5.44l.097 1.512 2.08.185c4.888.434 4.341.621 7.534-2.575zm-15.09.07c.688-3.47.97-7.221.983-13.04l.014-6.72-3.468-.198-1.786 1.88c-.982 1.033-2.216 2.73-2.74 3.77-.833 1.648-.97 2.308-1.075 5.129-.132 3.554 0 3.991 2.062 6.862a7.184 7.184 0 002.772 2.343c2.257 1.098 3.017 1.092 3.238-.027zm141.72 18.751c-.572-.572.263-1.872 2.385-3.71 1.534-1.33 2.147-2.198 3.546-5.022l1.692-3.413.069-11.583c.07-12.03-.375-21.204-1.227-25.255-.777-3.695-.662-4.53.854-6.174 1.507-1.635 3.316-2.854 3.795-2.558.18.11.328.732.33 1.382 0 .65.206 2.045.45 3.101 1.026 4.433 1.686 17.624 1.466 29.318l-.16 8.519-1.76 3.474c-2.398 4.736-5.826 8.983-9.025 11.184-1.786 1.229-1.891 1.26-2.414.738zm-507.49-1.725c-.104-.272-.12-1.205-.037-2.074.114-1.194.44-1.95 1.33-3.093.647-.831 1.258-1.878 1.356-2.326.099-.448.46-1.657.801-2.688.66-1.989.474-2.766-.662-2.766-.3 0-2.07-.575-3.934-1.278-2.68-1.01-3.672-1.563-4.737-2.64l-1.346-1.362.178-3.891c.175-3.822.271-4.222 1.828-7.629.16-.352.562-1.371.89-2.265.33-.893 1.018-2.1 1.53-2.68 1.087-1.231 3.092-2.575 3.842-2.575.745 0 .387 1.617-1.133 5.12-1.076 2.481-1.248 3.237-1.438 6.29l-.216 3.47 1.059 1.125c.74.787 1.754 1.36 3.367 1.905 1.27.428 2.422.666 2.56.528.138-.137.323-3.901.411-8.364l.16-8.114.96-1.008c1.195-1.255 3.55-2.67 3.99-2.398.55.34.425 16.581-.144 18.72-.256.964-.352 1.867-.213 2.006.14.14 1.54.287 3.11.327 2.542.065 3.034-.02 4.457-.765 1.487-.779 1.648-.984 2.272-2.894.5-1.527.664-2.808.64-4.981-.029-2.68-.101-3.001-.86-3.826-.456-.496-1.132-1.503-1.503-2.238-.968-1.92-1.447-2.747-1.963-3.388-.421-.525-1.04-3.447-1.025-4.843.01-.804 1.72-2.573 3.784-3.912 2.53-1.641 3.787-1.417 2.639.47-.712 1.171-.792 2.446-.219 3.488.218.395.945 1.742 1.617 2.993.672 1.25 1.644 2.857 2.16 3.57.885 1.22.939 1.473.939 4.407 0 1.948-.18 3.62-.48 4.472-.264.748-.48 1.69-.48 2.095 0 1.09-5.235 6.166-7.75 7.515-4.385 2.352-5.14 2.656-7.07 2.84l-1.98.19-.386 1.6c-.212.88-.742 2.32-1.178 3.2s-.945 2.19-1.132 2.91c-.256.986-.796 1.706-2.182 2.909-1.707 1.48-2.968 2.34-3.431 2.34-.106 0-.277-.221-.38-.493zm99.73-.403c0-.493.134-1.033.3-1.2.412-.416 1.299-4.803 1.299-6.425 0-1.55-.333-1.895-2.253-2.33-2.023-.457-6.723-2.562-8.447-3.782l-1.46-1.034v-2.401c0-1.91.229-3.066 1.119-5.652.615-1.788 1.292-3.46 1.504-3.716.212-.255 1.124-1.927 2.025-3.714 1.385-2.746 1.93-3.486 3.52-4.77 1.872-1.513 3.032-1.924 3.032-1.073 0 .246-.432 1.318-.96 2.382-.528 1.065-.96 2.008-.96 2.097 0 .09-.408.781-.907 1.538-1.973 2.992-3.59 10.112-2.576 11.346.586.715 6.272 3.404 6.673 3.156.498-.307.901-2.248 1.431-6.886.272-2.376.802-5.688 1.178-7.36.668-2.969.728-3.082 2.54-4.837 2.01-1.947 3.098-2.472 3.414-1.649.106.278-.113 1.887-.487 3.576-.374 1.688-.768 4.006-.876 5.15-.108 1.144-.466 3.88-.795 6.08-.909 6.078-.954 6.53-.692 6.95.153.246 1.567.471 3.826.608l3.584.218.448-1.088c.333-.807.508-3.687.677-11.168.262-11.55.173-11.177 3.288-13.84 2.074-1.773 3.166-2.024 2.79-.64-.236.864-.737 15.698-.547 16.15.054.128 1.13-.56 2.393-1.53 1.262-.968 2.516-1.717 2.787-1.663.673.133.47 2.636-.317 3.923-.571.932-2.93 2.892-4.392 3.65-.396.205-.72.552-.72.77 0 .22-.483 1.406-1.073 2.638-.843 1.759-1.637 2.763-3.693 4.673-3.002 2.79-4.336 3.341-7.406 3.063-2.515-.228-2.577-.128-2.84 4.58-.065 1.158-4.673 5.106-5.959 5.106-.3 0-.469-.322-.469-.896zm-273.41-.022c-.095-.152-.017-1.268.174-2.48.499-3.17.7-8.469.335-8.833-.169-.17-1.943-.435-3.942-.59-4.955-.385-6.008-.722-7.964-2.549l-1.645-1.535.033-5.068c.041-6.227.118-6.716 1.524-9.707 1.22-2.595 2.308-3.918 4.62-5.626 2.608-1.923 2.79-1.453.88 2.266l-1.315 2.56-.166 5.494-.167 5.494 1.155 1.409c.936 1.142 1.465 1.48 2.787 1.786.898.208 2.248.377 3 .377h1.367l.186-3.944c.103-2.169.104-5.319.004-7-.1-1.681-.088-3.43.026-3.888.235-.936 2.45-3.212 3.83-3.937 1.865-.98 1.855-1.032 1.787 9.36-.052 7.78.016 9.528.38 9.759.244.154 1.331.283 2.415.285 1.8.005 2.042-.079 2.777-.952 1.051-1.249 1.268-3.092 1.092-9.306-.131-4.649-.208-5.137-1.304-8.373-.761-2.245-1.153-3.97-1.13-4.98.02-.848-.153-1.843-.382-2.21-.367-.587-.31-.794.467-1.718 1.929-2.292 4.46-3.808 6.37-3.814.455-.001.534.155.363.718a4.126 4.126 0 01-.704 1.271c-.615.702-.41 4.991.32 6.65 1.283 2.92 1.52 4.587 1.52 10.712 0 5.583-.052 6.12-.714 7.446-1.23 2.465-7.824 8.283-10.887 9.607-.878.38-.88.386-.88 3.677v3.297l-1.84 1.784c-2.672 2.591-3.907 3.313-4.373 2.559zm-69.947-.706c0-.927 2.52-4.15 5.58-7.133 1.553-1.515 2.419-2.577 2.174-2.668-.223-.084-.625-.372-.893-.64-.436-.436-.432-.57.038-1.29 1.297-1.979 3.83-3.702 6.182-4.207 2.137-.458 2.039-.478 1.783.362-.331 1.086 3.739-3.129 4.812-4.983.878-1.52.889-1.6.67-5.12-.28-4.475-1.475-10.703-2.5-13.017-.429-.968-.714-1.976-.634-2.24.08-.264.734-1.092 1.453-1.84 1.235-1.284 1.265-1.36.543-1.36-.421 0-1.592.231-2.601.515-1.44.404-2.056.788-2.854 1.781-2.15 2.675-5.113 4.016-5.585 2.527-.68-2.144 3.658-5.99 9.058-8.032 4.719-1.784 8.545-2.394 14.454-2.307 3.012.044 5.692.236 6.24.446.528.203 1.55.93 2.27 1.617l1.31 1.248 3.101-3.046c2.183-2.143 3.453-3.143 4.29-3.376 2.487-.69 2.593-.229.553 2.4-1.076 1.384-1.35 1.953-1.095 2.261.245.296.222.632-.084 1.19-.773 1.413-2.766 4.301-3.118 4.519-.56.346-.4 1.176.617 3.181.576 1.135.956 2.382.956 3.133 0 .686.324 1.854.72 2.595.66 1.233.72 1.774.72 6.378v5.03l-2.08 2.103c-1.144 1.157-2.692 2.464-3.44 2.903-.748.44-1.36.912-1.36 1.048 0 .495-5.335 2.937-7.36 3.37-6.035 1.287-9.638 2.183-10.487 2.607-.522.26-2.08.617-3.462.792-3.28.416-3.438.475-5.696 2.117-1.97 1.433-2.726 1.704-2.791 1-.133-1.442-.045-1.417-2.015-.573-.87.373-2.262 1.494-3.598 2.897-2.21 2.322-4.862 4.475-5.513 4.475-.197 0-.358-.299-.358-.664zm20.16-13.416c0-.176-.144-.32-.32-.32s-.32.144-.32.32.144.32.32.32.32-.144.32-.32zm7.68-1.615c1.496-.498 3.944-1.137 5.44-1.42 6.332-1.194 8.743-2.07 9.281-3.368.568-1.37.115-8.415-.636-9.917-.309-.616-.661-1.81-.784-2.653-.283-1.936-1.03-3.748-1.545-3.744-.218.002-.9.524-1.516 1.16-.616.636-1.984 1.808-3.04 2.604-1.975 1.49-5.905 5.449-5.915 5.96-.003.158-.487.878-1.075 1.6-1.578 1.935-1.81 2.52-1.81 4.563 0 1.85-.003 1.855-1.942 3.7-1.068 1.017-2.291 1.936-2.718 2.043-.426.107-.698.32-.603.474.3.485 4.036-.06 6.863-1.002zm-.318-13.985c.833-1.064 5.42-6.105 7.198-7.91 1.517-1.54 2.4-2.838 2.4-3.526 0-.667-2.445-3.288-3.648-3.91-1.042-.54-8.402-.992-9.922-.61-1.024.257-1.026.455-.033 2.937.913 2.284 1.94 7.408 2.254 11.259.238 2.916.579 3.258 1.751 1.76zm366.72 29.11c0-.312.198-.852.44-1.2.281-.403.483-1.84.56-3.99l.12-3.36-2.24-.181c-3.204-.259-5.11-1.007-7.842-3.075-1.318-.999-2.503-1.97-2.633-2.16-.31-.455-.275-5.045.055-7.056.235-1.434.494-1.812 2.605-3.797 1.29-1.212 2.878-2.542 3.531-2.954s1.539-1.08 1.968-1.483c1.292-1.214 3.905-2.976 6.114-4.12 2.501-1.298 2.325-.52 2.627-11.576l.207-7.601 1.722-1.75c1.867-1.897 3.552-2.95 4-2.502.16.16.144.753-.037 1.385-.174.608-.317 3.552-.317 6.543 0 2.99-.231 7.793-.514 10.672-.325 3.311-.402 5.346-.21 5.539.168.167 1.803.431 3.635.586 3.696.313 5.744.86 8.126 2.171 2.248 1.237 2.407 1.72 2.128 6.495-.273 4.678-.354 4.835-4.381 8.468-2.114 1.907-6.253 4.955-6.729 4.955-.093 0-.783.28-1.533.621-.75.342-2.098.719-2.995.838-1.785.237-1.994.523-2.002 2.746-.005 1.37-1.52 3.391-3.905 5.21-1.647 1.257-2.5 1.453-2.5.577zm15.127-14.102c3.172-1.451 3.273-1.649 3.273-6.401V45.27l-2.084-1.022c-2.354-1.154-6.211-1.93-6.871-1.382-.225.186-.575 1.523-.777 2.971a864.863 864.863 0 01-.879 6.056c-.28 1.883-.427 3.64-.325 3.904.13.34.78.515 2.2.595 1.11.063 2.344.142 2.743.176.4.034 1.624-.349 2.72-.85zm-12.926-.768c.182-.572.486-2.408.677-4.08.19-1.672.532-4.52.76-6.327.499-3.96.444-4.046-2.435-3.857-1.846.12-2.193.272-4.46 1.953-1.35 1.002-2.533 2.076-2.627 2.386-.402 1.333-.335 6.41.091 6.924.798.962 4.6 3.499 5.601 3.738 1.793.428 2.048.35 2.393-.737zm-415.32 14.204c0-.152.436-.824.968-1.494.532-.669 1.024-1.517 1.093-1.884.584-3.081.875-5.262.774-5.793-.103-.536-.464-.662-2.358-.822-2.78-.234-4.431-.737-6.078-1.85-1.068-.723-1.42-1.258-2.138-3.253-.473-1.314-.87-2.856-.88-3.428-.018-.938-.115-1.04-.98-1.04-1.182 0-1.222-.481-.16-1.92.44-.597.8-1.392.8-1.767s.36-1.712.8-2.972.8-2.595.8-2.969c0-1.328 4.888-5.43 5.61-4.708.078.077-.149 1.642-.503 3.478-1.084 5.617-1.147 7.806-.303 10.482.532 1.685 1.018 2.565 1.794 3.246 1.14 1 3.29 1.768 3.728 1.33.722-.721 1.233-4.118 1.415-9.4.107-3.124.106-5.68-.003-5.68s-.705.241-1.324.537c-1.28.61-1.62.456-1.335-.603.372-1.384 6.56-6.974 7.72-6.974.21 0 1.275-.85 2.366-1.888 1.851-1.76 3.68-2.894 4.06-2.514.09.09.45 1.37.802 2.843.827 3.47 2.503 6.702 4.654 8.975l1.719 1.816v2.274c0 1.25-.197 2.737-.437 3.304-.575 1.357-3.743 4.419-6.487 6.27-7.373 4.977-8.436 6.111-8.436 9 0 .715-.2 1.776-.442 2.357-.462 1.105-3.565 4.043-5.125 4.852-1.003.52-2.113.623-2.113.195zm11.81-15.627c.633-.475 1.223-.944 1.31-1.041.089-.098.781-.6 1.54-1.114 2.319-1.574 2.94-2.535 2.94-4.546 0-1.661-.083-1.843-1.566-3.415-1.838-1.949-4.193-6.175-4.572-8.208-.257-1.374-.723-2.219-1.045-1.896-.086.085-.3 3.18-.476 6.879s-.538 7.651-.805 8.784c-.505 2.142-.651 4.837-.282 5.206.472.473 1.87.165 2.956-.65zM68.155 68.476c-.775-.491.248-1.875 2.548-3.447l1.99-1.36h8.72c4.796 0 11.335-.094 14.531-.21 5.702-.207 5.811-.198 5.811.441 0 .634-2.568 3.092-4.05 3.875-.451.239-5.11.477-13.44.687-15.515.39-15.514.39-16.11.014zm251.03-2.967c-.081-.22-.334-1.984-.561-3.92l-.413-3.52h-1.581c-2.165 0-2.165-.544-.002-2.807 1.686-1.764 1.765-1.924 1.765-3.543 0-1.472.146-1.865 1.114-2.995 1.108-1.295 3.55-2.776 4.06-2.462.146.09.266 1.363.266 2.827 0 1.974.124 2.765.48 3.06.347.289 1.72.365 5.012.279 3.588-.094 4.563-.029 4.677.31.193.577-2.814 3.362-4.522 4.189-.753.364-1.972.662-2.708.662h-1.339v1.643c0 2.107-.772 3.369-3.203 5.24-1.897 1.46-2.778 1.76-3.045 1.037zm26.053-.454c-.787-.095-1.262-.363-1.494-.842-2.207-4.576-2.145-4.333-2.254-8.704l-.103-4.16.993-1.371c.547-.755 1.35-1.534 1.784-1.732.434-.198.79-.466.79-.597 0-.203 1.878-1.018 1.943-.843.013.035.092 2.066.175 4.514.135 3.955.252 4.686 1.043 6.56.842 1.993.955 2.115 2.038 2.207.899.077 1.188-.034 1.34-.515.107-.337.723-1.101 1.369-1.698 3.34-3.086 4.629-2.924 3.767.473-.43 1.689-2.382 3.945-4.956 5.725-1.174.812-1.794 1.007-3.36 1.058-1.056.035-2.44.001-3.075-.075zm515.39-.748c-.11-.178-.098-2.534.026-5.235.297-6.492.205-6.922-1.628-7.676-2.33-.958-2.475-.755-2.218 3.09.27 4.016.05 4.563-2.773 6.921-3.014 2.519-2.992 2.553-3.079-4.782-.076-6.404-.193-7.296-2.545-19.356-.582-2.981-.92-8.36-.606-9.614.227-.905 1.958-2.782 3.454-3.746.903-.582 1.851-.742 1.851-.311 0 2.633.396 7.533.758 9.37.257 1.31.556 2.957.663 3.661.107.704.585 3.26 1.062 5.68.99 5.023.735 4.793 4.371 3.925 1.83-.437 1.952-.425 3.598.353 2.617 1.239 2.668 1.38 2.668 7.393v5.21h.736c1.075 0 1.504-.598 1.504-2.094 0-3.196 1.726-6.318 5.61-10.147 3.402-3.354 5.44-4.4 8.578-4.4 3.564 0 3.812.905.91 3.318-1.604 1.333-3.488 1.932-5.402 1.716-1.67-.188-2.288.216-3.241 2.125-.581 1.163-.745 2.068-.793 4.386l-.062 2.92 1.76.95c1.694.915 1.891.947 5.28.848 3.269-.095 3.602-.166 4.67-.983 2.622-2.006 2.563-.343-.088 2.492-2.908 3.108-3.528 3.348-8.65 3.347h-4.252l-1.856-1.12c-1.02-.615-2.004-1.119-2.186-1.119-.182 0-1.218.521-2.304 1.158-1.808 1.061-4.296 2.03-5.235 2.039a.751.751 0 01-.58-.32zm224.99-.266c-.09-.148-.32-.954-.507-1.791-.187-.838-.754-2.409-1.26-3.492-1.26-2.7-2.36-6.462-3.692-12.614-.62-2.863-1.632-6.944-2.25-9.07-1.323-4.554-1.398-5.874-.4-7.054 1.064-1.261 3.717-3.15 4.422-3.15.53 0 .616.236.616 1.69 0 1.595.16 2.345 1.416 6.63.283.968.947 3.776 1.475 6.24.528 2.464 1.337 5.848 1.798 7.52.945 3.427 2.821 7.794 3.278 7.629.368-.133 4.33-5.464 6.977-9.39 5.698-8.445 7.776-12.706 7.776-15.941 0-1.5.093-1.676 1.68-3.179 1.823-1.726 3.036-2.371 3.53-1.878.167.168.248 1.315.178 2.549-.108 1.91-.36 2.71-1.704 5.386-.868 1.73-1.961 3.72-2.429 4.424s-1.237 1.928-1.71 2.72c-.472.792-1.57 2.448-2.439 3.68a559.14 559.14 0 00-2.684 3.84c-.607.88-1.58 2.204-2.163 2.943-3.48 4.412-4.192 5.393-5.118 7.057-1.113 2-1.988 3.016-3.905 4.534-1.196.947-2.536 1.28-2.885.717zm-886-.848c-.086-.086-.048-.914.084-1.84s.255-3.628.273-6.004c.018-2.376.239-5.758.49-7.517.252-1.758.35-3.303.22-3.433-.293-.294-2.55.308-3.406.907-.725.507-2.09.595-2.09.135 0-.639 2.026-2.582 3.978-3.814l2.022-1.278.2-2.34c.292-3.429.328-6.513.08-6.914-.155-.251-.558-.23-1.41.075-2.397.859-2.95 1.225-2.95 1.952 0 1.45-6.813 5.989-8.194 5.46-.295-.114-.447-.684-.447-1.679 0-1.433.1-1.601 2.032-3.45 2.08-1.99 3.985-3.274 5.968-4.024.616-.233 2.014-.832 3.107-1.332 1.092-.499 2.13-.908 2.304-.908.175 0 1.245-.648 2.378-1.44 2.297-1.605 2.356-1.624 3.066-.984.395.356 2.331.506 8.87.686l8.366.231 2.15-1.006c3.92-1.834 4.992-.908 2.067 1.786-2.1 1.935-2.896 2.397-5.562 3.233-1.98.621-2.93.694-9.025.694h-6.812l-.159 1.04c-.087.572-.247 2.32-.354 3.882-.178 2.58-.146 2.823.344 2.635 1.67-.641 5.245-1.21 6.793-1.082 1.53.127 1.882.29 2.666 1.236 1.099 1.324 1.145 2.006.201 2.984-1.099 1.14-3.472 2.745-4.059 2.745-.287 0-.775-.426-1.082-.947-.635-1.075-2.07-1.497-3.913-1.15-.77.144-1.223.445-1.412.94-.556 1.465-1.06 8.41-.876 12.076.213 4.241.028 4.813-2.178 6.747-1.829 1.603-3.2 2.227-3.73 1.698zm391.63-.374c-.116-.116-.117-1.232-.004-2.48.155-1.692.484-2.793 1.294-4.326.774-1.465 1.059-2.386.99-3.2l-.096-1.144-3.68-.078c-3.978-.085-5.12-.245-5.12-.717 0-.553 1.892-2.467 3.604-3.647 1.685-1.16 1.695-1.162 3.578-.814 2.772.512 3.375.154 3.392-2.017.025-3.039.45-4.383 1.79-5.684 1.278-1.238 3.46-2.563 4.221-2.563.575 0 .388 2.282-.544 6.653-.386 1.811-.617 3.431-.513 3.6.33.533 4.087.334 6.845-.364 1.683-.425 2.765-.56 2.959-.366.402.403-.918 1.96-2.89 3.406-1.478 1.086-2.217 1.355-6.25 2.279-1.039.238-2.007.621-2.152.852-.245.392-.625 2.095-1.058 4.74-.282 1.723-1.261 3.054-3.409 4.635-1.914 1.41-2.526 1.665-2.956 1.235zm313.45-.174c-.248-.248-.384-1.539-.384-3.66 0-2.112-.13-3.358-.365-3.504-.201-.124-1.749-.287-3.44-.362-1.691-.076-3.26-.196-3.488-.268-.721-.23.259-1.593 2.169-3.018 1.65-1.232 2.105-1.438 3.684-1.675.388-.058.682-.387.746-.836.08-.569-.031-.72-.48-.645-1.03.17-1.386-.343-1.386-2 0-1.458.129-1.733 1.499-3.197 1.93-2.063 4.421-3.889 5.123-3.753.426.082.557.465.585 1.704.085 3.827.59 8.177.987 8.507.25.207 3.076.432 7.046.559 4.404.141 6.668.332 6.746.568.177.534-1.775 2.594-3.31 3.493-1.262.74-1.641.791-5.831.791-4.172 0-4.495.044-4.68.628-.11.346-.048.912.138 1.26.185.346.337.9.337 1.229 0 .703-2.59 3.276-4.064 4.035-1.222.63-1.152.624-1.632.144zm-654.95-4.938c.098-2.617.249-6.287.336-8.156.184-3.95-.013-4.341-2.004-3.97-.662.124-1.348.333-1.524.465s-1.256.58-2.4.996c-1.144.416-2.27.944-2.503 1.172-.573.563-.996.522-1.242-.12-.146-.38.25-.935 1.37-1.918 1.635-1.435 5.581-3.947 6.202-3.947.196 0 .723-.24 1.173-.535.744-.488.797-.664.597-2-.121-.805-.355-1.717-.52-2.025-.458-.855-2.223-.692-4.329.4-2.153 1.118-2.348 1.15-2.348.401 0-.6 3.065-3.6 3.679-3.6.203 0 .719-.372 1.145-.827.666-.709.76-1.076.665-2.591l-.112-1.765 1.805-1.749c1.405-1.36 1.992-1.726 2.646-1.649.749.09.883.308 1.236 2.02.681 3.299.883 3.614 2.44 3.805.757.093 4.502.256 8.323.363 8.195.23 8.33.194 11.986-3.1 1.314-1.186 2.85-2.251 3.6-2.499.719-.237 1.307-.631 1.307-.876 0-.917.953-2.21 2.486-3.373 1.83-1.386 2.874-1.549 3.082-.48.247 1.273 1.163 8.697 1.158 9.385-.015 1.69 2.648 2.638 4.325 1.539 1.007-.66.999-1.386-.029-2.554-1.082-1.23-2.062-3.254-2.062-4.257 0-1.248 3.008-3.86 5.498-4.777 1.112-.409 2.305-.769 2.652-.8 1.168-.103.903 1-.606 2.53-1.746 1.771-1.621 2.56.151.959 1.878-1.697 3.703-2.745 4.779-2.745 1.188 0 1.23.48.166 1.92-.751 1.019-.8 1.325-.8 5.023 0 4.37-.041 4.305 2.125 3.322 1.62-.736 1.965-1.63 2.121-5.5.095-2.35.227-2.897.893-3.718 1.093-1.346 2.619-2.344 3.702-2.421l.919-.066-.055 3.2c-.037 2.147-.229 3.61-.582 4.443-.577 1.36-4.212 5.137-5.265 5.472-.362.114-.658.33-.658.478 0 .598-7.33 4.167-8.56 4.167-.284 0-.4-.693-.4-2.4 0-1.32-.123-2.4-.272-2.4-.15 0-1.194.697-2.32 1.548-1.126.852-2.408 1.74-2.848 1.973-1.908 1.012-2.892 2.073-3.097 3.338-.145.9-.598 1.653-1.584 2.639-1.55 1.55-3.218 2.66-4.003 2.661-.727.002-.955-1.803-.4-3.158.245-.593.444-1.86.444-2.813 0-1.491-.183-2.015-1.304-3.721-1.105-1.685-1.282-2.183-1.167-3.279.076-.71.518-1.895.984-2.633.886-1.404 1.052-2.15.546-2.463-.309-.19-.511-.005-1.636 1.496-.628.839-4.954 4.584-7.428 6.432-.662.495-2.008 1.268-2.99 1.718-1.781.815-1.808.817-7.676.585l-5.89-.232v1.613c0 1.257.125 1.653.562 1.791.31.098 3.153.251 6.32.34 6.613.186 6.848.31 4.597 2.408-.753.703-1.462 1.277-1.575 1.277s-.537.288-.943.64c-.652.565-1.197.64-4.67.64-2.584 0-4.01.125-4.156.363-.124.2-.224 2.953-.224 6.12v5.758l-.947 1.078c-1.35 1.537-3.178 2.923-4.195 3.178l-.873.219zm569.86 2.87c-.117-.306.166-1.24.663-2.19.477-.911.898-2.065.935-2.565.079-1.068-.568-1.35-3.213-1.4-1.433-.028-1.68-.123-1.68-.648 0-.905 3.112-3.492 4.798-3.988 1.23-.361 1.551-.643 2.225-1.952.46-.894 1.565-2.177 2.659-3.087 1.863-1.551 2.764-1.919 2.836-1.158.043.458.073.321-.711 3.28-.764 2.883-.593 3.04 3.294 3.04 2.475 0 2.818.069 2.808.56-.013.706-.726 1.541-2.514 2.944-1.144.897-1.748 1.127-3.242 1.235-1.733.125-1.873.2-2.505 1.325-.369.656-1.373 1.828-2.232 2.605-2.937 2.654-3.723 3.035-4.12 1.999zm-672.98-.691c-.24-.628 2.275-2.943 4.22-3.885 1.492-.722 8.285-1.739 18.172-2.719 2.765-.274 5.376-.631 5.802-.793.426-.162 2.628-.599 4.893-.97 2.265-.371 4.368-.813 4.674-.982.883-.489 1.524-.36 1.524.308 0 .744-2.863 3.321-4.64 4.176-.704.339-3.08.92-5.28 1.291-2.2.372-5.224.94-6.72 1.263s-4.16.684-5.92.803c-3.34.225-8.459.815-13.548 1.56-2.655.39-3.009.384-3.176-.052zm376.7-.524c-.283-.434-.525-1.42-.537-2.194-.017-1.144.197-1.692 1.149-2.938l1.17-1.533v-3.314c0-2.732-.084-3.314-.48-3.314-.666 0-.601-.4.24-1.468.691-.88.727-1.243.93-9.563.117-4.757.354-9.009.529-9.449.373-.943 1.697-2.228 3.26-3.166 2.122-1.271 2.043-1.644 1.791 8.446-.258 10.354-.432 9.758 2.43 8.32 1.944-.976 3.722-1.04 4.66-.165 2.314 2.156 4.309 6.828 4.413 10.337.035 1.195.154 2.262.263 2.372.352.351 1.44-.898 1.662-1.908.366-1.664 2.355-4.435 5.256-7.32 3.447-3.428 4.302-3.897 7.206-3.951 2.569-.048 3.04.054 3.04.657 0 .674-2.567 3.052-3.995 3.7-.707.321-1.947.587-2.756.591-2.351.011-3.45 1.862-3.475 5.857-.012 1.791.083 2.202.546 2.354.308.1 1.364.596 2.346 1.1 1.596.819 2.287.95 6.46 1.23 2.882.193 5.069.2 5.704.018.566-.163 1.835-.924 2.82-1.692 3.67-2.863 4.293-1.789.865 1.491-1.075 1.03-2.531 2.252-3.235 2.717-.704.465-1.352.935-1.44 1.044-1.081 1.34-5.617 1.882-10.83 1.292-2.44-.276-3.37-.547-5.051-1.471-1.134-.623-2.262-1.133-2.507-1.133-.79 0-1.512-.996-1.31-1.806.105-.415.102-.754-.006-.754s-1.281.792-2.606 1.76c-1.794 1.31-2.687 1.76-3.49 1.76h-1.08v-3.064c0-3.58-.964-6.985-2.634-9.311-1.097-1.527-2.053-1.96-3.096-1.4-.546.291-.672.666-.68 2.026-.005.918-.264 3.578-.575 5.911l-.566 4.242-1.425 1.453c-1.227 1.253-3.73 3.023-4.274 3.023-.096 0-.408-.354-.692-.788zm-28.447-1.053c-.103-.836-.292-2.24-.42-3.12l-.23-1.6h-4.48c-4.3 0-4.485-.027-4.576-.668-.068-.474.396-1.086 1.6-2.11 2.284-1.943 2.993-2.293 5.055-2.492l1.76-.17-.085-1.352c-.12-1.924-.635-3.175-1.11-2.7-.52.52-1.845.469-1.845-.07 0-1.217 5.942-5.514 7.27-5.259.443.086.677.781 1.112 3.305.303 1.758.557 3.736.565 4.396.016 1.39.14 1.42 3.477.839 1.39-.242 2.543-.691 3.492-1.36 1.379-.972 1.428-.982 1.87-.377.62.848.607.894-.686 2.442-1.606 1.923-3.92 3.496-5.143 3.496-.553 0-1.339.27-1.746.6-.704.57-.719.664-.303 1.924.425 1.287.41 1.358-.525 2.52-1.238 1.538-3.503 3.276-4.268 3.276-.47 0-.635-.318-.784-1.52zm-371.93.96c-11.025-.101-10.856-.049-8.16-2.553 2.333-2.167 3.68-2.753 5.816-2.531 1.875.194 16.691.314 17.772.143 1.177-.185.884.919-.622 2.348-1.584 1.503-3.87 2.856-4.645 2.75-.264-.037-4.836-.107-10.16-.156zm528.56-1.475c0-.639 2.35-3.199 4.09-4.454 1.326-.958 4.194-2.15 5.17-2.15.809 0 .22 1.2-1.28 2.607-1.551 1.457-6.61 4.432-7.536 4.432a.44.44 0 01-.444-.434zm54.875-3.732c-.345-.56.12-2.409.836-3.319.688-.875 4.528-3.839 6.28-4.847.566-.326 1.138-.484 1.27-.352.265.265-.005.749-2.104 3.78-2.084 3.007-5.676 5.717-6.282 4.738zm-636.56-.841c-.748-.308-.402-.984 1.28-2.501 2.057-1.855 2.604-2.084 5.84-2.443 3.057-.338 8.08-1.119 11.267-1.75 3.098-.614 10.013-.628 10.013-.02 0 .732-1.232 2.056-3.013 3.239-1.595 1.059-1.848 1.124-4.38 1.13-2.77.008-6.27.423-12.927 1.536-4.41.737-7.502 1.047-8.08.809zm983.84-1.936c-4.771-.123-4.985-.225-3.755-1.788.354-.45 1.345-1.334 2.203-1.963l1.558-1.145h6.738c4.337 0 6.812.12 6.945.334.335.543-.684 1.794-2.65 3.254-2.082 1.546-2.04 1.541-11.038 1.308zm-356.51-1.936c.266-2.957.658-3.788 2.61-5.527 2.042-1.82 3.034-1.991 3.2-.553.056.484.236.88.4.88.495 0 .338 1.23-.323 2.524-.917 1.797-4.012 4.516-5.14 4.516h-.912zm-354.55-7.057c-.473-.494-.86-1.086-.86-1.315 0-.23.622-1.031 1.383-1.78 2.34-2.308 3.477-2.623 4.64-1.285.991 1.14.88 1.663-.662 3.092-1.052.975-3.034 2.185-3.58 2.185-.033 0-.448-.404-.92-.897zm-184.73-5.903c.6-17.135.609-18.16.153-18.159-.24 0-.942.754-1.558 1.675-4.703 7.03-11.015 14.005-12.675 14.005-.42 0-.765-.13-.765-.288 0-.158.972-1.465 2.16-2.903 2.326-2.817 3.977-4.994 5.708-7.529 1.353-1.98 7.066-9.483 8.487-11.147 1.214-1.421 3.526-3.093 4.278-3.093.469 0 .499.78.318 8.24-.11 4.532-.332 9.66-.495 11.394s-.296 4.64-.296 6.455c0 3.125-.047 3.357-.868 4.334-1.162 1.38-3.239 2.857-4.02 2.857-.613 0-.625-.17-.427-5.84zm210.11-5.664c0-.168.648-.75 1.44-1.296 1.658-1.14 1.834-.933.476.56-.904.994-1.916 1.382-1.916.736zm671.68-1.701c-.962-.616-1.602-.723-4.64-.775a250.785 250.785 0 01-3.763-.08c-.697-.057.045-1.064 2.659-3.61 1.594-1.552 3.106-3.318 3.36-3.925.253-.607.46-2.117.46-3.354 0-2.423-.155-2.596-1.6-1.77-1.21.692-1.516.59-2.44-.804-.722-1.092-.872-1.727-1.004-4.258-.123-2.338-.045-3.188.36-3.971.924-1.789 4.877-4.543 5.768-4.02.236.14 1.02.94 1.742 1.78 1.873 2.178 2.615 4.783 2.615 9.184v3.444l-1.468 2.202c-.808 1.211-1.816 2.57-2.24 3.02-.425.45-.772.918-.772 1.04s.799.223 1.776.223c2.139 0 5.895 1.452 5.9 2.281 0 .287-.68 1.074-1.516 1.75-.836.674-1.595 1.33-1.687 1.458-.173.24-1.792.914-2.174.905-.12-.003-.722-.327-1.336-.72zm-683.29-6.823c-.604-.605 1.727-3.054 4.402-4.626 1.636-.96 2.676-1.172 3.216-.654.287.276 1.135.14 8.572-1.38 1.38-.281 3.54-.512 4.8-.513 5.667-.003 13.192-1.094 14.15-2.051.657-.657 1.536-.542 1.682.22.146.755-3.237 3.99-4.94 4.726-1.916.826-7.29 1.602-12.44 1.794-4.09.153-7.212.594-12.96 1.83-2.547.548-6.218.918-6.482.654z"/></svg>