<svg viewBox="0 0 312.96 307.2" xmlns="http://www.w3.org/2000/svg"><path d="M147.36 305.67c-.622-.251-.485-.693.662-2.134 1.157-1.454 3.098-4.462 3.098-4.802 0-.117-.26-.212-.576-.212-1.5 0-1.774-1.775-.527-3.41.904-1.185 1.999-1.835 3.61-2.142 2.478-.471 3.106 1.55 1.243 4.007-1.556 2.053-3.11 4.684-3.11 5.265 0 .414.227.472 1.2.303.66-.115 1.604-.368 2.098-.562 1.963-.773 1.745 1.045-.276 2.305-1.817 1.133-6.075 1.925-7.422 1.382zm12.555-.188c-.369-1.017-1.7-5.96-1.88-6.982-.298-1.686.094-3.097 1.154-4.157 1.035-1.036 1.997-1.218 2.297-.435.107.278.194 1.183.194 2.011 0 .828.37 2.58.823 3.894 1.303 3.785 1.302 3.688.046 4.944-1.13 1.13-2.364 1.47-2.634.725zm-80.112-13.15c-.574-.69-.25-1.478 1.182-2.876l1.222-1.193.886.822c1.235 1.144 3.043.63 2.607-.741-.306-.964-.949-1.068-3.933-.637-2.596.376-2.744.364-3.245-.255-.325-.4-.89-.64-1.483-.629l-.958.019.098-4.56c.082-3.795.022-4.56-.36-4.56-.48 0-2.97 3.24-4.461 5.806-.84 1.444-2.544 3.154-3.142 3.154-.728 0-.164-1.68 1.35-4.018 1.698-2.626 7.17-8.512 8.613-9.267 1.55-.81 1.68-.377 1.545 5.17-.15 6.165.113 6.438 2.277 2.362 1.737-3.272 2.873-4.188 5.079-4.092.814.035 2.02-.056 2.68-.202.98-.216 1.2-.175 1.2.226 0 .657-2.495 2.763-3.51 2.964-1.887.373-2.404.71-3.786 2.465-1.778 2.259-1.594 2.597 1.15 2.113 2.69-.474 3.358-.254 4.079 1.346 1.157 2.567.615 4.35-1.811 5.956-1.103.73-1.73.883-4.083.996-2.247.107-2.86.036-3.196-.368zm86.838-.104c-.352-.086-1.763-.506-3.136-.932-2.465-.764-2.661-.774-15.224-.774-19.31 0-21.498-.359-29-4.75-3.51-2.056-5.275-2.866-8.16-3.746-6.98-2.13-10.725-3.425-12.48-4.316-.967-.492-3.127-1.4-4.8-2.02s-3.903-1.516-4.96-1.993c-1.709-.772-4.914-1.95-12.185-4.48-1.246-.434-2.995-1.254-3.887-1.822-3.193-2.035-5.295-3.513-6.442-4.53-1.235-1.095-4.724-3.668-7.846-5.787-1.033-.702-2.257-1.658-2.72-2.124-.462-.467-1.623-1.307-2.58-1.867-.956-.56-2.803-1.834-4.104-2.832a141.982 141.982 0 00-3.735-2.773c-2.05-1.438-4.321-4.454-6.765-8.986a444.15 444.15 0 00-1.461-2.694c-.898-1.614-3.738-8.032-4.816-10.88-2.56-6.767-2.887-7.853-3.803-12.601a512.844 512.844 0 00-1.723-8.519c-.434-2.024-1.08-5.048-1.434-6.72-.354-1.672-1.076-4.264-1.605-5.76s-.964-3.014-.968-3.373c-.003-.359-.232-1.51-.509-2.56-.276-1.049-.706-3.13-.954-4.627s-.665-3.728-.926-4.96c-.334-1.58-.477-4.337-.485-9.36-.007-3.916-.077-7.12-.156-7.12-.08 0-1.529.66-3.22 1.467-1.697.809-3.3 1.38-3.576 1.274-.406-.156-.46-.507-.283-1.866.12-.921.324-3.24.453-5.153.221-3.288.284-3.52 1.14-4.257.5-.43 1.212-.736 1.588-.682.658.094.68.239.634 4.189-.054 4.557-.149 4.418 2.199 3.224 1.634-.83 1.648-.955 1.69-14.676.034-10.708.13-13.244.59-15.52.301-1.496.764-4.664 1.029-7.04s.704-5.112.979-6.08c1.131-3.995 5.288-13.47 7.65-17.44.734-1.232 1.82-3.176 2.412-4.32s1.602-2.8 2.242-3.682c.64-.882 1.94-3.082 2.89-4.89.95-1.807 2.26-3.966 2.912-4.797.652-.83 2.008-2.735 3.013-4.23 1.005-1.497 2.834-3.657 4.065-4.8 7.947-7.389 12.037-11.82 20.057-21.737 2.486-3.074 7.395-7.752 9.584-9.134.69-.436 2.448-1.453 3.907-2.26 1.458-.806 2.723-1.538 2.81-1.625.333-.333-.832-.756-2.092-.76-1.723-.007-2.37-.727-2.37-2.64 0-1.632 1.355-4.987 2.755-6.821 1.884-2.47 7.399-6.12 8.135-5.383.508.508-.667 1.777-2.454 2.65-.855.419-1.823.992-2.15 1.275-.622.538-1.805 2.65-1.805 3.221 0 .2.93.333 2.328.333 1.644 0 2.55.155 3.08.526.683.478.737.698.582 2.4-.217 2.399.078 2.41 2.71.1 4.02-3.528 9.996-7.111 14.02-8.406 5.954-1.917 8.356-2.25 18.72-2.598 8.279-.278 11.814-.63 14.56-1.453a21.744 21.744 0 013.006-.62c3.23-.39 3.991-.751 4.984-2.365.51-.828 1.718-2.189 2.686-3.024.968-.836 1.85-1.8 1.958-2.144.223-.704-.602-2.522-1.26-2.775-.237-.09-1.105.349-1.928.977-1.588 1.212-2.087 1.39-2.086.742.002-.653 4.467-5.025 5.361-5.25.682-.17 1.032.018 2.038 1.096 2.235 2.396 1.98 3.956-1.04 6.395-1.79 1.444-2.501 2.444-2.056 2.89.567.566 7.924-.331 8.456-1.032.142-.187.491-1.31.776-2.497.682-2.843 1.543-4.032 4.578-6.321 2.1-1.583 2.743-1.906 3.815-1.913.709-.005 1.609.216 2 .49.669.468.71.73.71 4.4 0 4.051-.124 4.539-1.722 6.762-.332.462-.51.934-.393 1.05.115.116 1.683.31 3.483.432 5.251.356 12.811 2.44 19.113 5.27 1.32.593 3.552 1.534 4.96 2.091 1.408.557 3.153 1.359 3.878 1.78 2.025 1.18 7.152 2.974 12.282 4.298 5.447 1.406 9.577 2.866 11.261 3.981.663.439 1.264.798 1.335.798.071 0 .938-.948 1.927-2.106 1.92-2.25 2.167-3.138 1.446-5.207-.395-1.133-.901-1.25-2.077-.48-1.016.666-1.532.236-1-.832.586-1.173 3.644-3.536 4.578-3.536.654 0 .934.288 1.48 1.52.372.836.737 2.168.811 2.96.143 1.516.158 1.486-2.4 4.821-.573.746-1.04 1.694-1.04 2.107 0 .694.129.752 1.682.752 1.308 0 1.861-.163 2.48-.731 1.634-1.5 2.361-1.829 4.046-1.829 2.665 0 3.42-1.3 1.843-3.175-.754-.896-1-.984-2.73-.984-1.402 0-1.95-.128-2.088-.485-.468-1.22 2.241-2.716 4.913-2.714 1.666.001 1.975.113 3.053 1.104 1.187 1.09 1.2 1.129 1.2 3.56v2.458l1.12-.182c.967-.156 1.12-.094 1.12.457 0 .807-1.76 2.436-2.904 2.687-1.16.254-1.759.984-2.214 2.692-.368 1.384-1.904 3.222-2.692 3.222-.598 0-1.15-.7-1.15-1.459 0-.38.36-1.222.8-1.87.44-.648.8-1.389.8-1.645 0-.7-1.382-.569-2.397.23-.486.381-1.759 1.011-2.83 1.399s-1.997.858-2.06 1.046c-.062.188.364.588.947.889 2.341 1.208 6.138 4.49 11.485 9.93 5.724 5.822 10.49 10.161 14 12.744 1.073.79 2.938 2.413 4.144 3.606 2.19 2.167 5.832 6.51 5.832 6.957 0 .13.782 1.345 1.738 2.702.956 1.356 2.693 4.33 3.861 6.609 1.168 2.278 2.235 4.256 2.372 4.396.353.36 2.177-.758 2.542-1.56.313-.687.044-1.504-.469-1.425-1 .154-1.404-.3-1.404-1.575 0-1.647.592-2.825 2.075-4.127 1.496-1.313 2.314-1.304 2.87.033 1.198 2.874.906 5.5-.793 7.127-1.506 1.443-1.279 1.753 1.288 1.753 1.955 0 2.24.074 2.24.584 0 1.375-2.382 2.616-5.02 2.616-.738 0-1.433.147-1.544.326-.11.179.219.863.732 1.52s1.337 1.914 1.83 2.794c.495.88 1.296 2.248 1.781 3.04.486.792 1.263 2.376 1.726 3.52.464 1.144.969 2.368 1.122 2.72.712 1.64 1.923 5.583 2.112 6.88.115.792.607 2.736 1.092 4.32 2.116 6.904 2.717 9.924 3.185 16 .19 2.464.486 6.28.658 8.48.173 2.2.7 7.312 1.17 11.36.472 4.048.915 9.304.984 11.68.07 2.376.242 4.436.383 4.578.142.142.674-.091 1.183-.519.51-.427 1.404-.88 1.987-1.008 1.19-.26 1.502-.758 1.207-1.932-.155-.619-.406-.8-1.115-.8-.503 0-1.11-.234-1.349-.522-.38-.46-.225-.707 1.278-2.032 1.877-1.655 2.01-2.468.512-3.15-1.086-.494-.997-1.09.337-2.262 1.519-1.333 3.137-1.382 3.776-.113.808 1.604.898 2.607.34 3.784-.71 1.495-.284 1.81.804.593 1.42-1.59 2.305-2.105 2.846-1.657.264.22 1.48.386 2.847.391 2.92.01 3.296.368 3.296 3.126 0 2.39-.398 3.12-3.138 5.763l-2.24 2.16h-2.174c-1.922 0-2.277-.1-3.07-.86l-.897-.859-1.228.69c-.751.423-2.012.749-3.25.841-2.053.153-2.55.463-2.558 1.596-.003.334-.213 1.702-.467 3.04l-1.098 5.792c-.35 1.848-.872 4.986-1.16 6.974-.287 1.988-.81 4.436-1.16 5.44-.35 1.004-.78 2.397-.956 3.096s-.872 2.45-1.548 3.892c-.676 1.443-1.47 3.608-1.764 4.81-.777 3.177-1.616 5.319-3.426 8.748-.882 1.672-2.067 4.192-2.633 5.6-.565 1.408-1.911 3.812-2.99 5.343-3.305 4.687-3.36 5.134-.43 3.523 2.264-1.244 4.217-1.389 4.933-.365.382.545.667.623 1.619.444 1.33-.25 1.313-.281.657 1.288-.274.656-.453 1.645-.398 2.2l.1 1.007.72-1.353c.751-1.409 2.48-2.61 3.003-2.087.162.161.325 2.946.363 6.187.07 5.854.064 5.904-.8 7.54-1.15 2.18-2.916 3.633-4.42 3.633-2.077 0-2.53-1.35-.975-2.905.515-.514 1.23-.935 1.589-.935.99 0 1.353-1.05 1.25-3.605l-.094-2.315-3.966.222-.49-1.175-.492-1.175-2.232 1.836c-1.227 1.01-2.302 2.018-2.387 2.24-.325.849.716 1.188 2.995.977 1.419-.132 2.288-.085 2.421.13.336.544-2.002 2.497-3.463 2.892-1.845.5-5.038.188-5.573-.544-.957-1.31-.088-2.56 3.776-5.43 1.764-1.311 3.066-3.245 2.54-3.772-.158-.158-.927-.058-1.779.233-1.098.374-1.667.422-2.12.179-1.419-.759-2.252-.255-4.102 2.48-2.132 3.151-4.41 6.105-6.385 8.276-.805.885-2.414 2.686-3.575 4-1.162 1.315-2.944 3.327-3.96 4.47s-2.537 3.089-3.38 4.32c-.841 1.233-2.587 3.263-3.879 4.511-3.17 3.064-10.021 8.216-12.672 9.53-7.843 3.888-13.644 7.015-15.437 8.32-3.553 2.586-4.91 3.406-6.4 3.872-3.62 1.13-8.2 2.785-8.807 3.183-.85.557-6.667 2.426-11.033 3.544a193.16 193.16 0 00-6.444 1.791c-1.696.512-3.424.932-3.84.934-.719.004-4.654 1.043-8.116 2.144-1.562.497-7.925.852-9.28.518zm12.38-4.036c1.353-.457 3.657-1.066 5.12-1.354 1.463-.288 4.1-.935 5.86-1.438 1.76-.503 3.993-1.078 4.96-1.279 2.467-.51 6.745-2.016 6.819-2.4.036-.186-1.357-.407-3.347-.53-3.693-.23-6.024-.98-6.644-2.138-.995-1.858.229-5.403 3.44-9.971 3.857-5.486 7.9-8.892 15.384-12.96 4.563-2.48 11.301-6.53 12.188-7.326 1.81-1.623 6.4-3.659 10.56-4.683 3.383-.833 4.522-1.265 4.297-1.628-.096-.156-.668-.283-1.272-.283-.603 0-2.493-.447-4.2-.994-2.843-.91-3.246-1.145-4.818-2.8-.944-.993-2.291-2.634-2.993-3.646-.703-1.012-1.384-1.84-1.514-1.84-.251 0-1.709.944-1.98 1.282-.088.11-.808.642-1.6 1.182s-1.728 1.31-2.08 1.71c-.838.955-8.757 6.168-10.934 7.197-.933.442-2.166.887-2.741.99-.575.103-2.485.64-4.245 1.193l-3.2 1.006-8.32-.035c-8.084-.033-8.388-.058-10.72-.866-1.32-.457-3.12-.988-4-1.18-1.569-.344-4.25-1.785-7.93-4.263-3.707-2.496-8.12-8.325-9.524-12.578-.202-.61-.526-1.058-.72-.993-.194.065-.733 1.044-1.197 2.177-2.3 5.607-3.901 8.435-6.023 10.633-1.161 1.203-2.8 2.712-3.64 3.352-.839.64-1.526 1.28-1.526 1.419 0 .14 2.196.263 4.88.273 2.684.01 5.6.151 6.48.312.88.161 4.624.444 8.32.628 3.696.184 7.512.535 8.48.78 3.615.913 5.984 1.215 6.667.85.957-.513 1.63-.439 4.417.487 5.238 1.739 8.271 3.937 10.42 7.556 1.254 2.109 1.352 2.45 1.48 5.101.217 4.556.077 4.863-5.757 12.615-2.373 3.155-7.062 7.195-11.445 9.863-3.965 2.413-5.708 3.28-7.503 3.732-.814.205-1.48.491-1.48.636 0 1.472 7.443 1.608 11.58.211zm-40.494-1.555c-.327-.19-1.84-.459-3.36-.596s-3.63-.558-4.685-.933c-1.836-.652-6.974-3.586-8.32-4.752-.912-.789-2.488-2.884-3.367-4.474-.413-.748-.841-1.36-.952-1.36s-.521.433-.913.963-1.32 1.352-2.06 1.827-1.42.917-1.508.983c-.292.219 1.073 1.027 1.741 1.03.95.005 3.515 1.262 7.875 3.86 4.982 2.968 7.562 3.683 13.584 3.763 1.975.027 2.424-.045 1.965-.311zm36.126-4c1.578-.904 3.514-1.967 4.302-2.363 2.87-1.442 6.081-5.102 10.166-11.592.976-1.55 1.04-1.831 1.04-4.564 0-2.477-.12-3.154-.814-4.545-1.03-2.066-3.217-4.572-3.991-4.572-.59 0-.729.262-1.106 2.08-.11.528-.374 1.176-.587 1.44-.871 1.077-6.968 6.422-9.619 8.433-5.95 4.514-6.678 4.675-21.195 4.682l-11.232.005-3.77-.959c-4.496-1.143-5.999-1.847-7.912-3.707-1.865-1.813-2.764-4.15-3.029-7.871-.11-1.565-.335-2.928-.498-3.029-.571-.353-4.174 5.549-4.888 8.006-.597 2.054-.408 2.677.916 3.019 1.456.375 1.48 1.345.062 2.427-1.414 1.078-1.45 1.875-.18 4.028 1.72 2.916 2.367 3.597 5.194 5.464 3.272 2.16 6.723 3.412 10.54 3.821 3.993.428 10.625 1.297 10.99 1.44.176.07 5.365.098 11.53.064l11.212-.063zm30.771-4.577c2.32-.225 3.719-.596 6.614-1.754 2.02-.808 4.656-1.764 5.858-2.124 1.202-.36 6.278-2.7 11.28-5.198 7.14-3.566 9.48-4.89 10.88-6.163.983-.892 2.443-2.116 3.246-2.72 1.853-1.395 3.225-2.967 4.106-4.705.64-1.261.958-2.91 1.521-7.882l.214-1.887-.806.202c-.577.145-.968.023-1.38-.433-1.155-1.276-1.861-.863-4.629 2.703-1.359 1.751-5.481 5.234-10.15 8.576-1.164.833-2.88 2.243-3.814 3.135-6.714 6.407-11.78 9.29-19.962 11.357-3.763.95-12.954 3.727-13.24 4-.473.45.08 1.859.82 2.094.91.289 5.035 1.037 5.86 1.063.352.011 1.964-.108 3.582-.264zm-91.742-4.93c0-.921-.248-1.763-.731-2.48l-.732-1.088-3.988-.166c-2.194-.091-4.152-.27-4.35-.395-.2-.127-2.302-.433-4.673-.682-6.14-.644-14.403-3.322-15.933-5.165-.246-.297-1.26-1.09-2.252-1.765-2.074-1.408-4.335-3.827-5.258-5.627-.35-.682-1.178-2.09-1.84-3.13-1.229-1.93-1.454-2.964-.88-4.038.528-.985-.547-1.272-4.764-1.272-3.608 0-3.873.043-4.341.71-.676.966-.662 4.447.023 5.892.571 1.203 3.98 4.11 7.004 5.97 1.758 1.083 6.471 3.108 7.233 3.108.366 0 7.001 2.84 7.482 3.202 1.135.856 11.277 4.516 13.76 4.966 1.584.287 4.248.941 5.92 1.454 3.472 1.064 6.55 1.82 7.6 1.866.641.028.72-.12.72-1.36zm87.131-3.077c1.722-.728 4.214-1.6 5.538-1.939 1.323-.338 4.566-1.411 7.204-2.384 2.843-1.048 5.319-1.768 6.075-1.768 1.777 0 3.239-.836 6.236-3.567 3.304-3.01 4.886-4.302 10.638-8.692 3.484-2.66 5.757-6.028 4.565-6.765-.358-.221-3.284.347-4.857.943-.633.24-2.588.79-4.346 1.224-4.251 1.05-8.404 2.856-11.144 4.847-3.556 2.584-5.565 3.83-8.48 5.257-1.496.732-3.728 1.971-4.96 2.754-1.232.782-2.715 1.661-3.296 1.954-.58.293-1.66 1.13-2.4 1.86-1.892 1.87-5.136 6.79-4.894 7.422.108.28.374.434.593.342.218-.091 1.806-.761 3.528-1.489zm-32.731-2.06c2.763-.668 4.005-1.304 7.148-3.658 3.225-2.414 5.225-4.444 5.484-5.565 1.299-5.633 1.304-5.673.744-5.112-.687.687-2.277.412-4.091-.708-.973-.6-2.647-1.272-3.72-1.494-1.865-.385-2.002-.37-3.039.351-.597.415-2.058 1.662-3.247 2.77-2.33 2.173-4.02 3.15-7.279 4.204-4.305 1.394-7.61 1.98-11.154 1.98-5.929 0-8.686-1.35-8.686-4.252 0-1.847.919-3.091 4.483-6.066 1.18-.985 1.35-1.256.957-1.515-.699-.46-5.288-.384-7.52.125-2.472.563-6.914 2.286-7.236 2.806-.415.672-.686 4.258-.458 6.073.356 2.846 1.174 4.725 2.734 6.278 1.713 1.706 2.614 2.127 7.04 3.29 3.357.883 3.37.884 14.72.901 8.41.013 11.817-.093 13.12-.408zm-58.429-2.064c.093-.15-1.879-1.617-4.381-3.26s-5.198-3.55-5.99-4.24-2.448-1.835-3.68-2.548c-1.232-.712-3.176-1.84-4.32-2.507s-3.16-1.498-4.48-1.849c-4.086-1.086-5.544-1.544-7.146-2.246-.85-.373-1.823-.677-2.16-.677-.8 0-.801.955-.002 1.97.336.428 1.15 1.699 1.81 2.824 1.352 2.307 2.303 3.325 4.522 4.844.845.578 1.729 1.24 1.964 1.471 2.465 2.421 9.726 4.9 15.756 5.379 1.509.12 3.525.407 4.48.637 2.073.501 3.396.575 3.627.202zm11.28-5.811c3.317-5.483 6.639-8.778 11.208-11.12 1.617-.827 2.877-1.567 2.802-1.642-.076-.076-2.767-.108-5.98-.07-3.213.037-6.911-.087-8.218-.276-3.103-.447-3.314-.23-2.097 2.153 1.741 3.413 1.412 7.838-.652 8.78-1.27.578-1.754-.108-1.754-2.486 0-1.75-.177-2.361-1.305-4.502-1.044-1.983-1.265-2.685-1.107-3.526.226-1.201.662-1.014-4.706-2.018-2.481-.464-4.306-1.05-6.56-2.106a155.707 155.707 0 00-5.522-2.451c-1.32-.544-3.336-1.587-4.48-2.318s-3.016-1.888-4.16-2.569c-1.144-.681-2.881-1.861-3.86-2.622-.98-.761-1.931-1.384-2.116-1.384s-.933.924-1.663 2.054c-1.479 2.286-3.881 4.595-6.098 5.861-3.84 2.193-6.389 3.853-6.202 4.04.113.113 1.37.208 2.792.212 4.4.01 8.038.704 11.707 2.23.792.33 3.24 1.126 5.44 1.768 2.2.642 4.686 1.588 5.525 2.102.838.513 1.59.933 1.67.933.508 0 5.32 3.146 6.853 4.478 1.013.881 1.95 1.602 2.083 1.602s1.417.85 2.855 1.89c4.315 3.119 8.983 5.51 10.454 5.353.264-.028 1.655-1.993 3.091-4.367zm34.671-2.88c.615-.178 2.054-.468 3.198-.644 1.144-.177 2.584-.522 3.2-.767a157.21 157.21 0 012.223-.86c1.326-.499 3.217-2.097 3.217-2.719 0-.567-.192-.56-2.048.072-1.852.631-2.442.3-1.835-1.031.213-.468.304-.933.204-1.033-.101-.101-3.612-.244-7.802-.318-8.508-.15-8.971-.063-11.128 2.094-1.977 1.977-1.103 4.585 1.693 5.055.68.114 1.38.256 1.556.316.757.256 6.502.13 7.522-.165zm-95.526-6.633c.219-1.753.333-1.937 2.485-4l2.255-2.163h-1.016c-1.59 0-4.322-1.098-6.68-2.684-4.8-3.228-8.859-8.034-12.573-14.89a148.138 148.138 0 00-3.253-5.627c-2.707-4.416-5.262-9.564-6.525-13.147l-1.144-3.242.108-7.014.108-7.013 1.023-2.072c1.179-2.384 4.52-6.19 6.707-7.639 1.403-.929 1.688-.993 4.428-.993 3.234 0 5.306.563 9.88 2.686 3.55 1.647 6.778 2.324 6.545 1.372-.057-.232-1.04-1.213-2.183-2.18s-2.59-2.431-3.212-3.253c-2.44-3.222-4.94-8.75-6.21-13.72-.851-3.34-.866-3.56-.747-11.355.117-7.74.143-8.007.98-10.104.472-1.185 1.7-3.417 2.73-4.96 1.029-1.543 2.39-3.67 3.027-4.726 1.39-2.307 2.793-3.858 7.432-8.214 3.888-3.652 7.167-6.015 10.547-7.602l2.227-1.046 6.573.14c8.725.185 11.833.983 15.165 3.895.502.439 1.612 1.03 2.468 1.314 3.15 1.046 4.6 4.877 2.7 7.135-.44.523-.8 1.33-.8 1.793 0 .464.701 2.387 1.559 4.274 1.788 3.935 3.88 9.113 3.88 9.605 0 .183.356 1.042.79 1.907 1.718 3.418 2.125 6.991 1.435 12.568-.448 3.61-.93 5.146-2.68 8.518-.809 1.559-2.132 4.274-2.94 6.034s-1.707 3.696-1.997 4.303c-.29.607-1.392 1.975-2.448 3.04-2.254 2.274-7.857 5.339-12.709 6.952-2.802.931-3.32.996-9.13 1.144-3.388.086-6.16.196-6.16.243 0 .525 4.356 8.482 4.94 9.023.607.564.748.957.634 1.77-.157 1.116 1.077 5.075 1.641 5.263.179.06.882-.861 1.564-2.046s1.911-2.878 2.734-3.763c.822-.885 1.803-2.113 2.18-2.73.865-1.415 4.27-4.726 7.587-7.38a270.223 270.223 0 004.96-4.082c2.927-2.483 5.155-3.817 8.856-5.303 4.142-1.662 5.459-1.88 9.906-1.63 2.74.152 3.948.11 4.105-.143.122-.198-.447-1.255-1.264-2.35-.817-1.095-2.16-3.345-2.984-5l-1.5-3.007-.102-5.952c-.139-8.05.375-15.391 1.35-19.271.892-3.552 3.285-8.646 5.74-12.218 2.58-3.756 6.26-7.57 10.804-11.203 4.385-3.506 5.282-3.971 11.009-5.71 3.366-1.023 3.736-1.069 8.48-1.045 5.034.025 6.573.232 14.279 1.917 3.646.797 5.247.962 5.234.538-.004-.132-1.12-1-2.48-1.93-10.342-7.071-13.596-10.142-16.345-15.43-1.633-3.14-1.71-3.604-1.375-8.32.356-5.015 1.64-9.165 3.66-11.836.733-.97 1.776-2.411 2.317-3.203 2.035-2.977 4.58-5.592 7.74-7.953 5.119-3.824 7.101-5.148 8.73-5.831.968-.406 2.3-1.073 2.96-1.481 2.548-1.578 3.72-1.764 10.128-1.615 6.873.16 9.624.72 14.038 2.859 2.335 1.13 2.976 1.648 5.44 4.392 1.537 1.71 3.62 4.13 4.627 5.378 1.008 1.247 2.943 3.16 4.3 4.251 2.143 1.725 2.6 1.963 3.489 1.818 1.215-.197 1.738.232 1.738 1.425 0 1.402.495 2.33 1.756 3.292 1.436 1.095 1.682.913 2.285-1.697.626-2.711 2.38-5.533 5.268-8.48l2.471-2.52 5.55.146c5.149.135 5.7.21 7.63 1.02 5.811 2.443 8.064 3.114 9.745 2.904 1.782-.223 2.425.171 2.894 1.772.13.44.78 1.531 1.447 2.425.666.893 1.786 2.765 2.488 4.16s1.812 3.327 2.466 4.295 1.625 2.624 2.16 3.68c.533 1.056 1.31 2.366 1.727 2.912.416.546 1.599 3.498 2.627 6.56 1.03 3.062 2.238 6.648 2.686 7.968 2.103 6.193 2.598 8.207 2.736 11.12.177 3.732-.088 4.384-2.78 6.834-2.23 2.027-5.514 3.798-9.409 5.074-1.936.635-2.7.701-7.015.607-3.47-.076-4.877 0-4.965.266-.166.496 1.035 2.808 2.36 4.544.59.774 1.073 1.549 1.073 1.723s.648 1.589 1.44 3.145 1.44 3.109 1.44 3.45c0 .808-1.757 2.277-2.724 2.277-.664 0-.778.186-.935 1.52-.192 1.628-.87 5.121-1.598 8.24-.247 1.056-.89 3.936-1.428 6.4-.827 3.787-1.283 5.09-2.952 8.43-3.26 6.527-5.898 8.694-15.29 12.563-.753.31-.763.369-.57 3.301.206 3.155.614 4.503 1.458 4.827.282.108 1.43.015 2.552-.208 1.96-.39 2.095-.48 3.498-2.34 1.623-2.15 6.869-6.837 10.098-9.02 2.765-1.87 4.612-2.207 9.525-1.736l4.447.426.8.076.225-7.52c.124-4.136.377-9.608.562-12.16s.34-6.512.344-8.8c.01-6.29.52-13.253 1.088-14.84.623-1.741 3.284-5.373 4.712-6.43 1.293-.958 3.13-1.055 4.057-.216.519.47.963.542 2.346.382 1.957-.225 1.997-.205 3.514 1.805 1.501 1.99 2.12 3.796 4.416 12.876l1.936 7.657.06 27.246.776-4.16c.687-3.68.762-4.841.654-10.08-.068-3.256-.282-7.144-.477-8.64s-.434-3.512-.532-4.48c-.098-.968-.318-2.912-.49-4.32-.304-2.486-.556-5.275-1.287-14.24-.372-4.57-1.14-9.156-2.194-13.12a458.884 458.884 0 01-1.475-5.76c-2.096-8.418-4.216-13.167-9.573-21.44-.74-1.144-1.759-3.088-2.263-4.32-1.393-3.402-3.848-7.963-6.202-11.52-1.164-1.76-2.199-3.272-2.298-3.36-.1-.088-.626-.808-1.169-1.6-1.205-1.757-5.801-6.247-7.77-7.59-.792-.54-1.743-1.25-2.113-1.576-.37-.326-2.086-1.818-3.815-3.314-3.495-3.024-3.79-3.309-8.27-7.956-3.166-3.286-4.099-3.802-4.302-2.381-.068.475.53 1.44 1.88 3.037 2.326 2.75 2.86 3.857 2.86 5.93-.002 2.09-.828 3.575-2.677 4.81l-1.556 1.04h-4.226c-2.83 0-4.76-.159-5.847-.481-2.154-.64-7.039-2.928-10.015-4.69a73.368 73.368 0 00-4.8-2.567c-1.32-.63-3.048-1.711-3.84-2.404-2.221-1.943-9.927-7.605-11.36-8.347a149.239 149.239 0 00-3.488-1.715c-2.63-1.252-6.28-4.4-7.207-6.217-1.174-2.299-.695-4.68 1.266-6.295 3.068-2.527 9.23-1.239 18.454 3.858 4.255 2.35 7.727 3.738 12.095 4.833 1.408.353 3.165.935 3.905 1.294.74.358 2.107.812 3.04 1.009.932.196 2.573.844 3.647 1.44 2.147 1.192 4.928 1.904 4.928 1.261 0-.44-.977-1.205-4.954-3.881a1581.95 1581.95 0 01-5.126-3.466c-3.544-2.41-5.436-3.15-12.8-5.003-4.207-1.059-10.35-3.238-12.244-4.344-.75-.438-2.262-1.142-3.36-1.565-2.657-1.024-5.298-2.153-6.476-2.769-2.748-1.435-12.584-4.15-17.221-4.752-1.265-.164-4.462-.303-7.105-.309-4.607-.01-4.854.023-5.983.79-1.146.78-1.327.8-6.842.8-4.63 0-6.512.149-10.306.812-2.553.446-4.75.879-4.884.961-.598.37-10.182 1.106-14.4 1.107-7.91 0-14.196 1.145-20.3 3.694-2.227.93-6.979 3.997-8.64 5.576-1.896 1.803-3.777 3.093-6.4 4.392-4.089 2.024-9.037 4.733-10.73 5.874-1.78 1.2-4.507 4.052-6.816 7.128-2.6 3.463-5.938 7.251-10.233 11.61-2.446 2.484-4.54 4.644-4.654 4.8-.114.158-1.336 1.283-2.715 2.5-1.477 1.304-3.288 3.343-4.406 4.96a790.435 790.435 0 01-3.479 4.986c-.868 1.232-2.12 3.32-2.782 4.64-.662 1.32-1.73 3.12-2.372 4-1.514 2.073-6.041 10.334-8.679 15.84-2.99 6.241-4.187 10.142-4.733 15.427-.177 1.71-.321 3.249-.321 3.422 0 .193.857.242 2.225.127 1.474-.123 2.557-.049 3.21.222.542.224 1.089.305 1.215.18s.323-2.126.437-4.444c.391-7.939.854-11.633 1.743-13.916 1.414-3.627 5.884-12.256 7.61-14.692.902-1.272 2.144-3.13 2.76-4.13.616-1 1.844-2.622 2.729-3.607.885-.984 2.007-2.408 2.495-3.164 2.443-3.794 7.056-7.323 12.048-9.216l1.768-.67.187-1.917c.128-1.322.504-2.473 1.21-3.707.563-.984 1.237-2.506 1.497-3.381.3-1.013 1.024-2.207 1.99-3.284 2.388-2.665 9.49-9.545 10.678-10.347.593-.4 2.53-1.24 4.304-1.87 1.774-.628 5.22-2.158 7.656-3.4 2.437-1.242 6.025-2.79 7.974-3.439 1.95-.65 4.737-1.65 6.195-2.222 3.085-1.21 7.632-2.552 12.974-3.827 3.143-.75 3.831-.828 4.058-.462.41.664-.148 1.433-1.7 2.343-.766.449-1.765 1.38-2.22 2.067-.456.688-1.938 2.245-3.294 3.459a885.192 885.192 0 00-4.92 4.447c-1.35 1.232-3.022 2.528-3.715 2.88-2.586 1.314-9.67 6.136-12.121 8.252-2.834 2.444-3.955 3.094-7.129 4.13-2.308.754-9.358 4.227-11.384 5.607-1.747 1.192-1.548 1.569.96 1.813 2.837.277 6.16 1.864 6.16 2.943 0 .988-1.435 2.055-2.763 2.055-.852 0-1.077.13-1.077.621 0 .342.132.703.293.802.16.1.39.761.51 1.47.12.71.583 1.724 1.03 2.255.646.768.837 1.395.934 3.059.068 1.15.263 2.354.434 2.674.216.404.161 1.006-.18 1.97-.294.83-.457 2.185-.405 3.365.068 1.532-.04 2.117-.482 2.605-.321.355-.968 2.359-1.481 4.585-.97 4.209-2.331 7.542-4.599 11.262a466.744 466.744 0 00-3.274 5.493c-3.08 5.251-4.315 6.769-10.444 12.836-5.92 5.86-8.482 7.847-12.093 9.382-1.56.662-2.083.725-4.64.557-1.585-.104-3.422-.363-4.082-.576s-1.266-.32-1.347-.24c-.081.082.207 1.263.64 2.627.432 1.363.787 2.9.787 3.415s.226 1.603.502 2.417c.497 1.463.493 1.497-.362 2.73-.945 1.363-.945 1.055-.005 6.532.36 2.094.495 5.197.5 11.376.007 10.565-.373 12.842-2.738 16.418-1.985 3.001-4.483 5.88-5.605 6.46-1.765.913-2.939.624-4.928-1.215-1.719-1.589-2.632-2.082-2.509-1.354.49 2.887 1.261 6.237 1.878 8.154.425 1.32 1.217 4.488 1.76 7.04s1.256 5.864 1.584 7.36c.329 1.496.836 3.872 1.128 5.28.772 3.734 2.102 8.91 2.384 9.28.134.176.694 1.635 1.244 3.241 2.507 7.32 9.566 20.251 12.008 21.995a400.57 400.57 0 014.179 3.09c1.771 1.323 3.868 2.784 4.66 3.247.793.463 1.715 1.144 2.05 1.514.995 1.1 1.377.827 1.626-1.163zm49.444-128.45c-.44-.18-1.969-.668-3.397-1.086-2.886-.844-8.7-3.496-10.236-4.67-.547-.416-2.059-1.718-3.36-2.892a401.34 401.34 0 00-3.04-2.72c-.37-.322-1.243-1.738-1.94-3.146s-1.505-2.992-1.792-3.52c-.287-.528-1.042-2.118-1.678-3.533l-1.156-2.574.126-3.986c.103-3.282.279-4.44.997-6.547 1.222-3.589 3.818-8.61 6.339-12.258 1.178-1.705 2.758-4.109 3.51-5.341.832-1.365 2.779-3.644 4.982-5.834 3.092-3.072 4.01-3.784 6.337-4.91 4.152-2.01 5.245-2.208 12.21-2.212 6.314-.004 7.043-.152 6.068-1.23-.271-.299-.952-1.525-1.513-2.723-1.02-2.178-1.02-2.183-.844-6.235.305-7.02 1.474-9.288 7.1-13.778 3.769-3.009 9.459-6.438 10.683-6.438.141 0 1.829-.666 3.75-1.48 7.102-3.012 6.292-2.84 13.414-2.834 8.216.007 10.132.503 9.135 2.366-.194.364-.796.89-1.336 1.17-.813.42-1.237.446-2.475.149-2.504-.601-5.137-.518-4.478.142.285.285 4.58.753 8.914.972 3.984.202 7.19.702 9.06 1.412.735.28 1.191.803 6.143 7.046l2.397 3.023v2.021c0 3.52-1.49 7.884-3.31 9.693-3.578 3.557-11.268 9.558-13.088 10.214-.996.359-3.9.828-7.121 1.15-2.992.3-6.253.745-7.246.99-1.269.314-3.912.446-8.88.446-5.447 0-7.074.092-7.073.4 0 .402.793 1.145 4.98 4.666 3.68 3.098 4.95 4.8 6.198 8.316l1.1 3.098.261 16.68-.82.975c-.452.537-1.204 2.04-1.672 3.34-2.809 7.818-6.494 12.57-13.088 16.873-6.642 4.335-9.575 5.183-17.824 5.153-3.045-.012-5.896-.168-6.336-.347zm6.04-2.713c.55-.11 1-.295 1-.412 0-.116-1.087-.989-2.416-1.94-2.976-2.127-4.288-3.552-5.34-5.796-1.121-2.396-1.526-4.596-1.512-8.228.016-4.526.84-7.516 2.805-10.187 1.327-1.804 5.98-5.483 9.315-7.366l2.748-1.551 4.8.005c6.196.007 9.322.82 15.585 4.057 1.365.705 2.635 1.169 2.845 1.039.274-.17.331-1.229.205-3.802-.255-5.176-1.537-8.933-3.899-11.425-2.726-2.876-8.174-7.32-9.927-8.098-.885-.393-2.158-1.323-2.83-2.068-1.004-1.115-1.185-1.514-1.021-2.258l.198-.903-3.938-.226c-2.166-.124-6.746-.169-10.178-.1-6.18.124-6.266.136-8.96 1.192-2.267.889-3.042 1.393-4.649 3.027-1.06 1.078-2.345 2.68-2.854 3.56-.509.88-1.664 2.608-2.566 3.84-3.408 4.65-6.226 9.955-7.5 14.115-.83 2.71-.991 3.763-.991 6.477 0 2.99.089 3.454 1.15 6.017.631 1.527 1.523 3.365 1.981 4.084.458.719 1.152 2.099 1.542 3.067.535 1.329 1.19 2.174 2.673 3.45 1.08.929 2.078 1.618 2.219 1.532.14-.087.341-2.647.447-5.69.168-4.828.3-5.853 1.042-8.052 1.2-3.558 2.73-5.98 7.166-11.337 1.337-1.614 5.203-4.61 6.58-5.098 1.522-.54 7.964-2.526 12.193-3.757 3.105-.905 4.42-1.128 6.633-1.128 2.822 0 6.689.586 9.794 1.486 3.114.902 4.429 3.126 2.844 4.813-.975 1.038-2.22.962-3.071-.19-.854-1.155-2.657-1.763-7.154-2.416-5.576-.809-6.216-.749-13.4 1.253-1.671.466-4.793 1.425-6.936 2.13-4.414 1.451-4.994 1.917-8.063 6.464-3.372 4.997-3.923 6.942-4.113 14.501-.173 6.898-.126 7.11 2.18 9.798 1.132 1.321 1.463 1.52 2.525 1.52 1.175 0 1.22.04 1.175 1.04l-.047 1.04 4 1.33c4.487 1.493 4.35 1.465 5.72 1.19zm15.526-3.643c2.982-1.743 6.475-4.883 6.866-6.173.17-.563.395-2.159.499-3.546.202-2.702.902-4.292 2.292-5.202 1.152-.755 1.487-.303 1.24 1.674-.46 3.678 1.104 1.051 2.46-4.132.671-2.57.694-2.897.257-3.68-.576-1.028-1.73-1.272-2.542-.536-.982.889-1.743.494-1.86-.965-.058-.723-.384-1.578-.75-1.97-.894-.956-6.307-3.146-9.294-3.76-3.146-.647-9.148-.677-10.642-.053-2.085.871-6.098 3.691-6.856 4.819-1.045 1.552-1.956 5.018-1.956 7.44 0 2.585.456 2.59 1.92.024a52.16 52.16 0 012.339-3.672c1.225-1.717 2.951-2.95 3.434-2.453.207.213.463 8.137.336 10.39-.045.807-2.003 2.556-2.743 2.45-.58-.083-.656-.364-.739-2.733-.051-1.452-.22-2.64-.374-2.64s-.585.493-.957 1.095-1.176 1.39-1.786 1.75c-.795.468-1.11.88-1.11 1.453 0 1.176 1.158 4.067 2.163 5.4 1.076 1.425 5.364 4.667 6.47 4.889.443.09 1.815.431 3.047.76 1.232.328 3.106.61 4.165.625 1.695.025 2.188-.125 4.12-1.254zm-6.85-8.163c-.46-.554-.228-3.57.316-4.114.594-.594.35-1.712-.493-2.265-1.218-.798-2.058-1.715-2.058-2.244 0-.71 1.905-2.731 2.575-2.731.323 0 .8.3 1.057.669.58.827 1.669.691 1.596-.2a7.262 7.262 0 00-.268-1.311c-.42-1.332 2.323-3.084 3.686-2.355.847.453.801.96-.285 3.126-1.588 3.166-1.594 3.092.413 4.93 1.473 1.35 1.786 1.82 1.786 2.687 0 .85-.26 1.262-1.36 2.154-1.33 1.078-4.192 2.14-5.77 2.14-.436 0-.974-.219-1.195-.486zm30.737-48.288c.96-.25 2.827-.548 4.147-.663 6.536-.568 9.28-1.029 9.28-1.558 0-1.175-3.91-2.59-8-2.895-1.32-.098-3.408-.476-4.64-.84-1.364-.403-3.617-.73-5.76-.835l-3.52-.173-1.75 1.07c-.961.587-2.078 1.572-2.48 2.188-.974 1.493-2.679 3.2-3.195 3.2-1.11 0 .104-3.024 1.877-4.674 1.354-1.26 3.48-2.683 5.617-3.763 1.512-.764 2.013-.843 5.31-.843 2.539 0 4.364.185 6.037.613 1.32.338 3.61.711 5.091.83 1.481.12 3.816.564 5.19.987 3.069.946 3.036.947 3.475-.016.297-.652.22-1.073-.455-2.48-.447-.932-.907-2.01-1.021-2.398-.115-.387-.958-1.323-1.873-2.079-.914-.756-1.843-1.545-2.063-1.753-.536-.507-3.635-1.65-5.646-2.081-.992-.213-3.596-.286-6.67-.188-4.77.152-5.044.128-5.044-.437 0-.702-.513-.74-3.52-.264-1.997.317-4.239 1.044-8.578 2.784-1.727.692-2.169 1.046-3.06 2.446-.94 1.474-1.72 3.98-2.263 7.272-.106.636-.477 1.414-.825 1.73-.904.817-.78 1.495.41 2.26 1.557 1 5.541 2.434 6.964 2.506.69.036 1.355.164 1.477.286.443.444 13.649.246 15.488-.232zm-26.404-8.123c.962-3.755 2.92-6.271 7.67-9.86 1.57-1.185 2.661-1.675 6.56-2.943 4.51-1.467 8.08-1.978 13.816-1.98 4.883 0 5.04.02 5.966.8.523.44 1.938 1.101 3.145 1.47 1.206.37 2.625 1.02 3.153 1.446.528.426 1.702 1.343 2.609 2.036 1.22.934 1.797 1.659 2.221 2.794.315.844.746 1.822.958 2.174s.482 1.465.6 2.475c.12 1.009.357 1.921.529 2.027.418.259 1.752-.644 2.389-1.616.742-1.132 1.807-5.486 1.817-7.426.008-1.526-.123-1.822-1.63-3.68-.902-1.111-2.455-3.074-3.451-4.362s-2.117-2.543-2.49-2.787c-1.158-.758-4.65-1.373-8.992-1.584-5.468-.264-8.685-.736-10.159-1.488-1.384-.706-1.445-.958-.538-2.231.597-.839.61-.951.135-1.134-.903-.346-5.564.194-7.138.827-.825.332-3.683 1.459-6.352 2.504-5.19 2.032-10.16 4.779-11.894 6.575-1.774 1.837-2.667 4.814-2.854 9.51-.159 3.985-.153 4.022.826 5.963 1.098 2.175 1.928 3.161 2.324 2.764.145-.144.496-1.168.78-2.274zm126.13 197.47c1.023-1.179 2.955-3.303 4.293-4.72s3.03-3.468 3.758-4.557c.73-1.09 1.474-2.072 1.655-2.184.18-.112 1.19-1.483 2.241-3.048 1.414-2.102 1.913-3.13 1.913-3.943 0-.876.243-1.305 1.2-2.114a99.69 99.69 0 001.9-1.648c1.314-1.187 4.257-5.922 5.527-8.894.698-1.632 1.819-3.999 2.49-5.259 1.656-3.102 2.822-6.014 3.459-8.638.292-1.203 1.08-3.363 1.753-4.8.672-1.437 1.323-3.044 1.446-3.572s.496-1.788.828-2.8c.68-2.071 2.203-10.537 2.186-12.15-.01-.93-.177-.723-1.439 1.788-3.089 6.142-4.46 7.821-8.8 10.768-1.006.683-1.92 1.477-2.03 1.764-.11.287-.2 1.563-.2 2.837 0 4.613-1.173 8.45-3.877 12.688-.848 1.328-1.778 2.984-2.066 3.68s-1.133 2.2-1.878 3.344c-1.952 3.002-2.628 4.138-3.426 5.76-.961 1.955-4.755 7.004-6.273 8.348-.678.6-2.702 2.296-4.497 3.767-3.548 2.907-3.812 3.42-2.574 4.995.67.852.678.974.292 4.284-.8 6.85-.786 6.446-.242 6.446.276 0 1.338-.964 2.36-2.143zm-54.3-5.175c1.672-.501 3.832-1.096 4.8-1.32 1.827-.425 3.997-1.408 6.224-2.819l3.056-1.936c.968-.613 2.354-1.63 3.08-2.261.726-.63 1.911-1.62 2.634-2.2 2.02-1.618 2.822-3.291 3.026-6.306.25-3.702 3.013-12.264 5.473-16.96.692-1.321.627-2.784-.25-5.6-.899-2.89-1.472-4.057-4.616-9.393-2.704-4.591-3.93-5.992-6.737-7.697-1.863-1.131-1.965-1.155-3.264-.76-.738.226-1.41.586-1.495.802-.085.216.35.98.965 1.7.646.755 1.91 3.155 2.991 5.683l1.873 4.377-.02 3.364c-.022 3.843-.638 12.925-.965 14.227-.38 1.512-2.47 5.159-4.268 7.448-2.146 2.73-4.882 4.732-9.543 6.983-6.458 3.119-5.944 3.026-16.714 3.02-9.933-.005-11.409-.161-15.37-1.63-3.054-1.13-7.609-3.84-9.05-5.381-2.751-2.943-2.79-3.03-2.788-6.067.003-2.737.893-7.758 2.175-12.267.665-2.34.676-2.358 3.287-5.573.982-1.209 2.054-2.63 2.382-3.157.329-.528 1.185-1.68 1.903-2.56 2.124-2.604 3.198-4.128 2.708-3.844-1.09.631-4.848 3.845-5.39 4.608-.782 1.104-2.041 3.27-3.275 5.636-.551 1.056-1.504 2.533-2.118 3.282-.614.75-1.477 2.334-1.92 3.52-.703 1.89-.822 2.817-.958 7.476-.144 4.906-.1 5.49.568 7.52 1.51 4.588 5.14 9.804 8.493 12.205 7.041 5.042 12.884 6.665 24.302 6.748 5.47.04 5.913-.004 8.8-.869zm-63.51.256c3.28-.456 6.564-1.602 8.12-2.834.963-.763 1.702-1.893 3.048-4.66 2.444-5.028 3.388-8.016 3.739-11.834.162-1.766.522-4.466.8-6 .31-1.708.46-3.94.39-5.76-.11-2.867-.178-3.102-1.952-6.731-1.011-2.069-2.316-4.3-2.899-4.96s-1.383-1.734-1.777-2.387c-1.203-1.994-3.005-3.997-4.967-5.52-1.028-.8-2-1.452-2.161-1.452s-1.331-.776-2.602-1.725c-1.27-.948-2.885-2.034-3.59-2.412a24.967 24.967 0 01-2.338-1.457c-1.162-.842-2.164-1.23-6.941-2.683-2.721-.827-3.946-1.006-8.18-1.194-5.135-.228-6.726.002-9.26 1.335-.44.232-1.88.918-3.2 1.525-2.221 1.022-5.357 3.32-10.023 7.347-3.432 2.96-8.675 10.024-9.623 12.964-.617 1.913-1.236 5.429-1.017 5.783.092.149.527.202.966.118.617-.118.868.02 1.106.603.432 1.063 1.114 6.143 1.134 8.449.015 1.712-.102 2.084-1.023 3.246-.572.722-1.04 1.516-1.04 1.764 0 .838 1.8 3.296 3.385 4.622 1.421 1.189 5.678 3.948 9.671 6.268.827.48 2.584 1.325 3.904 1.876s3.594 1.56 5.053 2.243c2.953 1.382 7.013 2.339 12.183 2.872 1.872.193 4.268.463 5.324.6 2.938.38 11.019.376 13.77-.007zm-15.53-14.394c-2.904-.116-6.576-.383-8.16-.594-1.584-.21-3.888-.505-5.12-.653-4.04-.487-5.738-1.345-8.815-4.454-2.809-2.838-5.53-6.594-6.263-8.644-.58-1.621-.551-7.166.048-9.466.27-1.034.952-2.757 1.517-3.827 1.962-3.715 8.613-9.377 13.352-11.367.968-.406 2.912-1.329 4.32-2.05l2.56-1.31 4.32-.117c4.185-.114 4.443-.082 8.227 1.03 4.332 1.272 6.33 2.012 8.82 3.268 1.928.973 2.223 1.312 1.811 2.082-.523.978-.32 1.384 1.01 2.021 2.836 1.359 6.172 6.217 8.731 12.711 1.16 2.943 1.17 5.952.029 8.099-.935 1.758-3.58 5.287-3.963 5.287-.142 0-1.463 1.075-2.934 2.389-3.137 2.8-4.799 3.768-8.198 4.777-3.217.954-4.877 1.074-11.293.818zm13.372-3.927c2.706-.842 3.635-1.307 5.218-2.616 2.006-1.657 4.234-4.352 4.775-5.775.66-1.735.362-4.644-.753-7.346-1.541-3.738-3.897-7.984-4.494-8.104-.46-.091-.518.456-.518 4.865 0 7.805-.453 9.17-4.367 13.165-3.222 3.29-4.296 3.673-10.268 3.673-4.388 0-7.111-.514-14.184-2.682-5.217-1.598-10.27-5.835-11.157-9.352-.508-2.02-.43-7.72.132-9.614.307-1.033 1.134-2.396 2.32-3.824a299.203 299.203 0 002.307-2.803c.854-1.074-2.97 1.364-4.093 2.61-2.302 2.552-3.571 6.389-3.569 10.784.001 1.585.15 3.41.329 4.057.505 1.818 2.737 4.935 5.834 8.148 2.574 2.67 3.006 2.983 4.968 3.607 2.588.825 9.313 1.634 16.068 1.933 8.064.359 7.936.367 11.452-.727zm-2.622-5.702c1.073-.515 2.237-2.144 2.685-3.757.463-1.67.417-14.536-.059-16.123-.377-1.262-.604-1.525-3.456-4.015-2.08-1.816-3.871-2.22-11.694-2.638-6.699-.358-6.709-.357-9.663.446-1.626.442-3.38 1.105-3.896 1.473-1.524 1.085-3.18 3.61-3.575 5.448-.519 2.42-.245 8.222.449 9.526 2.063 3.877 7.814 7.323 14.605 8.752.8.169 2.462.593 3.694.943 1.839.523 2.936.614 6.123.509 2.36-.078 4.237-.299 4.788-.564zm-6.27-5.544c0-.259.504-.974 1.12-1.59 1.045-1.045 1.12-1.255 1.12-3.157 0-1.12-.083-2.12-.185-2.222-.101-.101-.834.103-1.628.454-1.362.603-1.874.612-3.706.068-.39-.116-.751.161-1.2.92-.352.598-1.015 1.288-1.473 1.533-1.328.71-1.728-.16-1.728-3.758 0-1.639-.129-2.979-.286-2.979s-1.177.872-2.267 1.938c-1.089 1.066-2.14 1.885-2.334 1.82-.706-.235-.553-.808.543-2.03.616-.687 1.808-2.46 2.651-3.942 1.778-3.126 3.646-5.247 4.48-5.089.46.087.604.521.733 2.186.178 2.317.355 2.411 2.068 1.105 1.236-.943 3.9-1.13 4.22-.296.243.632-.683 1.65-2.208 2.429-1.307.667-1.494 1.318-.702 2.448.544.776 1.798.946 2.298.311.173-.22.402-.976.508-1.68.143-.943.536-1.601 1.497-2.503.716-.672 1.477-1.164 1.69-1.093.405.134.75 9.592.402 11.006-.284 1.15-4.184 4.582-5.213 4.588-.22 0-.4-.21-.4-.467zm-55.52 26.16c2.885-1.45 6.086-3.548 6.876-4.507.946-1.148 1.528-2.89 1.676-5.016.116-1.672-.392-1.76-3.036-.523-3.142 1.47-4.683 1.754-8.305 1.533-2.265-.138-3.59-.386-4.527-.848-3.574-1.761-9.153-7.733-11.22-12.01-6.097-12.617-5.746-11.488-5.882-18.912-.107-5.865-.057-6.64.577-8.8.473-1.614 1.143-2.953 2.107-4.208.778-1.012 1.414-1.967 1.414-2.123s-.825-.617-1.834-1.026c-1.468-.596-2.337-.73-4.36-.671-1.389.04-2.713.178-2.943.307-.594.332-2.258 2.694-2.913 4.133-.457 1.005-.576 2.435-.675 8.1l-.121 6.88 1.01 2.854c1.477 4.166 3.077 7.425 6.3 12.827 1.575 2.64 3.34 5.664 3.922 6.72.581 1.056 1.896 3.216 2.921 4.8 3.353 5.18 9.411 10.23 13.253 11.045 1.634.346 4.52.069 5.76-.554zm177.96-2.353c1.026-.54 3.388-2.117 5.247-3.505 4.05-3.022 7.092-6.636 9.42-11.193.855-1.672 2.096-3.76 2.76-4.64s1.492-2.268 1.842-3.084c.35-.817 1.426-2.796 2.393-4.399 2.483-4.119 3.046-6.013 3.482-11.717.202-2.64.275-5.164.162-5.608s-.694-1.381-1.292-2.08c-.598-.7-1.847-2.784-2.775-4.632s-1.875-3.719-2.104-4.158c-.42-.808-2.446-1.607-5.293-2.088-1.725-.291-1.85.317-.483 2.349 1.75 2.6 2.538 4.97 2.687 8.08.12 2.51.03 3.042-1.056 6.24-2.234 6.576-8.145 17.083-11.501 20.443-4.739 4.743-8.877 8.16-11.58 9.557-1.064.55-6.21 1.497-8.132 1.497-1.483 0-2.314-.36-3.603-1.56-.883-.82-.914-.826-1.36-.219-.68.925-.547 3.04.274 4.364.39.63 1.6 2.13 2.689 3.333 1.84 2.033 2.167 2.25 4.64 3.07 2.379.79 3.14.885 7.188.907 4.456.025 4.557.01 6.395-.957zm-45.25-9.278c6.282-2.697 6.204-2.647 7.745-5.037 2.867-4.448 3.058-5.032 3.46-10.563.202-2.76.375-6.675.385-8.7l.018-3.68-1.728-3.84c-.95-2.111-2.007-4.24-2.348-4.728-.792-1.136-3.072-2.288-5.524-2.79-1.056-.217-2.307-.593-2.78-.836-.854-.438-1.86-.316-1.86.227 0 .156.717 1.174 1.593 2.26 1.877 2.33 2.378 3.702 3.075 8.428.669 4.532.453 6.328-1.163 9.667-1.1 2.275-1.84 3.204-5.508 6.923-3.572 3.62-4.487 4.377-5.833 4.819-2.514.825-8.933 1.554-12.23 1.389-2.77-.139-3.08-.228-5.23-1.505-1.256-.747-3.193-2.249-4.304-3.338-2.635-2.584-2.814-3.264-2.671-10.158.121-5.847.162-5.764-1.678-3.441-2.06 2.601-4.226 14.253-3.209 17.264.422 1.248 2.683 3.748 4.26 4.71 3.619 2.208 7.73 3.968 10.587 4.532.743.147 5.642.283 10.889.302l9.538.035zm-126.31-1.052c2.263-1.055 2.563-1.499 2.136-3.17-.191-.747-.438-2.474-.549-3.838-.226-2.787-.347-2.88-2.386-1.84-.951.485-1.886.64-3.864.64H69.45l-2.319-2.32c-1.914-1.914-2.603-2.907-3.938-5.68-1.537-3.188-3.507-8.466-4.707-12.609-.3-1.038-.648-3.74-.771-6.005-.168-3.074-.351-4.242-.724-4.615-.287-.287-1.552-.64-2.98-.83-2.276-.305-2.53-.281-3.098.286-1.126 1.127-1.543 3.7-1.543 9.533 0 5.98.192 7.058 1.991 11.2 3.297 7.589 6.728 13.214 9.823 16.103 1.464 1.367 4.49 3.455 5.306 3.662.348.088 2.433.176 4.633.195 3.56.03 4.176-.048 5.6-.712zm163.52-2.507c1.91-.393 5.687-3.19 9.206-6.82 2.429-2.505 8.412-13.17 9.797-17.462.365-1.132.95-2.85 1.3-3.819.781-2.158.815-3.674.136-6.03-1.074-3.731-3.196-6.96-5.238-7.974-.81-.402-1.148-.8-1.222-1.436-.083-.72-.259-.88-.977-.88-.867 0-3.374 1.388-4.094 2.266-.253.308-.36 2.097-.332 5.574.033 4.07-.075 5.505-.525 6.993-.962 3.177-2.946 6.95-5.32 10.118-2.34 3.12-4.034 4.723-6.999 6.623-2.391 1.532-3.146 2.45-3.398 4.128-.119.795-.484 2.043-.812 2.775-.385.86-.498 1.512-.32 1.844.156.292.148.713-.019.976-.758 1.199.039 2.979 1.618 3.615.611.246 5.107-.06 7.2-.49zm-11.893-4.34c.607-1.21.896-2.897.533-3.121-.165-.102-.53.36-.81 1.027-.721 1.714-.94 2.973-.518 2.973.194 0 .551-.396.795-.88zm-36.185-2.498l2.8-.533 2.247-2.405c2.74-2.934 4.532-6.378 4.731-9.095.132-1.797-.598-7.082-1.275-9.23-.505-1.6-2.75-4.704-3.914-5.41-.545-.33-2.07-.921-3.39-1.314-3.84-1.143-3.84-1.143-3.84-2.265 0-.92-.073-.99-.88-.842-2.265.416-5.497 1.613-8.026 2.971-3.721 1.999-4.572 2.682-5.4 4.337-.386.772-1.358 2.552-2.158 3.956l-1.456 2.552v5.106c0 6.148.289 7 3.129 9.22 2.24 1.752 4.409 3.13 5.496 3.49 1.225.406 8.752.067 11.936-.538zm-7.121-4.551c0-1.53 2.115-3.032 3.878-2.755.67.105 1.31-.001 1.682-.28.775-.578.44-1.238-1.566-3.087-1.154-1.064-1.642-1.322-2.18-1.152-2.48.781-2.832-.378-.767-2.533l1.405-1.467 1.524.46c1.512.454 2.154.881 3.646 2.422 3.086 3.189 3.075 4.854-.046 7.001-2.54 1.748-7.576 2.672-7.576 1.39zm-6.96-2.788c-1.039-.75-.904-1.833.56-4.484 1.852-3.356 1.743-4.554-.4-4.374-.87.073-.664-.682.48-1.765 1.901-1.8 3.76-2.258 4.388-1.082.644 1.202.355 2.802-.948 5.263-.704 1.329-1.28 2.634-1.28 2.9 0 .525.713.76 2.72.893 1.112.074 1.28.185 1.28.85 0 1.265-1.45 2.078-3.93 2.207-1.61.083-2.33-.02-2.87-.409zm9.92-10.935c-.666-.27-.452-1.25.48-2.192 1.036-1.05 4.327-2.667 5.967-2.933.995-.162 1.153-.101 1.153.439 0 .823-.915 1.625-3.898 3.42-2.39 1.437-2.87 1.601-3.702 1.266zM77.362 215.75c.659-.66.564-1.207-1.263-7.295-1.568-5.226-2.533-7.121-4.268-8.38-.656-.477-2.777-2.479-4.713-4.448-5.243-5.335-6.16-5.721-5.77-2.43.264 2.23.803 4.162 2.647 9.482 2.261 6.522 4.173 9.92 6.903 12.273 1.482 1.277 1.62 1.326 3.737 1.326 1.617 0 2.337-.14 2.727-.529zm158.88-5.336c2.024-1.397 2.724-2.142 4.48-4.771 1.144-1.714 2.584-4.304 3.2-5.755 1.116-2.63 1.12-2.656 1.013-6.805-.059-2.29-.174-4.231-.255-4.313-.349-.35-1.374.714-3.409 3.537-3.206 4.448-4.941 7.112-5.537 8.498a105.98 105.98 0 01-1.652 3.533c-1.527 3.129-1.921 7.832-.65 7.756.226-.013 1.49-.77 2.81-1.68zm-78.607-2.083c.458-.507 2.859-4.297 5.38-8.496.41-.684 2.547-2.812 4.747-4.727 2.2-1.916 5.008-4.387 6.24-5.49 5.205-4.664 6.636-5.46 13.28-7.392.792-.23 1.959-.638 2.592-.907.895-.379 1.944-.45 4.691-.32l3.538.168 1.505-1.484c1.708-1.684 2.409-1.806 5.754-.998 3.9.942 3.994.493.4-1.908-4.996-3.337-8.161-6.897-11.125-12.512l-1.19-2.253-.375 2.04c-.505 2.74-1.675 5.763-2.98 7.702-2.533 3.76-9.687 10.219-14.575 13.157-2.934 1.764-5.33 2.887-6.157 2.887-.308 0-1.046.197-1.64.436-.593.24-2.374.686-3.958.99s-3.753.758-4.82 1.005c-1.254.29-3.826.45-7.262.45-2.933 0-5.403.133-5.504.297-.101.163.514 1.136 1.368 2.162.853 1.025 1.922 2.452 2.376 3.171.454.72 1.024 1.51 1.268 1.758 1.158 1.181 4.396 7.245 5.068 9.491.456 1.524.617 1.614 1.378.773zm76.37-8.932c.722-1.188 2.025-3.068 2.895-4.178s1.582-2.157 1.582-2.326c0-.169-.715.055-1.589.498-1.567.794-2.964 1.003-4.015.6-.989-.38-1.724-2.808-1.949-6.438-.117-1.89-.355-3.616-.529-3.836-.228-.29-1.682-.4-5.237-.4-4.16 0-4.92.074-4.92.48 0 .264.11.48.245.48.595 0 3.662 3.06 4.85 4.84.718 1.074 1.305 2.01 1.305 2.082 0 .07.656 1.21 1.459 2.532.802 1.322 2.044 3.624 2.76 5.115.715 1.49 1.42 2.71 1.566 2.71.146 0 .856-.971 1.578-2.16zm-60.802-6.8c0-.176-.064-.32-.142-.32-.077 0-.23.144-.338.32-.11.176-.046.32.14.32.187 0 .34-.144.34-.32zm107.01-2.307c1.062-.696 3.393-4.337 4.97-7.762 1.133-2.462 1.29-4.567 1.296-17.392.007-13.061.043-12.728-2.23-21.18a300.952 300.952 0 01-1.324-5.076c-.446-1.827-1.003-2.336-1.745-1.595-.382.383-.404 1.202-.14 5.084.174 2.545.319 6.953.321 9.794.006 6.053-.182 6.842-3.385 14.24-2.164 4.996-2.341 5.713-1.57 6.353.57.474.627 2.004.11 2.981-.203.385-.85 1.265-1.44 1.957-.588.692-1.07 1.46-1.07 1.707s.684 1.32 1.52 2.384l1.52 1.934.09 2.919c.124 3.973.23 4.358 1.2 4.358.44 0 1.284-.318 1.877-.706zm-212.35-2.075c.072-.51-.164-.837-.864-1.2-2.11-1.09-3.27-.161-1.576 1.263 1.166.982 2.295.952 2.44-.063zm94.62-1.474a39.422 39.422 0 013.62-.705c2.263-.3 8.319-2.263 9.407-3.051.477-.346.94-.628 1.029-.628.327 0 2.967-1.798 4.463-3.04 4.371-3.63 6.352-6.29 7.7-10.34.736-2.208.82-2.962.82-7.301 0-3.39-.137-5.23-.46-6.143-.252-.717-.775-2.846-1.161-4.732-.387-1.886-1.344-5.242-2.128-7.457-2.091-5.906-4.25-12.535-4.25-13.047 0-.245-.288-1.01-.64-1.7-.368-.721-.64-1.887-.64-2.738 0-3.375-2.662-5.064-10.56-6.702a1056.24 1056.24 0 01-8.32-1.774c-3.619-.788-5.7-1.047-9.457-1.176l-4.817-.165-4.452 1.344c-5.139 1.552-5.66 1.79-8.508 3.887-4.025 2.962-8.43 8.56-11.052 14.044-2.75 5.752-3.632 11.603-3.633 24.113v6.352l1.272 2.717c1.395 2.977 3.524 6.14 5.716 8.494 1.581 1.698 8.342 6.324 9.243 6.324.32 0 1.094.421 1.72.937 1.036.855 4.236 2.086 7.488 2.882 1.978.484 15.28.185 17.6-.395zm-17.76-8.84c-.264-.15-1.344-.448-2.4-.66-3.765-.754-9.164-3.916-12.426-7.278-4.229-4.357-5.662-7.403-5.644-11.996.012-3.047.665-8.02 1.384-10.528.271-.947.734-2.658 1.027-3.802 1.157-4.507 3.602-7.822 8.456-11.46 1.321-.99 2.681-2.056 3.021-2.369.818-.75 4.202-2.708 7.382-4.272l2.56-1.258 6.08.023c8.76.035 12.12.826 17.834 4.2 2.928 1.729 3.255 2.164 2.714 3.61-.372.997-.342 1.075.727 1.883 3.688 2.791 6.033 6.106 6.715 9.496.25 1.242.34 3.756.25 7.04-.129 4.774-.2 5.254-1.081 7.348-1.415 3.357-2.119 4.583-4.123 7.177-1.877 2.429-2.825 3.349-4.887 4.741-.654.442-1.26.9-1.349 1.02s-1.13 1.035-2.315 2.032c-3.5 2.946-4.665 3.383-11.663 4.38-1.264.181-2.677.473-3.14.649-1.026.39-8.451.41-9.122.025zm11.68-3.36c1.056-.247 3.216-.608 4.8-.802 1.584-.195 3.414-.48 4.068-.632 1.034-.242 3.284-1.684 4.252-2.726.176-.19 1.356-1.252 2.622-2.361 2.668-2.338 4.338-4.845 5.827-8.747l1.054-2.763-.223-11.476-1.07-2.059c-1.318-2.533-1.914-3.183-6.071-6.617-3.021-2.495-3.294-2.812-3.215-3.729.048-.55-.025-1.183-.162-1.404-.366-.593-3.755-2.232-5.366-2.597-4.552-1.029-7.035-1.311-11.52-1.311h-4.83l-2.769 1.229c-3.03 1.344-7.465 4.14-9.672 6.094-3.433 3.043-6.362 12.937-6.365 21.506-.002 4.049 1.322 6.845 5.268 11.132 2.688 2.92 7.842 5.81 12.331 6.912 3.58.879 8.147 1.023 11.04.35zm-13.262-6.293c-1.896-.372-3.368-1.627-4.853-4.137-2.014-3.404-1.973-3.194-1.773-9.105.174-5.165.229-5.525 1.12-7.36.515-1.06 1.34-2.793 1.835-3.85 2.088-4.468 8.345-8.48 13.227-8.48 1.025 0 2.477-.215 3.225-.48 2.515-.886 4.245-.448 7.741 1.963 3.46 2.386 4.692 3.899 7.45 9.15 1.043 1.987 1.13 2.367 1.13 4.96.002 4.112-.89 6.85-3.105 9.535-3.136 3.802-6.922 6.31-11.318 7.498-2.026.548-3.309.65-7.84.62-2.98-.02-6.058-.16-6.84-.314zm18.844-4.13c4.878-1.923 6.761-4.945 6.782-10.881.01-2.962-.483-4.5-2.21-6.89-.505-.699-1.325-1.966-1.822-2.816s-1.458-1.912-2.135-2.36l-1.231-.815-1.102.84c-1.376 1.05-2.036 1.063-2.42.051-.166-.434-.904-1.226-1.64-1.76-1.277-.925-1.49-.97-4.5-.97-3.309 0-5.972.65-7.594 1.852-.428.318-1.47 2.1-2.354 4.026l-1.584 3.455-.342 10.353 1.197 2.286c1.536 2.932 2.946 4.31 4.727 4.622.751.131 4.101.201 7.445.156 6.047-.083 6.095-.089 8.783-1.148zm-15.598-4.865c-.788-.788-.413-1.79 1.136-3.035.836-.672 1.625-1.365 1.755-1.541.353-.482.291-3.516-.093-4.526l-.338-.888-1.532 1.667c-.843.917-1.704 1.667-1.913 1.667-2.125 0 2.12-6.926 4.632-7.557.709-.177 1.02-.056 1.608.628.401.467.894.849 1.094.849.2 0 .954-.504 1.673-1.12 1.162-.994 1.512-1.12 3.122-1.12 2.774 0 3.032.432 3.03 5.073-.001 2.05-.074 4.23-.16 4.847-.14.992-.07 1.132.609 1.228.421.06 1.389-.065 2.149-.278.76-.213 1.608-.3 1.886-.194.438.168.412.318-.195 1.14-.941 1.273-3.37 2.26-6.326 2.573-1.343.142-2.847.419-3.342.615-1.246.492-8.297.47-8.796-.028zm9.513-3.284c.498-.258.994-.702 1.104-.987.345-.898.223-6.172-.147-6.401-.19-.118-.73.135-1.2.56-.47.427-1.23.934-1.69 1.128-.63.267-.883.66-1.035 1.61-.131.822-.643 1.76-1.475 2.705-.7.796-1.182 1.539-1.07 1.65.404.404 4.61.202 5.513-.265zm-65.565 29.26c3.185-1.069 7.308-3.121 8.582-4.271.765-.691 3.336-5.85 3.167-6.356-.05-.152-1.092.588-2.314 1.645-2.922 2.527-4.733 3.474-7.755 4.056-2.23.43-3.015.427-7.453-.023-2.728-.277-5.452-.662-6.054-.856-3.517-1.133-8.68-6.009-10.256-9.683-1.563-3.647-1.685-4.733-1.504-13.35.2-9.518.583-13.981 1.37-15.961 1.174-2.949 4.221-6.314 8.334-9.204 2.366-1.664 11.674-6.665 14.763-7.934 3.6-1.479-.351-2.67-9.697-2.924-6.171-.168-6.468-.148-8.16.564-2.975 1.25-5.777 3.267-9.138 6.574-3.582 3.525-6.218 7.473-10.047 15.044-.365.723-.493 2.744-.58 9.198-.103 7.643-.06 8.431.549 10.374.363 1.156.66 2.31.66 2.566 0 .973 3.019 7.558 4.475 9.762.839 1.269 2.155 2.895 2.925 3.615 4.093 3.824 9.543 7.41 12.35 8.126.666.17 3.808.252 6.983.182 5.464-.12 5.934-.181 8.8-1.144zm115.36-.62c-.276-.446-2.007-.71-3.849-.587l-1.599.107 1.12.365c1.397.455 4.59.54 4.328.115zm-172.18-3.41c.66-.254 2.313-2.645 2.59-3.748.16-.637-.028-1.206-.765-2.32-.538-.81-1.145-2.289-1.35-3.284-.204-.996-.648-2.53-.987-3.41-.769-1.999-1.873-6.605-1.873-7.811 0-.498-.302-1.825-.67-2.948-.62-1.89-.654-2.492-.463-8.096.167-4.864.364-6.689 1.001-9.28 1.3-5.282 1.394-5.555 2.258-6.582.643-.765.786-1.202.636-1.95-.268-1.343-1.708-3.33-3.982-5.493-1.708-1.627-2.085-1.84-3.245-1.84-1.093 0-1.36.129-1.606.776-.413 1.084-.46 25.392-.056 28.344a516.407 516.407 0 011.782 14.88c.802 7.636 1.381 9.097 4.71 11.878 1.448 1.21 1.318 1.153 2.02.883zm204.19-1.916c2.279-.752 5.464-2.306 6.48-3.162 2.202-1.852 5.686-10.859 6.625-17.125.12-.792.547-2.808.95-4.48.837-3.462 1.653-12.586 1.335-14.909-.117-.852-.548-2.058-.958-2.68a23.381 23.381 0 01-1.348-2.41c-.566-1.201-4.26-6.338-5.063-7.04-.202-.176-1.152-1.256-2.113-2.4-4.706-5.603-7.825-7.233-16.518-8.635-1.867-.301-2.744-.278-4.893.13-1.44.273-2.937.664-3.326.869-3.225 1.699-7.33 4.48-8.532 5.782-.8.866-2.715 2.656-4.254 3.977s-3.164 3.024-3.61 3.783c-1.02 1.743-2.799 6.574-2.419 6.574.378 0 3.038-3.114 5.107-5.978 1.769-2.448 6.926-7.3 9.757-9.179 3.264-2.167 4.633-2.515 9.324-2.377 4.84.143 7.392.875 10.58 3.036 1.045.708 2.476 1.58 3.18 1.94 2.33 1.184 5.151 3.48 5.7 4.637.427.9.464 1.323.185 2.124-.293.84-.215 1.371.49 3.318.696 1.925 1.758 6.128 1.78 7.039.01.469 1.211.23 2.012-.4.881-.693 2.305-.851 2.65-.294.331.537-1.454 2.187-2.804 2.592-.667.2-1.224.52-1.238.713-.013.192-.01 2.149.01 4.349.04 4.965-.65 9.68-1.733 11.818-.548 1.08-1.538 2.187-3.085 3.447-4.139 3.371-5.534 4.313-8.767 5.918l-3.2 1.589-5.28-.14c-3.588-.095-5.69-.293-6.56-.618-.704-.262-2.436-.564-3.85-.67-4.936-.37-9.615-2.54-13.83-6.415-1.78-1.637-1.743-.924.099 1.886 2.643 4.034 5.37 6.367 11.822 10.11 6.288 3.65 6.091 3.6 14.628 3.635 3.997.017 7.367.129 7.487.25.238.238 1.162.063 3.18-.603zm-142.73-2.365c2.24-.64 3.573-1.385 4.036-2.257.135-.256.5-1.328.813-2.384.378-1.282.983-2.372 1.819-3.28 1.79-1.943 2.257-1.831 1.998.48-.193 1.719-.173 1.798.301 1.2 1.677-2.112 3.92-8.658 3.212-9.367-.118-.117-.598.286-1.068.897-2.223 2.892-7.203 6.66-10.19 7.71-3.005 1.056-8.702.536-11.803-1.077-1.91-.995-4.851-4.266-6.446-7.172l-1.554-2.831v-11.52l1.724-3.2c3.29-6.111 6.033-9.49 10.667-13.141 2.605-2.053 4.168-2.684 6.665-2.693 2.5-.008 3.026-.365 2.38-1.615-.574-1.11-1.023-1.272-3.52-1.272-1.602 0-2.71.265-5.249 1.255-1.77.69-4.067 1.77-5.104 2.4-1.038.63-1.99 1.145-2.118 1.145-.128 0-.881.439-1.675.974-.794.536-2.286 1.4-3.316 1.92-1.86.938-3.586 2.818-4.87 5.301-.785 1.52-1.502 9.924-1.503 17.63 0 6.363.049 6.94.806 9.336.886 2.805 2.566 5.316 5.211 7.79 2.456 2.298 4.266 3.054 8.943 3.736 5.419.79 7.171.796 9.84.035zm176.74-2.641c.952-1.562 4.703-10.381 5.467-12.857.563-1.823.668-2.973.657-7.177-.019-6.754-.474-12.95-1.107-15.086-.863-2.906-.909-3.465-.356-4.309.284-.433.517-1.066.517-1.406 0-.772-2.118-2.673-2.831-2.542-1.14.21-2.055 2.972-2.352 7.094-.781 10.833-1.45 37.323-.943 37.323.173 0 .599-.468.948-1.04zm-36.217-7.24c4.28-2.092 6.164-3.914 6.995-6.76.96-3.29.9-12.703-.112-17.44-1.49-6.976-2.975-9.61-6.227-11.047-1.866-.824-2.096-1.303-1.185-2.462.825-1.049 1.063-.807-3.398-3.462-3.59-2.137-5.785-2.698-10.575-2.705-3.472-.005-3.64.029-5.735 1.121-3.893 2.029-4.885 3.052-10.768 11.102-2.023 2.768-1.542 3.261 1.107 1.133 5.184-4.166 5.716-4.385 10.652-4.392 4.537-.006 6.043.333 6.78 1.528.292.475.992 1.584 1.555 2.464 2.886 4.51 3.985 9.059 3.985 16.488 0 6.279-.335 7.443-2.84 9.852-.972.935-2.66 2.2-3.753 2.81-2.157 1.207-2.901 1.88-2.412 2.182 1.013.626 4.544 1.097 8.394 1.121l4.348.027 3.188-1.56zm-197.73-7.13c-.13-6.432-.275-8.29-.834-10.655-.495-2.095-.677-3.908-.677-6.755 0-4.487-.267-6.932-.74-6.774-.792.264-1.754 5.76-1.987 11.34-.207 4.965-.161 5.878.423 8.508.36 1.62.888 4.217 1.173 5.77.59 3.218 2.052 7.103 2.503 6.651.172-.171.23-3.54.139-8.085zm61.947 6.162c2.57-1.305 3.689-2.697 4.079-5.077.436-2.663.435-2.665-.516-2.172-.982.51-7.395.305-8.101-.258-.357-.285-.4-1.213-.224-4.839.24-4.954.8-6.734 2.506-7.973 1.354-.984 1.653-.421 1.229 2.314-.543 3.501-.465 7.3.156 7.538 1.127.433 1.94.144 3.116-1.105.937-.996 1.422-1.276 2.08-1.2.842.098.858.141.84 2.355l-.017 2.256 2.823-.93-.136-1.95c-.08-1.168-.496-2.787-1.033-4.031a72.737 72.737 0 01-1.667-4.32c-1.603-4.674-3.88-9.719-4.91-10.88-.313-.352-.675-1-.805-1.44-.546-1.853-2.456-2.881-5.344-2.879-3.962.004-6.206 1.177-8.249 4.312-.72 1.106-1.61 2.28-1.978 2.609-.368.329-1.4 2.11-2.295 3.958l-1.626 3.36-.012 5.44-.013 5.44 1.6 2.854c3.249 5.796 7.11 8.009 13.527 7.753 2.565-.103 3.238-.256 4.97-1.135zm-12.513-9.376c-.211-.211-.384-1.224-.384-2.25 0-2.066-.531-2.654-1.557-1.725-.54.489-1.643.722-1.643.347 0-.642 2.415-6.238 3.053-7.074.897-1.176 1.9-1.61 2.524-1.093.547.454 1.143 4.445 1.143 7.65 0 2.389-.04 2.522-1.055 3.506-1.15 1.115-1.498 1.222-2.081.639zm131.02 8.032c3.655-1.118 5.749-2.39 6.332-3.848.803-2.008.696-10.259-.187-14.27-.844-3.84-2.46-7.461-3.734-8.369-.518-.369-1.017-1.078-1.12-1.591-.238-1.191-.757-1.32-5.34-1.325-4.496-.005-5.23.191-7.653 2.056-3.48 2.678-5.145 7.501-5.145 14.903v4.381l1.576 2.082c1.766 2.332 3.145 3.514 5.914 5.07 3.055 1.715 5.844 1.987 9.357.912zm1.595-4.238c-.175-.696-.341-.748-2.292-.72-1.85.026-2.172-.06-2.67-.72-.521-.689-.672-.722-1.824-.402-1.373.38-3.722.454-4.856.15-.895-.24-.928-1.11-.07-1.888 1.462-1.322 1.837-2.428 1.983-5.836.16-3.743-.115-4.38-1.5-3.472-1.807 1.184-1.982.185-.253-1.44 1.591-1.495 2.774-2.202 3.685-2.202 1.34 0 1.515.528 1.515 4.58 0 3.302-.091 3.976-.684 5.03-.872 1.552-.638 2.26.697 2.104.549-.064 1.147-.266 1.33-.45.437-.436.866-2.703.883-4.666.013-1.372.155-1.696 1.172-2.655.637-.6 1.32-1.037 1.52-.97.42.141.443 4.366.044 7.54-.237 1.88-.212 2.023.338 1.917.378-.072.674-.503.812-1.178.3-1.467 1.807-2.987 2.842-2.866l.806.094-.112 3.36c-.108 3.252-.144 3.393-1.103 4.4-1.169 1.227-2.001 1.334-2.263.29zm89.708 3.01c.452-.845.418-3.325-.053-3.796-.527-.527-2.558-.484-3.315.07-.475.347-.621.84-.621 2.092 0 1.91.341 2.242 2.309 2.249 1.009.004 1.432-.151 1.68-.614zm-115.47-11.865c.3-4.044 1.404-9.798 2.502-13.058 1.428-4.24 2.738-6.579 4.88-8.709 10.792-10.738 16.127-14.695 21.815-16.183 2.029-.53 6.225-.471 9.55.135 2.3.42 2.466.087 1.037-2.066-1.203-1.813-3.595-6.485-6.406-12.514-.76-1.628-1.53-2.96-1.713-2.96-.391 0-.556.704-.826 3.52-.283 2.956-.738 4.632-1.972 7.264-.87 1.855-1.551 2.727-3.5 4.48-1.33 1.197-3.266 2.767-4.301 3.489-1.036.722-2.429 1.806-3.096 2.408-1.728 1.562-5.742 4-8.117 4.93-1.834.72-2.488.796-6.84.806-5.343.012-9.005-.367-10.802-1.12-.654-.273-1.5-.497-1.877-.497-.59 0-.657.126-.47.88.119.484.347 1.672.506 2.64.158.968.491 2.552.74 3.52.536 2.095 4.013 12.546 4.997 15.02.38.957.975 3.19 1.322 4.96.625 3.195 1.88 7.338 2.144 7.075.075-.076.267-1.884.426-4.02zm-141-23.206c1.734-.889 3.19-2.106 6.794-5.68 2.523-2.502 5.215-5.485 5.984-6.63 2.818-4.196 7.948-13.162 8.827-15.428 1.032-2.661 2.688-9.699 2.394-10.174-.108-.175-.562-.317-1.009-.317-.872 0-1.232.328-5.368 4.887-3.465 3.82-4.191 5.229-4.431 8.592-.106 1.474-.416 3.54-.69 4.588-.275 1.05-.5 2.561-.501 3.36-.002 1.767-.935 3.434-2.084 3.723-.454.114-.926.105-1.05-.018-.375-.376-.15-4.041.383-6.252.277-1.144.505-2.904.507-3.911.007-2.602 1.154-4.794 4.45-8.505 3.811-4.29 8.267-8.582 9.795-9.437 1.438-.804 1.82-1.998 1.027-3.21-1.437-2.193-11.95-2.416-15.148-.32-.747.49-3.575 3.98-7.045 8.7-.73.991-2.29 3.637-3.467 5.88-1.981 3.775-2.209 4.422-3.073 8.748-1.098 5.492-1.277 10.501-.427 11.926.735 1.232 1.925 2.013 3.358 2.205.813.11 1.255.334 1.255.638 0 .626-1.804 2.285-2.74 2.52-1.617.406-4.458-1.214-5.431-3.096-1.228-2.373.185-14.444 2.15-18.378 3.33-6.663 5.425-10.088 7.149-11.68.476-.44 1.552-1.812 2.392-3.05 1.637-2.415 5.405-6.09 7.568-7.38 2.029-1.211 6.005-1.847 10.112-1.617 3.813.213 4.17.007 2.64-1.524-.44-.44-.803-1.13-.807-1.534-.01-.99-1.083-3.297-2.092-4.495-.688-.818-.787-1.176-.613-2.208l.208-1.232-2.828.004c-2.369.002-3.114.137-4.588.829-.968.454-2.768 1.189-4 1.632-5.47 1.97-8.647 4-10.162 6.495-.374.616-1.265 1.782-1.979 2.591-2.263 2.562-7.412 10.542-9.46 14.658-3.275 6.588-4.186 9.1-4.481 12.351a626.366 626.366 0 01-.642 6.56c-.763 7.36-.214 9.568 3.256 13.091 2.562 2.6 4.157 3.222 8.283 3.226 3.237.003 3.466-.044 5.584-1.128zm217.03-2.855c4.328-1.793 4.35-1.823 4.195-5.74-.086-2.181-.355-3.912-.824-5.315-.384-1.144-1.122-3.376-1.642-4.96-.52-1.584-1.51-4.536-2.202-6.56a304.207 304.207 0 01-1.808-5.44c-.304-.968-1.19-2.718-1.968-3.89s-1.417-2.272-1.417-2.447c0-.175-.52-1.089-1.155-2.03-.635-.942-1.956-3.225-2.937-5.073-.98-1.848-2.159-3.8-2.62-4.337a20.386 20.386 0 01-1.542-2.115c-.606-.98-.913-1.163-2.225-1.32-.837-.1-3.105-.783-5.041-1.52-7.09-2.695-6.766-2.615-11.428-2.79-3.606-.137-4.522-.079-5.138.325-.978.64-2.664 3.859-2.955 5.64l-.23 1.402 1.236-.276c.68-.153 2.027-.273 2.995-.269 2.27.011 11.048.996 12.4 1.391 1.547.453 2.933 1.561 3.164 2.53.113.473 1.107 1.803 2.21 2.957s2.24 2.66 2.528 3.348c.288.688 1.393 2.449 2.458 3.914 1.064 1.464 2.275 3.502 2.692 4.527.417 1.025 1.065 2.386 1.441 3.023.497.841.813 2.279 1.155 5.245.869 7.528.903 9.414.2 10.996-.905 2.037-2.713 4.76-4.56 6.871-.884 1.01-1.607 2.094-1.607 2.408 0 .759.968.87 6.88.79 4.767-.065 4.82-.074 7.746-1.286zm-15.966-1.055c.7-.66 1.964-2.352 2.808-3.76 1.483-2.474 1.535-2.645 1.553-5.12.021-2.905-.963-11.594-1.373-12.128-.15-.193-.74-1.503-1.312-2.911s-1.367-2.92-1.764-3.36c-1.07-1.186-3.245-4.517-3.772-5.778-.627-1.502-5.153-5.692-7.495-6.94-2.416-1.288-5.218-1.732-10.185-1.614l-3.84.092-.246 2.4c-.35 3.4-.195 3.84 1.352 3.84 2.126 0 2.736.351 7.219 4.16.932.792 2.039 1.676 2.46 1.965.864.594 4.422 7.546 5.163 10.09.266.91.65 1.965.852 2.344.953 1.78 2.283 7.964 2.464 11.454l.187 3.614 1.315 1.138c2.357 2.04 2.928 2.104 4.614.515zm-47.981-5.318c3.018-1.227 10.159-6.233 12.045-8.445 2.222-2.606 3.2-6.263 3.552-13.288.206-4.103.181-4.365-.567-6.02-.43-.95-1.265-3.241-1.854-5.089-1.781-5.581-1.685-5.43-5.214-8.196-2.2-1.723-3.99-3.489-5.644-5.564-6.368-7.99-8.14-9.203-16.103-11.028-3.183-.73-12.072-.686-14.02.068-3.835 1.486-11.073 5.957-13.584 8.39-.583.565-1.616 1.818-2.295 2.784a63.612 63.612 0 01-2.562 3.353c-.946 1.139-1.63 2.487-2.379 4.695-.953 2.811-1.063 3.53-1.186 7.76l-.135 4.661 1.132 2.25c1.083 2.15 2.593 4.267 3.043 4.267.117 0 .226-1.777.243-3.95.027-3.453.144-4.27.922-6.48 1.558-4.43 2.273-5.457 7.047-10.14 3.553-3.483 6.694-5.881 9.506-7.256l2.146-1.049 5.374.16c4.677.138 5.705.268 7.934 1 1.408.464 3.095 1.237 3.749 1.719.654.482 2.329 1.695 3.722 2.697 3.08 2.213 5.657 5.068 7.624 8.446 5.858 10.059 5.635 9.733 6.675 9.733 1.539 0 1.595.57.636 6.492-.49 3.03-1.082 5.94-1.314 6.468-.718 1.636-4.087 5.676-6.24 7.482-4.853 4.074-5.583 4.838-4.622 4.838.276 0 1.342-.342 2.369-.759zm37.142-5.385c-.385-1.461-.909-2.992-1.165-3.402s-.672-1.542-.926-2.515c-.253-.972-1.225-3.377-2.16-5.343-1.387-2.919-1.958-3.773-3.114-4.663-.78-.598-1.632-1.33-1.896-1.626-.534-.597-4.033-3.188-4.307-3.188-.574 0 .334 2.201 4.225 10.24 1.844 3.81 2.491 4.85 5.857 9.395.8 1.081 1.783 2.505 2.185 3.163.401.66.97 1.335 1.265 1.501.825.468.835-.527.036-3.562zm-39.454 3.023c2.894-1.607 4.271-2.852 6.202-5.608.861-1.23 1.213-2.248 1.8-5.208.53-2.677.644-3.9.42-4.492-.17-.447-.31-1.283-.31-1.857 0-.596-.386-1.653-.898-2.46-1.25-1.967-3.999-6.597-4.83-8.135-.38-.704-1.131-2-1.668-2.88-2.391-3.922-9.507-9.591-13.884-11.06-2.003-.673-2.832-.754-7.84-.766l-5.6-.013-2.067 1.078c-1.439.75-2.931 1.968-4.905 4-3.194 3.288-3.965 4.449-5.24 7.882-.78 2.103-.892 2.855-.9 6.08-.006 2.987.104 3.884.585 4.766.79 1.45 1.156.85 1.163-1.908.005-1.96.117-2.291 1.684-4.92 1.868-3.133 4.28-5.573 6.977-7.058 1.654-.911 1.932-.96 5.423-.956 3.515.004 3.867.068 7.84 1.43 3.405 1.166 4.742 1.823 7.36 3.615 6.626 4.533 6.863 4.734 7.231 6.133.189.714.979 2.472 1.756 3.907 1.314 2.426 1.413 2.778 1.413 5.013 0 2.139-.125 2.641-1.135 4.545-1.633 3.079-3.765 6.221-5.083 7.495-.628.607-1.142 1.208-1.142 1.337 0 .739 4.334.77 5.648.04zm-5.58-2.88c.268-.307 1.226-1.799 2.13-3.313 1.583-2.655 1.642-2.84 1.642-5.137 0-2.344-.034-2.441-2.083-6.046-2.336-4.108-3.608-5.45-7.789-8.216-2.488-1.646-4.374-2.476-9.488-4.176-2.373-.79-8.287-.754-9.638.058-1.042.625-2.652 3.12-3.32 5.143-.555 1.683-.252 5.399.623 7.65.897 2.306 4.132 6.613 6.286 8.369 1.517 1.236 5.863 3.345 9.716 4.714 2.518.895 5.836 1.452 8.843 1.486 2.093.023 2.684-.08 3.078-.531zm-8.743-3.598c-1.046-.553-1.391-1.065-2.017-2.992-.184-.567-.235-.565-1.3.064-1.391.82-3.04 1.14-4.485.868-2.001-.375-1.842-2.29.437-5.277.613-.803 1.218-2.029 1.346-2.724.606-3.314-1.636-3.755-2.897-.57-.803 2.03-3.209 3.15-3.209 1.494 0-1.206.709-2.347 2.615-4.21 2.402-2.347 4.733-3.197 6.366-2.323.519.277.619.683.619 2.507 0 2.028-.089 2.302-1.31 4.044-1.696 2.423-1.99 3.197-1.396 3.69.597.495 2.46.15 3.12-.58.276-.304.654-.955.84-1.445.625-1.642 3.189-5.266 4.552-6.432 2.332-1.996 2.425-1.59.434 1.902-.792 1.39-1.44 2.794-1.44 3.12 0 .565.054.561 1.078-.071 1.123-.695 2.907-.868 3.708-.362.548.347.933 3.563.613 5.126-.294 1.438-1.164 2.539-2.978 3.77-1.766 1.197-2.99 1.302-4.696.401zm4.182-3.647c.16-.421.208-1.083.107-1.471-.156-.594-.34-.674-1.163-.51-1.522.305-1.79 1.376-.585 2.347.754.607 1.319.481 1.641-.366zm31.235-19.53c.268-1.068.056-1.944-.472-1.944-.775 0-1.157.979-.74 1.895.472 1.035.96 1.055 1.212.05zM73.28 63.134a65.044 65.044 0 004.19-2.617c1.869-1.285 3.918-2.456 7.585-4.335.996-.51 2.098-.94 5.565-2.17 1.146-.405 2.68-1.273 3.488-1.973 2.241-1.94 7.471-5.841 8.64-6.446 2.154-1.113 5.717-3.541 7.285-4.965a88.98 88.98 0 013.142-2.704c2.664-2.156 2.721-3.389.158-3.4-2.424-.01-18.153 5.548-23.638 8.353-2.376 1.215-5.955 2.778-7.953 3.473l-3.633 1.264-3.777 3.843c-3.426 3.485-3.842 4.037-4.47 5.924-.381 1.145-1.112 2.84-1.624 3.77-1.066 1.933-1.193 3.009-.383 3.244 1.228.356 3.464-.164 5.425-1.26zm164.6-3.346c.975-.522.79-2.143-.456-3.993-2.44-3.622-6.304-6.686-10.267-8.14-1.88-.69-2.35-1.012-2.808-1.924-.458-.913-.829-1.166-2.236-1.526-.927-.237-1.996-.634-2.374-.883-.38-.248-1.821-.741-3.205-1.096-3.94-1.012-7.816-2.407-10.059-3.621-1.13-.613-3.317-1.795-4.859-2.628-3.345-1.806-8.566-3.69-10.237-3.694-1.126-.003-1.2.057-1.2.974 0 1.794 4.692 5.877 8.016 6.976 1.035.342 5.445 3.084 6.864 4.268.352.293 1.864 1.44 3.36 2.548 1.496 1.109 3.152 2.417 3.68 2.908.528.49 2.374 1.614 4.102 2.497 1.728.883 3.73 1.977 4.45 2.43 2.757 1.741 8.763 4.347 10.968 4.76 2.78.519 5.445.58 6.26.144zM86.45 31.14c.214-.19-.312-.781-.69-.776-.67.008-1.272.55-1.036.932.191.31 1.313.209 1.726-.156zm82.244-18.667c.327-.207.424-1.103.39-3.59-.026-1.823-.181-3.447-.344-3.61-.183-.184-.784.04-1.562.579-2.063 1.43-2.388 1.952-2.542 4.092-.118 1.633-.044 2.033.441 2.388.652.477 2.946.566 3.617.141zm55.324 278.14c-1.797-.272-1.792-1.899.012-3.975 1.168-1.344 1.668-2.284 1.668-3.135 0-.537-.202-.66-1.08-.66-2.725 0-2.125-2.52 1.203-5.057 1.482-1.13 2.37-.94 3.065.656.844 1.94.479 3.833-1.23 6.378-1.245 1.853-1.306 2.04-.792 2.415 1.257.92 3.681.314 5.184-1.295.413-.441 1.387-1.205 2.165-1.697s1.365-1.043 1.304-1.224c-.067-.2-1.016-.29-2.404-.225-1.929.089-2.326.019-2.503-.441-.15-.391.215-.937 1.28-1.914.828-.761 1.488-1.654 1.488-2.013 0-.847 1.817-2.364 2.684-2.24.585.083.676.312.676 1.696v1.6l1.305.16c1.48.182 3.167 1.437 3.655 2.72.438 1.152.394 3.36-.085 4.28-.61 1.17-2.746 2.539-5.32 3.41-2.952.999-4.515 1.05-4.515.15 0-.79-.057-.79-1.352 0-1.026.625-3.815.804-6.408.411zm10.469-2.79c.71-.253 1.838-.549 2.508-.658.669-.109 1.3-.414 1.4-.678.28-.73-.334-2.508-.905-2.617-.593-.115-4.752 3.38-4.752 3.993 0 .528.163.525 1.749-.04zm-211.96-49.26c-.835-1.007.834-2.396 3.275-2.728 2.088-.283 2.451-.508 2.451-1.519 0-.782-.059-.805-1.808-.701-2.267.135-2.468-.278-.9-1.846 1.024-1.024 1.154-1.32.998-2.28-.252-1.553-.742-2.007-2.169-2.007-1.008 0-1.24-.114-1.24-.611 0-1.409 3.067-2.932 4.951-2.46 1.108.279 1.89 1.923 1.852 3.891-.03 1.508.033 1.644.902 1.972.897.339.934.433.932 2.38-.002 2.347-.498 3.308-2.448 4.742-1.96 1.441-5.993 2.134-6.796 1.167zm-5.447-.942c-.19-.19-.347-.873-.347-1.516 0-2.275-.415-5.103-.75-5.103-.187 0-.814.46-1.395 1.024-.775.75-1.15.928-1.412.667-.26-.26-.077-1.133.69-3.276.965-2.7 1.187-3.04 2.944-4.507 2.085-1.743 3.022-1.991 3.271-.868.088.396.229 2.808.313 5.36.084 2.552.173 4.979.198 5.392.027.456-.36 1.17-.982 1.812-1.15 1.187-2.012 1.533-2.53 1.015zm-9.942-76.37c-.187-.348-.43-2.22-.54-4.16-.112-1.941-.325-3.529-.474-3.529-.15 0-.793.576-1.429 1.28-1.28 1.417-2.042 1.64-2.042.597 0-1.054 5.437-6.357 6.517-6.357h.843v3.31c0 1.952.189 3.934.46 4.834.547 1.818.317 2.615-1.097 3.805-1.206 1.015-1.782 1.071-2.238.22zm278.48-68.84c-1.366-.508-.862-2.1 1.408-4.449.765-.792 1.391-1.672 1.391-1.956 0-.284-.586-.923-1.302-1.42-1.459-1.01-2.218-2.233-2.216-3.568.003-1.705 2.246-4.393 4.724-5.663.982-.502 1.059-.502 1.256.013.148.384-.127.843-.917 1.531-1.56 1.36-1.918 2.117-1.444 3.052.533 1.051 1.528 1.603 1.752.971.23-.649 2.16-2.56 2.584-2.56.188 0 .504.304.702.675.28.522.238 1.158-.183 2.8l-.545 2.125.997 2.496c1.12 2.8 1.061 3.17-.709 4.52-1.443 1.102-6.03 1.978-7.498 1.432zm4.354-3.134c.541-.343.19-1.635-.445-1.635-.535 0-1.22 1.163-.945 1.607.237.384.81.395 1.39.028zm-266-1.501c-.107-.278-.195-.997-.195-1.598 0-1.498-1.594-9.483-1.99-9.972-.45-.554-.653-.366-2.333 2.16-1.469 2.21-2.477 3.196-3.268 3.196-.917 0-.26-1.404 2.551-5.453 3.27-4.708 5.016-6.431 5.83-5.755.27.223.49.755.49 1.182s.208 1.668.462 2.76c.255 1.093.545 2.382.647 2.866.218 1.043.852 1.123 2.062.261.477-.34 1.257-.716 1.732-.835.537-.135.934-.499 1.05-.963.259-1.03-.103-1.48-1.104-1.375-2.397.251-1.647-1.45 1.203-2.73 1.028-.46 2.097-.838 2.377-.838.753 0 1.171 1.03 1.171 2.879v1.64l1.44-.216c1.285-.192 1.44-.149 1.44.404 0 .36-.566 1.03-1.355 1.6l-1.355.982-.01 5.903-1.265 1.095c-1.945 1.682-2.227 1.434-2.415-2.13l-.16-3.037-1.44.114c-2.681.212-2.924.623-2.069 3.503.44 1.478.44 1.752.006 2.59-.947 1.832-3.067 2.902-3.503 1.767zM74.55 36.869c-.118-.117-.214-2.853-.214-6.08 0-6.916.033-6.873-3.044-3.919-1.343 1.29-2.225 1.903-2.612 1.815-.451-.103.334-1.06 3.458-4.215 3.245-3.278 4.19-4.061 4.8-3.975l.758.107.18 6.24c.097 3.432.294 6.564.436 6.96.47 1.305-2.833 3.996-3.762 3.067z"/></svg>