<?xml version="1.0" standalone="no"?>
<!DOCTYPE svg PUBLIC "-//W3C//DTD SVG 20010904//EN"
 "http://www.w3.org/TR/2001/REC-SVG-20010904/DTD/svg10.dtd">
<svg version="1.0" xmlns="http://www.w3.org/2000/svg"
 width="1017.000000pt" height="1101.000000pt" viewBox="0 0 1017.000000 1101.000000"
 preserveAspectRatio="xMidYMid meet">
<metadata>
Created by potrace 1.16, written by Peter Selinger 2001-2019
</metadata>
<g transform="translate(0.000000,1101.000000) scale(0.100000,-0.100000)"
fill="#000000" stroke="none">
<path d="M3580 11000 c13 -8 12 -10 -4 -10 -19 0 -89 -38 -94 -52 -2 -4 -10
-8 -18 -8 -8 0 -14 -7 -14 -15 0 -8 -4 -15 -9 -15 -5 0 -20 -17 -32 -37 -13
-21 -42 -55 -66 -76 -24 -21 -43 -45 -43 -52 0 -7 -5 -15 -11 -17 -7 -2 -17
-44 -24 -92 -13 -97 -1 -209 26 -243 31 -40 118 -123 128 -123 6 0 11 -4 11
-9 0 -5 10 -13 23 -17 12 -4 25 -12 29 -18 4 -7 50 -12 113 -14 91 -3 105 -2
105 12 0 9 6 16 13 16 13 1 47 61 47 85 0 7 5 15 12 17 14 5 25 199 14 242 -8
33 -65 86 -92 86 -12 0 -24 5 -26 12 -3 8 -33 14 -81 16 -63 3 -84 1 -117 -17
-22 -11 -40 -19 -40 -16 0 2 34 38 75 80 l75 75 113 -6 c61 -4 114 -10 117
-14 3 -4 24 -10 48 -13 29 -3 51 -14 67 -31 29 -32 90 -36 111 -8 16 20 19 92
4 92 -5 0 -10 6 -10 13 0 12 -7 17 -66 47 -16 8 -33 20 -37 27 -4 7 -17 13
-27 13 -11 0 -20 4 -20 9 0 5 -31 12 -70 16 -38 4 -70 11 -70 15 0 5 -19 11
-41 15 -29 5 -38 10 -28 16 9 6 -8 9 -46 9 -42 0 -56 -3 -45 -10z m64 -469
c14 -5 16 -10 8 -15 -7 -4 -12 -31 -12 -64 0 -73 -7 -95 -31 -110 -16 -10 -24
-10 -42 3 -12 8 -29 15 -39 15 -10 0 -18 5 -18 10 0 6 -6 10 -14 10 -16 0 -60
39 -69 63 -3 9 -11 17 -17 17 -23 0 -8 29 20 39 17 5 38 17 46 26 17 16 131
21 168 6z"/>
<path d="M4240 10280 c0 -5 -8 -10 -18 -10 -20 0 -43 -16 -110 -78 -26 -23
-57 -45 -69 -48 -13 -4 -23 -10 -23 -15 0 -5 -7 -9 -15 -9 -8 0 -15 -7 -15
-15 0 -8 -7 -15 -15 -15 -8 0 -15 -7 -15 -15 0 -8 -4 -15 -10 -15 -5 0 -10 -4
-10 -9 0 -14 -45 -61 -59 -61 -6 0 -11 -4 -11 -10 0 -5 -5 -10 -11 -10 -32 0
-79 -85 -79 -143 0 -23 -4 -57 -9 -74 -11 -39 11 -205 28 -211 6 -2 11 -8 11
-13 0 -12 37 -49 50 -49 6 0 10 -4 10 -10 0 -5 6 -10 13 -10 8 0 22 -9 32 -20
10 -11 22 -20 27 -20 5 0 14 -5 21 -10 48 -41 62 -50 73 -50 7 0 14 -6 17 -12
3 -10 44 -13 162 -13 118 0 159 3 163 13 2 6 10 12 18 12 8 0 17 7 20 15 4 8
12 15 20 15 8 0 14 6 14 14 0 8 3 16 8 18 14 6 52 95 52 122 0 14 5 26 10 26
6 0 10 9 10 20 0 11 -4 20 -10 20 -5 0 -10 11 -10 24 0 31 -11 38 -64 38 -51
1 -91 -23 -100 -60 -13 -59 -29 -67 -127 -67 -76 0 -92 3 -100 18 -6 9 -16 17
-24 17 -7 0 -15 4 -17 8 -5 13 -87 52 -108 52 -30 0 -43 36 -37 104 3 33 10
62 16 64 6 2 11 8 11 14 0 5 21 31 46 56 25 26 52 61 61 79 8 18 23 35 34 38
10 4 19 11 19 16 0 5 6 9 13 9 7 0 33 19 58 43 24 23 59 50 76 60 33 18 83 23
83 8 0 -5 14 -12 30 -16 17 -4 30 -11 30 -16 0 -5 8 -9 19 -9 18 0 71 -42 71
-57 0 -4 23 -28 50 -54 28 -26 50 -54 50 -63 0 -9 7 -16 15 -16 8 0 15 -4 15
-10 0 -17 46 -11 63 8 10 10 17 29 17 41 0 23 -27 71 -47 84 -7 4 -13 15 -13
22 0 8 -4 15 -10 15 -5 0 -10 7 -10 15 0 8 -7 15 -15 15 -8 0 -15 6 -15 14 0
13 -94 106 -108 106 -4 0 -16 14 -27 30 -11 16 -28 30 -37 30 -9 0 -20 5 -23
10 -3 6 -42 10 -86 10 -46 0 -79 -4 -79 -10z"/>
<path d="M4840 10071 c-5 -11 -10 -29 -10 -40 0 -11 -4 -22 -9 -25 -5 -4 -12
-25 -16 -49 -4 -23 -11 -47 -15 -52 -5 -6 -11 -30 -14 -55 -2 -25 -5 -46 -5
-46 -1 -1 -21 3 -45 9 -27 6 -58 6 -82 1 -38 -10 -39 -10 -42 -60 -3 -46 0
-53 24 -69 15 -10 47 -20 71 -23 32 -3 41 -8 33 -16 -5 -7 -12 -38 -16 -69 -4
-31 -10 -57 -14 -57 -11 0 -21 -93 -22 -210 0 -103 0 -104 28 -127 33 -26 58
-29 96 -11 37 18 55 68 63 173 4 50 11 95 16 101 5 6 12 50 15 97 7 86 7 87
33 87 15 0 31 -4 36 -9 6 -6 61 -13 122 -17 l113 -7 -7 -26 c-3 -14 -9 -30
-13 -36 -4 -5 -11 -28 -15 -50 -4 -22 -11 -42 -16 -45 -23 -15 -50 -313 -30
-333 6 -6 11 -18 11 -27 0 -9 13 -31 29 -49 26 -30 34 -32 78 -30 l48 3 5 -36
c5 -37 40 -88 61 -88 6 0 17 -7 25 -15 9 -8 28 -15 44 -15 16 0 31 -4 35 -9 3
-5 19 -12 35 -16 17 -4 30 -11 30 -15 0 -5 17 -12 38 -15 20 -3 45 -10 54 -16
22 -12 113 -12 136 0 9 5 35 13 57 18 27 5 43 15 50 31 5 12 13 22 17 22 13 0
8 54 -7 74 -25 33 -65 46 -144 46 -132 0 -198 20 -111 34 22 3 40 11 40 16 0
6 9 10 19 10 11 0 26 7 34 15 8 7 26 17 41 21 14 3 26 10 26 14 0 5 14 11 30
15 17 4 30 11 30 16 0 5 9 9 19 9 11 0 26 7 35 15 8 8 19 15 24 15 17 0 61 48
83 90 18 34 21 52 16 108 -3 36 -10 68 -16 70 -6 2 -11 8 -11 14 0 16 -76 88
-93 88 -8 0 -17 5 -19 12 -5 14 -168 24 -221 14 -35 -7 -97 -54 -97 -74 0 -7
-7 -12 -15 -12 -8 0 -15 -6 -15 -14 0 -8 -7 -16 -15 -20 -19 -7 -21 -116 -3
-134 7 -7 31 -12 53 -12 35 0 44 4 56 28 8 15 28 42 45 60 29 30 36 32 98 32
53 0 70 -4 86 -20 23 -23 25 -39 8 -63 -16 -21 -103 -67 -127 -67 -9 0 -26 -7
-37 -15 -10 -8 -29 -15 -41 -15 -12 0 -28 -7 -37 -15 -8 -8 -24 -15 -35 -15
-11 0 -26 -7 -35 -15 -8 -8 -21 -15 -29 -15 -8 0 -22 -9 -32 -20 -10 -11 -25
-20 -34 -20 -9 0 -25 -7 -35 -15 -10 -8 -22 -12 -26 -10 -9 6 0 217 11 230 4
6 11 30 15 53 4 23 10 42 15 42 5 0 11 23 15 51 7 54 24 79 54 79 10 0 28 13
39 29 22 30 28 81 11 81 -5 0 -10 6 -10 14 0 8 -8 16 -17 18 -15 3 -16 17 -14
121 2 105 0 121 -19 152 -20 33 -25 35 -76 35 -43 0 -56 -4 -61 -17 -4 -10
-13 -24 -20 -31 -7 -7 -13 -21 -13 -30 0 -9 -7 -26 -15 -36 -8 -11 -15 -30
-15 -43 0 -13 -4 -23 -9 -23 -5 0 -12 -13 -16 -29 -4 -18 -14 -31 -27 -34 -30
-8 -141 1 -148 12 -3 5 -32 11 -65 13 l-60 3 3 55 c2 30 7 59 13 65 15 15 10
119 -7 153 -14 29 -19 32 -64 32 -39 0 -52 -4 -60 -19z"/>
<path d="M6624 9922 c-12 -9 -32 -24 -44 -32 -13 -8 -36 -27 -52 -42 -16 -16
-32 -28 -36 -28 -9 0 -102 -99 -102 -109 -1 -3 -14 -17 -30 -31 -17 -13 -30
-30 -30 -37 0 -7 -4 -13 -9 -13 -5 0 -13 -10 -17 -22 -3 -12 -13 -28 -20 -36
-8 -7 -14 -21 -14 -31 0 -9 -6 -23 -12 -29 -9 -9 -13 -57 -13 -164 0 -112 3
-152 13 -155 6 -3 12 -13 12 -24 0 -10 7 -19 15 -19 8 0 15 -5 15 -10 0 -14
45 -56 90 -85 34 -22 117 -38 190 -37 55 1 180 24 180 33 0 5 11 9 23 9 13 0
35 9 48 20 13 11 29 24 35 29 6 5 23 24 37 42 l27 34 0 -27 c0 -16 -4 -28 -10
-28 -5 0 -12 -16 -16 -37 -4 -20 -13 -48 -20 -62 -8 -14 -14 -39 -14 -56 0
-16 -7 -39 -15 -49 -10 -13 -15 -43 -15 -86 0 -69 10 -86 69 -117 27 -15 91
-17 91 -4 0 5 10 11 23 15 30 7 67 65 67 104 0 17 4 33 10 37 5 3 12 32 16 65
4 33 11 60 15 60 5 0 9 15 9 34 0 18 3 46 6 62 l5 29 147 -2 c81 -2 150 -3
153 -3 7 0 -10 -96 -21 -125 -5 -11 -11 -49 -14 -85 -4 -36 -11 -66 -16 -68
-12 -4 -13 -82 -1 -82 5 0 12 -11 15 -24 3 -14 15 -28 26 -31 11 -3 20 -11 20
-16 0 -5 23 -9 50 -9 28 0 50 5 50 10 0 6 6 10 13 10 18 0 57 45 57 67 0 10 5
24 11 30 6 6 13 46 16 89 3 44 9 84 13 89 4 6 11 42 15 80 4 39 12 76 17 83 6
6 28 12 49 12 45 0 89 37 89 75 0 29 -46 75 -75 75 -19 0 -20 6 -20 147 0 109
-3 147 -13 151 -7 2 -19 10 -26 18 -18 17 -25 17 -59 2 -14 -7 -34 -29 -43
-48 -9 -19 -20 -42 -24 -50 -4 -9 -11 -31 -15 -50 -4 -19 -12 -38 -17 -41 -5
-3 -12 -25 -15 -48 -3 -22 -10 -41 -14 -41 -5 0 -9 -7 -9 -15 0 -10 -17 -16
-60 -21 -33 -4 -63 -11 -66 -15 -7 -13 -174 -11 -174 1 0 6 4 10 9 10 21 0 49
249 33 284 -6 12 -13 33 -16 48 -5 21 -14 29 -40 34 -43 8 -73 -2 -81 -26 -3
-10 -12 -21 -20 -24 -8 -3 -15 -16 -15 -30 0 -13 -7 -37 -15 -53 -8 -15 -17
-41 -20 -56 -3 -15 -10 -25 -15 -22 -11 7 -3 79 12 109 7 12 6 26 0 40 -6 11
-13 32 -16 46 -8 38 -72 100 -114 113 l-37 10 33 10 c30 9 32 12 32 57 0 42
-4 50 -34 74 -33 25 -41 26 -148 26 -92 -1 -117 -4 -134 -18z m6 -322 c17 -16
41 -30 55 -30 13 0 25 -5 27 -11 2 -6 25 -13 51 -16 l47 -6 0 -114 c0 -120
-13 -167 -49 -175 -9 -2 -71 -1 -138 2 -118 5 -122 6 -148 34 -25 27 -27 35
-22 84 3 30 10 58 14 61 5 3 14 17 21 31 19 39 36 64 50 73 6 4 12 15 12 22 0
8 3 15 8 15 4 0 13 14 20 30 8 17 15 30 17 30 3 0 18 -13 35 -30z"/>
<path d="M4128 9027 c-7 -7 -21 -16 -30 -20 -10 -3 -18 -16 -18 -27 0 -11 -4
-20 -9 -20 -4 0 -11 -27 -15 -60 -4 -33 -11 -60 -15 -60 -5 0 -12 -21 -16 -47
-4 -27 -11 -53 -16 -59 -5 -6 -12 -33 -15 -60 -4 -27 -11 -55 -17 -62 -6 -7
-14 -70 -18 -140 -19 -294 -28 -394 -37 -405 -5 -7 -13 -27 -17 -46 -4 -19
-14 -41 -21 -49 -8 -7 -14 -21 -14 -31 0 -34 -25 -69 -61 -85 -19 -9 -40 -16
-46 -16 -6 0 -16 -7 -23 -15 -7 -8 -21 -15 -31 -15 -11 0 -19 -7 -19 -15 0 -8
-6 -15 -12 -15 -7 0 -24 -12 -38 -26 -27 -29 -136 -104 -151 -104 -5 0 -9 -4
-9 -10 0 -5 -4 -10 -10 -10 -5 0 -31 -21 -59 -47 -58 -57 -64 -61 -116 -93
-22 -13 -41 -28 -43 -32 -2 -4 -9 -8 -17 -8 -7 0 -18 -7 -25 -15 -7 -8 -19
-15 -27 -15 -11 0 -65 -32 -83 -50 -23 -23 -121 -70 -146 -70 -12 0 -29 -7
-38 -15 -8 -8 -23 -15 -33 -15 -10 0 -27 -6 -38 -14 -11 -7 -35 -17 -52 -21
-18 -3 -33 -10 -33 -15 0 -4 -18 -10 -40 -14 -22 -3 -40 -10 -40 -15 0 -5 -18
-12 -40 -16 -22 -4 -42 -11 -45 -15 -3 -5 -26 -12 -50 -16 -25 -3 -45 -10 -45
-15 0 -5 -11 -9 -24 -9 -14 0 -31 -7 -40 -15 -8 -8 -18 -15 -23 -15 -5 0 -16
-8 -25 -17 -37 -39 -55 -53 -66 -53 -7 0 -12 -4 -12 -10 0 -5 -4 -10 -10 -10
-19 0 -140 -119 -140 -137 0 -7 -4 -13 -10 -13 -5 0 -10 -5 -10 -12 0 -15 -42
-78 -52 -78 -11 0 -90 -61 -138 -107 -23 -22 -59 -49 -81 -59 -21 -11 -39 -25
-39 -31 0 -7 -7 -13 -15 -13 -8 0 -15 -7 -15 -15 0 -8 -4 -15 -10 -15 -24 0
-320 -295 -320 -319 0 -6 -4 -11 -9 -11 -5 0 -23 -22 -39 -49 -17 -26 -46 -64
-66 -83 -20 -19 -36 -40 -36 -45 0 -6 -7 -16 -15 -23 -8 -7 -15 -20 -15 -30 0
-10 -6 -23 -14 -30 -8 -6 -12 -18 -9 -26 4 -10 -2 -17 -16 -21 -11 -3 -21 -9
-21 -14 0 -5 -6 -9 -12 -9 -7 -1 -24 -14 -38 -30 -13 -17 -27 -30 -30 -30 -3
0 -4 18 -2 40 2 22 8 40 12 40 5 0 11 23 15 50 4 28 11 50 15 50 5 0 11 19 15
43 4 23 12 48 17 54 6 7 12 43 15 80 2 38 8 77 13 88 5 11 11 87 15 169 3 83
10 155 14 160 5 6 11 48 15 94 4 46 11 91 16 100 5 9 12 38 15 65 3 26 10 47
14 47 5 0 11 18 15 40 3 22 11 40 16 40 6 0 10 11 10 25 0 14 -4 25 -10 25 -5
0 -10 9 -10 20 0 17 -7 20 -43 20 -41 0 -45 -2 -65 -44 -12 -24 -22 -48 -22
-55 0 -6 -4 -11 -10 -11 -5 0 -13 -18 -16 -40 -4 -22 -10 -40 -14 -40 -4 0
-11 -29 -15 -65 -3 -36 -10 -65 -15 -65 -5 0 -11 -30 -15 -67 -3 -38 -10 -76
-15 -85 -5 -9 -12 -54 -16 -100 -4 -46 -10 -87 -14 -93 -5 -5 -12 -43 -15 -82
-4 -40 -11 -73 -16 -73 -5 0 -11 -22 -15 -50 -4 -27 -10 -50 -15 -50 -4 0 -11
-15 -14 -32 l-6 -33 -81 2 c-46 1 -84 7 -88 13 -6 9 -34 15 -102 19 -4 1 -5 8
-2 16 4 8 0 23 -7 32 -10 11 -15 64 -18 194 -2 99 -7 179 -11 179 -5 0 -11 14
-15 30 -5 21 -13 30 -26 30 -10 0 -19 5 -19 10 0 6 -11 8 -27 4 l-28 -7 23 25
c22 24 29 72 14 94 -4 6 -24 19 -45 29 -29 13 -41 15 -50 6 -6 -6 -21 -11 -33
-11 -34 0 -264 -234 -264 -270 0 -5 -4 -10 -8 -10 -5 0 -19 -21 -32 -47 -13
-27 -29 -52 -37 -56 -7 -4 -13 -14 -13 -21 0 -14 -98 -116 -111 -116 -5 0 -9
-6 -9 -14 0 -8 -5 -16 -11 -18 -7 -2 -14 -41 -17 -99 -5 -95 -4 -96 23 -117
26 -21 37 -22 231 -22 112 0 204 -3 204 -7 0 -5 -7 -21 -16 -38 -9 -16 -19
-58 -21 -93 -3 -34 -10 -65 -14 -68 -12 -7 -11 -114 1 -114 6 0 10 -37 10 -91
0 -138 24 -167 131 -157 54 6 89 34 89 73 0 11 5 26 12 33 9 9 9 15 0 24 -7 7
-12 21 -12 33 0 11 -9 28 -20 38 -12 10 -20 29 -20 46 0 17 -4 33 -10 36 -12
8 -13 75 -1 75 4 0 11 28 14 62 3 34 10 64 16 66 6 2 14 21 17 43 7 43 6 43
99 39 35 -1 67 -8 76 -16 10 -9 40 -14 88 -14 l72 0 -7 -57 c-3 -32 -10 -63
-15 -69 -5 -6 -12 -44 -15 -85 -4 -41 -11 -79 -16 -86 -6 -7 -12 -77 -15 -155
-3 -79 -9 -147 -13 -153 -4 -5 -11 -36 -14 -67 -4 -32 -12 -58 -17 -58 -14 0
-10 -103 4 -120 29 -35 107 -55 122 -30 3 6 15 10 26 10 10 0 19 5 19 11 0 6
7 17 15 25 8 9 15 30 15 49 0 18 5 35 11 37 7 2 13 59 17 161 3 87 9 160 13
163 5 3 9 26 9 51 0 36 4 46 20 50 11 3 20 9 20 14 0 5 11 9 25 9 14 0 28 7
31 15 4 8 10 15 14 15 4 0 25 16 46 36 63 59 70 64 82 64 7 0 12 5 12 10 0 6
7 10 15 10 8 0 15 7 15 15 0 8 5 15 10 15 6 0 10 5 10 11 0 6 43 54 95 106 52
52 95 98 95 103 0 12 68 80 80 80 6 0 10 7 10 15 0 8 5 15 10 15 6 0 10 5 10
11 0 15 132 149 147 149 7 0 13 5 13 10 0 6 5 10 10 10 5 0 18 8 28 18 94 88
122 112 131 112 6 0 11 5 11 10 0 6 6 10 13 10 13 0 60 35 99 73 10 9 20 17
22 17 9 0 136 131 136 141 0 5 5 9 10 9 6 0 10 6 10 13 0 19 114 132 176 175
11 7 31 18 47 25 15 6 27 14 27 18 0 4 11 10 25 13 14 4 25 11 25 16 0 5 16
12 35 16 19 3 35 10 35 15 0 5 11 9 25 9 14 0 42 9 62 20 21 11 43 20 50 20 7
0 13 5 13 10 0 6 9 10 19 10 11 0 26 6 33 14 8 7 24 17 36 20 12 4 22 12 22
17 0 5 8 9 18 9 11 0 27 9 37 20 10 11 31 20 47 20 15 0 28 5 28 10 0 6 13 10
29 10 16 0 34 7 41 15 7 8 19 15 27 15 7 0 16 7 19 15 4 8 12 15 19 15 6 0 20
9 30 20 10 11 24 20 32 20 7 0 13 5 13 10 0 6 4 10 9 10 5 0 33 16 62 35 30
19 59 35 66 35 7 0 13 5 13 10 0 6 7 10 15 10 8 0 15 7 15 15 0 8 7 15 15 15
8 0 15 7 15 15 0 8 4 15 9 15 6 0 27 16 48 35 21 19 44 35 51 35 6 0 12 5 12
10 0 6 4 10 10 10 12 0 104 69 108 81 2 5 10 9 17 9 10 0 12 -11 8 -42 -3 -24
-9 -50 -13 -58 -5 -8 -11 -41 -15 -72 -4 -32 -11 -58 -16 -58 -4 0 -11 -20
-15 -45 -3 -25 -10 -45 -15 -45 -4 0 -11 -17 -15 -37 -4 -21 -10 -43 -15 -49
-8 -10 -21 -90 -39 -234 -5 -41 -14 -76 -19 -78 -6 -2 -11 -20 -10 -40 2 -90
91 -156 160 -119 81 42 111 114 131 312 5 55 14 109 18 120 5 11 11 42 14 69
4 28 10 52 15 55 5 4 12 27 16 54 4 26 11 47 16 47 4 0 11 21 14 48 3 26 10
55 16 65 5 9 12 38 16 62 3 25 9 45 14 45 4 0 10 26 14 58 3 31 10 64 15 73 5
9 12 44 16 78 5 50 10 61 25 61 10 0 23 -8 28 -17 6 -10 11 -14 11 -10 0 8 67
-28 80 -42 11 -13 90 -51 104 -51 8 0 16 -5 18 -11 2 -5 24 -13 48 -16 25 -3
50 -10 57 -15 7 -6 41 -12 75 -15 35 -3 69 -10 77 -16 14 -12 165 -23 484 -35
142 -5 200 -11 206 -20 4 -7 25 -15 47 -19 21 -3 48 -12 59 -19 15 -11 80 -14
295 -14 l276 0 32 26 c46 39 44 73 -9 107 -22 15 -49 27 -60 27 -10 0 -19 4
-19 9 0 5 -18 12 -39 16 -22 4 -45 13 -52 21 -6 8 -22 14 -34 14 -13 0 -25 6
-27 13 -3 8 -46 14 -144 18 -142 7 -254 24 -254 40 0 4 -17 11 -37 15 -21 4
-44 11 -51 17 -9 7 -130 11 -351 11 -237 1 -342 4 -352 12 -8 7 -39 15 -69 19
-30 4 -60 11 -66 16 -7 6 -35 12 -63 16 -28 3 -51 10 -51 14 0 5 -18 12 -40
15 -22 4 -45 13 -51 20 -6 8 -30 14 -55 14 l-43 0 5 38 c3 20 10 46 14 57 5
11 14 85 19 165 13 184 30 329 41 355 5 11 12 44 15 72 4 29 10 55 15 58 4 3
11 36 15 75 6 60 4 74 -13 102 -21 34 -69 68 -95 68 -9 0 -22 -6 -29 -13z
m-3586 -2654 c-1 -93 -5 -179 -9 -193 -3 -14 -5 -31 -4 -37 2 -16 -95 -18
-104 -3 -3 6 -37 10 -75 10 -38 0 -71 4 -74 9 -3 4 3 19 14 31 11 13 20 29 20
37 0 7 4 13 9 13 5 0 20 21 33 48 13 26 29 53 36 60 6 7 12 20 12 28 0 8 5 14
10 14 6 0 10 7 10 15 0 9 23 38 50 66 28 27 50 54 50 59 0 6 6 10 13 10 9 0
11 -39 9 -167z"/>
<path d="M3382 8927 c-12 -13 -22 -29 -22 -35 0 -7 -4 -12 -10 -12 -16 0 -12
-76 5 -90 13 -11 14 -15 1 -29 -7 -9 -17 -31 -21 -48 -3 -18 -12 -33 -18 -33
-21 0 -52 -81 -50 -132 1 -37 6 -53 25 -68 21 -18 32 -20 115 -14 51 4 108 3
126 0 44 -8 95 -55 103 -94 6 -27 1 -36 -34 -72 -23 -22 -49 -40 -59 -40 -10
0 -24 -4 -32 -9 -14 -9 -51 6 -51 21 0 5 -8 16 -17 26 -10 10 -25 29 -33 41
-28 42 -56 71 -68 71 -7 0 -12 4 -12 10 0 5 -12 13 -27 16 -16 4 -31 11 -34
16 -10 15 -112 15 -116 1 -3 -7 -9 -13 -15 -13 -25 0 -47 -46 -48 -101 0 -49
3 -58 33 -87 18 -18 38 -32 45 -32 17 0 52 -32 52 -47 0 -7 5 -13 10 -13 6 0
10 -6 10 -13 0 -20 89 -107 110 -107 10 0 20 -5 22 -11 5 -14 109 -14 117 0 3
5 19 13 34 16 15 4 27 11 27 16 0 5 9 9 20 9 33 0 131 58 165 98 11 13 28 31
38 40 9 9 17 24 17 34 0 10 5 18 10 18 6 0 10 32 10 75 0 43 -4 75 -10 75 -5
0 -10 12 -10 28 -1 15 -11 45 -24 67 -27 47 -142 145 -172 145 -11 0 -24 4
-30 10 -5 5 -37 10 -72 11 -61 2 -62 3 -62 30 l0 28 243 3 243 3 27 29 c21 23
27 39 27 75 0 52 -3 58 -44 89 -28 21 -36 22 -276 22 -245 0 -247 0 -268 -23z"/>
<path d="M741 8416 c-7 -8 -14 -61 -17 -118 -3 -56 -9 -112 -14 -123 -5 -11
-11 -50 -13 -86 -5 -74 -31 -127 -53 -109 -8 7 -71 11 -176 9 l-163 -2 3 59
c2 33 8 61 13 62 12 5 12 112 0 112 -5 0 -13 30 -16 66 -4 36 -13 67 -19 70
-6 2 -24 0 -41 -4 -28 -8 -30 -12 -37 -68 -10 -93 -26 -167 -38 -174 -6 -4
-13 -24 -17 -46 -3 -21 -9 -41 -13 -44 -4 -3 -10 -25 -13 -50 -3 -25 -6 -45
-6 -46 -1 -1 -15 -1 -32 -2 -44 -1 -59 -18 -59 -66 0 -40 24 -76 50 -76 13 0
13 -33 1 -45 -6 -6 -13 -80 -16 -165 -7 -148 -6 -156 14 -179 12 -13 21 -28
21 -33 0 -4 10 -8 23 -8 13 0 29 -6 35 -12 10 -10 17 -10 32 0 11 6 29 12 40
12 11 0 20 6 20 14 0 8 7 16 15 20 13 4 15 37 15 209 l0 205 31 6 c40 8 267 8
297 0 19 -5 20 -9 10 -22 -9 -11 -14 -71 -16 -208 -4 -184 -3 -195 17 -220 57
-73 163 -72 212 3 17 25 19 49 19 207 0 158 2 177 15 166 9 -8 30 -11 55 -7
l40 5 0 -55 c0 -30 -5 -63 -10 -73 -6 -11 -10 -54 -11 -97 0 -75 14 -127 45
-159 20 -20 116 -84 126 -84 5 0 10 -4 10 -10 0 -5 11 -12 25 -16 14 -3 25
-10 25 -15 0 -4 17 -11 38 -14 20 -3 51 -10 68 -15 43 -14 260 -16 276 -3 7 6
25 13 41 17 15 3 27 11 27 16 0 6 9 10 20 10 11 0 20 7 20 15 0 8 4 15 9 15
10 0 61 43 136 115 29 28 66 63 84 79 17 15 41 49 53 74 17 39 20 58 14 121
-3 41 -10 79 -15 85 -4 6 -11 23 -15 39 -3 15 -11 27 -16 27 -6 0 -10 7 -10
15 0 8 -7 15 -15 15 -8 0 -15 5 -15 10 0 6 -8 19 -17 29 -10 11 -23 26 -29 33
-17 21 -44 80 -44 95 0 35 -88 130 -130 140 -14 3 -28 10 -31 16 -11 16 -101
26 -149 16 -25 -4 -80 -8 -122 -9 -45 0 -78 -4 -78 -10 0 -5 -15 -10 -34 -10
-19 0 -41 -7 -50 -15 -8 -8 -21 -15 -29 -15 -18 0 -137 -119 -137 -137 0 -7
-4 -13 -9 -13 -5 0 -11 -9 -14 -20 -4 -14 -14 -20 -35 -20 -17 0 -42 -4 -55
-9 -20 -8 -27 -6 -33 7 -4 9 -6 22 -5 27 7 28 1 238 -7 248 -5 7 -12 58 -15
115 -4 56 -9 107 -12 112 -9 15 -81 12 -94 -4z m698 -413 c3 -5 18 -14 34 -20
15 -7 27 -17 27 -23 0 -5 5 -10 10 -10 13 0 50 -37 50 -49 0 -5 6 -16 13 -23
6 -7 23 -35 37 -61 13 -26 28 -47 32 -47 5 0 8 -6 8 -13 0 -7 9 -20 20 -30 11
-9 20 -24 20 -32 0 -8 5 -15 10 -15 6 0 10 -16 10 -35 0 -26 -8 -43 -35 -70
-20 -19 -40 -35 -45 -35 -6 0 -10 -6 -10 -13 0 -7 -24 -28 -52 -47 l-53 -35
-148 0 c-102 0 -150 4 -155 12 -4 6 -19 14 -34 18 -25 6 -27 12 -33 78 -10
110 -3 300 13 305 6 2 12 10 12 18 0 8 9 22 20 31 11 10 20 23 20 30 0 7 7 13
15 13 8 0 12 6 10 13 -6 14 47 44 90 51 41 6 107 -1 114 -11z"/>
<path d="M6486 7976 c-15 -9 -36 -16 -46 -16 -10 0 -25 -7 -34 -15 -8 -8 -21
-15 -28 -15 -7 0 -21 -8 -30 -17 -37 -39 -55 -53 -66 -53 -7 0 -12 -4 -12 -10
0 -5 -7 -10 -15 -10 -8 0 -15 -7 -15 -15 0 -8 -7 -15 -15 -15 -8 0 -15 -7 -15
-15 0 -8 -3 -15 -7 -15 -5 0 -19 -25 -33 -55 -14 -30 -28 -55 -32 -55 -4 0
-10 -17 -14 -37 -4 -21 -12 -44 -18 -52 -15 -19 -15 -313 0 -332 7 -8 15 -29
19 -46 3 -18 11 -33 16 -33 5 0 11 -11 15 -25 3 -14 10 -25 15 -25 5 0 9 -7 9
-15 0 -9 7 -18 15 -21 8 -4 15 -12 15 -20 0 -8 7 -14 15 -14 8 0 15 -7 15 -15
0 -8 9 -15 20 -15 11 0 20 -4 20 -10 0 -5 12 -13 28 -16 15 -4 32 -10 37 -14
6 -4 25 -11 43 -15 18 -3 46 -13 62 -21 39 -20 391 -17 398 4 2 6 11 12 20 12
10 0 30 7 46 15 15 8 34 15 41 15 7 0 15 7 19 15 3 8 10 15 17 15 13 0 99 89
99 102 0 5 7 16 15 24 8 9 15 24 15 34 0 10 5 22 10 25 6 4 10 102 10 260 0
158 -4 256 -10 260 -5 3 -10 17 -10 31 0 27 -67 99 -103 110 -12 4 -27 13 -35
20 -7 8 -20 14 -28 14 -8 0 -14 7 -14 15 0 8 -6 15 -14 15 -7 0 -19 7 -26 15
-7 8 -24 15 -39 15 -15 0 -33 6 -39 12 -21 21 -299 23 -336 4z m247 -216 c10
-22 23 -40 29 -40 15 0 88 -72 88 -87 0 -7 5 -13 10 -13 17 0 12 -224 -6 -288
-15 -54 -42 -92 -62 -92 -5 0 -15 -7 -22 -15 -18 -21 -266 -21 -294 0 -11 8
-26 15 -33 15 -18 0 -53 32 -53 47 0 7 -4 13 -10 13 -17 0 -13 233 5 266 8 16
15 37 15 46 0 9 5 20 10 23 6 3 10 14 10 23 0 21 46 66 59 58 5 -3 11 1 15 9
3 8 16 15 29 15 14 0 30 7 37 15 7 8 27 17 46 21 19 3 37 10 40 15 3 5 20 9
37 9 27 0 35 -6 50 -40z"/>
<path d="M8965 6920 c-3 -5 -17 -10 -31 -10 -14 0 -24 -6 -24 -14 0 -15 -30
-26 -72 -26 -15 0 -30 -4 -33 -10 -3 -5 -14 -10 -23 -10 -10 0 -36 -20 -60
-44 -23 -24 -57 -54 -75 -66 -35 -24 -52 -53 -63 -110 -4 -19 -13 -46 -21 -60
-7 -14 -13 -31 -13 -37 0 -7 -4 -13 -10 -13 -5 0 -13 -12 -16 -27 -4 -16 -12
-31 -17 -35 -6 -3 -12 -31 -15 -62 -2 -31 -8 -59 -13 -62 -12 -7 -11 -94 1
-94 6 0 10 -9 10 -21 0 -11 8 -31 18 -44 9 -12 24 -33 32 -46 25 -39 108 -117
132 -125 12 -3 28 -13 36 -20 7 -8 28 -14 46 -14 17 0 37 -5 43 -11 14 -14
207 -13 211 1 2 5 17 10 33 10 16 0 29 4 29 9 0 4 27 28 60 52 33 24 60 47 60
51 0 5 5 8 10 8 17 0 50 39 50 59 0 11 4 22 9 26 6 3 20 27 32 53 12 26 28 59
35 74 8 14 14 33 14 42 0 9 4 16 9 16 14 0 24 57 23 139 0 61 -4 77 -21 92
-12 11 -21 26 -21 34 0 8 -4 15 -10 15 -5 0 -10 6 -10 13 0 12 -17 37 -49 72
-5 6 -25 23 -45 39 -20 16 -36 35 -36 43 0 7 -4 13 -10 13 -5 0 -10 7 -10 15
0 8 -6 15 -12 15 -7 1 -24 14 -38 30 -13 17 -34 30 -46 30 -13 0 -26 5 -29 10
-3 6 -19 10 -35 10 -16 0 -32 -4 -35 -10z m3 -325 c18 -19 32 -39 32 -45 0 -5
7 -10 15 -10 8 0 15 -4 15 -9 0 -5 13 -14 30 -21 16 -7 32 -21 35 -31 8 -25
-4 -79 -21 -97 -8 -7 -14 -20 -14 -28 0 -15 -8 -27 -42 -65 -10 -10 -18 -23
-18 -29 0 -5 -6 -10 -14 -10 -8 0 -16 -7 -20 -15 -4 -12 -24 -15 -86 -15 -47
0 -80 4 -80 10 0 6 -7 10 -15 10 -8 0 -24 9 -34 19 -16 16 -19 29 -14 73 5 51
35 132 54 144 5 3 9 18 9 35 0 16 4 29 9 29 5 0 12 12 15 26 9 36 44 63 82 64
23 0 39 -9 62 -35z"/>
<path d="M9486 6744 c-3 -9 -6 -37 -6 -63 0 -26 -4 -51 -9 -56 -5 -6 -11 -49
-13 -96 -3 -64 -9 -91 -21 -104 -9 -9 -17 -25 -17 -36 0 -10 -4 -19 -9 -19 -5
0 -12 -13 -16 -30 -4 -16 -10 -30 -15 -30 -4 0 -11 -12 -14 -26 -4 -15 -14
-33 -21 -41 -8 -8 -15 -22 -15 -31 0 -9 -7 -26 -15 -36 -8 -11 -15 -32 -15
-47 0 -15 -4 -30 -9 -33 -5 -4 -12 -25 -16 -49 -4 -23 -11 -46 -15 -52 -4 -5
-10 -30 -13 -54 -3 -25 -12 -48 -21 -53 -9 -5 -16 -14 -16 -19 0 -6 -7 -17
-15 -25 -10 -11 -15 -36 -15 -82 1 -77 19 -106 83 -136 37 -17 107 -16 107 2
0 4 10 12 23 17 12 6 26 20 32 33 5 12 13 22 17 22 5 0 8 7 8 15 0 8 9 23 20
32 11 10 20 25 20 34 0 9 7 30 15 45 8 16 15 48 15 71 0 23 4 44 9 47 5 4 12
25 16 49 12 70 20 78 68 71 23 -4 46 -10 52 -15 5 -5 19 -9 31 -9 32 0 37 -14
14 -40 -11 -13 -20 -35 -20 -51 0 -15 -5 -29 -10 -31 -6 -2 -13 -21 -17 -43
-3 -22 -10 -43 -16 -46 -5 -4 -10 -49 -10 -100 -2 -74 2 -99 15 -118 28 -40
69 -61 119 -61 41 0 50 5 92 47 37 36 47 54 47 79 0 18 4 35 9 38 5 4 12 24
16 47 4 22 13 53 21 67 8 15 14 34 14 42 0 8 14 42 30 75 16 33 30 66 30 73 0
7 7 15 15 18 8 4 15 11 15 16 0 6 8 16 17 23 14 11 17 29 15 120 -1 60 2 113
7 119 5 6 12 37 16 69 3 32 13 70 21 85 18 35 18 119 -1 156 -8 15 -15 35 -15
43 0 25 -47 63 -79 63 -40 0 -81 -41 -81 -80 0 -17 -4 -30 -9 -30 -5 0 -12
-18 -16 -40 -4 -22 -11 -40 -15 -40 -5 0 -12 -17 -16 -37 -4 -21 -11 -41 -16
-44 -5 -3 -11 -23 -15 -45 -3 -21 -11 -42 -16 -46 -6 -3 -12 -31 -15 -61 l-4
-54 -68 -2 c-38 -1 -71 3 -75 9 -3 5 -17 10 -31 10 -29 0 -28 -1 -8 39 21 43
16 342 -7 381 -42 71 -41 70 -100 70 -43 0 -58 -4 -63 -16z"/>
<path d="M4039 6661 c-22 -7 -37 -27 -45 -57 -4 -16 -13 -35 -21 -42 -7 -7
-13 -30 -13 -51 0 -20 -4 -41 -9 -46 -5 -6 -12 -48 -16 -95 -3 -48 -11 -88
-18 -92 -13 -8 -49 0 -58 14 -3 5 -23 11 -45 15 -21 3 -44 10 -51 15 -6 5 -45
8 -85 7 l-73 -2 4 130 c4 159 -2 173 -71 173 -44 0 -47 -1 -53 -32 -4 -18 -11
-37 -15 -43 -4 -5 -10 -52 -13 -104 -3 -52 -11 -99 -16 -104 -6 -6 -11 -24
-11 -39 0 -17 -5 -28 -13 -28 -40 0 -67 -100 -31 -114 13 -5 14 -18 9 -88 -4
-46 -11 -87 -16 -92 -5 -6 -9 -26 -9 -45 0 -51 -10 -81 -26 -81 -8 0 -14 -7
-14 -15 0 -8 -5 -24 -12 -34 -9 -15 -8 -26 6 -55 20 -43 56 -60 104 -51 39 7
92 56 92 85 0 10 6 20 12 22 9 3 14 40 16 124 2 65 7 128 12 139 5 11 10 26
12 34 3 11 20 14 73 12 39 -1 74 -6 80 -11 5 -4 27 -11 48 -15 20 -4 37 -11
37 -15 0 -4 9 -10 20 -13 17 -4 19 -11 13 -39 -3 -18 -10 -35 -14 -38 -4 -3
-10 -22 -14 -42 -4 -21 -13 -42 -21 -49 -8 -6 -14 -20 -14 -30 0 -11 -4 -19
-10 -19 -5 0 -10 -10 -10 -22 0 -13 -7 -36 -16 -53 -18 -34 -21 -128 -5 -133
6 -2 11 -9 11 -16 0 -28 36 -46 91 -46 64 0 85 18 95 80 4 22 10 40 15 40 5 0
9 6 9 14 0 8 16 32 35 53 19 21 35 48 35 61 0 13 4 32 10 42 5 10 13 50 16 89
4 41 12 71 18 72 89 4 104 7 134 29 29 21 32 29 32 75 0 72 -30 104 -104 112
-50 5 -53 7 -49 32 3 14 8 35 13 46 5 11 11 51 13 90 3 38 10 71 16 73 13 4
15 132 2 132 -5 0 -12 9 -16 19 -6 19 -48 32 -76 22z"/>
<path d="M7168 6586 c-14 -10 -18 -28 -18 -75 0 -34 4 -61 10 -61 6 0 10 -12
10 -26 0 -14 6 -38 13 -52 24 -47 45 -96 52 -119 3 -13 11 -23 16 -23 5 0 9
-8 9 -18 0 -10 6 -26 14 -37 7 -11 17 -35 21 -52 3 -18 10 -33 15 -33 5 0 11
-13 15 -30 4 -16 11 -32 16 -35 5 -4 9 -17 9 -31 0 -14 7 -27 15 -30 8 -4 15
-12 15 -20 0 -7 6 -17 13 -21 15 -10 34 -39 48 -75 6 -16 15 -28 20 -28 5 0 9
-6 9 -14 0 -8 6 -21 13 -28 6 -7 20 -31 31 -53 10 -22 22 -47 27 -55 5 -8 12
-22 15 -30 3 -8 14 -33 25 -56 10 -23 19 -46 19 -53 0 -6 5 -11 10 -11 6 0 10
-6 10 -13 0 -7 8 -20 18 -29 29 -28 42 -47 42 -61 0 -8 7 -20 15 -27 8 -7 15
-20 15 -30 0 -10 7 -23 15 -30 8 -7 15 -21 15 -31 0 -11 7 -19 15 -19 8 0 15
-6 15 -12 0 -7 23 -35 50 -62 28 -27 50 -55 50 -63 0 -7 5 -13 10 -13 6 0 10
-4 10 -10 0 -12 68 -80 80 -80 6 0 10 -4 10 -10 0 -5 9 -19 20 -30 11 -11 20
-27 20 -35 0 -8 5 -15 10 -15 6 0 10 -6 10 -14 0 -8 6 -16 13 -19 7 -2 23 -25
35 -51 13 -25 27 -48 33 -51 5 -4 9 -14 9 -24 0 -10 7 -24 15 -31 8 -7 15 -21
15 -31 0 -11 7 -19 15 -19 8 0 15 -5 15 -11 0 -5 14 -28 32 -50 36 -45 41 -92
14 -144 -9 -17 -16 -40 -16 -52 0 -12 -5 -23 -10 -25 -6 -2 -13 -28 -17 -58
-3 -30 -9 -60 -14 -66 -5 -5 -9 -36 -10 -68 -2 -48 -6 -60 -21 -64 -10 -2 -18
-8 -18 -13 0 -5 -6 -9 -14 -9 -8 0 -21 -6 -28 -12 -21 -19 -50 -37 -80 -51
-16 -6 -28 -15 -28 -19 0 -4 -6 -8 -14 -8 -8 0 -36 -20 -63 -45 -26 -25 -53
-45 -59 -45 -6 0 -19 -9 -29 -20 -10 -11 -29 -20 -42 -20 -12 0 -23 -4 -23
-10 0 -5 -9 -10 -20 -10 -11 0 -20 -6 -20 -14 0 -8 -11 -17 -25 -20 -14 -4
-25 -11 -25 -16 0 -6 -7 -10 -15 -10 -9 0 -18 -7 -21 -15 -4 -8 -12 -15 -20
-15 -8 0 -14 -7 -14 -15 0 -8 -6 -15 -14 -15 -8 0 -16 -6 -19 -12 -3 -7 -22
-22 -43 -33 -22 -10 -47 -26 -56 -35 -31 -27 -43 -36 -60 -43 -10 -3 -18 -11
-18 -17 0 -5 -6 -10 -13 -10 -7 0 -20 -8 -29 -17 -33 -36 -79 -62 -135 -78
-13 -3 -23 -11 -23 -16 0 -5 -8 -9 -19 -9 -10 0 -24 -7 -31 -15 -7 -8 -21 -15
-31 -15 -11 0 -19 -7 -19 -15 0 -8 -4 -15 -10 -15 -5 0 -19 -9 -30 -20 -11
-11 -20 -24 -20 -30 0 -5 -7 -10 -15 -10 -8 0 -15 -6 -15 -12 0 -7 -18 -21
-40 -31 -21 -10 -70 -47 -107 -83 -37 -35 -73 -64 -80 -64 -7 0 -13 -3 -13 -7
0 -5 -20 -17 -45 -28 -25 -11 -45 -23 -45 -26 0 -11 -107 -79 -125 -79 -8 0
-18 -6 -21 -14 -3 -8 -16 -17 -30 -20 -13 -4 -24 -11 -24 -16 0 -6 -7 -10 -15
-10 -9 0 -18 -7 -21 -15 -4 -8 -11 -15 -17 -15 -6 0 -17 -7 -26 -15 -35 -32
-122 -111 -136 -122 -8 -7 -19 -13 -25 -13 -6 0 -13 -6 -16 -14 -3 -7 -23 -22
-44 -32 -22 -11 -40 -25 -40 -31 0 -7 -6 -13 -13 -13 -7 0 -20 -8 -28 -17 -21
-23 -56 -47 -61 -42 -3 2 -12 -2 -21 -10 -18 -15 -24 -2 -7 15 20 20 26 154
19 367 -5 136 -11 213 -18 215 -6 2 -11 11 -11 21 0 36 -55 57 -77 29 -6 -7
-13 -60 -17 -118 -4 -57 -11 -109 -16 -115 -4 -5 -10 -70 -12 -143 -2 -81 -8
-136 -15 -140 -6 -4 -14 -26 -18 -49 -4 -24 -10 -43 -15 -43 -4 0 -11 -16 -14
-35 -4 -19 -13 -47 -21 -62 -8 -15 -15 -40 -15 -55 0 -15 -4 -29 -9 -33 -6 -3
-13 -26 -17 -50 -3 -25 -10 -48 -15 -51 -5 -3 -9 -14 -9 -25 0 -10 -9 -28 -20
-39 -11 -11 -20 -24 -20 -30 0 -12 0 -12 -145 -10 -60 1 -114 5 -120 9 -5 5
-29 12 -53 16 -24 4 -56 13 -70 21 -15 8 -48 14 -74 14 -26 0 -49 4 -52 9 -3
5 -64 12 -136 16 -72 4 -132 11 -135 15 -3 4 -33 11 -67 15 -35 4 -66 12 -70
18 -3 6 -32 12 -65 15 -32 2 -63 8 -69 13 -5 4 -48 11 -95 15 -46 4 -88 10
-94 14 -5 4 -29 11 -52 15 -24 4 -43 11 -43 15 0 5 -14 12 -32 15 -17 4 -38
14 -46 21 -7 8 -28 14 -46 14 -17 0 -37 5 -42 10 -6 6 -64 13 -130 17 -75 4
-126 11 -139 19 -11 8 -43 14 -72 14 -28 0 -63 4 -77 9 -13 6 -105 13 -203 17
-98 4 -182 10 -188 14 -5 4 -47 11 -92 15 l-83 7 6 72 c4 39 10 78 14 86 4 8
11 48 15 88 4 39 10 72 15 72 4 0 10 30 13 66 4 37 11 71 16 78 5 6 12 54 16
106 4 52 11 100 15 105 4 6 10 52 13 104 2 51 9 96 15 100 5 3 15 40 22 82 14
89 5 119 -36 119 -49 0 -64 -16 -64 -70 0 -27 -4 -51 -9 -54 -4 -3 -11 -40
-13 -82 -3 -42 -10 -79 -15 -83 -6 -3 -13 -33 -17 -65 -4 -33 -11 -64 -15 -70
-5 -6 -12 -37 -16 -68 -4 -32 -11 -58 -15 -58 -4 0 -11 -30 -15 -67 -4 -38
-11 -73 -16 -79 -4 -6 -11 -37 -15 -70 -4 -32 -10 -64 -15 -70 -5 -6 -11 -37
-15 -70 -6 -60 -23 -114 -36 -114 -4 0 -10 10 -14 23 -4 12 -36 49 -72 82
-121 111 -208 194 -257 246 -8 9 -15 21 -15 27 0 7 -4 12 -10 12 -5 0 -10 6
-10 13 0 8 -9 22 -20 32 -11 10 -20 24 -20 32 0 7 -4 13 -9 13 -5 0 -12 11
-15 25 -4 14 -11 25 -16 25 -6 0 -10 9 -10 19 0 11 -6 26 -14 34 -8 8 -18 31
-21 51 -4 20 -11 36 -16 36 -5 0 -9 11 -9 24 0 14 -7 31 -15 40 -8 8 -15 22
-15 31 0 8 -7 18 -15 21 -8 4 -15 12 -15 19 0 8 -6 20 -12 27 -18 18 -46 77
-54 111 -3 15 -10 27 -15 27 -5 0 -9 9 -9 20 0 21 -39 103 -52 108 -4 2 -8 12
-8 23 0 10 -6 19 -14 19 -8 0 -17 13 -21 30 -4 16 -10 30 -15 30 -4 0 -11 11
-14 25 -4 14 -11 25 -16 25 -6 0 -10 6 -10 14 0 8 -7 16 -15 20 -8 3 -15 12
-15 21 0 8 -5 15 -10 15 -6 0 -16 12 -23 28 -6 15 -14 29 -17 32 -3 3 -14 23
-25 45 -11 22 -27 47 -35 56 -8 9 -26 32 -40 50 -22 30 -86 95 -123 126 -8 6
-37 22 -66 35 -28 13 -51 29 -51 36 0 6 -7 12 -15 12 -8 0 -15 6 -15 13 0 8
-23 35 -50 61 -33 32 -50 55 -50 72 0 13 -4 24 -9 24 -5 0 -12 18 -16 40 -4
22 -11 40 -16 40 -5 0 -9 11 -9 24 0 13 -7 29 -15 36 -8 7 -15 18 -15 25 0 7
-7 18 -15 25 -8 7 -17 27 -21 46 -3 19 -10 37 -15 40 -5 3 -9 16 -9 29 0 13
-7 30 -15 39 -8 8 -15 21 -15 28 -1 7 -12 31 -26 53 -13 22 -30 52 -36 68 -7
15 -15 27 -19 27 -4 0 -10 11 -13 25 -4 15 -16 27 -31 31 -14 3 -25 10 -25 15
0 13 -62 11 -93 -3 -15 -7 -30 -21 -33 -30 -3 -10 -9 -18 -14 -18 -4 0 -11
-17 -15 -38 -5 -30 -1 -49 15 -80 12 -23 25 -42 29 -42 11 0 51 -85 51 -109 0
-11 5 -21 10 -21 6 0 10 -8 10 -17 0 -10 23 -43 50 -73 68 -75 68 -75 76 -104
3 -14 10 -26 15 -26 5 0 9 -13 9 -28 0 -16 7 -37 15 -48 8 -10 15 -31 15 -45
0 -15 7 -32 15 -39 8 -7 15 -19 15 -26 0 -8 5 -14 10 -14 10 0 30 -20 70 -67
5 -7 10 -16 10 -20 0 -5 9 -16 20 -26 11 -9 20 -24 20 -32 0 -8 5 -15 10 -15
6 0 10 -6 10 -12 0 -7 16 -31 35 -53 51 -58 55 -64 55 -70 0 -6 41 -67 51 -75
4 -3 9 -15 13 -27 4 -13 11 -23 16 -23 4 0 11 -16 14 -35 4 -19 11 -35 16 -35
6 0 10 -6 10 -12 0 -7 16 -31 35 -53 19 -22 38 -45 43 -51 5 -6 13 -21 17 -35
4 -13 10 -26 14 -29 3 -3 17 -27 31 -53 45 -88 51 -97 60 -97 5 0 11 -13 15
-30 4 -17 10 -30 15 -30 4 0 11 -27 15 -60 4 -33 11 -60 15 -60 5 0 11 -18 15
-40 4 -22 11 -40 16 -40 5 0 9 -8 9 -17 0 -10 7 -31 15 -47 8 -15 15 -36 15
-46 0 -10 6 -25 14 -32 7 -8 16 -35 20 -61 4 -26 11 -47 17 -47 5 0 9 -13 9
-29 0 -16 7 -36 15 -45 8 -8 15 -19 15 -25 0 -5 13 -29 28 -53 16 -24 38 -58
48 -77 10 -19 26 -42 34 -52 8 -9 25 -30 37 -46 33 -44 103 -114 148 -148 22
-16 74 -64 116 -107 42 -43 81 -78 87 -78 5 0 12 -7 16 -15 3 -8 10 -15 15
-15 5 0 30 -20 55 -45 26 -25 53 -45 61 -45 11 0 15 -11 15 -39 0 -22 -4 -42
-9 -45 -5 -3 -12 -39 -16 -81 -4 -41 -11 -77 -15 -80 -5 -3 -12 -26 -16 -50
-3 -25 -10 -48 -15 -51 -5 -3 -9 -16 -9 -28 0 -13 -16 -54 -35 -92 -19 -37
-35 -74 -35 -81 0 -7 -4 -13 -9 -13 -5 0 -12 -12 -16 -27 -3 -15 -11 -30 -16
-33 -10 -7 -26 -94 -41 -231 -10 -94 -10 -97 13 -128 13 -17 35 -34 49 -38 14
-3 31 -10 38 -16 9 -7 16 -7 24 1 7 7 19 12 28 12 19 0 60 40 60 58 0 7 5 21
12 32 9 15 10 27 1 52 -6 18 -14 79 -18 136 -6 92 -5 107 14 143 12 22 21 44
21 50 0 6 7 17 15 25 8 9 15 24 15 35 0 10 4 19 10 19 5 0 13 18 16 40 4 22
10 40 14 40 4 0 11 24 14 52 4 29 12 58 17 64 5 6 12 49 16 95 3 46 11 87 17
91 6 4 28 8 49 8 49 0 117 41 117 70 0 6 8 11 18 11 40 3 118 -4 127 -11 6 -5
48 -11 95 -15 47 -4 92 -11 102 -16 9 -5 48 -12 87 -15 39 -4 71 -10 71 -15 0
-4 19 -10 43 -14 23 -4 51 -14 62 -21 11 -8 38 -14 60 -14 23 0 46 -5 51 -10
6 -6 42 -13 80 -16 38 -3 83 -12 101 -20 17 -8 36 -14 43 -14 6 0 18 -7 26
-15 9 -8 29 -15 45 -15 17 0 37 -7 45 -15 9 -8 33 -15 54 -15 21 0 41 -4 45
-9 3 -5 30 -13 60 -16 30 -4 55 -11 55 -15 0 -4 20 -11 45 -14 25 -4 57 -14
73 -22 15 -7 34 -14 43 -14 9 0 30 -7 45 -15 16 -8 45 -15 65 -15 19 0 40 -5
47 -12 7 -7 57 -13 124 -16 62 -2 119 -9 125 -14 7 -6 43 -13 80 -15 38 -3 73
-9 78 -13 6 -4 41 -10 80 -14 38 -4 72 -11 75 -16 3 -5 46 -10 95 -12 l90 -4
-3 -39 c-2 -22 -8 -45 -13 -51 -4 -6 -11 -36 -15 -67 -4 -32 -11 -60 -15 -63
-5 -3 -9 -17 -9 -32 0 -15 -9 -44 -20 -65 -11 -20 -20 -44 -20 -52 0 -8 -4
-15 -9 -15 -5 0 -12 -14 -16 -30 -4 -17 -10 -30 -14 -30 -3 0 -12 -12 -18 -28
-14 -30 -32 -59 -50 -80 -7 -7 -13 -26 -13 -42 0 -16 -5 -32 -10 -35 -13 -8
-13 -55 0 -55 6 0 10 -11 10 -25 0 -14 7 -37 16 -50 13 -20 25 -25 58 -25 38
1 44 5 79 52 20 29 37 58 37 65 0 7 4 13 10 13 5 0 12 11 16 25 3 14 10 25 14
25 5 0 11 14 15 30 4 17 11 30 16 30 5 0 9 6 9 14 0 7 9 25 20 39 11 14 20 35
20 46 0 12 4 21 10 21 5 0 12 17 16 38 4 20 10 42 15 47 4 6 11 42 15 80 4 39
10 75 14 80 5 6 11 45 15 88 4 42 11 80 16 83 5 3 9 14 9 25 0 15 7 19 34 19
19 0 38 5 41 10 3 5 24 10 45 10 21 0 45 7 54 15 8 8 19 15 24 15 25 0 52 68
52 129 0 56 -3 66 -31 93 l-31 31 29 23 c15 13 36 26 46 29 9 4 17 11 17 16 0
5 9 9 19 9 11 0 26 6 33 14 8 7 24 17 36 20 12 4 22 12 22 17 0 5 9 9 20 9 11
0 20 5 20 10 0 6 11 15 25 20 14 5 25 14 25 20 0 5 6 10 13 10 6 0 25 14 41
31 17 16 40 32 53 35 13 4 23 10 23 15 0 5 7 9 15 9 8 0 15 7 15 15 0 8 7 15
15 15 8 0 15 7 15 15 0 8 6 15 13 15 6 0 28 16 47 35 19 20 47 41 62 48 15 6
28 17 28 23 0 7 11 15 25 18 14 4 25 11 25 16 0 6 7 10 15 10 9 0 18 6 21 14
3 8 16 17 30 20 13 4 24 11 24 16 0 6 7 10 15 10 8 0 24 9 35 20 11 11 27 20
35 20 8 0 15 4 15 9 0 5 11 12 25 15 14 4 25 11 25 16 0 6 7 10 15 10 9 0 18
7 21 15 4 8 12 15 20 15 8 0 14 7 14 15 0 8 6 15 13 15 6 0 30 16 52 35 58 50
64 55 70 55 3 0 13 8 23 18 10 9 29 24 42 32 33 22 90 76 90 86 0 14 59 44 85
44 12 0 28 6 34 14 7 8 23 17 36 20 14 4 25 11 25 16 0 6 7 10 15 10 9 0 18 7
21 15 4 8 12 15 20 15 8 0 14 7 14 15 0 8 6 15 13 15 8 0 22 9 32 20 10 11 24
20 32 20 7 0 13 5 13 10 0 6 7 10 15 10 8 0 27 13 43 28 16 16 37 32 46 35 9
4 16 11 16 17 0 5 4 10 10 10 9 0 110 97 110 105 0 11 41 45 54 45 7 0 19 7
26 15 7 8 19 15 26 15 8 0 14 7 14 15 0 8 7 15 15 15 8 0 15 7 15 15 0 8 4 15
10 15 11 0 32 18 97 82 23 23 44 40 46 37 2 -2 0 -38 -3 -79 -10 -102 -5 -180
11 -210 23 -40 52 -70 70 -70 10 0 19 -5 21 -11 5 -16 98 -13 129 3 35 19 69
51 69 64 0 7 4 14 8 16 4 2 18 22 30 46 20 39 22 57 22 198 0 85 5 164 10 174
6 10 13 81 17 157 7 161 19 201 60 201 15 0 29 5 31 11 2 6 9 11 16 11 18 0
46 33 46 53 0 9 5 17 10 17 6 0 10 25 10 55 0 30 -3 55 -8 55 -12 0 -31 74
-22 85 4 5 10 26 13 45 8 53 28 122 43 152 8 14 14 40 14 57 0 17 4 31 9 31 5
0 12 17 16 37 4 20 13 46 21 57 8 11 14 33 14 48 0 16 4 28 10 28 5 0 12 17
16 38 4 20 10 42 14 47 4 6 11 21 15 35 4 13 14 30 21 38 8 7 14 27 14 43 0
16 4 29 9 29 6 0 13 21 17 48 4 26 11 49 15 52 24 16 28 191 5 228 -18 30
-107 54 -121 32 -3 -5 -15 -10 -26 -10 -10 0 -19 -4 -19 -8 0 -5 -9 -19 -20
-32 -11 -13 -20 -29 -20 -37 0 -7 -4 -13 -9 -13 -5 0 -13 -10 -17 -22 -4 -13
-20 -39 -35 -59 -16 -20 -29 -42 -29 -49 0 -6 -7 -18 -15 -26 -8 -9 -15 -24
-15 -35 0 -10 -4 -19 -9 -19 -5 0 -12 -13 -16 -30 -4 -16 -10 -30 -15 -30 -4
0 -11 -12 -14 -26 -4 -15 -14 -33 -21 -41 -8 -8 -15 -23 -15 -34 0 -10 -4 -19
-9 -19 -5 0 -14 -13 -20 -30 -5 -16 -15 -30 -20 -30 -6 0 -11 -10 -11 -22 0
-13 -7 -32 -15 -42 -8 -11 -15 -30 -15 -42 0 -12 -7 -35 -15 -50 -8 -16 -15
-37 -15 -47 0 -10 -4 -15 -10 -12 -5 3 -10 15 -10 25 0 10 -7 25 -15 34 -8 8
-15 19 -15 24 0 8 -11 23 -50 69 -5 7 -10 14 -10 17 0 3 -22 29 -50 58 -27 29
-50 59 -50 65 0 7 -4 13 -10 13 -5 0 -10 7 -10 15 0 8 -7 15 -15 15 -8 0 -15
7 -15 15 0 8 -7 15 -15 15 -8 0 -15 7 -15 15 0 8 -7 15 -15 15 -8 0 -15 5 -15
10 0 6 -6 10 -14 10 -7 0 -22 12 -32 26 -10 14 -25 32 -31 39 -7 8 -13 17 -13
22 0 4 -14 22 -30 40 -17 18 -30 35 -30 38 0 3 -13 18 -28 33 -30 30 -46 57
-83 140 -13 28 -27 52 -31 52 -5 0 -8 7 -8 15 0 16 -39 77 -52 83 -5 2 -8 10
-8 17 0 8 -6 20 -13 27 -15 14 -47 76 -47 90 0 4 -8 16 -17 26 -10 10 -25 29
-33 42 -8 12 -20 28 -27 35 -7 7 -15 24 -19 39 -3 14 -10 26 -15 26 -5 0 -9 6
-9 14 0 8 -6 21 -13 28 -7 7 -24 37 -37 66 -14 28 -28 52 -32 52 -5 0 -8 8 -8
18 0 10 -6 26 -14 37 -7 11 -16 32 -20 48 -3 15 -11 27 -16 27 -6 0 -10 7 -10
15 0 9 -7 18 -15 21 -8 4 -15 12 -15 19 0 6 -9 22 -20 35 -11 13 -20 26 -20
30 0 4 -12 19 -26 34 -20 20 -36 26 -68 26 -22 0 -49 -7 -58 -14z"/>
<path d="M9350 5253 c-34 -11 -79 -34 -82 -41 -4 -9 -65 -52 -74 -52 -9 0 -44
-41 -44 -51 0 -15 -59 -69 -75 -69 -8 0 -15 -4 -15 -9 0 -5 -12 -12 -26 -15
-45 -12 -63 -44 -64 -113 0 -65 20 -103 55 -103 8 0 15 -4 15 -10 0 -5 11 -10
25 -10 27 0 32 -14 13 -35 -26 -29 -34 -41 -56 -83 -12 -23 -22 -49 -22 -56 0
-8 -5 -16 -12 -18 -8 -3 -14 -38 -16 -105 l-4 -100 31 -32 c28 -29 35 -31 98
-31 59 0 70 3 95 27 15 15 28 34 28 43 0 9 5 21 10 26 6 6 13 42 16 80 3 38
12 83 20 101 8 17 14 43 14 57 0 14 4 26 9 26 5 0 11 25 13 56 3 39 10 59 21
66 10 5 17 16 17 24 0 9 7 22 15 30 8 9 15 26 15 40 0 13 4 24 9 24 5 0 12 11
15 25 3 13 20 38 36 55 17 17 30 35 30 40 0 6 7 10 15 10 8 0 15 9 15 20 0 11
5 20 10 20 16 0 11 66 -7 99 -26 45 -101 79 -143 64z"/>
<path d="M3279 4913 c-20 -10 -43 -25 -52 -33 -30 -28 -46 -40 -52 -40 -23 0
-115 -85 -115 -106 0 -8 -4 -14 -8 -14 -4 0 -13 -12 -20 -27 -23 -51 -37 -73
-44 -73 -11 0 -48 -85 -48 -109 0 -12 -4 -21 -10 -21 -6 0 -10 -38 -10 -95 0
-57 4 -95 10 -95 6 0 10 -13 10 -29 0 -16 6 -36 13 -43 7 -7 20 -24 28 -38 9
-14 36 -39 60 -55 24 -17 55 -42 69 -57 13 -16 30 -28 37 -28 7 0 13 -4 13
-10 0 -5 12 -13 28 -16 15 -4 32 -10 37 -14 6 -5 98 -11 206 -15 182 -7 199
-6 230 11 43 25 99 84 99 107 0 9 4 17 9 17 16 0 22 70 22 238 -1 148 -4 171
-22 206 -14 27 -17 42 -10 44 13 4 51 79 51 99 0 7 -4 13 -10 13 -5 0 -10 11
-10 25 0 16 -6 25 -15 25 -8 0 -15 7 -15 15 0 8 -4 15 -8 15 -5 0 -15 11 -22
25 -7 13 -22 28 -34 31 -11 4 -26 13 -34 20 -7 8 -23 14 -36 14 -12 0 -26 4
-31 9 -6 5 -71 12 -145 16 -117 5 -140 3 -171 -12z m120 -227 c6 -8 11 -18 9
-22 -5 -19 24 -55 55 -68 18 -7 43 -24 57 -38 14 -14 44 -33 68 -44 27 -12 44
-27 48 -43 10 -34 -2 -232 -14 -240 -5 -3 -12 -16 -16 -29 -7 -21 -9 -21 -29
-7 -12 8 -43 15 -69 15 -27 0 -48 5 -48 10 0 6 -34 10 -82 10 -96 0 -128 7
-128 26 0 8 -7 14 -15 14 -8 0 -15 5 -15 10 0 6 -5 10 -12 10 -6 0 -22 10 -35
22 -31 29 -32 103 0 167 12 25 25 47 29 49 4 2 10 19 14 38 3 19 10 34 14 34
4 0 10 9 13 20 3 10 17 22 33 26 15 4 43 18 62 31 41 27 46 28 61 9z"/>
<path d="M4048 4788 c-7 -13 -17 -68 -23 -123 l-10 -100 -32 -3 c-18 -2 -33
-7 -33 -12 0 -4 -11 -11 -25 -14 -16 -4 -25 -13 -25 -25 0 -11 -5 -21 -12 -23
-14 -5 16 -78 32 -78 22 0 47 -33 42 -56 -2 -13 -8 -24 -12 -24 -4 0 -10 -22
-14 -50 -4 -27 -10 -50 -15 -50 -4 0 -11 -26 -14 -57 -3 -32 -11 -59 -16 -61
-6 -2 -13 -20 -16 -40 -4 -20 -11 -50 -17 -65 -8 -20 -8 -31 1 -40 6 -6 11
-23 11 -38 0 -26 6 -34 44 -66 28 -24 80 -16 115 17 28 28 31 36 31 93 0 35 5
68 11 74 6 6 14 50 16 97 3 47 9 86 14 86 4 0 9 15 11 33 3 31 4 32 43 28 22
-1 42 -7 45 -11 3 -4 24 -11 48 -15 40 -6 42 -8 42 -42 0 -19 -4 -42 -9 -51
-5 -9 -12 -91 -16 -182 -7 -159 -6 -166 14 -189 12 -13 21 -32 21 -43 0 -52
94 -79 114 -32 5 11 18 25 29 30 11 5 25 18 31 29 6 11 14 22 18 25 3 3 10 91
14 197 7 191 7 192 31 198 47 12 63 35 63 96 0 43 -5 60 -20 74 -17 15 -20 31
-20 92 0 42 -4 73 -10 73 -5 0 -10 12 -10 28 0 15 -9 35 -20 45 -11 9 -20 24
-20 32 0 8 -7 15 -15 15 -8 0 -15 5 -15 10 0 6 -11 10 -25 10 -18 0 -25 -5
-25 -19 0 -10 -8 -29 -17 -42 -35 -48 -53 -88 -53 -119 l0 -33 -82 7 c-46 4
-86 12 -90 19 -4 7 -8 54 -8 105 0 50 -4 92 -9 92 -4 0 -11 23 -14 52 -4 28
-12 55 -19 60 -26 16 -67 9 -80 -14z"/>
<path d="M1027 4603 c-6 -16 -16 -31 -21 -35 -5 -3 -11 -31 -14 -62 -2 -31 -8
-59 -13 -62 -5 -3 -9 -29 -9 -58 l0 -53 -60 -7 c-33 -4 -62 -11 -65 -16 -3 -4
-24 -11 -48 -15 -23 -4 -44 -11 -47 -16 -3 -4 -57 -9 -120 -10 l-115 -2 -3 84
c-1 46 -6 93 -11 104 -5 11 -13 32 -20 48 -9 22 -17 27 -44 27 -56 0 -68 -24
-74 -142 -4 -97 -23 -168 -45 -168 -13 0 -9 -45 4 -58 14 -14 12 -170 -3 -188
-5 -6 -12 -69 -15 -140 -3 -71 -10 -133 -15 -139 -26 -26 4 -155 37 -155 8 0
14 -4 14 -10 0 -14 66 -12 92 3 33 18 57 49 58 72 0 12 5 26 12 33 8 8 13 86
16 249 l5 238 119 -3 c65 -2 124 1 131 6 7 5 32 12 57 16 24 4 47 11 50 15 3
4 22 11 43 14 l37 6 0 -38 c0 -20 -5 -42 -10 -47 -6 -6 -13 -86 -17 -180 -3
-93 -10 -174 -15 -181 -5 -6 -10 -36 -11 -65 -2 -46 2 -60 26 -91 17 -23 37
-37 50 -37 12 0 28 -4 35 -9 17 -10 74 9 101 33 11 10 29 36 41 58 17 34 20
57 20 184 0 80 4 153 9 162 4 9 11 92 14 185 5 134 3 167 -7 167 -15 0 -26 43
-26 101 0 21 -4 40 -9 43 -4 3 -11 23 -15 44 -3 22 -13 52 -21 68 -8 16 -15
35 -15 42 0 7 -14 12 -35 12 -29 0 -38 -5 -48 -27z"/>
<path d="M5731 4503 c-21 -8 -61 -54 -61 -68 0 -7 -7 -15 -15 -19 -8 -3 -15
-16 -15 -30 0 -13 -5 -26 -12 -28 -6 -2 -13 -30 -16 -61 -2 -31 -8 -57 -12
-57 -5 0 -12 -15 -15 -32 -12 -54 -31 -68 -92 -68 -35 0 -53 -4 -54 -12 -3
-30 4 -63 13 -67 5 -1 18 -13 29 -25 17 -17 19 -29 14 -69 -4 -27 -13 -61 -21
-75 -8 -15 -14 -39 -14 -54 0 -14 -4 -28 -9 -30 -14 -5 -19 -237 -5 -246 6 -4
16 -17 23 -29 6 -13 18 -23 26 -23 7 0 15 -5 17 -11 5 -15 81 -13 109 3 33 19
59 46 59 61 0 7 5 18 11 24 7 7 14 57 16 115 3 57 9 108 13 113 5 6 10 34 12
63 3 46 5 52 26 52 12 0 22 -4 22 -10 0 -5 16 -12 35 -16 19 -3 35 -10 35 -15
0 -5 6 -9 13 -9 6 0 24 -6 38 -14 14 -7 39 -16 55 -20 48 -12 103 -40 104 -53
0 -7 -4 -13 -10 -13 -5 0 -10 -8 -10 -17 -1 -10 -9 -36 -20 -58 -11 -22 -19
-52 -20 -67 0 -14 -5 -28 -10 -30 -6 -2 -13 -50 -17 -109 -6 -100 -5 -108 17
-137 13 -18 32 -32 42 -32 10 0 18 -4 18 -10 0 -15 22 -12 68 10 23 11 42 27
42 35 0 8 4 15 9 15 4 0 11 35 15 77 3 42 11 80 16 83 6 4 13 24 17 46 3 21 9
44 13 49 4 6 11 30 15 55 4 25 11 50 16 55 4 6 11 62 15 125 3 63 12 121 18
129 15 19 12 176 -4 196 -7 9 -13 51 -13 112 l-2 98 -50 3 c-70 5 -77 -8 -69
-123 6 -79 4 -96 -15 -137 -11 -26 -21 -56 -21 -67 0 -16 -6 -21 -28 -21 -15
0 -33 5 -39 11 -5 5 -36 13 -67 16 -31 3 -56 9 -56 13 0 4 -18 10 -39 14 -56
9 -70 26 -64 78 3 24 9 50 14 59 5 9 9 57 10 106 1 69 -3 96 -15 116 -22 32
-66 45 -105 30z"/>
<path d="M3818 3513 c-16 -2 -28 -9 -28 -14 0 -5 -11 -9 -24 -9 -14 0 -31 -7
-40 -15 -8 -8 -19 -15 -24 -15 -5 0 -28 -14 -50 -30 -37 -27 -42 -35 -42 -70
0 -35 4 -42 28 -51 15 -6 41 -8 59 -5 30 4 41 10 78 44 8 7 28 15 44 18 17 4
31 10 31 15 0 14 39 10 64 -7 22 -14 24 -21 23 -87 l-2 -72 -77 -3 c-43 -2
-78 -7 -78 -12 0 -6 -7 -10 -15 -10 -8 0 -15 -8 -15 -18 0 -10 -5 -23 -12 -30
-9 -9 -9 -15 0 -24 7 -7 12 -20 12 -29 0 -31 43 -48 132 -51 81 -3 83 -3 80
-27 -1 -14 -4 -27 -7 -29 -2 -2 -32 -8 -67 -12 -77 -9 -124 6 -134 44 -3 14
-10 26 -15 26 -5 0 -9 8 -9 19 0 10 -7 24 -15 31 -8 7 -15 16 -15 21 0 5 -9
18 -20 29 -11 11 -24 20 -29 20 -5 0 -14 7 -21 15 -8 9 -29 15 -56 15 -24 0
-49 -6 -58 -15 -8 -8 -17 -15 -20 -15 -3 0 -15 -9 -26 -20 -28 -28 -28 -135
-1 -167 11 -13 23 -23 28 -23 10 0 43 -36 43 -47 0 -10 100 -103 110 -103 5 0
16 -7 24 -16 18 -18 139 -22 159 -5 7 5 40 13 75 17 34 3 62 11 62 15 0 5 12
9 26 9 30 0 94 56 94 82 0 10 5 18 10 18 6 0 10 33 10 80 0 47 -4 80 -10 80
-5 0 -10 9 -10 20 0 10 -6 23 -14 27 -10 6 -15 39 -18 123 -3 80 -10 124 -21
145 -16 30 -79 95 -92 95 -3 0 -13 7 -21 15 -15 14 -47 17 -106 8z"/>
<path d="M8200 3380 c0 -5 -6 -10 -14 -10 -19 0 -46 -55 -53 -110 -3 -25 -9
-49 -13 -55 -4 -5 -11 -26 -15 -45 -15 -78 -24 -88 -87 -95 l-58 -7 0 -48 c0
-51 9 -60 55 -60 30 0 39 -14 21 -33 -8 -8 -18 -31 -21 -51 -4 -20 -11 -36
-15 -36 -4 0 -11 -12 -14 -26 -4 -15 -14 -33 -21 -41 -8 -8 -15 -25 -15 -39 0
-13 -4 -24 -9 -24 -5 0 -13 -26 -17 -57 -4 -32 -11 -60 -15 -64 -5 -3 -12 -26
-15 -52 -5 -36 -2 -57 12 -87 10 -22 24 -40 30 -40 7 0 14 -7 18 -15 4 -11 22
-15 76 -15 57 0 74 4 90 20 11 11 20 23 20 26 0 3 7 12 15 20 8 9 15 30 15 49
0 18 5 35 12 37 7 3 14 32 16 76 2 40 8 72 12 72 5 0 12 14 15 32 4 17 14 38
21 46 8 7 14 22 14 33 0 17 4 19 23 13 12 -4 24 -10 27 -15 3 -4 19 -11 35
-15 52 -12 63 -28 57 -87 -2 -28 -8 -56 -12 -62 -4 -5 -11 -28 -14 -49 -4 -21
-14 -45 -22 -53 -10 -11 -14 -43 -14 -132 0 -126 7 -147 70 -201 28 -25 111
-28 134 -5 8 8 19 15 25 15 6 0 11 6 11 13 0 8 9 22 20 32 17 16 20 31 20 107
0 49 4 88 10 88 5 0 12 17 15 38 3 20 11 45 16 55 6 11 13 50 16 88 5 58 9 69
24 69 10 0 21 5 24 10 3 6 15 10 26 10 10 0 19 6 19 14 0 8 7 16 15 20 11 4
15 21 15 61 0 40 -4 57 -15 61 -8 4 -15 12 -15 20 0 8 -7 14 -16 14 -12 0 -14
5 -9 18 11 23 24 135 24 203 1 79 -20 102 -94 102 -45 0 -59 -4 -75 -23 -11
-13 -20 -29 -20 -37 0 -7 -4 -13 -9 -13 -5 0 -12 -18 -16 -40 -4 -22 -11 -40
-15 -40 -5 0 -12 -15 -16 -34 -3 -19 -13 -37 -21 -40 -8 -3 -12 -10 -8 -15 8
-14 -14 -24 -28 -13 -7 5 -31 13 -54 17 -24 4 -43 11 -43 16 0 5 -12 12 -26
15 -28 7 -29 21 -5 109 6 22 10 78 10 125 0 68 -3 89 -18 108 -11 12 -24 22
-30 22 -6 0 -11 5 -11 10 0 6 -20 10 -45 10 -25 0 -45 -4 -45 -10z"/>
<path d="M5320 3261 c0 -5 -20 -12 -45 -15 -25 -4 -45 -11 -45 -16 0 -4 -18
-11 -40 -15 -22 -4 -40 -11 -40 -16 0 -5 -11 -9 -24 -9 -14 0 -42 -18 -71 -45
-45 -44 -47 -48 -41 -86 12 -72 96 -117 140 -74 8 8 18 15 21 15 4 0 18 9 32
20 14 11 34 20 44 20 9 0 19 4 21 9 2 5 12 11 23 13 11 1 25 10 32 18 10 13
12 11 13 -12 0 -16 -4 -28 -9 -28 -10 0 -67 -48 -117 -97 -18 -18 -37 -33 -43
-33 -6 0 -11 -4 -11 -9 0 -5 -25 -11 -56 -13 -31 -3 -59 -9 -62 -14 -4 -5 -40
-25 -79 -44 -40 -19 -73 -41 -73 -47 0 -7 -7 -13 -15 -13 -9 0 -15 -9 -15 -24
0 -14 -4 -28 -10 -31 -5 -3 -10 -17 -10 -30 0 -13 5 -27 10 -30 6 -3 10 -14
10 -24 0 -18 64 -81 82 -81 5 0 16 -7 24 -15 13 -13 59 -15 289 -15 l274 0 25
33 c26 34 37 107 17 107 -5 0 -13 9 -16 20 -3 11 -17 23 -31 26 -13 3 -24 10
-24 15 0 5 -40 9 -89 9 -86 0 -130 14 -82 27 12 3 21 12 21 19 0 8 4 14 8 14
9 0 112 97 112 105 0 4 7 13 15 21 8 9 15 26 15 40 0 13 5 24 11 24 11 0 11 6
-8 168 -3 32 -11 56 -19 59 -8 3 -14 11 -14 19 0 7 -16 16 -35 20 -19 3 -35
10 -35 15 0 5 -18 9 -40 9 -22 0 -40 -4 -40 -9z"/>
<path d="M2489 1388 c-29 -41 -59 -94 -59 -109 0 -6 -7 -17 -15 -25 -8 -9 -15
-25 -15 -38 0 -34 -19 -46 -78 -46 -44 0 -57 -4 -73 -22 -10 -13 -18 -33 -19
-46 0 -24 37 -82 54 -82 5 0 17 -7 26 -15 14 -13 15 -22 6 -67 -6 -29 -15 -60
-21 -68 -5 -8 -11 -76 -13 -150 -4 -126 -3 -137 17 -159 12 -13 21 -27 21 -30
0 -3 14 -14 31 -23 34 -20 84 -24 94 -8 3 5 15 10 26 10 10 0 19 7 19 15 0 7
8 18 17 24 15 8 18 28 21 133 2 68 7 132 12 143 5 11 11 34 12 50 3 27 6 30
33 27 16 -2 32 -8 36 -13 3 -5 56 -12 117 -16 l112 -6 0 -29 c0 -15 -4 -28 -9
-28 -5 0 -13 -26 -17 -57 -4 -32 -13 -63 -20 -71 -8 -7 -14 -22 -14 -33 0 -10
-4 -19 -10 -19 -16 0 -12 -64 7 -100 25 -51 62 -79 105 -80 20 0 43 6 50 13 8
6 23 17 33 23 11 6 24 20 30 32 5 12 13 22 17 22 4 0 10 17 13 38 4 20 9 44
13 52 3 8 11 44 16 80 11 64 12 65 46 70 60 10 80 36 80 101 0 56 -18 89 -48
89 -14 0 -17 86 -3 94 5 3 12 34 16 68 4 35 12 68 17 75 5 6 12 37 15 67 5 49
3 61 -21 96 -40 61 -110 58 -130 -7 -4 -12 -13 -24 -21 -27 -8 -3 -15 -15 -15
-26 0 -11 -4 -20 -10 -20 -5 0 -12 -11 -16 -25 -3 -14 -10 -25 -14 -25 -5 0
-12 -15 -15 -32 -4 -18 -12 -36 -17 -39 -4 -3 -11 -29 -15 -57 -5 -45 -9 -52
-27 -52 -12 0 -26 4 -32 10 -5 5 -61 11 -124 12 l-115 3 3 30 c2 16 8 32 13
36 5 3 13 34 19 70 5 35 12 77 16 92 3 16 2 38 -4 50 -6 12 -13 30 -16 40 -4
14 -17 17 -69 17 -60 0 -65 -2 -88 -32z"/>
<path d="M5276 1101 c-3 -4 -24 -11 -46 -15 -22 -3 -40 -11 -40 -16 0 -6 -13
-10 -29 -10 -16 0 -36 -7 -45 -15 -8 -8 -22 -15 -31 -15 -8 0 -18 -6 -21 -14
-3 -8 -16 -17 -30 -20 -13 -4 -24 -11 -24 -16 0 -6 -7 -10 -15 -10 -8 0 -48
-34 -88 -75 -95 -98 -107 -113 -107 -127 0 -7 -7 -22 -15 -32 -8 -11 -15 -30
-15 -43 0 -13 -4 -23 -10 -23 -5 0 -12 -17 -15 -37 -3 -21 -10 -46 -16 -55
-12 -24 -12 -128 1 -128 6 0 10 -11 10 -25 0 -14 10 -40 23 -58 31 -44 112
-127 124 -127 6 0 16 -7 23 -15 7 -8 24 -15 39 -15 15 0 32 -5 38 -11 15 -15
336 -17 355 -2 7 6 25 13 41 17 15 3 27 11 27 16 0 6 7 10 15 10 8 0 23 9 32
20 10 11 23 20 30 20 7 0 13 4 13 9 0 5 11 12 25 15 14 4 25 11 25 16 0 6 6
10 13 10 7 0 24 13 37 30 14 16 28 29 32 30 14 0 48 34 48 46 0 7 5 14 12 16
6 2 13 30 16 61 2 32 8 60 13 63 13 7 11 241 -1 249 -6 3 -10 49 -10 102 l0
95 -37 34 c-23 21 -47 34 -64 34 -15 0 -31 5 -34 10 -8 12 -292 14 -299 1z
m86 -261 c13 -6 41 -21 63 -34 l40 -24 3 -115 3 -115 -32 -16 c-18 -9 -38 -16
-46 -16 -7 0 -16 -7 -19 -15 -4 -8 -10 -15 -15 -15 -6 0 -22 -9 -38 -21 -26
-19 -39 -20 -157 -17 -118 3 -132 5 -154 26 -20 18 -24 31 -22 69 1 26 6 49
11 52 5 4 13 19 16 34 4 15 11 27 16 27 5 0 9 6 9 13 0 15 44 57 59 57 6 0 11
5 11 10 0 6 7 10 15 10 8 0 15 5 15 10 0 6 10 15 23 21 12 5 47 23 77 39 59
32 85 36 122 20z"/>
<path d="M6413 1036 c-13 -13 -23 -31 -23 -40 0 -9 -4 -16 -10 -16 -5 0 -12
-17 -16 -37 -4 -21 -13 -44 -21 -51 -7 -7 -13 -20 -13 -28 0 -9 -7 -22 -15
-30 -8 -9 -15 -24 -15 -35 0 -47 -49 -86 -75 -60 -6 6 -29 11 -53 13 l-42 3
-4 90 c-2 54 -8 91 -15 93 -6 2 -11 13 -11 24 0 36 -40 68 -86 68 -61 0 -91
-44 -101 -146 -3 -35 -9 -64 -13 -64 -4 0 -10 -18 -13 -40 -3 -22 -12 -47 -21
-55 -9 -9 -16 -22 -16 -29 0 -8 -7 -19 -15 -26 -8 -7 -15 -20 -15 -30 0 -10
-7 -23 -15 -30 -8 -7 -15 -23 -15 -35 0 -13 -5 -25 -11 -27 -6 -2 -15 -33 -19
-68 -5 -36 -14 -89 -20 -119 -12 -55 -6 -121 9 -121 5 0 12 -11 15 -25 4 -16
15 -27 34 -30 15 -4 35 -10 44 -16 23 -12 68 -12 68 1 0 6 11 10 25 10 27 0
75 45 75 70 0 9 5 21 11 27 7 7 14 55 17 107 2 53 9 96 13 96 5 0 9 13 9 29 0
35 13 46 32 28 7 -7 34 -24 60 -37 26 -13 45 -28 41 -33 -15 -25 -49 -354 -39
-388 3 -13 16 -35 27 -49 20 -23 27 -25 113 -25 99 0 116 7 131 55 4 14 11 30
16 35 4 6 11 71 15 145 4 74 10 140 14 145 5 6 11 31 15 57 4 26 13 53 21 59
8 6 14 17 14 24 0 7 7 18 15 25 10 8 15 30 15 65 0 29 7 66 15 81 8 16 15 46
15 66 0 20 5 40 10 43 6 3 10 42 10 86 0 46 -4 79 -10 79 -5 0 -10 9 -10 21 0
12 -10 32 -22 45 -33 34 -113 34 -145 0z"/>
</g>
</svg>
