<?xml version="1.0" standalone="no"?>
<!DOCTYPE svg PUBLIC "-//W3C//DTD SVG 20010904//EN"
 "http://www.w3.org/TR/2001/REC-SVG-20010904/DTD/svg10.dtd">
<svg version="1.0" xmlns="http://www.w3.org/2000/svg"
 width="1323.000000pt" height="1818.000000pt" viewBox="0 0 1323.000000 1818.000000"
 preserveAspectRatio="xMidYMid meet">
<metadata>
Created by potrace 1.16, written by Peter Selinger 2001-2019
</metadata>
<g transform="translate(0.000000,1818.000000) scale(0.100000,-0.100000)"
fill="current" stroke="none">
<path d="M1223 17376 c-59 -16 -72 -32 -79 -104 -7 -60 -9 -65 -65 -120 -33
-31 -59 -61 -59 -65 0 -5 -7 -15 -15 -23 -8 -9 -15 -29 -15 -45 0 -16 -4 -29
-9 -29 -5 0 -12 -16 -15 -35 -4 -19 -11 -35 -16 -35 -5 0 -12 -11 -16 -24 -3
-14 -12 -27 -20 -30 -8 -3 -14 -12 -14 -21 0 -8 -4 -15 -10 -15 -13 0 -25 -69
-13 -81 16 -16 70 2 100 32 15 16 38 29 51 29 12 0 22 5 22 10 0 6 7 10 15 10
8 0 15 7 15 15 0 16 36 28 71 23 21 -3 23 -7 22 -78 -1 -75 -1 -75 -30 -78
-15 -2 -32 -8 -38 -13 -5 -5 -15 -9 -23 -9 -23 0 -92 -72 -92 -97 0 -24 9 -27
61 -23 15 0 33 -6 42 -14 17 -18 58 -21 73 -7 5 6 10 -87 12 -251 1 -144 6
-266 11 -272 5 -6 12 -60 16 -121 4 -60 10 -114 15 -120 4 -5 10 -21 13 -34 4
-17 1 -24 -14 -28 -10 -3 -19 -9 -19 -14 0 -5 -7 -9 -15 -9 -11 0 -15 -12 -15
-45 0 -43 1 -45 29 -45 42 0 64 -10 52 -24 -5 -6 -11 -163 -12 -348 -3 -252
-7 -340 -16 -350 -7 -6 -13 -29 -13 -50 0 -28 -5 -41 -17 -45 -23 -9 -44 -30
-60 -61 -23 -44 -17 -57 28 -53 13 1 15 -10 12 -81 -2 -46 -9 -101 -16 -123
-16 -55 -17 -512 0 -546 6 -13 14 -58 16 -99 3 -42 9 -76 16 -78 18 -6 13 -42
-5 -42 -9 0 -27 -11 -40 -25 -29 -31 -32 -31 -26 0 12 65 -116 77 -188 18 -8
-7 -34 -29 -58 -49 -50 -44 -67 -40 -23 5 17 18 31 40 31 51 0 10 4 22 10 25
13 8 13 58 1 70 -5 6 -11 25 -13 44 -5 50 -27 59 -79 32 -24 -13 -46 -26 -49
-30 -3 -3 -24 -19 -47 -35 -24 -16 -43 -37 -43 -47 0 -9 -5 -19 -12 -21 -7 -3
-9 -12 -5 -22 6 -14 14 -16 39 -11 18 4 37 11 42 16 17 15 23 10 24 -18 0 -33
-14 -58 -68 -114 -30 -32 -40 -50 -40 -75 0 -33 17 -55 29 -37 9 15 48 25 55
14 11 -17 -13 -61 -33 -61 -11 0 -23 -4 -26 -10 -3 -5 -14 -10 -24 -10 -21 0
-71 -40 -71 -58 0 -7 -5 -12 -11 -12 -6 0 -9 -12 -7 -27 3 -26 6 -28 45 -27
24 0 48 7 58 17 9 9 23 17 31 17 8 0 14 5 14 10 0 6 6 10 14 10 8 0 35 20 59
45 47 47 60 55 51 31 -9 -22 6 -25 94 -15 81 9 95 15 130 52 9 9 22 17 29 17
7 0 13 5 13 11 0 6 7 17 15 25 8 9 15 29 15 45 0 28 2 29 45 29 l45 0 0 -360
c0 -357 0 -360 -21 -360 -11 0 -34 -13 -52 -30 -18 -16 -35 -30 -38 -30 -4 0
-10 -11 -13 -25 -4 -14 -11 -25 -16 -25 -6 0 -10 -7 -10 -15 0 -12 15 -15 77
-15 l76 0 -6 -106 c-3 -58 -10 -111 -16 -117 -5 -7 -12 -39 -16 -72 -4 -33
-12 -63 -18 -66 -5 -4 -14 -60 -19 -125 -12 -163 -13 -197 -5 -214 4 -10 -2
-21 -18 -33 l-25 -18 0 46 c0 32 -4 45 -14 45 -8 0 -16 6 -18 12 -3 9 -34 14
-92 17 -95 3 -87 7 -160 -69 -64 -66 -86 -93 -86 -106 0 -8 -4 -14 -10 -14
-16 0 -12 -40 5 -46 11 -5 15 -22 15 -70 0 -85 17 -98 129 -93 74 4 81 6 110
37 17 17 36 32 41 32 6 0 13 7 16 15 4 8 12 15 20 15 8 0 14 6 14 14 0 8 7 16
15 20 8 3 15 17 15 31 0 18 5 25 19 25 23 0 40 -22 23 -28 -14 -4 -16 -86 -2
-111 5 -11 10 -187 12 -420 2 -316 0 -401 -9 -401 -7 0 -13 5 -13 12 0 9 -3 9
-12 0 -7 -7 -25 -12 -40 -12 -16 0 -31 -7 -34 -15 -4 -8 -12 -15 -20 -15 -7 0
-21 -16 -30 -36 -27 -57 -14 -67 81 -65 l80 2 -3 -208 c-1 -114 -6 -217 -11
-228 -5 -11 -12 -44 -15 -74 -3 -30 -9 -57 -14 -60 -5 -3 -12 -24 -16 -46 -5
-22 -13 -43 -19 -47 -10 -6 -19 -230 -17 -420 0 -12 -8 -18 -21 -18 -35 0
-119 -96 -119 -136 0 -16 41 -19 55 -5 6 5 28 11 50 13 l40 3 3 -120 c1 -66 7
-129 12 -140 6 -11 15 -76 20 -145 5 -69 14 -177 20 -240 14 -143 9 -322 -8
-328 -17 -5 -15 -29 3 -36 13 -5 15 -48 15 -304 0 -170 4 -302 9 -308 5 -5 11
-60 12 -121 2 -97 0 -115 -16 -133 -26 -28 -35 -25 -35 14 0 26 -8 40 -37 65
-20 17 -44 31 -54 31 -10 0 -21 5 -24 10 -8 13 -65 13 -65 1 0 -5 -13 -12 -29
-16 -16 -3 -39 -20 -52 -37 -13 -17 -47 -54 -75 -82 -70 -70 -84 -103 -84
-195 1 -82 13 -111 48 -111 11 0 24 -4 27 -10 3 -5 35 -10 71 -10 36 0 64 4
64 10 0 6 9 10 20 10 11 0 23 7 26 15 4 8 11 15 18 15 7 0 23 13 36 30 14 16
29 29 33 30 24 1 77 76 77 108 0 15 6 22 19 22 11 0 23 4 26 10 14 23 20 6 22
-57 2 -112 23 -337 33 -358 5 -11 12 -48 15 -83 4 -34 11 -65 16 -68 5 -3 9
-38 9 -79 l0 -73 -31 -7 c-17 -4 -33 -13 -35 -20 -3 -7 -12 -16 -21 -19 -12
-5 -14 -1 -10 16 8 28 -9 48 -39 48 -12 0 -26 5 -29 10 -7 11 -135 14 -135 3
0 -5 -15 -17 -33 -28 -27 -16 -47 -19 -132 -16 -89 3 -103 1 -126 -18 -15 -11
-28 -18 -31 -16 -9 10 2 180 12 183 5 2 10 14 10 26 0 27 27 66 46 66 8 0 14
4 14 9 0 5 13 11 30 14 24 5 31 14 40 48 6 22 9 47 6 55 -6 16 -42 19 -51 4
-3 -5 -13 -10 -22 -10 -9 0 -42 -27 -75 -60 -32 -33 -63 -60 -68 -60 -6 0 -10
-7 -10 -15 0 -8 -4 -15 -9 -15 -13 0 -51 -77 -51 -105 0 -13 -5 -27 -10 -30
-15 -9 -13 -232 2 -251 34 -40 71 -74 79 -74 6 0 18 -7 27 -16 22 -23 155 -14
183 12 18 16 20 16 42 -4 32 -30 132 -31 170 -2 14 11 30 20 35 20 5 0 12 7
16 15 3 8 12 15 20 15 7 0 17 6 20 13 34 68 40 72 111 75 37 2 72 -1 77 -6 4
-4 11 -46 15 -93 3 -46 11 -87 16 -91 5 -3 12 -53 15 -110 3 -56 8 -105 13
-108 5 -3 9 -117 10 -254 2 -200 0 -249 -11 -256 -11 -7 -11 -11 -1 -24 9 -11
13 -46 13 -103 0 -49 -1 -230 -1 -404 l-1 -316 -22 -11 c-62 -32 -98 -63 -98
-84 0 -10 -4 -18 -10 -18 -15 0 -12 -40 3 -42 6 0 38 -2 71 -2 l58 -1 -1 -105
c-1 -77 3 -113 14 -134 8 -15 15 -37 15 -47 0 -11 9 -36 20 -56 11 -21 20 -50
20 -65 0 -15 4 -29 9 -32 5 -3 12 -22 15 -41 4 -19 11 -35 16 -35 5 0 12 -17
16 -37 4 -21 10 -40 15 -43 4 -3 9 -80 10 -170 l2 -165 -24 4 c-13 1 -27 8
-31 14 -14 23 -68 9 -107 -30 -42 -41 -57 -78 -46 -112 6 -21 45 -30 45 -11 0
7 29 10 80 8 63 -2 80 -6 81 -18 3 -42 -4 -146 -11 -150 -4 -3 -10 -32 -14
-65 -4 -32 -12 -62 -18 -66 -8 -5 -13 -95 -16 -288 -3 -158 -9 -281 -14 -281
-18 0 -45 -36 -52 -69 -6 -32 -5 -33 21 -26 15 3 32 7 37 8 5 1 11 -13 13 -32
2 -19 7 -39 13 -45 5 -7 12 -42 16 -79 4 -37 11 -70 15 -73 13 -8 11 -448 -1
-460 -6 -6 -13 -40 -17 -76 -5 -56 -9 -67 -27 -72 -35 -10 -64 -41 -66 -72 -4
-53 -2 -57 30 -52 24 4 30 1 30 -14 0 -10 -5 -18 -11 -18 -6 0 -17 -6 -25 -14
-11 -12 -14 -53 -14 -200 0 -143 -4 -196 -16 -232 -13 -39 -14 -51 -3 -70 7
-13 18 -24 25 -24 7 0 12 -8 12 -18 -1 -9 3 -101 7 -203 l8 -186 -33 -6 c-18
-4 -52 -7 -75 -7 -26 0 -45 -5 -47 -12 -6 -16 -538 -25 -538 -10 0 6 7 12 15
16 8 3 15 12 15 21 0 11 -11 15 -40 15 -58 0 -87 -35 -81 -97 1 -6 14 -14 31
-18 16 -4 30 -10 30 -15 0 -4 20 -11 45 -14 25 -4 45 -11 45 -17 0 -13 457
-12 462 1 5 15 159 29 164 15 3 -7 4 -47 2 -91 -3 -76 -3 -78 -18 -50 -14 27
-17 28 -72 24 -51 -4 -58 -2 -58 14 0 15 -9 18 -64 18 -44 0 -69 -5 -80 -15
-8 -8 -18 -15 -22 -15 -23 0 -104 -106 -104 -135 0 -8 -6 -20 -13 -27 -15 -15
-41 -69 -53 -108 -3 -14 -11 -28 -16 -31 -16 -10 -16 -271 -1 -276 7 -3 13
-10 13 -16 0 -27 64 -42 176 -42 111 1 112 1 159 43 7 6 18 12 24 12 6 0 11 7
11 15 0 8 5 15 10 15 6 0 10 7 10 15 0 9 6 18 14 21 8 3 17 16 20 30 4 13 11
24 16 24 5 0 12 20 16 45 3 25 10 48 15 51 5 3 9 29 9 57 0 60 14 92 25 58 5
-16 14 -21 39 -21 19 0 39 6 45 14 8 10 11 74 11 207 l-2 194 138 3 c95 2 141
6 146 15 5 9 90 13 334 15 l327 3 -6 -48 c-3 -26 -10 -49 -16 -51 -6 -2 -11
-15 -11 -28 0 -14 -7 -27 -15 -30 -19 -8 -19 -24 0 -24 8 0 15 7 15 15 0 11
11 15 39 15 25 0 41 5 45 15 3 8 10 15 17 15 14 0 48 41 49 58 0 6 5 12 11 12
5 0 9 10 7 23 l-3 22 410 0 409 0 -3 -47 c-2 -47 -2 -48 28 -48 22 0 39 10 63
36 62 69 57 67 126 61 35 -3 69 -10 75 -16 8 -8 105 -11 313 -11 347 0 363 -2
356 -36 -2 -13 -8 -24 -13 -24 -5 0 -9 -12 -9 -27 0 -14 -7 -35 -17 -45 -15
-17 -15 -18 0 -18 10 0 17 7 17 15 0 9 9 15 24 15 14 0 28 5 31 10 3 6 17 10
31 10 13 0 24 6 24 13 1 6 11 23 23 37 l22 26 290 -8 c160 -4 303 -12 319 -18
42 -14 249 -13 264 2 9 9 12 8 13 -7 2 -48 -4 -91 -14 -97 -9 -5 -9 -10 1 -20
9 -9 15 -9 24 0 7 7 20 12 30 12 10 0 27 9 38 20 11 11 23 20 28 20 4 0 15 13
24 30 l17 29 83 -6 c46 -3 91 -10 101 -15 11 -5 158 -12 327 -15 l309 -6 3
-41 c2 -34 7 -42 26 -44 22 -3 80 34 81 52 1 5 9 15 19 22 21 16 349 20 415 4
23 -5 119 -11 212 -12 l170 -3 3 -27 c2 -19 -1 -28 -11 -28 -8 0 -40 -27 -71
-60 -32 -33 -62 -60 -67 -60 -5 0 -9 -7 -9 -15 0 -8 -4 -15 -9 -15 -5 0 -12
-14 -16 -30 -4 -17 -11 -30 -16 -30 -5 0 -11 -11 -15 -25 -3 -14 -10 -25 -15
-25 -5 0 -9 -9 -9 -20 0 -13 7 -20 18 -20 26 0 34 -11 21 -27 -9 -9 -8 -13 0
-13 6 0 11 -18 11 -43 0 -36 5 -49 30 -70 27 -24 38 -27 105 -27 43 0 75 4 75
10 0 14 38 12 42 -2 5 -14 137 -15 147 -2 3 5 23 20 44 34 20 14 40 34 43 45
4 11 11 23 15 26 11 7 24 149 16 181 -12 47 -120 73 -183 45 -19 -9 -55 -12
-102 -9 -69 3 -72 5 -66 25 4 12 11 24 16 26 25 9 58 51 58 74 0 58 -9 57 469
57 326 0 440 3 449 12 9 9 12 6 12 -14 0 -15 -6 -28 -12 -31 -10 -3 -10 -7 -1
-17 9 -10 15 -9 28 4 9 9 22 16 30 16 7 0 15 6 17 13 3 8 40 13 124 15 65 2
125 8 131 14 7 6 80 13 163 16 83 3 153 9 156 13 3 5 74 9 158 9 l152 0 -4
-34 c-4 -38 14 -106 29 -106 29 0 139 97 139 123 0 12 31 16 178 22 97 4 182
11 187 15 6 5 73 12 150 16 77 3 145 10 150 14 6 4 40 10 77 14 64 6 68 5 68
-14 0 -11 -4 -20 -9 -20 -11 0 -20 -59 -10 -66 13 -7 89 15 89 26 0 6 4 10 10
10 17 0 50 34 50 52 0 16 11 18 113 18 64 0 117 4 123 10 6 6 78 13 160 17 82
3 154 10 160 15 7 5 81 13 165 18 85 5 171 12 192 16 36 6 37 6 37 -25 0 -17
-4 -31 -10 -31 -14 0 -12 -67 2 -76 6 -4 14 -2 16 4 2 7 12 12 23 12 11 0 22
7 25 15 4 8 11 15 18 15 18 0 56 46 56 69 l0 21 494 0 c418 0 498 -2 522 -15
16 -8 37 -15 47 -15 9 0 17 -4 17 -10 0 -6 28 -10 63 -10 34 0 106 -3 160 -7
92 -6 97 -7 80 -23 -50 -48 -63 -71 -63 -111 0 -51 19 -68 76 -69 43 0 103 24
117 47 4 7 17 13 27 13 11 0 20 4 20 9 0 5 10 12 23 16 27 8 66 24 87 36 8 5
25 13 38 19 12 5 38 25 57 43 53 51 49 90 -14 156 -27 28 -54 51 -59 51 -6 0
-46 34 -89 75 -42 41 -82 75 -89 75 -7 0 -14 7 -18 15 -7 20 -99 21 -116 0 -6
-8 -11 -36 -10 -62 2 -26 2 -74 1 -105 l-1 -58 -44 0 c-25 0 -48 5 -51 10 -3
6 -43 10 -88 10 -63 0 -91 5 -120 20 -36 20 -55 20 -540 20 l-502 -1 0 38 c0
32 -4 39 -22 41 -13 2 -23 -1 -23 -7 0 -6 -8 -11 -18 -11 -10 0 -29 -13 -43
-29 -25 -28 -26 -28 -174 -36 -82 -4 -156 -11 -164 -16 -9 -5 -83 -13 -166
-18 -82 -6 -184 -15 -225 -20 -41 -5 -115 -10 -163 -10 l-88 -1 7 73 c3 39 10
76 15 82 16 17 9 25 -21 25 -16 0 -30 -4 -30 -9 0 -5 -11 -12 -25 -15 -14 -4
-25 -13 -25 -21 0 -8 -5 -15 -10 -15 -21 0 -61 -54 -59 -80 2 -44 0 -46 -41
-42 -23 2 -47 -1 -55 -8 -10 -8 -61 -15 -138 -18 -68 -3 -125 -9 -129 -15 -4
-6 -74 -12 -175 -15 -92 -2 -172 -8 -177 -13 -14 -12 -116 -11 -116 1 0 6 5
10 10 10 6 0 10 14 10 30 0 20 -5 30 -15 30 -8 0 -15 -4 -15 -10 0 -5 -11 -10
-25 -10 -15 0 -35 -12 -50 -29 l-26 -28 -272 -5 c-170 -3 -280 -9 -292 -15
-12 -6 -75 -13 -140 -14 l-120 -2 3 75 c2 58 -1 78 -13 88 -12 10 -19 10 -27
2 -7 -7 -18 -12 -25 -12 -15 0 -53 -35 -53 -50 0 -5 -6 -13 -14 -17 -8 -4 -16
-25 -18 -45 l-3 -38 -420 -1 -420 -2 3 37 c3 33 0 38 -30 51 -18 8 -27 14 -20
15 6 0 12 9 12 20 0 16 -7 20 -35 20 -19 0 -35 -4 -35 -9 0 -5 -9 -12 -19 -16
-10 -3 -22 -17 -25 -30 -4 -14 -11 -25 -16 -25 -6 0 -10 -10 -10 -21 0 -17 5
-20 25 -17 17 4 25 1 25 -9 0 -12 -11 -14 -57 -9 -191 20 -293 25 -508 24
l-240 0 -3 41 c-3 36 -6 41 -28 41 -13 0 -24 -4 -24 -10 0 -5 -5 -10 -12 -10
-7 0 -26 -14 -44 -31 l-32 -31 -208 2 c-125 0 -210 5 -212 10 -2 6 -70 10
-165 10 -89 0 -179 3 -200 7 l-39 6 7 43 c6 44 6 44 -24 44 -20 0 -41 -11 -66
-36 l-38 -36 -306 4 c-215 2 -312 7 -328 16 -16 9 -51 10 -135 4 -77 -6 -115
-5 -121 2 -4 6 -7 31 -6 56 0 25 0 51 0 58 -1 14 -31 17 -31 3 0 -5 -13 -12
-30 -16 -16 -4 -30 -11 -30 -16 0 -5 -6 -9 -14 -9 -7 0 -21 -15 -29 -32 l-16
-33 -308 4 c-169 1 -313 7 -319 12 -8 6 -86 14 -185 19 -3 0 -4 25 -1 55 4 45
2 55 -11 55 -9 0 -19 -4 -22 -10 -3 -5 -15 -10 -26 -10 -11 0 -22 -7 -25 -15
-4 -8 -12 -15 -19 -15 -7 0 -19 -14 -27 -31 l-15 -30 -409 1 c-249 0 -412 4
-418 10 -13 13 -56 13 -56 1 0 -5 -156 -11 -363 -13 -253 -2 -368 -6 -378 -14
-19 -16 -151 -22 -156 -8 -4 13 36 73 59 88 14 8 23 3 52 -29 29 -34 35 -37
41 -22 4 9 2 30 -5 46 -16 41 -7 63 46 106 29 24 42 41 36 47 -6 6 -17 5 -30
-3 -30 -19 -39 -3 -19 32 31 56 19 401 -16 447 -13 17 -44 15 -51 -4 -3 -9 -4
-48 0 -88 4 -52 1 -83 -10 -116 -11 -33 -16 -84 -16 -190 0 -118 -3 -150 -16
-169 -30 -42 -38 -10 -41 162 -3 122 -7 165 -18 176 -12 12 -17 12 -30 1 -12
-10 -15 -30 -13 -96 3 -79 2 -84 -25 -112 l-28 -30 2 -133 2 -134 -24 0 -24 0
-7 230 c-6 224 -3 309 12 330 4 6 19 46 33 90 31 93 45 248 26 271 -9 11 -8
14 2 15 55 3 68 6 83 22 9 9 24 20 32 25 17 9 37 83 26 94 -4 4 -33 8 -65 9
-32 1 -59 5 -61 8 -2 3 1 17 7 31 45 106 50 749 6 795 -13 14 -11 35 4 35 8 0
23 8 35 18 12 9 32 26 46 37 14 11 25 28 26 37 0 9 5 20 10 23 5 3 10 13 10
21 0 15 -56 21 -62 6 -1 -5 -23 -12 -47 -16 l-44 -7 5 281 c3 190 8 284 15
288 6 4 15 40 18 80 4 40 12 75 16 78 5 3 9 23 9 45 0 28 4 39 15 39 8 0 24 9
35 20 11 11 24 20 28 20 4 0 15 16 24 35 20 44 7 57 -52 53 l-43 -3 -4 190
c-3 105 -9 194 -14 200 -5 5 -9 20 -9 35 0 14 -7 38 -15 54 -8 15 -15 36 -15
45 0 10 -7 26 -15 37 -8 10 -15 33 -15 51 0 17 -7 38 -15 46 -7 8 -17 28 -21
43 -4 16 -12 35 -18 43 -6 7 -11 52 -11 100 0 76 2 86 19 89 21 4 33 13 77 55
22 21 29 37 27 55 -3 26 -6 27 -65 30 l-63 3 0 409 0 410 30 0 c60 0 120 53
120 105 l0 37 -72 -4 -73 -3 -3 230 c-1 133 -7 234 -12 239 -6 6 -10 51 -10
100 0 58 -5 101 -14 118 -8 14 -16 50 -18 78 -3 51 -2 52 36 74 53 29 74 50
76 78 4 49 4 50 -70 46 -51 -2 -71 1 -75 10 -3 8 -5 58 -5 112 0 54 -4 101 -9
104 -4 3 -11 37 -15 76 -4 38 -11 70 -15 70 -5 0 -12 53 -16 118 -4 64 -11
122 -15 127 -4 6 -10 33 -11 60 l-4 50 48 3 c26 2 47 7 47 11 0 5 11 12 25 15
16 4 27 15 30 34 4 15 11 35 16 45 5 10 7 22 4 27 -9 14 -139 12 -153 -2 -9
-9 -12 -9 -12 3 -4 134 -11 224 -19 233 -6 7 -12 128 -13 299 l-3 287 28 6
c15 3 27 10 27 15 0 5 8 13 18 16 29 12 49 36 55 70 7 35 -6 51 -26 34 -7 -5
-32 -12 -55 -13 l-41 -3 -5 189 c-3 105 -10 204 -15 220 -5 17 -12 85 -16 151
-3 66 -10 124 -16 129 -5 6 -9 47 -9 93 0 76 2 83 20 83 10 0 24 9 30 20 6 11
17 20 25 20 8 0 15 9 15 20 0 11 5 20 10 20 6 0 10 11 10 25 0 24 -3 25 -61
25 l-61 0 4 238 c2 162 7 243 15 253 6 8 15 32 19 54 4 22 10 42 15 45 4 3 12
41 18 85 6 44 15 114 21 155 6 41 10 119 8 173 l-3 97 33 0 c20 0 39 8 49 20
10 11 23 20 30 20 7 0 13 5 13 11 0 6 7 17 15 25 10 10 12 22 6 37 -8 20 -14
22 -77 19 l-69 -4 1 309 c1 284 -4 409 -22 586 -6 64 -5 67 15 67 11 0 21 5
21 10 0 6 7 10 15 10 16 0 74 37 87 55 12 16 9 63 -4 68 -7 2 -41 2 -76 -1
l-63 -5 5 104 c5 115 27 308 37 324 4 6 10 30 14 55 4 25 11 50 16 56 5 5 10
50 12 100 4 72 8 90 21 92 9 2 16 8 16 13 0 5 7 9 15 9 8 0 15 9 15 19 0 11 5
23 10 26 14 9 12 45 -2 46 -7 1 -26 2 -41 3 l-28 1 -2 348 c-2 325 -1 347 16
347 9 0 17 5 17 10 0 6 7 10 15 10 27 0 65 50 65 86 l0 33 -57 3 -58 3 -3 58
c-2 31 -7 57 -12 57 -5 0 -12 23 -16 50 -4 28 -10 50 -15 50 -14 0 -11 647 2
656 6 3 9 24 7 46 -3 34 -1 39 21 45 41 10 101 76 101 112 0 26 -4 31 -24 31
-14 0 -28 -4 -31 -10 -3 -5 -13 -10 -22 -10 -13 0 -15 10 -9 67 4 37 11 70 16
73 11 7 33 484 28 595 l-3 70 47 1 c26 1 56 7 65 15 73 56 93 78 93 104 0 24
-1 24 -107 27 l-108 3 3 27 c1 15 -4 43 -12 62 -8 19 -17 81 -21 138 -4 56
-11 108 -16 114 -5 6 -12 92 -15 193 -7 178 -7 182 15 212 15 21 21 40 18 57
-6 30 1 52 15 52 18 0 48 42 48 66 0 28 -31 49 -48 32 -14 -14 -14 -13 -17 65
-2 53 5 71 20 47 3 -5 28 -10 55 -10 45 0 53 4 95 45 36 37 45 52 45 81 0 22
-6 37 -15 40 -8 4 -15 13 -15 20 0 8 -6 17 -14 20 -8 3 -18 19 -21 35 -4 16
-10 29 -15 29 -4 0 -13 20 -19 44 -11 45 -43 79 -66 70 -7 -3 -15 5 -18 18 -4
13 -20 37 -36 54 -24 23 -31 38 -31 72 0 29 -4 42 -14 42 -8 0 -20 2 -28 4 -7
2 -32 -2 -55 -8z m-321 -9695 c4 -1 14 -8 22 -17 12 -11 16 -36 16 -90 l0 -75
-62 3 -63 3 -3 61 c-2 42 1 66 11 75 7 8 16 22 20 31 4 12 14 17 29 14 13 -3
26 -5 30 -5z m242 -7163 c-4 -13 -11 -26 -17 -29 -5 -4 -6 -12 -3 -18 8 -13
66 -15 66 -2 0 5 12 16 26 26 l27 17 -5 -143 c-4 -93 -9 -144 -17 -147 -6 -2
-11 -13 -11 -25 -1 -59 -9 -67 -70 -67 -33 0 -71 7 -90 16 l-32 17 4 109 c2
63 8 112 14 116 6 4 14 24 18 45 4 20 11 37 15 37 5 0 11 13 14 29 6 27 19 37
55 40 9 1 11 -6 6 -21z"/>
<path d="M11921 17297 c-7 -9 -11 -81 -12 -208 -3 -393 -1 -527 10 -533 29
-18 54 101 26 124 -19 16 -19 44 -1 59 20 17 23 543 3 560 -11 9 -17 8 -26 -2z"/>
<path d="M12077 17283 c-9 -31 -2 -517 6 -531 6 -9 13 -10 21 -3 16 14 21 518
5 537 -15 19 -27 18 -32 -3z"/>
<path d="M2789 17237 c-9 -7 -19 -22 -23 -35 -4 -12 -11 -22 -16 -22 -4 0 -11
-18 -15 -40 -4 -22 -10 -40 -15 -40 -4 0 -11 -12 -14 -26 -4 -15 -14 -33 -21
-41 -8 -8 -15 -22 -15 -31 0 -9 -7 -26 -15 -36 -8 -11 -15 -32 -15 -48 0 -15
-4 -28 -9 -28 -5 0 -12 -11 -15 -25 -4 -14 -11 -25 -16 -25 -6 0 -10 -4 -10
-10 0 -18 -44 -110 -52 -110 -4 0 -8 -19 -8 -43 0 -52 28 -87 68 -87 32 0 60
28 87 88 20 42 21 42 64 40 l45 -3 -3 -57 c-1 -31 1 -77 4 -102 7 -42 10 -46
41 -52 48 -9 84 2 84 26 0 11 5 20 10 20 15 0 13 137 -2 142 -23 8 4 28 38 28
44 0 64 19 64 62 0 40 -33 75 -77 80 -24 2 -28 8 -29 33 -4 141 -19 325 -25
325 -5 0 -9 7 -9 15 0 19 -77 20 -101 2z"/>
<path d="M3506 17121 c-3 -5 -22 -12 -41 -15 -33 -7 -35 -9 -35 -46 0 -30 5
-40 20 -45 11 -3 20 -11 20 -16 0 -5 23 -9 50 -9 28 0 50 -4 50 -8 0 -21 -29
-32 -82 -32 -32 0 -58 -4 -58 -8 0 -4 -13 -13 -29 -19 -22 -8 -30 -18 -33 -39
-2 -20 -8 -28 -18 -24 -23 7 -211 15 -248 11 -19 -2 -36 -10 -40 -20 -3 -9
-10 -19 -16 -23 -7 -5 -6 -20 4 -49 12 -34 24 -48 60 -67 38 -20 60 -24 147
-25 91 -2 104 0 117 18 14 18 15 18 16 3 0 -10 -4 -18 -10 -18 -5 0 -10 -6
-10 -14 0 -8 -6 -21 -13 -28 -8 -7 -17 -27 -21 -43 -4 -16 -12 -33 -18 -36 -6
-4 -12 -27 -15 -52 -5 -40 -2 -49 22 -71 28 -26 88 -36 99 -17 3 5 31 12 61
16 30 3 55 10 55 15 0 5 30 11 68 15 37 3 75 10 84 15 10 6 26 10 37 10 43 0
51 10 51 67 0 41 -5 59 -17 69 -20 15 -169 20 -175 6 -1 -5 -18 -12 -35 -15
-25 -5 -33 -3 -33 8 0 8 4 15 9 15 5 0 12 14 16 30 4 17 10 30 15 30 4 0 11
11 14 24 5 21 10 23 50 19 26 -3 46 -1 50 6 4 6 15 11 26 11 22 0 30 19 30 70
0 30 -5 42 -21 51 -21 11 -21 11 12 44 50 49 57 60 59 86 8 92 -17 109 -165
109 -57 0 -106 -4 -109 -9z"/>
<path d="M1918 17104 c-9 -3 -19 -16 -22 -30 -4 -13 -10 -24 -15 -24 -5 0 -12
-22 -16 -50 -4 -27 -11 -52 -16 -56 -5 -3 -9 -18 -9 -34 0 -16 -5 -32 -10 -35
-12 -8 -30 36 -30 75 0 16 -4 32 -10 35 -5 3 -10 24 -10 45 0 45 -16 54 -86
48 -34 -3 -39 -6 -42 -30 -2 -16 -8 -28 -13 -28 -5 0 -9 -15 -9 -32 0 -30 -66
-179 -82 -186 -4 -2 -10 -19 -14 -38 -3 -19 -10 -34 -14 -34 -5 0 -11 -19 -15
-42 -4 -24 -12 -48 -17 -55 -5 -7 -9 -39 -9 -72 0 -78 21 -110 71 -110 47 0
66 28 75 112 4 37 11 67 15 67 4 0 10 21 13 46 2 26 9 49 14 53 6 3 13 18 17
34 11 44 23 31 30 -33 4 -33 11 -62 15 -65 5 -2 12 -21 16 -42 4 -20 13 -46
21 -57 8 -11 14 -32 14 -46 0 -56 101 -75 135 -26 8 11 15 38 15 59 0 21 5 47
10 58 6 10 13 55 17 99 3 44 9 80 13 80 4 0 10 23 13 52 4 28 10 54 15 57 5 3
12 29 16 56 3 28 11 52 16 53 15 5 12 41 -4 58 -8 7 -16 18 -18 24 -4 12 -64
21 -90 14z"/>
<path d="M11758 16984 c-4 -3 -7 -179 -8 -391 l-1 -384 23 3 23 3 -3 334 c-3
256 -1 340 9 358 9 16 10 32 3 51 -9 26 -33 40 -46 26z"/>
<path d="M11430 16863 c0 -5 -1 -297 -2 -650 -2 -643 1 -701 31 -646 8 17 12
118 14 433 0 19 -1 223 -2 453 -2 405 -3 417 -22 417 -10 0 -19 -3 -19 -7z"/>
<path d="M11603 16817 c-16 -34 -18 -1003 -3 -1012 33 -20 35 12 33 517 -1
276 -6 505 -11 510 -5 5 -13 -2 -19 -15z"/>
<path d="M2175 16760 c-3 -5 -32 -11 -63 -11 -99 -2 -117 -9 -120 -48 -2 -20
2 -37 10 -42 7 -5 50 -9 96 -9 90 0 103 -14 24 -26 -26 -3 -51 -10 -57 -14 -5
-4 -23 -10 -40 -14 -35 -9 -45 -21 -45 -57 0 -42 28 -59 96 -59 33 0 65 5 71
11 6 6 52 14 102 17 50 2 91 8 91 12 0 4 9 10 20 13 16 4 20 14 20 43 0 20 -7
45 -15 54 -14 16 -13 18 15 23 27 6 30 10 30 46 0 34 -4 42 -32 55 -35 18
-193 23 -203 6z"/>
<path d="M11270 16343 c-6 -15 -17 -40 -25 -55 -20 -36 -19 -71 5 -110 27 -45
27 -149 0 -218 -27 -68 -26 -133 2 -170 20 -28 21 -36 16 -222 -3 -106 -3
-201 -1 -210 6 -26 32 -22 38 5 3 12 4 242 2 511 -1 380 -5 490 -14 493 -7 3
-17 -8 -23 -24z"/>
<path d="M11102 16282 c-16 -16 -20 -43 -26 -200 -6 -148 -5 -186 7 -209 8
-15 18 -54 22 -86 5 -48 3 -65 -14 -98 -25 -46 -27 -100 -6 -132 12 -18 14
-70 14 -282 -1 -143 -1 -275 -1 -294 1 -36 23 -68 40 -57 6 3 10 126 11 312 1
197 6 314 12 327 11 19 9 50 -6 168 -5 34 -3 48 9 58 22 18 23 158 1 187 -20
26 -20 169 0 204 41 72 -10 155 -63 102z"/>
<path d="M10947 16183 c-4 -3 -7 -89 -7 -190 0 -128 -4 -191 -12 -206 -9 -15
-14 -90 -16 -234 -3 -177 -1 -215 12 -235 12 -19 15 -65 17 -254 1 -128 5
-238 10 -245 27 -44 40 69 38 328 0 37 6 74 16 92 20 40 21 170 0 197 -20 26
-20 108 0 124 14 11 15 51 12 304 -2 160 -7 299 -11 309 -8 17 -46 24 -59 10z"/>
<path d="M360 16041 c0 -6 -6 -11 -13 -11 -6 0 -25 -16 -41 -35 -16 -19 -33
-35 -38 -35 -5 0 -19 -11 -32 -25 -13 -14 -29 -25 -35 -25 -6 0 -27 -16 -47
-35 -19 -19 -39 -35 -44 -35 -5 0 -12 -9 -15 -20 -3 -11 -11 -20 -16 -20 -6 0
-9 -10 -7 -22 2 -17 11 -24 33 -26 31 -3 64 18 132 85 27 25 33 28 33 13 0
-11 -4 -21 -9 -24 -4 -3 -11 -29 -15 -58 -4 -29 -11 -57 -15 -63 -5 -5 -11
-32 -15 -59 -3 -27 -11 -55 -17 -62 -6 -7 -8 -18 -4 -24 8 -13 65 -13 65 0 0
6 7 10 15 10 8 0 19 9 25 20 6 11 16 20 23 20 15 0 33 42 42 100 4 25 11 50
15 55 4 6 11 35 15 65 4 30 11 60 17 67 5 6 8 42 6 80 -3 66 -4 68 -30 71 -16
2 -28 -1 -28 -7z"/>
<path d="M790 16022 c-14 -2 -39 -10 -57 -18 -17 -8 -38 -14 -47 -14 -9 0 -16
-4 -16 -10 0 -5 -17 -12 -37 -16 -21 -4 -44 -13 -51 -21 -7 -7 -20 -13 -28
-13 -8 0 -14 -4 -14 -10 0 -5 -6 -10 -14 -10 -38 0 -89 -88 -62 -109 12 -10
106 16 106 30 0 4 18 10 40 14 22 4 40 11 40 15 0 5 20 12 45 16 25 3 45 10
45 15 0 5 9 9 20 9 11 0 23 7 26 15 4 8 11 15 18 15 13 0 36 46 36 71 0 20
-15 26 -50 21z"/>
<path d="M10770 15870 c-7 -13 -14 -116 -17 -274 -5 -221 -4 -255 10 -277 14
-21 16 -69 18 -351 1 -251 4 -330 14 -338 20 -16 26 61 30 378 4 225 8 292 21
332 12 36 14 63 8 97 -4 27 -6 111 -6 188 3 171 -12 258 -45 263 -14 2 -26 -4
-33 -18z"/>
<path d="M495 15782 c-11 -2 -24 -10 -28 -18 -4 -8 -12 -14 -18 -14 -17 0 -59
-52 -59 -72 0 -11 -5 -29 -11 -40 -8 -16 -8 -23 2 -29 16 -11 81 -2 89 11 3 5
25 12 48 16 23 4 45 11 48 15 3 5 27 9 55 9 l49 0 0 -54 0 -55 -47 -7 c-27 -3
-54 -11 -60 -16 -9 -7 -18 -6 -30 3 -13 11 -17 11 -20 2 -3 -7 -16 -13 -29
-13 -15 0 -24 -6 -24 -16 0 -9 -9 -18 -20 -21 -11 -3 -20 -12 -20 -19 0 -8 -4
-14 -10 -14 -5 0 -10 -14 -10 -31 l0 -31 83 7 c45 4 84 11 85 16 2 5 11 9 20
9 10 0 30 7 46 15 15 8 35 15 42 15 8 0 17 7 20 15 7 17 51 20 56 4 4 -11 33
-14 111 -11 45 2 52 6 122 77 l75 75 0 69 c0 61 -3 70 -20 76 -11 3 -20 11
-20 16 0 5 -27 9 -60 9 -33 0 -60 -4 -60 -9 0 -5 -13 -12 -29 -16 -16 -3 -32
-13 -35 -21 -8 -22 -26 -7 -26 21 0 18 -7 26 -26 31 -37 9 -208 -4 -212 -16
-5 -14 -33 -12 -46 3 -6 8 -20 12 -31 9z"/>
<path d="M10595 15240 c-19 -21 -18 -36 12 -113 18 -47 18 -48 -4 -86 -30 -52
-28 -189 4 -223 20 -22 20 -31 16 -169 -4 -113 -3 -148 7 -154 8 -5 18 -1 26
10 16 22 18 722 1 743 -14 18 -41 15 -62 -8z"/>
<path d="M515 15181 c-11 -5 -37 -27 -57 -50 -20 -22 -41 -41 -46 -41 -6 0
-12 -7 -16 -15 -3 -8 -10 -15 -16 -15 -15 0 -40 -25 -40 -39 0 -6 -7 -11 -15
-11 -8 0 -15 -5 -15 -11 0 -15 -74 -89 -89 -89 -6 0 -11 -3 -11 -7 0 -5 -18
-27 -40 -51 -22 -24 -40 -45 -40 -48 0 -3 -16 -20 -36 -37 -20 -18 -49 -45
-65 -60 -50 -49 -31 -112 27 -90 27 10 74 54 74 70 0 7 5 13 10 13 6 0 10 6
10 13 0 12 43 57 55 57 10 0 65 57 65 67 0 5 8 16 18 25 9 9 35 34 56 57 22
22 41 39 44 36 3 -2 -3 -20 -12 -39 -9 -19 -16 -43 -16 -54 0 -12 -4 -23 -9
-27 -6 -3 -13 -27 -16 -53 -3 -26 -10 -54 -15 -63 -5 -9 -12 -33 -15 -53 -4
-20 -11 -36 -16 -36 -5 0 -9 -11 -9 -24 0 -14 -7 -31 -15 -40 -17 -17 -20 -52
-5 -61 6 -3 17 1 26 9 8 9 20 16 25 16 10 0 22 9 56 40 10 9 43 16 86 18 l69
4 -8 -33 c-14 -62 -11 -84 14 -87 12 -2 22 1 22 7 0 6 11 11 25 11 14 0 25 6
25 13 0 7 9 20 20 30 11 9 20 26 20 37 0 11 5 20 10 20 6 0 10 18 10 39 0 22
6 46 14 53 8 8 16 49 20 100 l8 86 -39 -8 c-26 -6 -50 -22 -75 -51 -22 -24
-38 -35 -38 -27 0 9 7 21 15 28 8 7 15 21 15 31 0 11 4 19 9 19 5 0 12 14 16
30 4 17 10 30 15 30 5 0 11 13 15 30 4 16 11 32 16 35 14 9 11 45 -3 46 -35 3
-54 -7 -95 -49 -43 -46 -44 -46 -37 -17 4 17 11 32 15 35 4 3 11 25 15 48 4
23 11 42 16 42 5 0 8 21 6 47 -3 50 -14 60 -53 44z"/>
<path d="M10470 15035 c-12 -14 -14 -194 -14 -1040 -1 -1068 -1 -1068 39
-1035 15 12 16 97 11 925 -5 798 -3 914 10 933 11 16 14 46 12 124 -3 96 -4
103 -24 106 -11 2 -27 -4 -34 -13z"/>
<path d="M10295 15028 c-2 -7 -6 -58 -9 -113 -2 -55 -10 -133 -17 -174 -9 -57
-10 -84 -1 -116 8 -29 8 -53 2 -76 -6 -19 -10 -119 -9 -224 1 -170 3 -194 21
-224 14 -25 18 -44 13 -69 -11 -60 -7 -1224 5 -1236 5 -5 10 -29 10 -52 0 -44
13 -64 27 -42 15 24 18 1249 3 1313 -11 46 -4 107 16 147 20 38 18 206 -1 232
-19 26 -19 69 1 107 12 24 14 57 11 172 -3 78 -8 158 -12 178 -4 23 -3 39 4
43 19 12 13 111 -7 129 -22 20 -51 22 -57 5z"/>
<path d="M830 14899 c-60 -47 -72 -60 -80 -88 -9 -33 -5 -41 22 -41 24 0 23
-21 -2 -43 -11 -9 -20 -26 -20 -37 0 -11 -5 -20 -10 -20 -7 0 -10 -25 -8 -67
3 -78 7 -80 108 -75 59 4 62 6 125 66 41 39 65 70 65 84 0 12 5 22 10 22 6 0
10 27 10 60 0 33 -4 60 -10 60 -5 0 -10 8 -10 18 0 10 -15 32 -33 50 -29 28
-39 32 -87 32 -39 -1 -62 -6 -80 -21z"/>
<path d="M10111 14616 c-10 -12 -10 -330 -1 -796 1 -30 -2 -77 -5 -103 -5 -37
-3 -59 10 -87 15 -33 17 -57 11 -152 -3 -62 -6 -117 -5 -123 0 -5 2 -106 5
-224 4 -226 10 -255 43 -214 17 21 19 53 18 481 0 317 4 464 11 479 8 14 11
133 11 371 1 304 -2 353 -15 367 -19 19 -68 20 -83 1z"/>
<path d="M9995 14500 c-4 -6 -6 -48 -4 -93 3 -117 -11 -256 -29 -297 -14 -30
-17 -98 -20 -445 -3 -308 0 -419 9 -448 9 -29 10 -40 1 -49 -17 -17 -15 -109
4 -154 12 -28 15 -67 14 -153 -1 -64 -2 -268 -1 -453 1 -331 1 -338 21 -338
19 0 20 7 20 193 0 105 3 347 6 537 3 190 6 451 8 580 1 140 6 243 12 255 7
13 11 164 10 438 -1 360 -3 419 -16 427 -19 12 -27 12 -35 0z"/>
<path d="M10623 14068 c-4 -7 -10 -141 -11 -299 -3 -251 -2 -287 12 -298 13
-11 19 -11 31 -1 13 11 15 55 15 286 0 153 -4 284 -10 298 -10 28 -24 33 -37
14z"/>
<path d="M554 13968 c-7 -6 -26 -24 -43 -40 -17 -16 -31 -36 -31 -44 0 -19
-116 -134 -135 -134 -8 0 -15 -7 -15 -15 0 -8 -4 -15 -8 -15 -10 0 -49 -29
-70 -52 -9 -10 -20 -18 -25 -18 -17 0 -44 -36 -50 -67 -4 -18 -3 -33 1 -33 24
0 88 24 95 36 4 8 13 14 18 14 6 0 16 6 23 13 8 6 24 19 36 27 13 8 50 42 83
75 33 33 58 56 55 50 -2 -5 -9 -21 -15 -35 -37 -79 -53 -121 -53 -134 0 -9 -4
-16 -9 -16 -4 0 -11 -27 -15 -60 -4 -33 -12 -60 -17 -60 -6 0 -9 -10 -7 -22 3
-20 8 -23 38 -20 19 1 37 7 38 12 2 6 8 10 14 10 15 0 58 43 58 58 0 6 4 12 9
12 4 0 11 28 15 63 3 34 11 64 16 65 6 2 10 11 10 20 1 10 9 35 20 57 11 22
19 52 20 67 0 15 5 30 10 33 6 3 10 42 10 86 l0 79 -32 0 c-18 -1 -38 -6 -44
-12z"/>
<path d="M9800 13971 c-12 -9 -15 -66 -15 -383 -1 -205 2 -383 7 -396 4 -13 8
-268 8 -566 0 -570 2 -589 44 -573 14 6 16 49 16 476 0 312 4 486 11 518 8 35
9 63 1 98 -8 38 -7 55 3 75 11 21 12 80 8 291 -3 145 -6 309 -6 364 l-2 100
-30 3 c-16 1 -37 -2 -45 -7z"/>
<path d="M9645 13647 c-17 -13 -18 -41 -22 -429 -3 -288 -1 -418 6 -423 7 -4
11 -97 11 -278 0 -289 5 -321 40 -278 18 21 20 39 20 185 1 121 4 167 15 186
19 33 19 71 0 96 -18 24 -19 57 -2 92 22 48 9 820 -15 850 -13 16 -30 15 -53
-1z"/>
<path d="M9507 13340 c-22 -18 -26 -29 -31 -107 -10 -143 -15 -303 -20 -573
-3 -214 -2 -263 12 -302 13 -40 14 -53 3 -86 -8 -25 -11 -55 -6 -78 4 -22 9
-77 11 -124 6 -113 10 -130 34 -130 12 0 21 8 24 23 7 30 17 190 17 260 0 31
0 72 0 90 6 427 8 990 3 1015 -6 37 -12 39 -47 12z"/>
<path d="M9339 13160 c-10 -7 -16 -42 -21 -137 -4 -70 -11 -177 -16 -238 -15
-179 -10 -603 8 -642 12 -28 12 -38 1 -65 -22 -53 -24 -93 -7 -126 9 -17 16
-50 16 -74 0 -63 12 -74 35 -35 18 28 21 60 28 277 10 321 17 979 11 1007 -5
28 -35 45 -55 33z"/>
<path d="M350 13053 c-8 -3 -17 -9 -20 -12 -11 -13 -70 -51 -79 -51 -5 0 -11
-3 -13 -7 -5 -12 -66 -53 -78 -53 -5 0 -10 -3 -10 -7 0 -5 -17 -19 -37 -33
-65 -44 -110 -100 -97 -121 7 -12 74 -11 74 1 0 6 5 10 10 10 6 0 39 23 74 50
35 28 66 50 70 50 3 0 6 -67 6 -149 0 -115 -3 -153 -14 -164 -14 -14 -19 -36
-17 -69 1 -13 9 -18 30 -18 33 0 104 62 116 102 4 12 13 26 19 30 10 7 27 412
18 438 -4 11 -28 12 -52 3z"/>
<path d="M633 13023 c-18 -2 -33 -8 -33 -14 0 -5 -6 -9 -13 -9 -8 0 -24 -9
-37 -20 -13 -11 -27 -20 -32 -20 -4 0 -8 -7 -8 -15 0 -8 -6 -15 -14 -15 -8 0
-15 -14 -18 -35 -3 -27 0 -36 14 -41 10 -3 25 2 34 11 24 24 50 15 45 -15 -1
-14 -6 -27 -11 -30 -4 -3 -10 -15 -14 -27 -4 -13 -11 -23 -16 -23 -10 0 -50
-76 -50 -95 0 -8 -4 -15 -10 -15 -5 0 -10 -13 -10 -29 0 -16 -7 -34 -15 -41
-17 -14 -21 -85 -5 -95 14 -9 194 23 198 35 5 13 62 13 62 0 0 -5 16 -10 35
-10 35 0 83 23 98 47 4 7 12 13 18 13 5 0 28 19 49 43 l40 42 0 123 0 122 -57
0 c-35 0 -62 -5 -72 -15 -131 -120 -175 -181 -169 -232 3 -25 0 -28 -29 -31
-36 -4 -43 10 -18 34 8 9 15 24 15 34 0 10 5 22 10 25 6 3 10 16 10 28 0 13 8
30 18 39 27 25 52 61 52 75 0 7 5 13 10 13 6 0 10 30 10 69 0 69 -8 84 -43 79
-7 0 -27 -3 -44 -5z"/>
<path d="M9161 12792 c-20 -37 -35 -829 -19 -944 9 -59 9 -100 -1 -171 -13
-103 -10 -119 23 -135 18 -8 29 -7 46 5 19 13 21 21 15 62 -3 25 -8 126 -11
225 -5 153 -3 185 11 223 15 40 17 80 11 380 -5 294 -8 339 -22 355 -22 23
-41 23 -53 0z"/>
<path d="M8851 12700 c-5 -16 -14 -30 -20 -30 -12 0 -2 -327 11 -352 10 -21
41 -24 56 -5 14 17 15 354 1 390 -15 35 -34 34 -48 -3z"/>
<path d="M9030 12327 c0 -13 -11 -33 -24 -44 -23 -20 -23 -24 -31 -271 -5
-169 -4 -256 3 -269 7 -12 13 -133 15 -307 4 -242 7 -290 20 -303 32 -32 37
-6 37 185 0 146 3 193 15 216 19 36 19 94 1 137 -12 29 -12 39 0 68 11 26 14
93 14 297 0 146 -4 274 -10 288 -12 33 -40 34 -40 3z"/>
<path d="M8833 12163 c-16 -25 -18 -61 -17 -437 1 -226 2 -426 2 -443 1 -18 1
-61 1 -95 0 -35 4 -137 8 -228 7 -149 10 -168 31 -197 13 -18 22 -43 21 -55
-4 -40 2 -124 8 -108 2 8 9 25 15 37 8 17 8 33 0 61 -18 59 -15 394 3 418 20
26 19 114 -1 142 -14 21 -14 25 1 49 15 23 17 64 13 427 -3 364 -5 404 -21
429 -22 34 -42 34 -64 0z"/>
<path d="M575 12170 c-3 -5 -14 -10 -24 -10 -10 0 -31 -16 -47 -35 -16 -19
-33 -35 -37 -35 -5 0 -21 -12 -36 -28 -15 -15 -48 -43 -74 -62 -25 -19 -47
-41 -47 -47 0 -7 -11 -13 -25 -13 -14 0 -25 -4 -25 -10 0 -5 -17 -10 -38 -10
-31 0 -46 -7 -80 -42 -23 -22 -42 -45 -42 -49 0 -5 -16 -23 -35 -40 -25 -23
-35 -41 -35 -62 0 -28 1 -29 36 -24 23 4 47 17 64 37 15 16 32 30 38 30 7 0
12 5 12 10 0 6 9 10 19 10 11 0 26 7 35 15 8 8 19 15 25 15 6 0 15 9 21 20 6
11 16 20 22 20 14 0 2 -111 -14 -121 -6 -4 -7 -12 -4 -18 5 -8 14 -7 29 4 12
8 29 15 39 15 10 0 18 3 18 8 0 4 14 16 30 27 16 11 30 25 30 30 0 15 37 45
55 45 8 0 23 10 35 22 17 18 20 19 20 5 0 -9 -4 -17 -9 -17 -5 0 -12 -27 -16
-60 -4 -33 -11 -62 -16 -65 -18 -12 4 -35 34 -35 33 0 89 49 101 88 4 12 11
22 15 22 5 0 11 23 14 51 4 28 11 57 17 64 6 7 13 50 16 96 2 46 7 99 9 117 3
29 2 31 -15 22 -10 -5 -28 -10 -39 -10 -12 0 -21 -4 -21 -9 0 -5 -7 -12 -16
-15 -13 -5 -15 -2 -11 13 6 23 -17 49 -28 31z"/>
<path d="M8665 11730 c-12 -24 -15 -77 -15 -306 0 -185 4 -288 12 -310 9 -25
8 -40 -3 -70 -14 -36 -15 -53 -11 -111 2 -24 32 -38 62 -28 19 6 20 15 20 199
0 135 4 196 12 204 9 9 11 68 9 214 -2 169 -5 206 -18 220 -24 27 -51 22 -68
-12z"/>
<path d="M6335 11561 c-4 -17 -10 -31 -15 -31 -5 0 -11 -15 -15 -32 -9 -44
-31 -92 -50 -108 -8 -7 -15 -19 -15 -26 0 -8 -4 -14 -9 -14 -5 0 -12 -11 -15
-25 -4 -14 -11 -25 -16 -25 -6 0 -10 -8 -10 -18 0 -10 -6 -26 -14 -37 -20 -30
-25 -63 -27 -173 -2 -86 1 -105 16 -122 19 -21 75 -28 75 -10 0 6 7 10 15 10
10 0 15 10 15 29 0 49 9 62 31 48 15 -9 23 -9 39 1 37 23 49 15 56 -38 4 -27
10 -50 14 -50 4 0 11 -16 14 -35 6 -32 10 -35 41 -35 18 0 40 -7 49 -15 11
-12 42 -15 140 -15 77 0 126 4 126 10 0 6 7 10 15 10 11 0 15 12 15 45 l0 45
-135 0 c-121 0 -135 2 -144 19 -17 31 -24 97 -13 118 14 25 2 68 -18 68 -28 0
-43 58 -52 195 -4 74 -12 158 -16 185 l-7 50 -42 3 c-39 3 -42 1 -48 -27z"/>
<path d="M7150 11450 c0 -5 -6 -10 -14 -10 -8 0 -18 -14 -21 -32 -7 -30 -16
-51 -37 -88 -4 -8 -14 -26 -20 -40 -7 -14 -25 -38 -40 -55 -16 -16 -28 -35
-28 -41 0 -7 -7 -14 -15 -18 -8 -3 -15 -15 -15 -26 0 -11 -4 -20 -10 -20 -5 0
-10 -8 -10 -18 0 -10 -7 -28 -16 -40 -22 -32 -15 -84 15 -99 36 -17 75 8 90
58 14 46 29 52 23 9 -2 -16 -1 -41 2 -55 6 -22 12 -25 50 -25 51 0 61 15 71
105 3 32 11 63 18 67 7 4 32 7 57 6 l45 -3 3 -68 c2 -57 0 -68 -15 -74 -10 -4
-24 -12 -31 -19 -7 -8 -26 -11 -47 -7 l-35 6 0 -45 c0 -57 21 -78 78 -78 23 0
42 5 42 10 0 6 6 10 14 10 7 0 28 13 47 29 25 22 37 27 46 19 7 -6 13 -16 13
-23 0 -20 61 -85 81 -85 10 0 21 -4 24 -10 3 -5 30 -10 60 -10 30 0 57 5 60
10 3 6 14 10 23 10 20 0 62 42 62 62 0 8 6 20 13 26 8 9 12 45 12 105 0 72 -4
98 -18 119 -22 32 -74 58 -115 58 -17 0 -32 6 -36 15 -3 9 -19 15 -41 15 -30
0 -44 -8 -80 -47 -44 -46 -45 -47 -45 -20 0 15 -4 27 -10 27 -5 0 -10 7 -10
15 0 9 -12 20 -27 26 l-28 11 35 12 c92 32 100 38 100 78 0 35 -3 38 -27 39
-48 2 -78 -3 -84 -13 -4 -6 -27 -13 -53 -15 -25 -3 -46 -10 -46 -14 0 -5 -10
-9 -22 -9 -17 0 -19 3 -10 12 20 20 15 122 -6 141 -20 18 -72 23 -72 7z"/>
<path d="M8355 11440 c-4 -6 -2 -17 5 -25 7 -9 10 -54 9 -132 -2 -93 -6 -123
-20 -143 -15 -21 -18 -54 -21 -225 -2 -150 0 -208 10 -232 14 -31 12 -184 -4
-324 -8 -74 9 -90 61 -57 35 22 36 25 30 68 -7 54 -7 75 1 162 4 50 2 72 -10
90 -13 21 -13 27 2 60 16 33 17 73 15 379 -3 286 -6 347 -18 366 -16 24 -49
31 -60 13z"/>
<path d="M8518 11438 c-18 -14 -32 -137 -28 -248 11 -388 21 -584 29 -594 6
-6 11 -34 13 -61 2 -36 7 -50 18 -50 12 0 16 18 18 94 2 62 8 101 17 115 19
26 19 105 0 130 -19 26 -19 74 1 121 14 34 14 41 0 76 -20 50 -20 93 -1 109
12 10 15 40 15 150 0 76 -3 145 -6 154 -7 19 -54 21 -76 4z"/>
<path d="M8179 11133 c-11 -13 -14 -90 -13 -417 1 -221 2 -414 3 -431 0 -16
-2 -63 -5 -103 -3 -44 -1 -85 5 -100 6 -15 13 -115 16 -222 6 -191 11 -216 40
-207 6 2 11 35 13 73 2 38 7 73 13 79 6 6 26 -7 54 -35 35 -34 45 -51 45 -76
0 -32 17 -48 37 -36 13 9 37 108 28 122 -3 5 -8 66 -10 135 -3 73 -11 147 -20
178 -11 36 -14 69 -9 106 5 43 4 53 -7 49 -11 -4 -14 -40 -16 -174 -2 -188
-10 -254 -28 -254 -7 0 -29 18 -50 41 l-37 41 5 92 c3 50 10 116 15 147 6 31
11 257 11 502 2 388 0 450 -14 477 -18 34 -54 41 -76 13z"/>
<path d="M6630 11088 c0 -37 4 -45 27 -55 32 -15 136 -17 161 -4 9 6 34 13 55
16 31 5 37 10 37 30 0 54 -2 55 -146 55 l-134 0 0 -42z"/>
<path d="M370 11091 c0 -6 -9 -11 -20 -11 -11 0 -20 -7 -20 -15 0 -8 -4 -15
-10 -15 -5 0 -10 -7 -10 -15 0 -9 -7 -18 -15 -21 -8 -4 -15 -11 -15 -16 0 -5
-16 -24 -36 -41 -20 -18 -49 -44 -64 -59 -40 -39 -158 -128 -170 -128 -6 0
-10 -24 -10 -55 0 -30 5 -55 10 -55 6 0 10 5 10 10 0 6 9 10 20 10 11 0 20 7
20 15 0 8 5 15 11 15 7 0 27 16 46 35 19 19 38 35 44 35 5 0 17 6 25 13 48 40
81 74 87 90 3 9 11 17 17 17 13 0 13 -86 -1 -189 -12 -87 -7 -123 13 -103 7 7
25 12 40 12 16 0 36 9 45 20 10 11 22 20 29 20 10 0 14 57 27 395 2 39 1 40
-35 43 -22 2 -38 -1 -38 -7z"/>
<path d="M8055 11018 c-10 -33 -17 -87 -16 -130 1 -28 -6 -61 -16 -80 -15 -30
-17 -82 -20 -547 -2 -356 1 -520 8 -534 14 -26 14 -124 0 -160 -16 -40 -14
-94 5 -122 10 -15 14 -34 10 -52 -12 -52 43 -85 56 -35 3 9 3 142 1 295 -4
238 -2 285 12 327 15 44 16 102 10 537 -4 324 -10 491 -17 500 -13 16 -27 17
-33 1z"/>
<path d="M560 11013 c-21 -9 -80 -68 -80 -81 0 -6 -4 -12 -10 -14 -5 -1 -13
-24 -16 -50 l-7 -47 39 5 c34 3 37 2 22 -10 -10 -7 -18 -18 -18 -23 0 -6 -7
-16 -15 -23 -11 -9 -15 -27 -13 -59 l3 -46 83 -3 c80 -3 83 -2 115 28 36 34
57 38 57 13 0 -35 17 -47 60 -45 45 3 48 5 114 68 51 49 62 90 51 191 -5 52
-11 66 -26 70 -10 3 -19 9 -19 14 0 5 -16 9 -35 9 -19 0 -35 -4 -35 -10 0 -5
-11 -12 -25 -16 -14 -3 -25 -10 -25 -15 0 -5 -4 -9 -10 -9 -5 0 -10 7 -10 15
0 8 -9 15 -19 15 -11 0 -21 5 -23 12 -5 13 -132 22 -158 11z"/>
<path d="M7618 10759 c-10 -5 -18 -15 -18 -21 0 -17 33 -88 41 -88 4 0 10 -12
14 -27 3 -14 22 -42 41 -61 28 -28 32 -37 22 -49 -15 -18 -21 -188 -9 -223 5
-14 12 -60 14 -102 5 -68 3 -81 -16 -104 -20 -26 -21 -40 -23 -273 -2 -135 -6
-261 -9 -278 -3 -19 0 -42 7 -55 10 -17 14 -108 18 -343 l5 -320 25 0 c21 0
24 5 26 40 2 22 -5 57 -13 78 -15 35 -15 40 0 67 14 24 17 59 17 229 0 166 3
206 16 225 13 21 14 71 10 408 -3 210 -5 390 -5 398 2 141 7 173 28 189 l22
17 -30 58 c-17 32 -31 67 -31 77 0 10 -4 19 -9 19 -5 0 -12 16 -15 35 -4 19
-11 35 -16 35 -6 0 -10 6 -10 14 0 20 -47 66 -67 66 -10 0 -26 -5 -35 -11z"/>
<path d="M11900 10581 c0 -5 -15 -19 -32 -31 -18 -12 -51 -46 -73 -76 -22 -29
-49 -58 -61 -64 -24 -13 -59 -84 -49 -100 9 -14 43 -13 61 3 23 18 113 107
162 158 23 25 42 52 42 61 0 9 5 18 12 20 6 2 9 12 5 21 -7 18 -67 25 -67 8z"/>
<path d="M7851 10386 c-8 -9 -11 -42 -10 -83 1 -37 2 -104 1 -148 -2 -166 7
-665 15 -792 8 -135 19 -171 46 -145 12 13 17 149 30 802 2 118 8 241 12 272
7 53 5 59 -18 82 -29 29 -58 33 -76 12z"/>
<path d="M7203 10353 c-13 -26 -8 -116 7 -152 9 -23 10 -47 4 -84 -9 -60 -14
-295 -20 -967 -4 -386 -2 -483 9 -515 12 -34 12 -46 -1 -84 -13 -40 -13 -48 2
-91 15 -42 15 -49 1 -83 -8 -20 -15 -53 -15 -72 0 -32 -3 -36 -22 -33 -34 5
-47 93 -32 217 4 35 2 61 -6 77 -10 18 -10 29 0 54 18 45 6 1440 -12 1452 -19
12 -31 4 -39 -24 -3 -13 -14 -36 -23 -50 -16 -24 -17 -83 -16 -700 1 -370 4
-729 7 -796 4 -115 3 -123 -14 -120 -10 2 -24 22 -35 50 -17 47 -20 141 -27
1035 -1 72 -4 85 -26 111 -14 17 -25 37 -25 45 0 21 -19 32 -33 18 -13 -13
-19 -1386 -6 -1411 4 -8 8 -148 10 -310 1 -162 6 -303 11 -312 5 -10 18 -18
28 -18 24 0 23 -9 24 227 1 139 4 195 14 204 17 18 15 94 -4 131 -14 28 -14
34 0 72 9 23 16 54 16 68 0 15 4 30 10 33 10 6 51 -12 62 -28 3 -6 6 -108 5
-229 -1 -223 3 -248 37 -235 18 7 22 69 17 248 -5 158 16 183 82 101 31 -39
36 -52 31 -77 -9 -39 -6 -97 7 -110 14 -14 43 8 47 36 6 39 19 43 36 11 16
-30 41 -46 57 -36 19 12 7 36 -52 101 -62 68 -95 112 -88 116 2 1 13 7 24 13
19 11 20 23 23 395 2 308 5 390 16 414 8 17 13 44 11 60 -3 17 -7 284 -10 595
-5 532 -7 566 -24 585 -10 11 -22 35 -26 53 -7 35 -29 43 -42 15z"/>
<path d="M7381 10181 c-16 -16 -18 -42 -21 -307 -8 -647 -6 -817 10 -851 12
-28 12 -38 1 -65 -23 -56 -25 -118 -5 -156 16 -29 16 -37 5 -65 -21 -52 -24
-84 -10 -119 8 -21 15 -97 19 -203 5 -156 7 -170 24 -173 10 -2 23 2 27 10 5
7 9 90 8 185 0 113 3 179 11 193 9 17 9 33 1 65 -14 56 -14 108 0 122 7 7 9
30 4 65 -3 29 -6 134 -5 233 2 481 -1 946 -7 1000 -8 84 -25 103 -62 66z"/>
<path d="M7546 10178 c-13 -64 -21 -545 -16 -933 1 -49 1 -115 1 -145 0 -30 2
-131 5 -223 4 -135 8 -169 20 -174 8 -3 21 0 29 7 12 10 15 42 15 164 0 118 3
156 15 172 19 25 19 68 -1 111 -16 32 -16 37 0 69 20 43 20 93 1 118 -19 26
-19 79 1 117 13 26 14 51 7 162 -5 73 -8 222 -7 332 2 213 -4 245 -46 245 -12
0 -21 -8 -24 -22z"/>
<path d="M4750 10125 c0 -9 -7 -18 -15 -21 -8 -3 -25 -27 -37 -52 -13 -26 -29
-53 -35 -60 -7 -7 -13 -22 -13 -33 0 -10 -4 -19 -10 -19 -5 0 -10 -6 -10 -13
0 -8 -9 -24 -20 -37 -11 -13 -20 -29 -20 -37 0 -7 -4 -13 -9 -13 -5 0 -12 -12
-15 -26 -4 -15 -14 -33 -21 -41 -8 -8 -15 -25 -15 -38 0 -13 -4 -27 -10 -30
-16 -10 -12 -109 7 -146 20 -41 30 -49 63 -49 36 0 60 32 60 83 0 50 15 80 29
58 6 -10 24 -12 64 -9 56 5 56 4 63 -26 8 -37 19 -46 61 -46 41 0 66 25 61 62
-6 38 17 58 26 23 4 -16 13 -25 26 -25 10 0 22 -4 25 -10 8 -13 295 -13 295 0
0 5 11 12 25 16 14 3 25 10 25 15 0 5 6 9 14 9 8 0 35 23 60 51 26 29 49 49
53 46 3 -4 1 -13 -6 -21 -8 -9 -11 -41 -9 -88 l3 -73 38 -3 c49 -4 73 16 81
69 4 24 11 37 17 34 5 -4 37 -9 70 -11 35 -2 66 -10 75 -18 8 -9 22 -12 32 -9
15 6 15 4 4 -10 -21 -25 -11 -60 22 -75 29 -15 136 -8 136 8 0 4 12 11 27 15
15 3 32 14 39 23 12 15 17 13 53 -23 22 -22 40 -46 41 -52 0 -7 4 -13 9 -13 5
0 12 -11 15 -24 6 -26 42 -38 89 -29 22 4 27 11 27 34 0 16 -4 29 -10 29 -5 0
-10 5 -10 11 0 7 -28 40 -62 74 -93 92 -122 126 -123 144 -1 9 -2 23 -3 31 -1
8 -19 34 -40 58 -32 35 -43 42 -75 42 -58 0 -34 18 34 26 32 4 62 11 65 15 3
5 13 9 23 9 44 0 68 75 34 108 -21 21 -96 20 -138 -2 -16 -9 -42 -16 -57 -16
-16 0 -28 -4 -28 -10 0 -5 -16 -12 -36 -16 -19 -4 -38 -13 -41 -22 -5 -12 -8
-12 -20 4 -10 13 -27 19 -61 19 l-47 1 -3 38 c-2 25 2 44 14 57 16 18 16 19
-11 19 -23 0 -26 -2 -15 -15 11 -13 7 -15 -26 -15 -46 -1 -70 -17 -79 -53 -4
-15 -11 -27 -15 -27 -4 0 -13 -12 -19 -27 -10 -26 -22 -47 -46 -81 -22 -31
-119 -132 -127 -132 -4 0 -8 9 -8 21 0 37 -39 58 -104 59 -32 0 -75 -4 -95
-10 -20 -5 -48 -12 -63 -15 -23 -4 -28 -11 -28 -35 0 -22 7 -33 28 -44 l27
-15 -48 -1 c-33 0 -49 -5 -53 -15 -9 -23 -24 -7 -24 26 0 24 -4 29 -23 29 -38
0 -56 45 -67 171 -5 62 -7 122 -4 135 3 12 1 25 -5 28 -6 4 -11 16 -11 27 0
16 -7 19 -45 19 -34 0 -45 -4 -45 -15z m1020 -294 l0 -39 49 -7 c28 -4 58 -4
69 -1 23 8 54 -24 58 -60 4 -33 -28 -64 -66 -64 -33 0 -38 11 -14 30 8 8 14
25 12 39 -3 23 -9 27 -53 33 -27 4 -63 9 -78 12 -16 2 -42 0 -59 -6 -21 -8
-33 -7 -41 1 -9 9 -6 13 11 17 12 4 22 10 22 14 0 4 10 10 23 14 13 3 29 17
37 31 19 36 30 31 30 -14z"/>
<path d="M11525 10120 c-3 -5 -21 -10 -39 -10 -28 0 -49 -17 -162 -129 -207
-207 -219 -222 -215 -268 1 -15 41 -18 41 -3 0 6 8 10 18 10 17 0 52 32 52 49
0 5 11 16 25 25 28 19 125 111 125 119 0 9 46 57 54 57 6 0 53 40 92 78 8 7
14 24 14 38 0 13 5 24 10 24 6 0 10 5 10 10 0 6 -4 10 -9 10 -6 0 -13 -4 -16
-10z"/>
<path d="M8517 10053 c-3 -10 -4 -105 -3 -211 1 -162 4 -195 18 -208 9 -9 20
-14 26 -11 5 4 8 72 6 164 -2 87 -4 186 -4 221 0 54 -2 62 -19 62 -11 0 -22
-8 -24 -17z"/>
<path d="M430 9861 c0 -5 -16 -12 -35 -15 -19 -4 -35 -11 -35 -15 0 -5 -11
-12 -25 -15 -14 -4 -25 -13 -25 -21 0 -8 -6 -15 -14 -15 -8 0 -16 -7 -20 -15
-3 -8 -11 -15 -18 -15 -22 0 -38 -52 -38 -124 1 -91 19 -119 77 -119 36 0 40
-2 35 -21 -10 -38 -34 -66 -58 -66 -12 0 -26 -4 -29 -10 -3 -5 -17 -10 -30
-10 -15 0 -40 -15 -61 -35 -19 -19 -39 -35 -42 -35 -10 -1 -40 -68 -34 -75 9
-9 72 -5 72 5 0 5 16 12 35 16 19 3 38 10 41 15 3 5 15 9 26 9 23 0 23 0 116
92 92 93 92 93 92 116 0 11 5 24 10 27 6 3 10 -3 10 -15 0 -11 7 -23 15 -26
11 -5 15 -23 15 -73 1 -79 18 -106 78 -119 65 -15 114 -1 161 47 22 23 41 48
41 56 0 8 4 15 9 15 6 0 13 20 17 45 3 25 10 45 15 45 12 0 12 96 0 118 -6 9
-12 28 -15 42 -8 38 -59 64 -113 56 -24 -3 -50 -11 -57 -18 -8 -7 -24 -20 -36
-28 -43 -28 -98 -85 -104 -107 -4 -13 -12 -23 -17 -23 -18 0 3 73 32 118 16
24 29 47 29 52 0 4 4 10 10 12 5 2 14 24 18 50 l9 46 -36 -5 c-23 -4 -50 -19
-75 -42 -25 -23 -35 -29 -28 -15 6 11 18 26 26 34 9 7 16 19 16 26 0 8 5 14
10 14 6 0 10 7 10 15 0 11 -11 15 -40 15 -22 0 -40 -4 -40 -9z"/>
<path d="M6760 9659 c0 -21 -40 -98 -56 -107 -13 -7 -14 -15 -5 -48 6 -21 11
-82 11 -134 1 -68 5 -101 15 -114 20 -27 22 -326 2 -326 -16 0 -166 154 -202
208 -20 30 -34 42 -52 42 -22 0 -24 -3 -21 -46 3 -44 5 -47 53 -74 28 -15 65
-47 84 -71 18 -24 45 -51 60 -60 55 -35 78 -71 85 -134 5 -46 3 -65 -9 -82
-13 -19 -15 -90 -11 -580 2 -307 4 -568 4 -580 1 -13 1 -51 2 -85 0 -35 3
-154 6 -265 5 -210 11 -238 47 -210 14 10 16 52 21 312 3 165 8 323 12 350 6
44 10 612 4 740 -1 28 -2 308 -1 624 0 495 -2 579 -16 612 -14 36 -33 52 -33
28z"/>
<path d="M10812 9527 c-7 -7 -23 -23 -35 -36 -19 -20 -76 -76 -196 -191 -20
-19 -54 -58 -76 -85 -22 -28 -43 -51 -47 -53 -5 -2 -8 -9 -8 -17 0 -7 -7 -18
-15 -25 -8 -7 -15 -28 -15 -46 0 -30 3 -34 25 -34 14 0 25 5 25 10 0 6 5 10
11 10 15 0 73 59 82 83 3 9 11 17 17 17 5 0 10 6 10 14 0 7 16 30 35 50 19 21
35 42 35 47 0 5 7 9 15 9 8 0 15 5 15 10 0 6 7 10 15 10 7 0 18 6 22 14 4 8
43 51 86 96 88 94 101 130 45 130 -18 -1 -39 -6 -46 -13z"/>
<path d="M8570 9525 c0 -3 18 -30 40 -59 22 -29 40 -57 40 -62 0 -5 14 -20 31
-34 18 -14 49 -41 69 -60 21 -19 48 -42 60 -50 29 -19 60 -51 60 -62 0 -14 71
-9 86 6 27 27 20 46 -41 106 -51 51 -61 60 -69 60 -4 0 -17 11 -30 25 -13 14
-28 25 -34 25 -18 0 -25 20 -12 35 7 9 8 15 0 20 -5 3 -10 -1 -10 -10 0 -12
-6 -15 -22 -9 -13 3 -27 13 -31 20 -4 8 -16 14 -25 14 -10 0 -35 9 -57 20 -40
20 -55 24 -55 15z"/>
<path d="M8980 9090 c0 -21 12 -42 43 -75 24 -25 47 -45 51 -45 4 0 38 -31 75
-70 38 -38 73 -70 78 -70 5 0 16 -9 26 -21 14 -15 27 -19 60 -17 41 3 42 4 45
40 3 31 -2 43 -24 63 -15 14 -31 25 -35 25 -5 0 -28 20 -52 44 -24 24 -57 52
-73 62 -39 25 -52 36 -72 57 -9 9 -24 17 -34 17 -9 0 -20 5 -23 10 -3 6 -19
10 -36 10 -26 0 -29 -3 -29 -30z"/>
<path d="M550 8955 c-7 -8 -16 -15 -21 -15 -24 0 -49 -37 -49 -72 0 -21 -4
-38 -9 -38 -5 0 -11 -9 -14 -20 -3 -11 -13 -20 -22 -20 -9 0 -22 -6 -29 -12
-7 -7 -27 -25 -45 -41 -41 -36 -44 -99 -7 -134 13 -13 29 -23 35 -23 16 0 13
-14 -9 -43 -11 -14 -20 -34 -20 -45 0 -12 -4 -24 -10 -27 -13 -8 -13 -102 0
-110 6 -3 10 -17 10 -30 0 -13 6 -27 12 -32 18 -10 162 -5 166 7 2 6 12 10 21
10 10 0 44 28 76 62 54 57 59 67 63 115 4 44 0 59 -19 88 -13 20 -34 38 -46
41 -13 4 -23 10 -23 15 0 5 -7 9 -15 9 -19 0 -20 16 -2 23 8 3 22 21 31 41 9
20 21 36 26 36 6 0 10 6 10 13 0 8 9 24 20 37 11 13 20 29 20 37 0 7 5 13 10
13 6 0 10 28 10 65 l0 65 -79 0 c-58 0 -82 -4 -91 -15z"/>
<path d="M10174 8852 c-120 -119 -173 -180 -180 -206 -3 -14 -10 -26 -15 -26
-5 0 -9 -5 -9 -12 0 -6 -9 -21 -19 -32 -11 -12 -21 -39 -23 -61 -3 -35 0 -40
20 -43 12 -2 22 1 22 7 0 6 7 11 17 11 19 0 73 57 73 77 0 7 5 13 10 13 6 0
10 8 10 18 0 10 9 25 20 35 11 9 20 24 20 32 0 8 4 15 9 15 5 0 12 9 16 19 3
11 37 50 74 88 38 37 70 75 71 83 11 74 -30 68 -116 -18z"/>
<path d="M9339 8730 c-14 -8 -15 -18 -8 -57 5 -26 13 -49 18 -53 5 -3 13 -18
16 -33 4 -15 11 -27 16 -27 5 0 9 -6 9 -13 0 -8 9 -24 20 -37 11 -13 20 -29
20 -37 0 -7 5 -13 10 -13 6 0 10 -9 10 -19 0 -11 7 -26 15 -34 7 -8 17 -26 21
-41 3 -14 10 -26 15 -26 5 0 9 -7 9 -16 0 -12 10 -14 48 -12 47 3 47 3 50 41
2 25 -3 48 -15 65 -28 42 -43 73 -43 88 0 8 -7 17 -15 20 -8 4 -15 11 -15 18
0 6 -13 23 -28 36 -33 30 -72 91 -72 114 0 9 -6 16 -14 16 -8 0 -16 7 -20 15
-6 17 -23 19 -47 5z"/>
<path d="M4313 8674 c-13 -14 -23 -39 -23 -54 0 -16 -4 -31 -9 -35 -5 -3 -12
-19 -16 -35 -4 -17 -10 -30 -15 -30 -5 0 -11 -13 -15 -30 -4 -16 -11 -30 -16
-30 -5 0 -11 -11 -15 -24 -3 -14 -12 -27 -20 -30 -8 -3 -14 -14 -14 -24 0 -11
-7 -25 -15 -32 -8 -7 -15 -23 -15 -36 0 -13 -4 -24 -9 -24 -5 0 -12 -12 -15
-26 -4 -15 -12 -32 -19 -40 -29 -32 -37 -44 -37 -53 0 -5 -16 -26 -35 -45 -19
-20 -35 -43 -35 -50 0 -8 -5 -16 -11 -18 -15 -5 -14 -75 1 -93 17 -21 110 -21
110 0 0 8 4 15 9 15 5 0 12 14 16 30 4 17 11 30 15 30 5 0 21 20 35 44 14 24
31 46 38 48 7 2 42 2 78 0 l67 -4 4 -49 c7 -65 38 -101 86 -97 25 2 38 10 50
33 9 17 18 32 19 34 1 2 14 -4 27 -13 20 -12 51 -16 144 -16 113 0 121 1 146
25 14 13 26 31 26 40 0 29 -20 55 -43 55 -18 0 -19 2 -7 10 8 5 25 10 38 10
20 0 22 5 22 48 0 41 -3 49 -27 60 -35 16 -158 15 -207 -2 -44 -15 -56 -30
-56 -69 0 -22 7 -31 31 -41 l31 -13 -62 -7 c-50 -6 -63 -11 -67 -27 -6 -23
-19 -25 -27 -4 -8 21 4 47 19 41 7 -2 22 4 34 15 41 39 15 126 -36 117 -16 -3
-18 5 -21 72 -1 41 -6 84 -11 95 -5 11 -12 55 -16 99 -3 43 -14 95 -23 115
-14 30 -23 36 -52 39 -27 2 -40 -4 -57 -24z"/>
<path d="M855 8659 c-5 -5 -31 -29 -57 -53 -27 -24 -48 -51 -48 -59 0 -9 -5
-17 -12 -19 -7 -3 -9 -12 -5 -22 5 -12 14 -16 29 -12 13 3 17 3 11 0 -7 -3
-13 -9 -13 -14 0 -4 -16 -25 -35 -46 -33 -36 -35 -42 -35 -106 l0 -68 40 0
c22 0 40 4 40 9 0 5 14 11 31 15 16 3 36 11 44 18 33 30 45 38 55 38 5 0 10 7
10 15 0 8 7 15 15 15 8 0 15 7 15 15 0 8 4 15 9 15 5 0 12 12 16 27 3 15 12
31 18 35 8 5 12 41 12 105 l0 98 -65 2 c-36 2 -69 -2 -75 -8z"/>
<path d="M5108 8430 c-32 -32 -58 -63 -58 -69 0 -5 -6 -14 -12 -18 -17 -11
-58 -69 -58 -83 0 -5 -4 -10 -9 -10 -5 0 -12 -8 -15 -18 -4 -10 -20 -32 -36
-49 -37 -38 -47 -105 -17 -111 33 -7 67 8 79 33 6 14 17 25 25 25 7 0 13 7 13
15 0 8 7 15 15 15 12 0 15 -16 15 -83 0 -81 0 -83 30 -101 17 -9 38 -29 48
-44 9 -15 43 -52 75 -83 31 -31 57 -62 57 -68 0 -6 7 -11 15 -11 8 0 15 -4 15
-10 0 -17 62 -11 76 8 29 38 17 74 -46 131 -62 57 -74 77 -40 66 11 -4 20 -2
20 4 0 19 38 12 44 -7 4 -10 20 -29 37 -41 25 -18 43 -23 97 -22 37 0 68 5 70
11 2 5 10 10 18 10 8 0 18 8 21 18 4 9 10 20 15 23 4 3 9 57 11 120 2 101 0
117 -18 141 -23 32 -41 39 -104 43 -84 4 -111 -4 -128 -40 -13 -27 -21 -33
-49 -33 -24 0 -40 -8 -61 -30 -40 -44 -48 -55 -56 -75 -12 -31 -32 -13 -29 24
2 19 7 39 12 44 4 6 11 31 14 58 4 26 11 47 15 47 5 0 12 17 16 37 4 21 12 41
17 44 16 10 22 103 9 128 -9 16 -21 21 -49 20 -32 0 -45 -8 -94 -59z"/>
<path d="M6578 8368 c-22 -17 -27 -106 -34 -555 -4 -311 -3 -367 11 -399 19
-45 19 -83 0 -108 -19 -25 -19 -95 0 -120 19 -25 19 -85 0 -110 -21 -28 -18
-73 7 -114 l21 -35 24 27 23 27 0 405 c0 352 2 409 16 436 12 23 14 46 10 92
-4 34 -7 131 -8 216 0 165 -8 228 -30 241 -17 12 -21 11 -40 -3z"/>
<path d="M9727 8313 c-10 -3 -31 -17 -46 -31 -15 -15 -38 -34 -50 -42 -11 -8
-21 -18 -21 -23 0 -11 -74 -87 -85 -87 -12 0 -90 -85 -107 -119 -25 -46 -23
-51 22 -51 22 0 40 5 40 10 0 6 5 10 10 10 13 0 35 23 80 80 41 53 68 74 95
76 20 2 97 -29 119 -47 6 -5 22 -18 35 -29 24 -20 65 -26 95 -14 27 10 20 71
-10 99 -15 14 -33 25 -40 25 -8 0 -14 4 -14 9 0 5 -13 12 -30 16 -16 4 -30 11
-30 16 0 5 -11 9 -25 9 -30 0 -32 13 -4 41 35 35 15 65 -34 52z"/>
<path d="M6409 8134 c-10 -12 -15 -68 -18 -213 -5 -214 -5 -312 -2 -351 2 -14
0 -44 -4 -68 -6 -30 -3 -55 10 -88 16 -43 16 -48 0 -91 -14 -37 -16 -59 -10
-112 5 -36 8 -88 7 -116 -1 -27 3 -81 10 -118 10 -59 9 -72 -5 -103 -9 -19
-17 -53 -17 -74 0 -29 -4 -40 -15 -40 -19 0 -35 31 -35 69 0 16 -4 33 -10 36
-13 8 -13 88 1 102 10 10 13 533 5 886 -4 167 -10 197 -42 197 -26 0 -34 -41
-34 -180 0 -85 -4 -150 -11 -162 -7 -13 -11 -73 -10 -152 1 -157 1 -246 -1
-431 -1 -93 3 -154 12 -181 24 -73 -10 -123 -53 -76 -13 15 -16 73 -22 422 -5
334 -9 409 -21 428 -33 50 -67 -4 -60 -93 3 -33 1 -78 -4 -100 -6 -22 -12
-137 -15 -255 -3 -131 -9 -218 -16 -225 -7 -7 -16 -3 -30 14 -19 23 -20 39
-18 227 0 111 -3 208 -7 216 -5 7 -11 42 -14 78 -4 55 -8 65 -25 68 -13 2 -27
-9 -42 -30 -27 -41 -21 -90 13 -113 22 -14 24 -23 24 -86 0 -56 -4 -76 -20
-96 -16 -21 -20 -41 -20 -106 l0 -79 -32 7 c-18 5 -51 9 -73 9 l-40 1 -8 -55
c-15 -107 -23 -340 -19 -585 1 -27 0 -63 -3 -78 -2 -16 3 -47 11 -69 10 -30
14 -92 14 -228 0 -104 3 -195 6 -204 7 -17 39 -22 49 -7 3 5 6 100 6 211 0
158 4 209 16 238 13 32 15 71 8 272 -8 270 -8 251 -5 353 2 83 14 98 44 55 14
-19 16 -70 16 -350 0 -180 4 -329 9 -332 16 -10 19 -60 5 -88 -18 -35 -18
-127 1 -151 10 -14 12 -41 9 -105 -5 -89 3 -119 29 -109 13 5 18 28 33 172 7
62 13 253 17 555 4 212 7 275 17 278 35 12 40 -26 40 -286 0 -151 4 -261 10
-272 6 -11 11 -89 13 -175 2 -155 6 -174 40 -175 20 0 29 63 25 182 -3 92 -1
136 9 159 9 22 13 87 13 230 0 111 4 200 9 204 5 3 22 -5 37 -18 l27 -23 4
-175 c2 -96 6 -180 8 -186 6 -18 42 -16 49 3 3 9 6 76 6 150 0 149 7 164 56
125 35 -27 69 -27 88 1 13 19 16 61 16 259 0 207 2 241 17 267 15 27 16 36 4
74 -21 71 -24 113 -8 144 12 24 14 71 10 259 -2 127 -4 275 -5 330 -1 106 -13
145 -47 145 -10 0 -25 -7 -32 -16z"/>
<path d="M686 8091 c-4 -5 -24 -12 -47 -16 -46 -8 -78 -23 -103 -48 -9 -9 -24
-20 -32 -25 -13 -7 -38 -81 -30 -89 2 -2 15 1 30 7 15 5 38 10 52 10 13 0 24
5 24 10 0 6 8 10 18 10 15 0 16 -8 12 -72 l-5 -73 -42 -3 c-24 -2 -43 -7 -43
-13 0 -5 -7 -9 -16 -9 -9 0 -18 -9 -21 -20 -3 -11 -9 -20 -14 -20 -5 0 -9 -18
-9 -40 0 -32 4 -40 18 -40 10 0 23 5 29 11 6 6 18 9 27 7 14 -3 14 -6 1 -32
-8 -15 -15 -39 -15 -52 0 -20 5 -24 30 -24 17 0 30 5 30 10 0 6 5 10 11 10 15
0 79 62 79 76 0 6 13 14 30 17 43 9 110 80 110 117 0 23 -4 30 -20 30 -11 0
-20 -4 -20 -10 0 -5 -11 -10 -25 -10 -29 0 -32 12 -8 36 13 13 18 39 21 110 6
123 0 144 -38 144 -16 0 -31 -4 -34 -9z"/>
<path d="M10000 7931 c0 -35 19 -61 44 -61 8 0 50 -36 94 -80 44 -44 84 -80
90 -80 5 0 12 -7 16 -15 7 -20 80 -20 100 1 9 8 16 26 16 38 0 26 -31 66 -51
66 -14 1 -69 44 -69 54 0 12 -72 76 -84 76 -8 0 -16 5 -18 11 -2 6 -34 13 -71
16 l-67 6 0 -32z"/>
<path d="M7540 7761 c0 -30 5 -41 19 -46 10 -3 36 -26 57 -50 22 -25 60 -67
87 -94 26 -26 47 -53 47 -59 0 -14 60 -21 88 -11 17 7 22 16 22 43 0 35 -25
62 -72 79 -10 4 -18 13 -18 22 0 8 -4 15 -10 15 -5 0 -10 7 -10 15 0 8 -7 15
-15 15 -8 0 -15 5 -15 10 0 6 -9 19 -20 30 -11 11 -24 20 -30 20 -5 0 -10 5
-10 10 0 6 -7 10 -15 10 -9 0 -18 7 -21 15 -4 10 -20 15 -45 15 -39 0 -39 0
-39 -39z"/>
<path d="M9076 7667 c-60 -51 -120 -111 -163 -160 -17 -20 -36 -37 -41 -37 -5
0 -12 -7 -16 -15 -3 -8 -11 -15 -18 -15 -7 0 -24 -15 -38 -32 -14 -18 -33 -40
-42 -50 -10 -10 -18 -22 -18 -27 0 -5 -6 -11 -14 -14 -15 -6 -28 -55 -16 -62
13 -8 80 18 80 32 0 7 6 13 14 13 8 0 16 7 20 15 3 8 11 15 18 15 7 0 24 15
38 32 14 18 33 40 43 50 9 10 17 23 17 28 0 6 6 10 14 10 7 0 19 7 26 15 7 8
16 12 21 9 5 -3 9 2 9 10 0 9 7 16 15 16 8 0 15 7 15 15 0 8 5 15 10 15 6 0
10 7 10 15 0 9 7 18 15 21 8 4 15 12 15 20 0 8 6 14 14 14 8 0 16 7 20 15 3 8
12 15 21 15 8 0 15 7 15 15 0 8 5 15 10 15 6 0 10 11 10 25 0 41 -45 33 -104
-18z"/>
<path d="M10338 7622 c-13 -2 -18 -13 -18 -39 0 -28 8 -44 35 -69 18 -19 37
-34 41 -34 4 0 28 -21 55 -47 26 -27 55 -54 63 -60 18 -15 76 -17 76 -4 0 5 7
17 16 26 13 12 14 19 5 28 -6 6 -11 19 -11 29 0 10 -6 18 -13 18 -7 0 -24 12
-37 28 -14 15 -42 38 -62 52 -21 14 -38 28 -38 33 0 4 -6 7 -14 7 -8 0 -21 6
-28 13 -16 16 -47 24 -70 19z"/>
<path d="M5417 7583 c-13 -12 -7 -40 11 -55 9 -8 37 -22 62 -31 25 -9 79 -46
119 -82 41 -36 85 -68 99 -72 48 -12 55 38 8 67 -33 20 -123 107 -143 136 -8
13 -24 24 -34 24 -10 0 -21 5 -24 10 -7 11 -88 14 -98 3z"/>
<path d="M7926 7454 c-11 -28 -6 -65 9 -70 8 -4 15 -12 15 -20 0 -8 7 -14 15
-14 8 0 15 -4 15 -10 0 -5 7 -10 15 -10 9 0 18 -7 21 -15 4 -8 11 -15 18 -15
6 0 35 -23 64 -50 30 -28 58 -50 63 -50 5 0 9 -7 9 -15 0 -8 8 -15 18 -15 10
0 23 -5 29 -11 8 -8 18 -6 37 6 37 24 35 69 -3 104 -46 41 -60 51 -68 51 -5 0
-16 8 -24 18 -9 9 -26 24 -39 32 -13 8 -30 23 -39 33 -8 9 -21 17 -28 17 -7 0
-13 4 -13 10 0 5 -11 12 -25 16 -14 3 -25 10 -25 15 0 16 -58 10 -64 -7z"/>
<path d="M5264 7394 c-4 -15 -2 -41 5 -59 13 -38 14 -90 2 -170 -6 -33 -12
-419 -16 -858 -5 -706 -4 -800 10 -820 19 -27 19 -54 0 -91 -18 -33 -20 -99
-4 -128 6 -11 12 -56 14 -100 3 -82 18 -116 47 -106 10 4 14 88 17 424 1 231
7 426 12 435 5 10 6 312 3 690 -6 634 -7 675 -24 694 -11 11 -20 39 -22 65 -2
33 -8 46 -20 48 -12 2 -19 -5 -24 -24z"/>
<path d="M5436 7185 c-12 -13 -15 -67 -15 -363 0 -191 -3 -460 -7 -599 -6
-224 -5 -257 10 -297 16 -41 16 -47 2 -75 -20 -37 -20 -98 -1 -131 11 -19 14
-65 15 -186 0 -131 3 -164 15 -174 12 -10 18 -10 30 0 11 9 15 50 19 183 6
163 7 267 6 340 0 17 4 100 8 182 5 83 5 195 0 250 -4 55 -8 271 -7 479 1 356
0 380 -17 393 -23 17 -39 17 -58 -2z"/>
<path d="M5598 7072 c-13 -14 -16 -69 -16 -362 -1 -190 -5 -384 -8 -432 -5
-69 -3 -93 10 -119 14 -28 16 -81 17 -395 0 -353 4 -402 30 -363 5 8 8 71 7
141 -2 91 1 131 10 140 9 9 12 69 12 229 0 182 2 219 15 229 14 11 15 64 12
415 -3 396 -3 402 -25 430 -12 15 -22 40 -22 55 0 38 -22 55 -42 32z"/>
<path d="M8470 7071 c0 -6 -5 -11 -11 -11 -9 0 -36 -22 -100 -82 -11 -10 -21
-18 -24 -18 -6 0 -75 -69 -75 -75 0 -8 -71 -75 -79 -75 -5 0 -11 -7 -15 -15
-3 -8 -12 -15 -21 -15 -8 0 -15 -7 -15 -15 0 -8 -4 -15 -9 -15 -14 0 -23 -37
-16 -60 7 -21 55 -29 55 -10 0 6 6 10 13 10 14 0 47 35 47 50 0 6 7 10 15 10
8 0 15 6 15 13 0 13 43 57 56 57 4 0 20 14 36 32 15 17 28 27 28 21 0 -14 35
-53 48 -53 6 0 15 -6 19 -12 4 -7 24 -24 43 -37 19 -14 39 -30 43 -38 4 -7 15
-13 22 -13 8 0 15 -4 15 -8 0 -5 17 -15 39 -22 55 -18 81 -2 81 50 0 30 -5 40
-20 45 -11 3 -20 11 -20 16 0 5 -11 9 -25 9 -13 0 -28 6 -32 13 -4 7 -30 31
-58 52 -27 22 -51 43 -53 48 -2 4 -10 7 -17 7 -27 0 -26 20 2 32 47 21 75 53
71 85 -2 22 -9 29 -30 31 -16 2 -28 -1 -28 -7z"/>
<path d="M2796 6890 c-4 -27 -11 -50 -15 -50 -5 0 -12 -20 -15 -45 -4 -25 -11
-45 -15 -45 -5 0 -11 -18 -15 -40 -3 -22 -10 -40 -15 -40 -5 0 -12 -18 -16
-40 -4 -22 -11 -40 -15 -40 -5 0 -12 -15 -15 -32 -4 -18 -12 -36 -18 -40 -7
-4 -12 -40 -12 -88 0 -91 6 -100 67 -100 42 0 58 19 58 69 0 16 5 33 10 36 6
3 10 15 10 26 0 16 7 19 41 19 32 0 40 -3 35 -15 -3 -8 -2 -15 3 -15 5 0 12
-25 16 -55 3 -30 11 -55 16 -55 5 0 9 -6 9 -14 0 -17 42 -28 75 -20 21 5 25
12 24 43 0 20 -4 57 -8 83 -7 43 -6 47 16 57 41 19 27 81 -18 81 -27 0 -29 3
-29 39 0 22 -4 42 -9 45 -4 3 -11 40 -15 83 -3 42 -10 79 -14 82 -5 3 -13 31
-18 61 l-9 55 -51 3 -51 3 -7 -51z"/>
<path d="M3342 6798 c-7 -7 -12 -26 -12 -43 0 -39 32 -59 84 -53 40 4 46 -3
46 -60 0 -44 -8 -58 -35 -63 -16 -4 -20 -12 -20 -49 0 -43 2 -45 30 -48 l30
-3 -3 -72 -3 -72 31 -14 c59 -25 106 16 113 100 2 32 4 34 45 37 23 2 42 7 42
11 0 5 12 11 28 14 15 3 35 9 45 12 31 13 18 -19 -18 -42 -19 -13 -38 -23 -43
-23 -5 0 -23 -13 -41 -29 -26 -24 -32 -35 -29 -63 l3 -33 59 0 c38 1 61 5 64
13 2 7 8 12 13 12 5 0 18 8 28 18 10 9 30 26 43 37 28 23 62 115 47 130 -5 5
-9 21 -9 36 0 41 -24 59 -80 59 -47 0 -49 1 -47 28 2 25 5 27 57 30 30 2 57 7
58 13 2 5 13 9 25 9 12 0 27 4 33 8 16 10 24 50 17 83 -5 28 -7 29 -69 29 -36
0 -64 -4 -64 -10 0 -5 -20 -10 -44 -10 -58 0 -76 -8 -76 -32 0 -10 -12 -30
-26 -43 -19 -17 -28 -38 -32 -70 -4 -40 -8 -46 -26 -43 -18 3 -22 13 -29 66
-5 34 -13 62 -18 62 -5 0 -9 9 -9 21 0 51 -15 59 -108 59 -55 0 -92 -4 -100
-12z"/>
<path d="M5115 6675 c-17 -14 -19 -26 -16 -137 4 -158 28 -211 74 -160 21 23
28 272 8 296 -17 20 -40 20 -66 1z"/>
<path d="M3155 6620 c-3 -5 -16 -10 -29 -10 -66 0 -75 -92 -12 -127 19 -10 19
-11 0 -17 -10 -3 -24 -14 -31 -25 -17 -27 4 -71 34 -71 32 0 53 -10 53 -26 0
-19 46 -18 54 1 3 10 19 15 48 15 24 0 60 3 81 6 l37 7 0 53 0 54 -42 1 c-24
1 -47 2 -53 4 -5 1 -16 3 -23 3 -26 4 0 22 31 22 53 0 61 14 58 93 l-1 27 -99
0 c-56 0 -103 -4 -106 -10z"/>
<path d="M8707 6603 c-4 -3 -7 -20 -7 -37 0 -23 9 -38 35 -60 19 -16 35 -35
35 -43 0 -7 5 -13 10 -13 6 0 10 -4 10 -10 0 -10 67 -80 76 -80 3 0 11 -6 19
-12 7 -7 25 -22 39 -32 14 -10 26 -25 26 -32 0 -17 62 -19 91 -4 20 11 28 70
9 70 -5 0 -10 6 -10 13 0 13 -63 67 -79 67 -6 0 -11 5 -11 10 0 6 -6 10 -14
10 -7 0 -21 11 -30 25 -15 23 -38 46 -105 108 -28 25 -78 37 -94 20z"/>
<path d="M6481 6541 c-19 -19 -39 -106 -27 -118 3 -4 6 3 6 15 0 12 3 22 6 22
4 0 42 -36 86 -81 80 -79 81 -80 127 -77 l46 3 3 42 c2 32 -2 47 -17 62 -12
12 -25 21 -31 21 -5 0 -10 5 -10 10 0 6 -6 10 -14 10 -7 0 -35 22 -62 49 -60
60 -86 69 -113 42z"/>
<path d="M7940 6530 c0 -5 -9 -10 -20 -10 -11 0 -28 -9 -37 -20 -10 -11 -25
-20 -35 -20 -10 0 -18 -4 -18 -10 0 -5 -5 -10 -11 -10 -10 0 -86 -68 -132
-119 -58 -64 -159 -161 -167 -161 -5 0 -12 -9 -15 -20 -3 -11 -11 -20 -16 -20
-5 0 -9 -9 -9 -20 0 -32 64 -27 100 8 16 15 39 35 52 45 71 55 88 72 88 84 0
7 5 13 10 13 6 0 10 6 10 14 0 7 26 31 58 52 31 22 67 49 79 62 12 12 25 22
29 22 11 0 54 45 54 58 0 6 5 12 10 12 6 0 10 11 10 25 0 18 -5 25 -20 25 -11
0 -20 -4 -20 -10z"/>
<path d="M3797 6333 c-19 -19 11 -123 36 -123 4 0 7 -6 7 -12 0 -7 16 -29 35
-48 19 -19 35 -38 35 -43 0 -6 11 -20 25 -33 14 -13 25 -25 25 -28 0 -3 8 -15
17 -26 13 -15 30 -20 65 -20 l48 0 0 45 c0 25 -4 45 -8 45 -23 0 -122 95 -122
117 0 7 -4 13 -10 13 -5 0 -10 6 -10 13 0 7 -8 20 -17 29 -24 21 -53 60 -53
70 0 10 -64 11 -73 1z"/>
<path d="M5114 6253 c-16 -25 -18 -64 -22 -384 -4 -319 -3 -359 12 -380 22
-31 23 -241 1 -279 -19 -33 -19 -100 0 -136 19 -36 20 -124 3 -124 -7 1 -30
23 -52 51 -36 46 -37 52 -26 80 8 19 10 44 5 72 -4 23 -6 58 -5 77 6 86 3 978
-3 1003 -5 18 -14 27 -27 27 -24 0 -44 -35 -36 -65 3 -13 7 -71 7 -128 1 -80
-3 -111 -16 -136 -14 -28 -17 -76 -22 -315 -6 -343 -6 -321 12 -355 8 -17 13
-50 12 -80 -2 -41 -5 -51 -20 -51 -28 0 -31 -26 -5 -60 23 -31 23 -36 23 -271
0 -200 2 -241 15 -249 34 -21 39 7 42 198 2 130 6 187 15 189 6 2 32 -28 58
-68 44 -68 47 -70 65 -54 17 15 17 20 3 61 -14 41 -14 45 6 72 23 33 26 127
35 925 4 375 3 378 -17 392 -30 21 -42 19 -63 -12z"/>
<path d="M6700 6200 c0 -22 5 -40 10 -40 6 0 10 -7 10 -15 0 -8 5 -15 11 -15
14 0 59 -47 59 -61 0 -5 5 -9 10 -9 6 0 10 -7 10 -15 0 -8 7 -15 15 -15 8 0
15 -4 15 -10 0 -5 5 -10 11 -10 14 0 89 -74 89 -88 0 -16 47 -57 67 -57 12 0
19 -9 21 -29 2 -16 10 -35 18 -43 20 -21 18 -28 -18 -56 -51 -39 -88 -75 -88
-87 0 -5 -5 -10 -10 -10 -11 0 -20 -7 -75 -56 -35 -32 -49 -83 -22 -85 38 -4
96 23 97 44 0 11 39 47 50 47 6 0 10 5 10 10 0 6 7 13 16 17 15 6 47 30 86 67
21 19 23 19 49 -26 7 -12 22 -18 49 -18 60 0 70 7 70 51 0 21 -3 39 -7 39 -5
0 -16 7 -26 14 -18 14 -18 15 0 35 9 12 23 21 30 21 7 0 13 5 13 10 0 6 9 10
20 10 26 0 130 101 130 127 0 12 5 23 12 25 19 7 -1 28 -26 28 -13 0 -29 -7
-36 -15 -7 -8 -18 -15 -24 -15 -6 -1 -22 -14 -36 -30 -13 -17 -30 -30 -36 -30
-7 0 -14 -3 -16 -7 -4 -10 -65 -53 -74 -53 -4 0 -13 -8 -20 -17 -13 -17 -16
-16 -42 15 -16 17 -36 32 -45 32 -21 0 -21 1 -3 35 14 27 12 55 -5 55 -5 0 -9
5 -9 11 0 6 -20 32 -45 57 -25 25 -45 49 -45 54 0 4 -6 8 -14 8 -8 0 -16 7
-20 15 -3 8 -12 15 -21 15 -8 0 -15 4 -15 9 0 5 -8 12 -17 15 -10 4 -33 20
-52 36 -18 17 -40 30 -47 30 -8 0 -14 5 -14 10 0 6 -16 10 -35 10 -34 0 -35
-1 -35 -40z"/>
<path d="M1005 6123 c-25 -5 -88 -35 -96 -47 -4 -4 -28 -11 -54 -14 -26 -3
-56 -12 -65 -21 -59 -54 -79 -71 -89 -71 -6 0 -11 -5 -11 -12 0 -6 -6 -19 -14
-27 -8 -9 -16 -36 -18 -61 l-3 -45 55 0 c30 0 64 5 75 9 35 16 55 16 55 2 0
-8 6 -16 14 -19 14 -6 28 -69 20 -91 -3 -9 -29 -15 -71 -18 -48 -3 -68 -9 -75
-21 -5 -9 -16 -17 -23 -17 -8 0 -15 -7 -15 -15 0 -8 -7 -15 -16 -15 -12 0 -14
-9 -12 -37 3 -42 24 -53 62 -35 11 6 44 13 71 16 28 4 52 11 53 16 2 6 9 10
15 10 7 0 12 -17 12 -42 l0 -43 102 -3 101 -3 41 38 c155 146 151 140 151 233
0 67 -3 81 -24 105 -23 26 -27 27 -98 24 -64 -4 -78 -8 -103 -32 l-30 -27 -12
34 c-15 44 -47 76 -75 77 -17 0 -12 5 19 17 95 39 143 150 58 135z"/>
<path d="M4192 5898 c-7 -7 -12 -19 -12 -28 0 -24 24 -70 36 -70 7 0 41 -29
76 -65 36 -36 70 -65 77 -65 6 0 11 -4 11 -9 0 -5 11 -12 25 -15 14 -4 25 -11
25 -16 0 -18 72 -11 86 8 16 20 18 62 4 62 -5 0 -10 7 -10 15 0 8 -9 15 -19
15 -11 0 -33 14 -49 30 -17 17 -34 30 -38 30 -7 0 -78 56 -122 97 -27 25 -71
30 -90 11z"/>
<path d="M4797 5806 c-19 -19 -30 -151 -26 -298 3 -82 0 -113 -9 -116 -6 -2
-43 24 -80 57 -65 57 -102 76 -102 50 0 -6 18 -30 41 -52 26 -27 38 -46 33
-53 -50 -65 -47 -34 -49 -492 -2 -345 0 -433 11 -461 10 -24 14 -82 14 -205 0
-94 3 -181 6 -193 8 -28 30 -30 43 -5 5 10 11 160 14 333 2 174 7 321 11 327
12 19 15 461 4 550 -12 98 -2 121 35 84 20 -21 22 -33 24 -145 1 -67 3 -129 5
-137 1 -8 -1 -45 -6 -82 -7 -53 -5 -73 8 -99 13 -26 16 -66 16 -206 0 -187 7
-221 40 -203 19 10 20 22 20 189 0 126 4 189 13 212 11 26 14 118 16 384 1
349 -10 552 -33 567 -17 12 -33 9 -49 -6z"/>
<path d="M1880 5691 c0 -5 -11 -19 -25 -32 -13 -13 -25 -29 -25 -36 0 -6 -5
-13 -10 -15 -6 -2 -13 -19 -15 -37 -3 -19 -9 -37 -14 -40 -5 -3 -12 -23 -16
-44 -4 -20 -11 -37 -15 -37 -4 0 -11 -31 -15 -70 -4 -38 -11 -70 -16 -70 -5 0
-9 -54 -9 -121 0 -137 5 -149 68 -149 38 0 40 2 46 35 4 19 11 35 16 35 6 0
10 8 10 18 1 9 9 35 20 57 11 22 19 52 20 67 0 21 6 29 24 34 53 13 57 6 60
-92 3 -116 20 -145 81 -142 l40 3 0 186 c0 126 -4 190 -12 200 -6 8 -14 31
-18 52 -4 20 -11 37 -15 37 -5 0 -11 14 -15 30 -4 17 -11 30 -16 30 -5 0 -9 6
-9 13 0 8 -9 22 -20 32 -11 10 -20 24 -20 32 0 7 -7 13 -15 13 -8 0 -15 5 -15
10 0 6 -16 10 -35 10 -19 0 -35 -4 -35 -9z"/>
<path d="M2620 5571 c0 -5 -31 -13 -70 -17 -38 -3 -70 -10 -70 -14 0 -4 -16
-11 -36 -15 -32 -6 -36 -9 -31 -32 5 -26 -12 -83 -25 -83 -11 0 -10 -44 2 -76
10 -26 11 -27 78 -20 116 12 123 10 102 -29 -10 -19 -10 -28 -1 -38 14 -18 -4
-27 -55 -27 -58 0 -92 -51 -60 -92 11 -15 29 -18 95 -18 121 0 135 20 124 182
-5 83 -9 100 -30 122 -17 19 -34 26 -60 26 -64 0 -22 20 55 27 40 3 77 12 83
19 5 7 9 30 7 51 l-3 38 -52 3 c-31 2 -53 -1 -53 -7z"/>
<path d="M2755 5450 c-51 -28 -46 -21 -61 -81 -11 -44 -11 -56 1 -86 8 -20 15
-66 15 -105 0 -91 11 -103 100 -103 62 0 68 2 103 36 27 26 37 44 37 67 0 17
5 34 10 37 6 3 10 40 10 81 0 43 -4 74 -10 74 -5 0 -10 9 -10 19 0 66 -118
103 -195 61z"/>
<path d="M6880 5450 c0 -5 -6 -10 -13 -10 -36 0 -86 -96 -87 -167 0 -29 -4
-53 -10 -53 -5 0 -10 -15 -10 -32 0 -18 -7 -46 -15 -61 -8 -15 -17 -43 -21
-62 -3 -19 -10 -35 -14 -35 -5 0 -11 -22 -15 -50 -4 -27 -11 -50 -16 -50 -5 0
-9 -54 -9 -120 l0 -120 31 0 c24 0 41 10 72 44 63 67 67 73 73 106 4 16 10 30
15 30 5 0 9 46 9 103 1 93 2 100 15 77 8 -14 17 -44 21 -67 3 -24 10 -43 14
-43 5 0 12 -25 15 -55 4 -30 11 -55 16 -55 5 0 9 -13 9 -30 0 -29 2 -30 45
-30 32 0 45 4 45 14 0 8 9 18 20 21 11 3 20 12 20 20 0 7 5 15 10 17 6 2 14
29 17 61 3 31 9 57 13 57 4 0 10 25 13 57 3 31 10 59 15 62 5 3 13 38 17 76 4
39 10 75 15 80 4 6 10 36 12 69 3 40 10 61 21 68 17 9 22 43 11 72 -7 17 -44
22 -44 6 0 -5 -7 -10 -16 -10 -18 0 -68 -48 -95 -90 -9 -14 -19 -52 -23 -85
-11 -92 -18 -125 -26 -125 -4 0 -15 26 -25 58 -10 31 -21 61 -26 67 -5 5 -9
16 -9 25 0 10 -9 28 -21 41 -16 18 -19 31 -14 59 4 19 11 37 16 38 5 2 9 10 9
18 0 10 -12 14 -40 14 -22 0 -40 -4 -40 -10z"/>
<path d="M2207 5407 c-32 -18 -38 -25 -35 -51 2 -16 10 -32 18 -36 8 -4 25
-12 37 -18 32 -17 77 -15 112 6 65 36 22 123 -61 121 -18 0 -50 -10 -71 -22z"/>
<path d="M7703 5360 c-10 -11 -23 -20 -30 -20 -6 0 -15 -9 -18 -20 -3 -11 -11
-20 -16 -20 -6 0 -9 -12 -7 -27 3 -28 4 -28 64 -25 37 2 64 -1 68 -7 4 -6 27
-11 52 -11 62 0 55 -14 -16 -28 -33 -7 -60 -16 -60 -21 0 -4 -11 -13 -24 -19
-28 -12 -64 -79 -50 -92 5 -4 35 -3 67 3 69 13 88 2 57 -33 -11 -12 -17 -27
-14 -31 3 -5 -4 -21 -15 -35 -12 -15 -21 -33 -21 -40 0 -8 -4 -14 -10 -14 -5
0 -10 -11 -10 -24 0 -14 -7 -31 -15 -39 -8 -8 -19 -34 -24 -57 -7 -31 -6 -39
2 -31 6 6 22 11 34 11 13 0 36 11 51 25 15 14 36 28 47 31 11 4 23 12 27 18 4
6 43 12 88 14 44 2 80 8 80 13 0 5 7 9 15 9 9 0 18 7 21 15 4 8 10 15 16 15
19 0 38 29 38 59 0 18 7 34 18 40 9 6 12 11 5 11 -6 0 -15 -4 -18 -10 -3 -5
-42 -10 -86 -10 -43 0 -79 -4 -79 -9 0 -10 -49 -25 -57 -17 -4 4 16 46 28 56
3 3 8 13 12 23 4 10 17 17 34 17 42 0 123 73 123 111 0 26 -3 29 -35 29 l-34
0 5 53 c3 28 7 59 8 67 2 12 -6 16 -33 17 -20 0 -58 6 -86 11 -27 6 -80 11
-118 11 -55 1 -70 -3 -84 -19z"/>
<path d="M6457 5264 c-33 -39 -187 -194 -192 -194 -3 0 -13 -8 -24 -17 -30
-29 -102 -87 -117 -96 -8 -5 -24 -29 -36 -53 -43 -91 21 -79 132 25 36 33 69
61 73 61 5 0 14 6 21 13 7 6 30 25 50 42 20 16 36 35 36 42 0 6 3 13 8 15 4 2
17 16 30 32 12 15 36 36 54 45 34 18 74 83 63 101 -3 5 -22 10 -41 10 -24 0
-40 -7 -57 -26z"/>
<path d="M755 5240 c-3 -5 -17 -10 -31 -10 -15 0 -24 -6 -24 -15 0 -8 -7 -15
-15 -15 -8 0 -15 -7 -15 -15 0 -9 -7 -18 -15 -21 -8 -4 -15 -17 -15 -29 0 -13
-5 -27 -10 -30 -11 -7 -44 -74 -55 -112 -3 -13 -10 -23 -15 -23 -4 0 -11 -12
-14 -26 -4 -15 -14 -33 -22 -41 -11 -11 -14 -33 -12 -81 3 -64 4 -67 33 -76
17 -5 39 -13 50 -18 11 -5 31 -7 45 -6 24 3 25 1 22 -47 -2 -27 -8 -54 -13
-59 -12 -13 -12 -63 0 -71 5 -3 12 -1 16 5 3 5 15 10 27 10 30 0 98 72 98 103
0 14 4 28 9 31 4 3 11 29 14 57 4 29 11 55 16 58 8 6 14 58 12 105 -2 30 -64
15 -100 -24 -20 -22 -36 -31 -52 -28 -20 2 -24 9 -27 44 -2 28 2 47 12 57 9 9
16 22 16 30 0 8 9 24 20 37 11 13 20 31 20 42 0 10 5 18 10 18 6 0 10 8 10 18
0 10 7 27 15 38 8 10 15 36 15 56 0 37 -13 57 -25 38z"/>
<path d="M2182 5238 c-15 -15 -15 -58 1 -79 16 -22 180 -34 196 -15 18 22 2
75 -25 82 -13 3 -24 10 -24 15 0 14 -134 11 -148 -3z"/>
<path d="M7375 5120 c-11 -5 -37 -9 -58 -9 -24 -1 -40 -7 -43 -16 -4 -8 -12
-15 -18 -15 -17 0 -56 -43 -56 -61 0 -8 -5 -20 -12 -27 -9 -9 -9 -15 0 -24 9
-9 15 -9 24 0 8 8 54 12 141 12 119 0 131 2 172 25 36 22 44 32 48 63 2 20 0
43 -6 50 -11 14 -160 16 -192 2z"/>
<path d="M4483 5078 c-32 -41 -50 -694 -23 -837 11 -59 10 -71 -4 -99 -19 -36
-21 -94 -4 -125 6 -12 14 -35 17 -51 7 -31 35 -56 48 -42 10 10 24 429 26 822
2 251 -1 314 -12 327 -16 20 -35 22 -48 5z"/>
<path d="M2663 5073 c-15 -6 -18 -53 -3 -53 6 0 10 -7 10 -15 0 -7 6 -18 13
-22 19 -12 87 -100 87 -112 0 -6 4 -11 9 -11 5 0 13 -10 17 -22 11 -37 40 -58
79 -58 34 0 35 1 35 40 0 22 -4 40 -10 40 -5 0 -10 5 -10 11 0 11 -37 55 -77
92 -13 11 -23 27 -23 34 0 7 -5 13 -10 13 -6 0 -14 8 -17 18 -15 39 -63 61
-100 45z"/>
<path d="M955 5037 c-22 -17 -44 -37 -48 -44 -4 -7 -15 -13 -22 -13 -8 0 -15
-9 -15 -19 0 -11 -6 -21 -12 -24 -10 -3 -10 -9 -2 -23 13 -22 59 -21 82 2 14
15 59 16 55 2 -2 -5 -3 -19 -3 -32 0 -18 -5 -23 -24 -23 -25 0 -96 -60 -96
-82 0 -6 -4 -11 -10 -11 -6 0 -10 -29 -10 -66 l0 -66 31 6 c17 3 47 6 65 6 28
0 45 11 100 65 54 53 67 71 71 105 3 22 10 43 14 46 5 3 9 40 9 82 -1 102 -16
122 -92 122 -44 -1 -59 -6 -93 -33z"/>
<path d="M7274 4946 c-3 -9 -11 -16 -18 -16 -18 0 -56 -46 -56 -68 0 -11 -5
-22 -12 -24 -6 -2 -8 -10 -4 -16 10 -16 63 -15 69 1 3 9 9 9 24 1 10 -6 33
-15 51 -19 18 -3 32 -11 32 -16 0 -15 57 -10 70 6 7 8 16 15 21 15 21 0 59 49
59 77 0 28 -3 31 -42 37 -23 4 -46 12 -50 18 -3 7 -36 14 -72 16 -54 4 -67 1
-72 -12z"/>
<path d="M4346 4873 c-4 -38 -7 -88 -6 -112 0 -32 -7 -55 -30 -89 -21 -32 -28
-52 -23 -66 4 -12 6 -28 6 -36 -12 -244 -11 -314 2 -341 12 -22 15 -76 15
-262 0 -188 3 -237 14 -246 11 -9 17 -8 28 2 10 11 15 47 17 137 1 68 6 131
12 141 13 24 11 136 -2 145 -7 4 -8 20 -4 43 14 65 17 722 4 737 -20 25 -27
15 -33 -53z"/>
<path d="M5960 4760 c0 -5 -8 -10 -17 -10 -16 0 -153 -124 -153 -137 0 -22
-122 -163 -140 -163 -6 0 -10 -7 -10 -15 0 -8 -4 -15 -10 -15 -5 0 -10 -6 -10
-14 0 -8 -9 -18 -20 -21 -11 -3 -20 -13 -20 -21 0 -8 -4 -14 -10 -14 -5 0 -10
-8 -10 -17 0 -9 -7 -25 -17 -35 -14 -16 -15 -18 0 -18 9 0 19 5 22 10 3 6 17
10 31 10 14 0 31 6 38 13 8 6 24 19 36 27 29 19 58 49 90 91 14 19 35 44 48
57 12 13 22 26 22 30 1 4 14 18 30 32 17 13 30 30 30 37 0 7 4 13 10 13 5 0
12 11 16 25 3 14 10 25 15 25 17 0 49 34 49 52 0 10 5 18 10 18 6 0 10 11 10
25 0 18 -5 25 -20 25 -11 0 -20 -4 -20 -10z"/>
<path d="M5207 4718 c-7 -27 17 -74 54 -107 16 -14 29 -31 29 -38 0 -7 5 -13
10 -13 6 0 10 -4 10 -10 0 -13 37 -50 50 -50 6 0 10 -4 10 -10 0 -5 7 -10 15
-10 7 0 18 -7 23 -16 6 -10 24 -17 48 -18 39 -1 39 -1 42 39 3 37 -1 44 -47
88 -28 26 -54 47 -58 47 -3 0 -13 7 -22 15 -9 8 -33 29 -53 46 -21 17 -38 37
-38 45 0 9 -12 14 -34 14 -26 0 -35 -5 -39 -22z"/>
<path d="M4161 4677 c-7 -7 -11 -66 -11 -171 0 -115 -4 -173 -15 -201 -19 -54
-20 -246 -1 -283 10 -20 14 -78 15 -227 2 -206 7 -236 41 -215 12 7 15 31 16
105 0 58 5 100 12 107 17 17 15 114 -4 150 -15 28 -15 34 1 68 15 33 16 69 11
334 -3 164 -10 305 -16 315 -12 24 -35 32 -49 18z"/>
<path d="M2976 4634 c-17 -44 8 -104 44 -104 6 0 10 -6 10 -12 0 -7 14 -22 30
-33 17 -11 33 -30 36 -42 3 -12 15 -25 25 -28 10 -4 19 -11 19 -16 0 -6 15 -9
33 -7 29 3 32 6 35 41 2 21 -1 37 -7 37 -6 0 -11 5 -11 11 0 7 -15 26 -32 44
-18 17 -46 48 -62 68 -16 20 -38 37 -48 37 -10 0 -18 5 -18 10 0 16 -47 11
-54 -6z"/>
<path d="M4017 4323 c-4 -3 -7 -17 -7 -31 0 -13 -11 -37 -25 -54 -25 -29 -25
-31 -25 -232 0 -132 4 -206 11 -213 6 -6 9 -21 7 -34 -4 -31 -42 -38 -57 -11
-6 10 -12 117 -15 237 -6 231 -13 265 -56 265 -24 0 -27 -14 -35 -145 -9 -156
-19 -228 -32 -232 -16 -6 -31 26 -43 89 -12 61 -29 83 -59 73 -39 -12 -45 -68
-43 -378 1 -168 6 -296 12 -307 6 -11 10 -118 10 -254 0 -202 2 -237 16 -251
12 -12 19 -13 30 -4 11 9 14 59 14 254 0 200 3 248 15 271 13 24 15 64 13 231
-2 111 1 205 5 209 4 4 17 -1 28 -13 20 -20 21 -31 20 -199 -1 -130 3 -192 14
-226 8 -29 12 -72 10 -110 -5 -70 3 -92 31 -86 18 3 19 19 24 253 l5 250 32 3
c28 3 33 0 38 -25 4 -15 12 -37 18 -48 7 -12 12 -61 12 -120 0 -87 2 -100 17
-103 37 -7 42 39 41 327 -1 222 1 280 13 302 11 22 13 59 10 163 -2 74 -7 140
-11 145 -7 12 -28 14 -38 4z"/>
<path d="M3355 4258 c6 -36 20 -56 87 -124 71 -72 79 -84 69 -102 -7 -12 -11
-78 -11 -162 0 -78 -4 -149 -10 -159 -14 -27 -16 -739 -1 -754 6 -6 11 -30 11
-53 0 -55 8 -74 30 -74 22 0 30 19 30 73 0 23 7 51 15 61 19 25 19 73 0 110
-18 34 -19 63 -1 94 10 19 12 108 8 425 -2 221 -8 410 -13 419 -5 9 -9 39 -9
65 0 53 -12 73 -45 73 -34 0 -139 91 -143 123 -2 15 -8 27 -14 27 -6 0 -7 -16
-3 -42z"/>
<path d="M5593 4273 c-7 -2 -13 -21 -13 -40 0 -38 7 -47 95 -118 27 -22 60
-52 73 -67 23 -27 53 -35 86 -22 31 12 12 114 -21 114 -12 0 -46 27 -87 68
-18 17 -38 32 -45 32 -6 0 -11 4 -11 9 0 7 -59 34 -64 30 -1 0 -7 -3 -13 -6z"/>
<path d="M5485 4220 c-3 -5 -15 -10 -26 -10 -10 0 -28 -9 -39 -20 -11 -11 -22
-20 -25 -20 -3 0 -13 -8 -24 -17 -10 -10 -32 -29 -50 -43 -17 -14 -31 -29 -31
-35 0 -5 -14 -23 -30 -39 -17 -16 -30 -33 -30 -38 0 -4 -4 -8 -10 -8 -14 0
-108 -97 -115 -120 -3 -11 -11 -20 -16 -20 -5 0 -9 -7 -9 -15 0 -11 11 -15 40
-15 22 0 40 5 40 10 0 6 5 10 11 10 15 0 73 59 82 83 3 9 11 17 17 17 5 0 10
7 10 15 0 8 5 15 10 15 6 0 24 14 40 30 16 17 32 30 35 30 9 0 35 27 35 36 0
4 19 26 43 49 44 43 79 99 69 109 -8 9 -20 7 -27 -4z"/>
<path d="M576 4135 c-15 -8 -35 -15 -44 -15 -8 0 -22 -7 -31 -15 -65 -61 -92
-85 -98 -85 -12 0 -32 -36 -33 -57 0 -19 5 -23 30 -23 17 0 30 4 30 9 0 5 10
13 23 17 12 4 25 11 29 17 3 6 19 11 34 13 16 2 30 8 32 14 2 5 10 10 18 10
18 0 19 -76 1 -87 -30 -19 -77 -89 -77 -115 0 -27 2 -28 48 -28 75 0 89 -7
100 -50 9 -38 9 -38 -23 -44 -18 -4 -36 -13 -39 -21 -3 -8 -12 -15 -21 -15 -8
0 -15 -4 -15 -10 0 -5 -6 -10 -12 -10 -15 0 -38 -45 -38 -72 0 -10 6 -18 13
-19 39 -3 103 4 112 12 5 5 17 9 27 9 10 0 26 9 35 20 10 11 21 20 24 20 4 0
26 18 48 39 41 39 41 40 41 116 0 56 -4 77 -14 81 -8 3 -17 16 -20 30 -4 14
-16 26 -31 30 -14 3 -25 10 -25 15 0 5 -7 6 -15 3 -18 -7 -19 3 -2 21 6 8 17
20 23 27 6 8 14 51 17 96 l6 82 -62 0 c-35 0 -74 -7 -91 -15z"/>
<path d="M2543 4128 c-37 -19 -43 -27 -49 -64 -7 -51 6 -98 30 -102 35 -7 66
7 66 31 0 29 15 53 24 39 7 -12 -3 -64 -13 -72 -6 -4 -66 -79 -94 -115 -4 -5
-16 -21 -27 -34 -11 -13 -20 -33 -20 -45 -1 -20 -2 -20 -14 -3 -7 9 -18 17
-25 17 -15 0 -14 9 4 26 21 22 19 60 -6 85 -19 19 -28 21 -87 15 -37 -4 -69
-11 -72 -16 -3 -4 -17 -11 -31 -15 -14 -3 -33 -20 -43 -39 -15 -29 -16 -37 -4
-56 10 -18 10 -24 1 -27 -8 -3 -13 -21 -13 -43 0 -44 10 -50 80 -50 27 0 52
-4 55 -10 10 -15 88 -12 123 6 26 12 32 22 32 47 l0 32 18 -23 c17 -21 24 -23
111 -21 94 2 110 -4 111 -38 0 -6 20 -15 44 -18 48 -8 106 1 106 16 0 5 7 9
16 9 8 0 31 12 50 28 l34 27 0 90 c-1 110 -14 132 -85 141 -27 4 -44 11 -42
18 2 6 11 10 20 8 8 -1 18 2 22 8 3 5 36 10 72 10 56 0 66 3 70 20 3 11 9 20
14 20 17 0 9 57 -11 75 -38 35 -280 4 -280 -36 0 -21 -18 -7 -23 19 -7 32 -52
62 -94 62 -15 0 -47 -10 -70 -22z"/>
<path d="M2030 4130 c0 -5 -9 -10 -19 -10 -13 0 -21 -9 -26 -30 -4 -16 -11
-30 -16 -30 -5 0 -9 -13 -9 -29 0 -16 -6 -36 -12 -43 -7 -7 -24 -35 -38 -60
-13 -26 -30 -50 -37 -52 -7 -3 -13 -15 -13 -26 0 -11 -4 -20 -9 -20 -5 0 -12
-15 -15 -34 -4 -19 -12 -36 -18 -38 -7 -3 -12 -26 -12 -58 -1 -50 1 -54 34
-72 22 -13 36 -16 38 -9 2 6 12 11 23 11 11 0 22 8 26 18 15 47 38 92 45 92 4
0 8 -17 8 -37 0 -46 8 -59 40 -71 40 -14 84 -1 88 26 2 12 8 22 13 22 13 0 12
387 -1 395 -5 3 -10 13 -10 22 0 9 -8 22 -17 29 -21 16 -63 18 -63 4z"/>
<path d="M5890 3920 c0 -22 5 -40 10 -40 6 0 10 -7 10 -15 0 -8 7 -15 15 -15
7 0 18 -6 22 -13 4 -7 30 -31 58 -52 27 -22 61 -52 75 -67 13 -16 30 -28 37
-28 7 0 13 -4 13 -10 0 -16 46 -23 69 -10 17 9 21 20 21 59 0 42 -3 50 -22 55
-13 3 -35 17 -50 31 -15 14 -31 25 -35 25 -5 0 -16 8 -25 18 -20 20 -30 29
-80 62 -21 14 -38 28 -38 33 0 4 -18 7 -40 7 l-40 0 0 -40z"/>
<path d="M965 3917 c-25 -15 -103 -75 -128 -100 -11 -11 -23 -32 -27 -47 -10
-35 5 -163 19 -168 6 -2 11 -10 11 -18 0 -8 7 -14 15 -14 8 0 15 -4 15 -10 0
-14 88 -12 106 3 52 44 114 104 114 111 0 4 7 14 15 23 13 12 15 36 13 122
l-3 106 -65 2 c-36 1 -74 -4 -85 -10z"/>
<path d="M4937 3680 c-28 -27 -57 -50 -64 -50 -7 0 -13 -4 -13 -10 0 -5 -6
-10 -13 -10 -7 0 -20 -8 -29 -17 -33 -35 -55 -53 -62 -53 -7 0 -22 -11 -55
-41 -10 -8 -25 -18 -34 -22 -9 -3 -17 -15 -17 -26 0 -11 -6 -21 -12 -24 -21
-6 10 -37 38 -37 19 0 50 23 115 85 9 8 23 15 32 15 10 0 17 5 17 10 0 6 7 10
15 10 8 0 28 14 45 30 17 17 33 30 35 30 10 0 55 48 55 59 0 6 7 11 15 11 8 0
15 7 15 15 0 8 4 15 9 15 5 0 11 14 13 30 4 27 2 30 -24 30 -22 0 -43 -13 -81
-50z"/>
<path d="M4106 3553 c-20 -20 27 -90 84 -125 14 -9 37 -32 50 -52 28 -41 60
-54 96 -37 21 9 24 17 24 60 0 50 0 50 -37 56 -85 14 -97 18 -132 50 -42 38
-76 57 -85 48z"/>
<path d="M3352 3498 c-7 -7 -12 -29 -12 -50 0 -20 -4 -59 -10 -85 -14 -71 -20
-583 -7 -608 6 -11 14 -40 17 -65 4 -37 9 -45 25 -45 25 0 33 45 36 195 0 58
6 111 12 118 7 9 8 97 4 270 -5 229 -8 258 -23 269 -22 16 -27 16 -42 1z"/>
<path d="M6270 3495 c0 -8 -4 -15 -10 -15 -24 0 -8 -40 28 -73 7 -7 21 -20 30
-29 9 -10 21 -18 26 -18 5 0 14 -6 20 -14 11 -15 45 -20 99 -18 27 2 28 4 25
48 -3 42 -6 48 -43 68 -22 11 -42 24 -45 27 -3 4 -15 9 -27 13 -13 4 -23 12
-23 17 0 5 -18 9 -40 9 -29 0 -40 -4 -40 -15z"/>
<path d="M1992 3378 c-7 -7 -12 -32 -12 -57 0 -44 3 -49 66 -106 37 -33 80
-75 97 -92 17 -18 36 -33 44 -33 7 0 13 -7 13 -16 0 -12 9 -14 43 -12 40 3 42
5 45 37 5 49 -5 79 -29 86 -12 4 -38 25 -59 46 -21 21 -42 39 -48 39 -5 0 -13
12 -16 26 -6 22 -22 41 -73 84 -17 14 -56 13 -71 -2z"/>
<path d="M3202 3378 c-5 -7 -13 -53 -17 -103 -4 -49 -12 -96 -18 -103 -6 -8
-12 -120 -14 -302 -4 -248 -2 -293 11 -319 9 -16 16 -41 16 -54 0 -32 25 -54
44 -38 11 9 13 36 9 130 -4 98 -2 123 12 150 15 29 16 63 10 329 -6 278 -11
322 -35 322 -4 0 -12 -6 -18 -12z"/>
<path d="M4455 3337 c-16 -5 -33 -15 -37 -20 -3 -6 -16 -11 -27 -12 -12 -1
-42 -26 -69 -55 -26 -29 -77 -84 -114 -122 -38 -38 -68 -73 -68 -78 0 -6 -4
-10 -10 -10 -5 0 -10 -7 -10 -15 0 -9 -8 -19 -17 -22 -16 -6 -30 -17 -98 -80
-21 -19 -65 -78 -65 -88 0 -3 18 -5 40 -5 22 0 40 5 40 10 0 6 5 10 10 10 6 0
30 19 53 43 23 23 65 60 92 82 61 49 113 104 121 128 3 9 9 17 14 17 5 0 12 9
15 20 3 11 11 20 16 20 6 0 20 10 32 23 12 13 30 26 40 30 9 3 17 11 17 17 0
5 7 10 16 10 11 0 14 -5 10 -16 -6 -16 5 -30 63 -76 12 -10 25 -18 31 -18 5 0
13 -6 17 -12 4 -7 39 -41 76 -75 72 -67 108 -79 127 -44 12 23 13 71 2 86 -4
6 -33 30 -66 54 -32 24 -65 52 -74 62 -9 11 -20 19 -25 19 -4 0 -20 13 -35 29
-15 16 -36 31 -47 33 -12 2 -21 13 -23 28 -5 35 -13 39 -47 27z"/>
<path d="M736 3232 c-3 -5 -19 -12 -36 -15 -31 -7 -47 -17 -78 -49 -9 -10 -22
-18 -28 -18 -11 0 -34 -49 -34 -71 0 -12 67 -11 72 0 2 5 15 13 31 16 l27 7 0
-76 c0 -42 -4 -76 -9 -76 -5 0 -12 -13 -16 -30 -4 -16 -11 -30 -16 -30 -5 0
-9 -7 -9 -15 0 -17 -35 -55 -50 -55 -5 0 -12 -11 -16 -25 -3 -14 -10 -25 -16
-25 -5 0 -8 -10 -6 -22 3 -21 7 -23 56 -20 30 2 52 0 52 -6 0 -6 17 -21 38
-33 20 -13 38 -27 40 -31 7 -15 99 -9 106 7 3 8 12 15 21 15 8 0 15 5 15 10 0
6 7 10 15 10 8 0 15 7 15 15 0 18 4 18 96 15 78 -2 70 -7 158 89 34 38 39 50
43 106 4 45 2 65 -7 70 -26 16 -96 23 -142 15 -38 -8 -57 -19 -100 -64 -72
-74 -75 -78 -82 -113 -8 -34 -43 -52 -53 -27 -3 8 -10 14 -15 14 -6 0 -23 11
-38 24 l-29 24 25 21 c13 11 24 30 24 41 0 11 4 20 10 20 5 0 12 16 16 35 3
19 10 38 15 41 5 3 9 38 8 77 -1 89 -21 131 -66 135 -17 2 -34 -1 -37 -6z"/>
<path d="M2350 2987 c0 -19 30 -77 40 -77 4 0 11 -11 14 -24 3 -14 15 -28 26
-31 11 -3 20 -10 20 -15 0 -4 11 -11 25 -14 14 -4 25 -11 25 -16 0 -6 20 -10
45 -10 l45 0 0 39 c0 33 -4 40 -25 45 -14 4 -25 11 -25 16 0 6 -8 10 -17 10
-17 0 -63 40 -63 55 0 3 -6 13 -14 21 -19 18 -96 19 -96 1z"/>
<path d="M3015 2967 c-12 -19 -15 -69 -18 -266 -2 -217 -4 -244 -20 -256 -20
-15 -22 -41 -3 -52 21 -13 46 -69 46 -106 0 -20 7 -40 16 -48 14 -11 19 -10
34 9 24 29 26 28 45 -12 19 -39 18 -41 -65 -106 -57 -44 -70 -57 -70 -67 0 -4
-10 -20 -22 -33 -71 -79 -86 -132 -40 -138 15 -2 22 2 22 12 0 9 7 16 15 16 8
0 15 7 15 15 0 9 7 18 15 21 8 4 15 12 15 20 0 8 5 14 10 14 6 0 45 35 86 77
l76 78 30 -18 c35 -20 69 -22 86 -5 14 14 16 78 2 78 -5 0 -10 7 -10 15 0 8 7
15 15 15 8 0 15 7 15 15 0 8 7 15 15 15 8 0 15 9 15 20 0 11 5 20 10 20 6 0
10 9 10 20 0 15 -7 20 -25 20 -14 0 -25 -4 -25 -10 0 -5 -11 -10 -24 -10 -14
0 -31 -7 -40 -15 -19 -20 -24 -19 -82 9 -83 41 -94 56 -94 137 0 41 6 81 14
98 21 40 14 382 -9 417 -20 30 -40 31 -60 1z"/>
<path d="M4823 2883 c-18 -7 -16 -40 2 -47 8 -3 15 -12 15 -21 0 -8 4 -15 10
-15 5 0 16 -15 24 -32 9 -18 38 -55 66 -83 27 -27 50 -54 50 -58 0 -4 8 -17
19 -28 14 -15 29 -20 57 -17 38 3 39 4 42 46 2 31 -1 44 -12 48 -9 3 -16 11
-16 18 0 13 -86 106 -98 106 -5 0 -30 20 -56 45 -45 42 -71 51 -103 38z"/>
<path d="M2897 2854 c-4 -4 -7 -37 -7 -74 0 -54 -5 -74 -23 -102 -13 -19 -27
-46 -31 -61 -10 -41 -21 -35 -82 41 -40 50 -66 40 -71 -28 -1 -19 -5 -141 -9
-271 -5 -173 -4 -238 5 -243 6 -4 11 -22 11 -39 0 -41 13 -60 36 -55 13 2 20
13 22 33 1 17 10 46 18 66 12 29 15 66 11 195 -2 87 -8 171 -12 186 -10 38 18
49 48 19 19 -18 21 -30 18 -90 -2 -48 2 -78 13 -99 12 -24 14 -54 10 -156 -6
-132 0 -156 36 -156 15 0 17 15 19 143 1 100 6 154 17 183 16 41 16 127 0 422
-4 70 -14 101 -29 86z"/>
<path d="M3672 2646 c-68 -58 -114 -86 -141 -86 -13 0 -21 -6 -21 -17 0 -9
-20 -36 -45 -60 -25 -23 -45 -47 -45 -53 0 -5 -4 -10 -10 -10 -14 0 -13 -57 1
-66 6 -3 16 -1 22 5 6 6 18 11 27 12 8 0 36 24 63 52 118 129 144 155 182 177
77 47 100 90 48 90 -18 0 -47 -16 -81 -44z"/>
<path d="M5126 2541 c-8 -12 10 -102 22 -110 5 -3 13 -17 17 -30 13 -42 37
-61 77 -61 l38 0 0 50 c0 28 -4 50 -10 50 -5 0 -10 7 -10 15 0 8 -6 15 -12 15
-7 0 -24 18 -38 40 -18 31 -30 40 -51 40 -15 0 -30 -4 -33 -9z"/>
<path d="M2511 2473 c-12 -13 -12 -26 -3 -72 7 -34 9 -76 4 -106 -7 -45 -1
-232 13 -450 7 -102 12 -125 29 -125 17 0 26 62 34 245 5 89 12 149 21 164 10
19 12 42 6 100 -5 42 -8 108 -7 148 2 66 0 73 -24 92 -32 25 -54 26 -73 4z"/>
<path d="M830 2249 c-19 -22 -39 -50 -45 -62 -5 -12 -29 -41 -52 -65 -24 -24
-43 -48 -43 -53 0 -12 -11 -25 -82 -101 -32 -34 -58 -65 -58 -69 0 -4 -7 -12
-16 -17 -29 -16 -13 -47 28 -50 38 -3 44 0 113 83 87 103 87 103 79 75 -4 -14
-11 -26 -15 -28 -5 -2 -9 -9 -9 -15 0 -7 -6 -24 -14 -39 -8 -15 -17 -42 -21
-60 -4 -18 -11 -38 -16 -44 -5 -7 -12 -41 -16 -78 l-6 -66 32 0 c17 0 31 5 31
10 0 6 6 10 14 10 8 0 44 30 81 66 64 63 95 76 95 39 0 -8 9 -15 20 -15 11 0
20 -4 20 -10 0 -6 32 -10 75 -10 41 0 75 4 75 9 0 5 9 13 20 16 11 3 20 11 20
16 0 5 16 23 35 40 19 17 35 39 35 49 0 10 4 20 9 22 4 2 11 42 15 90 9 106 3
112 -91 93 -66 -14 -69 -16 -143 -87 -27 -27 -51 -48 -55 -48 -7 0 -23 -13
-86 -69 -48 -43 -53 -40 -22 19 7 14 13 31 13 38 0 6 5 12 10 12 6 0 10 7 10
16 0 15 26 78 53 129 6 11 13 59 15 108 l4 87 -38 0 c-33 0 -44 -6 -74 -41z"/>
<path d="M2382 2258 c-7 -7 -12 -38 -12 -69 0 -31 -7 -73 -15 -92 -21 -51 -21
-342 -1 -392 19 -43 31 -44 57 -2 16 27 19 46 17 117 -1 54 2 93 10 108 14 24
12 287 -2 310 -13 22 -42 32 -54 20z"/>
<path d="M2230 2070 c-33 -39 -35 -45 -37 -123 -1 -45 -5 -132 -8 -194 -5 -90
-3 -117 9 -142 17 -31 22 -167 8 -186 -13 -19 -61 -45 -82 -45 -18 0 -20 6
-20 53 0 28 7 66 16 82 12 24 15 61 14 180 -2 220 -9 249 -54 243 -20 -3 -21
-11 -26 -118 -3 -63 -11 -128 -18 -143 -18 -41 -15 -241 4 -296 13 -39 13 -46
-2 -70 -22 -34 -55 -61 -76 -61 -15 0 -18 9 -18 63 1 39 6 69 15 81 11 15 15
50 15 139 0 104 -3 124 -21 153 -25 42 -39 43 -39 4 0 -16 -12 -46 -26 -67
-28 -41 -28 -38 -7 -326 11 -144 26 -154 106 -68 21 22 50 44 65 47 15 4 41
18 57 33 41 36 79 56 146 75 61 17 103 51 80 65 -7 5 -21 7 -30 4 -35 -9 -44
20 -30 99 15 91 19 550 4 555 -6 2 -26 -15 -45 -37z"/>
<path d="M3360 2030 c0 -29 6 -45 21 -58 12 -9 43 -38 70 -64 26 -27 52 -48
57 -48 5 0 15 -7 22 -15 7 -8 21 -15 31 -15 11 0 19 -4 19 -10 0 -14 54 -12
68 2 13 13 17 88 5 88 -5 0 -21 11 -37 25 -16 14 -35 25 -43 25 -7 0 -16 7
-19 15 -4 8 -12 15 -20 15 -8 0 -14 5 -14 10 0 6 -7 10 -15 10 -9 0 -18 7 -21
15 -4 8 -13 15 -20 15 -8 0 -17 7 -20 15 -4 10 -20 15 -45 15 -39 0 -39 0 -39
-40z"/>
<path d="M12694 1940 c-5 -5 -42 -12 -82 -16 -39 -4 -72 -10 -72 -14 0 -4 -18
-10 -39 -14 -41 -6 -51 -19 -51 -64 0 -35 8 -45 49 -65 38 -19 67 -22 76 -8 3
6 37 13 75 17 39 4 73 11 76 15 7 12 64 11 64 -1 0 -5 -7 -10 -15 -10 -8 0
-15 -5 -15 -11 0 -6 -17 -33 -37 -60 -37 -47 -39 -48 -93 -49 -70 0 -82 -9
-78 -50 3 -29 10 -37 47 -57 6 -3 -33 -83 -40 -83 -4 0 -10 -13 -14 -30 -4
-16 -10 -30 -13 -30 -4 0 -18 -16 -31 -35 -27 -41 -24 -82 9 -115 20 -20 31
-21 253 -20 142 0 233 4 235 10 2 6 10 10 18 10 8 0 14 9 14 20 0 11 5 20 10
20 14 0 12 22 -6 58 -8 18 -22 32 -30 32 -8 0 -14 5 -14 10 0 6 -55 10 -145
10 -122 0 -145 2 -145 15 0 8 5 15 10 15 6 0 10 5 10 12 0 6 10 26 22 44 22
32 22 32 124 36 120 4 134 12 134 74 0 39 -3 44 -35 60 -19 9 -46 14 -60 12
-14 -3 -25 -3 -25 -1 0 7 36 52 78 97 31 34 36 46 36 89 1 32 -4 52 -12 55 -7
2 -19 10 -26 18 -17 17 -246 20 -262 4z"/>
<path d="M3790 1645 c0 -46 22 -85 47 -85 7 0 13 -5 13 -11 0 -6 17 -9 43 -7
l42 3 3 53 c2 40 0 52 -11 52 -8 0 -26 9 -40 20 -14 12 -40 20 -61 20 -36 0
-36 0 -36 -45z"/>
<path d="M10075 620 c-3 -5 -13 -10 -22 -10 -20 0 -123 -103 -123 -124 0 -9
-4 -16 -10 -16 -6 0 -10 -28 -10 -65 0 -62 1 -65 28 -71 15 -3 32 -7 39 -9 6
-2 26 0 42 5 19 5 31 5 31 -1 0 -16 -36 -46 -64 -53 -14 -3 -26 -11 -26 -16 0
-6 -5 -10 -11 -10 -14 0 -48 -41 -49 -57 0 -7 -4 -13 -10 -13 -5 0 -10 -11
-10 -25 0 -18 5 -25 20 -25 11 0 20 4 20 9 0 5 16 12 35 15 19 4 35 11 35 16
0 6 9 10 20 10 10 0 34 16 53 35 19 19 37 35 40 35 3 0 7 -21 9 -47 l3 -48 84
2 c65 1 86 5 93 17 5 9 16 16 23 16 8 0 15 3 15 8 0 4 10 12 23 17 12 6 26 20
32 32 5 13 13 23 17 23 5 0 8 9 8 19 0 11 7 26 15 34 8 9 17 44 21 85 l7 69
-33 17 c-37 18 -95 21 -105 6 -3 -5 -15 -10 -27 -10 -11 0 -31 -9 -45 -20 -15
-11 -28 -19 -30 -17 -2 2 1 27 7 55 6 28 10 66 8 84 l-3 33 -72 3 c-42 2 -74
-1 -78 -8z"/>
<path d="M3286 595 c-8 -8 -18 -15 -21 -15 -4 0 -31 -24 -61 -54 -52 -52 -54
-56 -54 -109 0 -46 4 -59 22 -71 12 -9 30 -16 40 -16 10 0 18 -4 18 -10 0 -5
16 -10 35 -10 37 0 44 -13 26 -48 -5 -9 -12 -25 -15 -35 -3 -10 -15 -17 -31
-17 -43 0 -115 -70 -115 -113 0 -49 31 -67 117 -67 60 0 80 4 106 23 18 12 34
25 35 30 7 15 24 6 18 -9 -5 -14 -1 -16 30 -11 21 4 41 12 46 19 5 9 8 8 8 -6
0 -16 6 -18 44 -14 38 5 52 14 105 69 34 34 61 65 61 67 0 2 7 10 15 18 8 9
15 24 15 34 0 10 5 22 10 25 6 3 10 33 10 65 0 32 -4 62 -10 65 -5 3 -10 14
-10 25 0 38 -100 43 -146 8 -92 -71 -91 -71 -138 -160 -27 -51 -92 -118 -116
-117 -10 0 -7 7 11 22 14 12 40 41 58 64 l32 42 1 139 c0 173 -3 182 -77 182
-34 0 -59 -5 -69 -15z"/>
<path d="M9092 603 c-28 -5 -152 -123 -152 -144 0 -8 -5 -20 -11 -26 -6 -6 -9
-23 -7 -39 3 -26 8 -29 41 -32 20 -2 37 -7 37 -13 0 -5 -4 -9 -10 -9 -5 0 -10
-7 -10 -15 0 -8 -9 -23 -20 -32 -11 -10 -20 -25 -20 -35 0 -10 -4 -18 -10 -18
-6 0 -10 -30 -10 -70 l0 -70 30 0 c17 0 38 4 48 9 9 4 40 19 67 32 28 13 54
30 58 37 4 6 14 12 21 12 8 0 18 8 22 17 6 13 10 0 14 -42 l5 -60 63 -3 c41
-2 67 1 76 10 7 7 24 20 36 28 38 25 130 116 130 128 0 7 5 12 10 12 6 0 10 5
10 11 0 6 7 26 16 45 16 33 15 37 -1 74 -14 32 -25 41 -52 46 -46 9 -136 -1
-141 -15 -2 -6 -9 -11 -16 -11 -7 0 -23 -13 -36 -30 -28 -36 -37 -38 -37 -6 0
28 -19 50 -48 60 -18 5 -20 13 -17 66 5 84 -9 98 -86 83z"/>
<path d="M11109 577 c-33 -32 -54 -59 -62 -80 -3 -9 -13 -17 -22 -17 -8 0 -15
-4 -15 -10 0 -5 -10 -10 -23 -10 -20 0 -57 -30 -57 -46 0 -3 -35 -41 -77 -85
-43 -44 -79 -85 -81 -92 -2 -7 -8 -22 -15 -35 -13 -28 5 -54 25 -34 7 7 22 12
35 12 16 0 48 26 101 80 43 44 83 80 89 80 6 0 14 10 18 23 7 21 8 20 12 -8 3
-16 0 -31 -6 -33 -6 -2 -11 -11 -11 -20 0 -9 -7 -30 -15 -46 -8 -15 -15 -43
-15 -60 0 -18 -5 -37 -11 -43 -8 -8 3 -8 37 -2 27 5 52 16 57 24 4 8 14 15 20
15 16 0 47 52 47 78 0 11 7 33 15 48 8 16 15 36 15 44 0 9 4 20 10 26 5 5 11
54 12 109 l3 100 -31 3 c-21 2 -37 -4 -55 -21z"/>
<path d="M6370 540 c-24 -22 -44 -30 -71 -30 -20 0 -42 -7 -49 -15 -7 -8 -16
-15 -21 -15 -16 0 -49 -34 -49 -50 0 -9 -5 -21 -12 -28 -9 -9 -8 -12 5 -12 9
0 17 -7 17 -15 0 -8 -6 -15 -14 -15 -8 0 -18 -10 -22 -22 -4 -13 -11 -26 -17
-29 -5 -4 -7 -14 -4 -24 6 -13 18 -16 59 -13 51 3 53 2 56 -24 3 -27 1 -28
-37 -28 -23 0 -41 5 -41 10 0 13 -47 13 -63 0 -78 -67 -78 -68 -75 -102 l3
-33 89 0 c63 0 91 4 94 13 2 6 10 12 17 12 8 0 19 9 25 20 12 23 40 27 40 6 0
-7 10 -16 22 -19 33 -9 112 4 121 20 4 7 17 13 27 13 11 0 20 5 20 10 0 6 4
10 9 10 17 0 81 67 81 84 0 9 5 16 10 16 6 0 10 9 10 19 0 11 7 26 15 35 10 9
15 34 15 69 0 53 -1 55 -36 72 -39 18 -115 16 -122 -4 -2 -6 -9 -11 -16 -11
-6 0 -26 -13 -44 -30 -18 -16 -38 -30 -45 -31 -36 -4 -34 5 12 48 28 26 51 53
51 60 0 7 5 13 10 13 6 0 10 11 10 25 0 35 -37 33 -80 -5z"/>
<path d="M2330 531 c0 -5 -16 -12 -35 -15 -19 -4 -35 -11 -35 -17 0 -5 -8 -13
-17 -16 -35 -13 -83 -84 -83 -122 0 -12 -4 -21 -10 -21 -5 0 -10 -5 -10 -12 0
-6 -20 -31 -45 -55 -25 -23 -45 -47 -45 -52 0 -5 -7 -14 -15 -21 -28 -23 -18
-40 25 -40 22 0 40 5 40 10 0 6 5 10 12 10 6 0 24 14 40 32 30 34 47 33 28 -1
-6 -12 -10 -53 -8 -94 l3 -72 33 -3 c18 -2 32 1 32 7 0 6 8 11 18 11 10 0 25
8 34 18 52 53 56 55 105 50 33 -3 57 -12 76 -30 31 -29 68 -39 112 -31 36 7
155 123 155 151 0 10 5 23 11 29 5 5 11 44 12 86 1 82 -14 127 -44 127 -10 0
-21 5 -24 10 -9 15 -68 12 -100 -4 -41 -21 -105 -78 -105 -93 0 -7 -3 -13 -8
-13 -4 0 -18 -20 -32 -45 -14 -25 -30 -45 -37 -45 -7 0 -13 -4 -13 -10 0 -5
-7 -10 -14 -10 -8 0 -28 -14 -44 -31 l-29 -31 5 53 c3 30 8 56 13 59 4 3 11
50 15 105 4 55 11 103 17 106 5 4 6 12 3 18 -8 13 -36 15 -36 2z"/>
<path d="M5310 530 c0 -5 -11 -12 -24 -16 -14 -3 -27 -12 -30 -20 -3 -8 -12
-14 -21 -14 -8 0 -15 -7 -15 -15 0 -8 -4 -15 -9 -15 -4 0 -11 -37 -14 -82 -3
-45 -10 -84 -16 -86 -16 -5 -14 -122 2 -123 6 -1 19 -2 27 -3 8 -2 35 -3 59
-4 l44 -2 -6 -66 -6 -67 37 7 c20 3 43 6 50 6 6 0 12 7 12 15 0 9 8 19 18 22
9 4 20 11 24 17 5 7 8 7 8 -1 0 -17 51 -17 84 1 27 14 116 104 116 118 0 4 5
8 10 8 6 0 10 6 10 13 0 6 7 25 15 41 9 16 18 68 21 115 7 100 -5 124 -69 136
-20 4 -40 11 -43 16 -7 12 -64 11 -64 -1 0 -5 -6 -10 -13 -10 -28 0 -103 -73
-110 -106 -3 -20 1 -26 27 -32 l31 -9 -34 -7 c-37 -9 -91 -52 -91 -73 0 -7 -4
-13 -10 -13 -13 0 -13 57 1 62 5 2 13 38 16 81 3 42 10 77 14 77 5 0 9 9 9 20
0 16 -7 20 -30 20 -16 0 -30 -4 -30 -10z"/>
<path d="M8120 532 c0 -5 -25 -19 -55 -33 -30 -13 -55 -30 -55 -37 0 -7 -5
-21 -12 -31 -13 -21 -4 -56 12 -46 6 4 22 8 35 11 23 4 25 1 25 -30 0 -28 -5
-37 -29 -47 -49 -22 -85 -109 -44 -105 24 2 28 -28 7 -49 -11 -10 -19 -38 -22
-71 -4 -52 -3 -54 20 -54 27 0 78 21 78 32 0 4 11 18 24 33 13 14 27 44 31 68
6 35 8 38 15 22 5 -11 9 -32 9 -47 1 -18 6 -28 16 -28 8 0 15 -4 15 -9 0 -5
11 -12 25 -15 14 -4 25 -11 25 -16 0 -6 20 -10 45 -10 25 0 45 5 45 10 0 6 5
10 12 10 18 0 158 153 158 173 0 9 5 17 10 17 6 0 10 31 10 72 0 61 -4 76 -26
105 -14 18 -34 33 -45 33 -10 0 -19 5 -19 10 0 6 -32 10 -75 10 -73 0 -113
-13 -138 -45 -4 -5 -7 4 -5 20 1 17 -1 36 -5 43 -9 13 -87 17 -87 4z"/>
<path d="M11500 515 c-37 -26 -60 -31 -60 -15 0 6 -18 10 -39 10 -22 0 -43 -4
-46 -10 -3 -5 -15 -10 -26 -10 -10 0 -19 -7 -19 -15 0 -8 -7 -15 -15 -15 -8 0
-15 -7 -15 -15 0 -8 -7 -15 -15 -15 -8 0 -15 -9 -15 -20 0 -11 -4 -20 -9 -20
-5 0 -12 -13 -16 -30 -4 -16 -10 -30 -14 -30 -3 0 -14 -15 -24 -33 -13 -24
-17 -50 -15 -98 l3 -64 43 -3 c24 -2 49 1 55 6 7 5 27 13 45 17 17 3 32 11 32
16 0 5 5 9 12 9 7 0 25 15 40 33 l28 32 0 -62 0 -63 33 1 c49 2 74 11 107 42
16 16 34 26 40 22 5 -3 10 1 10 9 0 9 7 16 15 16 8 0 15 3 15 8 0 4 12 21 28
37 25 27 27 37 31 124 l3 94 -38 33 c-32 29 -45 34 -88 33 -37 0 -61 -7 -86
-24z"/>
<path d="M4338 513 c-16 -2 -28 -8 -28 -13 0 -5 -10 -12 -22 -16 -35 -11 -56
-37 -60 -74 -3 -30 0 -35 21 -38 13 -2 28 1 34 7 15 15 40 14 31 -1 -4 -6 -8
-28 -9 -48 -3 -52 -68 -139 -105 -140 -8 0 -30 -13 -48 -29 -30 -27 -33 -34
-30 -78 l3 -48 141 0 c120 0 143 2 158 18 10 9 23 17 31 17 7 0 15 5 17 12 3
8 31 11 89 9 83 -2 86 -1 123 31 64 54 96 89 96 103 0 7 5 15 12 17 7 3 13 37
16 94 4 75 1 93 -13 107 -9 9 -25 17 -35 17 -10 0 -31 7 -46 15 -16 8 -47 15
-69 15 -36 0 -46 -6 -93 -55 -28 -31 -52 -62 -52 -70 0 -16 -38 -40 -48 -30
-3 3 -5 46 -3 95 l3 90 -44 -1 c-24 -1 -55 -4 -70 -6z"/>
</g>
</svg>
