<svg viewBox="0 0 423.36 581.76" xmlns="http://www.w3.org/2000/svg"><path d="M30.627 572.45c-1.648-.87-1.915-1.752-1.738-5.731.157-3.522.827-5.892 2.374-8.394.405-.656.737-1.311.737-1.456 0-.458 2.539-2.923 3.549-3.445 1.1-.569 2.895-.51 3.095.1.206.626-1.704 2.217-2.94 2.45-.953.178-1.221.447-1.923 1.93-1.216 2.571-1.78 5.122-1.78 8.047 0 3.671.365 4.082 3.78 4.237 2.498.113 2.576.094 3.139-.765.317-.484.757-1.903.976-3.152.466-2.654.557-9.032.133-9.295-.16-.099-.73.072-1.266.38-.696.398-1.073.46-1.32.214-.245-.246.11-.768 1.24-1.825 1.874-1.753 2.919-2.109 4.04-1.374.77.505.797.643.797 4.054 0 3.849-.45 7.44-1.137 9.087-.548 1.31-3.454 4.522-4.653 5.143-1.386.716-5.587.595-7.103-.205zm140.29-.727c-.193-.231-.316-.98-.274-1.663.076-1.235.068-1.244-1.363-1.516-.792-.15-1.764-.338-2.16-.416-.612-.12-.72-.345-.716-1.495.002-.745.218-2.146.48-3.114s.394-2.148.295-2.622c-.143-.677.044-1.1.88-1.984.583-.618 1.349-1.166 1.7-1.219.888-.132.99 1.328.309 4.394-.294 1.319-.452 2.612-.351 2.874.297.776 1.032.549 1.897-.586.463-.606 1.725-1.512 2.94-2.11 2.152-1.06 2.872-1.09 2.148-.092-.79 1.089-1.342 2.63-1.342 3.743 0 .918.154 1.196.797 1.44 1.706.65 2.22-.272 2.235-3.998.008-2.208-.004-2.241-.872-2.341-.484-.056-.88-.249-.88-.428 0-.204-.481-.246-1.28-.111-1.75.296-1.71-.406.113-1.899 1.708-1.4 3.367-1.535 5.04-.41 1 .673 1.095.879 1.184 2.588.156 2.996-.406 4.942-2.022 7-1.738 2.215-2.993 2.934-4.714 2.703-.95-.127-1.398-.025-1.844.42-1.014 1.015-1.806 1.318-2.2.843zm-69.077-.214c-1.101-.443-.926-1.663.406-2.833.62-.543 1.475-1.076 1.903-1.183 1.053-.264 1.802-1.503 1.873-3.096.058-1.315.055-1.318-1.157-1.367-2.272-.092-3.784-2.038-3.065-3.942.656-1.737 3.7-4.21 5.184-4.21 1.53 0 1.966 1.016 2.085 4.87.13 4.192-.28 5.586-2.192 7.453-1.554 1.518-1.68 2.238-.346 1.971 1.242-.248 3.304-2.239 4.365-4.213 2.08-3.87 5.408-5.936 7.315-4.54.742.542 1.006 2.854.528 4.628-.452 1.68-2.693 4.497-4.247 5.34-1.003.544-1.265.572-1.945.207-.606-.324-.945-.336-1.474-.053-.824.441-1.313.203-1.313-.641 0-.842-.38-.781-1.304.21-.427.456-1.165 1.032-1.64 1.28-.959.498-3.859.568-4.976.119zm13.718-4.73c.172-.452.27-1.478.217-2.28-.08-1.224-.209-1.476-.796-1.56-.508-.072-.837.162-1.191.846-.582 1.125-.98 3.354-.721 4.03.286.745 2.1-.01 2.491-1.036zm-9.638-7.9c0-.587-.17-.8-.64-.8-.67 0-.77.248-.446 1.093.31.81 1.086.6 1.086-.293zm26.96 12.602c-.589-.604-.495-1.08.429-2.178.942-1.12 1.417-1.204 2.557-.458.657.43 1.309.491 3.566.332 3.238-.228 4.111-.732 3.137-1.808-.47-.519-.984-.65-2.554-.65-1.082 0-2.123.156-2.315.348-.25.25-.41.246-.571-.014-.123-.199.158-.862.625-1.474.926-1.214 1.32-2.842 1-4.123-.172-.68-.392-.817-1.32-.817-.613 0-1.114-.082-1.114-.181 0-1.19 2.478-2.774 4.127-2.636l1.153.097.092 2.96c.088 2.837.122 2.96.819 2.96.915 0 1.446-.445 2.606-2.184 1.467-2.2 2.3-2.712 4.066-2.506 1.532.18 3.429.974 3.852 1.615.13.195.238 1.186.24 2.201.006 2.228-.73 3.556-3.195 5.774-1.394 1.253-1.878 1.5-2.935 1.5-.697 0-1.553-.153-1.903-.34-.515-.276-.985-.141-2.46.708-1.734 1-2.007 1.055-5.662 1.167-2.828.086-3.945.009-4.24-.293zm16.581-4.453c.506-.271.62-.68.62-2.248 0-1.76-.068-1.942-.815-2.226-2.15-.818-2.316-.782-2.726.587-.447 1.49-.222 2.696.668 3.586.707.707 1.337.791 2.253.3zm-78.955 3.665c-.227-.591.06-4.835.383-5.654.386-.983-.42-.612-1.912.88-.792.792-1.732 1.44-2.088 1.44-.357 0-.649-.055-.649-.122s.661-.966 1.469-2c.807-1.033 1.877-2.683 2.378-3.666 1.002-1.97 2.96-3.905 3.784-3.743.675.132.698 2.406.068 6.52-.246 1.6-.35 3.16-.232 3.467.194.505.313.477 1.212-.28.55-.462 1.395-1.045 1.88-1.296.486-.25 1.392-1.217 2.014-2.148 2.763-4.135 5.669-5.67 7.704-4.069.782.615.843.843.836 3.12-.008 2.952-.613 4.457-2.53 6.297-1.78 1.708-3.423 1.778-5.606.24-.811-.572-1.874-1.04-2.362-1.04-.494 0-1.762.568-2.857 1.28-2.093 1.36-3.175 1.6-3.492.774zm13.431-3.124c.09-.236.265-1.227.386-2.201.261-2.086-.154-3.13-1.244-3.13-.918 0-1.6.757-2.107 2.333-.443 1.381-.216 1.833 1.429 2.839 1.148.702 1.321.72 1.536.16zm172.38 2.898c0-.403.288-1.298.64-1.988.766-1.503.791-1.876.16-2.4-.69-.573-.61-.826.618-1.943.823-.75 1.093-1.252 1.077-2.008-.025-1.266-.457-2.13-1.066-2.13-.778 0-.528-.873.45-1.57 2.282-1.625 3.33-1.426 3.702.704l.213 1.214 1.281-1.015c2.18-1.727 5.463-1.695 7.268.07.936.914 1.017 1.16 1.017 3.068 0 2.695-.55 3.792-3.086 6.165-1.754 1.642-2.233 1.925-3.251 1.925-1.727 0-3.495-1.286-3.768-2.74-.172-.916-.34-1.116-.881-1.037-.484.07-.781.488-1.077 1.512-.493 1.71-1.544 2.905-2.553 2.905-.562 0-.744-.18-.744-.732zm11.662-3.5c.76-1.085.672-4.234-.142-5.048-.85-.85-1.34-.807-2.207.191-1.4 1.61-1.289 4.254.211 5.068 1.2.651 1.56.616 2.138-.21zm-4.473-4.441c.622-.546 1.131-1.122 1.131-1.28s-.507-.287-1.128-.287c-.928 0-1.185.151-1.453.855-.3.79-.214 1.705.16 1.705.087 0 .668-.447 1.29-.993zm-69.406 7.21c-.682-.682-.646-.84.425-1.866.881-.844 1.03-.878 2.986-.669 1.696.182 2.152.127 2.592-.313 1.093-1.094.51-2.265-1.226-2.46-1.493-.17-1.466-1.29.055-2.325 1.414-.96 2.01-1.013 3.494-.309 1.076.51 1.097.506 2.273-.526 2.406-2.112 5.037-2.685 6.342-1.38 1.606 1.606-1.653 7.034-5.383 8.962-1.22.632-3.106.32-3.334-.552-.218-.837-.588-.781-1.96.295-.642.502-1.481 1.078-1.866 1.28-1.046.548-3.799.462-4.398-.137zm13.841-5.207l.744-1.328-.845-.321c-.464-.177-1.042-.321-1.285-.321-.624 0-1.437 1.271-1.437 2.247 0 1.984 1.648 1.822 2.823-.277zm78.247 4.576c-.349-.91.185-2.846 1.17-4.242 1.242-1.763 1.345-2.629.373-3.127-1.78-.912-1.715-1.81.296-4.094 1.565-1.779 2.942-2.57 4.005-2.303.709.178.766.346.766 2.258 0 1.97.044 2.089.955 2.56.582.3 1.03.836 1.147 1.368.387 1.767.409 1.772 1.978.386 1.779-1.572 2.541-1.912 4.282-1.912 3.767 0 3.946 3.03.392 6.614-2.55 2.57-3.231 2.986-4.893 2.986-1.881 0-2.261-.388-2.261-2.304 0-.845-.078-1.536-.174-1.536-.096 0-.924.56-1.84 1.246-3.242 2.425-5.746 3.273-6.196 2.1zm13.946-3.23c.806-1.024.88-2.613.134-2.9-1.055-.404-3.246 2.742-2.457 3.53.487.488 1.703.159 2.323-.63zm-8.617-.116c.352-.352.638-.82.636-1.04-.01-.988-.434-1.84-.913-1.838-.654.003-1.963 1.881-1.963 2.818 0 .92 1.344.956 2.24.06zm-56.3 3.017c-.836-.362-1.33-.398-2.049-.147-.52.181-1.656.33-2.523.33-2.202 0-3.268-1.073-3.585-3.605-.125-1.004-.362-1.908-.525-2.009-.527-.325-.32-1.404.537-2.792 1.144-1.854 4.939-5.674 5.636-5.674.842 0 .69.8-.311 1.652-.742.63-1.68 2.452-1.68 3.262 0 .125.704.135 1.564.02.922-.122 2.031-.053 2.7.168.934.308 1.308.286 2.1-.124 1.984-1.025 4.95-.312 5.35 1.287.595 2.369-.598 5.5-2.699 7.089-1.545 1.167-2.746 1.312-4.516.543zm-1.594-3.426c.704-1.546-.684-3.077-2.48-2.737-.817.155-.974 2.043-.239 2.856.785.867 2.3.801 2.719-.12zm5.723-.04c.668-1.758-.755-3.549-1.763-2.219-.462.61-.626 2.402-.253 2.775.521.52 1.733.186 2.016-.556zm127.16 3.476c-.105-.272-.12-1.212-.036-2.09.084-.878.052-1.659-.072-1.735-.124-.077-.643.307-1.154.852-1.608 1.716-3.626 2.826-5.14 2.826-1.509 0-2.03-.542-2.03-2.114 0-1.386 1.914-4.948 3.521-6.556 1.633-1.633 2.775-2.018 4.04-1.363.775.403.962.359 2.322-.55 1.24-.83 1.702-.965 2.874-.838 2.046.22 2.71 1.043 2.927 3.619.22 2.627-.212 3.968-1.82 5.639-2.343 2.435-4.958 3.546-5.433 2.31zm4.038-3.326c.378-.707.439-3.532.086-4.04-.724-1.042-2.955-1.874-2.955-1.1 0 .175.453.32 1.008.32h1.007l-.192 2.72c-.157 2.222-.109 2.72.261 2.72.25 0 .603-.28.785-.62zm-7.4-.12c1.054-1.27.451-4.737-.663-3.813-.621.516-1.289 2.827-1.042 3.606.227.714 1.188.83 1.705.207zm-45.65 2.434c.057-.3.752-1.014 1.543-1.588 2.366-1.717 2.818-2.152 3.04-2.922.205-.713.166-.728-1.379-.523-1.379.183-1.684.116-2.303-.503-1.484-1.484.036-5.044 2.89-6.767 1.227-.74 1.67-.839 3.11-.687l1.68.176v2.179c0 1.198-.14 2.548-.312 3-.386 1.015-.181 1.028 1.082.067 2.406-1.828 4.75-2.323 6.2-1.309 1.94 1.359-.065 6.023-3.648 8.489-1.2.825-1.651.952-3.084.87l-1.678-.097.026-2.16c.014-1.188-.038-2.16-.116-2.16-.077 0-.911.705-1.853 1.566-1.627 1.486-4.028 2.914-4.901 2.914-.222 0-.356-.245-.298-.545zm12.573-3.28c1.106-2.137.157-4.206-1.167-2.545-1.341 1.682-1.592 2.194-1.39 2.834.34 1.068 1.95.886 2.557-.288zm-7.957-5.055c.628-.827.549-1.68-.155-1.68-.932 0-1.435.786-1.01 1.58.43.805.618.821 1.165.1zm30.38 8.263c-.1-.163.179-1.405.621-2.76.756-2.315 1.04-4.303.617-4.303-.104 0-1.724 1.44-3.6 3.2-3.172 2.974-4.532 3.807-4.532 2.777 0-.918 4.768-6.082 6.4-6.932.616-.32 1.536-1.14 2.046-1.82 1.3-1.737 2.355-2.489 2.881-2.052.58.48.277 4.793-.493 7.037-.327.952-.594 2.01-.594 2.352 0 .342-.49 1.111-1.088 1.71-1.077 1.076-1.903 1.366-2.258.791zm-307.18-7.25c-.107-.278-.194-3.086-.194-6.24v-5.733l-.88.011c-.484.006-2.032.221-3.44.477-6.32 1.151-16.26.879-19.204-.526-1.93-.92-2.168-1.63-.781-2.321.768-.384.921-.398.641-.061-.249.3-.26.51-.036.648.977.603 4.26 1.131 6.995 1.124 4.974-.013 8.568-.415 15.97-1.787.918-.17 1.197-1.605.912-4.687a264.802 264.802 0 01-.436-5.71c-.136-2.088-.389-3.594-.656-3.915-.304-.365-.368-.93-.213-1.887.12-.751.285-3.886.365-6.966.127-4.92.228-5.76.827-6.91.75-1.443.618-2.335-.386-2.598-1.06-.277-.806-1.537.47-2.325.846-.523 1.154-.967 1.297-1.867.103-.649.395-1.982.65-2.961.33-1.264.464-3.612.464-8.09 0-5.509-.104-6.822-.823-10.373-.827-4.087-1.138-4.876-1.917-4.876-.776 0-.765-.535.03-1.614.78-1.055.79-1.163.79-7.57 0-6.529.417-10.782 1.44-14.702.762-2.919.988-6.143.446-6.346-.245-.091-1.708-.212-3.25-.268-1.543-.056-2.96-.257-3.15-.447-.426-.426-.038-1.221 1.13-2.313.786-.736.942-.763 2.744-.465 3.033.502 2.972.628 2.71-5.586-.209-4.912-.308-5.554-1.27-8.21-2.806-7.74-3.153-9.105-3.293-12.96-.073-2.023-.28-3.86-.46-4.08-.18-.22-1.024-.4-1.886-.4-2.213 0-2.12-.812.31-2.68l1.869-1.44.189-12.9c.114-7.827.071-13.018-.11-13.203-.415-.422-.374-1.692.062-1.962.258-.159.311-1.973.186-6.339-.18-6.262-.498-9.494-1.405-14.276-.284-1.496-.63-3.683-.767-4.86-.386-3.288-.604-3.542-2.933-3.41-1.245.07-1.988-.02-2.066-.25-.206-.606 1.498-2.34 2.57-2.617 1.003-.258 1.016-.287 1.115-2.482.058-1.255-.182-3.89-.55-6.06-.727-4.28-1.643-12.389-1.635-14.48l.005-1.36h-1.28c-.704 0-1.28-.152-1.28-.337 0-.185.516-.81 1.147-1.387l1.147-1.051-.183-2.533c-.1-1.393-.27-7.42-.38-13.393-.16-8.919-.283-10.993-.68-11.6-.437-.666-.432-.821.055-1.563.427-.651.497-1.237.337-2.8a94.182 94.182 0 01-.306-4.056c-.242-4.842-.863-12.447-1.149-14.06-.17-.956-.308-3.422-.308-5.48 0-4.429-.13-4.648-2.581-4.358-1.264.15-1.65.087-1.795-.292-.258-.673 1.07-2.012 2.696-2.718l1.36-.59V257.2c0-4.59.126-6.632.492-7.932 1.359-4.832 1.742-6.598 2.205-10.153.502-3.857.676-10.132.308-11.09-.154-.402-.71-.506-2.7-.506-1.38 0-2.595-.141-2.701-.313-.63-1.02 2.137-3.065 3.688-2.724 1.808.397 1.907.067 1.91-6.362 0-3.19-.151-8.32-.338-11.401-.186-3.08-.44-7.472-.562-9.76l-.222-4.16-.883-.102c-.717-.082-.987.094-1.44.938-.861 1.605-2.96 3.792-4.29 4.47-1.669.852-4.083.817-5.216-.075-.84-.66-.867-.77-.658-2.72.147-1.375.106-2.031-.128-2.031-.19 0-.345-.35-.345-.779 0-.874 2.434-3.564 4.2-4.64 2.603-1.587 6.36-.354 6.36 2.087 0 1.266.48 1.401 1.667.468.746-.587.806-.868 1.012-4.716a49.32 49.32 0 011.17-8.256c.945-4.137 1.562-8.034 1.58-9.981.015-1.453-.705-2.023-2.553-2.023-.857 0-1.648-.144-1.757-.32-.31-.501 1.722-2.162 2.919-2.386.753-.141 1.128-.415 1.248-.908.095-.388.132-5.746.083-11.906l-.09-11.2-1.66-.167c-.913-.092-1.759-.266-1.88-.386-.396-.397.153-1.221 1.185-1.779 2.019-1.09 2.197-1.421 1.698-3.161-1.725-6.017-1.849-18.583-.28-28.344.172-1.065.105-1.23-.604-1.5-1.308-.498-1.282-.913.144-2.23l1.357-1.252.566-4.27c.422-3.188.569-6.563.58-13.31l.015-9.04h-.97c-1.408 0-1.553-.799-.367-2.022.911-.94.966-1.12.704-2.3-.646-2.896-1.342-11.018-1.548-18.078-.212-7.284-.24-7.517-.86-7.41-1.331.227-4.022-.187-4.534-.698C32.314 42.025 34.97 40 36.695 40c1.453 0 1.7-.497 1.7-3.416 0-2.602-.015-2.656-.934-3.131-1.21-.626-1.562-.486-5.945 2.357-3.068 1.989-3.358 1.38-1.16-2.438.89-1.547 1.875-3.521 2.189-4.388.356-.982 1.324-2.398 2.57-3.76 1.1-1.203 2-2.422 2-2.709s.171-1.09.38-1.784c.305-1.02.64-1.386 1.741-1.904 1.851-.87 2.494-.7 2.625.695.057.615.461 1.586.897 2.159.435.572.939 1.463 1.12 1.98.204.588.588.978 1.022 1.04.514.073 1.117.893 2.307 3.139.887 1.672 1.819 3.359 2.07 3.749.41.634.39.804-.192 1.6-.358.49-1.19 1.158-1.847 1.485-.999.496-1.415.54-2.52.259-.728-.185-1.44-.264-1.583-.176-.143.088-.26 1.161-.26 2.385 0 1.828.115 2.321.64 2.772.808.69.808 1.115 0 1.846-.351.318-.64.863-.64 1.211 0 .348-.315 1.143-.7 1.766-.696 1.127-.698 1.175-.337 8.358.345 6.883 1.326 15.038 1.993 16.584.29.67.51.72 3.198.72 2.648 0 2.887.052 2.887.624 0 .343-.482.991-1.07 1.44-.85.648-1.436.816-2.846.816-1.324 0-1.825.129-1.97.506-.107.279-.193 3.843-.191 7.92.003 7.296-.308 11.655-1.145 16.033-.233 1.22-.35 2.337-.262 2.48.089.144.501.262.916.262 1.068 0 1.768.318 1.768.805 0 .56-1.776 2.026-2.748 2.27-.913.23-.934.31-1.435 5.565-.583 6.105-.253 17.064.61 20.257.371 1.373.77 3.218.888 4.1.257 1.939.775 2.523 2.238 2.523.705 0 1.176.18 1.297.496.213.555-1.034 2.064-1.706 2.064-.233 0-.676.252-.984.56-.516.516-.553 1.462-.472 12.01l.088 11.45.952.19c1.18.236 1.196.62.072 1.794-.76.791-.952 1.411-1.402 4.497-.287 1.969-.915 5.092-1.396 6.94-.762 2.925-.88 4.022-.919 8.48l-.043 5.12h1.92c1.677 0 1.93.08 2.006.64.1.737-1.648 2.08-2.707 2.08-1.43 0-1.5.495-1.103 7.93.204 3.822.37 10.786.368 15.475-.004 9.587-.198 8.914 2.563 8.914.855 0 1.645.146 1.755.324.295.478-1.536 2.172-2.601 2.407-.507.112-1.08.25-1.273.308-.228.068-.424 2.013-.555 5.493-.202 5.36-.718 8.803-2.1 14-.586 2.205-.673 3.432-.673 9.514 0 7.797-.208 7.11 2.236 7.385.475.054.843.328.91.678.14.737-1.028 2.013-2.085 2.278-.798.2-.799.203-.66 3.467.077 1.797.374 6.219.66 9.827.287 3.608.633 8.576.77 11.04l.249 4.48h1.649c.907 0 1.755.103 1.883.23.441.433-.766 1.758-2.23 2.446l-1.462.687.003 7.759c.002 4.938.176 9.15.48 11.586.262 2.105.477 4.58.477 5.5 0 .993.163 1.775.4 1.923.22.137 1.204.21 2.187.162 1.236-.06 1.902.052 2.161.364.586.706-.665 2.073-2.122 2.319-2.543.428-2.417.248-2.195 3.14.24 3.103.673 6.414 1.492 11.403.333 2.024.665 5.1.738 6.835.094 2.22.265 3.238.576 3.435.244.154 1.204.283 2.133.286 2.717.008 2.58 1.448-.26 2.729-.698.315-1.284.73-1.3.924-.085.956.114 2.882.392 3.801.172.567.44 2.254.598 3.75s.446 3.872.642 5.28c.196 1.408.355 4.924.355 7.814-.001 2.89.14 5.517.312 5.84.237.443.688.586 1.838.586 1.763 0 2.42.447 1.949 1.326-.37.693-1.924 1.554-2.8 1.554-1.339 0-1.372.338-1.376 14.05-.002 7.226.086 13.285.197 13.464.11.18.845.326 1.632.326 2.483 0 2.078 1.863-.56 2.574-1.349.363-1.334.322-1.243 3.506.04 1.37.424 3.173 1.125 5.28 3.58 10.751 3.37 9.738 3.37 16.241 0 4.14.113 5.984.383 6.255.211.211.931.384 1.6.384.984 0 1.216.117 1.216.612 0 .67-1.703 2.268-2.418 2.268-.247 0-.514.324-.592.72-1.935 9.772-2.15 11.834-2.043 19.6l.093 6.72.96-.06a17.29 17.29 0 002-.277c2.055-.426.897 1.416-1.624 2.585-.996.462-1.19.694-1.034 1.24.869 3.053 1.17 6.616 1.149 13.548-.013 4.09-.146 7.762-.295 8.16-.15.398-.372 1.814-.496 3.146-.25 2.712-.128 2.947 1.74 3.338 1.574.328 1.986.72 1.573 1.49-.465.87-2.201 1.867-3.253 1.868h-.88v3.665c0 4.079-.39 6.426-1.386 8.336-.636 1.22-.663 1.687-.575 9.91.05 4.748.16 8.744.245 8.88.205.332 1.446.31 1.99-.035.332-.21.35-.427.08-.934-.2-.373-.354-2.283-.354-4.394 0-3.56.04-3.782.836-4.728.79-.94.824-1.121.625-3.406-.157-1.81-.1-2.563.23-3.013.519-.709 1.698-.478 1.972.386.097.305.197 2.817.223 5.584.035 3.783.146 5.03.446 5.03.671 0 .788-.833.788-5.586 0-3.248.14-4.969.48-5.934.288-.815.48-2.492.48-4.18 0-2.569.059-2.836.663-3.028 1.76-.558 2.544 2.443 2.527 9.67-.008 3.332-.123 4.567-.47 5.025-.6.793-.297 1.249.534.804.483-.259.751-.252 1.02.024.277.284-.015.708-1.196 1.739-1.213 1.059-1.607 1.643-1.764 2.614-.152.94-.367 1.275-.866 1.347-.365.052-.85-.13-1.079-.405-.366-.441-.63-.3-2.212 1.183-.988.926-1.85 1.81-1.915 1.962-.126.293 4.032.14 10.999-.405 4.808-.376 30.435-.474 40.345-.154l6.744.218.769-1.087c1.828-2.588 2.938-2.799 3.182-.605l.16 1.438 2.4.222c3.146.293 9.746.544 18.14.69l6.78.119.366-.884c.9-2.172 3.117-2.994 2.952-1.095-.046.521-.012 1.254.076 1.629.153.658.368.687 6.163.851 3.302.094 8.296.339 11.099.545 2.802.206 6.717.327 8.7.269 3.428-.101 3.649-.15 4.521-.986 1.356-1.3 2.292-1.078 2.039.486-.094.576 1.762.875 7.484 1.203 3.344.193 7.592.477 9.44.632 1.848.156 4.911.29 6.807.3l3.447.018 1.432-1.32c1.192-1.098 1.513-1.252 1.913-.92.265.22.481.652.481.96 0 .31.18.705.4.88.231.183 4.58.402 10.32.52 5.456.112 11.144.345 12.64.518l2.72.313 1.136-1.31c1.407-1.624 2.307-1.609 2.544.043l.16 1.117 13.899.083c10.907.066 13.954-.004 14.155-.32.14-.222.258-.86.261-1.419.006-1.19 1.364-2.984 2.26-2.984.52 0 .61.301.69 2.32l.095 2.32 4-.008c2.2-.004 5.584-.192 7.52-.416s6.256-.49 9.6-.592c5.159-.157 6.177-.27 6.72-.745a8.253 8.253 0 011.365-.933c.594-.307.752-.286.88.12.514 1.635.323 1.554 3.122 1.322 4.072-.337 15.962-1.397 20.233-1.804 2.112-.2 4.056-.48 4.32-.619.313-.165.45-.631.394-1.345-.11-1.395 1.84-3.873 2.925-3.718.625.09.68.294.68 2.497v2.4l1.6.114c1.724.122 11.379-.463 15.04-.912 1.233-.151 4.977-.451 8.32-.667l6.08-.392 1.165-1.102c1.26-1.191 2.356-1.3 2.356-.235 0 1.464-.344 1.434 16.43 1.434 14.816 0 16.033.042 17.66.61 2.376.826 10.795 1.106 10.56.35-.13-.42-.134-2-.01-3.76.022-.308-.055-.943-.172-1.411-.17-.683-.057-.954.57-1.365 1.475-.967 2.45-.309 10.08 6.802.925.861 1.68 1.804 1.68 2.095 0 1.319-3.143 3.447-10.304 6.976-1.538.757-2.66.739-3.456-.057-.996-.996-.786-1.587 1.28-3.595 1.105-1.075 1.75-1.92 1.52-1.994-.22-.07-2.56-.191-5.2-.269-4.036-.118-5.182-.268-7.2-.946l-2.4-.805-31.36.21-.708 1.113c-.797 1.253-1.97 2.19-2.406 1.92-.16-.098-.246-.776-.193-1.506l.098-1.328-1.596-.111c-1.544-.109-3.465.048-13.258 1.078-2.542.268-7.266.579-10.498.691l-5.875.205-.45.87c-.552 1.068-2.343 2.618-2.834 2.453-.198-.066-.36-.707-.36-1.425s-.094-1.4-.209-1.516c-.115-.116-2.42.01-5.12.28s-6.927.643-9.39.83c-8.177.616-11.837 1.021-12.24 1.354-.22.181-.4.585-.4.897 0 .65-2.032 2.554-2.726 2.554-.486 0-.725-.703-.868-2.56l-.087-1.12-6.595.056c-3.628.03-7.444.218-8.48.416-1.037.198-4.333.446-7.325.551-4.62.163-5.554.28-6.203.784-.985.766-1.52.751-1.73-.047-.164-.628-.436-.64-14.467-.64-13.043 0-14.384.05-15.254.56-.921.541-.97.539-1.423-.08-.387-.527-1.018-.684-3.576-.892-4.723-.383-21.915-.746-22.518-.475-.292.132-.977.685-1.522 1.23-1.113 1.113-1.736 1.098-1.894-.048-.059-.426-.214-.887-.345-1.023-.13-.137-2.818-.32-5.973-.408-3.154-.087-6.03-.223-6.391-.301-.806-.175-13.497-1.214-14.379-1.177-.35.014-.695.205-.768.424-.073.219-.665.969-1.316 1.667-1.563 1.676-2.24 1.464-2.24-.699v-1.562l-7.44-.229c-4.093-.125-8.449-.359-9.68-.518-1.233-.159-4.42-.293-7.083-.299l-4.843-.01-1.309 1.31c-.72.72-1.493 1.248-1.718 1.175-.224-.074-.48-.7-.568-1.39-.154-1.206-.216-1.264-1.6-1.488-.792-.127-6.192-.376-12-.552s-11.09-.41-11.74-.52c-1.092-.185-1.288-.09-2.635 1.297-1.66 1.707-2.525 1.812-2.693.325-.06-.526-.257-1.137-.44-1.357-.254-.307-3.328-.399-13.372-.399-13.973 0-13.466-.06-13.876 1.658-.251 1.053-2.167 3.142-2.882 3.142-.588 0-.638-.552-.214-2.379.575-2.48.789-2.422-8.879-2.41-5.604.006-9.706.168-11.909.47-1.848.252-4.61.464-6.14.47-1.528.004-3.134.145-3.57.31l-.791.301.178 5.769c.136 4.412.083 5.884-.229 6.26-.529.637-1.487.628-1.734-.017zm-14.603-364.92c.521-.329.706-3.304.277-4.462-.374-1.013-1.012-.815-2.467.763-2.057 2.232-1.724 3.98.76 3.993.527.003 1.171-.13 1.43-.293zm168.73 365.18c-1.732-.276-.146-2.005 2.554-2.783 1.01-.29 1.917-.663 2.02-.828.283-.459 1.106-.354 1.106.14 0 .352-2.617 3.081-2.955 3.081-.049 0-.52.114-1.047.253-.527.139-1.282.201-1.678.138zM60.567 536.16c-.61-.428-.713-.884-.885-3.92-.107-1.89-.224-4.901-.26-6.691-.061-2.984-.006-3.319.653-4.02.47-.5.72-1.165.72-1.907 0-.627.203-1.308.45-1.514.368-.305.602-.052 1.28 1.381.735 1.553.83 2.153.829 5.215-.001 2.443-.143 3.729-.48 4.376-.522 1-.661 4.364-.181 4.364.163 0 .802-.477 1.42-1.06 1.084-1.022 1.11-1.102.768-2.32-.612-2.176-.68-8.848-.103-10.227.34-.814.498-2.226.498-4.449 0-3.323.225-4.025 1.294-4.025.29 0 .794.297 1.122.659.524.579.612 1.366.728 6.53.114 5.04.059 5.978-.386 6.614-.319.455-.518 1.39-.518 2.429 0 1.931.39 2.137 1.95 1.027.88-.628.93-.785.93-3.001 0-1.31-.203-2.824-.46-3.44-.347-.83-.416-1.954-.282-4.599.097-1.924.16-4.756.14-6.292-.034-2.633.01-2.823.75-3.309.433-.283.872-.783.975-1.11.246-.774 1.427-1.158 1.792-.582.15.239.277 3.717.28 7.73.004 5.968-.086 7.47-.491 8.254-.323.625-.462 1.595-.4 2.784l.096 1.826 1.12.103c.616.057 1.235.215 1.376.352.427.416-1.92 2.218-3.199 2.458-1.945.365-3.857 1.356-4.583 2.375-.373.524-.862.952-1.087.952-.787 0-2.278.939-3.532 2.224-.696.713-1.348 1.296-1.45 1.296s-.494-.217-.874-.483zm340.63-3.072c-1.449-.812-1.35-1.404.889-5.302l2.13-3.709-.868-.691c-.544-.435-.823-.924-.748-1.317.097-.51.428-.643 1.782-.722 1.652-.095 1.677-.112 3.801-2.66 2.582-3.095 2.492-3.448-.735-2.88-6.855 1.203-7.47 1.205-8.097.033-.504-.942.116-1.837 1.527-2.208 3.023-.793 6.908-1.309 9.866-1.309 2.723 0 3.313.093 3.76.586.87.961.663 2.46-.527 3.814-1.429 1.625-3.104 3.809-3.104 4.047 0 .106.835.194 1.856.194 1.92 0 2.624.358 2.624 1.336 0 .95-1.3 1.478-4.218 1.712-2.261.182-2.891.35-3.387.908-.737.828-2.315 3.553-2.315 3.998 0 .194 1.892.36 4.829.423l4.828.103.772.898c.92 1.071.938 1.24.211 2.073-.518.596-1.067.656-7.44.814-4.206.104-7.096.05-7.436-.141zm-324.98-7.389c-.214-.214-.384-1.243-.384-2.33 0-1.097-.268-2.711-.613-3.697-.487-1.39-.617-2.668-.63-6.229-.009-2.464.134-5.128.32-5.92.184-.792.433-2.32.553-3.395.206-1.857.735-3.005 1.384-3.005.162 0 .649.354 1.08.786.758.757.786.944.786 5.136 0 3.27-.12 4.584-.487 5.293-.36.695-.45 1.608-.346 3.476.124 2.225.047 2.71-.633 3.987-.896 1.682-.994 3.409-.259 4.531.782 1.193.16 2.298-.77 1.367zm-25.923-.496c.06-.308.32-.56.58-.56.258 0 .519.252.578.56.076.393-.097.56-.579.56s-.654-.167-.579-.56zm28.602-1.12c.125-.396.728-1.506 1.341-2.468 1.008-1.58 1.081-1.844.756-2.742-.198-.547-.36-2.11-.36-3.473s-.141-2.743-.314-3.066c-.486-.907-.581-9.74-.138-12.849.476-3.341 1.126-4.762 2.181-4.762 1.165 0 1.464.656 1.398 3.066-.033 1.218.043 3.337.17 4.71.165 1.79.116 2.693-.173 3.2-.24.417-.493 2.597-.622 5.344-.12 2.552-.314 5.163-.43 5.803-.12.652-.077 1.246.098 1.354.17.105 1.49-.598 2.93-1.563 3.199-2.14 3.943-2.288 2.717-.538-.576.823-3.781 3.264-4.285 3.264-.185 0-.972.992-1.749 2.205-1.397 2.179-2.48 3.235-3.316 3.235-.3 0-.361-.218-.204-.72zm43.685-1.385c-2.08-1.75-.41-3.23 1.768-1.569.778.594 1.09 1.066 1.022 1.545-.15 1.056-1.549 1.068-2.79.024zm-100.32-4.855c.232-1.575 2.1-7.258 2.887-8.78.497-.96.59-1.86.19-1.86-.141 0-.931.9-1.755 2-2.27 3.034-4.288 5.04-5.07 5.04-.588 0-.23-.988.764-2.115.572-.647 2.48-3.053 4.24-5.345s3.607-4.468 4.105-4.834c.89-.654.913-.655 1.355-.051.752 1.026.322 2.803-2.619 10.807-.497 1.354-.806 2.56-.686 2.68.12.12.889-.374 1.709-1.096s2.05-1.56 2.734-1.86c.683-.302 1.242-.71 1.242-.908 0-.45 1.382-1.76 3.005-2.845 1.548-1.036 3.528-1.141 4.024-.214.749 1.399.157 4.601-1.177 6.368-1.823 2.415-4.484 2.968-7.049 1.465-.878-.515-1.677-.761-2.108-.65-.382.097-1.559.968-2.615 1.935-1.139 1.044-2.22 1.764-2.66 1.771-.7.011-.727-.066-.516-1.508zm12.96-4.46c.458-1.208.25-2.472-.427-2.6-.783-.15-2.797 1.157-2.797 1.812 0 .604 1.453 1.627 2.328 1.64.327.005.707-.357.895-.853zm26.123 3.42c-.092-.351-.037-.72.123-.818.16-.099.29.19.29.64 0 .98-.183 1.06-.413.179zm52.4-2.57c-1.797-1.044-5.587-4.456-5.587-5.03 0-.207.272-.522.604-.7.466-.25.826-.16 1.57.388 5.946 4.382 6.146 4.55 6.146 5.181 0 1.049-1.095 1.113-2.734.161zm-21.054-1.803c-.5-.5.003-1.122 4.173-5.152l4.393-4.245-1.202-1.195-1.202-1.195-.575.754c-.92 1.21-1.767.803-1.969-.945-.165-1.43-1.018-3.169-1.555-3.169-.669 0-1.265 2.934-1.425 7.008-.187 4.763-.482 5.544-1.82 4.828-.712-.381-.721-.46-.542-4.734.148-3.515.09-4.525-.3-5.28-.331-.64-.451-1.626-.382-3.132.08-1.706-.015-2.315-.422-2.721-.782-.783-1.3-.259-1.092 1.104.098.642.26 3.126.358 5.519.142 3.441.077 4.646-.311 5.76-.27.775-.493 1.72-.495 2.102-.008 1.18-.362 1.707-1.148 1.707-.88 0-1.417-.836-1.417-2.2 0-.53-.165-1.065-.366-1.189-.268-.165-.312-2.22-.164-7.619.245-8.98.402-10.342 1.244-10.792.535-.286.833-.117 1.996 1.132 1.525 1.637 2.09 1.831 2.09.717 0-.412.267-.992.593-1.287.451-.408.645-1.204.808-3.32.237-3.087.544-3.714 1.4-2.858.412.411.582 1.2.652 3.026.376 9.697.438 10.347.981 10.242.468-.09.535-.962.606-7.937.073-7.057.14-7.915.675-8.636.327-.44.85-.8 1.165-.8.314 0 .836.36 1.16.8.508.69.609 1.601.724 6.56.103 4.457.032 6.005-.315 6.84-.247.593-.449 2.046-.449 3.229v2.15l2.076 1.993 2.076 1.994 1.258-.707c.745-.419 1.486-.62 1.817-.492.488.187.425.352-.5 1.307-.989 1.02-1.033 1.156-.662 2.05.218.527.302 1.11.187 1.297-.314.509-1.485.41-2.137-.182-.54-.489-.71-.401-2.746 1.414a103.67 103.67 0 00-4.373 4.201c-2.205 2.267-2.463 2.452-2.862 2.053zm73.666-15.227c-.21-.396-.648-1.192-.971-1.77-1.15-2.052-.508-2.863 1.009-1.275 1.255 1.313 2.022 2.727 1.796 3.314-.268.7-1.407.532-1.834-.269zm-56.164-.718c.39-1.016 3.503-4.585 4.986-5.716a58.889 58.889 0 002.628-2.131c1.037-.914 1.995-1.211 2.303-.713.24.389-.782 1.43-2.672 2.72-.968.66-2.48 2.079-3.36 3.15-1.638 1.997-3 3.168-3.684 3.168-.211 0-.302-.215-.2-.478zm-8.37-1.186c-.212-.211-.385-.77-.385-1.24 0-.472-.223-1.392-.496-2.045-.42-1.004-.476-2.578-.367-10.212.077-5.381.264-9.278.462-9.652.184-.345.437-1.882.564-3.416.277-3.345.668-4.078 1.882-3.525l.835.38.045 4.248c.025 2.335.083 6.764.13 9.842.066 4.418-.015 5.786-.386 6.503-.354.685-.449 1.888-.386 4.907.066 3.206-.01 4.057-.38 4.292-.63.398-1.063.375-1.519-.082zm57.502-7.028c-2.396-2.682-3.803-4.694-3.805-5.438-.003-1.038 1.274-.202 4.32 2.83 2.46 2.447 3.039 3.201 3.039 3.961 0 .773-.134.94-.754.94-.53 0-1.359-.679-2.8-2.293zm-52.572.826c-.107-.278-.194-.99-.194-1.581s-.127-1.154-.283-1.25c-.437-.27-.725-3.428-.41-4.503.154-.528.185-1.703.068-2.611-.207-1.604.126-11.927.478-14.829.33-2.724.406-2.88 1.394-2.88 1.655 0 1.704.264 1.723 9.356.024 11.05-.368 17.487-1.12 18.404-.46.56-1.424.499-1.656-.106zm-83.459-1.815c-1.116-.882-2.125-1.395-2.968-1.508-1.706-.228-1.76-.846-.222-2.592 2.069-2.351 2.615-3.658 2.615-6.255 0-2.718-.337-3.188-1.897-2.644-2.543.886-1.594-1.393 1.097-2.635 2.965-1.368 4-.584 4 3.03 0 2.8-.401 3.992-2.087 6.2-1.047 1.37-1.109 1.556-.616 1.845.302.176 1.26.871 2.129 1.546.902.7 1.783 1.147 2.053 1.044.26-.1.825-.978 1.255-1.951 1.81-4.094 5.695-6.59 8.183-5.26 2.87 1.537-.455 7.661-4.16 7.661-.525 0-1.316-.137-1.757-.305-.695-.264-1.031-.117-2.51 1.101-2.729 2.246-3.118 2.301-5.115.723zm11.495-5.242c.184-.56-.873-1.442-1.597-1.334-.931.14-1.496 1.142-.872 1.55.618.404 2.314.256 2.47-.216zm77.202.982c-.172-.451-.312-1.43-.312-2.176 0-.745-.149-1.504-.33-1.685-.383-.383-.2-20.543.269-29.718l.295-5.76-2.326-2.304c-1.878-1.86-2.368-2.551-2.543-3.588-.12-.707-.125-1.434-.012-1.616.43-.696 1.116-.285 1.45.868.442 1.527 2.838 3.6 4.16 3.6.506 0 1.033.18 1.173.4.532.838.833 4.825.913 12.08.045 4.136.173 9.857.283 12.715.165 4.26.114 5.404-.285 6.359-.61 1.458-.611 2.055-.01 3.21.61 1.168.616 2.698.013 3.495-.259.342-.475 1.273-.48 2.07-.017 2.415-1.58 3.834-2.258 2.05zm-32.508-.294c-1.531-.918-3.004-2.714-3.004-3.664 0-1.01.581-.803 2.41.86.92.835 2.003 1.746 2.407 2.023.485.333.664.687.529 1.04-.28.728-.79.671-2.342-.259zm37.814.084c-.415-.593-.498-1.923-.498-8.021 0-4.375-.132-7.556-.328-7.922-.377-.704-.497-18.323-.139-20.318.587-3.268 3.153-3.104 3.578.227.19 1.494.597 2.505 1.009 2.505.332 0 1-5.425 1-8.12 0-2.686.387-3.72 1.393-3.72 1.494 0 1.627.574 1.876 8.126.128 3.89.312 7.398.408 7.794.25 1.032 1.443.982 1.443-.061 0-.43-.144-.87-.32-.98-.196-.12-.32-2.714-.32-6.713 0-6.484.004-6.522.8-7.468.44-.523.8-1.242.8-1.598 0-1.127.365-1.66 1.135-1.66.411 0 .837.145.947.322.11.178.26 2.346.335 4.819.107 3.52.032 4.746-.346 5.65-.398.951-.457 2.467-.34 8.7.157 8.328-.113 11.026-1.158 11.585-1.11.594-1.36-.093-1.267-3.482.066-2.392-.027-3.263-.4-3.754-.267-.352-.49-.936-.496-1.296-.015-.97-.625-1.46-1.339-1.078-.55.294-.591.855-.591 7.967 0 7.538-.01 7.658-.71 8.147-.637.447-.76.447-1.2.007-.367-.367-.467-1.051-.4-2.724.055-1.343-.105-2.896-.401-3.894-.368-1.237-.486-3.07-.464-7.182.016-3.036-.063-5.67-.177-5.854a.787.787 0 00-.601-.333c-.304 0-.365 1.361-.262 5.913.109 4.852.04 6.199-.386 7.5-.418 1.278-.519 3.028-.519 8.988 0 4.49-.13 7.644-.331 8.02-.439.82-1.118.783-1.73-.092zm10.382-1.35c0-.254.828-1.1 1.84-1.88 1.838-1.416 5.323-4.956 7.44-7.555 1.417-1.74 4.926-4.276 5.675-4.101.445.103.192.481-1.195 1.782-.968.908-1.863 1.76-1.99 1.893-6.085 6.426-10.388 10.322-11.4 10.322-.203 0-.37-.208-.37-.461zm21.244-5.699c-1.073-.924-2.764-2.372-3.758-3.218-1.815-1.546-2.284-2.619-1.308-2.993.569-.218 2.434 1.027 5.742 3.831 2.374 2.013 2.92 2.758 2.61 3.562-.337.88-1.289.538-3.286-1.182zm-52.163-.065c-.246-.64.12-1.135.838-1.135.8 0 1.109.556.629 1.134-.496.598-1.238.598-1.467 0zm25.878.253c-.58-.234-.49-1.373.126-1.61.722-.277 1.52.805 1.03 1.396-.373.45-.51.475-1.156.214zm-30.743-.641c.156-.803.904-.913.904-.134 0 .393-.207.667-.504.667-.298 0-.461-.218-.4-.533zm36.294.263c-.11-.18-.045-.422.145-.54.492-.304.81.113.399.523-.23.23-.409.236-.544.017zm-57.967-1.284c-.695-.515-2.391-2.082-3.77-3.484-2.129-2.165-2.49-2.687-2.4-3.475.078-.674.301-.955.82-1.028.811-.116 2.967 1.38 2.967 2.058 0 .63 2.177 2.955 3.617 3.864 1.054.666 1.207.91 1.122 1.792-.132 1.353-.795 1.43-2.356.273zm57.284-2.184c-1.142-1.142.11-4.54 1.378-3.742.68.427.836 1.13.57 2.548-.258 1.377-1.192 1.95-1.948 1.194zm76.456-6.165c-2.915-2.209-3.038-2.335-2.941-3.015.158-1.112 1.226-.954 3.617.536 2.264 1.41 2.989 2.532 2.028 3.141-.747.473-1.425.307-2.704-.662zm-67.324-.118c-2.573-1.344-3.93-2.337-4.79-3.507-1.056-1.435-1.158-1.836-.61-2.385.528-.527 1.5-.044 3.181 1.579.803.775 2.017 1.699 2.698 2.052 1.572.816 2.029 1.494 1.463 2.175-.51.615-.896.632-1.942.086zm13.563-2.28c-.238-.62 1.049-1.87 3.717-3.608.968-.631 2.577-1.846 3.575-2.7 1.932-1.651 2.505-1.882 2.505-1.007 0 .639-2.385 2.971-4.278 4.184a47.836 47.836 0 00-2.442 1.69 40.723 40.723 0 01-1.997 1.408c-.81.52-.892.523-1.08.033zm-17.387-4.31c-.187-.35-.34-3.304-.358-6.925-.024-4.978-.135-6.533-.524-7.349-.43-.901-.444-1.584-.111-5.314.21-2.355.48-6.843.6-9.973.17-4.447.319-5.755.68-5.978.564-.347 1.478.092 1.924.925.18.336.407 4.774.517 10.114.175 8.506.139 9.64-.344 10.71-.496 1.102-.498 1.276-.03 2.183.6 1.158.673 3.96.131 4.959-.223.413-.345 1.723-.297 3.2.06 1.858-.05 2.703-.428 3.28-.613.935-1.314 1.002-1.76.168zm-104.26-.203c-2.307-.97-2.84-4.92-.955-7.07 1.891-2.156 3.343-2.996 5.184-2.996.906 0 1.82.173 2.032.384.608.608.471 4.163-.222 5.75-.73 1.674-2.752 3.692-4.078 4.073-.652.187-1.291.14-1.961-.14zm3.453-3.527c.353-.928.407-2.397.118-3.153-.24-.622-2.006-.68-2.811-.091-.543.396-.542.47.006 1.68 1.118 2.467 2.121 3.051 2.687 1.564zm-15.048 3.258c0-.728 2.48-2.757 3.37-2.757.446 0 .893-.216.994-.48.582-1.517-1.44-4-3.26-4-.586 0-1.155-.143-1.262-.317-.108-.174.312-.982.933-1.796 1.612-2.111 1.98-4.628.711-4.872-.322-.063-1.49.332-2.595.876-3.115 1.533-3.668 1.216-1.371-.787 1.868-1.63 5.108-3.085 6.591-2.961l1.169.097.097 1.863c.079 1.53-.05 2.113-.72 3.257-.45.767-.817 1.47-.817 1.562 0 .092.502.406 1.115.697 1.937.92 3.029 3.585 2.41 5.884-.32 1.188-1.645 2.507-3.632 3.617-1.23.687-3.733.765-3.733.117zm85.44-.037c0-.293.155-.482.344-.419.189.063.344.252.344.42s-.155.355-.344.418c-.19.063-.344-.126-.344-.419zm-43.694-2.217c-.48-.732-.452-.913.485-3.12.548-1.288 1.214-2.703 1.482-3.143s1.207-2.283 2.086-4.095c1.795-3.701 2.704-4.517 3.79-3.402.522.537.608 1.199.663 5.097.103 7.286.04 8.383-.515 8.937-1.095 1.096-2.128.38-2.36-1.634-.16-1.396-.261-1.552-1.062-1.644-.788-.091-.969.08-1.658 1.567-1.104 2.384-2 2.827-2.911 1.437zm28.358-.386c-.365-.464-.663-.968-.663-1.12 0-.152-1.412-.277-3.136-.277-4.744 0-4.914-.47-1.658-4.59 2.324-2.941 2.675-3.671 2.499-5.211-.077-.67-.278-.919-.745-.919-.49 0-.664.247-.742 1.058-.115 1.194-.777 1.621-1.536.991-.577-.479-.453-2.546.201-3.333.479-.577 2.293-.932 3.376-.66 1.18.296 1.864 2.096 1.636 4.304-.146 1.415-.44 2.06-1.637 3.602-.802 1.034-1.458 2.023-1.458 2.198 0 .558 2.362.34 3.345-.307 1.21-.798 1.775-.383 1.775 1.306 0 1.075.096 1.241.723 1.241 1.151 0 2.477-1.444 2.477-2.699 0-1.19-.389-1.461-2.095-1.461-.784 0-1.186-.192-1.455-.695-.519-.97.346-1.545 2.326-1.545 1.221 0 1.734.18 2.516.88.892.798.986 1.067 1.011 2.891.023 1.7-.091 2.14-.738 2.838-2.186 2.363-4.829 3.025-6.022 1.508zm-15.59-.115c-.378-.152-.775-.418-.881-.59-.31-.503.13-1.29.85-1.518l.665-.21-.647-.522c-.356-.287-.733-.767-.838-1.067-.278-.795 1.346-2.027 3.285-2.492 1.4-.336 1.733-.318 2.418.131.437.287.795.734.795.994 0 .643-1.152 1.75-1.84 1.766-.308.007-1.064.302-1.68.656l-1.12.643 2.36-.183c1.552-.12 2.51-.057 2.8.183.542.45.573 1.626.056 2.143-.446.446-5.158.496-6.223.066zm122.77-2.427a615.998 615.998 0 00-3.44-2.89c-1.377-1.144-1.895-2.685-.903-2.685.61 0 5.787 3.49 7.325 4.938 1.444 1.359 1.464 2.23.055 2.33-.747.052-1.413-.319-3.037-1.693zm-56.446.959c-.107-.278-.194-3.789-.194-7.801 0-5.954-.094-7.52-.511-8.517-.374-.894-.457-1.741-.313-3.159.11-1.065.21-3.737.224-5.937.024-3.642.094-4.1.778-5.12.649-.967.772-1.622.906-4.8.086-2.024.165-3.788.176-3.92.037-.451.88-.24 1.418.354.488.54.524 1.636.393 11.92-.172 13.534-.166 12.831-.153 15.726.017 3.835-.61 10.813-1.017 11.302-.506.61-1.465.583-1.707-.048zm26.366-4.448c0-.54 8.435-9.178 9.499-9.726.993-.512 1.469-.46 1.142.124-.149.266-2.071 2.32-4.272 4.566-5.192 5.299-6.37 6.23-6.37 5.036zm-20.937-1.949c-.277-.276-.508-.816-.514-1.2-.006-.383-.218-1.057-.47-1.497-.614-1.075-.595-3.007.04-4.237.457-.883.47-1.27.11-3.181-.838-4.443-.346-24.26.664-26.742.19-.465.565-.72 1.06-.72 1.346 0 1.642.774 1.702 4.449.198 12.235.153 16.624-.178 17.242-.233.435-.357 3.224-.357 8.025 0 6.262-.075 7.433-.503 7.86-.276.278-.626.504-.777.504-.15 0-.5-.226-.777-.503zm-55.377-.977c-.373-.372-.459-.803-.305-1.52.354-1.65.727-2.082 1.983-2.295a34.03 34.03 0 002.316-.492c2.515-.65 4.16-.237 4.16 1.044 0 .842-1.2 1.441-3.357 1.677-1.528.167-2.116.402-2.896 1.158-1.136 1.101-1.211 1.118-1.901.429zm60.526-1.96c-.08-.132-.252-3.041-.382-6.465-.133-3.487-.406-6.653-.621-7.2-.349-.886-.399-7.511-.196-26.15.023-2.167.126-2.574.872-3.46l.845-1.005-1.165-1.194c-1.226-1.255-1.558-2.606-.641-2.606.288 0 1.418.785 2.51 1.743 1.092.96 2.162 1.787 2.378 1.84.296.073.41-1.345.468-5.823.05-3.837.21-6.166.458-6.618.474-.87 1.444-1.2 2.25-.77.509.273.678.944.992 3.938.21 1.986.343 4.978.297 6.65-.174 6.391.023 11.52.442 11.515 1.488-.018 1.908-2.157.89-4.525-.546-1.267-.662-1.967-.494-2.964.12-.719.268-4.855.326-9.192.09-6.562.196-8.059.636-8.91.401-.776.524-1.858.508-4.483-.012-1.903-.111-3.692-.22-3.976-.337-.879.5-2.425 1.314-2.425 1.545 0 1.542-.031 1.548 16.574.003 8.572-.009 16.126-.026 16.786-.017.66-.01 1.956.014 2.88.025.924-.063 1.905-.196 2.18-.163.336.153 1.014.97 2.08l1.21 1.58.098-1.521c.064-.994-.075-1.767-.4-2.231-.62-.885-.63-3.338-.017-4.408.68-1.191.67-8.405-.014-8.972-.734-.609-.477-23.014.28-24.468.276-.528.578-1.219.673-1.536.148-.494.347-.404 1.416.64l1.244 1.216-.122 12c-.068 6.6-.23 15.837-.36 20.527-.216 7.749-.293 8.589-.848 9.202-.556.613-.572.791-.18 1.98.336 1.019.347 1.439.05 1.914-.538.862-.47 4.259.112 5.654.356.851.407 1.4.184 1.99-.532 1.41-.761 3.268-.83 6.733-.086 4.357-.096 4.445-.463 3.866-.158-.25-.282-2.062-.274-4.026.007-1.964-.127-3.847-.299-4.185-.202-.4-.2-2.131.004-4.935l.316-4.32-1.245-1.996c-.685-1.098-1.389-1.95-1.565-1.894-.192.062-.346 2.193-.384 5.353-.036 2.888-.143 5.56-.238 5.939-.252 1.004-1.185 1.25-1.811.476-.451-.556-.505-1.555-.412-7.62.11-7.183-.053-8.54-1.138-9.523-.566-.512-.61-.505-.815.14-.119.374-.117 1.875.005 3.334.177 2.128.12 2.849-.293 3.646-.416.804-.514 2.092-.514 6.762v5.768l-.8.524c-.44.289-.812.76-.827 1.048-.015.288-.167.091-.338-.437-.17-.528-.338-3.638-.373-6.912-.047-4.418-.174-6.085-.491-6.467-.302-.364-.411-1.436-.372-3.648.14-8.026.013-10.885-.505-11.315-.416-.345-.552-.338-.79.042-.16.253-.206.724-.106 1.048.308.988.358 11.636.075 16.051-.146 2.288-.353 8.55-.459 13.916-.106 5.366-.329 10.01-.494 10.32-.302.564-1.393.776-1.667.324zm34.118-3.195c-1.37-1.186-2.666-2.374-2.88-2.64-.56-.696-.499-1.605.108-1.605.593 0 6.519 4.42 6.756 5.04.193.502-.478 1.36-1.063 1.36-.237 0-1.552-.97-2.921-2.155zm-64.73-.066c0-.166.144-.39.32-.499s.32.027.32.301c0 .275-.144.499-.32.499s-.32-.135-.32-.301zm41.28-.019c0-.176.135-.32.3-.32s.391.144.5.32c.109.176-.027.32-.301.32-.275 0-.5-.144-.5-.32zm-46.038-5.253c.05-3.614.574-4.15.651-.667.03 1.32.066 2.64.08 2.933.015.294-.153.594-.373.667-.304.101-.39-.606-.358-2.933zm40.084 1.333c.366-1.844 2.694-2.944 2.512-1.187-.09.874-1.437 2.227-2.216 2.227-.396 0-.459-.22-.296-1.04zm25.794-2.922c0-.21.9-1.32 2-2.467s3.064-3.446 4.366-5.108c2.352-3.006 3.612-4.26 4.697-4.676.876-.336.475.382-2.19 3.923-4.015 5.335-8.873 9.895-8.873 8.328zm-25.383-.425c-.096-.156-.059-.472.084-.702.196-.319.315-.328.495-.037a.6.6 0 01-.084.702c-.18.179-.397.195-.495.037zm4.71-1.184c-.226-.588.662-2.295 1.327-2.55 1.65-.633 1.925.478.497 2.007-1.01 1.082-1.556 1.244-1.825.543zm-60.048-3.842c-1.364-1.485-2.48-2.838-2.48-3.009 0-.478.945-.728 1.544-.408.295.158 1.447 1.236 2.56 2.395 1.473 1.535 1.994 2.303 1.92 2.828-.192 1.342-1.056.901-3.544-1.806zm72.67-1.537c-3.293-3.342-3.938-4.2-3.674-4.888.264-.688.685-.6 1.708.355.493.46 2.157 1.928 3.697 3.262 2.278 1.973 2.8 2.592 2.8 3.323 0 .748-.136.898-.813.898-.602 0-1.568-.766-3.719-2.95zm-149.07-2.09c.001-.484.206-1.55.455-2.37.25-.82.368-1.577.263-1.68-.104-.105-.803-.19-1.555-.19-1.507 0-3.022-.473-3.396-1.06-.813-1.28.146-4.365 3.293-10.592.943-1.866 2.343-3.069 2.91-2.501.284.284-.029 1.273-1.312 4.143-.926 2.074-1.848 4.17-2.047 4.658-.519 1.273.019 1.969 1.613 2.088 1.01.076 1.5-.085 2.293-.752.995-.837 1.97-.874 1.947-.074-.01.376-.286 1.626-1.277 5.772-.599 2.504-3.196 4.589-3.188 2.558zm101.33-.296c-.116-.116-.211-.403-.211-.637 0-.477.825-.584 1.097-.143.218.352-.597 1.07-.887.78zm4.909-.584c0-.33.21-.487.56-.42.674.13.632.699-.063.843-.29.06-.497-.116-.497-.423zm-99.627-1.013c-.118-.118-.214-.855-.214-1.638 0-1.233.171-1.595 1.269-2.693 1.428-1.428 1.931-1.365 1.931.243 0 .606.148 1.101.328 1.101.908 0 1.265-4.25.451-5.363-.347-.475-.576-.497-1.788-.172-2.173.584-2.329-.018-.44-1.694 1.451-1.286 1.74-1.411 3.27-1.411 1.33 0 1.745.128 2.008.619.56 1.045.39 5.143-.273 6.602-.732 1.611-2.397 3.54-3.587 4.155-.931.482-2.584.622-2.955.25zm186.43-1.62c-.76-.267-.507-5.683.41-8.743 1.959-6.54 2.346-7.927 2.688-9.604.403-1.983 1.79-3.82 2.884-3.82.75 0 .809.279.294 1.407-.313.689-.249.934.475 1.794.503.597 1.296 2.462 1.981 4.657 1.553 4.975 1.742 4.907 2.587-.927.578-3.987.966-4.978 2.325-5.946 1.286-.916 2.102-.89 1.801.055-.25.785-.376 1.414-1.622 8.08l-1.248 6.672c-.335 1.79-.617 2.4-1.533 3.315-.85.851-1.286 1.07-1.802.906-.374-.119-.68-.395-.68-.614 0-.79-3.228-10.439-3.493-10.439-.49 0-.987 2.792-.987 5.534 0 2.832-.344 4.3-1.342 5.734-.763 1.095-2.215 2.125-2.738 1.94zm20.4-2.97c-.616-.335-1.643-.616-2.281-.624-1.838-.02-2.112-.702-.76-1.89.623-.546 1.462-1.076 1.864-1.177.834-.21 4.123.926 4.883 1.686.46.46.424.583-.4 1.384-1.235 1.198-1.988 1.34-3.306.621zm-145.96-1.965c-2.923-3.888-3.24-4.4-3.05-4.898.313-.812 1.042-.24 3.558 2.794 2.45 2.954 3.042 4.392 1.812 4.392-.371 0-1.258-.874-2.32-2.288zm157.79 1.408c.44-1.459 1.161-2.997 2.563-5.47.732-1.293 1.261-2.533 1.176-2.756-.12-.314-.568-.335-1.97-.094-2.088.36-2.698.068-2.044-.978.595-.953 2.603-1.982 3.867-1.982.602 0 1.374-.207 1.716-.46.55-.408.566-.513.141-.917-.479-.455-4.209-1.183-6.061-1.183-1.315 0-1.312-.943.006-2.052.719-.605 1.344-.826 2.32-.822 2.044.009 6.709.913 7.01 1.358.26.384.159 1.605-.248 2.99-.164.561-.031.71.788.873 1.933.387.673 2.503-1.763 2.96-.748.14-1.272.513-1.696 1.208-.911 1.495-1.956 3.404-1.956 3.575 0 .309.896.133 1.916-.376.58-.29 2.042-.597 3.25-.683 2.06-.147 2.194-.116 2.194.51 0 1.15-1.89 2.299-3.783 2.299-2.01 0-4.052.75-5.352 1.967-.536.502-1.282.913-1.658.913-.595 0-.648-.112-.416-.88zm-51.191-2.007c0-.476 2.286-2.855 3.992-4.153.81-.616 2.788-2.452 4.397-4.08 2.654-2.685 4.09-3.593 4.09-2.585 0 .598-3.998 4.538-8.096 7.976-3.648 3.062-4.383 3.538-4.383 2.842zm35.52-3.44c0-1.756 1.87-2.567 6.181-2.68 4.09-.107 4.627.169 3.168 1.627-.886.886-1.174.98-3.005.982-1.113 0-2.996.095-4.184.207-1.44.136-2.16.09-2.16-.136zm-175.32-2.393c-.415-1.114.13-9.103.77-11.28.645-2.2 2.46-6.068 3.26-6.952.355-.393.877-.566 1.517-.503 2.266.221 5.108 6.945 4.99 11.804-.024.983.102 2.694.28 3.801.359 2.225.08 3.21-.905 3.21-.99 0-1.287-.73-1.51-3.705-.119-1.57-.373-2.96-.567-3.09-.58-.388-3.015-.274-3.28.153-.134.219-.655 1.623-1.157 3.12-1.09 3.252-1.634 4.163-2.49 4.163-.37 0-.753-.303-.908-.72zm3.256-10.16c.1-.382.437-.64.835-.64.367 0 .847.288 1.067.64.503.806 2.322.887 2.618.117.11-.287.107-1.043-.008-1.68-.284-1.571-1.92-5.157-2.354-5.157-.573 0-2.89 5.428-2.89 6.768 0 .791.522.757.733-.048zm109.73 10.496c-.223-.224-.384-1.296-.384-2.57 0-1.22-.212-2.694-.48-3.335-.606-1.452-.601-3.603.01-4.412.609-.804.6-2.092-.02-2.976-.43-.614-.469-2.69-.32-16.951.093-8.939.164-20.136.157-24.884-.007-4.764.163-10.238.38-12.215.324-2.96.317-3.812-.043-4.903-.576-1.744-.163-3.05.964-3.05.725 0 .8.137.888 1.6.068 1.127.28 1.742.717 2.08.598.462.628 1.126.777 17.6.199 22.071.177 26.267-.138 26.867-.214.407-.649 17.423-.626 24.534.004 1.388-.146 2.113-.513 2.48-.62.62-.86.643-1.369.135zm-81.024-1.216c-1.02-1.021-.783-4.85.34-5.45 1.175-.63 1.645-.047 1.528 1.895-.098 1.643-.048 1.804.594 1.895 1.307.186 2.043-2.299 1.494-5.045-.38-1.901-2.852-2.021-3.692-.18-.384.844-1.372 1.09-1.619.405-.253-.704.357-2.332 1.154-3.08.61-.575 1.184-.738 2.753-.783 1.826-.052 2.044.016 2.789.88.77.895.802 1.087.682 4.16-.138 3.545-.577 4.633-2.214 5.48-1.295.67-3.043.588-3.808-.177zm-8.746-.853c-.757-.757.369-2.135 1.639-2.008 1.99.2 2.023.159 1.921-2.339l-.094-2.32-1.24-.102c-.683-.056-1.645.065-2.137.27-1.956.81-3.055-.543-1.926-2.37.365-.59.663-1.447.663-1.904 0-1.052.48-1.298 3.84-1.97 3.633-.728 3.86-.733 4.273-.09.558.867-.342 1.496-2.681 1.872-2.143.345-2.872.714-2.872 1.453 0 .275.355.441.94.441 2.705 0 3.54 1.275 3.54 5.406 0 2.611-.065 2.924-.71 3.376-.722.505-4.715.726-5.156.285zm58.866-.599a.512.512 0 01.307-.682c.598-.23 1.251.34.95.826-.314.508-1.039.425-1.257-.144zm5.465.29c-.504-.504-.205-1.12.495-1.02.396.056.72.316.72.578 0 .508-.843.815-1.215.442zm-70.304-.438c-.264-.17-.859-.312-1.321-.315-.934-.005-1.643-.641-1.301-1.166.377-.578 1.946-.793 3.24-.444 1.182.318 1.622.803 1.622 1.791 0 .525-1.497.615-2.24.134zm-2.377-5.622c-1.116-1.116.865-2.37 3.002-1.901 1.063.233 1.554 1.224.962 1.939-.535.644-3.309.617-3.964-.038zm103.19-.757c-.188-.35-.331-2.785-.331-5.62 0-2.949-.141-5.266-.343-5.644-.479-.894-.486-3.807-.011-4.693.323-.605.297-.99-.146-2.152-.473-1.239-.516-2.304-.34-8.543.112-3.921.207-12.552.214-19.182.011-11.476.042-12.091.639-12.85.345-.439.627-1.243.627-1.787 0-.781.137-.99.65-.99.793 0 1.118.718.678 1.5-.25.446-.175.741.323 1.273.63.672.65 1.067.636 12.8-.008 6.66.11 13.475.26 15.147.16 1.754.15 5.207-.02 8.16-.163 2.816-.284 5.444-.27 5.84.05 1.324-.02 5.309-.189 10.96-.141 4.715-.252 5.663-.7 6-.753.568-1.294.497-1.677-.219zm5.009-.78c-.093-.242-.18-5.692-.195-12.112-.022-10.046-.098-11.816-.54-12.703-.387-.776-.466-1.522-.317-3.009.108-1.087.224-7.369.256-13.959.056-11.08.103-12.026.638-12.56.318-.318.717-.578.887-.578.419 0 .97 1.087.97 1.912 0 .371.31 1.094.69 1.606.673.911.691 1.217.802 13.866.098 11.226.05 12.987-.369 13.334-.402.333-.484 1.556-.493 7.321-.01 5.397-.113 7.097-.47 7.72-.325.57-.46 1.924-.468 4.695-.006 2.141-.099 4.121-.205 4.4-.24.622-.958.663-1.186.066zm-149.95-5.607c-.371-.37-.674-.953-.674-1.295 0-.891-.491-1.071-1.511-.553-1.326.673-3.878.975-4.423.523-1.104-.917 1.366-2.866 3.635-2.868 2.08-.003 2.619-.415 2.617-2.012 0-1.626-.96-3.337-2.02-3.603-.42-.105-1.54.012-2.49.26-2.684.699-3.065.3-1.9-1.984.92-1.804 3.077-3.542 4.394-3.542.602 0 1.834-.432 2.826-.992 1.745-.985 2.712-1.047 2.712-.175 0 .54-1.272 1.448-3.025 2.163-1.64.668-1.758 1.116-.362 1.378 1.149.216 2.105 1.218 2.73 2.864.4 1.049.79 1.057 1.995.042.78-.656 1.291-.8 2.846-.8 2.772 0 3.28.6 3.124 3.687-.11 2.188-.2 2.436-1.393 3.84-2.218 2.611-3.704 3.476-6.22 3.618-1.894.107-2.277.033-2.861-.55zm7.013-3.095c.172-.451.312-1.606.312-2.566 0-1.538-.092-1.789-.776-2.1-1.693-.772-3.5.786-3.921 3.38-.301 1.854-.044 2.107 2.135 2.107 1.786 0 1.963-.064 2.25-.82zm183.35 3.428c0-.474 1.256-1.668 5.717-5.436l1.645-1.39-.67-.941c-.37-.519-.59-1.153-.492-1.411.257-.669 1.281-.58 1.96.171.319.352.81.639 1.09.638.479-.003 3.294-1.887 5.906-3.953.688-.544 1.363-.837 1.664-.722.822.316-.547 1.924-3.034 3.562-1.182.78-2.415 1.71-2.74 2.07-.576.635-.573.67.102 1.39.38.405.692 1.123.692 1.596 0 .737-.133.86-.938.86-.677 0-1.128-.268-1.622-.96-.376-.529-.862-.96-1.08-.96-.363 0-1.811 1.054-3.077 2.24-2.96 2.773-5.123 4.144-5.123 3.246zm-71.228-2.126c-.454-1.81.65-2.37 1.578-.8.662 1.12.481 1.6-.602 1.6-.56 0-.83-.223-.976-.8zm-6.851-1.33c-1.797-1.235-6.408-5.39-6.578-5.928-.101-.317-.094-.722.016-.9.434-.702 1.486-.237 3.733 1.648 1.292 1.084 3.04 2.47 3.886 3.082 1.127.816 1.51 1.292 1.44 1.79-.127.883-1.427 1.044-2.497.308zm78.186-11.96c-2.435-2.468-4.426-4.736-4.426-5.04 0-1.153 1.318-.724 4.24 1.38 5.173 3.726 7.377 6.835 5.54 7.818-.34.182-.688.33-.773.33-.085 0-2.147-2.019-4.581-4.488zm-35.295 3.23c-.195-.364-.331-3.098-.331-6.63 0-4.794-.106-6.287-.524-7.382-.42-1.1-.465-1.741-.224-3.236.165-1.025.194-2.26.065-2.743-.358-1.34.05-13.594.587-17.63l.256-1.92 1.28.01c.704.007 1.754.127 2.333.269l1.054.257-.078-2.263c-.067-1.962.025-2.402.696-3.308.572-.774.79-1.514.839-2.85.058-1.618-.031-1.896-.87-2.7-1.18-1.13-1.276-2.9-.234-4.309 1.316-1.78 2.5-1.052 2.5 1.538 0 .945.16 2.017.355 2.382.232.433.338 2.872.304 7.01-.05 6.185.211 8.18.971 7.42.16-.16.361-3.307.446-6.994.085-3.686.3-7.206.479-7.82.178-.615.324-2.23.324-3.587 0-1.71.173-2.816.56-3.595.576-1.155 1.36-1.527 1.36-.645 0 .273.204.89.453 1.372.358.692.497 3.601.661 13.824.217 13.498.291 14.137 1.582 13.642.625-.24.666-2.282.066-3.363-.55-.99-.394-22.773.17-23.826.23-.429.339-2.201.296-4.787-.074-4.509.285-6.317 1.254-6.317.56 0 1.56.75 1.631 1.223.069.448.243 9.25.41 20.662.165 11.285.145 11.866-.46 13.196-.6 1.313-.606 1.458-.115 2.595.468 1.085.602 1.611.732 2.884.086.85.68.348.68-.576 0-.537.23-1.42.51-1.961.363-.702.446-1.366.289-2.304-.122-.726-.258-2.399-.303-3.719a67.151 67.151 0 00-.328-4.517c-.193-1.65-.126-2.482.299-3.761.515-1.55.514-1.725-.003-3.08-.395-1.035-.483-1.818-.315-2.8.129-.749.194-1.794.146-2.322-.11-1.196-.104-3.164.037-10.995.098-5.477.18-6.283.713-6.96.814-1.035 1.891-.986 2.52.115.421.737.512 2.382.558 10.16.03 5.104.135 9.724.232 10.268.102.57-.037 1.5-.329 2.199-.62 1.484-.632 2.506-.048 4.172.443 1.266.358 2.915-.18 3.504-.153.168-.278 3.784-.278 8.037 0 7.339-.034 7.776-.663 8.576-.793 1.009-1.83 1.08-2.944.203-.93-.731-1.501-.82-1.538-.24-.014.22-.004 2.155.022 4.3.029 2.33-.094 4.165-.306 4.56-.343.641-1.729.927-2.041.42-.082-.132-.193-2.832-.248-6-.102-5.877-.313-6.88-1.452-6.88-.345 0-.43 1.23-.43 6.261 0 4.353-.12 6.474-.393 6.96-.26.466-.395 2.328-.4 5.568-.006 4.223-.082 4.943-.573 5.434-.438.439-.69.488-1.12.218-.475-.298-.579-1.077-.727-5.434-.097-2.868-.341-5.48-.56-5.987-.268-.625-.387-3.336-.387-8.841 0-6.668-.077-8.004-.48-8.339-.264-.219-.488-.344-.498-.279-.01.066-.022 3.72-.027 8.12-.006 5.446-.137 8.459-.412 9.44-.282 1.004-.328 2.208-.154 3.982.138 1.399.164 2.684.057 2.857-.106.172-.23.972-.272 1.777-.164 3.05-.557 5.47-.938 5.786-.52.432-1.423.068-1.485-.597-.027-.29-.012-1.756.033-3.26.065-2.186-.022-2.819-.432-3.159-.698-.58-.723-4.253-.032-4.827.605-.502.6-1.573-.01-2.38-.39-.517-.47-2.363-.47-10.935 0-5.672-.087-10.54-.194-10.819-.405-1.055-.93-.49-.942 1.014-.006.836-.046 2.024-.089 2.64s.02 4.655.14 8.977c.17 6.235.128 8.018-.208 8.64-.3.555-.453 2.645-.524 7.183-.054 3.52-.175 6.724-.267 7.12-.215.92-1.59.987-2.065.101zm-57.016-4.101c-2.478-2.62-5.93-7.758-5.501-8.187.612-.613 1.47-.015 3.027 2.107.937 1.276 2.552 3.214 3.59 4.308 1.226 1.292 1.82 2.16 1.698 2.48-.336.875-1.623.551-2.814-.708zm113.64-2.733c0-.634 8.567-8.899 10.614-10.24.998-.653 1.98-1.188 2.183-1.188.976 0-.103 1.317-2.622 3.2-1.53 1.144-3.613 3.002-4.629 4.129-1.859 2.06-4.714 4.511-5.255 4.511-.16 0-.291-.185-.291-.412zm-40.48-1.827a.594.594 0 01.088-.696c.213-.213.397-.195.552.056a.594.594 0 01-.088.696c-.213.213-.397.194-.552-.056zm-46.4-.32c-.109-.176.035-.32.32-.32.285 0 .429.144.32.32-.109.176-.253.32-.32.32s-.211-.144-.32-.32zm129.53-6c-3.681-3.607-4.758-4.95-4.414-5.506.465-.753 1.457-.197 4.338 2.43 1.667 1.52 3.486 3.111 4.042 3.536 1.155.882 1.485 1.531 1.214 2.385-.417 1.313-1.6.664-5.18-2.845zm-71.134 2.26c-.435-.297-1.847-1.58-3.137-2.852-1.802-1.775-2.322-2.485-2.24-3.06.213-1.51 1.293-1.078 4.537 1.81 3.153 2.807 3.652 3.678 2.47 4.31-.781.419-.696.43-1.63-.208zm-118.84-.5c-.255-.396-.636-1.617-.848-2.713-.368-1.906-.432-2.002-1.463-2.195-1.877-.353-2.617.03-3.001 1.551-.553 2.191-.9 2.797-1.6 2.797-1.037 0-1.45-1.298-1.044-3.284.422-2.06 4.417-13.595 4.919-14.199.563-.679 1.23-.518 1.57.38.39 1.021 1.441 5.398 1.955 8.131.305 1.62.603 2.265 1.374 2.974l.985.905-.793.603-.793.603.568 2.133c.439 1.645.483 2.235.194 2.583-.557.671-1.5.546-2.023-.269zm-1.848-7.053c.513-.619-.197-5.162-.737-4.714-.508.422-1.573 4.345-1.3 4.788.293.473 1.624.424 2.037-.074zm25.549 7.56c-.559-.56-.105-1.447 1.147-2.245 2.189-1.396 2.8-2.059 2.8-3.038 0-1.061-.577-1.165-2.35-.424-.633.264-1.774.48-2.536.48-1.74 0-2.154.413-2.154 2.144 0 2.052-1.558 3.384-2.554 2.184-.27-.327-.324-1.054-.17-2.368l.22-1.897-.962-.211c-1.654-.363-1.671-1.8-.029-2.373 1.066-.372 1.064-.363.559-2.655-.468-2.124-.753-2.504-1.877-2.504-1.225 0-1.907-.301-1.907-.842 0-1.09 3.989-1.511 4.888-.517.28.309.751 1.64 1.048 2.96.716 3.177.95 3.58 2.005 3.458.717-.083.94-.356 1.35-1.654.271-.855.775-1.763 1.12-2.017.346-.255.592-.649.546-.874-.15-.75 1.117-1.515 3.495-2.113 2.07-.52 2.433-.536 3.068-.128 1.677 1.076.397 2.177-3.18 2.733l-2.43.378-.174 1.293c-.095.712-.102 1.409-.016 1.549.087.14.797.254 1.579.254 2.015 0 2.7.766 2.7 3.015 0 1.389-.16 1.928-.806 2.695-1.635 1.942-4.638 3.459-5.38 2.717zm46.258-1.54c-.922-1.897-1.12-8.785-.28-9.713.29-.321.53-1.005.533-1.52.011-2.088 1.099-2.239 1.464-.203.117.654.44 1.448.717 1.766.412.472.49 1.317.424 4.64-.045 2.234-.153 4.279-.242 4.543-.088.264-.56.795-1.05 1.18l-.89.7zm-62.848-.394c-1.144-.175-1.75-.9-1.253-1.498.533-.642 2.874-1.155 5.273-1.155 1.755 0 2.154.106 2.554.677.587.837.405 1.368-.63 1.84-.756.344-4.086.42-5.944.136zm-.832-4.111c-1.052-.737-.91-1.694.329-2.198 1.906-.774 5.218-1.242 5.965-.843 1.011.541.893 1.866-.205 2.302-.484.192-1.263.549-1.73.793-1.134.593-3.477.564-4.36-.054zm-72.867-3.41c-.35-.203-.868-.655-1.15-1.005-.51-.629-.527-.626-1.635.219-2.257 1.721-5.73.93-7.94-1.808-1.586-1.968-1.336-7.387.498-10.75 1.3-2.385 4.835-5.789 6.013-5.789 1.076 0 .548 1.268-.99 2.38-.836.604-1.716 1.42-1.955 1.811-.946 1.549-1.645 4.283-1.645 6.43 0 2.615.4 2.959 2.014 1.728.904-.69 1.426-.829 3.113-.829 1.115 0 2.49.168 3.058.373.948.343 1.133.29 2.326-.654 1.388-1.1 2.681-1.254 5.246-.628 1.55.379 1.807 1.294.922 3.295-.981 2.219-1.845 3.28-3.665 4.506-1.714 1.154-3.063 1.385-4.21.72zm4.627-3.353c.931-1.185.738-2.105-.495-2.355-1.619-.33-2.376.135-2.376 1.456 0 .884.162 1.206.72 1.43 1.139.458 1.43.386 2.15-.531zm-7.857.347c.705-.271.631-.996-.145-1.412-.781-.418-3.67-.288-3.67.166 0 .387 2.028 1.439 2.775 1.44.293 0 .761-.087 1.04-.194zm250.11-.717c-2.64-1.714-5.278-4.058-5.383-4.781-.18-1.253 1.275-.846 4.057 1.132 1.424 1.012 3.034 2.091 3.58 2.398.728.41.963.75.888 1.28-.154 1.089-1.44 1.077-3.142-.029zm-13.12.185c0-.927 9.284-9.834 10.25-9.834.985 0 .742.846-.524 1.826-.635.492-2.258 1.974-3.608 3.294-4.948 4.84-6.118 5.741-6.118 4.714zm-50.667-1.087c-.118-.118-.218-1.522-.224-3.12-.007-2.048-.149-3.09-.48-3.528-.59-.782-.586-2.336.01-3.38.61-1.064.596-2.405-.032-3.364-.582-.888-.489-2.873.213-4.546.376-.896.36-1.233-.128-2.588-.507-1.41-.544-2.65-.395-13.05.2-13.905.388-17.051 1.063-17.81.652-.733 1.444-.71 2.142.06.456.504.586 1.37.684 4.56.067 2.167.196 5.812.288 8.1.132 3.322.07 4.344-.314 5.076-.404.77-.48 2.935-.48 13.533 0 11.985-.033 12.68-.64 13.871-.484.947-.64 1.886-.64 3.828 0 1.93-.107 2.572-.427 2.572-.235 0-.523-.096-.64-.213zm5.41-7.01c-.423-.423-.504-1.493-.504-6.701 0-3.787-.124-6.275-.32-6.396-.432-.267-.407-3.558.033-4.382.26-.483.255-.873-.014-1.464-.262-.575-.362-5.83-.35-18.417.015-15.51.076-17.678.517-18.165.374-.414.463-1.013.353-2.381-.126-1.556-.312-1.993-1.244-2.925-.603-.603-1.422-1.12-1.82-1.15-.494-.038-.867-.397-1.172-1.127-.247-.59-1.243-1.95-2.215-3.024-1.83-2.022-2.32-3.444-1.187-3.444.324 0 2.045 1.553 3.9 3.52 1.825 1.936 3.436 3.52 3.579 3.52.143 0 .26-2.128.26-4.73 0-3.864-.096-4.865-.524-5.477-.433-.618-.493-1.284-.343-3.802.159-2.666.322-3.32 1.287-5.162 1.274-2.43 1.97-2.815 2.255-1.245.105.58.176 8.976.157 18.656-.02 9.68.006 18.392.056 19.36.187 3.576.084 21.973-.13 23.52-.123.88-.301 5.92-.397 11.2-.147 8.106-.253 9.687-.677 10.16-.62.689-.86.698-1.5.057zm44.106-8.845c-4.896-3.928-5.665-4.66-5.46-5.197.422-1.099 1.244-.666 7.507 3.961 1.979 1.462 2.322 1.853 2.24 2.555-.172 1.484-1.179 1.175-4.287-1.32zm-80.4.468c-.419-.799.118-2 .893-2 .785 0 1.708 1.313 1.431 2.035-.275.716-1.944.69-2.324-.035zm5.508.082c-.111-.289-.049-.679.139-.866.488-.488 1.411-.042 1.284.62-.142.736-1.167.914-1.423.246zm-19.957-.162c0-.176.144-.32.32-.32s.32.144.32.32-.144.32-.32.32-.32-.144-.32-.32zm114.88-1.675c0-.633 11.554-11.765 12.21-11.765.324 0 .59.108.59.24 0 .282-4.676 5.1-8.85 9.12-2.705 2.603-3.95 3.362-3.95 2.404zm-99.985-3.132c-1.384-1.235-3.25-2.64-4.146-3.12-1.826-.978-2.12-1.777-.715-1.938 1.51-.172 3.945 1.11 7.565 3.985 1.73 1.373 2.171 2.152 1.607 2.832-.768.925-1.76.52-4.312-1.759zm-155.91.004c-.385-.155-.853-.568-1.04-.918-.484-.904-.423-4.348.097-5.57.43-1.007 2.628-3.43 3.113-3.43.135 0 .338-.29.45-.643.305-.961 2.378-2.236 3.635-2.236 1.21 0 3.079 1.013 3.573 1.937.568 1.06.499 5.568-.1 6.48-.747 1.142-3.277 3.48-4.482 4.142-1.092.602-4.016.734-5.246.238zm6.558-3.21c.583-.543.7-1.005.7-2.745 0-1.885-.092-2.184-.935-3.027-.916-.917-2.294-1.224-3.1-.69-.828.547-1.404 2.348-1.404 4.389 0 1.885.075 2.136.72 2.395 1.327.534 3.268.378 4.02-.322zm304.47 1.651c-2.944-2.554-4.038-3.76-3.784-4.173.421-.68 1.443-.32 3.91 1.384 3.2 2.209 4.072 3.128 3.795 4.003-.376 1.183-1.592.807-3.92-1.214zm-87.677-4.242a125.774 125.774 0 00-3.53-3.653c-1.73-1.696-2.135-2.704-1.089-2.704.852 0 2.724 1.478 5.597 4.42 2.581 2.643 2.99 3.64 1.58 3.841-.522.075-1.19-.422-2.558-1.903zm-26.499-.517c-.4-.947-.77-19.304-.863-42.777-.093-23.363-.1-23.223 1.208-23.223.248 0 .548.396.666.88s.553 1.287.966 1.785c.669.806.754 1.244.778 4 .246 28.681.31 31.38.782 32.507.264.632.605 1.149.758 1.149.492 0 .568-1.05.3-4.16-.143-1.672-.266-12.804-.273-24.738-.012-21.325 0-21.712.637-22.523.357-.454.65-1.17.65-1.593 0-.882.808-1.318 1.563-.843.444.28.552 1.552.771 9.09.14 4.822.253 9.199.25 9.727-.001.528.015 1.896.037 3.04.054 2.848.049 4.465-.018 5.6-.03.528-.056 4.917-.056 9.753 0 5.862-.123 9.136-.37 9.82-.258.713-.27 1.152-.039 1.446.682.862.77 2.25.244 3.832-.403 1.213-.447 1.786-.187 2.446a8.12 8.12 0 01.431 1.798c.13 1.298.893 1.485.893.218 0-.54.227-1.546.503-2.238.458-1.144.458-1.346 0-2.23-.623-1.205-.63-1.845-.038-3.522.408-1.156.407-1.457-.009-2.453-.403-.963-.456-3.463-.353-16.563.151-19.256.366-29.035.683-31.135.184-1.22.123-1.864-.245-2.576-.358-.692-.443-1.488-.312-2.93.185-2.041.39-2.394 1.595-2.764.649-.199.7-.115.653 1.069-.037.924.142 1.49.639 2.018.688.732.691.818.866 20.221.127 13.996.077 19.606-.177 19.912-.244.294-.368 4.334-.4 12.937-.042 11.904-.074 12.533-.654 12.957-.592.433-.585.48.232 1.66.462.667 1.493 1.853 2.29 2.635 1.61 1.581 1.882 2.707.741 3.07-.553.175-.892.002-1.56-.8l-.856-1.025-.34.902c-.473 1.252-1.56 2.545-1.876 2.23-.144-.145-.272-1.544-.284-3.111-.022-2.722-.069-2.906-1.068-4.149-1.713-2.131-1.928-1.565-1.899 5.002.024 5.548-.147 6.538-1.13 6.524-1.219-.016-1.277-.38-1.25-7.814.025-6.956.002-7.246-.634-7.691-.843-.59-1.089-.424-1.28.867-.086.574-.35 1.51-.586 2.082-.376.908-.36 1.156.12 1.97.68 1.15.71 3.273.065 4.52-.39.753-.475 2.132-.433 6.978.03 3.322-.05 6.205-.174 6.407-.35.566-1.692.433-1.956-.194zm-202.8-.592c-.106-.107-.052-.563.12-1.016.441-1.16.165-1.613-1.055-1.73-2.058-.198-.797-2.276 1.689-2.784 1.26-.258 1.494-.84 1.54-3.835l.033-2.037-.88.2c-3.323.752-3.692.557-2.051-1.084.95-.951 2.946-1.66 4.85-1.724l1.12-.038.096 2.386c.063 1.568-.082 2.928-.422 3.968-.565 1.727-.379 2.112 1.028 2.122.385.003.796.16.913.348.33.534-1.123 1.867-2.475 2.273-.671.2-1.22.481-1.22.623 0 .142-.447.767-.993 1.39-.915 1.042-1.819 1.412-2.293.938zm310.65-3.063c-.352-.195-1.726-1.379-3.054-2.63-1.327-1.251-2.95-2.68-3.607-3.174-1.284-.968-1.294-1.5-.027-1.5 1.213 0 3.176 1.134 5.233 3.025 1.023.94 2.237 1.957 2.698 2.26.988.647 1.088 1.597.218 2.063-.74.396-.665.399-1.46-.044zm-138.66-1.756c.063-.324.328-.589.59-.589.685 0 .586.93-.114 1.065-.428.082-.558-.048-.476-.476zm36.247.184c-.279-.452.338-1.07.79-.79.191.118.348.423.348.676 0 .539-.824.621-1.138.114zm5.794-.265a.357.357 0 01.116-.49.357.357 0 01.49.115.357.357 0 01-.115.49.357.357 0 01-.49-.115zm-63.454-1.365c-3.396-3.918-4.105-4.691-5.114-5.578l-1.133-.996.193-2.684c.106-1.477.286-3.153.399-3.725.113-.572.081-1.04-.07-1.039-.153 0-1.193 1.16-2.313 2.578-1.559 1.972-2.197 2.554-2.717 2.479-1.074-.154-.972-1.007.302-2.53.647-.774 1.864-2.415 2.704-3.647s2.407-3.102 3.482-4.156c1.63-1.597 2.048-1.857 2.51-1.567.913.571.82 1.876-.383 5.36-1.425 4.127-1.784 6.897-.981 7.563.498.414.628.367 1.238-.442.375-.498 1.217-1.478 1.871-2.18.999-1.069 1.333-1.243 2.08-1.08.748.162 1.033.013 1.784-.933.846-1.065.997-1.126 2.832-1.126 1.778 0 2.028.09 3.026 1.088 1.054 1.054 1.088 1.167 1.083 3.6-.007 3.234-.81 4.849-2.744 5.522-1.763.614-2.902.258-4.49-1.4-.934-.974-1.45-1.295-1.76-1.098-.243.153-1.053.28-1.8.283-.749.003-1.36.097-1.36.21 0 .111.91 1.227 2.022 2.48 2.497 2.809 2.605 2.991 2.125 3.57-.647.78-1.834.545-2.785-.553zm7.653-6.232c.419-.38.585-.986.585-2.135 0-1.811-.625-2.776-1.798-2.776-.97 0-1.402.874-1.402 2.841 0 1.294.137 1.7.711 2.101.899.63 1.179.625 1.904-.031zm-6.876-2.41c-.103-.256-.178-.18-.194.193-.014.337.062.526.168.42.107-.107.118-.383.026-.614zm-40.795 3.515c-.82-.82-.41-2.304 1.38-4.977.971-1.45 2.057-3.155 2.413-3.79 1.095-1.949 5.01-9.783 5.862-11.728.68-1.556.933-1.84 1.63-1.84.557 0 .917.233 1.11.72.468 1.186 1.286 6.613 1.428 9.482.135 2.724.372 3.222 1.541 3.233 1.456.013 1.32 2.414-.148 2.622-.676.096-.715.234-.625 2.21.072 1.573-.026 2.21-.384 2.507-1.105.916-2.751-.771-2.751-2.82 0-1.256-.34-1.422-3.122-1.527-1.899-.071-2.426.016-2.79.463-1.24 1.525-2.74 3.643-3.176 4.486-.66 1.279-1.65 1.679-2.368.96zm10.315-8.888c.808-.307.82-.36.81-3.6-.009-3.033-.048-3.238-.506-2.648-.496.64-3.324 6.08-3.324 6.394 0 .286 2.158.182 3.02-.146zm163.71 7.592c.017-.736 8.237-8.88 8.964-8.88.484 0 .356 1.16-.178 1.604-.66.548-.169 1.075 1.457 1.562 1.923.577 4.145 2.016 4.349 2.816.395 1.556-.752 1.813-2.573.577-1.191-.808-5.074-2.719-5.526-2.719-.134 0-1.416 1.224-2.85 2.72-2.404 2.51-3.667 3.314-3.643 2.32zm-157.31-1.66c-.497-.37-.55-.578-.268-1.04.302-.495.958-.605 4.48-.754 2.27-.096 4.378-.055 4.686.091.695.33.718 1 .058 1.66-.7.7-8.024.734-8.956.042zm2.343-3.62c-.726-.823-.212-1.862 1.048-2.114 1.79-.358 5.27-.23 5.881.216.87.635.501 1.603-.777 2.04-.614.21-2.138.39-3.387.4-1.776.014-2.378-.103-2.765-.542zm88.608-1.893c-.117-.117-.213-2.572-.213-5.456 0-4.17-.104-5.444-.51-6.228-.558-1.08-.481-2.668.209-4.321.372-.892.353-1.152-.154-2.094-.647-1.202-.583-3.196.16-4.968.372-.889.367-1.19-.035-2.08-.51-1.127-.602-8.588-.34-27.265.13-9.154.14-9.273.866-10 .404-.404.961-.735 1.237-.735.594 0 1.219 1.447.967 2.24-.097.306-.03.94.148 1.409.598 1.573.476 32.232-.14 35.034-.133.606-.027 1.301.292 1.918.656 1.27.636 3.27-.044 4.456-.517.9-.513 1.042.063 2.738.584 1.72.586 1.834.043 2.972-.482 1.012-.551 1.957-.474 6.489.05 2.917-.022 5.484-.158 5.704-.262.423-1.555.549-1.916.187zm-30.72-1.6c-.117-.117-.213-.477-.213-.8 0-.649 1.4-.849 1.769-.253.426.69-.973 1.636-1.555 1.053zm-182.23-.49c-.631-.632-.434-1.918.56-3.652.986-1.717 2.63-3.324 3.401-3.324.508 0 .623.819.156 1.107-.446.276-1.3 2.104-1.3 2.782 0 .862.81.723 1.593-.273.552-.702.662-1.22.586-2.76-.109-2.192-.47-2.486-1.846-1.506-.913.65-1.614.652-1.614.002 0-.498 1.972-2.562 2.912-3.048 1.053-.545 2.321-.597 3.19-.133.896.48.875 3.992-.035 5.776-1.802 3.532-6.194 6.438-7.603 5.03zm177.22-.073c0-.296.274-.503.667-.503.78 0 .67.748-.133.903-.316.062-.534-.102-.534-.4zm41.114.127c-.124-.201-.075-.516.11-.7.43-.43 1.432-.055 1.257.47-.178.535-1.084.687-1.367.23zm-228.38-.33c-1.297-.756-1.421-4.876-.208-6.898.802-1.336.763-1.632-.361-2.682-1.688-1.577-1.167-3.262 1.633-5.273.863-.62 1.64-1.127 1.728-1.127.36 0 .104.852-.481 1.6-.819 1.047-.801 1.77.058 2.373.552.386.796.408 1.164.103 1.21-1.005 2.706-4.32 2.38-5.276-.185-.545-.878-.504-1.362.08-.694.836-1.6.599-1.6-.42 0-1.529 2.262-3.26 4.26-3.26 1.445 0 1.971.685 1.893 2.468-.067 1.546-.65 2.687-2.853 5.588-.76.998-1.38 1.967-1.38 2.151s.396.543.88.796c1.624.849 2.701 2.281 2.875 3.825.154 1.362.083 1.522-1.356 3.06-2.332 2.493-5.673 3.822-7.27 2.892zm5.038-3.072c.774-.775.376-2.322-.873-3.388-.566-.484-1.198-.88-1.405-.88-.726 0-1.015 2.512-.457 3.98.238.625.537.82 1.257.82.52 0 1.185-.24 1.478-.532zm286.4 1.258c-.447-.657-.812-1.316-.812-1.464 0-.149-.621-1.231-1.38-2.406-2.612-4.042-3.715-7.141-2.384-6.697.695.231 6.525 8.812 6.85 10.08.498 1.953-1.053 2.285-2.274.487zm14.228-5.182c0-.162.582-1.375 1.294-2.694.897-1.663 2.217-3.339 4.305-5.465 1.656-1.686 3.162-3.065 3.346-3.065.808 0 .207 1.268-1.293 2.732-.895.873-2.28 2.712-3.078 4.086-1.624 2.796-3.267 4.702-4.052 4.702-.287 0-.522-.133-.522-.296zm-77.497-5.224c-.082-.115-.58-10.967-.592-12.88-.005-.88.064-2.67.153-3.979.111-1.643.014-2.812-.314-3.78-.382-1.125-.439-2.49-.285-6.902.106-3.024.251-7.875.323-10.779.138-5.593.458-9.18.876-9.84.407-.642 1.4-.462 2.057.372.554.705.603 1.328.559 7.12-.027 3.492.08 8.317.237 10.723.243 3.732.212 4.518-.216 5.344-.63 1.22-.639 2.584-.023 3.765.625 1.199.607 2.392-.057 3.785-.506 1.06-.506 1.202 0 2.262.651 1.366.667 2.285.059 3.35-.338.591-.46 2.034-.469 5.54-.006 2.633-.158 5.017-.342 5.36-.267.499-1.712.895-1.966.54zm5.051-3.946c-.107-.279-.194-4.896-.194-10.261 0-6.339-.12-9.98-.344-10.397-.22-.412-.31-2.844-.252-6.78.05-3.375.097-7.528.104-9.228.01-2.701.104-3.217.738-4.076.701-.949.713-1.08.355-3.788-.52-3.937-.421-8.679.196-9.361.634-.7.61-1.166-.116-2.194-.988-1.402-2.28-4.144-2.28-4.839 0-1.283.936-.61 2.32 1.67.776 1.276 2.01 3.184 2.744 4.24 1.512 2.175 1.666 2.948.617 3.098-.738.105-.79.43-.876 5.542-.006.352.074 6.155.178 12.896.167 10.847.13 12.345-.318 13.029-.42.64-.506 1.884-.506 7.283 0 5.228-.092 6.632-.47 7.13-.543.72-.636 1.934-.17 2.222.176.109.32 1.125.32 2.259 0 2.06 0 2.061-.926 2.061-.549 0-1.004-.206-1.12-.506zm-35.346-.118c.07-.211.233-.373.36-.36.383.04.309.478-.104.616-.21.07-.326-.045-.256-.256zm83.406-2.142l-4.173-3.844c-2.655-2.442-1.693-3.208 1.425-1.134 2.554 1.698 6.924 5.48 7.149 6.188.259.816-.074 1.236-.98 1.236-.511 0-1.652-.816-3.42-2.446zm40.23-6.509c-.38-.616 2.394-4.07 6.689-8.325 2.398-2.376 4.646-4.45 4.997-4.61 1.769-.806.58 1.186-2.31 3.865-2.69 2.498-4.077 3.984-5.616 6.025-1.405 1.861-2.892 3.355-3.344 3.358-.122.001-.309-.14-.416-.313zm-82.78-3.753c-.494-.595-.82-5.134-1.154-16.092-.126-4.148-.103-8.063.053-8.731.175-.753.153-1.85-.057-2.898-.217-1.079-.238-2.486-.06-3.908.168-1.35.156-2.766-.03-3.606-.396-1.776.144-3.054 1.35-3.194 1.192-.139 2.604 1.147 2.589 2.358-.007.516-.104 4.54-.217 8.94-.113 4.4-.308 12.103-.433 17.12-.126 5.015-.347 9.36-.491 9.655-.384.782-1.065.94-1.55.357zm31.926-1.03c-2.225-1.767-9.789-8.688-9.789-8.956 0-.147.19-.425.422-.618.325-.27 1.665.641 5.84 3.97 2.98 2.375 5.547 4.6 5.704 4.943.19.413.149.788-.12 1.111-.549.662-.7.63-2.057-.45zm-279.87-1.899c0-.735 2.04-2.192 3.718-2.654.683-.188 1.644-.627 2.135-.977.94-.667 2.384-3.322 2.011-3.695-.12-.12-.688-.178-1.262-.128-.664.057-1.322-.136-1.81-.531-.684-.554-.763-.867-.745-2.919.02-2.225.061-2.34 1.267-3.59 1.147-1.188 4.11-2.83 5.107-2.83 1.418 0 .272 1.853-1.752 2.832-1.507.73-1.818 1.337-1.451 2.824.413 1.675 1.08 1.557 2.123-.375 1.014-1.88 2.86-3.68 3.775-3.68.958 0 .808.972-.435 2.819-.593.882-1.182 2.156-1.309 2.832-.679 3.629-3.912 7.565-7.836 9.54-2.537 1.279-3.536 1.429-3.536.532zm15.106-.89c-1.495-.747-1.779-1.474-1.566-4.01.148-1.773.096-2.183-.279-2.183-.785 0-.51-1.285.564-2.643 1.348-1.701 3.609-3.117 4.979-3.117 2.479 0 3.42 1.502 3.21 5.125-.119 2.044-.298 2.68-1.078 3.834-1.096 1.618-2.844 3.087-3.976 3.342-.452.101-1.259-.05-1.854-.347zm3.58-3.18c.4-1.041.199-4.464-.304-5.182-.65-.929-2.223-.966-2.706-.065-.417.78-.158 1.316.51 1.06.413-.159.454.062.27 1.448-.167 1.255-.094 1.822.31 2.44.594.906 1.625 1.067 1.92.3zm234.45 3.08c-.307-.194-.45-.76-.415-1.642.03-.744-.155-1.643-.412-2.01-.59-.843-.582-3.317.015-4.361.657-1.149.583-3.206-.176-4.923-.361-.817-.563-1.636-.449-1.82.114-.186.21-7.288.215-15.784.006-14.469.045-15.53.612-16.768.334-.727.599-1.939.59-2.693-.028-2.346.366-4.446.87-4.64.26-.1.734.091 1.055.424.539.558.59 1.467.67 11.804.047 6.16.07 11.416.052 11.68s.04 2.262.131 4.44c.133 3.175.063 4.231-.35 5.315-.442 1.157-.505 2.733-.428 10.865.085 9.101.062 9.531-.533 9.966-.726.531-.825.541-1.447.148zm-61.326-6.692c-2.534-2.955-2.802-3.11-3.959-2.286-1.114.793-3.322 1.605-4.367 1.605-.418 0-1.06-.3-1.426-.666-.617-.618-.628-.708-.146-1.24.288-.318 1.153-.645 1.941-.734 2.696-.304 3.74-1.817 2.664-3.861-.534-1.014-.889-1.169-2.691-1.174-2.126-.006-2.866-.542-2.599-1.879.111-.555.036-1.374-.167-1.82-.294-.645-.276-.903.088-1.267.475-.475 6.556-2.4 7.582-2.4 1.132 0 1.708 1.188 1.066 2.2-.153.243-1.627.755-3.275 1.138-2.517.586-2.996.797-2.996 1.32 0 .508.29.656 1.572.803 1.274.147 1.74.382 2.459 1.243.488.585.976 1.583 1.085 2.22.15.874.808 1.785 2.69 3.73 3.186 3.291 3.764 4.147 3.232 4.788-.218.264-.503.479-.632.479-.13 0-1.084-.99-2.121-2.199zm-49.923-.854c-.423-.646-.496-1.287-.353-3.12.189-2.42.676-3.567 3.432-8.07.703-1.149 1.279-2.164 1.279-2.257s.534-1.098 1.188-2.234c2.076-3.611 3.282-3.088 3.306 1.435.008 1.506.265 3.955.57 5.441.53 2.582.6 2.714 1.551 2.96 1.274.33 1.51.97.727 1.968-.343.435-.623 1.146-.623 1.581 0 .938-.75 1.657-1.45 1.39-.274-.106-.703-.682-.953-1.281-.454-1.085-.465-1.09-2.946-1.235-2.834-.165-3.29.1-3.29 1.917 0 2.236-1.395 3.097-2.438 1.505zm7.398-6.228c.244-.395-.841-5.76-1.165-5.76-.257 0-2.836 5.233-2.836 5.754 0 .425 3.739.43 4.001.005zm22.334 4.905c-.187-.487.247-3.693.74-5.464.318-1.144-.546-.884-1.97.59-.695.722-2.128 1.91-3.184 2.64l-1.92 1.33-4.48-.101c-3.447-.078-4.59-.212-4.96-.58-.427-.425-.411-.53.14-.939.469-.347 1.682-.46 4.924-.46h4.302l2.935-2.878c1.945-1.908 3.453-3.75 4.472-5.464.846-1.422 1.758-2.67 2.026-2.773.724-.278 1.507.346 1.62 1.29.09.745.255.841 1.59.928 1.214.079 1.575.249 1.95.919.707 1.265.235 2.37-1.645 3.852-.92.726-1.778 1.591-1.904 1.923-.215.565-.033.603 2.937.603 2.55 0 3.273.105 3.71.542.51.51.49.587-.316 1.28-.87.75-2.364.977-2.917.446-.168-.16-1.096-.366-2.064-.457-.968-.09-2.12-.21-2.56-.268-.648-.083-.819.049-.898.697-.239 1.952-.734 2.88-1.537 2.88-.44 0-.876-.236-.991-.536zm5.346-8.437c.903-.794 1.246-1.266.919-1.266-.287 0-.7.215-.92.479-.218.264-.64.48-.935.48-.64 0-1.304.603-1.304 1.184 0 .724.754.429 2.24-.877zm91.815 7.823c-.658-.793-.731-13.728-.082-14.378.582-.582.887-.594 1.337-.052.376.454.575 14.028.214 14.614-.299.483-.988.397-1.47-.184zm-10.506-.895c-.238-.286-.423-2.601-.519-6.48-.082-3.32-.31-6.642-.508-7.383-.213-.801-.274-2.227-.15-3.52.114-1.195.186-2.532.16-2.972-.028-.44-.068-6.581-.091-13.647-.04-12.314-.016-12.875.582-13.535.927-1.024 2.126-.76 2.817.622.51 1.02.556 2.386.52 15.36-.023 7.832-.183 15.032-.356 16-.174.968-.382 3.11-.463 4.76l-.147 3.002 1.045 1.079c.575.593 1.128 1.079 1.228 1.079.499 0 .86-3.324.68-6.24-.11-1.76-.124-4.208-.031-5.44.118-1.575.04-2.451-.265-2.95-.301-.496-.373-1.27-.236-2.56.501-4.745.537-9.338.08-10.236-.693-1.362-.367-13.298.401-14.654.43-.759.538-1.733.517-4.64-.015-2.024-.145-3.99-.29-4.37-.356-.935.798-1.326 1.86-.63.69.452.772.797 1.002 4.266.137 2.075.247 7.302.242 11.614-.006 6.56-.091 8.002-.521 8.832-.463.894-.465 1.062-.023 1.692.375.536.446 1.206.305 2.848-.27 3.119-.272 3.592-.023 5.208.206 1.34.155 1.506-.61 2.007-.802.526-.835.666-.835 3.56 0 1.656.148 3.401.33 3.878.18.478.39 2.654.463 4.836s.208 4.214.3 4.514c.262.86-.558 3.96-1.147 4.331-.772.488-1.546-.274-1.546-1.52 0-.755-.313-1.322-1.214-2.201-.667-.652-1.315-1.185-1.44-1.185s-.226.979-.226 2.176c0 2.112-.324 2.944-1.145 2.944-.207 0-.543-.2-.746-.445zm15.525-.701c-.107-.279-.195-2.283-.195-4.454s.088-4.176.195-4.454c.278-.724 1.324-.625 1.57.148.205.647-.06 7.157-.347 8.546-.172.828-.936.962-1.223.214zm-114.01-2.29c-1.98-.139-2.838-.853-1.873-1.559.626-.458 5.982-.65 7.02-.25.646.247.647.898.003 1.542-.502.502-1.266.542-5.15.268zm193.17-.36c0-.761 6.081-7.14 8.67-9.096 1.126-.85 1.896-1.107 1.883-.628-.004.132-2.143 2.436-4.755 5.12-4.166 4.282-5.798 5.578-5.798 4.604zm-135.85-3.254c-.125-.201-.076-.517.108-.7.43-.43 1.433-.056 1.258.47-.178.535-1.084.687-1.366.23zm50.966-9.936c-.718-.418-.751-2.516-.062-3.85.396-.765.676-.943 1.36-.864.823.095.866.192.958 2.128.127 2.681-.621 3.538-2.256 2.586zm103.44-5.866c0-.598 3.786-4.99 4.97-5.766.52-.34.974-.446 1.152-.268.372.372-3.742 5.149-5.12 5.944-.859.495-1.002.508-1.002.09zm-102.42-4.064c-.2-.372-.29-1.053-.202-1.514.088-.462-.04-1.225-.283-1.697-.564-1.09-.843-6.748-.896-18.142l-.04-8.748.755-.612c.856-.693 2.44-.812 2.822-.211.458.719.094 9.875-.424 10.666-.41.626-.391.908.168 2.5.625 1.778.625 1.809.01 3.56-.567 1.613-.579 1.848-.135 2.706.581 1.123.719 4.381.207 4.893-.216.216-.363 1.513-.363 3.2 0 3.63-.704 5.108-1.619 3.399zm-262.91-5.59c-.107-.277-.093-2.365.03-4.64.256-4.702.117-4.94-1.754-2.978-.606.635-2.11 1.96-3.343 2.942-1.232.983-2.312 1.882-2.4 1.997-.319.417-1.66.992-1.856.795-.372-.372.461-1.277 3.306-3.593 1.557-1.267 4.007-3.554 5.445-5.082 1.533-1.629 2.8-2.718 3.06-2.63.355.117.463 1.356.532 6.1l.087 5.951-1.077.822c-1.242.947-1.758 1.028-2.03.317zm266.63-1.165c-.953-1.36-.382-4.429.869-4.67 1.067-.205 1.403 2.22.668 4.82-.219.773-.94.702-1.537-.15zm-260.9-.141c-.941-.38.112-3.054 1.617-4.109.973-.681 1.13-.611 1.242.56.08.825.263 1.064.883 1.151 1.533.217 2.221-2.227.978-3.47-.887-.887-2.416-.819-3.579.16-1.115.938-1.402.985-1.674.275-.32-.835 1.363-3.095 2.912-3.908 1.397-.734 3.882-.196 5.902 1.28.42.307.69.247 1.403-.314 1.955-1.537 3.954-.499 4.054 2.107.13 3.376-.354 4.539-2.422 5.817-1.566.968-2.633.87-3.236-.297-.273-.528-.652-.96-.843-.96-.19 0-.89.432-1.557.96-1.071.848-1.45.957-3.246.934-1.119-.014-2.214-.098-2.434-.186zm10.575-4.79c.353-.354-.415-1.398-1.028-1.398-.324 0-.769.216-.988.48-.332.4-.288.48.262.48.363 0 .75.144.858.32.226.365.6.414.896.118zm256.8 3.162c-.66-1.364-.74-2.019-.779-6.353-.026-2.853-.19-5.106-.4-5.5-.47-.878-.458-3.998.018-4.474.286-.285.278-.666-.033-1.61-.313-.946-.377-4.234-.276-14.051.117-11.43.19-12.907.68-13.654.793-1.21 1.97-1.121 2.666.202.484.918.563 2.542.68 13.884.117 11.428.074 12.93-.386 13.632-.465.71-.468.881-.033 1.716.615 1.18.623 3.098.017 4.27-.36.695-.47 2.19-.472 6.342 0 4.743-.266 7.115-.794 7.115-.084 0-.484-.684-.888-1.52zm-42.992-2.307c-.989-.4-2.613-2.395-2.858-3.51-.228-1.037-1.013-1.327-1.333-.492-.306.795-2.931 2.43-3.95 2.459-1.173.033-1.983-.609-1.857-1.473.07-.488.43-.725 1.383-.913.709-.14 1.681-.617 2.16-1.062.774-.717.872-1.038.872-2.856 0-2.228-.199-2.516-1.704-2.473-1.695.048-2.045-.347-1.979-2.234l.06-1.69 2.409-.69c1.324-.38 2.705-.85 3.068-1.044.885-.474 1.666-.127 1.666.74 0 .775-1.258 1.532-3.201 1.926-1.822.369-2.239.525-2.239.84 0 .164.439.299.975.299 1.443 0 2.47 1.193 2.732 3.177.26 1.957.644 2.31 1.18 1.085.681-1.555 1.575-2.678 2.52-3.167.808-.417 1.022-.416 1.857.016.52.269 1.353.489 1.852.489.533 0 1.366.382 2.016.926l1.108.926-.031 3.038c-.027 2.553-.146 3.223-.75 4.198-.393.638-.982 1.302-1.306 1.476-.707.378-3.725.384-4.65.009zm3.69-2.242c.327-.207.51-1.026.592-2.65.138-2.739-.117-3.11-2.301-3.357-1.198-.135-1.47-.051-1.92.59-.855 1.221-.641 2.296.813 4.083 1.327 1.632 1.91 1.908 2.816 1.334zm-33.08.659c-.978-.119-1.697-.397-1.913-.741-.654-1.045.23-1.362 4.11-1.476 3.507-.103 3.653-.08 4.028.619.336.628.291.803-.33 1.306-.748.606-2.557.696-5.895.292zm66.124-1.07c-.688-.855-.772-2.492-.216-4.258.44-1.402.479-1.926.187-2.567-.248-.545-.367-3.724-.366-9.83.001-8.433.043-9.093.636-10.065.772-1.267 1.645-1.335 2.54-.197.621.79.663 1.252.663 7.341 0 3.987-.124 6.574-.32 6.696-.195.12-.32 2.595-.32 6.355 0 4.362-.112 6.269-.384 6.54-.503.504-2.01.494-2.42-.015zm-71.003-1.102c-.271-.65-.571-1.662-.667-2.248-.219-1.35-.43-1.469-2.695-1.502l-1.86-.028-.406 1.25c-.489 1.508-1.274 2.107-2.085 1.59-.478-.306-.556-.844-.528-3.68.036-3.83.593-5.648 2.75-8.967.725-1.118 1.733-2.94 2.238-4.047 1.619-3.549 2.56-3.067 2.875 1.47.456 6.597.856 8.778 1.787 9.75.75.783.807.978.449 1.551-.34.543-.314 1.028.145 2.812.642 2.49.485 3.23-.683 3.23-.65 0-.931-.251-1.32-1.181zm-2.093-5.981c.342-.342.359-.806.084-2.292-.19-1.024-.347-2.448-.35-3.164-.004-1.438-.494-2.62-.732-1.772-.15.53-1.19 5.734-1.432 7.16-.153.903-.128.922.922.712.594-.118 1.272-.408 1.508-.644zm22.563 4.41c-.186-.484-.064-1.262.772-4.889.336-1.46-.648-.528-1.976 1.871-1.514 2.737-2.158 3.29-2.931 2.516-.485-.484-.46-.66.327-2.38.467-1.022 1.18-2.296 1.583-2.832.866-1.15 3.146-4.973 4.14-6.943.546-1.082.879-1.39 1.501-1.39.794 0 .8.022.747 2.647-.032 1.576-.4 4.101-.907 6.24-.47 1.976-.954 4.025-1.077 4.553-.171.738-.425.983-1.095 1.061-.596.07-.939-.074-1.084-.453zm-13.223-2.527c-.71-.855.165-1.37 2.73-1.611 3.036-.285 3.99-.06 3.99.94 0 .947-.657 1.14-3.881 1.147-1.783.003-2.548-.125-2.84-.476zM288 217.748c-.305-.367-.445-2.882-.548-9.834-.08-5.387-.275-9.596-.46-9.944-.212-.395-.243-3.425-.09-8.738.218-7.596.276-8.162.867-8.576.348-.244.73-.922.85-1.507.125-.612.441-1.106.743-1.165 1.166-.224 1.344 1.054 1.432 10.286.072 7.543.009 9.056-.412 9.87-.45.869-.45 1.08.006 2.218.626 1.564.632 3.447.013 4.265-.375.496-.47 1.855-.47 6.736 0 6.098-.13 6.883-1.145 6.883-.207 0-.561-.222-.787-.494zm-25.562-9.555c-.409-.491-.136-.831.667-.831.691 0 .79.813.13 1.067-.251.096-.61-.01-.797-.235zm30.865.147c-.31-.5.097-.978.831-.978.44 0 .61.177.538.556-.123.638-1.058.926-1.37.422zm-20.562-3.568c-2.24-.828-1.36-4.77 1.063-4.77.984 0 1.409.666 1.481 2.324.09 2.06-.933 3.042-2.544 2.446zm19.879-.396l-.868-.746.352-2.726c.25-1.94.255-3.683.017-6.053-.2-1.975-.252-6.062-.131-10.05.304-9.986.344-11.462.426-15.884.063-3.354.175-4.167.655-4.761.662-.817 1.768-.67 2.29.305.17.318.403 5.425.519 11.35.19 9.695.156 10.914-.335 12.198-.464 1.215-.52 2.249-.38 6.95.09 3.037.262 6.261.382 7.165.189 1.417.126 1.735-.458 2.32-.869.868-1.397.853-2.47-.07zm5.35-6.344c-.055-4.322-.193-6.04-.536-6.704-.603-1.165-.585-2.33.055-3.679.336-.71.436-1.396.286-1.968-.678-2.588-.645-16.165.07-28.521.222-3.85.315-4.327.92-4.729.594-.393.766-.372 1.44.174l.767.62.042 12.268c.024 6.748-.08 12.503-.23 12.79-.15.286-.338 3.91-.418 8.055-.088 4.54-.284 7.793-.494 8.186-.192.359-.418 2.47-.502 4.691-.159 4.194-.245 4.626-.922 4.626-.31 0-.422-1.373-.478-5.81zm-280.78-.064c-.084-.216.118-1.467.448-2.78.889-3.543.841-3.776-.522-2.58-.622.547-1.342.994-1.6.994-1.986 0 3.14-7.507 5.292-7.75.754-.085.805.007.897 1.627.097 1.7-.87 6.607-1.68 8.518-.645 1.522-2.51 2.819-2.835 1.971zm-14.943-.302c0-.705 3.206-4.064 3.879-4.064 1.34 0 4.032-1.842 9.24-6.32 1.075-.924 2.091-1.68 2.258-1.68.778 0 .153 1.291-1.322 2.732-2.044 1.996-2.855 3.543-2.855 5.447 0 1.262-.163 1.648-1.088 2.573-1.488 1.488-2.112 1.437-2.112-.171 0-.693.14-1.629.312-2.08.24-.629.212-.821-.117-.821-.45 0-4.005 2.296-6 3.877-1.235.977-2.195 1.199-2.195.507zm275.53-3.097c-1.197-1.197-.693-4.807.671-4.807.575 0 1.882 1.685 1.882 2.426 0 1.138-.545 2.3-1.257 2.682-.522.279-.775.22-1.295-.3zm25.662-2.967c-.18-.22-.405-1.84-.5-3.6-.094-1.76-.269-3.756-.39-4.436-.132-.75-.054-1.734.199-2.5.333-1.008.338-1.48.024-2.347-.522-1.444-.458-20.267.097-28.477.178-2.633.27-2.94 1.068-3.595.79-.647.87-.907.842-2.72-.017-1.103-.061-2.365-.098-2.805-.105-1.256.329-2.92.727-2.788.648.215.893 18.2.565 41.428-.008.572.007 1.868.034 2.88.027 1.012-.123 2.616-.334 3.564-.21.948-.383 2.64-.383 3.76 0 1.931-.04 2.036-.76 2.036-.42 0-.91-.18-1.09-.4zm-30.47-.56c0-.176.144-.32.32-.32s.32.144.32.32-.144.32-.32.32-.32-.144-.32-.32zm4.183-2.859c-.319-.202-.442-.839-.409-2.111.051-1.94.435-2.71 1.351-2.71.733 0 .955.626.955 2.682 0 2.134-.685 2.906-1.897 2.14zm36.455-.507c-.18-.474-.31-7.313-.315-16.56-.005-8.665-.089-16.69-.185-17.833-.097-1.144-.203-7.542-.237-14.217-.048-9.696.025-12.222.363-12.56.54-.541 2.434-.55 2.88-.013.231.28.304 4.283.228 12.56-.061 6.682-.11 12.582-.107 13.11.003.528-.016 1.608-.042 2.4s-.119 8.56-.206 17.261c-.108 10.688-.272 15.957-.507 16.24-.572.689-1.539.488-1.872-.388zm4.995-1.034c-.094-.308-.126-6.824-.07-14.48.082-11.53.02-14.124-.362-15.109-.312-.806-.4-1.785-.272-3.04.104-1.018.17-2.211.145-2.651-.024-.44-.058-6.848-.076-14.24-.029-12.073.025-13.58.524-14.803.421-1.033.599-2.698.734-6.88.099-3.035.239-5.697.312-5.917.073-.22.408-.4.744-.4 1.416 0 1.448.296 1.488 14.186.023 7.857-.087 13.497-.273 13.974-.17.44-.336 3.824-.367 7.52-.167 19.93-.586 41.039-.828 41.675-.327.86-1.453.97-1.7.165zm-9.792-.24c0-.264.144-.48.32-.48s.32.216.32.48-.144.48-.32.48-.32-.216-.32-.48zm-.207-2.796c-.135-.217-.273-4.541-.307-9.608-.044-6.595-.17-9.344-.444-9.674-.29-.348-.34-3.664-.207-13.63.158-11.789.234-13.234.72-13.772.649-.716 1.506-.773 2.138-.14.567.566.909 7.031.981 18.58.04 6.327-.045 8.216-.407 9.031-.409.922-.394 1.219.141 2.792.568 1.67.57 1.819.055 2.9-.438.919-.543 2.092-.543 6.08 0 4.437-.072 5.088-.704 6.389-.734 1.51-1.013 1.716-1.423 1.052zm-25.69-3.647c-.563-.715-.662-1.286-.655-3.76.009-3.276.328-4.998 1.319-7.105.453-.964.85-1.41 1.195-1.343.452.087.524.83.564 5.838.037 4.636-.047 5.88-.437 6.476-.629.96-1.17.931-1.986-.106zm5.639-5.441c-.256-.256.033-.756.437-.756.165 0 .3.216.3.48 0 .495-.377.636-.737.276zm-280.37-2.276c.456-1.656.67-11.349.254-11.507-.209-.08-1.145.412-2.08 1.092-3.343 2.428-4.102 2.77-4.102 1.852 0-.266 1.538-1.625 3.417-3.02 4.224-3.136 5.405-3.803 5.885-3.322.477.476.399 11.05-.093 12.696-.459 1.533-1.876 3.09-2.815 3.09-.618 0-.678-.112-.466-.88zm7.112.635c-1.071-.233-.638-1.952 1.52-6.03 1.977-3.737 2.516-5.578 1.767-6.04-.173-.107-.62-.03-.995.17-1.113.596-1.402-.107-.49-1.191 1.033-1.227 3.103-2.167 4.178-1.897.744.186.82.355.82 1.815 0 1.537-.55 3.1-1.457 4.14-.618.708-2.703 5.02-2.703 5.59 0 .355.343.488 1.254.488 1.95 0 2.266-.229 2.266-1.64 0-1.533 1.033-3.26 2.935-4.906 2.037-1.765 3.257-2.291 4.257-1.836.77.351.808.492.801 3.015-.009 3.36-.646 4.857-2.76 6.479-1.508 1.158-1.61 1.187-3.53.994-1.37-.138-2.352-.058-3.2.262-1.29.486-3.72.792-4.663.587zm10.981-4.315c.095-1.797.005-4.16-.164-4.33-.354-.353-1.244.412-1.55 1.332-.221.661-.167 1.014.22 1.442.282.312.513.88.513 1.261 0 .728.943 1.011.981.295zm303.53-1.066c-.107-.278-.194-1.042-.194-1.696 0-.654-.15-1.34-.335-1.525-.368-.368-.495-38.443-.133-39.885.13-.523.003-1.114-.37-1.68-.485-.741-.586-1.767-.675-6.878-.057-3.304.035-6.627.205-7.385a5.509 5.509 0 00-.032-2.671c-.251-.949-.237-1.933.054-3.694.217-1.32.462-3.909.543-5.753.152-3.461.393-4.167 1.422-4.167 1.17 0 1.88 1.142 1.88 3.022 0 .957-.157 1.838-.35 1.957-.22.137-.267.646-.124 1.38.125.638.29 3.206.367 5.706.114 3.682.046 4.726-.356 5.504-.618 1.196-.62 2.56-.006 3.373.655.865.66 6.63.007 7.63-.545.835-.564 1.38-.367 10.789.083 3.96.14 10.944.128 15.52-.06 21.44-.036 20.96-1.043 20.96-.235 0-.514-.228-.621-.507zm5.035-2.232c-.105-.273-.038-.813.148-1.2.306-.631.342-.582.361.498.023 1.257-.186 1.545-.51.702zm-10.815-4.681c-.093-.408-.227-3.693-.299-7.301-.071-3.608-.141-6.704-.155-6.88-.014-.176.06-1.878.164-3.781.153-2.784.081-3.807-.365-5.226-.391-1.243-.48-2.11-.301-2.938.302-1.398.302-1.475.123-16.405-.154-12.794-.158-12.77 1.658-12.77.506 0 1.204.284 1.551.631.604.604.63 1.113.628 12.044-.003 7.27-.123 11.64-.335 12.034-.216.405-.323 5.65-.306 15.076.027 15.383-.025 15.945-1.494 16.156-.513.074-.746-.097-.87-.64zm10.396-2.101c-.5-1.764-.213-65.023.3-65.981.24-.449.266-.836.071-1.08-.184-.23-.202-1.508-.045-3.259.142-1.584.269-4.72.281-6.97.02-3.377.11-4.123.517-4.28.271-.104.595-.087.72.037.124.125.23 2.267.235 4.76.005 2.493.11 4.696.235 4.896.126.2.095 1.422-.068 2.717-.24 1.906-.208 2.451.164 2.863.627.692.624 6.52-.004 7.654-.369.667-.416 5.545-.286 29.86.119 22.225.065 29.171-.227 29.523-.714.86-1.53.542-1.893-.74zm-40.97-.88c0-.264.216-.48.48-.48s.48.216.48.48-.216.48-.48.48-.48-.216-.48-.48zm46.299-7.088c-.12-.12-.219-.987-.219-1.925 0-1.304.114-1.707.48-1.707.526 0 .57.186.486 2.08-.058 1.313-.36 1.94-.747 1.552zM19 147.02c-.264-.686.462-1.393 2.35-2.286 1.81-.858 2.151-1.164 2.474-2.218.266-.87-.53-1.717-1.402-1.49-1.282.336-1.087-.787.439-2.531 1.358-1.552 1.471-1.815 1.471-3.403v-1.721l-1.12.21c-1.72.323-1.434-.518.692-2.041 2.572-1.842 3.346-1.704 3.79.677.312 1.666-.069 3.017-1.22 4.328l-.996 1.134.707.573c.39.315.707.802.707 1.081 0 .643.756.66 1.28.029.22-.264.669-.48 1-.48.474 0 .6.238.6 1.13 0 .751.176 1.197.524 1.33 1.176.452 2.006-.943 1.577-2.653-.208-.826-1.355-1.065-2.002-.417-.253.252-.537.25-1.024-.012-.62-.332-.636-.42-.198-1.089 1.098-1.676 4.446-2.698 5.663-1.73.649.517.964 3.024.562 4.477-.338 1.225-2.634 3.572-4.005 4.093-1.34.509-2.869.36-3.797-.371l-.867-.682-1.176 1.125c-2.357 2.252-5.672 3.868-6.03 2.937zm-5.863-4.058c.01-1.304.897-4.521 1.894-6.862.92-2.16 1.236-3.618.784-3.618-.108 0-1.152.843-2.32 1.873-3.069 2.707-5.56 4.524-6.203 4.526-1.006.003-.593-.614 1.44-2.151 1.965-1.485 6.002-5.446 8.273-8.117 2.564-3.015 3.02.13.944 6.532-.694 2.144-1.353 4.463-1.465 5.154-.346 2.151-3.36 4.548-3.347 2.663zm326.3-.118c-.281-.281-.245-15.61.043-18.042.19-1.606.278-1.76 1.004-1.76.72 0 .82.167 1.045 1.735.138.954.212 5.418.165 9.92l-.085 8.185-.972.095c-.534.052-1.074-.008-1.2-.133zm-30.435-9.818c-.378-.276-.533-.732-.461-1.36.135-1.184.795-1.216 1.644-.079.536.718.576.95.236 1.36-.5.603-.689.613-1.419.08zm5.646-8.138c-.733-.256-.43-1.046.4-1.046.47 0 .8.184.8.446 0 .506-.604.808-1.2.6zm-5.52-.406c0-.176.225-.32.5-.32s.41.144.3.32c-.108.176-.333.32-.498.32-.166 0-.302-.144-.302-.32zm30.558-11.843c-.11-.178-.168-3.058-.13-6.4.061-5.269 0-6.156-.459-6.663-.719-.794-.764-6.34-.059-7.273.653-.863.603-2.021-.15-3.424-.803-1.5-.8-1.867.024-2.914.764-.972 2.049-1.118 2.49-.283.162.308.314 5.71.337 12.004.036 9.798-.03 11.583-.458 12.41-.274.53-.414 1.101-.31 1.268.226.367-.386 1.598-.795 1.598-.16 0-.38-.146-.49-.324zm-322.48-3.705c-.103-.104-.111-.664-.017-1.244l.171-1.054-2.516-.137c-2.38-.13-2.576-.089-3.629.763-.612.495-1.312.9-1.557.9-.55 0-.438-.527.915-4.32.565-1.584 1.138-3.312 1.274-3.84.135-.528.557-2.095.937-3.482s.643-2.663.585-2.837c-.127-.38-1.673 1.123-6.925 6.728-3.697 3.946-4.836 4.843-4.836 3.812 0-.81 4.808-6.037 11.313-12.3 4.45-4.286 5.086-3.98 3.425 1.648-1.51 5.115-1.614 5.61-1.138 5.427.22-.084.66-.73.979-1.436.764-1.696 2.97-3.98 3.414-3.535.227.226-.025 1.064-.803 2.672-2.01 4.16-2.853 6.407-2.525 6.735.603.603 1.452.1 1.74-1.032.363-1.428 2.085-3.256 2.95-3.132.56.08.635.299.562 1.665-.11 2.087-1.544 6.563-2.392 7.467-.647.69-1.526.932-1.926.531zm-2.58-9.152c-.101-.255-.177-.18-.192.194-.014.337.061.526.168.42.106-.107.117-.383.025-.614zm10.67 8.344c-.434-.174-.9-.489-1.034-.7-.643-1.01.013-3.45 1.514-5.633.612-.888 1.112-1.69 1.112-1.783 0-.092-.36-.168-.8-.168-1.21 0-.984-.822.528-1.918 1.58-1.144 3.026-1.245 4.235-.294 1.229.967 1.797 2.273 1.797 4.132 0 1.97-.472 2.937-2.294 4.702-1.962 1.899-3.334 2.35-5.057 1.662zm3.958-3.35c.412-1.074.208-3.348-.318-3.55-.282-.109-.642.003-.8.25-.473.733-.984 2.88-.8 3.36.235.61 1.678.565 1.918-.06zm290.12 2.594c-.325-.392-.3-.518.139-.687.748-.287 1.287.314.71.793-.35.29-.54.267-.85-.106zm25.482-1.031c-.11-.67-.203-5.866-.205-11.548-.003-9.077-.068-10.43-.534-11.141-.472-.722-.509-1.7-.333-8.985.213-8.855.413-9.859 1.92-9.643 1.326.19 1.581 1.492 1.837 9.36.197 6.066.158 7.623-.223 8.75-.348 1.03-.506 3.889-.636 11.52-.231 13.542-.167 12.69-.962 12.805-.545.08-.7-.12-.864-1.12zm-21.073-3.217c-1.112-1.284-.977-3.642.254-4.448.965-.633 1.773-.348 2.5.88.659 1.117.55 3.383-.185 3.85-.717.454-2.06.308-2.57-.282zm26.353-3.2c-.163-.308-.319-3.943-.347-8.079-.042-6.259-.136-7.649-.557-8.292-.44-.67-.48-1.669-.303-7.467.113-3.681.347-6.96.522-7.287.178-.332.317-3.266.317-6.676 0-5.865.025-6.1.69-6.565.779-.546 1.64-.26 2.035.677.132.313.299 4.654.37 9.646.112 7.785.06 9.184-.362 9.829-.62.947-.622 3.297-.003 4.115.681.9.644 5.376-.053 6.44-.411.627-.48 1.23-.317 2.813.113 1.107.118 2.102.01 2.21-.108.107-.218 1.983-.245 4.169-.035 2.829-.175 4.125-.486 4.5-.56.675-.903.666-1.272-.033zm4.93-4.148c-.115-.302-.2-4.734-.187-9.85.019-7.765-.056-9.406-.454-9.932-.675-.893-.607-2.826.148-4.23.531-.988.609-1.54.438-3.12-.115-1.056-.414-2.326-.665-2.822-.373-.735-.415-1.967-.23-6.657.197-4.981.31-5.86.843-6.538 1.759-2.236 4.13.787 2.65 3.377-.633 1.106-.626 5.702.01 6.541.317.42.47 1.411.47 3.06s-.153 2.638-.47 3.058c-.568.75-.628 2.486-.12 3.434.43.805.41 2.887-.037 3.723-.178.33-.33 4.678-.355 10.142-.028 5.95-.168 9.713-.37 9.962-.47.577-1.425.492-1.67-.148zm-30.998-4.692c-.233-.609.58-1.29 1.24-1.037.28.108.46.448.401.756-.134.704-1.396.92-1.64.281zm5.62.228c-.63-.254-.466-1.004.273-1.238.803-.255 1.409.25 1.14.949-.192.5-.655.595-1.412.29zm30.854-.001c-.336-.336-.25-1.327.137-1.566.498-.307 1.375.67 1.143 1.275-.198.515-.897.674-1.28.291zm-.043-6.747c-.128-1.364-.202-5.315-.165-8.78.063-5.957.03-6.35-.61-7.249-.872-1.225-.884-3.56-.029-5.446.882-1.942.878-5.589-.007-6.925-.795-1.201-.81-2.406-.045-3.932.327-.653.69-1.584.806-2.068.116-.484.42-.88.674-.88 1.185 0 1.175-.24 1.119 26.196-.012 5.36-.116 7.033-.484 7.744-.258.5-.47 1.563-.47 2.364 0 2.36-.536 1.664-.789-1.024zm4.95-2.766c0-1.223.602-1.646 1.455-1.022.851.623.385 2.108-.662 2.108-.689 0-.794-.143-.794-1.086zm-351.68-1.781c0-1.208 1.484-2.15 3.718-2.358 1.132-.106 2.702-.477 3.49-.826l1.431-.633v-1.932c0-1.811-.051-1.945-.828-2.14-1.166-.292-4.084.057-5.888.706-2.757.991-3.475-.252-1.288-2.228 1.136-1.026 1.363-1.112 2.07-.79.629.286 1.085.252 2.176-.165 1.4-.534 5.215-.718 5.874-.282.195.13.603.719.906 1.31l.55 1.075.855-.81c.47-.446 1.468-1.054 2.218-1.352 1.148-.455 1.52-.477 2.333-.14 1.297.536 1.902 1.48 1.902 2.96 0 1.468-.895 2.894-2.833 4.513-1.318 1.101-1.505 1.16-3.738 1.16-1.293 0-2.44-.145-2.549-.32-.328-.532-.999-.37-2.618.633-1.966 1.216-4.97 2.246-6.552 2.246-1.008 0-1.23-.113-1.23-.627zm15.813-4.687c.606-.233.69-2.054.123-2.622-.684-.683-2.115-.455-2.694.43-1.065 1.624.523 2.978 2.571 2.192zm310.29 4.395c-.483-.903-.424-1.63.15-1.85.677-.26 1.798.828 1.683 1.631-.13.902-1.387 1.051-1.833.219zm25.725-3.641c-.084-.22-.115-9.902-.07-21.516.073-18.475.143-21.126.563-21.2 1.32-.23 1.306-.466 1.309 21.331.003 15.482-.095 20.998-.373 21.333-.463.559-1.224.586-1.429.051zm-30.562-.588c-.236-.44-.298-1.259-.166-2.179.116-.81.267-2.6.336-3.977.318-6.375 1.039-5.533 1.178 1.377.096 4.737.052 5.283-.431 5.38-.304.06-.703-.202-.917-.6zm-327.45-.852c-.08-.132.275-2.173.79-4.535.604-2.765.827-4.405.628-4.604-.2-.2-.857.173-1.849 1.047-1.556 1.371-3.244 2.414-3.497 2.161-.348-.348.403-1.243 2.376-2.828 1.178-.947 2.188-1.824 2.245-1.95.269-.599 3.322-2.534 3.743-2.373.303.117.474.62.474 1.4 0 1.095-1.23 7.638-1.774 9.44-.47 1.557-2.616 3.09-3.136 2.242zm363.53-6.237c-.512-.375-.541-1.544-.412-16.563.17-19.723.355-22.366 1.484-21.236.22.22.355 6.563.4 18.774.059 16.251.008 18.501-.427 18.936-.404.404-.593.42-1.045.09zm-355.21-1.45c-.372-.603 2.068-2.567 4.058-3.268 1.088-.383 2.45-.9 3.028-1.15 1.202-.52 2.506-.594 2.775-.158.47.76-1.397 1.986-4.945 3.246-4.823 1.713-4.7 1.68-4.916 1.33zm329.18-9.534c-.29-.76.392-1.295 1.003-.787.38.315.411.517.135.85-.48.578-.9.554-1.138-.063zm31.24.006c-.299-.36-.273-.498.122-.65.54-.207 1.171.057 1.171.49 0 .504-.913.617-1.293.16zm-36.467-.305c0-.36.225-.493.72-.422.396.056.72.246.72.422s-.324.366-.72.422c-.495.07-.72-.061-.72-.422zm41.28 0c0-.36.225-.493.72-.422.396.056.72.246.72.422s-.324.366-.72.422c-.495.07-.72-.061-.72-.422zm-5.089-1.883c-.494-.596-.467-24.47.029-25.069.584-.704 1.533-.469 1.902.472.242.615.248 1.265.018 2.16-.209.814-.268 4.982-.162 11.459.154 9.397.124 10.227-.395 10.8-.667.737-.903.767-1.392.178zm4.99-.952c-.13-.34-.321-13.059-.297-19.725.053-14.312.035-13.997.856-14.947l.771-.893.36.941c.306.8.308 8.58.006 19.38-.012.44.07 1.397.181 2.127.147.959.041 1.67-.382 2.56-.635 1.338-.62 2.095.066 3.14.705 1.076.478 6.307-.311 7.18-.71.783-1.017.841-1.249.238zm5.375.06c-.307-.801-.026-5.552.324-5.467.43.104.597 5.213.185 5.626-.218.217-.384.166-.509-.159zm.03-6.405c-.251-.806-.552-3.637-.622-5.86-.05-1.555.068-2.409.385-2.792.358-.433.38-.743.102-1.44-.51-1.284-.091-24.155.453-24.699.362-.361.54.505.663 3.234.074 1.637.278 3.425.454 3.973.184.573.297 4.372.267 8.96-.042 6.283-.15 8.12-.512 8.706-.316.511-.358.862-.134 1.132.179.215.462 1 .629 1.744.244 1.085.184 1.669-.304 2.95-.333.88-.607 2.165-.607 2.857 0 1.235-.518 2.061-.775 1.235zm5.593-.88c-.654-.655-.588-1.62.112-1.62.557 0 1.15.683 1.15 1.325 0 .87-.556 1-1.262.294zm-284.99-.236c-.805-.805-.444-2.168 1.769-6.686 1.889-3.857 2.072-4.618 1.11-4.618-.25 0-.69-.36-.978-.8-.475-.725-.478-.87-.03-1.556.553-.843 1.976-1.245 3.402-.96.801.161 1.113.004 2.079-1.047 1.645-1.792 1.52-2.037-1.038-2.037-2.755 0-3.701-.797-2.441-2.057.405-.405 1.301-.503 4.59-.503 3.654 0 4.148.067 4.656.627.805.89.475 1.785-1.464 3.96l-1.662 1.865.848.787c.963.892 1.042 1.335.4 2.214-.323.441-.977.661-2.32.78l-1.87.167-1.319 2.72c-.725 1.496-1.268 2.81-1.207 2.918.06.109 1.23-.07 2.598-.398 3.305-.79 5.028-.779 5.847.04.352.352.64.856.64 1.12 0 .835-1.163 1.685-2.606 1.905-2.841.433-6.484 1.21-7.72 1.646-1.68.592-2.63.567-3.284-.087zm-58.326-.808c-1.108-1.108.136-6.823 2.494-11.456.492-.968 1.234-2.84 1.649-4.16.72-2.292.8-2.404 1.793-2.5 1.218-.118 1.199-.154 2.75 5.22.998 3.459 1.546 4.467 1.74 3.2.354-2.323 1.836-8.115 2.229-8.715.573-.875 1.708-.94 2.432-.14.697.771.676 1.097-.307 4.771-1.574 5.883-2.027 7.926-2.243 10.101-.139 1.4-.436 2.457-.832 2.96-.672.855-1.885 1.03-2.446.354-.546-.658-1.889-5-2.486-8.04-.45-2.286-.61-2.666-.99-2.35-.945.784-2.26 4.243-3.321 8.739-.208.88-.519 1.78-.691 2-.397.507-1.272.515-1.77.016zm16.152-.726c-.627-.627-.633-.669-.219-1.444.354-.66 2.396-1.401 5.262-1.91 4.044-.716 5.912-.257 5.508 1.353-.245.977-.372 1.023-4.526 1.653-1.76.267-3.715.575-4.345.684-.842.147-1.286.058-1.68-.336zm25.704-.81c-.529-.529-.64-1.07-.645-3.12-.003-1.364-.11-2.642-.24-2.84-.129-.2-.832-.461-1.561-.583-1.13-.189-1.427-.115-2 .501-.37.398-.674.9-.674 1.118 0 .668-1.621 2.364-2.26 2.364-.94 0-1.625-1.287-1.296-2.433.281-.98 2.102-4.799 2.573-5.395.304-.385 2.862-6.346 3.672-8.553.73-1.994 1.67-3.139 2.575-3.139 1.352 0 1.323-.127 1.955 8.8.277 3.924.306 4 1.538 4 1.13 0 2.123.794 2.123 1.698 0 .657-1.361 1.582-2.14 1.454-1.148-.19-1.327.26-1.147 2.886.156 2.27.106 2.583-.51 3.2-.846.845-1.153.852-1.963.042zm-.782-10.036c.263-1.05.05-2.852-.353-2.984-.319-.105-1.43 2.497-1.426 3.34 0 .22.358.4.795.4.568 0 .848-.216.984-.756zm301.64 6.276c.059-.308.32-.56.579-.56s.52.252.579.56c.076.393-.097.56-.58.56-.481 0-.654-.167-.578-.56zm-326.16-.47c-.341-.126-.62-.433-.62-.68 0-1.052.96-1.28 6.027-1.425 4.201-.122 5.094-.067 5.426.334.524.631.17 1.489-.688 1.673-1.196.257-9.5.337-10.145.098zm36.474-1.188c-.631-.123-1.675-.55-2.32-.95-.91-.56-1.174-.93-1.174-1.64 0-1.483.97-1.912 4.324-1.912 4.425 0 6.671 1.352 5.593 3.367-.213.397-.738.882-1.167 1.077-.847.387-3.43.415-5.256.058zm289.85-14.945c-.504-.504-.205-1.12.495-1.02.396.056.72.316.72.578 0 .508-.842.815-1.215.442z"/></svg>