<svg viewBox="0 0 619.2 304.32" xmlns="http://www.w3.org/2000/svg"><path d="M312.33 303.32c-.974-.389-1.278-.84-1.284-1.91-.003-.455-.094-.916-.204-1.026-.109-.109-1.08.25-2.16.8-1.596.81-2.368 1.001-4.146 1.024-2.587.033-3.095-.399-3.095-2.636 0-2.675.595-3.884 3.183-6.474 2.732-2.733 4.1-3.502 6.235-3.502 1.593 0 2.17.577 1.569 1.564-.601.985-3.346 2.596-4.424 2.596-.575 0-1.19.18-1.367.4-.484.6-.792 2.375-.547 3.147.198.626.397.672 2.413.558 2.665-.15 3.749-.838 4.504-2.858.514-1.374 2.24-4.432 4.498-7.967.618-.968 1.419-2.431 1.78-3.252 1.287-2.929 3.294-5.99 5.188-7.914 1.058-1.075 2.14-1.954 2.406-1.954.738 0 .575 1.034-.356 2.258-.461.606-1.411 2.326-2.111 3.822-.7 1.496-1.908 3.741-2.683 4.989-1.35 2.17-1.39 2.309-.952 3.2.924 1.878-.094 4.273-3.086 7.266-1.709 1.708-2.26 2.64-2.015 3.41.192.605.462.655 3.56.655 2.688 0 3.585-.122 4.538-.618 1.528-.796 2.918-2.12 3.381-3.22.436-1.036 2.463-3.337 3.363-3.82 1.613-.862 1.645-.265.202 3.78-.581 1.629-.74 2.466-.512 2.694.556.556 2.831-.71 4.188-2.33 1.302-1.555 3.324-2.874 3.751-2.446.139.138-.144.96-.627 1.826-.483.866-.825 1.574-.76 1.574.066 0 .75-.345 1.52-.768.77-.423 1.867-.866 2.437-.985 1.395-.29 1.557-.68.494-1.189-1.23-.59-1.264-1.37-.115-2.678 1.083-1.233 1.151-1.445.635-1.962-.491-.49.375-1.726 2-2.853.997-.69 1.679-.904 2.914-.913.99-.007 1.666.139 1.748.377.074.214-.524 1.093-1.33 1.954-.804.86-1.462 1.71-1.462 1.889 0 .179.684.51 1.52.736 4.34 1.175 4.963 2.449 2.38 4.865-.847.792-1.85 1.607-2.23 1.81-.866.463-9.441 2.34-10.95 2.396-.99.036-1.11-.045-1.04-.697.055-.52-.04-.666-.32-.493-.22.136-1.54 1.01-2.934 1.942-2.673 1.789-4.342 2.463-5.64 2.28-.624-.088-.807-.325-.886-1.15-.117-1.212-.322-1.27-1.426-.402-.447.352-1.726 1.072-2.843 1.6-1.829.865-2.334.959-5.071.94-1.672-.01-3.396-.161-3.831-.335zm41.511-.786c-.42-.428-.258-5.375.24-7.286.64-2.46.609-2.927-.24-3.5l-.72-.486 1.599-1.543c.88-.849 2.175-2.435 2.88-3.524 2.006-3.103 6.378-7.479 7.471-7.479.724 0 .352.994-.87 2.327-1.173 1.28-3.52 4.87-3.967 6.063-.113.302-.072.632.09.732.326.202 5.244-.609 7.083-1.167 1.667-.507 2.05-.144 1.26 1.193l-.644 1.092h.93c1.258 0 1.5.533.701 1.552-.365.467-.957 1.424-1.316 2.128-.358.704-1.441 2.144-2.407 3.2-1.9 2.078-2.243 2.91-1.05 2.541 3.86-1.19 7.415-4 7.77-6.142.32-1.934.757-2.8 2.01-3.98 1.875-1.768 2.972-2.499 3.749-2.499 1.512 0 1.247 1.227-1.003 4.638-1.297 1.967-2.016 4.429-1.524 5.215.188.301.77.59 1.291.643 1.314.133 4.652-2.202 6.507-4.551 1.511-1.913 2.978-3.06 3.92-3.063.775-.003.728 1.25-.124 3.228-.376.874-.596 1.677-.488 1.784.107.108.712-.22 1.345-.73 3.004-2.414 3.883-2.989 4.582-2.996.74-.008.752.038.585 2.312-.093 1.276-.27 2.716-.392 3.2-.174.686-.11.88.288.88.998 0 4.005-2.25 6.964-5.21 3.112-3.115 5.473-4.613 6.671-4.233 1.59.505.03 2.491-3.031 3.859-.95.424-1.815 1.086-2.13 1.63-.647 1.117-1.056 3.649-.772 4.779l.209.832 3.32-.108c1.827-.06 3.414-.203 3.528-.317.114-.115.406-1.155.648-2.312.574-2.744 1.706-4.62 3.941-6.532 2.915-2.493 3.193-2.628 5.428-2.628 1.966 0 3.177.36 3.663 1.088.13.193.237.961.24 1.706.004 1.23-.186 1.556-2.075 3.559-1.144 1.213-2.08 2.295-2.08 2.406s1.013.2 2.25.2c1.788 0 2.291.108 2.451.524.275.718-.202 1.387-1.797 2.517-1.305.924-1.518.967-5.73 1.14-4.279.177-4.439.21-7.34 1.52-2.941 1.33-2.994 1.34-6.735 1.34-2.506 0-3.9-.129-4.155-.384-.211-.211-.384-1.195-.384-2.187 0-.991-.09-1.892-.2-2.002-.217-.217-1.535.455-4.28 2.183-3.006 1.891-3.952 1.279-3.23-2.088.192-.899.35-1.842.35-2.098 0-.776-1.193-.52-2.144.46-1.205 1.242-4.271 3.285-4.706 3.135-.401-.138-.42-1.534-.04-2.94l.26-.96-.765.7a25.7 25.7 0 01-1.778 1.44c-.557.407-1.622 1.209-2.368 1.78-1.216.934-1.573 1.04-3.483 1.04-2.276 0-2.896-.317-2.896-1.484 0-1.206-.512-1.143-2.617.321-1.113.774-2.937 1.865-4.053 2.425-1.8.903-2.309 1.013-4.48.967-1.348-.028-3.242.048-4.21.171-.968.122-1.868.113-2-.022zm6.003-5.658c.46-.924 1.706-2.562 2.77-3.64 1.062-1.08 1.809-2.033 1.66-2.12-.537-.31-4.899.567-5.42 1.09-.385.384-.575 1.329-.696 3.44-.143 2.513-.096 2.91.342 2.91.293 0 .862-.711 1.344-1.68zm55.739-2.869c1.465-.853 1.994-1.471 2.008-2.347.015-.971-.61-1.424-1.966-1.424-1.386 0-1.978.674-2.323 2.646-.354 2.016.244 2.31 2.281 1.125zm-83.732-8.45c.012-.721.402-1.227 2.001-2.6 1.117-.96 2.67-1.372 3.194-.849.68.68-2.378 3.483-4.193 3.846-.85.17-1.01.106-1.002-.398zm260.84-2.965c-1.11-.703 1.986-3.542 4.933-4.522 2.238-.745 3.322-1.598 2.02-1.588-1.022.008-6.732 1.4-8.92 2.174-2.765.978-4.003 1.34-4.583 1.34-.62 0-.72-.968-.158-1.53.208-.209.268-.49.134-.624-.134-.135-3.509-.339-7.499-.453-9.265-.265-14.09-.682-18.294-1.582-2.748-.59-4.844-.759-11.52-.933-4.488-.117-12.264-.465-17.28-.772-7.958-.488-12.544-.534-36-.36-29.465.218-36.807.364-41.554.827-4.37.426-61.56.401-64.046-.028-2.23-.385-11.274-.774-32.32-1.393-13.579-.398-15.289-.509-17.6-1.134-1.947-.527-4.091-.76-8.96-.978-3.52-.157-7.48-.435-8.8-.618-1.586-.22-13.296-.289-34.56-.202-30.087.123-32.593.176-38.88.82-3.696.38-10.642.814-15.437.964-4.794.151-8.88.375-9.079.498-.199.123-3.62.345-7.603.493-7.677.284-11.06.491-12.771.78-4.533.767-10.567 1.136-21.03 1.288-7.958.115-12.732.32-14.56.625-1.496.249-4.952.597-7.68.774-2.728.176-5.752.474-6.72.66-.968.187-3.992.467-6.72.624-2.812.161-6.345.586-8.16.981-3.05.664-3.732.689-14.56.524-8.518-.129-11.88-.294-13.44-.657-1.144-.267-3.376-.575-4.96-.683s-4.83-.474-7.212-.81c-3.921-.554-5.794-.988-10.228-2.372-.792-.247-2.371-.548-3.51-.668-1.138-.121-3.01-.497-4.16-.835-5.084-1.496-5.023-1.485-6.341-1.134-1.489.398-3.273-.155-3.263-1.01.003-.287.448-1.17.99-1.962l.983-1.44-.217-13.76c-.125-7.917-.415-15.73-.681-18.4-.255-2.552-.598-8.384-.762-12.96s-.45-9.328-.635-10.56c-.207-1.375-.415-14.349-.538-33.6-.181-28.188-.148-31.67.323-34.42.42-2.45.528-5.488.546-15.2.011-6.678-.129-14.228-.312-16.78-.184-2.552-.337-6.368-.34-8.48-.003-2.112-.228-5.208-.5-6.88-.29-1.788-.472-4.727-.443-7.138.027-2.255-.04-4.189-.151-4.3-.11-.11-2.43-.161-5.155-.115-4.382.075-4.954.025-4.954-.432 0-.922 1.054-2.162 3.474-4.085 1.925-1.53 2.558-1.866 3.368-1.787.97.095 1.108.352.796 1.487-.198.72.85 1.187 1.865.832.696-.245.957-.599 1.169-1.588.15-.7.618-2.57 1.042-4.154.96-3.593.982-6.27.126-15.52-.92-9.94-2.042-16.794-2.903-17.728-.153-.167-.602-.066-1.07.24-.443.29-1.098.528-1.456.528-.587 0-.651-.202-.651-2.047 0-1.148.283-2.963.646-4.137.355-1.15.773-3.074.928-4.274.155-1.2.424-2.542.598-2.982.448-1.138 4.054-4.48 4.833-4.48.872 0 3.389 3.861 4.556 6.99.484 1.298 1.249 2.892 1.7 3.542.45.65.819 1.433.819 1.74 0 .786-3.028 3.728-3.836 3.728-.486 0-.835-.392-1.284-1.44-.873-2.037-1.721-1.983-.932.059 1.18 3.053 3.17 19.9 3.171 26.844 0 3.127-.143 4.347-.752 6.4-.415 1.395-.849 3.49-.965 4.654-.283 2.838-.087 2.987 3.559 2.709 1.54-.118 3.34-.204 4.002-.192.662.012 2.39-.257 3.84-.596s3.68-.684 4.953-.765c2.87-.183 3.37.196 2.16 1.633-1.511 1.796-2.727 2.302-6.302 2.626-6.757.612-7.934.806-7.934 1.305 0 .24 2.41.32 7.92.261 4.356-.047 11.016.075 14.8.271 6.372.33 8.786.516 17.44 1.35 1.76.168 6.224.395 9.92.503 4.17.121 7.57.384 8.96.691 1.689.373 5.271.548 14.56.709l12.32.213 1.92.89c1.056.49 2.423 1.274 3.038 1.742.614.469 1.65 1.213 2.3 1.653.65.44 3.315 2.888 5.923 5.44 2.608 2.552 5.816 5.576 7.13 6.72s2.753 2.485 3.198 2.98c.446.497 1.782 1.551 2.969 2.344s2.377 1.756 2.644 2.139c.268.383 1.744 1.995 3.282 3.581 1.538 1.587 3.372 3.541 4.076 4.344 1.707 1.946 2.635 2.532 4.01 2.532 1.763 0 2.13-.49 2.333-3.112.267-3.461 2.339-7.317 5.535-10.302 2.19-2.045 8.545-6.198 10.783-7.046.495-.187 2.255-.341 3.911-.341 2.87 0 3.128.059 5.522 1.266 1.38.696 2.933 1.424 3.448 1.618s1.874.904 3.018 1.58c1.616.953 2.673 1.316 4.738 1.624 3.185.475 5.196.278 8.571-.839 1.392-.46 3.66-.968 5.042-1.129 3.084-.357 3.729-.672 3.729-1.82 0-.529.52-1.572 1.312-2.629 2.021-2.698 3.237-3.15 4.654-1.734.742.742.806 1.012.705 2.96l-.111 2.143 10.984.175 1.487-1.287c2.212-1.915 4.037-1.66 4.823.675.428 1.271 1.286 1.51 5.543 1.539 2.637.018 2.674.007 2.441-.702-.89-2.713-.326-6.051 1.152-6.815 1.386-.717 2.176-.563 3.402.663 1.055 1.056 1.118 1.231.973 2.74-.09.941-.44 2-.84 2.54-1.274 1.723-1.512 1.623 5.875 2.455 4.215.475 7.774.577 20.134.577h15.014l.506-1.59c.688-2.16 1.87-2.928 4.955-3.217 1.294-.121 2.669-.12 3.054.002.858.272 1.933 1.958 1.94 3.045.015 1.81-.246 1.787 11.939 1.097 2.496-.142 3.746-.08 4.48.22.56.228 2.602 1.836 4.538 3.574 2.892 2.596 6.041 4.71 7.02 4.71.335 0 .183-1.196-.3-2.351-.662-1.586-.6-2.85.188-3.853.77-.978 2.41-1.912 2.977-1.695.213.082.793 1.209 1.29 2.504 1.967 5.128 2.368 5.787 4.456 7.33 1.147.847 2.213 1.948 2.553 2.635.322.65.97 1.477 1.44 1.84 2.999 2.307 6.548 4.819 7.464 5.282.59.298 1.36.799 1.712 1.112.871.777 3.426 1.595 4.977 1.595 1.276 0 3.214-.96 4.105-2.034.238-.287 1.244-.976 2.235-1.53.992-.555 2.307-1.477 2.923-2.048 1.796-1.667 5.725-4.145 8.32-5.25 3.245-1.38 5.745-1.928 8.8-1.93 3.188-.002 4.79.684 8.128 3.48 2.948 2.47 6.707 5.011 8.433 5.702 1.536.615 4.163 2.164 6.082 3.586 2.345 1.738 3.552 2.54 5.037 3.343 10.924 5.91 10.703 5.734 13.339 10.694 1.189 2.237 2.798 5.651 3.577 7.587s1.738 3.952 2.133 4.48c.396.528 1.112 1.752 1.593 2.72 1.135 2.284 4.017 6.961 5.437 8.82.613.804 1.341 2.24 1.618 3.192.62 2.136 1.023 2.972 3.424 7.114 2.223 3.836 2.933 5.576 3.428 8.41.198 1.135.719 3.504 1.157 5.264s.946 4.712 1.129 6.56c.196 1.977.661 4.282 1.13 5.6l1.759 4.949c.587 1.65 1.13 4.089 1.39 6.24.274 2.27.848 4.788 1.608 7.05 1.12 3.334 2.373 8.553 3.073 12.8.186 1.135.964 3.24 1.9 5.143.871 1.772 1.584 3.471 1.584 3.777 0 .305.38 1.822.844 3.372 1.013 3.386 1.959 4.549 5.876 7.227 4.252 2.906 5.463 3.362 9.152 3.449 3.139.073 3.147.07 3.571-.8.234-.48.546-2.064.694-3.52.373-3.681 1.125-6.823 2.457-10.266 1.054-2.726 3.209-8.611 4.63-12.65.332-.94 1.186-4.108 1.898-7.04.713-2.932 1.508-6.195 1.768-7.25.706-2.875 1.633-8.217 2.083-12 .716-6.029 2.815-10.79 6.174-14.009 2.803-2.686 4.775-3.504 6.106-2.531.43.314.645 1.119.855 3.19.376 3.705 1.58 7.083 3.069 8.608.64.656 1.394 1.87 1.674 2.7.555 1.644.817 1.865 2.795 2.358.82.204 1.917.876 2.88 1.763.854.789 1.724 1.435 1.931 1.437.524.005 1.202-.726 2.643-2.848.681-1.002 2.112-2.632 3.18-3.621 1.627-1.505 2.243-1.861 3.777-2.18 1.79-.37 1.85-.36 2.488.436.818 1.02 2.049 1.496 3.862 1.496 1.308 0 1.585-.167 3.972-2.4 1.412-1.32 2.851-2.4 3.199-2.4.407 0 .82.396 1.158 1.11.29.61 1.135 1.762 1.878 2.56 1.691 1.816 2.562 1.87 6.159.375 3.903-1.622 3.95-1.625 5.177-.37 1.329 1.36 1.18 2.002-.818 3.528-1.716 1.31-2.042 1.35-3.307.416l-.948-.701-2.479 1.055c-4.933 2.1-6.139 1.937-8.463-1.142-.71-.94-1.405-1.71-1.543-1.71s-.877.512-1.642 1.14c-.764.626-1.63 1.335-1.925 1.574-1.082.882-1.864 1.125-3.614 1.125-2.019 0-3.796-.623-4.597-1.613-.768-.947-1.385-.586-3.225 1.885-2.898 3.893-6.033 6.449-7.91 6.449-.834 0-1.455-.347-2.792-1.558-1.247-1.129-2.166-1.665-3.337-1.946-1.889-.453-2.387-.93-3.054-2.922-.27-.806-.993-1.967-1.605-2.58-.647-.647-1.27-1.696-1.488-2.505-.207-.765-.57-1.693-.808-2.06-.238-.368-.523-1.605-.633-2.75-.28-2.92-.435-3.52-.91-3.52-1.04 0-2.46 3.921-3.245 8.96-1.244 7.993-1.518 9.578-2.072 12-.321 1.409-.975 4.289-1.451 6.4-.477 2.113-1.366 5.28-1.977 7.04-.61 1.76-1.583 4.713-2.16 6.56-.577 1.849-1.729 4.944-2.56 6.88-1.563 3.648-2.231 6.36-2.73 11.085-.392 3.726-1.276 5.394-4.24 8.007-3.904 3.44-4.533 3.674-8.551 3.17-3.224-.404-4.69-1.036-8.754-3.777-3.969-2.676-5.64-4.493-6.43-6.993-1.323-4.184-1.482-4.746-1.482-5.244 0-.284-.667-1.879-1.483-3.543-.87-1.773-1.585-3.753-1.73-4.785-.42-2.973-2.142-10.091-3.316-13.696-.625-1.92-1.204-4.477-1.32-5.824-.27-3.174-.848-5.376-2.405-9.175-1.007-2.458-1.388-3.948-1.743-6.825-.443-3.585-.757-5.341-2.047-11.439-.948-4.484-1.383-5.558-4.3-10.64-1.8-3.136-2.137-3.83-2.74-5.633-.362-1.087-1.776-3.648-3.187-5.774-1.394-2.102-3.137-4.967-3.872-6.367-.736-1.4-1.758-3.267-2.27-4.147s-1.327-2.608-1.807-3.84c-1.202-3.084-4.029-8.704-5.172-10.282-.87-1.202-2.504-2.305-7.568-5.11a636.041 636.041 0 01-6.213-3.5c-.601-.345-1.61-1.07-2.24-1.612-1.502-1.288-4.676-3.157-6.183-3.64-.657-.21-1.272-.507-1.367-.66-.094-.152-.955-.725-1.913-1.273-.959-.549-2.936-1.997-4.394-3.22-3.748-3.142-5.22-3.825-8.233-3.815-3.054.01-4.555.341-8.3 1.83-2.267.901-3.32 1.526-4.291 2.544-.708.743-2.408 2.002-3.778 2.798-1.37.796-2.987 1.883-3.594 2.416-1.95 1.712-4.728 3.204-5.966 3.204-2.79 0-7.344-2.077-10.347-4.719-1.203-1.06-2.067-1.167-2.925-.365-.54.505-1.296.305-2.428-.642-1.037-.867-1.085-.99-.743-1.902.488-1.302.073-1.642-3.533-2.891-1.566-.543-4.014-1.657-5.44-2.476a5289.24 5289.24 0 01-4.485-2.58c-1.042-.6-3.37-2.442-5.177-4.094-3.7-3.386-4.174-3.568-8.477-3.254-11.402.83-48.518.957-55.333.189-1.496-.17-7.04-.512-12.32-.763s-10.103-.61-10.718-.8c-1.471-.451-17.91-.454-20.198-.002-.948.187-2.948.462-4.444.612s-3.996.646-5.556 1.1c-4.691 1.37-9.887 1.052-13.448-.822-8.26-4.347-8.448-4.418-11.573-4.424-2.722-.005-3.053.07-5.497 1.252-4.614 2.23-6.552 5.023-7.068 10.187-.352 3.513-.977 4.62-4.02 7.117-2.136 1.754-3.372 2.233-5.76 2.236-2.058.002-3.07-.658-5.988-3.91-3.444-3.837-7.958-8.333-9.25-9.213-1.433-.977-6.452-5.52-12.97-11.741-5.649-5.392-8.68-7.745-11.35-8.81-1.665-.665-2.398-.713-13.6-.891-9.31-.148-12.353-.302-14.24-.72-1.526-.337-5.37-.657-10.56-.878-4.488-.19-9.6-.479-11.36-.64-1.76-.16-6.728-.444-11.04-.63-4.312-.185-8.64-.478-9.619-.65-.978-.174-5.252-.316-9.497-.316-9.651 0-9.23-.25-8.243 4.909.264 1.38.48 4.075.48 5.99s.228 7.41.507 12.212c.661 11.369.496 26.252-.337 30.49-.528 2.681-.552 4.996-.356 33.655.116 16.926.345 31.598.509 32.604s.455 5.66.648 10.345c.194 4.684.484 9.524.646 10.756s.459 10.232.66 20c.4 19.35.305 18.56 2.208 18.56.463 0 1.912.365 3.218.81 1.307.447 3.456.955 4.776 1.129 2.175.286 3.58.637 8.443 2.108 1.787.541 4.43.9 11.238 1.526 2.64.242 5.808.662 7.04.933 3.994.877 11.265 1.281 18.689 1.04 5.84-.19 7.406-.35 10.11-1.034 2.43-.615 4.521-.87 8.691-1.064 3.02-.14 5.615-.33 5.766-.424.152-.094 3.009-.329 6.35-.522 3.34-.193 7.298-.558 8.794-.81 1.845-.31 6.477-.512 14.4-.626 11.032-.16 14.655-.408 21.205-1.454 1.172-.188 5.792-.464 10.265-.614 4.472-.15 8.316-.387 8.542-.526.225-.139 4.526-.363 9.558-.498 5.032-.134 12.461-.554 16.51-.932 6.811-.636 9.702-.696 38.831-.81 19.253-.074 32.05-.002 32.96.184.819.168 4.597.444 8.396.612 5.018.223 7.688.49 9.76.98 2.431.573 4.46.714 13.732.956 5.984.156 12.608.365 14.72.464 2.112.1 7.296.31 11.52.466 4.224.157 8.416.45 9.315.652 2.198.494 64.946.263 71.165-.262 6.848-.578 69.024-.642 74.56-.076 2.376.242 8.208.529 12.96.636s8.79.294 8.973.413c.673.44 6.193 1.277 10.707 1.625 6.883.53 26.078.512 27.6-.027.66-.234 1.2-.536 1.2-.672s-1.69-.812-3.757-1.502c-4.292-1.434-4.596-1.796-2.942-3.503 2.193-2.263 4.044-2.46 10.106-1.075 4.875 1.114 7.237 2.399 7.582 4.125.234 1.17 1.162 1.612 3.382 1.612 1.97 0 2.589.637 2.589 2.672 0 1.303-.167 1.683-1.26 2.868-1.333 1.446-3.628 2.78-4.786 2.78-1.259 0-1.163-.924.244-2.358 1.6-1.631 1.353-2.124-1.062-2.118-2.66.006-4.741.767-8.556 3.127-2.734 1.692-7.671 4.278-8.065 4.224a5.693 5.693 0 01-.469-.28zM75.531 84.952c.223-.268.318-.574.213-.68-.328-.327-1.18.162-1.18.678 0 .627.448.628.967.002zm221.92 150.25c-.517-.836 1.735-3.004 3.66-3.522.957-.258 1.452-.673 2.204-1.849 1.177-1.839 3.892-7.225 3.892-7.72 0-.482-.15-.456-1.6.284-.69.352-1.77.64-2.4.64-.63 0-1.737.302-2.46.671-1.152.588-1.659.646-4.068.469-5.496-.404-10.252-.266-11.15.322-1.229.805-4.609 1.006-5.3.314-1.624-1.623.863-6.293 5.425-10.189 2.33-1.989 3.296-2.466 4.993-2.466 2.358 0 2.618.794 1.481 4.535-.486 1.6-.58 2.333-.333 2.58s.758-.542 1.799-2.784c.8-1.722 1.453-3.202 1.453-3.288 0-.333 4.271-6.692 5.073-7.552.963-1.033 2.427-1.884 2.726-1.585.42.418.15 1.1-1.512 3.835-2.832 4.657-4.138 7.417-4.271 9.017-.163 1.958.41 2.99 1.827 3.301 2.148.47 2.608.16 3.934-2.652 1.307-2.77 3.596-5.407 4.695-5.407.862 0 .821.412-.303 3.049-1.083 2.539-1.181 3.29-.468 3.563.765.294 2.615-1.683 3.784-4.044.747-1.507 1.568-2.532 3.014-3.76 1.93-1.639 3.581-2.225 3.581-1.271 0 .525-1.638 3.121-2.326 3.686-.284.233-.899 1.425-1.367 2.65-1.032 2.7-4.986 10.466-6.328 12.425-1.47 2.148-5.01 5.607-6.526 6.377-1.43.726-2.808.89-3.129.37zm-10.754-14.67c.342-.64.568-3.784.292-4.06-.347-.348-1.228.257-1.856 1.273-.629 1.018-.863 2.727-.433 3.157.431.431 1.693.197 1.997-.371zm-60.459 6.173c-.998-1.202 1.423-5.164 5.408-8.849 2.23-2.062 6.876-5.09 7.942-5.178.916-.075 1.101 1.611.405 3.68-.866 2.569-.834 3.478.124 3.478.875 0 1.481-.616 2.391-2.426 1.277-2.54 7.12-6.963 8.501-6.433.437.168.518.798.518 4.049 0 3.458.057 3.848.56 3.837.825-.02 3.146-2.248 3.685-3.537.534-1.28 3.102-3.685 4.624-4.332 1.235-.525 2.775-.565 3.654-.095.538.288.628.622.56 2.075-.044.953-.004 1.808.09 1.901.092.093.714-.265 1.381-.795 1.144-.91 1.376-.964 4.063-.964 2.788 0 2.893-.029 4.836-1.292 3.202-2.081 3.25-2.026 3.354 3.895l.088 5.003-1.658 1.49c-2.48 2.23-2.66 2.057-2.768-2.644-.066-2.897-.191-3.905-.475-3.81-.212.07-.49.743-.619 1.494s-.497 1.817-.82 2.37c-.714 1.223-3.096 3.094-3.94 3.094-.542 0-.615-.24-.615-2.016 0-1.11.16-2.177.356-2.372.508-.509.061-1.052-.865-1.052-.987 0-1.323.774-.635 1.462.478.478.463.61-.189 1.688-1.55 2.566-2.235 3.43-3.523 4.45-2.199 1.74-2.618 1.279-2.04-2.24.316-1.935-.024-1.955-1.998-.119-.829.771-2.219 1.851-3.09 2.4-1.347.85-1.887.999-3.641.999-1.991 0-3.842-.697-4.629-1.744-.14-.185-.228-1.848-.196-3.696.068-4.034.051-4.249-.323-4.017-.16.099-1.108 1.655-2.105 3.458-1.204 2.179-2.25 3.633-3.12 4.334-1.49 1.2-2.587 1.255-2.746.137-.096-.676-.213-.714-1.643-.524-1.285.17-1.647.098-2.181-.436l-.64-.64-2.932 2.203c-3.038 2.285-4.321 2.712-5.149 1.714zm6.375-5.537c1.125-1.752 1.248-2.388.434-2.232-.308.06-.953.826-1.433 1.704-1.003 1.835-1.055 2.076-.44 2.076.245 0 .893-.697 1.44-1.548zm25.031.035c1.545-.913 2.939-4.567 1.742-4.567-.254 0-.56.16-.681.355-.121.196-.958.683-1.86 1.083-1.975.877-2.72 1.653-2.605 2.722.047.44.103.836.126.88.161.316 2.519-.025 3.278-.473zm-1.193-17.99c-.371-.156-.763-.512-.87-.79-.255-.666-1.159-.644-2.143.053-.594.42-1.428.56-3.351.56-3.12 0-4.078-.246-5.054-1.299-.554-.598-1.157-.844-2.291-.937-1.089-.088-1.785-.359-2.377-.924-.461-.44-1.24-.951-1.73-1.136-.83-.314-1.034-.205-2.952 1.58-1.196 1.112-2.35 1.916-2.75 1.916-.623 0-.673-.128-.516-1.305.097-.718.404-1.557.683-1.865.626-.692.661-1.63.061-1.63-.825 0-.814-.935.022-1.929 1.37-1.628 4.3-3.401 7.423-4.492 3.048-1.064 3.773-1.685 3.387-2.903-.273-.859-.982-.723-5.083.971-3.383 1.398-4.343 1.588-4.343.858 0-1.66 10.888-7.352 12.863-6.725.62.197 1.213 1.963 1.215 3.622.003 1.954-1.994 4.217-5.4 6.118-1.816 1.013-1.949 1.448-.582 1.899.6.198 1.424.715 1.833 1.15.408.435 1.062.79 1.452.79.417 0 1.874-.987 3.544-2.403 3.452-2.927 5.46-3.996 7.499-3.996 2.098 0 2.582.63 1.686 2.195-.81 1.415-3.81 3.83-4.91 3.955-.691.078-.814-.052-.9-.95-.062-.636-.276-1.04-.553-1.04-.462 0-3.027 3.014-3.027 3.557 0 .97 5.413 1.327 6.147.405 3.837-4.81 9.715-8.945 10.1-7.103.073.355-.607 1.104-1.985 2.188-1.154.906-2.386 2.054-2.74 2.55-.777 1.091-.854 2.822-.137 3.097.804.308 2.193-.949 2.396-2.169.265-1.59.813-2.43 2.284-3.495 1.93-1.399 2.815-1.186 2.815.676 0 .337.11.614.242.614s1.112-.756 2.174-1.68c3.008-2.617 5.536-4.256 5.94-3.852.535.535-.106 1.426-2.117 2.944-1.939 1.464-2.714 2.766-2.012 3.38.227.198.962.546 1.633.772 1.117.377 1.36.343 2.888-.405 2.045-1 5.884-5.104 6.878-7.352 1.22-2.757 2.894-5.212 4.146-6.08 2.488-1.725 2.583-.928.413 3.476-.866 1.758-1.463 3.313-1.325 3.455s1.13-.037 2.205-.4c3.123-1.052 3.355-.807 1.324 1.397-1.162 1.26-4.135 3.065-5.05 3.065-.61 0-1.059 1.244-.957 2.65.146 2.002.872 1.911 2.594-.326 1.848-2.402 4.698-4.835 5.959-5.087.542-.108.985-.062.985.103 0 .165-.936 1.274-2.08 2.464-1.144 1.19-2.08 2.287-2.08 2.44s.504.194 1.12.094c1.377-.224 1.408.091.165 1.656-.525.661-.877 1.329-.781 1.484.096.155.935.282 1.866.282 2.23 0 2.75-.56 2.75-2.966 0-.988-.144-1.885-.32-1.994-.657-.406-.28-1.401.952-2.515 2.163-1.954 3.91-1.925 4.108.067.056.554.171 1.008.258 1.008.086 0 1.112-.576 2.28-1.28s2.247-1.28 2.4-1.28.953-.31 1.78-.69c.826-.38 2.186-.758 3.022-.84 1.454-.145 1.52-.116 1.52.662 0 1.162-2.937 3.428-4.444 3.428-1.392 0-2.21.68-2.579 2.144-.425 1.688-2.525 4.082-5.053 5.76-1.765 1.172-2.644 1.207-2.644.106 0-.885-.338-.82-1.796.341-2.215 1.765-2.957 2.02-5.914 2.035-1.928.01-2.915-.123-3.3-.442-.304-.251-1.355-.566-2.338-.7-2.397-.325-2.764-.763-2.918-3.485-.07-1.232-.232-2.24-.362-2.24-.13 0-1.373.845-2.764 1.878-2.87 2.13-2.969 2.17-6.116 2.432-1.27.105-2.926.472-3.68.814-1.832.832-3.05.81-3.761-.07l-.572-.705-1.72 1.168c-1.824 1.239-3.524 1.687-4.635 1.22zm10.732-24.545c-.453-.282-1.222-1.142-1.71-1.912-.487-.77-1.454-1.888-2.15-2.483-1.877-1.607-3.435-1.923-8.376-1.702-3.578.16-4.829.368-8.22 1.367-3.685 1.085-4.405 1.19-9.128 1.334-7.962.242-11.751-.622-14.318-3.264-2.12-2.182-2.413-7.003-.54-8.875 1.013-1.014 1.762-1.121 2.792-.4 1.004.703 1.425 1.63 1.643 3.622.155 1.41.359 1.86 1.09 2.404.815.609 1.417.68 6.56.786 6.004.123 7.057-.03 13.02-1.88 1.926-.597 3.07-.701 8.16-.742 5.833-.046 5.946-.034 7.68.82.968.476 2.66 1.592 3.762 2.48 1.1.887 2.136 1.613 2.301 1.613.165 0 1.09-.691 2.057-1.537.966-.845 2.516-1.95 3.445-2.456 1.559-.849 2.069-.94 6.662-1.202 2.735-.155 9.437-.403 14.894-.55 7.797-.212 10.55-.402 12.864-.89 1.619-.34 3.17-.808 3.447-1.037.624-.519.366-1.481-.681-2.538-.42-.423-.847-1.105-.95-1.514-.269-1.07.802-2.73 2.207-3.421.991-.488 1.37-.526 2.285-.224 2.184.721 3.416 3.305 3.476 7.292.07 4.643-1.278 5.84-8.089 7.19-2.727.54-5.258.713-13.44.916-5.544.138-12.322.442-15.06.675-5.597.478-5.52.448-9.027 3.592-3.423 3.07-4.894 3.63-6.656 2.536zm-46.486-23.834c-.324-.189-.791-.826-1.038-1.415-.57-1.368-.257-2.234 1.5-4.14 1.687-1.83 2.988-1.97 4.26-.458 1.384 1.645.953 3.805-1.105 5.537-1.057.89-2.564 1.088-3.617.476zm-2.93-16.173c-2.338-.515-3.364-1.772-2.754-3.375.383-1.008.624-1.166 2.495-1.639 1.16-.293 1.59-.598 2.045-1.45 1.447-2.712 3.428-3.44 4.758-1.75 1.03 1.31 1.116 2.178.367 3.725-1.224 2.529-2.722 3.97-4.53 4.358-.886.19-1.641.33-1.677.309-.035-.02-.352-.1-.704-.178zm47.52-8.37c-2.016-.921-3.833-2.424-4.17-3.45-.78-2.362 1.343-4.42 3.744-3.627 1.588.524 3.553 2.383 3.918 3.708.694 2.511-1.255 4.392-3.492 3.37zm-25.299-.526c-1.093-.595-1.595-1.798-1.801-4.318-.149-1.82-.08-2.205.528-2.971.577-.727.95-.88 2.145-.88.961 0 1.719-.215 2.26-.64 1.837-1.446 3.927-.171 3.927 2.396 0 2.143-.721 3.617-2.039 4.167-.606.253-1.37.801-1.698 1.218-.59.75-1.738 1.51-2.242 1.486-.144-.007-.63-.213-1.08-.458zm55.44-2.097c-.593-.361-1.277-1.166-1.552-1.824-1.425-3.41 2.863-6.932 5.142-4.224.69.82.829 1.306.829 2.905 0 1.696-.11 2.03-.936 2.855-1.099 1.1-2.027 1.176-3.484.288zm-18.178-6.689c-.844-.362-2.044-1.858-2.043-2.546.004-1.756 3.234-4.197 5.553-4.197 3.095 0 3.628 4.102.803 6.172-.953.698-3.295 1.008-4.313.571zm-15.476-.655c-.88-.88-1.095-2.012-.643-3.382.678-2.054 3.516-2.578 4.456-.822 1.474 2.754-1.73 6.287-3.813 4.204zm-27.423-.774c-1.762-1.516-.866-4.674 1.327-4.674 1.76 0 3.198 2.36 2.377 3.901-.898 1.686-2.302 1.979-3.704.773zm135.61-15.682c-1.299-1.324-1.363-1.473-1.067-2.48.173-.59.332-1.473.353-1.963.053-1.25.83-2.622 1.928-3.404 2.352-1.675 4.52.018 4.017 3.137-.132.813-.207 1.936-.168 2.495.057.813-.19 1.28-1.231 2.32-.717.717-1.561 1.303-1.876 1.303s-1.196-.634-1.956-1.408zm-118.47-.032c-2.371-1.289-1.763-5.737.938-6.856l.918-.38-1.07-1.07c-1.18-1.18-1.316-1.97-.582-3.388.682-1.32 3.482-3.448 4.806-3.654l2.29-.359c.65-.103 1.475-.39 1.831-.64 1.714-1.2 3.705-.065 3.705 2.112 0 1.006-.228 1.533-1.054 2.434-.945 1.031-1.275 1.173-3.201 1.372-1.904.197-2.287.358-3.36 1.406-.667.65-1.358 1.183-1.537 1.183-.18 0-.593.195-.919.434-.545.398-.465.48.979 1.013 3.9 1.438 4.03 3.153.42 5.563-2.096 1.4-2.842 1.549-4.164.83zm19.851-4.408c-2.663-1.795-3.19-4.332-1.26-6.072 1.16-1.046 2.351-1.124 3.685-.24.528.35 1.193.637 1.477.638.284.001.896.3 1.36.665 1.53 1.203.867 3.356-1.504 4.894-1.593 1.033-2.361 1.056-3.758.115zm-33.51-1.2c-1.478-1.377-1.311-3.159.48-5.14 1.663-1.842 2.727-2.312 4.84-2.137 4.295.357 3.884 4.346-.72 6.987-1.943 1.115-3.603 1.219-4.6.29zm44.2-1.113c-1.107-.466-1.385-1.002-1.385-2.672 0-.846.279-1.52.983-2.374.817-.99 1.187-1.193 2.184-1.193 1.744 0 2.74 1.133 2.51 2.852-.35 2.608-2.365 4.197-4.292 3.387zm-226.86-1.891c.205-.816-.506-3.091-2.507-8.028-1.795-4.428-2.081-5.007-2.382-4.821-.154.094-.684 1.146-1.179 2.337-1.166 2.806-1.737 3.616-3.33 4.72-1.004.696-1.398.82-1.687.532s-.278-.618.044-1.412c1.5-3.701 2.06-5.774 2.263-8.396.266-3.415.707-4.372 2.933-6.374 2.385-2.144 3.034-1.994 4.03.934.42 1.232 1.057 2.88 1.418 3.663.36.783 1.061 2.511 1.557 3.84a81.199 81.199 0 001.862 4.51c.528 1.152 1.06 2.628 1.183 3.28.25 1.331.352 1.377 1.611.724 1.724-.895 1.932.161.337 1.707-1.375 1.333-4.97 3.556-5.752 3.556-.469 0-.554-.163-.4-.772zm304.84-1.11c0-.77 2.358-2.918 3.201-2.918 1.112 0 .803 1.419-.554 2.537-1.37 1.129-2.647 1.313-2.647.38zm-24.08-6.68c-1.234-.276-.308-1.851 1.991-3.389.889-.594 4.005-.734 4.338-.195.311.504-.676 1.813-2.017 2.672-1.157.741-3.17 1.168-4.312.912zm17.44.01c-1.032-.364-.038-1.935 2.151-3.399 1.025-.685 4.111-.732 4.367-.066.222.578-.686 1.816-1.99 2.712-.936.643-3.586 1.084-4.528.753zm-133.74-2.808c-.61-.448.13-1.447 2.07-2.794l1.506-1.046 5.52-.106c4.886-.095 5.543-.046 5.722.419.129.335-.132.876-.72 1.495-1.763 1.855-2.374 2.017-8.252 2.191-3.367.1-5.574.04-5.846-.159zm19.416-.152c0-1.543 4.719-4.084 8.64-4.653.792-.115 2.355-.485 3.474-.822 2.64-.796 3.566-.797 3.566-.006 0 .66-1.697 2.296-3.175 3.06-.51.264-2.776.845-5.036 1.29-2.26.447-4.652 1.026-5.315 1.288-1.619.638-2.154.599-2.154-.157zm-133.33-.822c-.166-.432.123-.888 1.128-1.78 1.575-1.397 3.257-1.866 7.597-2.119 3.314-.193 3.86.099 2.638 1.408-1.573 1.687-2.504 2.113-5.19 2.379-1.432.141-3.356.355-4.276.475-1.442.188-1.705.138-1.897-.363zm93.57.265c-.573-.087-.88-.328-.88-.692 0-.67 1.369-2.008 2.784-2.722.797-.402 2.017-.517 5.501-.517 2.463 0 4.56.133 4.66.296.621 1.005-1.805 3.136-4.068 3.574-1.377.266-6.389.304-7.997.06zm121.04-.087c-.618-.394-.22-1.065 1.415-2.39 1.143-.925 1.37-.98 4.568-1.084 1.958-.064 3.498.023 3.683.208.576.576-.102 1.7-1.598 2.648-1.365.866-1.698.934-4.53.93-1.682-.003-3.274-.143-3.538-.312zm-25.28-.838c0-.68-.103-.786-.56-.576-.308.143-2.324.314-4.48.38-3.852.12-3.92.11-3.92-.575 0-.384.428-1.097.95-1.585 1.66-1.551 2.87-1.93 6.139-1.925 3.38.006 3.968.213 3.629 1.282-.208.656-.157.7.526.46 1.19-.418 9.274-.557 9.665-.166.478.478-.663 1.924-2.219 2.814-1.119.64-1.694.715-5.49.72l-4.24.005zm13.528-.038c-.269-.702.242-1.386 1.847-2.473 1.31-.887 1.627-.953 5.17-1.08 3.611-.128 3.775-.106 3.775.509 0 .764-2.238 2.877-3.272 3.089-.4.082-2.213.216-4.029.299-2.775.126-3.331.071-3.49-.344zm-180.97.053c-.436-.45-.25-1.003.634-1.887 1.969-1.969 3.645-2.251 15.527-2.618l6-.185v.781c0 .711-1.161 1.916-2.88 2.989-.264.164-3.072.4-6.24.522s-7.344.318-9.28.434c-1.936.116-3.628.1-3.76-.036zm53.093-.034c-.835-.836.675-2.54 3.054-3.447 1.064-.405 2.273-.502 5.369-.431 3.493.08 4.01.161 4.102.646.114.59-1.08 1.87-2.658 2.848-.812.503-1.629.595-5.307.596-2.39 0-4.443-.095-4.56-.212zm-18.755-2.006c-.73-.467.017-1.692 1.722-2.821 1.32-.875 1.83-1.003 4.75-1.198 4.26-.285 5.796-.151 5.923.516.122.645-1.33 2.404-2.451 2.97-1.026.517-9.275.96-9.944.533zm108.59-.141c-.24-.625.392-1.522 1.936-2.75l1.221-.97h4.257c2.613 0 4.337.13 4.464.334.292.472-.59 1.707-1.976 2.765-1.137.868-1.336.905-5.447 1.006-3.601.088-4.296.028-4.455-.385zm-10.84-1.144c-.713-1.152 2.757-3.636 5.844-4.184 3.67-.652 4.57-.19 3.08 1.58-1.164 1.383-2.461 1.99-4.925 2.304-1.15.147-2.469.356-2.932.465-.493.117-.936.048-1.068-.165zM1.113 30.058c-.377-.609.14-1.796 1.473-3.382l1.311-1.56-.148-2.828c-.082-1.555-.032-3.283.11-3.84l.63-2.452c.203-.792.74-2.272 1.19-3.29.717-1.615.769-1.95.407-2.626-.561-1.048.126-2.083 2.155-3.247a45.133 45.133 0 002.88-1.827c1.313-.923 1.378-.935 1.99-.38.584.528.746.536 2.077.097 1.206-.397 1.544-.405 2.05-.051.841.59 1.326 2.797 1.326 6.045v2.758l-1.638 1.732c-.901.952-2.377 2.199-3.28 2.77-.903.571-1.741 1.18-1.862 1.355-.121.174.33.914 1.004 1.644s1.321 1.636 1.44 2.014c.328 1.032 1.038.825 1.262-.366.35-1.87 6.34-8.228 7.75-8.228.772 0 .482.797-.704 1.938-1.725 1.658-2.052 2.515-2.052 5.367 0 2.964.391 3.483 2.484 3.292.883-.08 1.673-2.059 1.676-4.197.003-2.406.744-3.94 2.542-5.267 1.42-1.048 2.187-1.043 2.453.013.363 1.45-.076 5.032-.833 6.784-.401.93-.638 1.782-.526 1.894.396.395 1.804-.664 3.411-2.564 1.453-1.717 1.614-2.06 1.529-3.23-.09-1.225-.164-1.316-1.155-1.411-1.556-.15-1.619-.867-.205-2.316l1.223-1.252-.072-3.125c-.04-1.72-.156-3.603-.26-4.186-.168-.96-.03-1.213 1.452-2.64 1.788-1.724 2.82-2.014 3.054-.86.08.396.222 2.725.315 5.174.118 3.11.293 4.54.58 4.737.226.156 1.384.203 2.572.104 1.726-.143 2.16-.089 2.16.27 0 .545-1.55 1.94-3.584 3.227-1.221.772-1.541 1.17-1.7 2.112-.108.639-.547 2.299-.976 3.689-.43 1.39-.78 2.625-.78 2.744 0 .606 1.136 1.223 2.25 1.223 1.664 0 2.373-.82 2.855-3.297.652-3.35 1.24-4.6 2.814-5.985.808-.712 1.625-1.242 1.815-1.176.426.145.399 1.578-.087 4.644-.205 1.291-.294 2.473-.199 2.628.099.16.54.142 1.015-.038 1.29-.49 1.677.142.716 1.174-1.057 1.136-3.16 2.55-4.154 2.791-.448.11-1.733.815-2.855 1.569-1.963 1.318-2.146 1.374-4.873 1.482-1.914.076-2.987-.015-3.306-.279-.542-.45-.615-2.217-.157-3.814.173-.603.25-1.161.171-1.24-.08-.08-.618.271-1.197.779-2.2 1.926-4.486 3.145-6.312 3.366-.977.118-2.412.378-3.19.579-1.748.45-2.952.206-4.213-.855-.89-.749-1.075-.787-2.19-.453-1.492.447-3.387.472-4.167.054-.32-.172-.68-.712-.801-1.2-.3-1.22-1.06-2.329-1.595-2.329-.245 0-1.205.955-2.134 2.123-1.53 1.923-3.831 3.957-4.475 3.957-.14 0-.348-.152-.463-.338zm11.937-14.45c.793-.379.882-.599.968-2.393.052-1.086-.032-2.453-.187-3.037-.27-1.014-.346-1.058-1.69-.993-1.688.082-1.954.39-2.836 3.293-.702 2.312-.811 3.259-.421 3.658.327.335 3.093-.015 4.166-.528zM50.34 29.452c-1.128-.486-2.014-2.592-2.014-4.787v-1.917l2.16-2.187c1.188-1.203 3.002-2.822 4.03-3.597 1.602-1.207 2.137-1.43 3.713-1.544 2.168-.157 2.54.261 1.605 1.8-.763 1.254-2.238 2.027-4.46 2.337-2.22.31-2.662.855-2.488 3.075.179 2.277.843 2.965 2.865 2.965 2.364 0 4.126-1.121 4.572-2.91.155-.62 0-1.074-.615-1.805-1.124-1.336-1.035-2.101.378-3.272 1.64-1.359 2.41-1.5 3.586-.663 1.228.874 1.481 1.878.952 3.77-.52 1.858-3.304 4.682-7.02 7.121-2.26 1.484-2.77 1.686-4.552 1.795-1.103.068-2.324-.014-2.712-.18z"/></svg>