<?xml version="1.0" standalone="no"?>
<!DOCTYPE svg PUBLIC "-//W3C//DTD SVG 20010904//EN"
 "http://www.w3.org/TR/2001/REC-SVG-20010904/DTD/svg10.dtd">
<svg version="1.0" xmlns="http://www.w3.org/2000/svg"
 width="1935.000000pt" height="951.000000pt" viewBox="0 0 1935.000000 951.000000"
 preserveAspectRatio="xMidYMid meet">
<metadata>
Created by potrace 1.16, written by Peter Selinger 2001-2019
</metadata>
<g transform="translate(0.000000,951.000000) scale(0.100000,-0.100000)"
fill="#000000" stroke="none">
<path d="M1160 9500 c12 -8 11 -10 -7 -10 -12 0 -28 -7 -37 -15 -8 -8 -18 -15
-23 -15 -4 0 -29 -23 -55 -52 l-48 -51 0 -104 c0 -58 5 -113 10 -123 8 -14 7
-25 -2 -40 -13 -21 -48 -28 -48 -10 0 6 -13 10 -30 10 -16 0 -30 -4 -30 -10 0
-5 -9 -10 -20 -10 -11 0 -23 -7 -26 -15 -4 -8 -10 -15 -15 -15 -12 0 -49 -37
-49 -49 0 -5 -6 -11 -14 -14 -23 -9 -44 -140 -26 -162 7 -9 8 -15 2 -15 -5 0
-13 -11 -16 -24 -5 -22 -8 -23 -31 -13 -23 11 -25 17 -25 90 0 64 3 80 20 97
11 11 23 20 26 20 3 0 18 14 35 32 29 32 47 87 34 107 -8 13 -35 15 -35 2 0
-5 -11 -12 -25 -15 -14 -4 -25 -11 -25 -16 0 -6 -7 -10 -15 -10 -9 0 -18 -7
-21 -15 -4 -8 -12 -15 -20 -15 -8 0 -14 -7 -14 -15 0 -8 -4 -15 -10 -15 -9 0
-80 -66 -80 -75 0 -2 -14 -19 -30 -37 -17 -18 -30 -38 -30 -45 0 -20 -18 -15
-25 7 -3 11 -17 23 -31 26 -25 7 -33 24 -11 24 8 0 22 9 32 20 10 11 22 20 27
20 5 0 39 29 74 65 l66 64 0 123 c1 98 -2 131 -16 160 -23 49 -40 62 -63 50
-42 -21 -73 -23 -89 -4 -16 19 -64 19 -64 1 0 -5 -6 -9 -13 -9 -6 0 -25 -16
-41 -35 -18 -22 -38 -35 -53 -35 -13 0 -23 -4 -23 -10 0 -5 -8 -10 -18 -10
-29 0 -102 -89 -102 -125 0 -7 7 -16 16 -19 12 -5 14 -13 9 -33 -4 -16 -11
-30 -16 -34 -5 -3 -12 -23 -16 -45 -3 -21 -10 -42 -15 -45 -5 -3 -12 -26 -15
-50 -2 -24 -10 -54 -16 -67 -8 -17 -8 -28 1 -42 7 -11 12 -47 12 -80 0 -47 -3
-60 -15 -60 -8 0 -15 -6 -15 -14 0 -8 -7 -16 -15 -20 -8 -3 -15 -12 -15 -20 0
-8 -4 -16 -9 -18 -5 -1 -12 -31 -16 -65 l-7 -62 34 9 c18 6 35 15 36 20 2 6
10 10 17 10 18 0 105 90 105 107 0 7 6 13 14 13 8 0 16 7 20 15 3 8 15 15 26
15 17 0 20 -6 20 -46 l0 -45 108 2 c104 2 108 1 136 -24 24 -23 38 -27 87 -27
32 0 60 4 63 9 3 4 36 11 73 14 37 4 69 11 71 17 2 5 12 10 21 10 16 0 29 8
78 50 18 15 48 13 36 -2 -12 -16 -7 -77 8 -94 8 -10 40 -14 115 -14 105 0 143
10 187 51 38 34 48 39 76 39 16 0 36 6 43 13 7 7 21 16 31 20 9 3 17 11 17 17
0 5 5 10 11 10 7 0 18 8 25 18 12 15 13 11 14 -29 0 -29 6 -51 15 -59 8 -7 15
-18 15 -24 0 -7 10 -22 23 -34 20 -19 35 -22 109 -22 64 0 89 4 98 15 7 8 16
15 21 15 5 0 18 9 29 20 11 11 27 20 35 20 8 0 15 5 15 10 0 6 7 10 16 10 8 0
58 42 110 93 72 71 94 98 94 119 0 15 5 39 10 54 11 27 -5 94 -22 94 -4 0 -16
10 -27 21 -15 17 -27 20 -50 16 -25 -5 -33 -2 -42 15 -10 19 -17 20 -73 15
-61 -6 -126 -30 -126 -48 0 -5 -7 -9 -15 -9 -7 0 -18 -6 -22 -13 -4 -8 -23
-24 -42 -38 -41 -29 -111 -98 -111 -110 0 -9 -72 -25 -80 -18 -10 9 3 125 16
140 19 22 18 76 -2 87 -18 10 -52 4 -71 -12 -99 -84 -133 -136 -133 -203 0
-21 -4 -43 -9 -48 -5 -6 -11 -20 -13 -33 -1 -12 -6 -23 -10 -22 -5 0 -24 0
-44 0 -31 0 -35 3 -29 18 4 9 13 37 19 62 6 25 17 55 24 67 6 12 12 35 12 52
0 17 5 31 10 31 14 0 68 38 97 68 12 12 26 22 30 22 16 1 44 51 41 73 -2 18
-11 23 -41 25 -23 2 -48 -3 -62 -12 -14 -9 -36 -16 -49 -16 l-25 0 -4 178 c-3
97 -6 183 -7 190 -2 6 -15 12 -29 12 -21 0 -23 -2 -11 -10z m647 -635 c-5 -13
26 -45 43 -45 6 0 10 -9 10 -19 0 -47 -132 -82 -157 -42 -12 20 -21 96 -12
106 3 2 25 7 49 10 24 3 46 8 48 10 9 9 23 -7 19 -20z"/>
<path d="M2234 8755 c-4 -8 -15 -15 -25 -15 -10 0 -19 -7 -19 -15 0 -8 -7 -15
-15 -15 -8 0 -15 -6 -15 -12 -1 -7 -14 -24 -30 -38 -17 -13 -30 -29 -30 -36 0
-7 -6 -14 -14 -17 -8 -3 -16 -25 -19 -49 -12 -104 -30 -193 -39 -200 -6 -3
-13 -44 -16 -90 -2 -45 -9 -89 -14 -95 -16 -20 10 -43 48 -43 18 0 39 7 48 15
26 26 33 17 40 -56 3 -39 11 -79 16 -89 6 -10 10 -43 10 -72 1 -29 6 -73 11
-98 6 -25 15 -103 19 -175 5 -71 13 -192 19 -268 8 -114 8 -144 -4 -178 -8
-23 -15 -51 -15 -63 0 -11 -7 -30 -15 -40 -8 -11 -15 -39 -15 -63 0 -29 -4
-43 -13 -43 -9 0 -12 11 -9 36 3 24 0 39 -9 45 -21 13 -56 11 -72 -6 -8 -7
-26 -17 -40 -20 -14 -4 -28 -13 -31 -21 -3 -8 -11 -14 -17 -14 -6 0 -22 -11
-35 -25 -13 -14 -26 -25 -29 -25 -6 0 -45 -38 -45 -45 0 -7 -38 -45 -45 -45
-3 0 -5 13 -5 29 0 16 -7 34 -15 41 -8 7 -15 21 -15 32 0 20 -17 66 -46 121
-8 16 -14 38 -14 48 0 11 -6 30 -12 42 -7 12 -17 38 -23 57 -9 31 -15 35 -48
38 -21 2 -37 -1 -37 -7 0 -6 -6 -11 -13 -11 -7 0 -24 -13 -37 -30 -14 -16 -30
-29 -36 -30 -16 0 -74 -64 -74 -82 0 -9 -4 -19 -8 -22 -5 -3 -12 -57 -15 -120
-3 -63 -11 -123 -16 -133 -30 -56 -51 -105 -51 -118 0 -8 -4 -15 -10 -15 -13
0 -13 -67 -1 -75 5 -3 12 -1 16 5 3 5 17 10 31 10 14 0 27 7 30 15 4 8 13 15
20 15 21 0 104 86 104 108 0 11 7 34 16 52 20 38 34 25 34 -31 0 -20 7 -42 15
-49 8 -7 15 -23 15 -36 0 -12 7 -29 15 -38 8 -8 15 -21 15 -28 0 -7 7 -24 16
-36 12 -17 15 -41 12 -92 -3 -62 -1 -71 16 -76 10 -3 21 -2 25 4 3 5 16 12 29
16 12 4 22 12 22 17 0 5 8 9 18 9 31 0 91 39 148 95 29 30 54 61 54 69 0 8 6
16 13 19 9 3 9 7 0 19 -13 15 -69 13 -79 -3 -3 -5 -13 -9 -23 -9 -14 0 -17 6
-14 23 2 12 -3 36 -11 52 l-16 30 123 5 c83 4 129 10 144 20 28 18 36 10 23
-24 -13 -34 -13 -251 -1 -275 6 -9 12 -107 14 -217 3 -109 10 -215 16 -234 17
-53 15 -1062 -1 -1079 -18 -17 -17 -2028 0 -2081 6 -19 12 -98 12 -175 1 -77
8 -216 15 -310 8 -93 15 -206 16 -250 1 -44 8 -92 15 -107 11 -22 14 -122 14
-497 l0 -470 -26 -20 c-25 -19 -50 -83 -40 -99 3 -5 20 -7 37 -4 27 4 31 2 26
-12 -5 -13 0 -16 27 -16 18 0 39 7 46 15 16 20 69 20 76 0 4 -8 18 -15 34 -15
15 0 33 -7 40 -15 7 -9 29 -15 54 -15 23 0 47 -5 52 -10 6 -6 50 -13 97 -17
48 -3 87 -9 87 -13 0 -4 26 -11 58 -15 31 -4 60 -12 64 -18 4 -6 35 -14 70
-18 35 -3 77 -11 93 -17 28 -10 206 -31 340 -39 33 -2 71 -9 84 -16 33 -16
878 -17 889 -1 4 6 34 14 67 18 33 3 85 10 115 15 30 5 102 10 158 10 66 1
115 6 135 15 21 9 87 16 190 20 108 3 164 9 174 18 12 10 102 15 362 20 569
13 776 22 792 35 9 7 63 13 139 16 115 4 388 19 569 31 40 3 78 10 85 15 6 5
133 11 281 13 205 3 276 8 295 18 20 12 166 16 770 23 410 4 913 10 1119 13
281 3 377 2 388 -8 9 -7 86 -14 226 -19 227 -8 363 -24 387 -44 24 -21 416
-42 812 -44 150 -1 247 -5 265 -12 15 -6 102 -13 193 -15 245 -6 2454 -5 2985
2 1042 12 2468 2 2492 -18 6 -5 38 -12 70 -15 32 -3 67 -10 78 -16 11 -6 65
-14 120 -19 55 -4 118 -11 140 -14 22 -4 146 -8 276 -11 l236 -4 -5 -24 c-2
-14 -8 -25 -13 -25 -15 0 -10 -28 7 -34 25 -10 47 -7 78 9 15 8 39 15 53 15
24 0 70 17 125 46 14 8 37 14 50 14 22 -1 22 -1 -7 -25 -16 -14 -36 -25 -42
-25 -7 0 -13 -6 -13 -14 0 -8 -7 -16 -15 -20 -10 -3 -15 -19 -15 -46 l0 -40
40 0 c22 0 40 5 40 10 0 6 9 10 20 10 11 0 23 6 26 14 3 7 23 16 45 20 21 3
39 11 39 16 0 6 9 10 20 10 11 0 20 6 20 14 0 8 14 17 30 21 17 4 30 11 30 16
0 5 6 9 13 9 12 0 23 7 73 49 6 5 21 12 35 16 13 4 27 12 30 17 3 5 39 8 80 6
73 -3 74 -3 45 -18 -32 -16 -69 -73 -64 -98 6 -29 118 -40 118 -11 0 5 9 9 19
9 11 0 26 7 35 15 8 8 19 15 25 15 10 0 53 42 83 81 15 19 24 62 19 91 -2 16
18 7 22 -9 3 -10 5 -5 6 12 1 23 3 27 11 15 8 -12 10 -9 10 12 0 22 -4 26 -23
23 -16 -3 -25 2 -32 18 -9 19 -21 23 -92 31 -83 9 -83 9 -83 38 0 34 -53 88
-86 88 -12 0 -24 7 -28 15 -3 10 -19 15 -44 15 -21 0 -42 4 -47 9 -9 9 -115
26 -228 38 -53 6 -95 -10 -163 -61 -45 -34 -64 -66 -64 -107 0 -24 5 -27 45
-33 25 -4 57 -14 73 -22 15 -7 37 -14 50 -14 12 0 22 -4 22 -10 0 -16 -625
-13 -653 2 -13 7 -86 15 -177 19 -171 8 -279 22 -326 44 -26 12 -90 15 -335
15 -224 -1 -313 3 -339 12 -28 10 -264 13 -1150 13 -962 0 -1122 -2 -1165 -15
-74 -22 -2247 -23 -2285 -1 -19 11 -74 16 -230 18 -113 2 -302 8 -420 14 -118
6 -336 13 -485 16 -180 3 -275 9 -284 16 -8 7 -41 15 -75 18 -34 4 -78 11 -98
17 -21 5 -127 11 -235 11 -145 1 -210 6 -241 17 -37 12 -107 13 -465 7 -232
-4 -659 -6 -950 -4 -337 2 -532 0 -540 -7 -6 -5 -102 -12 -213 -14 -110 -3
-209 -10 -220 -15 -11 -6 -146 -13 -317 -15 -206 -3 -302 -9 -309 -16 -8 -8
-75 -12 -213 -12 -148 -1 -210 -5 -240 -15 -24 -9 -77 -15 -132 -15 -52 0
-111 -6 -135 -14 -27 -9 -105 -16 -207 -19 -98 -3 -168 -10 -174 -16 -7 -7
-110 -11 -317 -12 -168 0 -330 -5 -360 -11 -30 -5 -145 -13 -255 -17 -124 -4
-208 -11 -222 -19 -14 -8 -73 -12 -170 -12 -116 0 -154 -3 -169 -15 -10 -8
-30 -15 -44 -15 -14 0 -38 -7 -54 -15 -42 -22 -747 -22 -790 0 -15 8 -47 15
-71 15 -24 0 -48 6 -54 14 -9 11 -43 14 -139 15 -81 1 -142 7 -167 16 -22 8
-70 14 -106 15 -39 0 -79 6 -95 15 -16 8 -46 15 -66 15 -27 0 -38 4 -38 15 0
11 -12 15 -44 15 -24 0 -60 7 -79 15 -20 8 -59 15 -87 15 -32 0 -57 6 -66 15
-9 8 -24 15 -35 15 -11 0 -34 7 -50 16 -17 8 -45 14 -62 12 l-32 -3 -5 470
c-3 259 -8 475 -12 481 -4 6 -8 76 -9 155 -1 79 -6 194 -11 254 -34 446 -45
888 -47 1776 -1 665 1 771 14 795 22 42 22 1049 0 1121 -11 34 -15 101 -15
228 -1 142 -4 184 -15 199 -8 11 -15 30 -15 43 l0 23 248 0 c199 -1 251 -3
266 -15 15 -12 67 -14 269 -14 155 -1 254 -4 262 -11 7 -5 90 -13 186 -16 96
-4 182 -11 191 -15 10 -5 113 -12 230 -15 139 -4 218 -10 227 -17 10 -9 127
-13 403 -15 327 -3 390 -6 395 -18 3 -8 18 -14 34 -14 17 0 32 -6 35 -15 4 -8
14 -15 24 -15 10 0 23 -7 30 -15 7 -8 19 -15 26 -15 8 0 14 -4 14 -9 0 -5 9
-12 19 -16 11 -3 54 -39 96 -80 42 -41 81 -75 86 -75 5 0 9 -7 9 -15 0 -8 7
-15 15 -15 8 0 15 -4 15 -10 0 -13 37 -50 50 -50 6 0 10 -4 10 -10 0 -13 37
-50 50 -50 6 0 10 -7 10 -15 0 -8 5 -15 12 -15 6 0 41 -28 77 -62 101 -96 161
-148 171 -148 5 0 43 -34 85 -75 41 -41 79 -75 84 -75 4 0 22 -19 39 -42 17
-24 61 -74 97 -112 36 -37 65 -72 65 -77 0 -5 7 -9 15 -9 8 0 15 -7 15 -15 0
-12 17 -15 95 -15 106 0 143 13 192 69 15 17 33 31 40 31 7 0 13 5 13 10 0 6
6 10 14 10 17 0 76 72 76 93 0 8 5 17 11 19 6 2 13 46 16 103 3 55 11 106 16
114 12 14 31 46 44 71 12 26 77 80 103 87 14 3 31 12 38 20 14 14 20 14 147
16 77 1 123 -11 195 -54 8 -5 22 -12 30 -15 8 -3 22 -10 30 -15 8 -5 23 -12
33 -15 9 -4 17 -13 17 -20 0 -8 10 -14 25 -14 13 0 28 -6 32 -14 4 -8 31 -17
58 -21 93 -12 278 -17 299 -6 12 5 46 12 76 14 30 2 56 10 58 16 2 7 31 11 75
11 44 0 83 6 101 15 41 22 717 22 735 1 10 -12 61 -15 268 -15 180 -1 262 -5
277 -14 16 -9 255 -13 1006 -14 542 -2 997 -3 1013 -3 15 0 27 -6 27 -13 0
-12 124 -137 135 -137 3 0 16 -11 28 -24 13 -14 36 -28 52 -32 29 -7 39 -13
76 -46 10 -10 25 -18 33 -18 7 0 19 -7 26 -15 7 -8 17 -15 22 -15 5 0 16 -7
24 -15 9 -8 24 -15 35 -15 10 0 19 -4 19 -9 0 -5 15 -12 33 -16 17 -3 41 -10
52 -15 11 -5 37 -11 58 -15 40 -6 40 -8 37 -82 -1 -28 3 -43 11 -43 7 0 27
-11 45 -25 35 -27 50 -31 56 -15 2 6 22 12 44 13 34 1 46 -4 70 -30 16 -17 39
-34 52 -38 12 -3 22 -11 22 -16 0 -5 9 -9 20 -9 11 0 20 -4 20 -9 0 -5 10 -13
23 -17 12 -4 25 -11 28 -16 17 -27 236 -29 246 -2 2 7 18 16 34 19 16 4 29 11
29 16 0 5 5 9 11 9 7 0 26 15 43 33 38 38 74 63 87 59 5 -1 12 5 15 13 4 8 17
15 29 15 13 0 30 7 39 15 8 8 18 15 23 15 4 0 21 21 37 46 20 31 37 47 57 51
16 3 32 10 35 14 3 5 16 9 29 9 13 0 30 6 37 14 8 7 35 16 61 20 25 4 49 11
52 17 11 17 170 11 207 -8 18 -10 35 -21 36 -25 2 -5 10 -8 18 -8 8 0 30 -16
50 -35 19 -19 39 -35 44 -35 6 0 10 -4 10 -10 0 -15 38 -50 55 -50 8 0 15 -4
15 -10 0 -5 11 -12 25 -16 14 -3 25 -10 25 -15 0 -5 7 -9 15 -9 8 0 23 -8 33
-18 9 -9 37 -24 62 -32 25 -8 53 -23 62 -32 10 -10 21 -18 24 -18 3 0 12 -7
20 -15 9 -8 24 -15 35 -15 10 0 19 -7 19 -15 0 -8 7 -15 15 -15 8 0 15 -5 15
-11 0 -5 14 -15 30 -20 17 -6 30 -15 30 -20 0 -5 6 -9 14 -9 8 0 16 -7 20 -15
3 -8 15 -15 26 -15 11 0 23 -7 26 -15 4 -8 14 -15 24 -15 10 0 23 -7 30 -15 7
-8 17 -15 22 -15 5 0 16 -7 24 -15 9 -8 26 -15 39 -15 13 0 27 -5 30 -11 4 -5
17 -15 28 -20 35 -16 69 -36 76 -46 3 -4 19 -16 36 -25 25 -14 85 -105 110
-168 4 -8 11 -22 16 -30 5 -8 12 -22 15 -30 3 -8 12 -28 20 -43 7 -16 14 -39
14 -52 0 -12 7 -28 15 -35 8 -7 15 -19 15 -27 0 -8 7 -21 15 -29 8 -9 15 -24
15 -35 0 -10 4 -19 9 -19 5 0 14 -13 20 -30 5 -16 15 -30 20 -30 6 0 11 -6 11
-14 0 -18 71 -160 82 -164 4 -2 8 -10 8 -18 0 -8 6 -14 13 -14 6 0 21 -20 31
-43 11 -23 32 -58 48 -78 15 -20 28 -41 28 -47 0 -5 7 -12 15 -16 8 -3 15 -18
15 -34 0 -15 7 -37 15 -48 8 -10 15 -29 15 -41 0 -12 7 -28 15 -37 8 -8 15
-18 15 -22 0 -4 6 -15 14 -23 19 -21 106 -192 106 -207 0 -7 6 -19 13 -26 8
-7 17 -35 20 -63 4 -27 12 -54 17 -59 6 -6 10 -28 10 -50 0 -23 6 -53 14 -67
7 -15 17 -76 21 -135 4 -60 10 -113 13 -119 4 -5 9 -39 13 -75 4 -35 12 -66
18 -68 6 -2 11 -14 11 -27 0 -12 7 -28 15 -35 8 -7 15 -22 15 -34 0 -12 7 -31
15 -42 8 -10 15 -25 15 -32 0 -8 6 -28 14 -45 8 -18 16 -79 19 -136 3 -57 10
-108 16 -114 6 -6 11 -25 11 -42 0 -17 7 -40 15 -51 8 -10 15 -30 15 -42 0
-13 6 -36 14 -50 8 -15 18 -48 21 -74 3 -26 10 -50 16 -53 5 -4 9 -32 9 -65 0
-42 4 -59 15 -64 11 -4 15 -21 15 -60 0 -33 5 -60 14 -68 7 -8 17 -29 21 -46
3 -18 11 -32 16 -32 5 0 9 -9 9 -19 0 -11 7 -26 15 -35 9 -8 15 -33 15 -59 0
-27 6 -49 15 -57 8 -7 15 -24 15 -39 0 -14 7 -39 15 -55 8 -15 15 -36 15 -46
0 -9 16 -33 35 -53 19 -20 35 -40 35 -44 0 -5 9 -15 21 -23 11 -8 30 -23 41
-32 12 -10 27 -18 33 -18 7 0 18 -7 25 -15 7 -8 21 -15 31 -15 11 0 19 -7 19
-15 0 -8 7 -15 15 -15 9 0 18 -7 21 -15 4 -8 12 -15 19 -15 7 0 18 -7 25 -15
7 -8 24 -15 39 -15 14 0 35 -7 45 -15 26 -20 228 -21 248 -2 7 7 21 16 31 20
9 3 17 11 17 17 0 5 4 10 10 10 19 0 170 145 170 164 0 8 7 16 15 20 8 3 15
14 15 24 0 10 5 23 11 29 6 6 13 57 16 114 2 57 8 113 13 124 5 11 11 44 14
73 3 29 12 59 21 68 8 8 15 24 15 34 0 10 4 20 8 22 11 4 52 85 52 102 0 8 7
27 15 42 8 16 15 41 15 56 0 15 4 29 9 32 5 4 12 29 16 56 4 28 11 50 15 50 5
0 12 16 16 35 3 19 12 39 20 46 8 6 14 22 14 34 0 13 7 36 15 51 8 16 15 48
15 71 0 23 4 44 9 48 6 3 13 27 16 53 4 26 13 67 21 91 8 25 14 57 14 72 0 15
4 30 9 33 4 3 11 45 15 93 4 48 12 93 17 99 5 6 12 47 15 90 3 43 9 88 14 99
5 11 12 46 15 78 4 36 12 60 21 64 8 3 15 15 15 27 2 32 17 -63 18 -111 1 -29
5 -43 15 -43 8 0 16 -16 20 -40 3 -22 11 -40 16 -40 6 0 10 -9 10 -19 0 -11
14 -29 30 -41 17 -12 30 -29 30 -39 0 -9 7 -26 15 -37 8 -10 15 -30 15 -44 0
-33 24 -47 93 -55 39 -5 57 -12 57 -21 0 -8 7 -14 15 -14 8 0 15 -4 15 -10 0
-14 31 -42 66 -60 30 -16 84 -16 84 1 0 5 8 9 19 9 10 0 37 17 59 37 60 57 93
83 103 83 5 0 9 6 9 14 0 8 7 16 15 20 8 3 15 12 15 21 0 8 3 15 8 15 4 0 18
18 32 40 27 46 37 50 42 18 2 -15 13 -26 33 -31 17 -5 38 -13 47 -18 24 -12
125 -11 133 1 3 6 17 10 31 10 15 0 24 6 24 15 0 8 7 15 15 15 8 0 15 7 15 15
0 8 7 15 15 15 7 0 18 6 22 14 13 21 53 31 53 12 0 -9 22 -39 48 -66 l48 -50
67 0 c51 0 69 4 73 15 4 8 13 15 21 15 8 0 26 9 40 20 14 11 33 20 42 20 10 0
22 5 28 11 8 8 13 8 17 0 4 -6 4 -11 0 -11 -4 0 1 -9 11 -20 18 -20 85 -29 85
-11 0 4 19 21 42 37 61 42 84 66 91 94 8 33 -2 70 -19 70 -7 0 -18 9 -24 20
-13 24 -76 28 -106 5 -10 -8 -31 -15 -46 -15 -15 0 -33 -7 -42 -15 -8 -8 -21
-15 -29 -15 -8 0 -20 -7 -27 -15 -17 -20 -57 -19 -69 3 -5 9 -27 37 -50 61
-22 24 -43 56 -46 72 -6 25 -11 29 -41 29 -22 0 -37 -6 -40 -15 -4 -8 -11 -15
-17 -15 -6 0 -30 -20 -54 -45 -23 -25 -47 -45 -53 -45 -5 0 -10 -7 -10 -15 0
-16 -10 -18 -80 -15 -44 2 -80 24 -80 51 0 15 -133 4 -138 -11 -2 -5 -17 -10
-33 -10 -19 0 -29 -5 -29 -15 0 -8 -7 -15 -15 -15 -8 0 -15 -5 -15 -10 0 -6
-20 -30 -45 -53 -25 -24 -45 -49 -45 -55 0 -7 -4 -12 -8 -12 -5 0 -19 -20 -31
-45 -12 -25 -25 -45 -28 -45 -2 0 -26 23 -53 50 -42 44 -53 50 -89 50 -54 0
-81 26 -81 78 0 36 -22 72 -44 72 -15 0 -45 37 -52 65 -4 17 -10 35 -15 41 -5
5 -10 26 -13 46 -2 20 -9 45 -15 56 -6 12 -11 49 -11 84 0 35 -4 69 -9 77 -10
16 -129 17 -145 1 -5 -5 -18 -10 -28 -10 -10 0 -21 -7 -24 -15 -4 -8 -12 -15
-20 -15 -8 0 -14 -5 -14 -11 0 -7 -15 -27 -32 -44 -68 -67 -98 -104 -98 -118
0 -8 -7 -20 -15 -27 -8 -7 -15 -23 -15 -36 0 -13 -4 -24 -10 -24 -5 0 -13 -18
-16 -39 -4 -22 -13 -42 -20 -45 -10 -4 -14 -24 -14 -66 0 -34 -4 -69 -9 -78
-5 -9 -12 -62 -15 -117 -4 -55 -11 -104 -16 -110 -5 -6 -12 -42 -16 -80 -4
-39 -12 -73 -17 -77 -6 -3 -13 -34 -15 -67 -2 -34 -8 -61 -13 -61 -4 0 -11
-17 -14 -38 -4 -20 -13 -54 -21 -75 -8 -20 -14 -48 -14 -61 0 -13 -7 -37 -15
-52 -8 -16 -15 -50 -15 -76 0 -27 -4 -48 -9 -48 -5 0 -12 -13 -16 -29 -3 -16
-13 -35 -21 -42 -8 -6 -14 -25 -14 -41 0 -16 -7 -36 -15 -44 -8 -9 -15 -24
-15 -34 0 -10 -7 -31 -15 -46 -8 -16 -15 -37 -15 -46 0 -10 -4 -18 -9 -18 -5
0 -12 -14 -16 -31 -4 -17 -13 -42 -21 -57 -8 -15 -14 -37 -14 -49 0 -12 -4
-24 -9 -27 -5 -3 -12 -34 -16 -68 -4 -35 -14 -72 -21 -83 -9 -12 -14 -47 -14
-95 0 -46 -5 -81 -12 -88 -16 -16 -59 -15 -82 3 -11 8 -40 15 -64 15 -25 0
-50 6 -58 15 -9 8 -24 15 -33 15 -10 0 -24 7 -31 15 -7 8 -17 15 -22 15 -10 0
-31 16 -56 43 -9 9 -22 17 -30 17 -7 0 -15 7 -18 15 -4 8 -11 15 -16 15 -14 0
-70 61 -90 99 -10 18 -18 49 -18 70 0 20 -7 46 -15 57 -8 10 -15 38 -15 62 0
23 -5 42 -11 42 -5 0 -15 14 -20 30 -6 17 -15 30 -20 30 -5 0 -9 5 -9 12 0 6
-7 19 -15 29 -9 9 -20 48 -25 85 -21 157 -29 197 -39 207 -6 6 -11 34 -11 63
0 34 -5 56 -15 64 -8 7 -15 23 -15 36 0 12 -6 29 -14 36 -7 8 -17 33 -21 56
-4 23 -11 44 -16 48 -5 3 -9 26 -9 52 0 27 -7 74 -15 105 -8 32 -15 75 -15 96
0 20 -7 46 -15 57 -8 10 -15 31 -15 45 0 14 -7 34 -15 45 -8 10 -15 30 -15 43
0 14 -6 32 -14 40 -8 9 -17 38 -21 66 -3 27 -10 54 -15 59 -6 6 -10 43 -10 83
0 43 -6 89 -15 110 -8 19 -15 47 -15 60 0 14 -6 39 -14 56 -8 18 -17 62 -21
99 -4 37 -11 70 -16 73 -5 4 -9 23 -9 44 0 22 -6 44 -15 51 -8 7 -15 21 -15
32 0 10 -7 21 -15 24 -8 4 -15 15 -15 25 0 10 -5 19 -10 19 -6 0 -15 10 -20
23 -13 29 -32 59 -46 72 -7 5 -15 27 -18 48 -4 20 -11 37 -16 37 -6 0 -10 12
-10 28 0 15 -7 40 -15 56 -8 15 -15 37 -15 47 0 11 -7 19 -15 19 -8 0 -15 7
-15 15 0 8 -7 15 -15 15 -8 0 -15 7 -15 15 0 8 -5 15 -11 15 -5 0 -15 14 -20
30 -6 17 -15 30 -19 30 -4 0 -11 11 -14 25 -4 14 -11 25 -16 25 -6 0 -10 8
-10 19 0 10 -7 24 -15 31 -8 7 -15 20 -15 30 0 10 -7 20 -15 24 -8 3 -15 16
-15 28 0 13 -16 41 -35 63 -19 22 -38 45 -43 50 -5 6 -12 28 -15 50 -4 22 -11
41 -17 43 -5 2 -10 16 -10 32 0 16 -7 35 -15 44 -8 8 -15 20 -15 26 0 17 -33
73 -47 83 -7 4 -13 18 -13 30 0 13 -9 30 -20 40 -11 9 -20 24 -20 32 0 8 -4
15 -10 15 -5 0 -10 11 -10 25 0 24 -31 65 -49 65 -5 0 -11 4 -13 8 -4 10 -85
52 -101 52 -7 1 -23 14 -37 30 -13 17 -32 30 -41 30 -22 0 -89 39 -89 51 0 5
-11 9 -25 9 -14 0 -28 7 -31 15 -4 8 -15 15 -25 15 -10 0 -19 4 -19 10 0 5
-11 12 -25 16 -14 3 -25 10 -25 15 0 5 -5 9 -11 9 -6 0 -26 16 -45 35 -18 19
-39 35 -45 35 -6 0 -28 13 -48 28 -20 16 -62 37 -93 47 -32 11 -58 23 -58 28
0 4 -13 13 -30 18 -16 6 -30 15 -30 20 0 5 -7 9 -15 9 -8 0 -15 7 -15 15 0 8
-7 15 -15 15 -14 0 -48 26 -97 73 -10 9 -22 17 -27 17 -5 0 -11 7 -15 15 -3 8
-12 15 -21 15 -8 0 -15 4 -15 9 0 5 -10 13 -22 17 -12 3 -29 13 -37 22 -12 12
-40 14 -155 10 -95 -3 -141 -8 -144 -16 -2 -7 -15 -12 -28 -12 -13 0 -41 -9
-61 -20 -21 -11 -43 -20 -50 -20 -7 0 -13 -4 -13 -9 0 -5 -13 -12 -30 -16 -16
-4 -32 -11 -35 -16 -4 -5 -15 -9 -26 -9 -11 0 -22 -7 -25 -15 -4 -8 -11 -15
-18 -15 -6 0 -19 -8 -28 -17 -23 -24 -46 -43 -53 -43 -4 0 -17 -13 -31 -29
-13 -16 -38 -32 -54 -36 -17 -4 -30 -11 -30 -16 0 -5 -6 -9 -12 -9 -7 0 -38
-23 -68 -51 l-54 -51 -71 6 c-44 4 -74 12 -81 21 -6 8 -16 15 -23 15 -6 0 -11
7 -11 15 0 8 -9 15 -20 15 -11 0 -20 4 -20 10 0 5 -12 13 -27 16 -29 8 -38 13
-87 59 -38 35 -62 51 -93 65 -13 5 -23 14 -23 20 0 5 -6 10 -13 10 -8 0 -19
12 -26 28 -32 68 -38 77 -58 88 -12 6 -37 23 -55 37 -17 15 -38 27 -45 27 -8
0 -13 12 -13 29 0 16 -6 31 -15 35 -8 3 -15 16 -15 29 0 13 -7 32 -15 43 -8
10 -15 28 -15 39 0 11 -7 29 -15 39 -8 11 -15 28 -15 37 0 37 -64 30 -109 -12
-18 -16 -34 -29 -37 -29 -2 0 -13 -9 -25 -21 -16 -16 -20 -31 -18 -77 1 -40
-2 -56 -10 -54 -6 1 -38 28 -71 60 -81 78 -98 92 -110 92 -5 0 -10 5 -10 10 0
17 -39 50 -58 50 -10 0 -24 6 -31 13 -16 16 -227 15 -243 -1 -8 -8 -56 -12
-141 -12 -110 0 -128 2 -118 14 8 10 9 16 1 21 -5 3 -10 17 -10 31 0 15 -13
37 -32 56 l-32 31 -96 -7 c-104 -6 -149 -22 -187 -65 -12 -14 -23 -39 -23 -56
l0 -30 -501 3 c-312 1 -508 6 -520 12 -10 6 -61 13 -114 17 l-95 6 7 26 c3 14
12 32 20 39 18 18 17 87 -2 106 -8 8 -15 21 -15 29 0 19 -80 67 -111 67 -31 0
-89 -38 -100 -67 -5 -13 -9 -41 -9 -62 0 -20 -6 -43 -12 -49 -10 -10 -10 -17
0 -32 25 -40 16 -46 -50 -39 -35 3 -73 4 -84 2 -17 -2 -27 6 -44 39 -28 54
-34 58 -97 58 -45 0 -57 -4 -83 -30 -17 -16 -35 -30 -40 -30 -4 0 -10 -4 -12
-10 -2 -5 -66 -10 -148 -11 l-145 -1 -6 63 c-3 35 -9 73 -14 84 -5 13 4 8 24
-14 30 -31 36 -33 99 -33 48 0 69 5 78 16 6 9 14 16 18 16 9 0 46 39 46 49 0
5 7 15 16 22 21 18 13 78 -16 119 -16 23 -29 30 -55 30 -20 0 -35 6 -39 15 -3
8 -14 15 -25 15 -11 0 -23 5 -26 10 -3 6 -19 10 -36 10 -16 0 -29 -4 -29 -10
0 -5 -9 -10 -20 -10 -12 0 -32 -17 -50 -42 -34 -47 -40 -100 -14 -136 9 -13
13 -26 9 -30 -3 -3 -10 -1 -14 7 -5 7 -27 15 -50 18 -34 5 -46 2 -61 -15 -11
-12 -20 -25 -20 -31 0 -5 -7 -11 -15 -15 -8 -3 -15 -11 -15 -18 0 -7 -13 -22
-30 -33 -23 -15 -30 -28 -32 -59 l-3 -40 -98 -16 c-54 -9 -103 -22 -109 -28
-7 -7 -21 -12 -33 -12 -11 0 -33 -7 -49 -15 -39 -21 -203 -21 -242 0 -16 8
-39 15 -52 15 -12 0 -25 7 -28 15 -4 8 -12 15 -19 15 -7 0 -15 7 -19 15 -3 8
-13 15 -23 15 -10 0 -27 7 -37 15 -11 8 -30 15 -43 15 -13 0 -23 3 -23 8 0 4
-33 23 -73 42 -68 33 -78 35 -174 35 -67 0 -107 -5 -115 -13 -7 -7 -20 -12
-29 -12 -10 0 -24 -6 -31 -13 -7 -7 -37 -24 -65 -37 -29 -14 -53 -28 -53 -32
0 -5 -5 -8 -10 -8 -12 0 -73 -41 -78 -52 -2 -5 -7 -8 -12 -8 -12 0 -76 -56
-137 -119 -52 -53 -93 -118 -93 -146 0 -8 -4 -15 -10 -15 -5 0 -12 -17 -15
-37 -4 -21 -13 -52 -21 -70 -8 -18 -12 -46 -9 -62 5 -29 3 -31 -26 -31 -24 0
-41 11 -77 50 -80 84 -102 110 -102 120 0 6 -7 10 -15 10 -8 0 -15 5 -15 10 0
11 -36 50 -46 50 -9 0 -74 70 -74 80 0 16 -53 60 -100 83 -47 23 -68 41 -86
73 -6 10 -20 23 -32 29 -12 5 -22 15 -22 22 0 7 -5 13 -10 13 -6 0 -24 12 -42
28 -45 39 -158 143 -180 167 -57 60 -74 75 -85 75 -7 0 -13 6 -13 13 0 17 -92
107 -110 107 -5 0 -10 4 -10 9 0 5 -9 13 -21 16 -11 4 -33 20 -50 36 -16 16
-36 29 -43 29 -8 0 -19 7 -26 15 -7 8 -23 15 -37 15 -13 0 -31 7 -39 15 -13
13 -70 15 -387 15 -304 1 -377 3 -397 15 -14 8 -51 14 -82 15 -31 0 -69 5 -83
10 -15 6 -162 13 -328 16 -166 4 -322 10 -347 14 -27 5 -35 8 -19 9 15 0 32 8
39 16 7 8 19 15 27 15 27 0 103 99 103 136 0 7 -6 14 -12 17 -21 7 -172 -5
-183 -14 -5 -5 -37 -9 -71 -9 -42 0 -67 -5 -78 -15 -8 -8 -18 -15 -21 -15 -10
0 -85 -76 -85 -85 0 -4 -8 -14 -17 -21 -24 -18 -206 -19 -236 -2 -12 7 -56 15
-97 18 -55 4 -70 8 -55 15 54 24 117 110 107 147 -5 19 -10 20 -99 15 -52 -3
-99 -10 -106 -15 -7 -6 -39 -13 -72 -17 -33 -4 -63 -13 -67 -19 -5 -8 -13 -8
-28 2 -24 15 -56 16 -65 2 -3 -5 -46 -10 -96 -10 -53 0 -89 4 -89 10 0 6 6 10
13 10 9 0 14 22 16 76 1 50 7 82 17 91 8 8 14 29 14 47 0 17 6 38 13 45 16 16
16 262 -1 311 -6 19 -12 89 -13 155 -1 76 -7 133 -15 154 -8 18 -14 65 -14
103 0 48 -5 74 -15 84 -8 9 -15 28 -15 44 0 22 8 33 38 51 20 13 46 35 57 48
11 14 28 32 37 40 10 9 18 22 18 29 0 7 7 20 15 28 18 19 3 54 -27 61 -11 4
-21 17 -25 35 -3 15 -10 31 -14 34 -5 3 -9 18 -9 34 0 29 -37 112 -52 118 -4
2 -8 12 -8 23 0 10 -7 19 -15 19 -8 0 -15 7 -15 15 0 8 -5 15 -11 15 -5 0 -15
14 -20 30 -9 25 -16 30 -45 30 -22 0 -37 -6 -40 -15z"/>
<path d="M8397 7194 c-3 -4 -44 -10 -89 -14 -46 -4 -84 -12 -86 -19 -2 -6 -12
-11 -22 -11 -21 0 -100 -70 -100 -88 0 -7 -4 -12 -10 -12 -5 0 -10 -16 -10
-36 0 -33 2 -36 23 -30 12 3 59 9 105 12 45 4 82 11 82 15 0 5 9 9 21 9 40 0
85 30 117 80 39 59 39 94 2 98 -14 2 -29 0 -33 -4z"/>
<path d="M5200 7142 c-14 -2 -29 -8 -34 -13 -6 -5 -18 -9 -28 -9 -10 0 -18 -4
-18 -10 0 -12 -44 -55 -64 -63 -9 -4 -16 -11 -16 -17 0 -5 -7 -10 -15 -10 -11
0 -15 -11 -15 -39 0 -31 4 -40 21 -44 32 -9 282 4 294 14 5 5 18 9 30 9 27 0
131 102 137 135 10 48 -10 55 -145 53 -67 -1 -133 -4 -147 -6z"/>
<path d="M8595 7143 c-11 -3 -24 -9 -29 -14 -6 -5 -18 -9 -27 -9 -21 0 -95
-71 -104 -99 -3 -12 -11 -21 -16 -21 -5 0 -9 -13 -9 -30 0 -23 5 -31 25 -36
44 -11 273 0 287 14 6 6 20 12 30 12 10 0 18 6 18 13 1 11 26 36 73 69 10 8
18 29 20 53 2 38 1 39 -38 47 -44 8 -198 8 -230 1z"/>
<path d="M7933 7091 c-23 -4 -47 -12 -55 -18 -7 -7 -38 -15 -68 -19 -30 -4
-59 -10 -65 -14 -5 -4 -39 -10 -75 -14 -36 -3 -66 -11 -68 -16 -2 -6 -12 -10
-21 -10 -16 0 -29 -8 -78 -50 -7 -5 -17 -10 -23 -10 -5 0 -10 -6 -10 -14 0 -8
-7 -16 -15 -20 -8 -3 -15 -12 -15 -21 0 -8 -5 -15 -11 -15 -6 0 -9 -12 -7 -27
4 -36 33 -41 84 -14 21 12 49 21 61 21 12 0 25 5 28 10 3 6 39 10 78 10 44 0
83 6 101 15 15 8 41 15 57 15 16 0 37 8 47 18 10 9 36 33 58 52 48 42 79 92
71 114 -7 17 -9 17 -74 7z"/>
<path d="M4308 7083 c-10 -2 -18 -8 -18 -13 0 -4 -50 -10 -112 -12 -78 -2
-113 -7 -116 -15 -2 -7 -12 -13 -21 -13 -10 0 -39 -21 -64 -46 -52 -51 -61
-86 -25 -105 27 -14 225 -7 255 10 14 7 87 11 203 11 151 0 182 2 186 15 4 8
11 15 18 15 6 0 33 20 59 45 38 37 47 52 47 80 l0 35 -197 -1 c-109 -1 -206
-3 -215 -6z"/>
<path d="M9105 7083 c-11 -3 -24 -9 -29 -14 -6 -5 -20 -9 -32 -9 -13 0 -29 -7
-38 -15 -8 -8 -19 -15 -23 -15 -17 0 -73 -57 -73 -73 0 -10 -4 -17 -10 -17
-14 0 -13 -33 2 -48 15 -15 244 -17 253 -2 9 14 27 12 23 -2 -3 -7 1 -18 8
-25 18 -18 332 2 355 22 8 8 21 15 27 15 7 0 12 7 12 15 0 8 4 15 9 15 6 0 9
-12 8 -27 l-2 -28 142 -3 c116 -2 144 0 156 13 9 8 23 15 31 15 9 0 16 7 16
15 0 8 7 15 15 15 8 0 15 7 15 15 0 8 6 15 13 15 15 0 37 46 37 78 l0 24 -135
-4 c-90 -2 -138 -7 -147 -15 -6 -7 -19 -13 -28 -13 -9 0 -25 -9 -35 -20 -24
-27 -33 -25 -37 8 -3 29 -38 43 -61 23 -10 -7 -201 -16 -271 -12 -5 1 -3 8 4
16 23 28 -4 40 -98 42 -48 1 -96 -1 -107 -4z"/>
<path d="M5891 7060 c-127 -4 -176 -8 -179 -17 -2 -7 -11 -13 -20 -13 -31 -1
-102 -95 -102 -135 0 -21 26 -25 176 -25 126 0 148 3 184 21 22 12 40 24 40
28 0 3 18 19 40 35 22 17 40 36 40 43 0 7 5 13 11 13 13 0 8 53 -6 55 -5 0
-88 -2 -184 -5z"/>
<path d="M6605 7040 c-4 -6 -70 -10 -166 -10 -150 0 -162 -1 -191 -22 -54 -39
-68 -52 -68 -64 0 -7 -4 -14 -9 -16 -8 -3 -15 -37 -12 -65 1 -16 306 -19 316
-3 3 6 21 10 40 10 20 0 35 6 39 15 3 8 12 15 20 15 18 0 66 49 66 68 0 7 5
21 12 31 9 15 9 23 -1 35 -15 18 -37 21 -46 6z"/>
<path d="M7020 7023 c-19 -3 -39 -9 -44 -14 -6 -5 -17 -9 -25 -9 -18 0 -101
-74 -101 -89 0 -6 -7 -14 -15 -19 -9 -4 -17 -21 -18 -38 -2 -24 2 -30 22 -32
13 -2 28 1 34 7 7 7 72 11 179 11 148 0 172 2 205 20 20 10 39 23 42 27 3 4
15 13 26 19 23 13 59 80 51 99 -2 7 -19 15 -36 19 -34 6 -260 6 -320 -1z"/>
<path d="M10093 7023 c-13 -2 -23 -9 -23 -14 0 -5 -5 -9 -12 -9 -23 0 -98 -94
-98 -122 l0 -28 130 0 c80 0 130 4 130 10 0 6 11 10 25 10 17 0 41 15 71 45
38 38 45 51 42 78 l-3 32 -120 1 c-66 1 -130 0 -142 -3z"/>
<path d="M10598 6933 c-10 -2 -18 -8 -18 -13 0 -4 -11 -11 -25 -14 -14 -4 -25
-11 -25 -16 0 -6 -6 -10 -12 -10 -39 -1 -105 -107 -81 -131 12 -11 186 6 191
20 2 6 10 11 17 11 17 0 75 73 75 94 0 9 5 16 11 16 6 0 9 10 7 23 -3 20 -9
22 -63 24 -33 0 -68 -1 -77 -4z"/>
<path d="M11138 6926 c-8 -7 -23 -16 -35 -20 -12 -4 -24 -13 -27 -21 -3 -8
-12 -15 -21 -15 -8 0 -15 -4 -15 -10 0 -5 -5 -10 -11 -10 -20 0 -48 -45 -49
-79 0 -33 0 -34 38 -27 20 3 63 6 94 6 37 0 62 5 72 15 8 8 18 15 23 15 5 0
20 18 33 40 14 22 28 40 31 40 13 0 20 52 8 66 -15 19 -123 19 -141 0z"/>
<path d="M8127 6806 c-4 -9 -28 -15 -73 -18 -40 -2 -69 -9 -72 -16 -2 -7 -11
-12 -21 -12 -9 0 -24 -8 -32 -17 -9 -10 -34 -35 -57 -55 -23 -20 -42 -44 -42
-52 0 -9 -6 -25 -12 -36 -10 -15 -10 -22 0 -32 6 -6 12 -22 12 -35 0 -13 5
-23 10 -23 17 0 11 -18 -8 -24 -23 -8 -62 -92 -62 -136 0 -44 43 -110 70 -110
11 0 20 -4 20 -9 0 -19 60 -24 79 -7 10 9 23 16 30 16 20 0 103 68 117 96 16
31 19 94 4 94 -5 0 -10 6 -10 13 0 17 -29 43 -55 50 -19 5 -19 5 3 12 12 4 22
14 22 21 0 8 7 14 15 14 8 0 15 4 15 8 0 5 15 9 33 9 60 1 117 15 117 29 0 8
6 14 13 14 20 1 47 67 47 116 0 25 -8 59 -17 75 -16 27 -22 29 -79 29 -43 0
-63 -4 -67 -14z"/>
<path d="M7463 6663 c-29 -21 -53 -42 -53 -46 0 -5 -7 -15 -15 -23 -10 -11
-15 -36 -15 -84 0 -48 5 -73 15 -84 8 -8 15 -19 15 -25 0 -7 28 -11 75 -11 58
0 77 4 81 15 4 8 14 15 24 15 10 0 23 7 30 15 7 8 19 15 26 15 8 0 14 6 14 13
1 6 14 23 30 37 27 21 30 30 30 81 0 47 -4 61 -27 85 -24 26 -34 29 -102 32
-75 4 -77 3 -128 -35z"/>
<path d="M8791 6669 c-17 -17 -31 -35 -31 -40 0 -6 -7 -17 -15 -25 -9 -9 -15
-34 -15 -60 0 -30 5 -46 15 -50 8 -4 15 -12 15 -19 0 -17 55 -45 87 -45 39 0
102 47 103 77 0 6 5 13 11 15 13 4 24 78 16 110 -12 47 -43 68 -102 68 -46 0
-57 -4 -84 -31z"/>
<path d="M11327 6686 c-9 -9 -23 -16 -31 -16 -9 0 -16 -7 -16 -15 0 -8 -4 -15
-10 -15 -14 0 -50 -38 -50 -53 0 -7 -5 -18 -11 -24 -18 -18 -3 -40 31 -48 31
-7 110 20 110 37 0 4 14 22 30 40 24 26 30 41 28 68 -3 31 -6 35 -34 38 -19 2
-38 -3 -47 -12z"/>
<path d="M11584 6535 c-4 -8 -10 -15 -15 -15 -14 0 -49 -38 -49 -53 0 -7 -4
-17 -10 -23 -9 -9 -24 -107 -23 -150 0 -12 20 -43 44 -68 46 -49 84 -60 113
-31 8 8 19 15 24 15 11 0 63 57 79 87 6 12 12 49 12 83 0 33 2 64 5 69 6 9
-31 83 -48 93 -6 4 -37 8 -69 8 -42 0 -59 -4 -63 -15z"/>
<path d="M8733 5973 c-13 -2 -23 -9 -23 -14 0 -5 -11 -9 -24 -9 -13 0 -29 -7
-36 -15 -7 -8 -19 -15 -26 -15 -8 0 -14 -5 -14 -11 0 -7 -7 -17 -16 -23 -12
-9 -16 -29 -16 -75 0 -58 3 -66 29 -86 34 -28 84 -37 149 -28 41 5 56 13 92
52 40 43 42 49 42 106 0 54 -3 64 -29 89 -29 28 -81 40 -128 29z"/>
<path d="M7282 5923 c-29 -36 -30 -113 -2 -158 22 -36 71 -50 129 -39 34 7 39
0 16 -22 -23 -23 -20 -177 4 -227 20 -43 60 -69 107 -69 39 0 83 27 95 59 5
15 17 23 31 23 32 0 42 9 67 55 25 48 28 141 6 188 -16 33 -54 57 -90 57 -27
0 -85 -28 -85 -41 0 -5 -25 -9 -55 -9 -59 0 -63 3 -40 26 10 10 15 35 15 69 0
47 -4 59 -30 85 -26 27 -36 30 -88 30 -51 0 -61 -3 -80 -27z"/>
<path d="M8155 5920 c-26 -27 -28 -36 -28 -103 0 -77 15 -108 60 -120 16 -4
16 -6 -4 -12 -37 -12 -56 -53 -56 -118 1 -52 4 -63 29 -83 15 -13 33 -24 41
-24 7 0 16 -7 19 -15 4 -8 14 -15 24 -15 10 0 20 -7 24 -15 4 -11 21 -15 60
-15 44 0 61 5 83 24 25 22 28 30 27 87 -1 37 -6 65 -13 67 -6 2 -11 9 -11 15
0 16 -82 87 -101 87 -9 0 -18 3 -21 6 -10 10 4 44 18 44 8 0 14 7 14 16 0 8 7
22 15 30 8 9 15 33 15 54 0 21 -7 45 -15 54 -8 8 -15 19 -15 24 0 23 -39 42
-86 42 -43 0 -55 -5 -79 -30z"/>
<path d="M9180 5728 c-26 -36 -30 -49 -30 -107 0 -95 32 -137 119 -156 21 -4
40 -1 63 12 64 36 68 45 68 142 0 87 -1 90 -31 120 -28 28 -36 31 -95 31 -63
0 -64 0 -94 -42z"/>
<path d="M6876 5455 c-20 -19 -36 -44 -36 -54 0 -15 -9 -22 -35 -27 -19 -3
-38 -10 -41 -15 -3 -5 -14 -9 -24 -9 -35 0 -50 -28 -50 -93 0 -34 4 -68 8 -75
11 -16 113 -52 150 -52 15 0 37 7 48 15 10 8 28 15 39 15 24 0 43 20 76 81 13
24 30 50 37 57 7 8 12 39 12 71 0 51 -4 61 -31 89 -26 26 -39 32 -74 32 -36 0
-49 -6 -79 -35z"/>
<path d="M6956 4920 c-24 -3 -43 -12 -50 -24 -6 -11 -23 -31 -37 -46 -47 -48
-46 -154 2 -205 37 -39 103 -35 152 8 20 19 37 39 37 45 0 7 6 12 14 12 18 0
27 72 17 128 -12 64 -59 93 -135 82z"/>
<path d="M9753 4626 c-18 -17 -33 -37 -33 -44 0 -6 -4 -12 -9 -12 -15 0 -23
-54 -13 -81 6 -13 22 -37 36 -52 14 -15 26 -32 26 -36 0 -4 -33 -11 -72 -14
-40 -4 -74 -11 -76 -17 -2 -6 -104 -10 -300 -10 -191 0 -311 -5 -337 -12 -22
-6 -112 -14 -199 -17 -114 -4 -161 -10 -164 -18 -2 -7 -11 -13 -21 -13 -9 0
-24 -8 -33 -17 -21 -23 -46 -43 -52 -43 -3 0 -20 -13 -38 -30 -32 -30 -58 -39
-58 -21 0 5 -17 20 -37 32 -21 13 -41 27 -44 32 -7 9 -43 32 -69 42 -8 4 -27
13 -42 21 -39 21 -411 20 -452 -1 -15 -8 -41 -15 -57 -15 -19 0 -29 -5 -29
-15 0 -10 -10 -15 -33 -15 -18 0 -42 -7 -53 -15 -15 -11 -59 -14 -220 -15
-223 0 -237 4 -241 65 -6 91 -29 145 -62 145 -5 0 -11 6 -13 12 -3 7 -23 13
-48 13 -25 0 -45 -6 -48 -13 -2 -6 -9 -12 -15 -12 -7 0 -21 -13 -31 -27 -17
-23 -20 -43 -19 -140 0 -91 3 -117 16 -131 10 -10 17 -24 17 -30 0 -7 7 -12
15 -12 8 0 15 -7 15 -15 0 -8 8 -15 19 -15 10 0 24 -7 31 -15 7 -8 19 -15 27
-15 8 0 21 -7 29 -15 9 -9 34 -15 58 -15 24 0 60 -7 79 -15 51 -21 320 -21
361 0 15 8 42 15 60 15 17 0 43 6 57 14 14 7 47 16 72 20 26 4 49 11 52 17 4
5 79 9 172 9 137 0 173 -3 204 -17 21 -10 39 -24 39 -30 0 -7 6 -13 14 -13 8
0 17 -11 20 -25 4 -14 11 -25 16 -25 6 0 10 -7 10 -15 0 -16 34 -55 49 -55 5
0 11 -5 13 -10 5 -17 94 -14 130 3 18 9 66 48 107 87 40 38 77 70 82 70 4 0
12 6 16 14 6 11 45 15 173 18 105 2 173 8 187 16 16 9 104 12 325 12 252 0
308 3 324 15 11 8 42 14 75 15 33 0 63 6 75 15 10 8 29 15 42 15 12 0 25 7 28
15 4 8 12 15 19 15 23 0 75 54 75 77 0 12 5 25 10 28 6 3 10 42 10 85 0 43 -4
82 -10 85 -5 3 -10 21 -10 40 0 18 -7 40 -15 49 -8 8 -15 17 -15 20 0 2 -15
21 -34 40 -31 34 -37 36 -92 35 -52 -1 -63 -5 -91 -33z"/>
<path d="M9030 3861 c0 -6 -6 -11 -13 -11 -18 0 -107 -88 -107 -105 0 -8 -4
-15 -10 -15 -5 0 -10 -7 -10 -15 0 -8 -9 -24 -20 -35 -11 -11 -20 -26 -20 -34
0 -7 -7 -19 -15 -26 -8 -7 -15 -23 -15 -36 0 -25 -21 -51 -64 -79 -14 -10 -26
-24 -26 -31 0 -8 -7 -14 -15 -14 -8 0 -15 -7 -15 -15 0 -8 -6 -15 -14 -15 -7
0 -19 -7 -26 -15 -14 -17 -80 -21 -80 -5 0 6 -9 10 -19 10 -35 0 -32 17 8 45
22 14 42 33 45 41 3 8 12 14 21 14 8 0 15 7 15 15 0 8 7 15 15 15 8 0 15 9 15
20 0 11 5 20 11 20 6 0 9 12 7 28 -3 24 -6 27 -38 24 -21 -3 -46 -15 -64 -33
-17 -17 -41 -32 -53 -35 -13 -4 -23 -10 -23 -15 0 -5 -7 -9 -15 -9 -8 0 -15
-7 -15 -15 0 -8 -5 -15 -10 -15 -6 0 -24 -14 -40 -30 l-30 -31 0 28 c0 44 -15
61 -40 46 -11 -7 -27 -13 -37 -13 -15 0 -15 1 -1 13 9 6 19 22 23 35 6 22 5
22 -37 16 -57 -9 -104 -30 -156 -72 -49 -39 -59 -38 -38 3 9 17 11 35 7 49 -8
20 -14 21 -92 17 -82 -3 -126 -18 -166 -57 -7 -7 -26 -18 -43 -26 -16 -7 -30
-19 -30 -25 0 -7 -7 -13 -15 -13 -8 0 -15 -7 -15 -15 0 -8 -7 -15 -15 -15 -8
0 -15 -6 -15 -14 0 -7 -9 -16 -20 -19 -28 -7 -60 3 -60 18 0 7 -12 18 -27 23
-16 6 -22 11 -15 11 6 1 12 8 12 16 0 8 7 15 16 15 9 0 31 15 49 33 18 17 43
41 56 52 41 35 51 63 50 141 0 98 -11 114 -78 114 -32 0 -57 -6 -67 -15 -8 -8
-25 -15 -38 -15 -13 0 -29 -5 -35 -11 -14 -14 -49 -35 -85 -51 -16 -7 -28 -16
-28 -20 0 -4 -5 -8 -11 -8 -18 0 -99 -43 -99 -52 0 -4 -6 -8 -12 -8 -23 0 -56
-45 -60 -80 -3 -30 0 -35 21 -38 13 -2 33 0 45 6 75 34 100 42 126 42 17 0 30
4 30 9 0 5 18 18 40 29 l40 19 0 -23 c0 -20 -5 -24 -28 -24 -16 0 -37 -7 -48
-15 -10 -8 -32 -15 -47 -15 -15 0 -30 -7 -33 -15 -4 -8 -15 -15 -25 -15 -11 0
-22 -7 -25 -15 -4 -8 -14 -15 -24 -15 -10 0 -25 -7 -34 -15 -8 -8 -19 -15 -25
-15 -6 0 -11 -6 -11 -12 -1 -7 -14 -24 -30 -38 -24 -19 -30 -32 -30 -62 0 -27
4 -38 15 -38 8 0 15 -5 15 -10 0 -6 -7 -13 -15 -16 -10 -4 -15 -20 -15 -45 0
-21 -4 -39 -10 -39 -18 0 -10 -39 9 -45 22 -7 69 3 89 19 8 6 36 33 63 60 l48
48 32 -32 c41 -40 71 -52 118 -44 35 6 39 4 45 -19 4 -19 18 -28 55 -41 55
-18 191 -22 191 -6 0 6 9 10 21 10 11 0 28 4 38 10 15 7 20 4 30 -17 11 -24
15 -25 78 -21 39 2 68 9 71 16 2 7 9 12 16 12 7 0 23 9 36 20 21 18 25 19 40
5 19 -17 105 -21 115 -5 3 6 19 10 34 10 15 0 36 7 47 15 13 10 44 14 96 15
54 0 81 4 92 15 8 8 17 15 20 15 9 0 46 39 46 49 0 5 15 15 33 22 17 7 34 14
37 16 4 2 4 -25 2 -60 -4 -57 -2 -67 19 -86 16 -15 36 -21 70 -21 32 0 55 -6
73 -21 24 -19 37 -21 127 -17 55 2 103 8 107 14 4 5 20 16 36 24 58 29 66 35
67 45 1 5 4 -1 8 -15 7 -25 51 -43 51 -21 0 6 11 11 25 11 14 0 28 7 31 15 4
8 13 15 21 15 9 0 49 35 89 78 54 56 73 84 74 105 0 15 5 27 10 27 6 0 10 7
10 15 0 11 11 15 39 15 22 0 46 7 55 15 8 8 18 15 23 15 4 0 14 9 21 20 7 11
16 20 22 20 5 0 21 11 35 24 21 20 26 32 23 63 l-3 38 -65 -4 c-36 -1 -72 -9
-80 -16 -8 -8 -27 -17 -42 -20 -16 -4 -28 -11 -28 -15 0 -5 -18 -11 -40 -15
-22 -4 -40 -11 -40 -16 0 -5 -7 -9 -15 -9 -9 0 -18 -7 -21 -15 -10 -25 -23
-17 -26 16 -4 40 -30 59 -58 41 -11 -6 -30 -12 -44 -12 -13 0 -29 -7 -36 -15
-7 -8 -19 -15 -27 -15 -13 0 -13 3 -3 15 20 24 -2 42 -32 27 -13 -6 -34 -14
-48 -18 -24 -6 -24 -6 -7 13 9 11 17 34 17 51 0 30 -2 32 -35 32 -21 0 -38 -6
-41 -14 -3 -8 -16 -17 -30 -20 -13 -4 -24 -11 -24 -16 0 -6 -9 -10 -20 -10
-18 0 -19 2 -8 23 7 12 19 26 26 30 6 4 12 16 12 26 0 10 7 24 15 31 8 7 15
19 15 28 0 8 6 23 14 31 8 9 16 32 18 51 3 34 2 35 -34 38 -22 2 -38 -1 -38
-7z"/>
<path d="M9435 3162 c-16 -8 -31 -19 -33 -24 -2 -4 -9 -8 -16 -8 -17 0 -42
-32 -66 -86 -12 -25 -35 -59 -51 -75 -16 -15 -29 -33 -29 -39 0 -5 -4 -10 -9
-10 -5 0 -14 -15 -20 -32 l-12 -33 -25 33 c-22 28 -32 32 -71 32 -58 0 -107
-23 -162 -77 -24 -23 -53 -45 -64 -49 -26 -8 -56 -44 -57 -66 0 -10 -4 -18
-10 -18 -5 0 -10 -5 -10 -11 0 -6 -13 -24 -30 -41 l-30 -30 0 155 c0 86 -3
162 -6 171 -7 18 -69 23 -79 6 -3 -5 -14 -10 -23 -10 -10 0 -25 -8 -34 -17
-37 -40 -47 -43 -141 -43 -72 0 -98 -4 -107 -15 -7 -8 -19 -15 -26 -15 -8 0
-14 -7 -14 -15 0 -8 -5 -15 -11 -15 -7 0 -8 7 -4 18 18 46 17 77 -4 96 -38 34
-152 20 -201 -25 -17 -16 -33 -29 -35 -29 -11 0 -91 -96 -102 -121 -7 -16 -17
-29 -23 -29 -5 0 -10 -7 -10 -15 0 -8 -6 -15 -12 -15 -10 0 -12 26 -10 107 4
135 -3 149 -68 134 -25 -5 -46 -15 -48 -20 -2 -6 -12 -11 -23 -11 -11 0 -22
-7 -25 -15 -4 -8 -12 -15 -20 -15 -8 0 -34 -20 -60 -45 -25 -25 -49 -45 -55
-45 -5 0 -9 -5 -9 -11 0 -6 -7 -17 -15 -25 -8 -9 -15 -24 -15 -35 0 -10 -4
-19 -9 -19 -5 0 -11 -9 -14 -20 -3 -11 -10 -20 -16 -20 -16 0 -14 36 3 53 12
12 21 102 17 175 -1 14 -61 17 -61 2 0 -5 -7 -10 -15 -10 -8 0 -31 -16 -51
-35 -19 -19 -44 -35 -54 -35 -10 0 -22 -4 -25 -10 -3 -5 -15 -10 -26 -10 -10
0 -19 -7 -19 -15 0 -8 -4 -15 -9 -15 -11 0 -171 -160 -171 -170 0 -5 -7 -10
-15 -14 -8 -3 -15 -12 -15 -21 0 -8 -4 -15 -10 -15 -5 0 -13 -12 -16 -27 -4
-16 -11 -33 -16 -40 -5 -6 -8 -33 -6 -60 l3 -48 41 -3 c28 -2 47 2 57 12 9 9
22 16 31 16 8 0 19 6 23 13 4 7 25 23 46 36 20 12 37 26 37 31 0 15 39 18 52
3 11 -13 43 -14 73 -2 6 2 12 0 13 -6 12 -34 25 -45 53 -45 29 0 86 32 102 58
4 6 12 12 17 12 12 0 50 37 50 48 0 16 41 92 49 92 5 0 7 -29 4 -65 -7 -92 0
-115 37 -115 17 0 30 -5 30 -13 0 -23 36 -37 67 -26 16 5 38 9 48 8 48 -5 95
2 109 16 8 8 21 15 29 15 7 0 34 20 58 45 24 25 48 45 53 45 5 0 4 -6 -2 -12
-5 -7 -12 -38 -13 -68 -4 -54 -3 -55 24 -58 15 -2 27 1 27 7 0 6 7 11 16 11
24 0 113 72 120 98 8 27 34 29 34 3 0 -25 18 -37 33 -22 6 6 21 11 33 11 13 0
29 7 38 15 8 8 18 15 23 15 4 0 22 17 40 37 l33 37 0 -66 c0 -47 4 -69 15 -78
12 -10 19 -10 27 -2 7 7 20 12 30 12 10 0 21 7 24 15 4 8 11 15 16 15 5 0 30
20 54 45 46 48 54 47 29 -1 -18 -35 -20 -95 -3 -112 15 -15 168 -17 168 -2 0
6 11 10 24 10 14 0 32 7 40 15 12 13 20 14 37 5 12 -7 37 -9 58 -5 92 16 124
17 131 4 11 -17 194 -19 212 -1 6 6 20 12 30 12 10 0 18 4 18 9 0 6 15 7 34 4
19 -3 36 -1 40 6 8 13 46 15 46 2 0 -4 -9 -20 -20 -34 -11 -14 -20 -30 -20
-36 0 -14 -58 -120 -75 -137 -7 -8 -27 -14 -44 -14 -21 0 -40 -10 -64 -35 -19
-19 -39 -35 -46 -35 -6 0 -11 -5 -11 -12 0 -6 -7 -19 -16 -29 -11 -12 -14 -27
-10 -44 5 -21 12 -25 46 -25 21 0 42 5 45 10 3 6 19 10 35 10 16 0 33 6 37 13
4 7 24 23 43 35 19 12 49 38 65 57 17 20 51 59 77 88 26 28 48 58 48 65 0 6 4
12 9 12 5 0 13 14 16 32 4 17 14 38 21 46 8 7 14 22 14 33 0 10 4 19 10 19 5
0 12 11 16 24 3 14 12 27 20 30 8 3 14 14 14 24 0 11 7 25 15 32 8 7 15 20 15
30 0 10 7 23 15 30 9 7 15 29 15 51 0 22 5 39 10 39 6 0 10 6 10 13 0 8 16 28
35 46 19 17 35 38 35 45 0 8 7 16 15 20 8 3 15 16 15 30 0 14 4 27 10 31 19
12 -3 35 -32 35 -29 0 -99 -35 -106 -52 -2 -4 -9 -8 -16 -8 -18 0 -106 -91
-106 -110 0 -34 -59 -130 -80 -130 -4 0 -5 11 -2 25 2 14 8 25 12 25 5 0 12
14 15 32 4 17 14 38 21 46 20 19 18 91 -2 99 -8 3 -20 1 -27 -6 -6 -6 -19 -11
-29 -11 -10 0 -18 -7 -18 -15 0 -8 -5 -15 -12 -15 -12 0 -40 -29 -68 -71 -8
-12 -23 -29 -32 -38 -10 -8 -18 -21 -18 -27 0 -6 -7 -25 -15 -40 -8 -16 -15
-37 -15 -46 0 -30 -73 -25 -94 7 -17 27 -22 115 -6 115 6 0 10 8 10 19 0 10 8
29 18 42 10 13 21 32 25 42 3 9 11 17 17 17 5 0 10 9 10 20 0 11 4 20 10 20 5
0 12 11 16 25 3 14 9 25 13 25 4 0 12 12 19 28 6 15 20 41 31 57 11 17 20 45
20 63 1 27 -2 32 -21 31 -13 -1 -36 -8 -53 -17z"/>
<path d="M10220 985 c-7 -8 -19 -15 -26 -15 -8 0 -14 -7 -14 -15 0 -8 -6 -15
-13 -15 -7 0 -24 -13 -37 -30 -14 -16 -31 -29 -37 -30 -7 0 -13 -7 -13 -15 0
-8 -7 -15 -15 -15 -8 0 -15 -9 -15 -20 0 -11 -4 -20 -10 -20 -5 0 -12 -11 -16
-25 -3 -14 -10 -25 -14 -25 -5 0 -11 -13 -15 -29 -3 -16 -13 -32 -21 -35 -8
-3 -14 -14 -14 -25 0 -11 -4 -22 -9 -26 -5 -3 -12 -19 -16 -35 -4 -17 -11 -30
-16 -30 -5 0 -9 -6 -9 -13 0 -8 -9 -22 -20 -32 -11 -10 -20 -24 -20 -32 0 -7
-4 -13 -9 -13 -5 0 -12 -14 -16 -30 -7 -33 -25 -41 -25 -11 0 39 -24 49 -102
43 -67 -5 -124 -27 -136 -54 -2 -5 -10 -8 -18 -8 -8 0 -14 -7 -14 -15 0 -8 -3
-15 -7 -15 -5 0 -22 -14 -40 -30 -18 -17 -37 -30 -42 -30 -6 0 -11 -7 -11 -15
0 -8 -4 -15 -9 -15 -5 0 -12 -12 -16 -27 -3 -15 -12 -31 -18 -35 -7 -4 -13
-43 -16 -99 -4 -115 0 -119 111 -119 60 0 87 5 120 22 24 12 45 26 46 30 9 21
22 4 22 -27 0 -25 6 -37 22 -46 29 -15 313 -8 330 9 7 7 19 12 28 12 8 0 23 9
33 20 23 27 35 25 39 -8 3 -24 8 -27 42 -30 21 -2 43 1 49 7 6 6 23 11 39 11
15 0 31 6 35 13 4 8 24 22 43 33 19 10 45 27 57 38 20 17 23 17 29 2 7 -17 59
-23 69 -7 3 6 27 13 53 17 26 3 52 10 57 14 6 4 41 10 79 13 37 4 73 10 80 15
6 5 28 12 49 15 23 4 48 16 62 32 13 14 29 25 35 25 5 0 10 4 10 8 0 5 10 14
23 21 12 7 33 30 47 52 18 29 31 39 50 39 17 0 21 -3 12 -8 -7 -5 -15 -26 -19
-48 -3 -21 -10 -44 -15 -51 -5 -6 -12 -52 -15 -103 -8 -117 2 -140 63 -140 24
0 45 4 48 9 4 5 53 9 109 9 89 0 109 3 146 24 72 40 133 78 141 89 3 4 12 9
20 11 8 2 21 10 27 18 11 13 12 12 10 -5 -1 -11 -6 -25 -10 -32 -23 -37 151
-63 187 -28 8 8 17 15 21 15 10 0 69 44 78 58 4 6 15 12 22 12 8 0 15 5 15 10
0 6 5 10 11 10 7 0 8 -7 4 -18 -4 -9 -10 -27 -12 -39 -5 -21 -1 -23 31 -23 20
0 36 5 36 10 0 6 9 10 20 10 10 0 23 6 27 13 4 7 27 21 50 32 25 12 43 27 43
36 0 9 7 20 15 23 14 5 15 -4 9 -72 -4 -42 -8 -84 -8 -92 -1 -18 42 -26 57
-11 6 6 19 11 28 11 10 0 24 6 31 13 21 18 50 36 81 50 15 6 27 15 27 19 0 4
5 8 10 8 6 0 10 -28 10 -65 0 -53 3 -66 19 -75 31 -16 267 -13 283 4 8 7 29
17 46 21 18 3 32 11 32 16 0 5 11 9 25 9 13 0 28 7 33 16 7 12 33 16 148 17
104 2 145 6 164 18 14 8 42 25 63 38 20 13 37 27 37 32 0 5 7 9 15 9 9 0 15 9
15 23 0 13 5 28 11 34 8 8 8 17 -1 33 -9 18 -17 21 -38 15 -52 -13 -102 -17
-102 -8 0 5 23 31 50 57 28 26 50 56 50 66 0 10 5 20 11 22 15 5 14 85 -2 104
-40 49 -164 61 -228 22 -43 -27 -57 -37 -79 -60 -9 -10 -22 -18 -29 -18 -7 0
-13 -4 -13 -10 0 -5 -7 -10 -15 -10 -8 0 -15 -5 -15 -11 0 -6 -6 -17 -12 -24
-26 -29 -34 -41 -56 -83 -12 -23 -22 -58 -22 -77 0 -58 -24 -75 -102 -75 -81
0 -88 8 -76 88 10 65 21 82 53 82 12 0 28 7 35 15 7 8 17 15 23 15 12 0 77 68
77 81 0 5 4 9 9 9 5 0 11 8 14 19 15 58 -64 70 -136 21 -25 -17 -51 -30 -58
-30 -18 0 -109 -88 -109 -105 0 -9 -68 -75 -78 -75 -9 0 -42 -25 -73 -55 -26
-25 -30 -2 -9 38 14 26 20 56 20 101 0 70 -6 78 -56 68 -28 -5 -49 -21 -121
-90 -19 -18 -37 -31 -40 -29 -7 8 16 47 27 47 6 0 10 23 10 50 l0 50 -45 0
c-41 0 -51 -5 -93 -47 -26 -27 -56 -65 -65 -85 -12 -25 -27 -40 -45 -45 -15
-3 -38 -19 -52 -35 -17 -20 -34 -28 -57 -28 -32 0 -33 1 -33 40 0 22 4 40 9
40 5 0 12 13 16 30 4 16 12 30 18 30 7 0 21 19 32 43 11 23 25 46 32 50 7 4
13 27 13 52 l0 45 -48 0 c-44 0 -52 -4 -100 -51 -29 -28 -55 -49 -58 -46 -8 8
-44 -30 -44 -47 0 -7 -7 -19 -15 -26 -9 -8 -15 -30 -15 -57 0 -35 -6 -50 -27
-71 -39 -38 -79 -62 -103 -62 -11 0 -20 -7 -20 -15 0 -8 -7 -15 -15 -15 -23 0
-19 8 35 60 28 27 50 54 50 61 0 7 18 36 41 65 30 39 40 60 37 81 -2 22 -8 28
-25 26 -15 -2 -23 3 -23 12 0 8 5 15 11 15 6 0 9 12 7 28 -2 22 -8 28 -35 30
-19 2 -33 -1 -33 -7 0 -6 -10 -11 -23 -11 -12 0 -31 -6 -42 -14 -28 -19 -155
-26 -155 -9 0 7 5 13 10 13 6 0 15 10 20 23 19 43 52 92 84 124 59 60 71 87
54 117 -13 23 -51 14 -90 -22 -93 -86 -208 -206 -208 -219 0 -2 -7 -11 -15
-19 -8 -9 -15 -24 -15 -35 0 -10 -7 -19 -15 -19 -8 0 -15 -7 -15 -15 0 -8 -6
-15 -14 -15 -19 0 -76 -57 -76 -76 0 -15 -16 -19 -22 -6 -6 16 -89 52 -118 52
-17 0 -30 5 -30 10 0 6 5 10 10 10 6 0 10 7 10 15 0 9 8 19 17 22 34 13 54 43
51 76 -3 30 -6 32 -38 30 -97 -4 -134 -16 -172 -54 -21 -21 -38 -43 -38 -50 0
-6 -7 -9 -15 -5 -10 3 -15 -1 -15 -12 0 -10 -5 -23 -12 -30 -8 -8 -8 -15 1
-26 17 -21 -14 -50 -78 -73 -28 -10 -51 -21 -51 -25 0 -5 -6 -8 -14 -8 -7 0
-22 -12 -32 -27 -40 -55 -93 -103 -109 -96 -12 4 -13 9 -6 16 6 6 11 22 11 36
0 15 7 35 15 45 8 11 15 30 15 43 0 13 5 23 10 23 14 0 12 57 -2 66 -6 4 -14
2 -16 -4 -2 -7 -13 -12 -24 -12 -39 0 -158 -110 -158 -146 0 -21 -31 -64 -45
-64 -3 0 -14 -9 -25 -20 -17 -17 -33 -20 -122 -20 -102 0 -152 11 -115 26 9 3
17 12 17 20 0 8 7 14 15 14 8 0 15 7 15 15 0 8 5 15 10 15 13 0 50 37 50 50 0
6 5 10 10 10 6 0 10 7 10 15 0 8 9 23 21 34 18 16 21 32 22 110 1 50 5 91 9
91 4 0 10 11 14 25 3 14 9 25 13 25 4 0 12 12 18 28 7 15 16 34 21 42 25 42
42 80 42 94 0 9 5 16 10 16 6 0 10 9 10 19 0 11 16 36 35 55 19 20 35 45 35
56 0 11 5 20 10 20 6 0 5 8 -2 20 -15 24 -41 26 -58 5z m-406 -587 c-3 -13
-13 -27 -20 -31 -8 -4 -14 -13 -14 -18 0 -6 -7 -17 -15 -25 -8 -9 -15 -27 -15
-41 0 -18 -8 -28 -30 -36 -16 -6 -30 -15 -30 -19 0 -4 -20 -8 -43 -8 l-44 0 0
40 c0 37 2 40 27 40 15 0 37 9 50 20 13 11 29 20 37 20 7 0 13 5 13 10 0 6 6
10 13 10 7 0 23 14 37 30 29 36 44 39 34 8z"/>
<path d="M10501 730 c-25 -4 -47 -12 -49 -18 -2 -7 -12 -12 -23 -12 -10 0 -19
-7 -19 -15 0 -8 -4 -15 -10 -15 -37 0 -91 -116 -62 -134 12 -7 107 13 110 24
2 6 9 10 15 10 14 0 72 53 91 83 7 12 16 37 20 55 6 36 7 35 -73 22z"/>
</g>
</svg>
