<?xml version="1.0" standalone="no"?>
<!DOCTYPE svg PUBLIC "-//W3C//DTD SVG 20010904//EN"
 "http://www.w3.org/TR/2001/REC-SVG-20010904/DTD/svg10.dtd">
<svg version="1.0" xmlns="http://www.w3.org/2000/svg"
 width="1803.000000pt" height="873.000000pt" viewBox="0 0 1803.000000 873.000000"
 preserveAspectRatio="xMidYMid meet">
<metadata>
Created by potrace 1.16, written by Peter Selinger 2001-2019
</metadata>
<g transform="translate(0.000000,873.000000) scale(0.100000,-0.100000)"
fill="#000000" stroke="none">
<path d="M10975 8721 c14 -6 7 -9 -29 -14 -27 -4 -69 -7 -93 -7 -26 0 -51 -6
-59 -15 -9 -8 -29 -15 -45 -15 -17 0 -37 -7 -45 -15 -9 -8 -33 -15 -55 -15
-21 0 -39 -4 -39 -9 0 -5 -17 -12 -37 -16 -21 -4 -40 -10 -43 -14 -9 -13 -91
-51 -110 -51 -11 0 -20 -4 -20 -10 0 -5 -17 -12 -37 -16 -21 -4 -44 -13 -51
-21 -7 -7 -22 -13 -33 -13 -11 0 -27 -7 -35 -15 -9 -8 -24 -15 -35 -15 -10 0
-19 -4 -19 -9 0 -5 -10 -13 -22 -17 -12 -3 -26 -10 -32 -15 -49 -41 -60 -49
-68 -49 -9 0 -61 -44 -87 -72 -8 -10 -20 -18 -25 -18 -5 0 -36 -20 -67 -45
-32 -25 -63 -45 -69 -45 -6 0 -18 -7 -26 -15 -9 -8 -25 -15 -37 -15 -12 0 -31
-7 -41 -15 -11 -8 -30 -15 -43 -15 -13 0 -23 -4 -23 -10 0 -5 -12 -13 -27 -16
-15 -4 -34 -13 -41 -21 -7 -7 -22 -13 -33 -13 -10 0 -19 -4 -19 -9 0 -5 -12
-14 -27 -20 -16 -6 -37 -16 -47 -23 -26 -17 -116 -110 -116 -120 0 -4 -5 -8
-11 -8 -6 0 -25 -16 -42 -36 -18 -20 -48 -53 -67 -74 -72 -77 -97 -106 -130
-155 -19 -27 -38 -51 -42 -53 -5 -2 -8 -12 -8 -23 0 -11 -7 -22 -15 -25 -8 -4
-15 -14 -15 -24 0 -10 -7 -25 -15 -34 -8 -8 -15 -24 -15 -35 0 -11 -6 -26 -14
-33 -7 -8 -15 -38 -18 -68 -3 -30 -11 -56 -17 -58 -6 -2 -11 -16 -11 -32 0
-16 -7 -35 -15 -44 -8 -8 -15 -22 -15 -31 0 -8 -7 -18 -15 -21 -8 -4 -15 -17
-15 -30 0 -12 -6 -27 -12 -31 -15 -9 -33 -37 -48 -70 -5 -13 -14 -23 -20 -23
-5 0 -10 -11 -10 -25 0 -14 -6 -28 -14 -31 -8 -3 -18 -19 -21 -35 -4 -16 -11
-29 -16 -29 -5 0 -9 -13 -9 -29 0 -16 -7 -34 -15 -41 -8 -7 -15 -28 -15 -47 0
-33 -1 -35 -27 -28 -15 3 -30 10 -33 15 -3 4 -20 11 -37 15 -18 3 -33 11 -33
16 0 5 -13 9 -29 9 -16 0 -36 7 -45 15 -8 8 -26 15 -40 15 -13 0 -31 7 -40 15
-8 8 -29 15 -46 15 -18 0 -33 6 -36 15 -4 8 -18 15 -34 15 -16 0 -35 6 -42 14
-8 7 -29 17 -46 21 -18 3 -32 11 -32 16 0 5 -12 9 -28 9 -15 0 -36 6 -47 14
-11 7 -41 16 -67 20 -27 4 -48 11 -48 15 0 5 -30 11 -67 13 -39 2 -68 9 -71
16 -2 7 -16 12 -32 12 -15 0 -33 7 -40 15 -7 8 -20 15 -30 15 -10 0 -23 7 -30
15 -7 8 -19 15 -27 15 -7 0 -16 6 -19 14 -3 8 -16 17 -30 20 -13 4 -24 11 -24
16 0 6 -6 10 -13 10 -7 0 -24 13 -37 30 -14 16 -28 29 -32 30 -4 0 -22 14 -40
30 -18 17 -38 30 -46 30 -7 0 -15 7 -18 15 -4 8 -12 15 -20 15 -7 0 -17 6 -21
13 -11 16 -95 73 -122 82 -11 3 -21 11 -21 16 0 5 -6 9 -14 9 -8 0 -21 6 -28
13 -7 8 -26 17 -41 21 -15 3 -27 11 -27 16 0 6 -9 10 -19 10 -11 0 -26 6 -33
13 -7 8 -26 17 -41 21 -15 3 -27 11 -27 16 0 6 -7 10 -15 10 -17 0 -99 41
-103 52 -2 4 -12 8 -22 8 -10 0 -25 6 -32 14 -8 7 -29 17 -46 21 -18 3 -32 10
-32 14 0 5 -21 11 -46 15 -26 3 -52 10 -58 15 -6 4 -31 11 -55 14 -24 3 -47
10 -50 15 -3 5 -27 12 -53 16 -27 4 -48 11 -48 17 0 5 -15 9 -32 9 -18 0 -46
7 -62 15 -15 8 -38 15 -50 15 -12 0 -30 6 -41 14 -11 7 -49 16 -85 20 -36 3
-66 11 -68 16 -2 6 -18 10 -36 10 -17 0 -39 8 -48 18 -29 30 -44 40 -76 47
-18 3 -32 11 -32 16 0 5 -18 9 -40 9 -40 0 -40 0 -40 -39 0 -33 4 -40 25 -45
14 -4 25 -11 25 -16 0 -6 7 -10 15 -10 7 0 18 -6 22 -12 10 -16 39 -35 76 -49
15 -6 27 -15 27 -20 0 -5 10 -9 23 -9 12 0 34 -7 49 -14 16 -8 48 -18 73 -22
25 -3 45 -10 45 -15 0 -5 7 -9 16 -9 9 0 30 -6 47 -14 18 -8 50 -17 72 -20 22
-3 41 -10 43 -16 2 -5 18 -10 36 -10 18 0 41 -7 52 -15 10 -8 31 -15 45 -15
14 0 34 -7 45 -15 10 -8 36 -15 56 -15 20 0 43 -6 50 -13 7 -8 30 -17 51 -21
20 -4 37 -11 37 -16 0 -6 6 -10 14 -10 8 0 21 -6 28 -14 8 -7 24 -17 36 -20
12 -4 22 -12 22 -17 0 -5 11 -9 24 -9 14 0 31 -6 38 -13 7 -8 26 -17 41 -21
15 -3 27 -11 27 -16 0 -6 9 -10 19 -10 11 0 26 -6 33 -13 7 -8 26 -17 41 -21
15 -3 27 -11 27 -16 0 -6 9 -10 20 -10 11 0 23 -7 26 -15 4 -8 13 -15 21 -15
8 0 32 -13 53 -30 21 -16 42 -30 46 -30 5 0 27 -16 49 -35 22 -19 45 -39 52
-45 7 -5 17 -10 23 -10 6 0 13 -7 16 -15 4 -8 10 -15 15 -15 5 0 29 -20 53
-45 25 -25 50 -45 56 -45 12 0 73 -41 78 -52 2 -5 12 -8 23 -8 11 0 22 -7 25
-15 4 -8 17 -15 29 -15 13 0 30 -6 37 -13 7 -8 30 -17 51 -21 20 -4 37 -11 37
-15 0 -5 30 -11 67 -13 39 -2 68 -9 71 -16 2 -7 21 -12 42 -12 21 0 45 -6 52
-13 7 -8 30 -17 51 -21 20 -4 37 -11 37 -16 0 -6 10 -10 23 -10 12 0 31 -6 42
-14 11 -7 32 -16 48 -20 15 -3 27 -11 27 -16 0 -6 15 -10 34 -10 18 0 39 -7
46 -15 7 -8 25 -15 41 -15 15 0 34 -7 43 -15 8 -8 24 -15 35 -15 12 0 21 -6
21 -15 0 -8 5 -15 10 -15 6 0 10 -7 10 -15 0 -8 8 -15 18 -15 10 0 25 -8 34
-17 30 -32 45 -41 74 -45 l29 -3 3 -260 c3 -272 0 -314 -21 -297 -7 6 -107 12
-238 14 -146 2 -231 7 -240 14 -8 6 -54 14 -104 17 -49 4 -91 11 -93 17 -5 14
-539 14 -544 0 -2 -6 -41 -13 -88 -16 -47 -4 -91 -12 -99 -18 -10 -8 -175 -13
-538 -16 -458 -4 -527 -3 -539 10 -77 83 -119 121 -154 136 -22 10 -40 21 -40
25 0 3 -19 9 -42 12 -24 3 -44 11 -46 16 -5 14 -232 15 -232 1 0 -5 -9 -10
-19 -10 -11 0 -26 -7 -35 -15 -22 -22 -41 -18 -54 10 -6 14 -16 25 -22 25 -5
0 -10 7 -10 15 0 16 -8 27 -42 66 -10 10 -18 24 -18 29 0 12 -15 32 -42 58
-10 9 -18 22 -18 29 0 7 -4 13 -10 13 -5 0 -12 11 -16 24 -3 14 -12 27 -20 30
-8 3 -14 12 -14 21 0 18 -6 26 -71 93 -74 76 -122 114 -171 133 -16 6 -28 15
-28 20 0 5 -11 9 -25 9 -13 0 -28 6 -32 13 -12 18 -71 47 -98 47 -13 0 -30 6
-37 13 -7 8 -35 17 -63 20 -27 4 -51 11 -54 16 -4 4 -26 11 -50 14 -24 3 -47
10 -50 15 -3 5 -41 11 -85 14 -43 3 -81 10 -85 15 -3 6 -48 12 -99 15 -52 2
-97 9 -100 15 -4 5 -36 13 -71 17 -36 3 -67 10 -70 15 -3 5 -37 10 -75 13 -42
2 -71 9 -74 16 -2 7 -23 12 -50 12 -26 0 -60 7 -76 15 -23 12 -74 15 -260 15
-150 0 -236 -4 -243 -11 -5 -5 -61 -13 -124 -16 -63 -3 -117 -10 -120 -16 -4
-5 -28 -12 -55 -15 -27 -2 -52 -9 -55 -14 -3 -5 -32 -12 -65 -15 -32 -3 -64
-9 -70 -14 -6 -5 -37 -12 -70 -15 -32 -4 -65 -13 -72 -21 -7 -7 -25 -13 -38
-13 -14 0 -32 -7 -40 -15 -9 -8 -24 -15 -33 -15 -10 0 -24 -7 -31 -15 -7 -8
-26 -15 -42 -15 -16 0 -36 -7 -44 -15 -9 -8 -31 -15 -50 -15 -19 0 -34 -4 -34
-10 0 -5 -12 -13 -27 -16 -15 -4 -34 -13 -41 -21 -7 -7 -22 -13 -33 -13 -10 0
-19 -4 -19 -10 0 -5 -11 -12 -25 -16 -14 -3 -25 -10 -25 -15 0 -5 -7 -9 -15
-9 -8 0 -23 -9 -32 -20 -10 -11 -23 -20 -29 -20 -7 0 -14 -7 -18 -15 -3 -8
-13 -15 -23 -15 -10 -1 -29 -14 -43 -30 -13 -17 -32 -30 -42 -30 -10 0 -18 -4
-18 -10 0 -5 -12 -13 -27 -16 -28 -8 -43 -17 -71 -46 -9 -10 -24 -18 -34 -18
-10 0 -18 -4 -18 -10 0 -5 -12 -13 -28 -16 -15 -4 -29 -10 -32 -13 -11 -13
-70 -51 -79 -51 -5 0 -24 -13 -42 -29 -21 -19 -45 -31 -68 -33 -34 -3 -36 -5
-39 -40 l-3 -38 49 0 c35 0 52 4 56 15 3 8 15 15 26 15 11 0 20 4 20 10 0 5
11 12 25 16 14 3 25 10 25 15 0 5 6 9 14 9 8 0 21 6 28 13 18 18 96 57 112 57
8 0 16 7 20 15 3 8 12 15 20 15 7 0 16 7 20 15 3 8 14 15 24 15 11 0 25 7 32
15 7 8 23 15 35 15 13 0 25 7 29 15 3 8 10 15 16 15 12 0 32 15 58 43 9 9 22
17 28 17 7 0 14 7 18 15 3 8 15 15 26 15 11 0 20 4 20 10 0 5 11 12 25 16 13
3 29 12 36 20 6 8 20 14 31 14 11 0 26 7 34 15 9 8 27 15 40 15 14 0 32 7 40
15 9 8 29 15 45 15 16 0 29 4 29 10 0 5 18 13 39 16 22 4 42 13 45 20 3 8 19
14 36 14 16 0 30 4 30 10 0 5 17 12 38 15 20 4 51 13 69 21 17 8 49 14 72 14
23 0 41 4 41 9 0 5 32 12 72 16 39 4 78 14 86 21 9 10 39 14 92 14 53 0 80 4
82 12 6 18 589 19 595 1 3 -8 24 -13 57 -13 28 0 60 -6 71 -14 11 -7 54 -16
95 -19 41 -3 76 -11 78 -17 2 -5 22 -10 44 -10 22 0 54 -6 71 -14 18 -8 69
-16 115 -18 47 -2 86 -8 90 -14 4 -7 40 -13 80 -16 40 -2 76 -9 80 -14 4 -6
28 -14 55 -18 26 -4 47 -11 47 -17 0 -5 18 -9 39 -9 22 0 46 -7 55 -15 8 -8
26 -15 39 -15 14 0 30 -7 37 -15 7 -8 21 -15 32 -15 10 0 21 -6 24 -14 3 -8
16 -17 30 -20 13 -4 24 -11 24 -16 0 -6 8 -10 18 -10 10 0 25 -8 34 -17 9 -10
43 -45 77 -78 34 -32 61 -65 61 -71 0 -7 7 -14 15 -18 8 -3 15 -15 15 -26 0
-11 4 -20 9 -20 5 0 13 -10 17 -22 7 -23 19 -40 47 -66 9 -9 17 -22 17 -30 0
-14 13 -32 43 -60 9 -9 17 -22 17 -30 0 -14 13 -32 43 -60 21 -20 22 -46 3
-64 -8 -8 -16 -23 -18 -34 -3 -16 -11 -19 -51 -16 -28 2 -47 -1 -47 -7 0 -6
-5 -11 -11 -11 -15 0 -49 39 -49 55 0 7 -7 15 -15 19 -8 3 -15 12 -15 20 0 7
-7 16 -15 20 -8 3 -15 10 -15 16 0 6 -9 21 -21 33 l-20 22 20 17 c32 25 27 55
-9 63 -17 4 -30 11 -30 16 0 5 -12 9 -26 9 -31 0 -75 24 -120 65 -51 47 -59
52 -92 60 -18 3 -32 10 -32 14 0 5 -19 11 -41 14 -23 3 -45 10 -48 15 -3 5
-36 13 -73 16 -38 4 -68 12 -68 17 0 5 -13 9 -29 9 -16 0 -36 6 -43 13 -7 8
-33 16 -58 20 -24 3 -46 11 -48 16 -2 6 -24 11 -49 11 -25 0 -59 6 -76 14 -18
8 -84 18 -147 23 -130 9 -462 -3 -470 -18 -3 -5 -28 -12 -56 -15 -27 -4 -52
-11 -55 -17 -4 -5 -28 -12 -55 -15 -27 -2 -58 -11 -69 -18 -11 -8 -32 -14 -48
-14 -16 0 -35 -7 -43 -15 -9 -8 -24 -15 -34 -15 -10 0 -31 -7 -46 -15 -16 -8
-37 -15 -47 -15 -10 0 -25 -7 -33 -15 -9 -8 -29 -15 -45 -15 -17 0 -37 -7 -45
-15 -9 -8 -24 -15 -34 -15 -10 0 -20 -7 -24 -15 -3 -8 -13 -15 -21 -15 -9 0
-23 -7 -31 -15 -9 -8 -26 -15 -39 -15 -12 0 -25 -7 -29 -15 -3 -8 -15 -15 -26
-15 -12 0 -28 -7 -36 -15 -9 -8 -24 -15 -33 -15 -10 0 -24 -7 -31 -15 -7 -8
-22 -15 -34 -15 -11 0 -30 -7 -40 -15 -11 -8 -26 -15 -34 -15 -7 0 -20 -7 -28
-15 -9 -8 -26 -15 -39 -15 -12 0 -25 -7 -29 -15 -3 -8 -15 -15 -26 -15 -11 0
-20 -4 -20 -10 0 -5 -11 -12 -24 -16 -14 -3 -27 -12 -30 -20 -3 -8 -10 -14
-16 -14 -6 0 -16 -5 -23 -10 -7 -6 -30 -26 -52 -46 l-40 -34 -619 2 c-485 2
-620 6 -624 16 -3 9 -74 12 -312 12 -238 0 -309 -3 -312 -12 -4 -10 -71 -14
-281 -17 l-277 -3 0 -39 0 -39 289 0 c209 0 290 3 293 11 5 16 396 19 406 3 4
-6 50 -13 106 -16 54 -3 101 -10 105 -16 3 -6 53 -14 109 -18 56 -4 105 -11
108 -15 3 -5 201 -9 440 -9 422 0 434 -1 434 -19 0 -11 -7 -26 -15 -35 -8 -8
-15 -21 -15 -30 0 -8 -7 -22 -16 -30 -13 -14 -61 -16 -372 -16 -373 -1 -392
-3 -392 -44 0 -11 -9 -16 -33 -16 -40 0 -57 -15 -57 -51 0 -30 15 -39 63 -39
53 0 75 10 82 37 5 20 9 23 18 14 8 -8 103 -11 325 -11 172 0 312 -3 310 -7
-3 -5 -10 -23 -17 -40 -7 -18 -17 -33 -22 -33 -5 0 -9 -11 -9 -24 0 -14 -6
-31 -13 -38 -7 -7 -16 -21 -20 -30 -3 -10 -11 -18 -16 -18 -5 0 -12 -18 -16
-40 -4 -22 -11 -40 -16 -40 -5 0 -9 -15 -9 -34 0 -19 -7 -41 -15 -50 -8 -8
-15 -24 -15 -35 0 -26 -46 -95 -55 -81 -10 16 -158 12 -191 -5 -16 -8 -48 -15
-71 -15 -23 0 -43 -5 -45 -11 -2 -5 -24 -13 -48 -16 -25 -3 -54 -12 -65 -19
-11 -8 -29 -14 -41 -14 -12 0 -24 -6 -26 -12 -3 -9 -41 -14 -126 -17 -67 -1
-122 -7 -122 -11 0 -4 -11 -11 -24 -14 -49 -12 -45 -100 5 -129 33 -18 105
-23 111 -8 2 6 49 13 105 17 57 4 103 10 103 15 0 4 15 11 32 14 18 4 36 12
39 17 4 6 28 13 55 16 27 2 52 10 56 16 8 11 237 26 244 15 1 -3 4 -120 4
-260 l2 -254 -116 0 c-74 0 -119 4 -124 11 -4 6 -38 14 -75 16 -38 3 -74 11
-80 17 -6 6 -35 11 -65 11 l-53 0 3 -37 c2 -29 8 -39 23 -41 11 -2 25 -9 30
-16 6 -7 28 -16 49 -19 22 -3 42 -10 45 -15 3 -5 33 -12 65 -15 33 -3 62 -10
65 -15 3 -5 42 -12 85 -15 43 -4 85 -12 92 -18 7 -6 28 -9 46 -7 l33 3 3 -55
c2 -30 8 -57 13 -61 6 -3 13 -32 16 -65 3 -32 10 -62 16 -65 5 -4 12 -28 15
-55 2 -27 11 -53 18 -57 8 -4 14 -15 14 -23 0 -9 7 -22 15 -30 8 -9 15 -29 15
-45 0 -17 7 -37 15 -45 8 -9 15 -29 15 -45 0 -16 4 -29 9 -29 5 0 12 -13 16
-29 3 -16 13 -32 21 -35 8 -3 14 -17 14 -31 0 -14 4 -25 9 -25 5 0 12 -13 16
-30 4 -16 10 -30 15 -30 5 0 11 -13 15 -29 3 -16 13 -32 21 -35 8 -3 14 -12
14 -20 0 -8 3 -16 8 -18 10 -4 52 -65 52 -75 0 -5 10 -15 21 -23 12 -8 27 -21
35 -27 7 -7 15 -13 18 -13 2 0 27 -21 55 -47 65 -62 78 -73 88 -73 10 0 53
-45 53 -55 0 -11 127 -135 139 -135 6 0 11 -4 11 -10 0 -5 5 -10 10 -10 6 0
23 -13 39 -29 15 -16 38 -32 50 -36 11 -3 21 -11 21 -16 0 -5 7 -9 15 -9 9 0
18 -7 21 -15 4 -8 14 -15 24 -15 10 0 25 -7 34 -15 8 -8 24 -15 35 -15 11 0
26 -6 33 -14 8 -7 29 -17 46 -21 18 -3 32 -10 32 -15 0 -4 22 -10 50 -14 28
-4 50 -11 50 -16 0 -6 24 -10 53 -10 29 0 61 -6 72 -14 11 -7 58 -16 105 -20
47 -4 87 -11 88 -16 2 -6 147 -10 377 -10 311 0 377 2 401 15 16 8 46 15 67
15 20 0 37 4 37 10 0 5 17 12 37 16 21 4 44 13 51 21 7 7 27 13 43 13 17 0 37
7 45 15 9 8 26 15 39 15 12 0 25 7 29 15 3 8 15 15 26 15 12 0 28 7 36 15 9 8
27 15 40 15 14 0 32 7 40 15 9 8 24 15 35 15 11 0 27 7 35 15 9 8 24 15 33 15
10 0 24 7 31 15 7 8 23 15 36 15 13 0 24 5 24 10 0 6 6 10 13 10 8 0 24 9 37
20 13 11 27 20 32 20 5 0 14 5 21 10 49 42 62 50 77 50 10 0 20 7 24 15 3 8
10 15 15 15 6 0 39 28 75 62 35 35 78 74 95 88 110 87 237 211 246 240 3 11
10 20 14 20 4 0 18 9 31 20 13 11 34 20 47 20 14 0 31 7 39 15 9 8 24 15 35
15 11 0 27 7 36 15 14 15 51 12 63 -5 3 -4 45 -10 94 -13 49 -3 94 -11 100
-17 5 -5 28 -10 49 -10 38 0 39 -1 32 -28 -3 -15 -11 -29 -16 -30 -5 -2 -9
-18 -9 -36 0 -17 -6 -40 -14 -51 -7 -11 -16 -41 -20 -67 -4 -27 -11 -48 -15
-48 -5 0 -11 -18 -15 -40 -3 -22 -10 -40 -15 -40 -5 0 -11 -23 -13 -51 -3 -28
-10 -54 -15 -58 -6 -3 -13 -33 -16 -66 -3 -33 -11 -61 -17 -63 -5 -2 -10 -22
-10 -45 0 -23 -6 -54 -14 -69 -8 -14 -17 -45 -21 -67 -4 -23 -11 -41 -16 -41
-5 0 -9 -18 -9 -39 0 -22 -7 -46 -15 -55 -8 -8 -15 -27 -15 -41 0 -15 -6 -41
-14 -58 -8 -18 -17 -50 -20 -72 -3 -22 -10 -41 -16 -43 -5 -2 -10 -16 -10 -32
0 -16 -7 -35 -15 -44 -8 -8 -15 -24 -15 -35 0 -11 -7 -26 -15 -35 -8 -8 -15
-26 -15 -40 0 -13 -7 -31 -15 -40 -8 -8 -15 -24 -15 -35 0 -11 -6 -26 -13 -33
-8 -7 -17 -26 -21 -42 -4 -16 -43 -64 -91 -113 -47 -46 -85 -88 -85 -92 0 -3
-8 -14 -17 -22 -10 -9 -25 -26 -33 -39 -8 -12 -19 -28 -25 -34 -15 -18 -34
-49 -45 -74 -5 -12 -14 -22 -20 -22 -5 0 -10 -4 -10 -10 0 -5 -8 -18 -17 -28
-39 -40 -73 -82 -73 -89 0 -8 -26 -38 -125 -146 -33 -35 -71 -80 -85 -98 -14
-19 -41 -51 -60 -71 -19 -20 -41 -44 -47 -52 -15 -18 -17 -56 -4 -56 5 0 12
-8 15 -17 7 -23 69 -59 74 -44 2 6 12 11 22 11 22 0 90 66 127 122 14 21 30
38 34 38 5 0 9 4 9 9 0 6 36 47 80 92 44 46 80 87 80 92 0 4 6 14 13 21 6 7
26 30 42 51 17 20 35 42 41 49 5 6 13 19 17 28 3 10 11 18 16 18 5 0 12 11 15
25 4 14 11 25 16 25 6 0 10 5 10 11 0 12 69 101 82 107 5 2 8 8 8 14 0 6 33
44 74 84 41 40 77 82 81 93 3 12 11 21 16 21 5 0 9 9 9 19 0 11 6 26 14 33 7
8 17 29 21 46 3 18 10 32 14 32 5 0 11 19 14 42 3 24 11 44 16 46 6 2 11 14
11 26 0 12 6 30 14 41 7 11 17 35 21 52 3 18 10 33 15 33 4 0 10 22 14 50 4
27 11 50 16 50 6 0 10 18 10 39 0 22 6 46 13 53 8 7 16 33 20 58 3 24 11 46
16 48 6 2 11 19 11 39 0 19 6 47 14 61 8 15 18 48 21 75 3 26 10 47 14 47 5 0
11 30 13 66 2 36 9 68 15 72 5 4 13 29 15 56 3 27 10 51 15 55 6 3 13 24 16
46 4 22 11 41 17 43 5 2 10 18 10 35 0 18 6 44 14 59 8 14 17 45 21 67 4 23
11 41 16 41 5 0 9 19 9 41 l0 42 92 -7 c50 -3 94 -10 97 -15 3 -4 44 -11 90
-14 50 -4 88 -12 92 -19 12 -19 546 -18 558 1 6 9 44 14 137 18 71 3 135 10
142 16 10 8 16 7 20 0 5 -8 65 -13 171 -15 120 -2 165 -6 169 -15 2 -8 20 -13
42 -13 21 0 45 -6 52 -13 7 -8 36 -16 63 -19 27 -4 51 -11 53 -17 5 -16 53
-13 72 4 13 12 28 13 86 4 38 -6 120 -14 181 -18 62 -5 118 -13 125 -18 7 -6
44 -13 83 -16 38 -4 71 -11 73 -17 2 -5 9 -10 16 -10 6 0 23 -13 36 -30 14
-16 29 -29 33 -30 4 0 21 -14 37 -30 16 -17 38 -30 48 -30 10 0 27 -7 38 -15
10 -8 37 -15 59 -15 55 0 64 -9 72 -65 3 -27 12 -60 20 -75 7 -14 13 -37 13
-52 0 -16 5 -28 10 -28 6 0 10 -7 10 -15 0 -21 -24 -19 -45 5 -10 11 -26 20
-37 20 -10 0 -18 5 -18 10 0 6 -25 10 -55 10 -30 0 -55 -4 -55 -10 0 -5 -18
-13 -40 -16 -22 -4 -40 -10 -40 -14 0 -5 -14 -12 -32 -15 -17 -4 -38 -14 -46
-21 -7 -8 -24 -14 -38 -14 -13 0 -24 -4 -24 -9 0 -5 -10 -13 -22 -17 -12 -3
-28 -13 -36 -20 -7 -8 -19 -14 -27 -14 -7 0 -15 -7 -19 -15 -3 -8 -10 -15 -16
-15 -14 0 -70 -55 -70 -68 0 -5 -9 -19 -20 -32 -11 -13 -20 -29 -20 -37 0 -7
-4 -13 -10 -13 -6 0 -10 -47 -10 -120 0 -72 4 -120 10 -120 5 0 12 -11 16 -24
4 -17 15 -27 35 -31 16 -4 31 -11 34 -16 8 -12 142 -12 150 1 3 5 28 12 55 16
28 4 50 10 50 15 0 5 18 12 40 15 22 4 40 10 40 15 0 4 15 11 34 15 19 3 37
12 40 20 3 8 10 14 16 14 14 0 29 13 103 86 l62 62 18 -24 c9 -12 17 -30 17
-38 0 -9 4 -16 9 -16 5 0 12 -19 16 -42 4 -23 14 -48 21 -56 8 -7 14 -33 14
-57 0 -24 5 -45 11 -47 5 -2 13 -24 16 -48 4 -25 12 -51 20 -58 7 -7 13 -20
13 -28 0 -24 89 -104 115 -104 13 0 32 -3 42 -6 12 -4 14 -3 6 3 -7 5 -15 40
-19 78 -4 39 -11 75 -15 81 -5 6 -12 40 -15 75 -4 35 -10 69 -14 74 -5 6 -11
31 -15 58 -4 26 -11 47 -15 47 -4 0 -11 17 -15 37 -4 21 -10 40 -13 43 -4 3
-16 23 -27 44 -11 22 -25 44 -30 50 -12 12 -55 93 -55 103 0 3 9 -2 20 -12 11
-10 20 -22 20 -27 0 -5 6 -16 13 -23 29 -33 36 -45 61 -96 27 -54 32 -63 57
-109 7 -14 17 -50 21 -80 12 -92 31 -180 39 -180 4 0 10 -27 14 -60 4 -33 11
-60 15 -60 5 0 11 -14 15 -30 4 -17 10 -30 15 -30 5 0 11 -13 15 -30 4 -16 11
-30 16 -30 5 0 13 -8 16 -17 8 -21 21 -37 46 -61 9 -9 17 -20 17 -25 0 -5 6
-14 13 -21 6 -8 19 -24 27 -36 8 -13 23 -30 33 -39 9 -8 17 -21 17 -27 0 -7 7
-14 15 -18 8 -3 15 -12 15 -21 0 -8 4 -15 9 -15 5 0 13 -10 17 -22 3 -13 19
-42 35 -66 16 -24 29 -46 29 -50 0 -4 61 -67 135 -141 74 -74 135 -138 135
-143 0 -12 39 -48 62 -57 29 -10 78 -1 78 15 0 17 0 17 37 -1 26 -13 183 -158
183 -170 0 -5 130 -135 136 -135 5 0 44 -39 44 -45 0 -9 68 -72 84 -78 9 -4
16 -11 16 -17 0 -5 11 -10 25 -10 14 0 28 -7 31 -15 4 -8 17 -15 29 -15 13 0
30 -7 39 -15 8 -8 27 -15 43 -15 15 0 41 -7 57 -15 15 -8 41 -15 56 -15 16 0
35 -6 42 -13 7 -8 47 -16 87 -20 41 -3 77 -10 80 -15 3 -5 34 -12 69 -15 34
-3 68 -9 75 -15 7 -5 50 -12 96 -15 46 -3 87 -10 90 -15 3 -6 78 -11 169 -13
103 -3 165 -8 170 -15 4 -7 69 -14 167 -18 87 -3 162 -10 165 -15 3 -4 52 -11
109 -14 57 -4 109 -11 115 -17 15 -15 493 -14 498 1 2 7 36 14 81 17 42 2 77
8 77 13 0 4 21 11 48 14 26 3 55 10 65 16 9 5 39 12 65 16 26 3 53 12 60 20 7
7 26 13 42 13 16 0 30 5 32 10 2 6 21 13 43 17 22 3 43 10 46 15 3 5 26 12 50
15 24 4 50 12 57 20 7 7 22 13 33 13 11 0 27 7 35 15 9 8 27 15 40 15 14 0 32
7 40 15 9 8 27 15 42 15 15 0 36 7 46 15 11 8 35 15 53 15 18 0 33 4 33 10 0
5 18 13 40 16 22 4 40 11 40 16 0 5 8 12 18 15 20 8 36 21 60 46 9 9 22 17 28
17 7 0 14 7 18 15 3 8 17 15 31 15 14 0 25 4 25 9 0 5 12 12 26 15 15 4 33 14
41 21 8 8 23 15 34 15 10 0 19 4 19 9 0 5 14 12 30 16 17 4 30 10 30 15 0 5
14 11 30 15 17 4 30 10 30 15 0 5 13 11 29 15 16 3 32 13 35 21 3 8 14 14 25
14 10 0 21 7 25 15 3 8 15 15 26 15 11 0 20 4 20 10 0 5 11 12 24 16 14 3 27
12 30 20 3 8 14 14 25 14 10 0 21 7 25 15 3 8 12 15 20 15 7 0 16 7 20 15 3 8
12 15 20 15 8 0 16 3 18 8 4 10 93 82 102 82 8 0 25 13 69 55 18 17 52 46 77
65 25 19 64 54 88 77 24 24 51 43 61 43 16 0 17 -9 14 -82 -2 -46 -8 -102 -13
-125 -14 -59 -13 -246 1 -260 7 -7 14 -56 17 -110 2 -54 8 -102 12 -108 5 -5
11 -37 15 -70 5 -32 14 -65 21 -73 8 -7 14 -24 14 -37 0 -12 7 -25 15 -29 8
-3 15 -15 15 -26 0 -11 4 -20 9 -20 5 0 12 -8 15 -18 9 -26 130 -149 155 -157
12 -3 21 -11 21 -16 0 -5 9 -9 20 -9 11 0 23 -7 26 -15 4 -8 17 -15 30 -15 14
0 27 -6 30 -14 3 -7 23 -16 44 -20 21 -3 40 -11 42 -18 3 -8 66 -11 219 -12
189 -1 217 1 239 17 13 9 35 17 48 17 13 0 30 7 38 15 9 8 24 15 35 15 11 0
27 7 35 15 9 8 24 15 35 15 10 0 19 4 19 9 0 5 10 13 23 17 12 4 24 9 27 13 3
3 28 21 55 40 55 38 85 66 85 79 0 4 13 19 30 32 16 14 29 30 30 36 0 6 7 17
15 24 8 7 15 21 15 31 0 9 7 24 15 33 8 8 15 26 15 40 0 13 6 31 13 38 8 7 17
40 21 72 3 33 10 64 15 70 5 6 11 42 13 79 2 38 9 71 14 75 6 4 14 32 17 62 4
30 11 56 17 58 13 5 14 189 1 197 -5 3 -12 18 -16 34 -3 16 -13 32 -21 35 -8
3 -14 10 -14 16 0 14 -12 29 -97 116 -54 55 -88 80 -140 104 -37 16 -81 37
-96 45 -16 8 -35 15 -43 15 -9 0 -13 4 -9 9 3 6 30 -1 63 -15 90 -40 96 -42
120 -49 12 -4 22 -11 22 -16 0 -5 6 -9 13 -9 32 0 207 -176 207 -209 0 -6 4
-11 10 -11 5 0 13 -12 16 -27 4 -16 13 -37 20 -48 8 -11 14 -29 14 -40 0 -11
7 -29 15 -39 9 -12 15 -41 15 -71 0 -28 6 -57 13 -64 16 -16 18 -768 1 -779
-6 -4 -14 -36 -17 -71 -3 -35 -10 -67 -15 -70 -5 -3 -11 -33 -14 -65 -3 -33
-10 -62 -16 -64 -8 -2 -12 -33 -12 -87 0 -75 2 -86 21 -95 12 -7 37 -9 58 -5
45 7 57 27 64 99 3 27 9 51 14 55 6 3 13 33 16 65 3 33 10 62 15 65 5 3 12 35
15 71 3 35 10 66 16 68 7 2 11 32 11 73 0 69 0 69 28 69 51 1 62 19 62 107 0
47 -5 84 -12 91 -6 6 -13 57 -16 119 -3 60 -9 111 -15 115 -6 4 -13 51 -15
105 -2 54 -8 103 -13 109 -5 6 -12 33 -16 60 -3 27 -11 52 -16 56 -6 3 -13 35
-15 70 -2 35 -8 68 -13 74 -5 7 -12 41 -16 78 -3 36 -10 66 -14 66 -4 0 -11
16 -15 35 -3 19 -12 39 -20 46 -8 6 -14 22 -14 34 0 12 -7 28 -15 35 -8 7 -15
21 -15 31 0 11 -4 19 -9 19 -5 0 -13 10 -17 22 -3 12 -13 28 -20 36 -8 7 -14
19 -14 27 0 7 -7 15 -15 19 -8 3 -15 14 -15 25 0 10 -7 21 -15 25 -8 3 -15 12
-15 21 0 8 -4 15 -10 15 -5 0 -12 11 -16 24 -3 14 -12 27 -20 30 -8 3 -14 12
-14 20 0 7 -7 16 -15 20 -8 3 -15 10 -15 16 0 14 -55 70 -67 70 -5 0 -20 13
-33 30 -14 16 -31 29 -38 30 -7 0 -15 7 -18 15 -4 8 -15 15 -25 15 -11 0 -22
6 -25 14 -3 8 -18 18 -32 21 -38 8 -53 22 -96 88 -21 31 -42 57 -47 57 -5 0
-9 9 -9 20 0 11 -7 20 -15 20 -8 0 -15 7 -15 15 0 10 10 15 30 15 28 0 30 2
30 40 0 25 -5 40 -12 40 -7 0 -26 7 -43 16 -16 8 -48 15 -70 14 -57 -2 -62 -1
-44 13 9 7 19 24 23 40 3 15 11 27 16 27 6 0 10 11 10 24 0 14 6 31 14 38 7 8
17 29 21 46 3 18 11 32 16 32 5 0 9 14 9 30 l0 30 128 0 c86 0 132 4 140 12 9
9 12 9 12 0 0 -7 11 -12 24 -12 14 0 31 -6 38 -14 8 -7 29 -17 46 -21 18 -3
32 -11 32 -16 0 -5 13 -9 28 -9 16 0 37 -7 48 -15 10 -8 33 -15 51 -15 17 0
38 -7 47 -15 8 -9 33 -15 60 -15 36 0 50 -6 74 -30 17 -16 35 -30 40 -30 5 0
15 -7 22 -15 8 -10 31 -15 71 -15 47 0 60 4 69 19 18 35 9 121 -14 121 -6 0
-19 9 -29 20 -9 11 -24 20 -32 20 -8 0 -15 4 -15 9 0 5 -11 12 -25 15 -14 4
-25 10 -25 15 0 5 -18 12 -40 16 -22 4 -40 10 -40 14 0 5 -26 11 -58 14 -66 7
-92 15 -92 28 0 5 49 9 108 9 71 0 112 4 120 12 8 8 65 14 169 16 115 3 161 8
171 18 7 8 19 14 27 14 17 0 29 52 20 82 -17 53 -33 58 -188 58 -90 0 -147 -4
-154 -11 -6 -6 -66 -13 -134 -16 -68 -3 -129 -10 -136 -15 -6 -5 -47 -12 -90
-15 -43 -3 -84 -10 -90 -15 -7 -6 -41 -13 -76 -15 -50 -4 -67 -2 -79 11 -9 9
-22 16 -28 16 -7 0 -27 7 -46 16 -36 17 -45 41 -19 50 8 4 15 13 15 20 0 8 7
17 15 20 8 4 15 15 15 25 0 11 7 22 15 25 8 4 15 17 15 29 0 13 6 30 13 37 8
7 17 30 21 51 4 20 11 37 16 37 6 0 10 13 10 28 0 16 7 37 15 48 8 10 15 30
15 44 0 14 6 34 14 45 7 11 16 44 20 73 4 30 11 61 16 70 5 10 12 70 16 134 3
65 9 118 14 118 4 0 10 35 14 77 3 44 11 80 19 85 17 10 15 1097 -2 1107 -6 4
-14 25 -18 47 -3 21 -11 42 -16 46 -6 3 -13 35 -15 70 -3 35 -8 65 -12 68 -4
3 -9 65 -12 138 -4 106 -2 135 9 139 7 3 13 9 13 14 0 5 8 18 18 28 34 38 42
50 42 65 0 8 7 22 16 30 12 13 15 37 12 131 -2 72 1 115 7 116 6 0 34 0 63 -1
106 -3 131 15 117 86 l-6 34 -104 0 -105 0 0 39 c0 25 -5 41 -15 45 -8 3 -15
13 -15 21 0 18 -52 75 -69 75 -5 0 -14 6 -18 13 -10 15 -39 34 -75 48 -16 6
-28 14 -28 18 0 12 -85 51 -109 51 -32 0 -52 25 -59 73 -3 23 -11 48 -19 55
-7 7 -13 22 -13 31 0 10 -7 24 -15 31 -8 7 -15 21 -15 31 0 11 -4 19 -10 19
-5 0 -12 11 -16 25 -3 14 -10 25 -15 25 -5 0 -9 7 -9 15 0 8 -9 23 -20 32 -11
10 -20 23 -20 29 0 7 -7 14 -15 18 -8 3 -15 10 -15 16 0 9 -30 48 -72 92 -10
10 -18 22 -18 27 0 5 -7 11 -15 15 -8 3 -15 13 -15 21 0 9 -7 23 -15 31 -8 9
-15 24 -15 34 0 10 -7 20 -15 24 -8 3 -15 12 -15 21 0 8 -4 15 -10 15 -5 0
-10 6 -10 14 0 20 -235 256 -255 256 -9 0 -19 8 -22 18 -9 22 -23 36 -45 45
-10 3 -18 11 -18 17 0 14 -13 30 -88 106 -35 35 -67 64 -72 64 -4 0 -27 18
-50 40 -23 22 -43 40 -45 40 -1 0 -46 43 -100 95 -94 92 -97 96 -87 125 7 19
7 41 1 62 -5 18 -9 52 -9 76 0 25 -6 50 -15 58 -8 9 -15 26 -15 40 0 13 -4 24
-10 24 -5 0 -10 6 -10 14 0 8 -15 30 -32 48 -18 19 -41 49 -52 68 -24 42 -88
106 -115 115 -12 3 -21 10 -21 15 0 5 -13 11 -30 15 -16 4 -30 11 -30 16 0 5
-55 9 -124 9 -98 0 -126 -3 -136 -15 -7 -8 -20 -15 -30 -15 -10 0 -23 -7 -30
-15 -7 -8 -20 -15 -30 -15 -10 0 -20 -7 -24 -15 -3 -8 -15 -15 -26 -15 -11 0
-20 -4 -20 -9 0 -5 -8 -12 -18 -15 -10 -4 -33 -20 -50 -37 -29 -28 -35 -30
-74 -24 -24 4 -46 13 -50 19 -11 17 -1306 15 -1317 -2 -5 -8 -38 -15 -87 -19
-43 -2 -93 -11 -111 -19 -40 -18 -117 -18 -135 0 -8 7 -24 17 -36 20 -12 4
-22 12 -22 17 0 5 -11 9 -24 9 -14 0 -31 7 -40 15 -8 8 -28 15 -45 15 -16 0
-36 6 -43 13 -7 8 -26 17 -41 21 -15 3 -27 11 -27 16 0 6 -15 10 -34 10 -19 0
-41 6 -49 14 -8 8 -31 18 -51 21 -20 4 -36 11 -36 16 0 5 -11 9 -24 9 -14 0
-31 7 -40 15 -10 11 -37 15 -93 15 -86 0 -126 7 -117 21 3 5 -170 9 -408 8
-227 0 -404 -4 -393 -8z m973 -178 c2 -7 16 -13 32 -13 16 0 35 -7 44 -15 8
-8 21 -15 28 -15 7 0 25 -6 39 -14 14 -7 42 -16 62 -20 21 -4 37 -11 37 -15 0
-5 16 -12 35 -15 19 -4 35 -11 35 -16 0 -6 17 -11 38 -11 25 -1 29 -3 12 -6
-14 -2 -35 -9 -48 -15 -17 -9 -25 -9 -30 -1 -4 6 -26 14 -49 18 -24 4 -43 11
-43 16 0 12 -513 12 -526 -1 -5 -5 -43 -12 -84 -16 -41 -4 -78 -11 -81 -16 -3
-5 -23 -11 -45 -14 -21 -3 -53 -12 -71 -20 -17 -8 -45 -14 -61 -14 -17 0 -32
-5 -34 -11 -2 -5 -24 -13 -48 -16 -25 -3 -48 -10 -51 -15 -3 -5 -26 -12 -50
-15 -24 -4 -50 -12 -57 -20 -7 -7 -26 -13 -42 -13 -16 0 -30 -5 -32 -11 -2 -6
-25 -13 -51 -16 -26 -3 -47 -9 -47 -14 0 -4 -17 -11 -37 -14 -21 -3 -50 -13
-65 -21 -14 -8 -36 -14 -48 -14 -12 0 -28 -7 -36 -15 -9 -8 -24 -15 -35 -15
-11 0 -27 -7 -35 -15 -9 -8 -24 -15 -33 -15 -10 0 -24 -7 -31 -15 -7 -8 -21
-15 -31 -15 -11 0 -19 -4 -19 -9 0 -5 -10 -13 -22 -17 -12 -3 -28 -13 -36 -20
-7 -8 -19 -14 -27 -14 -7 0 -15 -7 -19 -15 -3 -8 -14 -15 -25 -15 -10 0 -21
-7 -25 -15 -3 -8 -12 -15 -21 -15 -16 0 -27 -8 -66 -42 -10 -10 -23 -18 -29
-18 -5 0 -10 -5 -10 -10 0 -6 -8 -14 -17 -17 -38 -15 -217 -189 -228 -221 -3
-12 -11 -22 -16 -22 -5 0 -9 -11 -9 -25 0 -14 -6 -28 -14 -31 -7 -3 -16 -23
-20 -45 -3 -21 -10 -39 -15 -39 -5 0 -12 -16 -15 -35 -4 -19 -11 -35 -15 -35
-5 0 -11 -23 -13 -51 -3 -28 -10 -54 -15 -58 -6 -3 -13 -35 -17 -70 -3 -36
-10 -67 -15 -70 -4 -3 -11 -37 -13 -74 -3 -38 -11 -74 -17 -80 -6 -6 -11 -29
-11 -51 0 -23 -7 -54 -15 -70 -8 -15 -15 -37 -15 -47 0 -11 -6 -22 -14 -25 -8
-3 -17 -16 -20 -30 -4 -13 -11 -24 -16 -24 -6 0 -10 -9 -10 -20 0 -10 -6 -23
-14 -27 -7 -4 -22 -24 -33 -43 -40 -72 -58 -100 -65 -100 -5 0 -8 -7 -8 -15 0
-9 -6 -18 -14 -21 -8 -3 -24 -28 -37 -55 -13 -27 -27 -49 -31 -49 -5 0 -8 -9
-8 -19 0 -11 -6 -26 -13 -33 -8 -7 -17 -26 -21 -41 -6 -25 -26 -39 -26 -17 0
6 -8 10 -19 10 -10 0 -24 7 -31 15 -7 8 -21 15 -32 15 -10 0 -21 7 -24 15 -4
8 -16 15 -28 15 -12 0 -31 7 -42 15 -10 8 -29 15 -41 15 -12 0 -28 7 -37 15
-8 8 -24 15 -35 15 -18 0 -21 6 -21 40 0 33 -4 42 -25 52 -14 6 -25 15 -25 20
0 4 -9 8 -19 8 -11 0 -26 7 -35 15 -8 8 -26 15 -40 15 -13 0 -31 7 -40 15 -8
8 -24 15 -35 15 -36 0 -51 27 -51 90 0 39 5 64 15 74 8 8 15 24 15 36 0 11 7
23 15 26 8 4 15 17 15 30 0 14 7 27 15 30 8 4 15 15 15 25 0 11 7 22 15 25 8
4 15 12 15 19 0 7 7 18 15 25 8 7 15 21 15 31 0 9 7 24 15 33 8 8 15 22 15 31
0 8 7 18 15 21 8 4 15 17 15 29 0 13 7 30 15 39 8 8 15 27 15 43 0 15 7 41 15
57 8 15 15 43 15 61 0 19 7 40 15 49 8 8 15 21 15 29 0 8 7 20 15 27 8 7 15
17 15 22 0 11 42 72 53 76 4 2 7 9 7 16 0 6 8 19 18 28 9 8 44 45 77 82 51 56
170 179 226 231 9 8 21 15 28 15 7 0 19 7 27 15 9 8 24 15 33 15 10 0 24 7 31
15 7 8 20 15 29 15 9 0 25 7 35 15 11 8 31 15 44 15 13 0 30 7 38 15 9 8 24
15 33 15 10 0 24 7 31 15 7 8 23 15 35 15 13 0 25 7 29 15 3 8 12 15 20 15 7
0 16 7 20 15 3 8 10 15 16 15 12 0 32 15 58 43 9 9 21 17 27 17 5 1 21 14 35
30 13 17 32 30 41 30 9 0 19 7 23 15 3 8 12 15 21 15 8 0 15 5 15 10 0 6 6 10
13 10 8 0 24 9 37 20 13 11 34 20 47 20 12 0 23 4 23 10 0 5 17 12 37 16 21 4
44 13 51 21 7 7 26 13 41 13 16 0 34 7 41 15 7 8 23 15 35 15 13 0 25 7 29 15
3 8 15 15 26 15 12 0 28 7 36 15 9 8 33 15 55 15 23 0 47 7 55 15 9 8 29 15
45 15 17 0 37 7 46 15 13 14 84 15 571 13 433 -2 556 -6 560 -15z m2803 -26
c41 -22 137 -128 138 -153 1 -7 8 -14 16 -18 8 -3 15 -13 15 -21 0 -9 7 -23
15 -31 9 -9 15 -34 15 -60 0 -60 -10 -59 -87 6 -8 7 -13 38 -13 85 0 43 -4 75
-10 75 -5 0 -10 5 -10 11 0 16 -61 78 -92 95 -18 9 -61 14 -125 15 -64 0 -91
3 -78 9 11 5 54 9 96 9 61 1 84 -4 120 -22z m-639 -154 c6 -7 22 -13 35 -13
27 0 32 -30 8 -54 -12 -12 -15 -44 -15 -161 0 -117 3 -149 15 -161 8 -9 15
-24 15 -35 0 -10 4 -19 10 -19 5 0 12 -15 16 -34 3 -19 12 -37 20 -40 8 -3 14
-13 14 -21 0 -17 82 -105 98 -105 5 0 19 -9 32 -20 13 -11 29 -20 37 -20 7 0
13 -4 13 -9 0 -5 18 -11 40 -15 22 -3 40 -11 40 -16 0 -6 44 -10 109 -10 109
0 147 10 189 48 7 6 22 12 33 12 10 0 19 4 19 9 0 5 10 13 22 17 43 13 150
122 169 172 5 13 13 22 19 20 5 -2 52 -45 104 -95 52 -51 100 -93 106 -93 6 0
13 -7 16 -15 4 -8 10 -15 16 -15 10 0 108 -95 108 -105 0 -4 20 -26 45 -51 25
-24 45 -46 45 -49 0 -11 28 -35 40 -35 6 0 13 -7 16 -15 4 -8 11 -15 17 -15
13 0 197 -189 197 -202 0 -5 7 -16 15 -24 8 -9 15 -24 15 -35 0 -10 4 -19 10
-19 5 0 12 -11 16 -25 3 -14 10 -25 15 -25 5 0 9 -6 9 -14 0 -12 10 -25 76
-98 13 -14 24 -29 24 -33 0 -7 18 -30 43 -53 9 -9 17 -22 17 -29 0 -7 4 -13 9
-13 5 0 12 -13 16 -29 3 -16 13 -32 21 -35 8 -3 14 -13 14 -21 0 -9 7 -23 15
-31 8 -9 15 -28 15 -44 0 -16 4 -30 10 -32 5 -1 11 -14 12 -28 3 -24 1 -25
-59 -28 -35 -2 -63 -7 -63 -12 0 -5 -26 -12 -57 -16 -32 -4 -61 -11 -64 -17
-4 -5 -30 -12 -58 -15 -28 -2 -51 -8 -51 -12 0 -5 -14 -12 -32 -15 -17 -4 -38
-14 -46 -21 -7 -8 -20 -14 -28 -14 -8 0 -14 -4 -14 -10 0 -5 -6 -10 -14 -10
-8 0 -42 -27 -75 -59 l-60 -59 -3 -81 -3 -82 -514 1 c-334 0 -518 -3 -526 -10
-7 -5 -47 -13 -91 -17 -43 -3 -89 -12 -104 -20 -14 -7 -46 -13 -72 -13 -25 0
-48 -4 -50 -10 -1 -5 -30 -12 -63 -16 -33 -4 -63 -11 -66 -16 -4 -6 -22 -10
-40 -11 -31 -2 -34 1 -37 27 -2 16 -10 35 -18 43 -8 8 -14 21 -14 29 0 9 -7
22 -15 30 -8 9 -15 28 -15 44 0 16 -5 30 -11 32 -6 2 -13 26 -16 53 -3 28 -10
53 -15 56 -5 3 -12 32 -15 65 -3 32 -10 62 -16 65 -5 4 -12 37 -14 75 -3 38
-10 72 -16 75 -5 4 -12 39 -15 78 -2 39 -8 71 -13 71 -4 0 -11 14 -14 32 -4
17 -14 38 -21 46 -8 7 -14 20 -14 28 0 9 -7 22 -15 30 -8 9 -15 24 -15 35 0
11 -7 27 -15 35 -8 9 -15 26 -15 40 0 13 -4 24 -9 24 -5 0 -13 14 -16 32 -4
17 -14 38 -21 46 -8 7 -14 27 -14 43 0 17 -7 37 -15 45 -8 9 -15 24 -15 33 0
10 -7 24 -15 31 -8 7 -15 19 -15 27 0 8 -7 21 -15 29 -8 9 -15 24 -15 35 0 10
-4 19 -10 19 -5 0 -12 11 -16 25 -3 14 -10 25 -15 25 -5 0 -9 7 -9 15 0 8 -9
23 -20 32 -11 10 -20 28 -20 40 0 13 -4 23 -10 23 -5 0 -13 12 -16 26 -4 14
-17 37 -31 52 -24 26 -48 64 -59 95 -3 9 -10 17 -15 17 -5 0 -9 5 -9 12 0 11
-14 29 -52 66 -10 9 -18 20 -18 24 0 4 -19 27 -42 52 -24 25 -63 68 -88 97
-46 54 -86 95 -136 140 -16 14 -43 41 -61 60 -48 52 -69 69 -81 69 -7 0 -12 3
-12 8 0 4 -10 12 -22 17 -12 6 -23 16 -26 23 -3 9 17 12 77 12 45 0 81 4 81 9
0 5 10 12 23 14 12 3 291 4 619 3 463 -1 600 -4 610 -13z m-2162 -62 c0 -10
-34 -21 -66 -21 -12 0 -35 -7 -50 -15 -16 -8 -41 -15 -56 -15 -16 0 -28 -4
-28 -9 0 -6 -20 -13 -45 -17 -25 -3 -45 -10 -45 -14 0 -5 -19 -11 -42 -15 -23
-4 -48 -14 -56 -21 -7 -8 -22 -14 -33 -14 -11 0 -27 -7 -35 -15 -9 -8 -24 -15
-35 -15 -10 0 -19 -4 -19 -9 0 -5 -14 -13 -32 -16 -17 -4 -38 -14 -46 -21 -7
-8 -24 -14 -36 -14 -13 0 -29 -7 -36 -15 -7 -8 -23 -15 -35 -15 -13 0 -25 -7
-29 -15 -3 -8 -13 -15 -21 -15 -9 0 -23 -7 -31 -15 -9 -8 -24 -15 -35 -15 -10
0 -19 -4 -19 -10 0 -5 -12 -13 -27 -16 -15 -4 -34 -13 -41 -21 -7 -7 -25 -13
-38 -13 -14 0 -32 -7 -40 -15 -9 -8 -24 -15 -33 -15 -10 0 -24 -7 -31 -15 -7
-8 -17 -15 -22 -15 -5 0 -16 -7 -24 -15 -9 -8 -24 -15 -33 -15 -10 0 -24 7
-31 15 -20 24 -35 18 -78 -27 -9 -10 -20 -18 -25 -18 -5 0 -15 -6 -22 -12 -8
-7 -37 -33 -66 -58 -28 -25 -59 -53 -68 -62 -8 -10 -19 -18 -24 -18 -5 0 -14
-6 -22 -12 -7 -7 -30 -26 -50 -43 -20 -16 -47 -39 -60 -50 -12 -11 -37 -31
-55 -45 -63 -48 -240 -214 -240 -224 0 -3 -15 -21 -32 -41 -47 -50 -58 -63
-58 -72 -1 -4 -18 -26 -40 -47 l-39 -39 6 59 c3 32 11 73 18 89 7 17 15 52 18
80 3 27 10 51 16 53 6 2 11 16 11 32 0 16 7 35 15 44 8 8 15 26 15 40 0 13 7
31 15 40 8 8 15 23 15 34 0 11 7 25 15 32 8 7 15 19 15 27 0 7 7 16 15 19 8 4
15 12 15 20 0 8 4 14 8 14 5 0 22 13 38 30 16 16 32 30 37 30 7 0 50 35 89 73
10 9 24 17 32 17 8 0 16 3 18 8 5 11 66 52 78 52 5 0 10 4 10 9 0 5 10 13 22
17 12 3 28 13 36 20 7 8 19 14 27 14 7 0 15 7 19 15 3 8 17 15 31 15 14 0 25
4 25 10 0 5 12 13 27 16 15 4 34 13 41 21 7 7 26 13 42 13 16 0 30 5 32 10 2
6 21 13 43 17 22 3 46 12 53 20 7 7 31 13 52 13 21 0 40 4 42 10 2 5 25 13 53
17 27 3 56 12 63 20 7 7 22 13 32 13 10 0 31 7 46 15 16 8 43 15 59 15 17 0
39 7 49 15 11 8 32 15 47 15 15 0 40 7 55 15 16 8 48 15 71 15 23 0 43 5 45
11 2 6 26 13 53 16 28 3 56 11 64 17 8 6 67 12 140 14 69 2 130 8 136 13 12
12 125 12 125 0z m584 -26 c8 -8 20 -15 26 -15 6 0 13 -7 16 -15 4 -8 13 -15
20 -15 8 0 17 -7 20 -15 4 -8 15 -15 25 -15 11 0 22 -7 25 -15 4 -8 10 -15 15
-15 4 0 59 -51 121 -114 107 -108 154 -159 223 -242 17 -20 38 -45 48 -55 9
-10 17 -23 17 -28 0 -5 7 -11 15 -15 8 -3 15 -12 15 -21 0 -8 4 -15 10 -15 5
0 12 -11 16 -24 3 -14 12 -27 20 -30 8 -3 14 -14 14 -25 0 -10 7 -21 15 -25 8
-3 15 -15 15 -26 0 -11 4 -20 10 -20 5 0 13 -12 16 -27 4 -16 10 -30 13 -33
13 -11 51 -70 51 -78 0 -5 7 -15 15 -22 8 -7 15 -21 15 -30 0 -10 4 -20 9 -22
11 -4 81 -151 81 -170 0 -9 7 -29 15 -44 8 -16 15 -36 15 -45 0 -9 7 -22 15
-29 8 -7 15 -23 15 -37 0 -13 7 -31 15 -39 8 -9 15 -26 15 -38 0 -13 7 -29 15
-36 8 -7 15 -19 15 -27 0 -8 7 -21 15 -29 8 -9 15 -28 15 -44 0 -16 5 -30 11
-32 6 -2 14 -37 16 -78 3 -41 9 -80 14 -85 4 -6 11 -42 15 -80 4 -39 11 -73
16 -76 5 -3 12 -26 15 -50 3 -24 11 -58 19 -76 8 -17 14 -43 14 -58 0 -14 7
-33 15 -41 8 -9 15 -28 15 -44 0 -16 7 -30 15 -34 8 -3 15 -15 15 -26 0 -12 7
-28 15 -36 8 -9 15 -20 15 -25 0 -10 -253 -13 -263 -2 -4 3 -2 12 4 19 6 8 9
41 6 86 -3 40 -11 192 -17 338 -7 146 -17 268 -21 271 -5 3 -12 43 -16 90 -3
46 -10 87 -15 90 -5 3 -12 26 -15 50 -3 24 -9 49 -13 54 -5 6 -11 28 -15 50
-4 22 -14 56 -22 75 -29 66 -77 165 -83 170 -5 5 -30 41 -57 85 -7 11 -16 28
-19 38 -3 9 -10 17 -14 17 -5 0 -11 8 -15 19 -3 10 -19 31 -35 47 -16 16 -30
35 -30 42 0 6 -4 12 -9 12 -5 0 -13 9 -16 21 -4 11 -20 33 -36 50 -16 16 -29
34 -29 40 0 11 -15 31 -42 57 -10 9 -18 22 -18 29 0 7 -5 13 -10 13 -6 0 -14
8 -17 18 -10 25 -19 35 -117 133 -49 49 -94 89 -99 89 -6 0 -30 20 -54 45 -23
25 -46 45 -51 45 -4 0 -15 8 -23 18 -26 29 -74 68 -92 75 -9 3 -17 11 -17 17
0 5 -6 10 -12 10 -7 0 -26 9 -43 20 l-30 20 47 0 c28 0 52 -6 62 -15z m-260
-60 c8 -8 24 -15 36 -15 11 0 23 -7 26 -15 4 -8 14 -15 24 -15 10 0 25 -7 34
-15 8 -8 18 -15 23 -15 4 0 28 -20 53 -45 25 -24 51 -44 58 -45 7 0 15 -7 18
-15 4 -8 10 -15 14 -15 5 0 31 -21 59 -47 27 -27 66 -61 86 -78 53 -44 78 -69
95 -95 30 -44 55 -75 67 -83 7 -4 13 -12 13 -18 0 -11 15 -31 43 -57 9 -9 17
-22 17 -30 0 -7 13 -27 30 -45 16 -18 30 -38 30 -44 0 -7 5 -13 10 -13 6 0 10
-7 10 -15 0 -8 16 -29 35 -48 19 -19 35 -39 35 -46 0 -6 5 -11 10 -11 6 0 10
-7 10 -15 0 -8 9 -23 20 -32 11 -10 20 -26 20 -36 0 -10 14 -31 30 -47 17 -16
30 -38 30 -49 0 -10 7 -21 15 -25 9 -3 15 -18 15 -35 0 -16 5 -31 11 -33 5 -2
13 -24 16 -48 2 -25 11 -59 19 -77 8 -17 14 -51 14 -76 0 -26 5 -47 12 -49 7
-3 13 -44 16 -119 2 -63 9 -120 16 -128 14 -17 23 -588 9 -602 -5 -5 -56 -12
-113 -15 -57 -4 -115 -13 -130 -21 -14 -7 -50 -13 -82 -13 -31 0 -58 -4 -60
-9 -1 -5 -16 -11 -33 -13 l-30 -3 3 50 c2 27 7 52 12 55 4 3 11 40 15 83 4 42
11 80 16 83 13 8 11 488 -2 501 -6 6 -13 57 -16 114 -3 57 -10 107 -16 110 -5
4 -12 30 -15 58 -2 28 -8 51 -12 51 -5 0 -12 15 -15 33 -4 17 -14 41 -21 52
-8 11 -14 30 -14 43 0 13 -7 30 -15 38 -8 9 -15 24 -15 33 0 10 -7 24 -15 31
-8 7 -15 21 -15 31 0 11 -4 19 -10 19 -5 0 -13 12 -16 27 -8 28 -17 43 -46 71
-10 9 -18 22 -18 28 0 7 -7 14 -15 18 -8 3 -15 12 -15 20 0 18 -226 246 -244
246 -7 0 -19 7 -26 15 -7 8 -21 15 -31 15 -9 0 -24 6 -31 13 -7 8 -30 17 -51
21 -20 4 -37 11 -37 15 0 5 -20 12 -45 15 -24 4 -47 11 -50 17 -4 5 -24 9 -45
9 -21 0 -45 7 -54 15 -9 10 -34 15 -68 15 -29 0 -66 7 -82 15 -21 11 -65 15
-185 15 -86 0 -161 -4 -167 -9 -5 -6 -45 -13 -89 -17 -44 -4 -83 -11 -86 -16
-3 -5 -23 -12 -45 -15 -21 -4 -45 -12 -52 -20 -7 -7 -27 -13 -43 -13 -16 0
-29 -4 -29 -9 0 -5 -14 -12 -31 -16 -17 -4 -42 -13 -57 -21 -15 -8 -35 -14
-44 -14 -16 0 -137 -58 -148 -71 -3 -3 -26 -18 -52 -33 -25 -15 -58 -38 -72
-53 -14 -14 -26 -21 -26 -15 0 6 30 35 68 64 76 60 90 69 152 99 25 12 57 28
72 35 14 8 33 14 41 14 16 0 78 30 87 42 3 3 18 10 33 13 15 4 27 11 27 15 0
5 13 11 29 15 16 3 32 13 35 21 3 8 16 14 28 14 13 0 32 7 42 15 11 8 28 15
39 15 10 0 25 7 33 15 9 8 24 15 35 15 11 0 27 7 35 15 9 8 24 15 35 15 10 0
19 4 19 10 0 5 16 12 37 16 20 4 48 13 62 20 14 8 33 14 42 14 9 0 30 7 45 15
16 8 41 15 56 15 14 0 28 5 30 11 2 5 24 13 48 16 25 3 48 10 51 16 4 5 37 12
75 14 38 3 72 10 75 15 3 5 23 12 45 15 21 4 45 12 52 20 18 17 57 17 76 -2z
m2046 -192 c0 -7 4 -13 10 -13 5 0 12 -11 16 -25 3 -14 13 -25 20 -25 8 0 17
-6 20 -14 3 -8 16 -17 30 -20 13 -4 24 -11 24 -16 0 -6 7 -10 15 -10 9 0 18
-6 21 -14 3 -8 27 -17 55 -21 27 -4 51 -11 55 -16 3 -5 47 -10 97 -10 51 -1
82 -4 70 -6 -12 -2 -27 -11 -33 -19 -8 -8 -30 -14 -56 -14 -24 0 -55 -5 -69
-12 -21 -9 -31 -9 -46 0 -10 7 -32 12 -48 12 -16 0 -36 7 -45 15 -8 8 -21 15
-29 15 -15 0 -87 68 -87 82 0 5 -7 16 -15 24 -8 9 -15 24 -15 35 0 11 -7 27
-15 35 -8 9 -15 32 -15 52 l0 37 20 -30 c11 -16 20 -36 20 -42z m-2490 -232
c0 -4 30 -10 68 -13 37 -3 76 -10 87 -16 11 -6 37 -14 58 -17 20 -3 37 -10 37
-15 0 -6 18 -10 39 -10 22 0 46 -7 55 -15 8 -8 26 -15 40 -15 13 0 31 -6 38
-13 7 -8 26 -17 41 -21 15 -3 27 -11 27 -16 0 -6 7 -10 16 -10 18 0 171 -150
201 -197 9 -15 23 -32 30 -36 7 -4 13 -14 13 -21 0 -8 7 -16 15 -20 8 -3 15
-12 15 -19 0 -8 7 -20 15 -27 8 -7 15 -20 15 -30 0 -10 7 -23 15 -30 8 -7 15
-19 15 -27 0 -8 7 -21 15 -29 8 -9 15 -29 15 -45 0 -16 4 -29 10 -29 5 0 12
-17 16 -37 4 -21 13 -44 21 -51 7 -7 13 -31 13 -52 0 -22 5 -40 13 -42 8 -3
13 -37 16 -109 1 -57 7 -106 12 -109 13 -9 16 -469 3 -478 -6 -4 -14 -40 -16
-80 -3 -40 -11 -79 -17 -85 -6 -6 -11 -33 -11 -60 0 -46 -1 -48 -22 -41 -13 4
-26 11 -29 16 -3 5 -39 9 -80 8 -99 -2 -96 -3 -71 20 12 12 22 30 22 40 0 11
4 20 9 20 4 0 11 21 14 47 3 26 10 49 16 51 6 2 11 14 11 27 0 13 7 30 15 39
8 8 15 25 15 38 0 13 7 36 15 52 18 35 22 292 4 298 -5 2 -13 22 -16 46 -3 23
-9 42 -14 42 -4 0 -11 17 -15 37 -4 21 -13 44 -21 51 -7 7 -13 27 -13 43 0 16
-4 29 -10 29 -5 0 -12 11 -16 25 -3 14 -10 25 -14 25 -5 0 -11 14 -15 30 -4
17 -10 30 -15 30 -5 0 -12 14 -15 32 -4 17 -14 38 -21 46 -8 7 -14 19 -14 27
0 7 -7 15 -15 19 -8 3 -15 16 -15 30 0 13 -7 26 -15 30 -8 3 -15 11 -15 19 0
7 -27 42 -60 78 -36 39 -60 73 -60 87 0 12 -4 22 -10 22 -5 0 -10 7 -10 15 0
8 -9 23 -20 32 -11 10 -20 28 -20 40 0 13 -4 23 -9 23 -5 0 -13 10 -17 22 -7
24 -28 48 -41 48 -5 0 -16 8 -25 18 -28 29 -43 38 -71 46 -15 3 -27 11 -27 16
0 14 -517 13 -522 -1 -2 -5 -24 -13 -48 -16 -25 -3 -50 -10 -56 -14 -6 -5 -32
-12 -58 -15 -25 -4 -46 -11 -46 -15 0 -5 -18 -12 -39 -15 -22 -4 -42 -13 -45
-20 -3 -8 -18 -14 -33 -14 -15 0 -37 -7 -47 -15 -11 -8 -28 -15 -39 -15 -10 0
-25 -7 -33 -15 -9 -8 -27 -15 -42 -15 -15 0 -36 -7 -46 -15 -11 -8 -32 -15
-48 -15 -15 0 -28 -4 -28 -10 0 -5 -12 -13 -27 -16 -15 -4 -34 -13 -41 -21 -7
-7 -24 -13 -37 -13 -12 0 -25 -7 -29 -15 -3 -8 -12 -15 -21 -15 -8 0 -15 -7
-15 -15 0 -9 -6 -18 -14 -21 -8 -3 -17 -21 -20 -40 -4 -19 -11 -34 -15 -34 -5
0 -12 -16 -15 -35 -4 -19 -11 -35 -16 -35 -6 0 -10 -6 -10 -14 0 -8 -6 -21
-14 -28 -7 -8 -17 -29 -21 -46 -3 -18 -11 -32 -16 -32 -5 0 -9 -12 -9 -28 0
-15 -8 -35 -17 -44 -31 -29 -41 -44 -48 -76 -3 -18 -10 -32 -14 -32 -5 0 -11
-19 -14 -41 -3 -23 -10 -45 -15 -48 -5 -3 -13 -25 -17 -48 -4 -24 -11 -43 -16
-43 -5 0 -9 -81 -9 -187 0 -191 17 -325 46 -368 8 -11 14 -34 14 -51 0 -17 7
-37 15 -44 8 -7 15 -18 15 -25 0 -7 7 -16 16 -19 8 -3 13 -10 10 -15 -4 -5
-23 -2 -46 7 -38 17 -39 18 -45 82 -3 36 -12 85 -20 110 -8 25 -15 61 -15 81
0 19 -6 41 -12 47 -18 18 -18 468 -1 503 6 13 14 53 16 88 2 38 9 67 15 69 7
2 12 16 12 32 0 16 6 35 13 42 8 7 17 26 21 41 3 15 11 27 16 27 6 0 10 7 10
15 0 9 7 18 15 21 8 4 15 13 15 20 0 8 6 17 14 20 8 3 24 28 37 55 13 27 27
49 31 49 5 0 8 6 8 14 0 8 6 21 13 28 7 7 23 30 36 51 12 20 27 37 33 37 5 0
29 19 53 43 84 82 113 107 128 107 9 0 17 3 19 8 6 13 67 52 82 52 7 0 16 7
20 15 3 9 18 15 40 15 19 0 36 5 38 11 2 5 22 13 46 16 23 3 47 12 53 19 6 8
24 14 39 14 16 0 30 5 32 10 2 6 21 13 43 17 22 3 43 11 47 17 4 6 46 13 93
15 47 1 85 7 85 12 0 5 63 9 140 9 77 0 140 -4 140 -9z m208 -268 c2 -7 9 -13
16 -13 21 0 76 -67 76 -93 0 -14 7 -27 15 -31 8 -3 15 -12 15 -19 0 -8 7 -20
15 -27 8 -7 15 -23 15 -35 0 -12 7 -28 15 -35 8 -7 15 -17 15 -22 0 -5 20 -30
45 -56 25 -26 45 -52 45 -58 0 -7 7 -14 15 -18 8 -3 15 -17 15 -31 0 -14 5
-25 10 -25 6 0 10 -6 10 -14 0 -7 9 -25 20 -39 11 -14 20 -35 20 -46 0 -12 4
-21 9 -21 5 0 13 -14 16 -32 4 -17 14 -38 21 -46 8 -7 14 -20 14 -28 0 -9 7
-22 15 -30 8 -9 15 -29 15 -45 0 -16 4 -29 10 -29 5 0 12 -17 16 -37 4 -21 13
-44 21 -52 19 -19 15 -302 -4 -309 -7 -2 -13 -14 -13 -27 0 -13 -7 -30 -15
-39 -8 -8 -15 -28 -15 -45 0 -16 -7 -36 -15 -45 -8 -8 -15 -28 -15 -44 0 -16
-9 -39 -20 -52 -11 -13 -20 -29 -20 -37 0 -7 -4 -13 -10 -13 -5 0 -10 -7 -10
-15 0 -12 -19 -15 -110 -15 -93 0 -109 2 -104 15 4 8 10 15 15 15 5 0 9 9 9
19 0 11 8 27 18 37 15 16 17 40 15 232 -1 117 -6 219 -11 225 -5 7 -13 45 -17
86 -4 41 -14 81 -21 89 -8 7 -14 25 -14 38 0 14 -7 32 -15 40 -8 9 -15 30 -15
47 0 18 -7 41 -15 51 -8 11 -15 27 -15 37 0 9 -7 19 -15 23 -8 3 -15 12 -15
20 0 7 -7 16 -15 20 -8 3 -15 12 -15 20 0 8 -13 30 -30 48 -16 18 -30 37 -30
43 0 16 -51 62 -77 70 -13 3 -23 11 -23 16 0 5 -8 9 -19 9 -10 0 -24 7 -31 15
-10 12 -43 15 -175 15 -99 0 -165 -4 -167 -10 -1 -5 -25 -13 -53 -17 -27 -3
-56 -12 -63 -20 -7 -7 -22 -13 -33 -13 -10 0 -19 -4 -19 -10 0 -5 -11 -12 -25
-16 -14 -3 -25 -10 -25 -14 0 -5 -14 -12 -32 -15 -17 -4 -38 -14 -46 -21 -7
-8 -24 -14 -37 -14 -12 0 -25 -7 -29 -15 -3 -9 -18 -15 -36 -15 -17 0 -38 -7
-46 -15 -9 -8 -24 -15 -35 -15 -10 0 -19 -4 -19 -10 0 -5 -11 -12 -24 -16 -14
-3 -27 -12 -30 -20 -3 -8 -16 -14 -28 -14 -13 -1 -34 -14 -48 -30 -13 -17 -30
-30 -37 -30 -7 0 -13 -7 -13 -15 0 -8 -4 -15 -10 -15 -5 0 -10 -11 -10 -24 0
-14 -8 -32 -17 -42 -17 -16 -18 -49 -18 -401 0 -356 1 -385 18 -394 35 -20 20
-39 -32 -39 -53 0 -81 17 -81 50 0 10 -4 20 -8 22 -14 6 -52 88 -52 114 0 14
-7 32 -15 40 -21 21 -22 525 -2 546 8 7 17 36 20 63 4 28 12 52 17 53 6 2 10
12 10 22 0 11 6 23 13 27 18 12 47 71 47 98 0 13 6 30 13 37 8 7 17 26 21 41
3 15 11 27 16 27 6 0 10 8 10 19 0 10 7 24 15 31 8 7 15 27 15 45 0 25 8 40
35 64 20 17 43 31 51 31 9 0 22 7 30 15 9 8 26 15 40 15 13 0 24 4 24 10 0 5
18 13 40 16 22 4 40 10 40 14 0 4 16 11 36 15 20 3 43 13 51 21 8 8 28 14 44
14 16 0 29 4 29 9 0 5 14 13 32 16 17 4 38 14 46 21 7 8 28 14 47 14 18 0 35
5 37 12 2 6 30 13 61 16 31 2 57 8 57 13 0 15 37 17 284 16 189 -2 250 -5 254
-14z m-1697 -190 c-82 -91 -101 -114 -101 -118 0 -3 -15 -20 -33 -38 -17 -19
-41 -50 -52 -70 -11 -20 -23 -37 -27 -37 -5 0 -8 -6 -8 -14 0 -7 -14 -29 -30
-47 -17 -19 -33 -44 -36 -56 -3 -13 -10 -23 -14 -23 -5 0 -11 -13 -15 -30 -4
-16 -11 -30 -16 -30 -5 0 -9 -12 -9 -27 0 -16 -6 -40 -14 -55 -8 -14 -17 -45
-21 -67 -4 -23 -10 -41 -15 -41 -4 0 -10 -27 -12 -61 -2 -33 -9 -64 -15 -67
-5 -4 -13 -35 -16 -70 -3 -34 -9 -68 -15 -75 -5 -7 -12 -39 -15 -71 -3 -33
-10 -62 -16 -65 -6 -4 -12 -53 -13 -109 -2 -71 -7 -102 -15 -102 -22 0 -26 69
-21 329 4 173 9 256 17 259 6 2 11 29 11 64 0 42 5 67 18 83 9 12 24 33 32 45
8 12 21 28 28 36 6 7 12 15 12 18 0 3 8 15 18 25 30 34 42 50 42 57 0 4 27 33
60 66 33 32 60 62 60 68 0 5 6 13 13 17 7 4 23 25 36 46 12 20 27 37 32 37 5
0 9 5 9 10 0 9 93 102 150 149 47 39 43 21 -9 -36z m193 -18 c-4 -8 -10 -15
-15 -15 -5 0 -9 -6 -9 -13 0 -7 -8 -20 -17 -28 -10 -9 -31 -33 -48 -53 -16
-21 -36 -44 -42 -51 -7 -8 -13 -21 -13 -30 0 -8 -7 -18 -15 -21 -8 -4 -15 -17
-15 -29 0 -13 -6 -30 -14 -37 -7 -8 -16 -39 -20 -71 -4 -31 -11 -57 -15 -57
-5 0 -11 -30 -14 -67 -3 -37 -10 -69 -16 -71 -14 -5 -16 -412 -2 -412 5 0 12
-37 16 -82 4 -46 12 -86 18 -90 6 -3 13 -35 15 -70 3 -35 9 -66 16 -70 6 -4 8
-9 6 -11 -3 -3 -86 -2 -185 0 l-180 6 6 110 c4 60 11 112 17 116 5 3 11 32 14
64 3 33 9 62 15 65 6 4 12 38 15 76 2 42 9 71 16 74 7 2 12 22 12 45 0 23 7
55 15 71 8 15 15 36 15 45 0 9 7 29 15 45 8 15 15 41 15 56 0 15 7 33 15 40 8
7 15 21 15 32 0 10 7 21 15 24 8 4 15 11 15 18 0 6 9 19 20 29 11 9 20 24 20
32 0 8 5 15 10 15 6 0 10 7 10 15 0 9 7 18 15 21 8 4 15 12 15 20 0 7 14 27
30 44 17 17 30 33 30 35 0 3 8 13 18 23 9 10 35 40 57 67 67 80 89 104 102
104 7 1 10 -6 7 -14z m1292 -210 c4 -8 12 -15 19 -15 15 0 75 -68 75 -86 0 -7
3 -14 8 -16 9 -4 52 -65 52 -73 0 -4 7 -13 15 -21 8 -9 15 -26 15 -40 0 -13 4
-24 9 -24 5 0 12 -19 16 -42 4 -23 14 -48 21 -56 8 -7 14 -28 14 -46 0 -17 5
-37 12 -44 6 -6 15 -51 19 -99 4 -49 12 -117 18 -153 16 -96 14 -202 -4 -226
-8 -10 -15 -30 -15 -44 0 -14 -9 -36 -20 -50 l-21 -25 7 30 c4 17 11 38 15 47
5 9 9 95 9 190 -1 136 -4 177 -15 192 -8 11 -15 29 -15 40 -1 12 -14 32 -30
46 -17 13 -30 28 -30 32 0 21 -139 158 -160 158 -6 0 -14 8 -17 18 -10 25 -25
38 -56 46 -15 3 -27 11 -27 16 0 6 -15 10 -34 10 -19 0 -41 7 -50 15 -11 11
-40 15 -121 15 -81 0 -110 -4 -121 -15 -9 -8 -26 -15 -40 -15 -13 0 -24 -4
-24 -9 0 -5 -13 -12 -29 -16 -16 -3 -32 -13 -35 -21 -3 -8 -12 -14 -20 -14
-23 0 -216 -178 -216 -199 0 -7 -6 -14 -14 -17 -7 -3 -16 -23 -20 -45 -3 -21
-10 -39 -15 -39 -5 0 -12 -54 -16 -120 -4 -66 -11 -120 -16 -120 -5 0 -9 -29
-9 -65 0 -36 4 -65 9 -65 5 0 13 -10 17 -22 3 -12 13 -28 20 -36 8 -7 14 -20
14 -28 0 -8 5 -14 10 -14 6 0 14 -8 17 -17 4 -10 13 -24 20 -31 18 -18 16 -35
-3 -28 -9 3 -45 6 -80 6 -58 0 -64 2 -64 21 0 11 -7 27 -15 35 -11 11 -15 38
-15 94 0 43 -4 82 -10 85 -6 4 -10 85 -10 210 0 125 4 206 10 210 6 3 10 45
10 93 0 85 1 88 35 125 18 20 41 37 49 37 9 0 16 4 16 9 0 5 10 13 22 17 12 3
28 13 36 20 7 8 22 14 33 14 10 0 19 4 19 10 0 5 18 13 39 16 22 4 42 13 45
20 3 8 19 14 36 14 16 0 30 4 30 9 0 5 10 13 23 16 37 11 91 39 100 53 4 6 21
12 37 12 17 0 30 4 30 9 0 14 39 18 218 20 136 1 164 -1 168 -14z m-172 -330
c8 -8 28 -15 45 -15 23 0 45 -14 98 -65 37 -36 72 -68 76 -73 47 -43 107 -118
107 -133 0 -10 5 -21 10 -24 6 -4 10 -57 10 -127 l0 -121 -59 59 c-76 76 -87
84 -106 84 -9 0 -18 7 -21 15 -4 8 -14 15 -24 15 -10 0 -25 6 -32 13 -7 8 -30
17 -51 21 -20 4 -37 11 -37 15 0 5 -25 12 -55 16 -30 3 -57 11 -60 16 -8 11
-152 12 -159 0 -3 -4 -19 -11 -36 -15 -17 -3 -42 -19 -56 -36 -14 -16 -32 -30
-40 -30 -8 0 -28 -13 -44 -30 -16 -16 -32 -30 -35 -30 -7 0 -50 -46 -73 -78
-16 -21 -17 -18 -14 70 3 119 11 178 23 178 5 0 9 11 9 24 0 15 19 43 53 77
63 65 140 129 154 129 6 0 16 7 23 15 7 8 21 15 32 15 11 0 26 7 34 15 12 11
40 15 114 15 74 0 102 -4 114 -15z m-1969 -271 c-12 -30 -16 -70 -14 -179 1
-121 -1 -140 -15 -143 -9 -2 -19 3 -22 12 -3 8 -19 18 -35 21 -16 4 -29 10
-29 15 0 4 -12 11 -27 15 -16 4 -22 10 -15 12 6 3 12 13 12 23 0 10 6 25 13
32 8 7 17 26 21 41 3 15 11 27 16 27 6 0 10 7 10 15 0 16 39 77 53 83 4 2 7 9
7 16 0 15 30 59 37 53 2 -3 -3 -22 -12 -43z m6493 -62 c2 -23 7 -42 12 -42 6
0 13 -18 16 -40 4 -22 10 -40 14 -40 4 0 11 -16 15 -36 3 -20 13 -43 21 -51 8
-8 14 -30 14 -49 0 -27 -4 -34 -20 -34 -12 0 -20 7 -20 16 0 8 -7 22 -15 30
-8 9 -15 24 -15 35 0 10 -4 19 -9 19 -5 0 -14 13 -19 29 -13 37 -84 111 -106
111 -9 0 -19 7 -22 15 -5 11 -23 15 -73 16 l-66 0 40 15 c22 8 70 18 108 21
37 3 67 9 67 14 0 8 29 18 45 15 6 -2 11 -21 13 -44z m195 -2 c9 -11 24 -20
32 -20 8 0 15 -4 15 -10 0 -5 6 -10 13 -10 6 0 27 -14 45 -31 45 -42 42 -83
-8 -90 -18 -3 -26 -11 -28 -29 -4 -38 21 -65 60 -65 l33 0 3 -107 c3 -112 -8
-140 -27 -70 -6 20 -11 41 -11 45 0 5 -7 15 -15 23 -8 9 -15 29 -15 45 0 16
-4 29 -10 29 -5 0 -10 6 -10 13 0 6 -6 24 -14 39 -8 15 -17 41 -21 59 -4 18
-14 39 -21 47 -8 7 -14 25 -14 38 0 14 -6 35 -14 47 -34 53 -29 88 7 47z
m-7533 0 c0 -5 11 -10 24 -10 14 0 31 -6 38 -14 8 -7 29 -17 46 -21 18 -3 32
-11 32 -16 0 -5 13 -9 29 -9 16 0 36 -6 43 -14 8 -7 29 -17 46 -21 18 -3 32
-11 32 -16 0 -5 13 -9 29 -9 16 0 36 -6 43 -13 7 -8 26 -17 41 -21 15 -3 27
-11 27 -16 0 -6 8 -10 18 -10 11 0 26 -8 36 -18 17 -20 19 -17 -34 -79 -5 -7
-10 -17 -10 -23 0 -6 -6 -13 -14 -16 -8 -3 -17 -16 -20 -30 -4 -13 -11 -24
-16 -24 -6 0 -10 -6 -10 -13 0 -7 -9 -20 -20 -30 -11 -9 -20 -24 -20 -32 0 -8
-7 -15 -15 -15 -8 0 -15 -6 -16 -12 0 -10 -2 -10 -6 0 -6 16 -288 17 -299 1
-18 -29 -24 34 -24 254 0 151 4 237 10 237 6 0 10 -4 10 -10z m-4602 -28 c2
-7 18 -13 35 -13 18 -1 24 -3 15 -6 -10 -2 -18 -8 -18 -13 0 -5 -13 -11 -29
-15 -16 -3 -32 -13 -35 -21 -3 -8 -14 -14 -24 -14 -21 0 -128 -54 -149 -76 -8
-8 -23 -14 -32 -14 -10 0 -24 -7 -31 -15 -7 -8 -23 -15 -36 -15 -13 0 -24 -4
-24 -10 0 -5 -7 -10 -15 -10 -8 0 -23 -9 -32 -20 -10 -11 -25 -20 -35 -20 -10
0 -18 -3 -18 -8 0 -4 -24 -18 -52 -32 -29 -13 -59 -30 -66 -37 -7 -7 -18 -13
-23 -13 -5 0 -23 -13 -39 -30 -16 -16 -32 -30 -35 -30 -3 0 -19 -14 -35 -31
-27 -30 -32 -32 -80 -26 -29 4 -58 11 -65 17 -15 13 -688 9 -724 -4 -18 -7
-23 -6 -19 5 3 8 13 16 23 18 10 2 25 9 33 17 7 8 25 14 38 14 14 0 32 7 40
15 9 8 24 15 33 15 10 0 24 7 31 15 7 8 23 15 35 15 13 0 25 7 29 15 3 8 15
15 26 15 12 0 28 7 36 15 9 8 24 15 35 15 11 0 27 7 35 15 9 8 24 15 34 15 10
0 20 7 24 15 3 8 13 15 21 15 9 0 23 7 31 15 9 8 25 15 37 15 12 0 31 7 41 15
11 8 32 15 48 15 15 0 28 4 28 10 0 5 17 12 37 16 21 4 44 13 51 21 7 7 25 13
40 13 15 0 36 7 46 15 11 8 37 15 57 15 21 0 39 5 41 11 2 6 25 13 51 16 26 3
47 9 47 14 0 4 26 10 58 14 31 3 66 10 77 16 43 20 396 21 403 1z m7390 -88
c4 -6 24 -14 45 -18 20 -4 37 -11 37 -16 0 -6 11 -10 25 -10 14 0 28 -7 31
-15 4 -8 12 -15 20 -15 7 0 38 -26 69 -57 47 -49 55 -62 55 -95 0 -21 -4 -38
-10 -38 -5 0 -10 -20 -10 -44 0 -26 -6 -48 -15 -56 -16 -13 -16 -13 -20 35 -1
11 -3 34 -4 52 -1 25 -7 33 -31 42 -16 5 -30 15 -30 20 0 6 -11 11 -25 11 -14
0 -28 7 -31 15 -4 8 -12 15 -20 15 -7 0 -17 6 -21 13 -13 21 -61 47 -85 47
-13 0 -36 7 -52 15 -38 20 -164 20 -190 0 -11 -8 -30 -15 -42 -15 -12 0 -24
-7 -28 -15 -3 -8 -12 -15 -21 -15 -8 0 -15 -5 -15 -10 0 -6 -8 -14 -17 -17
-10 -4 -34 -21 -53 -39 -26 -25 -38 -30 -47 -22 -17 14 -16 33 2 52 8 8 15 18
15 23 0 9 45 53 54 53 8 0 31 18 54 43 9 9 22 17 30 17 13 0 31 12 60 42 15
15 35 17 140 15 76 -1 125 -6 130 -13z m-6970 -20 c17 -3 32 -9 32 -14 0 -6
13 -10 29 -10 16 0 36 -7 45 -15 8 -8 21 -15 29 -15 8 0 20 -6 26 -14 7 -8 23
-17 36 -20 14 -4 25 -11 25 -16 0 -6 11 -10 24 -10 13 0 29 -6 35 -14 7 -8 23
-17 36 -20 14 -4 25 -11 25 -16 0 -6 11 -10 25 -10 16 0 25 -6 25 -15 0 -8 5
-15 10 -15 6 0 13 -8 17 -17 3 -10 13 -26 21 -35 8 -10 10 -18 5 -18 -6 0 -16
6 -22 14 -7 8 -23 17 -36 20 -14 4 -25 11 -25 16 0 6 -8 10 -18 10 -10 0 -27
7 -38 15 -10 8 -27 15 -36 15 -9 0 -23 6 -30 14 -8 7 -24 17 -36 20 -12 4 -22
12 -22 17 0 5 -6 9 -14 9 -8 0 -21 6 -28 14 -8 7 -29 17 -46 21 -18 3 -32 11
-32 16 0 5 -9 9 -19 9 -11 0 -26 6 -33 13 -7 8 -35 17 -63 20 -27 4 -54 12
-59 17 -6 6 -46 11 -90 11 -67 2 -74 3 -41 9 39 7 179 4 243 -6z m11316 -9 c8
-8 20 -15 26 -15 18 0 60 -43 60 -62 0 -9 6 -19 13 -21 6 -3 -9 -6 -35 -6 -27
-1 -48 4 -48 9 0 16 -119 12 -136 -5 -20 -19 -104 -18 -104 2 0 7 7 16 15 19
8 4 15 10 15 15 0 5 15 24 33 43 29 31 38 34 89 35 38 1 61 -4 72 -14z
m-11485 -122 c3 -6 28 -13 56 -16 27 -3 51 -10 53 -16 2 -6 16 -11 32 -11 16
0 35 -6 42 -14 8 -7 29 -17 46 -21 18 -3 32 -11 32 -16 0 -5 7 -9 15 -9 9 0
18 -7 21 -15 4 -8 14 -15 24 -15 10 0 23 -7 30 -15 7 -8 21 -15 31 -15 9 0 24
-7 33 -15 8 -8 23 -15 34 -15 11 0 25 -7 32 -15 7 -8 21 -15 32 -15 11 0 18
-5 16 -12 -5 -15 -92 -25 -235 -27 -56 0 -105 -5 -108 -11 -4 -6 -75 -10 -180
-10 -105 0 -176 4 -180 10 -4 6 -90 10 -226 10 -120 0 -219 4 -219 8 0 4 5 13
11 19 13 13 33 47 48 81 6 12 15 22 21 22 5 0 10 5 10 11 0 15 42 48 61 49 9
0 19 7 23 15 3 9 18 15 35 15 16 0 31 5 33 12 2 6 31 13 66 16 34 2 62 8 62
13 0 4 15 10 33 12 52 8 209 0 216 -10z m4987 -28 c4 -8 14 -15 24 -15 10 0
23 -7 30 -15 7 -8 21 -15 32 -15 10 0 21 -7 24 -15 4 -8 14 -15 23 -15 16 -1
67 -38 60 -44 -11 -10 -117 -26 -169 -26 -32 0 -60 -5 -62 -10 -5 -15 -108
-26 -108 -11 0 6 7 14 15 17 8 4 15 12 15 19 0 10 9 24 50 72 5 7 10 15 10 18
0 12 33 55 41 55 6 0 12 -7 15 -15z m2074 -35 c0 -5 16 -10 35 -10 22 0 38 -6
41 -15 4 -8 12 -15 19 -15 12 0 30 -14 98 -77 48 -44 41 -55 -10 -17 -68 51
-77 54 -197 54 -92 0 -115 -3 -120 -15 -3 -8 -11 -15 -18 -15 -7 0 -22 -13
-32 -29 -18 -27 -24 -29 -70 -26 -28 1 -54 3 -58 4 -12 2 -9 51 2 51 6 0 10 7
10 15 0 9 8 19 18 22 9 4 31 20 47 35 17 15 38 28 48 28 9 0 17 5 17 10 0 6
35 10 85 10 50 0 85 -4 85 -10z m-5631 -65 c59 -22 95 -41 110 -59 11 -13 11
-16 -2 -16 -9 0 -19 5 -22 10 -17 27 -91 50 -162 50 l-73 0 0 -30 c0 -27 -3
-30 -33 -30 -24 0 -41 9 -66 35 l-33 35 34 15 c41 19 183 14 247 -10z m10407
-12 c4 -15 13 -34 21 -41 7 -7 13 -28 13 -47 0 -18 5 -35 11 -37 6 -2 14 -27
17 -56 5 -52 4 -52 -27 -58 -17 -4 -31 -10 -31 -15 0 -4 -16 -11 -37 -15 -20
-4 -48 -13 -62 -20 -14 -8 -40 -14 -57 -14 -16 0 -34 -4 -40 -9 -5 -5 -27 -13
-49 -16 -38 -7 -39 -6 -20 9 11 8 25 16 31 16 6 0 21 9 34 20 13 11 27 20 32
20 9 0 52 36 106 88 33 32 34 35 32 105 -1 40 -2 78 -1 85 2 22 21 12 27 -15z
m-1081 -13 c4 -7 61 -10 153 -9 146 1 147 1 150 -22 2 -12 10 -29 18 -36 8 -8
14 -23 14 -33 0 -10 7 -20 15 -24 8 -3 15 -12 15 -21 0 -8 5 -15 10 -15 6 0
10 -6 10 -12 0 -7 16 -30 35 -51 19 -21 35 -42 35 -48 0 -5 7 -9 15 -9 7 0 18
-6 22 -13 14 -24 75 -47 125 -47 41 0 48 -3 48 -20 0 -11 4 -20 10 -20 5 0 12
-11 16 -25 3 -14 13 -25 20 -25 8 0 17 -7 20 -15 5 -11 22 -15 69 -15 35 0 65
5 67 10 2 6 30 14 63 17 33 3 69 12 80 19 11 8 30 14 43 14 13 0 30 7 39 16 9
8 25 14 37 12 18 -3 20 -9 18 -44 -2 -23 1 -45 6 -48 6 -3 13 -45 17 -92 4
-48 14 -98 21 -113 8 -14 14 -40 14 -58 0 -17 6 -33 13 -35 17 -6 18 -935 1
-946 -6 -4 -13 -44 -16 -89 -3 -45 -9 -88 -15 -95 -6 -7 -13 -51 -17 -97 -4
-47 -11 -90 -15 -95 -5 -6 -11 -51 -14 -100 -3 -49 -9 -91 -14 -95 -6 -3 -13
-26 -16 -51 -3 -24 -11 -46 -16 -48 -6 -2 -11 -16 -11 -32 0 -16 -7 -35 -15
-44 -8 -8 -15 -23 -15 -33 0 -10 -6 -30 -14 -44 -7 -14 -16 -42 -20 -62 -4
-21 -11 -37 -16 -37 -6 0 -10 -6 -10 -13 0 -7 -9 -20 -20 -30 -11 -9 -20 -24
-20 -32 0 -8 -4 -15 -10 -15 -5 0 -10 -6 -10 -14 0 -19 -30 -42 -38 -29 -4 5
-24 13 -44 17 -21 4 -38 11 -38 16 0 6 -12 10 -28 10 -15 0 -36 6 -47 14 -11
7 -32 16 -47 20 -16 3 -28 11 -28 16 0 6 -16 10 -35 10 -22 0 -38 6 -41 15 -4
8 -14 15 -24 15 -10 0 -25 6 -32 13 -7 8 -33 16 -58 20 -24 3 -46 11 -48 16
-2 6 -18 11 -36 11 -18 0 -41 7 -52 15 -10 8 -30 15 -42 15 -13 0 -38 6 -55
14 -18 8 -52 16 -76 19 -24 3 -47 10 -50 15 -3 5 -23 12 -43 16 -21 4 -38 11
-38 16 0 6 -13 10 -29 10 -16 0 -36 7 -45 15 -8 8 -28 15 -45 15 -16 0 -36 7
-45 15 -8 8 -23 15 -33 15 -10 0 -27 6 -38 14 -11 7 -37 16 -57 20 -21 4 -38
11 -38 15 0 5 -26 11 -57 13 -31 3 -59 10 -61 16 -2 7 -19 12 -37 12 -19 0
-40 7 -49 15 -8 8 -28 15 -45 15 -16 0 -36 7 -45 15 -8 8 -19 15 -25 15 -14 0
-95 42 -99 52 -2 4 -10 8 -18 8 -8 0 -17 7 -20 15 -4 8 -13 15 -20 15 -8 0
-17 7 -20 15 -4 8 -15 15 -25 15 -11 0 -22 7 -25 15 -4 8 -13 15 -20 15 -8 0
-17 7 -20 15 -4 8 -15 15 -25 15 -11 0 -22 7 -25 15 -4 8 -13 15 -20 15 -8 0
-17 6 -20 14 -3 8 -28 24 -55 37 -27 13 -49 27 -49 31 0 5 -8 8 -18 8 -10 0
-25 9 -35 20 -9 11 -24 20 -32 20 -8 0 -15 5 -15 10 0 6 -11 10 -25 10 -13 0
-28 6 -32 13 -4 6 -30 23 -58 36 -27 14 -52 27 -55 30 -3 3 -18 13 -35 22 -24
12 -30 21 -28 45 1 16 7 30 13 32 5 2 10 19 10 37 0 19 6 40 13 47 8 7 16 33
20 58 3 24 11 46 16 48 6 2 11 16 11 31 0 15 7 36 15 47 8 10 15 30 15 44 0
14 6 37 14 51 7 14 16 42 20 62 4 21 11 37 15 37 4 0 11 30 14 67 4 37 12 70
19 75 7 4 39 8 71 8 31 0 57 5 57 10 0 6 6 10 13 10 24 0 47 39 47 80 0 29 -4
40 -15 40 -9 0 -18 7 -21 15 -4 8 -16 15 -29 15 -12 0 -28 -7 -35 -15 -7 -8
-27 -15 -44 -15 l-31 0 0 245 0 245 117 0 c84 0 117 3 120 13 6 16 675 18 686
1 4 -6 54 -14 112 -18 58 -4 107 -11 108 -17 2 -5 126 -9 306 -9 l303 0 13 25
c7 14 17 25 22 25 16 0 7 40 -15 64 l-23 24 -320 4 c-218 2 -325 7 -335 14 -8
6 -49 14 -92 16 -43 3 -83 10 -90 17 -16 16 -654 16 -659 0 -4 -12 -247 -30
-253 -19 -2 3 -5 19 -6 35 l-4 30 185 3 c124 2 186 6 191 14 4 6 33 13 66 16
34 3 61 10 66 18 4 8 14 14 21 14 14 0 26 46 18 68 -2 7 -10 12 -18 12 -8 0
-17 7 -20 15 -8 20 -160 22 -166 3 -5 -15 -388 -26 -388 -11 0 11 96 33 147
33 23 0 43 5 45 10 2 6 30 14 63 17 33 3 63 11 67 17 4 6 53 12 115 14 59 2
112 8 118 13 13 13 692 12 700 -1z m-4952 -135 c31 -4 57 -11 57 -16 0 -6 8
-9 17 -7 10 2 19 -5 21 -16 2 -11 10 -26 18 -34 8 -7 14 -22 14 -32 0 -10 7
-20 15 -24 8 -3 15 -10 15 -16 0 -15 -37 -12 -54 5 -8 8 -18 15 -23 15 -5 0
-20 13 -34 29 -14 15 -35 31 -47 35 -12 4 -22 12 -22 17 0 5 -8 9 -19 9 -10 0
-24 7 -31 15 -7 8 -21 15 -31 15 -11 0 -19 5 -19 10 0 7 13 9 33 6 17 -3 58
-8 90 -11z m-2348 -14 c11 -5 54 -12 96 -14 42 -3 85 -10 95 -15 21 -12 248
-30 462 -38 l132 -5 0 -27 c0 -15 3 -38 7 -51 l6 -24 -272 6 c-150 3 -278 10
-284 15 -7 5 -68 12 -137 14 -80 4 -125 9 -128 17 -6 17 -499 16 -504 -1 -4
-10 -68 -15 -249 -20 -351 -10 -949 -14 -937 -7 7 4 9 26 6 53 -4 31 -2 46 6
46 6 0 234 1 507 2 400 2 499 6 512 17 10 8 51 15 104 18 49 2 97 8 108 13 30
14 63 15 265 12 102 -1 194 -6 205 -11z m1773 -24 c7 -18 12 -45 12 -59 0 -15
4 -28 9 -30 4 -1 11 -12 15 -24 6 -19 2 -22 -55 -28 -34 -3 -79 -6 -100 -6
-20 0 -39 -4 -41 -9 -1 -5 -78 -11 -170 -13 -132 -3 -168 -1 -168 9 0 7 4 13
9 13 4 0 11 18 14 39 6 44 39 85 56 68 7 -7 15 -6 25 2 8 7 44 15 78 18 35 3
69 10 76 16 8 6 54 13 103 15 49 3 89 8 89 13 0 5 8 9 18 9 11 0 22 -12 30
-33z m-6318 -29 c0 -7 -14 -26 -30 -42 -17 -16 -30 -33 -30 -38 0 -4 -148 -8
-329 -8 -186 0 -332 -4 -335 -9 -3 -5 -54 -12 -113 -15 -60 -4 -120 -9 -135
-11 -20 -3 -28 0 -28 11 0 8 7 17 15 20 8 4 15 12 15 20 0 16 35 54 50 54 6 0
10 4 10 10 0 12 112 15 563 18 272 2 347 -1 347 -10z m5724 -31 c-3 -9 -10
-17 -15 -17 -5 0 -9 -10 -9 -22 0 -47 -12 -68 -36 -68 -13 0 -24 5 -24 11 0 7
-26 10 -77 8 l-78 -4 0 54 0 54 107 -2 c70 -1 109 2 113 9 11 17 27 -3 19 -23z
m1931 23 c3 -5 43 -10 88 -10 66 0 86 -4 99 -17 8 -10 27 -27 41 -38 44 -34
33 -40 -65 -37 -99 4 -116 11 -192 84 l-30 28 27 0 c14 0 29 -4 32 -10z
m-5825 -28 c0 -10 5 -23 11 -29 9 -9 6 -13 -12 -17 -44 -9 -731 -15 -1047 -9
-285 6 -312 8 -312 23 0 16 38 17 535 16 401 -1 538 2 543 11 9 14 54 19 185
21 87 2 97 0 97 -16z m8090 0 c3 -2 -1 -7 -7 -9 -7 -3 -13 -14 -13 -25 0 -19
-5 -20 -177 -16 -130 2 -177 6 -181 16 -2 8 -25 12 -68 12 -66 0 -83 13 -41
30 22 10 477 2 487 -8z m550 -47 l0 -35 -200 0 -200 0 0 33 c0 19 2 36 4 38 2
2 92 3 200 1 l196 -3 0 -34z m-1320 -92 c0 -5 -17 -21 -38 -37 -20 -17 -41
-36 -45 -43 -4 -7 -15 -13 -22 -13 -8 0 -15 -5 -15 -10 0 -6 -10 -15 -22 -20
-34 -15 -62 -33 -71 -47 -4 -7 -14 -13 -21 -13 -8 0 -19 -6 -25 -14 -21 -25
-59 -25 -89 1 -46 40 -51 43 -67 43 -8 0 -15 7 -15 15 0 8 5 15 12 15 6 0 37
27 69 60 l59 59 137 4 c76 1 141 4 146 5 4 1 7 -1 7 -5z m398 -41 c3 -9 51
-12 163 -12 103 0 159 -4 159 -10 0 -6 -7 -13 -15 -16 -8 -4 -15 -14 -15 -24
0 -10 -6 -25 -14 -32 -7 -8 -17 -29 -21 -46 -3 -18 -11 -32 -16 -32 -5 0 -9
-11 -9 -24 0 -14 -7 -31 -15 -40 -8 -8 -15 -24 -15 -36 0 -11 -7 -23 -15 -26
-8 -4 -15 -14 -15 -24 0 -10 -6 -25 -13 -32 -8 -7 -17 -26 -21 -41 -3 -15 -11
-27 -16 -27 -6 0 -10 -9 -10 -19 0 -11 -6 -26 -13 -33 -8 -7 -17 -30 -21 -51
-4 -20 -11 -37 -16 -37 -6 0 -10 -9 -10 -19 0 -11 -7 -26 -15 -35 -8 -8 -15
-20 -15 -26 0 -6 -7 -13 -15 -16 -8 -4 -15 -12 -15 -19 0 -18 -70 -95 -86 -95
-8 0 -14 9 -14 21 0 11 -7 27 -15 35 -8 9 -15 22 -15 30 0 8 7 17 15 20 18 7
20 48 3 62 -7 5 -32 15 -56 22 -24 6 -46 19 -49 28 -4 9 -20 28 -35 42 -15 13
-28 28 -28 33 0 11 -86 97 -97 97 -5 0 -20 13 -33 28 -14 15 -32 31 -40 35 -8
4 -22 11 -30 16 -8 5 -28 14 -43 20 -30 12 -28 31 3 31 10 0 20 7 24 15 3 8
12 15 21 15 8 0 15 5 15 10 0 6 8 14 18 17 19 8 29 15 77 61 20 17 39 32 44
32 5 0 11 4 13 10 2 5 25 33 52 62 l48 53 106 -6 c67 -4 107 -10 110 -17z
m-5000 2 c4 -7 68 -14 167 -18 88 -4 164 -12 170 -17 5 -5 113 -9 247 -9 l238
0 0 -80 c0 -44 4 -80 10 -80 5 0 12 -27 16 -60 4 -33 10 -60 15 -60 4 0 11
-16 15 -35 3 -19 12 -39 20 -46 8 -6 14 -20 14 -30 0 -11 5 -19 10 -19 6 0 10
-7 10 -16 0 -8 -4 -13 -8 -10 -5 3 -296 7 -646 10 -444 3 -641 7 -649 15 -14
14 -1368 16 -1382 2 -6 -5 -24 -12 -42 -16 -26 -5 -34 -2 -42 14 -7 13 -8 22
-1 26 5 3 10 17 10 30 0 13 7 30 15 39 12 11 15 41 15 130 0 88 3 118 15 130
8 8 15 30 15 48 l0 33 603 0 c555 1 604 2 632 18 27 16 57 18 278 15 167 -2
250 -7 255 -14z m-4704 -27 c-3 -9 -10 -17 -15 -17 -5 0 -9 -8 -9 -18 0 -10
-8 -29 -17 -42 -16 -22 -18 -51 -18 -244 l0 -218 -191 4 c-119 2 -197 8 -205
15 -9 7 -90 12 -216 15 -134 3 -206 8 -216 16 -10 9 -41 10 -113 4 -91 -8
-128 -6 -96 5 6 3 12 17 12 33 0 16 7 35 15 44 8 8 15 30 15 50 0 19 7 41 15
50 8 8 15 21 15 30 0 8 6 21 13 28 14 16 43 73 52 106 3 12 10 22 15 22 4 0
11 17 15 38 10 56 20 62 94 62 40 0 72 5 79 13 10 9 101 13 370 15 202 2 361
7 367 13 13 13 27 -4 19 -24z m2010 17 c3 -9 6 -48 6 -88 0 -43 5 -77 12 -84
8 -8 13 -71 16 -192 l4 -180 -45 0 c-25 0 -48 4 -51 9 -3 4 -38 11 -77 13 -39
3 -74 10 -78 16 -3 5 -67 11 -145 14 -98 2 -141 7 -144 16 -3 9 -78 12 -308
12 -262 0 -305 2 -310 15 -4 8 -14 15 -24 15 -15 0 -48 22 -75 50 -5 6 -25 25
-42 44 -18 18 -33 43 -33 55 0 12 -7 29 -15 37 -8 9 -15 26 -15 39 0 13 -5 25
-10 27 -6 2 -14 36 -17 76 -3 40 -10 75 -14 78 -5 3 -9 11 -9 17 0 9 129 11
547 10 442 -2 763 4 814 16 4 0 10 -6 13 -15z m4950 -6 c156 -2 210 -6 214
-15 2 -7 9 -13 17 -13 7 0 18 -7 25 -15 7 -8 21 -15 31 -15 9 0 24 -7 33 -15
8 -8 21 -15 28 -15 7 0 22 -6 33 -14 11 -7 32 -16 48 -20 15 -3 27 -11 27 -16
0 -6 4 -10 9 -10 5 0 22 -5 38 -11 l28 -12 -25 -7 c-14 -5 -46 -8 -72 -9 -27
-1 -48 -5 -48 -10 0 -5 -25 -13 -56 -17 -31 -3 -69 -13 -83 -20 -14 -8 -40
-14 -58 -14 -17 0 -33 -5 -35 -11 -2 -5 -24 -13 -48 -16 -25 -3 -47 -9 -50
-13 -3 -4 -14 -10 -26 -14 -16 -5 -33 6 -75 47 -53 53 -90 95 -119 137 -8 12
-23 31 -32 42 -10 12 -18 27 -18 35 0 7 -4 13 -9 13 -12 0 -23 29 -15 41 4 6
10 6 18 0 6 -6 102 -11 220 -13z m-6446 -50 c2 -29 8 -55 13 -59 5 -3 12 -30
16 -60 3 -29 12 -60 20 -67 7 -7 13 -20 13 -28 0 -9 7 -22 15 -30 8 -9 15 -26
15 -39 0 -12 7 -25 15 -29 8 -3 15 -11 15 -18 0 -7 14 -24 30 -38 39 -32 38
-40 -4 -40 -19 0 -36 -5 -38 -12 -2 -6 -32 -13 -69 -16 -35 -3 -67 -9 -70 -14
-3 -5 -39 -12 -80 -15 -41 -3 -80 -10 -87 -16 -7 -5 -66 -12 -132 -15 -106 -4
-120 -3 -120 12 0 9 5 16 10 16 13 0 13 195 0 274 -5 33 -6 64 -1 70 5 6 11
28 15 49 4 20 11 37 16 37 6 0 10 9 10 20 0 12 9 33 20 48 l20 27 178 -2 177
-2 3 -53z m6057 -161 l0 -212 -40 -3 c-22 -2 -43 -8 -46 -14 -3 -5 -26 -12
-50 -15 -24 -3 -50 -10 -57 -16 -8 -7 -111 -12 -268 -15 -230 -4 -254 -3 -254
12 0 9 4 16 9 16 4 0 11 37 14 81 3 45 10 86 16 92 6 6 11 29 11 52 0 23 7 50
15 61 8 10 15 36 15 56 0 65 -6 63 171 60 104 -2 165 0 173 7 7 6 49 14 92 17
43 3 88 10 99 14 19 9 51 16 85 19 13 1 15 -29 15 -212z m3651 193 c5 -5 96
-11 209 -12 110 -2 199 -6 198 -10 -2 -5 -3 -120 -3 -258 l0 -250 -84 0 c-47
0 -87 -4 -91 -9 -3 -5 -19 -12 -35 -16 -27 -6 -30 -11 -30 -43 0 -33 5 -39 39
-54 47 -22 117 -23 138 -2 10 10 19 12 25 6 12 -12 0 -92 -13 -92 -5 0 -9 -13
-9 -29 0 -16 -6 -36 -13 -43 -8 -7 -16 -33 -20 -58 -3 -24 -11 -46 -16 -48 -6
-2 -11 -16 -11 -32 0 -16 -7 -35 -15 -44 -8 -8 -15 -28 -15 -43 0 -16 -7 -38
-15 -49 -8 -10 -15 -31 -15 -46 0 -15 -6 -33 -14 -40 -8 -8 -16 -23 -18 -34
-4 -22 -46 -21 -64 2 -6 8 -18 14 -27 14 -9 0 -22 6 -29 13 -7 8 -30 17 -51
21 -20 4 -37 11 -37 16 0 6 -15 10 -32 10 -18 0 -45 6 -59 14 -14 7 -42 16
-62 20 -21 4 -37 11 -37 16 0 6 -13 10 -29 10 -16 0 -36 6 -44 14 -8 8 -31 18
-51 21 -20 4 -39 11 -42 16 -3 5 -20 9 -37 9 -18 0 -45 7 -61 15 -15 8 -34 15
-41 15 -14 0 -25 22 -25 52 0 10 -7 26 -15 35 -20 19 -14 37 13 41 11 2 26 10
32 18 7 8 23 14 35 14 13 0 25 7 29 15 3 8 11 15 18 15 7 0 29 25 48 55 19 30
41 54 49 55 8 0 78 1 156 3 162 2 175 8 175 75 0 51 -10 54 -157 45 l-113 -6
0 26 c0 14 7 32 15 41 8 8 15 23 15 34 0 11 7 25 15 32 8 7 15 21 15 32 0 10
7 21 15 24 8 4 15 17 15 29 0 13 7 30 15 39 8 8 15 21 15 28 0 7 6 22 14 33 7
11 16 32 20 48 3 15 11 27 16 27 6 0 10 14 10 30 0 17 6 33 14 36 7 3 16 23
20 45 3 21 11 39 16 39 6 0 10 7 10 15 0 17 11 20 26 5z m-8023 -106 c19 -16
46 -38 61 -48 14 -10 26 -27 26 -36 0 -10 7 -23 15 -30 8 -7 15 -20 15 -30 0
-10 7 -20 15 -24 8 -3 15 -15 15 -26 0 -12 7 -28 15 -36 8 -9 15 -28 15 -43 0
-15 5 -32 10 -37 6 -6 11 -27 13 -48 2 -44 10 -41 -149 -52 l-81 -5 -6 107
c-4 59 -7 155 -7 213 -1 73 -5 114 -15 131 -8 14 -14 34 -14 45 0 14 5 10 19
-16 10 -20 34 -49 53 -65z m3614 83 c4 -5 3 -11 -3 -15 -6 -4 -14 -27 -17 -52
-3 -24 -11 -46 -16 -48 -6 -2 -11 -15 -11 -29 0 -43 -23 -153 -32 -153 -4 0
-8 13 -8 29 0 16 -5 31 -11 33 -6 2 -13 35 -16 73 -3 39 -9 75 -13 80 -4 6
-10 30 -14 54 l-7 43 70 -4 c39 -2 73 -7 78 -11z m-3330 -240 c4 -8 26 -17 48
-20 22 -4 41 -11 43 -17 2 -5 25 -10 51 -10 41 0 49 -4 64 -29 10 -17 17 -50
17 -80 l0 -51 -39 0 c-22 0 -41 -4 -43 -9 -1 -5 -19 -12 -40 -16 -44 -8 -57 9
-65 91 -3 30 -9 54 -14 54 -4 0 -11 15 -15 34 -3 19 -12 37 -20 40 -16 6 -19
26 -4 26 5 0 13 -6 17 -13z m6063 -7 c0 -5 9 -10 19 -10 23 0 64 -48 54 -63
-8 -13 -363 -1 -377 13 -6 6 -20 10 -33 10 -13 0 -23 4 -23 9 0 13 64 23 68
11 5 -14 99 -13 104 1 2 6 36 14 76 17 40 2 72 9 72 13 0 5 9 9 20 9 11 0 20
-4 20 -10z m217 -21 c3 -10 9 -19 14 -19 5 0 9 -14 9 -31 0 -22 5 -32 20 -36
11 -3 20 -9 20 -14 0 -5 16 -9 35 -9 19 0 35 4 35 8 0 4 17 15 37 24 34 16 37
16 50 0 7 -9 16 -27 19 -39 3 -13 10 -23 14 -23 5 0 11 -13 15 -29 3 -16 13
-32 21 -35 8 -3 14 -12 14 -21 0 -8 4 -15 10 -15 5 0 13 -12 16 -27 4 -15 13
-34 21 -41 7 -7 13 -22 13 -33 0 -22 -28 -26 -36 -4 -4 8 -12 15 -19 15 -7 0
-18 7 -25 15 -7 8 -20 15 -30 15 -10 0 -23 7 -30 15 -7 8 -21 15 -31 15 -9 0
-24 7 -33 15 -8 8 -18 15 -21 15 -10 0 -85 76 -85 86 0 4 -24 31 -54 60 -75
74 -85 108 -31 111 19 1 29 -5 32 -18z m-1218 -6 c-8 -10 -26 -31 -41 -47 -15
-16 -30 -38 -34 -48 -3 -10 -10 -18 -15 -18 -5 0 -9 -6 -9 -14 0 -8 -6 -21
-14 -28 -7 -8 -17 -24 -20 -36 -12 -36 -41 -45 -84 -26 -20 10 -45 25 -54 33
-29 27 -42 37 -60 44 -10 3 -18 11 -18 17 0 5 -4 10 -9 10 -5 0 -22 5 -38 11
-22 8 -24 12 -13 19 8 6 32 10 52 10 20 0 38 5 40 11 2 5 24 13 48 16 25 2 59
11 77 19 17 8 54 14 82 14 28 0 51 4 51 9 0 9 22 16 59 20 11 1 11 -2 0 -16z
m374 -58 c25 -10 35 -20 31 -30 -4 -8 -10 -15 -15 -15 -5 0 -9 -24 -9 -54 0
-85 7 -81 -146 -78 l-136 3 93 94 c102 101 116 108 182 80z m-2905 -181 c5 -8
98 -13 286 -16 202 -3 281 -8 284 -16 2 -7 23 -12 48 -12 l44 0 0 -62 c0 -35
-4 -69 -8 -76 -5 -7 -26 -15 -48 -19 -21 -3 -42 -10 -45 -15 -3 -5 -23 -12
-45 -15 -21 -4 -45 -12 -52 -20 -7 -7 -24 -13 -37 -13 -12 0 -25 -7 -29 -15
-3 -8 -14 -15 -25 -15 -10 0 -32 -7 -47 -15 -16 -8 -37 -15 -47 -15 -10 0 -25
-7 -33 -15 -9 -8 -26 -15 -40 -15 -13 0 -24 -4 -24 -10 0 -5 -11 -12 -25 -16
-13 -3 -29 -12 -36 -20 -6 -8 -22 -14 -35 -14 -13 0 -24 -4 -24 -9 0 -5 -14
-13 -32 -16 -17 -4 -38 -14 -46 -21 -7 -8 -31 -14 -53 -14 -21 0 -39 -4 -39
-9 0 -6 -21 -13 -47 -17 -27 -4 -57 -13 -68 -20 -11 -8 -32 -14 -46 -14 -15 0
-29 -5 -31 -11 -2 -5 -24 -13 -48 -16 -25 -4 -51 -12 -58 -20 -7 -7 -27 -13
-43 -13 -17 0 -37 -7 -45 -15 -9 -8 -27 -15 -42 -15 -15 0 -36 -7 -46 -15 -11
-8 -34 -15 -52 -15 -18 0 -34 -5 -36 -11 -2 -6 -26 -13 -53 -16 -28 -3 -53
-10 -56 -16 -4 -5 -31 -12 -60 -15 -30 -3 -57 -9 -60 -14 -3 -5 -26 -12 -50
-15 -24 -4 -50 -12 -57 -20 -7 -7 -26 -13 -42 -13 -16 0 -30 -5 -32 -11 -2 -5
-22 -13 -46 -16 -23 -3 -42 -9 -42 -14 0 -4 -17 -11 -37 -15 -21 -4 -44 -13
-51 -21 -7 -7 -28 -13 -47 -13 -18 0 -35 -5 -37 -11 -2 -6 -25 -13 -51 -16
-26 -3 -47 -9 -47 -14 0 -4 -14 -11 -32 -14 -17 -4 -38 -14 -46 -21 -7 -8 -22
-14 -33 -14 -10 0 -19 -4 -19 -10 0 -5 -12 -13 -27 -16 -15 -4 -34 -13 -41
-21 -7 -7 -22 -13 -31 -13 -10 0 -24 -7 -31 -15 -7 -8 -21 -15 -31 -15 -11 0
-19 -4 -19 -10 0 -5 -11 -12 -25 -16 -14 -3 -25 -10 -25 -14 0 -4 -12 -11 -27
-15 -15 -3 -30 -11 -33 -16 -3 -5 -20 -12 -38 -15 l-32 -6 0 104 c0 69 -4 108
-12 116 -9 9 -15 76 -19 210 -7 197 -24 342 -41 353 -5 3 -12 26 -15 50 -3 24
-10 49 -14 55 -5 6 -12 33 -16 60 -3 27 -12 55 -20 62 -7 7 -13 28 -13 47 0
18 -6 35 -12 38 -49 17 71 22 565 25 347 1 570 6 582 12 40 20 931 23 943 4z
m-3613 -64 c11 -5 96 -10 188 -12 104 -2 171 -8 175 -14 4 -6 38 -14 76 -17
38 -4 73 -12 76 -18 4 -6 26 -9 50 -8 47 4 66 -15 38 -35 -8 -6 -18 -21 -22
-34 -4 -12 -12 -22 -17 -22 -5 0 -9 -8 -9 -19 0 -10 -7 -24 -15 -31 -8 -7 -15
-20 -15 -29 0 -9 -9 -24 -20 -34 -11 -9 -20 -24 -20 -32 0 -8 -4 -15 -9 -15
-5 0 -12 -8 -15 -17 -13 -35 -37 -73 -47 -73 -5 0 -9 -6 -9 -14 0 -11 -27 -38
-142 -142 -14 -13 -33 -24 -42 -24 -9 0 -16 -4 -16 -10 0 -5 -12 -13 -27 -16
-15 -4 -34 -13 -41 -21 -7 -7 -22 -13 -31 -13 -10 0 -24 -7 -31 -15 -7 -8 -21
-15 -32 -15 -11 0 -26 -7 -34 -15 -9 -8 -24 -15 -35 -15 -11 0 -27 -7 -35 -15
-9 -8 -28 -15 -44 -15 -16 0 -30 -5 -32 -11 -2 -5 -24 -13 -48 -16 -25 -4 -51
-12 -58 -20 -8 -8 -36 -13 -72 -13 -38 0 -60 -4 -62 -12 -4 -10 -60 -13 -238
-13 -178 0 -234 3 -237 13 -3 7 -22 12 -48 12 -25 0 -50 6 -59 15 -8 8 -20 15
-27 15 -25 0 -148 112 -149 136 0 7 -7 14 -15 18 -8 3 -15 12 -15 19 0 8 -7
20 -15 27 -8 7 -15 21 -15 31 0 11 -4 19 -10 19 -5 0 -12 11 -16 24 -3 14 -12
27 -20 30 -8 3 -14 16 -14 30 0 13 -7 26 -15 30 -10 3 -15 19 -15 45 0 23 -5
41 -12 43 -9 3 -14 37 -17 109 -2 62 -7 107 -14 111 -6 4 -9 9 -7 12 3 2 75 8
160 12 85 4 158 11 161 17 4 5 40 12 80 15 41 2 77 9 80 14 4 6 36 12 73 15
36 3 66 9 66 14 0 17 678 17 715 -1z m5203 -16 c2 -16 8 -31 13 -35 5 -3 12
-34 15 -70 4 -35 12 -67 18 -71 6 -4 13 -46 15 -95 2 -48 7 -91 13 -94 5 -3
12 -39 15 -80 3 -41 9 -78 13 -84 5 -5 11 -37 15 -70 4 -33 12 -66 18 -73 16
-21 0 -26 -27 -8 -14 9 -32 16 -40 16 -8 0 -21 6 -28 13 -7 8 -26 17 -41 21
-15 3 -27 11 -27 16 0 6 -9 10 -20 10 -11 0 -23 7 -26 15 -4 8 -15 15 -25 15
-11 0 -22 8 -25 18 -4 9 -12 31 -20 49 -8 17 -14 40 -14 51 0 31 -30 81 -77
127 -24 23 -43 47 -43 55 0 7 -11 23 -26 36 -21 20 -35 24 -94 24 -44 0 -70
-4 -72 -12 -5 -14 -36 13 -63 55 -9 15 -22 27 -27 27 -5 0 -16 7 -24 15 -14
13 -14 15 1 15 9 0 23 7 31 15 9 8 27 15 42 15 15 0 36 7 46 15 11 8 30 15 42
15 12 0 35 7 50 15 16 8 39 15 52 15 13 0 30 7 38 15 9 8 29 15 45 15 16 0 29
4 29 10 0 7 154 19 195 15 6 -1 12 -15 13 -31z m-3814 10 c3 -9 6 -28 6 -42 0
-15 7 -36 15 -46 8 -11 15 -37 15 -57 0 -21 5 -39 11 -41 5 -2 13 -24 16 -48
3 -25 10 -48 15 -51 5 -3 13 -48 18 -100 5 -52 13 -116 19 -144 5 -27 10 -122
10 -210 1 -89 5 -165 10 -170 5 -6 11 -59 13 -118 3 -114 -2 -126 -45 -127
-10 0 -25 -7 -33 -15 -9 -8 -29 -15 -45 -15 -17 0 -37 -7 -45 -15 -9 -8 -27
-15 -40 -15 -14 0 -32 -7 -40 -15 -10 -9 -34 -15 -64 -15 -30 0 -54 6 -64 15
-8 8 -22 15 -30 15 -20 0 -21 24 -1 44 8 8 15 24 15 35 0 11 7 26 15 35 8 8
15 26 15 40 0 13 6 31 13 38 8 7 16 40 20 73 3 33 11 61 17 63 14 5 14 572 0
572 -16 0 -12 94 6 128 8 18 19 32 24 32 4 0 11 11 14 25 4 14 11 25 16 25 6
0 10 9 10 20 0 11 7 23 15 26 8 4 15 15 15 26 0 11 8 22 20 25 11 3 20 9 20
14 0 15 17 10 24 -7z m4107 -5 c64 -2 122 -9 130 -15 8 -6 69 -14 137 -18 69
-3 131 -11 142 -18 24 -15 27 -66 5 -74 -8 -4 -15 -12 -15 -19 0 -8 -6 -20
-13 -27 -8 -7 -17 -26 -21 -41 -3 -15 -11 -27 -16 -27 -6 0 -10 -6 -10 -14 0
-8 -13 -30 -30 -48 -16 -18 -30 -38 -30 -46 0 -7 -6 -15 -14 -18 -8 -3 -17
-16 -20 -30 -4 -13 -11 -24 -16 -24 -6 0 -10 -8 -10 -19 0 -10 -6 -24 -14 -30
-7 -6 -16 -30 -19 -53 -3 -22 -10 -44 -15 -47 -5 -3 -12 -31 -14 -61 -3 -30
-11 -56 -17 -58 -7 -2 -11 -29 -11 -68 0 -66 -13 -82 -40 -49 -7 8 -23 15 -36
15 -30 0 -54 36 -54 81 0 21 -5 39 -12 41 -8 3 -14 33 -16 79 -3 41 -9 77 -14
80 -5 3 -12 39 -15 80 -3 41 -10 80 -16 87 -5 7 -12 47 -14 90 -3 42 -11 91
-19 109 -8 17 -14 49 -14 71 0 23 -4 44 -10 47 -5 3 -10 15 -10 27 0 15 3 18
13 10 6 -5 64 -12 128 -13z m2499 -49 c0 -10 3 -20 8 -22 15 -7 52 -68 52 -88
0 -11 4 -20 9 -20 13 0 21 -27 14 -46 -3 -8 -12 -13 -19 -10 -8 3 -14 1 -14
-4 0 -6 7 -10 15 -10 8 0 15 -4 15 -9 0 -5 8 -8 17 -7 12 0 19 -7 21 -21 4
-26 -15 -31 -24 -8 -4 8 -15 15 -25 15 -11 0 -22 7 -25 15 -4 8 -15 15 -25 15
-11 0 -22 7 -25 15 -4 8 -12 15 -19 15 -23 0 -45 30 -45 61 0 17 -7 37 -15 45
-8 9 -15 26 -15 40 0 13 -4 24 -10 24 -5 0 -10 6 -10 13 0 8 17 11 60 9 50 -3
60 -7 60 -22z m-9976 1 c7 -6 122 -13 266 -16 l253 -6 4 -110 c3 -67 10 -120
19 -137 7 -15 14 -40 14 -55 0 -16 7 -35 15 -43 8 -9 15 -26 15 -40 0 -13 4
-24 9 -24 5 0 12 -13 16 -29 3 -16 13 -32 21 -35 8 -3 14 -14 14 -25 0 -10 7
-21 15 -25 8 -3 15 -12 15 -21 0 -16 12 -34 43 -63 9 -9 17 -23 17 -30 0 -7 7
-21 15 -30 41 -46 81 -82 90 -82 11 -1 92 -60 81 -60 -4 0 -24 9 -46 20 -22
11 -46 20 -55 20 -8 0 -15 5 -15 10 0 6 -11 10 -24 10 -14 0 -31 7 -40 15 -8
8 -21 15 -30 15 -8 0 -21 6 -28 13 -7 8 -31 16 -52 20 -22 3 -42 10 -45 15 -3
5 -28 12 -56 16 -27 3 -54 11 -59 16 -6 6 -30 10 -56 10 -25 0 -56 6 -70 13
-18 9 -91 16 -225 20 -109 4 -201 11 -204 16 -3 4 -64 10 -134 13 -77 3 -133
10 -139 16 -7 7 -34 12 -60 12 -29 0 -63 8 -84 19 l-37 20 2 101 c1 57 -2 107
-8 114 -5 6 -13 83 -17 171 l-7 158 278 -6 c158 -4 282 -11 289 -16z m3030 3
c15 -14 22 -66 17 -122 -1 -12 5 -30 14 -39 14 -14 16 -54 13 -345 -2 -226 -6
-331 -14 -336 -6 -4 -14 -29 -17 -57 -3 -27 -10 -51 -16 -53 -6 -2 -11 -16
-11 -32 0 -16 -6 -35 -12 -42 -7 -7 -20 -33 -28 -57 -16 -49 -30 -59 -51 -38
-8 7 -39 17 -69 20 -30 4 -56 11 -58 17 -3 7 -150 10 -430 10 -337 0 -432 3
-453 13 -14 8 -45 17 -69 21 -24 4 -49 11 -55 15 -5 5 -39 11 -74 14 -35 3
-67 10 -70 15 -3 5 -26 12 -50 15 -24 3 -47 10 -50 15 -3 5 -45 12 -93 15 -48
4 -99 12 -113 17 -14 6 -50 10 -78 10 -29 0 -57 4 -64 8 -6 4 77 5 184 3 147
-2 197 0 203 9 4 7 39 15 81 18 41 2 77 9 80 14 3 5 26 12 50 15 24 4 50 12
57 20 7 7 27 13 43 13 16 0 29 4 29 10 0 5 17 12 37 16 21 4 44 13 51 21 7 7
22 13 31 13 10 0 24 7 31 15 7 8 23 15 35 15 13 0 25 7 29 15 3 8 17 15 31 15
14 0 25 4 25 9 0 5 12 14 28 20 49 21 77 40 120 81 24 22 45 40 47 40 6 0 75
70 75 75 0 3 8 14 18 24 31 36 42 50 42 59 0 5 9 19 20 32 11 13 20 29 20 37
0 7 5 13 10 13 6 0 10 7 10 15 0 9 7 18 15 21 8 4 15 14 15 24 0 10 7 23 15
30 8 7 15 21 15 32 0 10 6 21 14 24 8 3 17 16 20 30 4 13 11 24 16 24 6 0 10
9 10 19 0 11 6 26 13 33 8 7 17 26 21 42 5 22 10 26 19 17 13 -13 109 -15 123
-2 5 6 29 11 54 14 25 2 53 4 62 5 9 1 24 -5 32 -14z m6289 -10 c-3 -9 0 -20
8 -25 11 -7 14 -53 14 -241 0 -216 -1 -233 -17 -230 -10 2 -18 -1 -18 -6 0 -5
-18 -12 -40 -16 -39 -6 -40 -7 -40 -47 0 -42 17 -69 44 -69 9 0 16 -6 16 -12
0 -18 -63 -88 -79 -88 -7 0 -20 -7 -29 -16 -14 -14 -32 -16 -121 -11 -59 4
-107 11 -109 17 -2 5 -29 10 -60 10 -47 0 -64 5 -104 33 -27 17 -48 37 -48 43
0 7 -7 14 -15 18 -8 3 -15 16 -15 30 0 13 -7 26 -15 30 -8 3 -15 13 -15 21 0
9 -7 23 -15 31 -8 9 -15 27 -15 42 l1 27 23 -26 c13 -15 34 -30 47 -34 13 -4
27 -13 31 -19 12 -19 266 -12 303 8 17 9 37 16 46 16 9 0 19 7 23 15 3 8 12
15 21 15 8 0 15 5 15 10 0 6 7 10 15 10 8 0 15 7 15 15 0 9 6 18 14 21 8 3 17
16 20 30 4 13 11 24 16 24 6 0 10 15 10 33 0 18 7 42 15 53 11 14 14 51 15
151 0 106 3 135 16 147 18 19 36 12 27 -10z m-823 -19 c0 -8 -4 -15 -9 -15 -5
0 -12 -26 -16 -57 -7 -58 -7 -58 -25 -35 -10 12 -22 22 -27 22 -5 0 -16 9 -26
20 -9 11 -24 20 -32 20 -8 0 -15 5 -15 10 0 6 -16 10 -36 10 -21 0 -47 8 -61
20 l-26 20 137 0 c114 0 136 -2 136 -15z m473 -14 c87 -1 137 2 137 9 0 12 20
13 39 1 16 -10 17 -169 0 -185 -5 -6 -9 -31 -9 -57 0 -29 -6 -53 -15 -63 -8
-8 -15 -21 -15 -28 0 -15 -53 -42 -124 -63 -66 -20 -180 -20 -200 0 -8 8 -21
15 -30 15 -13 0 -14 22 -13 152 1 111 5 152 15 156 6 2 12 9 12 16 0 20 44 64
55 56 6 -5 72 -9 148 -9z m-916 -118 c-12 -106 -3 -224 17 -235 9 -5 16 -20
16 -33 0 -14 4 -25 10 -25 5 0 12 -15 16 -34 3 -19 12 -37 20 -40 8 -3 14 -10
14 -16 0 -6 6 -18 13 -25 6 -8 32 -37 57 -66 25 -28 66 -73 93 -99 26 -26 47
-51 47 -54 0 -10 57 -66 67 -66 12 0 65 -51 60 -57 -3 -2 -14 0 -25 6 -12 6
-66 11 -121 11 -75 0 -103 4 -115 15 -10 11 -37 15 -98 15 -46 0 -112 5 -148
12 -36 6 -101 13 -145 17 l-80 6 0 73 c0 43 5 76 11 80 6 4 13 36 16 71 3 37
10 67 16 69 7 2 12 19 12 38 0 22 6 37 15 40 8 4 15 13 15 20 0 15 39 76 53
82 4 2 7 10 7 18 0 8 7 17 15 20 8 4 15 13 15 20 0 8 7 17 15 20 8 4 15 14 15
24 0 10 7 25 15 34 8 8 15 21 15 30 0 8 5 18 11 22 6 3 19 26 30 51 10 24 23
42 27 39 5 -3 4 -40 -1 -83z m1553 77 c0 -6 11 -15 25 -20 14 -5 25 -14 25
-20 0 -5 8 -10 18 -10 10 0 25 -8 34 -17 9 -10 32 -33 52 -52 33 -31 36 -38
36 -90 l0 -57 -45 -19 c-25 -11 -45 -23 -45 -27 0 -3 -13 -9 -29 -13 -16 -3
-32 -13 -35 -21 -7 -19 -26 -18 -26 1 0 8 5 15 10 15 13 0 13 83 -1 97 -6 6
-13 54 -16 107 -4 62 -11 100 -19 107 -18 15 -18 29 1 29 8 0 15 -5 15 -10z
m-3110 -97 l48 -47 -39 -38 c-21 -20 -41 -49 -45 -63 -3 -14 -10 -25 -15 -25
-12 0 -12 -43 0 -55 5 -6 11 -42 14 -81 l6 -72 -28 -4 -28 -4 -7 95 c-11 179
-8 308 10 325 23 23 31 21 84 -31z m1744 32 c8 -8 30 -15 49 -15 19 0 40 -7
47 -15 7 -8 18 -15 25 -15 7 0 18 -7 25 -15 14 -17 60 -21 60 -5 0 6 5 10 11
10 7 0 9 -15 6 -42 -5 -49 14 -218 25 -218 4 0 10 -16 14 -37 4 -20 13 -48 20
-62 8 -14 14 -31 14 -37 0 -7 7 -14 15 -18 8 -3 15 -17 15 -31 0 -14 5 -25 10
-25 6 0 10 -7 10 -15 0 -8 9 -24 20 -35 11 -11 20 -24 20 -30 0 -5 3 -10 8
-10 4 0 29 -20 56 -44 28 -26 63 -47 83 -51 18 -3 33 -10 33 -14 0 -4 39 -12
88 -16 192 -18 210 -20 179 -29 -39 -12 -277 -3 -285 11 -4 5 -29 13 -57 16
-27 3 -51 10 -53 16 -2 6 -10 11 -17 11 -7 0 -27 14 -43 30 -17 17 -33 30 -37
30 -11 0 -180 162 -235 226 -65 77 -120 155 -120 174 0 11 -4 20 -9 20 -5 0
-12 13 -16 30 -4 16 -11 32 -16 35 -12 8 -12 125 1 125 6 0 10 14 10 30 0 33
19 40 44 15z m-1985 -383 c2 -209 7 -332 14 -340 6 -7 12 -61 15 -120 3 -59 8
-109 13 -112 4 -3 11 -18 14 -33 l7 -27 -76 0 c-47 0 -83 -5 -92 -12 -41 -34
-84 -81 -84 -93 0 -7 -5 -15 -11 -17 -8 -3 -12 -35 -12 -91 -1 -90 -6 -99 -42
-73 -13 9 -61 15 -137 18 -73 3 -122 9 -132 17 -8 7 -32 12 -53 11 -107 -5
-182 1 -197 15 -8 8 -32 15 -55 15 -22 0 -46 6 -53 14 -8 7 -35 16 -61 20 -26
4 -47 11 -47 15 0 5 -29 12 -65 16 -36 3 -65 11 -65 16 0 14 -283 12 -298 -3
-7 -7 -56 -13 -124 -15 -62 -3 -124 -10 -137 -16 -33 -17 -498 -17 -532 0 -13
6 -60 14 -104 17 -44 2 -81 10 -83 15 -2 7 -40 11 -98 11 l-94 0 0 65 c0 62 1
65 24 65 13 0 29 7 36 15 7 8 25 15 41 15 16 0 29 3 29 8 0 4 24 18 53 32 28
13 56 30 60 37 4 7 16 13 26 13 10 0 24 7 31 15 7 8 22 15 34 15 11 0 30 7 40
15 11 8 28 15 38 15 10 0 18 4 18 10 0 5 12 13 27 16 15 4 34 13 41 21 7 7 26
13 42 13 16 0 30 5 32 11 2 5 24 13 48 16 25 4 51 12 58 20 7 7 26 13 42 13
16 0 30 5 32 11 2 5 22 13 46 16 23 3 42 9 42 14 0 5 18 12 40 15 22 4 40 10
40 15 0 4 17 11 38 14 20 4 51 13 69 21 17 8 47 14 67 14 20 0 36 4 36 9 0 6
21 13 48 17 26 4 56 13 67 20 11 8 36 14 57 14 21 0 38 4 38 9 0 5 18 12 41
16 22 4 53 13 67 21 15 8 37 14 49 14 12 0 23 5 25 11 2 5 24 13 48 16 25 3
48 10 51 15 3 5 25 12 48 15 22 3 41 9 41 14 0 4 17 11 38 14 20 3 49 13 64
21 14 8 42 14 62 14 20 0 36 4 36 9 0 5 16 12 36 16 20 3 43 13 51 21 8 8 25
14 37 14 13 0 29 7 36 15 7 8 21 15 31 15 11 0 19 4 19 10 0 5 12 13 27 16 15
4 34 13 41 21 7 7 25 13 38 13 14 0 32 7 40 15 9 8 29 15 45 15 16 0 29 4 29
9 0 5 14 12 30 16 17 4 30 10 30 15 0 5 15 12 33 15 17 4 41 14 52 21 11 8 32
14 47 14 16 0 28 5 28 10 0 6 6 10 13 10 9 0 13 -74 16 -328z m351 228 c0 -6
16 -26 35 -46 19 -19 35 -37 35 -40 0 -3 16 -20 36 -37 20 -18 59 -53 87 -79
28 -27 57 -48 64 -48 8 0 16 -7 19 -15 4 -8 11 -15 17 -15 6 0 19 -7 29 -17
24 -21 26 -130 3 -139 -8 -4 -15 -12 -15 -19 0 -6 -9 -20 -19 -29 -18 -16 -20
-16 -35 6 -9 12 -16 26 -16 31 0 5 -13 26 -30 47 -16 21 -30 41 -30 46 0 11
-62 64 -76 64 -7 0 -20 7 -29 17 -11 10 -37 17 -73 19 -36 2 -58 7 -61 16 -2
7 -9 16 -15 20 -14 9 -10 162 4 166 6 2 10 9 10 14 0 15 32 47 48 47 6 1 12
-4 12 -9z m3382 -54 c8 -7 24 -17 36 -20 12 -4 22 -12 22 -17 0 -5 11 -9 24
-9 14 0 31 -7 40 -15 8 -8 22 -15 30 -15 9 0 16 -8 16 -18 0 -10 5 -23 12 -30
7 -7 14 -51 16 -110 2 -53 9 -108 15 -121 16 -33 17 -558 1 -569 -6 -4 -14
-17 -18 -29 -4 -13 -12 -23 -17 -23 -5 0 -9 -7 -9 -15 0 -8 -9 -32 -20 -52
-11 -21 -20 -43 -20 -50 0 -6 -3 -13 -7 -15 -5 -1 -19 -25 -33 -51 -46 -88
-51 -97 -61 -97 -5 0 -9 -6 -9 -13 0 -7 -8 -20 -17 -28 -10 -9 -25 -26 -33
-38 -8 -13 -27 -37 -42 -55 -15 -17 -28 -35 -28 -39 0 -10 -60 1 -77 15 -7 5
-152 8 -361 6 -193 -2 -348 0 -345 5 2 4 10 7 17 7 8 0 27 7 42 15 16 8 36 15
44 15 8 0 24 7 34 15 11 8 30 15 43 15 13 0 23 5 23 10 0 6 10 15 23 20 33 15
61 33 70 48 4 6 15 12 22 12 8 0 23 8 34 18 53 49 80 72 86 72 10 0 30 23 38
43 3 9 11 17 17 17 5 0 10 5 10 10 0 6 13 24 30 40 16 15 37 44 48 63 10 19
25 42 33 50 27 31 39 46 39 52 0 8 44 69 53 73 4 2 7 16 7 32 0 16 7 35 15 44
8 8 15 24 15 35 0 11 6 26 13 33 8 7 16 33 20 57 3 24 10 47 15 50 5 3 12 28
14 55 3 27 10 51 15 55 6 3 13 24 16 46 4 22 11 41 17 43 13 5 14 339 0 347
-5 3 -10 10 -10 16 0 14 27 11 42 -5z m-194 -241 c-2 -84 -7 -138 -14 -143 -6
-4 -14 -25 -17 -46 -4 -22 -10 -42 -15 -45 -5 -3 -12 -28 -14 -55 -3 -27 -10
-51 -16 -55 -5 -3 -13 -21 -17 -38 -3 -18 -11 -33 -16 -33 -5 0 -9 -13 -9 -29
0 -16 -7 -36 -15 -45 -8 -8 -15 -21 -15 -28 0 -7 -8 -21 -17 -30 -28 -26 -43
-46 -43 -58 0 -6 -6 -13 -14 -16 -8 -3 -17 -16 -20 -30 -4 -13 -11 -24 -16
-24 -6 0 -10 -5 -10 -11 0 -10 -23 -38 -84 -101 -16 -17 -48 -42 -70 -56 -23
-15 -45 -32 -49 -39 -4 -7 -13 -13 -19 -13 -5 0 -30 -13 -55 -30 -24 -16 -54
-30 -66 -30 -12 0 -31 -7 -41 -15 -11 -8 -30 -15 -43 -15 -13 0 -23 -4 -23
-10 0 -5 -11 -12 -25 -16 -13 -3 -29 -12 -36 -20 -6 -8 -18 -14 -26 -14 -8 0
-21 -7 -29 -15 -9 -8 -27 -15 -40 -15 -14 0 -32 -7 -40 -15 -10 -9 -34 -15
-64 -15 -30 0 -50 -5 -52 -12 -7 -20 -290 -24 -309 -5 -8 7 -34 16 -59 20 -24
3 -46 11 -48 16 -2 6 -14 11 -27 11 -13 0 -30 7 -39 15 -8 8 -23 15 -33 15
-11 0 -54 34 -96 75 -42 41 -81 75 -87 75 -6 0 -13 7 -16 15 -4 8 -10 15 -14
15 -5 0 -39 29 -77 65 -37 36 -87 84 -110 106 -32 30 -43 48 -43 70 0 17 -7
37 -15 45 -9 9 -15 34 -15 59 0 24 -4 45 -9 47 -5 2 -12 29 -16 61 -6 49 -5
57 9 57 9 0 16 -4 16 -9 0 -5 83 -12 185 -16 102 -4 188 -11 191 -16 3 -5 100
-9 216 -9 159 0 218 -3 241 -14 18 -8 57 -17 87 -20 30 -3 56 -10 58 -16 2 -6
74 -10 194 -10 155 0 192 3 204 15 9 8 27 15 40 15 14 0 32 7 40 15 9 8 29 15
45 15 16 0 29 4 29 9 0 5 14 13 32 16 17 4 38 14 46 21 7 8 20 14 28 14 8 0
14 5 14 10 0 6 8 14 18 17 22 9 72 58 72 73 0 6 6 13 14 16 8 3 18 19 21 35 4
16 11 29 16 29 5 0 9 13 9 28 0 16 7 37 15 48 8 11 14 41 15 72 0 41 4 54 18
59 9 4 23 13 30 20 7 7 20 13 28 13 8 0 14 5 14 10 0 6 6 10 14 10 8 0 24 9
37 20 48 39 51 31 47 -115z m618 90 c10 -8 31 -15 45 -15 15 0 32 -6 38 -14 7
-8 27 -17 46 -20 19 -4 35 -11 35 -15 0 -5 19 -11 42 -14 24 -3 44 -11 46 -16
2 -6 16 -11 30 -11 15 0 40 -7 56 -15 15 -8 36 -15 46 -15 10 0 23 -7 30 -15
7 -8 21 -15 32 -15 10 0 21 -7 24 -15 4 -8 16 -15 28 -15 13 0 25 -3 29 -6 7
-8 -13 -54 -25 -54 -4 0 -8 -6 -8 -14 0 -8 -7 -21 -15 -29 -8 -8 -24 -33 -36
-56 -11 -22 -25 -41 -30 -41 -5 0 -9 -9 -9 -19 0 -11 -7 -26 -15 -35 -8 -8
-15 -22 -15 -31 0 -8 -7 -18 -15 -21 -8 -4 -15 -12 -15 -20 0 -7 -6 -17 -14
-21 -7 -4 -22 -24 -32 -43 -18 -33 -28 -48 -61 -85 -7 -7 -13 -20 -13 -27 0
-7 -8 -21 -17 -30 -28 -26 -43 -46 -43 -58 0 -6 -7 -13 -15 -16 -8 -4 -15 -11
-15 -18 0 -6 -20 -31 -45 -56 -24 -25 -44 -51 -45 -58 0 -7 -7 -15 -15 -18 -8
-4 -15 -10 -15 -14 0 -5 -35 -44 -77 -88 -43 -44 -87 -91 -99 -104 -54 -60
-143 -140 -154 -136 -11 3 -6 11 56 80 13 15 24 30 24 33 0 9 44 69 53 73 4 2
7 12 7 22 0 10 6 25 13 32 8 7 17 26 21 41 3 15 11 27 16 27 6 0 10 9 10 19 0
11 6 26 13 33 8 7 17 26 21 41 3 15 11 27 16 27 6 0 10 8 10 18 0 10 7 27 15
38 12 15 14 63 15 249 0 158 -4 235 -11 242 -6 6 -14 53 -17 105 -2 51 -8 95
-13 98 -4 3 -11 33 -15 68 l-7 62 35 0 c19 0 43 -7 54 -15z m-10857 -183 c3
-5 65 -12 136 -16 72 -3 132 -11 133 -16 2 -6 45 -10 95 -11 51 0 133 -5 182
-10 50 -5 132 -13 183 -17 52 -5 99 -15 105 -21 6 -6 32 -11 58 -11 26 0 54
-6 61 -13 7 -8 33 -16 58 -20 24 -3 46 -11 48 -16 2 -6 15 -11 28 -11 14 0 27
-6 30 -14 3 -8 19 -18 35 -21 16 -4 31 -11 34 -16 4 -5 21 -9 40 -9 18 0 40
-7 49 -15 8 -8 24 -15 35 -15 11 0 26 -6 33 -13 7 -8 30 -17 51 -21 20 -4 37
-11 37 -15 0 -5 23 -11 51 -13 28 -3 54 -10 58 -15 3 -6 37 -13 76 -17 38 -4
72 -11 75 -15 3 -4 45 -11 95 -15 49 -3 94 -11 99 -16 6 -6 31 -10 57 -10 29
0 53 -6 63 -15 8 -8 27 -15 43 -15 15 0 41 -7 57 -15 15 -8 49 -15 75 -15 26
0 55 -6 66 -14 11 -7 50 -17 88 -20 37 -4 67 -12 67 -16 0 -5 188 -10 422 -12
326 -2 422 -6 426 -15 2 -8 23 -13 58 -13 40 0 54 -4 54 -14 0 -8 -4 -18 -10
-21 -5 -3 -10 -16 -10 -28 0 -38 -28 -67 -63 -67 -18 0 -41 -7 -51 -15 -11 -8
-33 -15 -49 -15 -15 0 -35 -7 -43 -15 -9 -8 -33 -15 -54 -15 -21 0 -40 -5 -42
-11 -2 -5 -22 -13 -46 -16 -41 -6 -42 -6 -42 -44 l0 -39 53 0 c29 0 57 4 63 9
10 10 115 34 121 27 2 -2 -13 -14 -34 -27 -21 -12 -50 -35 -65 -51 -15 -15
-29 -28 -32 -28 -10 0 -46 -39 -46 -50 0 -5 -4 -10 -8 -10 -5 0 -22 -13 -38
-30 -16 -16 -36 -30 -45 -30 -9 0 -19 -7 -23 -15 -3 -8 -12 -15 -21 -15 -9 0
-21 -5 -28 -10 -48 -41 -62 -50 -74 -50 -7 0 -13 -4 -13 -10 0 -5 -12 -13 -27
-16 -16 -4 -37 -13 -48 -20 -11 -8 -26 -14 -33 -14 -7 0 -20 -7 -28 -15 -9 -8
-26 -15 -40 -15 -13 0 -24 -4 -24 -10 0 -5 -17 -12 -37 -16 -21 -4 -44 -13
-51 -21 -7 -7 -24 -13 -37 -13 -12 0 -25 -7 -29 -15 -3 -8 -16 -15 -30 -15
-13 0 -26 -5 -28 -11 -2 -5 -22 -13 -46 -16 -23 -3 -42 -9 -42 -14 0 -4 -17
-11 -37 -15 -21 -4 -44 -13 -51 -21 -8 -7 -35 -13 -62 -13 -30 0 -50 -5 -53
-12 -5 -18 -657 -19 -678 -2 -8 6 -49 14 -92 16 -43 3 -83 10 -90 17 -6 6 -24
11 -40 11 -16 0 -43 6 -60 14 -18 8 -54 16 -82 19 -27 3 -51 10 -53 16 -2 6
-14 11 -27 11 -13 0 -30 7 -39 15 -8 8 -24 15 -35 15 -11 0 -26 7 -35 15 -8 8
-21 15 -30 15 -8 0 -19 6 -23 13 -4 8 -23 22 -42 33 -42 23 -73 51 -204 182
-57 56 -108 102 -113 102 -5 0 -17 8 -25 18 -9 9 -39 37 -69 62 -29 25 -57 50
-62 55 -36 42 -48 60 -48 72 0 7 -4 13 -10 13 -5 0 -12 11 -16 24 -3 14 -12
27 -20 30 -8 3 -14 16 -14 30 0 13 -7 26 -15 30 -8 3 -15 16 -15 30 0 13 -7
26 -15 30 -8 3 -15 16 -15 30 0 13 -7 26 -15 30 -9 3 -15 18 -15 36 0 17 -7
38 -15 46 -8 9 -15 28 -15 44 0 16 -4 30 -8 32 -17 7 -52 90 -52 122 0 19 -5
36 -12 38 -6 2 -13 31 -16 63 -3 33 -11 65 -18 73 -25 25 -16 35 27 29 23 -3
45 -10 48 -15z m7057 4 c3 -8 16 -17 29 -20 13 -3 27 -15 30 -26 3 -11 11 -20
16 -20 5 0 13 -8 16 -17 4 -10 13 -24 20 -31 7 -7 13 -22 13 -32 0 -10 7 -20
15 -24 8 -3 15 -17 15 -31 0 -14 5 -25 10 -25 16 0 12 -28 -7 -50 -15 -17 -30
-20 -113 -20 l-95 0 -68 63 c-64 59 -67 64 -67 108 0 25 -5 50 -11 56 -16 16
7 46 50 66 46 21 140 23 147 3z m504 -36 c0 -4 16 -11 35 -14 19 -4 35 -11 35
-16 0 -6 11 -10 24 -10 14 0 31 -7 40 -15 8 -8 24 -15 35 -15 11 0 26 -7 35
-15 8 -8 22 -15 30 -15 9 0 16 -8 16 -19 0 -11 5 -21 11 -23 5 -2 13 -24 16
-48 4 -25 12 -51 20 -58 7 -7 13 -24 13 -38 0 -13 4 -24 9 -24 5 0 13 -14 16
-31 7 -30 37 -72 78 -108 9 -8 17 -21 17 -28 0 -7 5 -13 10 -13 6 0 14 -8 17
-17 9 -23 29 -43 43 -43 6 0 13 -7 16 -15 4 -8 12 -15 20 -15 8 0 14 -7 14
-15 0 -8 5 -15 10 -15 6 0 14 -8 17 -17 4 -10 45 -58 92 -106 47 -48 100 -102
117 -120 55 -58 123 -117 134 -117 6 0 13 -7 16 -15 4 -8 12 -15 19 -15 7 0
18 -7 25 -15 11 -13 6 -15 -34 -15 -25 0 -46 4 -46 9 0 4 -59 10 -131 13 -73
3 -134 9 -137 15 -4 6 -17 14 -30 17 -15 5 -25 18 -29 37 -4 19 -12 29 -24 29
-10 0 -21 5 -24 10 -9 15 -188 13 -204 -2 -15 -16 -143 -17 -163 -1 -7 6 -51
13 -97 16 -47 4 -89 11 -95 17 -6 6 -69 10 -153 10 -92 0 -143 4 -143 10 0 6
6 13 14 16 8 3 17 16 20 30 4 13 11 24 16 24 6 0 10 9 10 20 0 11 6 23 14 26
8 3 18 19 21 35 4 16 10 29 15 29 4 0 11 24 14 52 4 29 12 56 18 59 7 5 12 65
12 176 l1 168 34 48 c19 26 37 47 41 47 13 0 50 88 50 118 0 30 1 31 25 20 14
-6 25 -14 25 -18z m4020 -80 c0 -6 11 -15 25 -20 14 -5 25 -14 25 -20 0 -5 9
-10 20 -10 10 0 23 -6 27 -13 4 -6 43 -30 86 -52 84 -43 90 -46 154 -88 24
-15 46 -27 51 -27 4 0 15 -8 24 -17 26 -28 46 -43 58 -43 6 0 13 -6 16 -14 3
-8 16 -17 30 -20 13 -4 24 -11 24 -16 0 -6 7 -10 15 -10 9 0 18 -7 21 -15 4
-8 13 -15 20 -15 8 0 17 -7 20 -15 4 -8 15 -15 25 -15 11 0 22 -7 25 -15 4 -8
12 -15 19 -15 8 0 20 -6 27 -14 8 -7 29 -17 46 -21 18 -3 32 -10 32 -15 0 -4
18 -10 40 -14 22 -3 40 -10 40 -15 0 -5 19 -11 41 -14 23 -3 45 -10 48 -15 3
-5 29 -12 56 -16 28 -3 52 -11 53 -16 2 -6 21 -10 42 -10 21 0 45 -6 52 -14 8
-7 29 -17 46 -21 18 -3 32 -11 32 -16 0 -5 13 -9 28 -9 16 0 37 -7 48 -15 10
-8 31 -15 46 -15 15 0 33 -7 42 -15 8 -8 28 -15 45 -15 16 0 36 -6 44 -14 8
-8 31 -18 51 -21 20 -4 36 -11 36 -15 0 -4 27 -10 61 -12 33 -2 64 -9 67 -15
4 -5 25 -13 46 -16 22 -4 42 -10 45 -15 3 -5 26 -12 51 -15 24 -3 46 -11 48
-16 2 -6 15 -11 28 -11 14 0 27 -6 30 -14 3 -7 23 -16 45 -20 21 -3 39 -10 39
-15 0 -5 16 -12 35 -15 19 -4 35 -11 35 -16 0 -6 13 -10 29 -10 16 0 36 -7 45
-15 8 -8 23 -15 33 -15 33 0 62 -12 67 -27 8 -21 -4 -37 -17 -24 -7 7 -62 11
-147 11 l-136 0 -59 60 c-33 33 -65 60 -71 60 -6 0 -17 6 -23 14 -6 7 -29 16
-51 20 -22 3 -40 11 -40 16 0 6 -11 10 -24 10 -14 0 -31 7 -40 15 -11 12 -41
15 -135 15 -67 0 -121 -4 -121 -9 0 -5 -12 -12 -26 -15 -15 -4 -32 -12 -39
-19 -7 -7 -22 -19 -34 -27 -11 -8 -21 -20 -21 -28 0 -7 -7 -15 -15 -18 -8 -4
-15 -13 -15 -21 0 -13 -10 -14 -57 -8 -32 4 -59 11 -61 16 -5 13 -675 12 -688
-1 -6 -6 -48 -13 -95 -17 -46 -3 -87 -10 -90 -14 -3 -5 -41 -12 -85 -15 -43
-4 -81 -11 -84 -15 -3 -4 -202 -9 -442 -11 l-437 -3 27 29 c15 16 47 50 72 76
102 107 130 139 130 150 0 6 7 13 15 16 8 4 15 10 15 15 0 5 15 24 33 44 49
52 57 63 57 75 0 6 7 13 15 16 8 4 15 11 15 18 0 6 8 19 18 28 29 28 42 46 42
60 0 8 8 21 18 30 30 28 42 47 42 62 0 8 6 19 13 23 17 11 87 117 87 131 0 7
4 12 9 12 5 0 12 11 15 25 4 14 11 25 16 25 6 0 10 9 10 20 0 11 7 23 15 26 8
4 15 14 15 25 0 10 6 22 13 26 7 4 21 27 32 50 18 39 45 58 45 33z m-4619
-313 c9 -12 243 -10 247 3 2 5 11 10 19 10 13 0 15 -10 10 -57 -3 -32 -11 -59
-17 -61 -5 -2 -10 -25 -10 -52 0 -28 -6 -54 -14 -62 -7 -8 -17 -25 -21 -38 -4
-14 -10 -27 -14 -30 -3 -3 -17 -27 -31 -54 -33 -65 -50 -70 -50 -17 0 23 -4
41 -10 41 -5 0 -12 16 -16 35 -3 19 -12 39 -20 46 -8 6 -14 18 -14 25 0 19
-48 72 -71 79 -13 4 -19 16 -19 36 0 16 -4 29 -10 29 -5 0 -12 17 -15 38 -3
20 -8 47 -11 60 l-5 23 33 -23 c18 -13 36 -27 39 -31z m-191 -189 c12 -4 16
-29 18 -113 l4 -108 -58 5 c-32 3 -60 10 -62 16 -2 7 -12 12 -23 12 -18 0 -20
6 -17 93 l3 92 45 3 c25 2 49 7 54 13 6 5 12 5 15 1 3 -5 13 -11 21 -14z m370
-407 c0 -5 89 -10 199 -13 130 -2 203 -7 212 -15 8 -6 48 -13 89 -15 59 -2 75
-6 78 -19 2 -9 -3 -23 -11 -31 -8 -7 -17 -39 -21 -71 -4 -31 -12 -57 -17 -57
-14 0 -11 -68 4 -86 37 -45 95 -96 114 -101 13 -3 23 -9 23 -14 0 -5 67 -9
149 -9 120 0 151 3 161 15 7 8 19 15 27 15 17 0 79 47 132 100 30 30 36 42 38
85 l1 50 34 -3 c18 -2 38 -7 43 -12 6 -4 91 -10 190 -13 111 -4 181 -10 183
-17 2 -5 10 -10 18 -10 8 0 17 -7 20 -15 4 -8 14 -15 24 -15 10 0 25 -7 34
-15 8 -8 22 -15 31 -15 18 0 235 -214 235 -231 0 -5 5 -9 10 -9 6 0 19 -8 29
-17 38 -35 50 -43 64 -43 7 0 22 -7 33 -15 10 -8 29 -15 41 -15 12 0 28 -6 35
-13 7 -8 30 -17 51 -21 20 -4 37 -11 37 -16 0 -6 19 -10 43 -10 23 0 55 -7 72
-16 21 -11 35 -12 50 -5 11 5 40 12 65 15 l45 5 -24 -20 c-13 -10 -31 -19 -41
-19 -10 0 -20 -7 -24 -15 -3 -8 -10 -15 -15 -15 -6 0 -26 -16 -46 -35 -30 -31
-35 -42 -35 -85 0 -46 2 -49 30 -55 31 -7 42 -35 15 -35 -9 0 -32 -15 -51 -32
-34 -31 -36 -36 -32 -80 4 -34 12 -53 29 -67 25 -21 89 -29 89 -11 0 6 7 10
15 10 8 0 23 9 32 20 10 11 25 20 35 20 9 0 19 4 22 9 3 5 25 19 48 31 24 12
47 28 51 36 4 8 15 14 22 14 8 0 15 5 15 10 0 6 10 15 23 20 33 15 61 33 70
48 4 6 15 12 22 12 8 0 23 8 34 18 52 49 80 72 86 72 6 0 12 4 56 43 14 12 41
33 59 47 58 42 398 382 433 432 l32 48 540 0 c394 0 544 3 552 11 7 7 47 14
90 17 43 2 84 10 92 16 8 6 65 12 130 14 64 2 120 8 126 13 13 13 465 12 465
-1 0 -5 25 -10 55 -10 56 0 67 -8 40 -30 -8 -7 -15 -25 -15 -41 0 -15 -7 -35
-16 -44 -14 -14 -17 -45 -18 -206 -1 -116 3 -192 9 -197 13 -9 55 -69 55 -78
0 -11 86 -94 98 -94 6 0 18 -8 28 -17 15 -16 39 -18 191 -18 156 0 175 2 184
18 6 9 20 17 33 17 13 0 29 7 36 15 7 8 17 15 23 15 9 0 -5 -19 -41 -53 -51
-47 -122 -123 -122 -129 0 -5 -4 -8 -10 -8 -5 0 -10 6 -10 14 0 8 -7 16 -15
20 -8 3 -15 10 -15 16 0 6 -6 18 -14 26 -21 20 -152 19 -172 -1 -10 -9 -34
-15 -65 -15 -32 0 -56 -6 -65 -15 -9 -8 -26 -15 -40 -15 -13 0 -24 -4 -24 -9
0 -5 -14 -13 -32 -16 -17 -4 -38 -14 -46 -21 -7 -8 -20 -14 -28 -14 -15 0 -27
-8 -65 -42 -10 -10 -23 -18 -29 -18 -5 0 -10 -5 -10 -10 0 -6 -8 -14 -17 -17
-23 -9 -43 -29 -43 -43 0 -6 -6 -13 -14 -16 -8 -3 -18 -19 -21 -35 -4 -16 -11
-29 -16 -29 -5 0 -9 -42 -9 -94 0 -74 3 -95 15 -100 8 -3 15 -10 15 -16 0 -13
32 -45 53 -53 9 -3 17 -11 17 -17 0 -5 9 -10 19 -10 11 0 26 -7 35 -15 9 -9
33 -15 60 -15 54 0 58 -9 16 -34 -17 -9 -43 -28 -58 -42 -35 -31 -41 -36 -77
-58 -31 -19 -53 -38 -83 -68 -9 -10 -22 -18 -28 -18 -7 0 -14 -7 -18 -15 -3
-8 -14 -15 -25 -15 -10 0 -21 -7 -25 -15 -3 -8 -12 -15 -21 -15 -8 0 -15 -4
-15 -10 0 -5 -6 -10 -14 -10 -7 0 -25 -9 -39 -20 -14 -11 -32 -20 -40 -20 -8
0 -17 -7 -21 -15 -3 -8 -15 -15 -26 -15 -11 0 -20 -4 -20 -10 0 -5 -12 -13
-27 -16 -15 -4 -34 -13 -41 -21 -7 -7 -22 -13 -31 -13 -10 0 -24 -7 -31 -15
-7 -8 -20 -15 -30 -15 -10 0 -23 -7 -30 -15 -7 -8 -19 -15 -27 -15 -8 0 -21
-7 -29 -15 -9 -8 -24 -15 -35 -15 -10 0 -19 -4 -19 -9 0 -5 -10 -13 -22 -17
-12 -4 -33 -20 -47 -35 -14 -16 -31 -29 -37 -29 -6 0 -17 -7 -24 -15 -7 -8
-27 -15 -45 -15 -19 0 -35 -5 -37 -11 -2 -5 -22 -13 -46 -16 -23 -3 -42 -9
-42 -14 0 -4 -17 -11 -37 -15 -21 -4 -47 -13 -58 -20 -11 -8 -28 -14 -38 -14
-10 0 -25 -7 -33 -15 -9 -8 -28 -15 -44 -15 -16 0 -30 -5 -32 -11 -2 -5 -24
-13 -48 -16 -25 -4 -51 -12 -58 -20 -7 -7 -25 -13 -40 -13 -15 0 -36 -7 -46
-15 -11 -8 -31 -15 -44 -15 -13 0 -30 -7 -38 -15 -9 -9 -34 -15 -59 -15 -24 0
-45 -5 -47 -12 -2 -6 -31 -13 -64 -16 -32 -3 -61 -9 -64 -13 -16 -24 -442 -51
-485 -30 -11 5 -69 12 -129 15 -60 3 -112 9 -115 14 -3 5 -87 12 -186 16 -98
4 -182 11 -185 15 -3 5 -85 10 -183 13 -113 2 -181 7 -185 14 -4 6 -44 14 -90
17 -45 3 -88 9 -95 15 -7 5 -43 12 -82 15 -38 3 -71 10 -73 16 -2 6 -30 11
-65 11 -34 0 -74 6 -88 14 -14 7 -47 16 -72 20 -26 4 -49 11 -52 17 -4 5 -19
9 -35 9 -16 0 -35 7 -44 15 -8 8 -23 15 -34 15 -10 0 -29 9 -42 20 -13 11 -27
20 -32 20 -4 0 -8 5 -8 11 0 14 -50 63 -72 72 -10 3 -18 11 -18 17 0 5 -4 10
-9 10 -5 0 -37 27 -72 61 -35 33 -86 79 -113 102 -28 23 -64 56 -82 74 -18 17
-42 34 -54 38 -11 3 -20 11 -20 16 0 5 -6 9 -12 9 -14 1 -58 34 -58 44 0 6
-48 53 -174 174 -36 34 -66 66 -66 71 0 5 -7 11 -15 15 -8 3 -15 12 -15 21 0
8 -4 15 -10 15 -5 0 -12 11 -16 25 -3 14 -10 25 -15 25 -5 0 -9 7 -9 15 0 8
-9 23 -20 32 -11 10 -20 21 -20 26 0 5 -6 14 -12 21 -7 8 -20 24 -28 36 -8 13
-23 30 -32 39 -10 8 -18 21 -18 28 0 7 -5 13 -10 13 -6 0 -14 8 -17 18 -7 17
-16 29 -43 60 -9 9 -25 35 -35 57 -11 22 -26 44 -32 48 -7 4 -13 23 -13 42 0
18 -4 35 -10 37 -5 2 -13 26 -16 53 -4 28 -12 53 -18 57 -6 4 -12 39 -14 77
-2 39 -8 71 -13 71 -5 0 -12 18 -15 40 -4 22 -10 40 -14 40 -5 0 -11 14 -15
30 -4 17 -11 30 -16 30 -5 0 -9 6 -9 13 0 8 -9 24 -20 37 -11 13 -20 29 -20
37 0 8 -6 20 -12 27 -7 8 -20 24 -28 36 -8 12 -19 28 -25 34 -23 26 -55 76
-55 84 0 5 -7 15 -15 22 -8 7 -15 25 -15 41 0 15 7 34 15 43 11 11 15 40 15
120 0 88 3 106 15 106 8 0 15 -4 15 -9z m727 -87 c2 -7 -3 -19 -12 -27 -9 -10
-15 -34 -15 -65 0 -42 4 -52 32 -77 28 -25 42 -29 108 -33 85 -5 144 14 155
49 4 10 11 19 16 19 5 0 9 6 9 14 0 19 27 46 46 46 9 0 14 -11 14 -30 0 -16
-4 -30 -10 -30 -5 0 -10 -7 -10 -15 0 -9 -8 -19 -17 -22 -10 -4 -22 -11 -28
-15 -5 -5 -21 -17 -34 -28 -21 -18 -39 -20 -157 -20 -96 0 -136 4 -146 13 -7
7 -21 16 -32 20 -16 6 -18 16 -14 69 3 35 10 64 16 66 7 2 12 22 12 43 0 39 1
40 32 37 17 -2 33 -8 35 -14z m1505 -134 c167 0 269 4 273 10 8 13 552 14 560
0 3 -5 -10 -26 -30 -47 -19 -21 -46 -50 -60 -65 -14 -15 -25 -32 -25 -38 0 -6
-7 -13 -15 -16 -8 -4 -15 -10 -15 -15 0 -5 -8 -17 -17 -27 -10 -10 -34 -36
-53 -58 -19 -21 -55 -56 -81 -76 -46 -38 -62 -40 -114 -18 -11 5 -78 11 -149
12 -93 2 -131 7 -134 16 -2 6 -16 12 -32 12 -15 0 -33 7 -40 15 -7 8 -25 15
-41 15 -15 0 -34 7 -43 15 -8 8 -23 15 -34 15 -11 0 -25 7 -32 15 -7 8 -17 15
-22 15 -13 0 -58 42 -58 53 0 5 -38 47 -85 93 -47 47 -85 87 -85 89 0 2 15 -1
32 -6 18 -5 153 -9 300 -9z m3717 -25 c4 -23 58 -75 78 -75 7 0 13 -4 13 -10
0 -5 10 -10 23 -10 13 0 32 -7 43 -15 12 -9 42 -14 81 -15 51 0 61 -3 57 -15
-4 -8 -18 -18 -33 -22 -14 -3 -32 -12 -39 -20 -20 -20 -195 -18 -216 2 -8 8
-18 15 -22 15 -4 0 -22 15 -40 34 -28 29 -33 41 -34 87 -1 30 -1 58 -1 62 1 5
20 7 43 5 34 -2 44 -7 47 -23z m-6319 -144 c0 -5 9 -12 19 -16 28 -8 38 -45
17 -60 -9 -7 -16 -16 -16 -21 -1 -29 -156 -164 -189 -164 -12 0 -29 -7 -37
-15 -9 -8 -26 -15 -38 -15 -13 0 -37 -7 -54 -16 -17 -8 -48 -14 -69 -12 l-38
3 3 45 c2 25 8 49 13 55 5 5 9 17 9 27 0 10 7 21 15 24 8 4 15 12 15 20 0 8 9
14 19 14 11 0 21 3 23 8 7 15 68 52 88 52 11 0 20 4 20 9 0 5 14 13 32 16 17
4 38 14 46 21 7 8 27 14 43 14 16 0 29 5 29 10 0 6 11 10 25 10 14 0 25 -4 25
-9z m6140 -8 c1 -17 32 -63 44 -63 3 0 21 -15 40 -32 69 -66 59 -63 216 -63
126 0 149 2 164 18 36 35 62 12 31 -29 -8 -10 -15 -27 -15 -36 0 -21 -37 -48
-66 -48 -12 0 -24 -7 -28 -15 -4 -12 -30 -15 -140 -15 -106 0 -138 3 -150 15
-8 8 -20 15 -27 15 -23 0 -49 33 -49 61 0 15 -5 29 -12 31 -13 5 -28 178 -16
178 5 0 8 -8 8 -17z m944 -318 c8 -8 22 -15 30 -15 9 0 16 -7 16 -15 0 -8 5
-15 10 -15 6 0 13 -8 17 -17 3 -10 13 -26 21 -36 12 -14 13 -20 3 -30 -9 -9
-14 -9 -20 2 -7 10 -13 10 -29 2 -11 -6 -55 -11 -96 -11 -66 0 -75 2 -69 16 4
11 -2 23 -17 34 -23 17 -21 40 5 40 7 0 15 7 19 15 3 8 10 15 16 15 6 0 18 7
26 15 9 8 24 15 34 15 10 0 25 -7 34 -15z m166 -356 l0 -119 -123 0 c-79 0
-127 -4 -134 -11 -9 -9 -14 -5 -19 17 -8 30 -13 37 -55 83 -35 39 -91 49 -119
21 -11 -11 -25 -20 -32 -20 -6 0 -3 8 8 19 10 10 38 39 62 65 l43 46 77 0 c65
0 80 -3 95 -20 12 -14 29 -20 57 -20 37 0 40 2 40 28 0 16 2 31 4 33 3 2 25 3
50 1 l46 -4 0 -119z m198 19 c2 -5 8 -8 14 -8 23 0 128 -118 144 -162 3 -10
10 -18 15 -18 5 0 9 -7 9 -15 0 -8 9 -23 20 -32 11 -10 20 -23 20 -31 0 -7 5
-18 10 -25 40 -47 50 -61 50 -70 0 -10 -11 -2 -70 51 -13 12 -31 22 -38 22 -7
0 -15 6 -18 14 -3 8 -21 17 -40 20 -19 4 -34 11 -34 15 0 5 -18 11 -40 15 -22
3 -40 11 -40 16 0 6 -13 10 -30 10 l-30 0 0 127 0 126 27 -24 c16 -13 29 -27
31 -31z m-1136 -60 c14 -20 3 -92 -18 -116 -18 -22 -44 -30 -44 -14 0 5 -13
22 -30 38 -56 55 -26 130 47 114 20 -5 40 -15 45 -22z m-202 14 c0 -5 -7 -17
-15 -28 -16 -22 -20 -64 -5 -64 6 0 10 -7 10 -15 0 -8 9 -23 20 -32 11 -10 20
-23 20 -30 0 -7 4 -13 8 -13 5 0 15 -11 22 -25 7 -13 20 -26 29 -27 12 -3 8
-12 -19 -38 -19 -19 -50 -46 -69 -60 -18 -14 -39 -31 -46 -37 -17 -16 -185
-18 -185 -3 0 6 -10 10 -22 10 -13 0 -35 11 -50 24 -23 20 -27 33 -29 82 -2
37 2 59 9 62 7 2 12 12 12 23 0 11 8 23 18 26 20 8 36 21 60 46 9 9 24 17 33
17 10 0 19 4 21 8 4 10 85 52 99 52 6 0 17 7 25 15 16 16 54 21 54 7z m944
-362 c24 0 27 -2 16 -15 -7 -8 -19 -15 -26 -15 -8 0 -14 -4 -14 -9 0 -5 -10
-13 -22 -17 -12 -3 -28 -13 -36 -20 -7 -8 -22 -14 -33 -14 -10 0 -19 -4 -19
-9 0 -5 -15 -13 -32 -16 -18 -4 -36 -13 -40 -19 -10 -15 -160 -21 -187 -7 -36
20 -23 31 33 31 39 0 55 4 60 15 3 9 19 15 41 15 19 0 35 4 35 8 0 5 17 16 39
25 21 10 49 27 62 38 18 16 32 19 59 15 19 -3 48 -6 64 -6z m-645 -89 c17 -21
31 -42 31 -45 0 -18 109 -126 127 -126 7 0 16 -6 19 -14 3 -8 16 -17 30 -20
13 -4 24 -11 24 -16 0 -6 38 -10 90 -10 50 0 90 4 90 10 0 5 17 12 37 16 21 4
44 13 51 21 7 7 24 13 38 13 13 0 24 4 24 10 0 5 11 12 25 16 13 3 29 12 36
20 6 8 19 14 29 14 10 0 20 7 24 15 3 8 12 15 20 15 7 0 16 7 20 15 3 8 10 15
16 15 7 0 32 21 57 46 41 40 50 45 77 40 17 -4 33 -11 34 -16 2 -6 14 -10 27
-10 13 0 30 -7 39 -15 8 -8 23 -15 34 -15 11 0 25 -7 32 -15 7 -8 18 -15 24
-15 15 -1 56 -36 56 -48 0 -5 7 -12 15 -16 8 -3 15 -10 15 -16 0 -11 12 -28
44 -60 16 -16 18 -31 14 -116 -3 -64 -8 -99 -16 -102 -7 -2 -12 -17 -12 -34 0
-16 -6 -44 -14 -61 -8 -18 -17 -63 -20 -102 -3 -38 -10 -71 -16 -73 -5 -2 -10
-18 -10 -35 0 -18 -7 -45 -15 -61 -8 -15 -15 -36 -15 -46 0 -10 -7 -25 -15
-34 -8 -8 -15 -20 -15 -26 0 -6 -7 -13 -15 -16 -8 -4 -15 -10 -15 -15 0 -12
-37 -49 -49 -49 -5 0 -11 -7 -15 -15 -3 -8 -15 -15 -26 -15 -11 0 -20 -4 -20
-9 0 -10 -74 -51 -91 -51 -6 0 -17 -7 -25 -15 -9 -8 -28 -15 -44 -15 -16 0
-30 -5 -32 -11 -2 -6 -25 -13 -51 -16 -26 -3 -50 -10 -53 -14 -7 -12 -231 -12
-238 0 -3 4 -29 11 -57 13 -28 3 -54 10 -58 16 -3 6 -19 14 -34 17 -15 4 -27
11 -27 15 0 4 -11 11 -25 14 -14 4 -25 11 -25 16 0 6 -8 10 -17 10 -20 0 -83
58 -83 76 0 6 -7 14 -15 18 -8 3 -15 12 -15 19 0 8 -7 20 -15 27 -8 7 -15 25
-15 40 0 16 -5 30 -12 32 -8 3 -14 33 -16 81 -2 42 -8 77 -12 77 -14 0 -20 84
-21 309 0 124 -5 236 -11 250 -6 17 -6 27 1 29 6 2 11 17 11 33 0 33 16 69 30
69 4 0 22 -18 39 -39z"/>
<path d="M14480 5114 c-14 -7 -35 -14 -47 -14 -20 0 -23 -5 -23 -40 0 -28 4
-40 15 -40 7 0 18 -6 22 -14 5 -8 34 -15 71 -19 34 -3 68 -9 75 -15 14 -11
233 -24 264 -16 12 3 24 17 28 31 8 34 -3 83 -20 83 -8 0 -20 6 -27 14 -10 9
-54 15 -151 18 -86 3 -142 9 -149 16 -15 15 -26 14 -58 -4z"/>
<path d="M15088 5021 c-21 -21 -23 -57 -5 -76 7 -7 41 -16 75 -20 34 -4 65
-11 68 -16 3 -5 81 -9 175 -9 144 0 169 2 169 15 0 8 7 15 15 15 11 0 15 11
15 39 0 33 -4 40 -25 45 -14 4 -25 11 -25 16 0 6 -83 10 -222 9 -200 0 -225
-2 -240 -18z"/>
<path d="M16068 5029 c-2 -6 -37 -14 -78 -17 -41 -2 -78 -9 -81 -14 -3 -5 -32
-12 -65 -15 -32 -4 -64 -12 -71 -19 -19 -19 -16 -51 7 -74 18 -18 33 -20 134
-20 77 0 116 4 118 12 2 6 31 13 64 16 68 5 84 18 84 73 0 28 -6 41 -25 53
-28 18 -82 21 -87 5z"/>
<path d="M11540 4851 c0 -5 -9 -13 -20 -16 -11 -4 -20 -15 -20 -27 0 -11 -9
-31 -20 -45 -11 -14 -20 -32 -20 -39 0 -8 -4 -14 -10 -14 -6 0 -10 -30 -10
-71 0 -69 12 -99 40 -99 6 0 13 -7 16 -15 5 -12 25 -15 98 -15 134 1 136 4
136 162 -1 151 -4 158 -90 165 -33 3 -63 10 -66 14 -7 12 -34 11 -34 0z"/>
<path d="M17044 6273 c-19 -26 -19 -30 -5 -55 9 -15 28 -30 43 -34 15 -3 30
-10 33 -15 4 -5 80 -9 171 -9 151 0 166 2 184 20 21 21 27 60 10 60 -5 0 -10
7 -10 15 0 9 -14 16 -37 20 -21 3 -49 8 -63 12 -32 7 -79 6 -157 -2 -44 -5
-63 -4 -63 4 0 6 -18 11 -43 11 -36 0 -47 -5 -63 -27z"/>
<path d="M17698 6279 c-10 -10 -18 -34 -18 -53 0 -30 4 -35 30 -41 16 -4 32
-11 35 -16 4 -5 51 -9 105 -9 80 0 106 4 134 19 19 11 37 17 40 14 3 -4 6 12
6 35 0 29 -4 42 -14 42 -8 0 -16 7 -20 15 -4 12 -29 15 -143 14 -123 -1 -140
-3 -155 -20z"/>
</g>
</svg>
