<svg viewBox="0 0 576.96 279.36" xmlns="http://www.w3.org/2000/svg"><path d="M537.81 278.13c-.647-.715-.674-2.142-.082-4.326.246-.907.858-3.377 1.36-5.489l.912-3.84v-12.64c0-13.85-.02-14.053-1.984-18.88-.954-2.347-2.939-5.399-4.578-7.038-1.375-1.375-4.516-3.538-5.998-4.13-.924-.37-2.414-.97-3.31-1.334-1.563-.634-2.53-.646-2.53-.03 0 .16 1.26.843 2.8 1.519 4.98 2.186 6.542 3.394 9.464 7.32l1.656 2.225.107 3.388c.059 1.863-.046 4.101-.233 4.974-.187.872-.707 3.386-1.157 5.586-1.106 5.417-1.7 7.5-2.775 9.722-2.374 4.908-8.049 9.061-15.758 11.533-2.246.72-11.58.716-13.806-.006-2.967-.962-6.856-3.02-8.601-4.552-1.866-1.639-4.23-5.046-5.103-7.354-.446-1.179-.96-3.26-1.142-4.623-.182-1.364-.49-3.596-.685-4.96-.225-1.575-.289-5.254-.175-10.08.105-4.46.059-7.6-.111-7.6-.778 0-2.261.943-4.01 2.548-1.06.975-3.032 2.636-4.38 3.692a6468.532 6468.532 0 01-5.035 3.938c-3.466 2.707-11.017 7.163-14.735 8.694-1.544.636-6.385 3.383-8.541 4.846-1.356.92-3.085 1.742-4.579 2.177-1.32.384-2.65.835-2.955 1.002-.306.166-.716.303-.912.303s-.81.203-1.364.452c-2.7 1.21-13.186 4.807-16.048 5.504-8.009 1.952-10.803 2.355-16.32 2.354-5.206-.001-8.886-.254-13.76-.947-4.827-.685-15.193-1.608-18.043-1.606-1.652.001-3.524-.133-4.16-.298-.637-.166-2.526-.529-4.198-.807-7.874-1.309-13.518-2.448-15.84-3.198-.704-.227-1.856-.593-2.56-.813-1.244-.39-3.46-1.292-4.84-1.971-.373-.185-3.685-3.351-7.36-7.037-3.673-3.685-7.157-7-7.74-7.366l-1.06-.665-.632.68c-1.027 1.101-2.022.865-3.392-.806-.668-.815-2.873-3.155-4.898-5.2-2.461-2.483-4.151-4.513-5.094-6.116-.776-1.32-2.801-4.272-4.501-6.56-4.417-5.946-5.63-8.153-6.25-11.36-.118-.616-.402-1.768-.63-2.56s-.593-2.448-.809-3.68c-.536-3.059-4.407-10.484-6.27-12.031-1.39-1.153-.326 2.488 1.379 4.724.882 1.157 2.295 4.969 3.064 8.266.772 3.315 1.514 7.276 1.514 8.088 0 1.144-1.06.864-2.448-.648-1.277-1.39-1.842-2.65-2.834-6.32-1.22-4.519-3.04-8.949-3.678-8.957-.088 0-1.33 1.13-2.759 2.515-1.795 1.739-3.254 2.827-4.72 3.52-1.168.551-2.28 1.002-2.474 1.002s-.804.207-1.359.46c-2.234 1.017-7.411 1.229-8.816.36-.234-.144-.686-.856-1.005-1.58-.494-1.122-.544-1.759-.335-4.252.212-2.541.385-3.15 1.298-4.572 1.63-2.54 4.32-4.483 8.65-6.248 1.144-.466 2.572-1.073 3.174-1.348s1.993-.51 3.092-.52c1.707-.016 2.167.11 3.161.87 1.468 1.118 2.225.917 2.003-.533-.248-1.617-1.9-7.39-2.242-7.837-.178-.232-1.03-.4-2.038-.4-2.332 0-3.623-.602-5.856-2.732-1.682-1.604-2.147-1.862-4.388-2.427-1.378-.347-3.73-.71-5.226-.805-1.496-.095-3.196-.318-3.777-.495-.582-.177-3.246-.37-5.92-.429-4.36-.096-5.095-.196-7.103-.966-2.18-.837-5.987-1.232-14.4-1.494-2.216-.069-9.183.626-10.217 1.02-1.085.412-12.88.475-13.943.074-.44-.166-1.952-.401-3.36-.523-1.408-.121-2.992-.353-3.52-.514-1.043-.319-7.588-.987-7.78-.795-.066.065-.38 1.245-.697 2.622-.318 1.378-.72 2.936-.894 3.464s-.777 2.472-1.342 4.32c-.565 1.848-1.23 4.008-1.478 4.8s-.452 1.741-.45 2.11c.001 1.012-1.221 5.635-3.336 12.61-.24.792-.682 2.304-.982 3.36s-1.054 3.288-1.676 4.96-1.473 3.976-1.892 5.12c-1.466 4.006-2.874 6.517-4.576 8.16-1.811 1.748-5.002 5.71-6.832 8.48-2.062 3.123-8.766 11.213-12.897 15.562-1.747 1.84-2.62 2.114-3.897 1.22-.751-.526-1.018-2.475-.392-2.862.176-.109 1.35-1.45 2.61-2.979 1.258-1.53 3.045-3.573 3.97-4.541 2.116-2.216 4.508-5.273 9.388-12 1.021-1.408 2.874-3.552 4.118-4.765s2.553-2.797 2.91-3.52c1.013-2.054 1.965-4.29 1.965-4.618 0-.163.374-1.143.832-2.177.91-2.054 2.469-6.574 2.967-8.6.174-.704.766-2.72 1.318-4.48 1.234-3.939 2.563-9.057 2.563-9.87 0-.332.214-1.271.475-2.087.262-.816.899-2.851 1.416-4.523s1.4-4.512 1.962-6.311c.562-1.8.937-3.493.833-3.765-.268-.697-1.284-1.013-4.046-1.259-1.32-.117-3.275-.438-4.345-.712l-1.944-.498-2.536 1.011c-3.995 1.594-4.49 1.907-5.517 3.487-.87 1.336-4.219 4.593-5.951 5.786-.367.253-1.88 1.6-3.362 2.992s-3.282 2.902-4 3.354-2.241 1.43-3.385 2.174c-2.205 1.434-6.526 3.548-9.741 4.767-1.067.405-2.731 1.11-3.7 1.568s-2.767 1.201-4 1.652c-7.965 2.91-9.815 3.162-21.535 2.922-9.58-.195-11.956-.446-18.464-1.945-8.767-2.02-14.728-5.311-20.23-11.17-1.02-1.085-3.602-3.463-5.74-5.285-3.017-2.572-4.238-3.86-5.46-5.76-1.998-3.105-4.539-8.149-5.667-11.248-.48-1.32-1.22-3.12-1.644-4-.814-1.692-1.596-4.542-2.546-9.28-.317-1.584-.698-3.039-.845-3.232-.147-.194-1.517-.441-3.044-.549-2.793-.197-9.793-1.779-12.025-2.718-1.142-.48-1.598-1.377-.915-1.8.311-.192 5.052.517 8.332 1.245 1.13.251 3.29.486 4.8.52l2.743.065-.047-4.126c-.026-2.269-.17-6.357-.32-9.085l-.273-4.96-1.92-.081c-1.701-.073-4.66.432-8.651 1.476-.71.185-2.078.693-3.04 1.127-1.405.635-2.51.834-5.617 1.012-2.128.122-4.18.123-4.56.002-1.435-.455-1.65-2.372-.347-3.07.343-.183 2.385-.531 4.539-.774 2.297-.258 4.842-.767 6.156-1.23 4.701-1.66 6.072-1.946 10.194-2.124l4.114-.178.578-1.12c.91-1.766 1.219-2.552 2.047-5.194.426-1.361 1.056-2.873 1.4-3.36.345-.488.957-1.678 1.36-2.646.404-.968.951-2.016 1.217-2.328.292-.343.365-.677.186-.844-.163-.153-4.616-.363-9.896-.468-5.28-.106-10.065-.282-10.634-.392-.905-.174-1.074-.095-1.349.627-.35.922-1.49 1.346-2.758 1.028-1.127-.283-.893-1.212.412-1.635.563-.183 1.395-.682 1.85-1.11 1.112-1.044 3.246-1.234 14.133-1.259 4.782-.01 8.924-.108 9.204-.215.45-.173 2.742-3.847 2.742-4.395 0-.115-4.068-.213-9.04-.217-10.466-.008-23.327-.691-26.42-1.403-5.455-1.256-9.434-1.578-16.002-1.293-8.362.362-21.556.375-22.062.021-.304-.212-.314-.39-.04-.72.285-.344 1.842-.442 7.283-.46 3.807-.013 8.073-.157 9.481-.322 1.408-.164 5.152-.384 8.32-.49 4.831-.16 6.612-.079 11.04.5 6.478.845 22.953 1.199 33.822.726l7.102-.308 2.018-1.6c2.563-2.033 5.725-3.947 7.778-4.708 1.91-.708 5.533-2.374 11.232-5.163 2.305-1.129 4.338-2.052 4.516-2.052.179 0 1.893-.594 3.809-1.32 3.294-1.248 4.196-1.539 8.443-2.72 5.95-1.657 6.26-1.699 13.373-1.79 5.818-.076 7.364.005 9.507.496 4.197.961 6.284 1.531 8.48 2.316 1.144.41 2.656.84 3.36.957 4.395.73 8.043 2.246 10.718 4.451.967.797 2.006 1.45 2.31 1.45.834 0 2.813 1.026 2.813 1.46 0 .21-.216.56-.48.78-.685.568-.598 1.058.347 1.944.455.426 1.474 1.748 2.265 2.936l1.437 2.16h3.987l1.022-1.45c1.186-1.683 1.235-2.033.422-3.067-.33-.42-1.976-2.852-3.659-5.404a577.345 577.345 0 00-4.12-6.181c-1.16-1.685-4.352-4.516-6.256-5.547l-2.978-1.622c-.976-.533-2.272-1.079-2.88-1.212-.61-.134-2.331-.636-3.827-1.116-1.496-.48-5.6-1.328-9.12-1.885-3.52-.556-7.048-1.225-7.84-1.485-.792-.261-1.784-.474-2.203-.473-.42 0-1.284-.138-1.92-.308s-2.237-.524-3.557-.787-3.408-.7-4.64-.97c-3.77-.83-8.018-.607-21.04 1.104-1.187.156-2.302.372-2.477.48-.175.109-1.22.34-2.321.514-1.101.175-2.435.447-2.963.606-.528.159-1.921.504-3.097.768-1.176.263-2.832.785-3.68 1.16L84 63.5c-.528.232-2.097.81-3.487 1.283-4.001 1.363-7 2.914-10.324 5.341-.908.663-2.636 1.733-3.84 2.376-1.204.644-2.417 1.37-2.696 1.614-.28.243-1.361.856-2.404 1.361-1.043.506-3.232 1.729-4.864 2.718-2.97 1.801-4.545 2.255-4.545 1.31 0-.27.252-.581.56-.692s1.402-.826 2.432-1.59c1.03-.764 2.003-1.388 2.163-1.388.16 0 .887-.432 1.616-.96s1.454-.96 1.61-.96 1.134-.54 2.17-1.2c1.037-.66 2.578-1.6 3.427-2.087a32.62 32.62 0 002.822-1.856c3.932-2.974 7.285-4.755 12-6.375 1.672-.575 3.184-1.145 3.36-1.267 1.28-.889 6.95-2.537 11.07-3.217.983-.163 2.207-.456 2.72-.652.511-.197 1.938-.489 3.17-.65 11.245-1.468 12.309-1.571 16.156-1.574 2.906-.002 4.616.201 8.16.97 2.466.536 5.276 1.128 6.244 1.317.968.188 2.488.538 3.379.778.89.24 2.763.57 4.16.735 5.491.649 10.375 1.557 13.101 2.437.704.227 2.144.669 3.2.98 2.246.665 3.582 1.263 6.942 3.108 3.572 1.962 6.327 4.557 8.861 8.349 3.45 5.158 5.49 8.083 6.402 9.176l.847 1.015 1.388-.724c1.734-.904 5.185-1.172 8.24-.64 3.104.54 5.57 1.96 7.917 4.558l1.963 2.173 14.4-.002c12.985 0 14.746-.064 17.92-.638 7.241-1.311 10.167-1.594 16.48-1.594 5.455 0 11.782.516 13.76 1.122 1.049.321 11.236 1.115 14.325 1.116l3.285.002-.17-18.62-1.12-.394c-1.401-.493-3.376-1.838-4.158-2.832-.327-.416-1.146-.984-1.818-1.263-4.341-1.799-5.3-2.172-5.582-2.172-.174 0-.92-.262-1.66-.583-4.46-1.939-9.289-3.573-10.578-3.58-1.087-.007-4.52-1.173-7.022-2.385-2.496-1.21-4.149-2.35-8.27-5.71-4.68-3.816-7.247-5.418-14.511-9.057-2.64-1.323-5.376-2.75-6.08-3.173-.704-.422-2.504-1.144-4-1.604-7.622-2.346-12.173-3.767-13.76-4.297-.968-.323-2.752-.895-3.964-1.271-2.608-.81-2.913-.96-5.692-2.81-2.34-1.558-2.714-2.074-2.012-2.776.407-.407.716-.327 2.466.64 3.04 1.678 4.455 2.267 6.017 2.507.784.12 2.577.562 3.985.98s3.64 1.07 4.96 1.448c1.32.378 2.976.876 3.68 1.106.704.23 1.856.57 2.56.753 2.909.76 5.886 1.774 7.22 2.458.78.401 2.356 1.188 3.5 1.749 6.475 3.175 8.638 4.332 11.13 5.957 2.696 1.757 7.244 5.108 8.115 5.98.93.93 4.672 3.375 6.195 4.048.88.388 2.053.912 2.608 1.163s1.326.457 1.714.457c1.76 0 9.038 2.294 13.34 4.204.738.328 1.448.596 1.578.596.13 0 1.397.452 2.817 1.005 3.333 1.297 3.587 1.4 5.313 2.154.799.35 1.843.733 2.32.853.762.19.87.124.87-.537 0-1.578 2.657-7.447 4.615-10.195 1.297-1.821 3.572-6.528 3.865-8 1.249-6.275 4.074-10.595 12.699-19.418 3.575-3.658 5.843-5.018 13.7-8.22 1.144-.466 3.376-1.843 4.96-3.06 4.011-3.082 8.69-6.185 10.4-6.896.792-.33 2.044-.862 2.782-1.183.738-.32 1.53-.583 1.76-.584.23 0 1.498-.554 2.818-1.23 1.32-.676 3.264-1.49 4.32-1.81a249.331 249.331 0 004.8-1.529l2.88-.95 13.28-.153c15.227-.177 19.826.088 23.498 1.355 1.334.461 2.821 1.044 3.304 1.296.483.252 1.103.459 1.378.46.275.001 1.238.358 2.139.792.9.435 2.664 1.15 3.917 1.587 1.254.438 3.08 1.254 4.056 1.813l1.777 1.016 3.885-.696c2.137-.383 4.966-.933 6.286-1.222 2.063-.452 4.896-.527 20.16-.533 15.588-.007 18.062.06 20.226.539 3.513.778 4.362.719 5.518-.383 1.201-1.144 5.845-3.724 7.933-4.407 1.09-.356 2.272-.46 4.014-.352 4.004.247 6.965 2.106 9.596 6.026.538.802 1.197 1.64 1.465 1.862.267.222.933 1.477 1.478 2.787.823 1.976 1.01 2.893 1.088 5.362l.095 2.978 3.9 3.788c2.146 2.083 4.366 4.125 4.934 4.538.568.412 2.857 2.585 5.088 4.828a875.898 875.898 0 007.14 7.096c3.016 2.948 4.173 4.45 6.18 8.023.544.968 1.727 2.624 2.628 3.68 3.06 3.585 5.828 8.173 6.855 11.36.944 2.932 1.207 3.312 2.471 3.574 1.486.309 7.153 3.73 8.512 5.14.573.594 1.306 1.829 1.628 2.744.322.915.679 1.757.793 1.87.113.114 1.334.177 2.713.14 2.07-.054 2.641.043 3.275.556.674.546.721.72.393 1.441-.433.95-1.93 1.355-3.983 1.08-2.15-.289-2.18-.238-2.18 3.601 0 4.024-.268 4.953-2.17 7.534l-1.414 1.92.183 4.64c.13 3.294.38 5.336.861 7.04 1.917 6.787 1.884 6.408 1.893 21.76.008 14.288-.087 15.892-1.27 21.44-.168.792-.39 2.376-.493 3.52-.43 4.808-1.436 9.992-2.39 12.32-.144.352-.88 2.35-1.635 4.44-.916 2.537-1.888 4.535-2.923 6.008-1.427 2.032-1.666 2.832-.847 2.832.174 0 1.456.45 2.847 1l2.53 1 2.654-.57c1.46-.313 4.238-.762 6.174-.996 9.806-1.189 12.382-1.468 14.88-1.614 2.44-.142 2.81-.087 3.6.534.581.458.88.993.88 1.58 0 1.707-.66 1.93-7.24 2.44-3.322.26-6.329.559-6.68.666s-1.997.287-3.655.398c-1.671.112-3.065.354-3.127.543-.11.33 5.074 2.059 6.175 2.059.832 0 5.077 2.215 6.186 3.229 1.15 1.05 1.23 1.807.317 2.968-1.104 1.404-2.875 1.059-5.141-1.001-.465-.423-1.473-.905-2.24-1.073-2.74-.6-8.788-2.617-10.644-3.55-1.436-.724-2.127-.9-2.88-.737-.545.117-2.62.31-4.612.429l-3.621.215-1.574 3.68c-.865 2.024-1.8 4.076-2.077 4.56-.278.485-.429 1.004-.336 1.154.093.15 1.044.364 2.113.476 2.441.255 3.265.674 3.135 1.592-.075.528-.353.722-1.14.798-.572.055-1.04.173-1.04.262 0 .089.612.933 1.36 1.876a84.78 84.78 0 012.444 3.258c.805 1.146 1.737 1.909 3.614 2.96 4.542 2.54 7.22 5.505 11.594 12.832 3.035 5.085 4.446 8.585 4.833 11.992.218 1.917 1.198 6.238 1.541 6.792.1.161.335 1.806.523 3.656s.61 4.36.94 5.578c.327 1.218.687 3.705.798 5.527.11 1.823.363 3.958.562 4.745.319 1.267.287 1.53-.278 2.287-.351.47-1.049.927-1.55 1.016-.904.159-.918.196-1.319 3.52-.223 1.847-.617 4.151-.876 5.12-.868 3.238-1.465 6.043-1.465 6.876 0 2.03-2.084 3.173-3.31 1.818zm-22.93-15.702c5.13-1.725 8.553-3.734 10.999-6.454 1.673-1.86 3.166-5.616 3.694-9.29.187-1.302.568-3.16.846-4.129.992-3.453 1.086-4.033 1.093-6.764.008-2.762.006-2.767-1.375-4.644-1.741-2.365-3.074-3.489-5.322-4.49-.976-.434-2.207-.983-2.735-1.22-2.397-1.078-2.53-1.043-5.087 1.346-4.93 4.603-13.282 7.594-16.923 6.058-1.824-.768-4.202-2.924-6.16-5.584-1.086-1.475-2.117-2.565-2.39-2.528-.264.037-.809.714-1.21 1.506-.713 1.405-.729 1.636-.619 9.28.107 7.466.457 11.143 1.502 15.806 1.131 5.049 4.757 8.746 10.888 11.1 2.149.826 10.352.83 12.8.007zm-99.2-3.953c5.394-1.046 12.108-3.11 20.16-6.196a162.27 162.27 0 017.182-2.53c2.656-.848 3.863-1.422 4.993-2.375.819-.69 4.283-2.658 7.697-4.372 8.596-4.316 12.681-6.93 19.587-12.536 1.023-.83 1.995-1.558 2.16-1.617.166-.058.3-.31.3-.56 0-.318-.395-.453-1.328-.453-.925 0-1.94-.341-3.332-1.12-2.341-1.309-3.552-2.622-3.842-4.167-.278-1.487.62-5.343 1.534-6.585 2.53-3.436 11.265-7.574 17.297-8.194 1.815-.186 2.703.288 3.77 2.014l.729 1.18 1.67-1.724a140.6 140.6 0 013.115-3.104c.794-.76 1.515-1.65 1.6-1.979.173-.658.314-.692-3.132.747-1.32.55-2.424.687-6.301.776-4.204.096-4.831.04-5.92-.53-1.53-.801-2.614-1.759-3.846-3.394-1.914-2.54-2.013-2.935-2.013-8.075 0-4.27.083-4.987.825-7.136 1.259-3.647 1.307-3.509-1.465-4.212-2.124-.538-3.265-.591-9.92-.458-7.059.141-13.98.782-16.128 1.494-.51.169-1.459.307-2.109.307s-1.888.219-2.752.486c-1.326.41-4.11.479-17.873.442l-16.302-.045-2.787 3.159c-3.46 3.92-9.353 9.726-12.182 12.003-6.652 5.35-9.453 7.353-15.356 10.983-4.162 2.559-5.038 2.795-6.17 1.663-.451-.452-.821-1.14-.821-1.53 0-.793 2.187-3.042 3.691-3.796 1.08-.54 2.645-1.573 3.283-2.164.238-.22.574-.4.748-.4.174 0 .228-.143.12-.317-.18-.293-1.95.715-2.442 1.391-.11.151-.847.348-1.637.437-1.24.14-1.506.06-1.96-.586-.287-.411-.523-1.056-.523-1.433 0-.956 2.71-3.402 4.932-4.453 1.006-.476 1.736-.958 1.623-1.071-.114-.114-1.887-.214-3.94-.222-3.488-.015-3.936-.092-6.775-1.164-6.306-2.381-6.5-2.506-11.014-7.068-3.398-3.435-4.666-4.49-6.712-5.585l-2.522-1.35-7.236-.617c-3.98-.34-7.308-.548-7.396-.463s-.164.789-.17 1.565c-.007 1.271-.178 1.583-1.714 3.139-.938.95-2.518 2.139-3.511 2.642-1.605.813-2.201.926-5.369 1.021-3.283.098-3.698.042-5.28-.713-.944-.45-2.203-1.28-2.798-1.842l-1.082-1.022.167-2.445c.093-1.345.435-3.197.762-4.117.69-1.945.468-2.274-1.545-2.282-.648-.003-1.584-.162-2.08-.354-.895-.346-6.867-.867-13.14-1.147l-3.28-.146v3.18c0 2.01-.177 3.682-.48 4.542-.265.748-.48 1.465-.48 1.592 0 .27 2.33 3.834 3.567 5.456.467.611 1.32 1.976 1.894 3.032 2.397 4.4 2.969 5.873 3.479 8.96.447 2.704 1.502 6.406 2.363 8.286.45.984 2.345 3.81 4.209 6.279 1.864 2.468 4.022 5.53 4.794 6.802.93 1.532 2.708 3.591 5.27 6.102 2.125 2.085 4.116 4.1 4.424 4.48.631.78 2.548 2.246 3.29 2.517.27.1 3.555 2.969 7.301 6.377s7.414 6.513 8.15 6.9c1.476.776 5.148 2.017 5.968 2.017.288 0 .66.128.827.284.338.317 4.463 1.175 7.184 1.494.968.113 2.47.408 3.338.654.868.246 2.118.448 2.779.448s1.606.155 2.102.345c.495.19 3.205.466 6.02.612 7.861.41 24.037 2.012 24.448 2.423.404.405 14.705-.075 17.313-.58zm90.621-29.88c4.1-1.472 8.58-4.133 8.58-5.096 0-.365-.53-.464-2.487-.464-2.131 0-2.655.115-3.676.81-2.107 1.431-6.322 3.03-7.988 3.03-.841 0-1.53.147-1.53.327 0 .542 2.941 2.233 3.884 2.233.483 0 1.93-.378 3.217-.84zm-26.308-3.96c1.858 0 1.865-.004 4.374-2.276 2.712-2.458 3.053-3 2.08-3.31-.347-.109-1.034-.733-1.527-1.386-.493-.654-1.1-1.397-1.35-1.652-.34-.35-.407-1.001-.27-2.64.226-2.69.19-2.696-3.754-.72-3.646 1.826-5.709 3.32-6.743 4.882-.722 1.09-.784 1.426-.599 3.2.204 1.947.235 2 1.726 2.918 1.474.907 2.902 1.32 3.776 1.094.235-.06 1.264-.11 2.287-.11zm55.631-2.232c-4.81-8.222-6.543-10.485-9.695-12.656-.973-.67-1.827-1.159-1.897-1.085-.07.073-.178 1.957-.24 4.187l-.112 4.054 1.12.488c.616.268 1.84.726 2.72 1.018 2.145.71 4.575 2.117 6.629 3.836.93.779 1.81 1.42 1.955 1.423.145.004-.07-.565-.48-1.265zm-29.182-.034c.593-.366 1.078-.87 1.078-1.12 0-.675-.591-.552-1.659.346-1.069.9-1.73.967-4.111.417-1.796-.414-2.184-.873-1.655-1.959.187-.384.4-1.448.474-2.366.107-1.327.357-1.925 1.223-2.926.598-.692 1.48-1.433 1.959-1.647.48-.214 1.238-.729 1.686-1.144.69-.64.946-.705 1.688-.424 1.274.483 2.32 1.547 2.995 3.049l.594 1.32 4.403-.155c3.505-.122 4.484-.257 4.803-.66.421-.534.5-5.159.119-6.945-.181-.848-.372-.985-1.642-1.173-2.025-.3-2.605-.087-2.364.872.298 1.189-.615 1.315-2.534.35-.913-.458-2.451-.914-3.42-1.012-2.019-.205-2.045-.188-4.8 3.001-.967 1.121-2.623 2.748-3.68 3.614-3.19 2.619-3.396 2.85-3.17 3.56.145.458-.008.81-.522 1.197-1.024.773-.93 2.36.212 3.553.854.89.976.918 4.063.918 2.665 0 3.357-.108 4.26-.666zm9.219-2.999c1.373-.037 2.268-.204 2.346-.437.092-.275-.8-.378-3.26-.378-2.61 0-3.387.098-3.387.427 0 .689.405.902 1.27.668.446-.12 1.81-.247 3.03-.28zm-26.07-2.956c.54-.688.658-1.22.583-2.64-.091-1.719-.135-1.796-1.339-2.362-1.508-.708-2.519-.51-3.02.59-.679 1.489-.457 2.621.782 3.992 1.357 1.502 2.064 1.601 2.994.42zm16.224.041c.052-.165-.041-.515-.207-.777-.403-.638-1.137.055-.85.802.206.537.884.521 1.057-.025zm-2.962-10.99c.333-.368.98-.675 1.436-.681.882-.012 2.872-1.415 2.514-1.772-.613-.613-6.268 2.696-5.827 3.41.228.369 1.061-.056 1.877-.957zm15.867-1.167c0-.706-2.87-4.194-4.085-4.964l-1.466-.93-.985.739c-.541.406-1.48 1.088-2.085 1.516-2.355 1.66-2.396 1.717-1.393 1.898.687.124.917.365.995 1.04l.101.878h4.46c2.452 0 4.458-.08 4.458-.177zm-32.96-2.326c0-.352-2.601-2.042-2.815-1.828-.239.239.935 1.478 1.695 1.789.848.347 1.12.357 1.12.04zm17.955-2.446c.797-.815 1.187-1.6 1.471-2.96.516-2.474.536-8.48.03-8.987-.696-.696-1.157-.402-1.373.878-.117.694-.418 1.431-.668 1.64-.543.45-.608 1.578-.09 1.578.534 0 1.213 1.012 1.225 1.825.018 1.21-.897 4.259-1.718 5.728-.972 1.74-.428 1.884 1.123.298zm-222.7-.661c1.29-.488 2.778-1.176 3.306-1.53 1.285-.86 3.626-3.295 4.76-4.948.863-1.259.89-1.388.424-2.099-.273-.416-1.007-1-1.631-1.296-1.123-.533-1.168-.525-3.944.61-5.416 2.213-7.58 3.557-8.653 5.376-.685 1.16-1.144 4.461-.684 4.921.477.477 3.866-.069 6.422-1.034zm216.69-.589c1.42-.649 1.866-1.055 2.42-2.2.374-.771.68-1.575.68-1.786s.174-.663.387-1.004c.649-1.038.133-1.018-1.853.07-1.836 1.007-2.009 1.039-5.574 1.02-4.32-.024-5.288-.393-7.825-2.991l-1.584-1.622-.067-3.124c-.036-1.718-.08-3.263-.095-3.432-.016-.17-.28-.059-.585.247-.486.486-.546 1.146-.471 5.22.075 4.158.173 4.877.9 6.632 1.394 3.36 2.997 4.11 8.346 3.905 2.943-.114 3.89-.28 5.321-.935zm-16.309-1.331c-.254-.661-.432-.583-.432.19 0 .362.138.573.306.469.169-.104.225-.4.126-.659zm-93.441-1.505c1.819-1.29 2.154-1.64 5.755-6.005 1.96-2.376 3.818-4.599 4.13-4.94 1.06-1.165.725-1.39-2.396-1.602-1.628-.11-10.448-.088-19.6.05l-16.64.252 3.798 4c2.089 2.2 4.393 4.325 5.12 4.72 1.17.639 2.765 1.285 7.008 2.84.663.242 3.167.581 5.565.752 2.398.172 4.436.388 4.528.48.396.396 1.798.115 2.732-.547zm122.89-3.525c2.43-5.046 2.74-5.777 2.57-6.053-.185-.299-4.716-.372-5.007-.08-.102.102.032.708.3 1.346.372.892.435 1.795.272 3.894-.117 1.504-.285 2.985-.374 3.293-.103.36.014.56.326.56.3 0 1.04-1.145 1.913-2.96zm-112.92.08c.109-.176.045-.32-.141-.32s-.339.144-.339.32.064.32.141.32c.078 0 .23-.144.339-.32zm2.756-2.67c3.85-3.822 4.838-4.95 4.631-5.286-.36-.581-1.04-.065-3.286 2.492-3.798 4.325-4.18 4.824-3.684 4.824.162 0 1.215-.913 2.34-2.03zm97.337 1.354c1.762-.884 2.787-1.846 2.787-2.614 0-.473-.132-.558-.56-.363-.308.14-1.353.31-2.322.378-2.942.207-6.946-1.68-7.684-3.62-.207-.547-.593-.747-1.652-.859-1.945-.205-2.134.044-1.944 2.562.177 2.334.454 2.819 2.45 4.28 1.174.858 1.438.912 4.413.912 2.583 0 3.413-.124 4.512-.676zm-360.16-.79c1.357-.278 3.472-.926 4.7-1.44 1.23-.513 2.414-.934 2.633-.934.22 0 1.519-.512 2.887-1.137 2.73-1.249 3.016-1.372 5.403-2.34 5.58-2.261 11.936-6.129 14.524-8.84.792-.829 2.556-2.363 3.92-3.41 2.485-1.906 3.129-2.776 1.76-2.378-.396.115-1.656.432-2.8.705-1.144.273-2.403.624-2.797.78-.99.392-1.683.051-1.683-.828 0-.579.227-.787 1.04-.953.572-.117 3.101-.866 5.62-1.664l4.582-1.452.78-1.766c.887-2.003.73-2.471-.914-2.733-.565-.09-1.604-.313-2.308-.495s-6.392-.405-12.64-.497c-11.83-.173-16.338-.48-19.04-1.298-.88-.266-2.824-.77-4.32-1.119s-3.512-.867-4.48-1.15-3.2-.72-4.96-.967c-4.704-.663-7.702-1.24-10.4-2.002-2.63-.743-6.195-1.981-7.2-2.501-.352-.182-1.504-.59-2.56-.906-1.056-.316-2.136-.743-2.4-.95-.987-.771-3.77-1.772-7.04-2.532-5.05-1.173-7.22-1.463-12.48-1.667-3.08-.12-5.933-.344-6.34-.499-.408-.154-2.208-.368-4-.475-1.794-.107-4.55-.467-6.125-.8-1.827-.386-2.975-.494-3.17-.298-.295.294-.204.765 1.275 6.572.269 1.056.825 2.568 1.236 3.36.41.792 1.06 2.376 1.443 3.52.843 2.519 4.01 8.96 5.394 10.973 1.182 1.719 1.096 1.632 4.724 4.708 1.558 1.32 4.058 3.658 5.557 5.195 1.5 1.538 3.302 3.231 4.006 3.764 2.113 1.598 5.982 4.16 6.282 4.16.154 0 1.036.365 1.96.81.922.446 2.901 1.093 4.397 1.438s3.213.791 3.816.99c.602.2 2.762.62 4.8.934 5.152.791 21.268.871 24.918.123zm192.12-2.407c1.491-.376 4.294-2.874 4.537-4.042.142-.683 0-1.05-.625-1.61-.975-.874-1.156-.784-2.017.994-1.12 2.311-1.974 2.895-4.44 3.03-1.843.1-2.302.01-3.26-.641-1.503-1.02-1.835-2.072-1.307-4.133.482-1.881.226-2.273-1.392-2.128-.809.072-1.01.299-1.496 1.683-.308.88-.572 2.484-.585 3.563-.023 1.797.05 2.014.855 2.56 1.72 1.167 2.701 1.373 5.68 1.193 1.584-.095 3.407-.307 4.05-.47zm168.26-2.194c.56-.355.243-.508-1.59-.768a45.335 45.335 0 01-2.08-.351c-.724-.145-.567.004.64.605 1.744.87 2.313.967 3.03.514zm-168.64-2.613c1.073-1.481.986-2.041-.267-1.704-1.314.353-3.662.156-4.226-.355-.696-.63-.94-.284-.94 1.337 0 1.674.477 2.02 2.799 2.033 1.602.009 1.72-.05 2.634-1.31zm185.63-1.747c.706-.85-.033-1.461-3.083-2.549-3.723-1.327-6.006-2.236-7.98-3.177-.88-.42-2.68-1.071-4-1.449-1.32-.377-2.76-.819-3.2-.982s-2.095-.648-3.68-1.078c-2.775-.753-7.659-2.39-8.32-2.789-.175-.106-.823-.299-1.44-.428s-1.263-.332-1.44-.452c-.693-.472-3.962-1.65-6.24-2.25-8.329-2.195-10.842-3.314-16.64-7.411-4.582-3.24-8.69-5.905-11.04-7.164-1.231-.66-3.3-1.857-4.595-2.658-1.833-1.133-2.473-1.384-2.88-1.127-.48.301-2.911 4.19-4.565 7.301-.827 1.558-5.822 9.023-8.241 12.32-2.03 2.766-3.814 4.901-6.782 8.12-4.194 4.547-4.764 5.226-4.558 5.431.115.115 6.331.21 13.815.21 10.734 0 13.982-.097 15.387-.457 2.04-.522 4.523-.925 10.42-1.69 5.342-.692 18.846-.75 22.939-.097l2.777.443 1.863-1.915c1.54-1.584 2.2-2.015 3.821-2.498 2.638-.785 5.652-.584 8.6.575 4.317 1.697 4.789 1.97 7.103 4.116l2.332 2.162h4.604c3.81 0 4.676-.087 5.024-.506zm-104.23-2.613c2.06-1.88 6.667-6.82 10.088-10.817 2.242-2.619 8.19-11.003 9.936-14.006.428-.735 1.762-2.98 2.965-4.988l2.187-3.65-3.124-1.522c-1.72-.837-4.205-1.836-5.525-2.218-2.366-.686-6.681-2.292-7.746-2.884-.3-.167-1.132-.397-1.847-.511-.716-.115-1.379-.333-1.473-.486s-.441-.278-.77-.278c-.533 0-.581.2-.441 1.84.086 1.012.353 2.848.594 4.08.725 3.71 1.512 13.277 1.385 16.829l-.12 3.331-2.46 5.04c-2.283 4.678-5.452 9.945-6.51 10.824-.596.494-.58 1.576.021 1.576.261 0 1.539-.972 2.84-2.16zm-8.202.105c2.629-2.986 5.369-7.25 7.688-11.965l2.41-4.9-.204-7.42c-.113-4.08-.352-8.212-.532-9.18-.18-.968-.457-3.249-.616-5.068-.332-3.797-.592-4.246-2.903-5.014-.841-.279-2.194-.948-3.006-1.486-2.441-1.617-2.486-1.515-2.377 5.406l.095 6.002-1.208 3.84c-2.432 7.729-2.969 9.131-4.377 11.432-2.34 3.823-4.935 7.338-6.916 9.368-2.356 2.415-7.573 5.929-10.28 6.924-3.963 1.457-5.906 2.563-5.398 3.071.113.113 2.398.033 5.078-.176 6.333-.495 14.828-.454 17.674.085 3.438.652 3.5.64 4.871-.918zm88.025.711c.69-.69.41-.896-1.216-.896-.88 0-1.6.06-1.6.134 0 .074-.087.362-.194.64-.16.414.061.506 1.216.506.775 0 1.583-.173 1.794-.384zm-144.9-.523c0-.146-.785-.807-1.743-1.467-1.953-1.345-4.908-4.179-11.683-11.203-7.282-7.55-8.264-8.96-10.083-14.476-.474-1.437-1.103-2.825-1.397-3.083-.294-.258-1.614-.934-2.934-1.503-1.32-.568-3.4-1.521-4.621-2.117-1.221-.596-2.337-1.084-2.48-1.084-.143 0-.26.654-.26 1.452 0 1.541-.279 2.11-2.443 4.973l-1.349 1.785-.14 4.775c-.076 2.627-.351 5.742-.61 6.923-.466 2.12-2.21 5.989-3.668 8.137-.412.607-.75 1.157-.75 1.221 0 .132 1.566.275 8.412.77 2.602.187 4.862.421 5.021.52.593.366 6.277.99 7.048.773 1.002-.281 7.45-.356 8.133-.094.279.107.507.44.507.74s.453.88 1.008 1.29c1.047.775 2.703 1.06 9.232 1.59 4.493.365 4.8.37 4.8.079zm21.668-1.392c1.647-.41 4.173-1.395 6.096-2.377 1.807-.922 4.158-1.98 5.224-2.348 3.74-1.295 9.396-5.688 11.732-9.113.484-.708 1.61-2.316 2.504-3.572s1.967-3.204 2.385-4.327c.418-1.124.946-2.404 1.173-2.844s.414-1.003.415-1.252c.003-.627.951-3.796 1.54-5.148.269-.616.539-2.2.6-3.52.062-1.32.163-3.372.225-4.56.082-1.58.004-2.16-.29-2.16-.538 0-6.283 3.407-6.607 3.918-.14.221-.258.748-.26 1.172-.004.423-.474 2.145-1.046 3.827-1.782 5.242-4.344 7.207-13.43 10.3-2.812.958-8.678.87-12.89-.191-3.555-.897-11.4-1.594-14.177-1.26-.933.112-2.373.053-3.2-.131-.826-.185-3.95-.478-6.942-.652s-6.003-.413-6.69-.53l-1.251-.215.204 2.412c.112 1.326.338 2.748.503 3.16.164.413.616 1.788 1.002 3.057.646 2.117.878 2.46 2.822 4.16 2.949 2.58 5.938 5.29 8.277 7.507 1.886 1.788 6.565 4.426 7.85 4.426.27 0 .974.21 1.566.468 1.794.778 9.188.658 12.665-.208zm151.43-3.996c.912-1.35 2.022-3.475 2.467-4.72 2.882-8.082 3.412-10.231 4.266-17.304.148-1.232.51-3.464.802-4.96 1.04-5.319 1.116-6.717 1.123-20.554.005-11.06-.086-14.246-.432-15.2-1.139-3.134-1.536-5.2-1.71-8.899-.104-2.193-.275-3.988-.38-3.989-.106 0-1.056.35-2.112.779-3.073 1.247-7.877 2.422-9.901 2.422-1.231 0-2.417-.843-3.382-2.405-.608-.983-.846-1.115-2.023-1.118-2.982-.007-6.735-3.593-9.382-8.966l-1.062-2.156-12.085-.241c-16.95-.339-21.2-.118-28.885 1.5-7.05 1.484-9.12 2.056-9.12 2.523 0 .39.994.458 6.24.431 3.432-.017 7.353-.144 8.713-.281 2.731-.276 4.087.2 4.087 1.434 0 .723-2.075 1.919-3.331 1.919-.439 0-1.627.216-2.64.48-1.265.33-3.441.48-6.932.48h-5.088l.224 1.194c.409 2.178.682 2.432 2.36 2.189 5.762-.835 14.326-1.437 20.68-1.453 3.862-.01 6.75.35 10.727 1.334.841.209 5.77.414 11.84.494 11.226.148 11.84.243 11.84 1.826 0 .456-.353 1.048-.867 1.452-.846.665-1.07.679-9.04.535-7.92-.142-11.241-.448-17.932-1.65-2.585-.465-4.261-.516-11.2-.337-4.488.115-9.6.413-11.36.663-1.76.25-3.92.494-4.8.543l-1.6.09-.086 8.138c-.047 4.476.033 8.257.178 8.402.145.145.932.036 1.75-.243 1.883-.642 2.84-.503 3.33.483.803 1.619-1.524 3.22-4.682 3.22-1.046 0-1.61.83-1.61 2.373 0 .643-1.514 5.5-4.822 15.466-.54 1.628-.937 3.273-.88 3.655.11.748 2.587 2.416 6.4 4.31 2.51 1.248 7.126 4.016 9.575 5.743 8.478 5.979 10.697 7.043 19.007 9.117 1.584.395 3.168.9 3.52 1.123.352.223 1.504.696 2.56 1.052s3.36 1.164 5.12 1.796 4.28 1.433 5.6 1.782c4.75 1.255 8.873 2.63 12.96 4.32 2.288.947 5.096 2.032 6.24 2.411 1.144.38 2.217.817 2.384.971.864.798 1.717.244 3.352-2.175zm-12.711-50.386c-.58-.168-1.138-.52-1.239-.783-.264-.69.81-1.735 1.784-1.735.457 0 2.343-.288 4.19-.64 5.304-1.011 6.742-.765 6.28 1.075-.253 1.006-1.196 1.329-5.666 1.939-4.147.566-3.908.56-5.35.144zm-10.945-.922c-.44-.139-2.6-.273-4.8-.298-4.738-.055-6.56-.356-7.433-1.23l-.644-.643.903-.593c.778-.51 1.705-.606 6.679-.693 6.277-.11 7.909.197 8.345 1.573.398 1.254-1.444 2.392-3.05 1.884zm-28.248-2.248c-3.525-.528-5.352-1.183-5.352-1.916 0-.58 1.274-1.592 2-1.588 3.024.02 10.043.712 10.914 1.076 1.239.518 1.615 1.472.952 2.419-.396.564-.775.654-2.605.618-1.178-.024-3.837-.298-5.91-.609zm-173.5 51.01c-.122-.814-.303-1.69-.401-1.946-.348-.907-.746.33-.536 1.667.232 1.487.36 1.76.822 1.76.22 0 .26-.515.115-1.48zm-4.836-2.279c-.3-5.547-.286-5.52-2.838-5.52-2.623 0-3.917 1.848-3.478 4.963.311 2.203 1.074 2.935 3.482 3.338 3.25.544 3.025.765 2.834-2.78zm10.357 1.462c.565-.736 1.028-1.459 1.028-1.606 0-.148.34-.806.755-1.464.415-.657.981-1.986 1.258-2.953.703-2.451 1.22-6.495.873-6.841-.165-.165-.83-.065-1.591.24-1.662.664-5.249.68-7.09.03-.768-.271-1.792-.872-2.277-1.337-.484-.464-.978-.747-1.097-.628s.024 1.209.317 2.422c.293 1.214.532 2.482.532 2.819 0 .336.684 1.273 1.52 2.082.836.808 1.822 2.096 2.192 2.862 1.305 2.707 1.728 3.822 1.728 4.55 0 .724.236 1.162.625 1.162.11 0 .661-.602 1.227-1.338zm-20.157-3.254c.163-4.358 2.609-6.928 6.594-6.928.965 0 1.84-.14 1.945-.31.106-.17-.027-1.565-.295-3.1-.571-3.27-1.074-10.829-1.392-20.91-.192-6.122-.298-7.192-.706-7.146-.766.086-5.443 1.88-7.279 2.793-.923.458-1.837.833-2.031.833-.447 0-1.926.63-5.57 2.374-3.27 1.564-4.753 2.167-7.04 2.861-4.776 1.45-11.516 3.591-13.76 4.371-1.408.49-3.352 1.113-4.32 1.386-.968.272-2.768.789-4 1.148-1.232.359-3.32.925-4.64 1.258-1.32.333-3.048.843-3.84 1.134-.792.29-2.52.884-3.84 1.32-1.32.435-2.688.923-3.04 1.083s-1.432.537-2.4.838c-.968.3-2.408.76-3.2 1.02-1.456.477-6.312 2.689-8.96 4.08-.792.415-2.664 1.35-4.16 2.076l-3.84 1.866c-1.082.527-1.124.613-1.215 2.535-.106 2.223-.257 2.092 2.815 2.463.792.096 2.88.403 4.64.683 11.105 1.767 15.94 2.085 19.866 1.306 4.41-.875 11.01-1.481 15.974-1.467 4.86.013 5.952.146 9.12 1.11 7.762 2.36 9.038 2.617 14.24 2.86 2.64.124 5.736.415 6.88.648 3.4.69 3.345.725 3.454-2.185zm-95.83-2.896c.2-.522-.069-.891-.469-.644-.363.225-.355 1.092.01 1.092.158 0 .364-.202.459-.448zm15.199-2.033c.15-1.062-.6-1.168-2.48-.347-1.326.579-1.545.774-1.083.962.32.13 1.228.207 2.02.171 1.227-.055 1.455-.171 1.543-.786zm-7.803-1.493c.54-.235 1.7-.673 2.58-.974 2.792-.952 4.937-1.92 5.086-2.293.19-.476-.35-11.612-.905-18.679-.42-5.341-.756-7.573-1.464-9.743-.175-.537-.825-2.695-1.443-4.796-.619-2.1-1.187-3.881-1.264-3.958-.077-.077-.482-.054-.9.05-.539.136-1.372 1.2-2.873 3.672l-2.114 3.48.188 9.453c.215 10.79-.16 14.517-1.839 18.322-2.128 4.82-2.126 4.876.17 5.742 1.39.524 3.182.42 4.778-.276zm-10.345-1.866c.263-.22.81-1.264 1.215-2.32s.923-2.352 1.15-2.88c.229-.528.66-1.985.96-3.24.48-1.997.528-3.7.397-13.76-.135-10.37-.209-11.634-.768-13.08l-.62-1.6-1.664.013c-.916.007-3.07.044-4.785.082l-3.12.069-1.269 2.47c-1.23 2.397-2.51 4.63-5.706 9.956-1.681 2.802-5.199 6.391-8.052 8.216-1.92 1.228-7.49 3.923-9.933 4.807-.88.318-1.744.678-1.92.799-.176.121-1.112.454-2.08.74-5.45 1.604-9.213 2.129-15.266 2.129-8.175 0-12.394-1.145-16.81-4.56-1.693-1.312-4.358-5.248-7.241-10.7-1.168-2.21-2.284-7.172-2.284-10.16 0-1.484-.146-2.463-.4-2.672-.23-.19-3.118-.396-6.8-.486-3.52-.086-8.2-.32-10.4-.52-2.2-.2-7.096-.396-10.88-.433l-6.88-.07.103 8.96c.09 7.89.166 9.023.64 9.478.823.792 6.161 1.82 9.658 1.86 1.144.012 3.088.236 4.32.497 1.33.282 3.98.477 6.523.48 3.513.005 5.153.183 9.12.994 5.863 1.198 7.378 1.64 10.277 3.003 1.232.58 2.816 1.237 3.52 1.462.704.224 2.144.788 3.2 1.254s2.784 1.08 3.84 1.366 2.568.7 3.36.92 2.232.51 3.2.644l5.28.726c1.936.266 4.312.72 5.28 1.01s3.056.816 4.64 1.17 3.816.932 4.96 1.281c1.886.577 3.256.65 14.72.774 12.314.133 16.388.418 18.4 1.284 1.22.525 1.527.53 2.115.038zm148.92-4.16c-.258-2.94-.321-3.12-1.086-3.12-.347 0-.72-.144-.829-.32-.282-.456-1.12-.396-1.118.08.003.575 1.361 3.831 2.017 4.832.954 1.456 1.237 1.045 1.016-1.472zm-123.44-.124c6.553-3.47 11.067-5.65 13.042-6.295 5.06-1.652 11.146-3.73 11.84-4.04 1.101-.495 2.778-1.006 5.78-1.764 1.594-.402 3.394-.886 4-1.074 5.45-1.697 14.668-4.653 15.18-4.868.353-.148 1.72-.581 3.04-.962 5.41-1.561 10.058-3.416 14.477-5.776.305-.163.718-.297.917-.297s1.664-.586 3.256-1.303 4.059-1.675 5.482-2.131 2.695-.985 2.824-1.177c.13-.192.237-.951.24-1.688.003-.736.157-1.74.344-2.23.638-1.68.128-1.754-14.914-2.19-3.176-.093-6.272-.319-6.88-.503-1.987-.601-63.61.196-66.625.863-1.083.239-1.087.506-.06 3.76.79 2.503 1.094 3.544 2.249 7.72.663 2.397.942 5.375 1.542 16.48.261 4.84.483 8.835.492 8.88.074.347 1.398-.146 3.775-1.405zm94.682.019c1.09-.317 1.921-.784 2.228-1.252.457-.697.413-.896-.668-3.042-2.45-4.867-4.162-6.374-7.26-6.39-2.086-.012-2.99.274-4.055 1.283-.676.641-.74.932-.62 2.807l.132 2.092 2.354 2.14c3.102 2.821 4.682 3.294 7.889 2.362zm56.239-3.683c-2.172-1.818-7.482-7.414-9.234-9.732-.932-1.232-2.226-3.392-2.877-4.8l-1.182-2.56.107-4.48c.1-4.22.072-4.48-.5-4.48-.44 0-1.045.834-2.207 3.04-.88 1.672-2.396 4.192-3.367 5.6-1.96 2.844-3.105 5.207-3.43 7.08-.118.682-.423 1.985-.677 2.895-.261.934-.421 2.605-.367 3.84l.095 2.185 1.6.24c3.556.531 6.853.842 9.28.874 1.408.02 3.136.242 3.84.496.704.253 2.432.47 3.84.48 1.408.01 3.28.213 4.16.45s1.725.314 1.88.17c.153-.143-.28-.727-.96-1.298zm21.17.872l1.492-.756-4.91-.155c-3.495-.111-5.464-.326-6.83-.746-2.093-.643-4.454-2.171-5.768-3.734-1.09-1.295-3.03-5.189-4.19-8.413-.875-2.427-.922-2.822-.9-7.606.014-3.425.143-5.167.4-5.424.426-.427.509-1.73.124-1.968-.54-.335-9.474-.299-9.587.038-.118.356 1.627 1.274 4.123 2.168 1.673.599 3.797 2.212 3.797 2.884 0 .906-1.107 1.11-2.25.415-.888-.54-3.51-1.554-5.721-2.212-.637-.19-.92 1.012-.957 4.07-.052 4.246 1.415 6.862 7.32 13.056 2.86 3 6.574 6.355 8.118 7.336 1.854 1.177 4.93 1.738 9.709 1.771 4.172.03 4.659-.029 6.03-.724zm6.131-2.442c1.517-.87 3.284-2.68 3.311-3.392.006-.16.29-.866.63-1.57.853-1.767.818-2.4-.132-2.4-.662 0-.877.3-1.52 2.118-.79 2.235-2.568 4.578-4.256 5.607-1.708 1.041.1.708 1.967-.363zm-77.195-1.808c.968-1.268 1.135-1.733 1.135-3.173 0-.929-.087-1.914-.192-2.19-.106-.275-1.15-1.18-2.32-2.01-1.17-.831-3.677-3.065-5.57-4.966s-3.609-3.454-3.812-3.454c-.203 0-.759.436-1.234.969-1.401 1.569-1.66 6.685-.392 7.737.272.225 1.17.434 1.997.464 2.793.101 5.234 2.088 7.705 6.27.598 1.011 1.191 1.84 1.318 1.84s.741-.67 1.365-1.487zm22.331-1.394c.132-1.379.386-2.516 1.426-6.4.943-3.518 1.183-3.978 5.085-9.735.904-1.333 2.557-4.257 3.174-5.614.483-1.063.475-1.13-.197-1.638-.444-.335-1.89-.658-3.933-.879-4.506-.488-8.84-.98-11.999-1.361-1.478-.179-2.808-.204-2.955-.057-.148.147-.065 1.054.183 2.016.561 2.18 1.315 6.12 1.771 9.268.954 6.575 1.496 9.433 2.329 12.273l.643 2.193 1.948.922c1.071.507 2.047.816 2.168.687.12-.13.281-.883.357-1.675zm-190.61.942c2.996-.622 5.247-1.251 6.691-1.87.352-.151 1.288-.527 2.08-.834s3.337-1.49 5.655-2.624c3.735-1.83 4.52-2.363 6.883-4.68 1.913-1.874 3.238-3.564 4.685-5.973 2.512-4.186 4.857-8.36 4.857-8.647 0-.12-1.476-.3-3.28-.403-1.804-.102-3.712-.353-4.24-.558-1.412-.549-7.392-.913-21.76-1.324-11.433-.327-13.022-.312-14.88.143-1.144.28-3.232.732-4.64 1.003l-5.074.98c-1.383.267-3.927.486-5.654.486s-3.367.087-3.646.194c-.644.247-.652 1.884-.028 5.696.427 2.606 1.213 5.308 1.777 6.11.124.176.774 1.328 1.446 2.56 3.239 5.946 6.067 8.534 10.699 9.795 3.214.875 14.11.843 18.429-.054zm241.37-.034c1.49-.89 2.916-2.496 2.917-3.284 0-.34-.452-.995-1.005-1.456-.873-.73-.957-.93-.64-1.522.358-.67.596-.788 2.361-1.18.569-.127.922-.446 1.01-.91.075-.394.293-1.483.485-2.42.571-2.783.435-8.3-.279-11.288-.346-1.448-.77-2.774-.942-2.946-.205-.205-.65-.175-1.279.086l-.965.4.18 2.446c.23 3.12-.569 7.936-1.692 10.208-1.598 3.234-5.54 5.054-10.834 5.002-2.95-.028-4.69-.687-6.669-2.523l-1.229-1.14.112-4.71c.069-2.877.26-4.96.494-5.35.816-1.369 1.42-3.023 1.222-3.345-.363-.587-1.339.205-2.24 1.817-.783 1.402-.84 1.747-.717 4.404.261 5.669 1.127 9.627 2.624 11.998.442.7.803 1.409.803 1.575 0 .46 1.529 2.176 2.648 2.974 1.327.944 5.729 1.794 9.475 1.829 2.538.024 3.18-.079 4.16-.664zm-59.926-3.868c-.108-.572-.398-2.264-.644-3.76-.41-2.489-1.321-7.752-2.106-12.16-.747-4.196-1.292-6.502-1.636-6.916-.43-.517-4.873-.609-6.69-.138-2.786.723-12.874 4.314-12.993 4.627-.073.19.697 1.23 1.71 2.307l1.843 1.96 2.464-.16c2.405-.158 2.485-.14 3.36.785 3.177 3.357 3.559 3.933 4.41 6.661.757 2.431 1.008 2.858 2.19 3.733 1.226.905 7.369 4.035 8.013 4.081.152.011.187-.448.08-1.02zm-28.593-1.988l1.121-.468-.167-3.53c-.165-3.473-.153-3.55.735-4.83.496-.716 1.164-1.442 1.485-1.614.884-.473.722-.927-.925-2.599-1.695-1.72-2.616-1.922-3.71-.81-.692.704-.701.822-.437 5.36.149 2.551.314 5.503.368 6.56.116 2.274.131 2.4.288 2.4.067 0 .626-.211 1.242-.469zm146.6-1.318l.848-2.214c.134-.352.555-1.648.935-2.88s.882-2.744 1.117-3.36c.235-.616.69-1.984 1.01-3.04s.678-2.064.797-2.24c.333-.494.966-3.75.767-3.95-.097-.096-1.387-.138-2.868-.091-1.52.047-2.978-.07-3.35-.269-.71-.38-.885-1.432-.3-1.794.452-.279 4.945-1.08 6.102-1.09.474-.002.947-.144 1.052-.313.104-.17.333-3.938.508-8.376.23-5.829.22-8.128-.034-8.285-.193-.12-2.897-.312-6.01-.427-3.11-.116-6.402-.299-7.312-.406l-1.656-.195-.4 1.398c-.22.77-.504 1.542-.63 1.718-.126.176-.754 1.595-1.395 3.152-1.06 2.57-4.554 10.125-5.314 11.484-.17.306-.31.861-.31 1.234 0 .526.126.624.56.434.308-.134 2-.343 3.76-.465 2.7-.186 3.322-.138 3.98.31 1.032.702 1.114 1.06.43 1.872-.524.623-.915.68-4.89.722-2.376.026-4.559.108-4.85.184-.292.076-1.117.897-1.832 1.825-1.004 1.301-1.86 1.966-3.74 2.908-2.706 1.356-2.643 1.183-1.515 4.18.654 1.74.395 1.595 5.217 2.922 1.68.462 3.176.999 5.28 1.894.955.406 2.125.786 6.4 2.078 1.232.373 3.176 1.155 4.32 1.739 1.144.583 2.224 1.028 2.4.987.176-.04.591-.78.923-1.646zm-48.499-3.014c.133-2.653-.244-7.41-.572-7.207-.137.085-.339 1.705-.448 3.6-.11 1.896-.29 4-.4 4.675-.188 1.153-.155 1.22.558 1.12.696-.099.766-.278.862-2.188zm-15.556-.346c2.468-.718 3.465-1.733 4.243-4.316.664-2.207.993-7.517.52-8.4-.362-.676-.545-.698-6.066-.698-5.508 0-5.713.024-6.309.72-1.674 1.958-2.368 4.353-2.372 8.192-.004 2.913.022 3.015.956 3.888 1.794 1.676 4.696 1.874 9.028.614zm-5.727-1.878c-2.077-1.266-2.199-2.783-.516-6.429 1.327-2.875 1.642-3.076 4.332-2.757 1.03.122 1.896.449 2.373.897.686.645.75.968.749 3.77 0 2.49-.12 3.258-.635 4.103-.622 1.02-.68 1.04-2.96 1.04-1.736-.002-2.582-.16-3.343-.624zm4.185-2.122c.107-.278.194-1.353.194-2.388 0-1.575-.108-1.94-.66-2.236-.84-.45-1.58.094-1.58 1.162 0 .45-.322.964-.8 1.278-.936.614-1.065 1.865-.24 2.345.9.524 2.862.421 3.086-.16zm23.437 3.386c3.749-1.907 3.69-1.838 3.434-4.015-.265-2.256-1.381-3.642-4.615-5.734-1.18-.764-2.243-1.546-2.363-1.74-.12-.192-.514-.35-.877-.35-.482 0-.576.107-.347.4.836 1.064 1.36 3.781 1.564 8.11.12 2.535.324 4.61.452 4.61s1.368-.577 2.752-1.281zm-88.843-.166c0-.676-3.464-4.433-4.378-4.75-.519-.179-.925-.149-1.16.087-.27.27.327 1.008 2.338 2.89 2.586 2.422 3.2 2.762 3.2 1.773zm102.4-3.995c0-.177-.36-1.068-.8-1.98-.44-.912-.8-1.8-.8-1.973 0-.536-1.87-4.156-2.635-5.103-.582-.72-1.103-.948-2.645-1.16-1.245-.17-1.993-.148-2.128.064-.114.18.155 1.278.598 2.44.443 1.163.933 2.545 1.089 3.073.21.716.827 1.286 2.424 2.24 1.177.704 2.653 1.594 3.279 1.978 1.294.794 1.618.878 1.618.42zm3.13-6.549c1.215-1.022 4.43-5.808 4.736-7.05.13-.528 1.421-3.408 2.87-6.4 3.85-7.955 4.96-10.434 4.794-10.704-.082-.132-1.846-.324-3.92-.427-2.073-.103-5.888-.496-8.476-.874l-4.705-.687-3.135 3.16c-1.77 1.786-4.283 3.908-5.774 4.879-1.452.945-2.64 1.875-2.64 2.066s.683.708 1.519 1.148c2.098 1.104 5.395 4 7.812 6.861 1.128 1.335 2.287 2.405 2.61 2.41 1.036.015 1.819.643 1.819 1.46 0 .434-.144.788-.32.788s-.32.127-.32.282c0 .543 1.65 3.878 1.919 3.878.15 0 .694-.355 1.21-.79zm-15.61-1.934c0-.266-.13-.734-.287-1.04-.158-.306-.55-1.19-.872-1.966-.321-.776-.948-1.928-1.393-2.561-.444-.633-1.23-1.982-1.746-2.999s-1.098-1.98-1.294-2.142c-.227-.19-.954 0-2.02.528-1.452.719-1.782.775-2.591.44-.63-.261-.987-.683-1.114-1.319-.103-.513-.423-1.295-.712-1.735-.452-.691-.762-.802-2.248-.802-1.743 0-2.092.256-1.275.934.247.205.546.759.664 1.23.191.762 2.25 3.11 5.608 6.397.616.603 2.247 1.667 3.625 2.364 1.378.697 3.091 1.693 3.808 2.212 1.469 1.064 1.847 1.158 1.847.46zm-209.65-.97c.47-1.033.466-1.106-.07-1.106-.632 0-1.263.868-1.045 1.436.275.715.695.59 1.115-.33zm110.38-1.886c.067-.067-.141-.2-.463-.297-.742-.224-4.86-.034-5.13.236-.112.112.127.555.53.985l.735.781 2.103-.791c1.157-.436 2.158-.847 2.225-.914zm70.633-1.406c.88-.478 1.6-1.067 1.6-1.309 0-.534-2.295-1.381-3.074-1.134-.832.264-3.22 2.684-3 3.04.38.613 2.856.282 4.474-.597zm7.52.605c0-.432-.584-.731-.965-.495-.18.11-.243.335-.142.498.24.39 1.107.387 1.107-.003zm-18.294-.579c.158-.308.388-1.34.51-2.295.121-.954.356-1.988.521-2.297.165-.309.217-.778.116-1.043-.179-.465-2.643-1.485-3.588-1.485-.754 0-6.894 6.296-6.68 6.85.137.359.826.51 2.68.592 6.127.269 6.137.268 6.44-.322zm23.548.366c.832-.32.577-.933-.625-1.506-2.14-1.02-2.75-.53-1.084.872 1.103.929 1.02.898 1.709.634zm-278.92-.51c.273-.273.384-2.265.384-6.929 0-6.537 0-6.547.917-8.496.504-1.073 1.018-2.275 1.142-2.67l.224-.72-5.062.005c-5.773.007-14.784.441-20.422.983-3.664.353-5.28.848-5.28 1.618 0 .512-2.214 5.351-3.077 6.727-.406.645-.829 1.581-.94 2.08-.312 1.39-1.112 3.69-1.613 4.636-.247.467-.45.985-.45 1.15 0 .174 3.131.397 7.367.526 4.051.124 8.623.378 10.16.566 1.536.187 5.745.444 9.353.57 3.608.127 6.64.255 6.736.284.097.03.35-.118.56-.33zm300.22-.055c0-.474-4.334-4.729-5.396-5.297-1.101-.59-1.054.152.118 1.855.615.894 1.118 1.754 1.118 1.91 0 .157.298.665.663 1.128.538.684.93.843 2.08.843.988 0 1.417-.133 1.417-.439zm-286.97-.378c5.963-1.121 11.423-2.322 11.73-2.58.068-.056-.688-.98-1.68-2.051s-1.804-2.196-1.804-2.499-.195-.834-.434-1.181c-.606-.883-1.391-3.453-1.806-5.912-.193-1.144-.499-2.548-.68-3.12l-.33-1.04h-5.818c-6.472 0-5.8-.22-7.219 2.364-1.482 2.7-1.633 3.643-1.633 10.207v6.31h3.514c1.932 0 4.704-.224 6.16-.498zm54.455-5.032c-.103-2.68-.326-5.879-.497-7.11s-.41-3.105-.53-4.16l-.222-1.92-5.6.053-15.68.153c-5.544.054-13.087-.028-16.762-.183l-6.682-.281.182 1.889c.218 2.257.742 4.844 1.162 5.729.167.352.66 1.432 1.096 2.4.946 2.104 2.985 4.257 4.987 5.268 1.328.67 2.038.754 8.017.94 10.618.331 17.493.819 21.76 1.544 5.249.891 7.715 1.129 8.398.809.506-.237.54-.707.37-5.131zm10.992 5.033c1.064-.328-.119-5.07-2.216-8.887-.805-1.464-2.063-3.06-3.471-4.404-1.215-1.159-2.355-2.49-2.533-2.96-.783-2.059-1.284-.347-.64 2.187.18.704.466 4.153.638 7.665.216 4.423.433 6.46.707 6.63.37.23 6.64.038 7.515-.231zm159.81.096c.27-.22.964-1.192 1.541-2.16.578-.968 1.753-2.656 2.61-3.753.858-1.096 1.56-2.068 1.56-2.16 0-.53-5.692.54-12 2.255-.88.24-2.012.52-2.516.622-.882.18-.895.21-.358.803.307.34.863.71 1.236.822.373.113 1.398.75 2.278 1.414 1.886 1.425 3.947 2.557 4.654 2.557.277 0 .725-.18.995-.4zm23.118-2.835c.38-.331-1.857-1.386-2.453-1.157-.26.1-.546.787-.649 1.565-.101.763-.289 1.747-.416 2.187-.2.687.013.577 1.5-.773.952-.865 1.86-1.685 2.018-1.822zm-175.49 1.961c1.295-.24 1.95-.558 2.478-1.205.737-.904.951-2.14.426-2.465-.162-.1-.387-.603-.5-1.117-.29-1.316-.8-1.632-3.441-2.129-1.278-.24-2.865-.679-3.526-.973-.662-.295-1.29-.451-1.394-.347-.104.104.24 1.255.766 2.557s1.059 3.112 1.184 4.021c.231 1.683.83 2.403 1.767 2.125.264-.078 1.272-.288 2.24-.467zm142.72.05c0-.147-.725-.606-1.61-1.02-.886-.415-1.768-.944-1.96-1.175-.447-.54-1.487-.532-3.744.026-.993.246-2.208.538-2.7.65-1.45.329-.73.713 1.763.939 4.479.405 5.838.565 5.977.704.256.256 2.274.145 2.274-.125zm-21.76-1.256c.44-.198 1.847-.67 3.126-1.048l2.326-.689-.086-6.931-.086-6.932-2.344.097c-1.29.054-2.73.255-3.2.449-.489.2-3.91.415-7.969.5l-7.112.15-.2 1.162c-.11.64-.54 2.314-.954 3.722-.415 1.408-.85 3.352-.966 4.32s-.408 2.535-.647 3.482c-.24.946-.348 1.861-.242 2.033.274.444 17.315.151 18.354-.316zm-24.45-.206c.095-.245-.276-1.286-.824-2.312-1.067-2-1.481-3.324-1.99-6.362a191.763 191.763 0 00-.691-3.84l-.37-1.92-4.478-.196c-12.284-.538-18.81-.997-21.277-1.495-3.428-.69-15.925-.727-18.24-.053-1.08.315-6.142.465-20.27.602l-18.83.182-.77 2.362c-.562 1.726-.773 3.105-.784 5.12-.009 1.696-.205 3.251-.51 4.038-1.365 3.522-1.01 3.88 3.308 3.335 2.393-.301 8.446-.338 25.537-.156 12.32.132 30.032.3 39.36.372 9.328.073 17.608.26 18.4.416 2.074.408 2.241.402 2.43-.093zm64.58-3.268c.653-.634 1.107-1.235 1.007-1.334-.22-.22-2.485 1.573-2.664 2.107-.237.712.465.385 1.657-.773zm31.23.106c0-.985-.727-1.955-2.1-2.804-1.276-.788-2.37-.76-6.38.164-1.241.286-2.786.436-3.465.335-1.627-.242-4.375.14-4.375.609 0 .849 3.592 1.502 9.277 1.687 3.082.1 5.819.303 6.083.45.764.427.96.337.96-.441zm-59.417-.422c.823-.28 1.497-.63 1.497-.776s-.327-.53-.727-.85c-.4-.321-1.294-1.268-1.988-2.104-.693-.836-1.374-1.52-1.513-1.52-.304 0-.33 2.23-.049 4.276.233 1.694.447 1.77 2.78.974zm-32.814-2.234c.225-1.218.78-3.375 1.235-4.793 1.183-3.686 1.127-3.802-1.892-3.916-1.822-.069-2.525.018-2.643.326-.328.857.84 7.918 1.444 8.727.131.176.336.727.455 1.223.354 1.48.965.798 1.4-1.567zm40.39.376c5.489-1.721 12.328-3.39 13.92-3.397 1.433-.006 1.908-.406 1.208-1.017-.537-.468-7.116-3.777-7.51-3.777-.103 0-1.172-.576-2.377-1.28l-2.19-1.28h-6.645c-7.726 0-7.537-.113-5.488 3.261 1.162 1.912 6.723 7.944 7.323 7.943.176-.001.968-.205 1.76-.453zm-134.72-.672c0-.264-.135-.48-.3-.48-.404 0-.693.5-.437.756.36.36.738.22.738-.276zm176.05-2.289c.466-.42 1.324-.534 4.238-.559 2.01-.017 3.748-.124 3.861-.238.113-.113-.17-.581-.628-1.04-.947-.947-1.55-1.002-5.192-.47-2.569.376-6.813 2.173-6.813 2.886 0 .551 3.826.063 4.535-.579zm-8.134-.093c.736-.613.958-1.298.421-1.298-.576 0-2.09.684-2.313 1.045-.605.98.797 1.167 1.892.253zm-174.5-1.325a.357.357 0 00-.49-.116c-.167.103-.219.324-.116.49s.324.22.49.117a.357.357 0 00.116-.49zm197.3.369c0-.498-1.214-.72-1.908-.348-.947.507-.811.646.628.646.704 0 1.28-.134 1.28-.298zm10.493-1.752c3.982-2.627 6.913-5.017 7.055-5.75.103-.54-.22-.57-5.03-.468l-5.142.108-2.408 2.392c-1.324 1.316-2.407 2.508-2.407 2.648s.327.38.727.533c.4.152 1.35.796 2.11 1.432.76.635 1.52 1.155 1.686 1.155.166 0 1.7-.922 3.41-2.05zm-200.89-3.412c0-.404-.22-.618-.64-.618-.352 0-.64.144-.64.32 0 .175-.504.876-1.12 1.558-1.097 1.215-1.36 1.934-.88 2.418.346.348 3.28-2.942 3.28-3.678zm160.42 3.24a208.61 208.61 0 012.235-.489c1.419-.298.671-.809-1.184-.809-1.626 0-3.12-.57-5.39-2.058-.91-.595-4.564-1.012-4.848-.552-.283.457 1.271 1.471 3.327 2.172.968.329 2.336.92 3.04 1.315 1.51.843 1.171.793 2.82.422zm-168.22-.792c.222-.577-.763-2.106-1.356-2.106-.246 0-1.213-.432-2.149-.96-1.058-.597-2.158-.96-2.91-.96-1.142 0-1.197.046-1 .834a5.111 5.111 0 002.247 3.05c1.229.75 4.896.85 5.168.142zm198.35-2.839c2.18-1.696 2.365-2.33.58-1.99-.66.126-1.993.343-2.96.482-2.58.372-5.168 1.203-6.08 1.954l-.8.659 2.4-.148c1.32-.082 2.76-.033 3.2.108 1.166.375 2.193.076 3.66-1.065zm-194.44.35c.587-.587.462-.897-.362-.897-.91 0-1.185.24-.958.832.212.55.806.579 1.32.064zm174.14-.224c2.162-.184 1.855-.23-3.092-.47-5.422-.26-7.394-.118-6.47.467.495.314 5.89.315 9.562.002zm-58.4-2.935c.88-.167 2.716-.465 4.08-.662 1.568-.227 2.48-.504 2.48-.755 0-.219-.288-1.299-.64-2.4s-.64-2.196-.64-2.431c0-.732-1.066-1.07-2.42-.766-1.436.321-6.579 1.181-9.9 1.655-1.232.175-2.45.426-2.705.556-.257.13-.629.874-.827 1.653-.2.779-.51 1.703-.691 2.054-.687 1.328-.308 1.44 4.81 1.42 2.67-.011 5.573-.157 6.453-.324zm-221.76-.765c3.168-.26 9.457-.477 13.974-.483l8.215-.01 1.625-1.823c.894-1.004 1.506-1.944 1.36-2.091-.471-.47-9.532-.66-19.686-.412l-9.871.242-1.093.96c-1.386 1.216-2.21 2.394-2.493 3.561-.22.91-.211.915.994.723.668-.106 3.807-.406 6.975-.667zm207.32-.893c.313-.924.595-2.04.625-2.48l.056-.8-4.294-.09c-2.416-.05-4.427.044-4.598.215-.268.268-.03 1.896.622 4.275.134.49.589.56 3.587.56h3.433zm152.43 1.237c.292-.291.131-2.524-.205-2.86-.146-.146-1.615-.312-3.265-.37-1.65-.058-4.389-.209-6.087-.336-3.375-.252-3.583-.156-3.83 1.77-.172 1.338.234 1.598 2.536 1.623 1.178.013 2.79.136 3.581.272 1.688.292 6.951.22 7.27-.099zm-164.07-1.456c0-.868-.14-1.948-.312-2.4l-.312-.82-4.888-.023c-7.326-.033-13.29-.595-20.052-1.888-.948-.181-4.398-.33-7.666-.33-5.58 0-8.037.23-14.29 1.335-4.083.722-7.476.87-20 .875-7.128.002-13.14.01-13.36.017-.277.01-.4.65-.4 2.093v2.08h16.094c14.617 0 16.533-.061 20.88-.672 6.857-.962 13.662-.975 19.826-.037 4.444.676 12.531 1.173 21.2 1.3l3.28.05zm237.79.507c3.48-.907 6.58-2.175 7.093-2.902.491-.697-.236-3.532-1.79-6.986-.51-1.133-.86-1.52-1.376-1.52-.659 0-.69.132-.645 2.702l.048 2.701-1.28 1.318c-1.361 1.401-3.584 2.98-5.882 4.177-1.232.642-1.337.777-.868 1.12.55.403 1.068.336 4.7-.61zm-174.45-1.719c-2.144-2.296-1.978-2.203-4.383-2.463-2.653-.288-2.614.113.247 2.545 1.883 1.6 2.493 1.937 3.76 2.077.832.092 1.646.06 1.808-.071.162-.131-.482-1.07-1.432-2.088zm8.017 1.815c0-.147-.29-.47-.645-.719-.354-.248-1.165-1.12-1.802-1.938-.97-1.245-1.334-1.487-2.236-1.487-.664 0-1.077.158-1.077.411 0 .577 3.193 3.657 4.16 4.012.839.308 1.6.176 1.6-.279zm11.042.333c.28-.453-.938-1.918-2.436-2.93-.992-.67-1.794-.896-3.735-1.049-1.359-.107-3.011-.265-3.671-.35-1.765-.228-1.548.429.835 2.52l2.035 1.787 3.005.106c1.653.059 3.177.137 3.386.173a.613.613 0 00.58-.257zm-198.48-.512c4.304-.183 4.4-.203 4.4-.913 0-.399-.312-1.122-.693-1.606l-.693-.88-3.227.219c-1.775.12-4.883.456-6.907.745-2.978.425-6.52.528-18.56.538l-14.88.012v1.92l5.76.19c6.367.208 27.912.07 34.8-.225zm24.499-.67c.083-.856-.055-1.098-.864-1.517-.53-.274-1.114-.498-1.3-.498-.54 0-.387.96.341 2.14.842 1.36 1.684 1.304 1.823-.124zm3.2.01c-.131-1.556-.787-1.74-.96-.27-.145 1.247-.06 1.445.614 1.445.318 0 .417-.336.346-1.175zm234.44.464c.274-.391.498-1.088.498-1.55v-.838l-5.04-.21c-8.116-.336-10.402-.278-11.209.288-1.024.717-.91 1.421.228 1.421.517 0 1.345.158 1.84.35.496.193 3.565.535 6.821.76 3.256.225 6.02.427 6.142.45.122.022.446-.28.72-.67zm-305.8-.809c.08-.822-.021-1.044-.48-1.061-.915-.034-2.669-.275-4.58-.63l-1.76-.326-1.216 1.293c-.669.712-1.126 1.44-1.016 1.618.124.2 1.87.29 4.576.235l4.376-.089zm255.4.502c.298-.093.342-.22.123-.355-.188-.117-.613.107-.944.495-.332.39-.387.55-.123.356.264-.194.689-.417.944-.496zm-48.693.011c-.18-.543-6.851-4.113-7.686-4.113-.35 0-.523.523-.656 1.99-.1 1.094-.11 2.102-.026 2.24.262.424 8.51.309 8.368-.117zm8.39.103c0-.145-.353-.595-.784-1-.431-.405-.867-1.117-.97-1.582-.102-.466-.505-1.235-.896-1.71-.616-.75-1.073-.909-3.422-1.194-3.429-.417-4.809-.417-4.809-.003 0 .18.396.5.88.711 1.493.652 4.01 2.233 5.52 3.467.792.647 1.656 1.255 1.92 1.35.766.278 2.56.25 2.56-.039zm-158.4-.593c0-.295.17-1.012.38-1.592.417-1.152.289-1.505-.444-1.223-.472.18-1.278 2.864-.957 3.185.37.37 1.02.134 1.02-.37zm18.543-.583c-.01-.502-1.531-2.238-1.76-2.01-.113.114.013.612.28 1.108.268.496.578 1.186.689 1.533.169.528.251.554.5.16.164-.259.295-.615.291-.79zm209.11.286c.279-.107.506-.323.506-.48 0-.345-1.13-.369-2.6-.055l-1.08.23 1.12.208c.616.114 1.217.226 1.334.25.118.022.442-.046.72-.153zm-32.355-.713c1.676-.692.576-1.013-3.478-1.013-4.168 0-4.868.271-2.941 1.14 1.2.54 4.984.466 6.42-.127zM385.567 94c.604-.183 2.59-.638 4.416-1.01 1.826-.373 3.276-.822 3.224-.997-.127-.421-7.205-.225-8.079.223-.976.502-2.098 1.595-2.098 2.044 0 .408.51.356 2.537-.26zm-70.166-3.268c-.105-.274-.34-.498-.52-.498-.376 0-.436.953-.114 1.793.197.514.245.503.521-.116.167-.375.218-.905.113-1.179zm-160.77-.038c2.598-.253 5.237-.46 5.864-.46.864 0 1.115-.12 1.037-.499-.113-.543-.797-.949-5.384-3.192-1.672-.818-3.256-1.677-3.52-1.91-.634-.558-5.883-2.717-6.621-2.723-.318-.003-1.155-.213-1.859-.466-2.044-.737-6.822-.611-10.465.275-3.507.853-5.372 1.711-6.917 3.183-1.335 1.272-3.258 4.397-3.258 5.294 0 .658.14.68 4.56.717 2.508.022 6.576.135 9.04.251 5.702.27 11.533.114 17.523-.47zm358.24.233c.306-.148 1.132-.544 1.836-.881 1.207-.578 1.28-.693 1.28-2.026 0-.845-.16-1.466-.4-1.546-.263-.087-.4.21-.4.868 0 2.088-2.685 3.385-4 1.932-.45-.498-.986-.64-2.413-.64-1.596 0-1.9-.102-2.35-.788-.285-.434-.517-1.223-.517-1.754 0-.757-.169-1.008-.782-1.162-.43-.108-.934-.102-1.12.013-.65.402-.354 1.816.542 2.578 4.466 3.797 4.26 3.673 6.065 3.673.937 0 1.954-.12 2.26-.267zm-392.57-.693c.123-.264.39-.802.593-1.195.203-.394.37-.943.37-1.22 0-.43-.182-.402-1.2.176-1.905 1.082-3.065 2.13-2.812 2.54.329.532 2.775.29 3.05-.3zm-7.256-.69c.384-.204 1.512-1.104 2.507-2 .994-.896 2.794-2.13 4-2.74a59.891 59.891 0 004.328-2.48c1.175-.753 2.297-1.37 2.493-1.37s1.324-.527 2.504-1.172c1.18-.645 3.01-1.592 4.067-2.105 1.056-.513 2.424-1.217 3.04-1.564s1.516-.782 2-.966c.484-.184.88-.453.88-.598 0-.608-4.546-1.274-8.543-1.252-7.034.04-11.416.811-18.657 3.287-4.735 1.619-5.287 1.819-5.771 2.092-.27.152-.984.385-1.587.518-.603.132-1.852.65-2.775 1.149l-2.253 1.219c-.93.502-6.837 3.223-8.574 3.949-.88.367-1.737.789-1.904.936-.168.147-.509.267-.759.267s-1.318.525-2.373 1.167c-2.264 1.375-1.999 1.776.876 1.327 1.056-.166 5.736-.365 10.4-.443 7.388-.124 8.892-.064 11.68.465 1.76.335 3.317.625 3.46.646.144.021.576-.128.96-.332zm251.09-1.064c1.419-1.464 2.632-1.824 5.488-1.629 2.926.2 4.204.57 5.57 1.61 1.18.901 2.068 1.055 2.068.36 0-.613-3.296-3.54-5.28-4.692-1.476-.857-1.85-.929-4.826-.932-3.08-.002-3.293.043-4.736.998-2.304 1.527-3.398 2.753-3.398 3.808 0 1.15.684 1.57 2.577 1.582 1.25.008 1.61-.149 2.537-1.104zm6.726.794c0-.176-.216-.32-.48-.32s-.48.144-.48.32.215.32.48.32.48-.144.48-.32zm48.32-.79c1.32-.296 3.624-.671 5.12-.834 1.496-.163 2.916-.37 3.157-.46.656-.246.332-19.766-.409-24.635-.637-4.193-2.23-10.846-3.016-12.602-.753-1.68-3.71-6.37-5.493-8.708a118.541 118.541 0 01-2.88-3.99c-4.718-6.882-6.31-8.692-12.593-14.322-4.21-3.774-9.67-7.258-11.372-7.258-.434 0-1.664.29-2.732.646-1.069.355-3.167.916-4.663 1.245-1.496.33-3.44.818-4.32 1.084s-2.32.701-3.2.965a69.144 69.144 0 00-8.822 3.355c-1.484.689-3.048 1.363-3.476 1.498-.427.136-2.731 1.218-5.12 2.404-2.388 1.187-5.246 2.535-6.35 2.995-2.542 1.059-7.063 4.023-8.32 5.455-1.23 1.4-3.045 4.033-2.78 4.033.11 0 .946-.708 1.855-1.574 3.266-3.11 6.92-5.322 11.381-6.89l6.512-2.29c3.252-1.144 7.46-1.934 12.079-2.27 3.252-.236 7.657.505 15.52 2.61 5.129 1.373 7.99 2.999 11.572 6.574 4.896 4.888 7.52 9.05 10.089 16 2.155 5.832 2.462 7.66 2.874 17.088.288 6.607.278 9.05-.048 11.857-.227 1.944-.538 3.78-.693 4.08-.494.96-.73 4.452-.319 4.707.457.283 3.247-.048 6.446-.763zm-241.32-.026c.1-.522.047-.545-.4-.174-.612.507-.688 1.1-.117.91.22-.073.452-.404.517-.736zm8.123.486c-1.563-.628-.433-2.23 1.572-2.23.865 0 2.12.42 3.826 1.28 2.81 1.418 2.842 1.428 2.842.929 0-.63-2.04-2.288-3.84-3.121-1.56-.722-2.188-.816-5.508-.831-3.074-.014-3.842.078-4.278.513-.494.493-.467.61.388 1.69.505.638 1.206 1.214 1.558 1.28.352.065 1.216.259 1.92.43 1.65.4 2.442.431 1.52.06zm109.89-3.373c3.808-5.622 3.609-5.178 2.668-5.963-.678-.565-2.159-1.315-5.6-2.835-2.926-1.292-10.33-4.139-10.765-4.139-.504 0-.533.605-.384 7.92.089 4.356.217 8.1.285 8.32.094.3 1.52.4 5.706.4h5.581zm6.248 2.76c1.706-.338 4.13-.715 5.387-.84 3.221-.317 3.32-1.2.313-2.806a545.85 545.85 0 01-2.989-1.622c-2.617-1.429-2.427-1.526-5.322 2.73-2.11 3.103-2.313 3.664-1.209 3.354.396-.11 2.115-.478 3.82-.816zm52.888.223c-.118-.396-.93-1.8-1.806-3.12l-1.592-2.4.214-5.12c.25-5.97.842-8.312 2.696-10.65 2.912-3.674 7.597-6.795 12.259-8.168 1.41-.416 4.646.038 7.883 1.105 1.643.541 2.547 1.136 4.64 3.052 4.113 3.765 6.2 6.376 6.633 8.298.373 1.657.215 11.62-.22 13.803-.16.808-.098 1.04.28 1.04.303 0 .86-.897 1.476-2.377.859-2.063.988-2.753.976-5.2-.008-1.553-.143-3.83-.3-5.063-.157-1.232-.432-3.392-.613-4.8-.18-1.408-.633-3.352-1.007-4.32s-.862-2.414-1.086-3.214c-.495-1.767-.729-2.212-2.935-5.598-.955-1.464-2.34-3.14-3.077-3.725-1.325-1.049-1.39-1.064-5.168-1.178-5.222-.157-7.945.33-11.356 2.034-4.279 2.137-7.014 3.361-7.509 3.361-.752 0-4.843 2.512-5.949 3.653-.57.588-1.181 1.627-1.358 2.308-.177.682-.4 5.197-.496 10.033-.19 9.662.102 13.085 1.3 15.228.683 1.22.766 1.264 2.776 1.443 3.828.341 3.578.373 3.34-.425zm25.42 0c1.66-4.381 1.576-5.484-.576-7.62-3.18-3.157-7.202-4.836-12.064-5.036l-3.233-.133-1.887 1.227c-5.118 3.327-7.557 5.835-6.89 7.083.839 1.566 1.21 1.532 3.179-.284 2.835-2.615 4.17-3.157 7.78-3.155 3.809.002 4.775.282 7.75 2.243 1.33.878 2.526 1.595 2.656 1.595.737 0 1.718 1.48 1.718 2.59 0 .659.088 1.426.194 1.704.284.74 1.057.619 1.373-.214zm148.99-3.466v-3.974l-1.28-.16c-1.174-.146-1.28-.24-1.28-1.12 0-.852.118-.971 1.058-1.061.582-.056 1.132-.295 1.223-.531.21-.55-.718-2.355-1.601-3.114-1.115-.958-5.007-3.233-5.2-3.04-.1.099.256 1.378.789 2.843 1.956 5.379 3.63 9.737 4.232 11.019.34.723.618 1.398.618 1.499 0 .662.713 1.855 1.042 1.745.29-.096.398-1.222.398-4.106zm-183.27 3.176c.055-.29-.136-1.08-.427-1.758-.71-1.658-1.047-15.045-.501-19.951.57-5.13.953-6.364 2.432-7.84 1.146-1.145 1.921-1.635 5.442-3.445.528-.272 2.616-1.181 4.64-2.021 2.024-.84 4.244-1.879 4.933-2.308 2.344-1.461 5.77-2.262 10.747-2.512l4-.202 2.191 1.07c2.409 1.176 3.814 2.576 6.165 6.146 1.512 2.294 2.268 3.835 2.705 5.512.138.528.613 1.968 1.057 3.2s.972 3.68 1.176 5.44c.203 1.76.49 4.208.638 5.44.47 3.912.36 6.404-.374 8.559-.375 1.1-.799 2.15-.941 2.331-.143.182-.408.722-.59 1.2l-.33.87h7.514l1.027-1.57c.566-.863 1.553-3.131 2.194-5.04.641-1.908 1.328-3.672 1.527-3.919.221-.274.404-2.347.47-5.35.086-3.891.009-5.1-.374-5.868-.265-.531-.577-1.398-.693-1.926-.116-.528-.344-1.042-.506-1.142-.163-.1-.296-.377-.296-.614 0-.37-2.647-6.306-3.536-7.928-.168-.307-.74-1.387-1.272-2.4-.531-1.014-1.658-2.654-2.504-3.645-.846-.991-1.786-2.36-2.089-3.04a29.89 29.89 0 00-.907-1.878 77.014 77.014 0 01-1.113-2.144c-.416-.827-1.284-1.939-1.93-2.471-2.477-2.042-5.112-2.316-14.008-1.457-5.366.518-7.874 1.099-12.32 2.85l-5.4 2.13c-1.297.513-2.505.932-2.684.932-.179 0-1.514.57-2.967 1.267-2.535 1.215-3.99 2.467-3.99 3.433 0 .25-.491 1.418-1.092 2.597a59.243 59.243 0 00-1.97 4.383c-.483 1.232-1.204 2.672-1.602 3.2-.4.528-.818 1.392-.931 1.92s-.5 1.924-.86 3.101c-.595 1.952-.642 2.8-.533 9.6.1 6.282.207 7.63.674 8.548.305.6.555 1.304.555 1.566 0 .887 2.367 5.144 3.026 5.44 1.114.502 3.51.3 3.627-.305zm-7.796.086c.097-.157-.2-.958-.659-1.78-.459-.821-.952-1.953-1.095-2.515a25.996 25.996 0 00-.748-2.3c-.725-1.904-.737-16.618-.014-18.33.276-.655.844-2.165 1.263-3.357.418-1.191 1.036-2.56 1.373-3.04.337-.48.861-1.45 1.165-2.153.484-1.12 1.282-2.817 4.12-8.762.613-1.281.944-1.532 3.884-2.938 1.767-.845 4.077-1.823 5.133-2.174s3.504-1.272 5.44-2.045 4.384-1.653 5.44-1.953a80.42 80.42 0 002.88-.87c1.6-.543 9.349-1.257 13.64-1.258 3.355 0 4.286.109 5.497.645 2.293 1.014 4.455 2.91 5.318 4.661.426.865 1.11 2.11 1.52 2.767.41.657.745 1.396.745 1.644 0 .247.479.934 1.064 1.526a30.641 30.641 0 012.083 2.406c1.198 1.564 5.112 9.154 6.493 12.59.53 1.32 1.186 2.904 1.457 3.52.811 1.843 1.229 7.709.774 10.871-.214 1.491-.51 2.86-.656 3.04-.147.181-.798 1.906-1.446 3.832-.649 1.926-1.384 3.794-1.634 4.151-.842 1.201-.584 1.467 1.421 1.467 1.032 0 2.645.145 3.585.324 1.306.247 1.797.228 2.086-.08.208-.223.627-1.844.932-3.604s.673-3.848.818-4.64c.146-.792.272-4.176.282-7.52.032-11.342-1.542-18.811-5.504-26.128-2.622-4.844-8.051-10.685-11.496-12.37-2.712-1.327-4.278-1.983-4.734-1.983-.208 0-1.41-.353-2.672-.785-1.261-.432-3.157-.936-4.213-1.12a161.285 161.285 0 01-3.68-.69c-2.16-.438-8.436-.18-12 .493-1.408.266-3.568.856-4.8 1.313s-3.786 1.377-5.676 2.047c-3.638 1.29-6.054 2.6-8.506 4.61-3.477 2.85-5.522 5.095-7.117 7.809-.906 1.542-2.205 3.533-2.887 4.424-1.59 2.078-3.066 5.337-3.492 7.713-1.343 7.495-1.384 8.061-1.01 14.186.265 4.36.57 6.722 1.156 8.96.437 1.672.8 3.697.804 4.5.01 1.724.461 2.45 1.768 2.84 1.286.383 1.688.395 1.898.056zm-172.94-.345c0-.17-.641-1.032-1.426-1.915-.784-.883-1.575-1.885-1.757-2.225-.317-.592-3.208-2.342-4.6-2.783-.362-.115-1.532-.74-2.598-1.386-1.744-1.059-3.059-1.572-7.44-2.904-1.74-.53-8.579.11-8.579.802 0 .176 1.224.416 2.72.533 3.155.246 7.681 1.375 8.8 2.195.176.129.672.342 1.102.474.43.132 1.654.772 2.72 1.421s3.594 1.994 5.618 2.988c2.024.994 4.04 2.097 4.48 2.451.93.748.96.76.96.35zm166.08-1.53c0-.804-.924-5.525-1.154-5.897-.871-1.409-1.424-14.482-.758-17.928 1.203-6.229 1.457-7.162 2.722-10.016.593-1.34 2.948-4.722 3.676-5.28.457-.35 2.555-3.697 2.555-4.076 0-.788-.556-.371-3.223 2.417-3.67 3.838-5.284 5.786-7.69 9.277-2.915 4.229-3.041 4.458-3.804 6.942-.379 1.232-.823 2.528-.988 2.88s-.427 1.288-.583 2.08a235.985 235.985 0 01-1.484 6.88c-1.84 7.986-2.388 12.085-1.671 12.528.197.122 1.808.204 3.58.181 1.773-.022 4.23.077 5.463.22 3.408.396 3.36.4 3.36-.209zm109.25.365c.71-.272.64-.796-.416-3.085-1.076-2.336-1.526-3.585-2.158-6-1.237-4.723-2.112-8.883-2.684-12.762-.172-1.167-.827-3.154-1.53-4.64-.677-1.429-1.488-3.246-1.803-4.038-.315-.792-.833-2.016-1.151-2.72s-.864-2.158-1.212-3.231c-.576-1.778-2.347-5.348-3.926-7.917-.342-.557-1.016-1.81-1.497-2.784-1.902-3.847-5.168-8.483-9.01-12.788-3.146-3.526-8.803-9.152-9.894-9.838-.469-.295-1.716-1.19-2.772-1.99-1.711-1.294-2.09-1.447-3.474-1.403-2.384.076-2.414.492-.144 1.976 2.21 1.446 4.94 3.636 9.466 7.595 2.806 2.455 5.96 6.086 8.512 9.802a84.41 84.41 0 001.775 2.498c2.663 3.497 5.464 7.463 5.464 7.737 0 .182.414.855.92 1.497 2.552 3.236 4.383 9.272 5.84 19.246.517 3.547.714 6.807.834 13.84l.157 9.2h4.099c2.254 0 4.326-.088 4.604-.195zm69.747-.938c.124-.321-.06-.585-.525-.758-.94-.35-1.515-.105-1.515.645 0 .767 1.752.865 2.04.113zm-194.97-3.19c.104-1.583.338-3.382.52-3.998s.563-2.2.846-3.52c3.06-14.258 3.365-15.129 7.458-21.28 3.682-5.532 5.882-8.173 9.826-11.794 1.686-1.547 3.532-3.402 4.101-4.122l1.037-1.308-.948.598c-1.232.777-7.69 6.162-10.344 8.626-1.138 1.056-2.866 3-3.839 4.32s-2.582 3.264-3.574 4.32c-3.382 3.598-5.76 7.054-6.118 8.888-.59 3.032-.853 7.337-.883 14.488-.031 7.247.085 7.97 1.243 7.75.375-.071.53-.751.675-2.969zm133.22 2.575c.896-.257 2.78-.707 4.189-1s3.352-.719 4.32-.947c4.853-1.147 16.174-1.528 32.64-1.1l5.92.154.163-2.56c.24-3.754 1.057-4.9 5.277-7.386 2.323-1.37 9.021-3.301 14.08-4.06 2.139-.32-1.326-7.422-6.827-13.994-.516-.616-1.598-2.318-2.406-3.781-1.712-3.104-4.833-6.713-8.15-9.422-1.29-1.055-3.277-3.043-4.415-4.418-1.138-1.376-2.963-3.209-4.056-4.074-1.092-.864-3.271-2.817-4.841-4.339-1.57-1.521-2.955-2.766-3.078-2.766-.122 0-.6.57-1.062 1.269-1.711 2.586-4.408 4.922-7.406 6.416-2.617 1.304-3.084 1.433-5.12 1.412-5.39-.056-9.909-2.357-12.524-6.377-.343-.528-1.034-1.968-1.535-3.2-.843-2.072-.907-2.529-.856-6.08.036-2.522.231-4.38.568-5.413.48-1.467.477-1.6-.037-1.975-1.035-.757-5.464-.932-22.896-.907-14.834.022-17.823.104-20 .55-1.408.289-3.125.565-3.815.615-.69.05-1.298.234-1.351.41s.655.824 1.572 1.44c3.173 2.13 11.874 11.133 15.464 16 3.453 4.681 10.083 16.43 10.834 19.2.317 1.166 1.956 5.108 3.726 8.96 1.565 3.407 1.777 4.107 2.703 8.96 1.01 5.283 1.498 7.535 1.94 8.937.246.779.448 1.626.448 1.88 0 .256.592 1.85 1.316 3.544a195.43 195.43 0 011.593 3.799c.33.863 1.267.929 3.622.252zm73.141-1.853c-.004-.044-.373-1.088-.82-2.32-.448-1.232-.96-2.672-1.14-3.2s-.445-1.248-.592-1.6c-.147-.352-.523-1.432-.837-2.4-.862-2.664-.906-2.688-3.675-2.076-2.664.588-6.241 1.42-7.093 1.65-1.216.328-.087.746 2.013.746 1.644 0 2.522.172 3.421.67 1.878 1.037 3.509 2.789 4.42 4.745 1.355 2.91 1.672 3.374 2.45 3.593.771.217 1.865.33 1.853.192zm-211.45-7.52c.066-3.652.036-6.748-.068-6.88-.364-.466-6.075 9.264-6.075 10.351 0 .126 1.044.763 2.32 1.416 1.276.653 2.457 1.315 2.624 1.47.958.893 1.08.248 1.2-6.356zm192.48.882c1.142-1.233 1.875-2.242 1.629-2.242-.448 0-2.626 1.339-4.046 2.485-.93.75-1.293 3.114-.656 4.269.41.745.43.724.71-.752.234-1.232.678-1.939 2.363-3.76zm5.154 4.584c1.12-.427 1.6-.463 2.41-.18 1.185.416 3.937.617 4.244.31.282-.282-.652-2.218-1.377-2.854-1.188-1.042-2.65-1.542-4.513-1.542-1.849 0-1.927.037-3.536 1.646-1.526 1.526-1.959 2.415-1.432 2.941.398.399 2.8.215 4.203-.32zm-123.73-4.69c-.06-2.494-.262-4.824-.447-5.176-.332-.63-2.18-3.019-3.118-4.03-1.637-1.767-5.483-4.683-6.776-5.138-.829-.292-2.728-.633-4.22-.757-2.51-.21-2.842-.164-4.477.61-.972.46-1.86.835-1.974.835-.452 0-3.293 2.15-5.058 3.827-2.766 2.63-3.182 3.61-3.467 8.173-.132 2.112-.334 4.38-.45 5.04-.272 1.573.262 1.568 1.26-.012.798-1.264 4.197-4.548 4.707-4.548.162 0 .892-.54 1.623-1.2l1.33-1.2 4.351.016c3.48.012 4.544.123 5.311.558.528.298 1.143.543 1.367.544.224.001 1.376.466 2.56 1.034 1.553.743 2.867 1.748 4.713 3.603 1.408 1.415 2.631 2.524 2.717 2.465.086-.058.108-2.148.047-4.643zm-81.521-1.416c.672-1.364 2.414-4.28 3.87-6.48 3.744-5.657 5.552-8.895 5.895-10.56.163-.792.53-2.52.817-3.84s.723-3.552.97-4.96c.581-3.3.984-4.778 2.296-8.413 2.294-6.356 3.872-8.484 9.388-12.658 7.652-5.792 13.568-8.802 22.4-11.398 1.32-.388 2.833-.893 3.36-1.121 1.1-.476 2.393-.888 5.12-1.632 1.057-.288 2.569-.722 3.36-.964 8.176-2.499 11.343-3.023 19.5-3.228 6.286-.157 7.86.02 10.999 1.239.67.26 1.343.242 2.654-.072.966-.232 1.826-.534 1.911-.672.085-.138-.426-.407-1.136-.598s-2.455-.846-3.878-1.455c-1.423-.609-2.754-1.112-2.959-1.118-.204-.006-.947-.29-1.651-.63-.704-.34-1.503-.622-1.776-.628-.273-.006-.663-.178-.867-.382-.67-.67-5.178-.953-17.837-1.116-12.638-.163-17.491.08-19.975 1-1.694.628-4.416 1.447-4.81 1.447-.19 0-1.686.648-3.324 1.44-1.64.792-3.164 1.44-3.387 1.44s-.861.199-1.416.442c-.554.242-1.768.752-2.696 1.132-1.917.784-5.68 3.243-9.672 6.32-2.501 1.927-4.8 3.202-7.68 4.26-.616.227-2.632 1.147-4.48 2.045-3.637 1.768-5.362 3.26-10.771 9.32-4.1 4.594-5.795 7.405-6.948 11.52-1.167 4.165-1.65 5.499-2.509 6.916-.49.812-.893 1.58-.893 1.706 0 .127-.492.975-1.094 1.885-3.257 4.924-4.856 9.966-3.6 11.354.284.313 1.885 1.057 3.56 1.654 3.318 1.184 4.974 2.392 4.974 3.63 0 .963.717 1.444 3.84 2.579 1.32.48 3.264 1.361 4.32 1.959 1.056.598 2.14 1.094 2.41 1.102.3.01.966-.95 1.713-2.464zm18.386-26c2.773-3.717 5.963-6.682 14.394-13.377 1.175-.933 2.713-2.236 3.417-2.894 1.917-1.793 5.167-4.208 5.662-4.208.24 0 .727.204 1.083.453.585.41.83.34 2.551-.734 1.047-.654 2.552-1.446 3.344-1.76.792-.316 3.6-1.623 6.24-2.907s5.536-2.635 6.436-3.003c.9-.368 2.556-1.087 3.68-1.598 3.6-1.635 10.005-3.758 15.164-5.026 1.232-.303 2.377-.676 2.544-.828.434-.396-7.993-.352-11.824.061-4.706.508-11.011 2.082-21.28 5.314-7.951 2.501-12.085 3.943-13.998 4.88-4.828 2.368-12.847 7.948-15.517 10.798-.97 1.034-2.266 3.585-3.552 6.99-.816 2.16-1.06 3.075-1.835 6.88-.197.968-.556 2.537-.798 3.487s-.356 1.863-.254 2.03c.268.432 2.46-1.767 4.542-4.557zm150.05-19.599c1.275-.572 2.27-1.185 2.212-1.361-.06-.176-1.03-.334-2.16-.35-2.627-.04-6.363-.633-7.359-1.17-3.1-1.671-4.727-3.253-6.032-5.867-.397-.795-.889-1.387-1.092-1.316-.483.17-.305 3.048.241 3.903.225.352.5 1.012.612 1.467.357 1.45 2.777 3.85 4.852 4.812 2.844 1.317 5.613 1.28 8.726-.118zm2.865-5.11c1.627-.706 3.295-1.853 3.281-2.255-.008-.218-.89-.966-1.96-1.662l-1.946-1.266-.586.786c-1.637 2.193-2.006 2.55-3.182 3.068-1.265.558-1.636 1.198-.872 1.506.8.323 4.392.202 5.265-.177zm-5.575-3.814c.63-.412 1.37-1.224 1.647-1.803.456-.958.456-1.072 0-1.247-.32-.122-.937.232-1.694.97-1.092 1.067-1.343 1.163-3.048 1.163-3.197 0-4.995-1.293-4.995-3.591 0-1.729-.553-1.497-.695.292-.135 1.702.539 3.312 1.902 4.54.777.7 1.04.748 3.292.594 1.83-.126 2.736-.357 3.591-.918zm10.57-4.036c-.082-1.86-.95-3.65-3.25-6.71-2.656-3.53-4.135-4.411-7.41-4.411-2.47 0-4.295.397-4.417.96-.041.19 1.326.385 3.374.48 3.64.17 4.231.362 5.545 1.813 1.687 1.863 1.99 2.636 1.81 4.62-.19 2.097-.074 2.318 1.991 3.781 1.873 1.327 2.434 1.2 2.358-.533zm-12.325.495c.212-.211.384-.567.384-.79 0-.421-3.177-2.026-4.01-2.026-.713 0-.637 2.43.09 2.854.776.452 3.071.427 3.536-.038zm5.124-4.322c.134-.932-1.979-3.292-2.493-2.784-.258.255-.22.46.14.759.271.225.493.598.493.83s.145.8.321 1.264c.387 1.016 1.39.971 1.54-.07zm75.764 68.422c-1.663-.586-2.524-1.662-1.86-2.326.359-.36 10.415-.414 11.82-.064.386.097.918.504 1.181.906.44.672.421.785-.243 1.41-.666.625-1.063.676-5.022.654-3.21-.019-4.7-.166-5.876-.58zm19.271-.253c-.806-.213-1.06-1.355-.437-1.978.69-.692 7.177-1.04 8.552-.46.978.413 1.243 1.555.526 2.271-.372.373-7.347.507-8.64.167z"/></svg>